        .include "MPlayDef.s"

        .equ    neverendingdream000_grp, voicegroup000
        .equ    neverendingdream000_pri, 0
        .equ    neverendingdream000_rev, 0
        .equ    neverendingdream000_key, 0

        .section .rodata
        .global neverendingdream000
        .align  2

@****************** Track 0 (Midi-Chn.0) ******************@

neverendingdream000_0:
        .byte   KEYSH , neverendingdream000_key+0
@ 000   ----------------------------------------
        .byte   TEMPO , 240/2
        .byte           VOICE , 68
        .byte           VOL   , 43
        .byte   W06
@ 001   ----------------------------------------
        .byte   TEMPO , 70/2
        .byte           N11   , Bn2 , v092
        .byte   W06
@ 002   ----------------------------------------
        .byte   W06
@ 003   ----------------------------------------
        .byte                   En3 , v106
        .byte   W06
@ 004   ----------------------------------------
        .byte   W06
@ 005   ----------------------------------------
        .byte                   Ds3 , v076
        .byte   W06
@ 006   ----------------------------------------
        .byte   W06
@ 007   ----------------------------------------
        .byte                   En3 , v106
        .byte   W06
@ 008   ----------------------------------------
        .byte   W06
@ 009   ----------------------------------------
        .byte                   Fs3
        .byte   W06
@ 010   ----------------------------------------
        .byte   W05
neverendingdream000_0_LOOP:
        .byte           BENDR , 127
        .byte   W01
@ 011   ----------------------------------------
        .byte           N32   , Gn3 , v106 , gtp3
        .byte   W06
@ 012   ----------------------------------------
        .byte   W06
@ 013   ----------------------------------------
        .byte   W06
@ 014   ----------------------------------------
        .byte   W06
@ 015   ----------------------------------------
        .byte   W06
@ 016   ----------------------------------------
        .byte   W06
@ 017   ----------------------------------------
        .byte           N44   , Gn3 , v106 , gtp3
        .byte   W06
@ 018   ----------------------------------------
        .byte   W06
@ 019   ----------------------------------------
        .byte   W06
@ 020   ----------------------------------------
        .byte   W06
@ 021   ----------------------------------------
        .byte   W06
@ 022   ----------------------------------------
        .byte   W06
@ 023   ----------------------------------------
        .byte   W06
@ 024   ----------------------------------------
        .byte   W06
@ 025   ----------------------------------------
        .byte           N05   , An3
        .byte   W06
@ 026   ----------------------------------------
        .byte                   Bn3
        .byte   W06
@ 027   ----------------------------------------
        .byte           N32   , Bn3 , v106 , gtp3
        .byte   W06
@ 028   ----------------------------------------
        .byte   W06
@ 029   ----------------------------------------
        .byte   W06
@ 030   ----------------------------------------
        .byte   W06
@ 031   ----------------------------------------
        .byte   W06
@ 032   ----------------------------------------
        .byte   W06
@ 033   ----------------------------------------
        .byte           N11   , Fs3
        .byte   W06
@ 034   ----------------------------------------
        .byte   W06
@ 035   ----------------------------------------
        .byte           N32   , Fs3 , v106 , gtp3
        .byte   W06
@ 036   ----------------------------------------
        .byte   W06
@ 037   ----------------------------------------
        .byte   W06
@ 038   ----------------------------------------
        .byte   W06
@ 039   ----------------------------------------
        .byte   W06
@ 040   ----------------------------------------
        .byte   W06
@ 041   ----------------------------------------
        .byte           N11   , Dn3
        .byte   W06
@ 042   ----------------------------------------
        .byte   W06
@ 043   ----------------------------------------
        .byte           N44   , En3 , v106 , gtp3
        .byte   W06
@ 044   ----------------------------------------
        .byte   W06
@ 045   ----------------------------------------
        .byte   W06
@ 046   ----------------------------------------
        .byte   W06
@ 047   ----------------------------------------
        .byte   W06
@ 048   ----------------------------------------
        .byte   W06
@ 049   ----------------------------------------
        .byte   W06
@ 050   ----------------------------------------
        .byte   W06
@ 051   ----------------------------------------
        .byte           N17
        .byte   W06
@ 052   ----------------------------------------
        .byte   W06
@ 053   ----------------------------------------
        .byte   W06
@ 054   ----------------------------------------
        .byte                   Fs3
        .byte   W06
@ 055   ----------------------------------------
        .byte   W06
@ 056   ----------------------------------------
        .byte   W06
@ 057   ----------------------------------------
        .byte           N11   , Gn3
        .byte   W06
@ 058   ----------------------------------------
        .byte   W06
@ 059   ----------------------------------------
        .byte           N32   , Gn3 , v106 , gtp3
        .byte   W06
@ 060   ----------------------------------------
        .byte   W06
@ 061   ----------------------------------------
        .byte   W06
@ 062   ----------------------------------------
        .byte   W06
@ 063   ----------------------------------------
        .byte   W06
@ 064   ----------------------------------------
        .byte   W06
@ 065   ----------------------------------------
        .byte           N11   , Dn3
        .byte   W06
@ 066   ----------------------------------------
        .byte   W06
@ 067   ----------------------------------------
        .byte           N30   , Dn3 , v106 , gtp1
        .byte   W06
@ 068   ----------------------------------------
        .byte   W06
@ 069   ----------------------------------------
        .byte   W06
@ 070   ----------------------------------------
        .byte   W06
@ 071   ----------------------------------------
        .byte   W06
@ 072   ----------------------------------------
        .byte   W04
        .byte           N04
        .byte   W02
@ 073   ----------------------------------------
        .byte   W01
        .byte                   Cn3
        .byte   W05
@ 074   ----------------------------------------
        .byte           N05   , Bn2
        .byte   W06
@ 075   ----------------------------------------
        .byte           N44   , Cn3 , v106 , gtp3
        .byte   W06
@ 076   ----------------------------------------
        .byte   W06
@ 077   ----------------------------------------
        .byte   W06
@ 078   ----------------------------------------
        .byte   W06
@ 079   ----------------------------------------
        .byte   W06
@ 080   ----------------------------------------
        .byte   W06
@ 081   ----------------------------------------
        .byte   W06
@ 082   ----------------------------------------
        .byte   W06
@ 083   ----------------------------------------
        .byte           N23   , Gn3
        .byte   W06
@ 084   ----------------------------------------
        .byte   W06
@ 085   ----------------------------------------
        .byte   W06
@ 086   ----------------------------------------
        .byte   W06
@ 087   ----------------------------------------
        .byte                   An3
        .byte   W06
@ 088   ----------------------------------------
        .byte   W06
@ 089   ----------------------------------------
        .byte   W06
@ 090   ----------------------------------------
        .byte   W06
@ 091   ----------------------------------------
        .byte           N32   , Gn3 , v106 , gtp3
        .byte   W06
@ 092   ----------------------------------------
        .byte   W06
@ 093   ----------------------------------------
        .byte   W06
@ 094   ----------------------------------------
        .byte   W06
@ 095   ----------------------------------------
        .byte   W06
@ 096   ----------------------------------------
        .byte   W06
@ 097   ----------------------------------------
        .byte           N11   , Dn3
        .byte   W06
@ 098   ----------------------------------------
        .byte   W06
@ 099   ----------------------------------------
        .byte           N44   , Dn3 , v106 , gtp3
        .byte   W06
@ 100   ----------------------------------------
        .byte   W06
@ 101   ----------------------------------------
        .byte   W06
@ 102   ----------------------------------------
        .byte   W06
@ 103   ----------------------------------------
        .byte   W06
@ 104   ----------------------------------------
        .byte   W06
@ 105   ----------------------------------------
        .byte   W06
@ 106   ----------------------------------------
        .byte   W06
@ 107   ----------------------------------------
        .byte                   En3
        .byte   W06
@ 108   ----------------------------------------
        .byte   W06
@ 109   ----------------------------------------
        .byte   W06
@ 110   ----------------------------------------
        .byte   W06
@ 111   ----------------------------------------
        .byte   W06
@ 112   ----------------------------------------
        .byte   W06
@ 113   ----------------------------------------
        .byte   W06
@ 114   ----------------------------------------
        .byte   W06
@ 115   ----------------------------------------
        .byte           N17
        .byte   W06
@ 116   ----------------------------------------
        .byte   W06
@ 117   ----------------------------------------
        .byte   W06
@ 118   ----------------------------------------
        .byte                   Fs3
        .byte   W06
@ 119   ----------------------------------------
        .byte   W06
@ 120   ----------------------------------------
        .byte   W06
@ 121   ----------------------------------------
        .byte           N11   , Gn3
        .byte   W06
@ 122   ----------------------------------------
        .byte   W06
@ 123   ----------------------------------------
        .byte           N32   , Bn3 , v106 , gtp3
        .byte   W06
@ 124   ----------------------------------------
        .byte   W06
@ 125   ----------------------------------------
        .byte   W06
@ 126   ----------------------------------------
        .byte   W06
@ 127   ----------------------------------------
        .byte   W06
@ 128   ----------------------------------------
        .byte   W06
@ 129   ----------------------------------------
        .byte           N11   , Cn4
        .byte   W06
@ 130   ----------------------------------------
        .byte   W06
@ 131   ----------------------------------------
        .byte           N44   , An3 , v106 , gtp3
        .byte   W06
@ 132   ----------------------------------------
        .byte   W06
@ 133   ----------------------------------------
        .byte   W06
@ 134   ----------------------------------------
        .byte   W06
@ 135   ----------------------------------------
        .byte   W06
@ 136   ----------------------------------------
        .byte   W06
@ 137   ----------------------------------------
        .byte   W06
@ 138   ----------------------------------------
        .byte   W06
@ 139   ----------------------------------------
        .byte           N32   , Gn3 , v106 , gtp3
        .byte   W06
@ 140   ----------------------------------------
        .byte   W06
@ 141   ----------------------------------------
        .byte   W06
@ 142   ----------------------------------------
        .byte   W06
@ 143   ----------------------------------------
        .byte   W06
@ 144   ----------------------------------------
        .byte   W06
@ 145   ----------------------------------------
        .byte           N44   , Gn3 , v106 , gtp3
        .byte   W06
@ 146   ----------------------------------------
        .byte   W06
@ 147   ----------------------------------------
        .byte   W06
@ 148   ----------------------------------------
        .byte   W06
@ 149   ----------------------------------------
        .byte   W06
@ 150   ----------------------------------------
        .byte   W06
@ 151   ----------------------------------------
        .byte   W06
@ 152   ----------------------------------------
        .byte   W06
@ 153   ----------------------------------------
        .byte           N05   , An3
        .byte   W06
@ 154   ----------------------------------------
        .byte                   Bn3
        .byte   W06
@ 155   ----------------------------------------
        .byte           N32   , Bn3 , v106 , gtp3
        .byte   W06
@ 156   ----------------------------------------
        .byte   W06
@ 157   ----------------------------------------
        .byte   W06
@ 158   ----------------------------------------
        .byte   W06
@ 159   ----------------------------------------
        .byte   W06
@ 160   ----------------------------------------
        .byte   W06
@ 161   ----------------------------------------
        .byte           N11   , Fs3
        .byte   W06
@ 162   ----------------------------------------
        .byte   W06
@ 163   ----------------------------------------
        .byte           N32   , Fs3 , v106 , gtp3
        .byte   W06
@ 164   ----------------------------------------
        .byte   W06
@ 165   ----------------------------------------
        .byte   W06
@ 166   ----------------------------------------
        .byte   W06
@ 167   ----------------------------------------
        .byte   W06
@ 168   ----------------------------------------
        .byte   W06
@ 169   ----------------------------------------
        .byte           N11   , Dn3
        .byte   W06
@ 170   ----------------------------------------
        .byte   W06
@ 171   ----------------------------------------
        .byte           N44   , En3 , v106 , gtp3
        .byte   W06
@ 172   ----------------------------------------
        .byte   W06
@ 173   ----------------------------------------
        .byte   W06
@ 174   ----------------------------------------
        .byte   W06
@ 175   ----------------------------------------
        .byte   W06
@ 176   ----------------------------------------
        .byte   W06
@ 177   ----------------------------------------
        .byte   W06
@ 178   ----------------------------------------
        .byte   W06
@ 179   ----------------------------------------
        .byte           N11
        .byte   W06
@ 180   ----------------------------------------
        .byte   W06
@ 181   ----------------------------------------
        .byte                   Fs3
        .byte   W06
@ 182   ----------------------------------------
        .byte   W06
@ 183   ----------------------------------------
        .byte                   En3
        .byte   W06
@ 184   ----------------------------------------
        .byte   W06
@ 185   ----------------------------------------
        .byte           N44   , Gn3 , v106 , gtp3
        .byte   W06
@ 186   ----------------------------------------
        .byte   W06
@ 187   ----------------------------------------
        .byte   W06
@ 188   ----------------------------------------
        .byte   W06
@ 189   ----------------------------------------
        .byte   W06
@ 190   ----------------------------------------
        .byte   W06
@ 191   ----------------------------------------
        .byte   W06
@ 192   ----------------------------------------
        .byte   W06
@ 193   ----------------------------------------
        .byte           N11   , Dn3
        .byte   W06
@ 194   ----------------------------------------
        .byte   W06
@ 195   ----------------------------------------
        .byte           N30
        .byte   W06
@ 196   ----------------------------------------
        .byte   W06
@ 197   ----------------------------------------
        .byte   W06
@ 198   ----------------------------------------
        .byte   W06
@ 199   ----------------------------------------
        .byte   W06
@ 200   ----------------------------------------
        .byte   W05
        .byte           N04
        .byte   W01
@ 201   ----------------------------------------
        .byte   W02
        .byte                   Cn3
        .byte   W04
@ 202   ----------------------------------------
        .byte           N05   , Bn2
        .byte   W06
@ 203   ----------------------------------------
        .byte           N44   , Cn3 , v106 , gtp3
        .byte   W06
@ 204   ----------------------------------------
        .byte   W06
@ 205   ----------------------------------------
        .byte   W06
@ 206   ----------------------------------------
        .byte   W06
@ 207   ----------------------------------------
        .byte   W06
@ 208   ----------------------------------------
        .byte   W06
@ 209   ----------------------------------------
        .byte   W06
@ 210   ----------------------------------------
        .byte   W06
@ 211   ----------------------------------------
        .byte           N23   , Gn3
        .byte   W06
@ 212   ----------------------------------------
        .byte   W06
@ 213   ----------------------------------------
        .byte   W06
@ 214   ----------------------------------------
        .byte   W06
@ 215   ----------------------------------------
        .byte                   An3
        .byte   W06
@ 216   ----------------------------------------
        .byte   W06
@ 217   ----------------------------------------
        .byte   W06
@ 218   ----------------------------------------
        .byte   W06
@ 219   ----------------------------------------
        .byte           N32   , Gn3 , v106 , gtp3
        .byte   W06
@ 220   ----------------------------------------
        .byte   W06
@ 221   ----------------------------------------
        .byte   W06
@ 222   ----------------------------------------
        .byte   W06
@ 223   ----------------------------------------
        .byte   W06
@ 224   ----------------------------------------
        .byte   W06
@ 225   ----------------------------------------
        .byte           N09   , Dn3
        .byte   W06
@ 226   ----------------------------------------
        .byte   W06
@ 227   ----------------------------------------
        .byte           N44   , Dn3 , v106 , gtp3
        .byte   W06
@ 228   ----------------------------------------
        .byte   W06
@ 229   ----------------------------------------
        .byte   W06
@ 230   ----------------------------------------
        .byte   W06
@ 231   ----------------------------------------
        .byte   W06
@ 232   ----------------------------------------
        .byte   W06
@ 233   ----------------------------------------
        .byte   W06
@ 234   ----------------------------------------
        .byte   W06
@ 235   ----------------------------------------
        .byte                   En3
        .byte   W06
@ 236   ----------------------------------------
        .byte   W06
@ 237   ----------------------------------------
        .byte   W06
@ 238   ----------------------------------------
        .byte   W06
@ 239   ----------------------------------------
        .byte   W06
@ 240   ----------------------------------------
        .byte   W06
@ 241   ----------------------------------------
        .byte   W06
@ 242   ----------------------------------------
        .byte   W06
@ 243   ----------------------------------------
        .byte           N17
        .byte   W06
@ 244   ----------------------------------------
        .byte   W06
@ 245   ----------------------------------------
        .byte   W06
@ 246   ----------------------------------------
        .byte                   Fs3
        .byte   W06
@ 247   ----------------------------------------
        .byte   W06
@ 248   ----------------------------------------
        .byte   W06
@ 249   ----------------------------------------
        .byte           N11   , Gn3
        .byte   W06
@ 250   ----------------------------------------
        .byte   W06
@ 251   ----------------------------------------
        .byte           N17   , Fs3
        .byte   W06
@ 252   ----------------------------------------
        .byte   W06
@ 253   ----------------------------------------
        .byte   W06
@ 254   ----------------------------------------
        .byte                   Gn3
        .byte   W06
@ 255   ----------------------------------------
        .byte   W06
@ 256   ----------------------------------------
        .byte   W06
@ 257   ----------------------------------------
        .byte           N11   , An3
        .byte   W06
@ 258   ----------------------------------------
        .byte   W06
@ 259   ----------------------------------------
        .byte           N96
        .byte   W06
@ 260   ----------------------------------------
        .byte   W06
@ 261   ----------------------------------------
        .byte   W06
@ 262   ----------------------------------------
        .byte   W06
@ 263   ----------------------------------------
        .byte   W06
@ 264   ----------------------------------------
        .byte   W06
@ 265   ----------------------------------------
        .byte   W06
@ 266   ----------------------------------------
        .byte   W06
@ 267   ----------------------------------------
        .byte   W06
@ 268   ----------------------------------------
        .byte   W06
@ 269   ----------------------------------------
        .byte   W06
@ 270   ----------------------------------------
        .byte   W06
@ 271   ----------------------------------------
        .byte   W06
@ 272   ----------------------------------------
        .byte   W06
@ 273   ----------------------------------------
        .byte   W06
@ 274   ----------------------------------------
        .byte   W06
@ 275   ----------------------------------------
        .byte   W06
@ 276   ----------------------------------------
        .byte   W06
@ 277   ----------------------------------------
        .byte   W06
@ 278   ----------------------------------------
        .byte   W06
@ 279   ----------------------------------------
        .byte   W06
@ 280   ----------------------------------------
        .byte   W06
@ 281   ----------------------------------------
        .byte   W06
@ 282   ----------------------------------------
        .byte   W06
@ 283   ----------------------------------------
        .byte           N11   , Bn3
        .byte   W06
@ 284   ----------------------------------------
        .byte   W06
@ 285   ----------------------------------------
        .byte                   An3
        .byte   W06
@ 286   ----------------------------------------
        .byte   W06
@ 287   ----------------------------------------
        .byte                   Bn3
        .byte   W06
@ 288   ----------------------------------------
        .byte   W06
@ 289   ----------------------------------------
        .byte           N56   , Dn3 , v106 , gtp3
        .byte   W06
@ 290   ----------------------------------------
        .byte   W06
@ 291   ----------------------------------------
        .byte   W06
@ 292   ----------------------------------------
        .byte   W06
@ 293   ----------------------------------------
        .byte   W06
@ 294   ----------------------------------------
        .byte   W06
@ 295   ----------------------------------------
        .byte   W06
@ 296   ----------------------------------------
        .byte   W06
@ 297   ----------------------------------------
        .byte   W06
@ 298   ----------------------------------------
        .byte   W06
@ 299   ----------------------------------------
        .byte           N17   , Bn3
        .byte   W06
@ 300   ----------------------------------------
        .byte   W06
@ 301   ----------------------------------------
        .byte   W06
@ 302   ----------------------------------------
        .byte                   Cn4
        .byte   W06
@ 303   ----------------------------------------
        .byte   W06
@ 304   ----------------------------------------
        .byte   W06
@ 305   ----------------------------------------
        .byte           N11   , Dn4
        .byte   W06
@ 306   ----------------------------------------
        .byte   W06
@ 307   ----------------------------------------
        .byte           N17
        .byte   W06
@ 308   ----------------------------------------
        .byte   W06
@ 309   ----------------------------------------
        .byte   W06
@ 310   ----------------------------------------
        .byte                   Cn4
        .byte   W06
@ 311   ----------------------------------------
        .byte   W06
@ 312   ----------------------------------------
        .byte   W06
@ 313   ----------------------------------------
        .byte           N11   , Bn3
        .byte   W06
@ 314   ----------------------------------------
        .byte   W06
@ 315   ----------------------------------------
        .byte           N32   , An3 , v106 , gtp3
        .byte   W06
@ 316   ----------------------------------------
        .byte   W06
@ 317   ----------------------------------------
        .byte   W06
@ 318   ----------------------------------------
        .byte   W06
@ 319   ----------------------------------------
        .byte   W06
@ 320   ----------------------------------------
        .byte   W06
@ 321   ----------------------------------------
        .byte           N11   , Bn3
        .byte   W06
@ 322   ----------------------------------------
        .byte   W06
@ 323   ----------------------------------------
        .byte           N68   , Bn3 , v106 , gtp3
        .byte   W06
@ 324   ----------------------------------------
        .byte   W06
@ 325   ----------------------------------------
        .byte   W06
@ 326   ----------------------------------------
        .byte   W06
@ 327   ----------------------------------------
        .byte   W06
@ 328   ----------------------------------------
        .byte   W06
@ 329   ----------------------------------------
        .byte   W06
@ 330   ----------------------------------------
        .byte   W06
@ 331   ----------------------------------------
        .byte   W06
@ 332   ----------------------------------------
        .byte   W06
@ 333   ----------------------------------------
        .byte   W06
@ 334   ----------------------------------------
        .byte   W06
@ 335   ----------------------------------------
        .byte           N23   , Cn4
        .byte   W06
@ 336   ----------------------------------------
        .byte   W06
@ 337   ----------------------------------------
        .byte   W06
@ 338   ----------------------------------------
        .byte   W06
@ 339   ----------------------------------------
        .byte                   Bn3
        .byte   W06
@ 340   ----------------------------------------
        .byte   W06
@ 341   ----------------------------------------
        .byte   W06
@ 342   ----------------------------------------
        .byte   W06
@ 343   ----------------------------------------
        .byte                   An3
        .byte   W06
@ 344   ----------------------------------------
        .byte   W06
@ 345   ----------------------------------------
        .byte   W06
@ 346   ----------------------------------------
        .byte   W06
@ 347   ----------------------------------------
        .byte           N11   , Gn3
        .byte   W06
@ 348   ----------------------------------------
        .byte   W06
@ 349   ----------------------------------------
        .byte                   Fs3
        .byte   W06
@ 350   ----------------------------------------
        .byte   W06
@ 351   ----------------------------------------
        .byte                   Gn3
        .byte   W06
@ 352   ----------------------------------------
        .byte   W06
@ 353   ----------------------------------------
        .byte           N44   , An3 , v106 , gtp3
        .byte   W06
@ 354   ----------------------------------------
        .byte   W06
@ 355   ----------------------------------------
        .byte   W06
@ 356   ----------------------------------------
        .byte   W06
@ 357   ----------------------------------------
        .byte   W06
@ 358   ----------------------------------------
        .byte   W06
@ 359   ----------------------------------------
        .byte   W06
@ 360   ----------------------------------------
        .byte   W06
@ 361   ----------------------------------------
        .byte           N05   , Gn3
        .byte   W06
@ 362   ----------------------------------------
        .byte                   Fs3
        .byte   W06
@ 363   ----------------------------------------
        .byte           N11   , Gn3
        .byte   W06
@ 364   ----------------------------------------
        .byte   W06
@ 365   ----------------------------------------
        .byte                   Fs3
        .byte   W06
@ 366   ----------------------------------------
        .byte   W06
@ 367   ----------------------------------------
        .byte                   Gn3
        .byte   W06
@ 368   ----------------------------------------
        .byte   W06
@ 369   ----------------------------------------
        .byte           N44   , An3 , v106 , gtp3
        .byte   W06
@ 370   ----------------------------------------
        .byte   W06
@ 371   ----------------------------------------
        .byte   W06
@ 372   ----------------------------------------
        .byte   W06
@ 373   ----------------------------------------
        .byte   W06
@ 374   ----------------------------------------
        .byte   W06
@ 375   ----------------------------------------
        .byte   W06
@ 376   ----------------------------------------
        .byte   W06
@ 377   ----------------------------------------
        .byte           N05   , Gn3
        .byte   W06
@ 378   ----------------------------------------
        .byte                   An3
        .byte   W06
@ 379   ----------------------------------------
        .byte           N44   , Bn3 , v106 , gtp3
        .byte   W06
@ 380   ----------------------------------------
        .byte   W06
@ 381   ----------------------------------------
        .byte   W06
@ 382   ----------------------------------------
        .byte   W06
@ 383   ----------------------------------------
        .byte   W06
@ 384   ----------------------------------------
        .byte   W06
@ 385   ----------------------------------------
        .byte   W06
@ 386   ----------------------------------------
        .byte   W06
@ 387   ----------------------------------------
        .byte           N17
        .byte   W06
@ 388   ----------------------------------------
        .byte   W06
@ 389   ----------------------------------------
        .byte   W06
@ 390   ----------------------------------------
        .byte                   Cn4
        .byte   W06
@ 391   ----------------------------------------
        .byte   W06
@ 392   ----------------------------------------
        .byte   W06
@ 393   ----------------------------------------
        .byte           N11   , Dn4
        .byte   W06
@ 394   ----------------------------------------
        .byte   W06
@ 395   ----------------------------------------
        .byte           N32   , Bn3 , v106 , gtp3
        .byte   W06
@ 396   ----------------------------------------
        .byte   W06
@ 397   ----------------------------------------
        .byte   W06
@ 398   ----------------------------------------
        .byte   W06
@ 399   ----------------------------------------
        .byte   W06
@ 400   ----------------------------------------
        .byte   W06
@ 401   ----------------------------------------
        .byte           N05   , Cn4
        .byte   W06
@ 402   ----------------------------------------
        .byte                   Bn3
        .byte   W06
@ 403   ----------------------------------------
        .byte           N44   , An3 , v106 , gtp3
        .byte   W06
@ 404   ----------------------------------------
        .byte   W06
@ 405   ----------------------------------------
        .byte   W06
@ 406   ----------------------------------------
        .byte   W06
@ 407   ----------------------------------------
        .byte   W06
@ 408   ----------------------------------------
        .byte   W06
@ 409   ----------------------------------------
        .byte   W06
@ 410   ----------------------------------------
        .byte   W06
@ 411   ----------------------------------------
        .byte           N11   , Bn3
        .byte   W06
@ 412   ----------------------------------------
        .byte   W06
@ 413   ----------------------------------------
        .byte                   An3
        .byte   W06
@ 414   ----------------------------------------
        .byte   W06
@ 415   ----------------------------------------
        .byte                   Bn3
        .byte   W06
@ 416   ----------------------------------------
        .byte   W06
@ 417   ----------------------------------------
        .byte           N56   , Dn3 , v106 , gtp3
        .byte   W06
@ 418   ----------------------------------------
        .byte   W06
@ 419   ----------------------------------------
        .byte   W06
@ 420   ----------------------------------------
        .byte   W06
@ 421   ----------------------------------------
        .byte   W06
@ 422   ----------------------------------------
        .byte   W06
@ 423   ----------------------------------------
        .byte   W06
@ 424   ----------------------------------------
        .byte   W06
@ 425   ----------------------------------------
        .byte   W06
@ 426   ----------------------------------------
        .byte   W06
@ 427   ----------------------------------------
        .byte           N17   , Bn3
        .byte   W06
@ 428   ----------------------------------------
        .byte   W06
@ 429   ----------------------------------------
        .byte   W06
@ 430   ----------------------------------------
        .byte                   Cn4
        .byte   W06
@ 431   ----------------------------------------
        .byte   W06
@ 432   ----------------------------------------
        .byte   W06
@ 433   ----------------------------------------
        .byte           N11   , Dn4
        .byte   W06
@ 434   ----------------------------------------
        .byte   W06
@ 435   ----------------------------------------
        .byte           N17
        .byte   W06
@ 436   ----------------------------------------
        .byte   W06
@ 437   ----------------------------------------
        .byte   W06
@ 438   ----------------------------------------
        .byte                   Cn4
        .byte   W06
@ 439   ----------------------------------------
        .byte   W06
@ 440   ----------------------------------------
        .byte   W06
@ 441   ----------------------------------------
        .byte           N11   , Bn3
        .byte   W06
@ 442   ----------------------------------------
        .byte   W06
@ 443   ----------------------------------------
        .byte           N32   , An3 , v106 , gtp3
        .byte   W06
@ 444   ----------------------------------------
        .byte   W06
@ 445   ----------------------------------------
        .byte   W06
@ 446   ----------------------------------------
        .byte   W06
@ 447   ----------------------------------------
        .byte   W06
@ 448   ----------------------------------------
        .byte   W06
@ 449   ----------------------------------------
        .byte           N11   , Bn3
        .byte   W06
@ 450   ----------------------------------------
        .byte   W06
@ 451   ----------------------------------------
        .byte           N68   , Bn3 , v106 , gtp3
        .byte   W06
@ 452   ----------------------------------------
        .byte   W06
@ 453   ----------------------------------------
        .byte   W06
@ 454   ----------------------------------------
        .byte   W06
@ 455   ----------------------------------------
        .byte   W06
@ 456   ----------------------------------------
        .byte   W06
@ 457   ----------------------------------------
        .byte   W06
@ 458   ----------------------------------------
        .byte   W06
@ 459   ----------------------------------------
        .byte   W06
@ 460   ----------------------------------------
        .byte   W06
@ 461   ----------------------------------------
        .byte   W06
@ 462   ----------------------------------------
        .byte   W06
@ 463   ----------------------------------------
        .byte           N23   , Cn4
        .byte   W06
@ 464   ----------------------------------------
        .byte   W06
@ 465   ----------------------------------------
        .byte   W06
@ 466   ----------------------------------------
        .byte   W06
@ 467   ----------------------------------------
        .byte                   Bn3
        .byte   W06
@ 468   ----------------------------------------
        .byte   W06
@ 469   ----------------------------------------
        .byte   W06
@ 470   ----------------------------------------
        .byte   W06
@ 471   ----------------------------------------
        .byte                   An3
        .byte   W06
@ 472   ----------------------------------------
        .byte   W06
@ 473   ----------------------------------------
        .byte   W06
@ 474   ----------------------------------------
        .byte   W06
@ 475   ----------------------------------------
        .byte           N11   , Gn3
        .byte   W06
@ 476   ----------------------------------------
        .byte   W06
@ 477   ----------------------------------------
        .byte                   Fs3
        .byte   W06
@ 478   ----------------------------------------
        .byte   W06
@ 479   ----------------------------------------
        .byte                   Gn3
        .byte   W06
@ 480   ----------------------------------------
        .byte   W06
@ 481   ----------------------------------------
        .byte           N44   , An3 , v106 , gtp3
        .byte   W06
@ 482   ----------------------------------------
        .byte   W06
@ 483   ----------------------------------------
        .byte   W06
@ 484   ----------------------------------------
        .byte   W06
@ 485   ----------------------------------------
        .byte   W06
@ 486   ----------------------------------------
        .byte   W06
@ 487   ----------------------------------------
        .byte   W06
@ 488   ----------------------------------------
        .byte   W06
@ 489   ----------------------------------------
        .byte           N05   , Gn3
        .byte   W06
@ 490   ----------------------------------------
        .byte                   Fs3
        .byte   W06
@ 491   ----------------------------------------
        .byte           N11   , Gn3
        .byte   W06
@ 492   ----------------------------------------
        .byte   W06
@ 493   ----------------------------------------
        .byte                   Fs3
        .byte   W06
@ 494   ----------------------------------------
        .byte   W06
@ 495   ----------------------------------------
        .byte                   Gn3
        .byte   W06
@ 496   ----------------------------------------
        .byte   W06
@ 497   ----------------------------------------
        .byte           N44   , An3 , v106 , gtp3
        .byte   W06
@ 498   ----------------------------------------
        .byte   W06
@ 499   ----------------------------------------
        .byte   W06
@ 500   ----------------------------------------
        .byte   W06
@ 501   ----------------------------------------
        .byte   W06
@ 502   ----------------------------------------
        .byte   W06
@ 503   ----------------------------------------
        .byte   W06
@ 504   ----------------------------------------
        .byte   W06
@ 505   ----------------------------------------
        .byte           N05   , Gn3
        .byte   W06
@ 506   ----------------------------------------
        .byte                   An3
        .byte   W06
@ 507   ----------------------------------------
        .byte           N44   , Bn3 , v106 , gtp3
        .byte   W06
@ 508   ----------------------------------------
        .byte   W06
@ 509   ----------------------------------------
        .byte   W06
@ 510   ----------------------------------------
        .byte   W06
@ 511   ----------------------------------------
        .byte   W06
@ 512   ----------------------------------------
        .byte   W06
@ 513   ----------------------------------------
        .byte   W06
@ 514   ----------------------------------------
        .byte   W06
@ 515   ----------------------------------------
        .byte           N17
        .byte   W06
@ 516   ----------------------------------------
        .byte   W06
@ 517   ----------------------------------------
        .byte   W06
@ 518   ----------------------------------------
        .byte                   Cn4
        .byte   W06
@ 519   ----------------------------------------
        .byte   W06
@ 520   ----------------------------------------
        .byte   W06
@ 521   ----------------------------------------
        .byte           N11   , Dn4
        .byte   W06
@ 522   ----------------------------------------
        .byte   W06
@ 523   ----------------------------------------
        .byte           N32   , Dn4 , v106 , gtp3
        .byte   W06
@ 524   ----------------------------------------
        .byte   W06
@ 525   ----------------------------------------
        .byte   W06
@ 526   ----------------------------------------
        .byte   W06
@ 527   ----------------------------------------
        .byte   W06
@ 528   ----------------------------------------
        .byte   W06
@ 529   ----------------------------------------
        .byte           N23   , Gn3
        .byte   W06
@ 530   ----------------------------------------
        .byte   W06
@ 531   ----------------------------------------
        .byte   W06
@ 532   ----------------------------------------
        .byte   W06
@ 533   ----------------------------------------
        .byte           N11   , Fs3
        .byte   W06
@ 534   ----------------------------------------
        .byte   W06
@ 535   ----------------------------------------
        .byte           N23   , An3
        .byte   W06
@ 536   ----------------------------------------
        .byte   W06
@ 537   ----------------------------------------
        .byte   W06
@ 538   ----------------------------------------
        .byte   W06
@ 539   ----------------------------------------
        .byte           N96   , Gn3 , v081
        .byte   W06
@ 540   ----------------------------------------
        .byte   W06
@ 541   ----------------------------------------
        .byte   W06
@ 542   ----------------------------------------
        .byte   W06
@ 543   ----------------------------------------
        .byte   W06
@ 544   ----------------------------------------
        .byte   W06
@ 545   ----------------------------------------
        .byte   W06
@ 546   ----------------------------------------
        .byte   W06
@ 547   ----------------------------------------
        .byte   W06
@ 548   ----------------------------------------
        .byte   W06
@ 549   ----------------------------------------
        .byte   W06
@ 550   ----------------------------------------
        .byte   W06
@ 551   ----------------------------------------
        .byte   W06
@ 552   ----------------------------------------
        .byte   W06
@ 553   ----------------------------------------
        .byte   W06
@ 554   ----------------------------------------
        .byte   W06
@ 555   ----------------------------------------
        .byte   W06
@ 556   ----------------------------------------
        .byte   W06
@ 557   ----------------------------------------
        .byte   W06
@ 558   ----------------------------------------
        .byte   W06
@ 559   ----------------------------------------
        .byte   W06
@ 560   ----------------------------------------
        .byte   W06
@ 561   ----------------------------------------
        .byte   W06
@ 562   ----------------------------------------
        .byte   W06
@ 563   ----------------------------------------
        .byte   W06
@ 564   ----------------------------------------
        .byte   W06
@ 565   ----------------------------------------
        .byte   W06
@ 566   ----------------------------------------
        .byte   W06
@ 567   ----------------------------------------
        .byte   W06
@ 568   ----------------------------------------
        .byte   W06
@ 569   ----------------------------------------
        .byte   W06
@ 570   ----------------------------------------
        .byte   W06
@ 571   ----------------------------------------
        .byte   W06
@ 572   ----------------------------------------
        .byte   W06
@ 573   ----------------------------------------
        .byte   W06
@ 574   ----------------------------------------
        .byte   W06
@ 575   ----------------------------------------
        .byte   W06
@ 576   ----------------------------------------
        .byte   W06
@ 577   ----------------------------------------
        .byte   W06
@ 578   ----------------------------------------
        .byte   W06
@ 579   ----------------------------------------
        .byte   W06
@ 580   ----------------------------------------
        .byte   W06
@ 581   ----------------------------------------
        .byte   W06
@ 582   ----------------------------------------
        .byte   W06
@ 583   ----------------------------------------
        .byte   W06
@ 584   ----------------------------------------
        .byte   W06
@ 585   ----------------------------------------
        .byte   W06
@ 586   ----------------------------------------
        .byte   W06
@ 587   ----------------------------------------
        .byte   W06
@ 588   ----------------------------------------
        .byte   W06
@ 589   ----------------------------------------
        .byte   W06
@ 590   ----------------------------------------
        .byte   W06
@ 591   ----------------------------------------
        .byte   W06
@ 592   ----------------------------------------
        .byte   W06
@ 593   ----------------------------------------
        .byte           N11   , Bn2 , v092
        .byte   W06
@ 594   ----------------------------------------
        .byte   W06
@ 595   ----------------------------------------
        .byte                   En3 , v106
        .byte   W06
@ 596   ----------------------------------------
        .byte   W06
@ 597   ----------------------------------------
        .byte                   Ds3 , v076
        .byte   W06
@ 598   ----------------------------------------
        .byte   W06
@ 599   ----------------------------------------
        .byte                   En3 , v106
        .byte   W06
@ 600   ----------------------------------------
        .byte   W06
@ 601   ----------------------------------------
        .byte                   Fs3
        .byte   W06
@ 602   ----------------------------------------
        .byte   W06
@ 603   ----------------------------------------
        .byte   GOTO
         .word  neverendingdream000_0_LOOP
        .byte   FINE

@****************** Track 1 (Midi-Chn.1) ******************@

neverendingdream000_1:
        .byte   KEYSH , neverendingdream000_key+0
@ 000   ----------------------------------------
        .byte           VOICE , 69
        .byte           VOL   , 31
        .byte   W06
@ 001   ----------------------------------------
neverendingdream000_1_1:
        .byte   W01
        .byte           N12   , Bn2 , v084
        .byte   W05
        .byte   PEND
@ 002   ----------------------------------------
        .byte   W06
@ 003   ----------------------------------------
neverendingdream000_1_3:
        .byte   W01
        .byte           N12   , En3 , v092
        .byte   W05
        .byte   PEND
@ 004   ----------------------------------------
        .byte   W06
@ 005   ----------------------------------------
        .byte   W01
        .byte                   Ds3 , v072
        .byte   W05
@ 006   ----------------------------------------
        .byte   W06
@ 007   ----------------------------------------
        .byte   PATT
         .word  neverendingdream000_1_3
@ 008   ----------------------------------------
        .byte   W06
@ 009   ----------------------------------------
neverendingdream000_1_9:
        .byte   W01
        .byte           N12   , Fs3 , v092
        .byte   W05
        .byte   PEND
@ 010   ----------------------------------------
        .byte   W05
neverendingdream000_1_LOOP:
        .byte   W01
@ 011   ----------------------------------------
neverendingdream000_1_11:
        .byte   W01
        .byte           N36   , Gn3 , v092
        .byte   W05
        .byte   PEND
@ 012   ----------------------------------------
        .byte   W06
@ 013   ----------------------------------------
        .byte   W06
@ 014   ----------------------------------------
        .byte   W06
@ 015   ----------------------------------------
        .byte   W06
@ 016   ----------------------------------------
        .byte   W06
@ 017   ----------------------------------------
neverendingdream000_1_17:
        .byte   W01
        .byte           N48   , Gn3 , v092
        .byte   W05
        .byte   PEND
@ 018   ----------------------------------------
        .byte   W06
@ 019   ----------------------------------------
        .byte   W06
@ 020   ----------------------------------------
        .byte   W06
@ 021   ----------------------------------------
        .byte   W06
@ 022   ----------------------------------------
        .byte   W06
@ 023   ----------------------------------------
        .byte   W06
@ 024   ----------------------------------------
        .byte   W06
@ 025   ----------------------------------------
neverendingdream000_1_25:
        .byte   W01
        .byte           N06   , An3 , v092
        .byte   W05
        .byte   PEND
@ 026   ----------------------------------------
neverendingdream000_1_26:
        .byte   W01
        .byte           N06   , Bn3 , v092
        .byte   W05
        .byte   PEND
@ 027   ----------------------------------------
neverendingdream000_1_27:
        .byte   W01
        .byte           N36   , Bn3 , v092
        .byte   W05
        .byte   PEND
@ 028   ----------------------------------------
        .byte   W06
@ 029   ----------------------------------------
        .byte   W06
@ 030   ----------------------------------------
        .byte   W06
@ 031   ----------------------------------------
        .byte   W06
@ 032   ----------------------------------------
        .byte   W06
@ 033   ----------------------------------------
        .byte   PATT
         .word  neverendingdream000_1_9
@ 034   ----------------------------------------
        .byte   W06
@ 035   ----------------------------------------
neverendingdream000_1_35:
        .byte   W01
        .byte           N36   , Fs3 , v092
        .byte   W05
        .byte   PEND
@ 036   ----------------------------------------
        .byte   W06
@ 037   ----------------------------------------
        .byte   W06
@ 038   ----------------------------------------
        .byte   W06
@ 039   ----------------------------------------
        .byte   W06
@ 040   ----------------------------------------
        .byte   W06
@ 041   ----------------------------------------
neverendingdream000_1_41:
        .byte   W01
        .byte           N12   , Dn3 , v092
        .byte   W05
        .byte   PEND
@ 042   ----------------------------------------
        .byte   W06
@ 043   ----------------------------------------
neverendingdream000_1_43:
        .byte   W01
        .byte           N48   , En3 , v092
        .byte   W05
        .byte   PEND
@ 044   ----------------------------------------
        .byte   W06
@ 045   ----------------------------------------
        .byte   W06
@ 046   ----------------------------------------
        .byte   W06
@ 047   ----------------------------------------
        .byte   W06
@ 048   ----------------------------------------
        .byte   W06
@ 049   ----------------------------------------
        .byte   W06
@ 050   ----------------------------------------
        .byte   W06
@ 051   ----------------------------------------
neverendingdream000_1_51:
        .byte   W01
        .byte           N18   , En3 , v092
        .byte   W05
        .byte   PEND
@ 052   ----------------------------------------
        .byte   W06
@ 053   ----------------------------------------
        .byte   W06
@ 054   ----------------------------------------
neverendingdream000_1_54:
        .byte   W01
        .byte           N18   , Fs3 , v092
        .byte   W05
        .byte   PEND
@ 055   ----------------------------------------
        .byte   W06
@ 056   ----------------------------------------
        .byte   W06
@ 057   ----------------------------------------
neverendingdream000_1_57:
        .byte   W01
        .byte           N12   , Gn3 , v092
        .byte   W05
        .byte   PEND
@ 058   ----------------------------------------
        .byte   W06
@ 059   ----------------------------------------
        .byte   PATT
         .word  neverendingdream000_1_11
@ 060   ----------------------------------------
        .byte   W06
@ 061   ----------------------------------------
        .byte   W06
@ 062   ----------------------------------------
        .byte   W06
@ 063   ----------------------------------------
        .byte   W06
@ 064   ----------------------------------------
        .byte   W06
@ 065   ----------------------------------------
        .byte   PATT
         .word  neverendingdream000_1_41
@ 066   ----------------------------------------
        .byte   W06
@ 067   ----------------------------------------
        .byte   W01
        .byte           N30   , Dn3 , v092 , gtp1
        .byte   W05
@ 068   ----------------------------------------
        .byte   W06
@ 069   ----------------------------------------
        .byte   W06
@ 070   ----------------------------------------
        .byte   W06
@ 071   ----------------------------------------
        .byte   W06
@ 072   ----------------------------------------
        .byte   W05
        .byte           N04
        .byte   W01
@ 073   ----------------------------------------
        .byte   W03
        .byte                   Cn3
        .byte   W03
@ 074   ----------------------------------------
neverendingdream000_1_74:
        .byte   W01
        .byte           N06   , Bn2 , v092
        .byte   W05
        .byte   PEND
@ 075   ----------------------------------------
neverendingdream000_1_75:
        .byte   W01
        .byte           N48   , Cn3 , v092
        .byte   W05
        .byte   PEND
@ 076   ----------------------------------------
        .byte   W06
@ 077   ----------------------------------------
        .byte   W06
@ 078   ----------------------------------------
        .byte   W06
@ 079   ----------------------------------------
        .byte   W06
@ 080   ----------------------------------------
        .byte   W06
@ 081   ----------------------------------------
        .byte   W06
@ 082   ----------------------------------------
        .byte   W06
@ 083   ----------------------------------------
neverendingdream000_1_83:
        .byte   W01
        .byte           N24   , Gn3 , v092
        .byte   W05
        .byte   PEND
@ 084   ----------------------------------------
        .byte   W06
@ 085   ----------------------------------------
        .byte   W06
@ 086   ----------------------------------------
        .byte   W06
@ 087   ----------------------------------------
neverendingdream000_1_87:
        .byte   W01
        .byte           N24   , An3 , v092
        .byte   W05
        .byte   PEND
@ 088   ----------------------------------------
        .byte   W06
@ 089   ----------------------------------------
        .byte   W06
@ 090   ----------------------------------------
        .byte   W06
@ 091   ----------------------------------------
        .byte   PATT
         .word  neverendingdream000_1_11
@ 092   ----------------------------------------
        .byte   W06
@ 093   ----------------------------------------
        .byte   W06
@ 094   ----------------------------------------
        .byte   W06
@ 095   ----------------------------------------
        .byte   W06
@ 096   ----------------------------------------
        .byte   W06
@ 097   ----------------------------------------
        .byte   PATT
         .word  neverendingdream000_1_41
@ 098   ----------------------------------------
        .byte   W06
@ 099   ----------------------------------------
neverendingdream000_1_99:
        .byte   W01
        .byte           N48   , Dn3 , v092
        .byte   W05
        .byte   PEND
@ 100   ----------------------------------------
        .byte   W06
@ 101   ----------------------------------------
        .byte   W06
@ 102   ----------------------------------------
        .byte   W06
@ 103   ----------------------------------------
        .byte   W06
@ 104   ----------------------------------------
        .byte   W06
@ 105   ----------------------------------------
        .byte   W06
@ 106   ----------------------------------------
        .byte   W06
@ 107   ----------------------------------------
        .byte   PATT
         .word  neverendingdream000_1_43
@ 108   ----------------------------------------
        .byte   W06
@ 109   ----------------------------------------
        .byte   W06
@ 110   ----------------------------------------
        .byte   W06
@ 111   ----------------------------------------
        .byte   W06
@ 112   ----------------------------------------
        .byte   W06
@ 113   ----------------------------------------
        .byte   W06
@ 114   ----------------------------------------
        .byte   W06
@ 115   ----------------------------------------
        .byte   PATT
         .word  neverendingdream000_1_51
@ 116   ----------------------------------------
        .byte   W06
@ 117   ----------------------------------------
        .byte   W06
@ 118   ----------------------------------------
        .byte   PATT
         .word  neverendingdream000_1_54
@ 119   ----------------------------------------
        .byte   W06
@ 120   ----------------------------------------
        .byte   W06
@ 121   ----------------------------------------
        .byte   PATT
         .word  neverendingdream000_1_57
@ 122   ----------------------------------------
        .byte   W06
@ 123   ----------------------------------------
        .byte   PATT
         .word  neverendingdream000_1_27
@ 124   ----------------------------------------
        .byte   W06
@ 125   ----------------------------------------
        .byte   W06
@ 126   ----------------------------------------
        .byte   W06
@ 127   ----------------------------------------
        .byte   W06
@ 128   ----------------------------------------
        .byte   W06
@ 129   ----------------------------------------
        .byte   W01
        .byte           N12   , Cn4 , v092
        .byte   W05
@ 130   ----------------------------------------
        .byte   W06
@ 131   ----------------------------------------
neverendingdream000_1_131:
        .byte   W01
        .byte           N48   , An3 , v092
        .byte   W05
        .byte   PEND
@ 132   ----------------------------------------
        .byte   W06
@ 133   ----------------------------------------
        .byte   W06
@ 134   ----------------------------------------
        .byte   W06
@ 135   ----------------------------------------
        .byte   W06
@ 136   ----------------------------------------
        .byte   W06
@ 137   ----------------------------------------
        .byte   W06
@ 138   ----------------------------------------
        .byte   W06
@ 139   ----------------------------------------
        .byte   PATT
         .word  neverendingdream000_1_11
@ 140   ----------------------------------------
        .byte   W06
@ 141   ----------------------------------------
        .byte   W06
@ 142   ----------------------------------------
        .byte   W06
@ 143   ----------------------------------------
        .byte   W06
@ 144   ----------------------------------------
        .byte   W06
@ 145   ----------------------------------------
        .byte   PATT
         .word  neverendingdream000_1_17
@ 146   ----------------------------------------
        .byte   W06
@ 147   ----------------------------------------
        .byte   W06
@ 148   ----------------------------------------
        .byte   W06
@ 149   ----------------------------------------
        .byte   W06
@ 150   ----------------------------------------
        .byte   W06
@ 151   ----------------------------------------
        .byte   W06
@ 152   ----------------------------------------
        .byte   W06
@ 153   ----------------------------------------
        .byte   PATT
         .word  neverendingdream000_1_25
@ 154   ----------------------------------------
        .byte   PATT
         .word  neverendingdream000_1_26
@ 155   ----------------------------------------
        .byte   PATT
         .word  neverendingdream000_1_27
@ 156   ----------------------------------------
        .byte   W06
@ 157   ----------------------------------------
        .byte   W06
@ 158   ----------------------------------------
        .byte   W06
@ 159   ----------------------------------------
        .byte   W06
@ 160   ----------------------------------------
        .byte   W06
@ 161   ----------------------------------------
        .byte   PATT
         .word  neverendingdream000_1_9
@ 162   ----------------------------------------
        .byte   W06
@ 163   ----------------------------------------
        .byte   PATT
         .word  neverendingdream000_1_35
@ 164   ----------------------------------------
        .byte   W06
@ 165   ----------------------------------------
        .byte   W06
@ 166   ----------------------------------------
        .byte   W06
@ 167   ----------------------------------------
        .byte   W06
@ 168   ----------------------------------------
        .byte   W06
@ 169   ----------------------------------------
        .byte   PATT
         .word  neverendingdream000_1_41
@ 170   ----------------------------------------
        .byte   W06
@ 171   ----------------------------------------
        .byte   PATT
         .word  neverendingdream000_1_43
@ 172   ----------------------------------------
        .byte   W06
@ 173   ----------------------------------------
        .byte   W06
@ 174   ----------------------------------------
        .byte   W06
@ 175   ----------------------------------------
        .byte   W06
@ 176   ----------------------------------------
        .byte   W06
@ 177   ----------------------------------------
        .byte   W06
@ 178   ----------------------------------------
        .byte   W06
@ 179   ----------------------------------------
        .byte   PATT
         .word  neverendingdream000_1_3
@ 180   ----------------------------------------
        .byte   W06
@ 181   ----------------------------------------
        .byte   PATT
         .word  neverendingdream000_1_9
@ 182   ----------------------------------------
        .byte   W06
@ 183   ----------------------------------------
        .byte   PATT
         .word  neverendingdream000_1_3
@ 184   ----------------------------------------
        .byte   W06
@ 185   ----------------------------------------
        .byte   PATT
         .word  neverendingdream000_1_17
@ 186   ----------------------------------------
        .byte   W06
@ 187   ----------------------------------------
        .byte   W06
@ 188   ----------------------------------------
        .byte   W06
@ 189   ----------------------------------------
        .byte   W06
@ 190   ----------------------------------------
        .byte   W06
@ 191   ----------------------------------------
        .byte   W06
@ 192   ----------------------------------------
        .byte   W06
@ 193   ----------------------------------------
        .byte   PATT
         .word  neverendingdream000_1_41
@ 194   ----------------------------------------
        .byte   W06
@ 195   ----------------------------------------
        .byte   W01
        .byte           N30   , Dn3 , v092
        .byte   W05
@ 196   ----------------------------------------
        .byte   W06
@ 197   ----------------------------------------
        .byte   W06
@ 198   ----------------------------------------
        .byte   W06
@ 199   ----------------------------------------
        .byte   W06
@ 200   ----------------------------------------
        .byte   W06
@ 201   ----------------------------------------
        .byte           N05
        .byte   W04
        .byte           N04   , Cn3
        .byte   W02
@ 202   ----------------------------------------
        .byte   PATT
         .word  neverendingdream000_1_74
@ 203   ----------------------------------------
        .byte   PATT
         .word  neverendingdream000_1_75
@ 204   ----------------------------------------
        .byte   W06
@ 205   ----------------------------------------
        .byte   W06
@ 206   ----------------------------------------
        .byte   W06
@ 207   ----------------------------------------
        .byte   W06
@ 208   ----------------------------------------
        .byte   W06
@ 209   ----------------------------------------
        .byte   W06
@ 210   ----------------------------------------
        .byte   W06
@ 211   ----------------------------------------
        .byte   PATT
         .word  neverendingdream000_1_83
@ 212   ----------------------------------------
        .byte   W06
@ 213   ----------------------------------------
        .byte   W06
@ 214   ----------------------------------------
        .byte   W06
@ 215   ----------------------------------------
        .byte   PATT
         .word  neverendingdream000_1_87
@ 216   ----------------------------------------
        .byte   W06
@ 217   ----------------------------------------
        .byte   W06
@ 218   ----------------------------------------
        .byte   W06
@ 219   ----------------------------------------
        .byte   PATT
         .word  neverendingdream000_1_11
@ 220   ----------------------------------------
        .byte   W06
@ 221   ----------------------------------------
        .byte   W06
@ 222   ----------------------------------------
        .byte   W06
@ 223   ----------------------------------------
        .byte   W06
@ 224   ----------------------------------------
        .byte   W06
@ 225   ----------------------------------------
        .byte   W01
        .byte           N10   , Dn3 , v092
        .byte   W05
@ 226   ----------------------------------------
        .byte   W06
@ 227   ----------------------------------------
        .byte   PATT
         .word  neverendingdream000_1_99
@ 228   ----------------------------------------
        .byte   W06
@ 229   ----------------------------------------
        .byte   W06
@ 230   ----------------------------------------
        .byte   W06
@ 231   ----------------------------------------
        .byte   W06
@ 232   ----------------------------------------
        .byte   W06
@ 233   ----------------------------------------
        .byte   W06
@ 234   ----------------------------------------
        .byte   W06
@ 235   ----------------------------------------
        .byte   PATT
         .word  neverendingdream000_1_43
@ 236   ----------------------------------------
        .byte   W06
@ 237   ----------------------------------------
        .byte   W06
@ 238   ----------------------------------------
        .byte   W06
@ 239   ----------------------------------------
        .byte   W06
@ 240   ----------------------------------------
        .byte   W06
@ 241   ----------------------------------------
        .byte   W06
@ 242   ----------------------------------------
        .byte   W06
@ 243   ----------------------------------------
        .byte   PATT
         .word  neverendingdream000_1_51
@ 244   ----------------------------------------
        .byte   W06
@ 245   ----------------------------------------
        .byte   W06
@ 246   ----------------------------------------
        .byte   PATT
         .word  neverendingdream000_1_54
@ 247   ----------------------------------------
        .byte   W06
@ 248   ----------------------------------------
        .byte   W06
@ 249   ----------------------------------------
        .byte   PATT
         .word  neverendingdream000_1_57
@ 250   ----------------------------------------
        .byte   W06
@ 251   ----------------------------------------
        .byte   PATT
         .word  neverendingdream000_1_54
@ 252   ----------------------------------------
        .byte   W06
@ 253   ----------------------------------------
        .byte   W06
@ 254   ----------------------------------------
        .byte   W01
        .byte           N18   , Gn3 , v092
        .byte   W05
@ 255   ----------------------------------------
        .byte   W06
@ 256   ----------------------------------------
        .byte   W06
@ 257   ----------------------------------------
neverendingdream000_1_257:
        .byte   W01
        .byte           N12   , An3 , v092
        .byte   W05
        .byte   PEND
@ 258   ----------------------------------------
        .byte   W06
@ 259   ----------------------------------------
        .byte   W01
        .byte           N92   , An3 , v092 , gtp3
        .byte   W05
@ 260   ----------------------------------------
        .byte   W06
@ 261   ----------------------------------------
        .byte   W06
@ 262   ----------------------------------------
        .byte   W06
@ 263   ----------------------------------------
        .byte   W06
@ 264   ----------------------------------------
        .byte   W06
@ 265   ----------------------------------------
        .byte   W06
@ 266   ----------------------------------------
        .byte   W06
@ 267   ----------------------------------------
        .byte   W06
@ 268   ----------------------------------------
        .byte   W06
@ 269   ----------------------------------------
        .byte   W06
@ 270   ----------------------------------------
        .byte   W06
@ 271   ----------------------------------------
        .byte   W06
@ 272   ----------------------------------------
        .byte   W06
@ 273   ----------------------------------------
        .byte   W06
@ 274   ----------------------------------------
        .byte   W06
@ 275   ----------------------------------------
        .byte   W06
@ 276   ----------------------------------------
        .byte   W06
@ 277   ----------------------------------------
        .byte   W06
@ 278   ----------------------------------------
        .byte   W06
@ 279   ----------------------------------------
        .byte   W06
@ 280   ----------------------------------------
        .byte   W06
@ 281   ----------------------------------------
        .byte   W06
@ 282   ----------------------------------------
        .byte   W06
@ 283   ----------------------------------------
neverendingdream000_1_283:
        .byte   W01
        .byte           N12   , Bn3 , v092
        .byte   W05
        .byte   PEND
@ 284   ----------------------------------------
        .byte   W06
@ 285   ----------------------------------------
        .byte   PATT
         .word  neverendingdream000_1_257
@ 286   ----------------------------------------
        .byte   W06
@ 287   ----------------------------------------
        .byte   PATT
         .word  neverendingdream000_1_283
@ 288   ----------------------------------------
        .byte   W06
@ 289   ----------------------------------------
neverendingdream000_1_289:
        .byte   W01
        .byte           N60   , Dn3 , v092
        .byte   W05
        .byte   PEND
@ 290   ----------------------------------------
        .byte   W06
@ 291   ----------------------------------------
        .byte   W06
@ 292   ----------------------------------------
        .byte   W06
@ 293   ----------------------------------------
        .byte   W06
@ 294   ----------------------------------------
        .byte   W06
@ 295   ----------------------------------------
        .byte   W06
@ 296   ----------------------------------------
        .byte   W06
@ 297   ----------------------------------------
        .byte   W06
@ 298   ----------------------------------------
        .byte   W06
@ 299   ----------------------------------------
neverendingdream000_1_299:
        .byte   W01
        .byte           N18   , Bn3 , v092
        .byte   W05
        .byte   PEND
@ 300   ----------------------------------------
        .byte   W06
@ 301   ----------------------------------------
        .byte   W06
@ 302   ----------------------------------------
neverendingdream000_1_302:
        .byte   W01
        .byte           N18   , Cn4 , v092
        .byte   W05
        .byte   PEND
@ 303   ----------------------------------------
        .byte   W06
@ 304   ----------------------------------------
        .byte   W06
@ 305   ----------------------------------------
neverendingdream000_1_305:
        .byte   W01
        .byte           N12   , Dn4 , v092
        .byte   W05
        .byte   PEND
@ 306   ----------------------------------------
        .byte   W06
@ 307   ----------------------------------------
neverendingdream000_1_307:
        .byte   W01
        .byte           N18   , Dn4 , v092
        .byte   W05
        .byte   PEND
@ 308   ----------------------------------------
        .byte   W06
@ 309   ----------------------------------------
        .byte   W06
@ 310   ----------------------------------------
        .byte   PATT
         .word  neverendingdream000_1_302
@ 311   ----------------------------------------
        .byte   W06
@ 312   ----------------------------------------
        .byte   W06
@ 313   ----------------------------------------
        .byte   PATT
         .word  neverendingdream000_1_283
@ 314   ----------------------------------------
        .byte   W06
@ 315   ----------------------------------------
neverendingdream000_1_315:
        .byte   W01
        .byte           N36   , An3 , v092
        .byte   W05
        .byte   PEND
@ 316   ----------------------------------------
        .byte   W06
@ 317   ----------------------------------------
        .byte   W06
@ 318   ----------------------------------------
        .byte   W06
@ 319   ----------------------------------------
        .byte   W06
@ 320   ----------------------------------------
        .byte   W06
@ 321   ----------------------------------------
        .byte   PATT
         .word  neverendingdream000_1_283
@ 322   ----------------------------------------
        .byte   W06
@ 323   ----------------------------------------
neverendingdream000_1_323:
        .byte   W01
        .byte           N72   , Bn3 , v092
        .byte   W05
        .byte   PEND
@ 324   ----------------------------------------
        .byte   W06
@ 325   ----------------------------------------
        .byte   W06
@ 326   ----------------------------------------
        .byte   W06
@ 327   ----------------------------------------
        .byte   W06
@ 328   ----------------------------------------
        .byte   W06
@ 329   ----------------------------------------
        .byte   W06
@ 330   ----------------------------------------
        .byte   W06
@ 331   ----------------------------------------
        .byte   W06
@ 332   ----------------------------------------
        .byte   W06
@ 333   ----------------------------------------
        .byte   W06
@ 334   ----------------------------------------
        .byte   W06
@ 335   ----------------------------------------
neverendingdream000_1_335:
        .byte   W01
        .byte           N24   , Cn4 , v092
        .byte   W05
        .byte   PEND
@ 336   ----------------------------------------
        .byte   W06
@ 337   ----------------------------------------
        .byte   W06
@ 338   ----------------------------------------
        .byte   W06
@ 339   ----------------------------------------
neverendingdream000_1_339:
        .byte   W01
        .byte           N24   , Bn3 , v092
        .byte   W05
        .byte   PEND
@ 340   ----------------------------------------
        .byte   W06
@ 341   ----------------------------------------
        .byte   W06
@ 342   ----------------------------------------
        .byte   W06
@ 343   ----------------------------------------
        .byte   PATT
         .word  neverendingdream000_1_87
@ 344   ----------------------------------------
        .byte   W06
@ 345   ----------------------------------------
        .byte   W06
@ 346   ----------------------------------------
        .byte   W06
@ 347   ----------------------------------------
        .byte   PATT
         .word  neverendingdream000_1_57
@ 348   ----------------------------------------
        .byte   W06
@ 349   ----------------------------------------
        .byte   PATT
         .word  neverendingdream000_1_9
@ 350   ----------------------------------------
        .byte   W06
@ 351   ----------------------------------------
        .byte   PATT
         .word  neverendingdream000_1_57
@ 352   ----------------------------------------
        .byte   W06
@ 353   ----------------------------------------
        .byte   PATT
         .word  neverendingdream000_1_131
@ 354   ----------------------------------------
        .byte   W06
@ 355   ----------------------------------------
        .byte   W06
@ 356   ----------------------------------------
        .byte   W06
@ 357   ----------------------------------------
        .byte   W06
@ 358   ----------------------------------------
        .byte   W06
@ 359   ----------------------------------------
        .byte   W06
@ 360   ----------------------------------------
        .byte   W06
@ 361   ----------------------------------------
neverendingdream000_1_361:
        .byte   W01
        .byte           N06   , Gn3 , v092
        .byte   W05
        .byte   PEND
@ 362   ----------------------------------------
neverendingdream000_1_362:
        .byte   W01
        .byte           N06   , Fs3 , v092
        .byte   W05
        .byte   PEND
@ 363   ----------------------------------------
        .byte   PATT
         .word  neverendingdream000_1_57
@ 364   ----------------------------------------
        .byte   W06
@ 365   ----------------------------------------
        .byte   PATT
         .word  neverendingdream000_1_9
@ 366   ----------------------------------------
        .byte   W06
@ 367   ----------------------------------------
        .byte   PATT
         .word  neverendingdream000_1_57
@ 368   ----------------------------------------
        .byte   W06
@ 369   ----------------------------------------
        .byte   PATT
         .word  neverendingdream000_1_131
@ 370   ----------------------------------------
        .byte   W06
@ 371   ----------------------------------------
        .byte   W06
@ 372   ----------------------------------------
        .byte   W06
@ 373   ----------------------------------------
        .byte   W06
@ 374   ----------------------------------------
        .byte   W06
@ 375   ----------------------------------------
        .byte   W06
@ 376   ----------------------------------------
        .byte   W06
@ 377   ----------------------------------------
        .byte   PATT
         .word  neverendingdream000_1_361
@ 378   ----------------------------------------
        .byte   PATT
         .word  neverendingdream000_1_25
@ 379   ----------------------------------------
neverendingdream000_1_379:
        .byte   W01
        .byte           N48   , Bn3 , v092
        .byte   W05
        .byte   PEND
@ 380   ----------------------------------------
        .byte   W06
@ 381   ----------------------------------------
        .byte   W06
@ 382   ----------------------------------------
        .byte   W06
@ 383   ----------------------------------------
        .byte   W06
@ 384   ----------------------------------------
        .byte   W06
@ 385   ----------------------------------------
        .byte   W06
@ 386   ----------------------------------------
        .byte   W06
@ 387   ----------------------------------------
        .byte   PATT
         .word  neverendingdream000_1_299
@ 388   ----------------------------------------
        .byte   W06
@ 389   ----------------------------------------
        .byte   W06
@ 390   ----------------------------------------
        .byte   PATT
         .word  neverendingdream000_1_302
@ 391   ----------------------------------------
        .byte   W06
@ 392   ----------------------------------------
        .byte   W06
@ 393   ----------------------------------------
        .byte   PATT
         .word  neverendingdream000_1_305
@ 394   ----------------------------------------
        .byte   W06
@ 395   ----------------------------------------
        .byte   PATT
         .word  neverendingdream000_1_27
@ 396   ----------------------------------------
        .byte   W06
@ 397   ----------------------------------------
        .byte   W06
@ 398   ----------------------------------------
        .byte   W06
@ 399   ----------------------------------------
        .byte   W06
@ 400   ----------------------------------------
        .byte   W06
@ 401   ----------------------------------------
        .byte   W01
        .byte           N06   , Cn4 , v092
        .byte   W05
@ 402   ----------------------------------------
        .byte   PATT
         .word  neverendingdream000_1_26
@ 403   ----------------------------------------
        .byte   PATT
         .word  neverendingdream000_1_131
@ 404   ----------------------------------------
        .byte   W06
@ 405   ----------------------------------------
        .byte   W06
@ 406   ----------------------------------------
        .byte   W06
@ 407   ----------------------------------------
        .byte   W06
@ 408   ----------------------------------------
        .byte   W06
@ 409   ----------------------------------------
        .byte   W06
@ 410   ----------------------------------------
        .byte   W06
@ 411   ----------------------------------------
        .byte   PATT
         .word  neverendingdream000_1_283
@ 412   ----------------------------------------
        .byte   W06
@ 413   ----------------------------------------
        .byte   PATT
         .word  neverendingdream000_1_257
@ 414   ----------------------------------------
        .byte   W06
@ 415   ----------------------------------------
        .byte   PATT
         .word  neverendingdream000_1_283
@ 416   ----------------------------------------
        .byte   W06
@ 417   ----------------------------------------
        .byte   PATT
         .word  neverendingdream000_1_289
@ 418   ----------------------------------------
        .byte   W06
@ 419   ----------------------------------------
        .byte   W06
@ 420   ----------------------------------------
        .byte   W06
@ 421   ----------------------------------------
        .byte   W06
@ 422   ----------------------------------------
        .byte   W06
@ 423   ----------------------------------------
        .byte   W06
@ 424   ----------------------------------------
        .byte   W06
@ 425   ----------------------------------------
        .byte   W06
@ 426   ----------------------------------------
        .byte   W06
@ 427   ----------------------------------------
        .byte   PATT
         .word  neverendingdream000_1_299
@ 428   ----------------------------------------
        .byte   W06
@ 429   ----------------------------------------
        .byte   W06
@ 430   ----------------------------------------
        .byte   PATT
         .word  neverendingdream000_1_302
@ 431   ----------------------------------------
        .byte   W06
@ 432   ----------------------------------------
        .byte   W06
@ 433   ----------------------------------------
        .byte   PATT
         .word  neverendingdream000_1_305
@ 434   ----------------------------------------
        .byte   W06
@ 435   ----------------------------------------
        .byte   PATT
         .word  neverendingdream000_1_307
@ 436   ----------------------------------------
        .byte   W06
@ 437   ----------------------------------------
        .byte   W06
@ 438   ----------------------------------------
        .byte   PATT
         .word  neverendingdream000_1_302
@ 439   ----------------------------------------
        .byte   W06
@ 440   ----------------------------------------
        .byte   W06
@ 441   ----------------------------------------
        .byte   PATT
         .word  neverendingdream000_1_283
@ 442   ----------------------------------------
        .byte   W06
@ 443   ----------------------------------------
        .byte   PATT
         .word  neverendingdream000_1_315
@ 444   ----------------------------------------
        .byte   W06
@ 445   ----------------------------------------
        .byte   W06
@ 446   ----------------------------------------
        .byte   W06
@ 447   ----------------------------------------
        .byte   W06
@ 448   ----------------------------------------
        .byte   W06
@ 449   ----------------------------------------
        .byte   PATT
         .word  neverendingdream000_1_283
@ 450   ----------------------------------------
        .byte   W06
@ 451   ----------------------------------------
        .byte   PATT
         .word  neverendingdream000_1_323
@ 452   ----------------------------------------
        .byte   W06
@ 453   ----------------------------------------
        .byte   W06
@ 454   ----------------------------------------
        .byte   W06
@ 455   ----------------------------------------
        .byte   W06
@ 456   ----------------------------------------
        .byte   W06
@ 457   ----------------------------------------
        .byte   W06
@ 458   ----------------------------------------
        .byte   W06
@ 459   ----------------------------------------
        .byte   W06
@ 460   ----------------------------------------
        .byte   W06
@ 461   ----------------------------------------
        .byte   W06
@ 462   ----------------------------------------
        .byte   W06
@ 463   ----------------------------------------
        .byte   PATT
         .word  neverendingdream000_1_335
@ 464   ----------------------------------------
        .byte   W06
@ 465   ----------------------------------------
        .byte   W06
@ 466   ----------------------------------------
        .byte   W06
@ 467   ----------------------------------------
        .byte   PATT
         .word  neverendingdream000_1_339
@ 468   ----------------------------------------
        .byte   W06
@ 469   ----------------------------------------
        .byte   W06
@ 470   ----------------------------------------
        .byte   W06
@ 471   ----------------------------------------
        .byte   PATT
         .word  neverendingdream000_1_87
@ 472   ----------------------------------------
        .byte   W06
@ 473   ----------------------------------------
        .byte   W06
@ 474   ----------------------------------------
        .byte   W06
@ 475   ----------------------------------------
        .byte   PATT
         .word  neverendingdream000_1_57
@ 476   ----------------------------------------
        .byte   W06
@ 477   ----------------------------------------
        .byte   PATT
         .word  neverendingdream000_1_9
@ 478   ----------------------------------------
        .byte   W06
@ 479   ----------------------------------------
        .byte   PATT
         .word  neverendingdream000_1_57
@ 480   ----------------------------------------
        .byte   W06
@ 481   ----------------------------------------
        .byte   PATT
         .word  neverendingdream000_1_131
@ 482   ----------------------------------------
        .byte   W06
@ 483   ----------------------------------------
        .byte   W06
@ 484   ----------------------------------------
        .byte   W06
@ 485   ----------------------------------------
        .byte   W06
@ 486   ----------------------------------------
        .byte   W06
@ 487   ----------------------------------------
        .byte   W06
@ 488   ----------------------------------------
        .byte   W06
@ 489   ----------------------------------------
        .byte   PATT
         .word  neverendingdream000_1_361
@ 490   ----------------------------------------
        .byte   PATT
         .word  neverendingdream000_1_362
@ 491   ----------------------------------------
        .byte   PATT
         .word  neverendingdream000_1_57
@ 492   ----------------------------------------
        .byte   W06
@ 493   ----------------------------------------
        .byte   PATT
         .word  neverendingdream000_1_9
@ 494   ----------------------------------------
        .byte   W06
@ 495   ----------------------------------------
        .byte   PATT
         .word  neverendingdream000_1_57
@ 496   ----------------------------------------
        .byte   W06
@ 497   ----------------------------------------
        .byte   PATT
         .word  neverendingdream000_1_131
@ 498   ----------------------------------------
        .byte   W06
@ 499   ----------------------------------------
        .byte   W06
@ 500   ----------------------------------------
        .byte   W06
@ 501   ----------------------------------------
        .byte   W06
@ 502   ----------------------------------------
        .byte   W06
@ 503   ----------------------------------------
        .byte   W06
@ 504   ----------------------------------------
        .byte   W06
@ 505   ----------------------------------------
        .byte   PATT
         .word  neverendingdream000_1_361
@ 506   ----------------------------------------
        .byte   PATT
         .word  neverendingdream000_1_25
@ 507   ----------------------------------------
        .byte   PATT
         .word  neverendingdream000_1_379
@ 508   ----------------------------------------
        .byte   W06
@ 509   ----------------------------------------
        .byte   W06
@ 510   ----------------------------------------
        .byte   W06
@ 511   ----------------------------------------
        .byte   W06
@ 512   ----------------------------------------
        .byte   W06
@ 513   ----------------------------------------
        .byte   W06
@ 514   ----------------------------------------
        .byte   W06
@ 515   ----------------------------------------
        .byte   PATT
         .word  neverendingdream000_1_299
@ 516   ----------------------------------------
        .byte   W06
@ 517   ----------------------------------------
        .byte   W06
@ 518   ----------------------------------------
        .byte   PATT
         .word  neverendingdream000_1_302
@ 519   ----------------------------------------
        .byte   W06
@ 520   ----------------------------------------
        .byte   W06
@ 521   ----------------------------------------
        .byte   PATT
         .word  neverendingdream000_1_305
@ 522   ----------------------------------------
        .byte   W06
@ 523   ----------------------------------------
        .byte   W01
        .byte           N36   , Dn4 , v092
        .byte   W05
@ 524   ----------------------------------------
        .byte   W06
@ 525   ----------------------------------------
        .byte   W06
@ 526   ----------------------------------------
        .byte   W06
@ 527   ----------------------------------------
        .byte   W06
@ 528   ----------------------------------------
        .byte   W06
@ 529   ----------------------------------------
        .byte   PATT
         .word  neverendingdream000_1_83
@ 530   ----------------------------------------
        .byte   W06
@ 531   ----------------------------------------
        .byte   W06
@ 532   ----------------------------------------
        .byte   W06
@ 533   ----------------------------------------
        .byte   PATT
         .word  neverendingdream000_1_9
@ 534   ----------------------------------------
        .byte   W06
@ 535   ----------------------------------------
        .byte   PATT
         .word  neverendingdream000_1_87
@ 536   ----------------------------------------
        .byte   W06
@ 537   ----------------------------------------
        .byte   W06
@ 538   ----------------------------------------
        .byte   W06
@ 539   ----------------------------------------
        .byte   W01
        .byte           N96   , Gn3 , v067
        .byte   W05
@ 540   ----------------------------------------
        .byte   W06
@ 541   ----------------------------------------
        .byte   W06
@ 542   ----------------------------------------
        .byte   W06
@ 543   ----------------------------------------
        .byte   W06
@ 544   ----------------------------------------
        .byte   W06
@ 545   ----------------------------------------
        .byte   W06
@ 546   ----------------------------------------
        .byte   W06
@ 547   ----------------------------------------
        .byte   W06
@ 548   ----------------------------------------
        .byte   W06
@ 549   ----------------------------------------
        .byte   W06
@ 550   ----------------------------------------
        .byte   W06
@ 551   ----------------------------------------
        .byte   W06
@ 552   ----------------------------------------
        .byte   W06
@ 553   ----------------------------------------
        .byte   W06
@ 554   ----------------------------------------
        .byte   W06
@ 555   ----------------------------------------
        .byte   W06
@ 556   ----------------------------------------
        .byte   W06
@ 557   ----------------------------------------
        .byte   W06
@ 558   ----------------------------------------
        .byte   W06
@ 559   ----------------------------------------
        .byte   W06
@ 560   ----------------------------------------
        .byte   W06
@ 561   ----------------------------------------
        .byte   W06
@ 562   ----------------------------------------
        .byte   W06
@ 563   ----------------------------------------
        .byte   W06
@ 564   ----------------------------------------
        .byte   W06
@ 565   ----------------------------------------
        .byte   W06
@ 566   ----------------------------------------
        .byte   W06
@ 567   ----------------------------------------
        .byte   W06
@ 568   ----------------------------------------
        .byte   W06
@ 569   ----------------------------------------
        .byte   W06
@ 570   ----------------------------------------
        .byte   W06
@ 571   ----------------------------------------
        .byte   W06
@ 572   ----------------------------------------
        .byte   W06
@ 573   ----------------------------------------
        .byte   W06
@ 574   ----------------------------------------
        .byte   W06
@ 575   ----------------------------------------
        .byte   W06
@ 576   ----------------------------------------
        .byte   W06
@ 577   ----------------------------------------
        .byte   W06
@ 578   ----------------------------------------
        .byte   W06
@ 579   ----------------------------------------
        .byte   W06
@ 580   ----------------------------------------
        .byte   W06
@ 581   ----------------------------------------
        .byte   W06
@ 582   ----------------------------------------
        .byte   W06
@ 583   ----------------------------------------
        .byte   W06
@ 584   ----------------------------------------
        .byte   W06
@ 585   ----------------------------------------
        .byte   W06
@ 586   ----------------------------------------
        .byte   W06
@ 587   ----------------------------------------
        .byte   W06
@ 588   ----------------------------------------
        .byte   W06
@ 589   ----------------------------------------
        .byte   W06
@ 590   ----------------------------------------
        .byte   W06
@ 591   ----------------------------------------
        .byte   W06
@ 592   ----------------------------------------
        .byte   W06
@ 593   ----------------------------------------
        .byte   PATT
         .word  neverendingdream000_1_1
@ 594   ----------------------------------------
        .byte   W06
@ 595   ----------------------------------------
        .byte   PATT
         .word  neverendingdream000_1_3
@ 596   ----------------------------------------
        .byte   W06
@ 597   ----------------------------------------
        .byte   W01
        .byte           N12   , Ds3 , v077
        .byte   W05
@ 598   ----------------------------------------
        .byte   W06
@ 599   ----------------------------------------
        .byte   PATT
         .word  neverendingdream000_1_3
@ 600   ----------------------------------------
        .byte   W06
@ 601   ----------------------------------------
        .byte   W01
        .byte           N10   , Fs3 , v092
        .byte   W05
@ 602   ----------------------------------------
        .byte   W06
@ 603   ----------------------------------------
        .byte   GOTO
         .word  neverendingdream000_1_LOOP
        .byte   FINE

@****************** Track 2 (Midi-Chn.2) ******************@

neverendingdream000_2:
        .byte   KEYSH , neverendingdream000_key+0
@ 000   ----------------------------------------
        .byte           VOL   , 34
        .byte   W01
        .byte           VOICE , 8
        .byte   W05
@ 001   ----------------------------------------
        .byte   W06
@ 002   ----------------------------------------
        .byte   W06
@ 003   ----------------------------------------
        .byte   W06
@ 004   ----------------------------------------
        .byte   W06
@ 005   ----------------------------------------
        .byte   W06
@ 006   ----------------------------------------
        .byte   W06
@ 007   ----------------------------------------
        .byte   W06
@ 008   ----------------------------------------
        .byte   W06
@ 009   ----------------------------------------
        .byte   W06
@ 010   ----------------------------------------
        .byte   W05
neverendingdream000_2_LOOP:
        .byte   W01
@ 011   ----------------------------------------
        .byte   W06
@ 012   ----------------------------------------
        .byte   W06
@ 013   ----------------------------------------
        .byte   W06
@ 014   ----------------------------------------
        .byte   W06
@ 015   ----------------------------------------
        .byte   W06
@ 016   ----------------------------------------
        .byte   W06
@ 017   ----------------------------------------
        .byte   W06
@ 018   ----------------------------------------
        .byte   W06
@ 019   ----------------------------------------
        .byte   W06
@ 020   ----------------------------------------
        .byte   W06
@ 021   ----------------------------------------
        .byte   W06
@ 022   ----------------------------------------
        .byte   W06
@ 023   ----------------------------------------
        .byte   W06
@ 024   ----------------------------------------
        .byte   W06
@ 025   ----------------------------------------
        .byte   W06
@ 026   ----------------------------------------
        .byte   W06
@ 027   ----------------------------------------
        .byte   W06
@ 028   ----------------------------------------
        .byte   W06
@ 029   ----------------------------------------
        .byte   W06
@ 030   ----------------------------------------
        .byte   W06
@ 031   ----------------------------------------
        .byte   W06
@ 032   ----------------------------------------
        .byte   W06
@ 033   ----------------------------------------
        .byte   W06
@ 034   ----------------------------------------
        .byte   W06
@ 035   ----------------------------------------
        .byte   W06
@ 036   ----------------------------------------
        .byte   W06
@ 037   ----------------------------------------
        .byte   W06
@ 038   ----------------------------------------
        .byte   W06
@ 039   ----------------------------------------
        .byte   W06
@ 040   ----------------------------------------
        .byte   W06
@ 041   ----------------------------------------
        .byte   W06
@ 042   ----------------------------------------
        .byte   W06
@ 043   ----------------------------------------
        .byte   W06
@ 044   ----------------------------------------
        .byte   W06
@ 045   ----------------------------------------
        .byte   W06
@ 046   ----------------------------------------
        .byte   W06
@ 047   ----------------------------------------
        .byte   W06
@ 048   ----------------------------------------
        .byte   W06
@ 049   ----------------------------------------
        .byte   W06
@ 050   ----------------------------------------
        .byte   W06
@ 051   ----------------------------------------
        .byte   W06
@ 052   ----------------------------------------
        .byte   W06
@ 053   ----------------------------------------
        .byte   W06
@ 054   ----------------------------------------
        .byte   W06
@ 055   ----------------------------------------
        .byte   W06
@ 056   ----------------------------------------
        .byte   W06
@ 057   ----------------------------------------
        .byte   W06
@ 058   ----------------------------------------
        .byte   W06
@ 059   ----------------------------------------
        .byte   W06
@ 060   ----------------------------------------
        .byte   W06
@ 061   ----------------------------------------
        .byte   W06
@ 062   ----------------------------------------
        .byte   W06
@ 063   ----------------------------------------
        .byte   W06
@ 064   ----------------------------------------
        .byte   W06
@ 065   ----------------------------------------
        .byte   W06
@ 066   ----------------------------------------
        .byte   W06
@ 067   ----------------------------------------
        .byte   W06
@ 068   ----------------------------------------
        .byte   W06
@ 069   ----------------------------------------
        .byte   W06
@ 070   ----------------------------------------
        .byte   W06
@ 071   ----------------------------------------
        .byte   W06
@ 072   ----------------------------------------
        .byte   W06
@ 073   ----------------------------------------
        .byte   W06
@ 074   ----------------------------------------
        .byte   W06
@ 075   ----------------------------------------
        .byte   W06
@ 076   ----------------------------------------
        .byte   W06
@ 077   ----------------------------------------
        .byte   W06
@ 078   ----------------------------------------
        .byte   W06
@ 079   ----------------------------------------
        .byte   W06
@ 080   ----------------------------------------
        .byte   W06
@ 081   ----------------------------------------
        .byte   W06
@ 082   ----------------------------------------
        .byte   W06
@ 083   ----------------------------------------
        .byte   W06
@ 084   ----------------------------------------
        .byte   W06
@ 085   ----------------------------------------
        .byte   W06
@ 086   ----------------------------------------
        .byte   W06
@ 087   ----------------------------------------
        .byte   W06
@ 088   ----------------------------------------
        .byte   W06
@ 089   ----------------------------------------
        .byte   W06
@ 090   ----------------------------------------
        .byte   W06
@ 091   ----------------------------------------
        .byte   W06
@ 092   ----------------------------------------
        .byte   W06
@ 093   ----------------------------------------
        .byte   W06
@ 094   ----------------------------------------
        .byte   W06
@ 095   ----------------------------------------
        .byte   W06
@ 096   ----------------------------------------
        .byte   W06
@ 097   ----------------------------------------
        .byte   W06
@ 098   ----------------------------------------
        .byte   W06
@ 099   ----------------------------------------
        .byte   W06
@ 100   ----------------------------------------
        .byte   W06
@ 101   ----------------------------------------
        .byte   W06
@ 102   ----------------------------------------
        .byte   W06
@ 103   ----------------------------------------
        .byte   W06
@ 104   ----------------------------------------
        .byte   W06
@ 105   ----------------------------------------
        .byte   W06
@ 106   ----------------------------------------
        .byte   W06
@ 107   ----------------------------------------
        .byte   W06
@ 108   ----------------------------------------
        .byte   W06
@ 109   ----------------------------------------
        .byte   W06
@ 110   ----------------------------------------
        .byte   W06
@ 111   ----------------------------------------
        .byte   W06
@ 112   ----------------------------------------
        .byte   W06
@ 113   ----------------------------------------
        .byte   W06
@ 114   ----------------------------------------
        .byte   W06
@ 115   ----------------------------------------
        .byte   W06
@ 116   ----------------------------------------
        .byte   W06
@ 117   ----------------------------------------
        .byte   W06
@ 118   ----------------------------------------
        .byte   W06
@ 119   ----------------------------------------
        .byte   W06
@ 120   ----------------------------------------
        .byte   W06
@ 121   ----------------------------------------
        .byte   W06
@ 122   ----------------------------------------
        .byte   W06
@ 123   ----------------------------------------
        .byte   W06
@ 124   ----------------------------------------
        .byte   W06
@ 125   ----------------------------------------
        .byte   W06
@ 126   ----------------------------------------
        .byte   W06
@ 127   ----------------------------------------
        .byte   W06
@ 128   ----------------------------------------
        .byte   W06
@ 129   ----------------------------------------
        .byte   W06
@ 130   ----------------------------------------
        .byte   W06
@ 131   ----------------------------------------
        .byte   W06
@ 132   ----------------------------------------
        .byte   W06
@ 133   ----------------------------------------
        .byte   W06
@ 134   ----------------------------------------
        .byte   W06
@ 135   ----------------------------------------
        .byte   W06
@ 136   ----------------------------------------
        .byte   W06
@ 137   ----------------------------------------
        .byte   W06
@ 138   ----------------------------------------
        .byte   W06
@ 139   ----------------------------------------
        .byte   W06
@ 140   ----------------------------------------
        .byte   W06
@ 141   ----------------------------------------
        .byte   W06
@ 142   ----------------------------------------
        .byte   W06
@ 143   ----------------------------------------
        .byte   W06
@ 144   ----------------------------------------
        .byte   W06
@ 145   ----------------------------------------
        .byte   W06
@ 146   ----------------------------------------
        .byte   W06
@ 147   ----------------------------------------
        .byte   W06
@ 148   ----------------------------------------
        .byte   W06
@ 149   ----------------------------------------
        .byte   W06
@ 150   ----------------------------------------
        .byte   W06
@ 151   ----------------------------------------
        .byte   W06
@ 152   ----------------------------------------
        .byte   W06
@ 153   ----------------------------------------
        .byte   W06
@ 154   ----------------------------------------
        .byte   W06
@ 155   ----------------------------------------
        .byte   W06
@ 156   ----------------------------------------
        .byte   W06
@ 157   ----------------------------------------
        .byte   W06
@ 158   ----------------------------------------
        .byte   W06
@ 159   ----------------------------------------
        .byte   W06
@ 160   ----------------------------------------
        .byte   W06
@ 161   ----------------------------------------
        .byte   W06
@ 162   ----------------------------------------
        .byte   W06
@ 163   ----------------------------------------
        .byte   W06
@ 164   ----------------------------------------
        .byte   W06
@ 165   ----------------------------------------
        .byte   W06
@ 166   ----------------------------------------
        .byte   W06
@ 167   ----------------------------------------
        .byte   W06
@ 168   ----------------------------------------
        .byte   W06
@ 169   ----------------------------------------
        .byte   W06
@ 170   ----------------------------------------
        .byte   W06
@ 171   ----------------------------------------
        .byte   W06
@ 172   ----------------------------------------
        .byte   W06
@ 173   ----------------------------------------
        .byte   W06
@ 174   ----------------------------------------
        .byte   W06
@ 175   ----------------------------------------
        .byte   W06
@ 176   ----------------------------------------
        .byte   W06
@ 177   ----------------------------------------
        .byte   W06
@ 178   ----------------------------------------
        .byte   W06
@ 179   ----------------------------------------
        .byte   W06
@ 180   ----------------------------------------
        .byte   W06
@ 181   ----------------------------------------
        .byte   W06
@ 182   ----------------------------------------
        .byte   W06
@ 183   ----------------------------------------
        .byte   W06
@ 184   ----------------------------------------
        .byte   W06
@ 185   ----------------------------------------
        .byte   W06
@ 186   ----------------------------------------
        .byte   W06
@ 187   ----------------------------------------
        .byte   W06
@ 188   ----------------------------------------
        .byte   W06
@ 189   ----------------------------------------
        .byte   W06
@ 190   ----------------------------------------
        .byte   W06
@ 191   ----------------------------------------
        .byte   W06
@ 192   ----------------------------------------
        .byte   W06
@ 193   ----------------------------------------
        .byte   W06
@ 194   ----------------------------------------
        .byte   W06
@ 195   ----------------------------------------
        .byte   W06
@ 196   ----------------------------------------
        .byte   W06
@ 197   ----------------------------------------
        .byte   W06
@ 198   ----------------------------------------
        .byte   W06
@ 199   ----------------------------------------
        .byte   W06
@ 200   ----------------------------------------
        .byte   W06
@ 201   ----------------------------------------
        .byte   W06
@ 202   ----------------------------------------
        .byte   W06
@ 203   ----------------------------------------
        .byte   W06
@ 204   ----------------------------------------
        .byte   W06
@ 205   ----------------------------------------
        .byte   W06
@ 206   ----------------------------------------
        .byte   W06
@ 207   ----------------------------------------
        .byte   W06
@ 208   ----------------------------------------
        .byte   W06
@ 209   ----------------------------------------
        .byte   W06
@ 210   ----------------------------------------
        .byte   W06
@ 211   ----------------------------------------
        .byte   W06
@ 212   ----------------------------------------
        .byte   W06
@ 213   ----------------------------------------
        .byte   W06
@ 214   ----------------------------------------
        .byte   W06
@ 215   ----------------------------------------
        .byte   W06
@ 216   ----------------------------------------
        .byte   W06
@ 217   ----------------------------------------
        .byte   W06
@ 218   ----------------------------------------
        .byte   W06
@ 219   ----------------------------------------
        .byte   W06
@ 220   ----------------------------------------
        .byte   W06
@ 221   ----------------------------------------
        .byte   W06
@ 222   ----------------------------------------
        .byte   W06
@ 223   ----------------------------------------
        .byte   W06
@ 224   ----------------------------------------
        .byte   W06
@ 225   ----------------------------------------
        .byte   W06
@ 226   ----------------------------------------
        .byte   W06
@ 227   ----------------------------------------
        .byte   W06
@ 228   ----------------------------------------
        .byte   W06
@ 229   ----------------------------------------
        .byte   W06
@ 230   ----------------------------------------
        .byte   W06
@ 231   ----------------------------------------
        .byte   W06
@ 232   ----------------------------------------
        .byte   W06
@ 233   ----------------------------------------
        .byte   W06
@ 234   ----------------------------------------
        .byte   W06
@ 235   ----------------------------------------
        .byte   W06
@ 236   ----------------------------------------
        .byte   W06
@ 237   ----------------------------------------
        .byte   W06
@ 238   ----------------------------------------
        .byte   W06
@ 239   ----------------------------------------
        .byte   W06
@ 240   ----------------------------------------
        .byte   W06
@ 241   ----------------------------------------
        .byte   W06
@ 242   ----------------------------------------
        .byte   W06
@ 243   ----------------------------------------
        .byte   W06
@ 244   ----------------------------------------
        .byte   W06
@ 245   ----------------------------------------
        .byte   W06
@ 246   ----------------------------------------
        .byte   W06
@ 247   ----------------------------------------
        .byte   W06
@ 248   ----------------------------------------
        .byte   W06
@ 249   ----------------------------------------
        .byte   W06
@ 250   ----------------------------------------
        .byte   W06
@ 251   ----------------------------------------
        .byte   W06
@ 252   ----------------------------------------
        .byte   W06
@ 253   ----------------------------------------
        .byte   W06
@ 254   ----------------------------------------
        .byte   W06
@ 255   ----------------------------------------
        .byte   W06
@ 256   ----------------------------------------
        .byte   W06
@ 257   ----------------------------------------
        .byte   W06
@ 258   ----------------------------------------
        .byte   W06
@ 259   ----------------------------------------
        .byte   W06
@ 260   ----------------------------------------
        .byte   W06
@ 261   ----------------------------------------
        .byte   W06
@ 262   ----------------------------------------
        .byte   W06
@ 263   ----------------------------------------
        .byte   W06
@ 264   ----------------------------------------
        .byte   W06
@ 265   ----------------------------------------
        .byte   W06
@ 266   ----------------------------------------
        .byte   W06
@ 267   ----------------------------------------
        .byte   W06
@ 268   ----------------------------------------
        .byte   W06
@ 269   ----------------------------------------
        .byte   W06
@ 270   ----------------------------------------
        .byte   W06
@ 271   ----------------------------------------
        .byte   W06
@ 272   ----------------------------------------
        .byte   W06
@ 273   ----------------------------------------
        .byte   W06
@ 274   ----------------------------------------
        .byte   W06
@ 275   ----------------------------------------
        .byte   W06
@ 276   ----------------------------------------
        .byte   W06
@ 277   ----------------------------------------
        .byte   W06
@ 278   ----------------------------------------
        .byte   W06
@ 279   ----------------------------------------
        .byte   W06
@ 280   ----------------------------------------
        .byte   W06
@ 281   ----------------------------------------
        .byte   W06
@ 282   ----------------------------------------
        .byte   W06
@ 283   ----------------------------------------
        .byte   W06
@ 284   ----------------------------------------
        .byte   W06
@ 285   ----------------------------------------
        .byte   W06
@ 286   ----------------------------------------
        .byte   W06
@ 287   ----------------------------------------
        .byte   W06
@ 288   ----------------------------------------
        .byte   W06
@ 289   ----------------------------------------
        .byte   W06
@ 290   ----------------------------------------
        .byte   W06
@ 291   ----------------------------------------
        .byte   W06
@ 292   ----------------------------------------
        .byte   W06
@ 293   ----------------------------------------
        .byte   W06
@ 294   ----------------------------------------
        .byte   W06
@ 295   ----------------------------------------
        .byte   W06
@ 296   ----------------------------------------
        .byte   W06
@ 297   ----------------------------------------
        .byte   W06
@ 298   ----------------------------------------
        .byte   W06
@ 299   ----------------------------------------
        .byte   W06
@ 300   ----------------------------------------
        .byte   W06
@ 301   ----------------------------------------
        .byte   W06
@ 302   ----------------------------------------
        .byte   W06
@ 303   ----------------------------------------
        .byte   W06
@ 304   ----------------------------------------
        .byte   W06
@ 305   ----------------------------------------
        .byte   W06
@ 306   ----------------------------------------
        .byte   W06
@ 307   ----------------------------------------
        .byte   W06
@ 308   ----------------------------------------
        .byte   W06
@ 309   ----------------------------------------
        .byte   W06
@ 310   ----------------------------------------
        .byte   W06
@ 311   ----------------------------------------
        .byte   W06
@ 312   ----------------------------------------
        .byte   W06
@ 313   ----------------------------------------
        .byte   W06
@ 314   ----------------------------------------
        .byte   W06
@ 315   ----------------------------------------
        .byte   W06
@ 316   ----------------------------------------
        .byte   W06
@ 317   ----------------------------------------
        .byte   W06
@ 318   ----------------------------------------
        .byte   W06
@ 319   ----------------------------------------
        .byte   W06
@ 320   ----------------------------------------
        .byte   W06
@ 321   ----------------------------------------
        .byte   W06
@ 322   ----------------------------------------
        .byte   W06
@ 323   ----------------------------------------
        .byte   W06
@ 324   ----------------------------------------
        .byte   W06
@ 325   ----------------------------------------
        .byte   W06
@ 326   ----------------------------------------
        .byte   W06
@ 327   ----------------------------------------
        .byte   W06
@ 328   ----------------------------------------
        .byte   W06
@ 329   ----------------------------------------
        .byte   W06
@ 330   ----------------------------------------
        .byte   W06
@ 331   ----------------------------------------
        .byte   W06
@ 332   ----------------------------------------
        .byte   W06
@ 333   ----------------------------------------
        .byte   W06
@ 334   ----------------------------------------
        .byte   W06
@ 335   ----------------------------------------
        .byte   W06
@ 336   ----------------------------------------
        .byte   W06
@ 337   ----------------------------------------
        .byte   W06
@ 338   ----------------------------------------
        .byte   W06
@ 339   ----------------------------------------
        .byte   W06
@ 340   ----------------------------------------
        .byte   W06
@ 341   ----------------------------------------
        .byte   W06
@ 342   ----------------------------------------
        .byte   W06
@ 343   ----------------------------------------
        .byte   W06
@ 344   ----------------------------------------
        .byte   W06
@ 345   ----------------------------------------
        .byte   W06
@ 346   ----------------------------------------
        .byte   W06
@ 347   ----------------------------------------
        .byte   W06
@ 348   ----------------------------------------
        .byte   W06
@ 349   ----------------------------------------
        .byte   W06
@ 350   ----------------------------------------
        .byte   W06
@ 351   ----------------------------------------
        .byte   W06
@ 352   ----------------------------------------
        .byte   W06
@ 353   ----------------------------------------
        .byte   W06
@ 354   ----------------------------------------
        .byte   W06
@ 355   ----------------------------------------
        .byte   W06
@ 356   ----------------------------------------
        .byte   W06
@ 357   ----------------------------------------
        .byte   W06
@ 358   ----------------------------------------
        .byte   W06
@ 359   ----------------------------------------
        .byte   W06
@ 360   ----------------------------------------
        .byte   W06
@ 361   ----------------------------------------
        .byte   W06
@ 362   ----------------------------------------
        .byte   W06
@ 363   ----------------------------------------
        .byte   W06
@ 364   ----------------------------------------
        .byte   W06
@ 365   ----------------------------------------
        .byte   W06
@ 366   ----------------------------------------
        .byte   W06
@ 367   ----------------------------------------
        .byte   W06
@ 368   ----------------------------------------
        .byte   W06
@ 369   ----------------------------------------
        .byte   W06
@ 370   ----------------------------------------
        .byte   W06
@ 371   ----------------------------------------
        .byte   W06
@ 372   ----------------------------------------
        .byte   W06
@ 373   ----------------------------------------
        .byte   W06
@ 374   ----------------------------------------
        .byte   W06
@ 375   ----------------------------------------
        .byte   W06
@ 376   ----------------------------------------
        .byte   W06
@ 377   ----------------------------------------
        .byte   W06
@ 378   ----------------------------------------
        .byte   W06
@ 379   ----------------------------------------
        .byte   W06
@ 380   ----------------------------------------
        .byte   W06
@ 381   ----------------------------------------
        .byte   W06
@ 382   ----------------------------------------
        .byte   W06
@ 383   ----------------------------------------
        .byte   W06
@ 384   ----------------------------------------
        .byte   W06
@ 385   ----------------------------------------
        .byte   W06
@ 386   ----------------------------------------
        .byte   W06
@ 387   ----------------------------------------
        .byte   W06
@ 388   ----------------------------------------
        .byte   W06
@ 389   ----------------------------------------
        .byte   W06
@ 390   ----------------------------------------
        .byte   W06
@ 391   ----------------------------------------
        .byte   W06
@ 392   ----------------------------------------
        .byte   W06
@ 393   ----------------------------------------
        .byte   W06
@ 394   ----------------------------------------
        .byte   W06
@ 395   ----------------------------------------
        .byte   W06
@ 396   ----------------------------------------
        .byte   W06
@ 397   ----------------------------------------
        .byte   W06
@ 398   ----------------------------------------
        .byte   W06
@ 399   ----------------------------------------
        .byte   W06
@ 400   ----------------------------------------
        .byte   W06
@ 401   ----------------------------------------
        .byte   W06
@ 402   ----------------------------------------
        .byte   W06
@ 403   ----------------------------------------
        .byte   W06
@ 404   ----------------------------------------
        .byte   W06
@ 405   ----------------------------------------
        .byte   W06
@ 406   ----------------------------------------
        .byte   W06
@ 407   ----------------------------------------
        .byte   W06
@ 408   ----------------------------------------
        .byte   W06
@ 409   ----------------------------------------
        .byte   W06
@ 410   ----------------------------------------
        .byte   W06
@ 411   ----------------------------------------
        .byte   W06
@ 412   ----------------------------------------
        .byte   W06
@ 413   ----------------------------------------
        .byte   W06
@ 414   ----------------------------------------
        .byte   W06
@ 415   ----------------------------------------
        .byte   W06
@ 416   ----------------------------------------
        .byte   W06
@ 417   ----------------------------------------
        .byte   W06
@ 418   ----------------------------------------
        .byte   W06
@ 419   ----------------------------------------
        .byte   W06
@ 420   ----------------------------------------
        .byte   W06
@ 421   ----------------------------------------
        .byte   W06
@ 422   ----------------------------------------
        .byte   W06
@ 423   ----------------------------------------
        .byte   W06
@ 424   ----------------------------------------
        .byte   W06
@ 425   ----------------------------------------
        .byte   W06
@ 426   ----------------------------------------
        .byte   W06
@ 427   ----------------------------------------
        .byte   W06
@ 428   ----------------------------------------
        .byte   W06
@ 429   ----------------------------------------
        .byte   W06
@ 430   ----------------------------------------
        .byte   W06
@ 431   ----------------------------------------
        .byte   W06
@ 432   ----------------------------------------
        .byte   W06
@ 433   ----------------------------------------
        .byte   W06
@ 434   ----------------------------------------
        .byte   W06
@ 435   ----------------------------------------
        .byte   W06
@ 436   ----------------------------------------
        .byte   W06
@ 437   ----------------------------------------
        .byte   W06
@ 438   ----------------------------------------
        .byte   W06
@ 439   ----------------------------------------
        .byte   W06
@ 440   ----------------------------------------
        .byte   W06
@ 441   ----------------------------------------
        .byte   W06
@ 442   ----------------------------------------
        .byte   W06
@ 443   ----------------------------------------
        .byte   W06
@ 444   ----------------------------------------
        .byte   W06
@ 445   ----------------------------------------
        .byte   W06
@ 446   ----------------------------------------
        .byte   W06
@ 447   ----------------------------------------
        .byte   W06
@ 448   ----------------------------------------
        .byte   W06
@ 449   ----------------------------------------
        .byte   W06
@ 450   ----------------------------------------
        .byte   W06
@ 451   ----------------------------------------
        .byte   W06
@ 452   ----------------------------------------
        .byte   W06
@ 453   ----------------------------------------
        .byte   W06
@ 454   ----------------------------------------
        .byte   W06
@ 455   ----------------------------------------
        .byte   W06
@ 456   ----------------------------------------
        .byte   W06
@ 457   ----------------------------------------
        .byte   W06
@ 458   ----------------------------------------
        .byte   W06
@ 459   ----------------------------------------
        .byte   W06
@ 460   ----------------------------------------
        .byte   W06
@ 461   ----------------------------------------
        .byte   W06
@ 462   ----------------------------------------
        .byte   W06
@ 463   ----------------------------------------
        .byte   W06
@ 464   ----------------------------------------
        .byte   W06
@ 465   ----------------------------------------
        .byte   W06
@ 466   ----------------------------------------
        .byte   W06
@ 467   ----------------------------------------
        .byte   W06
@ 468   ----------------------------------------
        .byte   W06
@ 469   ----------------------------------------
        .byte   W06
@ 470   ----------------------------------------
        .byte   W06
@ 471   ----------------------------------------
        .byte   W06
@ 472   ----------------------------------------
        .byte   W06
@ 473   ----------------------------------------
        .byte   W06
@ 474   ----------------------------------------
        .byte   W06
@ 475   ----------------------------------------
        .byte   W06
@ 476   ----------------------------------------
        .byte   W06
@ 477   ----------------------------------------
        .byte   W06
@ 478   ----------------------------------------
        .byte   W06
@ 479   ----------------------------------------
        .byte   W06
@ 480   ----------------------------------------
        .byte   W06
@ 481   ----------------------------------------
        .byte   W06
@ 482   ----------------------------------------
        .byte   W06
@ 483   ----------------------------------------
        .byte   W06
@ 484   ----------------------------------------
        .byte   W06
@ 485   ----------------------------------------
        .byte   W06
@ 486   ----------------------------------------
        .byte   W06
@ 487   ----------------------------------------
        .byte   W06
@ 488   ----------------------------------------
        .byte   W06
@ 489   ----------------------------------------
        .byte   W06
@ 490   ----------------------------------------
        .byte   W06
@ 491   ----------------------------------------
        .byte   W06
@ 492   ----------------------------------------
        .byte   W06
@ 493   ----------------------------------------
        .byte   W06
@ 494   ----------------------------------------
        .byte   W06
@ 495   ----------------------------------------
        .byte   W06
@ 496   ----------------------------------------
        .byte   W06
@ 497   ----------------------------------------
        .byte   W06
@ 498   ----------------------------------------
        .byte   W06
@ 499   ----------------------------------------
        .byte   W06
@ 500   ----------------------------------------
        .byte   W06
@ 501   ----------------------------------------
        .byte   W06
@ 502   ----------------------------------------
        .byte   W06
@ 503   ----------------------------------------
        .byte   W06
@ 504   ----------------------------------------
        .byte   W06
@ 505   ----------------------------------------
        .byte   W06
@ 506   ----------------------------------------
        .byte   W06
@ 507   ----------------------------------------
        .byte           N84   , Gn3 , v098
        .byte   W06
@ 508   ----------------------------------------
        .byte   W06
@ 509   ----------------------------------------
        .byte   W06
@ 510   ----------------------------------------
        .byte   W06
@ 511   ----------------------------------------
        .byte   W06
@ 512   ----------------------------------------
        .byte   W06
@ 513   ----------------------------------------
        .byte   W06
@ 514   ----------------------------------------
        .byte   W06
@ 515   ----------------------------------------
        .byte   W06
@ 516   ----------------------------------------
        .byte   W06
@ 517   ----------------------------------------
        .byte   W06
@ 518   ----------------------------------------
        .byte   W06
@ 519   ----------------------------------------
        .byte   W06
@ 520   ----------------------------------------
        .byte   W06
@ 521   ----------------------------------------
        .byte           N06   , An3
        .byte   W06
@ 522   ----------------------------------------
        .byte                   Bn3
        .byte   W06
@ 523   ----------------------------------------
        .byte           N96   , An3
        .byte   W06
@ 524   ----------------------------------------
        .byte   W06
@ 525   ----------------------------------------
        .byte   W06
@ 526   ----------------------------------------
        .byte   W06
@ 527   ----------------------------------------
        .byte   W06
@ 528   ----------------------------------------
        .byte   W06
@ 529   ----------------------------------------
        .byte   W06
@ 530   ----------------------------------------
        .byte   W06
@ 531   ----------------------------------------
        .byte   W06
@ 532   ----------------------------------------
        .byte   W06
@ 533   ----------------------------------------
        .byte   W06
@ 534   ----------------------------------------
        .byte   W06
@ 535   ----------------------------------------
        .byte   W06
@ 536   ----------------------------------------
        .byte   W06
@ 537   ----------------------------------------
        .byte   W06
@ 538   ----------------------------------------
        .byte   W06
@ 539   ----------------------------------------
        .byte                   Gn3
        .byte   W06
@ 540   ----------------------------------------
        .byte   W06
@ 541   ----------------------------------------
        .byte   W06
@ 542   ----------------------------------------
        .byte   W06
@ 543   ----------------------------------------
        .byte   W06
@ 544   ----------------------------------------
        .byte   W06
@ 545   ----------------------------------------
        .byte   W06
@ 546   ----------------------------------------
        .byte   W06
@ 547   ----------------------------------------
        .byte   W06
@ 548   ----------------------------------------
        .byte   W06
@ 549   ----------------------------------------
        .byte   W06
@ 550   ----------------------------------------
        .byte   W06
@ 551   ----------------------------------------
        .byte   W06
@ 552   ----------------------------------------
        .byte   W06
@ 553   ----------------------------------------
        .byte   W06
@ 554   ----------------------------------------
        .byte   W06
@ 555   ----------------------------------------
        .byte   W06
@ 556   ----------------------------------------
        .byte   W06
@ 557   ----------------------------------------
        .byte   W06
@ 558   ----------------------------------------
        .byte   W06
@ 559   ----------------------------------------
        .byte   W06
@ 560   ----------------------------------------
        .byte   W06
@ 561   ----------------------------------------
        .byte   W06
@ 562   ----------------------------------------
        .byte   W06
@ 563   ----------------------------------------
        .byte   W06
@ 564   ----------------------------------------
        .byte   W06
@ 565   ----------------------------------------
        .byte   W06
@ 566   ----------------------------------------
        .byte   W06
@ 567   ----------------------------------------
        .byte   W06
@ 568   ----------------------------------------
        .byte   W06
@ 569   ----------------------------------------
        .byte   W06
@ 570   ----------------------------------------
        .byte   W06
@ 571   ----------------------------------------
        .byte   W06
@ 572   ----------------------------------------
        .byte   W06
@ 573   ----------------------------------------
        .byte   W06
@ 574   ----------------------------------------
        .byte   W06
@ 575   ----------------------------------------
        .byte   W06
@ 576   ----------------------------------------
        .byte   W06
@ 577   ----------------------------------------
        .byte   W06
@ 578   ----------------------------------------
        .byte   W06
@ 579   ----------------------------------------
        .byte   W06
@ 580   ----------------------------------------
        .byte   W06
@ 581   ----------------------------------------
        .byte   W06
@ 582   ----------------------------------------
        .byte   W06
@ 583   ----------------------------------------
        .byte   W06
@ 584   ----------------------------------------
        .byte   W06
@ 585   ----------------------------------------
        .byte   W06
@ 586   ----------------------------------------
        .byte   W06
@ 587   ----------------------------------------
        .byte   W06
@ 588   ----------------------------------------
        .byte   W06
@ 589   ----------------------------------------
        .byte   W06
@ 590   ----------------------------------------
        .byte   W06
@ 591   ----------------------------------------
        .byte   W06
@ 592   ----------------------------------------
        .byte   W06
@ 593   ----------------------------------------
        .byte   W06
@ 594   ----------------------------------------
        .byte   W06
@ 595   ----------------------------------------
        .byte   W06
@ 596   ----------------------------------------
        .byte   W06
@ 597   ----------------------------------------
        .byte   W06
@ 598   ----------------------------------------
        .byte   W06
@ 599   ----------------------------------------
        .byte   W06
@ 600   ----------------------------------------
        .byte   W06
@ 601   ----------------------------------------
        .byte   W06
@ 602   ----------------------------------------
        .byte   W06
@ 603   ----------------------------------------
        .byte   GOTO
         .word  neverendingdream000_2_LOOP
        .byte   FINE

@****************** Track 3 (Midi-Chn.3) ******************@

neverendingdream000_3:
        .byte   KEYSH , neverendingdream000_key+0
@ 000   ----------------------------------------
        .byte           VOICE , 96
        .byte   W02
        .byte           VOL   , 18
        .byte   W01
        .byte           PAN   , c_v-64
        .byte   W03
@ 001   ----------------------------------------
        .byte   W06
@ 002   ----------------------------------------
        .byte   W06
@ 003   ----------------------------------------
        .byte   W06
@ 004   ----------------------------------------
        .byte   W06
@ 005   ----------------------------------------
        .byte   W06
@ 006   ----------------------------------------
        .byte   W06
@ 007   ----------------------------------------
        .byte   W06
@ 008   ----------------------------------------
        .byte   W06
@ 009   ----------------------------------------
        .byte   W06
@ 010   ----------------------------------------
        .byte   W05
neverendingdream000_3_LOOP:
        .byte   W01
@ 011   ----------------------------------------
        .byte   W01
        .byte           N96   , En2 , v092
        .byte           N96   , Gn3 , v072
        .byte           N96   , Dn3
        .byte           N96   , Bn2
        .byte   W05
@ 012   ----------------------------------------
        .byte   W06
@ 013   ----------------------------------------
        .byte   W06
@ 014   ----------------------------------------
        .byte   W06
@ 015   ----------------------------------------
        .byte   W06
@ 016   ----------------------------------------
        .byte   W06
@ 017   ----------------------------------------
        .byte   W06
@ 018   ----------------------------------------
        .byte   W06
@ 019   ----------------------------------------
        .byte   W06
@ 020   ----------------------------------------
        .byte   W06
@ 021   ----------------------------------------
        .byte   W06
@ 022   ----------------------------------------
        .byte   W06
@ 023   ----------------------------------------
        .byte   W06
@ 024   ----------------------------------------
        .byte   W06
@ 025   ----------------------------------------
        .byte   W06
@ 026   ----------------------------------------
        .byte   W06
@ 027   ----------------------------------------
        .byte   W01
        .byte                   Dn2 , v092
        .byte           N96   , Bn2 , v072
        .byte           N96   , Fs3
        .byte           N96   , Dn3
        .byte   W05
@ 028   ----------------------------------------
        .byte   W06
@ 029   ----------------------------------------
        .byte   W06
@ 030   ----------------------------------------
        .byte   W06
@ 031   ----------------------------------------
        .byte   W06
@ 032   ----------------------------------------
        .byte   W06
@ 033   ----------------------------------------
        .byte   W06
@ 034   ----------------------------------------
        .byte   W06
@ 035   ----------------------------------------
        .byte   W06
@ 036   ----------------------------------------
        .byte   W06
@ 037   ----------------------------------------
        .byte   W06
@ 038   ----------------------------------------
        .byte   W06
@ 039   ----------------------------------------
        .byte   W06
@ 040   ----------------------------------------
        .byte   W06
@ 041   ----------------------------------------
        .byte   W06
@ 042   ----------------------------------------
        .byte   W06
@ 043   ----------------------------------------
        .byte   W01
        .byte                   Cn2 , v092
        .byte           N96   , En3 , v072
        .byte           N96   , Bn2
        .byte           N96   , Gn2
        .byte   W05
@ 044   ----------------------------------------
        .byte   W06
@ 045   ----------------------------------------
        .byte   W06
@ 046   ----------------------------------------
        .byte   W06
@ 047   ----------------------------------------
        .byte   W06
@ 048   ----------------------------------------
        .byte   W06
@ 049   ----------------------------------------
        .byte   W06
@ 050   ----------------------------------------
        .byte   W06
@ 051   ----------------------------------------
        .byte   W06
@ 052   ----------------------------------------
        .byte   W06
@ 053   ----------------------------------------
        .byte   W06
@ 054   ----------------------------------------
        .byte   W06
@ 055   ----------------------------------------
        .byte   W06
@ 056   ----------------------------------------
        .byte   W06
@ 057   ----------------------------------------
        .byte   W06
@ 058   ----------------------------------------
        .byte   W06
@ 059   ----------------------------------------
        .byte   W01
        .byte                   Bn1 , v092
        .byte           N96   , Dn3 , v072
        .byte           N96   , Bn2
        .byte           N96   , Gn2
        .byte   W05
@ 060   ----------------------------------------
        .byte   W06
@ 061   ----------------------------------------
        .byte   W06
@ 062   ----------------------------------------
        .byte   W06
@ 063   ----------------------------------------
        .byte   W06
@ 064   ----------------------------------------
        .byte   W06
@ 065   ----------------------------------------
        .byte   W06
@ 066   ----------------------------------------
        .byte   W06
@ 067   ----------------------------------------
        .byte   W06
@ 068   ----------------------------------------
        .byte   W06
@ 069   ----------------------------------------
        .byte   W06
@ 070   ----------------------------------------
        .byte   W06
@ 071   ----------------------------------------
        .byte   W06
@ 072   ----------------------------------------
        .byte   W06
@ 073   ----------------------------------------
        .byte   W06
@ 074   ----------------------------------------
        .byte   W06
@ 075   ----------------------------------------
        .byte   W01
        .byte                   An1 , v092
        .byte           N96   , Cn3 , v072
        .byte           N96   , Gn2
        .byte           N96   , En2
        .byte   W05
@ 076   ----------------------------------------
        .byte   W06
@ 077   ----------------------------------------
        .byte   W06
@ 078   ----------------------------------------
        .byte   W06
@ 079   ----------------------------------------
        .byte   W06
@ 080   ----------------------------------------
        .byte   W06
@ 081   ----------------------------------------
        .byte   W06
@ 082   ----------------------------------------
        .byte   W06
@ 083   ----------------------------------------
        .byte   W06
@ 084   ----------------------------------------
        .byte   W06
@ 085   ----------------------------------------
        .byte   W06
@ 086   ----------------------------------------
        .byte   W06
@ 087   ----------------------------------------
        .byte   W06
@ 088   ----------------------------------------
        .byte   W06
@ 089   ----------------------------------------
        .byte   W06
@ 090   ----------------------------------------
        .byte   W06
@ 091   ----------------------------------------
        .byte   W01
        .byte                   Bn1 , v092
        .byte           N96   , Bn2 , v072
        .byte           N96   , Gn2
        .byte           N96   , Dn3
        .byte   W05
@ 092   ----------------------------------------
        .byte   W06
@ 093   ----------------------------------------
        .byte   W06
@ 094   ----------------------------------------
        .byte   W06
@ 095   ----------------------------------------
        .byte   W06
@ 096   ----------------------------------------
        .byte   W06
@ 097   ----------------------------------------
        .byte   W06
@ 098   ----------------------------------------
        .byte   W06
@ 099   ----------------------------------------
        .byte   W06
@ 100   ----------------------------------------
        .byte   W06
@ 101   ----------------------------------------
        .byte   W06
@ 102   ----------------------------------------
        .byte   W06
@ 103   ----------------------------------------
        .byte   W06
@ 104   ----------------------------------------
        .byte   W06
@ 105   ----------------------------------------
        .byte   W06
@ 106   ----------------------------------------
        .byte   W06
@ 107   ----------------------------------------
        .byte   W01
        .byte                   Cn2 , v092
        .byte           N96   , Cn3 , v072
        .byte           N96   , Gn2
        .byte           N96   , En3
        .byte   W05
@ 108   ----------------------------------------
        .byte   W06
@ 109   ----------------------------------------
        .byte   W06
@ 110   ----------------------------------------
        .byte   W06
@ 111   ----------------------------------------
        .byte   W06
@ 112   ----------------------------------------
        .byte   W06
@ 113   ----------------------------------------
        .byte   W06
@ 114   ----------------------------------------
        .byte   W06
@ 115   ----------------------------------------
        .byte   W06
@ 116   ----------------------------------------
        .byte   W06
@ 117   ----------------------------------------
        .byte   W06
@ 118   ----------------------------------------
        .byte   W06
@ 119   ----------------------------------------
        .byte   W06
@ 120   ----------------------------------------
        .byte   W06
@ 121   ----------------------------------------
        .byte   W06
@ 122   ----------------------------------------
        .byte   W06
@ 123   ----------------------------------------
        .byte   W01
        .byte           N92   , Dn2 , v092 , gtp2
        .byte                   Fs3 , v072
        .byte           N92   , Dn3 , v072 , gtp2
        .byte                   An2
        .byte   W05
@ 124   ----------------------------------------
        .byte   W06
@ 125   ----------------------------------------
        .byte   W06
@ 126   ----------------------------------------
        .byte   W06
@ 127   ----------------------------------------
        .byte   W06
@ 128   ----------------------------------------
        .byte   W06
@ 129   ----------------------------------------
        .byte   W06
@ 130   ----------------------------------------
        .byte   W06
@ 131   ----------------------------------------
        .byte   W06
@ 132   ----------------------------------------
        .byte   W06
@ 133   ----------------------------------------
        .byte   W06
@ 134   ----------------------------------------
        .byte   W06
@ 135   ----------------------------------------
        .byte   W06
@ 136   ----------------------------------------
        .byte   W06
@ 137   ----------------------------------------
        .byte   W06
@ 138   ----------------------------------------
        .byte   W05
        .byte           N96   , En2 , v092
        .byte           N96   , Gn3 , v072
        .byte           N96   , Dn3
        .byte           N96   , Bn2
        .byte   W01
@ 139   ----------------------------------------
        .byte   W06
@ 140   ----------------------------------------
        .byte   W06
@ 141   ----------------------------------------
        .byte   W06
@ 142   ----------------------------------------
        .byte   W06
@ 143   ----------------------------------------
        .byte   W06
@ 144   ----------------------------------------
        .byte   W06
@ 145   ----------------------------------------
        .byte   W06
@ 146   ----------------------------------------
        .byte   W06
@ 147   ----------------------------------------
        .byte   W06
@ 148   ----------------------------------------
        .byte   W06
@ 149   ----------------------------------------
        .byte   W06
@ 150   ----------------------------------------
        .byte   W06
@ 151   ----------------------------------------
        .byte   W06
@ 152   ----------------------------------------
        .byte   W06
@ 153   ----------------------------------------
        .byte   W06
@ 154   ----------------------------------------
        .byte   W06
@ 155   ----------------------------------------
        .byte   W01
        .byte                   Dn2 , v092
        .byte           N96   , Fs3 , v072
        .byte           N96   , Dn3
        .byte           N96   , Bn2
        .byte   W05
@ 156   ----------------------------------------
        .byte   W06
@ 157   ----------------------------------------
        .byte   W06
@ 158   ----------------------------------------
        .byte   W06
@ 159   ----------------------------------------
        .byte   W06
@ 160   ----------------------------------------
        .byte   W06
@ 161   ----------------------------------------
        .byte   W06
@ 162   ----------------------------------------
        .byte   W06
@ 163   ----------------------------------------
        .byte   W01
        .byte           N48   , Bn3 , v067
        .byte   W05
@ 164   ----------------------------------------
        .byte   W06
@ 165   ----------------------------------------
        .byte   W06
@ 166   ----------------------------------------
        .byte   W06
@ 167   ----------------------------------------
        .byte   W06
@ 168   ----------------------------------------
        .byte   W06
@ 169   ----------------------------------------
        .byte   W06
@ 170   ----------------------------------------
        .byte   W06
@ 171   ----------------------------------------
        .byte   W01
        .byte           N96   , Cn2 , v092
        .byte           N96   , Bn2 , v072
        .byte           N96   , En3
        .byte           N96   , Gn2
        .byte   W05
@ 172   ----------------------------------------
        .byte   W06
@ 173   ----------------------------------------
        .byte   W06
@ 174   ----------------------------------------
        .byte   W06
@ 175   ----------------------------------------
        .byte   W06
@ 176   ----------------------------------------
        .byte   W06
@ 177   ----------------------------------------
        .byte   W06
@ 178   ----------------------------------------
        .byte   W06
@ 179   ----------------------------------------
        .byte   W06
@ 180   ----------------------------------------
        .byte   W06
@ 181   ----------------------------------------
        .byte   W06
@ 182   ----------------------------------------
        .byte   W06
@ 183   ----------------------------------------
        .byte   W06
@ 184   ----------------------------------------
        .byte   W06
@ 185   ----------------------------------------
        .byte   W06
@ 186   ----------------------------------------
        .byte   W06
@ 187   ----------------------------------------
        .byte   W01
        .byte                   Bn1 , v092
        .byte           N96   , Gn2 , v072
        .byte           N96   , Bn2
        .byte           N96   , Dn3
        .byte   W05
@ 188   ----------------------------------------
        .byte   W06
@ 189   ----------------------------------------
        .byte   W06
@ 190   ----------------------------------------
        .byte   W06
@ 191   ----------------------------------------
        .byte   W06
@ 192   ----------------------------------------
        .byte   W06
@ 193   ----------------------------------------
        .byte   W06
@ 194   ----------------------------------------
        .byte   W06
@ 195   ----------------------------------------
        .byte   W01
        .byte           N48   , Gn3
        .byte   W05
@ 196   ----------------------------------------
        .byte   W06
@ 197   ----------------------------------------
        .byte   W06
@ 198   ----------------------------------------
        .byte   W06
@ 199   ----------------------------------------
        .byte   W06
@ 200   ----------------------------------------
        .byte   W06
@ 201   ----------------------------------------
        .byte   W06
@ 202   ----------------------------------------
        .byte   W06
@ 203   ----------------------------------------
        .byte   W01
        .byte           N96   , An1 , v092
        .byte           N96   , Gn2 , v072
        .byte           N96   , En2
        .byte           N96   , Cn3
        .byte   W05
@ 204   ----------------------------------------
        .byte   W06
@ 205   ----------------------------------------
        .byte   W06
@ 206   ----------------------------------------
        .byte   W06
@ 207   ----------------------------------------
        .byte   W06
@ 208   ----------------------------------------
        .byte   W06
@ 209   ----------------------------------------
        .byte   W06
@ 210   ----------------------------------------
        .byte   W06
@ 211   ----------------------------------------
        .byte   W06
@ 212   ----------------------------------------
        .byte   W06
@ 213   ----------------------------------------
        .byte   W06
@ 214   ----------------------------------------
        .byte   W06
@ 215   ----------------------------------------
        .byte   W06
@ 216   ----------------------------------------
        .byte   W06
@ 217   ----------------------------------------
        .byte   W06
@ 218   ----------------------------------------
        .byte   W06
@ 219   ----------------------------------------
        .byte   W01
        .byte                   Bn1 , v092
        .byte           N96   , Gn2 , v072
        .byte           N96   , Dn3
        .byte   W05
@ 220   ----------------------------------------
        .byte   W06
@ 221   ----------------------------------------
        .byte   W06
@ 222   ----------------------------------------
        .byte   W06
@ 223   ----------------------------------------
        .byte   W06
@ 224   ----------------------------------------
        .byte   W06
@ 225   ----------------------------------------
        .byte   W06
@ 226   ----------------------------------------
        .byte   W06
@ 227   ----------------------------------------
        .byte   W06
@ 228   ----------------------------------------
        .byte   W06
@ 229   ----------------------------------------
        .byte   W06
@ 230   ----------------------------------------
        .byte   W06
@ 231   ----------------------------------------
        .byte   W06
@ 232   ----------------------------------------
        .byte   W06
@ 233   ----------------------------------------
        .byte   W06
@ 234   ----------------------------------------
        .byte   W06
@ 235   ----------------------------------------
        .byte   W01
        .byte           N24   , Cn2 , v112
        .byte           N96   , Cn3 , v072
        .byte           N96   , Gn2
        .byte           N96   , En3
        .byte   W05
@ 236   ----------------------------------------
        .byte   W06
@ 237   ----------------------------------------
        .byte   W06
@ 238   ----------------------------------------
        .byte   W06
@ 239   ----------------------------------------
        .byte   W01
        .byte           N24   , Bn1 , v112
        .byte   W05
@ 240   ----------------------------------------
        .byte   W06
@ 241   ----------------------------------------
        .byte   W06
@ 242   ----------------------------------------
        .byte   W06
@ 243   ----------------------------------------
        .byte   W01
        .byte                   An1
        .byte   W05
@ 244   ----------------------------------------
        .byte   W06
@ 245   ----------------------------------------
        .byte   W06
@ 246   ----------------------------------------
        .byte   W06
@ 247   ----------------------------------------
        .byte   W01
        .byte                   Gn1
        .byte   W05
@ 248   ----------------------------------------
        .byte   W06
@ 249   ----------------------------------------
        .byte   W06
@ 250   ----------------------------------------
        .byte   W06
@ 251   ----------------------------------------
        .byte   W01
        .byte           TIE   , Dn2 , v107
        .byte           TIE   , Fs3 , v072
        .byte           TIE   , Dn3
        .byte           TIE   , An2
        .byte   W05
@ 252   ----------------------------------------
        .byte   W06
@ 253   ----------------------------------------
        .byte   W06
@ 254   ----------------------------------------
        .byte   W06
@ 255   ----------------------------------------
        .byte   W06
@ 256   ----------------------------------------
        .byte   W06
@ 257   ----------------------------------------
        .byte   W06
@ 258   ----------------------------------------
        .byte   W06
@ 259   ----------------------------------------
        .byte   W06
@ 260   ----------------------------------------
        .byte   W06
@ 261   ----------------------------------------
        .byte   W06
@ 262   ----------------------------------------
        .byte   W06
@ 263   ----------------------------------------
        .byte   W06
@ 264   ----------------------------------------
        .byte   W06
@ 265   ----------------------------------------
        .byte   W06
@ 266   ----------------------------------------
        .byte   W06
@ 267   ----------------------------------------
        .byte   W06
@ 268   ----------------------------------------
        .byte   W06
@ 269   ----------------------------------------
        .byte   W06
@ 270   ----------------------------------------
        .byte   W06
@ 271   ----------------------------------------
        .byte   W06
@ 272   ----------------------------------------
        .byte   W06
@ 273   ----------------------------------------
        .byte   W06
@ 274   ----------------------------------------
        .byte   W06
@ 275   ----------------------------------------
        .byte   W01
        .byte           EOT   , Dn2
        .byte                   An2
        .byte                   Dn3
        .byte                   Fs3
        .byte           N24   , En2 , v127
        .byte           N24   , En1
        .byte           N24   , Gn3 , v072
        .byte           N24   , Cn3
        .byte   W05
@ 276   ----------------------------------------
        .byte   W06
@ 277   ----------------------------------------
        .byte   W06
@ 278   ----------------------------------------
        .byte   W06
@ 279   ----------------------------------------
        .byte   W01
        .byte                   Fs2 , v127
        .byte           N24   , Fs1
        .byte           N24   , An3 , v072
        .byte           N24   , Dn3
        .byte   W05
@ 280   ----------------------------------------
        .byte   W06
@ 281   ----------------------------------------
        .byte   W06
@ 282   ----------------------------------------
        .byte   W06
@ 283   ----------------------------------------
        .byte   W01
        .byte           TIE   , Gn2 , v127
        .byte           TIE   , Gn3 , v072
        .byte           N72   , Dn3
        .byte   W05
@ 284   ----------------------------------------
        .byte   W06
@ 285   ----------------------------------------
        .byte   W06
@ 286   ----------------------------------------
        .byte   W06
@ 287   ----------------------------------------
        .byte   W06
@ 288   ----------------------------------------
        .byte   W06
@ 289   ----------------------------------------
        .byte   W06
@ 290   ----------------------------------------
        .byte   W06
@ 291   ----------------------------------------
        .byte   W06
@ 292   ----------------------------------------
        .byte   W06
@ 293   ----------------------------------------
        .byte   W06
@ 294   ----------------------------------------
        .byte   W06
@ 295   ----------------------------------------
neverendingdream000_3_295:
        .byte   W01
        .byte           N24   , Fs3 , v072
        .byte   W05
        .byte   PEND
@ 296   ----------------------------------------
        .byte   W06
@ 297   ----------------------------------------
        .byte   W06
@ 298   ----------------------------------------
        .byte   W06
@ 299   ----------------------------------------
neverendingdream000_3_299:
        .byte   W01
        .byte           N96   , Dn3 , v072
        .byte   W05
        .byte   PEND
@ 300   ----------------------------------------
        .byte   W06
@ 301   ----------------------------------------
        .byte   W06
@ 302   ----------------------------------------
        .byte   W06
@ 303   ----------------------------------------
        .byte   W06
@ 304   ----------------------------------------
        .byte   W06
@ 305   ----------------------------------------
        .byte   W06
@ 306   ----------------------------------------
        .byte   W06
@ 307   ----------------------------------------
        .byte   W06
@ 308   ----------------------------------------
        .byte   W06
@ 309   ----------------------------------------
        .byte   W06
@ 310   ----------------------------------------
        .byte   W06
@ 311   ----------------------------------------
        .byte   W06
@ 312   ----------------------------------------
        .byte   W06
@ 313   ----------------------------------------
        .byte   W06
@ 314   ----------------------------------------
        .byte   W06
@ 315   ----------------------------------------
        .byte   W01
        .byte           EOT   , Gn2
        .byte                   Gn3
        .byte           N96   , Fs2 , v117
        .byte           N72   , En3 , v072
        .byte           N96   , Bn3
        .byte           N96   , An3
        .byte   W05
@ 316   ----------------------------------------
        .byte   W06
@ 317   ----------------------------------------
        .byte   W06
@ 318   ----------------------------------------
        .byte   W06
@ 319   ----------------------------------------
        .byte   W06
@ 320   ----------------------------------------
        .byte   W06
@ 321   ----------------------------------------
        .byte   W06
@ 322   ----------------------------------------
        .byte   W06
@ 323   ----------------------------------------
        .byte   W06
@ 324   ----------------------------------------
        .byte   W06
@ 325   ----------------------------------------
        .byte   W06
@ 326   ----------------------------------------
        .byte   W06
@ 327   ----------------------------------------
neverendingdream000_3_327:
        .byte   W01
        .byte           N24   , En3 , v072
        .byte   W05
        .byte   PEND
@ 328   ----------------------------------------
        .byte   W06
@ 329   ----------------------------------------
        .byte   W06
@ 330   ----------------------------------------
        .byte   W06
@ 331   ----------------------------------------
        .byte   W01
        .byte           N96   , Bn1 , v117
        .byte           N96   , Ds3 , v072
        .byte           N96   , Fs3
        .byte   W05
@ 332   ----------------------------------------
        .byte   W06
@ 333   ----------------------------------------
        .byte   W06
@ 334   ----------------------------------------
        .byte   W06
@ 335   ----------------------------------------
        .byte   W06
@ 336   ----------------------------------------
        .byte   W06
@ 337   ----------------------------------------
        .byte   W06
@ 338   ----------------------------------------
        .byte   W06
@ 339   ----------------------------------------
        .byte   W06
@ 340   ----------------------------------------
        .byte   W06
@ 341   ----------------------------------------
        .byte   W06
@ 342   ----------------------------------------
        .byte   W06
@ 343   ----------------------------------------
        .byte   W06
@ 344   ----------------------------------------
        .byte   W06
@ 345   ----------------------------------------
        .byte   W06
@ 346   ----------------------------------------
        .byte   W06
@ 347   ----------------------------------------
        .byte   W01
        .byte           TIE   , En2 , v117
        .byte           N96   , En3 , v072
        .byte           TIE   , Gn3
        .byte           TIE   , Bn2
        .byte   W05
@ 348   ----------------------------------------
        .byte   W06
@ 349   ----------------------------------------
        .byte   W06
@ 350   ----------------------------------------
        .byte   W06
@ 351   ----------------------------------------
        .byte   W06
@ 352   ----------------------------------------
        .byte   W06
@ 353   ----------------------------------------
        .byte   W06
@ 354   ----------------------------------------
        .byte   W06
@ 355   ----------------------------------------
        .byte   W06
@ 356   ----------------------------------------
        .byte   W06
@ 357   ----------------------------------------
        .byte   W06
@ 358   ----------------------------------------
        .byte   W06
@ 359   ----------------------------------------
        .byte   W06
@ 360   ----------------------------------------
        .byte   W06
@ 361   ----------------------------------------
        .byte   W06
@ 362   ----------------------------------------
        .byte   W06
@ 363   ----------------------------------------
        .byte   W01
        .byte           N96   , Dn2 , v117
        .byte           N96   , Dn3 , v072
        .byte   W01
        .byte           EOT   , En2
        .byte   W04
@ 364   ----------------------------------------
        .byte   W06
@ 365   ----------------------------------------
        .byte   W06
@ 366   ----------------------------------------
        .byte   W06
@ 367   ----------------------------------------
        .byte   W06
@ 368   ----------------------------------------
        .byte   W06
@ 369   ----------------------------------------
        .byte   W06
@ 370   ----------------------------------------
        .byte   W06
@ 371   ----------------------------------------
        .byte   W06
@ 372   ----------------------------------------
        .byte   W06
@ 373   ----------------------------------------
        .byte   W06
@ 374   ----------------------------------------
        .byte   W06
@ 375   ----------------------------------------
        .byte   W06
@ 376   ----------------------------------------
        .byte   W06
@ 377   ----------------------------------------
        .byte   W06
@ 378   ----------------------------------------
        .byte   W06
@ 379   ----------------------------------------
        .byte   W01
        .byte                   Bn2
        .byte           N96   , Cn2 , v117
        .byte           N96   , En3 , v072
        .byte           N96   , Cn3
        .byte           N96   , Gn2
        .byte   W05
@ 380   ----------------------------------------
        .byte   W06
@ 381   ----------------------------------------
        .byte   W06
@ 382   ----------------------------------------
        .byte   W06
@ 383   ----------------------------------------
        .byte   W06
@ 384   ----------------------------------------
        .byte   W06
@ 385   ----------------------------------------
        .byte   W06
@ 386   ----------------------------------------
        .byte   W06
@ 387   ----------------------------------------
        .byte   W06
@ 388   ----------------------------------------
        .byte   W06
@ 389   ----------------------------------------
        .byte   W06
@ 390   ----------------------------------------
        .byte   W06
@ 391   ----------------------------------------
        .byte   W06
@ 392   ----------------------------------------
        .byte   W06
@ 393   ----------------------------------------
        .byte   W06
@ 394   ----------------------------------------
        .byte   W06
@ 395   ----------------------------------------
        .byte   W01
        .byte           EOT   , Gn3
        .byte           N96   , Dn2 , v117
        .byte           N96   , An2 , v072
        .byte           N48   , Gn3
        .byte           N48   , Cn3
        .byte   W05
@ 396   ----------------------------------------
        .byte   W06
@ 397   ----------------------------------------
        .byte   W06
@ 398   ----------------------------------------
        .byte   W06
@ 399   ----------------------------------------
        .byte   W06
@ 400   ----------------------------------------
        .byte   W06
@ 401   ----------------------------------------
        .byte   W06
@ 402   ----------------------------------------
        .byte   W06
@ 403   ----------------------------------------
        .byte   W01
        .byte                   Fs3
        .byte           N48   , Dn3
        .byte   W05
@ 404   ----------------------------------------
        .byte   W06
@ 405   ----------------------------------------
        .byte   W06
@ 406   ----------------------------------------
        .byte   W06
@ 407   ----------------------------------------
        .byte   W06
@ 408   ----------------------------------------
        .byte   W06
@ 409   ----------------------------------------
        .byte   W06
@ 410   ----------------------------------------
        .byte   W06
@ 411   ----------------------------------------
        .byte   W01
        .byte           TIE   , Gn2 , v117
        .byte           TIE   , Gn3 , v072
        .byte           N72   , Dn3
        .byte   W05
@ 412   ----------------------------------------
        .byte   W06
@ 413   ----------------------------------------
        .byte   W06
@ 414   ----------------------------------------
        .byte   W06
@ 415   ----------------------------------------
        .byte   W06
@ 416   ----------------------------------------
        .byte   W06
@ 417   ----------------------------------------
        .byte   W06
@ 418   ----------------------------------------
        .byte   W06
@ 419   ----------------------------------------
        .byte   W06
@ 420   ----------------------------------------
        .byte   W06
@ 421   ----------------------------------------
        .byte   W06
@ 422   ----------------------------------------
        .byte   W06
@ 423   ----------------------------------------
        .byte   PATT
         .word  neverendingdream000_3_295
@ 424   ----------------------------------------
        .byte   W06
@ 425   ----------------------------------------
        .byte   W06
@ 426   ----------------------------------------
        .byte   W06
@ 427   ----------------------------------------
        .byte   PATT
         .word  neverendingdream000_3_299
@ 428   ----------------------------------------
        .byte   W06
@ 429   ----------------------------------------
        .byte   W06
@ 430   ----------------------------------------
        .byte   W06
@ 431   ----------------------------------------
        .byte   W06
@ 432   ----------------------------------------
        .byte   W06
@ 433   ----------------------------------------
        .byte   W06
@ 434   ----------------------------------------
        .byte   W06
@ 435   ----------------------------------------
        .byte   W06
@ 436   ----------------------------------------
        .byte   W06
@ 437   ----------------------------------------
        .byte   W06
@ 438   ----------------------------------------
        .byte   W06
@ 439   ----------------------------------------
        .byte   W06
@ 440   ----------------------------------------
        .byte   W06
@ 441   ----------------------------------------
        .byte   W06
@ 442   ----------------------------------------
        .byte   W06
@ 443   ----------------------------------------
        .byte   W01
        .byte           EOT   , Gn2
        .byte                   Gn3
        .byte           N96   , Fs2 , v117
        .byte           TIE   , Bn3 , v072
        .byte           N72   , An3
        .byte           N72   , En3
        .byte   W05
@ 444   ----------------------------------------
        .byte   W06
@ 445   ----------------------------------------
        .byte   W06
@ 446   ----------------------------------------
        .byte   W06
@ 447   ----------------------------------------
        .byte   W06
@ 448   ----------------------------------------
        .byte   W06
@ 449   ----------------------------------------
        .byte   W06
@ 450   ----------------------------------------
        .byte   W06
@ 451   ----------------------------------------
        .byte   W06
@ 452   ----------------------------------------
        .byte   W06
@ 453   ----------------------------------------
        .byte   W06
@ 454   ----------------------------------------
        .byte   W06
@ 455   ----------------------------------------
        .byte   PATT
         .word  neverendingdream000_3_327
@ 456   ----------------------------------------
        .byte   W06
@ 457   ----------------------------------------
        .byte   W06
@ 458   ----------------------------------------
        .byte   W06
@ 459   ----------------------------------------
        .byte   W01
        .byte           N96   , Bn1 , v117
        .byte           N48   , Fs3 , v072
        .byte           N48   , Ds3
        .byte   W05
@ 460   ----------------------------------------
        .byte   W06
@ 461   ----------------------------------------
        .byte   W06
@ 462   ----------------------------------------
        .byte   W06
@ 463   ----------------------------------------
        .byte   W06
@ 464   ----------------------------------------
        .byte   W06
@ 465   ----------------------------------------
        .byte   W06
@ 466   ----------------------------------------
        .byte   W06
@ 467   ----------------------------------------
        .byte   W01
        .byte                   Bn2
        .byte   W05
@ 468   ----------------------------------------
        .byte   W06
@ 469   ----------------------------------------
        .byte   W01
        .byte           N36   , Ds3
        .byte   W05
@ 470   ----------------------------------------
        .byte   W06
@ 471   ----------------------------------------
        .byte   W01
        .byte           EOT   , Bn3
        .byte           N24   , Fs3
        .byte   W05
@ 472   ----------------------------------------
        .byte   W06
@ 473   ----------------------------------------
        .byte   W01
        .byte           N12   , Bn3
        .byte   W05
@ 474   ----------------------------------------
        .byte   W06
@ 475   ----------------------------------------
        .byte   W01
        .byte           N96   , En2 , v117
        .byte           N96   , En3 , v072
        .byte           N96   , Bn2
        .byte           TIE   , Gn3
        .byte   W05
@ 476   ----------------------------------------
        .byte   W06
@ 477   ----------------------------------------
        .byte   W06
@ 478   ----------------------------------------
        .byte   W06
@ 479   ----------------------------------------
        .byte   W06
@ 480   ----------------------------------------
        .byte   W06
@ 481   ----------------------------------------
        .byte   W06
@ 482   ----------------------------------------
        .byte   W06
@ 483   ----------------------------------------
        .byte   W06
@ 484   ----------------------------------------
        .byte   W06
@ 485   ----------------------------------------
        .byte   W06
@ 486   ----------------------------------------
        .byte   W06
@ 487   ----------------------------------------
        .byte   W06
@ 488   ----------------------------------------
        .byte   W06
@ 489   ----------------------------------------
        .byte   W06
@ 490   ----------------------------------------
        .byte   W06
@ 491   ----------------------------------------
        .byte   W01
        .byte           N96   , Dn2 , v117
        .byte           N96   , Bn2 , v072
        .byte           N96   , Dn3
        .byte   W05
@ 492   ----------------------------------------
        .byte   W06
@ 493   ----------------------------------------
        .byte   W06
@ 494   ----------------------------------------
        .byte   W06
@ 495   ----------------------------------------
        .byte   W06
@ 496   ----------------------------------------
        .byte   W06
@ 497   ----------------------------------------
        .byte   W06
@ 498   ----------------------------------------
        .byte   W06
@ 499   ----------------------------------------
        .byte   W06
@ 500   ----------------------------------------
        .byte   W06
@ 501   ----------------------------------------
        .byte   W06
@ 502   ----------------------------------------
        .byte   W06
@ 503   ----------------------------------------
        .byte   W06
@ 504   ----------------------------------------
        .byte   W06
@ 505   ----------------------------------------
        .byte   W06
@ 506   ----------------------------------------
        .byte   W06
@ 507   ----------------------------------------
        .byte   W01
        .byte           EOT   , Gn3
        .byte           N96   , Cn2 , v117
        .byte           N96   , Bn2 , v072
        .byte           N96   , En3
        .byte           N96   , Gn3
        .byte   W05
@ 508   ----------------------------------------
        .byte   W06
@ 509   ----------------------------------------
        .byte   W06
@ 510   ----------------------------------------
        .byte   W06
@ 511   ----------------------------------------
        .byte   W06
@ 512   ----------------------------------------
        .byte   W06
@ 513   ----------------------------------------
        .byte   W06
@ 514   ----------------------------------------
        .byte   W06
@ 515   ----------------------------------------
        .byte   W06
@ 516   ----------------------------------------
        .byte   W06
@ 517   ----------------------------------------
        .byte   W06
@ 518   ----------------------------------------
        .byte   W06
@ 519   ----------------------------------------
        .byte   W06
@ 520   ----------------------------------------
        .byte   W06
@ 521   ----------------------------------------
        .byte   W06
@ 522   ----------------------------------------
        .byte   W06
@ 523   ----------------------------------------
        .byte   W01
        .byte                   Cn2 , v117
        .byte           N96   , An2 , v072
        .byte           N96   , Ds3
        .byte           TIE   , Gn3
        .byte   W05
@ 524   ----------------------------------------
        .byte   W06
@ 525   ----------------------------------------
        .byte   W06
@ 526   ----------------------------------------
        .byte   W06
@ 527   ----------------------------------------
        .byte   W06
@ 528   ----------------------------------------
        .byte   W06
@ 529   ----------------------------------------
        .byte   W06
@ 530   ----------------------------------------
        .byte   W06
@ 531   ----------------------------------------
        .byte   W06
@ 532   ----------------------------------------
        .byte   W06
@ 533   ----------------------------------------
        .byte   W06
@ 534   ----------------------------------------
        .byte   W06
@ 535   ----------------------------------------
        .byte   W06
@ 536   ----------------------------------------
        .byte   W06
@ 537   ----------------------------------------
        .byte   W06
@ 538   ----------------------------------------
        .byte   W06
@ 539   ----------------------------------------
        .byte   W01
        .byte           N96   , En2 , v117
        .byte           N96   , En3 , v072
        .byte           N96   , Bn2
        .byte   W05
@ 540   ----------------------------------------
        .byte   W06
@ 541   ----------------------------------------
        .byte   W06
@ 542   ----------------------------------------
        .byte   W06
@ 543   ----------------------------------------
        .byte   W06
@ 544   ----------------------------------------
        .byte   W06
@ 545   ----------------------------------------
        .byte   W06
@ 546   ----------------------------------------
        .byte   W06
@ 547   ----------------------------------------
        .byte   W06
@ 548   ----------------------------------------
        .byte   W06
@ 549   ----------------------------------------
        .byte   W06
@ 550   ----------------------------------------
        .byte   W06
@ 551   ----------------------------------------
        .byte   W06
@ 552   ----------------------------------------
        .byte   W06
@ 553   ----------------------------------------
        .byte   W06
@ 554   ----------------------------------------
        .byte   W06
@ 555   ----------------------------------------
        .byte   W01
        .byte           EOT   , Gn3
        .byte           N92   , Dn2 , v117 , gtp3
        .byte                   Bn2 , v072
        .byte           N92   , Fs3 , v072 , gtp3
        .byte   W05
@ 556   ----------------------------------------
        .byte   W06
@ 557   ----------------------------------------
        .byte   W06
@ 558   ----------------------------------------
        .byte   W06
@ 559   ----------------------------------------
        .byte   W06
@ 560   ----------------------------------------
        .byte   W06
@ 561   ----------------------------------------
        .byte   W06
@ 562   ----------------------------------------
        .byte   W06
@ 563   ----------------------------------------
        .byte   W01
        .byte           N44   , Bn3 , v072 , gtp3
        .byte   W05
@ 564   ----------------------------------------
        .byte   W06
@ 565   ----------------------------------------
        .byte   W06
@ 566   ----------------------------------------
        .byte   W06
@ 567   ----------------------------------------
        .byte   W06
@ 568   ----------------------------------------
        .byte   W06
@ 569   ----------------------------------------
        .byte   W06
@ 570   ----------------------------------------
        .byte   W06
@ 571   ----------------------------------------
        .byte   W01
        .byte           N96   , Cn2 , v117
        .byte           N96   , Gn3 , v072
        .byte           N96   , En3
        .byte           N96   , Bn2
        .byte   W05
@ 572   ----------------------------------------
        .byte   W06
@ 573   ----------------------------------------
        .byte   W06
@ 574   ----------------------------------------
        .byte   W06
@ 575   ----------------------------------------
        .byte   W06
@ 576   ----------------------------------------
        .byte   W06
@ 577   ----------------------------------------
        .byte   W06
@ 578   ----------------------------------------
        .byte   W06
@ 579   ----------------------------------------
        .byte   W06
@ 580   ----------------------------------------
        .byte   W06
@ 581   ----------------------------------------
        .byte   W06
@ 582   ----------------------------------------
        .byte   W06
@ 583   ----------------------------------------
        .byte   W06
@ 584   ----------------------------------------
        .byte   W06
@ 585   ----------------------------------------
        .byte   W06
@ 586   ----------------------------------------
        .byte   W06
@ 587   ----------------------------------------
        .byte   W06
@ 588   ----------------------------------------
        .byte   W06
@ 589   ----------------------------------------
        .byte   W06
@ 590   ----------------------------------------
        .byte   W06
@ 591   ----------------------------------------
        .byte   W06
@ 592   ----------------------------------------
        .byte   W06
@ 593   ----------------------------------------
        .byte   W06
@ 594   ----------------------------------------
        .byte   W06
@ 595   ----------------------------------------
        .byte   W06
@ 596   ----------------------------------------
        .byte   W06
@ 597   ----------------------------------------
        .byte   W06
@ 598   ----------------------------------------
        .byte   W06
@ 599   ----------------------------------------
        .byte   W06
@ 600   ----------------------------------------
        .byte   W06
@ 601   ----------------------------------------
        .byte   W06
@ 602   ----------------------------------------
        .byte   W06
@ 603   ----------------------------------------
        .byte   GOTO
         .word  neverendingdream000_3_LOOP
        .byte   FINE

@****************** Track 4 (Midi-Chn.4) ******************@

neverendingdream000_4:
        .byte   KEYSH , neverendingdream000_key+0
@ 000   ----------------------------------------
        .byte           VOICE , 0
        .byte   W03
        .byte           VOL   , 28
        .byte   W01
        .byte           PAN   , c_v-24
        .byte   W02
@ 001   ----------------------------------------
        .byte   W06
@ 002   ----------------------------------------
        .byte   W06
@ 003   ----------------------------------------
        .byte   W06
@ 004   ----------------------------------------
        .byte   W06
@ 005   ----------------------------------------
        .byte   W06
@ 006   ----------------------------------------
        .byte   W06
@ 007   ----------------------------------------
        .byte   W06
@ 008   ----------------------------------------
        .byte   W06
@ 009   ----------------------------------------
        .byte   W06
@ 010   ----------------------------------------
        .byte   W05
neverendingdream000_4_LOOP:
        .byte   W01
@ 011   ----------------------------------------
        .byte   W06
@ 012   ----------------------------------------
        .byte   W06
@ 013   ----------------------------------------
        .byte   W06
@ 014   ----------------------------------------
        .byte   W06
@ 015   ----------------------------------------
        .byte   W06
@ 016   ----------------------------------------
        .byte   W06
@ 017   ----------------------------------------
        .byte   W06
@ 018   ----------------------------------------
        .byte   W06
@ 019   ----------------------------------------
        .byte   W06
@ 020   ----------------------------------------
        .byte   W06
@ 021   ----------------------------------------
        .byte   W06
@ 022   ----------------------------------------
        .byte   W06
@ 023   ----------------------------------------
        .byte   W06
@ 024   ----------------------------------------
        .byte   W06
@ 025   ----------------------------------------
        .byte   W06
@ 026   ----------------------------------------
        .byte   W06
@ 027   ----------------------------------------
        .byte   W06
@ 028   ----------------------------------------
        .byte   W06
@ 029   ----------------------------------------
        .byte   W06
@ 030   ----------------------------------------
        .byte   W06
@ 031   ----------------------------------------
        .byte   W06
@ 032   ----------------------------------------
        .byte   W06
@ 033   ----------------------------------------
        .byte   W06
@ 034   ----------------------------------------
        .byte   W06
@ 035   ----------------------------------------
        .byte   W06
@ 036   ----------------------------------------
        .byte   W06
@ 037   ----------------------------------------
        .byte   W06
@ 038   ----------------------------------------
        .byte   W06
@ 039   ----------------------------------------
        .byte   W06
@ 040   ----------------------------------------
        .byte   W06
@ 041   ----------------------------------------
        .byte   W06
@ 042   ----------------------------------------
        .byte   W06
@ 043   ----------------------------------------
        .byte   W06
@ 044   ----------------------------------------
        .byte   W06
@ 045   ----------------------------------------
        .byte   W06
@ 046   ----------------------------------------
        .byte   W06
@ 047   ----------------------------------------
        .byte   W06
@ 048   ----------------------------------------
        .byte   W06
@ 049   ----------------------------------------
        .byte   W06
@ 050   ----------------------------------------
        .byte   W06
@ 051   ----------------------------------------
        .byte   W06
@ 052   ----------------------------------------
        .byte   W06
@ 053   ----------------------------------------
        .byte   W06
@ 054   ----------------------------------------
        .byte   W06
@ 055   ----------------------------------------
        .byte   W06
@ 056   ----------------------------------------
        .byte   W06
@ 057   ----------------------------------------
        .byte   W06
@ 058   ----------------------------------------
        .byte   W06
@ 059   ----------------------------------------
        .byte   W06
@ 060   ----------------------------------------
        .byte   W06
@ 061   ----------------------------------------
        .byte   W06
@ 062   ----------------------------------------
        .byte   W06
@ 063   ----------------------------------------
        .byte   W06
@ 064   ----------------------------------------
        .byte   W06
@ 065   ----------------------------------------
        .byte   W06
@ 066   ----------------------------------------
        .byte   W06
@ 067   ----------------------------------------
        .byte   W06
@ 068   ----------------------------------------
        .byte   W06
@ 069   ----------------------------------------
        .byte   W06
@ 070   ----------------------------------------
        .byte   W06
@ 071   ----------------------------------------
        .byte   W06
@ 072   ----------------------------------------
        .byte   W06
@ 073   ----------------------------------------
        .byte   W06
@ 074   ----------------------------------------
        .byte   W06
@ 075   ----------------------------------------
        .byte   W06
@ 076   ----------------------------------------
        .byte   W06
@ 077   ----------------------------------------
        .byte   W06
@ 078   ----------------------------------------
        .byte   W06
@ 079   ----------------------------------------
        .byte   W06
@ 080   ----------------------------------------
        .byte   W06
@ 081   ----------------------------------------
        .byte   W06
@ 082   ----------------------------------------
        .byte   W06
@ 083   ----------------------------------------
        .byte   W06
@ 084   ----------------------------------------
        .byte   W06
@ 085   ----------------------------------------
        .byte   W06
@ 086   ----------------------------------------
        .byte   W06
@ 087   ----------------------------------------
        .byte   W06
@ 088   ----------------------------------------
        .byte   W06
@ 089   ----------------------------------------
        .byte   W06
@ 090   ----------------------------------------
        .byte   W06
@ 091   ----------------------------------------
        .byte   W06
@ 092   ----------------------------------------
        .byte   W06
@ 093   ----------------------------------------
        .byte   W06
@ 094   ----------------------------------------
        .byte   W06
@ 095   ----------------------------------------
        .byte   W06
@ 096   ----------------------------------------
        .byte   W06
@ 097   ----------------------------------------
        .byte   W06
@ 098   ----------------------------------------
        .byte   W06
@ 099   ----------------------------------------
        .byte   W06
@ 100   ----------------------------------------
        .byte   W06
@ 101   ----------------------------------------
        .byte   W06
@ 102   ----------------------------------------
        .byte   W06
@ 103   ----------------------------------------
        .byte   W06
@ 104   ----------------------------------------
        .byte   W06
@ 105   ----------------------------------------
        .byte   W06
@ 106   ----------------------------------------
        .byte   W06
@ 107   ----------------------------------------
        .byte   W06
@ 108   ----------------------------------------
        .byte   W06
@ 109   ----------------------------------------
        .byte   W06
@ 110   ----------------------------------------
        .byte   W06
@ 111   ----------------------------------------
        .byte   W06
@ 112   ----------------------------------------
        .byte   W06
@ 113   ----------------------------------------
        .byte   W06
@ 114   ----------------------------------------
        .byte   W06
@ 115   ----------------------------------------
        .byte   W06
@ 116   ----------------------------------------
        .byte   W06
@ 117   ----------------------------------------
        .byte   W06
@ 118   ----------------------------------------
        .byte   W06
@ 119   ----------------------------------------
        .byte   W06
@ 120   ----------------------------------------
        .byte   W06
@ 121   ----------------------------------------
        .byte   W06
@ 122   ----------------------------------------
        .byte   W06
@ 123   ----------------------------------------
        .byte   W06
@ 124   ----------------------------------------
        .byte   W06
@ 125   ----------------------------------------
        .byte   W06
@ 126   ----------------------------------------
        .byte   W06
@ 127   ----------------------------------------
        .byte   W06
@ 128   ----------------------------------------
        .byte   W06
@ 129   ----------------------------------------
        .byte   W06
@ 130   ----------------------------------------
        .byte   W06
@ 131   ----------------------------------------
        .byte   W06
@ 132   ----------------------------------------
        .byte   W06
@ 133   ----------------------------------------
        .byte   W06
@ 134   ----------------------------------------
        .byte   W06
@ 135   ----------------------------------------
        .byte   W06
@ 136   ----------------------------------------
        .byte   W06
@ 137   ----------------------------------------
        .byte   W06
@ 138   ----------------------------------------
        .byte   W06
@ 139   ----------------------------------------
        .byte   W06
@ 140   ----------------------------------------
        .byte   W06
@ 141   ----------------------------------------
        .byte   W06
@ 142   ----------------------------------------
        .byte   W06
@ 143   ----------------------------------------
        .byte   W06
@ 144   ----------------------------------------
        .byte   W06
@ 145   ----------------------------------------
        .byte   W06
@ 146   ----------------------------------------
        .byte   W06
@ 147   ----------------------------------------
        .byte   W06
@ 148   ----------------------------------------
        .byte   W06
@ 149   ----------------------------------------
        .byte   W06
@ 150   ----------------------------------------
        .byte   W06
@ 151   ----------------------------------------
        .byte   W06
@ 152   ----------------------------------------
        .byte   W06
@ 153   ----------------------------------------
        .byte   W06
@ 154   ----------------------------------------
        .byte   W06
@ 155   ----------------------------------------
        .byte   W06
@ 156   ----------------------------------------
        .byte   W06
@ 157   ----------------------------------------
        .byte   W06
@ 158   ----------------------------------------
        .byte   W06
@ 159   ----------------------------------------
        .byte   W06
@ 160   ----------------------------------------
        .byte   W06
@ 161   ----------------------------------------
        .byte   W06
@ 162   ----------------------------------------
        .byte   W06
@ 163   ----------------------------------------
        .byte   W06
@ 164   ----------------------------------------
        .byte   W06
@ 165   ----------------------------------------
        .byte   W06
@ 166   ----------------------------------------
        .byte   W06
@ 167   ----------------------------------------
        .byte   W06
@ 168   ----------------------------------------
        .byte   W06
@ 169   ----------------------------------------
        .byte   W06
@ 170   ----------------------------------------
        .byte   W06
@ 171   ----------------------------------------
        .byte   W06
@ 172   ----------------------------------------
        .byte   W06
@ 173   ----------------------------------------
        .byte   W06
@ 174   ----------------------------------------
        .byte   W06
@ 175   ----------------------------------------
        .byte   W06
@ 176   ----------------------------------------
        .byte   W06
@ 177   ----------------------------------------
        .byte   W06
@ 178   ----------------------------------------
        .byte   W06
@ 179   ----------------------------------------
        .byte   W06
@ 180   ----------------------------------------
        .byte   W06
@ 181   ----------------------------------------
        .byte   W06
@ 182   ----------------------------------------
        .byte   W06
@ 183   ----------------------------------------
        .byte   W06
@ 184   ----------------------------------------
        .byte   W06
@ 185   ----------------------------------------
        .byte   W06
@ 186   ----------------------------------------
        .byte   W06
@ 187   ----------------------------------------
        .byte   W06
@ 188   ----------------------------------------
        .byte   W06
@ 189   ----------------------------------------
        .byte   W06
@ 190   ----------------------------------------
        .byte   W06
@ 191   ----------------------------------------
        .byte   W06
@ 192   ----------------------------------------
        .byte   W06
@ 193   ----------------------------------------
        .byte   W06
@ 194   ----------------------------------------
        .byte   W06
@ 195   ----------------------------------------
        .byte   W06
@ 196   ----------------------------------------
        .byte   W06
@ 197   ----------------------------------------
        .byte   W06
@ 198   ----------------------------------------
        .byte   W06
@ 199   ----------------------------------------
        .byte   W06
@ 200   ----------------------------------------
        .byte   W06
@ 201   ----------------------------------------
        .byte   W06
@ 202   ----------------------------------------
        .byte   W06
@ 203   ----------------------------------------
        .byte   W06
@ 204   ----------------------------------------
        .byte   W06
@ 205   ----------------------------------------
        .byte   W06
@ 206   ----------------------------------------
        .byte   W06
@ 207   ----------------------------------------
        .byte   W06
@ 208   ----------------------------------------
        .byte   W06
@ 209   ----------------------------------------
        .byte   W06
@ 210   ----------------------------------------
        .byte   W06
@ 211   ----------------------------------------
        .byte   W06
@ 212   ----------------------------------------
        .byte   W06
@ 213   ----------------------------------------
        .byte   W06
@ 214   ----------------------------------------
        .byte   W06
@ 215   ----------------------------------------
        .byte   W06
@ 216   ----------------------------------------
        .byte   W06
@ 217   ----------------------------------------
        .byte   W06
@ 218   ----------------------------------------
        .byte   W06
@ 219   ----------------------------------------
        .byte   W06
@ 220   ----------------------------------------
        .byte   W06
@ 221   ----------------------------------------
        .byte   W06
@ 222   ----------------------------------------
        .byte   W06
@ 223   ----------------------------------------
        .byte   W06
@ 224   ----------------------------------------
        .byte   W06
@ 225   ----------------------------------------
        .byte   W06
@ 226   ----------------------------------------
        .byte   W06
@ 227   ----------------------------------------
        .byte   W06
@ 228   ----------------------------------------
        .byte   W06
@ 229   ----------------------------------------
        .byte   W06
@ 230   ----------------------------------------
        .byte   W06
@ 231   ----------------------------------------
        .byte   W06
@ 232   ----------------------------------------
        .byte   W06
@ 233   ----------------------------------------
        .byte   W06
@ 234   ----------------------------------------
        .byte   W06
@ 235   ----------------------------------------
        .byte   W06
@ 236   ----------------------------------------
        .byte   W06
@ 237   ----------------------------------------
        .byte   W06
@ 238   ----------------------------------------
        .byte   W06
@ 239   ----------------------------------------
        .byte   W06
@ 240   ----------------------------------------
        .byte   W06
@ 241   ----------------------------------------
        .byte   W06
@ 242   ----------------------------------------
        .byte   W06
@ 243   ----------------------------------------
        .byte   W06
@ 244   ----------------------------------------
        .byte   W06
@ 245   ----------------------------------------
        .byte   W06
@ 246   ----------------------------------------
        .byte   W06
@ 247   ----------------------------------------
        .byte   W06
@ 248   ----------------------------------------
        .byte   W06
@ 249   ----------------------------------------
        .byte   W06
@ 250   ----------------------------------------
        .byte   W06
@ 251   ----------------------------------------
        .byte   W06
@ 252   ----------------------------------------
        .byte   W06
@ 253   ----------------------------------------
        .byte   W06
@ 254   ----------------------------------------
        .byte   W06
@ 255   ----------------------------------------
        .byte   W06
@ 256   ----------------------------------------
        .byte   W06
@ 257   ----------------------------------------
        .byte   W06
@ 258   ----------------------------------------
        .byte   W06
@ 259   ----------------------------------------
        .byte   W06
@ 260   ----------------------------------------
        .byte   W06
@ 261   ----------------------------------------
        .byte   W06
@ 262   ----------------------------------------
        .byte   W06
@ 263   ----------------------------------------
        .byte   W06
@ 264   ----------------------------------------
        .byte   W06
@ 265   ----------------------------------------
        .byte   W06
@ 266   ----------------------------------------
        .byte   W06
@ 267   ----------------------------------------
        .byte   W06
@ 268   ----------------------------------------
        .byte   W06
@ 269   ----------------------------------------
        .byte   W06
@ 270   ----------------------------------------
        .byte   W06
@ 271   ----------------------------------------
        .byte   W06
@ 272   ----------------------------------------
        .byte   W06
@ 273   ----------------------------------------
        .byte   W06
@ 274   ----------------------------------------
        .byte   W06
@ 275   ----------------------------------------
        .byte   W06
@ 276   ----------------------------------------
        .byte   W06
@ 277   ----------------------------------------
        .byte   W06
@ 278   ----------------------------------------
        .byte   W06
@ 279   ----------------------------------------
        .byte   W06
@ 280   ----------------------------------------
        .byte   W06
@ 281   ----------------------------------------
        .byte   W06
@ 282   ----------------------------------------
        .byte   W06
@ 283   ----------------------------------------
        .byte   W06
@ 284   ----------------------------------------
        .byte   W06
@ 285   ----------------------------------------
        .byte   W06
@ 286   ----------------------------------------
        .byte   W06
@ 287   ----------------------------------------
        .byte   W06
@ 288   ----------------------------------------
        .byte   W06
@ 289   ----------------------------------------
        .byte   W06
@ 290   ----------------------------------------
        .byte   W06
@ 291   ----------------------------------------
        .byte   W06
@ 292   ----------------------------------------
        .byte   W06
@ 293   ----------------------------------------
        .byte   W06
@ 294   ----------------------------------------
        .byte   W06
@ 295   ----------------------------------------
        .byte   W06
@ 296   ----------------------------------------
        .byte   W06
@ 297   ----------------------------------------
        .byte   W06
@ 298   ----------------------------------------
        .byte   W06
@ 299   ----------------------------------------
        .byte   W06
@ 300   ----------------------------------------
        .byte   W06
@ 301   ----------------------------------------
        .byte   W06
@ 302   ----------------------------------------
        .byte   W06
@ 303   ----------------------------------------
        .byte   W06
@ 304   ----------------------------------------
        .byte   W06
@ 305   ----------------------------------------
        .byte   W06
@ 306   ----------------------------------------
        .byte   W06
@ 307   ----------------------------------------
        .byte   W06
@ 308   ----------------------------------------
        .byte   W06
@ 309   ----------------------------------------
        .byte   W06
@ 310   ----------------------------------------
        .byte   W06
@ 311   ----------------------------------------
        .byte   W06
@ 312   ----------------------------------------
        .byte   W06
@ 313   ----------------------------------------
        .byte   W06
@ 314   ----------------------------------------
        .byte   W06
@ 315   ----------------------------------------
        .byte   W06
@ 316   ----------------------------------------
        .byte   W06
@ 317   ----------------------------------------
        .byte   W06
@ 318   ----------------------------------------
        .byte   W06
@ 319   ----------------------------------------
        .byte   W06
@ 320   ----------------------------------------
        .byte   W06
@ 321   ----------------------------------------
        .byte   W06
@ 322   ----------------------------------------
        .byte   W06
@ 323   ----------------------------------------
        .byte   W06
@ 324   ----------------------------------------
        .byte   W06
@ 325   ----------------------------------------
        .byte   W06
@ 326   ----------------------------------------
        .byte   W06
@ 327   ----------------------------------------
        .byte   W06
@ 328   ----------------------------------------
        .byte   W06
@ 329   ----------------------------------------
        .byte   W06
@ 330   ----------------------------------------
        .byte   W06
@ 331   ----------------------------------------
        .byte   W06
@ 332   ----------------------------------------
        .byte   W06
@ 333   ----------------------------------------
        .byte   W06
@ 334   ----------------------------------------
        .byte   W06
@ 335   ----------------------------------------
        .byte   W06
@ 336   ----------------------------------------
        .byte   W06
@ 337   ----------------------------------------
        .byte   W06
@ 338   ----------------------------------------
        .byte   W06
@ 339   ----------------------------------------
        .byte   W06
@ 340   ----------------------------------------
        .byte   W06
@ 341   ----------------------------------------
        .byte   W06
@ 342   ----------------------------------------
        .byte   W06
@ 343   ----------------------------------------
        .byte   W06
@ 344   ----------------------------------------
        .byte   W06
@ 345   ----------------------------------------
        .byte   W06
@ 346   ----------------------------------------
        .byte   W06
@ 347   ----------------------------------------
        .byte   W06
@ 348   ----------------------------------------
        .byte   W06
@ 349   ----------------------------------------
        .byte   W06
@ 350   ----------------------------------------
        .byte   W06
@ 351   ----------------------------------------
        .byte   W06
@ 352   ----------------------------------------
        .byte   W06
@ 353   ----------------------------------------
        .byte   W06
@ 354   ----------------------------------------
        .byte   W06
@ 355   ----------------------------------------
        .byte   W06
@ 356   ----------------------------------------
        .byte   W06
@ 357   ----------------------------------------
        .byte   W06
@ 358   ----------------------------------------
        .byte   W06
@ 359   ----------------------------------------
        .byte   W06
@ 360   ----------------------------------------
        .byte   W06
@ 361   ----------------------------------------
        .byte   W06
@ 362   ----------------------------------------
        .byte   W06
@ 363   ----------------------------------------
        .byte   W06
@ 364   ----------------------------------------
        .byte   W06
@ 365   ----------------------------------------
        .byte   W06
@ 366   ----------------------------------------
        .byte   W06
@ 367   ----------------------------------------
        .byte   W06
@ 368   ----------------------------------------
        .byte   W06
@ 369   ----------------------------------------
        .byte   W06
@ 370   ----------------------------------------
        .byte   W06
@ 371   ----------------------------------------
        .byte   W06
@ 372   ----------------------------------------
        .byte   W06
@ 373   ----------------------------------------
        .byte   W06
@ 374   ----------------------------------------
        .byte   W06
@ 375   ----------------------------------------
        .byte   W06
@ 376   ----------------------------------------
        .byte   W06
@ 377   ----------------------------------------
        .byte   W06
@ 378   ----------------------------------------
        .byte   W06
@ 379   ----------------------------------------
        .byte   W06
@ 380   ----------------------------------------
        .byte   W06
@ 381   ----------------------------------------
        .byte   W06
@ 382   ----------------------------------------
        .byte   W06
@ 383   ----------------------------------------
        .byte   W06
@ 384   ----------------------------------------
        .byte   W06
@ 385   ----------------------------------------
        .byte   W06
@ 386   ----------------------------------------
        .byte   W06
@ 387   ----------------------------------------
        .byte   W06
@ 388   ----------------------------------------
        .byte   W06
@ 389   ----------------------------------------
        .byte   W06
@ 390   ----------------------------------------
        .byte   W06
@ 391   ----------------------------------------
        .byte   W06
@ 392   ----------------------------------------
        .byte   W06
@ 393   ----------------------------------------
        .byte   W06
@ 394   ----------------------------------------
        .byte   W06
@ 395   ----------------------------------------
        .byte   W06
@ 396   ----------------------------------------
        .byte   W06
@ 397   ----------------------------------------
        .byte   W06
@ 398   ----------------------------------------
        .byte   W06
@ 399   ----------------------------------------
        .byte   W06
@ 400   ----------------------------------------
        .byte   W06
@ 401   ----------------------------------------
        .byte   W06
@ 402   ----------------------------------------
        .byte   W06
@ 403   ----------------------------------------
        .byte   W06
@ 404   ----------------------------------------
        .byte   W06
@ 405   ----------------------------------------
        .byte   W06
@ 406   ----------------------------------------
        .byte   W06
@ 407   ----------------------------------------
        .byte   W06
@ 408   ----------------------------------------
        .byte   W06
@ 409   ----------------------------------------
        .byte   W06
@ 410   ----------------------------------------
        .byte   W06
@ 411   ----------------------------------------
        .byte           N11   , Gn4 , v093
        .byte   W06
@ 412   ----------------------------------------
        .byte   W06
@ 413   ----------------------------------------
        .byte                   Fs4
        .byte   W06
@ 414   ----------------------------------------
        .byte   W06
@ 415   ----------------------------------------
        .byte                   Gn4
        .byte   W06
@ 416   ----------------------------------------
        .byte   W06
@ 417   ----------------------------------------
        .byte           N56   , Bn3 , v093 , gtp3
        .byte   W06
@ 418   ----------------------------------------
        .byte   W06
@ 419   ----------------------------------------
        .byte   W06
@ 420   ----------------------------------------
        .byte   W06
@ 421   ----------------------------------------
        .byte   W06
@ 422   ----------------------------------------
        .byte   W06
@ 423   ----------------------------------------
        .byte   W06
@ 424   ----------------------------------------
        .byte   W06
@ 425   ----------------------------------------
        .byte   W06
@ 426   ----------------------------------------
        .byte   W06
@ 427   ----------------------------------------
        .byte           N17   , Gn4
        .byte   W06
@ 428   ----------------------------------------
        .byte   W06
@ 429   ----------------------------------------
        .byte   W06
@ 430   ----------------------------------------
        .byte                   An4
        .byte   W06
@ 431   ----------------------------------------
        .byte   W06
@ 432   ----------------------------------------
        .byte   W06
@ 433   ----------------------------------------
        .byte           N11   , Bn4
        .byte   W06
@ 434   ----------------------------------------
        .byte   W06
@ 435   ----------------------------------------
        .byte           N17
        .byte   W06
@ 436   ----------------------------------------
        .byte   W06
@ 437   ----------------------------------------
        .byte   W06
@ 438   ----------------------------------------
        .byte                   An4
        .byte   W06
@ 439   ----------------------------------------
        .byte   W06
@ 440   ----------------------------------------
        .byte   W06
@ 441   ----------------------------------------
        .byte           N11   , Gn4
        .byte   W06
@ 442   ----------------------------------------
        .byte   W06
@ 443   ----------------------------------------
        .byte           N68   , Fs4 , v088 , gtp3
        .byte   W06
@ 444   ----------------------------------------
        .byte   W06
@ 445   ----------------------------------------
        .byte   W06
@ 446   ----------------------------------------
        .byte   W06
@ 447   ----------------------------------------
        .byte   W06
@ 448   ----------------------------------------
        .byte   W06
@ 449   ----------------------------------------
        .byte   W06
@ 450   ----------------------------------------
        .byte   W06
@ 451   ----------------------------------------
        .byte   W06
@ 452   ----------------------------------------
        .byte   W06
@ 453   ----------------------------------------
        .byte   W06
@ 454   ----------------------------------------
        .byte   W06
@ 455   ----------------------------------------
        .byte           N23   , En4 , v083
        .byte   W06
@ 456   ----------------------------------------
        .byte   W06
@ 457   ----------------------------------------
        .byte   W06
@ 458   ----------------------------------------
        .byte   W06
@ 459   ----------------------------------------
        .byte           N44   , Ds4 , v083 , gtp3
        .byte   W06
@ 460   ----------------------------------------
        .byte   W06
@ 461   ----------------------------------------
        .byte   W06
@ 462   ----------------------------------------
        .byte   W06
@ 463   ----------------------------------------
        .byte   W06
@ 464   ----------------------------------------
        .byte   W06
@ 465   ----------------------------------------
        .byte   W06
@ 466   ----------------------------------------
        .byte   W06
@ 467   ----------------------------------------
        .byte           N05   , Bn3
        .byte   W06
@ 468   ----------------------------------------
        .byte                   Ds4
        .byte   W06
@ 469   ----------------------------------------
        .byte                   Fs4 , v088
        .byte   W06
@ 470   ----------------------------------------
        .byte                   Bn4
        .byte   W06
@ 471   ----------------------------------------
        .byte                   Bn4
        .byte   W06
@ 472   ----------------------------------------
        .byte                   Ds5
        .byte   W06
@ 473   ----------------------------------------
        .byte                   Fs5 , v078
        .byte   W06
@ 474   ----------------------------------------
        .byte                   Bn5
        .byte   W06
@ 475   ----------------------------------------
        .byte           N92   , En5 , v068 , gtp3
        .byte   W06
@ 476   ----------------------------------------
        .byte   W06
@ 477   ----------------------------------------
        .byte   W06
@ 478   ----------------------------------------
        .byte   W06
@ 479   ----------------------------------------
        .byte   W06
@ 480   ----------------------------------------
        .byte   W06
@ 481   ----------------------------------------
        .byte   W06
@ 482   ----------------------------------------
        .byte   W06
@ 483   ----------------------------------------
        .byte   W06
@ 484   ----------------------------------------
        .byte   W06
@ 485   ----------------------------------------
        .byte   W06
@ 486   ----------------------------------------
        .byte   W06
@ 487   ----------------------------------------
        .byte   W06
@ 488   ----------------------------------------
        .byte   W06
@ 489   ----------------------------------------
        .byte   W06
@ 490   ----------------------------------------
        .byte   W06
@ 491   ----------------------------------------
        .byte                   Fs5
        .byte   W06
@ 492   ----------------------------------------
        .byte   W06
@ 493   ----------------------------------------
        .byte   W06
@ 494   ----------------------------------------
        .byte   W06
@ 495   ----------------------------------------
        .byte   W06
@ 496   ----------------------------------------
        .byte   W06
@ 497   ----------------------------------------
        .byte   W06
@ 498   ----------------------------------------
        .byte   W06
@ 499   ----------------------------------------
        .byte   W06
@ 500   ----------------------------------------
        .byte   W06
@ 501   ----------------------------------------
        .byte   W06
@ 502   ----------------------------------------
        .byte   W06
@ 503   ----------------------------------------
        .byte   W06
@ 504   ----------------------------------------
        .byte   W06
@ 505   ----------------------------------------
        .byte   W06
@ 506   ----------------------------------------
        .byte   W06
@ 507   ----------------------------------------
        .byte           N42   , Gn5
        .byte   W06
@ 508   ----------------------------------------
        .byte   W06
@ 509   ----------------------------------------
        .byte   W06
@ 510   ----------------------------------------
        .byte   W06
@ 511   ----------------------------------------
        .byte   W06
@ 512   ----------------------------------------
        .byte   W06
@ 513   ----------------------------------------
        .byte   W06
@ 514   ----------------------------------------
        .byte   W06
@ 515   ----------------------------------------
        .byte           N17
        .byte   W06
@ 516   ----------------------------------------
        .byte   W06
@ 517   ----------------------------------------
        .byte   W06
@ 518   ----------------------------------------
        .byte                   An5
        .byte   W06
@ 519   ----------------------------------------
        .byte   W06
@ 520   ----------------------------------------
        .byte   W06
@ 521   ----------------------------------------
        .byte           N11   , Bn5
        .byte   W06
@ 522   ----------------------------------------
        .byte   W06
@ 523   ----------------------------------------
        .byte           N32   , Bn5 , v068 , gtp3
        .byte   W06
@ 524   ----------------------------------------
        .byte   W06
@ 525   ----------------------------------------
        .byte   W06
@ 526   ----------------------------------------
        .byte   W06
@ 527   ----------------------------------------
        .byte   W06
@ 528   ----------------------------------------
        .byte   W06
@ 529   ----------------------------------------
        .byte           N23   , Gn5
        .byte   W06
@ 530   ----------------------------------------
        .byte   W06
@ 531   ----------------------------------------
        .byte   W06
@ 532   ----------------------------------------
        .byte   W06
@ 533   ----------------------------------------
        .byte           N11   , Fs5
        .byte   W06
@ 534   ----------------------------------------
        .byte   W06
@ 535   ----------------------------------------
        .byte           N23   , An5
        .byte   W06
@ 536   ----------------------------------------
        .byte   W06
@ 537   ----------------------------------------
        .byte   W06
@ 538   ----------------------------------------
        .byte   W06
@ 539   ----------------------------------------
        .byte           N96   , Gn5
        .byte           N96   , Gn4 , v078
        .byte   W06
@ 540   ----------------------------------------
        .byte   W06
@ 541   ----------------------------------------
        .byte   W06
@ 542   ----------------------------------------
        .byte   W06
@ 543   ----------------------------------------
        .byte   W06
@ 544   ----------------------------------------
        .byte   W06
@ 545   ----------------------------------------
        .byte   W06
@ 546   ----------------------------------------
        .byte   W06
@ 547   ----------------------------------------
        .byte   W06
@ 548   ----------------------------------------
        .byte   W06
@ 549   ----------------------------------------
        .byte   W06
@ 550   ----------------------------------------
        .byte   W06
@ 551   ----------------------------------------
        .byte   W06
@ 552   ----------------------------------------
        .byte   W06
@ 553   ----------------------------------------
        .byte   W06
@ 554   ----------------------------------------
        .byte   W06
@ 555   ----------------------------------------
        .byte           N48   , Fs4
        .byte   W06
@ 556   ----------------------------------------
        .byte   W06
@ 557   ----------------------------------------
        .byte   W06
@ 558   ----------------------------------------
        .byte   W06
@ 559   ----------------------------------------
        .byte   W06
@ 560   ----------------------------------------
        .byte   W06
@ 561   ----------------------------------------
        .byte   W06
@ 562   ----------------------------------------
        .byte   W06
@ 563   ----------------------------------------
        .byte           N24   , Bn4
        .byte   W06
@ 564   ----------------------------------------
        .byte   W06
@ 565   ----------------------------------------
        .byte   W06
@ 566   ----------------------------------------
        .byte   W06
@ 567   ----------------------------------------
        .byte                   Dn5
        .byte   W06
@ 568   ----------------------------------------
        .byte   W06
@ 569   ----------------------------------------
        .byte   W06
@ 570   ----------------------------------------
        .byte   W06
@ 571   ----------------------------------------
        .byte           N96   , En5
        .byte           N96   , En4
        .byte   W06
@ 572   ----------------------------------------
        .byte   W06
@ 573   ----------------------------------------
        .byte   W06
@ 574   ----------------------------------------
        .byte   W06
@ 575   ----------------------------------------
        .byte   W06
@ 576   ----------------------------------------
        .byte   W06
@ 577   ----------------------------------------
        .byte   W06
@ 578   ----------------------------------------
        .byte   W06
@ 579   ----------------------------------------
        .byte   W06
@ 580   ----------------------------------------
        .byte   W06
@ 581   ----------------------------------------
        .byte   W06
@ 582   ----------------------------------------
        .byte   W06
@ 583   ----------------------------------------
        .byte   W06
@ 584   ----------------------------------------
        .byte   W06
@ 585   ----------------------------------------
        .byte   W06
@ 586   ----------------------------------------
        .byte   W06
@ 587   ----------------------------------------
        .byte   W06
@ 588   ----------------------------------------
        .byte   W06
@ 589   ----------------------------------------
        .byte   W06
@ 590   ----------------------------------------
        .byte   W06
@ 591   ----------------------------------------
        .byte   W06
@ 592   ----------------------------------------
        .byte   W06
@ 593   ----------------------------------------
        .byte   W06
@ 594   ----------------------------------------
        .byte   W06
@ 595   ----------------------------------------
        .byte   W06
@ 596   ----------------------------------------
        .byte   W06
@ 597   ----------------------------------------
        .byte   W06
@ 598   ----------------------------------------
        .byte   W06
@ 599   ----------------------------------------
        .byte   W06
@ 600   ----------------------------------------
        .byte   W06
@ 601   ----------------------------------------
        .byte   W06
@ 602   ----------------------------------------
        .byte   W06
@ 603   ----------------------------------------
        .byte   GOTO
         .word  neverendingdream000_4_LOOP
        .byte   FINE

@****************** Track 5 (Midi-Chn.5) ******************@

neverendingdream000_5:
        .byte   KEYSH , neverendingdream000_key+0
@ 000   ----------------------------------------
        .byte           VOICE , 46
        .byte   W03
        .byte           VOL   , 40
        .byte   W01
        .byte           PAN   , c_v+6
        .byte   W02
@ 001   ----------------------------------------
        .byte   W06
@ 002   ----------------------------------------
        .byte   W06
@ 003   ----------------------------------------
        .byte   W06
@ 004   ----------------------------------------
        .byte   W06
@ 005   ----------------------------------------
        .byte   W06
@ 006   ----------------------------------------
        .byte   W06
@ 007   ----------------------------------------
        .byte   W06
@ 008   ----------------------------------------
        .byte   W06
@ 009   ----------------------------------------
        .byte   W06
@ 010   ----------------------------------------
        .byte   W05
neverendingdream000_5_LOOP:
        .byte   W01
@ 011   ----------------------------------------
neverendingdream000_5_11:
        .byte   W04
        .byte           N06   , En2 , v096
        .byte   W02
        .byte   PEND
@ 012   ----------------------------------------
        .byte   W06
@ 013   ----------------------------------------
neverendingdream000_5_13:
        .byte   W04
        .byte           N06   , Bn2 , v096
        .byte   W02
        .byte   PEND
@ 014   ----------------------------------------
        .byte   W06
@ 015   ----------------------------------------
neverendingdream000_5_15:
        .byte   W04
        .byte           N06   , Fs3 , v096
        .byte   W02
        .byte   PEND
@ 016   ----------------------------------------
        .byte   W06
@ 017   ----------------------------------------
neverendingdream000_5_17:
        .byte   W04
        .byte           N06   , Gn3 , v096
        .byte   W02
        .byte   PEND
@ 018   ----------------------------------------
        .byte   W06
@ 019   ----------------------------------------
        .byte   W06
@ 020   ----------------------------------------
        .byte   W06
@ 021   ----------------------------------------
        .byte   W06
@ 022   ----------------------------------------
        .byte   W06
@ 023   ----------------------------------------
        .byte   W06
@ 024   ----------------------------------------
        .byte   W06
@ 025   ----------------------------------------
        .byte   W06
@ 026   ----------------------------------------
        .byte   W06
@ 027   ----------------------------------------
neverendingdream000_5_27:
        .byte   W04
        .byte           N06   , Dn2 , v096
        .byte   W02
        .byte   PEND
@ 028   ----------------------------------------
        .byte   W06
@ 029   ----------------------------------------
        .byte   PATT
         .word  neverendingdream000_5_13
@ 030   ----------------------------------------
        .byte   W06
@ 031   ----------------------------------------
        .byte   PATT
         .word  neverendingdream000_5_15
@ 032   ----------------------------------------
        .byte   W06
@ 033   ----------------------------------------
neverendingdream000_5_33:
        .byte   W04
        .byte           N06   , Bn3 , v096
        .byte   W02
        .byte   PEND
@ 034   ----------------------------------------
        .byte   W06
@ 035   ----------------------------------------
        .byte   W06
@ 036   ----------------------------------------
        .byte   W06
@ 037   ----------------------------------------
        .byte   W06
@ 038   ----------------------------------------
        .byte   W06
@ 039   ----------------------------------------
        .byte   W06
@ 040   ----------------------------------------
        .byte   W06
@ 041   ----------------------------------------
        .byte   W06
@ 042   ----------------------------------------
        .byte   W06
@ 043   ----------------------------------------
neverendingdream000_5_43:
        .byte   W04
        .byte           N06   , Cn2 , v096
        .byte   W02
        .byte   PEND
@ 044   ----------------------------------------
        .byte   W06
@ 045   ----------------------------------------
neverendingdream000_5_45:
        .byte   W04
        .byte           N06   , Gn2 , v096
        .byte   W02
        .byte   PEND
@ 046   ----------------------------------------
        .byte   W06
@ 047   ----------------------------------------
neverendingdream000_5_47:
        .byte   W04
        .byte           N06   , Dn3 , v096
        .byte   W02
        .byte   PEND
@ 048   ----------------------------------------
        .byte   W06
@ 049   ----------------------------------------
neverendingdream000_5_49:
        .byte   W04
        .byte           N06   , En3 , v096
        .byte   W02
        .byte   PEND
@ 050   ----------------------------------------
        .byte   W06
@ 051   ----------------------------------------
        .byte   W06
@ 052   ----------------------------------------
        .byte   W06
@ 053   ----------------------------------------
        .byte   W06
@ 054   ----------------------------------------
        .byte   W06
@ 055   ----------------------------------------
        .byte   W06
@ 056   ----------------------------------------
        .byte   W06
@ 057   ----------------------------------------
        .byte   W06
@ 058   ----------------------------------------
        .byte   W06
@ 059   ----------------------------------------
neverendingdream000_5_59:
        .byte   W04
        .byte           N06   , Bn1 , v096
        .byte   W02
        .byte   PEND
@ 060   ----------------------------------------
        .byte   W06
@ 061   ----------------------------------------
        .byte   PATT
         .word  neverendingdream000_5_45
@ 062   ----------------------------------------
        .byte   W06
@ 063   ----------------------------------------
        .byte   PATT
         .word  neverendingdream000_5_47
@ 064   ----------------------------------------
        .byte   W06
@ 065   ----------------------------------------
        .byte   PATT
         .word  neverendingdream000_5_17
@ 066   ----------------------------------------
        .byte   W06
@ 067   ----------------------------------------
        .byte   W06
@ 068   ----------------------------------------
        .byte   W06
@ 069   ----------------------------------------
        .byte   W06
@ 070   ----------------------------------------
        .byte   W06
@ 071   ----------------------------------------
        .byte   W06
@ 072   ----------------------------------------
        .byte   W06
@ 073   ----------------------------------------
        .byte   W06
@ 074   ----------------------------------------
        .byte   W06
@ 075   ----------------------------------------
neverendingdream000_5_75:
        .byte   W04
        .byte           N06   , An1 , v096
        .byte   W02
        .byte   PEND
@ 076   ----------------------------------------
        .byte   W06
@ 077   ----------------------------------------
        .byte   PATT
         .word  neverendingdream000_5_11
@ 078   ----------------------------------------
        .byte   W06
@ 079   ----------------------------------------
neverendingdream000_5_79:
        .byte   W04
        .byte           N06   , Cn3 , v096
        .byte   W02
        .byte   PEND
@ 080   ----------------------------------------
        .byte   W06
@ 081   ----------------------------------------
        .byte   PATT
         .word  neverendingdream000_5_17
@ 082   ----------------------------------------
        .byte   W06
@ 083   ----------------------------------------
        .byte   W06
@ 084   ----------------------------------------
        .byte   W06
@ 085   ----------------------------------------
        .byte   W06
@ 086   ----------------------------------------
        .byte   W06
@ 087   ----------------------------------------
        .byte   W06
@ 088   ----------------------------------------
        .byte   W06
@ 089   ----------------------------------------
        .byte   W06
@ 090   ----------------------------------------
        .byte   W06
@ 091   ----------------------------------------
        .byte   PATT
         .word  neverendingdream000_5_59
@ 092   ----------------------------------------
        .byte   W06
@ 093   ----------------------------------------
        .byte   PATT
         .word  neverendingdream000_5_45
@ 094   ----------------------------------------
        .byte   W06
@ 095   ----------------------------------------
        .byte   PATT
         .word  neverendingdream000_5_47
@ 096   ----------------------------------------
        .byte   W06
@ 097   ----------------------------------------
        .byte   PATT
         .word  neverendingdream000_5_17
@ 098   ----------------------------------------
        .byte   W06
@ 099   ----------------------------------------
        .byte   W06
@ 100   ----------------------------------------
        .byte   W06
@ 101   ----------------------------------------
        .byte   W06
@ 102   ----------------------------------------
        .byte   W06
@ 103   ----------------------------------------
        .byte   W06
@ 104   ----------------------------------------
        .byte   W06
@ 105   ----------------------------------------
        .byte   W06
@ 106   ----------------------------------------
        .byte   W06
@ 107   ----------------------------------------
        .byte   PATT
         .word  neverendingdream000_5_43
@ 108   ----------------------------------------
        .byte   W06
@ 109   ----------------------------------------
        .byte   PATT
         .word  neverendingdream000_5_45
@ 110   ----------------------------------------
        .byte   W06
@ 111   ----------------------------------------
        .byte   PATT
         .word  neverendingdream000_5_47
@ 112   ----------------------------------------
        .byte   W06
@ 113   ----------------------------------------
        .byte   PATT
         .word  neverendingdream000_5_49
@ 114   ----------------------------------------
        .byte   W06
@ 115   ----------------------------------------
        .byte   W06
@ 116   ----------------------------------------
        .byte   W06
@ 117   ----------------------------------------
        .byte   W06
@ 118   ----------------------------------------
        .byte   W06
@ 119   ----------------------------------------
        .byte   W06
@ 120   ----------------------------------------
        .byte   W06
@ 121   ----------------------------------------
        .byte   W06
@ 122   ----------------------------------------
        .byte   W06
@ 123   ----------------------------------------
        .byte   PATT
         .word  neverendingdream000_5_27
@ 124   ----------------------------------------
        .byte   W06
@ 125   ----------------------------------------
neverendingdream000_5_125:
        .byte   W04
        .byte           N06   , An2 , v096
        .byte   W02
        .byte   PEND
@ 126   ----------------------------------------
        .byte   W06
@ 127   ----------------------------------------
        .byte   PATT
         .word  neverendingdream000_5_49
@ 128   ----------------------------------------
        .byte   W06
@ 129   ----------------------------------------
        .byte   PATT
         .word  neverendingdream000_5_15
@ 130   ----------------------------------------
        .byte   W06
@ 131   ----------------------------------------
        .byte   W06
@ 132   ----------------------------------------
        .byte   W06
@ 133   ----------------------------------------
        .byte   W06
@ 134   ----------------------------------------
        .byte   W06
@ 135   ----------------------------------------
        .byte   W06
@ 136   ----------------------------------------
        .byte   W06
@ 137   ----------------------------------------
        .byte   W06
@ 138   ----------------------------------------
        .byte   W06
@ 139   ----------------------------------------
        .byte   PATT
         .word  neverendingdream000_5_11
@ 140   ----------------------------------------
        .byte   W06
@ 141   ----------------------------------------
        .byte   PATT
         .word  neverendingdream000_5_13
@ 142   ----------------------------------------
        .byte   W06
@ 143   ----------------------------------------
        .byte   PATT
         .word  neverendingdream000_5_15
@ 144   ----------------------------------------
        .byte   W06
@ 145   ----------------------------------------
        .byte   PATT
         .word  neverendingdream000_5_17
@ 146   ----------------------------------------
        .byte   W06
@ 147   ----------------------------------------
        .byte   W06
@ 148   ----------------------------------------
        .byte   W06
@ 149   ----------------------------------------
        .byte   W06
@ 150   ----------------------------------------
        .byte   W06
@ 151   ----------------------------------------
        .byte   W06
@ 152   ----------------------------------------
        .byte   W06
@ 153   ----------------------------------------
        .byte   W06
@ 154   ----------------------------------------
        .byte   W06
@ 155   ----------------------------------------
        .byte   PATT
         .word  neverendingdream000_5_27
@ 156   ----------------------------------------
        .byte   W06
@ 157   ----------------------------------------
        .byte   PATT
         .word  neverendingdream000_5_13
@ 158   ----------------------------------------
        .byte   W06
@ 159   ----------------------------------------
        .byte   PATT
         .word  neverendingdream000_5_15
@ 160   ----------------------------------------
        .byte   W06
@ 161   ----------------------------------------
        .byte   PATT
         .word  neverendingdream000_5_33
@ 162   ----------------------------------------
        .byte   W06
@ 163   ----------------------------------------
        .byte   W06
@ 164   ----------------------------------------
        .byte   W06
@ 165   ----------------------------------------
        .byte   W06
@ 166   ----------------------------------------
        .byte   W06
@ 167   ----------------------------------------
        .byte   W06
@ 168   ----------------------------------------
        .byte   W06
@ 169   ----------------------------------------
        .byte   W06
@ 170   ----------------------------------------
        .byte   W06
@ 171   ----------------------------------------
        .byte   PATT
         .word  neverendingdream000_5_43
@ 172   ----------------------------------------
        .byte   W06
@ 173   ----------------------------------------
        .byte   PATT
         .word  neverendingdream000_5_45
@ 174   ----------------------------------------
        .byte   W06
@ 175   ----------------------------------------
        .byte   PATT
         .word  neverendingdream000_5_47
@ 176   ----------------------------------------
        .byte   W06
@ 177   ----------------------------------------
        .byte   PATT
         .word  neverendingdream000_5_49
@ 178   ----------------------------------------
        .byte   W06
@ 179   ----------------------------------------
        .byte   W06
@ 180   ----------------------------------------
        .byte   W06
@ 181   ----------------------------------------
        .byte   W06
@ 182   ----------------------------------------
        .byte   W06
@ 183   ----------------------------------------
        .byte   W06
@ 184   ----------------------------------------
        .byte   W06
@ 185   ----------------------------------------
        .byte   W06
@ 186   ----------------------------------------
        .byte   W06
@ 187   ----------------------------------------
        .byte   PATT
         .word  neverendingdream000_5_59
@ 188   ----------------------------------------
        .byte   W06
@ 189   ----------------------------------------
        .byte   PATT
         .word  neverendingdream000_5_45
@ 190   ----------------------------------------
        .byte   W06
@ 191   ----------------------------------------
        .byte   PATT
         .word  neverendingdream000_5_47
@ 192   ----------------------------------------
        .byte   W06
@ 193   ----------------------------------------
        .byte   PATT
         .word  neverendingdream000_5_17
@ 194   ----------------------------------------
        .byte   W06
@ 195   ----------------------------------------
        .byte   W06
@ 196   ----------------------------------------
        .byte   W06
@ 197   ----------------------------------------
        .byte   W06
@ 198   ----------------------------------------
        .byte   W06
@ 199   ----------------------------------------
        .byte   W06
@ 200   ----------------------------------------
        .byte   W06
@ 201   ----------------------------------------
        .byte   W06
@ 202   ----------------------------------------
        .byte   W06
@ 203   ----------------------------------------
        .byte   PATT
         .word  neverendingdream000_5_75
@ 204   ----------------------------------------
        .byte   W06
@ 205   ----------------------------------------
        .byte   PATT
         .word  neverendingdream000_5_11
@ 206   ----------------------------------------
        .byte   W06
@ 207   ----------------------------------------
        .byte   PATT
         .word  neverendingdream000_5_79
@ 208   ----------------------------------------
        .byte   W06
@ 209   ----------------------------------------
        .byte   PATT
         .word  neverendingdream000_5_17
@ 210   ----------------------------------------
        .byte   W06
@ 211   ----------------------------------------
        .byte   W06
@ 212   ----------------------------------------
        .byte   W06
@ 213   ----------------------------------------
        .byte   W06
@ 214   ----------------------------------------
        .byte   W06
@ 215   ----------------------------------------
        .byte   W06
@ 216   ----------------------------------------
        .byte   W06
@ 217   ----------------------------------------
        .byte   W06
@ 218   ----------------------------------------
        .byte   W06
@ 219   ----------------------------------------
        .byte   PATT
         .word  neverendingdream000_5_59
@ 220   ----------------------------------------
        .byte   W06
@ 221   ----------------------------------------
        .byte   PATT
         .word  neverendingdream000_5_45
@ 222   ----------------------------------------
        .byte   W06
@ 223   ----------------------------------------
        .byte   PATT
         .word  neverendingdream000_5_47
@ 224   ----------------------------------------
        .byte   W06
@ 225   ----------------------------------------
        .byte   PATT
         .word  neverendingdream000_5_17
@ 226   ----------------------------------------
        .byte   W06
@ 227   ----------------------------------------
        .byte   W06
@ 228   ----------------------------------------
        .byte   W06
@ 229   ----------------------------------------
        .byte   W06
@ 230   ----------------------------------------
        .byte   W06
@ 231   ----------------------------------------
        .byte   W06
@ 232   ----------------------------------------
        .byte   W06
@ 233   ----------------------------------------
        .byte   W06
@ 234   ----------------------------------------
        .byte   W06
@ 235   ----------------------------------------
        .byte   PATT
         .word  neverendingdream000_5_43
@ 236   ----------------------------------------
        .byte   W06
@ 237   ----------------------------------------
        .byte   PATT
         .word  neverendingdream000_5_45
@ 238   ----------------------------------------
        .byte   W06
@ 239   ----------------------------------------
        .byte   PATT
         .word  neverendingdream000_5_47
@ 240   ----------------------------------------
        .byte   W06
@ 241   ----------------------------------------
        .byte   PATT
         .word  neverendingdream000_5_49
@ 242   ----------------------------------------
        .byte   W06
@ 243   ----------------------------------------
        .byte   W06
@ 244   ----------------------------------------
        .byte   W06
@ 245   ----------------------------------------
        .byte   W06
@ 246   ----------------------------------------
        .byte   W06
@ 247   ----------------------------------------
        .byte   W06
@ 248   ----------------------------------------
        .byte   W06
@ 249   ----------------------------------------
        .byte   W06
@ 250   ----------------------------------------
        .byte   W06
@ 251   ----------------------------------------
        .byte   PATT
         .word  neverendingdream000_5_27
@ 252   ----------------------------------------
        .byte   W06
@ 253   ----------------------------------------
        .byte   PATT
         .word  neverendingdream000_5_125
@ 254   ----------------------------------------
        .byte   W06
@ 255   ----------------------------------------
        .byte   PATT
         .word  neverendingdream000_5_49
@ 256   ----------------------------------------
        .byte   W06
@ 257   ----------------------------------------
        .byte   PATT
         .word  neverendingdream000_5_15
@ 258   ----------------------------------------
        .byte   W06
@ 259   ----------------------------------------
        .byte   W06
@ 260   ----------------------------------------
        .byte   W06
@ 261   ----------------------------------------
        .byte   W06
@ 262   ----------------------------------------
        .byte   W06
@ 263   ----------------------------------------
        .byte   W06
@ 264   ----------------------------------------
        .byte   W06
@ 265   ----------------------------------------
        .byte   W06
@ 266   ----------------------------------------
        .byte   W06
@ 267   ----------------------------------------
        .byte   W06
@ 268   ----------------------------------------
        .byte   W06
@ 269   ----------------------------------------
        .byte   W06
@ 270   ----------------------------------------
        .byte   W06
@ 271   ----------------------------------------
        .byte   W06
@ 272   ----------------------------------------
        .byte   W06
@ 273   ----------------------------------------
        .byte   W06
@ 274   ----------------------------------------
        .byte   W06
@ 275   ----------------------------------------
        .byte   W06
@ 276   ----------------------------------------
        .byte   W06
@ 277   ----------------------------------------
        .byte   W06
@ 278   ----------------------------------------
        .byte   W06
@ 279   ----------------------------------------
        .byte   W06
@ 280   ----------------------------------------
        .byte   W06
@ 281   ----------------------------------------
        .byte   W06
@ 282   ----------------------------------------
        .byte   W06
@ 283   ----------------------------------------
neverendingdream000_5_283:
        .byte   W04
        .byte           N18   , Gn1 , v101
        .byte   W02
        .byte   PEND
@ 284   ----------------------------------------
        .byte   W06
@ 285   ----------------------------------------
neverendingdream000_5_285:
        .byte   W04
        .byte           N12   , Dn2 , v091
        .byte   W02
        .byte   PEND
@ 286   ----------------------------------------
        .byte   W06
@ 287   ----------------------------------------
neverendingdream000_5_287:
        .byte   W04
        .byte           N12   , An2 , v091
        .byte   W02
        .byte   PEND
@ 288   ----------------------------------------
        .byte   W06
@ 289   ----------------------------------------
neverendingdream000_5_289:
        .byte   W04
        .byte           N12   , Bn2 , v091
        .byte   W02
        .byte   PEND
@ 290   ----------------------------------------
        .byte   W06
@ 291   ----------------------------------------
neverendingdream000_5_291:
        .byte   W04
        .byte           N12   , Dn3 , v091
        .byte   W02
        .byte   PEND
@ 292   ----------------------------------------
        .byte   W06
@ 293   ----------------------------------------
neverendingdream000_5_293:
        .byte   W04
        .byte           N12   , Gn3 , v091
        .byte   W02
        .byte   PEND
@ 294   ----------------------------------------
        .byte   W06
@ 295   ----------------------------------------
neverendingdream000_5_295:
        .byte   W04
        .byte           N12   , An3 , v091
        .byte   W02
        .byte   PEND
@ 296   ----------------------------------------
        .byte   W06
@ 297   ----------------------------------------
neverendingdream000_5_297:
        .byte   W04
        .byte           N12   , Bn3 , v091
        .byte   W02
        .byte   PEND
@ 298   ----------------------------------------
        .byte   W06
@ 299   ----------------------------------------
        .byte   PATT
         .word  neverendingdream000_5_283
@ 300   ----------------------------------------
        .byte   W06
@ 301   ----------------------------------------
        .byte   PATT
         .word  neverendingdream000_5_285
@ 302   ----------------------------------------
        .byte   W06
@ 303   ----------------------------------------
        .byte   PATT
         .word  neverendingdream000_5_287
@ 304   ----------------------------------------
        .byte   W06
@ 305   ----------------------------------------
        .byte   PATT
         .word  neverendingdream000_5_289
@ 306   ----------------------------------------
        .byte   W06
@ 307   ----------------------------------------
        .byte   PATT
         .word  neverendingdream000_5_291
@ 308   ----------------------------------------
        .byte   W06
@ 309   ----------------------------------------
        .byte   PATT
         .word  neverendingdream000_5_293
@ 310   ----------------------------------------
        .byte   W06
@ 311   ----------------------------------------
        .byte   PATT
         .word  neverendingdream000_5_295
@ 312   ----------------------------------------
        .byte   W06
@ 313   ----------------------------------------
        .byte   PATT
         .word  neverendingdream000_5_297
@ 314   ----------------------------------------
        .byte   W06
@ 315   ----------------------------------------
neverendingdream000_5_315:
        .byte   W04
        .byte           N18   , Fs1 , v101
        .byte   W02
        .byte   PEND
@ 316   ----------------------------------------
        .byte   W06
@ 317   ----------------------------------------
neverendingdream000_5_317:
        .byte   W04
        .byte           N12   , En2 , v091
        .byte   W02
        .byte   PEND
@ 318   ----------------------------------------
        .byte   W06
@ 319   ----------------------------------------
neverendingdream000_5_319:
        .byte   W04
        .byte           N12   , Fs2 , v091
        .byte   W02
        .byte   PEND
@ 320   ----------------------------------------
        .byte   W06
@ 321   ----------------------------------------
        .byte   PATT
         .word  neverendingdream000_5_287
@ 322   ----------------------------------------
        .byte   W06
@ 323   ----------------------------------------
        .byte   PATT
         .word  neverendingdream000_5_289
@ 324   ----------------------------------------
        .byte   W06
@ 325   ----------------------------------------
neverendingdream000_5_325:
        .byte   W04
        .byte           N12   , En3 , v091
        .byte   W02
        .byte   PEND
@ 326   ----------------------------------------
        .byte   W06
@ 327   ----------------------------------------
neverendingdream000_5_327:
        .byte   W04
        .byte           N12   , Fs3 , v091
        .byte   W02
        .byte   PEND
@ 328   ----------------------------------------
        .byte   W06
@ 329   ----------------------------------------
        .byte   PATT
         .word  neverendingdream000_5_295
@ 330   ----------------------------------------
        .byte   W06
@ 331   ----------------------------------------
neverendingdream000_5_331:
        .byte   W04
        .byte           N18   , Bn1 , v101
        .byte   W02
        .byte   PEND
@ 332   ----------------------------------------
        .byte   W06
@ 333   ----------------------------------------
        .byte   PATT
         .word  neverendingdream000_5_319
@ 334   ----------------------------------------
        .byte   W06
@ 335   ----------------------------------------
        .byte   PATT
         .word  neverendingdream000_5_289
@ 336   ----------------------------------------
        .byte   W06
@ 337   ----------------------------------------
neverendingdream000_5_337:
        .byte   W04
        .byte           N12   , Cs3 , v091
        .byte   W02
        .byte   PEND
@ 338   ----------------------------------------
        .byte   W06
@ 339   ----------------------------------------
neverendingdream000_5_339:
        .byte   W04
        .byte           N12   , Ds3 , v091
        .byte   W02
        .byte   PEND
@ 340   ----------------------------------------
        .byte   W06
@ 341   ----------------------------------------
        .byte   PATT
         .word  neverendingdream000_5_327
@ 342   ----------------------------------------
        .byte   W06
@ 343   ----------------------------------------
        .byte   PATT
         .word  neverendingdream000_5_295
@ 344   ----------------------------------------
        .byte   W06
@ 345   ----------------------------------------
        .byte   PATT
         .word  neverendingdream000_5_297
@ 346   ----------------------------------------
        .byte   W06
@ 347   ----------------------------------------
neverendingdream000_5_347:
        .byte   W04
        .byte           N18   , En1 , v101
        .byte   W02
        .byte   PEND
@ 348   ----------------------------------------
        .byte   W06
@ 349   ----------------------------------------
neverendingdream000_5_349:
        .byte   W04
        .byte           N12   , Bn1 , v091
        .byte   W02
        .byte   PEND
@ 350   ----------------------------------------
        .byte   W06
@ 351   ----------------------------------------
        .byte   PATT
         .word  neverendingdream000_5_319
@ 352   ----------------------------------------
        .byte   W06
@ 353   ----------------------------------------
neverendingdream000_5_353:
        .byte   W04
        .byte           N12   , Gn2 , v091
        .byte   W02
        .byte   PEND
@ 354   ----------------------------------------
        .byte   W06
@ 355   ----------------------------------------
        .byte   PATT
         .word  neverendingdream000_5_289
@ 356   ----------------------------------------
        .byte   W06
@ 357   ----------------------------------------
        .byte   PATT
         .word  neverendingdream000_5_325
@ 358   ----------------------------------------
        .byte   W06
@ 359   ----------------------------------------
        .byte   PATT
         .word  neverendingdream000_5_327
@ 360   ----------------------------------------
        .byte   W06
@ 361   ----------------------------------------
        .byte   PATT
         .word  neverendingdream000_5_293
@ 362   ----------------------------------------
        .byte   W06
@ 363   ----------------------------------------
neverendingdream000_5_363:
        .byte   W04
        .byte           N18   , Dn1 , v101
        .byte   W02
        .byte   PEND
@ 364   ----------------------------------------
        .byte   W06
@ 365   ----------------------------------------
        .byte   PATT
         .word  neverendingdream000_5_349
@ 366   ----------------------------------------
        .byte   W06
@ 367   ----------------------------------------
        .byte   PATT
         .word  neverendingdream000_5_317
@ 368   ----------------------------------------
        .byte   W06
@ 369   ----------------------------------------
        .byte   PATT
         .word  neverendingdream000_5_319
@ 370   ----------------------------------------
        .byte   W06
@ 371   ----------------------------------------
        .byte   PATT
         .word  neverendingdream000_5_289
@ 372   ----------------------------------------
        .byte   W06
@ 373   ----------------------------------------
        .byte   PATT
         .word  neverendingdream000_5_325
@ 374   ----------------------------------------
        .byte   W06
@ 375   ----------------------------------------
        .byte   PATT
         .word  neverendingdream000_5_327
@ 376   ----------------------------------------
        .byte   W06
@ 377   ----------------------------------------
        .byte   PATT
         .word  neverendingdream000_5_293
@ 378   ----------------------------------------
        .byte   W06
@ 379   ----------------------------------------
neverendingdream000_5_379:
        .byte   W04
        .byte           N18   , Cn1 , v101
        .byte   W02
        .byte   PEND
@ 380   ----------------------------------------
        .byte   W06
@ 381   ----------------------------------------
neverendingdream000_5_381:
        .byte   W04
        .byte           N12   , Gn1 , v091
        .byte   W02
        .byte   PEND
@ 382   ----------------------------------------
        .byte   W06
@ 383   ----------------------------------------
        .byte   PATT
         .word  neverendingdream000_5_285
@ 384   ----------------------------------------
        .byte   W06
@ 385   ----------------------------------------
        .byte   PATT
         .word  neverendingdream000_5_317
@ 386   ----------------------------------------
        .byte   W06
@ 387   ----------------------------------------
        .byte   PATT
         .word  neverendingdream000_5_353
@ 388   ----------------------------------------
        .byte   W06
@ 389   ----------------------------------------
neverendingdream000_5_389:
        .byte   W04
        .byte           N12   , Cn3 , v091
        .byte   W02
        .byte   PEND
@ 390   ----------------------------------------
        .byte   W06
@ 391   ----------------------------------------
        .byte   PATT
         .word  neverendingdream000_5_291
@ 392   ----------------------------------------
        .byte   W06
@ 393   ----------------------------------------
        .byte   PATT
         .word  neverendingdream000_5_325
@ 394   ----------------------------------------
        .byte   W06
@ 395   ----------------------------------------
        .byte   PATT
         .word  neverendingdream000_5_363
@ 396   ----------------------------------------
        .byte   W06
@ 397   ----------------------------------------
        .byte   W04
        .byte           N12   , An1 , v091
        .byte   W02
@ 398   ----------------------------------------
        .byte   W06
@ 399   ----------------------------------------
        .byte   PATT
         .word  neverendingdream000_5_317
@ 400   ----------------------------------------
        .byte   W06
@ 401   ----------------------------------------
        .byte   PATT
         .word  neverendingdream000_5_319
@ 402   ----------------------------------------
        .byte   W06
@ 403   ----------------------------------------
        .byte   PATT
         .word  neverendingdream000_5_287
@ 404   ----------------------------------------
        .byte   W06
@ 405   ----------------------------------------
        .byte   PATT
         .word  neverendingdream000_5_291
@ 406   ----------------------------------------
        .byte   W06
@ 407   ----------------------------------------
        .byte   PATT
         .word  neverendingdream000_5_325
@ 408   ----------------------------------------
        .byte   W06
@ 409   ----------------------------------------
        .byte   PATT
         .word  neverendingdream000_5_327
@ 410   ----------------------------------------
        .byte   W06
@ 411   ----------------------------------------
        .byte   PATT
         .word  neverendingdream000_5_283
@ 412   ----------------------------------------
        .byte   W06
@ 413   ----------------------------------------
        .byte   PATT
         .word  neverendingdream000_5_285
@ 414   ----------------------------------------
        .byte   W06
@ 415   ----------------------------------------
        .byte   PATT
         .word  neverendingdream000_5_287
@ 416   ----------------------------------------
        .byte   W06
@ 417   ----------------------------------------
        .byte   PATT
         .word  neverendingdream000_5_289
@ 418   ----------------------------------------
        .byte   W06
@ 419   ----------------------------------------
        .byte   PATT
         .word  neverendingdream000_5_291
@ 420   ----------------------------------------
        .byte   W06
@ 421   ----------------------------------------
        .byte   PATT
         .word  neverendingdream000_5_293
@ 422   ----------------------------------------
        .byte   W06
@ 423   ----------------------------------------
        .byte   PATT
         .word  neverendingdream000_5_295
@ 424   ----------------------------------------
        .byte   W06
@ 425   ----------------------------------------
        .byte   PATT
         .word  neverendingdream000_5_297
@ 426   ----------------------------------------
        .byte   W06
@ 427   ----------------------------------------
        .byte   PATT
         .word  neverendingdream000_5_283
@ 428   ----------------------------------------
        .byte   W06
@ 429   ----------------------------------------
        .byte   PATT
         .word  neverendingdream000_5_285
@ 430   ----------------------------------------
        .byte   W06
@ 431   ----------------------------------------
        .byte   PATT
         .word  neverendingdream000_5_287
@ 432   ----------------------------------------
        .byte   W06
@ 433   ----------------------------------------
        .byte   PATT
         .word  neverendingdream000_5_289
@ 434   ----------------------------------------
        .byte   W06
@ 435   ----------------------------------------
        .byte   PATT
         .word  neverendingdream000_5_291
@ 436   ----------------------------------------
        .byte   W06
@ 437   ----------------------------------------
        .byte   PATT
         .word  neverendingdream000_5_293
@ 438   ----------------------------------------
        .byte   W06
@ 439   ----------------------------------------
        .byte   PATT
         .word  neverendingdream000_5_295
@ 440   ----------------------------------------
        .byte   W06
@ 441   ----------------------------------------
        .byte   PATT
         .word  neverendingdream000_5_297
@ 442   ----------------------------------------
        .byte   W06
@ 443   ----------------------------------------
        .byte   PATT
         .word  neverendingdream000_5_315
@ 444   ----------------------------------------
        .byte   W06
@ 445   ----------------------------------------
        .byte   PATT
         .word  neverendingdream000_5_317
@ 446   ----------------------------------------
        .byte   W06
@ 447   ----------------------------------------
        .byte   PATT
         .word  neverendingdream000_5_319
@ 448   ----------------------------------------
        .byte   W06
@ 449   ----------------------------------------
        .byte   PATT
         .word  neverendingdream000_5_287
@ 450   ----------------------------------------
        .byte   W06
@ 451   ----------------------------------------
        .byte   PATT
         .word  neverendingdream000_5_289
@ 452   ----------------------------------------
        .byte   W06
@ 453   ----------------------------------------
        .byte   PATT
         .word  neverendingdream000_5_325
@ 454   ----------------------------------------
        .byte   W06
@ 455   ----------------------------------------
        .byte   PATT
         .word  neverendingdream000_5_327
@ 456   ----------------------------------------
        .byte   W06
@ 457   ----------------------------------------
        .byte   PATT
         .word  neverendingdream000_5_295
@ 458   ----------------------------------------
        .byte   W06
@ 459   ----------------------------------------
        .byte   PATT
         .word  neverendingdream000_5_331
@ 460   ----------------------------------------
        .byte   W06
@ 461   ----------------------------------------
        .byte   PATT
         .word  neverendingdream000_5_319
@ 462   ----------------------------------------
        .byte   W06
@ 463   ----------------------------------------
        .byte   PATT
         .word  neverendingdream000_5_289
@ 464   ----------------------------------------
        .byte   W06
@ 465   ----------------------------------------
        .byte   PATT
         .word  neverendingdream000_5_337
@ 466   ----------------------------------------
        .byte   W06
@ 467   ----------------------------------------
        .byte   PATT
         .word  neverendingdream000_5_339
@ 468   ----------------------------------------
        .byte   W06
@ 469   ----------------------------------------
        .byte   PATT
         .word  neverendingdream000_5_327
@ 470   ----------------------------------------
        .byte   W06
@ 471   ----------------------------------------
        .byte   PATT
         .word  neverendingdream000_5_295
@ 472   ----------------------------------------
        .byte   W06
@ 473   ----------------------------------------
        .byte   PATT
         .word  neverendingdream000_5_297
@ 474   ----------------------------------------
        .byte   W06
@ 475   ----------------------------------------
        .byte   PATT
         .word  neverendingdream000_5_347
@ 476   ----------------------------------------
        .byte   W06
@ 477   ----------------------------------------
        .byte   PATT
         .word  neverendingdream000_5_349
@ 478   ----------------------------------------
        .byte   W06
@ 479   ----------------------------------------
        .byte   PATT
         .word  neverendingdream000_5_317
@ 480   ----------------------------------------
        .byte   W06
@ 481   ----------------------------------------
        .byte   PATT
         .word  neverendingdream000_5_319
@ 482   ----------------------------------------
        .byte   W06
@ 483   ----------------------------------------
        .byte   PATT
         .word  neverendingdream000_5_353
@ 484   ----------------------------------------
        .byte   W06
@ 485   ----------------------------------------
        .byte   PATT
         .word  neverendingdream000_5_289
@ 486   ----------------------------------------
        .byte   W06
@ 487   ----------------------------------------
        .byte   PATT
         .word  neverendingdream000_5_325
@ 488   ----------------------------------------
        .byte   W06
@ 489   ----------------------------------------
        .byte   PATT
         .word  neverendingdream000_5_327
@ 490   ----------------------------------------
        .byte   W06
@ 491   ----------------------------------------
        .byte   PATT
         .word  neverendingdream000_5_363
@ 492   ----------------------------------------
        .byte   W06
@ 493   ----------------------------------------
        .byte   PATT
         .word  neverendingdream000_5_349
@ 494   ----------------------------------------
        .byte   W06
@ 495   ----------------------------------------
        .byte   PATT
         .word  neverendingdream000_5_317
@ 496   ----------------------------------------
        .byte   W06
@ 497   ----------------------------------------
        .byte   PATT
         .word  neverendingdream000_5_319
@ 498   ----------------------------------------
        .byte   W06
@ 499   ----------------------------------------
        .byte   PATT
         .word  neverendingdream000_5_353
@ 500   ----------------------------------------
        .byte   W06
@ 501   ----------------------------------------
        .byte   PATT
         .word  neverendingdream000_5_289
@ 502   ----------------------------------------
        .byte   W06
@ 503   ----------------------------------------
        .byte   PATT
         .word  neverendingdream000_5_325
@ 504   ----------------------------------------
        .byte   W06
@ 505   ----------------------------------------
        .byte   PATT
         .word  neverendingdream000_5_327
@ 506   ----------------------------------------
        .byte   W06
@ 507   ----------------------------------------
        .byte   PATT
         .word  neverendingdream000_5_379
@ 508   ----------------------------------------
        .byte   W06
@ 509   ----------------------------------------
        .byte   PATT
         .word  neverendingdream000_5_381
@ 510   ----------------------------------------
        .byte   W06
@ 511   ----------------------------------------
        .byte   PATT
         .word  neverendingdream000_5_285
@ 512   ----------------------------------------
        .byte   W06
@ 513   ----------------------------------------
        .byte   PATT
         .word  neverendingdream000_5_317
@ 514   ----------------------------------------
        .byte   W06
@ 515   ----------------------------------------
        .byte   PATT
         .word  neverendingdream000_5_353
@ 516   ----------------------------------------
        .byte   W06
@ 517   ----------------------------------------
        .byte   PATT
         .word  neverendingdream000_5_291
@ 518   ----------------------------------------
        .byte   W06
@ 519   ----------------------------------------
        .byte   PATT
         .word  neverendingdream000_5_325
@ 520   ----------------------------------------
        .byte   W06
@ 521   ----------------------------------------
        .byte   PATT
         .word  neverendingdream000_5_293
@ 522   ----------------------------------------
        .byte   W06
@ 523   ----------------------------------------
        .byte   PATT
         .word  neverendingdream000_5_379
@ 524   ----------------------------------------
        .byte   W06
@ 525   ----------------------------------------
        .byte   PATT
         .word  neverendingdream000_5_381
@ 526   ----------------------------------------
        .byte   W06
@ 527   ----------------------------------------
        .byte   W04
        .byte           N12   , Cn2 , v091
        .byte   W02
@ 528   ----------------------------------------
        .byte   W06
@ 529   ----------------------------------------
        .byte   W04
        .byte                   Ds2
        .byte   W02
@ 530   ----------------------------------------
        .byte   W06
@ 531   ----------------------------------------
        .byte   PATT
         .word  neverendingdream000_5_353
@ 532   ----------------------------------------
        .byte   W06
@ 533   ----------------------------------------
        .byte   PATT
         .word  neverendingdream000_5_389
@ 534   ----------------------------------------
        .byte   W06
@ 535   ----------------------------------------
        .byte   PATT
         .word  neverendingdream000_5_339
@ 536   ----------------------------------------
        .byte   W06
@ 537   ----------------------------------------
        .byte   PATT
         .word  neverendingdream000_5_293
@ 538   ----------------------------------------
        .byte   W06
@ 539   ----------------------------------------
        .byte   PATT
         .word  neverendingdream000_5_347
@ 540   ----------------------------------------
        .byte   W06
@ 541   ----------------------------------------
        .byte   PATT
         .word  neverendingdream000_5_349
@ 542   ----------------------------------------
        .byte   W06
@ 543   ----------------------------------------
        .byte   PATT
         .word  neverendingdream000_5_319
@ 544   ----------------------------------------
        .byte   W06
@ 545   ----------------------------------------
        .byte   PATT
         .word  neverendingdream000_5_353
@ 546   ----------------------------------------
        .byte   W06
@ 547   ----------------------------------------
        .byte   PATT
         .word  neverendingdream000_5_289
@ 548   ----------------------------------------
        .byte   W06
@ 549   ----------------------------------------
        .byte   PATT
         .word  neverendingdream000_5_325
@ 550   ----------------------------------------
        .byte   W06
@ 551   ----------------------------------------
        .byte   PATT
         .word  neverendingdream000_5_327
@ 552   ----------------------------------------
        .byte   W06
@ 553   ----------------------------------------
        .byte   PATT
         .word  neverendingdream000_5_293
@ 554   ----------------------------------------
        .byte   W06
@ 555   ----------------------------------------
        .byte   PATT
         .word  neverendingdream000_5_363
@ 556   ----------------------------------------
        .byte   W06
@ 557   ----------------------------------------
        .byte   PATT
         .word  neverendingdream000_5_349
@ 558   ----------------------------------------
        .byte   W06
@ 559   ----------------------------------------
        .byte   PATT
         .word  neverendingdream000_5_319
@ 560   ----------------------------------------
        .byte   W06
@ 561   ----------------------------------------
        .byte   PATT
         .word  neverendingdream000_5_289
@ 562   ----------------------------------------
        .byte   W06
@ 563   ----------------------------------------
        .byte   PATT
         .word  neverendingdream000_5_291
@ 564   ----------------------------------------
        .byte   W06
@ 565   ----------------------------------------
        .byte   PATT
         .word  neverendingdream000_5_327
@ 566   ----------------------------------------
        .byte   W06
@ 567   ----------------------------------------
        .byte   PATT
         .word  neverendingdream000_5_297
@ 568   ----------------------------------------
        .byte   W06
@ 569   ----------------------------------------
        .byte   W04
        .byte           N12   , Dn4 , v091
        .byte   W02
@ 570   ----------------------------------------
        .byte   W06
@ 571   ----------------------------------------
        .byte   PATT
         .word  neverendingdream000_5_379
@ 572   ----------------------------------------
        .byte   W06
@ 573   ----------------------------------------
        .byte   PATT
         .word  neverendingdream000_5_381
@ 574   ----------------------------------------
        .byte   W06
@ 575   ----------------------------------------
        .byte   PATT
         .word  neverendingdream000_5_285
@ 576   ----------------------------------------
        .byte   W06
@ 577   ----------------------------------------
        .byte   PATT
         .word  neverendingdream000_5_317
@ 578   ----------------------------------------
        .byte   W06
@ 579   ----------------------------------------
        .byte   PATT
         .word  neverendingdream000_5_353
@ 580   ----------------------------------------
        .byte   W06
@ 581   ----------------------------------------
        .byte   PATT
         .word  neverendingdream000_5_389
@ 582   ----------------------------------------
        .byte   W06
@ 583   ----------------------------------------
        .byte   PATT
         .word  neverendingdream000_5_291
@ 584   ----------------------------------------
        .byte   W06
@ 585   ----------------------------------------
        .byte   PATT
         .word  neverendingdream000_5_293
@ 586   ----------------------------------------
        .byte   W06
@ 587   ----------------------------------------
        .byte   W04
        .byte           N48   , Cn3 , v091
        .byte           N48   , Cn4
        .byte   W02
@ 588   ----------------------------------------
        .byte   W01
        .byte           N44   , Dn3 , v091 , gtp1
        .byte                   Dn4
        .byte   W03
        .byte           N42   , Gn3
        .byte           N42   , Gn4
        .byte   W02
@ 589   ----------------------------------------
        .byte   W06
@ 590   ----------------------------------------
neverendingdream000_5_590:
        .byte           VOL   , 33
        .byte   W03
        .byte                   29
        .byte   W03
        .byte   PEND
@ 591   ----------------------------------------
neverendingdream000_5_591:
        .byte           VOL   , 25
        .byte   W03
        .byte                   21
        .byte   W03
        .byte   PEND
@ 592   ----------------------------------------
neverendingdream000_5_592:
        .byte           VOL   , 16
        .byte   W03
        .byte                   12
        .byte   W03
        .byte   PEND
@ 593   ----------------------------------------
neverendingdream000_5_593:
        .byte           VOL   , 8
        .byte   W03
        .byte                   4
        .byte   W03
        .byte   PEND
@ 594   ----------------------------------------
        .byte                   0
        .byte   W06
@ 595   ----------------------------------------
        .byte   W06
@ 596   ----------------------------------------
        .byte   W06
@ 597   ----------------------------------------
        .byte   W06
@ 598   ----------------------------------------
        .byte   W06
@ 599   ----------------------------------------
        .byte                   40
        .byte   W06
@ 600   ----------------------------------------
        .byte   W06
@ 601   ----------------------------------------
        .byte   W06
@ 602   ----------------------------------------
        .byte   W06
@ 603   ----------------------------------------
        .byte   GOTO
         .word  neverendingdream000_5_LOOP
        .byte   FINE

@****************** Track 6 (Midi-Chn.6) ******************@

neverendingdream000_6:
        .byte   KEYSH , neverendingdream000_key+0
@ 000   ----------------------------------------
        .byte   W02
        .byte           VOICE , 54
        .byte           VOL   , 40
        .byte   W01
        .byte           PAN   , c_v+11
        .byte   W03
@ 001   ----------------------------------------
        .byte   W06
@ 002   ----------------------------------------
        .byte   W06
@ 003   ----------------------------------------
        .byte   W06
@ 004   ----------------------------------------
        .byte   W06
@ 005   ----------------------------------------
        .byte   W06
@ 006   ----------------------------------------
        .byte   W06
@ 007   ----------------------------------------
        .byte   W06
@ 008   ----------------------------------------
        .byte   W06
@ 009   ----------------------------------------
        .byte   W06
@ 010   ----------------------------------------
        .byte   W05
neverendingdream000_6_LOOP:
        .byte   W01
@ 011   ----------------------------------------
        .byte   W06
@ 012   ----------------------------------------
neverendingdream000_6_12:
        .byte   W03
        .byte           N06   , En2 , v076
        .byte   W03
        .byte   PEND
@ 013   ----------------------------------------
        .byte   W06
@ 014   ----------------------------------------
neverendingdream000_6_14:
        .byte   W03
        .byte           N06   , Bn2 , v076
        .byte   W03
        .byte   PEND
@ 015   ----------------------------------------
        .byte   W06
@ 016   ----------------------------------------
neverendingdream000_6_16:
        .byte   W03
        .byte           N06   , Fs3 , v076
        .byte   W03
        .byte   PEND
@ 017   ----------------------------------------
        .byte   W06
@ 018   ----------------------------------------
neverendingdream000_6_18:
        .byte   W03
        .byte           N06   , Gn3 , v076
        .byte   W03
        .byte   PEND
@ 019   ----------------------------------------
        .byte   W06
@ 020   ----------------------------------------
        .byte   W06
@ 021   ----------------------------------------
        .byte   W06
@ 022   ----------------------------------------
        .byte   W06
@ 023   ----------------------------------------
        .byte   W06
@ 024   ----------------------------------------
        .byte   W06
@ 025   ----------------------------------------
        .byte   W06
@ 026   ----------------------------------------
        .byte   W06
@ 027   ----------------------------------------
        .byte   W06
@ 028   ----------------------------------------
neverendingdream000_6_28:
        .byte   W03
        .byte           N06   , Dn2 , v076
        .byte   W03
        .byte   PEND
@ 029   ----------------------------------------
        .byte   W06
@ 030   ----------------------------------------
        .byte   PATT
         .word  neverendingdream000_6_14
@ 031   ----------------------------------------
        .byte   W06
@ 032   ----------------------------------------
        .byte   PATT
         .word  neverendingdream000_6_16
@ 033   ----------------------------------------
        .byte   W06
@ 034   ----------------------------------------
neverendingdream000_6_34:
        .byte   W03
        .byte           N06   , Bn3 , v076
        .byte   W03
        .byte   PEND
@ 035   ----------------------------------------
        .byte   W06
@ 036   ----------------------------------------
        .byte   W06
@ 037   ----------------------------------------
        .byte   W06
@ 038   ----------------------------------------
        .byte   W06
@ 039   ----------------------------------------
        .byte   W06
@ 040   ----------------------------------------
        .byte   W06
@ 041   ----------------------------------------
        .byte   W06
@ 042   ----------------------------------------
        .byte   W06
@ 043   ----------------------------------------
        .byte   W06
@ 044   ----------------------------------------
neverendingdream000_6_44:
        .byte   W03
        .byte           N06   , Cn2 , v076
        .byte   W03
        .byte   PEND
@ 045   ----------------------------------------
        .byte   W06
@ 046   ----------------------------------------
neverendingdream000_6_46:
        .byte   W03
        .byte           N06   , Gn2 , v076
        .byte   W03
        .byte   PEND
@ 047   ----------------------------------------
        .byte   W06
@ 048   ----------------------------------------
neverendingdream000_6_48:
        .byte   W03
        .byte           N06   , Dn3 , v076
        .byte   W03
        .byte   PEND
@ 049   ----------------------------------------
        .byte   W06
@ 050   ----------------------------------------
neverendingdream000_6_50:
        .byte   W03
        .byte           N06   , En3 , v076
        .byte   W03
        .byte   PEND
@ 051   ----------------------------------------
        .byte   W06
@ 052   ----------------------------------------
        .byte   W06
@ 053   ----------------------------------------
        .byte   W06
@ 054   ----------------------------------------
        .byte   W06
@ 055   ----------------------------------------
        .byte   W06
@ 056   ----------------------------------------
        .byte   W06
@ 057   ----------------------------------------
        .byte   W06
@ 058   ----------------------------------------
        .byte   W06
@ 059   ----------------------------------------
        .byte   W06
@ 060   ----------------------------------------
neverendingdream000_6_60:
        .byte   W03
        .byte           N06   , Bn1 , v076
        .byte   W03
        .byte   PEND
@ 061   ----------------------------------------
        .byte   W06
@ 062   ----------------------------------------
        .byte   PATT
         .word  neverendingdream000_6_46
@ 063   ----------------------------------------
        .byte   W06
@ 064   ----------------------------------------
        .byte   PATT
         .word  neverendingdream000_6_48
@ 065   ----------------------------------------
        .byte   W06
@ 066   ----------------------------------------
        .byte   PATT
         .word  neverendingdream000_6_18
@ 067   ----------------------------------------
        .byte   W06
@ 068   ----------------------------------------
        .byte   W06
@ 069   ----------------------------------------
        .byte   W06
@ 070   ----------------------------------------
        .byte   W06
@ 071   ----------------------------------------
        .byte   W06
@ 072   ----------------------------------------
        .byte   W06
@ 073   ----------------------------------------
        .byte   W06
@ 074   ----------------------------------------
        .byte   W06
@ 075   ----------------------------------------
        .byte   W06
@ 076   ----------------------------------------
neverendingdream000_6_76:
        .byte   W03
        .byte           N06   , An1 , v076
        .byte   W03
        .byte   PEND
@ 077   ----------------------------------------
        .byte   W06
@ 078   ----------------------------------------
        .byte   PATT
         .word  neverendingdream000_6_12
@ 079   ----------------------------------------
        .byte   W06
@ 080   ----------------------------------------
neverendingdream000_6_80:
        .byte   W03
        .byte           N06   , Cn3 , v076
        .byte   W03
        .byte   PEND
@ 081   ----------------------------------------
        .byte   W06
@ 082   ----------------------------------------
        .byte   PATT
         .word  neverendingdream000_6_18
@ 083   ----------------------------------------
        .byte   W06
@ 084   ----------------------------------------
        .byte   W06
@ 085   ----------------------------------------
        .byte   W06
@ 086   ----------------------------------------
        .byte   W06
@ 087   ----------------------------------------
        .byte   W06
@ 088   ----------------------------------------
        .byte   W06
@ 089   ----------------------------------------
        .byte   W06
@ 090   ----------------------------------------
        .byte   W06
@ 091   ----------------------------------------
        .byte   W06
@ 092   ----------------------------------------
        .byte   PATT
         .word  neverendingdream000_6_60
@ 093   ----------------------------------------
        .byte   W06
@ 094   ----------------------------------------
        .byte   PATT
         .word  neverendingdream000_6_46
@ 095   ----------------------------------------
        .byte   W06
@ 096   ----------------------------------------
        .byte   PATT
         .word  neverendingdream000_6_48
@ 097   ----------------------------------------
        .byte   W06
@ 098   ----------------------------------------
        .byte   PATT
         .word  neverendingdream000_6_18
@ 099   ----------------------------------------
        .byte   W06
@ 100   ----------------------------------------
        .byte   W06
@ 101   ----------------------------------------
        .byte   W06
@ 102   ----------------------------------------
        .byte   W06
@ 103   ----------------------------------------
        .byte   W06
@ 104   ----------------------------------------
        .byte   W06
@ 105   ----------------------------------------
        .byte   W06
@ 106   ----------------------------------------
        .byte   W06
@ 107   ----------------------------------------
        .byte   W06
@ 108   ----------------------------------------
        .byte   PATT
         .word  neverendingdream000_6_44
@ 109   ----------------------------------------
        .byte   W06
@ 110   ----------------------------------------
        .byte   PATT
         .word  neverendingdream000_6_46
@ 111   ----------------------------------------
        .byte   W06
@ 112   ----------------------------------------
        .byte   PATT
         .word  neverendingdream000_6_48
@ 113   ----------------------------------------
        .byte   W06
@ 114   ----------------------------------------
        .byte   PATT
         .word  neverendingdream000_6_50
@ 115   ----------------------------------------
        .byte   W06
@ 116   ----------------------------------------
        .byte   W06
@ 117   ----------------------------------------
        .byte   W06
@ 118   ----------------------------------------
        .byte   W06
@ 119   ----------------------------------------
        .byte   W06
@ 120   ----------------------------------------
        .byte   W06
@ 121   ----------------------------------------
        .byte   W06
@ 122   ----------------------------------------
        .byte   W06
@ 123   ----------------------------------------
        .byte   W06
@ 124   ----------------------------------------
        .byte   PATT
         .word  neverendingdream000_6_28
@ 125   ----------------------------------------
        .byte   W06
@ 126   ----------------------------------------
neverendingdream000_6_126:
        .byte   W03
        .byte           N06   , An2 , v076
        .byte   W03
        .byte   PEND
@ 127   ----------------------------------------
        .byte   W06
@ 128   ----------------------------------------
        .byte   PATT
         .word  neverendingdream000_6_50
@ 129   ----------------------------------------
        .byte   W06
@ 130   ----------------------------------------
        .byte   PATT
         .word  neverendingdream000_6_16
@ 131   ----------------------------------------
        .byte   W06
@ 132   ----------------------------------------
        .byte   W06
@ 133   ----------------------------------------
        .byte   W06
@ 134   ----------------------------------------
        .byte   W06
@ 135   ----------------------------------------
        .byte   W06
@ 136   ----------------------------------------
        .byte   W06
@ 137   ----------------------------------------
        .byte   W06
@ 138   ----------------------------------------
        .byte   W06
@ 139   ----------------------------------------
        .byte   W06
@ 140   ----------------------------------------
        .byte   PATT
         .word  neverendingdream000_6_12
@ 141   ----------------------------------------
        .byte   W06
@ 142   ----------------------------------------
        .byte   PATT
         .word  neverendingdream000_6_14
@ 143   ----------------------------------------
        .byte   W06
@ 144   ----------------------------------------
        .byte   PATT
         .word  neverendingdream000_6_16
@ 145   ----------------------------------------
        .byte   W06
@ 146   ----------------------------------------
        .byte   PATT
         .word  neverendingdream000_6_18
@ 147   ----------------------------------------
        .byte   W06
@ 148   ----------------------------------------
        .byte   W06
@ 149   ----------------------------------------
        .byte   W06
@ 150   ----------------------------------------
        .byte   W06
@ 151   ----------------------------------------
        .byte   W06
@ 152   ----------------------------------------
        .byte   W06
@ 153   ----------------------------------------
        .byte   W06
@ 154   ----------------------------------------
        .byte   W06
@ 155   ----------------------------------------
        .byte   W06
@ 156   ----------------------------------------
        .byte   PATT
         .word  neverendingdream000_6_28
@ 157   ----------------------------------------
        .byte   W06
@ 158   ----------------------------------------
        .byte   PATT
         .word  neverendingdream000_6_14
@ 159   ----------------------------------------
        .byte   W06
@ 160   ----------------------------------------
        .byte   PATT
         .word  neverendingdream000_6_16
@ 161   ----------------------------------------
        .byte   W06
@ 162   ----------------------------------------
        .byte   PATT
         .word  neverendingdream000_6_34
@ 163   ----------------------------------------
        .byte   W06
@ 164   ----------------------------------------
        .byte   W06
@ 165   ----------------------------------------
        .byte   W06
@ 166   ----------------------------------------
        .byte   W06
@ 167   ----------------------------------------
        .byte   W06
@ 168   ----------------------------------------
        .byte   W06
@ 169   ----------------------------------------
        .byte   W06
@ 170   ----------------------------------------
        .byte   W06
@ 171   ----------------------------------------
        .byte   W06
@ 172   ----------------------------------------
        .byte   PATT
         .word  neverendingdream000_6_44
@ 173   ----------------------------------------
        .byte   W06
@ 174   ----------------------------------------
        .byte   PATT
         .word  neverendingdream000_6_46
@ 175   ----------------------------------------
        .byte   W06
@ 176   ----------------------------------------
        .byte   PATT
         .word  neverendingdream000_6_48
@ 177   ----------------------------------------
        .byte   W06
@ 178   ----------------------------------------
        .byte   PATT
         .word  neverendingdream000_6_50
@ 179   ----------------------------------------
        .byte   W06
@ 180   ----------------------------------------
        .byte   W06
@ 181   ----------------------------------------
        .byte   W06
@ 182   ----------------------------------------
        .byte   W06
@ 183   ----------------------------------------
        .byte   W06
@ 184   ----------------------------------------
        .byte   W06
@ 185   ----------------------------------------
        .byte   W06
@ 186   ----------------------------------------
        .byte   W06
@ 187   ----------------------------------------
        .byte   W06
@ 188   ----------------------------------------
        .byte   PATT
         .word  neverendingdream000_6_60
@ 189   ----------------------------------------
        .byte   W06
@ 190   ----------------------------------------
        .byte   PATT
         .word  neverendingdream000_6_46
@ 191   ----------------------------------------
        .byte   W06
@ 192   ----------------------------------------
        .byte   PATT
         .word  neverendingdream000_6_48
@ 193   ----------------------------------------
        .byte   W06
@ 194   ----------------------------------------
        .byte   PATT
         .word  neverendingdream000_6_18
@ 195   ----------------------------------------
        .byte   W06
@ 196   ----------------------------------------
        .byte   W06
@ 197   ----------------------------------------
        .byte   W06
@ 198   ----------------------------------------
        .byte   W06
@ 199   ----------------------------------------
        .byte   W06
@ 200   ----------------------------------------
        .byte   W06
@ 201   ----------------------------------------
        .byte   W06
@ 202   ----------------------------------------
        .byte   W06
@ 203   ----------------------------------------
        .byte   W06
@ 204   ----------------------------------------
        .byte   PATT
         .word  neverendingdream000_6_76
@ 205   ----------------------------------------
        .byte   W06
@ 206   ----------------------------------------
        .byte   PATT
         .word  neverendingdream000_6_12
@ 207   ----------------------------------------
        .byte   W06
@ 208   ----------------------------------------
        .byte   PATT
         .word  neverendingdream000_6_80
@ 209   ----------------------------------------
        .byte   W06
@ 210   ----------------------------------------
        .byte   PATT
         .word  neverendingdream000_6_18
@ 211   ----------------------------------------
        .byte   W06
@ 212   ----------------------------------------
        .byte   W06
@ 213   ----------------------------------------
        .byte   W06
@ 214   ----------------------------------------
        .byte   W06
@ 215   ----------------------------------------
        .byte   W06
@ 216   ----------------------------------------
        .byte   W06
@ 217   ----------------------------------------
        .byte   W06
@ 218   ----------------------------------------
        .byte   W06
@ 219   ----------------------------------------
        .byte   W06
@ 220   ----------------------------------------
        .byte   PATT
         .word  neverendingdream000_6_60
@ 221   ----------------------------------------
        .byte   W06
@ 222   ----------------------------------------
        .byte   PATT
         .word  neverendingdream000_6_46
@ 223   ----------------------------------------
        .byte   W06
@ 224   ----------------------------------------
        .byte   PATT
         .word  neverendingdream000_6_48
@ 225   ----------------------------------------
        .byte   W06
@ 226   ----------------------------------------
        .byte   PATT
         .word  neverendingdream000_6_18
@ 227   ----------------------------------------
        .byte   W06
@ 228   ----------------------------------------
        .byte   W06
@ 229   ----------------------------------------
        .byte   W06
@ 230   ----------------------------------------
        .byte   W06
@ 231   ----------------------------------------
        .byte   W06
@ 232   ----------------------------------------
        .byte   W06
@ 233   ----------------------------------------
        .byte   W06
@ 234   ----------------------------------------
        .byte   W06
@ 235   ----------------------------------------
        .byte   W06
@ 236   ----------------------------------------
        .byte   PATT
         .word  neverendingdream000_6_44
@ 237   ----------------------------------------
        .byte   W06
@ 238   ----------------------------------------
        .byte   PATT
         .word  neverendingdream000_6_46
@ 239   ----------------------------------------
        .byte   W06
@ 240   ----------------------------------------
        .byte   PATT
         .word  neverendingdream000_6_48
@ 241   ----------------------------------------
        .byte   W06
@ 242   ----------------------------------------
        .byte   PATT
         .word  neverendingdream000_6_50
@ 243   ----------------------------------------
        .byte   W06
@ 244   ----------------------------------------
        .byte   W06
@ 245   ----------------------------------------
        .byte   W06
@ 246   ----------------------------------------
        .byte   W06
@ 247   ----------------------------------------
        .byte   W06
@ 248   ----------------------------------------
        .byte   W06
@ 249   ----------------------------------------
        .byte   W06
@ 250   ----------------------------------------
        .byte   W06
@ 251   ----------------------------------------
        .byte   W06
@ 252   ----------------------------------------
        .byte   PATT
         .word  neverendingdream000_6_28
@ 253   ----------------------------------------
        .byte   W06
@ 254   ----------------------------------------
        .byte   PATT
         .word  neverendingdream000_6_126
@ 255   ----------------------------------------
        .byte   W06
@ 256   ----------------------------------------
        .byte   PATT
         .word  neverendingdream000_6_50
@ 257   ----------------------------------------
        .byte   W06
@ 258   ----------------------------------------
        .byte   PATT
         .word  neverendingdream000_6_16
@ 259   ----------------------------------------
        .byte   W06
@ 260   ----------------------------------------
        .byte   W06
@ 261   ----------------------------------------
        .byte   W06
@ 262   ----------------------------------------
        .byte   W06
@ 263   ----------------------------------------
        .byte   W06
@ 264   ----------------------------------------
        .byte   W06
@ 265   ----------------------------------------
        .byte   W06
@ 266   ----------------------------------------
        .byte   W06
@ 267   ----------------------------------------
        .byte   W06
@ 268   ----------------------------------------
        .byte   W06
@ 269   ----------------------------------------
        .byte   W06
@ 270   ----------------------------------------
        .byte   W06
@ 271   ----------------------------------------
        .byte   W06
@ 272   ----------------------------------------
        .byte   W06
@ 273   ----------------------------------------
        .byte   W06
@ 274   ----------------------------------------
        .byte   W06
@ 275   ----------------------------------------
        .byte   W06
@ 276   ----------------------------------------
        .byte   W06
@ 277   ----------------------------------------
        .byte   W06
@ 278   ----------------------------------------
        .byte   W06
@ 279   ----------------------------------------
        .byte   W06
@ 280   ----------------------------------------
        .byte   W06
@ 281   ----------------------------------------
        .byte   W06
@ 282   ----------------------------------------
        .byte   W06
@ 283   ----------------------------------------
        .byte   W06
@ 284   ----------------------------------------
neverendingdream000_6_284:
        .byte   W03
        .byte           N18   , Gn1 , v081
        .byte   W03
        .byte   PEND
@ 285   ----------------------------------------
        .byte   W06
@ 286   ----------------------------------------
neverendingdream000_6_286:
        .byte   W03
        .byte           N12   , Dn2 , v071
        .byte   W03
        .byte   PEND
@ 287   ----------------------------------------
        .byte   W06
@ 288   ----------------------------------------
neverendingdream000_6_288:
        .byte   W03
        .byte           N12   , An2 , v071
        .byte   W03
        .byte   PEND
@ 289   ----------------------------------------
        .byte   W06
@ 290   ----------------------------------------
neverendingdream000_6_290:
        .byte   W03
        .byte           N12   , Bn2 , v071
        .byte   W03
        .byte   PEND
@ 291   ----------------------------------------
        .byte   W06
@ 292   ----------------------------------------
neverendingdream000_6_292:
        .byte   W03
        .byte           N12   , Dn3 , v071
        .byte   W03
        .byte   PEND
@ 293   ----------------------------------------
        .byte   W06
@ 294   ----------------------------------------
neverendingdream000_6_294:
        .byte   W03
        .byte           N12   , Gn3 , v071
        .byte   W03
        .byte   PEND
@ 295   ----------------------------------------
        .byte   W06
@ 296   ----------------------------------------
neverendingdream000_6_296:
        .byte   W03
        .byte           N12   , An3 , v071
        .byte   W03
        .byte   PEND
@ 297   ----------------------------------------
        .byte   W06
@ 298   ----------------------------------------
neverendingdream000_6_298:
        .byte   W03
        .byte           N12   , Bn3 , v071
        .byte   W03
        .byte   PEND
@ 299   ----------------------------------------
        .byte   W06
@ 300   ----------------------------------------
        .byte   PATT
         .word  neverendingdream000_6_284
@ 301   ----------------------------------------
        .byte   W06
@ 302   ----------------------------------------
        .byte   PATT
         .word  neverendingdream000_6_286
@ 303   ----------------------------------------
        .byte   W06
@ 304   ----------------------------------------
        .byte   PATT
         .word  neverendingdream000_6_288
@ 305   ----------------------------------------
        .byte   W06
@ 306   ----------------------------------------
        .byte   PATT
         .word  neverendingdream000_6_290
@ 307   ----------------------------------------
        .byte   W06
@ 308   ----------------------------------------
        .byte   PATT
         .word  neverendingdream000_6_292
@ 309   ----------------------------------------
        .byte   W06
@ 310   ----------------------------------------
        .byte   PATT
         .word  neverendingdream000_6_294
@ 311   ----------------------------------------
        .byte   W06
@ 312   ----------------------------------------
        .byte   PATT
         .word  neverendingdream000_6_296
@ 313   ----------------------------------------
        .byte   W06
@ 314   ----------------------------------------
        .byte   PATT
         .word  neverendingdream000_6_298
@ 315   ----------------------------------------
        .byte   W06
@ 316   ----------------------------------------
neverendingdream000_6_316:
        .byte   W03
        .byte           N18   , Fs1 , v081
        .byte   W03
        .byte   PEND
@ 317   ----------------------------------------
        .byte   W06
@ 318   ----------------------------------------
neverendingdream000_6_318:
        .byte   W03
        .byte           N12   , En2 , v071
        .byte   W03
        .byte   PEND
@ 319   ----------------------------------------
        .byte   W06
@ 320   ----------------------------------------
neverendingdream000_6_320:
        .byte   W03
        .byte           N12   , Fs2 , v071
        .byte   W03
        .byte   PEND
@ 321   ----------------------------------------
        .byte   W06
@ 322   ----------------------------------------
        .byte   PATT
         .word  neverendingdream000_6_288
@ 323   ----------------------------------------
        .byte   W06
@ 324   ----------------------------------------
        .byte   PATT
         .word  neverendingdream000_6_290
@ 325   ----------------------------------------
        .byte   W06
@ 326   ----------------------------------------
neverendingdream000_6_326:
        .byte   W03
        .byte           N12   , En3 , v071
        .byte   W03
        .byte   PEND
@ 327   ----------------------------------------
        .byte   W06
@ 328   ----------------------------------------
neverendingdream000_6_328:
        .byte   W03
        .byte           N12   , Fs3 , v071
        .byte   W03
        .byte   PEND
@ 329   ----------------------------------------
        .byte   W06
@ 330   ----------------------------------------
        .byte   PATT
         .word  neverendingdream000_6_296
@ 331   ----------------------------------------
        .byte   W06
@ 332   ----------------------------------------
neverendingdream000_6_332:
        .byte   W03
        .byte           N18   , Bn1 , v081
        .byte   W03
        .byte   PEND
@ 333   ----------------------------------------
        .byte   W06
@ 334   ----------------------------------------
        .byte   PATT
         .word  neverendingdream000_6_320
@ 335   ----------------------------------------
        .byte   W06
@ 336   ----------------------------------------
        .byte   PATT
         .word  neverendingdream000_6_290
@ 337   ----------------------------------------
        .byte   W06
@ 338   ----------------------------------------
neverendingdream000_6_338:
        .byte   W03
        .byte           N12   , Cs3 , v071
        .byte   W03
        .byte   PEND
@ 339   ----------------------------------------
        .byte   W06
@ 340   ----------------------------------------
neverendingdream000_6_340:
        .byte   W03
        .byte           N12   , Ds3 , v071
        .byte   W03
        .byte   PEND
@ 341   ----------------------------------------
        .byte   W06
@ 342   ----------------------------------------
        .byte   PATT
         .word  neverendingdream000_6_328
@ 343   ----------------------------------------
        .byte   W06
@ 344   ----------------------------------------
        .byte   PATT
         .word  neverendingdream000_6_296
@ 345   ----------------------------------------
        .byte   W06
@ 346   ----------------------------------------
        .byte   PATT
         .word  neverendingdream000_6_298
@ 347   ----------------------------------------
        .byte   W06
@ 348   ----------------------------------------
neverendingdream000_6_348:
        .byte   W03
        .byte           N18   , En1 , v081
        .byte   W03
        .byte   PEND
@ 349   ----------------------------------------
        .byte   W06
@ 350   ----------------------------------------
neverendingdream000_6_350:
        .byte   W03
        .byte           N12   , Bn1 , v071
        .byte   W03
        .byte   PEND
@ 351   ----------------------------------------
        .byte   W06
@ 352   ----------------------------------------
        .byte   PATT
         .word  neverendingdream000_6_320
@ 353   ----------------------------------------
        .byte   W06
@ 354   ----------------------------------------
neverendingdream000_6_354:
        .byte   W03
        .byte           N12   , Gn2 , v071
        .byte   W03
        .byte   PEND
@ 355   ----------------------------------------
        .byte   W06
@ 356   ----------------------------------------
        .byte   PATT
         .word  neverendingdream000_6_290
@ 357   ----------------------------------------
        .byte   W06
@ 358   ----------------------------------------
        .byte   PATT
         .word  neverendingdream000_6_326
@ 359   ----------------------------------------
        .byte   W06
@ 360   ----------------------------------------
        .byte   PATT
         .word  neverendingdream000_6_328
@ 361   ----------------------------------------
        .byte   W06
@ 362   ----------------------------------------
        .byte   PATT
         .word  neverendingdream000_6_294
@ 363   ----------------------------------------
        .byte   W06
@ 364   ----------------------------------------
neverendingdream000_6_364:
        .byte   W03
        .byte           N18   , Dn1 , v081
        .byte   W03
        .byte   PEND
@ 365   ----------------------------------------
        .byte   W06
@ 366   ----------------------------------------
        .byte   PATT
         .word  neverendingdream000_6_350
@ 367   ----------------------------------------
        .byte   W06
@ 368   ----------------------------------------
        .byte   PATT
         .word  neverendingdream000_6_318
@ 369   ----------------------------------------
        .byte   W06
@ 370   ----------------------------------------
        .byte   PATT
         .word  neverendingdream000_6_320
@ 371   ----------------------------------------
        .byte   W06
@ 372   ----------------------------------------
        .byte   PATT
         .word  neverendingdream000_6_290
@ 373   ----------------------------------------
        .byte   W06
@ 374   ----------------------------------------
        .byte   PATT
         .word  neverendingdream000_6_326
@ 375   ----------------------------------------
        .byte   W06
@ 376   ----------------------------------------
        .byte   PATT
         .word  neverendingdream000_6_328
@ 377   ----------------------------------------
        .byte   W06
@ 378   ----------------------------------------
        .byte   PATT
         .word  neverendingdream000_6_294
@ 379   ----------------------------------------
        .byte   W06
@ 380   ----------------------------------------
neverendingdream000_6_380:
        .byte   W03
        .byte           N18   , Cn1 , v081
        .byte   W03
        .byte   PEND
@ 381   ----------------------------------------
        .byte   W06
@ 382   ----------------------------------------
neverendingdream000_6_382:
        .byte   W03
        .byte           N12   , Gn1 , v071
        .byte   W03
        .byte   PEND
@ 383   ----------------------------------------
        .byte   W06
@ 384   ----------------------------------------
        .byte   PATT
         .word  neverendingdream000_6_286
@ 385   ----------------------------------------
        .byte   W06
@ 386   ----------------------------------------
        .byte   PATT
         .word  neverendingdream000_6_318
@ 387   ----------------------------------------
        .byte   W06
@ 388   ----------------------------------------
        .byte   PATT
         .word  neverendingdream000_6_354
@ 389   ----------------------------------------
        .byte   W06
@ 390   ----------------------------------------
neverendingdream000_6_390:
        .byte   W03
        .byte           N12   , Cn3 , v071
        .byte   W03
        .byte   PEND
@ 391   ----------------------------------------
        .byte   W06
@ 392   ----------------------------------------
        .byte   PATT
         .word  neverendingdream000_6_292
@ 393   ----------------------------------------
        .byte   W06
@ 394   ----------------------------------------
        .byte   PATT
         .word  neverendingdream000_6_326
@ 395   ----------------------------------------
        .byte   W06
@ 396   ----------------------------------------
        .byte   PATT
         .word  neverendingdream000_6_364
@ 397   ----------------------------------------
        .byte   W06
@ 398   ----------------------------------------
        .byte   W03
        .byte           N12   , An1 , v071
        .byte   W03
@ 399   ----------------------------------------
        .byte   W06
@ 400   ----------------------------------------
        .byte   PATT
         .word  neverendingdream000_6_318
@ 401   ----------------------------------------
        .byte   W06
@ 402   ----------------------------------------
        .byte   PATT
         .word  neverendingdream000_6_320
@ 403   ----------------------------------------
        .byte   W06
@ 404   ----------------------------------------
        .byte   PATT
         .word  neverendingdream000_6_288
@ 405   ----------------------------------------
        .byte   W06
@ 406   ----------------------------------------
        .byte   PATT
         .word  neverendingdream000_6_292
@ 407   ----------------------------------------
        .byte   W06
@ 408   ----------------------------------------
        .byte   PATT
         .word  neverendingdream000_6_326
@ 409   ----------------------------------------
        .byte   W06
@ 410   ----------------------------------------
        .byte   PATT
         .word  neverendingdream000_6_328
@ 411   ----------------------------------------
        .byte   W06
@ 412   ----------------------------------------
        .byte   PATT
         .word  neverendingdream000_6_284
@ 413   ----------------------------------------
        .byte   W06
@ 414   ----------------------------------------
        .byte   PATT
         .word  neverendingdream000_6_286
@ 415   ----------------------------------------
        .byte   W06
@ 416   ----------------------------------------
        .byte   PATT
         .word  neverendingdream000_6_288
@ 417   ----------------------------------------
        .byte   W06
@ 418   ----------------------------------------
        .byte   PATT
         .word  neverendingdream000_6_290
@ 419   ----------------------------------------
        .byte   W06
@ 420   ----------------------------------------
        .byte   PATT
         .word  neverendingdream000_6_292
@ 421   ----------------------------------------
        .byte   W06
@ 422   ----------------------------------------
        .byte   PATT
         .word  neverendingdream000_6_294
@ 423   ----------------------------------------
        .byte   W06
@ 424   ----------------------------------------
        .byte   PATT
         .word  neverendingdream000_6_296
@ 425   ----------------------------------------
        .byte   W06
@ 426   ----------------------------------------
        .byte   PATT
         .word  neverendingdream000_6_298
@ 427   ----------------------------------------
        .byte   W06
@ 428   ----------------------------------------
        .byte   PATT
         .word  neverendingdream000_6_284
@ 429   ----------------------------------------
        .byte   W06
@ 430   ----------------------------------------
        .byte   PATT
         .word  neverendingdream000_6_286
@ 431   ----------------------------------------
        .byte   W06
@ 432   ----------------------------------------
        .byte   PATT
         .word  neverendingdream000_6_288
@ 433   ----------------------------------------
        .byte   W06
@ 434   ----------------------------------------
        .byte   PATT
         .word  neverendingdream000_6_290
@ 435   ----------------------------------------
        .byte   W06
@ 436   ----------------------------------------
        .byte   PATT
         .word  neverendingdream000_6_292
@ 437   ----------------------------------------
        .byte   W06
@ 438   ----------------------------------------
        .byte   PATT
         .word  neverendingdream000_6_294
@ 439   ----------------------------------------
        .byte   W06
@ 440   ----------------------------------------
        .byte   PATT
         .word  neverendingdream000_6_296
@ 441   ----------------------------------------
        .byte   W06
@ 442   ----------------------------------------
        .byte   PATT
         .word  neverendingdream000_6_298
@ 443   ----------------------------------------
        .byte   W06
@ 444   ----------------------------------------
        .byte   PATT
         .word  neverendingdream000_6_316
@ 445   ----------------------------------------
        .byte   W06
@ 446   ----------------------------------------
        .byte   PATT
         .word  neverendingdream000_6_318
@ 447   ----------------------------------------
        .byte   W06
@ 448   ----------------------------------------
        .byte   PATT
         .word  neverendingdream000_6_320
@ 449   ----------------------------------------
        .byte   W06
@ 450   ----------------------------------------
        .byte   PATT
         .word  neverendingdream000_6_288
@ 451   ----------------------------------------
        .byte   W06
@ 452   ----------------------------------------
        .byte   PATT
         .word  neverendingdream000_6_290
@ 453   ----------------------------------------
        .byte   W06
@ 454   ----------------------------------------
        .byte   PATT
         .word  neverendingdream000_6_326
@ 455   ----------------------------------------
        .byte   W06
@ 456   ----------------------------------------
        .byte   PATT
         .word  neverendingdream000_6_328
@ 457   ----------------------------------------
        .byte   W06
@ 458   ----------------------------------------
        .byte   PATT
         .word  neverendingdream000_6_296
@ 459   ----------------------------------------
        .byte   W06
@ 460   ----------------------------------------
        .byte   PATT
         .word  neverendingdream000_6_332
@ 461   ----------------------------------------
        .byte   W06
@ 462   ----------------------------------------
        .byte   PATT
         .word  neverendingdream000_6_320
@ 463   ----------------------------------------
        .byte   W06
@ 464   ----------------------------------------
        .byte   PATT
         .word  neverendingdream000_6_290
@ 465   ----------------------------------------
        .byte   W06
@ 466   ----------------------------------------
        .byte   PATT
         .word  neverendingdream000_6_338
@ 467   ----------------------------------------
        .byte   W06
@ 468   ----------------------------------------
        .byte   PATT
         .word  neverendingdream000_6_340
@ 469   ----------------------------------------
        .byte   W06
@ 470   ----------------------------------------
        .byte   PATT
         .word  neverendingdream000_6_328
@ 471   ----------------------------------------
        .byte   W06
@ 472   ----------------------------------------
        .byte   PATT
         .word  neverendingdream000_6_296
@ 473   ----------------------------------------
        .byte   W06
@ 474   ----------------------------------------
        .byte   PATT
         .word  neverendingdream000_6_298
@ 475   ----------------------------------------
        .byte   W06
@ 476   ----------------------------------------
        .byte   PATT
         .word  neverendingdream000_6_348
@ 477   ----------------------------------------
        .byte   W06
@ 478   ----------------------------------------
        .byte   PATT
         .word  neverendingdream000_6_350
@ 479   ----------------------------------------
        .byte   W06
@ 480   ----------------------------------------
        .byte   PATT
         .word  neverendingdream000_6_318
@ 481   ----------------------------------------
        .byte   W06
@ 482   ----------------------------------------
        .byte   PATT
         .word  neverendingdream000_6_320
@ 483   ----------------------------------------
        .byte   W06
@ 484   ----------------------------------------
        .byte   PATT
         .word  neverendingdream000_6_354
@ 485   ----------------------------------------
        .byte   W06
@ 486   ----------------------------------------
        .byte   PATT
         .word  neverendingdream000_6_290
@ 487   ----------------------------------------
        .byte   W06
@ 488   ----------------------------------------
        .byte   PATT
         .word  neverendingdream000_6_326
@ 489   ----------------------------------------
        .byte   W06
@ 490   ----------------------------------------
        .byte   PATT
         .word  neverendingdream000_6_328
@ 491   ----------------------------------------
        .byte   W06
@ 492   ----------------------------------------
        .byte   PATT
         .word  neverendingdream000_6_364
@ 493   ----------------------------------------
        .byte   W06
@ 494   ----------------------------------------
        .byte   PATT
         .word  neverendingdream000_6_350
@ 495   ----------------------------------------
        .byte   W06
@ 496   ----------------------------------------
        .byte   PATT
         .word  neverendingdream000_6_318
@ 497   ----------------------------------------
        .byte   W06
@ 498   ----------------------------------------
        .byte   PATT
         .word  neverendingdream000_6_320
@ 499   ----------------------------------------
        .byte   W06
@ 500   ----------------------------------------
        .byte   PATT
         .word  neverendingdream000_6_354
@ 501   ----------------------------------------
        .byte   W06
@ 502   ----------------------------------------
        .byte   PATT
         .word  neverendingdream000_6_290
@ 503   ----------------------------------------
        .byte   W06
@ 504   ----------------------------------------
        .byte   PATT
         .word  neverendingdream000_6_326
@ 505   ----------------------------------------
        .byte   W06
@ 506   ----------------------------------------
        .byte   PATT
         .word  neverendingdream000_6_328
@ 507   ----------------------------------------
        .byte   W06
@ 508   ----------------------------------------
        .byte   PATT
         .word  neverendingdream000_6_380
@ 509   ----------------------------------------
        .byte   W06
@ 510   ----------------------------------------
        .byte   PATT
         .word  neverendingdream000_6_382
@ 511   ----------------------------------------
        .byte   W06
@ 512   ----------------------------------------
        .byte   PATT
         .word  neverendingdream000_6_286
@ 513   ----------------------------------------
        .byte   W06
@ 514   ----------------------------------------
        .byte   PATT
         .word  neverendingdream000_6_318
@ 515   ----------------------------------------
        .byte   W06
@ 516   ----------------------------------------
        .byte   PATT
         .word  neverendingdream000_6_354
@ 517   ----------------------------------------
        .byte   W06
@ 518   ----------------------------------------
        .byte   PATT
         .word  neverendingdream000_6_292
@ 519   ----------------------------------------
        .byte   W06
@ 520   ----------------------------------------
        .byte   PATT
         .word  neverendingdream000_6_326
@ 521   ----------------------------------------
        .byte   W06
@ 522   ----------------------------------------
        .byte   PATT
         .word  neverendingdream000_6_294
@ 523   ----------------------------------------
        .byte   W06
@ 524   ----------------------------------------
        .byte   PATT
         .word  neverendingdream000_6_380
@ 525   ----------------------------------------
        .byte   W06
@ 526   ----------------------------------------
        .byte   PATT
         .word  neverendingdream000_6_382
@ 527   ----------------------------------------
        .byte   W06
@ 528   ----------------------------------------
        .byte   W03
        .byte           N12   , Cn2 , v071
        .byte   W03
@ 529   ----------------------------------------
        .byte   W06
@ 530   ----------------------------------------
        .byte   W03
        .byte                   Ds2
        .byte   W03
@ 531   ----------------------------------------
        .byte   W06
@ 532   ----------------------------------------
        .byte   PATT
         .word  neverendingdream000_6_354
@ 533   ----------------------------------------
        .byte   W06
@ 534   ----------------------------------------
        .byte   PATT
         .word  neverendingdream000_6_390
@ 535   ----------------------------------------
        .byte   W06
@ 536   ----------------------------------------
        .byte   PATT
         .word  neverendingdream000_6_340
@ 537   ----------------------------------------
        .byte   W06
@ 538   ----------------------------------------
        .byte   PATT
         .word  neverendingdream000_6_294
@ 539   ----------------------------------------
        .byte   W06
@ 540   ----------------------------------------
        .byte   PATT
         .word  neverendingdream000_6_348
@ 541   ----------------------------------------
        .byte   W06
@ 542   ----------------------------------------
        .byte   PATT
         .word  neverendingdream000_6_350
@ 543   ----------------------------------------
        .byte   W06
@ 544   ----------------------------------------
        .byte   PATT
         .word  neverendingdream000_6_320
@ 545   ----------------------------------------
        .byte   W06
@ 546   ----------------------------------------
        .byte   PATT
         .word  neverendingdream000_6_354
@ 547   ----------------------------------------
        .byte   W06
@ 548   ----------------------------------------
        .byte   PATT
         .word  neverendingdream000_6_290
@ 549   ----------------------------------------
        .byte   W06
@ 550   ----------------------------------------
        .byte   PATT
         .word  neverendingdream000_6_326
@ 551   ----------------------------------------
        .byte   W06
@ 552   ----------------------------------------
        .byte   PATT
         .word  neverendingdream000_6_328
@ 553   ----------------------------------------
        .byte   W06
@ 554   ----------------------------------------
        .byte   PATT
         .word  neverendingdream000_6_294
@ 555   ----------------------------------------
        .byte   W06
@ 556   ----------------------------------------
        .byte   PATT
         .word  neverendingdream000_6_364
@ 557   ----------------------------------------
        .byte   W06
@ 558   ----------------------------------------
        .byte   PATT
         .word  neverendingdream000_6_350
@ 559   ----------------------------------------
        .byte   W06
@ 560   ----------------------------------------
        .byte   PATT
         .word  neverendingdream000_6_320
@ 561   ----------------------------------------
        .byte   W06
@ 562   ----------------------------------------
        .byte   PATT
         .word  neverendingdream000_6_290
@ 563   ----------------------------------------
        .byte   W06
@ 564   ----------------------------------------
        .byte   PATT
         .word  neverendingdream000_6_292
@ 565   ----------------------------------------
        .byte   W06
@ 566   ----------------------------------------
        .byte   PATT
         .word  neverendingdream000_6_328
@ 567   ----------------------------------------
        .byte   W06
@ 568   ----------------------------------------
        .byte   PATT
         .word  neverendingdream000_6_298
@ 569   ----------------------------------------
        .byte   W06
@ 570   ----------------------------------------
        .byte   W03
        .byte           N12   , Dn4 , v071
        .byte   W03
@ 571   ----------------------------------------
        .byte   W06
@ 572   ----------------------------------------
        .byte   PATT
         .word  neverendingdream000_6_380
@ 573   ----------------------------------------
        .byte   W06
@ 574   ----------------------------------------
        .byte   PATT
         .word  neverendingdream000_6_382
@ 575   ----------------------------------------
        .byte   W06
@ 576   ----------------------------------------
        .byte   PATT
         .word  neverendingdream000_6_286
@ 577   ----------------------------------------
        .byte   W06
@ 578   ----------------------------------------
        .byte   PATT
         .word  neverendingdream000_6_318
@ 579   ----------------------------------------
        .byte   W06
@ 580   ----------------------------------------
        .byte   PATT
         .word  neverendingdream000_6_354
@ 581   ----------------------------------------
        .byte   W06
@ 582   ----------------------------------------
        .byte   PATT
         .word  neverendingdream000_6_390
@ 583   ----------------------------------------
        .byte   W06
@ 584   ----------------------------------------
        .byte   PATT
         .word  neverendingdream000_6_292
@ 585   ----------------------------------------
        .byte   W06
@ 586   ----------------------------------------
        .byte   PATT
         .word  neverendingdream000_6_294
@ 587   ----------------------------------------
        .byte   W06
@ 588   ----------------------------------------
        .byte   W03
        .byte           N48   , Cn3 , v071
        .byte           N48   , Cn4
        .byte   W03
@ 589   ----------------------------------------
        .byte           N44   , Dn3 , v071 , gtp1
        .byte                   Dn4
        .byte   W03
        .byte           N42   , Gn3
        .byte           N42   , Gn4
        .byte   W03
@ 590   ----------------------------------------
        .byte   W06
@ 591   ----------------------------------------
        .byte   PATT
         .word  neverendingdream000_5_590
@ 592   ----------------------------------------
        .byte   PATT
         .word  neverendingdream000_5_591
@ 593   ----------------------------------------
        .byte   PATT
         .word  neverendingdream000_5_592
@ 594   ----------------------------------------
        .byte   PATT
         .word  neverendingdream000_5_593
@ 595   ----------------------------------------
        .byte           VOL   , 0
        .byte   W06
@ 596   ----------------------------------------
        .byte   W06
@ 597   ----------------------------------------
        .byte   W06
@ 598   ----------------------------------------
        .byte   W06
@ 599   ----------------------------------------
        .byte                   40
        .byte   W06
@ 600   ----------------------------------------
        .byte   W06
@ 601   ----------------------------------------
        .byte   W06
@ 602   ----------------------------------------
        .byte   W06
@ 603   ----------------------------------------
        .byte   GOTO
         .word  neverendingdream000_6_LOOP
        .byte   FINE

@***************** Track 7 (Midi-Chn.11) ******************@

neverendingdream000_7:
        .byte   KEYSH , neverendingdream000_key+0
@ 000   ----------------------------------------
        .byte           VOICE , 97
        .byte   W02
        .byte           VOL   , 18
        .byte   W01
        .byte           PAN   , c_v+63
        .byte   W03
@ 001   ----------------------------------------
        .byte   W06
@ 002   ----------------------------------------
        .byte   W06
@ 003   ----------------------------------------
        .byte   W06
@ 004   ----------------------------------------
        .byte   W06
@ 005   ----------------------------------------
        .byte   W06
@ 006   ----------------------------------------
        .byte   W06
@ 007   ----------------------------------------
        .byte   W06
@ 008   ----------------------------------------
        .byte   W06
@ 009   ----------------------------------------
        .byte   W06
@ 010   ----------------------------------------
        .byte   W05
neverendingdream000_7_LOOP:
        .byte   W01
@ 011   ----------------------------------------
        .byte           N92   , En2 , v092 , gtp2
        .byte                   Gn3 , v072
        .byte           N92   , Dn3 , v072 , gtp2
        .byte                   Bn2
        .byte   W06
@ 012   ----------------------------------------
        .byte   W06
@ 013   ----------------------------------------
        .byte   W06
@ 014   ----------------------------------------
        .byte   W06
@ 015   ----------------------------------------
        .byte   W06
@ 016   ----------------------------------------
        .byte   W06
@ 017   ----------------------------------------
        .byte   W06
@ 018   ----------------------------------------
        .byte   W06
@ 019   ----------------------------------------
        .byte   W06
@ 020   ----------------------------------------
        .byte   W06
@ 021   ----------------------------------------
        .byte   W06
@ 022   ----------------------------------------
        .byte   W06
@ 023   ----------------------------------------
        .byte   W06
@ 024   ----------------------------------------
        .byte   W06
@ 025   ----------------------------------------
        .byte   W06
@ 026   ----------------------------------------
        .byte   W04
        .byte           N96   , Dn2 , v092
        .byte           N96   , Bn2 , v072
        .byte           N96   , Fs3
        .byte           N96   , Dn3
        .byte   W02
@ 027   ----------------------------------------
        .byte   W06
@ 028   ----------------------------------------
        .byte   W06
@ 029   ----------------------------------------
        .byte   W06
@ 030   ----------------------------------------
        .byte   W06
@ 031   ----------------------------------------
        .byte   W06
@ 032   ----------------------------------------
        .byte   W06
@ 033   ----------------------------------------
        .byte   W06
@ 034   ----------------------------------------
        .byte   W06
@ 035   ----------------------------------------
        .byte   W06
@ 036   ----------------------------------------
        .byte   W06
@ 037   ----------------------------------------
        .byte   W06
@ 038   ----------------------------------------
        .byte   W06
@ 039   ----------------------------------------
        .byte   W06
@ 040   ----------------------------------------
        .byte   W06
@ 041   ----------------------------------------
        .byte   W06
@ 042   ----------------------------------------
        .byte   W04
        .byte                   Cn2 , v092
        .byte           N96   , En3 , v072
        .byte           N96   , Bn2
        .byte           N96   , Gn2
        .byte   W02
@ 043   ----------------------------------------
        .byte   W06
@ 044   ----------------------------------------
        .byte   W06
@ 045   ----------------------------------------
        .byte   W06
@ 046   ----------------------------------------
        .byte   W06
@ 047   ----------------------------------------
        .byte   W06
@ 048   ----------------------------------------
        .byte   W06
@ 049   ----------------------------------------
        .byte   W06
@ 050   ----------------------------------------
        .byte   W06
@ 051   ----------------------------------------
        .byte   W06
@ 052   ----------------------------------------
        .byte   W06
@ 053   ----------------------------------------
        .byte   W06
@ 054   ----------------------------------------
        .byte   W06
@ 055   ----------------------------------------
        .byte   W06
@ 056   ----------------------------------------
        .byte   W06
@ 057   ----------------------------------------
        .byte   W06
@ 058   ----------------------------------------
        .byte   W04
        .byte                   Bn1 , v092
        .byte           N96   , Dn3 , v072
        .byte           N96   , Bn2
        .byte           N96   , Gn2
        .byte   W02
@ 059   ----------------------------------------
        .byte   W06
@ 060   ----------------------------------------
        .byte   W06
@ 061   ----------------------------------------
        .byte   W06
@ 062   ----------------------------------------
        .byte   W06
@ 063   ----------------------------------------
        .byte   W06
@ 064   ----------------------------------------
        .byte   W06
@ 065   ----------------------------------------
        .byte   W06
@ 066   ----------------------------------------
        .byte   W06
@ 067   ----------------------------------------
        .byte   W06
@ 068   ----------------------------------------
        .byte   W06
@ 069   ----------------------------------------
        .byte   W06
@ 070   ----------------------------------------
        .byte   W06
@ 071   ----------------------------------------
        .byte   W06
@ 072   ----------------------------------------
        .byte   W06
@ 073   ----------------------------------------
        .byte   W06
@ 074   ----------------------------------------
        .byte   W04
        .byte                   An1 , v092
        .byte           N96   , Cn3 , v072
        .byte           N96   , Gn2
        .byte           N96   , En2
        .byte   W02
@ 075   ----------------------------------------
        .byte   W06
@ 076   ----------------------------------------
        .byte   W06
@ 077   ----------------------------------------
        .byte   W06
@ 078   ----------------------------------------
        .byte   W06
@ 079   ----------------------------------------
        .byte   W06
@ 080   ----------------------------------------
        .byte   W06
@ 081   ----------------------------------------
        .byte   W06
@ 082   ----------------------------------------
        .byte   W06
@ 083   ----------------------------------------
        .byte   W06
@ 084   ----------------------------------------
        .byte   W06
@ 085   ----------------------------------------
        .byte   W06
@ 086   ----------------------------------------
        .byte   W06
@ 087   ----------------------------------------
        .byte   W06
@ 088   ----------------------------------------
        .byte   W06
@ 089   ----------------------------------------
        .byte   W06
@ 090   ----------------------------------------
        .byte   W04
        .byte                   Bn1 , v092
        .byte           N96   , Bn2 , v072
        .byte           N96   , Gn2
        .byte           N96   , Dn3
        .byte   W02
@ 091   ----------------------------------------
        .byte   W06
@ 092   ----------------------------------------
        .byte   W06
@ 093   ----------------------------------------
        .byte   W06
@ 094   ----------------------------------------
        .byte   W06
@ 095   ----------------------------------------
        .byte   W06
@ 096   ----------------------------------------
        .byte   W06
@ 097   ----------------------------------------
        .byte   W06
@ 098   ----------------------------------------
        .byte   W06
@ 099   ----------------------------------------
        .byte   W06
@ 100   ----------------------------------------
        .byte   W06
@ 101   ----------------------------------------
        .byte   W06
@ 102   ----------------------------------------
        .byte   W06
@ 103   ----------------------------------------
        .byte   W06
@ 104   ----------------------------------------
        .byte   W06
@ 105   ----------------------------------------
        .byte   W06
@ 106   ----------------------------------------
        .byte   W04
        .byte                   Cn2 , v092
        .byte           N96   , Cn3 , v072
        .byte           N96   , Gn2
        .byte           N96   , En3
        .byte   W02
@ 107   ----------------------------------------
        .byte   W06
@ 108   ----------------------------------------
        .byte   W06
@ 109   ----------------------------------------
        .byte   W06
@ 110   ----------------------------------------
        .byte   W06
@ 111   ----------------------------------------
        .byte   W06
@ 112   ----------------------------------------
        .byte   W06
@ 113   ----------------------------------------
        .byte   W06
@ 114   ----------------------------------------
        .byte   W06
@ 115   ----------------------------------------
        .byte   W06
@ 116   ----------------------------------------
        .byte   W06
@ 117   ----------------------------------------
        .byte   W06
@ 118   ----------------------------------------
        .byte   W06
@ 119   ----------------------------------------
        .byte   W06
@ 120   ----------------------------------------
        .byte   W06
@ 121   ----------------------------------------
        .byte   W06
@ 122   ----------------------------------------
        .byte   W04
        .byte           N92   , Dn2 , v092 , gtp2
        .byte                   Fs3 , v072
        .byte           N92   , Dn3 , v072 , gtp2
        .byte                   An2
        .byte   W02
@ 123   ----------------------------------------
        .byte   W06
@ 124   ----------------------------------------
        .byte   W06
@ 125   ----------------------------------------
        .byte   W06
@ 126   ----------------------------------------
        .byte   W06
@ 127   ----------------------------------------
        .byte   W06
@ 128   ----------------------------------------
        .byte   W06
@ 129   ----------------------------------------
        .byte   W06
@ 130   ----------------------------------------
        .byte   W06
@ 131   ----------------------------------------
        .byte   W06
@ 132   ----------------------------------------
        .byte   W06
@ 133   ----------------------------------------
        .byte   W06
@ 134   ----------------------------------------
        .byte   W06
@ 135   ----------------------------------------
        .byte   W06
@ 136   ----------------------------------------
        .byte   W06
@ 137   ----------------------------------------
        .byte   W06
@ 138   ----------------------------------------
        .byte   W02
        .byte           N96   , En2 , v092
        .byte           N96   , Gn3 , v072
        .byte           N96   , Dn3
        .byte           N96   , Bn2
        .byte   W04
@ 139   ----------------------------------------
        .byte   W06
@ 140   ----------------------------------------
        .byte   W06
@ 141   ----------------------------------------
        .byte   W06
@ 142   ----------------------------------------
        .byte   W06
@ 143   ----------------------------------------
        .byte   W06
@ 144   ----------------------------------------
        .byte   W06
@ 145   ----------------------------------------
        .byte   W06
@ 146   ----------------------------------------
        .byte   W06
@ 147   ----------------------------------------
        .byte   W06
@ 148   ----------------------------------------
        .byte   W06
@ 149   ----------------------------------------
        .byte   W06
@ 150   ----------------------------------------
        .byte   W06
@ 151   ----------------------------------------
        .byte   W06
@ 152   ----------------------------------------
        .byte   W06
@ 153   ----------------------------------------
        .byte   W06
@ 154   ----------------------------------------
        .byte   W04
        .byte                   Dn2 , v092
        .byte           N96   , Fs3 , v072
        .byte           N96   , Dn3
        .byte           N96   , Bn2
        .byte   W02
@ 155   ----------------------------------------
        .byte   W06
@ 156   ----------------------------------------
        .byte   W06
@ 157   ----------------------------------------
        .byte   W06
@ 158   ----------------------------------------
        .byte   W06
@ 159   ----------------------------------------
        .byte   W06
@ 160   ----------------------------------------
        .byte   W06
@ 161   ----------------------------------------
        .byte   W06
@ 162   ----------------------------------------
        .byte   W04
        .byte           N48   , Bn3 , v067
        .byte   W02
@ 163   ----------------------------------------
        .byte   W06
@ 164   ----------------------------------------
        .byte   W06
@ 165   ----------------------------------------
        .byte   W06
@ 166   ----------------------------------------
        .byte   W06
@ 167   ----------------------------------------
        .byte   W06
@ 168   ----------------------------------------
        .byte   W06
@ 169   ----------------------------------------
        .byte   W06
@ 170   ----------------------------------------
        .byte   W04
        .byte           N96   , Cn2 , v092
        .byte           N96   , Bn2 , v072
        .byte           N96   , En3
        .byte           N96   , Gn2
        .byte   W02
@ 171   ----------------------------------------
        .byte   W06
@ 172   ----------------------------------------
        .byte   W06
@ 173   ----------------------------------------
        .byte   W06
@ 174   ----------------------------------------
        .byte   W06
@ 175   ----------------------------------------
        .byte   W06
@ 176   ----------------------------------------
        .byte   W06
@ 177   ----------------------------------------
        .byte   W06
@ 178   ----------------------------------------
        .byte   W06
@ 179   ----------------------------------------
        .byte   W06
@ 180   ----------------------------------------
        .byte   W06
@ 181   ----------------------------------------
        .byte   W06
@ 182   ----------------------------------------
        .byte   W06
@ 183   ----------------------------------------
        .byte   W06
@ 184   ----------------------------------------
        .byte   W06
@ 185   ----------------------------------------
        .byte   W06
@ 186   ----------------------------------------
        .byte   W04
        .byte                   Bn1 , v092
        .byte           N96   , Gn2 , v072
        .byte           N96   , Bn2
        .byte           N96   , Dn3
        .byte   W02
@ 187   ----------------------------------------
        .byte   W06
@ 188   ----------------------------------------
        .byte   W06
@ 189   ----------------------------------------
        .byte   W06
@ 190   ----------------------------------------
        .byte   W06
@ 191   ----------------------------------------
        .byte   W06
@ 192   ----------------------------------------
        .byte   W06
@ 193   ----------------------------------------
        .byte   W06
@ 194   ----------------------------------------
        .byte   W04
        .byte           N48   , Gn3
        .byte   W02
@ 195   ----------------------------------------
        .byte   W06
@ 196   ----------------------------------------
        .byte   W06
@ 197   ----------------------------------------
        .byte   W06
@ 198   ----------------------------------------
        .byte   W06
@ 199   ----------------------------------------
        .byte   W06
@ 200   ----------------------------------------
        .byte   W06
@ 201   ----------------------------------------
        .byte   W06
@ 202   ----------------------------------------
        .byte   W04
        .byte           N96   , An1 , v092
        .byte           N96   , Gn2 , v072
        .byte           N96   , En2
        .byte           N96   , Cn3
        .byte   W02
@ 203   ----------------------------------------
        .byte   W06
@ 204   ----------------------------------------
        .byte   W06
@ 205   ----------------------------------------
        .byte   W06
@ 206   ----------------------------------------
        .byte   W06
@ 207   ----------------------------------------
        .byte   W06
@ 208   ----------------------------------------
        .byte   W06
@ 209   ----------------------------------------
        .byte   W06
@ 210   ----------------------------------------
        .byte   W06
@ 211   ----------------------------------------
        .byte   W06
@ 212   ----------------------------------------
        .byte   W06
@ 213   ----------------------------------------
        .byte   W06
@ 214   ----------------------------------------
        .byte   W06
@ 215   ----------------------------------------
        .byte   W06
@ 216   ----------------------------------------
        .byte   W06
@ 217   ----------------------------------------
        .byte   W06
@ 218   ----------------------------------------
        .byte   W04
        .byte                   Bn1 , v092
        .byte           N96   , Gn2 , v072
        .byte           N96   , Dn3
        .byte   W02
@ 219   ----------------------------------------
        .byte   W06
@ 220   ----------------------------------------
        .byte   W06
@ 221   ----------------------------------------
        .byte   W06
@ 222   ----------------------------------------
        .byte   W06
@ 223   ----------------------------------------
        .byte   W06
@ 224   ----------------------------------------
        .byte   W06
@ 225   ----------------------------------------
        .byte   W06
@ 226   ----------------------------------------
        .byte   W06
@ 227   ----------------------------------------
        .byte   W06
@ 228   ----------------------------------------
        .byte   W06
@ 229   ----------------------------------------
        .byte   W06
@ 230   ----------------------------------------
        .byte   W06
@ 231   ----------------------------------------
        .byte   W06
@ 232   ----------------------------------------
        .byte   W06
@ 233   ----------------------------------------
        .byte   W06
@ 234   ----------------------------------------
        .byte   W04
        .byte           N24   , Cn2 , v112
        .byte           N96   , Cn3 , v072
        .byte           N96   , Gn2
        .byte           N96   , En3
        .byte   W02
@ 235   ----------------------------------------
        .byte   W06
@ 236   ----------------------------------------
        .byte   W06
@ 237   ----------------------------------------
        .byte   W06
@ 238   ----------------------------------------
        .byte   W04
        .byte           N24   , Bn1 , v112
        .byte   W02
@ 239   ----------------------------------------
        .byte   W06
@ 240   ----------------------------------------
        .byte   W06
@ 241   ----------------------------------------
        .byte   W06
@ 242   ----------------------------------------
        .byte   W04
        .byte                   An1 , v102
        .byte   W02
@ 243   ----------------------------------------
        .byte   W06
@ 244   ----------------------------------------
        .byte   W06
@ 245   ----------------------------------------
        .byte   W06
@ 246   ----------------------------------------
        .byte   W04
        .byte                   Gn1 , v112
        .byte   W02
@ 247   ----------------------------------------
        .byte   W06
@ 248   ----------------------------------------
        .byte   W06
@ 249   ----------------------------------------
        .byte   W06
@ 250   ----------------------------------------
        .byte   W04
        .byte           TIE   , Dn2 , v107
        .byte           TIE   , Fs3 , v072
        .byte           TIE   , Dn3
        .byte           TIE   , An2
        .byte   W02
@ 251   ----------------------------------------
        .byte   W06
@ 252   ----------------------------------------
        .byte   W06
@ 253   ----------------------------------------
        .byte   W06
@ 254   ----------------------------------------
        .byte   W06
@ 255   ----------------------------------------
        .byte   W06
@ 256   ----------------------------------------
        .byte   W06
@ 257   ----------------------------------------
        .byte   W06
@ 258   ----------------------------------------
        .byte   W06
@ 259   ----------------------------------------
        .byte   W06
@ 260   ----------------------------------------
        .byte   W06
@ 261   ----------------------------------------
        .byte   W06
@ 262   ----------------------------------------
        .byte   W06
@ 263   ----------------------------------------
        .byte   W06
@ 264   ----------------------------------------
        .byte   W06
@ 265   ----------------------------------------
        .byte   W06
@ 266   ----------------------------------------
        .byte   W06
@ 267   ----------------------------------------
        .byte   W06
@ 268   ----------------------------------------
        .byte   W06
@ 269   ----------------------------------------
        .byte   W06
@ 270   ----------------------------------------
        .byte   W06
@ 271   ----------------------------------------
        .byte   W06
@ 272   ----------------------------------------
        .byte   W06
@ 273   ----------------------------------------
        .byte   W06
@ 274   ----------------------------------------
        .byte   W04
        .byte           EOT   , Dn2
        .byte                   An2
        .byte                   Dn3
        .byte                   Fs3
        .byte           N24   , En2 , v127
        .byte           N24   , En1
        .byte           N24   , Gn3 , v072
        .byte           N24   , Cn3
        .byte   W02
@ 275   ----------------------------------------
        .byte   W06
@ 276   ----------------------------------------
        .byte   W06
@ 277   ----------------------------------------
        .byte   W06
@ 278   ----------------------------------------
        .byte   W04
        .byte                   Fs2 , v127
        .byte           N24   , Fs1
        .byte           N24   , An3 , v072
        .byte           N24   , Dn3
        .byte   W02
@ 279   ----------------------------------------
        .byte   W06
@ 280   ----------------------------------------
        .byte   W06
@ 281   ----------------------------------------
        .byte   W06
@ 282   ----------------------------------------
neverendingdream000_7_282:
        .byte   W04
        .byte           TIE   , Gn2 , v117
        .byte           TIE   , Gn3 , v072
        .byte           N72   , Dn3
        .byte   W02
        .byte   PEND
@ 283   ----------------------------------------
        .byte   W06
@ 284   ----------------------------------------
        .byte   W06
@ 285   ----------------------------------------
        .byte   W06
@ 286   ----------------------------------------
        .byte   W06
@ 287   ----------------------------------------
        .byte   W06
@ 288   ----------------------------------------
        .byte   W06
@ 289   ----------------------------------------
        .byte   W06
@ 290   ----------------------------------------
        .byte   W06
@ 291   ----------------------------------------
        .byte   W06
@ 292   ----------------------------------------
        .byte   W06
@ 293   ----------------------------------------
        .byte   W06
@ 294   ----------------------------------------
neverendingdream000_7_294:
        .byte   W04
        .byte           N24   , Fs3 , v072
        .byte   W02
        .byte   PEND
@ 295   ----------------------------------------
        .byte   W06
@ 296   ----------------------------------------
        .byte   W06
@ 297   ----------------------------------------
        .byte   W06
@ 298   ----------------------------------------
neverendingdream000_7_298:
        .byte   W04
        .byte           N96   , Dn3 , v072
        .byte   W02
        .byte   PEND
@ 299   ----------------------------------------
        .byte   W06
@ 300   ----------------------------------------
        .byte   W06
@ 301   ----------------------------------------
        .byte   W06
@ 302   ----------------------------------------
        .byte   W06
@ 303   ----------------------------------------
        .byte   W06
@ 304   ----------------------------------------
        .byte   W06
@ 305   ----------------------------------------
        .byte   W06
@ 306   ----------------------------------------
        .byte   W06
@ 307   ----------------------------------------
        .byte   W06
@ 308   ----------------------------------------
        .byte   W06
@ 309   ----------------------------------------
        .byte   W06
@ 310   ----------------------------------------
        .byte   W06
@ 311   ----------------------------------------
        .byte   W06
@ 312   ----------------------------------------
        .byte   W06
@ 313   ----------------------------------------
        .byte   W06
@ 314   ----------------------------------------
        .byte   W04
        .byte           EOT   , Gn2
        .byte                   Gn3
        .byte           N96   , Fs2 , v117
        .byte           N72   , En3 , v072
        .byte           N96   , Bn3
        .byte           N96   , An3
        .byte   W02
@ 315   ----------------------------------------
        .byte   W06
@ 316   ----------------------------------------
        .byte   W06
@ 317   ----------------------------------------
        .byte   W06
@ 318   ----------------------------------------
        .byte   W06
@ 319   ----------------------------------------
        .byte   W06
@ 320   ----------------------------------------
        .byte   W06
@ 321   ----------------------------------------
        .byte   W06
@ 322   ----------------------------------------
        .byte   W06
@ 323   ----------------------------------------
        .byte   W06
@ 324   ----------------------------------------
        .byte   W06
@ 325   ----------------------------------------
        .byte   W06
@ 326   ----------------------------------------
neverendingdream000_7_326:
        .byte   W04
        .byte           N24   , En3 , v072
        .byte   W02
        .byte   PEND
@ 327   ----------------------------------------
        .byte   W06
@ 328   ----------------------------------------
        .byte   W06
@ 329   ----------------------------------------
        .byte   W06
@ 330   ----------------------------------------
        .byte   W04
        .byte           N96   , Bn1 , v117
        .byte           N96   , Ds3 , v072
        .byte           N96   , Fs3
        .byte   W02
@ 331   ----------------------------------------
        .byte   W06
@ 332   ----------------------------------------
        .byte   W06
@ 333   ----------------------------------------
        .byte   W06
@ 334   ----------------------------------------
        .byte   W06
@ 335   ----------------------------------------
        .byte   W06
@ 336   ----------------------------------------
        .byte   W06
@ 337   ----------------------------------------
        .byte   W06
@ 338   ----------------------------------------
        .byte   W06
@ 339   ----------------------------------------
        .byte   W06
@ 340   ----------------------------------------
        .byte   W06
@ 341   ----------------------------------------
        .byte   W06
@ 342   ----------------------------------------
        .byte   W06
@ 343   ----------------------------------------
        .byte   W06
@ 344   ----------------------------------------
        .byte   W06
@ 345   ----------------------------------------
        .byte   W06
@ 346   ----------------------------------------
        .byte   W04
        .byte           TIE   , En2 , v117
        .byte           N96   , En3 , v072
        .byte           TIE   , Gn3
        .byte           TIE   , Bn2
        .byte   W02
@ 347   ----------------------------------------
        .byte   W06
@ 348   ----------------------------------------
        .byte   W06
@ 349   ----------------------------------------
        .byte   W06
@ 350   ----------------------------------------
        .byte   W06
@ 351   ----------------------------------------
        .byte   W06
@ 352   ----------------------------------------
        .byte   W06
@ 353   ----------------------------------------
        .byte   W06
@ 354   ----------------------------------------
        .byte   W06
@ 355   ----------------------------------------
        .byte   W06
@ 356   ----------------------------------------
        .byte   W06
@ 357   ----------------------------------------
        .byte   W06
@ 358   ----------------------------------------
        .byte   W06
@ 359   ----------------------------------------
        .byte   W06
@ 360   ----------------------------------------
        .byte   W06
@ 361   ----------------------------------------
        .byte   W06
@ 362   ----------------------------------------
        .byte   W04
        .byte           N96   , Dn2 , v117
        .byte           N96   , Dn3 , v072
        .byte   W01
        .byte           EOT   , En2
        .byte   W01
@ 363   ----------------------------------------
        .byte   W06
@ 364   ----------------------------------------
        .byte   W06
@ 365   ----------------------------------------
        .byte   W06
@ 366   ----------------------------------------
        .byte   W06
@ 367   ----------------------------------------
        .byte   W06
@ 368   ----------------------------------------
        .byte   W06
@ 369   ----------------------------------------
        .byte   W06
@ 370   ----------------------------------------
        .byte   W06
@ 371   ----------------------------------------
        .byte   W06
@ 372   ----------------------------------------
        .byte   W06
@ 373   ----------------------------------------
        .byte   W06
@ 374   ----------------------------------------
        .byte   W06
@ 375   ----------------------------------------
        .byte   W06
@ 376   ----------------------------------------
        .byte   W06
@ 377   ----------------------------------------
        .byte   W06
@ 378   ----------------------------------------
        .byte   W04
        .byte                   Bn2
        .byte           N96   , Cn2 , v117
        .byte           N96   , En3 , v072
        .byte           N96   , Cn3
        .byte           N96   , Gn2
        .byte   W02
@ 379   ----------------------------------------
        .byte   W06
@ 380   ----------------------------------------
        .byte   W06
@ 381   ----------------------------------------
        .byte   W06
@ 382   ----------------------------------------
        .byte   W06
@ 383   ----------------------------------------
        .byte   W06
@ 384   ----------------------------------------
        .byte   W06
@ 385   ----------------------------------------
        .byte   W06
@ 386   ----------------------------------------
        .byte   W06
@ 387   ----------------------------------------
        .byte   W06
@ 388   ----------------------------------------
        .byte   W06
@ 389   ----------------------------------------
        .byte   W06
@ 390   ----------------------------------------
        .byte   W06
@ 391   ----------------------------------------
        .byte   W06
@ 392   ----------------------------------------
        .byte   W06
@ 393   ----------------------------------------
        .byte   W06
@ 394   ----------------------------------------
        .byte   W04
        .byte           EOT   , Gn3
        .byte           N96   , Dn2 , v117
        .byte           N96   , An2 , v072
        .byte           N48   , Gn3
        .byte           N48   , Cn3
        .byte   W02
@ 395   ----------------------------------------
        .byte   W06
@ 396   ----------------------------------------
        .byte   W06
@ 397   ----------------------------------------
        .byte   W06
@ 398   ----------------------------------------
        .byte   W06
@ 399   ----------------------------------------
        .byte   W06
@ 400   ----------------------------------------
        .byte   W06
@ 401   ----------------------------------------
        .byte   W06
@ 402   ----------------------------------------
        .byte   W04
        .byte                   Fs3
        .byte           N48   , Dn3
        .byte   W02
@ 403   ----------------------------------------
        .byte   W06
@ 404   ----------------------------------------
        .byte   W06
@ 405   ----------------------------------------
        .byte   W06
@ 406   ----------------------------------------
        .byte   W06
@ 407   ----------------------------------------
        .byte   W06
@ 408   ----------------------------------------
        .byte   W06
@ 409   ----------------------------------------
        .byte   W06
@ 410   ----------------------------------------
        .byte   PATT
         .word  neverendingdream000_7_282
@ 411   ----------------------------------------
        .byte   W06
@ 412   ----------------------------------------
        .byte   W06
@ 413   ----------------------------------------
        .byte   W06
@ 414   ----------------------------------------
        .byte   W06
@ 415   ----------------------------------------
        .byte   W06
@ 416   ----------------------------------------
        .byte   W06
@ 417   ----------------------------------------
        .byte   W06
@ 418   ----------------------------------------
        .byte   W06
@ 419   ----------------------------------------
        .byte   W06
@ 420   ----------------------------------------
        .byte   W06
@ 421   ----------------------------------------
        .byte   W06
@ 422   ----------------------------------------
        .byte   PATT
         .word  neverendingdream000_7_294
@ 423   ----------------------------------------
        .byte   W06
@ 424   ----------------------------------------
        .byte   W06
@ 425   ----------------------------------------
        .byte   W06
@ 426   ----------------------------------------
        .byte   PATT
         .word  neverendingdream000_7_298
@ 427   ----------------------------------------
        .byte   W06
@ 428   ----------------------------------------
        .byte   W06
@ 429   ----------------------------------------
        .byte   W06
@ 430   ----------------------------------------
        .byte   W06
@ 431   ----------------------------------------
        .byte   W06
@ 432   ----------------------------------------
        .byte   W06
@ 433   ----------------------------------------
        .byte   W06
@ 434   ----------------------------------------
        .byte   W06
@ 435   ----------------------------------------
        .byte   W06
@ 436   ----------------------------------------
        .byte   W06
@ 437   ----------------------------------------
        .byte   W06
@ 438   ----------------------------------------
        .byte   W06
@ 439   ----------------------------------------
        .byte   W06
@ 440   ----------------------------------------
        .byte   W06
@ 441   ----------------------------------------
        .byte   W06
@ 442   ----------------------------------------
        .byte   W04
        .byte           EOT   , Gn2
        .byte                   Gn3
        .byte           N96   , Fs2 , v117
        .byte           TIE   , Bn3 , v072
        .byte           N72   , An3
        .byte           N72   , En3
        .byte   W02
@ 443   ----------------------------------------
        .byte   W06
@ 444   ----------------------------------------
        .byte   W06
@ 445   ----------------------------------------
        .byte   W06
@ 446   ----------------------------------------
        .byte   W06
@ 447   ----------------------------------------
        .byte   W06
@ 448   ----------------------------------------
        .byte   W06
@ 449   ----------------------------------------
        .byte   W06
@ 450   ----------------------------------------
        .byte   W06
@ 451   ----------------------------------------
        .byte   W06
@ 452   ----------------------------------------
        .byte   W06
@ 453   ----------------------------------------
        .byte   W06
@ 454   ----------------------------------------
        .byte   PATT
         .word  neverendingdream000_7_326
@ 455   ----------------------------------------
        .byte   W06
@ 456   ----------------------------------------
        .byte   W06
@ 457   ----------------------------------------
        .byte   W06
@ 458   ----------------------------------------
        .byte   W04
        .byte           N96   , Bn1 , v117
        .byte           N48   , Fs3 , v072
        .byte           N48   , Ds3
        .byte   W02
@ 459   ----------------------------------------
        .byte   W06
@ 460   ----------------------------------------
        .byte   W06
@ 461   ----------------------------------------
        .byte   W06
@ 462   ----------------------------------------
        .byte   W06
@ 463   ----------------------------------------
        .byte   W06
@ 464   ----------------------------------------
        .byte   W06
@ 465   ----------------------------------------
        .byte   W06
@ 466   ----------------------------------------
        .byte   W04
        .byte                   Bn2
        .byte   W02
@ 467   ----------------------------------------
        .byte   W06
@ 468   ----------------------------------------
        .byte   W04
        .byte           N36   , Ds3
        .byte   W02
@ 469   ----------------------------------------
        .byte   W06
@ 470   ----------------------------------------
        .byte   W04
        .byte           EOT   , Bn3
        .byte           N24   , Fs3
        .byte   W02
@ 471   ----------------------------------------
        .byte   W06
@ 472   ----------------------------------------
        .byte   W04
        .byte           N12   , Bn3
        .byte   W02
@ 473   ----------------------------------------
        .byte   W06
@ 474   ----------------------------------------
        .byte   W04
        .byte           N96   , En2 , v117
        .byte           N96   , En3 , v072
        .byte           N96   , Bn2
        .byte           TIE   , Gn3
        .byte   W02
@ 475   ----------------------------------------
        .byte   W06
@ 476   ----------------------------------------
        .byte   W06
@ 477   ----------------------------------------
        .byte   W06
@ 478   ----------------------------------------
        .byte   W06
@ 479   ----------------------------------------
        .byte   W06
@ 480   ----------------------------------------
        .byte   W06
@ 481   ----------------------------------------
        .byte   W06
@ 482   ----------------------------------------
        .byte   W06
@ 483   ----------------------------------------
        .byte   W06
@ 484   ----------------------------------------
        .byte   W06
@ 485   ----------------------------------------
        .byte   W06
@ 486   ----------------------------------------
        .byte   W06
@ 487   ----------------------------------------
        .byte   W06
@ 488   ----------------------------------------
        .byte   W06
@ 489   ----------------------------------------
        .byte   W06
@ 490   ----------------------------------------
        .byte   W04
        .byte           N96   , Dn2 , v117
        .byte           N96   , Bn2 , v072
        .byte           N96   , Dn3
        .byte   W02
@ 491   ----------------------------------------
        .byte   W06
@ 492   ----------------------------------------
        .byte   W06
@ 493   ----------------------------------------
        .byte   W06
@ 494   ----------------------------------------
        .byte   W06
@ 495   ----------------------------------------
        .byte   W06
@ 496   ----------------------------------------
        .byte   W06
@ 497   ----------------------------------------
        .byte   W06
@ 498   ----------------------------------------
        .byte   W06
@ 499   ----------------------------------------
        .byte   W06
@ 500   ----------------------------------------
        .byte   W06
@ 501   ----------------------------------------
        .byte   W06
@ 502   ----------------------------------------
        .byte   W06
@ 503   ----------------------------------------
        .byte   W06
@ 504   ----------------------------------------
        .byte   W06
@ 505   ----------------------------------------
        .byte   W06
@ 506   ----------------------------------------
        .byte   W04
        .byte           EOT   , Gn3
        .byte           N96   , Cn2 , v117
        .byte           N96   , Bn2 , v072
        .byte           N96   , En3
        .byte           N96   , Gn3
        .byte   W02
@ 507   ----------------------------------------
        .byte   W06
@ 508   ----------------------------------------
        .byte   W06
@ 509   ----------------------------------------
        .byte   W06
@ 510   ----------------------------------------
        .byte   W06
@ 511   ----------------------------------------
        .byte   W06
@ 512   ----------------------------------------
        .byte   W06
@ 513   ----------------------------------------
        .byte   W06
@ 514   ----------------------------------------
        .byte   W06
@ 515   ----------------------------------------
        .byte   W06
@ 516   ----------------------------------------
        .byte   W06
@ 517   ----------------------------------------
        .byte   W06
@ 518   ----------------------------------------
        .byte   W06
@ 519   ----------------------------------------
        .byte   W06
@ 520   ----------------------------------------
        .byte   W06
@ 521   ----------------------------------------
        .byte   W06
@ 522   ----------------------------------------
        .byte   W04
        .byte                   Cn2 , v117
        .byte           N96   , An2 , v072
        .byte           N96   , Ds3
        .byte           TIE   , Gn3
        .byte   W02
@ 523   ----------------------------------------
        .byte   W06
@ 524   ----------------------------------------
        .byte   W06
@ 525   ----------------------------------------
        .byte   W06
@ 526   ----------------------------------------
        .byte   W06
@ 527   ----------------------------------------
        .byte   W06
@ 528   ----------------------------------------
        .byte   W06
@ 529   ----------------------------------------
        .byte   W06
@ 530   ----------------------------------------
        .byte   W06
@ 531   ----------------------------------------
        .byte   W06
@ 532   ----------------------------------------
        .byte   W06
@ 533   ----------------------------------------
        .byte   W06
@ 534   ----------------------------------------
        .byte   W06
@ 535   ----------------------------------------
        .byte   W06
@ 536   ----------------------------------------
        .byte   W06
@ 537   ----------------------------------------
        .byte   W06
@ 538   ----------------------------------------
        .byte   W04
        .byte           N96   , En2 , v117
        .byte           N96   , En3 , v072
        .byte           N96   , Bn2
        .byte   W02
@ 539   ----------------------------------------
        .byte   W06
@ 540   ----------------------------------------
        .byte   W06
@ 541   ----------------------------------------
        .byte   W06
@ 542   ----------------------------------------
        .byte   W06
@ 543   ----------------------------------------
        .byte   W06
@ 544   ----------------------------------------
        .byte   W06
@ 545   ----------------------------------------
        .byte   W06
@ 546   ----------------------------------------
        .byte   W06
@ 547   ----------------------------------------
        .byte   W06
@ 548   ----------------------------------------
        .byte   W06
@ 549   ----------------------------------------
        .byte   W06
@ 550   ----------------------------------------
        .byte   W06
@ 551   ----------------------------------------
        .byte   W06
@ 552   ----------------------------------------
        .byte   W06
@ 553   ----------------------------------------
        .byte   W06
@ 554   ----------------------------------------
        .byte   W04
        .byte           EOT   , Gn3
        .byte           N92   , Dn2 , v117 , gtp3
        .byte                   Bn2 , v072
        .byte           N92   , Fs3 , v072 , gtp3
        .byte   W02
@ 555   ----------------------------------------
        .byte   W06
@ 556   ----------------------------------------
        .byte   W06
@ 557   ----------------------------------------
        .byte   W06
@ 558   ----------------------------------------
        .byte   W06
@ 559   ----------------------------------------
        .byte   W06
@ 560   ----------------------------------------
        .byte   W06
@ 561   ----------------------------------------
        .byte   W06
@ 562   ----------------------------------------
        .byte   W04
        .byte           N44   , Bn3 , v072 , gtp3
        .byte   W02
@ 563   ----------------------------------------
        .byte   W06
@ 564   ----------------------------------------
        .byte   W06
@ 565   ----------------------------------------
        .byte   W06
@ 566   ----------------------------------------
        .byte   W06
@ 567   ----------------------------------------
        .byte   W06
@ 568   ----------------------------------------
        .byte   W06
@ 569   ----------------------------------------
        .byte   W06
@ 570   ----------------------------------------
        .byte   W04
        .byte           N96   , Cn2 , v117
        .byte           N96   , Gn3 , v072
        .byte           N96   , En3
        .byte           N96   , Bn2
        .byte   W02
@ 571   ----------------------------------------
        .byte   W06
@ 572   ----------------------------------------
        .byte   W06
@ 573   ----------------------------------------
        .byte   W06
@ 574   ----------------------------------------
        .byte   W06
@ 575   ----------------------------------------
        .byte   W06
@ 576   ----------------------------------------
        .byte   W06
@ 577   ----------------------------------------
        .byte   W06
@ 578   ----------------------------------------
        .byte   W06
@ 579   ----------------------------------------
        .byte   W06
@ 580   ----------------------------------------
        .byte   W06
@ 581   ----------------------------------------
        .byte   W06
@ 582   ----------------------------------------
        .byte   W06
@ 583   ----------------------------------------
        .byte   W06
@ 584   ----------------------------------------
        .byte   W06
@ 585   ----------------------------------------
        .byte   W06
@ 586   ----------------------------------------
        .byte   W06
@ 587   ----------------------------------------
        .byte   W06
@ 588   ----------------------------------------
        .byte   W06
@ 589   ----------------------------------------
        .byte   W06
@ 590   ----------------------------------------
        .byte   W06
@ 591   ----------------------------------------
        .byte   W06
@ 592   ----------------------------------------
        .byte   W06
@ 593   ----------------------------------------
        .byte   W06
@ 594   ----------------------------------------
        .byte   W06
@ 595   ----------------------------------------
        .byte   W06
@ 596   ----------------------------------------
        .byte   W06
@ 597   ----------------------------------------
        .byte   W06
@ 598   ----------------------------------------
        .byte   W06
@ 599   ----------------------------------------
        .byte   W06
@ 600   ----------------------------------------
        .byte   W06
@ 601   ----------------------------------------
        .byte   W06
@ 602   ----------------------------------------
        .byte   W06
@ 603   ----------------------------------------
        .byte   GOTO
         .word  neverendingdream000_7_LOOP
        .byte   FINE

@***************** Track 8 (Midi-Chn.12) ******************@

neverendingdream000_8:
        .byte   KEYSH , neverendingdream000_key+0
@ 000   ----------------------------------------
        .byte           VOICE , 46
        .byte   W03
        .byte           VOL   , 40
        .byte   W03
@ 001   ----------------------------------------
        .byte   W06
@ 002   ----------------------------------------
        .byte   W06
@ 003   ----------------------------------------
        .byte   W06
@ 004   ----------------------------------------
        .byte   W06
@ 005   ----------------------------------------
        .byte   W06
@ 006   ----------------------------------------
        .byte   W06
@ 007   ----------------------------------------
        .byte   W06
@ 008   ----------------------------------------
        .byte   W06
@ 009   ----------------------------------------
        .byte   W06
@ 010   ----------------------------------------
        .byte   W05
neverendingdream000_8_LOOP:
        .byte   W01
@ 011   ----------------------------------------
        .byte           N06   , En2 , v116
        .byte   W06
@ 012   ----------------------------------------
        .byte   W06
@ 013   ----------------------------------------
        .byte                   Bn2
        .byte   W06
@ 014   ----------------------------------------
        .byte   W06
@ 015   ----------------------------------------
        .byte                   Fs3
        .byte   W06
@ 016   ----------------------------------------
        .byte   W06
@ 017   ----------------------------------------
        .byte                   Gn3
        .byte   W06
@ 018   ----------------------------------------
        .byte   W06
@ 019   ----------------------------------------
        .byte   W06
@ 020   ----------------------------------------
        .byte   W06
@ 021   ----------------------------------------
        .byte   W06
@ 022   ----------------------------------------
        .byte   W06
@ 023   ----------------------------------------
        .byte   W06
@ 024   ----------------------------------------
        .byte   W06
@ 025   ----------------------------------------
        .byte   W06
@ 026   ----------------------------------------
        .byte   W06
@ 027   ----------------------------------------
        .byte                   Dn2
        .byte   W06
@ 028   ----------------------------------------
        .byte   W06
@ 029   ----------------------------------------
        .byte                   Bn2
        .byte   W06
@ 030   ----------------------------------------
        .byte   W06
@ 031   ----------------------------------------
        .byte                   Fs3
        .byte   W06
@ 032   ----------------------------------------
        .byte   W06
@ 033   ----------------------------------------
        .byte                   Bn3
        .byte   W06
@ 034   ----------------------------------------
        .byte   W06
@ 035   ----------------------------------------
        .byte   W06
@ 036   ----------------------------------------
        .byte   W06
@ 037   ----------------------------------------
        .byte   W06
@ 038   ----------------------------------------
        .byte   W06
@ 039   ----------------------------------------
        .byte   W06
@ 040   ----------------------------------------
        .byte   W06
@ 041   ----------------------------------------
        .byte   W06
@ 042   ----------------------------------------
        .byte   W06
@ 043   ----------------------------------------
        .byte                   Cn2
        .byte   W06
@ 044   ----------------------------------------
        .byte   W06
@ 045   ----------------------------------------
        .byte                   Gn2
        .byte   W06
@ 046   ----------------------------------------
        .byte   W06
@ 047   ----------------------------------------
        .byte                   Dn3
        .byte   W06
@ 048   ----------------------------------------
        .byte   W06
@ 049   ----------------------------------------
        .byte                   En3
        .byte   W06
@ 050   ----------------------------------------
        .byte   W06
@ 051   ----------------------------------------
        .byte   W06
@ 052   ----------------------------------------
        .byte   W06
@ 053   ----------------------------------------
        .byte   W06
@ 054   ----------------------------------------
        .byte   W06
@ 055   ----------------------------------------
        .byte   W06
@ 056   ----------------------------------------
        .byte   W06
@ 057   ----------------------------------------
        .byte   W06
@ 058   ----------------------------------------
        .byte   W06
@ 059   ----------------------------------------
        .byte                   Bn1
        .byte   W06
@ 060   ----------------------------------------
        .byte   W06
@ 061   ----------------------------------------
        .byte                   Gn2
        .byte   W06
@ 062   ----------------------------------------
        .byte   W06
@ 063   ----------------------------------------
        .byte                   Dn3
        .byte   W06
@ 064   ----------------------------------------
        .byte   W06
@ 065   ----------------------------------------
        .byte                   Gn3
        .byte   W06
@ 066   ----------------------------------------
        .byte   W06
@ 067   ----------------------------------------
        .byte   W06
@ 068   ----------------------------------------
        .byte   W06
@ 069   ----------------------------------------
        .byte   W06
@ 070   ----------------------------------------
        .byte   W06
@ 071   ----------------------------------------
        .byte   W06
@ 072   ----------------------------------------
        .byte   W06
@ 073   ----------------------------------------
        .byte   W06
@ 074   ----------------------------------------
        .byte   W06
@ 075   ----------------------------------------
        .byte                   An1
        .byte   W06
@ 076   ----------------------------------------
        .byte   W06
@ 077   ----------------------------------------
        .byte                   En2
        .byte   W06
@ 078   ----------------------------------------
        .byte   W06
@ 079   ----------------------------------------
        .byte                   Cn3
        .byte   W06
@ 080   ----------------------------------------
        .byte   W06
@ 081   ----------------------------------------
        .byte                   Gn3
        .byte   W06
@ 082   ----------------------------------------
        .byte   W06
@ 083   ----------------------------------------
        .byte   W06
@ 084   ----------------------------------------
        .byte   W06
@ 085   ----------------------------------------
        .byte   W06
@ 086   ----------------------------------------
        .byte   W06
@ 087   ----------------------------------------
        .byte   W06
@ 088   ----------------------------------------
        .byte   W06
@ 089   ----------------------------------------
        .byte   W06
@ 090   ----------------------------------------
        .byte   W06
@ 091   ----------------------------------------
        .byte                   Bn1
        .byte   W06
@ 092   ----------------------------------------
        .byte   W06
@ 093   ----------------------------------------
        .byte                   Gn2
        .byte   W06
@ 094   ----------------------------------------
        .byte   W06
@ 095   ----------------------------------------
        .byte                   Dn3
        .byte   W06
@ 096   ----------------------------------------
        .byte   W06
@ 097   ----------------------------------------
        .byte                   Gn3
        .byte   W06
@ 098   ----------------------------------------
        .byte   W06
@ 099   ----------------------------------------
        .byte   W06
@ 100   ----------------------------------------
        .byte   W06
@ 101   ----------------------------------------
        .byte   W06
@ 102   ----------------------------------------
        .byte   W06
@ 103   ----------------------------------------
        .byte   W06
@ 104   ----------------------------------------
        .byte   W06
@ 105   ----------------------------------------
        .byte   W06
@ 106   ----------------------------------------
        .byte   W06
@ 107   ----------------------------------------
        .byte                   Cn2
        .byte   W06
@ 108   ----------------------------------------
        .byte   W06
@ 109   ----------------------------------------
        .byte                   Gn2
        .byte   W06
@ 110   ----------------------------------------
        .byte   W06
@ 111   ----------------------------------------
        .byte                   Dn3
        .byte   W06
@ 112   ----------------------------------------
        .byte   W06
@ 113   ----------------------------------------
        .byte                   En3
        .byte   W06
@ 114   ----------------------------------------
        .byte   W06
@ 115   ----------------------------------------
        .byte   W06
@ 116   ----------------------------------------
        .byte   W06
@ 117   ----------------------------------------
        .byte   W06
@ 118   ----------------------------------------
        .byte   W06
@ 119   ----------------------------------------
        .byte   W06
@ 120   ----------------------------------------
        .byte   W06
@ 121   ----------------------------------------
        .byte   W06
@ 122   ----------------------------------------
        .byte   W06
@ 123   ----------------------------------------
        .byte                   Dn2
        .byte   W06
@ 124   ----------------------------------------
        .byte   W06
@ 125   ----------------------------------------
        .byte                   An2
        .byte   W06
@ 126   ----------------------------------------
        .byte   W06
@ 127   ----------------------------------------
        .byte                   En3
        .byte   W06
@ 128   ----------------------------------------
        .byte   W06
@ 129   ----------------------------------------
        .byte                   Fs3
        .byte   W06
@ 130   ----------------------------------------
        .byte   W06
@ 131   ----------------------------------------
        .byte   W06
@ 132   ----------------------------------------
        .byte   W06
@ 133   ----------------------------------------
        .byte   W06
@ 134   ----------------------------------------
        .byte   W06
@ 135   ----------------------------------------
        .byte   W06
@ 136   ----------------------------------------
        .byte   W06
@ 137   ----------------------------------------
        .byte   W06
@ 138   ----------------------------------------
        .byte   W06
@ 139   ----------------------------------------
        .byte                   En2
        .byte   W06
@ 140   ----------------------------------------
        .byte   W06
@ 141   ----------------------------------------
        .byte                   Bn2
        .byte   W06
@ 142   ----------------------------------------
        .byte   W06
@ 143   ----------------------------------------
        .byte                   Fs3
        .byte   W06
@ 144   ----------------------------------------
        .byte   W06
@ 145   ----------------------------------------
        .byte                   Gn3
        .byte   W06
@ 146   ----------------------------------------
        .byte   W06
@ 147   ----------------------------------------
        .byte   W06
@ 148   ----------------------------------------
        .byte   W06
@ 149   ----------------------------------------
        .byte   W06
@ 150   ----------------------------------------
        .byte   W06
@ 151   ----------------------------------------
        .byte   W06
@ 152   ----------------------------------------
        .byte   W06
@ 153   ----------------------------------------
        .byte   W06
@ 154   ----------------------------------------
        .byte   W06
@ 155   ----------------------------------------
        .byte                   Dn2
        .byte   W06
@ 156   ----------------------------------------
        .byte   W06
@ 157   ----------------------------------------
        .byte                   Bn2
        .byte   W06
@ 158   ----------------------------------------
        .byte   W06
@ 159   ----------------------------------------
        .byte                   Fs3
        .byte   W06
@ 160   ----------------------------------------
        .byte   W06
@ 161   ----------------------------------------
        .byte                   Bn3
        .byte   W06
@ 162   ----------------------------------------
        .byte   W06
@ 163   ----------------------------------------
        .byte   W06
@ 164   ----------------------------------------
        .byte   W06
@ 165   ----------------------------------------
        .byte   W06
@ 166   ----------------------------------------
        .byte   W06
@ 167   ----------------------------------------
        .byte   W06
@ 168   ----------------------------------------
        .byte   W06
@ 169   ----------------------------------------
        .byte   W06
@ 170   ----------------------------------------
        .byte   W06
@ 171   ----------------------------------------
        .byte                   Cn2
        .byte   W06
@ 172   ----------------------------------------
        .byte   W06
@ 173   ----------------------------------------
        .byte                   Gn2
        .byte   W06
@ 174   ----------------------------------------
        .byte   W06
@ 175   ----------------------------------------
        .byte                   Dn3
        .byte   W06
@ 176   ----------------------------------------
        .byte   W06
@ 177   ----------------------------------------
        .byte                   En3
        .byte   W06
@ 178   ----------------------------------------
        .byte   W06
@ 179   ----------------------------------------
        .byte   W06
@ 180   ----------------------------------------
        .byte   W06
@ 181   ----------------------------------------
        .byte   W06
@ 182   ----------------------------------------
        .byte   W06
@ 183   ----------------------------------------
        .byte   W06
@ 184   ----------------------------------------
        .byte   W06
@ 185   ----------------------------------------
        .byte   W06
@ 186   ----------------------------------------
        .byte   W06
@ 187   ----------------------------------------
        .byte                   Bn1
        .byte   W06
@ 188   ----------------------------------------
        .byte   W06
@ 189   ----------------------------------------
        .byte                   Gn2
        .byte   W06
@ 190   ----------------------------------------
        .byte   W06
@ 191   ----------------------------------------
        .byte                   Dn3
        .byte   W06
@ 192   ----------------------------------------
        .byte   W06
@ 193   ----------------------------------------
        .byte                   Gn3
        .byte   W06
@ 194   ----------------------------------------
        .byte   W06
@ 195   ----------------------------------------
        .byte   W06
@ 196   ----------------------------------------
        .byte   W06
@ 197   ----------------------------------------
        .byte   W06
@ 198   ----------------------------------------
        .byte   W06
@ 199   ----------------------------------------
        .byte   W06
@ 200   ----------------------------------------
        .byte   W06
@ 201   ----------------------------------------
        .byte   W06
@ 202   ----------------------------------------
        .byte   W06
@ 203   ----------------------------------------
        .byte                   An1
        .byte   W06
@ 204   ----------------------------------------
        .byte   W06
@ 205   ----------------------------------------
        .byte                   En2
        .byte   W06
@ 206   ----------------------------------------
        .byte   W06
@ 207   ----------------------------------------
        .byte                   Cn3
        .byte   W06
@ 208   ----------------------------------------
        .byte   W06
@ 209   ----------------------------------------
        .byte                   Gn3
        .byte   W06
@ 210   ----------------------------------------
        .byte   W06
@ 211   ----------------------------------------
        .byte   W06
@ 212   ----------------------------------------
        .byte   W06
@ 213   ----------------------------------------
        .byte   W06
@ 214   ----------------------------------------
        .byte   W06
@ 215   ----------------------------------------
        .byte   W06
@ 216   ----------------------------------------
        .byte   W06
@ 217   ----------------------------------------
        .byte   W06
@ 218   ----------------------------------------
        .byte   W06
@ 219   ----------------------------------------
        .byte                   Bn1
        .byte   W06
@ 220   ----------------------------------------
        .byte   W06
@ 221   ----------------------------------------
        .byte                   Gn2
        .byte   W06
@ 222   ----------------------------------------
        .byte   W06
@ 223   ----------------------------------------
        .byte                   Dn3
        .byte   W06
@ 224   ----------------------------------------
        .byte   W06
@ 225   ----------------------------------------
        .byte                   Gn3
        .byte   W06
@ 226   ----------------------------------------
        .byte   W06
@ 227   ----------------------------------------
        .byte   W06
@ 228   ----------------------------------------
        .byte   W06
@ 229   ----------------------------------------
        .byte   W06
@ 230   ----------------------------------------
        .byte   W06
@ 231   ----------------------------------------
        .byte   W06
@ 232   ----------------------------------------
        .byte   W06
@ 233   ----------------------------------------
        .byte   W06
@ 234   ----------------------------------------
        .byte   W06
@ 235   ----------------------------------------
        .byte                   Cn2
        .byte   W06
@ 236   ----------------------------------------
        .byte   W06
@ 237   ----------------------------------------
        .byte                   Gn2
        .byte   W06
@ 238   ----------------------------------------
        .byte   W06
@ 239   ----------------------------------------
        .byte                   Dn3
        .byte   W06
@ 240   ----------------------------------------
        .byte   W06
@ 241   ----------------------------------------
        .byte                   En3
        .byte   W06
@ 242   ----------------------------------------
        .byte   W06
@ 243   ----------------------------------------
        .byte   W06
@ 244   ----------------------------------------
        .byte   W06
@ 245   ----------------------------------------
        .byte   W06
@ 246   ----------------------------------------
        .byte   W06
@ 247   ----------------------------------------
        .byte   W06
@ 248   ----------------------------------------
        .byte   W06
@ 249   ----------------------------------------
        .byte   W06
@ 250   ----------------------------------------
        .byte   W06
@ 251   ----------------------------------------
        .byte                   Dn2
        .byte   W06
@ 252   ----------------------------------------
        .byte   W06
@ 253   ----------------------------------------
        .byte                   An2
        .byte   W06
@ 254   ----------------------------------------
        .byte   W06
@ 255   ----------------------------------------
        .byte                   En3
        .byte   W06
@ 256   ----------------------------------------
        .byte   W06
@ 257   ----------------------------------------
        .byte                   Fs3
        .byte   W06
@ 258   ----------------------------------------
        .byte   W06
@ 259   ----------------------------------------
        .byte   W06
@ 260   ----------------------------------------
        .byte   W06
@ 261   ----------------------------------------
        .byte   W06
@ 262   ----------------------------------------
        .byte   W06
@ 263   ----------------------------------------
        .byte   W06
@ 264   ----------------------------------------
        .byte   W06
@ 265   ----------------------------------------
        .byte   W06
@ 266   ----------------------------------------
        .byte   W06
@ 267   ----------------------------------------
        .byte   W06
@ 268   ----------------------------------------
        .byte   W06
@ 269   ----------------------------------------
        .byte   W06
@ 270   ----------------------------------------
        .byte   W06
@ 271   ----------------------------------------
        .byte   W06
@ 272   ----------------------------------------
        .byte   W06
@ 273   ----------------------------------------
        .byte   W06
@ 274   ----------------------------------------
        .byte   W06
@ 275   ----------------------------------------
        .byte   W06
@ 276   ----------------------------------------
        .byte   W06
@ 277   ----------------------------------------
        .byte   W06
@ 278   ----------------------------------------
        .byte   W06
@ 279   ----------------------------------------
        .byte   W06
@ 280   ----------------------------------------
        .byte   W06
@ 281   ----------------------------------------
        .byte   W06
@ 282   ----------------------------------------
        .byte   W06
@ 283   ----------------------------------------
        .byte           N18   , Gn1 , v121
        .byte   W06
@ 284   ----------------------------------------
        .byte   W06
@ 285   ----------------------------------------
        .byte           N12   , Dn2 , v111
        .byte   W06
@ 286   ----------------------------------------
        .byte   W06
@ 287   ----------------------------------------
        .byte                   An2
        .byte   W06
@ 288   ----------------------------------------
        .byte   W06
@ 289   ----------------------------------------
        .byte                   Bn2
        .byte   W06
@ 290   ----------------------------------------
        .byte   W06
@ 291   ----------------------------------------
        .byte                   Dn3
        .byte   W06
@ 292   ----------------------------------------
        .byte   W06
@ 293   ----------------------------------------
        .byte                   Gn3
        .byte   W06
@ 294   ----------------------------------------
        .byte   W06
@ 295   ----------------------------------------
        .byte                   An3
        .byte   W06
@ 296   ----------------------------------------
        .byte   W06
@ 297   ----------------------------------------
        .byte                   Bn3
        .byte   W06
@ 298   ----------------------------------------
        .byte   W06
@ 299   ----------------------------------------
        .byte           N18   , Gn1 , v121
        .byte   W06
@ 300   ----------------------------------------
        .byte   W06
@ 301   ----------------------------------------
        .byte           N12   , Dn2 , v111
        .byte   W06
@ 302   ----------------------------------------
        .byte   W06
@ 303   ----------------------------------------
        .byte                   An2
        .byte   W06
@ 304   ----------------------------------------
        .byte   W06
@ 305   ----------------------------------------
        .byte                   Bn2
        .byte   W06
@ 306   ----------------------------------------
        .byte   W06
@ 307   ----------------------------------------
        .byte                   Dn3
        .byte   W06
@ 308   ----------------------------------------
        .byte   W06
@ 309   ----------------------------------------
        .byte                   Gn3
        .byte   W06
@ 310   ----------------------------------------
        .byte   W06
@ 311   ----------------------------------------
        .byte                   An3
        .byte   W06
@ 312   ----------------------------------------
        .byte   W06
@ 313   ----------------------------------------
        .byte                   Bn3
        .byte   W06
@ 314   ----------------------------------------
        .byte   W06
@ 315   ----------------------------------------
        .byte           N18   , Fs1 , v121
        .byte   W06
@ 316   ----------------------------------------
        .byte   W06
@ 317   ----------------------------------------
        .byte           N12   , En2 , v111
        .byte   W06
@ 318   ----------------------------------------
        .byte   W06
@ 319   ----------------------------------------
        .byte                   Fs2
        .byte   W06
@ 320   ----------------------------------------
        .byte   W06
@ 321   ----------------------------------------
        .byte                   An2
        .byte   W06
@ 322   ----------------------------------------
        .byte   W06
@ 323   ----------------------------------------
        .byte                   Bn2
        .byte   W06
@ 324   ----------------------------------------
        .byte   W06
@ 325   ----------------------------------------
        .byte                   En3
        .byte   W06
@ 326   ----------------------------------------
        .byte   W06
@ 327   ----------------------------------------
        .byte                   Fs3
        .byte   W06
@ 328   ----------------------------------------
        .byte   W06
@ 329   ----------------------------------------
        .byte                   An3
        .byte   W06
@ 330   ----------------------------------------
        .byte   W06
@ 331   ----------------------------------------
        .byte           N18   , Bn1 , v121
        .byte   W06
@ 332   ----------------------------------------
        .byte   W06
@ 333   ----------------------------------------
        .byte           N12   , Fs2 , v111
        .byte   W06
@ 334   ----------------------------------------
        .byte   W06
@ 335   ----------------------------------------
        .byte                   Bn2
        .byte   W06
@ 336   ----------------------------------------
        .byte   W06
@ 337   ----------------------------------------
        .byte                   Cs3
        .byte   W06
@ 338   ----------------------------------------
        .byte   W06
@ 339   ----------------------------------------
        .byte                   Ds3
        .byte   W06
@ 340   ----------------------------------------
        .byte   W06
@ 341   ----------------------------------------
        .byte                   Fs3
        .byte   W06
@ 342   ----------------------------------------
        .byte   W06
@ 343   ----------------------------------------
        .byte                   An3
        .byte   W06
@ 344   ----------------------------------------
        .byte   W06
@ 345   ----------------------------------------
        .byte                   Bn3
        .byte   W06
@ 346   ----------------------------------------
        .byte   W06
@ 347   ----------------------------------------
        .byte           N18   , En1 , v121
        .byte   W06
@ 348   ----------------------------------------
        .byte   W06
@ 349   ----------------------------------------
        .byte           N12   , Bn1 , v111
        .byte   W06
@ 350   ----------------------------------------
        .byte   W06
@ 351   ----------------------------------------
        .byte                   Fs2
        .byte   W06
@ 352   ----------------------------------------
        .byte   W06
@ 353   ----------------------------------------
        .byte                   Gn2
        .byte   W06
@ 354   ----------------------------------------
        .byte   W06
@ 355   ----------------------------------------
        .byte                   Bn2
        .byte   W06
@ 356   ----------------------------------------
        .byte   W06
@ 357   ----------------------------------------
        .byte                   En3
        .byte   W06
@ 358   ----------------------------------------
        .byte   W06
@ 359   ----------------------------------------
        .byte                   Fs3
        .byte   W06
@ 360   ----------------------------------------
        .byte   W06
@ 361   ----------------------------------------
        .byte                   Gn3
        .byte   W06
@ 362   ----------------------------------------
        .byte   W06
@ 363   ----------------------------------------
        .byte           N18   , Dn1 , v121
        .byte   W06
@ 364   ----------------------------------------
        .byte   W06
@ 365   ----------------------------------------
        .byte           N12   , Bn1 , v111
        .byte   W06
@ 366   ----------------------------------------
        .byte   W06
@ 367   ----------------------------------------
        .byte                   En2
        .byte   W06
@ 368   ----------------------------------------
        .byte   W06
@ 369   ----------------------------------------
        .byte                   Fs2
        .byte   W06
@ 370   ----------------------------------------
        .byte   W06
@ 371   ----------------------------------------
        .byte                   Bn2
        .byte   W06
@ 372   ----------------------------------------
        .byte   W06
@ 373   ----------------------------------------
        .byte                   En3
        .byte   W06
@ 374   ----------------------------------------
        .byte   W06
@ 375   ----------------------------------------
        .byte                   Fs3
        .byte   W06
@ 376   ----------------------------------------
        .byte   W06
@ 377   ----------------------------------------
        .byte                   Gn3
        .byte   W06
@ 378   ----------------------------------------
        .byte   W06
@ 379   ----------------------------------------
        .byte           N18   , Cn1 , v121
        .byte   W06
@ 380   ----------------------------------------
        .byte   W06
@ 381   ----------------------------------------
        .byte           N12   , Gn1 , v111
        .byte   W06
@ 382   ----------------------------------------
        .byte   W06
@ 383   ----------------------------------------
        .byte                   Dn2
        .byte   W06
@ 384   ----------------------------------------
        .byte   W06
@ 385   ----------------------------------------
        .byte                   En2
        .byte   W06
@ 386   ----------------------------------------
        .byte   W06
@ 387   ----------------------------------------
        .byte                   Gn2
        .byte   W06
@ 388   ----------------------------------------
        .byte   W06
@ 389   ----------------------------------------
        .byte                   Cn3
        .byte   W06
@ 390   ----------------------------------------
        .byte   W06
@ 391   ----------------------------------------
        .byte                   Dn3
        .byte   W06
@ 392   ----------------------------------------
        .byte   W06
@ 393   ----------------------------------------
        .byte                   En3
        .byte   W06
@ 394   ----------------------------------------
        .byte   W06
@ 395   ----------------------------------------
        .byte           N18   , Dn1 , v121
        .byte   W06
@ 396   ----------------------------------------
        .byte   W06
@ 397   ----------------------------------------
        .byte           N12   , An1 , v111
        .byte   W06
@ 398   ----------------------------------------
        .byte   W06
@ 399   ----------------------------------------
        .byte                   En2
        .byte   W06
@ 400   ----------------------------------------
        .byte   W06
@ 401   ----------------------------------------
        .byte                   Fs2
        .byte   W06
@ 402   ----------------------------------------
        .byte   W06
@ 403   ----------------------------------------
        .byte                   An2
        .byte   W06
@ 404   ----------------------------------------
        .byte   W06
@ 405   ----------------------------------------
        .byte                   Dn3
        .byte   W06
@ 406   ----------------------------------------
        .byte   W06
@ 407   ----------------------------------------
        .byte                   En3
        .byte   W06
@ 408   ----------------------------------------
        .byte   W06
@ 409   ----------------------------------------
        .byte                   Fs3
        .byte   W06
@ 410   ----------------------------------------
        .byte   W06
@ 411   ----------------------------------------
        .byte           N18   , Gn1 , v121
        .byte   W06
@ 412   ----------------------------------------
        .byte   W06
@ 413   ----------------------------------------
        .byte           N12   , Dn2 , v111
        .byte   W06
@ 414   ----------------------------------------
        .byte   W06
@ 415   ----------------------------------------
        .byte                   An2
        .byte   W06
@ 416   ----------------------------------------
        .byte   W06
@ 417   ----------------------------------------
        .byte                   Bn2
        .byte   W06
@ 418   ----------------------------------------
        .byte   W06
@ 419   ----------------------------------------
        .byte                   Dn3
        .byte   W06
@ 420   ----------------------------------------
        .byte   W06
@ 421   ----------------------------------------
        .byte                   Gn3
        .byte   W06
@ 422   ----------------------------------------
        .byte   W06
@ 423   ----------------------------------------
        .byte                   An3
        .byte   W06
@ 424   ----------------------------------------
        .byte   W06
@ 425   ----------------------------------------
        .byte                   Bn3
        .byte   W06
@ 426   ----------------------------------------
        .byte   W06
@ 427   ----------------------------------------
        .byte           N18   , Gn1 , v121
        .byte   W06
@ 428   ----------------------------------------
        .byte   W06
@ 429   ----------------------------------------
        .byte           N12   , Dn2 , v111
        .byte   W06
@ 430   ----------------------------------------
        .byte   W06
@ 431   ----------------------------------------
        .byte                   An2
        .byte   W06
@ 432   ----------------------------------------
        .byte   W06
@ 433   ----------------------------------------
        .byte                   Bn2
        .byte   W06
@ 434   ----------------------------------------
        .byte   W06
@ 435   ----------------------------------------
        .byte                   Dn3
        .byte   W06
@ 436   ----------------------------------------
        .byte   W06
@ 437   ----------------------------------------
        .byte                   Gn3
        .byte   W06
@ 438   ----------------------------------------
        .byte   W06
@ 439   ----------------------------------------
        .byte                   An3
        .byte   W06
@ 440   ----------------------------------------
        .byte   W06
@ 441   ----------------------------------------
        .byte                   Bn3
        .byte   W06
@ 442   ----------------------------------------
        .byte   W06
@ 443   ----------------------------------------
        .byte           N18   , Fs1 , v121
        .byte   W06
@ 444   ----------------------------------------
        .byte   W06
@ 445   ----------------------------------------
        .byte           N12   , En2 , v111
        .byte   W06
@ 446   ----------------------------------------
        .byte   W06
@ 447   ----------------------------------------
        .byte                   Fs2
        .byte   W06
@ 448   ----------------------------------------
        .byte   W06
@ 449   ----------------------------------------
        .byte                   An2
        .byte   W06
@ 450   ----------------------------------------
        .byte   W06
@ 451   ----------------------------------------
        .byte                   Bn2
        .byte   W06
@ 452   ----------------------------------------
        .byte   W06
@ 453   ----------------------------------------
        .byte                   En3
        .byte   W06
@ 454   ----------------------------------------
        .byte   W06
@ 455   ----------------------------------------
        .byte                   Fs3
        .byte   W06
@ 456   ----------------------------------------
        .byte   W06
@ 457   ----------------------------------------
        .byte                   An3
        .byte   W06
@ 458   ----------------------------------------
        .byte   W06
@ 459   ----------------------------------------
        .byte           N18   , Bn1 , v121
        .byte   W06
@ 460   ----------------------------------------
        .byte   W06
@ 461   ----------------------------------------
        .byte           N12   , Fs2 , v111
        .byte   W06
@ 462   ----------------------------------------
        .byte   W06
@ 463   ----------------------------------------
        .byte                   Bn2
        .byte   W06
@ 464   ----------------------------------------
        .byte   W06
@ 465   ----------------------------------------
        .byte                   Cs3
        .byte   W06
@ 466   ----------------------------------------
        .byte   W06
@ 467   ----------------------------------------
        .byte                   Ds3
        .byte   W06
@ 468   ----------------------------------------
        .byte   W06
@ 469   ----------------------------------------
        .byte                   Fs3
        .byte   W06
@ 470   ----------------------------------------
        .byte   W06
@ 471   ----------------------------------------
        .byte                   An3
        .byte   W06
@ 472   ----------------------------------------
        .byte   W06
@ 473   ----------------------------------------
        .byte                   Bn3
        .byte   W06
@ 474   ----------------------------------------
        .byte   W06
@ 475   ----------------------------------------
        .byte           N18   , En1 , v121
        .byte   W06
@ 476   ----------------------------------------
        .byte   W06
@ 477   ----------------------------------------
        .byte           N12   , Bn1 , v111
        .byte   W06
@ 478   ----------------------------------------
        .byte   W06
@ 479   ----------------------------------------
        .byte                   En2
        .byte   W06
@ 480   ----------------------------------------
        .byte   W06
@ 481   ----------------------------------------
        .byte                   Fs2
        .byte   W06
@ 482   ----------------------------------------
        .byte   W06
@ 483   ----------------------------------------
        .byte                   Gn2
        .byte   W06
@ 484   ----------------------------------------
        .byte   W06
@ 485   ----------------------------------------
        .byte                   Bn2
        .byte   W06
@ 486   ----------------------------------------
        .byte   W06
@ 487   ----------------------------------------
        .byte                   En3
        .byte   W06
@ 488   ----------------------------------------
        .byte   W06
@ 489   ----------------------------------------
        .byte                   Fs3
        .byte   W06
@ 490   ----------------------------------------
        .byte   W06
@ 491   ----------------------------------------
        .byte           N18   , Dn1 , v121
        .byte   W06
@ 492   ----------------------------------------
        .byte   W06
@ 493   ----------------------------------------
        .byte           N12   , Bn1 , v111
        .byte   W06
@ 494   ----------------------------------------
        .byte   W06
@ 495   ----------------------------------------
        .byte                   En2
        .byte   W06
@ 496   ----------------------------------------
        .byte   W06
@ 497   ----------------------------------------
        .byte                   Fs2
        .byte   W06
@ 498   ----------------------------------------
        .byte   W06
@ 499   ----------------------------------------
        .byte                   Gn2
        .byte   W06
@ 500   ----------------------------------------
        .byte   W06
@ 501   ----------------------------------------
        .byte                   Bn2
        .byte   W06
@ 502   ----------------------------------------
        .byte   W06
@ 503   ----------------------------------------
        .byte                   En3
        .byte   W06
@ 504   ----------------------------------------
        .byte   W06
@ 505   ----------------------------------------
        .byte                   Fs3
        .byte   W06
@ 506   ----------------------------------------
        .byte   W06
@ 507   ----------------------------------------
        .byte           N18   , Cn1 , v121
        .byte   W06
@ 508   ----------------------------------------
        .byte   W06
@ 509   ----------------------------------------
        .byte           N12   , Gn1 , v111
        .byte   W06
@ 510   ----------------------------------------
        .byte   W06
@ 511   ----------------------------------------
        .byte                   Dn2
        .byte   W06
@ 512   ----------------------------------------
        .byte   W06
@ 513   ----------------------------------------
        .byte                   En2
        .byte   W06
@ 514   ----------------------------------------
        .byte   W06
@ 515   ----------------------------------------
        .byte                   Gn2
        .byte   W06
@ 516   ----------------------------------------
        .byte   W06
@ 517   ----------------------------------------
        .byte                   Dn3
        .byte   W06
@ 518   ----------------------------------------
        .byte   W06
@ 519   ----------------------------------------
        .byte                   En3
        .byte   W06
@ 520   ----------------------------------------
        .byte   W06
@ 521   ----------------------------------------
        .byte                   Gn3
        .byte   W06
@ 522   ----------------------------------------
        .byte   W06
@ 523   ----------------------------------------
        .byte           N18   , Cn1 , v121
        .byte   W06
@ 524   ----------------------------------------
        .byte   W06
@ 525   ----------------------------------------
        .byte           N12   , Gn1 , v111
        .byte   W06
@ 526   ----------------------------------------
        .byte   W06
@ 527   ----------------------------------------
        .byte                   Cn2
        .byte   W06
@ 528   ----------------------------------------
        .byte   W06
@ 529   ----------------------------------------
        .byte                   Ds2
        .byte   W06
@ 530   ----------------------------------------
        .byte   W06
@ 531   ----------------------------------------
        .byte                   Gn2
        .byte   W06
@ 532   ----------------------------------------
        .byte   W06
@ 533   ----------------------------------------
        .byte                   Cn3
        .byte   W06
@ 534   ----------------------------------------
        .byte   W06
@ 535   ----------------------------------------
        .byte                   Ds3
        .byte   W06
@ 536   ----------------------------------------
        .byte   W06
@ 537   ----------------------------------------
        .byte                   Gn3
        .byte   W06
@ 538   ----------------------------------------
        .byte   W06
@ 539   ----------------------------------------
        .byte           N18   , En1 , v121
        .byte   W06
@ 540   ----------------------------------------
        .byte   W06
@ 541   ----------------------------------------
        .byte           N12   , Bn1 , v111
        .byte   W06
@ 542   ----------------------------------------
        .byte   W06
@ 543   ----------------------------------------
        .byte                   Fs2
        .byte   W06
@ 544   ----------------------------------------
        .byte   W06
@ 545   ----------------------------------------
        .byte                   Gn2
        .byte   W06
@ 546   ----------------------------------------
        .byte   W06
@ 547   ----------------------------------------
        .byte                   Bn2
        .byte   W06
@ 548   ----------------------------------------
        .byte   W06
@ 549   ----------------------------------------
        .byte                   En3
        .byte   W06
@ 550   ----------------------------------------
        .byte   W06
@ 551   ----------------------------------------
        .byte                   Fs3
        .byte   W06
@ 552   ----------------------------------------
        .byte   W06
@ 553   ----------------------------------------
        .byte                   Gn3
        .byte   W06
@ 554   ----------------------------------------
        .byte   W06
@ 555   ----------------------------------------
        .byte           N18   , Dn1 , v121
        .byte   W06
@ 556   ----------------------------------------
        .byte   W06
@ 557   ----------------------------------------
        .byte           N12   , Bn1 , v111
        .byte   W06
@ 558   ----------------------------------------
        .byte   W06
@ 559   ----------------------------------------
        .byte                   Fs2
        .byte   W06
@ 560   ----------------------------------------
        .byte   W06
@ 561   ----------------------------------------
        .byte                   Bn2
        .byte   W06
@ 562   ----------------------------------------
        .byte   W06
@ 563   ----------------------------------------
        .byte                   Dn3
        .byte   W06
@ 564   ----------------------------------------
        .byte   W06
@ 565   ----------------------------------------
        .byte                   Fs3
        .byte   W06
@ 566   ----------------------------------------
        .byte   W06
@ 567   ----------------------------------------
        .byte                   Bn3
        .byte   W06
@ 568   ----------------------------------------
        .byte   W06
@ 569   ----------------------------------------
        .byte                   Dn4
        .byte   W06
@ 570   ----------------------------------------
        .byte   W06
@ 571   ----------------------------------------
        .byte           N18   , Cn1 , v121
        .byte   W06
@ 572   ----------------------------------------
        .byte   W06
@ 573   ----------------------------------------
        .byte           N12   , Gn1 , v111
        .byte   W06
@ 574   ----------------------------------------
        .byte   W06
@ 575   ----------------------------------------
        .byte                   Dn2
        .byte   W06
@ 576   ----------------------------------------
        .byte   W06
@ 577   ----------------------------------------
        .byte                   En2
        .byte   W06
@ 578   ----------------------------------------
        .byte   W06
@ 579   ----------------------------------------
        .byte                   Gn2
        .byte   W06
@ 580   ----------------------------------------
        .byte   W06
@ 581   ----------------------------------------
        .byte                   Cn3
        .byte   W06
@ 582   ----------------------------------------
        .byte   W06
@ 583   ----------------------------------------
        .byte                   Dn3
        .byte   W06
@ 584   ----------------------------------------
        .byte   W06
@ 585   ----------------------------------------
        .byte                   Gn3
        .byte   W06
@ 586   ----------------------------------------
        .byte   W06
@ 587   ----------------------------------------
        .byte           N48   , Cn3
        .byte           N48   , Cn4
        .byte   W03
        .byte           N44   , Dn3 , v111 , gtp1
        .byte                   Dn4
        .byte   W03
@ 588   ----------------------------------------
        .byte           N42   , Gn3
        .byte           N42   , Gn4
        .byte   W06
@ 589   ----------------------------------------
        .byte   PATT
         .word  neverendingdream000_5_590
@ 590   ----------------------------------------
        .byte   PATT
         .word  neverendingdream000_5_591
@ 591   ----------------------------------------
        .byte   PATT
         .word  neverendingdream000_5_592
@ 592   ----------------------------------------
        .byte   PATT
         .word  neverendingdream000_5_593
@ 593   ----------------------------------------
        .byte           VOL   , 0
        .byte   W06
@ 594   ----------------------------------------
        .byte   W06
@ 595   ----------------------------------------
        .byte   W06
@ 596   ----------------------------------------
        .byte   W06
@ 597   ----------------------------------------
        .byte   W06
@ 598   ----------------------------------------
        .byte   W06
@ 599   ----------------------------------------
        .byte                   40
        .byte   W06
@ 600   ----------------------------------------
        .byte   W06
@ 601   ----------------------------------------
        .byte   W06
@ 602   ----------------------------------------
        .byte   W06
@ 603   ----------------------------------------
        .byte   GOTO
         .word  neverendingdream000_8_LOOP
        .byte   FINE


@********************** End of Song ***********************@

        .align  2
neverendingdream000:
        .byte   9                       @ Num Tracks
        .byte   0                       @ Unknown
        .byte   neverendingdream000_pri @ Priority
        .byte   neverendingdream000_rev @ Reverb

        .word   neverendingdream000_grp

        .word   neverendingdream000_0
        .word   neverendingdream000_1
        .word   neverendingdream000_2
        .word   neverendingdream000_3
        .word   neverendingdream000_4
        .word   neverendingdream000_5
        .word   neverendingdream000_6
        .word   neverendingdream000_7
        .word   neverendingdream000_8

        .end
