        .include "MPlayDef.s"

        .equ    VengefulGodInDarkOceanAbyss000000_grp, voicegroup000
        .equ    VengefulGodInDarkOceanAbyss000000_pri, 0
        .equ    VengefulGodInDarkOceanAbyss000000_rev, 0
        .equ    VengefulGodInDarkOceanAbyss000000_key, 0

        .section .rodata
        .global VengefulGodInDarkOceanAbyss000000
        .align  2

@****************** Track 0 (Midi-Chn.0) ******************@

VengefulGodInDarkOceanAbyss000000_0:
        .byte   KEYSH , VengefulGodInDarkOceanAbyss000000_key+0
@ 000   ----------------------------------------
        .byte   TEMPO , 116/2
VengefulGodInDarkOceanAbyss000000_0_LOOP:
        .byte           VOICE , 4
        .byte           VOL   , 11
        .byte           PAN   , c_v-17
        .byte           N32   , Fs4 , v120 , gtp3
        .byte   W12
        .byte           N28   , Gn4 , v105 , gtp1
        .byte   W12
        .byte                   Bn4 , v115
        .byte   W12
        .byte           N32   , En4 , v115 , gtp3
        .byte   W12
        .byte           N28   , Gn4 , v105 , gtp1
        .byte   W12
        .byte           N23   , Bn4 , v117
        .byte   W12
        .byte           N17   , Fs4 , v120
        .byte   W12
        .byte           N05   , Gn4 , v105
        .byte   W12
@ 001   ----------------------------------------
VengefulGodInDarkOceanAbyss000000_0_1:
        .byte           N32   , Fs4 , v126 , gtp3
        .byte   W12
        .byte           N28   , Gn4 , v110 , gtp1
        .byte   W12
        .byte                   Bn4 , v116
        .byte   W12
        .byte           N32   , En4 , v118 , gtp3
        .byte   W12
        .byte           N28   , Gn4 , v110 , gtp1
        .byte   W12
        .byte           N23   , Bn4 , v107
        .byte   W12
        .byte           N17   , Fs4 , v120
        .byte   W12
        .byte           N05   , Gn4 , v106
        .byte   W12
        .byte   PEND
@ 002   ----------------------------------------
VengefulGodInDarkOceanAbyss000000_0_2:
        .byte           N32   , Fs4 , v120 , gtp3
        .byte   W12
        .byte           N28   , Gn4 , v105 , gtp1
        .byte   W12
        .byte                   Bn4 , v115
        .byte   W12
        .byte           N32   , En4 , v115 , gtp3
        .byte   W12
        .byte           N28   , Gn4 , v105 , gtp1
        .byte   W12
        .byte           N23   , Bn4 , v117
        .byte   W12
        .byte           N17   , Fs4 , v120
        .byte   W12
        .byte           N05   , Gn4 , v105
        .byte   W12
        .byte   PEND
@ 003   ----------------------------------------
        .byte   PATT
         .word  VengefulGodInDarkOceanAbyss000000_0_1
@ 004   ----------------------------------------
        .byte   PATT
         .word  VengefulGodInDarkOceanAbyss000000_0_2
@ 005   ----------------------------------------
        .byte   PATT
         .word  VengefulGodInDarkOceanAbyss000000_0_1
@ 006   ----------------------------------------
        .byte   PATT
         .word  VengefulGodInDarkOceanAbyss000000_0_2
@ 007   ----------------------------------------
        .byte   PATT
         .word  VengefulGodInDarkOceanAbyss000000_0_1
@ 008   ----------------------------------------
        .byte   PATT
         .word  VengefulGodInDarkOceanAbyss000000_0_2
@ 009   ----------------------------------------
        .byte   PATT
         .word  VengefulGodInDarkOceanAbyss000000_0_1
@ 010   ----------------------------------------
        .byte   PATT
         .word  VengefulGodInDarkOceanAbyss000000_0_2
@ 011   ----------------------------------------
        .byte   PATT
         .word  VengefulGodInDarkOceanAbyss000000_0_1
@ 012   ----------------------------------------
        .byte   PATT
         .word  VengefulGodInDarkOceanAbyss000000_0_2
@ 013   ----------------------------------------
        .byte   PATT
         .word  VengefulGodInDarkOceanAbyss000000_0_1
@ 014   ----------------------------------------
        .byte   PATT
         .word  VengefulGodInDarkOceanAbyss000000_0_2
@ 015   ----------------------------------------
        .byte   PATT
         .word  VengefulGodInDarkOceanAbyss000000_0_1
@ 016   ----------------------------------------
        .byte   PATT
         .word  VengefulGodInDarkOceanAbyss000000_0_2
@ 017   ----------------------------------------
        .byte   PATT
         .word  VengefulGodInDarkOceanAbyss000000_0_1
@ 018   ----------------------------------------
        .byte   PATT
         .word  VengefulGodInDarkOceanAbyss000000_0_2
@ 019   ----------------------------------------
        .byte   PATT
         .word  VengefulGodInDarkOceanAbyss000000_0_1
@ 020   ----------------------------------------
        .byte   PATT
         .word  VengefulGodInDarkOceanAbyss000000_0_2
@ 021   ----------------------------------------
        .byte   PATT
         .word  VengefulGodInDarkOceanAbyss000000_0_1
@ 022   ----------------------------------------
        .byte   PATT
         .word  VengefulGodInDarkOceanAbyss000000_0_2
@ 023   ----------------------------------------
        .byte   PATT
         .word  VengefulGodInDarkOceanAbyss000000_0_1
@ 024   ----------------------------------------
        .byte   PATT
         .word  VengefulGodInDarkOceanAbyss000000_0_2
@ 025   ----------------------------------------
        .byte   PATT
         .word  VengefulGodInDarkOceanAbyss000000_0_1
@ 026   ----------------------------------------
        .byte   PATT
         .word  VengefulGodInDarkOceanAbyss000000_0_2
@ 027   ----------------------------------------
        .byte   PATT
         .word  VengefulGodInDarkOceanAbyss000000_0_1
@ 028   ----------------------------------------
        .byte   PATT
         .word  VengefulGodInDarkOceanAbyss000000_0_2
@ 029   ----------------------------------------
        .byte   PATT
         .word  VengefulGodInDarkOceanAbyss000000_0_1
@ 030   ----------------------------------------
        .byte   PATT
         .word  VengefulGodInDarkOceanAbyss000000_0_2
@ 031   ----------------------------------------
        .byte   PATT
         .word  VengefulGodInDarkOceanAbyss000000_0_1
@ 032   ----------------------------------------
        .byte   PATT
         .word  VengefulGodInDarkOceanAbyss000000_0_2
@ 033   ----------------------------------------
        .byte   PATT
         .word  VengefulGodInDarkOceanAbyss000000_0_1
@ 034   ----------------------------------------
        .byte   PATT
         .word  VengefulGodInDarkOceanAbyss000000_0_2
@ 035   ----------------------------------------
        .byte   PATT
         .word  VengefulGodInDarkOceanAbyss000000_0_1
@ 036   ----------------------------------------
        .byte   PATT
         .word  VengefulGodInDarkOceanAbyss000000_0_2
@ 037   ----------------------------------------
        .byte   PATT
         .word  VengefulGodInDarkOceanAbyss000000_0_1
@ 038   ----------------------------------------
        .byte   PATT
         .word  VengefulGodInDarkOceanAbyss000000_0_2
@ 039   ----------------------------------------
        .byte           N32   , Fs4 , v115 , gtp3
        .byte   W12
        .byte           N28   , Gn4 , v099 , gtp1
        .byte   W12
        .byte                   Bn4 , v105
        .byte   W12
        .byte           N32   , En4 , v107 , gtp3
        .byte   W12
        .byte           N28   , Gn4 , v099 , gtp1
        .byte   W12
        .byte           N23   , Bn4 , v096
        .byte   W12
        .byte           N17   , Fs4 , v109
        .byte   W12
        .byte           N05   , Gn4 , v095
        .byte   W12
@ 040   ----------------------------------------
        .byte   PATT
         .word  VengefulGodInDarkOceanAbyss000000_0_2
@ 041   ----------------------------------------
        .byte   PATT
         .word  VengefulGodInDarkOceanAbyss000000_0_1
@ 042   ----------------------------------------
        .byte   PATT
         .word  VengefulGodInDarkOceanAbyss000000_0_2
@ 043   ----------------------------------------
        .byte   PATT
         .word  VengefulGodInDarkOceanAbyss000000_0_1
@ 044   ----------------------------------------
        .byte   PATT
         .word  VengefulGodInDarkOceanAbyss000000_0_2
@ 045   ----------------------------------------
        .byte   PATT
         .word  VengefulGodInDarkOceanAbyss000000_0_1
@ 046   ----------------------------------------
        .byte   PATT
         .word  VengefulGodInDarkOceanAbyss000000_0_2
@ 047   ----------------------------------------
        .byte   PATT
         .word  VengefulGodInDarkOceanAbyss000000_0_1
@ 048   ----------------------------------------
        .byte   PATT
         .word  VengefulGodInDarkOceanAbyss000000_0_2
@ 049   ----------------------------------------
        .byte   PATT
         .word  VengefulGodInDarkOceanAbyss000000_0_1
@ 050   ----------------------------------------
        .byte   PATT
         .word  VengefulGodInDarkOceanAbyss000000_0_2
@ 051   ----------------------------------------
        .byte   PATT
         .word  VengefulGodInDarkOceanAbyss000000_0_1
@ 052   ----------------------------------------
        .byte   PATT
         .word  VengefulGodInDarkOceanAbyss000000_0_2
@ 053   ----------------------------------------
        .byte   PATT
         .word  VengefulGodInDarkOceanAbyss000000_0_1
@ 054   ----------------------------------------
        .byte   PATT
         .word  VengefulGodInDarkOceanAbyss000000_0_2
@ 055   ----------------------------------------
        .byte   PATT
         .word  VengefulGodInDarkOceanAbyss000000_0_1
@ 056   ----------------------------------------
        .byte   PATT
         .word  VengefulGodInDarkOceanAbyss000000_0_2
@ 057   ----------------------------------------
        .byte   PATT
         .word  VengefulGodInDarkOceanAbyss000000_0_1
@ 058   ----------------------------------------
        .byte   PATT
         .word  VengefulGodInDarkOceanAbyss000000_0_2
@ 059   ----------------------------------------
        .byte   PATT
         .word  VengefulGodInDarkOceanAbyss000000_0_1
@ 060   ----------------------------------------
        .byte   PATT
         .word  VengefulGodInDarkOceanAbyss000000_0_2
@ 061   ----------------------------------------
        .byte   PATT
         .word  VengefulGodInDarkOceanAbyss000000_0_1
@ 062   ----------------------------------------
        .byte   PATT
         .word  VengefulGodInDarkOceanAbyss000000_0_2
@ 063   ----------------------------------------
        .byte   PATT
         .word  VengefulGodInDarkOceanAbyss000000_0_1
@ 064   ----------------------------------------
        .byte   PATT
         .word  VengefulGodInDarkOceanAbyss000000_0_2
@ 065   ----------------------------------------
        .byte   PATT
         .word  VengefulGodInDarkOceanAbyss000000_0_1
@ 066   ----------------------------------------
        .byte   PATT
         .word  VengefulGodInDarkOceanAbyss000000_0_2
@ 067   ----------------------------------------
        .byte   PATT
         .word  VengefulGodInDarkOceanAbyss000000_0_1
@ 068   ----------------------------------------
        .byte   PATT
         .word  VengefulGodInDarkOceanAbyss000000_0_2
@ 069   ----------------------------------------
        .byte   PATT
         .word  VengefulGodInDarkOceanAbyss000000_0_1
@ 070   ----------------------------------------
        .byte   PATT
         .word  VengefulGodInDarkOceanAbyss000000_0_2
@ 071   ----------------------------------------
        .byte   PATT
         .word  VengefulGodInDarkOceanAbyss000000_0_1
@ 072   ----------------------------------------
        .byte   PATT
         .word  VengefulGodInDarkOceanAbyss000000_0_2
@ 073   ----------------------------------------
        .byte   PATT
         .word  VengefulGodInDarkOceanAbyss000000_0_1
@ 074   ----------------------------------------
        .byte   PATT
         .word  VengefulGodInDarkOceanAbyss000000_0_2
@ 075   ----------------------------------------
        .byte   PATT
         .word  VengefulGodInDarkOceanAbyss000000_0_1
@ 076   ----------------------------------------
        .byte   PATT
         .word  VengefulGodInDarkOceanAbyss000000_0_2
@ 077   ----------------------------------------
        .byte   PATT
         .word  VengefulGodInDarkOceanAbyss000000_0_1
@ 078   ----------------------------------------
        .byte   PATT
         .word  VengefulGodInDarkOceanAbyss000000_0_2
@ 079   ----------------------------------------
        .byte           N32   , Fs4 , v126 , gtp3
        .byte   W12
        .byte           N28   , Gn4 , v110 , gtp1
        .byte   W12
        .byte                   Bn4 , v116
        .byte   W12
        .byte           N32   , En4 , v118 , gtp3
        .byte   W12
        .byte           N28   , Gn4 , v110 , gtp1
        .byte   W12
        .byte           N23   , Bn4 , v107
        .byte   W12
        .byte           N17   , Fs4 , v120
        .byte   W12
        .byte           N05   , Gn4 , v106
        .byte   W09
        .byte   GOTO
         .word  VengefulGodInDarkOceanAbyss000000_0_LOOP
        .byte   W02
        .byte   FINE

@****************** Track 1 (Midi-Chn.1) ******************@

VengefulGodInDarkOceanAbyss000000_1:
        .byte   KEYSH , VengefulGodInDarkOceanAbyss000000_key+0
@ 000   ----------------------------------------
VengefulGodInDarkOceanAbyss000000_1_LOOP:
        .byte           VOICE , 19
        .byte           VOL   , 29
        .byte           PAN   , c_v-1
        .byte           TIE   , En2 , v074
        .byte           TIE   , Bn2 , v072
        .byte           TIE   , En0 , v075
        .byte   W96
@ 001   ----------------------------------------
VengefulGodInDarkOceanAbyss000000_1_1:
        .byte   W88
        .byte   W01
        .byte           EOT   , En0
        .byte   W05
        .byte                   En2
        .byte   W01
        .byte           TIE   , Gn2 , v078
        .byte           TIE   , Dn3 , v076
        .byte   W01
        .byte   PEND
@ 002   ----------------------------------------
VengefulGodInDarkOceanAbyss000000_1_2:
        .byte   W01
        .byte           TIE   , Gn0 , v075
        .byte   W01
        .byte           EOT   , Bn2
        .byte   W92
        .byte   W02
        .byte   PEND
@ 003   ----------------------------------------
VengefulGodInDarkOceanAbyss000000_1_3:
        .byte   W88
        .byte           EOT   , Gn0
        .byte   W07
        .byte                   Gn2
        .byte   W01
        .byte   PEND
@ 004   ----------------------------------------
VengefulGodInDarkOceanAbyss000000_1_4:
        .byte           EOT   , Dn3
        .byte           TIE   , Fs2 , v080
        .byte           TIE   , Cs3
        .byte           TIE   , Fs0 , v075
        .byte   W96
        .byte   PEND
@ 005   ----------------------------------------
VengefulGodInDarkOceanAbyss000000_1_5:
        .byte   W90
        .byte           EOT   , Fs0
        .byte   W05
        .byte                   Cs3
        .byte   W01
        .byte   PEND
@ 006   ----------------------------------------
VengefulGodInDarkOceanAbyss000000_1_6:
        .byte           EOT   , Fs2
        .byte           TIE   , Cn2 , v075
        .byte           TIE   , Gn2 , v070
        .byte   W01
        .byte                   Cn0 , v075
        .byte   W92
        .byte   W03
        .byte   PEND
@ 007   ----------------------------------------
VengefulGodInDarkOceanAbyss000000_1_7:
        .byte   W92
        .byte   W01
        .byte           EOT   , Gn2
        .byte                   Cn0
        .byte                   Cn2
        .byte   W03
        .byte   PEND
@ 008   ----------------------------------------
VengefulGodInDarkOceanAbyss000000_1_8:
        .byte           TIE   , En2 , v074
        .byte           TIE   , Bn2 , v072
        .byte           TIE   , En0 , v075
        .byte   W96
        .byte   PEND
@ 009   ----------------------------------------
        .byte   PATT
         .word  VengefulGodInDarkOceanAbyss000000_1_1
@ 010   ----------------------------------------
        .byte   PATT
         .word  VengefulGodInDarkOceanAbyss000000_1_2
@ 011   ----------------------------------------
        .byte   PATT
         .word  VengefulGodInDarkOceanAbyss000000_1_3
@ 012   ----------------------------------------
        .byte   PATT
         .word  VengefulGodInDarkOceanAbyss000000_1_4
@ 013   ----------------------------------------
        .byte   PATT
         .word  VengefulGodInDarkOceanAbyss000000_1_5
@ 014   ----------------------------------------
        .byte   PATT
         .word  VengefulGodInDarkOceanAbyss000000_1_6
@ 015   ----------------------------------------
        .byte   PATT
         .word  VengefulGodInDarkOceanAbyss000000_1_7
@ 016   ----------------------------------------
        .byte   PATT
         .word  VengefulGodInDarkOceanAbyss000000_1_8
@ 017   ----------------------------------------
        .byte   PATT
         .word  VengefulGodInDarkOceanAbyss000000_1_1
@ 018   ----------------------------------------
        .byte   PATT
         .word  VengefulGodInDarkOceanAbyss000000_1_2
@ 019   ----------------------------------------
        .byte   PATT
         .word  VengefulGodInDarkOceanAbyss000000_1_3
@ 020   ----------------------------------------
        .byte   PATT
         .word  VengefulGodInDarkOceanAbyss000000_1_4
@ 021   ----------------------------------------
        .byte   PATT
         .word  VengefulGodInDarkOceanAbyss000000_1_5
@ 022   ----------------------------------------
        .byte   PATT
         .word  VengefulGodInDarkOceanAbyss000000_1_6
@ 023   ----------------------------------------
        .byte   PATT
         .word  VengefulGodInDarkOceanAbyss000000_1_7
@ 024   ----------------------------------------
        .byte   PATT
         .word  VengefulGodInDarkOceanAbyss000000_1_8
@ 025   ----------------------------------------
        .byte   PATT
         .word  VengefulGodInDarkOceanAbyss000000_1_1
@ 026   ----------------------------------------
        .byte   PATT
         .word  VengefulGodInDarkOceanAbyss000000_1_2
@ 027   ----------------------------------------
        .byte   PATT
         .word  VengefulGodInDarkOceanAbyss000000_1_3
@ 028   ----------------------------------------
        .byte   PATT
         .word  VengefulGodInDarkOceanAbyss000000_1_4
@ 029   ----------------------------------------
        .byte   PATT
         .word  VengefulGodInDarkOceanAbyss000000_1_5
@ 030   ----------------------------------------
        .byte   PATT
         .word  VengefulGodInDarkOceanAbyss000000_1_6
@ 031   ----------------------------------------
        .byte   PATT
         .word  VengefulGodInDarkOceanAbyss000000_1_7
@ 032   ----------------------------------------
        .byte   PATT
         .word  VengefulGodInDarkOceanAbyss000000_1_8
@ 033   ----------------------------------------
        .byte   PATT
         .word  VengefulGodInDarkOceanAbyss000000_1_1
@ 034   ----------------------------------------
        .byte   PATT
         .word  VengefulGodInDarkOceanAbyss000000_1_2
@ 035   ----------------------------------------
        .byte   PATT
         .word  VengefulGodInDarkOceanAbyss000000_1_3
@ 036   ----------------------------------------
        .byte   PATT
         .word  VengefulGodInDarkOceanAbyss000000_1_4
@ 037   ----------------------------------------
        .byte   PATT
         .word  VengefulGodInDarkOceanAbyss000000_1_5
@ 038   ----------------------------------------
        .byte           EOT   , Fs2
        .byte           N92   , Cn2 , v075 , gtp3
        .byte                   Gn2 , v070
        .byte   W01
        .byte           N92   , Cn0 , v075 , gtp2
        .byte   W92
        .byte   W03
@ 039   ----------------------------------------
        .byte   W96
@ 040   ----------------------------------------
        .byte   PATT
         .word  VengefulGodInDarkOceanAbyss000000_1_8
@ 041   ----------------------------------------
        .byte   PATT
         .word  VengefulGodInDarkOceanAbyss000000_1_1
@ 042   ----------------------------------------
        .byte   PATT
         .word  VengefulGodInDarkOceanAbyss000000_1_2
@ 043   ----------------------------------------
        .byte   PATT
         .word  VengefulGodInDarkOceanAbyss000000_1_3
@ 044   ----------------------------------------
        .byte   PATT
         .word  VengefulGodInDarkOceanAbyss000000_1_4
@ 045   ----------------------------------------
        .byte   PATT
         .word  VengefulGodInDarkOceanAbyss000000_1_5
@ 046   ----------------------------------------
        .byte   PATT
         .word  VengefulGodInDarkOceanAbyss000000_1_6
@ 047   ----------------------------------------
        .byte   PATT
         .word  VengefulGodInDarkOceanAbyss000000_1_7
@ 048   ----------------------------------------
        .byte   PATT
         .word  VengefulGodInDarkOceanAbyss000000_1_8
@ 049   ----------------------------------------
        .byte   PATT
         .word  VengefulGodInDarkOceanAbyss000000_1_1
@ 050   ----------------------------------------
        .byte   PATT
         .word  VengefulGodInDarkOceanAbyss000000_1_2
@ 051   ----------------------------------------
        .byte   PATT
         .word  VengefulGodInDarkOceanAbyss000000_1_3
@ 052   ----------------------------------------
        .byte   PATT
         .word  VengefulGodInDarkOceanAbyss000000_1_4
@ 053   ----------------------------------------
        .byte   PATT
         .word  VengefulGodInDarkOceanAbyss000000_1_5
@ 054   ----------------------------------------
        .byte   PATT
         .word  VengefulGodInDarkOceanAbyss000000_1_6
@ 055   ----------------------------------------
        .byte   PATT
         .word  VengefulGodInDarkOceanAbyss000000_1_7
@ 056   ----------------------------------------
        .byte   PATT
         .word  VengefulGodInDarkOceanAbyss000000_1_8
@ 057   ----------------------------------------
        .byte   PATT
         .word  VengefulGodInDarkOceanAbyss000000_1_1
@ 058   ----------------------------------------
        .byte   PATT
         .word  VengefulGodInDarkOceanAbyss000000_1_2
@ 059   ----------------------------------------
        .byte   PATT
         .word  VengefulGodInDarkOceanAbyss000000_1_3
@ 060   ----------------------------------------
        .byte   PATT
         .word  VengefulGodInDarkOceanAbyss000000_1_4
@ 061   ----------------------------------------
        .byte   PATT
         .word  VengefulGodInDarkOceanAbyss000000_1_5
@ 062   ----------------------------------------
        .byte   PATT
         .word  VengefulGodInDarkOceanAbyss000000_1_6
@ 063   ----------------------------------------
        .byte   PATT
         .word  VengefulGodInDarkOceanAbyss000000_1_7
@ 064   ----------------------------------------
        .byte   PATT
         .word  VengefulGodInDarkOceanAbyss000000_1_8
@ 065   ----------------------------------------
        .byte   PATT
         .word  VengefulGodInDarkOceanAbyss000000_1_1
@ 066   ----------------------------------------
        .byte   PATT
         .word  VengefulGodInDarkOceanAbyss000000_1_2
@ 067   ----------------------------------------
        .byte   PATT
         .word  VengefulGodInDarkOceanAbyss000000_1_3
@ 068   ----------------------------------------
        .byte   PATT
         .word  VengefulGodInDarkOceanAbyss000000_1_4
@ 069   ----------------------------------------
        .byte   PATT
         .word  VengefulGodInDarkOceanAbyss000000_1_5
@ 070   ----------------------------------------
        .byte   PATT
         .word  VengefulGodInDarkOceanAbyss000000_1_6
@ 071   ----------------------------------------
        .byte   PATT
         .word  VengefulGodInDarkOceanAbyss000000_1_7
@ 072   ----------------------------------------
        .byte   PATT
         .word  VengefulGodInDarkOceanAbyss000000_1_8
@ 073   ----------------------------------------
        .byte   PATT
         .word  VengefulGodInDarkOceanAbyss000000_1_1
@ 074   ----------------------------------------
        .byte   PATT
         .word  VengefulGodInDarkOceanAbyss000000_1_2
@ 075   ----------------------------------------
        .byte   PATT
         .word  VengefulGodInDarkOceanAbyss000000_1_3
@ 076   ----------------------------------------
        .byte   PATT
         .word  VengefulGodInDarkOceanAbyss000000_1_4
@ 077   ----------------------------------------
        .byte   PATT
         .word  VengefulGodInDarkOceanAbyss000000_1_5
@ 078   ----------------------------------------
        .byte   PATT
         .word  VengefulGodInDarkOceanAbyss000000_1_6
@ 079   ----------------------------------------
        .byte   W92
        .byte   W01
        .byte           EOT   , Gn2
        .byte                   Cn0
        .byte                   Cn2
        .byte   GOTO
         .word  VengefulGodInDarkOceanAbyss000000_1_LOOP
        .byte   W02
        .byte   FINE

@****************** Track 2 (Midi-Chn.2) ******************@

VengefulGodInDarkOceanAbyss000000_2:
        .byte   KEYSH , VengefulGodInDarkOceanAbyss000000_key+0
@ 000   ----------------------------------------
VengefulGodInDarkOceanAbyss000000_2_LOOP:
        .byte           VOICE , 39
        .byte           PAN   , c_v+15
        .byte           VOL   , 44
        .byte   W96
@ 001   ----------------------------------------
        .byte   W96
@ 002   ----------------------------------------
        .byte   W96
@ 003   ----------------------------------------
        .byte   W96
@ 004   ----------------------------------------
        .byte   W96
@ 005   ----------------------------------------
        .byte   W96
@ 006   ----------------------------------------
        .byte   W96
@ 007   ----------------------------------------
        .byte   W96
@ 008   ----------------------------------------
VengefulGodInDarkOceanAbyss000000_2_8:
        .byte           N10   , En1 , v076
        .byte   W18
        .byte           N06   , En1 , v078
        .byte   W18
        .byte           N08   , En2 , v080
        .byte   W24
        .byte           N05   , En1 , v076
        .byte   W12
        .byte           N07   , En1 , v073
        .byte   W06
        .byte           N05   , Bn1
        .byte   W06
        .byte           N07   , En1 , v070
        .byte   W05
        .byte                   En2 , v078
        .byte   W07
        .byte   PEND
@ 009   ----------------------------------------
        .byte   PATT
         .word  VengefulGodInDarkOceanAbyss000000_2_8
@ 010   ----------------------------------------
        .byte   PATT
         .word  VengefulGodInDarkOceanAbyss000000_2_8
@ 011   ----------------------------------------
        .byte   PATT
         .word  VengefulGodInDarkOceanAbyss000000_2_8
@ 012   ----------------------------------------
        .byte   PATT
         .word  VengefulGodInDarkOceanAbyss000000_2_8
@ 013   ----------------------------------------
        .byte   PATT
         .word  VengefulGodInDarkOceanAbyss000000_2_8
@ 014   ----------------------------------------
        .byte   PATT
         .word  VengefulGodInDarkOceanAbyss000000_2_8
@ 015   ----------------------------------------
        .byte           N10   , En1 , v076
        .byte   W18
        .byte           N06   , En1 , v078
        .byte   W18
        .byte           N08   , En2 , v080
        .byte   W12
        .byte           N05   , Cn1 , v078
        .byte   W06
        .byte                   Cn2 , v073
        .byte   W06
        .byte                   Cn1
        .byte   W06
        .byte                   Cn2
        .byte   W12
        .byte                   Dn2
        .byte   W06
        .byte                   Dn1
        .byte   W06
        .byte                   Dn2
        .byte   W06
@ 016   ----------------------------------------
        .byte   PATT
         .word  VengefulGodInDarkOceanAbyss000000_2_8
@ 017   ----------------------------------------
        .byte   PATT
         .word  VengefulGodInDarkOceanAbyss000000_2_8
@ 018   ----------------------------------------
        .byte   PATT
         .word  VengefulGodInDarkOceanAbyss000000_2_8
@ 019   ----------------------------------------
        .byte   PATT
         .word  VengefulGodInDarkOceanAbyss000000_2_8
@ 020   ----------------------------------------
        .byte   PATT
         .word  VengefulGodInDarkOceanAbyss000000_2_8
@ 021   ----------------------------------------
        .byte   PATT
         .word  VengefulGodInDarkOceanAbyss000000_2_8
@ 022   ----------------------------------------
        .byte   PATT
         .word  VengefulGodInDarkOceanAbyss000000_2_8
@ 023   ----------------------------------------
        .byte   PATT
         .word  VengefulGodInDarkOceanAbyss000000_2_8
@ 024   ----------------------------------------
        .byte   PATT
         .word  VengefulGodInDarkOceanAbyss000000_2_8
@ 025   ----------------------------------------
        .byte   PATT
         .word  VengefulGodInDarkOceanAbyss000000_2_8
@ 026   ----------------------------------------
        .byte   PATT
         .word  VengefulGodInDarkOceanAbyss000000_2_8
@ 027   ----------------------------------------
        .byte   PATT
         .word  VengefulGodInDarkOceanAbyss000000_2_8
@ 028   ----------------------------------------
        .byte   PATT
         .word  VengefulGodInDarkOceanAbyss000000_2_8
@ 029   ----------------------------------------
        .byte   PATT
         .word  VengefulGodInDarkOceanAbyss000000_2_8
@ 030   ----------------------------------------
        .byte   PATT
         .word  VengefulGodInDarkOceanAbyss000000_2_8
@ 031   ----------------------------------------
        .byte   PATT
         .word  VengefulGodInDarkOceanAbyss000000_2_8
@ 032   ----------------------------------------
        .byte   PATT
         .word  VengefulGodInDarkOceanAbyss000000_2_8
@ 033   ----------------------------------------
        .byte   PATT
         .word  VengefulGodInDarkOceanAbyss000000_2_8
@ 034   ----------------------------------------
        .byte   PATT
         .word  VengefulGodInDarkOceanAbyss000000_2_8
@ 035   ----------------------------------------
        .byte   PATT
         .word  VengefulGodInDarkOceanAbyss000000_2_8
@ 036   ----------------------------------------
        .byte   PATT
         .word  VengefulGodInDarkOceanAbyss000000_2_8
@ 037   ----------------------------------------
        .byte   PATT
         .word  VengefulGodInDarkOceanAbyss000000_2_8
@ 038   ----------------------------------------
        .byte   PATT
         .word  VengefulGodInDarkOceanAbyss000000_2_8
@ 039   ----------------------------------------
        .byte   W96
@ 040   ----------------------------------------
        .byte   W96
@ 041   ----------------------------------------
        .byte   W96
@ 042   ----------------------------------------
        .byte   W96
@ 043   ----------------------------------------
        .byte   W96
@ 044   ----------------------------------------
        .byte   W96
@ 045   ----------------------------------------
        .byte   W96
@ 046   ----------------------------------------
        .byte   W96
@ 047   ----------------------------------------
        .byte   W96
@ 048   ----------------------------------------
        .byte   W96
@ 049   ----------------------------------------
        .byte   W96
@ 050   ----------------------------------------
        .byte   W96
@ 051   ----------------------------------------
        .byte   W96
@ 052   ----------------------------------------
        .byte   W96
@ 053   ----------------------------------------
        .byte   W96
@ 054   ----------------------------------------
        .byte   W96
@ 055   ----------------------------------------
        .byte   W96
@ 056   ----------------------------------------
        .byte   W96
@ 057   ----------------------------------------
        .byte   W96
@ 058   ----------------------------------------
        .byte   W96
@ 059   ----------------------------------------
        .byte   W96
@ 060   ----------------------------------------
        .byte   W96
@ 061   ----------------------------------------
        .byte   W96
@ 062   ----------------------------------------
        .byte   W96
@ 063   ----------------------------------------
        .byte   W96
@ 064   ----------------------------------------
        .byte   W96
@ 065   ----------------------------------------
        .byte   W96
@ 066   ----------------------------------------
        .byte   W96
@ 067   ----------------------------------------
        .byte   W96
@ 068   ----------------------------------------
        .byte   W96
@ 069   ----------------------------------------
        .byte   W96
@ 070   ----------------------------------------
        .byte   W96
@ 071   ----------------------------------------
        .byte   W96
@ 072   ----------------------------------------
        .byte   W96
@ 073   ----------------------------------------
        .byte   W96
@ 074   ----------------------------------------
        .byte   W96
@ 075   ----------------------------------------
        .byte   W96
@ 076   ----------------------------------------
        .byte   W96
@ 077   ----------------------------------------
        .byte   W96
@ 078   ----------------------------------------
        .byte   W96
@ 079   ----------------------------------------
        .byte   W92
        .byte   W01
        .byte   GOTO
         .word  VengefulGodInDarkOceanAbyss000000_2_LOOP
        .byte   W02
        .byte   FINE

@****************** Track 3 (Midi-Chn.3) ******************@

VengefulGodInDarkOceanAbyss000000_3:
        .byte   KEYSH , VengefulGodInDarkOceanAbyss000000_key+0
@ 000   ----------------------------------------
VengefulGodInDarkOceanAbyss000000_3_LOOP:
        .byte           VOICE , 68
        .byte           PAN   , c_v-1
        .byte           VOL   , 25
        .byte   W96
@ 001   ----------------------------------------
        .byte   W96
@ 002   ----------------------------------------
        .byte   W96
@ 003   ----------------------------------------
        .byte   W96
@ 004   ----------------------------------------
        .byte   W96
@ 005   ----------------------------------------
        .byte   W96
@ 006   ----------------------------------------
        .byte   W96
@ 007   ----------------------------------------
        .byte   W96
@ 008   ----------------------------------------
        .byte   W01
        .byte           N68   , En3 , v123 , gtp1
        .byte   W68
        .byte   W03
        .byte           N03   , Bn2 , v116
        .byte   W03
        .byte                   En3
        .byte   W03
        .byte                   Fs3 , v118
        .byte   W03
        .byte                   Gn3 , v116
        .byte   W03
        .byte           N07   , Bn3 , v115
        .byte   W03
        .byte           N05   , En4 , v117
        .byte   W03
        .byte           N02   , Fs4 , v108
        .byte   W03
        .byte           N05   , Bn4 , v125
        .byte   W03
@ 009   ----------------------------------------
        .byte   W02
        .byte           N72   , Fs4 , v121 , gtp3
        .byte   W80
        .byte   W02
        .byte           N13   , En4 , v123
        .byte   W12
@ 010   ----------------------------------------
        .byte   W01
        .byte           N80   , Fs4 , v121 , gtp2
        .byte   W80
        .byte   W03
        .byte           N05   , An4 , v120
        .byte   W05
        .byte           N08   , Gn4 , v122
        .byte   W07
@ 011   ----------------------------------------
        .byte   W01
        .byte           N68   , Fs4 , v120 , gtp3
        .byte   W76
        .byte   W01
        .byte           N03   , Bn2 , v111
        .byte   W03
        .byte                   En3
        .byte   W03
        .byte                   Fs3 , v113
        .byte   W03
        .byte                   Gn3 , v111
        .byte   W03
        .byte           N07   , Bn3 , v110
        .byte   W03
        .byte           N04   , En4 , v114
        .byte   W03
@ 012   ----------------------------------------
        .byte           N80   , Fs4 , v124 , gtp1
        .byte   W84
        .byte   W01
        .byte           N09   , En4 , v120
        .byte   W09
        .byte           N05   , An3 , v109
        .byte   W02
@ 013   ----------------------------------------
        .byte   W02
        .byte           N76   , Bn3 , v119 , gtp1
        .byte   W80
        .byte   W03
        .byte           N06   , Bn3 , v123
        .byte   W06
        .byte           N07   , An3 , v116
        .byte   W05
@ 014   ----------------------------------------
        .byte           N78   , Bn3 , v122
        .byte   W80
        .byte   W03
        .byte           N06   , Cn4 , v118
        .byte   W06
        .byte                   Dn4 , v122
        .byte   W06
        .byte           N15   , Bn3 , v126
        .byte   W01
@ 015   ----------------------------------------
        .byte   W16
        .byte           N03   , An3 , v122
        .byte   W02
        .byte           N17   , Bn3 , v121
        .byte   W16
        .byte           N14   , An3
        .byte   W14
        .byte           N17   , Gn3
        .byte   W17
        .byte           N18   , An3 , v118
        .byte   W17
        .byte           N10   , Bn3 , v119
        .byte   W11
        .byte           N04   , En3 , v116
        .byte   W03
@ 016   ----------------------------------------
        .byte           N76   , Fs3 , v120
        .byte   W84
        .byte   W01
        .byte           N05   , Gn3
        .byte   W05
        .byte           N07   , En3 , v117
        .byte   W05
        .byte           N24   , Fs3 , v121 , gtp2
        .byte   W01
@ 017   ----------------------------------------
        .byte   W23
        .byte           N24   , En3 , v121 , gtp3
        .byte   W24
        .byte   W01
        .byte           N24   , Fs3 , v120 , gtp2
        .byte   W24
        .byte   W01
        .byte           N21   , Gn3 , v122
        .byte   W21
        .byte           N02   , An3 , v112
        .byte   W02
@ 018   ----------------------------------------
        .byte   W01
        .byte           N80   , Bn3 , v122 , gtp3
        .byte   W80
        .byte   W03
        .byte           N07   , Cn4
        .byte   W05
        .byte           N08   , Dn4 , v123
        .byte   W07
@ 019   ----------------------------------------
        .byte           N76   , Bn3 , v126
        .byte   W84
        .byte   W01
        .byte           N05
        .byte   W05
        .byte           N06   , An3 , v124
        .byte   W06
@ 020   ----------------------------------------
        .byte           N78   , Bn3 , v126
        .byte   W84
        .byte           N06
        .byte   W06
        .byte           N07   , An3 , v114
        .byte   W06
@ 021   ----------------------------------------
        .byte           N14   , Bn3 , v123
        .byte   W15
        .byte           N03   , An3 , v114
        .byte   W03
        .byte           N17   , Bn3 , v123
        .byte   W16
        .byte           N12   , An3 , v125
        .byte   W14
        .byte           N18   , Bn3 , v123
        .byte   W18
        .byte                   Dn4 , v117
        .byte   W17
        .byte           N10   , Bn3 , v127
        .byte   W11
        .byte           N03   , Dn4
        .byte   W02
@ 022   ----------------------------------------
        .byte           N68   , En4 , v127 , gtp1
        .byte   W72
        .byte   W03
        .byte           N02   , En2 , v088
        .byte   W03
        .byte                   Bn2 , v111
        .byte   W03
        .byte                   En3 , v121
        .byte   W03
        .byte                   Fs3 , v122
        .byte   W03
        .byte                   Gn3 , v126
        .byte   W03
        .byte           N05   , Bn3
        .byte   W03
        .byte           N02   , Dn4
        .byte   W02
        .byte           N17   , En4
        .byte   W01
@ 023   ----------------------------------------
        .byte   W17
        .byte           N02   , Dn4 , v122
        .byte   W01
        .byte           N18   , En4 , v127
        .byte   W17
        .byte           N11   , Fs4 , v126
        .byte   W12
        .byte           N03   , Gn4
        .byte   W02
        .byte           N15   , An4 , v127
        .byte   W18
        .byte           N18   , An4 , v126
        .byte   W16
        .byte           N11   , Gn4 , v122
        .byte   W12
        .byte           N05   , An4 , v127
        .byte   W01
@ 024   ----------------------------------------
        .byte   W02
        .byte           TIE   , Bn4 , v124
        .byte   W92
        .byte   W02
@ 025   ----------------------------------------
        .byte   W28
        .byte   W01
        .byte           EOT
        .byte   W09
        .byte           N04   , Fs4 , v117
        .byte   W03
        .byte           N08   , Gn4 , v126
        .byte   W06
        .byte           N21   , An4 , v127
        .byte   W19
        .byte           N16   , Bn4 , v124
        .byte   W15
        .byte           N14   , Gn4 , v127
        .byte   W14
        .byte           N05   , An4
        .byte   W01
@ 026   ----------------------------------------
        .byte   W02
        .byte           N11   , Bn4
        .byte   W15
        .byte           N03   , An4 , v122
        .byte   W02
        .byte           N64   , Bn4 , v123 , gtp1
        .byte   W66
        .byte   W01
        .byte           N06   , Fs4 , v118
        .byte   W04
        .byte           N07   , Gn4 , v125
        .byte   W06
@ 027   ----------------------------------------
        .byte   W01
        .byte           N18   , An4 , v127
        .byte   W17
        .byte           N17   , Bn4
        .byte   W16
        .byte           N15   , Gn4 , v125
        .byte   W15
        .byte           N17   , Bn4 , v127
        .byte   W17
        .byte           N18   , Fs4 , v126
        .byte   W17
        .byte           N14   , Gn4 , v125
        .byte   W13
@ 028   ----------------------------------------
        .byte           N05   , An4 , v124
        .byte   W03
        .byte           N12   , Bn4 , v127
        .byte   W16
        .byte           N16   , Bn4 , v123
        .byte   W16
        .byte           N03   , Gn4 , v127
        .byte   W03
        .byte           N84   , An4 , v122
        .byte   W56
        .byte   W02
@ 029   ----------------------------------------
        .byte   W36
        .byte           N11   , En4 , v124
        .byte   W12
        .byte           N02   , En4 , v120
        .byte   W03
        .byte           N12   , Fs4 , v127
        .byte   W16
        .byte           N18   , En4
        .byte   W17
        .byte           N13   , Fs4 , v124
        .byte   W11
        .byte           N05   , Gn4 , v120
        .byte   W01
@ 030   ----------------------------------------
        .byte   W02
        .byte           N13   , An4 , v127
        .byte   W17
        .byte           N12
        .byte   W18
        .byte           N76   , Gn4 , v123 , gtp1
        .byte   W56
        .byte   W03
@ 031   ----------------------------------------
        .byte   W24
        .byte           N02   , En2 , v088
        .byte   W03
        .byte                   Bn2 , v111
        .byte   W03
        .byte                   En3 , v121
        .byte   W03
        .byte                   Fs3 , v122
        .byte   W03
        .byte                   Gn3 , v126
        .byte   W03
        .byte                   Bn3
        .byte   W03
        .byte                   En4
        .byte   W03
        .byte                   Gn4 , v127
        .byte   W02
        .byte           N19   , Fs4 , v122
        .byte   W19
        .byte                   En4 , v127
        .byte   W18
        .byte           N11   , Fs4 , v122
        .byte   W11
        .byte           N05   , En4 , v127
        .byte   W01
@ 032   ----------------------------------------
        .byte   W03
        .byte           N14   , Fs4 , v116
        .byte   W16
        .byte           N18   , Fs4 , v122
        .byte   W18
        .byte           TIE   , Gn4
        .byte   W56
        .byte   W03
@ 033   ----------------------------------------
        .byte   W48
        .byte           EOT
        .byte   W12
        .byte           N12   , Bn3 , v120
        .byte   W12
        .byte           N13   , En4 , v121
        .byte   W12
        .byte           N11   , Gn4
        .byte   W12
@ 034   ----------------------------------------
        .byte           N19   , Fs4
        .byte   W17
        .byte                   Gn4 , v119
        .byte   W19
        .byte           N02   , Cs4 , v111
        .byte   W02
        .byte           TIE   , Dn4 , v126
        .byte   W56
        .byte   W02
@ 035   ----------------------------------------
        .byte   W44
        .byte   W02
        .byte           EOT
        .byte   W10
        .byte           N08   , Bn2 , v102
        .byte   W07
        .byte           N10   , Fs3 , v116
        .byte   W05
        .byte           N05   , Bn3 , v125
        .byte   W04
        .byte           N11   , Dn4 , v123
        .byte   W07
        .byte           N08   , En4 , v114
        .byte   W05
        .byte           N09   , Fs4 , v123
        .byte   W06
        .byte           N04   , Gn4 , v114
        .byte   W06
@ 036   ----------------------------------------
        .byte   W01
        .byte           N17   , Fs4 , v120
        .byte   W19
        .byte           N12   , Gn4 , v115
        .byte   W18
        .byte           N03   , An4
        .byte   W02
        .byte           N92   , Bn4 , v127 , gtp2
        .byte   W56
@ 037   ----------------------------------------
        .byte   W44
        .byte   W03
        .byte           N05   , An4
        .byte   W04
        .byte           N16   , Bn4 , v118
        .byte   W15
        .byte           N18   , An4 , v127
        .byte   W19
        .byte           N07   , Gn4
        .byte   W11
@ 038   ----------------------------------------
        .byte   W02
        .byte           N16   , Fs4 , v126
        .byte   W16
        .byte           N14   , Gn4 , v127
        .byte   W17
        .byte           N02   , Cn5 , v118
        .byte   W02
        .byte           TIE   , Dn5 , v125
        .byte   W56
        .byte   W03
@ 039   ----------------------------------------
        .byte   W42
        .byte   W01
        .byte           EOT
        .byte   W05
        .byte           N40   , Dn5 , v083 , gtp1
        .byte   W48
@ 040   ----------------------------------------
        .byte   W96
@ 041   ----------------------------------------
        .byte   W96
@ 042   ----------------------------------------
        .byte   W96
@ 043   ----------------------------------------
        .byte   W96
@ 044   ----------------------------------------
        .byte   W96
@ 045   ----------------------------------------
        .byte   W96
@ 046   ----------------------------------------
        .byte   W96
@ 047   ----------------------------------------
        .byte   W96
@ 048   ----------------------------------------
        .byte   W96
@ 049   ----------------------------------------
        .byte   W96
@ 050   ----------------------------------------
        .byte   W96
@ 051   ----------------------------------------
        .byte   W96
@ 052   ----------------------------------------
        .byte   W96
@ 053   ----------------------------------------
        .byte   W96
@ 054   ----------------------------------------
        .byte   W96
@ 055   ----------------------------------------
        .byte   W96
@ 056   ----------------------------------------
        .byte   W96
@ 057   ----------------------------------------
        .byte   W96
@ 058   ----------------------------------------
        .byte   W96
@ 059   ----------------------------------------
        .byte   W96
@ 060   ----------------------------------------
        .byte   W96
@ 061   ----------------------------------------
        .byte   W96
@ 062   ----------------------------------------
        .byte   W96
@ 063   ----------------------------------------
        .byte   W96
@ 064   ----------------------------------------
        .byte   W96
@ 065   ----------------------------------------
        .byte   W96
@ 066   ----------------------------------------
        .byte   W96
@ 067   ----------------------------------------
        .byte   W96
@ 068   ----------------------------------------
        .byte   W96
@ 069   ----------------------------------------
        .byte   W96
@ 070   ----------------------------------------
        .byte   W96
@ 071   ----------------------------------------
        .byte   W96
@ 072   ----------------------------------------
        .byte   W96
@ 073   ----------------------------------------
        .byte   W96
@ 074   ----------------------------------------
        .byte   W96
@ 075   ----------------------------------------
        .byte   W96
@ 076   ----------------------------------------
        .byte   W96
@ 077   ----------------------------------------
        .byte   W96
@ 078   ----------------------------------------
        .byte   W96
@ 079   ----------------------------------------
        .byte   W92
        .byte   W01
        .byte   GOTO
         .word  VengefulGodInDarkOceanAbyss000000_3_LOOP
        .byte   W02
        .byte   FINE

@****************** Track 4 (Midi-Chn.4) ******************@

VengefulGodInDarkOceanAbyss000000_4:
        .byte   KEYSH , VengefulGodInDarkOceanAbyss000000_key+0
@ 000   ----------------------------------------
VengefulGodInDarkOceanAbyss000000_4_LOOP:
        .byte           VOICE , 73
        .byte           VOL   , 9
        .byte           PAN   , c_v-14
        .byte   W96
@ 001   ----------------------------------------
        .byte   W96
@ 002   ----------------------------------------
        .byte   W96
@ 003   ----------------------------------------
        .byte   W96
@ 004   ----------------------------------------
        .byte   W96
@ 005   ----------------------------------------
        .byte   W96
@ 006   ----------------------------------------
        .byte   W96
@ 007   ----------------------------------------
        .byte   W96
@ 008   ----------------------------------------
        .byte   W12
        .byte           BEND  , c_v+2
        .byte   W11
        .byte           N05   , Bn2 , v110
        .byte   W01
        .byte           N68   , En3 , v123 , gtp1
        .byte   W68
        .byte   W03
        .byte           N03   , Bn2 , v116
        .byte   W01
@ 009   ----------------------------------------
        .byte   W02
        .byte                   En3
        .byte   W03
        .byte                   Fs3 , v118
        .byte   W03
        .byte                   Gn3 , v116
        .byte   W03
        .byte           N07   , Bn3 , v115
        .byte   W03
        .byte           N05   , En4 , v117
        .byte   W03
        .byte           N02   , Fs4 , v108
        .byte   W03
        .byte           N04   , Bn4 , v125
        .byte   W05
        .byte           N72   , Fs4 , v121 , gtp3
        .byte   W68
        .byte   W03
@ 010   ----------------------------------------
        .byte   W12
        .byte           N13   , En4 , v123
        .byte   W12
        .byte           N80   , Fs4 , v121 , gtp2
        .byte   W72
@ 011   ----------------------------------------
        .byte   W11
        .byte           N05   , An4 , v120
        .byte   W05
        .byte           N08   , Gn4 , v122
        .byte   W08
        .byte           N68   , Fs4 , v120 , gtp3
        .byte   W72
@ 012   ----------------------------------------
        .byte   W05
        .byte           N03   , Bn2 , v111
        .byte   W03
        .byte                   En3
        .byte   W03
        .byte                   Fs3 , v113
        .byte   W03
        .byte                   Gn3 , v111
        .byte   W03
        .byte           N07   , Bn3 , v110
        .byte   W03
        .byte           N04   , En4 , v114
        .byte   W03
        .byte           N80   , Fs4 , v124 , gtp1
        .byte   W72
        .byte   W01
@ 013   ----------------------------------------
        .byte   W12
        .byte           N09   , En4 , v120
        .byte   W10
        .byte           N04   , An3 , v109
        .byte   W03
        .byte           N76   , Bn3 , v119 , gtp1
        .byte   W68
        .byte   W03
@ 014   ----------------------------------------
        .byte   W12
        .byte           N06   , Bn3 , v123
        .byte   W06
        .byte           N08   , An3 , v116
        .byte   W05
        .byte           N78   , Bn3 , v122
        .byte   W72
        .byte   W01
@ 015   ----------------------------------------
        .byte   W10
        .byte           N06   , Cn4 , v118
        .byte   W06
        .byte                   Dn4 , v122
        .byte   W06
        .byte           N15   , Bn3 , v126
        .byte   W17
        .byte           N03   , An3 , v122
        .byte   W02
        .byte           N17   , Bn3 , v121
        .byte   W17
        .byte           N13   , An3
        .byte   W13
        .byte           N17   , Gn3
        .byte   W17
        .byte           N18   , An3 , v118
        .byte   W08
@ 016   ----------------------------------------
        .byte   W10
        .byte           N10   , Bn3 , v119
        .byte   W10
        .byte           N04   , En3 , v116
        .byte   W03
        .byte           N76   , Fs3 , v120
        .byte   W72
        .byte   W01
@ 017   ----------------------------------------
        .byte   W12
        .byte           N05   , Gn3
        .byte   W06
        .byte           N07   , En3 , v117
        .byte   W04
        .byte           N24   , Fs3 , v121 , gtp2
        .byte   W24
        .byte   W01
        .byte                   En3
        .byte   W24
        .byte                   Fs3 , v120
        .byte   W24
        .byte   W01
@ 018   ----------------------------------------
        .byte           N21   , Gn3 , v122
        .byte   W22
        .byte           N01   , An3 , v112
        .byte   W02
        .byte           N80   , Bn3 , v122 , gtp3
        .byte   W72
@ 019   ----------------------------------------
        .byte   W11
        .byte           N07   , Cn4
        .byte   W05
        .byte           N08   , Dn4 , v123
        .byte   W07
        .byte           N76   , Bn3 , v126
        .byte   W72
        .byte   W01
@ 020   ----------------------------------------
        .byte   W12
        .byte           N05
        .byte   W05
        .byte           N07   , An3 , v124
        .byte   W06
        .byte           N78   , Bn3 , v126
        .byte   W72
        .byte   W01
@ 021   ----------------------------------------
        .byte   W12
        .byte           N05
        .byte   W06
        .byte           N07   , An3 , v114
        .byte   W06
        .byte           N14   , Bn3 , v123
        .byte   W15
        .byte           N03   , An3 , v114
        .byte   W02
        .byte           N17   , Bn3 , v123
        .byte   W17
        .byte           N11   , An3 , v125
        .byte   W13
        .byte           N18   , Bn3 , v123
        .byte   W18
        .byte           N19   , Dn4 , v117
        .byte   W07
@ 022   ----------------------------------------
        .byte   W11
        .byte           N09   , Bn3 , v127
        .byte   W10
        .byte           N03   , Dn4
        .byte   W02
        .byte           N68   , En4 , v127 , gtp1
        .byte   W72
        .byte   W01
@ 023   ----------------------------------------
        .byte   W02
        .byte           N02   , En2 , v088
        .byte   W03
        .byte                   Bn2 , v111
        .byte   W03
        .byte                   En3 , v121
        .byte   W03
        .byte                   Fs3 , v122
        .byte   W03
        .byte                   Gn3 , v126
        .byte   W03
        .byte           N05   , Bn3
        .byte   W03
        .byte           N02   , Dn4
        .byte   W03
        .byte           N17   , En4
        .byte   W17
        .byte           N02   , Dn4 , v122
        .byte   W01
        .byte           N18   , En4 , v127
        .byte   W17
        .byte           N11   , Fs4 , v126
        .byte   W12
        .byte           N03   , Gn4
        .byte   W02
        .byte           N15   , An4 , v127
        .byte   W18
        .byte           N18   , An4 , v126
        .byte   W06
@ 024   ----------------------------------------
        .byte   W10
        .byte           N11   , Gn4 , v122
        .byte   W12
        .byte           N05   , An4 , v127
        .byte   W03
        .byte           TIE   , Bn4 , v124
        .byte   W68
        .byte   W03
@ 025   ----------------------------------------
        .byte   W52
        .byte           EOT
        .byte   W09
        .byte           N04   , Fs4 , v117
        .byte   W03
        .byte           N08   , Gn4 , v126
        .byte   W06
        .byte           N21   , An4 , v127
        .byte   W19
        .byte           N16   , Bn4 , v124
        .byte   W07
@ 026   ----------------------------------------
        .byte   W08
        .byte           N14   , Gn4 , v127
        .byte   W14
        .byte           N05   , An4
        .byte   W03
        .byte           N11   , Bn4
        .byte   W15
        .byte           N03   , An4 , v122
        .byte   W02
        .byte           N64   , Bn4 , v123 , gtp1
        .byte   W54
@ 027   ----------------------------------------
        .byte   W13
        .byte           N06   , Fs4 , v118
        .byte   W04
        .byte           N07   , Gn4 , v125
        .byte   W07
        .byte           N18   , An4 , v127
        .byte   W17
        .byte           N17   , Bn4
        .byte   W17
        .byte           N15   , Gn4 , v125
        .byte   W14
        .byte           N18   , Bn4 , v127
        .byte   W17
        .byte                   Fs4 , v126
        .byte   W07
@ 028   ----------------------------------------
        .byte   W10
        .byte           N14   , Gn4 , v125
        .byte   W13
        .byte           N05   , An4 , v124
        .byte   W03
        .byte           N12   , Bn4 , v127
        .byte   W16
        .byte           N16   , Bn4 , v123
        .byte   W16
        .byte           N04   , Gn4 , v127
        .byte   W03
        .byte           N84   , An4 , v122
        .byte   W32
        .byte   W03
@ 029   ----------------------------------------
        .byte   W60
        .byte           N11   , En4 , v124
        .byte   W11
        .byte           N03   , En4 , v120
        .byte   W03
        .byte           N12   , Fs4 , v127
        .byte   W16
        .byte           N19   , En4
        .byte   W06
@ 030   ----------------------------------------
        .byte   W11
        .byte           N14   , Fs4 , v124
        .byte   W11
        .byte           N05   , Gn4 , v120
        .byte   W03
        .byte           N13   , An4 , v127
        .byte   W17
        .byte           N12
        .byte   W18
        .byte           N76   , Gn4 , v123 , gtp1
        .byte   W36
@ 031   ----------------------------------------
        .byte   W44
        .byte   W03
        .byte           N02   , En2 , v088
        .byte   W03
        .byte                   Bn2 , v111
        .byte   W03
        .byte                   En3 , v121
        .byte   W03
        .byte                   Fs3 , v122
        .byte   W03
        .byte                   Gn3 , v126
        .byte   W03
        .byte                   Bn3
        .byte   W03
        .byte                   En4
        .byte   W03
        .byte                   Gn4 , v127
        .byte   W02
        .byte           N19   , Fs4 , v122
        .byte   W19
        .byte                   En4 , v127
        .byte   W07
@ 032   ----------------------------------------
        .byte   W11
        .byte           N11   , Fs4 , v122
        .byte   W12
        .byte           N05   , En4 , v127
        .byte   W03
        .byte           N14   , Fs4 , v116
        .byte   W16
        .byte           N18   , Fs4 , v122
        .byte   W18
        .byte           TIE   , Gn4
        .byte   W36
@ 033   ----------------------------------------
        .byte   W72
        .byte           EOT
        .byte   W12
        .byte           N11   , Bn3 , v120
        .byte   W12
@ 034   ----------------------------------------
        .byte           N12   , En4 , v121
        .byte   W11
        .byte                   Gn4
        .byte   W12
        .byte           N19   , Fs4
        .byte   W18
        .byte           N18   , Gn4 , v119
        .byte   W18
        .byte           N02   , Cs4 , v111
        .byte   W02
        .byte           TIE   , Dn4 , v126
        .byte   W32
        .byte   W03
@ 035   ----------------------------------------
        .byte   W68
        .byte   W01
        .byte           EOT
        .byte   W10
        .byte           N08   , Bn2 , v102
        .byte   W07
        .byte           N10   , Fs3 , v116
        .byte   W05
        .byte           N05   , Bn3 , v125
        .byte   W04
        .byte           N11   , Dn4 , v123
        .byte   W01
@ 036   ----------------------------------------
        .byte   W06
        .byte           N08   , En4 , v114
        .byte   W05
        .byte           N09   , Fs4 , v123
        .byte   W06
        .byte           N05   , Gn4 , v114
        .byte   W07
        .byte           N17   , Fs4 , v120
        .byte   W19
        .byte           N12   , Gn4 , v115
        .byte   W19
        .byte           N03   , An4
        .byte   W01
        .byte           N92   , Bn4 , v127 , gtp2
        .byte   W32
        .byte   W01
@ 037   ----------------------------------------
        .byte   W68
        .byte   W03
        .byte           N04   , An4
        .byte   W03
        .byte           N17   , Bn4 , v118
        .byte   W16
        .byte                   An4 , v127
        .byte   W06
@ 038   ----------------------------------------
        .byte   W12
        .byte           N08   , Gn4
        .byte   W13
        .byte           N16   , Fs4 , v126
        .byte   W16
        .byte           N14   , Gn4 , v127
        .byte   W17
        .byte           N02   , Cn5 , v118
        .byte   W02
        .byte           TIE   , Dn5 , v125
        .byte   W36
@ 039   ----------------------------------------
        .byte   W66
        .byte           EOT
        .byte   W05
        .byte           N40   , Dn5 , v083 , gtp1
        .byte   W24
        .byte   W01
@ 040   ----------------------------------------
        .byte   W96
@ 041   ----------------------------------------
        .byte   W96
@ 042   ----------------------------------------
        .byte   W96
@ 043   ----------------------------------------
        .byte   W96
@ 044   ----------------------------------------
        .byte   W96
@ 045   ----------------------------------------
        .byte   W96
@ 046   ----------------------------------------
        .byte   W96
@ 047   ----------------------------------------
        .byte   W96
@ 048   ----------------------------------------
        .byte   W96
@ 049   ----------------------------------------
        .byte   W96
@ 050   ----------------------------------------
        .byte   W96
@ 051   ----------------------------------------
        .byte   W96
@ 052   ----------------------------------------
        .byte   W96
@ 053   ----------------------------------------
        .byte   W96
@ 054   ----------------------------------------
        .byte   W96
@ 055   ----------------------------------------
        .byte   W96
@ 056   ----------------------------------------
        .byte   W96
@ 057   ----------------------------------------
        .byte   W96
@ 058   ----------------------------------------
        .byte   W96
@ 059   ----------------------------------------
        .byte   W96
@ 060   ----------------------------------------
        .byte   W96
@ 061   ----------------------------------------
        .byte   W96
@ 062   ----------------------------------------
        .byte   W96
@ 063   ----------------------------------------
        .byte   W96
@ 064   ----------------------------------------
        .byte   W96
@ 065   ----------------------------------------
        .byte   W96
@ 066   ----------------------------------------
        .byte   W96
@ 067   ----------------------------------------
        .byte   W96
@ 068   ----------------------------------------
        .byte   W96
@ 069   ----------------------------------------
        .byte   W96
@ 070   ----------------------------------------
        .byte   W96
@ 071   ----------------------------------------
        .byte   W96
@ 072   ----------------------------------------
        .byte   W96
@ 073   ----------------------------------------
        .byte   W96
@ 074   ----------------------------------------
        .byte   W96
@ 075   ----------------------------------------
        .byte   W96
@ 076   ----------------------------------------
        .byte   W96
@ 077   ----------------------------------------
        .byte   W96
@ 078   ----------------------------------------
        .byte   W96
@ 079   ----------------------------------------
        .byte   W92
        .byte   W01
        .byte           BEND  , c_v+0
        .byte   GOTO
         .word  VengefulGodInDarkOceanAbyss000000_4_LOOP
        .byte   W02
        .byte   FINE

@****************** Track 5 (Midi-Chn.5) ******************@

VengefulGodInDarkOceanAbyss000000_5:
        .byte   KEYSH , VengefulGodInDarkOceanAbyss000000_key+0
@ 000   ----------------------------------------
VengefulGodInDarkOceanAbyss000000_5_LOOP:
        .byte           VOICE , 102
        .byte           VOL   , 27
        .byte           PAN   , c_v-14
        .byte   W96
@ 001   ----------------------------------------
        .byte   W96
@ 002   ----------------------------------------
        .byte   W96
@ 003   ----------------------------------------
        .byte   W96
@ 004   ----------------------------------------
        .byte   W96
@ 005   ----------------------------------------
        .byte   W96
@ 006   ----------------------------------------
        .byte   W96
@ 007   ----------------------------------------
        .byte   W96
@ 008   ----------------------------------------
        .byte   W96
@ 009   ----------------------------------------
        .byte   W96
@ 010   ----------------------------------------
        .byte   W96
@ 011   ----------------------------------------
        .byte   W96
@ 012   ----------------------------------------
        .byte   W96
@ 013   ----------------------------------------
        .byte   W96
@ 014   ----------------------------------------
        .byte   W96
@ 015   ----------------------------------------
        .byte   W96
@ 016   ----------------------------------------
        .byte   W96
@ 017   ----------------------------------------
        .byte   W96
@ 018   ----------------------------------------
        .byte   W96
@ 019   ----------------------------------------
        .byte   W96
@ 020   ----------------------------------------
        .byte   W96
@ 021   ----------------------------------------
        .byte   W96
@ 022   ----------------------------------------
        .byte   W96
@ 023   ----------------------------------------
        .byte   W96
@ 024   ----------------------------------------
        .byte   W96
@ 025   ----------------------------------------
        .byte   W96
@ 026   ----------------------------------------
        .byte   W96
@ 027   ----------------------------------------
        .byte   W96
@ 028   ----------------------------------------
        .byte   W96
@ 029   ----------------------------------------
        .byte   W96
@ 030   ----------------------------------------
        .byte   W96
@ 031   ----------------------------------------
        .byte   W96
@ 032   ----------------------------------------
        .byte   W96
@ 033   ----------------------------------------
        .byte   W96
@ 034   ----------------------------------------
        .byte   W96
@ 035   ----------------------------------------
        .byte   W96
@ 036   ----------------------------------------
        .byte   W96
@ 037   ----------------------------------------
        .byte   W96
@ 038   ----------------------------------------
        .byte   W96
@ 039   ----------------------------------------
        .byte   W96
@ 040   ----------------------------------------
VengefulGodInDarkOceanAbyss000000_5_40:
        .byte           N80   , En1 , v127 , gtp3
        .byte   W92
        .byte   W03
        .byte           N04   , Ds1
        .byte   W01
        .byte   PEND
@ 041   ----------------------------------------
VengefulGodInDarkOceanAbyss000000_5_41:
        .byte   W01
        .byte           N36   , En1 , v127 , gtp1
        .byte   W32
        .byte   W03
        .byte           N32   , Fs1 , v127 , gtp3
        .byte   W36
        .byte           N23   , En1
        .byte   W24
        .byte   PEND
@ 042   ----------------------------------------
        .byte           N80   , Gn1
        .byte   W96
@ 043   ----------------------------------------
VengefulGodInDarkOceanAbyss000000_5_43:
        .byte           N05   , Fs1 , v127
        .byte   W04
        .byte           N30   , Gn1 , v127 , gtp1
        .byte   W32
        .byte           N32   , An1 , v127 , gtp3
        .byte   W36
        .byte           N23   , Gn1
        .byte   W24
        .byte   PEND
@ 044   ----------------------------------------
        .byte           N80   , Fs1 , v127 , gtp3
        .byte   W96
@ 045   ----------------------------------------
VengefulGodInDarkOceanAbyss000000_5_45:
        .byte           N32   , Fs1 , v127 , gtp2
        .byte   W36
        .byte           N32   , En1 , v127 , gtp3
        .byte   W36
        .byte           N23   , Fs1
        .byte   W24
        .byte   PEND
@ 046   ----------------------------------------
        .byte           N80   , Cn1 , v127 , gtp3
        .byte   W96
@ 047   ----------------------------------------
VengefulGodInDarkOceanAbyss000000_5_47:
        .byte           N36   , Cn1 , v127
        .byte   W36
        .byte           N32   , Dn1 , v127 , gtp3
        .byte   W36
        .byte           N24   , Gn1 , v127 , gtp1
        .byte   W24
        .byte   PEND
@ 048   ----------------------------------------
        .byte   PATT
         .word  VengefulGodInDarkOceanAbyss000000_5_40
@ 049   ----------------------------------------
        .byte   PATT
         .word  VengefulGodInDarkOceanAbyss000000_5_41
@ 050   ----------------------------------------
        .byte           N80   , Gn1 , v127
        .byte   W96
@ 051   ----------------------------------------
        .byte   PATT
         .word  VengefulGodInDarkOceanAbyss000000_5_43
@ 052   ----------------------------------------
        .byte           N80   , Fs1 , v127 , gtp3
        .byte   W96
@ 053   ----------------------------------------
        .byte   PATT
         .word  VengefulGodInDarkOceanAbyss000000_5_45
@ 054   ----------------------------------------
        .byte           N80   , Cn1 , v127 , gtp3
        .byte   W96
@ 055   ----------------------------------------
        .byte   PATT
         .word  VengefulGodInDarkOceanAbyss000000_5_47
@ 056   ----------------------------------------
        .byte   PATT
         .word  VengefulGodInDarkOceanAbyss000000_5_40
@ 057   ----------------------------------------
        .byte   PATT
         .word  VengefulGodInDarkOceanAbyss000000_5_41
@ 058   ----------------------------------------
        .byte           N80   , Gn1 , v127
        .byte   W96
@ 059   ----------------------------------------
        .byte   PATT
         .word  VengefulGodInDarkOceanAbyss000000_5_43
@ 060   ----------------------------------------
        .byte           N80   , Fs1 , v127 , gtp3
        .byte   W96
@ 061   ----------------------------------------
        .byte   PATT
         .word  VengefulGodInDarkOceanAbyss000000_5_45
@ 062   ----------------------------------------
        .byte           N80   , Cn1 , v127 , gtp3
        .byte   W96
@ 063   ----------------------------------------
        .byte   PATT
         .word  VengefulGodInDarkOceanAbyss000000_5_47
@ 064   ----------------------------------------
        .byte   PATT
         .word  VengefulGodInDarkOceanAbyss000000_5_40
@ 065   ----------------------------------------
        .byte   PATT
         .word  VengefulGodInDarkOceanAbyss000000_5_41
@ 066   ----------------------------------------
        .byte           N80   , Gn1 , v127
        .byte   W96
@ 067   ----------------------------------------
        .byte   PATT
         .word  VengefulGodInDarkOceanAbyss000000_5_43
@ 068   ----------------------------------------
        .byte           N80   , Fs1 , v127 , gtp3
        .byte   W96
@ 069   ----------------------------------------
        .byte   PATT
         .word  VengefulGodInDarkOceanAbyss000000_5_45
@ 070   ----------------------------------------
        .byte           N80   , Cn1 , v127 , gtp3
        .byte   W96
@ 071   ----------------------------------------
        .byte   PATT
         .word  VengefulGodInDarkOceanAbyss000000_5_47
@ 072   ----------------------------------------
        .byte           TIE   , En1 , v127
        .byte   W96
@ 073   ----------------------------------------
        .byte   W84
        .byte           EOT
        .byte   W12
@ 074   ----------------------------------------
        .byte           TIE   , En1 , v088
        .byte   W96
@ 075   ----------------------------------------
        .byte   W78
        .byte           EOT
        .byte   W18
@ 076   ----------------------------------------
        .byte           TIE   , En1 , v074
        .byte   W96
@ 077   ----------------------------------------
        .byte   W80
        .byte   W02
        .byte           EOT
        .byte   W14
@ 078   ----------------------------------------
        .byte   W96
@ 079   ----------------------------------------
        .byte   W92
        .byte   W01
        .byte   GOTO
         .word  VengefulGodInDarkOceanAbyss000000_5_LOOP
        .byte   W02
        .byte   FINE

@****************** Track 6 (Midi-Chn.6) ******************@

VengefulGodInDarkOceanAbyss000000_6:
        .byte   KEYSH , VengefulGodInDarkOceanAbyss000000_key+0
@ 000   ----------------------------------------
VengefulGodInDarkOceanAbyss000000_6_LOOP:
        .byte           VOICE , 65
        .byte           VOL   , 9
        .byte           PAN   , c_v-14
        .byte   W96
@ 001   ----------------------------------------
        .byte   W96
@ 002   ----------------------------------------
        .byte   W96
@ 003   ----------------------------------------
        .byte   W96
@ 004   ----------------------------------------
        .byte   W96
@ 005   ----------------------------------------
        .byte   W96
@ 006   ----------------------------------------
        .byte   W96
@ 007   ----------------------------------------
        .byte   W96
@ 008   ----------------------------------------
        .byte   W96
@ 009   ----------------------------------------
        .byte   W96
@ 010   ----------------------------------------
        .byte   W96
@ 011   ----------------------------------------
        .byte   W96
@ 012   ----------------------------------------
        .byte   W96
@ 013   ----------------------------------------
        .byte   W96
@ 014   ----------------------------------------
        .byte   W96
@ 015   ----------------------------------------
        .byte   W96
@ 016   ----------------------------------------
        .byte   W96
@ 017   ----------------------------------------
        .byte   W96
@ 018   ----------------------------------------
        .byte   W96
@ 019   ----------------------------------------
        .byte   W96
@ 020   ----------------------------------------
        .byte   W96
@ 021   ----------------------------------------
        .byte   W96
@ 022   ----------------------------------------
        .byte   W96
@ 023   ----------------------------------------
        .byte   W96
@ 024   ----------------------------------------
        .byte   W96
@ 025   ----------------------------------------
        .byte   W96
@ 026   ----------------------------------------
        .byte   W96
@ 027   ----------------------------------------
        .byte   W96
@ 028   ----------------------------------------
        .byte   W96
@ 029   ----------------------------------------
        .byte   W96
@ 030   ----------------------------------------
        .byte   W96
@ 031   ----------------------------------------
        .byte   W96
@ 032   ----------------------------------------
        .byte   W96
@ 033   ----------------------------------------
        .byte   W96
@ 034   ----------------------------------------
        .byte   W96
@ 035   ----------------------------------------
        .byte   W96
@ 036   ----------------------------------------
        .byte   W96
@ 037   ----------------------------------------
        .byte   W96
@ 038   ----------------------------------------
        .byte   W96
@ 039   ----------------------------------------
        .byte   W96
@ 040   ----------------------------------------
        .byte   W24
        .byte           N80   , En1 , v127 , gtp3
        .byte   W72
@ 041   ----------------------------------------
VengefulGodInDarkOceanAbyss000000_6_41:
        .byte   W23
        .byte           N04   , Ds1 , v127
        .byte   W02
        .byte           N36   , En1 , v127 , gtp1
        .byte   W32
        .byte   W03
        .byte           N32   , Fs1 , v127 , gtp3
        .byte   W36
        .byte   PEND
@ 042   ----------------------------------------
VengefulGodInDarkOceanAbyss000000_6_42:
        .byte           N23   , En1 , v127
        .byte   W24
        .byte           N80   , Gn1
        .byte   W72
        .byte   PEND
@ 043   ----------------------------------------
VengefulGodInDarkOceanAbyss000000_6_43:
        .byte   W24
        .byte           N05   , Fs1 , v127
        .byte   W04
        .byte           N30   , Gn1 , v127 , gtp1
        .byte   W32
        .byte           N32   , An1 , v127 , gtp3
        .byte   W36
        .byte   PEND
@ 044   ----------------------------------------
VengefulGodInDarkOceanAbyss000000_6_44:
        .byte           N23   , Gn1 , v127
        .byte   W24
        .byte           N80   , Fs1 , v127 , gtp3
        .byte   W72
        .byte   PEND
@ 045   ----------------------------------------
VengefulGodInDarkOceanAbyss000000_6_45:
        .byte   W24
        .byte           N32   , Fs1 , v127 , gtp2
        .byte   W36
        .byte           N32   , En1 , v127 , gtp3
        .byte   W36
        .byte   PEND
@ 046   ----------------------------------------
VengefulGodInDarkOceanAbyss000000_6_46:
        .byte           N23   , Fs1 , v127
        .byte   W24
        .byte           N80   , Cn1 , v127 , gtp3
        .byte   W72
        .byte   PEND
@ 047   ----------------------------------------
VengefulGodInDarkOceanAbyss000000_6_47:
        .byte   W24
        .byte           N36   , Cn1 , v127
        .byte   W36
        .byte           N32   , Dn1 , v127 , gtp3
        .byte   W36
        .byte   PEND
@ 048   ----------------------------------------
        .byte           N24   , Gn1 , v127 , gtp1
        .byte   W24
        .byte           N80   , En1 , v127 , gtp3
        .byte   W72
@ 049   ----------------------------------------
        .byte   PATT
         .word  VengefulGodInDarkOceanAbyss000000_6_41
@ 050   ----------------------------------------
        .byte   PATT
         .word  VengefulGodInDarkOceanAbyss000000_6_42
@ 051   ----------------------------------------
        .byte   PATT
         .word  VengefulGodInDarkOceanAbyss000000_6_43
@ 052   ----------------------------------------
        .byte   PATT
         .word  VengefulGodInDarkOceanAbyss000000_6_44
@ 053   ----------------------------------------
        .byte   PATT
         .word  VengefulGodInDarkOceanAbyss000000_6_45
@ 054   ----------------------------------------
        .byte   PATT
         .word  VengefulGodInDarkOceanAbyss000000_6_46
@ 055   ----------------------------------------
        .byte   PATT
         .word  VengefulGodInDarkOceanAbyss000000_6_47
@ 056   ----------------------------------------
        .byte           N24   , Gn1 , v127 , gtp1
        .byte   W96
@ 057   ----------------------------------------
        .byte   W96
@ 058   ----------------------------------------
        .byte   W96
@ 059   ----------------------------------------
        .byte   W96
@ 060   ----------------------------------------
        .byte   W96
@ 061   ----------------------------------------
        .byte   W96
@ 062   ----------------------------------------
        .byte   W96
@ 063   ----------------------------------------
        .byte   W96
@ 064   ----------------------------------------
        .byte   W96
@ 065   ----------------------------------------
        .byte   W96
@ 066   ----------------------------------------
        .byte   W96
@ 067   ----------------------------------------
        .byte   W96
@ 068   ----------------------------------------
        .byte   W96
@ 069   ----------------------------------------
        .byte   W96
@ 070   ----------------------------------------
        .byte   W96
@ 071   ----------------------------------------
        .byte   W96
@ 072   ----------------------------------------
        .byte   W96
@ 073   ----------------------------------------
        .byte   W96
@ 074   ----------------------------------------
        .byte   W96
@ 075   ----------------------------------------
        .byte   W96
@ 076   ----------------------------------------
        .byte   W96
@ 077   ----------------------------------------
        .byte   W96
@ 078   ----------------------------------------
        .byte   W96
@ 079   ----------------------------------------
        .byte   W92
        .byte   W01
        .byte   GOTO
         .word  VengefulGodInDarkOceanAbyss000000_6_LOOP
        .byte   W02
        .byte   FINE

@****************** Track 7 (Midi-Chn.8) ******************@

VengefulGodInDarkOceanAbyss000000_7:
        .byte   KEYSH , VengefulGodInDarkOceanAbyss000000_key+0
@ 000   ----------------------------------------
VengefulGodInDarkOceanAbyss000000_7_LOOP:
        .byte           VOICE , 3
        .byte           VOL   , 22
        .byte   W96
@ 001   ----------------------------------------
        .byte   W96
@ 002   ----------------------------------------
        .byte   W96
@ 003   ----------------------------------------
        .byte   W96
@ 004   ----------------------------------------
        .byte   W96
@ 005   ----------------------------------------
        .byte   W96
@ 006   ----------------------------------------
        .byte   W96
@ 007   ----------------------------------------
        .byte   W96
@ 008   ----------------------------------------
        .byte   W96
@ 009   ----------------------------------------
        .byte   W96
@ 010   ----------------------------------------
        .byte   W96
@ 011   ----------------------------------------
        .byte   W96
@ 012   ----------------------------------------
        .byte   W96
@ 013   ----------------------------------------
        .byte   W96
@ 014   ----------------------------------------
        .byte   W96
@ 015   ----------------------------------------
        .byte   W96
@ 016   ----------------------------------------
        .byte   W96
@ 017   ----------------------------------------
        .byte   W96
@ 018   ----------------------------------------
        .byte   W96
@ 019   ----------------------------------------
        .byte   W96
@ 020   ----------------------------------------
        .byte   W96
@ 021   ----------------------------------------
        .byte   W96
@ 022   ----------------------------------------
        .byte   W96
@ 023   ----------------------------------------
        .byte   W96
@ 024   ----------------------------------------
        .byte   W96
@ 025   ----------------------------------------
        .byte   W96
@ 026   ----------------------------------------
        .byte   W96
@ 027   ----------------------------------------
        .byte   W96
@ 028   ----------------------------------------
        .byte   W96
@ 029   ----------------------------------------
        .byte   W96
@ 030   ----------------------------------------
        .byte   W96
@ 031   ----------------------------------------
        .byte   W96
@ 032   ----------------------------------------
        .byte   W96
@ 033   ----------------------------------------
        .byte   W96
@ 034   ----------------------------------------
        .byte   W96
@ 035   ----------------------------------------
        .byte   W96
@ 036   ----------------------------------------
        .byte   W96
@ 037   ----------------------------------------
        .byte   W96
@ 038   ----------------------------------------
        .byte   W96
@ 039   ----------------------------------------
        .byte   W96
@ 040   ----------------------------------------
VengefulGodInDarkOceanAbyss000000_7_40:
        .byte           N03   , En4 , v077
        .byte           N03   , Gn4
        .byte   W12
        .byte           N02   , En4 , v043
        .byte           N02   , Gn4
        .byte   W12
        .byte           N01   , En4 , v067
        .byte           N01   , Gn4
        .byte   W12
        .byte           N03   , En4 , v077
        .byte           N03   , Gn4
        .byte   W12
        .byte           N02   , En4 , v062
        .byte           N02   , Gn4
        .byte   W12
        .byte                   En4 , v066
        .byte           N02   , Gn4
        .byte   W12
        .byte                   En4 , v070
        .byte           N02   , Gn4
        .byte   W12
        .byte           N01   , En4 , v069
        .byte           N01   , Gn4
        .byte   W12
        .byte   PEND
@ 041   ----------------------------------------
VengefulGodInDarkOceanAbyss000000_7_41:
        .byte           N03   , En4 , v076
        .byte           N03   , Gn4
        .byte   W12
        .byte           N01   , En4 , v066
        .byte           N01   , Gn4
        .byte   W12
        .byte                   En4 , v059
        .byte           N01   , Gn4
        .byte   W12
        .byte           N03   , En4 , v074
        .byte           N03   , Gn4
        .byte   W12
        .byte           N01   , En4 , v065
        .byte           N01   , Gn4
        .byte   W12
        .byte                   En4
        .byte           N01   , Gn4
        .byte   W12
        .byte           N02   , En4 , v070
        .byte           N02   , Gn4
        .byte   W12
        .byte                   En4
        .byte           N02   , Gn4
        .byte   W12
        .byte   PEND
@ 042   ----------------------------------------
VengefulGodInDarkOceanAbyss000000_7_42:
        .byte           N03   , Dn4 , v079
        .byte           N03   , Gn4 , v077
        .byte   W12
        .byte           N02   , Dn4 , v067
        .byte           N02   , Gn4 , v043
        .byte   W12
        .byte           N01   , Dn4 , v062
        .byte           N01   , Gn4 , v067
        .byte   W12
        .byte           N03   , Dn4 , v077
        .byte           N03   , Gn4
        .byte   W12
        .byte           N01   , Dn4 , v058
        .byte           N02   , Gn4 , v062
        .byte   W12
        .byte           N01   , Dn4 , v066
        .byte           N02   , Gn4
        .byte   W12
        .byte                   Dn4 , v070
        .byte           N02   , Gn4
        .byte   W12
        .byte                   Dn4 , v061
        .byte           N01   , Gn4 , v069
        .byte   W12
        .byte   PEND
@ 043   ----------------------------------------
VengefulGodInDarkOceanAbyss000000_7_43:
        .byte           N04   , Dn4 , v076
        .byte           N03   , Gn4
        .byte   W12
        .byte           N02   , Dn4 , v057
        .byte           N01   , Gn4 , v066
        .byte   W12
        .byte           N02   , Dn4 , v058
        .byte           N01   , Gn4 , v059
        .byte   W12
        .byte           N03   , Dn4 , v077
        .byte           N03   , Gn4 , v074
        .byte   W12
        .byte           N02   , Dn4 , v061
        .byte           N01   , Gn4 , v065
        .byte   W12
        .byte                   Dn4 , v064
        .byte           N01   , Gn4 , v065
        .byte   W12
        .byte           N02   , Dn4 , v070
        .byte           N02   , Gn4
        .byte   W12
        .byte                   Dn4 , v060
        .byte           N02   , Gn4 , v070
        .byte   W12
        .byte   PEND
@ 044   ----------------------------------------
VengefulGodInDarkOceanAbyss000000_7_44:
        .byte           N04   , Cs4 , v070
        .byte           N03   , Gn4 , v077
        .byte   W12
        .byte           N01   , Cs4 , v055
        .byte           N02   , Gn4 , v043
        .byte   W12
        .byte           N03   , Cs4 , v066
        .byte           N01   , Gn4 , v067
        .byte   W12
        .byte           N03   , Cs4 , v070
        .byte           N03   , Gn4 , v077
        .byte   W12
        .byte           N02   , Cs4 , v058
        .byte           N02   , Gn4 , v062
        .byte   W12
        .byte                   Cs4 , v064
        .byte           N02   , Gn4 , v066
        .byte   W12
        .byte                   Cs4 , v060
        .byte           N02   , Gn4 , v070
        .byte   W12
        .byte                   Cs4 , v055
        .byte           N01   , Gn4 , v069
        .byte   W12
        .byte   PEND
@ 045   ----------------------------------------
VengefulGodInDarkOceanAbyss000000_7_45:
        .byte           N02   , Cs4 , v073
        .byte           N03   , Gn4 , v076
        .byte   W12
        .byte           N01   , Cs4 , v055
        .byte           N01   , Gn4 , v066
        .byte   W12
        .byte           N02   , Cs4 , v061
        .byte           N01   , Gn4 , v059
        .byte   W12
        .byte           N02   , Cs4 , v067
        .byte           N03   , Gn4 , v074
        .byte   W12
        .byte           N01   , Cs4 , v056
        .byte           N01   , Gn4 , v065
        .byte   W12
        .byte           N03   , Cs4 , v055
        .byte           N01   , Gn4 , v065
        .byte   W12
        .byte           N03   , Cs4 , v064
        .byte           N02   , Gn4 , v070
        .byte   W12
        .byte           N01   , Cs4 , v062
        .byte           N02   , Gn4 , v070
        .byte   W12
        .byte   PEND
@ 046   ----------------------------------------
VengefulGodInDarkOceanAbyss000000_7_46:
        .byte           N03   , Cn4 , v077
        .byte           N03   , Gn4
        .byte   W12
        .byte           N02   , Cn4 , v052
        .byte           N02   , Gn4 , v043
        .byte   W12
        .byte                   Cn4 , v059
        .byte           N01   , Gn4 , v067
        .byte   W12
        .byte           N03   , Cn4 , v070
        .byte           N03   , Gn4 , v077
        .byte   W12
        .byte           N02   , Cn4 , v058
        .byte           N02   , Gn4 , v062
        .byte   W12
        .byte                   Cn4 , v055
        .byte           N02   , Gn4 , v066
        .byte   W12
        .byte           N03   , Cn4 , v064
        .byte           N02   , Gn4 , v070
        .byte   W12
        .byte                   Cn4 , v060
        .byte           N01   , Gn4 , v069
        .byte   W12
        .byte   PEND
@ 047   ----------------------------------------
VengefulGodInDarkOceanAbyss000000_7_47:
        .byte           N02   , Cn4 , v075
        .byte           N03   , Gn4 , v076
        .byte   W12
        .byte           N02   , Cn4 , v057
        .byte           N01   , Gn4 , v066
        .byte   W12
        .byte           N02   , Cn4 , v051
        .byte           N01   , Gn4 , v059
        .byte   W12
        .byte           N04   , Cn4 , v075
        .byte           N03   , Gn4 , v074
        .byte   W12
        .byte           N02   , Cn4 , v056
        .byte           N01   , Gn4 , v065
        .byte   W12
        .byte           N04   , Cn4 , v060
        .byte           N01   , Gn4 , v065
        .byte   W12
        .byte           N03   , Cn4 , v062
        .byte           N02   , Gn4 , v070
        .byte   W12
        .byte           N04   , Cn4 , v061
        .byte           N02   , Gn4 , v070
        .byte   W12
        .byte   PEND
@ 048   ----------------------------------------
        .byte   PATT
         .word  VengefulGodInDarkOceanAbyss000000_7_40
@ 049   ----------------------------------------
        .byte   PATT
         .word  VengefulGodInDarkOceanAbyss000000_7_41
@ 050   ----------------------------------------
        .byte   PATT
         .word  VengefulGodInDarkOceanAbyss000000_7_42
@ 051   ----------------------------------------
        .byte   PATT
         .word  VengefulGodInDarkOceanAbyss000000_7_43
@ 052   ----------------------------------------
        .byte   PATT
         .word  VengefulGodInDarkOceanAbyss000000_7_44
@ 053   ----------------------------------------
        .byte   PATT
         .word  VengefulGodInDarkOceanAbyss000000_7_45
@ 054   ----------------------------------------
        .byte   PATT
         .word  VengefulGodInDarkOceanAbyss000000_7_46
@ 055   ----------------------------------------
        .byte   PATT
         .word  VengefulGodInDarkOceanAbyss000000_7_47
@ 056   ----------------------------------------
        .byte   PATT
         .word  VengefulGodInDarkOceanAbyss000000_7_40
@ 057   ----------------------------------------
        .byte   PATT
         .word  VengefulGodInDarkOceanAbyss000000_7_41
@ 058   ----------------------------------------
        .byte   PATT
         .word  VengefulGodInDarkOceanAbyss000000_7_42
@ 059   ----------------------------------------
        .byte   PATT
         .word  VengefulGodInDarkOceanAbyss000000_7_43
@ 060   ----------------------------------------
        .byte   PATT
         .word  VengefulGodInDarkOceanAbyss000000_7_44
@ 061   ----------------------------------------
        .byte   PATT
         .word  VengefulGodInDarkOceanAbyss000000_7_45
@ 062   ----------------------------------------
        .byte   PATT
         .word  VengefulGodInDarkOceanAbyss000000_7_46
@ 063   ----------------------------------------
        .byte   PATT
         .word  VengefulGodInDarkOceanAbyss000000_7_47
@ 064   ----------------------------------------
        .byte   PATT
         .word  VengefulGodInDarkOceanAbyss000000_7_40
@ 065   ----------------------------------------
        .byte   PATT
         .word  VengefulGodInDarkOceanAbyss000000_7_41
@ 066   ----------------------------------------
        .byte   PATT
         .word  VengefulGodInDarkOceanAbyss000000_7_42
@ 067   ----------------------------------------
        .byte   PATT
         .word  VengefulGodInDarkOceanAbyss000000_7_43
@ 068   ----------------------------------------
        .byte   PATT
         .word  VengefulGodInDarkOceanAbyss000000_7_44
@ 069   ----------------------------------------
        .byte   PATT
         .word  VengefulGodInDarkOceanAbyss000000_7_45
@ 070   ----------------------------------------
        .byte   PATT
         .word  VengefulGodInDarkOceanAbyss000000_7_46
@ 071   ----------------------------------------
        .byte   PATT
         .word  VengefulGodInDarkOceanAbyss000000_7_47
@ 072   ----------------------------------------
        .byte   PATT
         .word  VengefulGodInDarkOceanAbyss000000_7_40
@ 073   ----------------------------------------
        .byte   PATT
         .word  VengefulGodInDarkOceanAbyss000000_7_41
@ 074   ----------------------------------------
        .byte           N03   , En4 , v053
        .byte           N03   , Gn4
        .byte   W12
        .byte           N02   , En4 , v019
        .byte           N02   , Gn4
        .byte   W12
        .byte           N01   , En4 , v043
        .byte           N01   , Gn4
        .byte   W12
        .byte           N03   , En4 , v053
        .byte           N03   , Gn4
        .byte   W12
        .byte           N02   , En4 , v038
        .byte           N02   , Gn4
        .byte   W12
        .byte                   En4 , v042
        .byte           N02   , Gn4
        .byte   W12
        .byte                   En4 , v046
        .byte           N02   , Gn4
        .byte   W12
        .byte           N01   , En4 , v045
        .byte           N01   , Gn4
        .byte   W12
@ 075   ----------------------------------------
        .byte           N03   , En4 , v033
        .byte           N03   , Gn4
        .byte   W12
        .byte           N01   , En4 , v023
        .byte           N01   , Gn4
        .byte   W12
        .byte                   En4 , v016
        .byte           N01   , Gn4
        .byte   W12
        .byte           N03   , En4 , v031
        .byte           N03   , Gn4
        .byte   W12
        .byte           N01   , En4 , v022
        .byte           N01   , Gn4
        .byte   W12
        .byte                   En4
        .byte           N01   , Gn4
        .byte   W12
        .byte           N02   , En4 , v027
        .byte           N02   , Gn4
        .byte   W12
        .byte                   En4
        .byte           N02   , Gn4
        .byte   W12
@ 076   ----------------------------------------
        .byte   W96
@ 077   ----------------------------------------
        .byte   W96
@ 078   ----------------------------------------
        .byte   W96
@ 079   ----------------------------------------
        .byte   W92
        .byte   W01
        .byte   GOTO
         .word  VengefulGodInDarkOceanAbyss000000_7_LOOP
        .byte   W02
        .byte   FINE

@***************** Track 8 (Midi-Chn.10) ******************@

VengefulGodInDarkOceanAbyss000000_8:
        .byte   KEYSH , VengefulGodInDarkOceanAbyss000000_key+0
@ 000   ----------------------------------------
VengefulGodInDarkOceanAbyss000000_8_LOOP:
        .byte           VOICE , 68
        .byte           VOL   , 32
        .byte           PAN   , c_v-20
        .byte   W96
@ 001   ----------------------------------------
        .byte   W96
@ 002   ----------------------------------------
        .byte   W96
@ 003   ----------------------------------------
        .byte   W96
@ 004   ----------------------------------------
        .byte   W96
@ 005   ----------------------------------------
        .byte   W96
@ 006   ----------------------------------------
        .byte   W96
@ 007   ----------------------------------------
        .byte   W96
@ 008   ----------------------------------------
        .byte   W96
@ 009   ----------------------------------------
        .byte   W96
@ 010   ----------------------------------------
        .byte   W96
@ 011   ----------------------------------------
        .byte   W96
@ 012   ----------------------------------------
        .byte   W96
@ 013   ----------------------------------------
        .byte   W96
@ 014   ----------------------------------------
        .byte   W96
@ 015   ----------------------------------------
        .byte   W96
@ 016   ----------------------------------------
        .byte   W96
@ 017   ----------------------------------------
        .byte   W96
@ 018   ----------------------------------------
        .byte   W96
@ 019   ----------------------------------------
        .byte   W96
@ 020   ----------------------------------------
        .byte   W96
@ 021   ----------------------------------------
        .byte   W96
@ 022   ----------------------------------------
        .byte   W96
@ 023   ----------------------------------------
        .byte   W96
@ 024   ----------------------------------------
        .byte   W96
@ 025   ----------------------------------------
        .byte   W96
@ 026   ----------------------------------------
        .byte   W96
@ 027   ----------------------------------------
        .byte   W96
@ 028   ----------------------------------------
        .byte   W96
@ 029   ----------------------------------------
        .byte   W96
@ 030   ----------------------------------------
        .byte   W96
@ 031   ----------------------------------------
        .byte   W96
@ 032   ----------------------------------------
        .byte   W96
@ 033   ----------------------------------------
        .byte   W96
@ 034   ----------------------------------------
        .byte   W96
@ 035   ----------------------------------------
        .byte   W96
@ 036   ----------------------------------------
        .byte   W96
@ 037   ----------------------------------------
        .byte   W96
@ 038   ----------------------------------------
        .byte   W96
@ 039   ----------------------------------------
        .byte   W96
@ 040   ----------------------------------------
        .byte   W96
@ 041   ----------------------------------------
        .byte   W96
@ 042   ----------------------------------------
        .byte   W96
@ 043   ----------------------------------------
        .byte   W96
@ 044   ----------------------------------------
        .byte   W96
@ 045   ----------------------------------------
        .byte   W96
@ 046   ----------------------------------------
        .byte   W96
@ 047   ----------------------------------------
        .byte   W96
@ 048   ----------------------------------------
        .byte   W96
@ 049   ----------------------------------------
        .byte   W96
@ 050   ----------------------------------------
        .byte   W96
@ 051   ----------------------------------------
        .byte   W96
@ 052   ----------------------------------------
        .byte   W96
@ 053   ----------------------------------------
        .byte   W96
@ 054   ----------------------------------------
        .byte   W96
@ 055   ----------------------------------------
        .byte   W96
@ 056   ----------------------------------------
VengefulGodInDarkOceanAbyss000000_8_56:
        .byte           N80   , Bn3 , v082 , gtp3
        .byte   W84
        .byte           N11   , Bn3 , v055
        .byte   W12
        .byte   PEND
@ 057   ----------------------------------------
VengefulGodInDarkOceanAbyss000000_8_57:
        .byte           N32   , Bn3 , v089 , gtp3
        .byte   W32
        .byte   W02
        .byte           N36   , En4 , v095 , gtp2
        .byte   W32
        .byte   W03
        .byte           N24   , Bn3 , v094 , gtp2
        .byte   W24
        .byte   W01
        .byte           N80   , Dn4 , v096 , gtp3
        .byte   W02
        .byte   PEND
@ 058   ----------------------------------------
VengefulGodInDarkOceanAbyss000000_8_58:
        .byte   W84
        .byte           N11   , Dn4 , v055
        .byte   W12
        .byte   PEND
@ 059   ----------------------------------------
VengefulGodInDarkOceanAbyss000000_8_59:
        .byte           N32   , Bn3 , v092 , gtp3
        .byte   W36
        .byte                   Dn4 , v098
        .byte   W36
        .byte           N23   , Gn4 , v096
        .byte   W22
        .byte           N80   , Fs4 , v096 , gtp1
        .byte   W02
        .byte   PEND
@ 060   ----------------------------------------
VengefulGodInDarkOceanAbyss000000_8_60:
        .byte   W84
        .byte           N11   , Fs4 , v055
        .byte   W12
        .byte   PEND
@ 061   ----------------------------------------
VengefulGodInDarkOceanAbyss000000_8_61:
        .byte           N36   , Fs4 , v096
        .byte   W36
        .byte           N32   , Cs4 , v093 , gtp1
        .byte   W36
        .byte           N23   , Fs4 , v096
        .byte   W24
        .byte   PEND
@ 062   ----------------------------------------
VengefulGodInDarkOceanAbyss000000_8_62:
        .byte   W01
        .byte           N78   , En4 , v086 , gtp1
        .byte   W80
        .byte   W03
        .byte           N11   , En4 , v055
        .byte   W12
        .byte   PEND
@ 063   ----------------------------------------
VengefulGodInDarkOceanAbyss000000_8_63:
        .byte           N32   , En4 , v089 , gtp3
        .byte   W36
        .byte                   Cn4 , v096
        .byte   W36
        .byte           N23   , Gn3 , v088
        .byte   W24
        .byte   PEND
@ 064   ----------------------------------------
        .byte   PATT
         .word  VengefulGodInDarkOceanAbyss000000_8_56
@ 065   ----------------------------------------
        .byte   PATT
         .word  VengefulGodInDarkOceanAbyss000000_8_57
@ 066   ----------------------------------------
        .byte   PATT
         .word  VengefulGodInDarkOceanAbyss000000_8_58
@ 067   ----------------------------------------
        .byte   PATT
         .word  VengefulGodInDarkOceanAbyss000000_8_59
@ 068   ----------------------------------------
        .byte   PATT
         .word  VengefulGodInDarkOceanAbyss000000_8_60
@ 069   ----------------------------------------
        .byte   PATT
         .word  VengefulGodInDarkOceanAbyss000000_8_61
@ 070   ----------------------------------------
        .byte   PATT
         .word  VengefulGodInDarkOceanAbyss000000_8_62
@ 071   ----------------------------------------
        .byte   PATT
         .word  VengefulGodInDarkOceanAbyss000000_8_63
@ 072   ----------------------------------------
        .byte           N88   , Bn3 , v082 , gtp1
        .byte   W96
@ 073   ----------------------------------------
        .byte                   Bn3 , v065
        .byte   W96
@ 074   ----------------------------------------
        .byte                   Bn3 , v049
        .byte   W96
@ 075   ----------------------------------------
        .byte                   Bn3 , v033
        .byte   W96
@ 076   ----------------------------------------
        .byte   W96
@ 077   ----------------------------------------
        .byte   W96
@ 078   ----------------------------------------
        .byte   W96
@ 079   ----------------------------------------
        .byte   W92
        .byte   W01
        .byte   GOTO
         .word  VengefulGodInDarkOceanAbyss000000_8_LOOP
        .byte   W02
        .byte   FINE

@***************** Track 9 (Midi-Chn.11) ******************@

VengefulGodInDarkOceanAbyss000000_9:
        .byte   KEYSH , VengefulGodInDarkOceanAbyss000000_key+0
@ 000   ----------------------------------------
VengefulGodInDarkOceanAbyss000000_9_LOOP:
        .byte           VOICE , 73
        .byte           VOL   , 10
        .byte           PAN   , c_v+18
        .byte   W96
@ 001   ----------------------------------------
        .byte   W96
@ 002   ----------------------------------------
        .byte   W96
@ 003   ----------------------------------------
        .byte   W96
@ 004   ----------------------------------------
        .byte   W96
@ 005   ----------------------------------------
        .byte   W96
@ 006   ----------------------------------------
        .byte   W96
@ 007   ----------------------------------------
        .byte   W96
@ 008   ----------------------------------------
        .byte   W96
@ 009   ----------------------------------------
        .byte   W96
@ 010   ----------------------------------------
        .byte   W96
@ 011   ----------------------------------------
        .byte   W96
@ 012   ----------------------------------------
        .byte   W96
@ 013   ----------------------------------------
        .byte   W96
@ 014   ----------------------------------------
        .byte   W96
@ 015   ----------------------------------------
        .byte   W96
@ 016   ----------------------------------------
        .byte   W96
@ 017   ----------------------------------------
        .byte   W96
@ 018   ----------------------------------------
        .byte   W96
@ 019   ----------------------------------------
        .byte   W96
@ 020   ----------------------------------------
        .byte   W96
@ 021   ----------------------------------------
        .byte   W96
@ 022   ----------------------------------------
        .byte   W96
@ 023   ----------------------------------------
        .byte   W96
@ 024   ----------------------------------------
        .byte   W96
@ 025   ----------------------------------------
        .byte   W96
@ 026   ----------------------------------------
        .byte   W96
@ 027   ----------------------------------------
        .byte   W96
@ 028   ----------------------------------------
        .byte   W96
@ 029   ----------------------------------------
        .byte   W96
@ 030   ----------------------------------------
        .byte   W96
@ 031   ----------------------------------------
        .byte   W96
@ 032   ----------------------------------------
        .byte   W96
@ 033   ----------------------------------------
        .byte   W96
@ 034   ----------------------------------------
        .byte   W96
@ 035   ----------------------------------------
        .byte   W96
@ 036   ----------------------------------------
        .byte   W96
@ 037   ----------------------------------------
        .byte   W96
@ 038   ----------------------------------------
        .byte   W96
@ 039   ----------------------------------------
        .byte   W96
@ 040   ----------------------------------------
        .byte   W96
@ 041   ----------------------------------------
        .byte   W96
@ 042   ----------------------------------------
        .byte   W96
@ 043   ----------------------------------------
        .byte   W96
@ 044   ----------------------------------------
        .byte   W96
@ 045   ----------------------------------------
        .byte   W96
@ 046   ----------------------------------------
        .byte   W96
@ 047   ----------------------------------------
        .byte   W96
@ 048   ----------------------------------------
        .byte   W96
@ 049   ----------------------------------------
        .byte   W96
@ 050   ----------------------------------------
        .byte   W96
@ 051   ----------------------------------------
        .byte   W96
@ 052   ----------------------------------------
        .byte   W96
@ 053   ----------------------------------------
        .byte   W96
@ 054   ----------------------------------------
        .byte   W96
@ 055   ----------------------------------------
        .byte   W96
@ 056   ----------------------------------------
VengefulGodInDarkOceanAbyss000000_9_56:
        .byte           N80   , En3 , v055 , gtp3
        .byte   W84
        .byte           N11   , En3 , v035
        .byte   W12
        .byte   PEND
@ 057   ----------------------------------------
VengefulGodInDarkOceanAbyss000000_9_57:
        .byte           N36   , En3 , v056 , gtp2
        .byte   W36
        .byte           N28   , Bn3 , v069
        .byte   W32
        .byte   W01
        .byte                   En3 , v060
        .byte   W24
        .byte   W02
        .byte           N80   , Gn3 , v067 , gtp2
        .byte   W01
        .byte   PEND
@ 058   ----------------------------------------
VengefulGodInDarkOceanAbyss000000_9_58:
        .byte   W84
        .byte           N11   , Gn3 , v035
        .byte   W12
        .byte   PEND
@ 059   ----------------------------------------
VengefulGodInDarkOceanAbyss000000_9_59:
        .byte           N32   , Gn3 , v064 , gtp3
        .byte   W36
        .byte                   Bn3 , v070
        .byte   W36
        .byte           N23   , Dn4 , v079
        .byte   W22
        .byte           N80   , Cs4 , v071 , gtp3
        .byte   W02
        .byte   PEND
@ 060   ----------------------------------------
VengefulGodInDarkOceanAbyss000000_9_60:
        .byte   W84
        .byte           N11   , Cs4 , v035
        .byte   W12
        .byte   PEND
@ 061   ----------------------------------------
VengefulGodInDarkOceanAbyss000000_9_61:
        .byte           N28   , Cs4 , v070
        .byte   W32
        .byte   W03
        .byte           N36   , Fs3 , v064
        .byte   W36
        .byte   W01
        .byte           N24   , Cs4 , v070 , gtp2
        .byte   W24
        .byte   PEND
@ 062   ----------------------------------------
VengefulGodInDarkOceanAbyss000000_9_62:
        .byte           N78   , Cn4 , v073 , gtp1
        .byte   W84
        .byte           N11   , Cn4 , v035
        .byte   W12
        .byte   PEND
@ 063   ----------------------------------------
VengefulGodInDarkOceanAbyss000000_9_63:
        .byte           N28   , Cn4 , v066
        .byte   W36
        .byte           N24   , Gn3 , v067
        .byte   W32
        .byte   W03
        .byte                   En3 , v059
        .byte   W24
        .byte   W01
        .byte   PEND
@ 064   ----------------------------------------
        .byte   PATT
         .word  VengefulGodInDarkOceanAbyss000000_9_56
@ 065   ----------------------------------------
        .byte   PATT
         .word  VengefulGodInDarkOceanAbyss000000_9_57
@ 066   ----------------------------------------
        .byte   PATT
         .word  VengefulGodInDarkOceanAbyss000000_9_58
@ 067   ----------------------------------------
        .byte   PATT
         .word  VengefulGodInDarkOceanAbyss000000_9_59
@ 068   ----------------------------------------
        .byte   PATT
         .word  VengefulGodInDarkOceanAbyss000000_9_60
@ 069   ----------------------------------------
        .byte   PATT
         .word  VengefulGodInDarkOceanAbyss000000_9_61
@ 070   ----------------------------------------
        .byte   PATT
         .word  VengefulGodInDarkOceanAbyss000000_9_62
@ 071   ----------------------------------------
        .byte   PATT
         .word  VengefulGodInDarkOceanAbyss000000_9_63
@ 072   ----------------------------------------
        .byte           N88   , En3 , v055 , gtp1
        .byte   W96
@ 073   ----------------------------------------
        .byte                   En3 , v045
        .byte   W96
@ 074   ----------------------------------------
        .byte                   En3 , v029
        .byte   W96
@ 075   ----------------------------------------
        .byte                   En3 , v013
        .byte   W96
@ 076   ----------------------------------------
        .byte   W96
@ 077   ----------------------------------------
        .byte   W96
@ 078   ----------------------------------------
        .byte   W96
@ 079   ----------------------------------------
        .byte   W92
        .byte   W01
        .byte   GOTO
         .word  VengefulGodInDarkOceanAbyss000000_9_LOOP
        .byte   W02
        .byte   FINE

@***************** Track 10 (Midi-Chn.12) *****************@

VengefulGodInDarkOceanAbyss000000_10:
        .byte   KEYSH , VengefulGodInDarkOceanAbyss000000_key+0
@ 000   ----------------------------------------
VengefulGodInDarkOceanAbyss000000_10_LOOP:
        .byte           VOICE , 14
        .byte           VOL   , 36
        .byte           PAN   , c_v+17
        .byte           N44   , Bn3 , v076 , gtp2
        .byte   W18
        .byte           N40   , En3 , v061 , gtp1
        .byte   W19
        .byte           N44   , En4 , v062 , gtp1
        .byte   W11
        .byte           N44   , Bn3 , v043 , gtp2
        .byte   W17
        .byte           N64   , En3 , v038
        .byte   W19
        .byte           N44   , En4 , v032 , gtp1
        .byte   W12
@ 001   ----------------------------------------
        .byte   W96
@ 002   ----------------------------------------
        .byte   W96
@ 003   ----------------------------------------
        .byte   W96
@ 004   ----------------------------------------
VengefulGodInDarkOceanAbyss000000_10_4:
        .byte           N44   , Bn3 , v076 , gtp2
        .byte   W18
        .byte           N40   , En3 , v061 , gtp1
        .byte   W19
        .byte           N44   , En4 , v062 , gtp1
        .byte   W11
        .byte           N44   , Bn3 , v043 , gtp2
        .byte   W17
        .byte           N64   , En3 , v038
        .byte   W19
        .byte           N44   , En4 , v032 , gtp1
        .byte   W12
        .byte   PEND
@ 005   ----------------------------------------
        .byte   W96
@ 006   ----------------------------------------
        .byte   W96
@ 007   ----------------------------------------
        .byte   W96
@ 008   ----------------------------------------
        .byte   W96
@ 009   ----------------------------------------
        .byte   W96
@ 010   ----------------------------------------
        .byte   W96
@ 011   ----------------------------------------
        .byte   W96
@ 012   ----------------------------------------
        .byte   W96
@ 013   ----------------------------------------
        .byte   W96
@ 014   ----------------------------------------
        .byte   W96
@ 015   ----------------------------------------
        .byte   W96
@ 016   ----------------------------------------
        .byte   W96
@ 017   ----------------------------------------
        .byte   W96
@ 018   ----------------------------------------
        .byte   W96
@ 019   ----------------------------------------
        .byte   W96
@ 020   ----------------------------------------
        .byte   W96
@ 021   ----------------------------------------
        .byte   W96
@ 022   ----------------------------------------
        .byte   W96
@ 023   ----------------------------------------
        .byte   W96
@ 024   ----------------------------------------
        .byte   W96
@ 025   ----------------------------------------
        .byte   W96
@ 026   ----------------------------------------
        .byte   W96
@ 027   ----------------------------------------
        .byte   W96
@ 028   ----------------------------------------
        .byte   W96
@ 029   ----------------------------------------
        .byte   W96
@ 030   ----------------------------------------
        .byte   W96
@ 031   ----------------------------------------
        .byte   W96
@ 032   ----------------------------------------
        .byte   W96
@ 033   ----------------------------------------
        .byte   W96
@ 034   ----------------------------------------
        .byte   W96
@ 035   ----------------------------------------
        .byte   W96
@ 036   ----------------------------------------
        .byte   W96
@ 037   ----------------------------------------
        .byte   W96
@ 038   ----------------------------------------
        .byte   W96
@ 039   ----------------------------------------
        .byte   W96
@ 040   ----------------------------------------
        .byte   PATT
         .word  VengefulGodInDarkOceanAbyss000000_10_4
@ 041   ----------------------------------------
        .byte   W96
@ 042   ----------------------------------------
        .byte   W96
@ 043   ----------------------------------------
        .byte   W96
@ 044   ----------------------------------------
        .byte   PATT
         .word  VengefulGodInDarkOceanAbyss000000_10_4
@ 045   ----------------------------------------
        .byte   W96
@ 046   ----------------------------------------
        .byte   W96
@ 047   ----------------------------------------
        .byte   W96
@ 048   ----------------------------------------
        .byte   PATT
         .word  VengefulGodInDarkOceanAbyss000000_10_4
@ 049   ----------------------------------------
        .byte   W96
@ 050   ----------------------------------------
        .byte   W96
@ 051   ----------------------------------------
        .byte   W96
@ 052   ----------------------------------------
        .byte   PATT
         .word  VengefulGodInDarkOceanAbyss000000_10_4
@ 053   ----------------------------------------
        .byte   W96
@ 054   ----------------------------------------
        .byte   W96
@ 055   ----------------------------------------
        .byte   W96
@ 056   ----------------------------------------
        .byte   PATT
         .word  VengefulGodInDarkOceanAbyss000000_10_4
@ 057   ----------------------------------------
        .byte   W96
@ 058   ----------------------------------------
        .byte   W96
@ 059   ----------------------------------------
        .byte   W96
@ 060   ----------------------------------------
        .byte   PATT
         .word  VengefulGodInDarkOceanAbyss000000_10_4
@ 061   ----------------------------------------
        .byte   W96
@ 062   ----------------------------------------
        .byte   W96
@ 063   ----------------------------------------
        .byte   W96
@ 064   ----------------------------------------
        .byte   PATT
         .word  VengefulGodInDarkOceanAbyss000000_10_4
@ 065   ----------------------------------------
        .byte   W96
@ 066   ----------------------------------------
        .byte   W96
@ 067   ----------------------------------------
        .byte   W96
@ 068   ----------------------------------------
        .byte   PATT
         .word  VengefulGodInDarkOceanAbyss000000_10_4
@ 069   ----------------------------------------
        .byte   W96
@ 070   ----------------------------------------
        .byte   W96
@ 071   ----------------------------------------
        .byte   W96
@ 072   ----------------------------------------
        .byte   PATT
         .word  VengefulGodInDarkOceanAbyss000000_10_4
@ 073   ----------------------------------------
        .byte   W96
@ 074   ----------------------------------------
        .byte   W96
@ 075   ----------------------------------------
        .byte   W96
@ 076   ----------------------------------------
        .byte   PATT
         .word  VengefulGodInDarkOceanAbyss000000_10_4
@ 077   ----------------------------------------
        .byte   W96
@ 078   ----------------------------------------
        .byte   W96
@ 079   ----------------------------------------
        .byte   W92
        .byte   W01
        .byte   GOTO
         .word  VengefulGodInDarkOceanAbyss000000_10_LOOP
        .byte   W02
        .byte   FINE

@***************** Track 11 (Midi-Chn.13) *****************@

VengefulGodInDarkOceanAbyss000000_11:
        .byte   KEYSH , VengefulGodInDarkOceanAbyss000000_key+0
@ 000   ----------------------------------------
VengefulGodInDarkOceanAbyss000000_11_LOOP:
        .byte           VOICE , 122
        .byte           VOL   , 29
        .byte           TIE   , Fn1 , v116
        .byte   W96
@ 001   ----------------------------------------
        .byte   W72
        .byte           EOT
        .byte   W24
@ 002   ----------------------------------------
        .byte   W96
@ 003   ----------------------------------------
        .byte   W96
@ 004   ----------------------------------------
        .byte           TIE
        .byte   W96
@ 005   ----------------------------------------
        .byte   W72
        .byte           EOT
        .byte   W24
@ 006   ----------------------------------------
        .byte   W96
@ 007   ----------------------------------------
VengefulGodInDarkOceanAbyss000000_11_7:
        .byte   W48
        .byte           N44   , An2 , v119 , gtp2
        .byte   W48
        .byte   PEND
@ 008   ----------------------------------------
        .byte           TIE   , Fn1 , v116
        .byte   W96
@ 009   ----------------------------------------
        .byte   W72
        .byte           EOT
        .byte   W24
@ 010   ----------------------------------------
        .byte   W96
@ 011   ----------------------------------------
        .byte   W96
@ 012   ----------------------------------------
        .byte           TIE
        .byte   W96
@ 013   ----------------------------------------
        .byte   W72
        .byte           EOT
        .byte   W24
@ 014   ----------------------------------------
        .byte   W96
@ 015   ----------------------------------------
        .byte   PATT
         .word  VengefulGodInDarkOceanAbyss000000_11_7
@ 016   ----------------------------------------
        .byte           TIE   , Fn1 , v116
        .byte   W96
@ 017   ----------------------------------------
        .byte   W72
        .byte           EOT
        .byte   W24
@ 018   ----------------------------------------
        .byte   W96
@ 019   ----------------------------------------
        .byte   W96
@ 020   ----------------------------------------
        .byte           TIE
        .byte   W96
@ 021   ----------------------------------------
        .byte   W72
        .byte           EOT
        .byte   W24
@ 022   ----------------------------------------
        .byte   W96
@ 023   ----------------------------------------
        .byte   PATT
         .word  VengefulGodInDarkOceanAbyss000000_11_7
@ 024   ----------------------------------------
        .byte           TIE   , Fn1 , v116
        .byte   W96
@ 025   ----------------------------------------
        .byte   W72
        .byte           EOT
        .byte   W24
@ 026   ----------------------------------------
        .byte   W96
@ 027   ----------------------------------------
        .byte   W96
@ 028   ----------------------------------------
        .byte           TIE
        .byte   W96
@ 029   ----------------------------------------
        .byte   W72
        .byte           EOT
        .byte   W24
@ 030   ----------------------------------------
        .byte   W96
@ 031   ----------------------------------------
        .byte   PATT
         .word  VengefulGodInDarkOceanAbyss000000_11_7
@ 032   ----------------------------------------
        .byte           TIE   , Fn1 , v116
        .byte   W96
@ 033   ----------------------------------------
        .byte   W72
        .byte           EOT
        .byte   W24
@ 034   ----------------------------------------
        .byte   W96
@ 035   ----------------------------------------
        .byte   W96
@ 036   ----------------------------------------
        .byte           TIE
        .byte   W96
@ 037   ----------------------------------------
        .byte   W72
        .byte           EOT
        .byte   W24
@ 038   ----------------------------------------
        .byte   W96
@ 039   ----------------------------------------
        .byte   W72
        .byte           N23   , As2 , v125
        .byte   W24
@ 040   ----------------------------------------
        .byte           TIE   , Fn1 , v116
        .byte   W96
@ 041   ----------------------------------------
        .byte   W72
        .byte           EOT
        .byte   W24
@ 042   ----------------------------------------
        .byte   W96
@ 043   ----------------------------------------
        .byte   W96
@ 044   ----------------------------------------
        .byte           TIE
        .byte   W96
@ 045   ----------------------------------------
        .byte   W72
        .byte           EOT
        .byte   W24
@ 046   ----------------------------------------
        .byte   W96
@ 047   ----------------------------------------
        .byte   PATT
         .word  VengefulGodInDarkOceanAbyss000000_11_7
@ 048   ----------------------------------------
        .byte           TIE   , Fn1 , v116
        .byte   W96
@ 049   ----------------------------------------
        .byte   W72
        .byte           EOT
        .byte   W24
@ 050   ----------------------------------------
        .byte   W96
@ 051   ----------------------------------------
        .byte   W96
@ 052   ----------------------------------------
        .byte           TIE
        .byte   W96
@ 053   ----------------------------------------
        .byte   W72
        .byte           EOT
        .byte   W24
@ 054   ----------------------------------------
        .byte   W96
@ 055   ----------------------------------------
        .byte   PATT
         .word  VengefulGodInDarkOceanAbyss000000_11_7
@ 056   ----------------------------------------
        .byte           TIE   , Fn1 , v116
        .byte   W96
@ 057   ----------------------------------------
        .byte   W72
        .byte           EOT
        .byte   W24
@ 058   ----------------------------------------
        .byte   W96
@ 059   ----------------------------------------
        .byte   W96
@ 060   ----------------------------------------
        .byte           TIE
        .byte   W96
@ 061   ----------------------------------------
        .byte   W72
        .byte           EOT
        .byte   W24
@ 062   ----------------------------------------
        .byte   W96
@ 063   ----------------------------------------
        .byte   PATT
         .word  VengefulGodInDarkOceanAbyss000000_11_7
@ 064   ----------------------------------------
        .byte           TIE   , Fn1 , v116
        .byte   W96
@ 065   ----------------------------------------
        .byte   W72
        .byte           EOT
        .byte   W24
@ 066   ----------------------------------------
        .byte   W96
@ 067   ----------------------------------------
        .byte   W96
@ 068   ----------------------------------------
        .byte           TIE
        .byte   W96
@ 069   ----------------------------------------
        .byte   W72
        .byte           EOT
        .byte   W24
@ 070   ----------------------------------------
        .byte   W96
@ 071   ----------------------------------------
        .byte   PATT
         .word  VengefulGodInDarkOceanAbyss000000_11_7
@ 072   ----------------------------------------
        .byte           TIE   , Fn1 , v116
        .byte   W96
@ 073   ----------------------------------------
        .byte   W72
        .byte           EOT
        .byte   W24
@ 074   ----------------------------------------
        .byte   W96
@ 075   ----------------------------------------
        .byte   W96
@ 076   ----------------------------------------
        .byte           TIE
        .byte   W96
@ 077   ----------------------------------------
        .byte   W72
        .byte           EOT
        .byte   W24
@ 078   ----------------------------------------
        .byte   W96
@ 079   ----------------------------------------
        .byte   W48
        .byte           N44   , An2 , v119 , gtp2
        .byte   W44
        .byte   W01
        .byte   GOTO
         .word  VengefulGodInDarkOceanAbyss000000_11_LOOP
        .byte   W02
        .byte   FINE

@***************** Track 12 (Midi-Chn.14) *****************@

VengefulGodInDarkOceanAbyss000000_12:
        .byte   KEYSH , VengefulGodInDarkOceanAbyss000000_key+0
@ 000   ----------------------------------------
VengefulGodInDarkOceanAbyss000000_12_LOOP:
        .byte           VOICE , 122
        .byte           VOL   , 27
        .byte           N32   , As5 , v090 , gtp3
        .byte   W36
        .byte                   Cn1 , v110
        .byte   W36
        .byte           N23   , As1 , v090
        .byte   W24
@ 001   ----------------------------------------
VengefulGodInDarkOceanAbyss000000_12_1:
        .byte           N32   , Cn1 , v110 , gtp3
        .byte   W36
        .byte                   Cn1
        .byte   W36
        .byte           N23   , As1 , v090
        .byte   W24
        .byte   PEND
@ 002   ----------------------------------------
        .byte   PATT
         .word  VengefulGodInDarkOceanAbyss000000_12_1
@ 003   ----------------------------------------
        .byte   PATT
         .word  VengefulGodInDarkOceanAbyss000000_12_1
@ 004   ----------------------------------------
        .byte   PATT
         .word  VengefulGodInDarkOceanAbyss000000_12_1
@ 005   ----------------------------------------
        .byte   PATT
         .word  VengefulGodInDarkOceanAbyss000000_12_1
@ 006   ----------------------------------------
        .byte   PATT
         .word  VengefulGodInDarkOceanAbyss000000_12_1
@ 007   ----------------------------------------
        .byte   PATT
         .word  VengefulGodInDarkOceanAbyss000000_12_1
@ 008   ----------------------------------------
        .byte   PATT
         .word  VengefulGodInDarkOceanAbyss000000_12_1
@ 009   ----------------------------------------
        .byte   PATT
         .word  VengefulGodInDarkOceanAbyss000000_12_1
@ 010   ----------------------------------------
        .byte   PATT
         .word  VengefulGodInDarkOceanAbyss000000_12_1
@ 011   ----------------------------------------
        .byte   PATT
         .word  VengefulGodInDarkOceanAbyss000000_12_1
@ 012   ----------------------------------------
        .byte   PATT
         .word  VengefulGodInDarkOceanAbyss000000_12_1
@ 013   ----------------------------------------
        .byte   PATT
         .word  VengefulGodInDarkOceanAbyss000000_12_1
@ 014   ----------------------------------------
        .byte   PATT
         .word  VengefulGodInDarkOceanAbyss000000_12_1
@ 015   ----------------------------------------
        .byte   PATT
         .word  VengefulGodInDarkOceanAbyss000000_12_1
@ 016   ----------------------------------------
        .byte   PATT
         .word  VengefulGodInDarkOceanAbyss000000_12_1
@ 017   ----------------------------------------
        .byte   PATT
         .word  VengefulGodInDarkOceanAbyss000000_12_1
@ 018   ----------------------------------------
        .byte   PATT
         .word  VengefulGodInDarkOceanAbyss000000_12_1
@ 019   ----------------------------------------
        .byte   PATT
         .word  VengefulGodInDarkOceanAbyss000000_12_1
@ 020   ----------------------------------------
        .byte   PATT
         .word  VengefulGodInDarkOceanAbyss000000_12_1
@ 021   ----------------------------------------
        .byte   PATT
         .word  VengefulGodInDarkOceanAbyss000000_12_1
@ 022   ----------------------------------------
        .byte   PATT
         .word  VengefulGodInDarkOceanAbyss000000_12_1
@ 023   ----------------------------------------
        .byte   PATT
         .word  VengefulGodInDarkOceanAbyss000000_12_1
@ 024   ----------------------------------------
        .byte   PATT
         .word  VengefulGodInDarkOceanAbyss000000_12_1
@ 025   ----------------------------------------
        .byte   PATT
         .word  VengefulGodInDarkOceanAbyss000000_12_1
@ 026   ----------------------------------------
        .byte   PATT
         .word  VengefulGodInDarkOceanAbyss000000_12_1
@ 027   ----------------------------------------
        .byte   PATT
         .word  VengefulGodInDarkOceanAbyss000000_12_1
@ 028   ----------------------------------------
        .byte   PATT
         .word  VengefulGodInDarkOceanAbyss000000_12_1
@ 029   ----------------------------------------
        .byte   PATT
         .word  VengefulGodInDarkOceanAbyss000000_12_1
@ 030   ----------------------------------------
        .byte   PATT
         .word  VengefulGodInDarkOceanAbyss000000_12_1
@ 031   ----------------------------------------
        .byte   PATT
         .word  VengefulGodInDarkOceanAbyss000000_12_1
@ 032   ----------------------------------------
        .byte   PATT
         .word  VengefulGodInDarkOceanAbyss000000_12_1
@ 033   ----------------------------------------
        .byte   PATT
         .word  VengefulGodInDarkOceanAbyss000000_12_1
@ 034   ----------------------------------------
        .byte   PATT
         .word  VengefulGodInDarkOceanAbyss000000_12_1
@ 035   ----------------------------------------
        .byte   PATT
         .word  VengefulGodInDarkOceanAbyss000000_12_1
@ 036   ----------------------------------------
        .byte   PATT
         .word  VengefulGodInDarkOceanAbyss000000_12_1
@ 037   ----------------------------------------
        .byte   PATT
         .word  VengefulGodInDarkOceanAbyss000000_12_1
@ 038   ----------------------------------------
        .byte   PATT
         .word  VengefulGodInDarkOceanAbyss000000_12_1
@ 039   ----------------------------------------
        .byte   PATT
         .word  VengefulGodInDarkOceanAbyss000000_12_1
@ 040   ----------------------------------------
        .byte   PATT
         .word  VengefulGodInDarkOceanAbyss000000_12_1
@ 041   ----------------------------------------
        .byte   PATT
         .word  VengefulGodInDarkOceanAbyss000000_12_1
@ 042   ----------------------------------------
        .byte   PATT
         .word  VengefulGodInDarkOceanAbyss000000_12_1
@ 043   ----------------------------------------
        .byte   PATT
         .word  VengefulGodInDarkOceanAbyss000000_12_1
@ 044   ----------------------------------------
        .byte   PATT
         .word  VengefulGodInDarkOceanAbyss000000_12_1
@ 045   ----------------------------------------
        .byte   PATT
         .word  VengefulGodInDarkOceanAbyss000000_12_1
@ 046   ----------------------------------------
        .byte   PATT
         .word  VengefulGodInDarkOceanAbyss000000_12_1
@ 047   ----------------------------------------
        .byte   PATT
         .word  VengefulGodInDarkOceanAbyss000000_12_1
@ 048   ----------------------------------------
        .byte   PATT
         .word  VengefulGodInDarkOceanAbyss000000_12_1
@ 049   ----------------------------------------
        .byte   PATT
         .word  VengefulGodInDarkOceanAbyss000000_12_1
@ 050   ----------------------------------------
        .byte   PATT
         .word  VengefulGodInDarkOceanAbyss000000_12_1
@ 051   ----------------------------------------
        .byte   PATT
         .word  VengefulGodInDarkOceanAbyss000000_12_1
@ 052   ----------------------------------------
        .byte   PATT
         .word  VengefulGodInDarkOceanAbyss000000_12_1
@ 053   ----------------------------------------
        .byte   PATT
         .word  VengefulGodInDarkOceanAbyss000000_12_1
@ 054   ----------------------------------------
        .byte   PATT
         .word  VengefulGodInDarkOceanAbyss000000_12_1
@ 055   ----------------------------------------
        .byte   PATT
         .word  VengefulGodInDarkOceanAbyss000000_12_1
@ 056   ----------------------------------------
        .byte   PATT
         .word  VengefulGodInDarkOceanAbyss000000_12_1
@ 057   ----------------------------------------
        .byte   PATT
         .word  VengefulGodInDarkOceanAbyss000000_12_1
@ 058   ----------------------------------------
        .byte   PATT
         .word  VengefulGodInDarkOceanAbyss000000_12_1
@ 059   ----------------------------------------
        .byte   PATT
         .word  VengefulGodInDarkOceanAbyss000000_12_1
@ 060   ----------------------------------------
        .byte   PATT
         .word  VengefulGodInDarkOceanAbyss000000_12_1
@ 061   ----------------------------------------
        .byte   PATT
         .word  VengefulGodInDarkOceanAbyss000000_12_1
@ 062   ----------------------------------------
        .byte   PATT
         .word  VengefulGodInDarkOceanAbyss000000_12_1
@ 063   ----------------------------------------
        .byte   PATT
         .word  VengefulGodInDarkOceanAbyss000000_12_1
@ 064   ----------------------------------------
        .byte   PATT
         .word  VengefulGodInDarkOceanAbyss000000_12_1
@ 065   ----------------------------------------
        .byte   PATT
         .word  VengefulGodInDarkOceanAbyss000000_12_1
@ 066   ----------------------------------------
        .byte   PATT
         .word  VengefulGodInDarkOceanAbyss000000_12_1
@ 067   ----------------------------------------
        .byte   PATT
         .word  VengefulGodInDarkOceanAbyss000000_12_1
@ 068   ----------------------------------------
        .byte   PATT
         .word  VengefulGodInDarkOceanAbyss000000_12_1
@ 069   ----------------------------------------
        .byte   PATT
         .word  VengefulGodInDarkOceanAbyss000000_12_1
@ 070   ----------------------------------------
        .byte   PATT
         .word  VengefulGodInDarkOceanAbyss000000_12_1
@ 071   ----------------------------------------
        .byte   PATT
         .word  VengefulGodInDarkOceanAbyss000000_12_1
@ 072   ----------------------------------------
        .byte   PATT
         .word  VengefulGodInDarkOceanAbyss000000_12_1
@ 073   ----------------------------------------
        .byte   PATT
         .word  VengefulGodInDarkOceanAbyss000000_12_1
@ 074   ----------------------------------------
        .byte   PATT
         .word  VengefulGodInDarkOceanAbyss000000_12_1
@ 075   ----------------------------------------
        .byte   PATT
         .word  VengefulGodInDarkOceanAbyss000000_12_1
@ 076   ----------------------------------------
        .byte   PATT
         .word  VengefulGodInDarkOceanAbyss000000_12_1
@ 077   ----------------------------------------
        .byte   PATT
         .word  VengefulGodInDarkOceanAbyss000000_12_1
@ 078   ----------------------------------------
        .byte   PATT
         .word  VengefulGodInDarkOceanAbyss000000_12_1
@ 079   ----------------------------------------
        .byte           N32   , Cn1 , v110 , gtp3
        .byte   W36
        .byte                   Cn1
        .byte   W36
        .byte           N23   , As1 , v090
        .byte   W21
        .byte   GOTO
         .word  VengefulGodInDarkOceanAbyss000000_12_LOOP
        .byte   W02
        .byte   FINE

@***************** Track 13 (Midi-Chn.15) *****************@

VengefulGodInDarkOceanAbyss000000_13:
        .byte   KEYSH , VengefulGodInDarkOceanAbyss000000_key+0
@ 000   ----------------------------------------
VengefulGodInDarkOceanAbyss000000_13_LOOP:
        .byte           VOICE , 122
        .byte           VOL   , 42
        .byte           PAN   , c_v+2
        .byte   W96
@ 001   ----------------------------------------
        .byte   W96
@ 002   ----------------------------------------
        .byte   W96
@ 003   ----------------------------------------
        .byte   W96
@ 004   ----------------------------------------
        .byte   W96
@ 005   ----------------------------------------
        .byte   W96
@ 006   ----------------------------------------
        .byte   W96
@ 007   ----------------------------------------
VengefulGodInDarkOceanAbyss000000_13_7:
        .byte   W48
        .byte           N44   , Fn1 , v120 , gtp3
        .byte   W48
        .byte   PEND
@ 008   ----------------------------------------
VengefulGodInDarkOceanAbyss000000_13_8:
        .byte           N44   , Fn1 , v094 , gtp3
        .byte   W48
        .byte                   Fn1 , v067
        .byte   W48
        .byte   PEND
@ 009   ----------------------------------------
        .byte                   Fn1 , v045
        .byte   W96
@ 010   ----------------------------------------
        .byte   W96
@ 011   ----------------------------------------
        .byte   W96
@ 012   ----------------------------------------
        .byte   W96
@ 013   ----------------------------------------
        .byte   W96
@ 014   ----------------------------------------
        .byte   W96
@ 015   ----------------------------------------
        .byte   PATT
         .word  VengefulGodInDarkOceanAbyss000000_13_7
@ 016   ----------------------------------------
        .byte   PATT
         .word  VengefulGodInDarkOceanAbyss000000_13_8
@ 017   ----------------------------------------
        .byte           N44   , Fn1 , v045 , gtp3
        .byte   W96
@ 018   ----------------------------------------
        .byte   W96
@ 019   ----------------------------------------
        .byte   W96
@ 020   ----------------------------------------
        .byte   W96
@ 021   ----------------------------------------
        .byte   W96
@ 022   ----------------------------------------
        .byte   W96
@ 023   ----------------------------------------
        .byte   PATT
         .word  VengefulGodInDarkOceanAbyss000000_13_7
@ 024   ----------------------------------------
        .byte   PATT
         .word  VengefulGodInDarkOceanAbyss000000_13_8
@ 025   ----------------------------------------
        .byte           N44   , Fn1 , v045 , gtp3
        .byte   W96
@ 026   ----------------------------------------
        .byte   W96
@ 027   ----------------------------------------
        .byte   W96
@ 028   ----------------------------------------
        .byte   W96
@ 029   ----------------------------------------
        .byte   W96
@ 030   ----------------------------------------
        .byte   W96
@ 031   ----------------------------------------
        .byte   PATT
         .word  VengefulGodInDarkOceanAbyss000000_13_7
@ 032   ----------------------------------------
        .byte   PATT
         .word  VengefulGodInDarkOceanAbyss000000_13_8
@ 033   ----------------------------------------
        .byte           N44   , Fn1 , v045 , gtp3
        .byte   W96
@ 034   ----------------------------------------
        .byte   W96
@ 035   ----------------------------------------
        .byte   W96
@ 036   ----------------------------------------
        .byte   W96
@ 037   ----------------------------------------
        .byte   W96
@ 038   ----------------------------------------
        .byte   W96
@ 039   ----------------------------------------
        .byte   W96
@ 040   ----------------------------------------
        .byte   W96
@ 041   ----------------------------------------
        .byte   W96
@ 042   ----------------------------------------
        .byte   W96
@ 043   ----------------------------------------
        .byte   W96
@ 044   ----------------------------------------
        .byte   W96
@ 045   ----------------------------------------
        .byte   W96
@ 046   ----------------------------------------
        .byte   W96
@ 047   ----------------------------------------
        .byte   PATT
         .word  VengefulGodInDarkOceanAbyss000000_13_7
@ 048   ----------------------------------------
        .byte   PATT
         .word  VengefulGodInDarkOceanAbyss000000_13_8
@ 049   ----------------------------------------
        .byte           N44   , Fn1 , v045 , gtp3
        .byte   W96
@ 050   ----------------------------------------
        .byte   W96
@ 051   ----------------------------------------
        .byte   W96
@ 052   ----------------------------------------
        .byte   W96
@ 053   ----------------------------------------
        .byte   W96
@ 054   ----------------------------------------
        .byte   W96
@ 055   ----------------------------------------
        .byte   PATT
         .word  VengefulGodInDarkOceanAbyss000000_13_7
@ 056   ----------------------------------------
        .byte   PATT
         .word  VengefulGodInDarkOceanAbyss000000_13_8
@ 057   ----------------------------------------
        .byte           N44   , Fn1 , v045 , gtp3
        .byte   W96
@ 058   ----------------------------------------
        .byte   W96
@ 059   ----------------------------------------
        .byte   W96
@ 060   ----------------------------------------
        .byte   W96
@ 061   ----------------------------------------
        .byte   W96
@ 062   ----------------------------------------
        .byte   W96
@ 063   ----------------------------------------
        .byte   PATT
         .word  VengefulGodInDarkOceanAbyss000000_13_7
@ 064   ----------------------------------------
        .byte   PATT
         .word  VengefulGodInDarkOceanAbyss000000_13_8
@ 065   ----------------------------------------
        .byte           N44   , Fn1 , v045 , gtp3
        .byte   W96
@ 066   ----------------------------------------
        .byte   W96
@ 067   ----------------------------------------
        .byte   W96
@ 068   ----------------------------------------
        .byte   W96
@ 069   ----------------------------------------
        .byte   W96
@ 070   ----------------------------------------
        .byte   W96
@ 071   ----------------------------------------
        .byte   PATT
         .word  VengefulGodInDarkOceanAbyss000000_13_7
@ 072   ----------------------------------------
        .byte   PATT
         .word  VengefulGodInDarkOceanAbyss000000_13_8
@ 073   ----------------------------------------
        .byte           N44   , Fn1 , v045 , gtp3
        .byte   W96
@ 074   ----------------------------------------
        .byte   W96
@ 075   ----------------------------------------
        .byte   W96
@ 076   ----------------------------------------
        .byte   W96
@ 077   ----------------------------------------
        .byte   W96
@ 078   ----------------------------------------
        .byte   W96
@ 079   ----------------------------------------
        .byte   W48
        .byte                   Fn1 , v120
        .byte   W44
        .byte   W01
        .byte   GOTO
         .word  VengefulGodInDarkOceanAbyss000000_13_LOOP
        .byte   W02
        .byte   FINE


@********************** End of Song ***********************@

        .align  2
VengefulGodInDarkOceanAbyss000000:
        .byte   14                      @ Num Tracks
        .byte   0                       @ Unknown
        .byte   VengefulGodInDarkOceanAbyss000000_pri @ Priority
        .byte   VengefulGodInDarkOceanAbyss000000_rev @ Reverb

        .word   VengefulGodInDarkOceanAbyss000000_grp

        .word   VengefulGodInDarkOceanAbyss000000_0
        .word   VengefulGodInDarkOceanAbyss000000_1
        .word   VengefulGodInDarkOceanAbyss000000_2
        .word   VengefulGodInDarkOceanAbyss000000_3
        .word   VengefulGodInDarkOceanAbyss000000_4
        .word   VengefulGodInDarkOceanAbyss000000_5
        .word   VengefulGodInDarkOceanAbyss000000_6
        .word   VengefulGodInDarkOceanAbyss000000_7
        .word   VengefulGodInDarkOceanAbyss000000_8
        .word   VengefulGodInDarkOceanAbyss000000_9
        .word   VengefulGodInDarkOceanAbyss000000_10
        .word   VengefulGodInDarkOceanAbyss000000_11
        .word   VengefulGodInDarkOceanAbyss000000_12
        .word   VengefulGodInDarkOceanAbyss000000_13

        .end
