//Event file generated from Sappy .s format.
        #include "MPlayDef.event"

        #define    crimeoftheheart0_grp  voicegroup000
        #define    crimeoftheheart0_pri  0
        #define    crimeoftheheart0_rev  0
        #define    crimeoftheheart0_key  0

        // .rodata
        // crimeoftheheart0
        ALIGN 4

//****************** Track 0 (Midi-Chn.0) ******************//

crimeoftheheart0_0:
        BYTE   KEYSH   crimeoftheheart0_key+0
// 000   ----------------------------------------
        BYTE   TEMPO   110/2
        BYTE           VOICE   77
        BYTE           VOL     26
        BYTE   W60
crimeoftheheart0_0_LOOP:
        BYTE           N12     As3   v080
        BYTE   W12
        BYTE                   Ds4
        BYTE   W12
        BYTE                   Fn4
        BYTE   W12
// 001   ----------------------------------------
crimeoftheheart0_0_1:
        BYTE           N48     Fs4   v080
        BYTE   W48
        BYTE           N24     Fn4
        BYTE   W24
        BYTE                   Cs4
        BYTE   W24
        BYTE   PEND
// 002   ----------------------------------------
crimeoftheheart0_0_2:
        BYTE           N24     Ds4   v080
        BYTE   W24
        BYTE           N72     As3
        BYTE   W72
        BYTE   PEND
// 003   ----------------------------------------
crimeoftheheart0_0_3:
        BYTE           N24     Bn3   v080
        BYTE   W24
        BYTE           N12     Cs4
        BYTE   W12
        BYTE                   Ds4
        BYTE   W12
        BYTE           N24     Cs4
        BYTE   W24
        BYTE                   Fn4
        BYTE   W24
        BYTE   PEND
// 004   ----------------------------------------
crimeoftheheart0_0_4:
        BYTE           N24     Fs4   v080
        BYTE   W24
        BYTE                   Gs4
        BYTE   W24
        BYTE           N48     Fn4
        BYTE   W48
        BYTE   PEND
// 005   ----------------------------------------
crimeoftheheart0_0_5:
        BYTE           N24     Fs4   v080
        BYTE   W24
        BYTE           N12     Fn4
        BYTE   W12
        BYTE                   Ds4
        BYTE   W12
        BYTE           N24     Cs4
        BYTE   W24
        BYTE                   As3
        BYTE   W24
        BYTE   PEND
// 006   ----------------------------------------
crimeoftheheart0_0_6:
        BYTE           N24     Bn3   v080
        BYTE   W24
        BYTE           N12     Cs4
        BYTE   W12
        BYTE                   Ds4
        BYTE   W12
        BYTE           N48     Cs4
        BYTE   W48
        BYTE   PEND
// 007   ----------------------------------------
crimeoftheheart0_0_7:
        BYTE           N24     Fs4   v080
        BYTE   W24
        BYTE                   Gs4
        BYTE   W24
        BYTE                   Fn4
        BYTE   W24
        BYTE           N12     Ds4
        BYTE   W12
        BYTE                   Cs4
        BYTE   W12
        BYTE   PEND
// 008   ----------------------------------------
        BYTE           N96     Ds4
        BYTE   W84
        BYTE   W03
        BYTE   TEMPO   106/2
        BYTE   W02
        BYTE   TEMPO   104/2
        BYTE   W02
        BYTE   TEMPO   100/2
        BYTE   W02
        BYTE   TEMPO   98/2
        BYTE   W01
        BYTE   TEMPO   94/2
        BYTE   W01
        BYTE   TEMPO   86/2
        BYTE   W01
// 009   ----------------------------------------
        BYTE   W96
// 010   ----------------------------------------
        BYTE   TEMPO   110/2
        BYTE   W96
// 011   ----------------------------------------
        BYTE   W96
// 012   ----------------------------------------
        BYTE   W96
// 013   ----------------------------------------
        BYTE   W96
// 014   ----------------------------------------
        BYTE   W96
// 015   ----------------------------------------
        BYTE   W96
// 016   ----------------------------------------
        BYTE   W96
// 017   ----------------------------------------
        BYTE   W96
// 018   ----------------------------------------
        BYTE   W96
// 019   ----------------------------------------
        BYTE   W96
// 020   ----------------------------------------
        BYTE   W96
// 021   ----------------------------------------
        BYTE   W96
// 022   ----------------------------------------
        BYTE   W96
// 023   ----------------------------------------
        BYTE   W96
// 024   ----------------------------------------
        BYTE   W96
// 025   ----------------------------------------
        BYTE   W96
// 026   ----------------------------------------
        BYTE   W96
// 027   ----------------------------------------
        BYTE   W96
// 028   ----------------------------------------
        BYTE   W96
// 029   ----------------------------------------
        BYTE   W96
// 030   ----------------------------------------
        BYTE   W96
// 031   ----------------------------------------
        BYTE   W96
// 032   ----------------------------------------
        BYTE   W96
// 033   ----------------------------------------
        BYTE   W96
// 034   ----------------------------------------
        BYTE   W96
// 035   ----------------------------------------
        BYTE   W96
// 036   ----------------------------------------
        BYTE   W96
// 037   ----------------------------------------
        BYTE   W96
// 038   ----------------------------------------
        BYTE   W96
// 039   ----------------------------------------
        BYTE   W96
// 040   ----------------------------------------
        BYTE   W96
// 041   ----------------------------------------
        BYTE   W96
// 042   ----------------------------------------
        BYTE   W60
        BYTE           N12     As3
        BYTE   GoTo
         POIN2  crimeoftheheart0_0_LOOP
        BYTE   W12
        BYTE                   Ds4
        BYTE   W12
        BYTE                   Fn4
        BYTE   W12
// 043   ----------------------------------------
crimeoftheheart0_0_43:
        BYTE           N48     Fs4   v080
        BYTE   W06
        BYTE           VOL     25
        BYTE   W18
        BYTE                   24
        BYTE   W12
        BYTE                   23
        BYTE   W06
        BYTE                   22
        BYTE   W06
        BYTE           N24     Fn4
        BYTE   W06
        BYTE           VOL     21
        BYTE   W06
        BYTE                   20
        BYTE   W12
        BYTE           N24     Cs4
        BYTE   W06
        BYTE           VOL     19
        BYTE   W12
        BYTE                   18
        BYTE   W06
        BYTE   PEND
// 044   ----------------------------------------
crimeoftheheart0_0_44:
        BYTE           VOL     17
        BYTE           N24     Ds4   v080
        BYTE   W12
        BYTE           VOL     16
        BYTE   W12
        BYTE           N72     As3
        BYTE   W06
        BYTE           VOL     15
        BYTE   W06
        BYTE                   14
        BYTE   W12
        BYTE                   13
        BYTE   W06
        BYTE                   12
        BYTE   W18
        BYTE                   11
        BYTE   W12
        BYTE                   10
        BYTE   W06
        BYTE                   9
        BYTE   W06
        BYTE   PEND
// 045   ----------------------------------------
crimeoftheheart0_0_45:
        BYTE           N24     Bn3   v080
        BYTE   W06
        BYTE           VOL     8
        BYTE   W18
        BYTE                   7
        BYTE           N12     Cs4
        BYTE   W06
        BYTE           VOL     6
        BYTE   W06
        BYTE           N12     Ds4
        BYTE   W06
        BYTE           VOL     5
        BYTE   W06
        BYTE                   4
        BYTE           N24     Cs4
        BYTE   W18
        BYTE           VOL     3
        BYTE   W06
        BYTE           N24     Fn4
        BYTE   W06
        BYTE           VOL     2
        BYTE   W06
        BYTE                   1
        BYTE   W12
        BYTE   PEND
// 046   ----------------------------------------
crimeoftheheart0_0_46:
        BYTE           VOL     0
        BYTE           N24     Fs4   v080
        BYTE   W24
        BYTE                   Gs4
        BYTE   W68
        BYTE   W02
        BYTE   PEND
        BYTE   FINE

//****************** Track 1 (Midi-Chn.1) ******************//

crimeoftheheart0_1:
        BYTE   KEYSH   crimeoftheheart0_key+0
// 000   ----------------------------------------
        BYTE           VOICE   79
        BYTE           VOL     26
        BYTE   W60
crimeoftheheart0_1_LOOP:
        BYTE           N12     As3   v080
        BYTE   W12
        BYTE                   Ds4
        BYTE   W12
        BYTE                   Fn4
        BYTE   W12
// 001   ----------------------------------------
        BYTE   PATT
         POIN2  crimeoftheheart0_0_1
// 002   ----------------------------------------
        BYTE   PATT
         POIN2  crimeoftheheart0_0_2
// 003   ----------------------------------------
        BYTE   PATT
         POIN2  crimeoftheheart0_0_3
// 004   ----------------------------------------
        BYTE   PATT
         POIN2  crimeoftheheart0_0_4
// 005   ----------------------------------------
        BYTE   PATT
         POIN2  crimeoftheheart0_0_5
// 006   ----------------------------------------
        BYTE   PATT
         POIN2  crimeoftheheart0_0_6
// 007   ----------------------------------------
        BYTE   PATT
         POIN2  crimeoftheheart0_0_7
// 008   ----------------------------------------
        BYTE           N96     Ds4   v080
        BYTE   W96
// 009   ----------------------------------------
        BYTE   W96
// 010   ----------------------------------------
        BYTE   W96
// 011   ----------------------------------------
        BYTE   W96
// 012   ----------------------------------------
        BYTE   W96
// 013   ----------------------------------------
        BYTE   W96
// 014   ----------------------------------------
        BYTE   W96
// 015   ----------------------------------------
        BYTE   W96
// 016   ----------------------------------------
        BYTE   W96
// 017   ----------------------------------------
        BYTE   W96
// 018   ----------------------------------------
        BYTE   W96
// 019   ----------------------------------------
        BYTE   W96
// 020   ----------------------------------------
        BYTE   W96
// 021   ----------------------------------------
        BYTE   W96
// 022   ----------------------------------------
        BYTE   W96
// 023   ----------------------------------------
        BYTE   W96
// 024   ----------------------------------------
        BYTE   W96
// 025   ----------------------------------------
        BYTE   W96
// 026   ----------------------------------------
        BYTE   W96
// 027   ----------------------------------------
        BYTE   W96
// 028   ----------------------------------------
        BYTE   W96
// 029   ----------------------------------------
        BYTE   W96
// 030   ----------------------------------------
        BYTE   W96
// 031   ----------------------------------------
        BYTE   W96
// 032   ----------------------------------------
        BYTE   W96
// 033   ----------------------------------------
        BYTE   W96
// 034   ----------------------------------------
        BYTE   W96
// 035   ----------------------------------------
        BYTE   W96
// 036   ----------------------------------------
        BYTE   W96
// 037   ----------------------------------------
        BYTE   W96
// 038   ----------------------------------------
        BYTE   W96
// 039   ----------------------------------------
        BYTE   W96
// 040   ----------------------------------------
        BYTE   W96
// 041   ----------------------------------------
        BYTE   W96
// 042   ----------------------------------------
        BYTE   W60
        BYTE   GoTo
         POIN2  crimeoftheheart0_1_LOOP
        BYTE   W36
// 043   ----------------------------------------
        BYTE   PATT
         POIN2  crimeoftheheart0_0_43
// 044   ----------------------------------------
        BYTE   PATT
         POIN2  crimeoftheheart0_0_44
// 045   ----------------------------------------
        BYTE   PATT
         POIN2  crimeoftheheart0_0_45
// 046   ----------------------------------------
        BYTE   PATT
         POIN2  crimeoftheheart0_0_46
        BYTE   FINE

//****************** Track 2 (Midi-Chn.2) ******************//

crimeoftheheart0_2:
        BYTE   KEYSH   crimeoftheheart0_key+0
// 000   ----------------------------------------
        BYTE           VOICE   96
        BYTE           VOL     26
        BYTE   W60
crimeoftheheart0_2_LOOP:
        BYTE   W36
// 001   ----------------------------------------
        BYTE   W96
// 002   ----------------------------------------
        BYTE   W96
// 003   ----------------------------------------
        BYTE   W96
// 004   ----------------------------------------
        BYTE   W96
// 005   ----------------------------------------
        BYTE   W96
// 006   ----------------------------------------
        BYTE   W96
// 007   ----------------------------------------
        BYTE   W96
// 008   ----------------------------------------
        BYTE   W96
// 009   ----------------------------------------
        BYTE           PAN     c_v-22
        BYTE   W48
        BYTE           N24     Fs4   v100
        BYTE   W24
        BYTE                   Gs4
        BYTE   W24
// 010   ----------------------------------------
crimeoftheheart0_2_10:
        BYTE           N60     As4   v100
        BYTE   W60
        BYTE           N24     Bn4
        BYTE   W24
        BYTE           N12     Cs5
        BYTE   W12
        BYTE   PEND
// 011   ----------------------------------------
crimeoftheheart0_2_11:
        BYTE           N72     Gs4   v100
        BYTE   W72
        BYTE           N12     Fs4
        BYTE   W12
        BYTE                   Fn4
        BYTE   W12
        BYTE   PEND
// 012   ----------------------------------------
crimeoftheheart0_2_12:
        BYTE           N60     Fs4   v100
        BYTE   W60
        BYTE           N24     Gs4
        BYTE   W24
        BYTE           N12     As4
        BYTE   W12
        BYTE   PEND
// 013   ----------------------------------------
crimeoftheheart0_2_13:
        BYTE           N72     Fn4   v100
        BYTE   W72
        BYTE           N12     Fs4
        BYTE   W12
        BYTE                   Fn4
        BYTE   W12
        BYTE   PEND
// 014   ----------------------------------------
crimeoftheheart0_2_14:
        BYTE           N48     Ds4   v100
        BYTE   W48
        BYTE                   Ds5
        BYTE   W48
        BYTE   PEND
// 015   ----------------------------------------
crimeoftheheart0_2_15:
        BYTE           N60     Cs5   v100
        BYTE   W60
        BYTE           N24     Bn4
        BYTE   W24
        BYTE           N12     As4
        BYTE   W12
        BYTE   PEND
// 016   ----------------------------------------
crimeoftheheart0_2_16:
        BYTE           N60     Gs4   v100
        BYTE   W60
        BYTE           N24     Fs4
        BYTE   W24
        BYTE           N12     Gs4
        BYTE   W12
        BYTE   PEND
// 017   ----------------------------------------
crimeoftheheart0_2_17:
        BYTE           N60     As4   v100
        BYTE   W60
        BYTE           N12     As3
        BYTE   W12
        BYTE                   Ds4
        BYTE   W12
        BYTE                   Fn4
        BYTE   W12
        BYTE   PEND
// 018   ----------------------------------------
crimeoftheheart0_2_18:
        BYTE           N48     Fs4   v100
        BYTE   W48
        BYTE           N24     Fn4
        BYTE   W24
        BYTE                   Cs4
        BYTE   W24
        BYTE   PEND
// 019   ----------------------------------------
crimeoftheheart0_2_19:
        BYTE           N24     Ds4   v100
        BYTE   W24
        BYTE                   Ds3
        BYTE   W24
        BYTE                   As3
        BYTE   W24
        BYTE           N12     Ds4
        BYTE   W12
        BYTE                   Cs4
        BYTE   W12
        BYTE   PEND
// 020   ----------------------------------------
crimeoftheheart0_2_20:
        BYTE           N24     Bn3   v100
        BYTE   W24
        BYTE           N12     Cs4
        BYTE   W12
        BYTE                   Ds4
        BYTE   W12
        BYTE           N24     Cs4
        BYTE   W24
        BYTE                   Fn4
        BYTE   W24
        BYTE   PEND
// 021   ----------------------------------------
crimeoftheheart0_2_21:
        BYTE           N24     Fs4   v100
        BYTE   W24
        BYTE           N12     Gs4
        BYTE   W12
        BYTE                   As4
        BYTE   W12
        BYTE           N48     Fn4
        BYTE   W48
        BYTE   PEND
// 022   ----------------------------------------
crimeoftheheart0_2_22:
        BYTE           N24     Fs4   v100
        BYTE   W24
        BYTE           N12     Fn4
        BYTE   W12
        BYTE                   Ds4
        BYTE   W12
        BYTE           N24     Cs4
        BYTE   W24
        BYTE                   As3
        BYTE   W24
        BYTE   PEND
// 023   ----------------------------------------
crimeoftheheart0_2_23:
        BYTE           N24     Bn3   v100
        BYTE   W24
        BYTE           N12     Cs4
        BYTE   W12
        BYTE                   Ds4
        BYTE   W12
        BYTE           N48     Cs4
        BYTE   W48
        BYTE   PEND
// 024   ----------------------------------------
crimeoftheheart0_2_24:
        BYTE           N24     Fs4   v100
        BYTE   W24
        BYTE                   Gs4
        BYTE   W24
        BYTE                   Fn4
        BYTE   W24
        BYTE           N12     Ds4
        BYTE   W12
        BYTE                   Cs4
        BYTE   W12
        BYTE   PEND
// 025   ----------------------------------------
        BYTE           TIE     Ds4
        BYTE   W96
// 026   ----------------------------------------
crimeoftheheart0_2_26:
        BYTE   W48
        BYTE           EOT     Ds4
        BYTE           N24     Fs4   v100
        BYTE   W24
        BYTE                   Gs4
        BYTE   W24
        BYTE   PEND
// 027   ----------------------------------------
        BYTE   PATT
         POIN2  crimeoftheheart0_2_10
// 028   ----------------------------------------
        BYTE   PATT
         POIN2  crimeoftheheart0_2_11
// 029   ----------------------------------------
        BYTE   PATT
         POIN2  crimeoftheheart0_2_12
// 030   ----------------------------------------
        BYTE   PATT
         POIN2  crimeoftheheart0_2_13
// 031   ----------------------------------------
        BYTE   PATT
         POIN2  crimeoftheheart0_2_14
// 032   ----------------------------------------
        BYTE   PATT
         POIN2  crimeoftheheart0_2_15
// 033   ----------------------------------------
        BYTE   PATT
         POIN2  crimeoftheheart0_2_16
// 034   ----------------------------------------
        BYTE   PATT
         POIN2  crimeoftheheart0_2_17
// 035   ----------------------------------------
        BYTE   PATT
         POIN2  crimeoftheheart0_2_18
// 036   ----------------------------------------
        BYTE   PATT
         POIN2  crimeoftheheart0_2_19
// 037   ----------------------------------------
        BYTE   PATT
         POIN2  crimeoftheheart0_2_20
// 038   ----------------------------------------
        BYTE   PATT
         POIN2  crimeoftheheart0_2_21
// 039   ----------------------------------------
        BYTE   PATT
         POIN2  crimeoftheheart0_2_22
// 040   ----------------------------------------
        BYTE   PATT
         POIN2  crimeoftheheart0_2_23
// 041   ----------------------------------------
        BYTE   PATT
         POIN2  crimeoftheheart0_2_24
// 042   ----------------------------------------
        BYTE           N48     Ds4   v100
        BYTE   W60
        BYTE           PAN     c_v+0
        BYTE   GoTo
         POIN2  crimeoftheheart0_2_LOOP
        BYTE   W36
// 043   ----------------------------------------
        BYTE   W96
// 044   ----------------------------------------
        BYTE   W96
// 045   ----------------------------------------
        BYTE   W96
// 046   ----------------------------------------
        BYTE   W92
        BYTE   W02
        BYTE   FINE

//****************** Track 3 (Midi-Chn.3) ******************//

crimeoftheheart0_3:
        BYTE   KEYSH   crimeoftheheart0_key+0
// 000   ----------------------------------------
        BYTE           VOICE   97
        BYTE           VOL     26
        BYTE   W60
crimeoftheheart0_3_LOOP:
        BYTE   W36
// 001   ----------------------------------------
        BYTE   W96
// 002   ----------------------------------------
        BYTE   W96
// 003   ----------------------------------------
        BYTE   W96
// 004   ----------------------------------------
        BYTE   W96
// 005   ----------------------------------------
        BYTE   W96
// 006   ----------------------------------------
        BYTE   W96
// 007   ----------------------------------------
        BYTE   W96
// 008   ----------------------------------------
        BYTE   W96
// 009   ----------------------------------------
        BYTE           PAN     c_v+20
        BYTE   W48
        BYTE           N24     Fs4   v100
        BYTE   W24
        BYTE                   Gs4
        BYTE   W24
// 010   ----------------------------------------
        BYTE   PATT
         POIN2  crimeoftheheart0_2_10
// 011   ----------------------------------------
        BYTE   PATT
         POIN2  crimeoftheheart0_2_11
// 012   ----------------------------------------
        BYTE   PATT
         POIN2  crimeoftheheart0_2_12
// 013   ----------------------------------------
        BYTE   PATT
         POIN2  crimeoftheheart0_2_13
// 014   ----------------------------------------
        BYTE   PATT
         POIN2  crimeoftheheart0_2_14
// 015   ----------------------------------------
        BYTE   PATT
         POIN2  crimeoftheheart0_2_15
// 016   ----------------------------------------
        BYTE   PATT
         POIN2  crimeoftheheart0_2_16
// 017   ----------------------------------------
        BYTE   PATT
         POIN2  crimeoftheheart0_2_17
// 018   ----------------------------------------
        BYTE   PATT
         POIN2  crimeoftheheart0_2_18
// 019   ----------------------------------------
        BYTE   PATT
         POIN2  crimeoftheheart0_2_19
// 020   ----------------------------------------
        BYTE   PATT
         POIN2  crimeoftheheart0_2_20
// 021   ----------------------------------------
        BYTE   PATT
         POIN2  crimeoftheheart0_2_21
// 022   ----------------------------------------
        BYTE   PATT
         POIN2  crimeoftheheart0_2_22
// 023   ----------------------------------------
        BYTE   PATT
         POIN2  crimeoftheheart0_2_23
// 024   ----------------------------------------
        BYTE   PATT
         POIN2  crimeoftheheart0_2_24
// 025   ----------------------------------------
        BYTE           TIE     Ds4   v100
        BYTE   W96
// 026   ----------------------------------------
        BYTE   PATT
         POIN2  crimeoftheheart0_2_26
// 027   ----------------------------------------
        BYTE   PATT
         POIN2  crimeoftheheart0_2_10
// 028   ----------------------------------------
        BYTE   PATT
         POIN2  crimeoftheheart0_2_11
// 029   ----------------------------------------
        BYTE   PATT
         POIN2  crimeoftheheart0_2_12
// 030   ----------------------------------------
        BYTE   PATT
         POIN2  crimeoftheheart0_2_13
// 031   ----------------------------------------
        BYTE   PATT
         POIN2  crimeoftheheart0_2_14
// 032   ----------------------------------------
        BYTE   PATT
         POIN2  crimeoftheheart0_2_15
// 033   ----------------------------------------
        BYTE   PATT
         POIN2  crimeoftheheart0_2_16
// 034   ----------------------------------------
        BYTE   PATT
         POIN2  crimeoftheheart0_2_17
// 035   ----------------------------------------
        BYTE   PATT
         POIN2  crimeoftheheart0_2_18
// 036   ----------------------------------------
        BYTE   PATT
         POIN2  crimeoftheheart0_2_19
// 037   ----------------------------------------
        BYTE   PATT
         POIN2  crimeoftheheart0_2_20
// 038   ----------------------------------------
        BYTE   PATT
         POIN2  crimeoftheheart0_2_21
// 039   ----------------------------------------
        BYTE   PATT
         POIN2  crimeoftheheart0_2_22
// 040   ----------------------------------------
        BYTE   PATT
         POIN2  crimeoftheheart0_2_23
// 041   ----------------------------------------
        BYTE   PATT
         POIN2  crimeoftheheart0_2_24
// 042   ----------------------------------------
        BYTE           N48     Ds4   v100
        BYTE   W60
        BYTE           PAN     c_v+0
        BYTE   GoTo
         POIN2  crimeoftheheart0_3_LOOP
        BYTE   W36
// 043   ----------------------------------------
        BYTE   W96
// 044   ----------------------------------------
        BYTE   W96
// 045   ----------------------------------------
        BYTE   W96
// 046   ----------------------------------------
        BYTE   W92
        BYTE   W02
        BYTE   FINE

//****************** Track 4 (Midi-Chn.4) ******************//

crimeoftheheart0_4:
        BYTE   KEYSH   crimeoftheheart0_key+0
// 000   ----------------------------------------
        BYTE           VOICE   46
        BYTE           VOL     26
        BYTE   W60
crimeoftheheart0_4_LOOP:
        BYTE   W36
// 001   ----------------------------------------
crimeoftheheart0_4_1:
        BYTE           PAN     c_v-1
        BYTE           N12     As2   v115
        BYTE   W01
        BYTE           PAN     c_v-3
        BYTE   W02
        BYTE                   c_v-5
        BYTE   W01
        BYTE                   c_v-7
        BYTE   W02
        BYTE                   c_v-9
        BYTE   W01
        BYTE                   c_v-11
        BYTE   W02
        BYTE                   c_v-13
        BYTE   W01
        BYTE                   c_v-15
        BYTE   W02
        BYTE                   c_v-17
        BYTE           N12     Ds3
        BYTE   W01
        BYTE           PAN     c_v-19
        BYTE   W02
        BYTE                   c_v-21
        BYTE   W01
        BYTE                   c_v-23
        BYTE   W02
        BYTE                   c_v-25
        BYTE   W01
        BYTE                   c_v-27
        BYTE   W03
        BYTE                   c_v-29
        BYTE   W02
        BYTE                   c_v-33
        BYTE           N12     Fs3
        BYTE   W01
        BYTE           PAN     c_v-31
        BYTE   W02
        BYTE                   c_v-29
        BYTE   W01
        BYTE                   c_v-27
        BYTE   W02
        BYTE                   c_v-25
        BYTE   W03
        BYTE                   c_v-21
        BYTE   W01
        BYTE                   c_v-19
        BYTE   W02
        BYTE                   c_v-17
        BYTE           N12     As3
        BYTE   W01
        BYTE           PAN     c_v-15
        BYTE   W02
        BYTE                   c_v-13
        BYTE   W01
        BYTE                   c_v-11
        BYTE   W02
        BYTE                   c_v-9
        BYTE   W01
        BYTE                   c_v-7
        BYTE   W02
        BYTE                   c_v-5
        BYTE   W01
        BYTE                   c_v-3
        BYTE   W02
        BYTE                   c_v-1
        BYTE           N12     As2
        BYTE   W01
        BYTE           PAN     c_v+1
        BYTE   W02
        BYTE                   c_v+3
        BYTE   W01
        BYTE                   c_v+5
        BYTE   W02
        BYTE                   c_v+7
        BYTE   W01
        BYTE                   c_v+9
        BYTE   W02
        BYTE                   c_v+11
        BYTE   W01
        BYTE                   c_v+13
        BYTE   W02
        BYTE                   c_v+15
        BYTE           N12     Cs3
        BYTE   W01
        BYTE           PAN     c_v+17
        BYTE   W02
        BYTE                   c_v+19
        BYTE   W01
        BYTE                   c_v+21
        BYTE   W02
        BYTE                   c_v+23
        BYTE   W01
        BYTE                   c_v+25
        BYTE   W02
        BYTE                   c_v+27
        BYTE   W01
        BYTE                   c_v+29
        BYTE   W02
        BYTE                   c_v+31
        BYTE           N12     Fn3
        BYTE   W01
        BYTE           PAN     c_v+29
        BYTE   W02
        BYTE                   c_v+27
        BYTE   W01
        BYTE                   c_v+25
        BYTE   W02
        BYTE                   c_v+23
        BYTE   W01
        BYTE                   c_v+21
        BYTE   W02
        BYTE                   c_v+19
        BYTE   W01
        BYTE                   c_v+17
        BYTE   W02
        BYTE                   c_v+15
        BYTE           N12     As3
        BYTE   W01
        BYTE           PAN     c_v+13
        BYTE   W02
        BYTE                   c_v+11
        BYTE   W01
        BYTE                   c_v+9
        BYTE   W02
        BYTE                   c_v+7
        BYTE   W01
        BYTE                   c_v+5
        BYTE   W02
        BYTE                   c_v+3
        BYTE   W01
        BYTE                   c_v+1
        BYTE   W02
        BYTE   PEND
// 002   ----------------------------------------
        BYTE                   c_v-1
        BYTE           N12     As2
        BYTE   W01
        BYTE           PAN     c_v-3
        BYTE   W02
        BYTE                   c_v-5
        BYTE   W01
        BYTE                   c_v-7
        BYTE   W02
        BYTE                   c_v-9
        BYTE   W01
        BYTE                   c_v-11
        BYTE   W02
        BYTE                   c_v-13
        BYTE   W01
        BYTE                   c_v-15
        BYTE   W02
        BYTE                   c_v-17
        BYTE           N12     Ds3
        BYTE   W01
        BYTE           PAN     c_v-19
        BYTE   W02
        BYTE                   c_v-21
        BYTE   W01
        BYTE                   c_v-23
        BYTE   W02
        BYTE                   c_v-25
        BYTE   W01
        BYTE                   c_v-27
        BYTE   W03
        BYTE                   c_v-29
        BYTE   W02
        BYTE                   c_v-33
        BYTE           N12     Fs3
        BYTE   W01
        BYTE           PAN     c_v-31
        BYTE   W02
        BYTE                   c_v-29
        BYTE   W01
        BYTE                   c_v-27
        BYTE   W02
        BYTE                   c_v-25
        BYTE   W03
        BYTE                   c_v-21
        BYTE   W01
        BYTE                   c_v-19
        BYTE   W02
        BYTE                   c_v-17
        BYTE           N12     As3
        BYTE   W01
        BYTE           PAN     c_v-15
        BYTE   W02
        BYTE                   c_v-13
        BYTE   W01
        BYTE                   c_v-11
        BYTE   W02
        BYTE                   c_v-9
        BYTE   W01
        BYTE                   c_v-7
        BYTE   W02
        BYTE                   c_v-5
        BYTE   W01
        BYTE                   c_v-3
        BYTE   W02
        BYTE                   c_v-1
        BYTE           N12     As2
        BYTE   W01
        BYTE           PAN     c_v+1
        BYTE   W02
        BYTE                   c_v+3
        BYTE   W01
        BYTE                   c_v+5
        BYTE   W02
        BYTE                   c_v+7
        BYTE   W01
        BYTE                   c_v+9
        BYTE   W02
        BYTE                   c_v+11
        BYTE   W01
        BYTE                   c_v+13
        BYTE   W02
        BYTE                   c_v+15
        BYTE           N12     Dn3
        BYTE   W01
        BYTE           PAN     c_v+17
        BYTE   W02
        BYTE                   c_v+19
        BYTE   W01
        BYTE                   c_v+21
        BYTE   W02
        BYTE                   c_v+23
        BYTE   W01
        BYTE                   c_v+25
        BYTE   W02
        BYTE                   c_v+27
        BYTE   W01
        BYTE                   c_v+29
        BYTE   W02
        BYTE                   c_v+31
        BYTE           N12     Fn3
        BYTE   W01
        BYTE           PAN     c_v+29
        BYTE   W02
        BYTE                   c_v+27
        BYTE   W01
        BYTE                   c_v+25
        BYTE   W02
        BYTE                   c_v+23
        BYTE   W01
        BYTE                   c_v+21
        BYTE   W02
        BYTE                   c_v+19
        BYTE   W01
        BYTE                   c_v+17
        BYTE   W02
        BYTE                   c_v+15
        BYTE           N12     Gs3
        BYTE   W01
        BYTE           PAN     c_v+13
        BYTE   W02
        BYTE                   c_v+11
        BYTE   W01
        BYTE                   c_v+9
        BYTE   W02
        BYTE                   c_v+7
        BYTE   W01
        BYTE                   c_v+5
        BYTE   W02
        BYTE                   c_v+3
        BYTE   W01
        BYTE                   c_v+1
        BYTE   W02
// 003   ----------------------------------------
crimeoftheheart0_4_3:
        BYTE           PAN     c_v-1
        BYTE           N12     Bn2   v115
        BYTE   W01
        BYTE           PAN     c_v-3
        BYTE   W02
        BYTE                   c_v-5
        BYTE   W01
        BYTE                   c_v-7
        BYTE   W02
        BYTE                   c_v-9
        BYTE   W01
        BYTE                   c_v-11
        BYTE   W02
        BYTE                   c_v-13
        BYTE   W01
        BYTE                   c_v-15
        BYTE   W02
        BYTE                   c_v-17
        BYTE           N12     Ds3
        BYTE   W01
        BYTE           PAN     c_v-19
        BYTE   W02
        BYTE                   c_v-21
        BYTE   W01
        BYTE                   c_v-23
        BYTE   W02
        BYTE                   c_v-25
        BYTE   W01
        BYTE                   c_v-27
        BYTE   W03
        BYTE                   c_v-29
        BYTE   W02
        BYTE                   c_v-33
        BYTE           N12     Fs3
        BYTE   W01
        BYTE           PAN     c_v-31
        BYTE   W02
        BYTE                   c_v-29
        BYTE   W01
        BYTE                   c_v-27
        BYTE   W02
        BYTE                   c_v-25
        BYTE   W03
        BYTE                   c_v-21
        BYTE   W01
        BYTE                   c_v-19
        BYTE   W02
        BYTE                   c_v-17
        BYTE           N12     Bn3
        BYTE   W01
        BYTE           PAN     c_v-15
        BYTE   W02
        BYTE                   c_v-13
        BYTE   W01
        BYTE                   c_v-11
        BYTE   W02
        BYTE                   c_v-9
        BYTE   W01
        BYTE                   c_v-7
        BYTE   W02
        BYTE                   c_v-5
        BYTE   W01
        BYTE                   c_v-3
        BYTE   W02
        BYTE                   c_v-1
        BYTE           N12     Cs3
        BYTE   W01
        BYTE           PAN     c_v+1
        BYTE   W02
        BYTE                   c_v+3
        BYTE   W01
        BYTE                   c_v+5
        BYTE   W02
        BYTE                   c_v+7
        BYTE   W01
        BYTE                   c_v+9
        BYTE   W02
        BYTE                   c_v+11
        BYTE   W01
        BYTE                   c_v+13
        BYTE   W02
        BYTE                   c_v+15
        BYTE           N12     Fn3
        BYTE   W01
        BYTE           PAN     c_v+17
        BYTE   W02
        BYTE                   c_v+19
        BYTE   W01
        BYTE                   c_v+21
        BYTE   W02
        BYTE                   c_v+23
        BYTE   W01
        BYTE                   c_v+25
        BYTE   W02
        BYTE                   c_v+27
        BYTE   W01
        BYTE                   c_v+29
        BYTE   W02
        BYTE                   c_v+31
        BYTE           N12     Gs3
        BYTE   W01
        BYTE           PAN     c_v+29
        BYTE   W02
        BYTE                   c_v+27
        BYTE   W01
        BYTE                   c_v+25
        BYTE   W02
        BYTE                   c_v+23
        BYTE   W01
        BYTE                   c_v+21
        BYTE   W02
        BYTE                   c_v+19
        BYTE   W01
        BYTE                   c_v+17
        BYTE   W02
        BYTE                   c_v+15
        BYTE           N12     Cs4
        BYTE   W01
        BYTE           PAN     c_v+13
        BYTE   W02
        BYTE                   c_v+11
        BYTE   W01
        BYTE                   c_v+9
        BYTE   W02
        BYTE                   c_v+7
        BYTE   W01
        BYTE                   c_v+5
        BYTE   W02
        BYTE                   c_v+3
        BYTE   W01
        BYTE                   c_v+1
        BYTE   W02
        BYTE   PEND
// 004   ----------------------------------------
crimeoftheheart0_4_4:
        BYTE           PAN     c_v-1
        BYTE           N12     Fs2   v115
        BYTE   W01
        BYTE           PAN     c_v-3
        BYTE   W02
        BYTE                   c_v-5
        BYTE   W01
        BYTE                   c_v-7
        BYTE   W02
        BYTE                   c_v-9
        BYTE   W01
        BYTE                   c_v-11
        BYTE   W02
        BYTE                   c_v-13
        BYTE   W01
        BYTE                   c_v-15
        BYTE   W02
        BYTE                   c_v-17
        BYTE           N12     As2
        BYTE   W01
        BYTE           PAN     c_v-19
        BYTE   W02
        BYTE                   c_v-21
        BYTE   W01
        BYTE                   c_v-23
        BYTE   W02
        BYTE                   c_v-25
        BYTE   W01
        BYTE                   c_v-27
        BYTE   W03
        BYTE                   c_v-29
        BYTE   W02
        BYTE                   c_v-33
        BYTE           N12     Cs3
        BYTE   W01
        BYTE           PAN     c_v-31
        BYTE   W02
        BYTE                   c_v-29
        BYTE   W01
        BYTE                   c_v-27
        BYTE   W02
        BYTE                   c_v-25
        BYTE   W03
        BYTE                   c_v-21
        BYTE   W01
        BYTE                   c_v-19
        BYTE   W02
        BYTE                   c_v-17
        BYTE           N12     Fs3
        BYTE   W01
        BYTE           PAN     c_v-15
        BYTE   W02
        BYTE                   c_v-13
        BYTE   W01
        BYTE                   c_v-11
        BYTE   W02
        BYTE                   c_v-9
        BYTE   W01
        BYTE                   c_v-7
        BYTE   W02
        BYTE                   c_v-5
        BYTE   W01
        BYTE                   c_v-3
        BYTE   W02
        BYTE                   c_v-1
        BYTE           N12     Fn2
        BYTE   W01
        BYTE           PAN     c_v+1
        BYTE   W02
        BYTE                   c_v+3
        BYTE   W01
        BYTE                   c_v+5
        BYTE   W02
        BYTE                   c_v+7
        BYTE   W01
        BYTE                   c_v+9
        BYTE   W02
        BYTE                   c_v+11
        BYTE   W01
        BYTE                   c_v+13
        BYTE   W02
        BYTE                   c_v+15
        BYTE           N12     As2
        BYTE   W01
        BYTE           PAN     c_v+17
        BYTE   W02
        BYTE                   c_v+19
        BYTE   W01
        BYTE                   c_v+21
        BYTE   W02
        BYTE                   c_v+23
        BYTE   W01
        BYTE                   c_v+25
        BYTE   W02
        BYTE                   c_v+27
        BYTE   W01
        BYTE                   c_v+29
        BYTE   W02
        BYTE                   c_v+31
        BYTE           N12     Dn3
        BYTE   W01
        BYTE           PAN     c_v+29
        BYTE   W02
        BYTE                   c_v+27
        BYTE   W01
        BYTE                   c_v+25
        BYTE   W02
        BYTE                   c_v+23
        BYTE   W01
        BYTE                   c_v+21
        BYTE   W02
        BYTE                   c_v+19
        BYTE   W01
        BYTE                   c_v+17
        BYTE   W02
        BYTE                   c_v+15
        BYTE           N12     Fn3
        BYTE   W01
        BYTE           PAN     c_v+13
        BYTE   W02
        BYTE                   c_v+11
        BYTE   W01
        BYTE                   c_v+9
        BYTE   W02
        BYTE                   c_v+7
        BYTE   W01
        BYTE                   c_v+5
        BYTE   W02
        BYTE                   c_v+3
        BYTE   W01
        BYTE                   c_v+1
        BYTE   W02
        BYTE   PEND
// 005   ----------------------------------------
        BYTE   PATT
         POIN2  crimeoftheheart0_4_3
// 006   ----------------------------------------
        BYTE   PATT
         POIN2  crimeoftheheart0_4_3
// 007   ----------------------------------------
        BYTE   PATT
         POIN2  crimeoftheheart0_4_3
// 008   ----------------------------------------
        BYTE           PAN     c_v-1
        BYTE           N12     Ds2   v115
        BYTE   W01
        BYTE           PAN     c_v-3
        BYTE   W02
        BYTE                   c_v-5
        BYTE   W01
        BYTE                   c_v-7
        BYTE   W02
        BYTE                   c_v-9
        BYTE   W01
        BYTE                   c_v-11
        BYTE   W02
        BYTE                   c_v-13
        BYTE   W01
        BYTE                   c_v-15
        BYTE   W02
        BYTE                   c_v-17
        BYTE           N12     As2
        BYTE   W01
        BYTE           PAN     c_v-19
        BYTE   W02
        BYTE                   c_v-21
        BYTE   W01
        BYTE                   c_v-23
        BYTE   W02
        BYTE                   c_v-25
        BYTE   W01
        BYTE                   c_v-27
        BYTE   W03
        BYTE                   c_v-29
        BYTE   W02
        BYTE                   c_v-33
        BYTE           N12     Ds3
        BYTE   W01
        BYTE           PAN     c_v-31
        BYTE   W02
        BYTE                   c_v-29
        BYTE   W01
        BYTE                   c_v-27
        BYTE   W02
        BYTE                   c_v-25
        BYTE   W03
        BYTE                   c_v-21
        BYTE   W01
        BYTE                   c_v-19
        BYTE   W02
        BYTE                   c_v-17
        BYTE           N12     Fs3
        BYTE   W01
        BYTE           PAN     c_v-15
        BYTE   W02
        BYTE                   c_v-13
        BYTE   W01
        BYTE                   c_v-11
        BYTE   W02
        BYTE                   c_v-9
        BYTE   W01
        BYTE                   c_v-7
        BYTE   W02
        BYTE                   c_v-5
        BYTE   W01
        BYTE                   c_v-3
        BYTE   W02
        BYTE                   c_v-1
        BYTE           N12     As3
        BYTE   W01
        BYTE           PAN     c_v+1
        BYTE   W02
        BYTE                   c_v+3
        BYTE   W01
        BYTE                   c_v+5
        BYTE   W02
        BYTE                   c_v+7
        BYTE   W01
        BYTE                   c_v+9
        BYTE   W02
        BYTE                   c_v+11
        BYTE   W01
        BYTE                   c_v+13
        BYTE   W02
        BYTE                   c_v+15
        BYTE           N12     Ds4
        BYTE   W01
        BYTE           PAN     c_v+17
        BYTE   W02
        BYTE                   c_v+19
        BYTE   W01
        BYTE                   c_v+21
        BYTE   W02
        BYTE                   c_v+23
        BYTE   W01
        BYTE                   c_v+25
        BYTE   W02
        BYTE                   c_v+27
        BYTE   W01
        BYTE                   c_v+29
        BYTE   W02
        BYTE                   c_v+31
        BYTE           N12     Fs4
        BYTE   W01
        BYTE           PAN     c_v+29
        BYTE   W02
        BYTE                   c_v+27
        BYTE   W01
        BYTE                   c_v+25
        BYTE   W02
        BYTE                   c_v+23
        BYTE   W01
        BYTE                   c_v+21
        BYTE   W02
        BYTE                   c_v+19
        BYTE   W01
        BYTE                   c_v+17
        BYTE   W02
        BYTE                   c_v+15
        BYTE           N03     As4
        BYTE   W01
        BYTE           PAN     c_v+13
        BYTE   W02
        BYTE                   c_v+11
        BYTE           N03     Ds4
        BYTE   W01
        BYTE           PAN     c_v+9
        BYTE   W02
        BYTE                   c_v+7
        BYTE           N03     Fs4
        BYTE   W01
        BYTE           PAN     c_v+5
        BYTE   W02
        BYTE                   c_v+3
        BYTE           N03     As4
        BYTE   W01
        BYTE           PAN     c_v+1
        BYTE   W02
// 009   ----------------------------------------
crimeoftheheart0_4_9:
        BYTE           PAN     c_v-1
        BYTE           N96     Ds5   v115
        BYTE   W96
        BYTE   PEND
// 010   ----------------------------------------
crimeoftheheart0_4_10:
        BYTE           N12     Cs3   v115
        BYTE   W01
        BYTE           PAN     c_v-3
        BYTE   W02
        BYTE                   c_v-5
        BYTE   W01
        BYTE                   c_v-7
        BYTE   W02
        BYTE                   c_v-9
        BYTE   W01
        BYTE                   c_v-11
        BYTE   W02
        BYTE                   c_v-13
        BYTE   W01
        BYTE                   c_v-15
        BYTE   W02
        BYTE                   c_v-17
        BYTE           N12     Fs3
        BYTE   W01
        BYTE           PAN     c_v-19
        BYTE   W02
        BYTE                   c_v-21
        BYTE   W01
        BYTE                   c_v-23
        BYTE   W02
        BYTE                   c_v-25
        BYTE   W01
        BYTE                   c_v-27
        BYTE   W03
        BYTE                   c_v-29
        BYTE   W02
        BYTE                   c_v-33
        BYTE           N12     As3
        BYTE   W01
        BYTE           PAN     c_v-31
        BYTE   W02
        BYTE                   c_v-29
        BYTE   W01
        BYTE                   c_v-27
        BYTE   W02
        BYTE                   c_v-25
        BYTE   W03
        BYTE                   c_v-21
        BYTE   W01
        BYTE                   c_v-19
        BYTE   W02
        BYTE                   c_v-17
        BYTE           N12     Cs4
        BYTE   W01
        BYTE           PAN     c_v-15
        BYTE   W02
        BYTE                   c_v-13
        BYTE   W01
        BYTE                   c_v-11
        BYTE   W02
        BYTE                   c_v-9
        BYTE   W01
        BYTE                   c_v-7
        BYTE   W02
        BYTE                   c_v-5
        BYTE   W01
        BYTE                   c_v-3
        BYTE   W02
        BYTE                   c_v-1
        BYTE           N12     Cs3
        BYTE   W01
        BYTE           PAN     c_v+1
        BYTE   W02
        BYTE                   c_v+3
        BYTE   W01
        BYTE                   c_v+5
        BYTE   W02
        BYTE                   c_v+7
        BYTE   W01
        BYTE                   c_v+9
        BYTE   W02
        BYTE                   c_v+11
        BYTE   W01
        BYTE                   c_v+13
        BYTE   W02
        BYTE                   c_v+15
        BYTE           N12     Fs3
        BYTE   W01
        BYTE           PAN     c_v+17
        BYTE   W02
        BYTE                   c_v+19
        BYTE   W01
        BYTE                   c_v+21
        BYTE   W02
        BYTE                   c_v+23
        BYTE   W01
        BYTE                   c_v+25
        BYTE   W02
        BYTE                   c_v+27
        BYTE   W01
        BYTE                   c_v+29
        BYTE   W02
        BYTE                   c_v+31
        BYTE           N12     As3
        BYTE   W01
        BYTE           PAN     c_v+29
        BYTE   W02
        BYTE                   c_v+27
        BYTE   W01
        BYTE                   c_v+25
        BYTE   W02
        BYTE                   c_v+23
        BYTE   W01
        BYTE                   c_v+21
        BYTE   W02
        BYTE                   c_v+19
        BYTE   W01
        BYTE                   c_v+17
        BYTE   W02
        BYTE                   c_v+15
        BYTE           N12     Cs4
        BYTE   W01
        BYTE           PAN     c_v+13
        BYTE   W02
        BYTE                   c_v+11
        BYTE   W01
        BYTE                   c_v+9
        BYTE   W02
        BYTE                   c_v+7
        BYTE   W01
        BYTE                   c_v+5
        BYTE   W02
        BYTE                   c_v+3
        BYTE   W01
        BYTE                   c_v+1
        BYTE   W02
        BYTE   PEND
// 011   ----------------------------------------
crimeoftheheart0_4_11:
        BYTE           PAN     c_v-1
        BYTE           N12     Gs2   v115
        BYTE   W01
        BYTE           PAN     c_v-3
        BYTE   W02
        BYTE                   c_v-5
        BYTE   W01
        BYTE                   c_v-7
        BYTE   W02
        BYTE                   c_v-9
        BYTE   W01
        BYTE                   c_v-11
        BYTE   W02
        BYTE                   c_v-13
        BYTE   W01
        BYTE                   c_v-15
        BYTE   W02
        BYTE                   c_v-17
        BYTE           N12     Cs3
        BYTE   W01
        BYTE           PAN     c_v-19
        BYTE   W02
        BYTE                   c_v-21
        BYTE   W01
        BYTE                   c_v-23
        BYTE   W02
        BYTE                   c_v-25
        BYTE   W01
        BYTE                   c_v-27
        BYTE   W03
        BYTE                   c_v-29
        BYTE   W02
        BYTE                   c_v-33
        BYTE           N12     Fn3
        BYTE   W01
        BYTE           PAN     c_v-31
        BYTE   W02
        BYTE                   c_v-29
        BYTE   W01
        BYTE                   c_v-27
        BYTE   W02
        BYTE                   c_v-25
        BYTE   W03
        BYTE                   c_v-21
        BYTE   W01
        BYTE                   c_v-19
        BYTE   W02
        BYTE                   c_v-17
        BYTE           N12     Gs3
        BYTE   W01
        BYTE           PAN     c_v-15
        BYTE   W02
        BYTE                   c_v-13
        BYTE   W01
        BYTE                   c_v-11
        BYTE   W02
        BYTE                   c_v-9
        BYTE   W01
        BYTE                   c_v-7
        BYTE   W02
        BYTE                   c_v-5
        BYTE   W01
        BYTE                   c_v-3
        BYTE   W02
        BYTE                   c_v-1
        BYTE           N12     Gs2
        BYTE   W01
        BYTE           PAN     c_v+1
        BYTE   W02
        BYTE                   c_v+3
        BYTE   W01
        BYTE                   c_v+5
        BYTE   W02
        BYTE                   c_v+7
        BYTE   W01
        BYTE                   c_v+9
        BYTE   W02
        BYTE                   c_v+11
        BYTE   W01
        BYTE                   c_v+13
        BYTE   W02
        BYTE                   c_v+15
        BYTE           N12     Cs3
        BYTE   W01
        BYTE           PAN     c_v+17
        BYTE   W02
        BYTE                   c_v+19
        BYTE   W01
        BYTE                   c_v+21
        BYTE   W02
        BYTE                   c_v+23
        BYTE   W01
        BYTE                   c_v+25
        BYTE   W02
        BYTE                   c_v+27
        BYTE   W01
        BYTE                   c_v+29
        BYTE   W02
        BYTE                   c_v+31
        BYTE           N12     Fn3
        BYTE   W01
        BYTE           PAN     c_v+29
        BYTE   W02
        BYTE                   c_v+27
        BYTE   W01
        BYTE                   c_v+25
        BYTE   W02
        BYTE                   c_v+23
        BYTE   W01
        BYTE                   c_v+21
        BYTE   W02
        BYTE                   c_v+19
        BYTE   W01
        BYTE                   c_v+17
        BYTE   W02
        BYTE                   c_v+15
        BYTE           N12     Gs3
        BYTE   W01
        BYTE           PAN     c_v+13
        BYTE   W02
        BYTE                   c_v+11
        BYTE   W01
        BYTE                   c_v+9
        BYTE   W02
        BYTE                   c_v+7
        BYTE   W01
        BYTE                   c_v+5
        BYTE   W02
        BYTE                   c_v+3
        BYTE   W01
        BYTE                   c_v+1
        BYTE   W02
        BYTE   PEND
// 012   ----------------------------------------
crimeoftheheart0_4_12:
        BYTE           PAN     c_v-1
        BYTE           N12     Ds3   v115
        BYTE   W01
        BYTE           PAN     c_v-3
        BYTE   W02
        BYTE                   c_v-5
        BYTE   W01
        BYTE                   c_v-7
        BYTE   W02
        BYTE                   c_v-9
        BYTE   W01
        BYTE                   c_v-11
        BYTE   W02
        BYTE                   c_v-13
        BYTE   W01
        BYTE                   c_v-15
        BYTE   W02
        BYTE                   c_v-17
        BYTE           N12     Fs3
        BYTE   W01
        BYTE           PAN     c_v-19
        BYTE   W02
        BYTE                   c_v-21
        BYTE   W01
        BYTE                   c_v-23
        BYTE   W02
        BYTE                   c_v-25
        BYTE   W01
        BYTE                   c_v-27
        BYTE   W03
        BYTE                   c_v-29
        BYTE   W02
        BYTE                   c_v-33
        BYTE           N12     As3
        BYTE   W01
        BYTE           PAN     c_v-31
        BYTE   W02
        BYTE                   c_v-29
        BYTE   W01
        BYTE                   c_v-27
        BYTE   W02
        BYTE                   c_v-25
        BYTE   W03
        BYTE                   c_v-21
        BYTE   W01
        BYTE                   c_v-19
        BYTE   W02
        BYTE                   c_v-17
        BYTE           N12     Ds4
        BYTE   W01
        BYTE           PAN     c_v-15
        BYTE   W02
        BYTE                   c_v-13
        BYTE   W01
        BYTE                   c_v-11
        BYTE   W02
        BYTE                   c_v-9
        BYTE   W01
        BYTE                   c_v-7
        BYTE   W02
        BYTE                   c_v-5
        BYTE   W01
        BYTE                   c_v-3
        BYTE   W02
        BYTE                   c_v-1
        BYTE           N12     Ds3
        BYTE   W01
        BYTE           PAN     c_v+1
        BYTE   W02
        BYTE                   c_v+3
        BYTE   W01
        BYTE                   c_v+5
        BYTE   W02
        BYTE                   c_v+7
        BYTE   W01
        BYTE                   c_v+9
        BYTE   W02
        BYTE                   c_v+11
        BYTE   W01
        BYTE                   c_v+13
        BYTE   W02
        BYTE                   c_v+15
        BYTE           N12     Fs3
        BYTE   W01
        BYTE           PAN     c_v+17
        BYTE   W02
        BYTE                   c_v+19
        BYTE   W01
        BYTE                   c_v+21
        BYTE   W02
        BYTE                   c_v+23
        BYTE   W01
        BYTE                   c_v+25
        BYTE   W02
        BYTE                   c_v+27
        BYTE   W01
        BYTE                   c_v+29
        BYTE   W02
        BYTE                   c_v+31
        BYTE           N12     As3
        BYTE   W01
        BYTE           PAN     c_v+29
        BYTE   W02
        BYTE                   c_v+27
        BYTE   W01
        BYTE                   c_v+25
        BYTE   W02
        BYTE                   c_v+23
        BYTE   W01
        BYTE                   c_v+21
        BYTE   W02
        BYTE                   c_v+19
        BYTE   W01
        BYTE                   c_v+17
        BYTE   W02
        BYTE                   c_v+15
        BYTE           N12     Ds4
        BYTE   W01
        BYTE           PAN     c_v+13
        BYTE   W02
        BYTE                   c_v+11
        BYTE   W01
        BYTE                   c_v+9
        BYTE   W02
        BYTE                   c_v+7
        BYTE   W01
        BYTE                   c_v+5
        BYTE   W02
        BYTE                   c_v+3
        BYTE   W01
        BYTE                   c_v+1
        BYTE   W02
        BYTE   PEND
// 013   ----------------------------------------
crimeoftheheart0_4_13:
        BYTE           PAN     c_v-1
        BYTE           N12     Cs3   v115
        BYTE   W01
        BYTE           PAN     c_v-3
        BYTE   W02
        BYTE                   c_v-5
        BYTE   W01
        BYTE                   c_v-7
        BYTE   W02
        BYTE                   c_v-9
        BYTE   W01
        BYTE                   c_v-11
        BYTE   W02
        BYTE                   c_v-13
        BYTE   W01
        BYTE                   c_v-15
        BYTE   W02
        BYTE                   c_v-17
        BYTE           N12     Fn3
        BYTE   W01
        BYTE           PAN     c_v-19
        BYTE   W02
        BYTE                   c_v-21
        BYTE   W01
        BYTE                   c_v-23
        BYTE   W02
        BYTE                   c_v-25
        BYTE   W01
        BYTE                   c_v-27
        BYTE   W03
        BYTE                   c_v-29
        BYTE   W02
        BYTE                   c_v-33
        BYTE           N12     Gs3
        BYTE   W01
        BYTE           PAN     c_v-31
        BYTE   W02
        BYTE                   c_v-29
        BYTE   W01
        BYTE                   c_v-27
        BYTE   W02
        BYTE                   c_v-25
        BYTE   W03
        BYTE                   c_v-21
        BYTE   W01
        BYTE                   c_v-19
        BYTE   W02
        BYTE                   c_v-17
        BYTE           N12     Cs4
        BYTE   W01
        BYTE           PAN     c_v-15
        BYTE   W02
        BYTE                   c_v-13
        BYTE   W01
        BYTE                   c_v-11
        BYTE   W02
        BYTE                   c_v-9
        BYTE   W01
        BYTE                   c_v-7
        BYTE   W02
        BYTE                   c_v-5
        BYTE   W01
        BYTE                   c_v-3
        BYTE   W02
        BYTE                   c_v-1
        BYTE           N12     Cs3
        BYTE   W01
        BYTE           PAN     c_v+1
        BYTE   W02
        BYTE                   c_v+3
        BYTE   W01
        BYTE                   c_v+5
        BYTE   W02
        BYTE                   c_v+7
        BYTE   W01
        BYTE                   c_v+9
        BYTE   W02
        BYTE                   c_v+11
        BYTE   W01
        BYTE                   c_v+13
        BYTE   W02
        BYTE                   c_v+15
        BYTE           N12     Fn3
        BYTE   W01
        BYTE           PAN     c_v+17
        BYTE   W02
        BYTE                   c_v+19
        BYTE   W01
        BYTE                   c_v+21
        BYTE   W02
        BYTE                   c_v+23
        BYTE   W01
        BYTE                   c_v+25
        BYTE   W02
        BYTE                   c_v+27
        BYTE   W01
        BYTE                   c_v+29
        BYTE   W02
        BYTE                   c_v+31
        BYTE           N12     Gs3
        BYTE   W01
        BYTE           PAN     c_v+29
        BYTE   W02
        BYTE                   c_v+27
        BYTE   W01
        BYTE                   c_v+25
        BYTE   W02
        BYTE                   c_v+23
        BYTE   W01
        BYTE                   c_v+21
        BYTE   W02
        BYTE                   c_v+19
        BYTE   W01
        BYTE                   c_v+17
        BYTE   W02
        BYTE                   c_v+15
        BYTE           N12     Cs4
        BYTE   W01
        BYTE           PAN     c_v+13
        BYTE   W02
        BYTE                   c_v+11
        BYTE   W01
        BYTE                   c_v+9
        BYTE   W02
        BYTE                   c_v+7
        BYTE   W01
        BYTE                   c_v+5
        BYTE   W02
        BYTE                   c_v+3
        BYTE   W01
        BYTE                   c_v+1
        BYTE   W02
        BYTE   PEND
// 014   ----------------------------------------
crimeoftheheart0_4_14:
        BYTE           PAN     c_v-1
        BYTE           N12     Bn2   v115
        BYTE   W01
        BYTE           PAN     c_v-3
        BYTE   W02
        BYTE                   c_v-5
        BYTE   W01
        BYTE                   c_v-7
        BYTE   W02
        BYTE                   c_v-9
        BYTE   W01
        BYTE                   c_v-11
        BYTE   W02
        BYTE                   c_v-13
        BYTE   W01
        BYTE                   c_v-15
        BYTE   W02
        BYTE                   c_v-17
        BYTE           N12     Ds3
        BYTE   W01
        BYTE           PAN     c_v-19
        BYTE   W02
        BYTE                   c_v-21
        BYTE   W01
        BYTE                   c_v-23
        BYTE   W02
        BYTE                   c_v-25
        BYTE   W01
        BYTE                   c_v-27
        BYTE   W03
        BYTE                   c_v-29
        BYTE   W02
        BYTE                   c_v-33
        BYTE           N12     Fs3
        BYTE   W01
        BYTE           PAN     c_v-31
        BYTE   W02
        BYTE                   c_v-29
        BYTE   W01
        BYTE                   c_v-27
        BYTE   W02
        BYTE                   c_v-25
        BYTE   W03
        BYTE                   c_v-21
        BYTE   W01
        BYTE                   c_v-19
        BYTE   W02
        BYTE                   c_v-17
        BYTE           N12     Bn3
        BYTE   W01
        BYTE           PAN     c_v-15
        BYTE   W02
        BYTE                   c_v-13
        BYTE   W01
        BYTE                   c_v-11
        BYTE   W02
        BYTE                   c_v-9
        BYTE   W01
        BYTE                   c_v-7
        BYTE   W02
        BYTE                   c_v-5
        BYTE   W01
        BYTE                   c_v-3
        BYTE   W02
        BYTE                   c_v-1
        BYTE           N12     Bn2
        BYTE   W01
        BYTE           PAN     c_v+1
        BYTE   W02
        BYTE                   c_v+3
        BYTE   W01
        BYTE                   c_v+5
        BYTE   W02
        BYTE                   c_v+7
        BYTE   W01
        BYTE                   c_v+9
        BYTE   W02
        BYTE                   c_v+11
        BYTE   W01
        BYTE                   c_v+13
        BYTE   W02
        BYTE                   c_v+15
        BYTE           N12     Ds3
        BYTE   W01
        BYTE           PAN     c_v+17
        BYTE   W02
        BYTE                   c_v+19
        BYTE   W01
        BYTE                   c_v+21
        BYTE   W02
        BYTE                   c_v+23
        BYTE   W01
        BYTE                   c_v+25
        BYTE   W02
        BYTE                   c_v+27
        BYTE   W01
        BYTE                   c_v+29
        BYTE   W02
        BYTE                   c_v+31
        BYTE           N12     Fs3
        BYTE   W01
        BYTE           PAN     c_v+29
        BYTE   W02
        BYTE                   c_v+27
        BYTE   W01
        BYTE                   c_v+25
        BYTE   W02
        BYTE                   c_v+23
        BYTE   W01
        BYTE                   c_v+21
        BYTE   W02
        BYTE                   c_v+19
        BYTE   W01
        BYTE                   c_v+17
        BYTE   W02
        BYTE                   c_v+15
        BYTE           N12     Bn3
        BYTE   W01
        BYTE           PAN     c_v+13
        BYTE   W02
        BYTE                   c_v+11
        BYTE   W01
        BYTE                   c_v+9
        BYTE   W02
        BYTE                   c_v+7
        BYTE   W01
        BYTE                   c_v+5
        BYTE   W02
        BYTE                   c_v+3
        BYTE   W01
        BYTE                   c_v+1
        BYTE   W02
        BYTE   PEND
// 015   ----------------------------------------
        BYTE   PATT
         POIN2  crimeoftheheart0_4_13
// 016   ----------------------------------------
        BYTE   PATT
         POIN2  crimeoftheheart0_4_14
// 017   ----------------------------------------
crimeoftheheart0_4_17:
        BYTE           PAN     c_v-1
        BYTE           N12     Ds4   v115
        BYTE   W01
        BYTE           PAN     c_v-3
        BYTE   W02
        BYTE                   c_v-5
        BYTE   W01
        BYTE                   c_v-7
        BYTE   W02
        BYTE                   c_v-9
        BYTE   W01
        BYTE                   c_v-11
        BYTE   W02
        BYTE                   c_v-13
        BYTE   W01
        BYTE                   c_v-15
        BYTE   W02
        BYTE                   c_v-17
        BYTE           N12     Bn3
        BYTE   W01
        BYTE           PAN     c_v-19
        BYTE   W02
        BYTE                   c_v-21
        BYTE   W01
        BYTE                   c_v-23
        BYTE   W02
        BYTE                   c_v-25
        BYTE   W01
        BYTE                   c_v-27
        BYTE   W03
        BYTE                   c_v-29
        BYTE   W02
        BYTE                   c_v-33
        BYTE           N12     Fs3
        BYTE   W01
        BYTE           PAN     c_v-31
        BYTE   W02
        BYTE                   c_v-29
        BYTE   W01
        BYTE                   c_v-27
        BYTE   W02
        BYTE                   c_v-25
        BYTE   W03
        BYTE                   c_v-21
        BYTE   W01
        BYTE                   c_v-19
        BYTE   W02
        BYTE                   c_v-17
        BYTE           N12     Ds3
        BYTE   W01
        BYTE           PAN     c_v-15
        BYTE   W02
        BYTE                   c_v-13
        BYTE   W01
        BYTE                   c_v-11
        BYTE   W02
        BYTE                   c_v-9
        BYTE   W01
        BYTE                   c_v-7
        BYTE   W02
        BYTE                   c_v-5
        BYTE   W01
        BYTE                   c_v-3
        BYTE   W02
        BYTE                   c_v-1
        BYTE           N12     Dn4
        BYTE   W01
        BYTE           PAN     c_v+1
        BYTE   W02
        BYTE                   c_v+3
        BYTE   W01
        BYTE                   c_v+5
        BYTE   W02
        BYTE                   c_v+7
        BYTE   W01
        BYTE                   c_v+9
        BYTE   W02
        BYTE                   c_v+11
        BYTE   W01
        BYTE                   c_v+13
        BYTE   W02
        BYTE                   c_v+15
        BYTE           N12     As3
        BYTE   W01
        BYTE           PAN     c_v+17
        BYTE   W02
        BYTE                   c_v+19
        BYTE   W01
        BYTE                   c_v+21
        BYTE   W02
        BYTE                   c_v+23
        BYTE   W01
        BYTE                   c_v+25
        BYTE   W02
        BYTE                   c_v+27
        BYTE   W01
        BYTE                   c_v+29
        BYTE   W02
        BYTE                   c_v+31
        BYTE           N12     Fn3
        BYTE   W01
        BYTE           PAN     c_v+29
        BYTE   W02
        BYTE                   c_v+27
        BYTE   W01
        BYTE                   c_v+25
        BYTE   W02
        BYTE                   c_v+23
        BYTE   W01
        BYTE                   c_v+21
        BYTE   W02
        BYTE                   c_v+19
        BYTE   W01
        BYTE                   c_v+17
        BYTE   W02
        BYTE                   c_v+15
        BYTE           N12     Dn3
        BYTE   W01
        BYTE           PAN     c_v+13
        BYTE   W02
        BYTE                   c_v+11
        BYTE   W01
        BYTE                   c_v+9
        BYTE   W02
        BYTE                   c_v+7
        BYTE   W01
        BYTE                   c_v+5
        BYTE   W02
        BYTE                   c_v+3
        BYTE   W01
        BYTE                   c_v+1
        BYTE   W02
        BYTE   PEND
// 018   ----------------------------------------
        BYTE   PATT
         POIN2  crimeoftheheart0_4_1
// 019   ----------------------------------------
crimeoftheheart0_4_19:
        BYTE           PAN     c_v-1
        BYTE           N12     As2   v115
        BYTE   W01
        BYTE           PAN     c_v-3
        BYTE   W02
        BYTE                   c_v-5
        BYTE   W01
        BYTE                   c_v-7
        BYTE   W02
        BYTE                   c_v-9
        BYTE   W01
        BYTE                   c_v-11
        BYTE   W02
        BYTE                   c_v-13
        BYTE   W01
        BYTE                   c_v-15
        BYTE   W02
        BYTE                   c_v-17
        BYTE           N12     Ds3
        BYTE   W01
        BYTE           PAN     c_v-19
        BYTE   W02
        BYTE                   c_v-21
        BYTE   W01
        BYTE                   c_v-23
        BYTE   W02
        BYTE                   c_v-25
        BYTE   W01
        BYTE                   c_v-27
        BYTE   W03
        BYTE                   c_v-29
        BYTE   W02
        BYTE                   c_v-33
        BYTE           N12     Fs3
        BYTE   W01
        BYTE           PAN     c_v-31
        BYTE   W02
        BYTE                   c_v-29
        BYTE   W01
        BYTE                   c_v-27
        BYTE   W02
        BYTE                   c_v-25
        BYTE   W03
        BYTE                   c_v-21
        BYTE   W01
        BYTE                   c_v-19
        BYTE   W02
        BYTE                   c_v-17
        BYTE           N12     As3
        BYTE   W01
        BYTE           PAN     c_v-15
        BYTE   W02
        BYTE                   c_v-13
        BYTE   W01
        BYTE                   c_v-11
        BYTE   W02
        BYTE                   c_v-9
        BYTE   W01
        BYTE                   c_v-7
        BYTE   W02
        BYTE                   c_v-5
        BYTE   W01
        BYTE                   c_v-3
        BYTE   W02
        BYTE                   c_v-1
        BYTE           N12     As2
        BYTE   W01
        BYTE           PAN     c_v+1
        BYTE   W02
        BYTE                   c_v+3
        BYTE   W01
        BYTE                   c_v+5
        BYTE   W02
        BYTE                   c_v+7
        BYTE   W01
        BYTE                   c_v+9
        BYTE   W02
        BYTE                   c_v+11
        BYTE   W01
        BYTE                   c_v+13
        BYTE   W02
        BYTE                   c_v+15
        BYTE           N12     Dn3
        BYTE   W01
        BYTE           PAN     c_v+17
        BYTE   W02
        BYTE                   c_v+19
        BYTE   W01
        BYTE                   c_v+21
        BYTE   W02
        BYTE                   c_v+23
        BYTE   W01
        BYTE                   c_v+25
        BYTE   W02
        BYTE                   c_v+27
        BYTE   W01
        BYTE                   c_v+29
        BYTE   W02
        BYTE                   c_v+31
        BYTE           N12     Ds3
        BYTE   W01
        BYTE           PAN     c_v+29
        BYTE   W02
        BYTE                   c_v+27
        BYTE   W01
        BYTE                   c_v+25
        BYTE   W02
        BYTE                   c_v+23
        BYTE   W01
        BYTE                   c_v+21
        BYTE   W02
        BYTE                   c_v+19
        BYTE   W01
        BYTE                   c_v+17
        BYTE   W02
        BYTE                   c_v+15
        BYTE           N12     Fn3
        BYTE   W01
        BYTE           PAN     c_v+13
        BYTE   W02
        BYTE                   c_v+11
        BYTE   W01
        BYTE                   c_v+9
        BYTE   W02
        BYTE                   c_v+7
        BYTE   W01
        BYTE                   c_v+5
        BYTE   W02
        BYTE                   c_v+3
        BYTE   W01
        BYTE                   c_v+1
        BYTE   W02
        BYTE   PEND
// 020   ----------------------------------------
        BYTE   PATT
         POIN2  crimeoftheheart0_4_3
// 021   ----------------------------------------
        BYTE   PATT
         POIN2  crimeoftheheart0_4_4
// 022   ----------------------------------------
        BYTE   PATT
         POIN2  crimeoftheheart0_4_3
// 023   ----------------------------------------
        BYTE   PATT
         POIN2  crimeoftheheart0_4_3
// 024   ----------------------------------------
        BYTE   PATT
         POIN2  crimeoftheheart0_4_3
// 025   ----------------------------------------
        BYTE           PAN     c_v-1
        BYTE           N12     Ds2   v115
        BYTE   W01
        BYTE           PAN     c_v-3
        BYTE   W02
        BYTE                   c_v-5
        BYTE   W01
        BYTE                   c_v-7
        BYTE   W02
        BYTE                   c_v-9
        BYTE   W01
        BYTE                   c_v-11
        BYTE   W02
        BYTE                   c_v-13
        BYTE   W01
        BYTE                   c_v-15
        BYTE   W02
        BYTE                   c_v-17
        BYTE           N12     As2
        BYTE   W01
        BYTE           PAN     c_v-19
        BYTE   W02
        BYTE                   c_v-21
        BYTE   W01
        BYTE                   c_v-23
        BYTE   W02
        BYTE                   c_v-25
        BYTE   W01
        BYTE                   c_v-27
        BYTE   W03
        BYTE                   c_v-29
        BYTE   W02
        BYTE                   c_v-33
        BYTE           N12     Ds3
        BYTE   W01
        BYTE           PAN     c_v-31
        BYTE   W02
        BYTE                   c_v-29
        BYTE   W01
        BYTE                   c_v-27
        BYTE   W02
        BYTE                   c_v-25
        BYTE   W03
        BYTE                   c_v-21
        BYTE   W01
        BYTE                   c_v-19
        BYTE   W02
        BYTE                   c_v-17
        BYTE           N12     Fs3
        BYTE   W01
        BYTE           PAN     c_v-15
        BYTE   W02
        BYTE                   c_v-13
        BYTE   W01
        BYTE                   c_v-11
        BYTE   W02
        BYTE                   c_v-9
        BYTE   W01
        BYTE                   c_v-7
        BYTE   W02
        BYTE                   c_v-5
        BYTE   W01
        BYTE                   c_v-3
        BYTE   W02
        BYTE                   c_v-1
        BYTE           N12     As3
        BYTE   W01
        BYTE           PAN     c_v+1
        BYTE   W02
        BYTE                   c_v+3
        BYTE   W01
        BYTE                   c_v+5
        BYTE   W02
        BYTE                   c_v+7
        BYTE   W01
        BYTE                   c_v+9
        BYTE   W02
        BYTE                   c_v+11
        BYTE   W01
        BYTE                   c_v+13
        BYTE   W02
        BYTE                   c_v+15
        BYTE           N12     Ds4
        BYTE   W01
        BYTE           PAN     c_v+17
        BYTE   W02
        BYTE                   c_v+19
        BYTE   W01
        BYTE                   c_v+21
        BYTE   W02
        BYTE                   c_v+23
        BYTE   W01
        BYTE                   c_v+25
        BYTE   W02
        BYTE                   c_v+27
        BYTE   W01
        BYTE                   c_v+29
        BYTE   W02
        BYTE                   c_v+31
        BYTE           N12     Fs4
        BYTE   W01
        BYTE           PAN     c_v+29
        BYTE   W02
        BYTE                   c_v+27
        BYTE   W01
        BYTE                   c_v+25
        BYTE   W02
        BYTE                   c_v+23
        BYTE   W01
        BYTE                   c_v+21
        BYTE   W02
        BYTE                   c_v+19
        BYTE   W01
        BYTE                   c_v+17
        BYTE   W02
        BYTE                   c_v+15
        BYTE           N12     As4
        BYTE   W01
        BYTE           PAN     c_v+13
        BYTE   W02
        BYTE                   c_v+11
        BYTE   W01
        BYTE                   c_v+9
        BYTE   W02
        BYTE                   c_v+7
        BYTE   W01
        BYTE                   c_v+5
        BYTE   W02
        BYTE                   c_v+3
        BYTE   W01
        BYTE                   c_v+1
        BYTE   W02
// 026   ----------------------------------------
        BYTE   PATT
         POIN2  crimeoftheheart0_4_9
// 027   ----------------------------------------
        BYTE   PATT
         POIN2  crimeoftheheart0_4_10
// 028   ----------------------------------------
        BYTE   PATT
         POIN2  crimeoftheheart0_4_11
// 029   ----------------------------------------
        BYTE   PATT
         POIN2  crimeoftheheart0_4_12
// 030   ----------------------------------------
        BYTE   PATT
         POIN2  crimeoftheheart0_4_13
// 031   ----------------------------------------
        BYTE   PATT
         POIN2  crimeoftheheart0_4_14
// 032   ----------------------------------------
        BYTE   PATT
         POIN2  crimeoftheheart0_4_13
// 033   ----------------------------------------
        BYTE   PATT
         POIN2  crimeoftheheart0_4_14
// 034   ----------------------------------------
        BYTE   PATT
         POIN2  crimeoftheheart0_4_17
// 035   ----------------------------------------
        BYTE   PATT
         POIN2  crimeoftheheart0_4_1
// 036   ----------------------------------------
        BYTE   PATT
         POIN2  crimeoftheheart0_4_19
// 037   ----------------------------------------
        BYTE   PATT
         POIN2  crimeoftheheart0_4_3
// 038   ----------------------------------------
        BYTE   PATT
         POIN2  crimeoftheheart0_4_4
// 039   ----------------------------------------
        BYTE   PATT
         POIN2  crimeoftheheart0_4_3
// 040   ----------------------------------------
        BYTE   PATT
         POIN2  crimeoftheheart0_4_3
// 041   ----------------------------------------
        BYTE   PATT
         POIN2  crimeoftheheart0_4_3
// 042   ----------------------------------------
        BYTE           PAN     c_v-1
        BYTE           N12     Ds2   v115
        BYTE   W01
        BYTE           PAN     c_v-3
        BYTE   W02
        BYTE                   c_v-5
        BYTE   W01
        BYTE                   c_v-7
        BYTE   W02
        BYTE                   c_v-9
        BYTE   W01
        BYTE                   c_v-11
        BYTE   W02
        BYTE                   c_v-13
        BYTE   W01
        BYTE                   c_v-15
        BYTE   W02
        BYTE                   c_v-17
        BYTE           N12     As2
        BYTE   W01
        BYTE           PAN     c_v-19
        BYTE   W02
        BYTE                   c_v-21
        BYTE   W01
        BYTE                   c_v-23
        BYTE   W02
        BYTE                   c_v-25
        BYTE   W01
        BYTE                   c_v-27
        BYTE   W03
        BYTE                   c_v-29
        BYTE   W02
        BYTE                   c_v-33
        BYTE           N12     Ds3
        BYTE   W01
        BYTE           PAN     c_v-31
        BYTE   W02
        BYTE                   c_v-29
        BYTE   W01
        BYTE                   c_v-27
        BYTE   W02
        BYTE                   c_v-25
        BYTE   W03
        BYTE                   c_v-21
        BYTE   W01
        BYTE                   c_v-19
        BYTE   W02
        BYTE                   c_v-17
        BYTE           N12     Fs3
        BYTE   W01
        BYTE           PAN     c_v-15
        BYTE   W02
        BYTE                   c_v-13
        BYTE   W01
        BYTE                   c_v-11
        BYTE   W02
        BYTE                   c_v-9
        BYTE   W01
        BYTE                   c_v-7
        BYTE   W02
        BYTE                   c_v-5
        BYTE   W01
        BYTE                   c_v-3
        BYTE   W02
        BYTE                   c_v-1
        BYTE           N12     As3
        BYTE   W01
        BYTE           PAN     c_v+1
        BYTE   W02
        BYTE                   c_v+3
        BYTE   W01
        BYTE                   c_v+5
        BYTE   W02
        BYTE                   c_v+7
        BYTE   W01
        BYTE                   c_v+9
        BYTE   W02
        BYTE                   c_v+11
        BYTE   W01
        BYTE                   c_v+13
        BYTE   W02
        BYTE           N12     Ds4
        BYTE           PAN     c_v+0
        BYTE   GoTo
         POIN2  crimeoftheheart0_4_LOOP
        BYTE   W01
        BYTE                   c_v+17
        BYTE   W02
        BYTE                   c_v+19
        BYTE   W01
        BYTE                   c_v+21
        BYTE   W02
        BYTE                   c_v+23
        BYTE   W01
        BYTE                   c_v+25
        BYTE   W02
        BYTE                   c_v+27
        BYTE   W01
        BYTE                   c_v+29
        BYTE   W02
        BYTE                   c_v+31
        BYTE           N12     Fs4
        BYTE   W01
        BYTE           PAN     c_v+29
        BYTE   W02
        BYTE                   c_v+27
        BYTE   W01
        BYTE                   c_v+25
        BYTE   W02
        BYTE                   c_v+23
        BYTE   W01
        BYTE                   c_v+21
        BYTE   W02
        BYTE                   c_v+19
        BYTE   W01
        BYTE                   c_v+17
        BYTE   W02
        BYTE                   c_v+15
        BYTE           N12     As4
        BYTE   W01
        BYTE           PAN     c_v+13
        BYTE   W02
        BYTE                   c_v+11
        BYTE   W01
        BYTE                   c_v+9
        BYTE   W02
        BYTE                   c_v+7
        BYTE   W01
        BYTE                   c_v+5
        BYTE   W02
        BYTE                   c_v+3
        BYTE   W01
        BYTE                   c_v+1
        BYTE   W02
// 043   ----------------------------------------
        BYTE                   c_v-1
        BYTE           N12     As2
        BYTE   W01
        BYTE           PAN     c_v-3
        BYTE   W02
        BYTE                   c_v-5
        BYTE   W01
        BYTE                   c_v-7
        BYTE   W02
        BYTE           VOL     25
        BYTE           PAN     c_v-9
        BYTE   W01
        BYTE                   c_v-11
        BYTE   W02
        BYTE                   c_v-13
        BYTE   W01
        BYTE                   c_v-15
        BYTE   W02
        BYTE                   c_v-17
        BYTE           N12     Ds3
        BYTE   W01
        BYTE           PAN     c_v-19
        BYTE   W02
        BYTE                   c_v-21
        BYTE   W01
        BYTE                   c_v-23
        BYTE   W02
        BYTE                   c_v-25
        BYTE   W01
        BYTE                   c_v-27
        BYTE   W03
        BYTE                   c_v-29
        BYTE   W02
        BYTE                   c_v-33
        BYTE           VOL     24
        BYTE           N12     Fs3
        BYTE   W01
        BYTE           PAN     c_v-31
        BYTE   W02
        BYTE                   c_v-29
        BYTE   W01
        BYTE                   c_v-27
        BYTE   W02
        BYTE                   c_v-25
        BYTE   W03
        BYTE                   c_v-21
        BYTE   W01
        BYTE                   c_v-19
        BYTE   W02
        BYTE           VOL     23
        BYTE           PAN     c_v-17
        BYTE           N12     As3
        BYTE   W01
        BYTE           PAN     c_v-15
        BYTE   W02
        BYTE                   c_v-13
        BYTE   W01
        BYTE                   c_v-11
        BYTE   W02
        BYTE                   c_v-9
        BYTE           VOL     22
        BYTE   W01
        BYTE           PAN     c_v-7
        BYTE   W02
        BYTE                   c_v-5
        BYTE   W01
        BYTE                   c_v-3
        BYTE   W02
        BYTE                   c_v-1
        BYTE           N12     As2
        BYTE   W01
        BYTE           PAN     c_v+1
        BYTE   W02
        BYTE                   c_v+3
        BYTE   W01
        BYTE                   c_v+5
        BYTE   W02
        BYTE                   c_v+7
        BYTE           VOL     21
        BYTE   W01
        BYTE           PAN     c_v+9
        BYTE   W02
        BYTE                   c_v+11
        BYTE   W01
        BYTE                   c_v+13
        BYTE   W02
        BYTE           VOL     20
        BYTE           PAN     c_v+15
        BYTE           N12     Cs3
        BYTE   W01
        BYTE           PAN     c_v+17
        BYTE   W02
        BYTE                   c_v+19
        BYTE   W01
        BYTE                   c_v+21
        BYTE   W02
        BYTE                   c_v+23
        BYTE   W01
        BYTE                   c_v+25
        BYTE   W02
        BYTE                   c_v+27
        BYTE   W01
        BYTE                   c_v+29
        BYTE   W02
        BYTE                   c_v+31
        BYTE           N12     Fn3
        BYTE   W01
        BYTE           PAN     c_v+29
        BYTE   W02
        BYTE                   c_v+27
        BYTE   W01
        BYTE                   c_v+25
        BYTE   W02
        BYTE                   c_v+23
        BYTE           VOL     19
        BYTE   W01
        BYTE           PAN     c_v+21
        BYTE   W02
        BYTE                   c_v+19
        BYTE   W01
        BYTE                   c_v+17
        BYTE   W02
        BYTE                   c_v+15
        BYTE           N12     As3
        BYTE   W01
        BYTE           PAN     c_v+13
        BYTE   W02
        BYTE                   c_v+11
        BYTE   W01
        BYTE                   c_v+9
        BYTE   W02
        BYTE           VOL     18
        BYTE           PAN     c_v+7
        BYTE   W01
        BYTE                   c_v+5
        BYTE   W02
        BYTE                   c_v+3
        BYTE   W01
        BYTE                   c_v+1
        BYTE   W02
// 044   ----------------------------------------
        BYTE           VOL     17
        BYTE           PAN     c_v-1
        BYTE           N12     As2
        BYTE   W01
        BYTE           PAN     c_v-3
        BYTE   W02
        BYTE                   c_v-5
        BYTE   W01
        BYTE                   c_v-7
        BYTE   W02
        BYTE                   c_v-9
        BYTE   W01
        BYTE                   c_v-11
        BYTE   W02
        BYTE                   c_v-13
        BYTE   W01
        BYTE                   c_v-15
        BYTE   W02
        BYTE           VOL     16
        BYTE           PAN     c_v-17
        BYTE           N12     Ds3
        BYTE   W01
        BYTE           PAN     c_v-19
        BYTE   W02
        BYTE                   c_v-21
        BYTE   W01
        BYTE                   c_v-23
        BYTE   W02
        BYTE                   c_v-25
        BYTE   W01
        BYTE                   c_v-27
        BYTE   W03
        BYTE                   c_v-29
        BYTE   W02
        BYTE                   c_v-33
        BYTE           N12     Fs3
        BYTE   W01
        BYTE           PAN     c_v-31
        BYTE   W02
        BYTE                   c_v-29
        BYTE   W01
        BYTE                   c_v-27
        BYTE   W02
        BYTE           VOL     15
        BYTE           PAN     c_v-25
        BYTE   W03
        BYTE                   c_v-21
        BYTE   W01
        BYTE                   c_v-19
        BYTE   W02
        BYTE                   c_v-17
        BYTE           VOL     14
        BYTE           N12     As3
        BYTE   W01
        BYTE           PAN     c_v-15
        BYTE   W02
        BYTE                   c_v-13
        BYTE   W01
        BYTE                   c_v-11
        BYTE   W02
        BYTE                   c_v-9
        BYTE   W01
        BYTE                   c_v-7
        BYTE   W02
        BYTE                   c_v-5
        BYTE   W01
        BYTE                   c_v-3
        BYTE   W02
        BYTE           VOL     13
        BYTE           PAN     c_v-1
        BYTE           N12     As2
        BYTE   W01
        BYTE           PAN     c_v+1
        BYTE   W02
        BYTE                   c_v+3
        BYTE   W01
        BYTE                   c_v+5
        BYTE   W02
        BYTE                   c_v+7
        BYTE           VOL     12
        BYTE   W01
        BYTE           PAN     c_v+9
        BYTE   W02
        BYTE                   c_v+11
        BYTE   W01
        BYTE                   c_v+13
        BYTE   W02
        BYTE                   c_v+15
        BYTE           N12     Dn3
        BYTE   W01
        BYTE           PAN     c_v+17
        BYTE   W02
        BYTE                   c_v+19
        BYTE   W01
        BYTE                   c_v+21
        BYTE   W02
        BYTE                   c_v+23
        BYTE   W01
        BYTE                   c_v+25
        BYTE   W02
        BYTE                   c_v+27
        BYTE   W01
        BYTE                   c_v+29
        BYTE   W02
        BYTE           VOL     11
        BYTE           PAN     c_v+31
        BYTE           N12     Fn3
        BYTE   W01
        BYTE           PAN     c_v+29
        BYTE   W02
        BYTE                   c_v+27
        BYTE   W01
        BYTE                   c_v+25
        BYTE   W02
        BYTE                   c_v+23
        BYTE   W01
        BYTE                   c_v+21
        BYTE   W02
        BYTE                   c_v+19
        BYTE   W01
        BYTE                   c_v+17
        BYTE   W02
        BYTE                   c_v+15
        BYTE           VOL     10
        BYTE           N12     Gs3
        BYTE   W01
        BYTE           PAN     c_v+13
        BYTE   W02
        BYTE                   c_v+11
        BYTE   W01
        BYTE                   c_v+9
        BYTE   W02
        BYTE                   c_v+7
        BYTE           VOL     9
        BYTE   W01
        BYTE           PAN     c_v+5
        BYTE   W02
        BYTE                   c_v+3
        BYTE   W01
        BYTE                   c_v+1
        BYTE   W02
// 045   ----------------------------------------
        BYTE                   c_v-1
        BYTE           N12     Bn2
        BYTE   W01
        BYTE           PAN     c_v-3
        BYTE   W02
        BYTE                   c_v-5
        BYTE   W01
        BYTE                   c_v-7
        BYTE   W02
        BYTE           VOL     8
        BYTE           PAN     c_v-9
        BYTE   W01
        BYTE                   c_v-11
        BYTE   W02
        BYTE                   c_v-13
        BYTE   W01
        BYTE                   c_v-15
        BYTE   W02
        BYTE                   c_v-17
        BYTE           N12     Ds3
        BYTE   W01
        BYTE           PAN     c_v-19
        BYTE   W02
        BYTE                   c_v-21
        BYTE   W01
        BYTE                   c_v-23
        BYTE   W02
        BYTE                   c_v-25
        BYTE   W01
        BYTE                   c_v-27
        BYTE   W03
        BYTE                   c_v-29
        BYTE   W02
        BYTE           VOL     7
        BYTE           PAN     c_v-33
        BYTE           N12     Fs3
        BYTE   W01
        BYTE           PAN     c_v-31
        BYTE   W02
        BYTE                   c_v-29
        BYTE   W01
        BYTE                   c_v-27
        BYTE   W02
        BYTE                   c_v-25
        BYTE           VOL     6
        BYTE   W03
        BYTE           PAN     c_v-21
        BYTE   W01
        BYTE                   c_v-19
        BYTE   W02
        BYTE                   c_v-17
        BYTE           N12     Bn3
        BYTE   W01
        BYTE           PAN     c_v-15
        BYTE   W02
        BYTE                   c_v-13
        BYTE   W01
        BYTE                   c_v-11
        BYTE   W02
        BYTE                   c_v-9
        BYTE           VOL     5
        BYTE   W01
        BYTE           PAN     c_v-7
        BYTE   W02
        BYTE                   c_v-5
        BYTE   W01
        BYTE                   c_v-3
        BYTE   W02
        BYTE                   c_v-1
        BYTE           VOL     4
        BYTE           N12     Cs3
        BYTE   W01
        BYTE           PAN     c_v+1
        BYTE   W02
        BYTE                   c_v+3
        BYTE   W01
        BYTE                   c_v+5
        BYTE   W02
        BYTE                   c_v+7
        BYTE   W01
        BYTE                   c_v+9
        BYTE   W02
        BYTE                   c_v+11
        BYTE   W01
        BYTE                   c_v+13
        BYTE   W02
        BYTE                   c_v+15
        BYTE           N12     Fn3
        BYTE   W01
        BYTE           PAN     c_v+17
        BYTE   W02
        BYTE                   c_v+19
        BYTE   W01
        BYTE                   c_v+21
        BYTE   W02
        BYTE           VOL     3
        BYTE           PAN     c_v+23
        BYTE   W01
        BYTE                   c_v+25
        BYTE   W02
        BYTE                   c_v+27
        BYTE   W01
        BYTE                   c_v+29
        BYTE   W02
        BYTE                   c_v+31
        BYTE           N12     Gs3
        BYTE   W01
        BYTE           PAN     c_v+29
        BYTE   W02
        BYTE                   c_v+27
        BYTE   W01
        BYTE                   c_v+25
        BYTE   W02
        BYTE           VOL     2
        BYTE           PAN     c_v+23
        BYTE   W01
        BYTE                   c_v+21
        BYTE   W02
        BYTE                   c_v+19
        BYTE   W01
        BYTE                   c_v+17
        BYTE   W02
        BYTE                   c_v+15
        BYTE           VOL     1
        BYTE           N12     Cs4
        BYTE   W01
        BYTE           PAN     c_v+13
        BYTE   W02
        BYTE                   c_v+11
        BYTE   W01
        BYTE                   c_v+9
        BYTE   W02
        BYTE                   c_v+7
        BYTE   W01
        BYTE                   c_v+5
        BYTE   W02
        BYTE                   c_v+3
        BYTE   W01
        BYTE                   c_v+1
        BYTE   W02
// 046   ----------------------------------------
        BYTE                   c_v-1
        BYTE           VOL     0
        BYTE           N12     Fs2
        BYTE   W01
        BYTE           PAN     c_v-3
        BYTE   W02
        BYTE                   c_v-5
        BYTE   W01
        BYTE                   c_v-7
        BYTE   W02
        BYTE                   c_v-9
        BYTE   W01
        BYTE                   c_v-11
        BYTE   W02
        BYTE                   c_v-13
        BYTE   W01
        BYTE                   c_v-15
        BYTE   W02
        BYTE                   c_v-17
        BYTE           N12     As2
        BYTE   W01
        BYTE           PAN     c_v-19
        BYTE   W02
        BYTE                   c_v-21
        BYTE   W01
        BYTE                   c_v-23
        BYTE   W02
        BYTE                   c_v-25
        BYTE   W01
        BYTE                   c_v-27
        BYTE   W03
        BYTE                   c_v-29
        BYTE   W02
        BYTE                   c_v-33
        BYTE           N12     Cs3
        BYTE   W01
        BYTE           PAN     c_v-31
        BYTE   W02
        BYTE                   c_v-29
        BYTE   W01
        BYTE                   c_v-27
        BYTE   W02
        BYTE                   c_v-25
        BYTE   W03
        BYTE                   c_v-21
        BYTE   W01
        BYTE                   c_v-19
        BYTE   W02
        BYTE                   c_v-17
        BYTE           N12     Fs3
        BYTE   W01
        BYTE           PAN     c_v-15
        BYTE   W02
        BYTE                   c_v-13
        BYTE   W01
        BYTE                   c_v-11
        BYTE   W02
        BYTE                   c_v-9
        BYTE   W01
        BYTE                   c_v-7
        BYTE   W02
        BYTE                   c_v-5
        BYTE   W01
        BYTE                   c_v-3
        BYTE   W02
        BYTE                   c_v-1
        BYTE           N12     Fn2
        BYTE   W01
        BYTE           PAN     c_v+1
        BYTE   W02
        BYTE                   c_v+3
        BYTE   W01
        BYTE                   c_v+5
        BYTE   W02
        BYTE                   c_v+7
        BYTE   W01
        BYTE                   c_v+9
        BYTE   W02
        BYTE                   c_v+11
        BYTE   W01
        BYTE                   c_v+13
        BYTE   W02
        BYTE                   c_v+15
        BYTE           N12     As2
        BYTE   W01
        BYTE           PAN     c_v+17
        BYTE   W02
        BYTE                   c_v+19
        BYTE   W01
        BYTE                   c_v+21
        BYTE   W02
        BYTE                   c_v+23
        BYTE   W01
        BYTE                   c_v+25
        BYTE   W02
        BYTE                   c_v+27
        BYTE   W01
        BYTE                   c_v+29
        BYTE   W02
        BYTE                   c_v+31
        BYTE           N12     Dn3
        BYTE   W01
        BYTE           PAN     c_v+29
        BYTE   W02
        BYTE                   c_v+27
        BYTE   W01
        BYTE                   c_v+25
        BYTE   W02
        BYTE                   c_v+23
        BYTE   W01
        BYTE                   c_v+21
        BYTE   W02
        BYTE                   c_v+19
        BYTE   W01
        BYTE                   c_v+17
        BYTE   W02
        BYTE                   c_v+15
        BYTE   W01
        BYTE                   c_v+13
        BYTE   W02
        BYTE                   c_v+11
        BYTE   W01
        BYTE                   c_v+9
        BYTE   W02
        BYTE                   c_v+7
        BYTE   W01
        BYTE                   c_v+5
        BYTE   W02
        BYTE                   c_v+3
        BYTE   W01
        BYTE                   c_v+1
        BYTE   FINE

//****************** Track 5 (Midi-Chn.5) ******************//

crimeoftheheart0_5:
        BYTE   KEYSH   crimeoftheheart0_key+0
// 000   ----------------------------------------
        BYTE           VOICE   45
        BYTE           VOL     26
        BYTE   W60
crimeoftheheart0_5_LOOP:
        BYTE   W36
// 001   ----------------------------------------
        BYTE   W96
// 002   ----------------------------------------
        BYTE   W96
// 003   ----------------------------------------
        BYTE   W96
// 004   ----------------------------------------
        BYTE   W96
// 005   ----------------------------------------
        BYTE   W96
// 006   ----------------------------------------
        BYTE   W96
// 007   ----------------------------------------
        BYTE   W96
// 008   ----------------------------------------
        BYTE   W96
// 009   ----------------------------------------
        BYTE   W96
// 010   ----------------------------------------
        BYTE           PAN     c_v-43
        BYTE           N72     Cs3   v100
        BYTE   W72
        BYTE           N12     Bn2
        BYTE   W12
        BYTE                   As2
        BYTE   W12
// 011   ----------------------------------------
crimeoftheheart0_5_11:
        BYTE           N60     Gs2   v100
        BYTE   W60
        BYTE           N12     As2
        BYTE   W12
        BYTE                   Bn2
        BYTE   W12
        BYTE                   Cs3
        BYTE   W12
        BYTE   PEND
// 012   ----------------------------------------
crimeoftheheart0_5_12:
        BYTE           N48     Ds3   v100
        BYTE   W48
        BYTE           N24     Fs3
        BYTE   W24
        BYTE           N12     Fn3
        BYTE   W12
        BYTE                   Ds3
        BYTE   W12
        BYTE   PEND
// 013   ----------------------------------------
crimeoftheheart0_5_13:
        BYTE           N48     Fn3   v100
        BYTE   W48
        BYTE           N12     Ds3
        BYTE   W12
        BYTE                   Cs3
        BYTE   W12
        BYTE                   Bn2
        BYTE   W12
        BYTE                   As2
        BYTE   W12
        BYTE   PEND
// 014   ----------------------------------------
crimeoftheheart0_5_14:
        BYTE           N24     Bn2   v100
        BYTE   W24
        BYTE                   Cs3
        BYTE   W24
        BYTE                   Ds3
        BYTE   W24
        BYTE                   Fs3
        BYTE   W24
        BYTE   PEND
// 015   ----------------------------------------
crimeoftheheart0_5_15:
        BYTE           N24     Fn3   v100
        BYTE   W24
        BYTE                   Gs3
        BYTE   W24
        BYTE                   Fn3
        BYTE   W24
        BYTE           N12     Ds3
        BYTE   W12
        BYTE                   Cs3
        BYTE   W12
        BYTE   PEND
// 016   ----------------------------------------
crimeoftheheart0_5_16:
        BYTE           N60     Bn2   v100
        BYTE   W60
        BYTE           N24     As2
        BYTE   W24
        BYTE           N12     Cs3
        BYTE   W12
        BYTE   PEND
// 017   ----------------------------------------
crimeoftheheart0_5_17:
        BYTE           N48     Ds3   v100
        BYTE   W48
        BYTE                   Dn3
        BYTE   W48
        BYTE   PEND
// 018   ----------------------------------------
crimeoftheheart0_5_18:
        BYTE           N48     As2   v100
        BYTE   W48
        BYTE                   Cs3
        BYTE   W48
        BYTE   PEND
// 019   ----------------------------------------
crimeoftheheart0_5_19:
        BYTE           N60     As2   v100
        BYTE   W60
        BYTE           N12
        BYTE   W12
        BYTE                   Bn2
        BYTE   W12
        BYTE                   Cs3
        BYTE   W12
        BYTE   PEND
// 020   ----------------------------------------
crimeoftheheart0_5_20:
        BYTE           N48     Ds3   v100
        BYTE   W48
        BYTE                   Fn3
        BYTE   W48
        BYTE   PEND
// 021   ----------------------------------------
crimeoftheheart0_5_21:
        BYTE           N48     Cs3   v100
        BYTE   W48
        BYTE                   Dn3
        BYTE   W48
        BYTE   PEND
// 022   ----------------------------------------
crimeoftheheart0_5_22:
        BYTE           N48     Ds3   v100
        BYTE   W48
        BYTE           N24     Fn3
        BYTE   W24
        BYTE                   Cs3
        BYTE   W24
        BYTE   PEND
// 023   ----------------------------------------
crimeoftheheart0_5_23:
        BYTE           N48     Fs2   v100
        BYTE   W48
        BYTE                   Gs2
        BYTE   W48
        BYTE   PEND
// 024   ----------------------------------------
        BYTE   PATT
         POIN2  crimeoftheheart0_5_23
// 025   ----------------------------------------
        BYTE           TIE     As2   v100
        BYTE   W96
// 026   ----------------------------------------
crimeoftheheart0_5_26:
        BYTE   W01
        BYTE           VOL     25
        BYTE   W03
        BYTE                   24
        BYTE   W05
        BYTE                   23
        BYTE   W03
        BYTE                   22
        BYTE   W03
        BYTE                   21
        BYTE   W04
        BYTE                   20
        BYTE   W03
        BYTE                   19
        BYTE   W05
        BYTE                   18
        BYTE   W03
        BYTE                   17
        BYTE   W04
        BYTE                   16
        BYTE   W03
        BYTE                   15
        BYTE   W05
        BYTE                   14
        BYTE   W03
        BYTE                   13
        BYTE   W03
        BYTE                   12
        BYTE   W04
        BYTE                   11
        BYTE   W03
        BYTE                   10
        BYTE   W05
        BYTE                   9
        BYTE   W03
        BYTE                   8
        BYTE   W04
        BYTE                   7
        BYTE   W03
        BYTE                   6
        BYTE   W03
        BYTE                   5
        BYTE   W03
        BYTE                   4
        BYTE   W03
        BYTE                   3
        BYTE   W05
        BYTE                   2
        BYTE   W03
        BYTE                   1
        BYTE   W04
        BYTE                   0
        BYTE   W05
        BYTE   PEND
// 027   ----------------------------------------
        BYTE           EOT     As2
        BYTE           VOL     26
        BYTE           N72     Cs3   v100
        BYTE   W72
        BYTE           N12     Bn2
        BYTE   W12
        BYTE                   As2
        BYTE   W12
// 028   ----------------------------------------
        BYTE   PATT
         POIN2  crimeoftheheart0_5_11
// 029   ----------------------------------------
        BYTE   PATT
         POIN2  crimeoftheheart0_5_12
// 030   ----------------------------------------
        BYTE   PATT
         POIN2  crimeoftheheart0_5_13
// 031   ----------------------------------------
        BYTE   PATT
         POIN2  crimeoftheheart0_5_14
// 032   ----------------------------------------
        BYTE   PATT
         POIN2  crimeoftheheart0_5_15
// 033   ----------------------------------------
        BYTE   PATT
         POIN2  crimeoftheheart0_5_16
// 034   ----------------------------------------
        BYTE   PATT
         POIN2  crimeoftheheart0_5_17
// 035   ----------------------------------------
        BYTE   PATT
         POIN2  crimeoftheheart0_5_18
// 036   ----------------------------------------
        BYTE   PATT
         POIN2  crimeoftheheart0_5_19
// 037   ----------------------------------------
        BYTE   PATT
         POIN2  crimeoftheheart0_5_20
// 038   ----------------------------------------
        BYTE   PATT
         POIN2  crimeoftheheart0_5_21
// 039   ----------------------------------------
        BYTE   PATT
         POIN2  crimeoftheheart0_5_22
// 040   ----------------------------------------
        BYTE   PATT
         POIN2  crimeoftheheart0_5_23
// 041   ----------------------------------------
        BYTE   PATT
         POIN2  crimeoftheheart0_5_23
// 042   ----------------------------------------
        BYTE           N96     As2   v100
        BYTE   W01
        BYTE           VOL     25
        BYTE   W03
        BYTE                   24
        BYTE   W05
        BYTE                   23
        BYTE   W03
        BYTE                   22
        BYTE   W03
        BYTE                   21
        BYTE   W04
        BYTE                   20
        BYTE   W03
        BYTE                   19
        BYTE   W05
        BYTE                   18
        BYTE   W03
        BYTE                   17
        BYTE   W04
        BYTE                   16
        BYTE   W03
        BYTE                   15
        BYTE   W05
        BYTE                   14
        BYTE   W03
        BYTE                   13
        BYTE   W03
        BYTE                   12
        BYTE   W04
        BYTE                   11
        BYTE   W03
        BYTE                   10
        BYTE   W05
        BYTE                   26
        BYTE           PAN     c_v+0
        BYTE   GoTo
         POIN2  crimeoftheheart0_5_LOOP
        BYTE   W01
        BYTE           VOL     9
        BYTE   W02
        BYTE                   8
        BYTE   W04
        BYTE                   7
        BYTE   W03
        BYTE                   6
        BYTE   W03
        BYTE                   5
        BYTE   W03
        BYTE                   4
        BYTE   W03
        BYTE                   3
        BYTE   W05
        BYTE                   2
        BYTE   W03
        BYTE                   1
        BYTE   W04
        BYTE                   0
        BYTE   W05
// 043   ----------------------------------------
        BYTE   W96
// 044   ----------------------------------------
        BYTE   W96
// 045   ----------------------------------------
        BYTE   W96
// 046   ----------------------------------------
        BYTE   W92
        BYTE   W02
        BYTE   FINE

//****************** Track 6 (Midi-Chn.6) ******************//

crimeoftheheart0_6:
        BYTE   KEYSH   crimeoftheheart0_key+0
// 000   ----------------------------------------
        BYTE           VOICE   45
        BYTE           VOL     26
        BYTE   W60
crimeoftheheart0_6_LOOP:
        BYTE   W36
// 001   ----------------------------------------
        BYTE   W96
// 002   ----------------------------------------
        BYTE   W96
// 003   ----------------------------------------
        BYTE   W96
// 004   ----------------------------------------
        BYTE   W96
// 005   ----------------------------------------
        BYTE   W96
// 006   ----------------------------------------
        BYTE   W96
// 007   ----------------------------------------
        BYTE   W96
// 008   ----------------------------------------
        BYTE   W96
// 009   ----------------------------------------
        BYTE   W96
// 010   ----------------------------------------
        BYTE           PAN     c_v+41
        BYTE           N72     Fs3   v100
        BYTE   W72
        BYTE           N12     Gs3
        BYTE   W12
        BYTE                   As3
        BYTE   W12
// 011   ----------------------------------------
crimeoftheheart0_6_11:
        BYTE           N60     Fn3   v100
        BYTE   W60
        BYTE           N12
        BYTE   W12
        BYTE                   Fs3
        BYTE   W12
        BYTE                   Gs3
        BYTE   W12
        BYTE   PEND
// 012   ----------------------------------------
crimeoftheheart0_6_12:
        BYTE           N48     As3   v100
        BYTE   W48
        BYTE           N24
        BYTE   W24
        BYTE           N12     Gs3
        BYTE   W12
        BYTE                   Fs3
        BYTE   W12
        BYTE   PEND
// 013   ----------------------------------------
crimeoftheheart0_6_13:
        BYTE           N48     Gs3   v100
        BYTE   W48
        BYTE           N12     Fs3
        BYTE   W12
        BYTE                   Fn3
        BYTE   W12
        BYTE                   Ds3
        BYTE   W12
        BYTE                   Cs3
        BYTE   W12
        BYTE   PEND
// 014   ----------------------------------------
crimeoftheheart0_6_14:
        BYTE           N24     Ds3   v100
        BYTE   W24
        BYTE                   Fn3
        BYTE   W24
        BYTE                   Fs3
        BYTE   W24
        BYTE                   As3
        BYTE   W24
        BYTE   PEND
// 015   ----------------------------------------
crimeoftheheart0_6_15:
        BYTE           N24     Gs3   v100
        BYTE   W24
        BYTE                   Cs4
        BYTE   W24
        BYTE                   Gs3
        BYTE   W24
        BYTE           N12     Fs3
        BYTE   W12
        BYTE                   Fn3
        BYTE   W12
        BYTE   PEND
// 016   ----------------------------------------
crimeoftheheart0_6_16:
        BYTE           N60     Ds3   v100
        BYTE   W60
        BYTE           N24     Dn3
        BYTE   W24
        BYTE           N12     Fn3
        BYTE   W12
        BYTE   PEND
// 017   ----------------------------------------
crimeoftheheart0_6_17:
        BYTE           N48     As3   v100
        BYTE   W48
        BYTE                   Fn3
        BYTE   W48
        BYTE   PEND
// 018   ----------------------------------------
crimeoftheheart0_6_18:
        BYTE           N48     Fs3   v100
        BYTE   W48
        BYTE           N24     Gs3
        BYTE   W24
        BYTE                   Fn3
        BYTE   W24
        BYTE   PEND
// 019   ----------------------------------------
crimeoftheheart0_6_19:
        BYTE           N24     Fs3   v100
        BYTE   W24
        BYTE           N36     As2
        BYTE   W36
        BYTE           N12     Cs3
        BYTE   W12
        BYTE                   Ds3
        BYTE   W12
        BYTE                   Fn3
        BYTE   W12
        BYTE   PEND
// 020   ----------------------------------------
crimeoftheheart0_6_20:
        BYTE           N48     Fs3   v100
        BYTE   W48
        BYTE                   Gs3
        BYTE   W48
        BYTE   PEND
// 021   ----------------------------------------
crimeoftheheart0_6_21:
        BYTE           N48     As3   v100
        BYTE   W48
        BYTE                   Gs3
        BYTE   W48
        BYTE   PEND
// 022   ----------------------------------------
        BYTE   PATT
         POIN2  crimeoftheheart0_6_18
// 023   ----------------------------------------
        BYTE   PATT
         POIN2  crimeoftheheart0_5_20
// 024   ----------------------------------------
        BYTE   PATT
         POIN2  crimeoftheheart0_5_20
// 025   ----------------------------------------
        BYTE           TIE     Fs3   v100
        BYTE   W96
// 026   ----------------------------------------
        BYTE   PATT
         POIN2  crimeoftheheart0_5_26
// 027   ----------------------------------------
        BYTE           EOT     Fs3
        BYTE           VOL     26
        BYTE           N72     Fs3   v100
        BYTE   W72
        BYTE           N12     Gs3
        BYTE   W12
        BYTE                   As3
        BYTE   W12
// 028   ----------------------------------------
        BYTE   PATT
         POIN2  crimeoftheheart0_6_11
// 029   ----------------------------------------
        BYTE   PATT
         POIN2  crimeoftheheart0_6_12
// 030   ----------------------------------------
        BYTE   PATT
         POIN2  crimeoftheheart0_6_13
// 031   ----------------------------------------
        BYTE   PATT
         POIN2  crimeoftheheart0_6_14
// 032   ----------------------------------------
        BYTE   PATT
         POIN2  crimeoftheheart0_6_15
// 033   ----------------------------------------
        BYTE   PATT
         POIN2  crimeoftheheart0_6_16
// 034   ----------------------------------------
        BYTE   PATT
         POIN2  crimeoftheheart0_6_17
// 035   ----------------------------------------
        BYTE   PATT
         POIN2  crimeoftheheart0_6_18
// 036   ----------------------------------------
        BYTE   PATT
         POIN2  crimeoftheheart0_6_19
// 037   ----------------------------------------
        BYTE   PATT
         POIN2  crimeoftheheart0_6_20
// 038   ----------------------------------------
        BYTE   PATT
         POIN2  crimeoftheheart0_6_21
// 039   ----------------------------------------
        BYTE   PATT
         POIN2  crimeoftheheart0_6_18
// 040   ----------------------------------------
        BYTE   PATT
         POIN2  crimeoftheheart0_5_20
// 041   ----------------------------------------
        BYTE   PATT
         POIN2  crimeoftheheart0_5_20
// 042   ----------------------------------------
        BYTE           N96     Fs3   v100
        BYTE   W01
        BYTE           VOL     25
        BYTE   W03
        BYTE                   24
        BYTE   W05
        BYTE                   23
        BYTE   W03
        BYTE                   22
        BYTE   W03
        BYTE                   21
        BYTE   W04
        BYTE                   20
        BYTE   W03
        BYTE                   19
        BYTE   W05
        BYTE                   18
        BYTE   W03
        BYTE                   17
        BYTE   W04
        BYTE                   16
        BYTE   W03
        BYTE                   15
        BYTE   W05
        BYTE                   14
        BYTE   W03
        BYTE                   13
        BYTE   W03
        BYTE                   12
        BYTE   W04
        BYTE                   11
        BYTE   W03
        BYTE                   10
        BYTE   W05
        BYTE                   26
        BYTE           PAN     c_v+0
        BYTE   GoTo
         POIN2  crimeoftheheart0_6_LOOP
        BYTE   W01
        BYTE           VOL     9
        BYTE   W02
        BYTE                   8
        BYTE   W04
        BYTE                   7
        BYTE   W03
        BYTE                   6
        BYTE   W03
        BYTE                   5
        BYTE   W03
        BYTE                   4
        BYTE   W03
        BYTE                   3
        BYTE   W05
        BYTE                   2
        BYTE   W03
        BYTE                   1
        BYTE   W04
        BYTE                   0
        BYTE   W05
// 043   ----------------------------------------
        BYTE   W96
// 044   ----------------------------------------
        BYTE   W96
// 045   ----------------------------------------
        BYTE   W96
// 046   ----------------------------------------
        BYTE   W92
        BYTE   W02
        BYTE   FINE

//****************** Track 7 (Midi-Chn.8) ******************//

crimeoftheheart0_7:
        BYTE   KEYSH   crimeoftheheart0_key+0
// 000   ----------------------------------------
        BYTE           VOICE   33
        BYTE           VOL     26
        BYTE   W60
crimeoftheheart0_7_LOOP:
        BYTE   W36
// 001   ----------------------------------------
        BYTE   W96
// 002   ----------------------------------------
        BYTE   W96
// 003   ----------------------------------------
        BYTE   W96
// 004   ----------------------------------------
        BYTE   W96
// 005   ----------------------------------------
        BYTE   W96
// 006   ----------------------------------------
        BYTE   W96
// 007   ----------------------------------------
        BYTE   W96
// 008   ----------------------------------------
        BYTE   W96
// 009   ----------------------------------------
        BYTE   W96
// 010   ----------------------------------------
        BYTE           N96     Fs1   v100
        BYTE   W96
// 011   ----------------------------------------
        BYTE                   Cs2
        BYTE   W96
// 012   ----------------------------------------
        BYTE                   Ds2
        BYTE   W96
// 013   ----------------------------------------
        BYTE                   Cs2
        BYTE   W96
// 014   ----------------------------------------
        BYTE                   Bn1
        BYTE   W96
// 015   ----------------------------------------
        BYTE                   Cs2
        BYTE   W96
// 016   ----------------------------------------
        BYTE                   Gs1
        BYTE   W96
// 017   ----------------------------------------
        BYTE                   As1
        BYTE   W96
// 018   ----------------------------------------
crimeoftheheart0_7_18:
        BYTE           N48     Ds1   v100
        BYTE   W48
        BYTE                   As1
        BYTE   W48
        BYTE   PEND
// 019   ----------------------------------------
        BYTE   PATT
         POIN2  crimeoftheheart0_7_18
// 020   ----------------------------------------
crimeoftheheart0_7_20:
        BYTE           N48     Bn1   v100
        BYTE   W48
        BYTE                   Cs2
        BYTE   W48
        BYTE   PEND
// 021   ----------------------------------------
crimeoftheheart0_7_21:
        BYTE           N48     Fs1   v100
        BYTE   W48
        BYTE                   As1
        BYTE   W48
        BYTE   PEND
// 022   ----------------------------------------
        BYTE   PATT
         POIN2  crimeoftheheart0_7_20
// 023   ----------------------------------------
        BYTE   PATT
         POIN2  crimeoftheheart0_7_20
// 024   ----------------------------------------
        BYTE   PATT
         POIN2  crimeoftheheart0_7_20
// 025   ----------------------------------------
        BYTE           TIE     Ds1   v100
        BYTE   W96
// 026   ----------------------------------------
        BYTE   W96
// 027   ----------------------------------------
        BYTE           EOT
        BYTE           N96     Fs1
        BYTE   W96
// 028   ----------------------------------------
        BYTE                   Cs2
        BYTE   W96
// 029   ----------------------------------------
        BYTE                   Ds2
        BYTE   W96
// 030   ----------------------------------------
        BYTE                   Cs2
        BYTE   W96
// 031   ----------------------------------------
        BYTE                   Bn1
        BYTE   W96
// 032   ----------------------------------------
        BYTE                   Cs2
        BYTE   W96
// 033   ----------------------------------------
        BYTE                   Gs1
        BYTE   W96
// 034   ----------------------------------------
        BYTE                   As1
        BYTE   W96
// 035   ----------------------------------------
        BYTE   PATT
         POIN2  crimeoftheheart0_7_18
// 036   ----------------------------------------
        BYTE   PATT
         POIN2  crimeoftheheart0_7_18
// 037   ----------------------------------------
        BYTE   PATT
         POIN2  crimeoftheheart0_7_20
// 038   ----------------------------------------
        BYTE   PATT
         POIN2  crimeoftheheart0_7_21
// 039   ----------------------------------------
        BYTE   PATT
         POIN2  crimeoftheheart0_7_20
// 040   ----------------------------------------
        BYTE   PATT
         POIN2  crimeoftheheart0_7_20
// 041   ----------------------------------------
        BYTE   PATT
         POIN2  crimeoftheheart0_7_20
// 042   ----------------------------------------
        BYTE           N96     Ds1   v100
        BYTE   W01
        BYTE           VOL     25
        BYTE   W03
        BYTE                   24
        BYTE   W05
        BYTE                   23
        BYTE   W03
        BYTE                   22
        BYTE   W03
        BYTE                   21
        BYTE   W04
        BYTE                   20
        BYTE   W03
        BYTE                   19
        BYTE   W05
        BYTE                   18
        BYTE   W03
        BYTE                   17
        BYTE   W04
        BYTE                   16
        BYTE   W03
        BYTE                   15
        BYTE   W05
        BYTE                   14
        BYTE   W03
        BYTE                   13
        BYTE   W03
        BYTE                   12
        BYTE   W04
        BYTE                   11
        BYTE   W03
        BYTE                   10
        BYTE   W05
        BYTE                   26
        BYTE   GoTo
         POIN2  crimeoftheheart0_7_LOOP
        BYTE   W01
        BYTE                   9
        BYTE   W02
        BYTE                   8
        BYTE   W04
        BYTE                   7
        BYTE   W03
        BYTE                   6
        BYTE   W03
        BYTE                   5
        BYTE   W03
        BYTE                   4
        BYTE   W03
        BYTE                   3
        BYTE   W05
        BYTE                   2
        BYTE   W03
        BYTE                   1
        BYTE   W04
        BYTE                   0
        BYTE   W05
// 043   ----------------------------------------
        BYTE   W96
// 044   ----------------------------------------
        BYTE   W96
// 045   ----------------------------------------
        BYTE   W96
// 046   ----------------------------------------
        BYTE   W92
        BYTE   W02
        BYTE   FINE

//***************** Track 8 (Midi-Chn.10) ******************//

crimeoftheheart0_8:
        BYTE   KEYSH   crimeoftheheart0_key+0
// 000   ----------------------------------------
        BYTE           VOICE   47
        BYTE           VOL     26
        BYTE   W60
crimeoftheheart0_8_LOOP:
        BYTE   W36
// 001   ----------------------------------------
        BYTE   W96
// 002   ----------------------------------------
        BYTE   W96
// 003   ----------------------------------------
        BYTE   W96
// 004   ----------------------------------------
        BYTE   W96
// 005   ----------------------------------------
        BYTE   W96
// 006   ----------------------------------------
        BYTE   W96
// 007   ----------------------------------------
        BYTE   W96
// 008   ----------------------------------------
        BYTE   W96
// 009   ----------------------------------------
crimeoftheheart0_8_9:
        BYTE   W84
        BYTE           N03     Fs1   v120
        BYTE   W04
        BYTE                   Fs1
        BYTE   W04
        BYTE                   Fs1
        BYTE   W04
        BYTE   PEND
// 010   ----------------------------------------
        BYTE   W96
// 011   ----------------------------------------
        BYTE   W96
// 012   ----------------------------------------
        BYTE   W96
// 013   ----------------------------------------
        BYTE   W96
// 014   ----------------------------------------
        BYTE   W96
// 015   ----------------------------------------
        BYTE   W96
// 016   ----------------------------------------
        BYTE   W96
// 017   ----------------------------------------
crimeoftheheart0_8_17:
        BYTE           VOL     20
        BYTE           N02     As1   v120
        BYTE   W03
        BYTE                   As1
        BYTE   W03
        BYTE                   As1
        BYTE   W03
        BYTE                   As1
        BYTE   W03
        BYTE                   As1
        BYTE   W03
        BYTE                   As1
        BYTE   W03
        BYTE                   As1
        BYTE   W03
        BYTE                   As1
        BYTE   W03
        BYTE                   As1
        BYTE   W03
        BYTE                   As1
        BYTE   W03
        BYTE                   As1
        BYTE   W03
        BYTE                   As1
        BYTE   W03
        BYTE                   As1
        BYTE   W03
        BYTE                   As1
        BYTE   W03
        BYTE                   As1
        BYTE   W03
        BYTE                   As1
        BYTE   W03
        BYTE                   As1
        BYTE   W03
        BYTE                   As1
        BYTE   W03
        BYTE                   As1
        BYTE   W03
        BYTE                   As1
        BYTE   W03
        BYTE                   As1
        BYTE   W03
        BYTE                   As1
        BYTE   W03
        BYTE                   As1
        BYTE   W03
        BYTE                   As1
        BYTE   W03
        BYTE                   As1
        BYTE   W03
        BYTE                   As1
        BYTE   W03
        BYTE                   As1
        BYTE   W03
        BYTE                   As1
        BYTE   W03
        BYTE                   As1
        BYTE   W03
        BYTE                   As1
        BYTE   W03
        BYTE                   As1
        BYTE   W03
        BYTE                   As1
        BYTE   W03
        BYTE   PEND
// 018   ----------------------------------------
        BYTE           VOL     26
        BYTE   W96
// 019   ----------------------------------------
        BYTE   W96
// 020   ----------------------------------------
        BYTE   W96
// 021   ----------------------------------------
crimeoftheheart0_8_21:
        BYTE   W84
        BYTE           N04     As1   v120
        BYTE   W06
        BYTE                   As1
        BYTE   W06
        BYTE   PEND
// 022   ----------------------------------------
        BYTE   W96
// 023   ----------------------------------------
        BYTE   W96
// 024   ----------------------------------------
        BYTE   W96
// 025   ----------------------------------------
        BYTE   W96
// 026   ----------------------------------------
        BYTE   PATT
         POIN2  crimeoftheheart0_8_9
// 027   ----------------------------------------
        BYTE   W96
// 028   ----------------------------------------
        BYTE   W96
// 029   ----------------------------------------
        BYTE   W96
// 030   ----------------------------------------
        BYTE   W96
// 031   ----------------------------------------
        BYTE   W96
// 032   ----------------------------------------
        BYTE   W96
// 033   ----------------------------------------
        BYTE   W96
// 034   ----------------------------------------
        BYTE   PATT
         POIN2  crimeoftheheart0_8_17
// 035   ----------------------------------------
        BYTE           VOL     26
        BYTE   W96
// 036   ----------------------------------------
        BYTE   W96
// 037   ----------------------------------------
        BYTE   W96
// 038   ----------------------------------------
        BYTE   PATT
         POIN2  crimeoftheheart0_8_21
// 039   ----------------------------------------
        BYTE   W96
// 040   ----------------------------------------
        BYTE   W96
// 041   ----------------------------------------
        BYTE   W96
// 042   ----------------------------------------
        BYTE   W60
        BYTE   GoTo
         POIN2  crimeoftheheart0_8_LOOP
        BYTE   W36
// 043   ----------------------------------------
        BYTE   W96
// 044   ----------------------------------------
        BYTE   W96
// 045   ----------------------------------------
        BYTE   W96
// 046   ----------------------------------------
        BYTE   W92
        BYTE   W02
        BYTE   FINE

//***************** Track 9 (Midi-Chn.11) ******************//

crimeoftheheart0_9:
        BYTE   KEYSH   crimeoftheheart0_key+0
// 000   ----------------------------------------
        BYTE           VOICE   122
        BYTE           VOL     26
        BYTE   W60
crimeoftheheart0_9_LOOP:
        BYTE   W36
// 001   ----------------------------------------
        BYTE   W96
// 002   ----------------------------------------
        BYTE   W96
// 003   ----------------------------------------
        BYTE   W96
// 004   ----------------------------------------
        BYTE   W96
// 005   ----------------------------------------
        BYTE   W96
// 006   ----------------------------------------
        BYTE   W96
// 007   ----------------------------------------
        BYTE   W96
// 008   ----------------------------------------
        BYTE   W96
// 009   ----------------------------------------
        BYTE   W96
// 010   ----------------------------------------
        BYTE           VOL     33
        BYTE           N96     An2   v100
        BYTE           N96     Cs2
        BYTE   W96
// 011   ----------------------------------------
        BYTE   W96
// 012   ----------------------------------------
        BYTE   W96
// 013   ----------------------------------------
        BYTE   W96
// 014   ----------------------------------------
        BYTE   W96
// 015   ----------------------------------------
        BYTE   W96
// 016   ----------------------------------------
        BYTE   W96
// 017   ----------------------------------------
        BYTE   W96
// 018   ----------------------------------------
crimeoftheheart0_9_18:
        BYTE           N76     An2   v100
        BYTE           N76     Cs2
        BYTE   W96
        BYTE   PEND
// 019   ----------------------------------------
        BYTE   W96
// 020   ----------------------------------------
        BYTE   W96
// 021   ----------------------------------------
        BYTE   W96
// 022   ----------------------------------------
        BYTE   PATT
         POIN2  crimeoftheheart0_9_18
// 023   ----------------------------------------
        BYTE   W96
// 024   ----------------------------------------
crimeoftheheart0_9_24:
        BYTE           N36     Cs2   v100   gtp2
        BYTE                   An2
        BYTE   W48
        BYTE                   An2
        BYTE           N36     Cs2   v100   gtp2
        BYTE   W48
        BYTE   PEND
// 025   ----------------------------------------
        BYTE           N76
        BYTE           N76     An2
        BYTE   W96
// 026   ----------------------------------------
        BYTE   W96
// 027   ----------------------------------------
        BYTE           N96
        BYTE           N96     Cs2
        BYTE   W96
// 028   ----------------------------------------
        BYTE   W96
// 029   ----------------------------------------
        BYTE   W96
// 030   ----------------------------------------
        BYTE   W96
// 031   ----------------------------------------
        BYTE   W96
// 032   ----------------------------------------
        BYTE   W96
// 033   ----------------------------------------
        BYTE   W96
// 034   ----------------------------------------
        BYTE   W96
// 035   ----------------------------------------
        BYTE   PATT
         POIN2  crimeoftheheart0_9_18
// 036   ----------------------------------------
        BYTE   W96
// 037   ----------------------------------------
        BYTE   W96
// 038   ----------------------------------------
        BYTE   W96
// 039   ----------------------------------------
        BYTE   PATT
         POIN2  crimeoftheheart0_9_18
// 040   ----------------------------------------
        BYTE   W96
// 041   ----------------------------------------
        BYTE   PATT
         POIN2  crimeoftheheart0_9_24
// 042   ----------------------------------------
        BYTE           N76     Cs2   v100
        BYTE           N76     An2
        BYTE   W60
        BYTE           VOL     26
        BYTE   GoTo
         POIN2  crimeoftheheart0_9_LOOP
        BYTE   W36
// 043   ----------------------------------------
        BYTE   W96
// 044   ----------------------------------------
        BYTE   W96
// 045   ----------------------------------------
        BYTE   W96
// 046   ----------------------------------------
        BYTE   W92
        BYTE   W02
        BYTE   FINE


//********************** End of Song ***********************//

        ALIGN 4
crimeoftheheart0:
        BYTE   10                      // Num Tracks
        BYTE   0                       // Unknown
        BYTE   crimeoftheheart0_pri    // Priority
        BYTE   crimeoftheheart0_rev    // Reverb

        POIN2   crimeoftheheart0_grp   

        POIN2   crimeoftheheart0_0
        POIN2   crimeoftheheart0_1
        POIN2   crimeoftheheart0_2
        POIN2   crimeoftheheart0_3
        POIN2   crimeoftheheart0_4
        POIN2   crimeoftheheart0_5
        POIN2   crimeoftheheart0_6
        POIN2   crimeoftheheart0_7
        POIN2   crimeoftheheart0_8
        POIN2   crimeoftheheart0_9

        
