//Event file generated from Sappy .s format.
        #include "MPlayDef.event"

        #define    DARKPRISON0000_grp  voicegroup000
        #define    DARKPRISON0000_pri  0
        #define    DARKPRISON0000_rev  0
        #define    DARKPRISON0000_key  0

        // .rodata
        // DARKPRISON0000
        ALIGN 4

//****************** Track 0 (Midi-Chn.0) ******************//

DARKPRISON0000_0:
        BYTE   KEYSH   DARKPRISON0000_key+0
// 000   ----------------------------------------
        BYTE   TEMPO   250/2
        BYTE           VOICE   105
        BYTE           VOL     36
        BYTE   W01
        BYTE           PAN     c_v-20
        BYTE   W23
        BYTE   TEMPO   156/2
        BYTE   W72
// 001   ----------------------------------------
        BYTE   W96
// 002   ----------------------------------------
        BYTE   W96
// 003   ----------------------------------------
        BYTE   W84
        BYTE           N11     An3   v063
        BYTE   W12
// 004   ----------------------------------------
        BYTE                   Bn3
        BYTE   W12
        BYTE                   Cn4
        BYTE   W12
        BYTE                   Dn4
        BYTE   W12
        BYTE           N23     En4
        BYTE   W24
        BYTE           N06     Fn4
        BYTE   W06
        BYTE           N03     Gn4
        BYTE   W06
        BYTE           N68     An4   v063   gtp3
        BYTE                   An5   v045
        BYTE   W24
// 005   ----------------------------------------
        BYTE   W48
        BYTE           N11     Gn4   v063
        BYTE           N11     Gn5   v045
        BYTE   W12
        BYTE           N08     Fn4   v063
        BYTE           N08     Fn5   v045
        BYTE   W12
        BYTE   TEMPO   136/2
        BYTE           N44     Gn4   v063
        BYTE           N44     Gn5   v045
        BYTE   W24
// 006   ----------------------------------------
        BYTE   W24
        BYTE           N40     Dn4   v063
        BYTE           N40     Dn5   v045
        BYTE   W48
        BYTE   TEMPO   168/2
DARKPRISON0000_0_LOOP:
        BYTE           N04     Cn3   v066
        BYTE           N04     Fn3   v076
        BYTE   W12
        BYTE                   Fn3   v056
        BYTE           N04     An3   v066
        BYTE   W12
// 007   ----------------------------------------
        BYTE                   Fn3
        BYTE           N04     An3   v076
        BYTE   W12
        BYTE                   Fn3   v056
        BYTE           N04     An3   v066
        BYTE   W12
        BYTE                   Fn3
        BYTE           N04     An3   v076
        BYTE   W12
        BYTE                   An3   v056
        BYTE           N04     Cn4   v066
        BYTE   W12
        BYTE                   An3
        BYTE           N04     Cn4   v076
        BYTE   W12
        BYTE                   An3   v056
        BYTE           N04     Cn4   v066
        BYTE   W12
        BYTE           N11     An3
        BYTE           N11     Cn4   v076
        BYTE   W12
        BYTE           N04     Gn3   v056
        BYTE           N04     Bn3   v066
        BYTE   W12
// 008   ----------------------------------------
DARKPRISON0000_0_8:
        BYTE           N04     Gn3   v066
        BYTE           N04     Bn3   v076
        BYTE   W12
        BYTE                   Gn3   v056
        BYTE           N04     Bn3   v066
        BYTE   W12
        BYTE                   Gn3
        BYTE           N04     Bn3   v076
        BYTE   W12
        BYTE                   Bn3   v056
        BYTE           N04     Dn4   v066
        BYTE   W12
        BYTE                   Bn3
        BYTE           N04     Dn4   v076
        BYTE   W12
        BYTE                   Bn3   v056
        BYTE           N04     Dn4   v066
        BYTE   W12
        BYTE           N11     Bn3
        BYTE           N11     Dn4   v076
        BYTE   W12
        BYTE           N04     An3   v056
        BYTE           N04     Cn4   v066
        BYTE   W12
        BYTE   PEND
// 009   ----------------------------------------
DARKPRISON0000_0_9:
        BYTE           N04     An3   v066
        BYTE           N04     Cn4   v076
        BYTE   W12
        BYTE                   An3   v056
        BYTE           N04     Cn4   v066
        BYTE   W12
        BYTE                   An3
        BYTE           N04     Cn4   v076
        BYTE   W12
        BYTE                   Cn4   v056
        BYTE           N04     En4   v066
        BYTE   W12
        BYTE                   Cn4
        BYTE           N04     En4   v076
        BYTE   W12
        BYTE                   Cn4   v056
        BYTE           N04     En4   v066
        BYTE   W12
        BYTE           N11     Cn4
        BYTE           N11     En4   v076
        BYTE   W12
        BYTE           N04     Bn3   v056
        BYTE           N04     Dn4   v066
        BYTE   W12
        BYTE   PEND
// 010   ----------------------------------------
        BYTE                   Bn3
        BYTE           N04     Dn4   v076
        BYTE   W12
        BYTE                   Bn3   v056
        BYTE           N04     Dn4   v066
        BYTE   W12
        BYTE           N11     Bn3
        BYTE           N11     Dn4   v076
        BYTE   W12
        BYTE           N04     An3   v056
        BYTE           N04     Cn4   v066
        BYTE   W12
        BYTE                   An3
        BYTE           N04     Cn4   v076
        BYTE   W12
        BYTE                   An3   v056
        BYTE           N04     Cn4   v066
        BYTE   W12
        BYTE           N11     An3
        BYTE           N11     Cn4   v076
        BYTE   W12
        BYTE           N04     Gn3   v056
        BYTE           N04     Bn3   v066
        BYTE   W12
// 011   ----------------------------------------
        BYTE   PATT
         POIN2  DARKPRISON0000_0_8
// 012   ----------------------------------------
        BYTE   PATT
         POIN2  DARKPRISON0000_0_9
// 013   ----------------------------------------
        BYTE           N04     Bn3   v066
        BYTE           N04     Dn4   v076
        BYTE   W12
        BYTE                   Bn3   v056
        BYTE           N04     Dn4   v066
        BYTE   W12
        BYTE                   Bn3
        BYTE           N04     Dn4   v076
        BYTE   W12
        BYTE                   Dn4   v056
        BYTE           N04     Fn4   v066
        BYTE   W12
        BYTE                   Dn4
        BYTE           N04     Fn4   v076
        BYTE   W12
        BYTE                   Dn4   v056
        BYTE           N04     Fn4   v066
        BYTE   W12
        BYTE           N11     Dn4
        BYTE           N11     Fn4   v076
        BYTE   W12
        BYTE           N04     Cn4   v056
        BYTE           N04     En4   v066
        BYTE   W12
// 014   ----------------------------------------
        BYTE                   Cn4
        BYTE           N04     En4   v076
        BYTE   W12
        BYTE                   Cn4   v056
        BYTE           N04     En4   v066
        BYTE   W12
        BYTE           N11     Cn4
        BYTE           N11     En4   v076
        BYTE   W12
        BYTE           N04     Bn3   v056
        BYTE           N04     Dn4   v066
        BYTE   W12
        BYTE                   Bn3
        BYTE           N04     Dn4   v076
        BYTE   W12
        BYTE                   Bn3   v056
        BYTE           N04     Dn4   v066
        BYTE   W12
        BYTE           N11     Bn3
        BYTE           N11     Dn4   v076
        BYTE   W12
        BYTE           N04     An3   v056
        BYTE           N04     Cn4   v066
        BYTE   W12
// 015   ----------------------------------------
        BYTE                   An3
        BYTE           N04     Cn4   v076
        BYTE   W12
        BYTE                   An3   v056
        BYTE           N04     Cn4   v066
        BYTE   W12
        BYTE           N11     An3
        BYTE           N11     Cn4   v076
        BYTE   W12
        BYTE           N04     Gn3   v056
        BYTE           N04     Bn3   v066
        BYTE   W12
        BYTE                   Gn3
        BYTE           N04     Bn3   v076
        BYTE   W12
        BYTE                   Gn3   v056
        BYTE           N04     Bn3   v066
        BYTE   W12
        BYTE           N11     Gn3
        BYTE           N11     Bn3   v076
        BYTE   W12
        BYTE           N04     Fn3   v056
        BYTE           N04     An3   v066
        BYTE   W12
// 016   ----------------------------------------
        BYTE                   Fn3
        BYTE           N04     An3   v076
        BYTE   W12
        BYTE                   Fn3   v056
        BYTE           N04     An3   v066
        BYTE   W12
        BYTE           N11     Fn3
        BYTE           N11     An3   v076
        BYTE   W12
        BYTE           N04     En3   v056
        BYTE           N04     Gn3   v066
        BYTE   W12
        BYTE                   En3
        BYTE           N04     Gn3   v076
        BYTE   W12
        BYTE                   En3   v056
        BYTE           N04     Gn3   v066
        BYTE   W12
        BYTE           N11     En3   v071
        BYTE           N11     Gn3   v081
        BYTE   W12
        BYTE                   Dn3   v069
        BYTE           N11     Fn3   v079
        BYTE   W12
// 017   ----------------------------------------
        BYTE                   En3   v071
        BYTE           N11     Gn3   v081
        BYTE   W12
        BYTE                   Fn3   v069
        BYTE           N11     An3   v079
        BYTE   W12
        BYTE                   Gn3   v071
        BYTE           N11     Bn3   v081
        BYTE   W12
        BYTE                   Fn3   v069
        BYTE           N11     An3   v079
        BYTE   W12
        BYTE                   Gn3   v071
        BYTE           N11     Bn3   v081
        BYTE   W12
        BYTE                   An3   v069
        BYTE           N11     Cn4   v079
        BYTE   W12
        BYTE                   Bn3   v076
        BYTE           N11     Dn4   v086
        BYTE   W12
        BYTE                   Cn4   v074
        BYTE           N11     En4   v084
        BYTE   W12
// 018   ----------------------------------------
        BYTE                   Dn4   v076
        BYTE           N11     Fn4   v086
        BYTE   W12
        BYTE                   En4   v074
        BYTE           N11     Gn4   v084
        BYTE   W12
        BYTE                   Fn4   v076
        BYTE           N11     An4   v086
        BYTE   W12
        BYTE                   Gn4   v074
        BYTE           N11     Bn4   v084
        BYTE   W12
        BYTE                   An4   v076
        BYTE           N11     Cn5   v086
        BYTE   W12
        BYTE                   Bn4   v074
        BYTE           N11     Dn5   v084
        BYTE   W12
        BYTE           N04     An3   v066
        BYTE           N04     Cn4   v076
        BYTE   W12
        BYTE                   Gn3   v061
        BYTE           N04     Bn3   v071
        BYTE   W12
// 019   ----------------------------------------
        BYTE                   An3   v062
        BYTE           N04     Cn4   v072
        BYTE   W12
        BYTE                   Bn3   v061
        BYTE           N04     Dn4   v072
        BYTE   W12
        BYTE                   Cn4   v066
        BYTE           N04     En4   v076
        BYTE   W12
        BYTE                   Bn3   v061
        BYTE           N04     Dn4   v072
        BYTE   W12
        BYTE                   An3   v062
        BYTE           N04     Cn4   v072
        BYTE   W12
        BYTE                   Gn3   v061
        BYTE           N04     Bn3   v071
        BYTE   W12
        BYTE                   An3   v066
        BYTE           N04     Cn4   v076
        BYTE   W12
        BYTE                   Gn3   v061
        BYTE           N04     Bn3   v071
        BYTE   W12
// 020   ----------------------------------------
        BYTE                   An3   v062
        BYTE           N04     Cn4   v072
        BYTE   W12
        BYTE                   Bn3   v061
        BYTE           N04     Dn4   v072
        BYTE   W12
        BYTE                   Cn4   v066
        BYTE           N04     En4   v076
        BYTE   W12
        BYTE                   Bn3   v061
        BYTE           N04     Dn4   v072
        BYTE   W12
        BYTE                   An3   v062
        BYTE           N04     Cn4   v072
        BYTE   W12
        BYTE                   Gn3   v061
        BYTE           N04     Bn3   v071
        BYTE   W12
        BYTE                   Bn3   v066
        BYTE           N04     Dn4   v076
        BYTE   W12
        BYTE                   An3   v061
        BYTE           N04     Cn4   v071
        BYTE   W12
// 021   ----------------------------------------
        BYTE                   Bn3   v062
        BYTE           N04     Dn4   v072
        BYTE   W12
        BYTE                   Cn4   v061
        BYTE           N04     En4   v072
        BYTE   W12
        BYTE                   Dn4   v066
        BYTE           N04     Fn4   v076
        BYTE   W12
        BYTE                   Cn4   v061
        BYTE           N04     En4   v072
        BYTE   W12
        BYTE                   Bn3   v062
        BYTE           N04     Dn4   v072
        BYTE   W12
        BYTE                   An3   v061
        BYTE           N04     Cn4   v071
        BYTE   W12
        BYTE                   Bn3   v066
        BYTE           N04     Dn4   v076
        BYTE   W12
        BYTE                   An3   v061
        BYTE           N04     Cn4   v071
        BYTE   W12
// 022   ----------------------------------------
        BYTE                   Bn3   v062
        BYTE           N04     Dn4   v072
        BYTE   W12
        BYTE                   Cn4   v061
        BYTE           N04     En4   v072
        BYTE   W12
        BYTE                   Dn4   v066
        BYTE           N04     Fn4   v076
        BYTE   W12
        BYTE                   Cn4   v061
        BYTE           N04     En4   v072
        BYTE   W12
        BYTE                   Bn3   v062
        BYTE           N04     Dn4   v072
        BYTE   W12
        BYTE                   An3   v061
        BYTE           N04     Cn4   v071
        BYTE   W12
        BYTE                   Cn4   v076
        BYTE           N04     En4   v086
        BYTE   W12
        BYTE                   Bn3   v071
        BYTE           N04     Dn4   v081
        BYTE   W12
// 023   ----------------------------------------
        BYTE                   An3   v072
        BYTE           N04     Cn4   v082
        BYTE   W12
        BYTE                   En3   v071
        BYTE           N04     An3   v082
        BYTE   W12
        BYTE                   Cn4   v076
        BYTE           N04     En4   v086
        BYTE   W12
        BYTE                   Bn3   v071
        BYTE           N04     Dn4   v081
        BYTE   W12
        BYTE                   An3   v072
        BYTE           N04     Cn4   v082
        BYTE   W12
        BYTE                   En3   v071
        BYTE           N04     An3   v082
        BYTE   W12
        BYTE                   Cn4   v076
        BYTE           N04     En4   v086
        BYTE   W12
        BYTE                   Bn3   v071
        BYTE           N04     Dn4   v081
        BYTE   W12
// 024   ----------------------------------------
        BYTE                   An3   v072
        BYTE           N04     Cn4   v082
        BYTE   W12
        BYTE                   En3   v071
        BYTE           N04     An3   v082
        BYTE   W12
        BYTE                   Cn4   v076
        BYTE           N04     En4   v086
        BYTE   W12
        BYTE                   Bn3   v071
        BYTE           N04     Dn4   v081
        BYTE   W12
        BYTE                   An3   v072
        BYTE           N04     Cn4   v082
        BYTE   W12
        BYTE                   En3   v071
        BYTE           N04     An3   v082
        BYTE   W12
        BYTE                   Cs4   v076
        BYTE           N04     En4   v086
        BYTE   W12
        BYTE                   Bn3   v071
        BYTE           N04     Dn4   v081
        BYTE   W12
// 025   ----------------------------------------
        BYTE                   Bn3   v072
        BYTE           N04     Dn4   v082
        BYTE   W12
        BYTE                   An3   v071
        BYTE           N04     Cs4   v082
        BYTE   W12
        BYTE                   An3   v076
        BYTE           N04     Cs4   v086
        BYTE   W12
        BYTE                   Bn3   v071
        BYTE           N04     Dn4   v081
        BYTE   W12
        BYTE                   Bn3   v072
        BYTE           N04     Dn4   v082
        BYTE   W12
        BYTE                   Cs4   v071
        BYTE           N04     En4   v082
        BYTE   W12
        BYTE                   Cs4   v076
        BYTE           N04     En4   v086
        BYTE   W12
        BYTE                   Dn4   v071
        BYTE           N04     Fn4   v081
        BYTE   W12
// 026   ----------------------------------------
        BYTE                   Dn4   v072
        BYTE           N04     Fn4   v082
        BYTE   W12
        BYTE                   En4   v071
        BYTE           N04     Gn4   v082
        BYTE   W12
        BYTE                   Fn4   v076
        BYTE           N04     An4   v086
        BYTE   W12
        BYTE                   En4   v071
        BYTE           N04     Gn4   v081
        BYTE   W12
        BYTE                   Dn4   v072
        BYTE           N04     Fn4   v082
        BYTE   W12
        BYTE                   Cs4   v071
        BYTE           N04     En4   v082
        BYTE   W12
        BYTE                   Dn4
        BYTE           N04     Fn4   v092
        BYTE   W12
        BYTE                   Cs4   v077
        BYTE           N04     En4   v087
        BYTE   W12
// 027   ----------------------------------------
        BYTE                   Dn4   v078
        BYTE           N04     Fn4   v088
        BYTE   W12
        BYTE                   En4   v077
        BYTE           N04     Gn4   v088
        BYTE   W12
        BYTE                   Fn4   v082
        BYTE           N04     An4   v092
        BYTE   W12
        BYTE                   En4   v077
        BYTE           N04     Gn4   v088
        BYTE   W12
        BYTE                   Dn4   v078
        BYTE           N04     Fn4   v088
        BYTE   W12
        BYTE                   Cs4   v077
        BYTE           N04     En4   v087
        BYTE   W12
        BYTE                   Dn4   v082
        BYTE           N04     Fn4   v092
        BYTE   W12
        BYTE                   Cs4   v077
        BYTE           N04     En4   v087
        BYTE   W12
// 028   ----------------------------------------
        BYTE                   Dn4   v078
        BYTE           N04     Fn4   v088
        BYTE   W12
        BYTE                   En4   v077
        BYTE           N04     Gn4   v088
        BYTE   W12
        BYTE                   Fn4   v082
        BYTE           N04     An4   v092
        BYTE   W12
        BYTE                   En4   v077
        BYTE           N04     Gn4   v088
        BYTE   W12
        BYTE                   Dn4   v078
        BYTE           N04     Fn4   v088
        BYTE   W12
        BYTE                   Cs4   v077
        BYTE           N04     En4   v087
        BYTE   W12
        BYTE                   Fs4
        BYTE           N04     An4   v097
        BYTE   W12
        BYTE                   Ds4   v082
        BYTE           N04     Fs4   v092
        BYTE   W12
// 029   ----------------------------------------
        BYTE                   Fs4   v083
        BYTE           N04     An4   v093
        BYTE   W12
        BYTE                   Gn4   v082
        BYTE           N04     Bn4   v093
        BYTE   W12
        BYTE                   An4   v087
        BYTE           N04     Cn5   v097
        BYTE   W12
        BYTE                   Gn4   v082
        BYTE           N04     Bn4   v093
        BYTE   W12
        BYTE                   Fs4   v083
        BYTE           N04     An4   v093
        BYTE   W12
        BYTE                   Ds4   v082
        BYTE           N04     Fs4   v092
        BYTE   W12
        BYTE                   Fs4   v087
        BYTE           N04     An4   v097
        BYTE   W12
        BYTE                   Ds4   v082
        BYTE           N04     Fs4   v092
        BYTE   W12
// 030   ----------------------------------------
        BYTE                   Fs4   v083
        BYTE           N04     An4   v093
        BYTE   W12
        BYTE                   Gn4   v082
        BYTE           N04     Bn4   v093
        BYTE   W12
        BYTE                   An4   v087
        BYTE           N04     Cn5   v097
        BYTE   W12
        BYTE                   Gn4   v082
        BYTE           N04     Bn4   v093
        BYTE   W12
        BYTE                   Fs4   v083
        BYTE           N04     An4   v093
        BYTE   W12
        BYTE                   Ds4   v082
        BYTE           N04     Fs4   v092
        BYTE   W12
        BYTE                   Bn3   v087
        BYTE           N04     En4   v097
        BYTE   W12
        BYTE                   En3   v082
        BYTE           N04     Bn3   v092
        BYTE   W12
// 031   ----------------------------------------
        BYTE                   En3   v083
        BYTE           N04     Bn3   v093
        BYTE   W12
        BYTE                   Bn2   v082
        BYTE           N04     En3   v093
        BYTE   W12
        BYTE                   Bn2   v087
        BYTE           N04     En3   v097
        BYTE   W12
        BYTE                   Bn2   v082
        BYTE           N04     Gs3   v093
        BYTE   W12
        BYTE                   Bn2   v083
        BYTE           N04     Gs3   v093
        BYTE   W12
        BYTE                   Gs3   v082
        BYTE           N04     Bn3   v092
        BYTE   W12
        BYTE                   Gs3   v087
        BYTE           N04     Bn3   v097
        BYTE   W12
        BYTE                   Bn3   v082
        BYTE           N04     En4   v093
        BYTE   W12
// 032   ----------------------------------------
        BYTE                   Bn3   v083
        BYTE           N04     En4   v093
        BYTE   W12
        BYTE                   En4   v082
        BYTE           N04     Gs4   v093
        BYTE   W12
        BYTE                   En4   v087
        BYTE           N04     Gs4   v097
        BYTE   W12
        BYTE                   Gs4   v082
        BYTE           N04     Bn4   v092
        BYTE   W12
        BYTE                   Gs4   v083
        BYTE           N04     Bn4   v093
        BYTE   W12
        BYTE                   En4   v084
        BYTE           N04     Gs4   v094
        BYTE   W12
        BYTE                   En4   v089
        BYTE           N04     Gs4   v099
        BYTE   W06
        BYTE                   Fs4   v071
        BYTE           N04     An4   v081
        BYTE   W06
        BYTE                   En4   v067
        BYTE           N04     Gs4   v077
        BYTE   W06
        BYTE                   Fs4   v070
        BYTE           N04     An4   v080
        BYTE   W06
// 033   ----------------------------------------
        BYTE                   Gs4   v075
        BYTE           N04     Bn4   v085
        BYTE   W24
        BYTE                   Gs4   v089
        BYTE           N04     Bn4   v099
        BYTE   W06
        BYTE                   Fs4   v071
        BYTE           N04     An4   v081
        BYTE   W06
        BYTE                   En4   v067
        BYTE           N04     Gs4   v077
        BYTE   W06
        BYTE                   Fs4   v070
        BYTE           N04     An4   v080
        BYTE   W06
        BYTE                   Gs4   v075
        BYTE           N04     Bn4   v085
        BYTE   W24
        BYTE                   Gs4   v089
        BYTE           N04     Bn4   v099
        BYTE   W06
        BYTE                   Fs4   v071
        BYTE           N04     An4   v081
        BYTE   W06
        BYTE                   En4   v067
        BYTE           N04     Gs4   v077
        BYTE   W06
        BYTE                   Fs4   v070
        BYTE           N04     An4   v080
        BYTE   W06
// 034   ----------------------------------------
        BYTE                   Gs4   v094
        BYTE           N04     Bn4   v104
        BYTE   W06
        BYTE                   Fs4   v076
        BYTE           N04     An4   v086
        BYTE   W06
        BYTE                   En4   v072
        BYTE           N04     Gs4   v082
        BYTE   W06
        BYTE                   Fs4   v075
        BYTE           N04     An4   v085
        BYTE   W06
        BYTE                   Gs4   v099
        BYTE           N04     Bn4   v109
        BYTE   W06
        BYTE                   Fs4   v081
        BYTE           N04     An4   v091
        BYTE   W06
        BYTE                   En4   v077
        BYTE           N04     Gs4   v087
        BYTE   W06
        BYTE                   Fs4   v080
        BYTE           N04     An4   v090
        BYTE   W06
        BYTE                   Gs4   v104
        BYTE           N04     Bn4   v114
        BYTE   W06
        BYTE                   Fs4   v086
        BYTE           N04     An4   v096
        BYTE   W06
        BYTE                   En4   v082
        BYTE           N04     Gs4   v092
        BYTE   W06
        BYTE                   Fs4   v085
        BYTE           N04     An4   v095
        BYTE   W06
        BYTE           N23     Cn3   v086
        BYTE           N23     An3   v096
        BYTE   W24
// 035   ----------------------------------------
        BYTE   W12
        BYTE           N06     Cn3   v086
        BYTE           N06     An3   v096
        BYTE   W12
        BYTE                   En3   v086
        BYTE           N06     Cn4   v096
        BYTE   W12
        BYTE                   Gn3   v086
        BYTE           N06     En4   v096
        BYTE   W12
        BYTE           N23     Gn3   v086
        BYTE           N23     Dn4   v096
        BYTE   W36
        BYTE           N06
        BYTE   W12
// 036   ----------------------------------------
        BYTE                   Cn4
        BYTE   W12
        BYTE                   Bn3
        BYTE   W12
        BYTE           N05     Cn4
        BYTE   W06
        BYTE                   Bn3
        BYTE   W06
        BYTE           N44     An3   v096   gtp3
        BYTE   W60
// 037   ----------------------------------------
        BYTE           N23     Bn3
        BYTE   W36
        BYTE                   Gn3
        BYTE   W36
        BYTE           N32     An3   v096   gtp3
        BYTE   W24
// 038   ----------------------------------------
        BYTE   W12
        BYTE           N11
        BYTE   W12
        BYTE                   Cn4
        BYTE   W12
        BYTE                   En4
        BYTE   W12
        BYTE           N32     Gn4   v096   gtp3
        BYTE   W36
        BYTE           N11     Dn4
        BYTE   W12
// 039   ----------------------------------------
        BYTE                   Bn3
        BYTE   W12
        BYTE                   Gn3
        BYTE   W12
        BYTE           N68     An3   v096   gtp3
        BYTE   W72
// 040   ----------------------------------------
        BYTE           N06     Gn3   v101
        BYTE   W06
        BYTE                   Dn3
        BYTE   W06
        BYTE                   En3
        BYTE   W06
        BYTE                   Fn3
        BYTE   W06
        BYTE                   Gn3
        BYTE   W06
        BYTE                   An3
        BYTE   W06
        BYTE                   Bn3
        BYTE   W06
        BYTE                   Cn4
        BYTE   W06
        BYTE                   Dn4
        BYTE   W06
        BYTE                   En4
        BYTE   W06
        BYTE                   Fn4
        BYTE   W06
        BYTE                   Gn4
        BYTE   W06
        BYTE           N44     Cn4   v081   gtp3
        BYTE                   An4   v096
        BYTE   W24
// 041   ----------------------------------------
        BYTE   W24
        BYTE           N23     Gn3   v081
        BYTE           N23     En4   v096
        BYTE   W24
        BYTE                   An3   v081
        BYTE           N23     Fn4   v096
        BYTE   W24
        BYTE                   Bn3   v081
        BYTE           N23     Gn4   v096
        BYTE   W24
// 042   ----------------------------------------
        BYTE                   An3   v081
        BYTE           N23     Fn4   v096
        BYTE   W24
        BYTE                   Gn3   v081
        BYTE           N23     En4   v096
        BYTE   W24
        BYTE                   Fn3   v081
        BYTE           N23     Dn4   v096
        BYTE   W24
        BYTE           N92     An3   v081   gtp3
        BYTE           N32     Dn4   v096   gtp3
        BYTE   W24
// 043   ----------------------------------------
        BYTE   W12
        BYTE           N11     Cn4
        BYTE   W12
        BYTE           N44     Cn4   v096   gtp3
        BYTE   W48
        BYTE           N92     Gn3   v081   gtp3
        BYTE           N44     Cn4   v096   gtp3
        BYTE   W24
// 044   ----------------------------------------
        BYTE   W24
        BYTE           N23     Dn4
        BYTE   W24
        BYTE                   En4
        BYTE   W24
        BYTE           N68     An3   v081   gtp3
        BYTE                   Fn4   v096
        BYTE   W24
// 045   ----------------------------------------
        BYTE   W48
        BYTE           N11     Bn3   v081
        BYTE           N11     Gn4   v096
        BYTE   W12
        BYTE                   Cn4   v081
        BYTE           N11     An4   v096
        BYTE   W12
        BYTE           N44     Dn4   v081   gtp3
        BYTE                   Bn4   v096
        BYTE   W24
// 046   ----------------------------------------
        BYTE   W24
        BYTE           N23     Cn4   v081
        BYTE           N23     An4   v096
        BYTE   W24
        BYTE                   Bn3   v081
        BYTE           N23     Gn4   v096
        BYTE   W24
        BYTE           TIE     Cn4   v081
        BYTE           TIE     An4   v096
        BYTE   W24
// 047   ----------------------------------------
        BYTE   W76
        BYTE   W01
        BYTE           EOT     Cn4
        BYTE                   An4
        BYTE   W19
// 048   ----------------------------------------
        BYTE   W72
        BYTE           N05     Bn3   v099
        BYTE   W06
        BYTE                   Cn4   v074
        BYTE   W06
        BYTE                   Bn3
        BYTE   W06
        BYTE                   An3
        BYTE   W06
// 049   ----------------------------------------
        BYTE                   Bn3   v099
        BYTE   W06
        BYTE                   Cn4   v074
        BYTE   W06
        BYTE                   Bn3
        BYTE   W06
        BYTE                   An3
        BYTE   W06
        BYTE                   Bn3   v099
        BYTE   W06
        BYTE                   Cn4   v074
        BYTE   W06
        BYTE                   Bn3
        BYTE   W06
        BYTE                   An3
        BYTE   W06
        BYTE                   Bn3   v099
        BYTE   W06
        BYTE                   Cn4   v074
        BYTE   W06
        BYTE                   Bn3
        BYTE   W06
        BYTE                   An3
        BYTE   W06
        BYTE                   Cn4   v099
        BYTE   W06
        BYTE                   Dn4   v074
        BYTE   W06
        BYTE                   Cn4
        BYTE   W06
        BYTE                   Bn3
        BYTE   W06
// 050   ----------------------------------------
        BYTE                   Cn4   v099
        BYTE   W06
        BYTE                   Dn4   v074
        BYTE   W06
        BYTE                   Cn4
        BYTE   W06
        BYTE                   Bn3
        BYTE   W06
        BYTE                   Cn4   v099
        BYTE   W06
        BYTE                   Dn4   v074
        BYTE   W06
        BYTE                   Cn4
        BYTE   W06
        BYTE                   Bn3
        BYTE   W06
        BYTE                   Cn4   v099
        BYTE   W06
        BYTE                   Dn4
        BYTE   W06
        BYTE                   Cn4   v074
        BYTE   W06
        BYTE                   Bn3
        BYTE   W06
        BYTE                   Bn3   v099
        BYTE   W06
        BYTE                   Cn4   v074
        BYTE   W06
        BYTE                   Bn3
        BYTE   W06
        BYTE                   An3
        BYTE   W06
// 051   ----------------------------------------
        BYTE                   Bn3   v099
        BYTE   W06
        BYTE                   Cn4   v074
        BYTE   W06
        BYTE                   Bn3
        BYTE   W06
        BYTE                   An3
        BYTE   W06
        BYTE                   Bn3   v099
        BYTE   W06
        BYTE                   Cn4   v074
        BYTE   W06
        BYTE                   Bn3
        BYTE   W06
        BYTE                   An3
        BYTE   W06
        BYTE                   Bn3   v099
        BYTE   W06
        BYTE                   Cn4   v074
        BYTE   W06
        BYTE                   Bn3
        BYTE   W06
        BYTE                   An3
        BYTE   W06
        BYTE                   En3   v099
        BYTE   W06
        BYTE                   Cn3   v074
        BYTE   W06
        BYTE                   Dn3
        BYTE   W06
        BYTE                   En3
        BYTE   W06
// 052   ----------------------------------------
        BYTE                   Fn3   v099
        BYTE   W06
        BYTE                   Dn3   v074
        BYTE   W06
        BYTE                   En3
        BYTE   W06
        BYTE                   Fn3
        BYTE   W06
        BYTE                   Gn3   v104
        BYTE   W06
        BYTE                   En3   v079
        BYTE   W06
        BYTE                   Fn3
        BYTE   W06
        BYTE                   Gn3
        BYTE   W06
        BYTE                   An3   v109
        BYTE   W06
        BYTE                   Gn3   v084
        BYTE   W06
        BYTE                   An3
        BYTE   W06
        BYTE                   Bn3
        BYTE   W06
        BYTE           N68     Cn4   v084   gtp3
        BYTE   W24
// 053   ----------------------------------------
        BYTE   W48
        BYTE           N11     Cn4   v069
        BYTE   W12
        BYTE                   Bn3
        BYTE   W12
        BYTE           N44     An3   v059   gtp3
        BYTE   W24
// 054   ----------------------------------------
        BYTE   W24
        BYTE                   Fn3
        BYTE   W48
        BYTE           N92     Cn3   v049   gtp3
        BYTE                   En3   v039
        BYTE   W24
// 055   ----------------------------------------
        BYTE   W72
        BYTE                   En3
        BYTE   W24
// 056   ----------------------------------------
        BYTE   W72
        BYTE   GoTo
         POIN2  DARKPRISON0000_0_LOOP
        BYTE   FINE

//****************** Track 1 (Midi-Chn.1) ******************//

DARKPRISON0000_1:
        BYTE   KEYSH   DARKPRISON0000_key+0
// 000   ----------------------------------------
        BYTE           VOICE   33
        BYTE           VOL     46
        BYTE   W96
// 001   ----------------------------------------
        BYTE   W96
// 002   ----------------------------------------
        BYTE   W96
// 003   ----------------------------------------
        BYTE   W96
// 004   ----------------------------------------
        BYTE   W96
// 005   ----------------------------------------
        BYTE   W96
// 006   ----------------------------------------
        BYTE   W72
DARKPRISON0000_1_LOOP:
        BYTE           N07     An1   v081
        BYTE   W12
        BYTE                   An1   v071
        BYTE   W12
// 007   ----------------------------------------
DARKPRISON0000_1_7:
        BYTE           N07     An1   v081
        BYTE   W12
        BYTE                   An1   v071
        BYTE   W12
        BYTE                   An1   v081
        BYTE   W12
        BYTE                   An1   v071
        BYTE   W12
        BYTE                   An1   v081
        BYTE   W12
        BYTE                   An1   v071
        BYTE   W12
        BYTE                   An1   v081
        BYTE   W12
        BYTE                   An1   v071
        BYTE   W12
        BYTE   PEND
// 008   ----------------------------------------
        BYTE   PATT
         POIN2  DARKPRISON0000_1_7
// 009   ----------------------------------------
        BYTE   PATT
         POIN2  DARKPRISON0000_1_7
// 010   ----------------------------------------
        BYTE           N07     An1   v081
        BYTE   W12
        BYTE                   An1   v071
        BYTE   W12
        BYTE                   An1   v081
        BYTE   W12
        BYTE                   An1   v071
        BYTE   W12
        BYTE                   An1   v081
        BYTE   W12
        BYTE                   An1   v071
        BYTE   W12
        BYTE                   En2   v081
        BYTE   W12
        BYTE                   En2   v071
        BYTE   W12
// 011   ----------------------------------------
DARKPRISON0000_1_11:
        BYTE           N07     En2   v081
        BYTE   W12
        BYTE                   En2   v071
        BYTE   W12
        BYTE                   En2   v081
        BYTE   W12
        BYTE                   En2   v071
        BYTE   W12
        BYTE                   En2   v081
        BYTE   W12
        BYTE                   En2   v071
        BYTE   W12
        BYTE                   En2   v081
        BYTE   W12
        BYTE                   En2   v071
        BYTE   W12
        BYTE   PEND
// 012   ----------------------------------------
        BYTE   PATT
         POIN2  DARKPRISON0000_1_11
// 013   ----------------------------------------
        BYTE   PATT
         POIN2  DARKPRISON0000_1_11
// 014   ----------------------------------------
        BYTE           N07     En2   v081
        BYTE   W12
        BYTE                   En2   v071
        BYTE   W12
        BYTE                   En2   v081
        BYTE   W12
        BYTE                   En2   v071
        BYTE   W12
        BYTE                   En2   v081
        BYTE   W12
        BYTE                   En2   v071
        BYTE   W12
        BYTE                   Gn2   v081
        BYTE   W12
        BYTE                   Gn2   v071
        BYTE   W12
// 015   ----------------------------------------
DARKPRISON0000_1_15:
        BYTE           N07     Gn2   v081
        BYTE   W12
        BYTE                   Gn2   v071
        BYTE   W12
        BYTE                   Gn2   v081
        BYTE   W12
        BYTE                   Gn2   v071
        BYTE   W12
        BYTE                   Gn2   v081
        BYTE   W12
        BYTE                   Gn2   v071
        BYTE   W12
        BYTE                   Gn2   v081
        BYTE   W12
        BYTE                   Gn2   v071
        BYTE   W12
        BYTE   PEND
// 016   ----------------------------------------
        BYTE   PATT
         POIN2  DARKPRISON0000_1_15
// 017   ----------------------------------------
        BYTE   PATT
         POIN2  DARKPRISON0000_1_15
// 018   ----------------------------------------
        BYTE           N07     Gn2   v081
        BYTE   W12
        BYTE                   Gn2   v071
        BYTE   W12
        BYTE                   Gn2   v081
        BYTE   W12
        BYTE                   Gn2   v071
        BYTE   W12
        BYTE                   Gn2   v081
        BYTE   W12
        BYTE                   Gn2   v071
        BYTE   W12
        BYTE                   An1   v081
        BYTE   W12
        BYTE                   An1   v071
        BYTE   W12
// 019   ----------------------------------------
        BYTE   PATT
         POIN2  DARKPRISON0000_1_7
// 020   ----------------------------------------
        BYTE           N07     An1   v081
        BYTE   W12
        BYTE                   An1   v071
        BYTE   W12
        BYTE                   An1   v081
        BYTE   W12
        BYTE                   An1   v071
        BYTE   W12
        BYTE                   An1   v081
        BYTE   W12
        BYTE                   An1   v071
        BYTE   W12
        BYTE                   Bn1   v081
        BYTE   W12
        BYTE                   Bn1   v071
        BYTE   W12
// 021   ----------------------------------------
        BYTE                   Bn1   v081
        BYTE   W12
        BYTE                   Bn1   v071
        BYTE   W12
        BYTE                   Bn1   v081
        BYTE   W12
        BYTE                   Bn1   v071
        BYTE   W12
        BYTE                   Bn1   v081
        BYTE   W12
        BYTE                   Bn1   v071
        BYTE   W12
        BYTE                   Bn1   v081
        BYTE   W12
        BYTE                   Bn1   v071
        BYTE   W12
// 022   ----------------------------------------
        BYTE                   Bn1   v081
        BYTE   W12
        BYTE                   Bn1   v071
        BYTE   W12
        BYTE                   Bn1   v081
        BYTE   W12
        BYTE                   Bn1   v071
        BYTE   W12
        BYTE                   Bn1   v081
        BYTE   W12
        BYTE                   Bn1   v071
        BYTE   W12
        BYTE                   Cn2   v081
        BYTE   W12
        BYTE                   Cn2   v071
        BYTE   W12
// 023   ----------------------------------------
        BYTE                   Cn2   v081
        BYTE   W12
        BYTE                   Cn2   v071
        BYTE   W12
        BYTE                   Cn2   v081
        BYTE   W12
        BYTE                   Cn2   v071
        BYTE   W12
        BYTE                   Cn2   v081
        BYTE   W12
        BYTE                   Cn2   v071
        BYTE   W12
        BYTE                   Cn2   v081
        BYTE   W12
        BYTE                   Cn2   v071
        BYTE   W12
// 024   ----------------------------------------
        BYTE                   Cn2   v081
        BYTE   W12
        BYTE                   Cn2   v071
        BYTE   W12
        BYTE                   Cn2   v081
        BYTE   W12
        BYTE                   Cn2   v071
        BYTE   W12
        BYTE                   Cn2   v081
        BYTE   W12
        BYTE                   Cn2   v071
        BYTE   W12
        BYTE                   Cs2   v081
        BYTE   W12
        BYTE                   Cs2   v071
        BYTE   W12
// 025   ----------------------------------------
        BYTE                   Cs2   v081
        BYTE   W12
        BYTE                   Cs2   v071
        BYTE   W12
        BYTE                   Cs2   v081
        BYTE   W12
        BYTE                   Cs2   v071
        BYTE   W12
        BYTE                   Cs2   v081
        BYTE   W12
        BYTE                   Cs2   v071
        BYTE   W12
        BYTE                   Cs2   v081
        BYTE   W12
        BYTE                   Cs2   v071
        BYTE   W12
// 026   ----------------------------------------
        BYTE                   Cs2   v081
        BYTE   W12
        BYTE                   Cs2   v071
        BYTE   W12
        BYTE                   Cs2   v081
        BYTE   W12
        BYTE                   Cs2   v071
        BYTE   W12
        BYTE                   Cs2   v081
        BYTE   W12
        BYTE                   Cs2   v071
        BYTE   W12
        BYTE                   Dn2   v081
        BYTE   W12
        BYTE                   Dn2   v071
        BYTE   W12
// 027   ----------------------------------------
        BYTE                   Dn2   v081
        BYTE   W12
        BYTE                   Dn2   v071
        BYTE   W12
        BYTE                   Dn2   v081
        BYTE   W12
        BYTE                   Dn2   v071
        BYTE   W12
        BYTE                   Dn2   v081
        BYTE   W12
        BYTE                   Dn2   v071
        BYTE   W12
        BYTE                   Dn2   v081
        BYTE   W12
        BYTE                   Dn2   v071
        BYTE   W12
// 028   ----------------------------------------
        BYTE                   Dn2   v081
        BYTE   W12
        BYTE                   Dn2   v071
        BYTE   W12
        BYTE                   Dn2   v081
        BYTE   W12
        BYTE                   Dn2   v071
        BYTE   W12
        BYTE                   Dn2   v081
        BYTE   W12
        BYTE                   Dn2   v071
        BYTE   W12
        BYTE                   Ds2   v081
        BYTE   W12
        BYTE                   Ds2   v071
        BYTE   W12
// 029   ----------------------------------------
        BYTE                   Ds2   v081
        BYTE   W12
        BYTE                   Ds2   v071
        BYTE   W12
        BYTE                   Ds2   v081
        BYTE   W12
        BYTE                   Ds2   v071
        BYTE   W12
        BYTE                   Ds2   v081
        BYTE   W12
        BYTE                   Ds2   v071
        BYTE   W12
        BYTE                   Ds2   v081
        BYTE   W12
        BYTE                   Ds2   v071
        BYTE   W12
// 030   ----------------------------------------
        BYTE                   Ds2   v081
        BYTE   W12
        BYTE                   Ds2   v071
        BYTE   W12
        BYTE                   Ds2   v081
        BYTE   W12
        BYTE                   Ds2   v071
        BYTE   W12
        BYTE                   Ds2   v081
        BYTE   W12
        BYTE                   Ds2   v071
        BYTE   W12
        BYTE                   En2   v081
        BYTE   W12
        BYTE                   En2   v071
        BYTE   W12
// 031   ----------------------------------------
        BYTE   PATT
         POIN2  DARKPRISON0000_1_11
// 032   ----------------------------------------
        BYTE   PATT
         POIN2  DARKPRISON0000_1_11
// 033   ----------------------------------------
        BYTE   PATT
         POIN2  DARKPRISON0000_1_11
// 034   ----------------------------------------
        BYTE           N07     En2   v081
        BYTE   W12
        BYTE                   En2   v071
        BYTE   W12
        BYTE                   En2   v081
        BYTE   W12
        BYTE                   En2   v071
        BYTE   W12
        BYTE                   En2   v081
        BYTE   W12
        BYTE                   En2   v071
        BYTE   W12
        BYTE           N12     An1   v081
        BYTE   W18
        BYTE           N05     An1   v071
        BYTE   W06
// 035   ----------------------------------------
DARKPRISON0000_1_35:
        BYTE           N07     An1   v081
        BYTE   W12
        BYTE                   An1   v071
        BYTE   W12
        BYTE                   An1   v081
        BYTE   W12
        BYTE                   An1   v071
        BYTE   W12
        BYTE           N12     Gn1   v081
        BYTE   W18
        BYTE           N05     Gn1   v071
        BYTE   W06
        BYTE           N07     Gn1   v081
        BYTE   W12
        BYTE                   Gn1   v071
        BYTE   W12
        BYTE   PEND
// 036   ----------------------------------------
DARKPRISON0000_1_36:
        BYTE           N07     Gn1   v081
        BYTE   W12
        BYTE                   Gn1   v071
        BYTE   W12
        BYTE           N12     Fn1   v081
        BYTE   W18
        BYTE           N05     Fn1   v071
        BYTE   W06
        BYTE           N07     Fn1   v081
        BYTE   W12
        BYTE                   Fn1   v071
        BYTE   W12
        BYTE                   Fn1   v081
        BYTE   W12
        BYTE                   Fn1   v071
        BYTE   W12
        BYTE   PEND
// 037   ----------------------------------------
        BYTE           N12     Gn1   v081
        BYTE   W18
        BYTE           N05     Gn1   v071
        BYTE   W06
        BYTE           N07     Gn1   v081
        BYTE   W12
        BYTE                   Gn1   v071
        BYTE   W12
        BYTE                   Gn1   v081
        BYTE   W12
        BYTE                   Gn1   v071
        BYTE   W12
        BYTE           N12     An1   v081
        BYTE   W18
        BYTE           N05     An1   v071
        BYTE   W06
// 038   ----------------------------------------
        BYTE   PATT
         POIN2  DARKPRISON0000_1_35
// 039   ----------------------------------------
        BYTE   PATT
         POIN2  DARKPRISON0000_1_36
// 040   ----------------------------------------
        BYTE           N12     Gn1   v081
        BYTE   W18
        BYTE           N05     Gn1   v071
        BYTE   W06
        BYTE           N07     Gn1   v081
        BYTE   W12
        BYTE                   Gn1   v071
        BYTE   W12
        BYTE                   Gn1   v081
        BYTE   W12
        BYTE                   Gn1   v071
        BYTE   W12
        BYTE                   Fn1   v081
        BYTE   W12
        BYTE                   Fn1   v071
        BYTE   W12
// 041   ----------------------------------------
DARKPRISON0000_1_41:
        BYTE           N07     Fn1   v081
        BYTE   W12
        BYTE                   Fn1   v071
        BYTE   W12
        BYTE                   Fn1   v081
        BYTE   W12
        BYTE                   Fn1   v071
        BYTE   W12
        BYTE                   Fn1   v081
        BYTE   W12
        BYTE                   Fn1   v071
        BYTE   W12
        BYTE                   Gn1   v081
        BYTE   W12
        BYTE                   Gn1   v071
        BYTE   W12
        BYTE   PEND
// 042   ----------------------------------------
DARKPRISON0000_1_42:
        BYTE           N07     Gn1   v081
        BYTE   W12
        BYTE                   Gn1   v071
        BYTE   W12
        BYTE                   Gn1   v081
        BYTE   W12
        BYTE                   Gn1   v071
        BYTE   W12
        BYTE                   Gn1   v081
        BYTE   W12
        BYTE                   Gn1   v071
        BYTE   W12
        BYTE                   An1   v081
        BYTE   W12
        BYTE                   An1   v071
        BYTE   W12
        BYTE   PEND
// 043   ----------------------------------------
DARKPRISON0000_1_43:
        BYTE           N07     An1   v081
        BYTE   W12
        BYTE                   An1   v071
        BYTE   W12
        BYTE                   An1   v081
        BYTE   W12
        BYTE                   An1   v071
        BYTE   W12
        BYTE                   An1   v081
        BYTE   W12
        BYTE                   An1   v071
        BYTE   W12
        BYTE                   Gn1   v081
        BYTE   W12
        BYTE                   Gn1   v071
        BYTE   W12
        BYTE   PEND
// 044   ----------------------------------------
DARKPRISON0000_1_44:
        BYTE           N07     Gn1   v081
        BYTE   W12
        BYTE                   Gn1   v071
        BYTE   W12
        BYTE                   Gn1   v081
        BYTE   W12
        BYTE                   Gn1   v071
        BYTE   W12
        BYTE                   Gn1   v081
        BYTE   W12
        BYTE                   Gn1   v071
        BYTE   W12
        BYTE                   Fn1   v081
        BYTE   W12
        BYTE                   Fn1   v071
        BYTE   W12
        BYTE   PEND
// 045   ----------------------------------------
        BYTE   PATT
         POIN2  DARKPRISON0000_1_41
// 046   ----------------------------------------
        BYTE   PATT
         POIN2  DARKPRISON0000_1_42
// 047   ----------------------------------------
        BYTE   PATT
         POIN2  DARKPRISON0000_1_43
// 048   ----------------------------------------
        BYTE   PATT
         POIN2  DARKPRISON0000_1_44
// 049   ----------------------------------------
        BYTE   PATT
         POIN2  DARKPRISON0000_1_41
// 050   ----------------------------------------
        BYTE   PATT
         POIN2  DARKPRISON0000_1_42
// 051   ----------------------------------------
        BYTE   PATT
         POIN2  DARKPRISON0000_1_43
// 052   ----------------------------------------
        BYTE   PATT
         POIN2  DARKPRISON0000_1_44
// 053   ----------------------------------------
        BYTE   PATT
         POIN2  DARKPRISON0000_1_41
// 054   ----------------------------------------
        BYTE   PATT
         POIN2  DARKPRISON0000_1_42
// 055   ----------------------------------------
        BYTE   PATT
         POIN2  DARKPRISON0000_1_7
// 056   ----------------------------------------
        BYTE           N07     An1   v081
        BYTE   W12
        BYTE                   An1   v071
        BYTE   W12
        BYTE                   An1   v081
        BYTE   W12
        BYTE                   An1   v071
        BYTE   W12
        BYTE                   An1   v081
        BYTE   W12
        BYTE                   An1   v071
        BYTE   W12
        BYTE   GoTo
         POIN2  DARKPRISON0000_1_LOOP
        BYTE   FINE

//****************** Track 2 (Midi-Chn.2) ******************//

DARKPRISON0000_2:
        BYTE   KEYSH   DARKPRISON0000_key+0
// 000   ----------------------------------------
        BYTE           VOICE   96
        BYTE           VOL     36
        BYTE   W01
        BYTE           PAN     c_v-30
        BYTE   W92
        BYTE   W03
// 001   ----------------------------------------
        BYTE   W96
// 002   ----------------------------------------
        BYTE   W24
        BYTE           N24     Dn4   v071
        BYTE   W24
        BYTE           N72     En4
        BYTE   W48
// 003   ----------------------------------------
        BYTE   W24
        BYTE           N48
        BYTE   W48
        BYTE           N90     Fs4   v066   gtp1
        BYTE   W12
        BYTE           N11     An4   v060
        BYTE   W12
// 004   ----------------------------------------
        BYTE                   Bn4
        BYTE   W12
        BYTE                   Cn5
        BYTE   W12
        BYTE                   Dn5
        BYTE   W12
        BYTE           N23     En5
        BYTE   W24
        BYTE           N06     Fn5
        BYTE   W06
        BYTE           N03     Gn5
        BYTE   W06
        BYTE           N68     An5   v060   gtp3
        BYTE   W24
// 005   ----------------------------------------
        BYTE   W48
        BYTE           N11     Gn5
        BYTE   W12
        BYTE                   Fn5
        BYTE   W12
        BYTE           N92     Gn5
        BYTE   W24
// 006   ----------------------------------------
        BYTE   W72
DARKPRISON0000_2_LOOP:
        BYTE           N84     An2   v094   gtp1
        BYTE   W24
// 007   ----------------------------------------
        BYTE   W60
        BYTE           N13     Bn2
        BYTE   W12
        BYTE           N48     Cn3   v094   gtp1
        BYTE   W24
// 008   ----------------------------------------
        BYTE   W24
        BYTE                   En3
        BYTE   W48
        BYTE                   Dn3
        BYTE   W24
// 009   ----------------------------------------
        BYTE   W24
        BYTE                   Bn2
        BYTE   W48
        BYTE                   Cn3
        BYTE   W24
// 010   ----------------------------------------
        BYTE   W24
        BYTE                   Dn3
        BYTE   W48
        BYTE           N72     En3   v094   gtp1
        BYTE   W24
// 011   ----------------------------------------
        BYTE   W48
        BYTE           N13     Dn3
        BYTE   W12
        BYTE                   Cn3
        BYTE   W12
        BYTE           N48     Bn2   v094   gtp1
        BYTE   W24
// 012   ----------------------------------------
        BYTE   W24
        BYTE                   Gn2
        BYTE   W48
        BYTE           N92     An2   v094   gtp3
        BYTE   W24
// 013   ----------------------------------------
        BYTE   W72
        BYTE           N24     An2   v094   gtp1
        BYTE   W24
// 014   ----------------------------------------
        BYTE                   Bn2
        BYTE   W24
        BYTE                   Cn3
        BYTE   W24
        BYTE                   Dn3
        BYTE   W24
        BYTE           TIE     En3
        BYTE   W24
// 015   ----------------------------------------
        BYTE   W72
        BYTE           N24     Bn3   v094   gtp1
        BYTE   W01
        BYTE           EOT     En3
        BYTE   W23
// 016   ----------------------------------------
        BYTE           N24     Cn4   v094   gtp1
        BYTE   W24
        BYTE                   Dn4
        BYTE   W24
        BYTE                   En4
        BYTE   W24
        BYTE           TIE     Bn3
        BYTE   W24
// 017   ----------------------------------------
        BYTE   W96
// 018   ----------------------------------------
        BYTE   W72
        BYTE           EOT
        BYTE           N92     En6   v047   gtp3
        BYTE   W24
// 019   ----------------------------------------
        BYTE   W72
        BYTE           N11     An5   v056
        BYTE   W12
        BYTE                   Bn5   v052
        BYTE   W12
// 020   ----------------------------------------
        BYTE                   Cn6
        BYTE   W12
        BYTE           N23     Dn6   v055
        BYTE   W24
        BYTE           N11     Cn6   v052
        BYTE   W12
        BYTE           N03     Bn5
        BYTE   W04
        BYTE                   Cn6   v054
        BYTE   W04
        BYTE                   Bn5   v050
        BYTE   W04
        BYTE           N11     An5   v052
        BYTE   W12
        BYTE           N92     Fn5   v052   gtp3
        BYTE   W24
// 021   ----------------------------------------
        BYTE   W72
        BYTE           N44     Gn5   v052   gtp3
        BYTE   W24
// 022   ----------------------------------------
        BYTE   W24
        BYTE                   An5
        BYTE   W48
        BYTE           N68     En5   v057   gtp3
        BYTE   W24
// 023   ----------------------------------------
        BYTE   W48
        BYTE           N11     Cn5   v060
        BYTE   W12
        BYTE                   Dn5   v055
        BYTE   W12
        BYTE           N68     En5   v057   gtp3
        BYTE   W24
// 024   ----------------------------------------
        BYTE   W48
        BYTE           N11     Cn5   v060
        BYTE   W12
        BYTE                   Dn5   v055
        BYTE   W12
        BYTE           N92     En5   v057   gtp3
        BYTE   W24
// 025   ----------------------------------------
        BYTE   W72
        BYTE           N11     En5   v067
        BYTE   W12
        BYTE                   Fn5   v057
        BYTE   W12
// 026   ----------------------------------------
        BYTE                   Gn5   v053
        BYTE   W12
        BYTE           N44     An5   v057   gtp3
        BYTE   W48
        BYTE           N11     Gn5   v055
        BYTE   W12
        BYTE           N23
        BYTE   W24
// 027   ----------------------------------------
        BYTE           N11     Fn5
        BYTE   W12
        BYTE           N80     Fn5   v055   gtp3
        BYTE   W84
// 028   ----------------------------------------
        BYTE           N23     En5
        BYTE   W24
        BYTE                   Fn5
        BYTE   W24
        BYTE                   Gn5
        BYTE   W24
        BYTE           N92     An5   v055   gtp3
        BYTE   W24
// 029   ----------------------------------------
        BYTE   W72
        BYTE           N44     Bn5   v040   gtp3
        BYTE   W24
// 030   ----------------------------------------
        BYTE   W24
        BYTE                   An5   v054
        BYTE   W48
        BYTE           N92     En5   v055   gtp3
        BYTE   W24
// 031   ----------------------------------------
        BYTE   W72
        BYTE           N44     Dn5   v055   gtp3
        BYTE   W24
// 032   ----------------------------------------
        BYTE   W24
        BYTE                   En5
        BYTE   W48
        BYTE           TIE
        BYTE   W24
// 033   ----------------------------------------
        BYTE   W72
        BYTE           N04     Bn4   v104
        BYTE   W06
        BYTE                   An4   v086
        BYTE   W06
        BYTE                   Gs4   v082
        BYTE   W06
        BYTE                   An4   v085
        BYTE   W06
// 034   ----------------------------------------
        BYTE                   Bn4   v109
        BYTE   W06
        BYTE                   An4   v091
        BYTE   W12
        BYTE                   An4   v090
        BYTE   W06
        BYTE                   Gs4   v104
        BYTE           N04     Bn4   v114
        BYTE   W06
        BYTE                   An4   v096
        BYTE   W12
        BYTE                   An4   v095
        BYTE   W06
        BYTE                   Bn4   v119
        BYTE   W06
        BYTE                   An4   v101
        BYTE   W06
        BYTE                   Gs4   v097
        BYTE   W06
        BYTE                   An4   v100
        BYTE   W05
        BYTE           EOT     En5
        BYTE   W01
        BYTE           N30     An3   v112   gtp1
        BYTE           N68     An5   v049   gtp1
        BYTE   W24
// 035   ----------------------------------------
        BYTE   W12
        BYTE           N06     An3   v112
        BYTE   W12
        BYTE                   Cn4
        BYTE   W12
        BYTE                   En4
        BYTE   W12
        BYTE           N24     Dn4   v112   gtp1
        BYTE           N68     Gn5   v049   gtp1
        BYTE   W36
        BYTE           N06     Dn4   v112
        BYTE   W12
// 036   ----------------------------------------
        BYTE                   Cn4
        BYTE   W12
        BYTE                   Bn3
        BYTE   W12
        BYTE           N07     Cn4
        BYTE           N68     An5   v049   gtp1
        BYTE   W06
        BYTE           N07     Bn3   v112
        BYTE   W06
        BYTE           N54     An3   v112   gtp1
        BYTE   W60
// 037   ----------------------------------------
        BYTE           N30     Bn3   v112   gtp1
        BYTE           N68     Bn5   v049   gtp1
        BYTE   W36
        BYTE           N30     Gn3   v112   gtp1
        BYTE   W36
        BYTE           N32     An3   v112   gtp3
        BYTE           N68     An5   v054   gtp1
        BYTE   W24
// 038   ----------------------------------------
        BYTE   W12
        BYTE           N13     An3   v112
        BYTE   W12
        BYTE                   Cn4
        BYTE   W12
        BYTE                   En4
        BYTE   W12
        BYTE           N36     Gn4   v112   gtp1
        BYTE           N32     Gn5   v059   gtp1
        BYTE                   Gn6   v026
        BYTE   W36
        BYTE           N13     Dn4   v112
        BYTE           N32     Bn5   v049   gtp1
        BYTE   W12
// 039   ----------------------------------------
        BYTE           N13     Bn3   v112
        BYTE   W12
        BYTE                   Gn3
        BYTE   W12
        BYTE           N68     An3   v112   gtp3
        BYTE   W72
// 040   ----------------------------------------
        BYTE           N08     Gn4   v096
        BYTE   W06
        BYTE                   Dn4
        BYTE   W06
        BYTE                   En4
        BYTE   W06
        BYTE                   Fn4
        BYTE   W06
        BYTE                   Gn4
        BYTE   W06
        BYTE                   An4
        BYTE   W06
        BYTE                   Bn4
        BYTE   W06
        BYTE                   Cn5
        BYTE   W06
        BYTE                   Dn5
        BYTE   W06
        BYTE                   En5
        BYTE   W06
        BYTE                   Fn5
        BYTE   W06
        BYTE                   Gn5
        BYTE   W06
        BYTE           N44     An4   v094   gtp3
        BYTE                   An5   v089
        BYTE   W24
// 041   ----------------------------------------
        BYTE   W24
        BYTE           N23     En4   v094
        BYTE           N23     En5   v089
        BYTE   W24
        BYTE                   Fn4   v094
        BYTE           N23     Fn5   v089
        BYTE   W24
        BYTE                   Gn4   v094
        BYTE           N23     Gn5   v089
        BYTE   W24
// 042   ----------------------------------------
        BYTE                   Fn4   v094
        BYTE           N23     Fn5   v089
        BYTE   W24
        BYTE                   En4   v094
        BYTE           N23     En5   v089
        BYTE   W24
        BYTE                   Dn4   v094
        BYTE           N23     Dn5   v089
        BYTE   W24
        BYTE           N32     Dn4   v094   gtp3
        BYTE                   Dn5   v089
        BYTE   W24
// 043   ----------------------------------------
        BYTE   W12
        BYTE           N11     Cn4   v094
        BYTE           N11     Cn5   v089
        BYTE   W12
        BYTE           N44     Cn4   v094   gtp3
        BYTE                   Cn5   v089
        BYTE   W48
        BYTE                   Cn4   v094
        BYTE           N44     Cn5   v089   gtp3
        BYTE   W24
// 044   ----------------------------------------
        BYTE   W24
        BYTE           N23     Dn4   v099
        BYTE           N23     Dn5   v094
        BYTE   W24
        BYTE                   En4   v099
        BYTE           N23     En5   v094
        BYTE   W24
        BYTE           N68     Fn3   v094   gtp3
        BYTE                   Fn4   v089
        BYTE   W24
// 045   ----------------------------------------
        BYTE   W48
        BYTE           N11     Gn3   v094
        BYTE           N11     Gn4   v089
        BYTE   W12
        BYTE                   An3   v094
        BYTE           N11     An4   v089
        BYTE   W12
        BYTE           N44     Bn3   v094   gtp3
        BYTE                   Bn4   v089
        BYTE   W24
// 046   ----------------------------------------
        BYTE   W24
        BYTE           N23     An3   v094
        BYTE           N23     An4   v089
        BYTE   W24
        BYTE                   Gn3   v094
        BYTE           N23     Gn4   v089
        BYTE   W24
        BYTE           N92     An3   v094   gtp3
        BYTE                   An4   v089
        BYTE   W24
// 047   ----------------------------------------
        BYTE   W72
        BYTE           N23     An3   v102
        BYTE           N96     An4   v082
        BYTE           N24     An5   v049   gtp1
        BYTE   W24
// 048   ----------------------------------------
        BYTE           N23     Bn3   v097
        BYTE           N24     Bn4   v102   gtp1
        BYTE                   Bn5   v054
        BYTE   W24
        BYTE           N23     Cn4   v097
        BYTE           N24     Cn5   v102   gtp1
        BYTE                   Cn6   v059
        BYTE   W24
        BYTE           N23     Dn4   v102
        BYTE           N24     Dn5   v102   gtp1
        BYTE                   Dn6   v064
        BYTE   W24
        BYTE           N68     En4   v092   gtp3
        BYTE                   En5
        BYTE           N68     En6   v064   gtp3
        BYTE   W24
// 049   ----------------------------------------
        BYTE   W48
        BYTE           N11     Dn4   v092
        BYTE           N13     Dn5   v102
        BYTE           N13     Dn6   v059
        BYTE   W12
        BYTE           N11     Cn4   v092
        BYTE           N13     Cn5   v102
        BYTE           N13     Cn6   v059
        BYTE   W12
        BYTE           N44     Bn3   v092   gtp3
        BYTE                   Bn4   v102
        BYTE           N44     Bn5   v059   gtp3
        BYTE   W24
// 050   ----------------------------------------
        BYTE   W24
        BYTE           N23     Gn3   v092
        BYTE           N23     Gn4   v102
        BYTE           N23     Gn5   v054
        BYTE   W24
        BYTE                   Bn3   v092
        BYTE           N23     Bn4   v102
        BYTE           N23     Bn5   v054
        BYTE   W24
        BYTE           N92     An3   v092   gtp3
        BYTE                   An4   v102
        BYTE           N92     An5   v054   gtp3
        BYTE   W24
// 051   ----------------------------------------
        BYTE   W72
        BYTE           N08     Cn4   v102
        BYTE   W06
        BYTE                   An3
        BYTE   W06
        BYTE                   Bn3
        BYTE   W06
        BYTE                   Cn4
        BYTE   W06
// 052   ----------------------------------------
        BYTE                   Dn4   v107
        BYTE   W06
        BYTE                   Bn3
        BYTE   W06
        BYTE                   Cn4
        BYTE   W06
        BYTE                   Dn4
        BYTE   W06
        BYTE                   En4   v112
        BYTE   W06
        BYTE                   Cn4
        BYTE   W06
        BYTE                   Dn4
        BYTE   W06
        BYTE                   En4
        BYTE   W06
        BYTE                   Fn4   v117
        BYTE   W06
        BYTE                   En4
        BYTE   W06
        BYTE                   Fn4
        BYTE   W06
        BYTE                   Gn4
        BYTE   W06
        BYTE           N68     An4   v112   gtp3
        BYTE   W24
// 053   ----------------------------------------
        BYTE   W48
        BYTE           N13     Gn4
        BYTE   W12
        BYTE                   Fn4
        BYTE   W12
        BYTE           N44     En4   v112   gtp3
        BYTE   W24
// 054   ----------------------------------------
        BYTE   W24
        BYTE                   Bn3
        BYTE   W48
        BYTE           N92     An3   v112   gtp3
        BYTE                   Cn4   v062
        BYTE   W24
// 055   ----------------------------------------
        BYTE   W72
        BYTE                   An3   v077
        BYTE           N92     Cn4   v082   gtp3
        BYTE   W24
// 056   ----------------------------------------
        BYTE   W72
        BYTE   GoTo
         POIN2  DARKPRISON0000_2_LOOP
        BYTE   FINE

//****************** Track 3 (Midi-Chn.3) ******************//

DARKPRISON0000_3:
        BYTE   KEYSH   DARKPRISON0000_key+0
// 000   ----------------------------------------
        BYTE           VOICE   97
        BYTE           VOL     36
        BYTE   W72
        BYTE           N90     An2   v075   gtp1
        BYTE   W24
// 001   ----------------------------------------
        BYTE   W72
        BYTE                   Gs2
        BYTE   W24
// 002   ----------------------------------------
        BYTE   W72
        BYTE                   Gn2
        BYTE           N24     Cn4   v083
        BYTE   W24
// 003   ----------------------------------------
        BYTE                   Dn4
        BYTE   W24
        BYTE                   En4
        BYTE   W24
        BYTE                   Cn4
        BYTE   W24
        BYTE           N90     An2   v075   gtp1
        BYTE           N11     Dn4   v083
        BYTE   W12
        BYTE                   An3   v091
        BYTE   W12
// 004   ----------------------------------------
        BYTE                   Bn3
        BYTE   W12
        BYTE                   Cn4
        BYTE   W12
        BYTE                   Dn4
        BYTE   W12
        BYTE           N23     En4
        BYTE   W24
        BYTE           N06     Fn4
        BYTE   W06
        BYTE           N05     Gn4
        BYTE   W06
        BYTE           N42     An2   v075   gtp1
        BYTE           N68     An4   v091   gtp3
        BYTE   W24
// 005   ----------------------------------------
        BYTE   W24
        BYTE           N42     Cn3   v075   gtp1
        BYTE   W24
        BYTE           N11     Gn4   v091
        BYTE   W12
        BYTE                   Fn4
        BYTE   W12
        BYTE           N90     Bn2   v075   gtp1
        BYTE           N44     Gn4   v091
        BYTE   W24
// 006   ----------------------------------------
        BYTE   W24
        BYTE           N40     Dn4
        BYTE   W48
DARKPRISON0000_3_LOOP:
        BYTE           N06     Cn3   v082
        BYTE           N06     Fn3   v102
        BYTE   W12
        BYTE                   Fn3   v072
        BYTE           N06     An3   v092
        BYTE   W12
// 007   ----------------------------------------
        BYTE                   Fn3   v082
        BYTE           N06     An3   v102
        BYTE   W12
        BYTE                   Fn3   v072
        BYTE           N06     An3   v092
        BYTE   W12
        BYTE                   Fn3   v082
        BYTE           N06     An3   v102
        BYTE   W12
        BYTE                   An3   v072
        BYTE           N06     Cn4   v092
        BYTE   W12
        BYTE                   An3   v082
        BYTE           N06     Cn4   v102
        BYTE   W12
        BYTE                   An3   v072
        BYTE           N06     Cn4   v092
        BYTE   W12
        BYTE           N12     An3   v082
        BYTE           N12     Cn4   v102
        BYTE   W12
        BYTE           N06     Gn3   v072
        BYTE           N06     Bn3   v092
        BYTE   W12
// 008   ----------------------------------------
DARKPRISON0000_3_8:
        BYTE           N06     Gn3   v082
        BYTE           N06     Bn3   v102
        BYTE   W12
        BYTE                   Gn3   v072
        BYTE           N06     Bn3   v092
        BYTE   W12
        BYTE                   Gn3   v082
        BYTE           N06     Bn3   v102
        BYTE   W12
        BYTE                   Bn3   v072
        BYTE           N06     Dn4   v092
        BYTE   W12
        BYTE                   Bn3   v082
        BYTE           N06     Dn4   v102
        BYTE   W12
        BYTE                   Bn3   v072
        BYTE           N06     Dn4   v092
        BYTE   W12
        BYTE           N12     Bn3   v082
        BYTE           N12     Dn4   v102
        BYTE   W12
        BYTE           N06     An3   v072
        BYTE           N06     Cn4   v092
        BYTE   W12
        BYTE   PEND
// 009   ----------------------------------------
DARKPRISON0000_3_9:
        BYTE           N06     An3   v082
        BYTE           N06     Cn4   v102
        BYTE   W12
        BYTE                   An3   v072
        BYTE           N06     Cn4   v092
        BYTE   W12
        BYTE                   An3   v082
        BYTE           N06     Cn4   v102
        BYTE   W12
        BYTE                   Cn4   v072
        BYTE           N06     En4   v092
        BYTE   W12
        BYTE                   Cn4   v082
        BYTE           N06     En4   v102
        BYTE   W12
        BYTE                   Cn4   v072
        BYTE           N06     En4   v092
        BYTE   W12
        BYTE           N12     Cn4   v082
        BYTE           N12     En4   v102
        BYTE   W12
        BYTE           N06     Bn3   v072
        BYTE           N06     Dn4   v092
        BYTE   W12
        BYTE   PEND
// 010   ----------------------------------------
        BYTE                   Bn3   v082
        BYTE           N06     Dn4   v102
        BYTE   W12
        BYTE                   Bn3   v072
        BYTE           N06     Dn4   v092
        BYTE   W12
        BYTE           N12     Bn3   v082
        BYTE           N12     Dn4   v102
        BYTE   W12
        BYTE           N06     An3   v072
        BYTE           N06     Cn4   v092
        BYTE   W12
        BYTE                   An3   v082
        BYTE           N06     Cn4   v102
        BYTE   W12
        BYTE                   An3   v072
        BYTE           N06     Cn4   v092
        BYTE   W12
        BYTE           N12     An3   v082
        BYTE           N12     Cn4   v102
        BYTE   W12
        BYTE           N06     Gn3   v072
        BYTE           N06     Bn3   v092
        BYTE   W12
// 011   ----------------------------------------
        BYTE   PATT
         POIN2  DARKPRISON0000_3_8
// 012   ----------------------------------------
        BYTE   PATT
         POIN2  DARKPRISON0000_3_9
// 013   ----------------------------------------
        BYTE           N06     Bn3   v082
        BYTE           N06     Dn4   v102
        BYTE   W12
        BYTE                   Bn3   v072
        BYTE           N06     Dn4   v092
        BYTE   W12
        BYTE                   Bn3   v082
        BYTE           N06     Dn4   v102
        BYTE   W12
        BYTE                   Dn4   v072
        BYTE           N06     Fn4   v092
        BYTE   W12
        BYTE                   Dn4   v082
        BYTE           N06     Fn4   v102
        BYTE   W12
        BYTE                   Dn4   v072
        BYTE           N06     Fn4   v092
        BYTE   W12
        BYTE           N12     Dn4   v082
        BYTE           N12     Fn4   v102
        BYTE   W12
        BYTE           N06     Cn4   v072
        BYTE           N06     En4   v092
        BYTE   W12
// 014   ----------------------------------------
        BYTE                   Cn4   v082
        BYTE           N06     En4   v102
        BYTE   W12
        BYTE                   Cn4   v072
        BYTE           N06     En4   v092
        BYTE   W12
        BYTE           N12     Cn4   v082
        BYTE           N12     En4   v102
        BYTE   W12
        BYTE           N06     Bn3   v072
        BYTE           N06     Dn4   v092
        BYTE   W12
        BYTE                   Bn3   v082
        BYTE           N06     Dn4   v102
        BYTE   W12
        BYTE                   Bn3   v072
        BYTE           N06     Dn4   v092
        BYTE   W12
        BYTE           N12     Bn3   v082
        BYTE           N12     Dn4   v102
        BYTE   W12
        BYTE           N06     An3   v072
        BYTE           N06     Cn4   v092
        BYTE   W12
// 015   ----------------------------------------
        BYTE                   An3   v082
        BYTE           N06     Cn4   v102
        BYTE   W12
        BYTE                   An3   v072
        BYTE           N06     Cn4   v092
        BYTE   W12
        BYTE           N12     An3   v082
        BYTE           N12     Cn4   v102
        BYTE   W12
        BYTE           N06     Gn3   v072
        BYTE           N06     Bn3   v092
        BYTE   W12
        BYTE                   Gn3   v082
        BYTE           N06     Bn3   v102
        BYTE   W12
        BYTE                   Gn3   v072
        BYTE           N06     Bn3   v092
        BYTE   W12
        BYTE           N12     Gn3   v082
        BYTE           N12     Bn3   v102
        BYTE   W12
        BYTE           N06     Fn3   v072
        BYTE           N06     An3   v092
        BYTE   W12
// 016   ----------------------------------------
        BYTE                   Fn3   v082
        BYTE           N06     An3   v102
        BYTE   W12
        BYTE                   Fn3   v072
        BYTE           N06     An3   v092
        BYTE   W12
        BYTE           N12     Fn3   v082
        BYTE           N12     An3   v102
        BYTE   W12
        BYTE           N06     En3   v072
        BYTE           N06     Gn3   v092
        BYTE   W12
        BYTE                   En3   v082
        BYTE           N06     Gn3   v102
        BYTE   W12
        BYTE                   En3   v072
        BYTE           N06     Gn3   v092
        BYTE   W12
        BYTE           N11     En3   v079
        BYTE           N11     Gn3   v099
        BYTE   W12
        BYTE                   Dn3   v077
        BYTE           N11     Fn3   v097
        BYTE   W12
// 017   ----------------------------------------
        BYTE                   En3   v079
        BYTE           N11     Gn3   v099
        BYTE   W12
        BYTE                   Fn3   v077
        BYTE           N11     An3   v097
        BYTE   W12
        BYTE                   Gn3   v079
        BYTE           N11     Bn3   v099
        BYTE   W12
        BYTE                   Fn3   v077
        BYTE           N11     An3   v097
        BYTE   W12
        BYTE                   Gn3   v079
        BYTE           N11     Bn3   v099
        BYTE   W12
        BYTE                   An3   v077
        BYTE           N11     Cn4   v097
        BYTE   W12
        BYTE                   Bn3   v084
        BYTE           N11     Dn4   v104
        BYTE   W12
        BYTE                   Cn4   v082
        BYTE           N11     En4   v102
        BYTE   W12
// 018   ----------------------------------------
        BYTE                   Dn4   v084
        BYTE           N11     Fn4   v104
        BYTE   W12
        BYTE                   En4   v082
        BYTE           N11     Gn4   v102
        BYTE   W12
        BYTE                   Fn4   v084
        BYTE           N11     An4   v104
        BYTE   W12
        BYTE                   Gn4   v082
        BYTE           N11     Bn4   v102
        BYTE   W12
        BYTE                   An4   v084
        BYTE           N06     Cn5   v104
        BYTE   W12
        BYTE           N11     Bn4   v082
        BYTE           N11     Dn5   v102
        BYTE   W12
        BYTE           N92     En4   v081   gtp3
        BYTE                   En5   v091
        BYTE   W24
// 019   ----------------------------------------
        BYTE   W72
        BYTE           N11     An3   v087
        BYTE           N11     An4
        BYTE   W12
        BYTE                   Bn3   v083
        BYTE           N11     Bn4
        BYTE   W12
// 020   ----------------------------------------
        BYTE                   Cn4
        BYTE           N11     Cn5
        BYTE   W12
        BYTE           N23     Dn4   v086
        BYTE           N23     Dn5
        BYTE   W24
        BYTE           N11     Cn4   v083
        BYTE           N11     Cn5
        BYTE   W12
        BYTE           N03     Bn3
        BYTE           N04     Bn4
        BYTE   W04
        BYTE           N03     Cn4   v086
        BYTE           N04     Cn5
        BYTE   W04
        BYTE           N03     Bn3   v081
        BYTE           N04     Bn4
        BYTE   W04
        BYTE           N11     An3   v083
        BYTE           N11     An4
        BYTE   W12
        BYTE           N92     Fn3   v082   gtp3
        BYTE                   Fn4
        BYTE   W24
// 021   ----------------------------------------
        BYTE   W72
        BYTE           N44     Gn3   v082   gtp3
        BYTE                   Gn4
        BYTE   W24
// 022   ----------------------------------------
        BYTE   W24
        BYTE                   An3
        BYTE           N44     An4   v082   gtp3
        BYTE   W48
        BYTE           N68     En3   v087   gtp3
        BYTE                   En4
        BYTE   W24
// 023   ----------------------------------------
        BYTE   W48
        BYTE           N11     Cn3   v091
        BYTE           N11     Cn4
        BYTE   W12
        BYTE                   Dn3   v086
        BYTE           N11     Dn4
        BYTE   W12
        BYTE           N68     En3   v087   gtp3
        BYTE                   En4
        BYTE   W24
// 024   ----------------------------------------
        BYTE   W48
        BYTE           N11     Cn3   v091
        BYTE           N11     Cn4
        BYTE   W12
        BYTE                   Dn3   v086
        BYTE           N11     Dn4
        BYTE   W12
        BYTE           N92     En3   v087   gtp3
        BYTE                   En4
        BYTE   W24
// 025   ----------------------------------------
        BYTE   W72
        BYTE           N11     En3   v081
        BYTE           N11     En4   v097
        BYTE           N11     En5   v048
        BYTE   W12
        BYTE                   Fn3   v071
        BYTE           N11     Dn4   v087
        BYTE           N11     Dn5   v048
        BYTE   W12
// 026   ----------------------------------------
        BYTE                   Gn3   v067
        BYTE           N11     Cs4   v083
        BYTE           N11     Cs5   v044
        BYTE   W12
        BYTE           N44     An3   v077   gtp3
        BYTE                   An4   v087
        BYTE   W48
        BYTE           N11     Gn3   v085
        BYTE           N11     Gn4
        BYTE   W12
        BYTE           N23     Gn3
        BYTE           N23     Gn4
        BYTE   W24
// 027   ----------------------------------------
        BYTE           N11     Fn3
        BYTE           N11     Fn4
        BYTE   W12
        BYTE           N80     Fn3   v085   gtp3
        BYTE                   Fn4
        BYTE   W84
// 028   ----------------------------------------
        BYTE           N23     En3
        BYTE           N23     En4
        BYTE   W24
        BYTE                   Fn3
        BYTE           N23     Fn4
        BYTE   W24
        BYTE                   Gn3
        BYTE           N23     Gn4
        BYTE   W24
        BYTE           N92     An3   v085   gtp3
        BYTE                   An4
        BYTE   W24
// 029   ----------------------------------------
        BYTE   W72
        BYTE           N44     Bn3   v091   gtp3
        BYTE                   Bn4
        BYTE   W24
// 030   ----------------------------------------
        BYTE   W24
        BYTE                   An3   v087
        BYTE           N44     An4   v087   gtp3
        BYTE   W48
        BYTE           N92     En3   v085   gtp3
        BYTE                   En4
        BYTE   W24
// 031   ----------------------------------------
        BYTE   W72
        BYTE           N44     Dn3   v085   gtp3
        BYTE                   Dn4
        BYTE   W24
// 032   ----------------------------------------
        BYTE   W24
        BYTE                   En3
        BYTE           N44     En4   v085   gtp3
        BYTE   W48
        BYTE           TIE     En3
        BYTE           TIE     En4
        BYTE   W24
// 033   ----------------------------------------
        BYTE   W96
// 034   ----------------------------------------
        BYTE   W68
        BYTE   W03
        BYTE           EOT     En3
        BYTE                   En4
        BYTE   W01
        BYTE           N11     Cn3   v061
        BYTE           N11     An3   v071
        BYTE   W18
        BYTE           N05     Cn3   v052
        BYTE           N05     En3
        BYTE           N05     An3   v062
        BYTE   W06
// 035   ----------------------------------------
        BYTE           N03     Cn3   v058
        BYTE           N03     En3
        BYTE           N03     An3   v068
        BYTE   W12
        BYTE                   Cn3   v064
        BYTE           N03     En3
        BYTE           N03     An3   v074
        BYTE   W12
        BYTE                   Cn3   v062
        BYTE           N03     En3
        BYTE           N03     An3   v072
        BYTE   W12
        BYTE                   Cn3   v059
        BYTE           N03     En3
        BYTE           N03     An3   v070
        BYTE   W12
        BYTE           N11     Gn3   v061
        BYTE           N11     Bn3   v071
        BYTE   W18
        BYTE           N05     Dn3   v052
        BYTE           N05     Gn3
        BYTE           N05     Bn3   v062
        BYTE   W06
        BYTE           N03     Dn3   v058
        BYTE           N03     Gn3
        BYTE           N03     Bn3   v068
        BYTE   W12
        BYTE                   Dn3   v064
        BYTE           N03     Gn3
        BYTE           N03     Bn3   v074
        BYTE   W12
// 036   ----------------------------------------
        BYTE                   Dn3   v062
        BYTE           N03     Gn3
        BYTE           N03     Bn3   v072
        BYTE   W12
        BYTE                   Dn3   v059
        BYTE           N03     Gn3
        BYTE           N03     Bn3   v070
        BYTE   W12
        BYTE           N11     An3   v061
        BYTE           N11     Cn4   v071
        BYTE   W18
        BYTE           N05     Fn3   v052
        BYTE           N05     An3
        BYTE           N05     Cn4   v062
        BYTE   W06
        BYTE           N03     Fn3   v058
        BYTE           N03     An3
        BYTE           N03     Cn4   v068
        BYTE   W12
        BYTE                   Fn3   v064
        BYTE           N03     An3
        BYTE           N03     Cn4   v074
        BYTE   W12
        BYTE                   Fn3   v062
        BYTE           N03     An3
        BYTE           N03     Cn4   v072
        BYTE   W12
        BYTE                   Fn3   v059
        BYTE           N03     An3
        BYTE           N03     Cn4   v070
        BYTE   W12
// 037   ----------------------------------------
        BYTE           N11     Gn3   v061
        BYTE           N11     Bn3   v071
        BYTE   W18
        BYTE           N05     Dn3   v052
        BYTE           N05     Gn3
        BYTE           N05     Bn3   v062
        BYTE   W06
        BYTE           N03     Dn3   v058
        BYTE           N03     Gn3
        BYTE           N03     Bn3   v068
        BYTE   W12
        BYTE                   Dn3   v064
        BYTE           N03     Gn3
        BYTE           N03     Bn3   v074
        BYTE   W12
        BYTE                   Dn3   v062
        BYTE           N03     Gn3
        BYTE           N03     Bn3   v072
        BYTE   W12
        BYTE                   Dn3   v059
        BYTE           N03     Gn3
        BYTE           N03     Bn3   v070
        BYTE   W12
        BYTE           N11     En3   v061
        BYTE           N11     An3   v071
        BYTE   W18
        BYTE           N05     En3   v052
        BYTE           N05     An3   v062
        BYTE   W06
// 038   ----------------------------------------
        BYTE           N03     En3   v058
        BYTE           N03     An3   v068
        BYTE   W12
        BYTE                   En3   v064
        BYTE           N03     An3   v074
        BYTE   W12
        BYTE                   En3   v062
        BYTE           N03     An3   v072
        BYTE   W12
        BYTE                   En3   v059
        BYTE           N03     An3   v070
        BYTE   W12
        BYTE           N11     Gn3   v061
        BYTE           N11     Bn3   v071
        BYTE   W18
        BYTE           N05     Gn3   v052
        BYTE           N05     Bn3   v062
        BYTE   W06
        BYTE           N03     Gn3   v058
        BYTE           N03     Bn3   v068
        BYTE   W12
        BYTE                   Gn3   v064
        BYTE           N03     Bn3   v074
        BYTE   W12
// 039   ----------------------------------------
        BYTE                   Gn3   v062
        BYTE           N03     Bn3   v072
        BYTE   W12
        BYTE                   Gn3   v059
        BYTE           N03     Bn3   v070
        BYTE   W12
        BYTE           N11     An3   v061
        BYTE           N11     Cn4   v071
        BYTE   W18
        BYTE           N05     An3   v052
        BYTE           N05     Cn4   v062
        BYTE   W06
        BYTE           N03     An3   v058
        BYTE           N03     Cn4   v068
        BYTE   W12
        BYTE                   An3   v064
        BYTE           N03     Cn4   v074
        BYTE   W12
        BYTE                   An3   v062
        BYTE           N03     Cn4   v072
        BYTE   W12
        BYTE                   An3   v059
        BYTE           N03     Cn4   v070
        BYTE   W12
// 040   ----------------------------------------
        BYTE           N11     Gn3   v061
        BYTE           N11     Bn3   v071
        BYTE   W18
        BYTE           N05     Gn3   v052
        BYTE           N05     Bn3   v062
        BYTE   W06
        BYTE           N03     Gn3   v058
        BYTE           N03     Bn3   v068
        BYTE   W12
        BYTE                   Gn3   v064
        BYTE           N03     Bn3   v074
        BYTE   W12
        BYTE                   Gn3   v062
        BYTE           N03     Bn3   v072
        BYTE   W12
        BYTE                   Gn3   v059
        BYTE           N03     Bn3   v070
        BYTE   W12
        BYTE           N92     Cn3   v070   gtp3
        BYTE   W24
// 041   ----------------------------------------
        BYTE   W72
        BYTE                   Bn2   v075
        BYTE   W24
// 042   ----------------------------------------
        BYTE   W72
        BYTE                   Cn3
        BYTE   W24
// 043   ----------------------------------------
        BYTE   W72
        BYTE           N44     Dn3   v075   gtp3
        BYTE   W24
// 044   ----------------------------------------
        BYTE   W24
        BYTE                   Cn3
        BYTE   W48
        BYTE           N92     An2   v055   gtp3
        BYTE   W24
// 045   ----------------------------------------
        BYTE   W72
        BYTE                   Dn3
        BYTE   W24
// 046   ----------------------------------------
        BYTE   W72
        BYTE                   En3   v060
        BYTE   W24
// 047   ----------------------------------------
        BYTE   W72
        BYTE           N23     En3   v068
        BYTE   W24
// 048   ----------------------------------------
        BYTE                   Dn3   v081
        BYTE   W24
        BYTE                   Cn3
        BYTE   W24
        BYTE                   Bn2
        BYTE   W24
        BYTE           N92     An2   v064   gtp3
        BYTE   W24
// 049   ----------------------------------------
        BYTE   W72
        BYTE                   Dn3   v084
        BYTE   W24
// 050   ----------------------------------------
        BYTE   W72
        BYTE                   An2   v064
        BYTE   W24
// 051   ----------------------------------------
        BYTE   W72
        BYTE                   En3   v074
        BYTE   W24
// 052   ----------------------------------------
        BYTE   W72
        BYTE                   Cn3   v077
        BYTE   W24
// 053   ----------------------------------------
        BYTE   W72
        BYTE                   Dn3   v074
        BYTE   W24
// 054   ----------------------------------------
        BYTE   W72
        BYTE           TIE     Cn3   v067
        BYTE   W24
// 055   ----------------------------------------
        BYTE   W96
// 056   ----------------------------------------
        BYTE   W68
        BYTE   W03
        BYTE           EOT
        BYTE   W01
        BYTE   GoTo
         POIN2  DARKPRISON0000_3_LOOP
        BYTE   FINE

//****************** Track 4 (Midi-Chn.4) ******************//

DARKPRISON0000_4:
        BYTE   KEYSH   DARKPRISON0000_key+0
// 000   ----------------------------------------
        BYTE           VOICE   105
        BYTE           VOL     36
        BYTE   W01
        BYTE           PAN     c_v+30
        BYTE   W68
        BYTE   W03
        BYTE           N90     An1   v103   gtp1
        BYTE   W24
// 001   ----------------------------------------
        BYTE   W72
        BYTE                   Gs1
        BYTE   W24
// 002   ----------------------------------------
        BYTE   W24
        BYTE           N24     Fn3   v093
        BYTE   W24
        BYTE           N12     En3
        BYTE   W12
        BYTE                   Dn3
        BYTE   W12
        BYTE           N90     Gn1   v103   gtp1
        BYTE                   En3   v093
        BYTE   W24
// 003   ----------------------------------------
        BYTE   W72
        BYTE                   Fs1   v103
        BYTE           N90     Dn3   v093   gtp1
        BYTE   W24
// 004   ----------------------------------------
        BYTE   W72
        BYTE                   Fn1   v103
        BYTE           TIE     Fn3   v073
        BYTE   W24
// 005   ----------------------------------------
        BYTE   W72
        BYTE           N90     Gn1   v103   gtp1
        BYTE   W24
// 006   ----------------------------------------
        BYTE   W66
        BYTE   W01
        BYTE           EOT     Fn3
        BYTE   W05
DARKPRISON0000_4_LOOP:
        BYTE           N08     An1   v092
        BYTE   W12
        BYTE                   An1   v082
        BYTE   W12
// 007   ----------------------------------------
DARKPRISON0000_4_7:
        BYTE           N08     An1   v092
        BYTE   W12
        BYTE                   An1   v082
        BYTE   W12
        BYTE                   An1   v092
        BYTE   W12
        BYTE                   An1   v082
        BYTE   W12
        BYTE                   An1   v092
        BYTE   W12
        BYTE                   An1   v082
        BYTE   W12
        BYTE                   An1   v092
        BYTE   W12
        BYTE                   An1   v082
        BYTE   W12
        BYTE   PEND
// 008   ----------------------------------------
        BYTE   PATT
         POIN2  DARKPRISON0000_4_7
// 009   ----------------------------------------
        BYTE   PATT
         POIN2  DARKPRISON0000_4_7
// 010   ----------------------------------------
        BYTE           N08     An1   v092
        BYTE   W12
        BYTE                   An1   v082
        BYTE   W12
        BYTE                   An1   v092
        BYTE   W12
        BYTE                   An1   v082
        BYTE   W12
        BYTE                   An1   v092
        BYTE   W12
        BYTE                   An1   v082
        BYTE   W12
        BYTE                   En2   v092
        BYTE   W12
        BYTE                   En2   v082
        BYTE   W12
// 011   ----------------------------------------
DARKPRISON0000_4_11:
        BYTE           N08     En2   v092
        BYTE   W12
        BYTE                   En2   v082
        BYTE   W12
        BYTE                   En2   v092
        BYTE   W12
        BYTE                   En2   v082
        BYTE   W12
        BYTE                   En2   v092
        BYTE   W12
        BYTE                   En2   v082
        BYTE   W12
        BYTE                   En2   v092
        BYTE   W12
        BYTE                   En2   v082
        BYTE   W12
        BYTE   PEND
// 012   ----------------------------------------
        BYTE   PATT
         POIN2  DARKPRISON0000_4_11
// 013   ----------------------------------------
        BYTE   PATT
         POIN2  DARKPRISON0000_4_11
// 014   ----------------------------------------
        BYTE           N08     En2   v092
        BYTE   W12
        BYTE                   En2   v082
        BYTE   W12
        BYTE                   En2   v092
        BYTE   W12
        BYTE                   En2   v082
        BYTE   W12
        BYTE                   En2   v092
        BYTE   W12
        BYTE                   En2   v082
        BYTE   W12
        BYTE                   Gn2   v092
        BYTE   W12
        BYTE                   Gn2   v082
        BYTE   W12
// 015   ----------------------------------------
DARKPRISON0000_4_15:
        BYTE           N08     Gn2   v092
        BYTE   W12
        BYTE                   Gn2   v082
        BYTE   W12
        BYTE                   Gn2   v092
        BYTE   W12
        BYTE                   Gn2   v082
        BYTE   W12
        BYTE                   Gn2   v092
        BYTE   W12
        BYTE                   Gn2   v082
        BYTE   W12
        BYTE                   Gn2   v092
        BYTE   W12
        BYTE                   Gn2   v082
        BYTE   W12
        BYTE   PEND
// 016   ----------------------------------------
        BYTE   PATT
         POIN2  DARKPRISON0000_4_15
// 017   ----------------------------------------
        BYTE   PATT
         POIN2  DARKPRISON0000_4_15
// 018   ----------------------------------------
        BYTE           N08     Gn2   v092
        BYTE   W12
        BYTE                   Gn2   v082
        BYTE   W12
        BYTE                   Gn2   v092
        BYTE   W12
        BYTE                   Gn2   v082
        BYTE   W12
        BYTE                   Gn2   v092
        BYTE   W12
        BYTE                   Gn2   v082
        BYTE   W12
        BYTE                   An1   v097
        BYTE   W12
        BYTE                   An1   v087
        BYTE   W12
// 019   ----------------------------------------
DARKPRISON0000_4_19:
        BYTE           N08     An1   v097
        BYTE   W12
        BYTE                   An1   v087
        BYTE   W12
        BYTE                   An1   v097
        BYTE   W12
        BYTE                   An1   v087
        BYTE   W12
        BYTE                   An1   v097
        BYTE   W12
        BYTE                   An1   v087
        BYTE   W12
        BYTE                   An1   v097
        BYTE   W12
        BYTE                   An1   v087
        BYTE   W12
        BYTE   PEND
// 020   ----------------------------------------
        BYTE                   An1   v097
        BYTE   W12
        BYTE                   An1   v087
        BYTE   W12
        BYTE                   An1   v097
        BYTE   W12
        BYTE                   An1   v087
        BYTE   W12
        BYTE                   An1   v097
        BYTE   W12
        BYTE                   An1   v087
        BYTE   W12
        BYTE                   Bn1   v097
        BYTE   W12
        BYTE                   Bn1   v087
        BYTE   W12
// 021   ----------------------------------------
        BYTE                   Bn1   v097
        BYTE   W12
        BYTE                   Bn1   v087
        BYTE   W12
        BYTE                   Bn1   v097
        BYTE   W12
        BYTE                   Bn1   v087
        BYTE   W12
        BYTE                   Bn1   v097
        BYTE   W12
        BYTE                   Bn1   v087
        BYTE   W12
        BYTE                   Bn1   v097
        BYTE   W12
        BYTE                   Bn1   v087
        BYTE   W12
// 022   ----------------------------------------
        BYTE                   Bn1   v097
        BYTE   W12
        BYTE                   Bn1   v087
        BYTE   W12
        BYTE                   Bn1   v097
        BYTE   W12
        BYTE                   Bn1   v087
        BYTE   W12
        BYTE                   Bn1   v097
        BYTE   W12
        BYTE                   Bn1   v087
        BYTE   W12
        BYTE                   Cn2   v097
        BYTE   W12
        BYTE                   Cn2   v087
        BYTE   W12
// 023   ----------------------------------------
        BYTE                   Cn2   v097
        BYTE   W12
        BYTE                   Cn2   v087
        BYTE   W12
        BYTE                   Cn2   v097
        BYTE   W12
        BYTE                   Cn2   v087
        BYTE   W12
        BYTE                   Cn2   v097
        BYTE   W12
        BYTE                   Cn2   v087
        BYTE   W12
        BYTE                   Cn2   v097
        BYTE   W12
        BYTE                   Cn2   v087
        BYTE   W12
// 024   ----------------------------------------
        BYTE                   Cn2   v097
        BYTE   W12
        BYTE                   Cn2   v087
        BYTE   W12
        BYTE                   Cn2   v097
        BYTE   W12
        BYTE                   Cn2   v087
        BYTE   W12
        BYTE                   Cn2   v097
        BYTE   W12
        BYTE                   Cn2   v087
        BYTE   W12
        BYTE                   Cs2   v097
        BYTE   W12
        BYTE                   Cs2   v087
        BYTE   W12
// 025   ----------------------------------------
        BYTE                   Cs2   v097
        BYTE   W12
        BYTE                   Cs2   v087
        BYTE   W12
        BYTE                   Cs2   v097
        BYTE   W12
        BYTE                   Cs2   v087
        BYTE   W12
        BYTE                   Cs2   v097
        BYTE   W12
        BYTE                   Cs2   v087
        BYTE   W12
        BYTE                   Cs2   v097
        BYTE   W12
        BYTE                   Cs2   v087
        BYTE   W12
// 026   ----------------------------------------
        BYTE                   Cs2   v097
        BYTE   W12
        BYTE                   Cs2   v087
        BYTE   W12
        BYTE                   Cs2   v097
        BYTE   W12
        BYTE                   Cs2   v087
        BYTE   W12
        BYTE                   Cs2   v097
        BYTE   W12
        BYTE                   Cs2   v087
        BYTE   W12
        BYTE                   Dn2   v097
        BYTE   W12
        BYTE                   Dn2   v087
        BYTE   W12
// 027   ----------------------------------------
        BYTE                   Dn2   v097
        BYTE   W12
        BYTE                   Dn2   v087
        BYTE   W12
        BYTE                   Dn2   v097
        BYTE   W12
        BYTE                   Dn2   v087
        BYTE   W12
        BYTE                   Dn2   v097
        BYTE   W12
        BYTE                   Dn2   v087
        BYTE   W12
        BYTE                   Dn2   v097
        BYTE   W12
        BYTE                   Dn2   v087
        BYTE   W12
// 028   ----------------------------------------
        BYTE                   Dn2   v097
        BYTE   W12
        BYTE                   Dn2   v087
        BYTE   W12
        BYTE                   Dn2   v097
        BYTE   W12
        BYTE                   Dn2   v087
        BYTE   W12
        BYTE                   Dn2   v097
        BYTE   W12
        BYTE                   Dn2   v087
        BYTE   W12
        BYTE                   Ds2   v097
        BYTE   W12
        BYTE                   Ds2   v087
        BYTE   W12
// 029   ----------------------------------------
        BYTE                   Ds2   v097
        BYTE   W12
        BYTE                   Ds2   v087
        BYTE   W12
        BYTE                   Ds2   v097
        BYTE   W12
        BYTE                   Ds2   v087
        BYTE   W12
        BYTE                   Ds2   v097
        BYTE   W12
        BYTE                   Ds2   v087
        BYTE   W12
        BYTE                   Ds2   v097
        BYTE   W12
        BYTE                   Ds2   v087
        BYTE   W12
// 030   ----------------------------------------
        BYTE                   Ds2   v097
        BYTE   W12
        BYTE                   Ds2   v087
        BYTE   W12
        BYTE                   Ds2   v097
        BYTE   W12
        BYTE                   Ds2   v087
        BYTE   W12
        BYTE                   Ds2   v097
        BYTE   W12
        BYTE                   Ds2   v087
        BYTE   W12
        BYTE                   En2   v097
        BYTE   W12
        BYTE                   En2   v087
        BYTE   W12
// 031   ----------------------------------------
DARKPRISON0000_4_31:
        BYTE           N08     En2   v097
        BYTE   W12
        BYTE                   En2   v087
        BYTE   W12
        BYTE                   En2   v097
        BYTE   W12
        BYTE                   En2   v087
        BYTE   W12
        BYTE                   En2   v097
        BYTE   W12
        BYTE                   En2   v087
        BYTE   W12
        BYTE                   En2   v097
        BYTE   W12
        BYTE                   En2   v087
        BYTE   W12
        BYTE   PEND
// 032   ----------------------------------------
        BYTE   PATT
         POIN2  DARKPRISON0000_4_31
// 033   ----------------------------------------
        BYTE   PATT
         POIN2  DARKPRISON0000_4_31
// 034   ----------------------------------------
        BYTE           N08     En2   v097
        BYTE   W12
        BYTE                   En2   v087
        BYTE   W12
        BYTE                   En2   v097
        BYTE   W12
        BYTE                   En2   v087
        BYTE   W12
        BYTE                   En2   v097
        BYTE   W12
        BYTE                   En2   v087
        BYTE   W11
        BYTE           N30     An2   v109   gtp1
        BYTE   W01
        BYTE           N14     An1   v092
        BYTE   W18
        BYTE           N06     An1   v082
        BYTE   W06
// 035   ----------------------------------------
        BYTE           N08     An1   v092
        BYTE   W11
        BYTE           N06     An2   v109
        BYTE   W01
        BYTE           N08     An1   v082
        BYTE   W11
        BYTE           N06     Cn3   v109
        BYTE   W01
        BYTE           N08     An1   v092
        BYTE   W11
        BYTE           N06     En3   v109
        BYTE   W01
        BYTE           N08     An1   v082
        BYTE   W11
        BYTE           N24     Dn3   v109   gtp1
        BYTE   W01
        BYTE           N14     Gn1   v092
        BYTE   W18
        BYTE           N06     Gn1   v082
        BYTE   W06
        BYTE           N08     Gn1   v097
        BYTE   W11
        BYTE           N06     Dn3   v109
        BYTE   W01
        BYTE           N08     Gn1   v082
        BYTE   W11
        BYTE           N06     Cn3   v109
        BYTE   W01
// 036   ----------------------------------------
        BYTE           N08     Gn1   v092
        BYTE   W11
        BYTE           N06     Bn2   v109
        BYTE   W01
        BYTE           N08     Gn1   v082
        BYTE   W11
        BYTE           N07     Cn3   v109
        BYTE   W01
        BYTE           N14     Fn1   v092
        BYTE   W05
        BYTE           N07     Bn2   v109
        BYTE   W06
        BYTE           N54     An2   v109   gtp1
        BYTE   W07
        BYTE           N06     Fn1   v082
        BYTE   W06
        BYTE           N08     Fn1   v092
        BYTE   W12
        BYTE                   Fn1   v082
        BYTE   W12
        BYTE                   Fn1   v092
        BYTE   W12
        BYTE                   Fn1   v087
        BYTE   W11
        BYTE           N30     Bn2   v109   gtp1
        BYTE   W01
// 037   ----------------------------------------
        BYTE           N14     Gn1   v092
        BYTE   W18
        BYTE           N06     Gn1   v082
        BYTE   W06
        BYTE           N08     Gn1   v092
        BYTE   W11
        BYTE           N30     Gn2   v089   gtp1
        BYTE   W01
        BYTE           N08     Gn1   v082
        BYTE   W12
        BYTE                   Gn1   v092
        BYTE   W12
        BYTE                   Gn1   v082
        BYTE   W11
        BYTE           N32     An2   v109   gtp3
        BYTE   W01
        BYTE           N14     An1   v092
        BYTE   W18
        BYTE           N06     An1   v082
        BYTE   W06
// 038   ----------------------------------------
        BYTE           N08     An1   v092
        BYTE   W11
        BYTE           N13     An2   v109
        BYTE   W01
        BYTE           N08     An1   v082
        BYTE   W11
        BYTE           N13     Cn3   v109
        BYTE   W01
        BYTE           N08     An1   v092
        BYTE   W11
        BYTE           N13     En3   v109
        BYTE   W01
        BYTE           N08     An1   v082
        BYTE   W11
        BYTE           N36     Gn3   v109   gtp1
        BYTE   W01
        BYTE           N14     Gn1   v092
        BYTE   W18
        BYTE           N06     Gn1   v082
        BYTE   W06
        BYTE           N08     Gn1   v092
        BYTE   W11
        BYTE           N13     Dn3   v109
        BYTE   W01
        BYTE           N08     Gn1   v082
        BYTE   W11
        BYTE           N13     Bn2   v109
        BYTE   W01
// 039   ----------------------------------------
        BYTE           N08     Gn1   v092
        BYTE   W11
        BYTE           N13     Gn2   v089
        BYTE   W01
        BYTE           N08     Gn1   v082
        BYTE   W11
        BYTE           N78     An2   v109   gtp1
        BYTE   W01
        BYTE           N14     Fn1   v092
        BYTE   W18
        BYTE           N06     Fn1   v082
        BYTE   W06
        BYTE           N08     Fn1   v092
        BYTE   W12
        BYTE                   Fn1   v082
        BYTE   W12
        BYTE                   Fn1   v092
        BYTE   W12
        BYTE                   Fn1   v082
        BYTE   W12
// 040   ----------------------------------------
        BYTE           N14     Gn1   v097
        BYTE   W18
        BYTE           N06     Gn1   v087
        BYTE   W06
        BYTE           N08     Gn1   v097
        BYTE   W12
        BYTE                   Gn1   v087
        BYTE   W12
        BYTE                   Gn1   v097
        BYTE   W12
        BYTE                   Gn1   v087
        BYTE   W12
        BYTE                   Fn1   v097
        BYTE   W12
        BYTE                   Fn1   v087
        BYTE   W12
// 041   ----------------------------------------
DARKPRISON0000_4_41:
        BYTE           N08     Fn1   v097
        BYTE   W12
        BYTE                   Fn1   v087
        BYTE   W12
        BYTE                   Fn1   v097
        BYTE   W12
        BYTE                   Fn1   v087
        BYTE   W12
        BYTE                   Fn1   v097
        BYTE   W12
        BYTE                   Fn1   v087
        BYTE   W12
        BYTE                   Gn1   v097
        BYTE   W12
        BYTE                   Gn1   v087
        BYTE   W12
        BYTE   PEND
// 042   ----------------------------------------
DARKPRISON0000_4_42:
        BYTE           N08     Gn1   v097
        BYTE   W12
        BYTE                   Gn1   v087
        BYTE   W12
        BYTE                   Gn1   v097
        BYTE   W12
        BYTE                   Gn1   v087
        BYTE   W12
        BYTE                   Gn1   v097
        BYTE   W12
        BYTE                   Gn1   v087
        BYTE   W12
        BYTE                   An1   v097
        BYTE   W12
        BYTE                   An1   v087
        BYTE   W12
        BYTE   PEND
// 043   ----------------------------------------
DARKPRISON0000_4_43:
        BYTE           N08     An1   v097
        BYTE   W12
        BYTE                   An1   v087
        BYTE   W12
        BYTE                   An1   v097
        BYTE   W12
        BYTE                   An1   v087
        BYTE   W12
        BYTE                   An1   v097
        BYTE   W12
        BYTE                   An1   v087
        BYTE   W12
        BYTE                   Gn1   v097
        BYTE   W12
        BYTE                   Gn1   v087
        BYTE   W12
        BYTE   PEND
// 044   ----------------------------------------
DARKPRISON0000_4_44:
        BYTE           N08     Gn1   v097
        BYTE   W12
        BYTE                   Gn1   v087
        BYTE   W12
        BYTE                   Gn1   v097
        BYTE   W12
        BYTE                   Gn1   v087
        BYTE   W12
        BYTE                   Gn1   v097
        BYTE   W12
        BYTE                   Gn1   v087
        BYTE   W12
        BYTE                   Fn1   v097
        BYTE   W12
        BYTE                   Fn1   v087
        BYTE   W12
        BYTE   PEND
// 045   ----------------------------------------
        BYTE   PATT
         POIN2  DARKPRISON0000_4_41
// 046   ----------------------------------------
        BYTE   PATT
         POIN2  DARKPRISON0000_4_42
// 047   ----------------------------------------
        BYTE   PATT
         POIN2  DARKPRISON0000_4_43
// 048   ----------------------------------------
        BYTE   PATT
         POIN2  DARKPRISON0000_4_44
// 049   ----------------------------------------
        BYTE   PATT
         POIN2  DARKPRISON0000_4_41
// 050   ----------------------------------------
        BYTE   PATT
         POIN2  DARKPRISON0000_4_42
// 051   ----------------------------------------
        BYTE   PATT
         POIN2  DARKPRISON0000_4_43
// 052   ----------------------------------------
        BYTE   PATT
         POIN2  DARKPRISON0000_4_44
// 053   ----------------------------------------
        BYTE   PATT
         POIN2  DARKPRISON0000_4_41
// 054   ----------------------------------------
        BYTE   PATT
         POIN2  DARKPRISON0000_4_42
// 055   ----------------------------------------
        BYTE   PATT
         POIN2  DARKPRISON0000_4_19
// 056   ----------------------------------------
        BYTE           N08     An1   v097
        BYTE   W12
        BYTE                   An1   v087
        BYTE   W12
        BYTE                   An1   v097
        BYTE   W12
        BYTE                   An1   v087
        BYTE   W12
        BYTE                   An1   v097
        BYTE   W12
        BYTE                   An1   v087
        BYTE   W12
        BYTE   GoTo
         POIN2  DARKPRISON0000_4_LOOP
        BYTE   FINE

//****************** Track 5 (Midi-Chn.5) ******************//

DARKPRISON0000_5:
        BYTE   KEYSH   DARKPRISON0000_key+0
// 000   ----------------------------------------
        BYTE           VOICE   101
        BYTE           VOL     36
        BYTE   W72
        BYTE           N68     Cn3   v087   gtp1
        BYTE                   En3   v095
        BYTE   W24
// 001   ----------------------------------------
        BYTE   W48
        BYTE           N12     Bn2   v088
        BYTE           N12     Dn3   v095
        BYTE   W12
        BYTE                   An2   v088
        BYTE           N12     Cn3   v095
        BYTE   W12
        BYTE           N92     Gs2   v088   gtp1
        BYTE                   Bn2   v095
        BYTE   W24
// 002   ----------------------------------------
        BYTE   W72
        BYTE                   Gn2   v088
        BYTE           N92     Cn3   v095   gtp1
        BYTE   W24
// 003   ----------------------------------------
        BYTE   W24
        BYTE           N21     Dn3   v080
        BYTE   W24
        BYTE                   En3
        BYTE   W24
        BYTE           N92     An2   v088   gtp1
        BYTE                   Dn3
        BYTE           N92     Fs3   v080   gtp1
        BYTE   W24
// 004   ----------------------------------------
        BYTE   W72
        BYTE                   An2   v088
        BYTE           N92     Fn3   v080   gtp1
        BYTE   W24
// 005   ----------------------------------------
        BYTE   W24
        BYTE           N44     Cn3   v088   gtp1
        BYTE   W48
        BYTE           N92     Gn2   v088   gtp1
        BYTE                   Bn2
        BYTE           N92     En3   v080   gtp1
        BYTE   W24
// 006   ----------------------------------------
        BYTE   W72
DARKPRISON0000_5_LOOP:
        BYTE   W24
// 007   ----------------------------------------
        BYTE   W96
// 008   ----------------------------------------
        BYTE   W96
// 009   ----------------------------------------
        BYTE   W96
// 010   ----------------------------------------
        BYTE   W96
// 011   ----------------------------------------
        BYTE   W96
// 012   ----------------------------------------
        BYTE   W96
// 013   ----------------------------------------
        BYTE   W96
// 014   ----------------------------------------
        BYTE   W96
// 015   ----------------------------------------
        BYTE   W96
// 016   ----------------------------------------
        BYTE   W96
// 017   ----------------------------------------
        BYTE   W96
// 018   ----------------------------------------
        BYTE   W96
// 019   ----------------------------------------
        BYTE   W96
// 020   ----------------------------------------
        BYTE   W96
// 021   ----------------------------------------
        BYTE   W96
// 022   ----------------------------------------
        BYTE   W96
// 023   ----------------------------------------
        BYTE   W96
// 024   ----------------------------------------
        BYTE   W96
// 025   ----------------------------------------
        BYTE   W96
// 026   ----------------------------------------
        BYTE   W96
// 027   ----------------------------------------
        BYTE   W96
// 028   ----------------------------------------
        BYTE   W96
// 029   ----------------------------------------
        BYTE   W96
// 030   ----------------------------------------
        BYTE   W96
// 031   ----------------------------------------
        BYTE   W96
// 032   ----------------------------------------
        BYTE   W96
// 033   ----------------------------------------
        BYTE   W96
// 034   ----------------------------------------
        BYTE   W72
        BYTE           N11     Cn3   v086
        BYTE           N11     En3
        BYTE           N11     An3   v096
        BYTE   W18
        BYTE           N05     Cn3   v077
        BYTE           N05     En3
        BYTE           N05     An3   v087
        BYTE   W06
// 035   ----------------------------------------
        BYTE           N03     Cn3   v083
        BYTE           N03     En3
        BYTE           N03     An3   v093
        BYTE   W12
        BYTE                   Cn3   v089
        BYTE           N03     En3
        BYTE           N03     An3   v099
        BYTE   W12
        BYTE                   Cn3   v087
        BYTE           N03     En3
        BYTE           N03     An3   v097
        BYTE   W12
        BYTE                   Cn3   v084
        BYTE           N03     En3
        BYTE           N03     An3   v095
        BYTE   W12
        BYTE           N11     Bn2   v086
        BYTE           N11     Dn3
        BYTE           N11     Gn3   v096
        BYTE   W18
        BYTE           N05     Bn2   v077
        BYTE           N05     Dn3
        BYTE           N05     Gn3   v087
        BYTE   W06
        BYTE           N03     Bn2   v083
        BYTE           N03     Dn3
        BYTE           N03     Gn3   v093
        BYTE   W12
        BYTE                   Bn2   v089
        BYTE           N03     Dn3
        BYTE           N03     Gn3   v099
        BYTE   W12
// 036   ----------------------------------------
        BYTE                   Bn2   v087
        BYTE           N03     Dn3
        BYTE           N03     Gn3   v097
        BYTE   W12
        BYTE                   Bn2   v084
        BYTE           N03     Dn3
        BYTE           N03     Gn3   v095
        BYTE   W12
        BYTE           N11     An2   v086
        BYTE           N11     Cn3
        BYTE           N11     Fn3   v096
        BYTE   W18
        BYTE           N05     An2   v077
        BYTE           N05     Cn3
        BYTE           N05     Fn3   v087
        BYTE   W06
        BYTE           N03     An2   v083
        BYTE           N03     Cn3
        BYTE           N03     Fn3   v093
        BYTE   W12
        BYTE                   An2   v089
        BYTE           N03     Cn3
        BYTE           N03     Fn3   v099
        BYTE   W12
        BYTE                   An2   v087
        BYTE           N03     Cn3
        BYTE           N03     Fn3   v097
        BYTE   W12
        BYTE                   An2   v084
        BYTE           N03     Cn3
        BYTE           N03     Fn3   v095
        BYTE   W12
// 037   ----------------------------------------
        BYTE           N11     Bn2   v086
        BYTE           N11     Dn3
        BYTE           N11     Gn3   v096
        BYTE   W18
        BYTE           N05     Bn2   v077
        BYTE           N05     Dn3
        BYTE           N05     Gn3   v087
        BYTE   W06
        BYTE           N03     Bn2   v083
        BYTE           N03     Dn3
        BYTE           N03     Gn3   v093
        BYTE   W12
        BYTE                   Bn2   v089
        BYTE           N03     Dn3
        BYTE           N03     Gn3   v099
        BYTE   W12
        BYTE                   Bn2   v087
        BYTE           N03     Dn3
        BYTE           N03     Gn3   v097
        BYTE   W12
        BYTE                   Bn2   v084
        BYTE           N03     Dn3
        BYTE           N03     Gn3   v095
        BYTE   W12
        BYTE           N11     Cn3   v086
        BYTE           N11     En3
        BYTE           N11     An3   v096
        BYTE   W18
        BYTE           N05     Cn3   v077
        BYTE           N05     En3
        BYTE           N05     An3   v087
        BYTE   W06
// 038   ----------------------------------------
        BYTE           N03     Cn3   v083
        BYTE           N03     En3
        BYTE           N03     An3   v093
        BYTE   W12
        BYTE                   Cn3   v089
        BYTE           N03     En3
        BYTE           N03     An3   v099
        BYTE   W12
        BYTE                   Cn3   v087
        BYTE           N03     En3
        BYTE           N03     An3   v097
        BYTE   W12
        BYTE                   Cn3   v084
        BYTE           N03     En3
        BYTE           N03     An3   v095
        BYTE   W12
        BYTE           N11     Bn2   v086
        BYTE           N11     Gn3   v096
        BYTE   W18
        BYTE           N05     Bn2   v077
        BYTE           N05     Dn3
        BYTE           N05     Gn3   v087
        BYTE   W06
        BYTE           N03     Bn2   v083
        BYTE           N03     Dn3
        BYTE           N03     Gn3   v093
        BYTE   W12
        BYTE                   Bn2   v089
        BYTE           N03     Dn3
        BYTE           N03     Gn3   v099
        BYTE   W12
// 039   ----------------------------------------
        BYTE                   Bn2   v087
        BYTE           N03     Dn3
        BYTE           N03     Gn3   v097
        BYTE   W12
        BYTE                   Bn2   v084
        BYTE           N03     Dn3
        BYTE           N03     Gn3   v095
        BYTE   W12
        BYTE           N11     An2   v086
        BYTE           N11     Fn3   v096
        BYTE   W18
        BYTE           N05     An2   v077
        BYTE           N05     Cn3
        BYTE           N05     Fn3   v087
        BYTE   W06
        BYTE           N03     An2   v083
        BYTE           N03     Cn3
        BYTE           N03     Fn3   v093
        BYTE   W12
        BYTE                   An2   v089
        BYTE           N03     Cn3
        BYTE           N03     Fn3   v099
        BYTE   W12
        BYTE                   An2   v087
        BYTE           N03     Cn3
        BYTE           N03     Fn3   v097
        BYTE   W12
        BYTE                   An2   v084
        BYTE           N03     Cn3
        BYTE           N03     Fn3   v095
        BYTE   W12
// 040   ----------------------------------------
        BYTE           N11     Bn2   v086
        BYTE           N11     Dn3
        BYTE           N11     Gn3   v096
        BYTE   W18
        BYTE           N05     Bn2   v077
        BYTE           N05     Dn3
        BYTE           N05     Gn3   v087
        BYTE   W06
        BYTE           N03     Bn2   v083
        BYTE           N03     Dn3
        BYTE           N03     Gn3   v093
        BYTE   W12
        BYTE                   Bn2   v089
        BYTE           N03     Dn3
        BYTE           N03     Gn3   v099
        BYTE   W12
        BYTE                   Bn2   v087
        BYTE           N03     Dn3
        BYTE           N03     Gn3   v097
        BYTE   W12
        BYTE                   Bn2   v084
        BYTE           N03     Dn3
        BYTE           N03     Gn3   v095
        BYTE   W12
        BYTE           N80     An2   v076   gtp3
        BYTE                   Cn3   v086
        BYTE           N80     Fn3   v096   gtp3
        BYTE   W24
// 041   ----------------------------------------
        BYTE   W72
        BYTE                   Bn2   v076
        BYTE           N80     Dn3   v086   gtp3
        BYTE                   Gn3   v096
        BYTE   W24
// 042   ----------------------------------------
        BYTE   W72
        BYTE           N52     Cn3   v076   gtp1
        BYTE                   En3   v086
        BYTE           N52     An3   v096   gtp1
        BYTE   W24
// 043   ----------------------------------------
        BYTE   W36
        BYTE           N05     Cn3   v105
        BYTE           N05     En3   v115
        BYTE   W12
        BYTE                   Cn3   v105
        BYTE           N05     En3   v115
        BYTE   W12
        BYTE                   En3   v105
        BYTE           N05     An3   v115
        BYTE   W12
        BYTE                   Cn3   v090
        BYTE           N05     Gn3   v110
        BYTE   W12
        BYTE                   Cn3   v090
        BYTE           N05     Gn3   v110
        BYTE   W12
// 044   ----------------------------------------
        BYTE                   Cn3   v090
        BYTE           N05     Gn3   v110
        BYTE   W12
        BYTE                   Cn3   v090
        BYTE           N05     An3   v110
        BYTE   W12
        BYTE                   Cn3   v090
        BYTE           N05     An3   v110
        BYTE   W12
        BYTE                   En3   v090
        BYTE           N05     Cn4   v110
        BYTE   W12
        BYTE                   En3   v090
        BYTE           N05     Cn4   v110
        BYTE   W12
        BYTE                   Cn3   v090
        BYTE           N05     An3   v110
        BYTE   W12
        BYTE                   Cn3   v090
        BYTE           N05     An3   v110
        BYTE   W12
        BYTE                   Bn2   v090
        BYTE           N05     Gn3   v110
        BYTE   W12
// 045   ----------------------------------------
        BYTE                   Cn3   v090
        BYTE           N05     An3   v110
        BYTE   W12
        BYTE                   An2   v090
        BYTE           N05     Fn3   v110
        BYTE   W12
        BYTE                   Cn3   v090
        BYTE           N05     An3   v110
        BYTE   W12
        BYTE                   Bn2   v090
        BYTE           N05     Gn3   v110
        BYTE   W12
        BYTE                   Cn3   v090
        BYTE           N05     An3   v110
        BYTE   W12
        BYTE                   An2   v090
        BYTE           N05     Fn3   v110
        BYTE   W12
        BYTE                   Dn3   v090
        BYTE           N05     Bn3   v110
        BYTE   W12
        BYTE                   Cn3   v090
        BYTE           N05     An3   v110
        BYTE   W12
// 046   ----------------------------------------
        BYTE                   Bn2   v090
        BYTE           N05     Gn3   v110
        BYTE   W12
        BYTE                   Cn3   v090
        BYTE           N05     An3   v110
        BYTE   W12
        BYTE                   Dn3   v090
        BYTE           N05     Bn3   v110
        BYTE   W12
        BYTE                   En3   v090
        BYTE           N05     Cn4   v110
        BYTE   W12
        BYTE                   Fn3   v090
        BYTE           N05     Dn4   v110
        BYTE   W12
        BYTE                   Gn3   v090
        BYTE           N05     En4   v110
        BYTE   W12
        BYTE           TIE     En3   v071
        BYTE           TIE     An3   v081
        BYTE           TIE     Cn4   v091
        BYTE   W24
// 047   ----------------------------------------
DARKPRISON0000_5_47:
        BYTE   W24
        BYTE           VOL     34
        BYTE   W48
        BYTE                   33
        BYTE   W24
        BYTE   PEND
// 048   ----------------------------------------
        BYTE   W04
        BYTE                   32
        BYTE   W08
        BYTE                   30
        BYTE   W07
        BYTE                   29
        BYTE   W05
        BYTE                   28
        BYTE   W06
        BYTE                   27
        BYTE   W04
        BYTE                   25
        BYTE   W08
        BYTE                   24
        BYTE   W03
        BYTE                   23
        BYTE   W03
        BYTE                   21
        BYTE   W01
        BYTE                   20
        BYTE   W03
        BYTE                   19
        BYTE   W05
        BYTE                   18
        BYTE   W01
        BYTE                   16
        BYTE   W03
        BYTE                   15
        BYTE   W02
        BYTE                   14
        BYTE   W01
        BYTE                   12
        BYTE   W03
        BYTE                   11
        BYTE   W02
        BYTE                   10
        BYTE   W01
        BYTE                   9
        BYTE   W01
        BYTE           EOT     En3
        BYTE                   An3
        BYTE                   Cn4
        BYTE   W24
        BYTE   W01
// 049   ----------------------------------------
        BYTE   W96
// 050   ----------------------------------------
        BYTE   W96
// 051   ----------------------------------------
        BYTE   W96
// 052   ----------------------------------------
        BYTE   W96
// 053   ----------------------------------------
        BYTE   W96
// 054   ----------------------------------------
        BYTE   W96
// 055   ----------------------------------------
        BYTE   W96
// 056   ----------------------------------------
        BYTE   W72
        BYTE           VOL     36
        BYTE   GoTo
         POIN2  DARKPRISON0000_5_LOOP
        BYTE   FINE

//****************** Track 6 (Midi-Chn.6) ******************//

DARKPRISON0000_6:
        BYTE   KEYSH   DARKPRISON0000_key+0
// 000   ----------------------------------------
        BYTE           VOICE   22
        BYTE           VOL     33
        BYTE   W96
// 001   ----------------------------------------
        BYTE   W96
// 002   ----------------------------------------
        BYTE   W24
        BYTE           N24     Fn4   v079
        BYTE   W24
        BYTE           N12     En4
        BYTE   W12
        BYTE                   Dn4
        BYTE   W12
        BYTE           N48     En4
        BYTE   W24
// 003   ----------------------------------------
        BYTE   W24
        BYTE           N24     Dn4
        BYTE   W24
        BYTE                   En4
        BYTE   W24
        BYTE           N88     Fs4   v079   gtp1
        BYTE   W24
// 004   ----------------------------------------
        BYTE   W96
// 005   ----------------------------------------
        BYTE   W96
// 006   ----------------------------------------
        BYTE   W72
DARKPRISON0000_6_LOOP:
        BYTE   W24
// 007   ----------------------------------------
        BYTE   W96
// 008   ----------------------------------------
        BYTE   W96
// 009   ----------------------------------------
        BYTE   W96
// 010   ----------------------------------------
        BYTE   W96
// 011   ----------------------------------------
        BYTE   W96
// 012   ----------------------------------------
        BYTE   W96
// 013   ----------------------------------------
        BYTE   W96
// 014   ----------------------------------------
        BYTE   W96
// 015   ----------------------------------------
        BYTE   W96
// 016   ----------------------------------------
        BYTE   W96
// 017   ----------------------------------------
        BYTE   W96
// 018   ----------------------------------------
        BYTE   W96
// 019   ----------------------------------------
        BYTE   W96
// 020   ----------------------------------------
        BYTE   W96
// 021   ----------------------------------------
        BYTE   W96
// 022   ----------------------------------------
        BYTE   W96
// 023   ----------------------------------------
        BYTE   W96
// 024   ----------------------------------------
        BYTE   W96
// 025   ----------------------------------------
        BYTE   W96
// 026   ----------------------------------------
        BYTE   W96
// 027   ----------------------------------------
        BYTE   W96
// 028   ----------------------------------------
        BYTE   W96
// 029   ----------------------------------------
        BYTE   W96
// 030   ----------------------------------------
        BYTE   W96
// 031   ----------------------------------------
        BYTE   W96
// 032   ----------------------------------------
        BYTE   W96
// 033   ----------------------------------------
        BYTE   W96
// 034   ----------------------------------------
        BYTE   W12
        BYTE           VOICE   46
        BYTE           VOL     36
        BYTE   W12
        BYTE           N06     Gs2   v103
        BYTE   W03
        BYTE                   An2   v092
        BYTE   W02
        BYTE           N07     Bn2   v086
        BYTE   W03
        BYTE           N06     Cn3   v087
        BYTE   W02
        BYTE           N07     Dn3   v089
        BYTE   W03
        BYTE           N06     En3   v090
        BYTE   W02
        BYTE                   Fs3   v091
        BYTE   W02
        BYTE                   Gs3   v093
        BYTE   W02
        BYTE                   An3   v095
        BYTE   W02
        BYTE                   Bn3   v096
        BYTE   W02
        BYTE                   Cn4   v098
        BYTE   W02
        BYTE                   Dn4   v099
        BYTE   W02
        BYTE                   En4   v101
        BYTE   W02
        BYTE                   Fs4   v102
        BYTE   W02
        BYTE                   Gs4   v104
        BYTE   W02
        BYTE                   An4   v105
        BYTE   W02
        BYTE                   Bn4   v107
        BYTE   W02
        BYTE           N07     Cn5   v109
        BYTE   W03
        BYTE           N06     Dn5   v114
        BYTE   W02
        BYTE           N05     En5   v121
        BYTE   W30
// 035   ----------------------------------------
        BYTE   W96
// 036   ----------------------------------------
        BYTE   W96
// 037   ----------------------------------------
        BYTE   W96
// 038   ----------------------------------------
        BYTE   W96
// 039   ----------------------------------------
        BYTE   W96
// 040   ----------------------------------------
        BYTE   W96
// 041   ----------------------------------------
        BYTE   W96
// 042   ----------------------------------------
        BYTE   W96
// 043   ----------------------------------------
        BYTE   W96
// 044   ----------------------------------------
        BYTE   W96
// 045   ----------------------------------------
        BYTE   W96
// 046   ----------------------------------------
        BYTE   W96
// 047   ----------------------------------------
        BYTE   W96
// 048   ----------------------------------------
        BYTE   W24
        BYTE           N06     An2   v093
        BYTE   W03
        BYTE                   Bn2   v082
        BYTE   W03
        BYTE                   Cn3   v077
        BYTE   W03
        BYTE                   Dn3   v079
        BYTE   W03
        BYTE                   En3   v080
        BYTE   W03
        BYTE                   Fn3   v082
        BYTE   W03
        BYTE                   Gn3   v084
        BYTE   W03
        BYTE                   An3   v086
        BYTE   W03
        BYTE                   Bn3   v087
        BYTE   W03
        BYTE                   Cn4   v089
        BYTE   W03
        BYTE                   Dn4   v091
        BYTE   W03
        BYTE                   En4   v092
        BYTE   W03
        BYTE                   Fn4   v094
        BYTE   W03
        BYTE                   Gn4   v096
        BYTE   W03
        BYTE           N05     An4   v098
        BYTE   W03
        BYTE           N02     Bn4   v099
        BYTE   W03
        BYTE           N20     Cn5   v101
        BYTE   W24
// 049   ----------------------------------------
        BYTE   W96
// 050   ----------------------------------------
        BYTE   W96
// 051   ----------------------------------------
        BYTE   W96
// 052   ----------------------------------------
        BYTE   W96
// 053   ----------------------------------------
        BYTE   W96
// 054   ----------------------------------------
        BYTE   W96
// 055   ----------------------------------------
        BYTE   W96
// 056   ----------------------------------------
        BYTE   W72
        BYTE           VOICE   22
        BYTE           VOL     33
        BYTE   GoTo
         POIN2  DARKPRISON0000_6_LOOP
        BYTE   FINE

//****************** Track 7 (Midi-Chn.7) ******************//

DARKPRISON0000_7:
        BYTE   KEYSH   DARKPRISON0000_key+0
// 000   ----------------------------------------
        BYTE           VOICE   47
        BYTE           VOL     52
        BYTE   W24
        BYTE           N05     En1   v006
        BYTE   W03
        BYTE                   EnM1
        BYTE   W03
        BYTE                   En1   v007
        BYTE   W03
        BYTE                   EnM1   v013
        BYTE   W03
        BYTE                   En1   v019
        BYTE   W03
        BYTE                   EnM1   v025
        BYTE   W03
        BYTE                   En1   v031
        BYTE   W03
        BYTE                   EnM1   v026
        BYTE   W03
        BYTE                   En1   v032
        BYTE   W03
        BYTE                   EnM1   v038
        BYTE   W03
        BYTE                   En1   v044
        BYTE   W03
        BYTE                   EnM1   v050
        BYTE   W03
        BYTE                   En1   v056
        BYTE   W03
        BYTE                   EnM1   v062
        BYTE   W03
        BYTE                   En1   v081
        BYTE   W03
        BYTE                   EnM1
        BYTE   W03
        BYTE           N44     An1   v106   gtp3
        BYTE   W24
// 001   ----------------------------------------
        BYTE   W60
        BYTE           N11     An1   v096
        BYTE   W06
        BYTE                   AnM1   v091
        BYTE   W06
        BYTE           N44     Gs1   v106   gtp3
        BYTE   W24
// 002   ----------------------------------------
        BYTE   W60
        BYTE           N11     Gs1   v096
        BYTE   W06
        BYTE                   GsM1   v091
        BYTE   W06
        BYTE           N44     Gn1   v106   gtp3
        BYTE   W24
// 003   ----------------------------------------
        BYTE   W96
// 004   ----------------------------------------
        BYTE   W96
// 005   ----------------------------------------
        BYTE   W72
        BYTE           N05     En1   v045
        BYTE   W03
        BYTE                   EnM1   v046
        BYTE   W03
        BYTE                   En1   v048
        BYTE   W03
        BYTE                   EnM1   v049
        BYTE   W03
        BYTE                   En1   v050
        BYTE   W03
        BYTE                   EnM1   v051
        BYTE   W03
        BYTE                   En1   v053
        BYTE   W03
        BYTE                   EnM1   v054
        BYTE   W03
// 006   ----------------------------------------
        BYTE                   En1   v055
        BYTE   W03
        BYTE                   EnM1   v057
        BYTE   W03
        BYTE                   En1   v058
        BYTE   W03
        BYTE                   EnM1   v059
        BYTE   W03
        BYTE                   En1   v060
        BYTE   W03
        BYTE                   EnM1   v062
        BYTE   W03
        BYTE                   En1   v063
        BYTE   W03
        BYTE                   EnM1   v064
        BYTE   W03
        BYTE                   En1   v066
        BYTE   W03
        BYTE                   EnM1   v067
        BYTE   W03
        BYTE                   En1   v068
        BYTE   W03
        BYTE                   EnM1   v070
        BYTE   W03
        BYTE                   En1   v071
        BYTE   W03
        BYTE                   EnM1   v072
        BYTE   W03
        BYTE                   En1   v073
        BYTE   W03
        BYTE                   EnM1   v075
        BYTE   W03
        BYTE                   En1   v076
        BYTE   W03
        BYTE                   EnM1   v077
        BYTE   W03
        BYTE                   En1   v079
        BYTE   W03
        BYTE                   EnM1   v080
        BYTE   W03
        BYTE                   En1   v081
        BYTE   W03
        BYTE                   EnM1   v082
        BYTE   W03
        BYTE                   En1   v084
        BYTE   W03
        BYTE                   EnM1   v085
        BYTE   W03
DARKPRISON0000_7_LOOP:
        BYTE           N44     An1   v106   gtp3
        BYTE   W24
// 007   ----------------------------------------
        BYTE   W96
// 008   ----------------------------------------
        BYTE   W96
// 009   ----------------------------------------
        BYTE   W96
// 010   ----------------------------------------
        BYTE   W60
        BYTE           N11     An1   v059
        BYTE   W06
        BYTE                   AnM1   v064
        BYTE   W06
        BYTE           N44     En2   v099   gtp3
        BYTE   W24
// 011   ----------------------------------------
        BYTE   W96
// 012   ----------------------------------------
        BYTE   W96
// 013   ----------------------------------------
        BYTE   W96
// 014   ----------------------------------------
        BYTE   W60
        BYTE           N11     En1   v059
        BYTE   W06
        BYTE                   EnM1   v064
        BYTE   W06
        BYTE           N44     Gn1   v099   gtp3
        BYTE   W24
// 015   ----------------------------------------
        BYTE   W96
// 016   ----------------------------------------
        BYTE   W96
// 017   ----------------------------------------
        BYTE   W96
// 018   ----------------------------------------
        BYTE   W60
        BYTE           N11     Gn1   v059
        BYTE   W06
        BYTE                   GnM1   v064
        BYTE   W06
        BYTE           N44     An1   v099   gtp3
        BYTE   W24
// 019   ----------------------------------------
        BYTE   W48
        BYTE           N13     En1   v087
        BYTE   W08
        BYTE                   EnM1   v089
        BYTE   W08
        BYTE                   En1   v085
        BYTE   W08
        BYTE           N44     An1   v099   gtp3
        BYTE   W24
// 020   ----------------------------------------
        BYTE   W60
        BYTE           N11     En1   v069
        BYTE   W06
        BYTE                   EnM1   v073
        BYTE   W06
        BYTE           N44     Bn1   v099   gtp3
        BYTE   W24
// 021   ----------------------------------------
        BYTE   W48
        BYTE           N13     Fn1   v087
        BYTE   W08
        BYTE                   FnM1   v089
        BYTE   W08
        BYTE                   Fn1   v085
        BYTE   W08
        BYTE           N44     Bn1   v099   gtp3
        BYTE   W24
// 022   ----------------------------------------
        BYTE   W60
        BYTE           N11     Bn1   v069
        BYTE   W06
        BYTE                   BnM1   v073
        BYTE   W06
        BYTE           N44     Cn2   v099   gtp3
        BYTE   W24
// 023   ----------------------------------------
        BYTE   W48
        BYTE           N13     Gn1   v087
        BYTE   W08
        BYTE                   GnM1   v089
        BYTE   W08
        BYTE                   Gn1   v085
        BYTE   W08
        BYTE           N44     Cn2   v099   gtp3
        BYTE   W24
// 024   ----------------------------------------
        BYTE   W60
        BYTE           N11     Gn1   v069
        BYTE   W06
        BYTE                   GnM1   v073
        BYTE   W06
        BYTE           N44     Cs2   v099   gtp3
        BYTE   W24
// 025   ----------------------------------------
        BYTE   W48
        BYTE           N13     Gn1   v087
        BYTE   W08
        BYTE                   GnM1   v089
        BYTE   W08
        BYTE                   Gn1   v085
        BYTE   W08
        BYTE           N44     Cs2   v099   gtp3
        BYTE   W24
// 026   ----------------------------------------
        BYTE   W48
        BYTE           N13     Gn1   v087
        BYTE   W08
        BYTE                   GnM1   v089
        BYTE   W08
        BYTE                   Gn1   v085
        BYTE   W08
        BYTE           N44     Dn2   v099   gtp3
        BYTE   W24
// 027   ----------------------------------------
        BYTE   W48
        BYTE           N13     An1   v087
        BYTE   W08
        BYTE                   AnM1   v089
        BYTE   W08
        BYTE                   An1   v085
        BYTE   W08
        BYTE           N44     Dn2   v099   gtp3
        BYTE   W24
// 028   ----------------------------------------
        BYTE   W60
        BYTE           N11     An1   v069
        BYTE   W06
        BYTE                   AnM1   v073
        BYTE   W06
        BYTE           N44     Ds2   v099   gtp3
        BYTE   W24
// 029   ----------------------------------------
        BYTE   W48
        BYTE           N13     An1   v087
        BYTE   W08
        BYTE                   AnM1   v089
        BYTE   W08
        BYTE                   An1   v085
        BYTE   W08
        BYTE           N44     Ds2   v099   gtp3
        BYTE   W24
// 030   ----------------------------------------
        BYTE   W60
        BYTE           N11     Ds2   v069
        BYTE   W06
        BYTE                   Ds0   v073
        BYTE   W06
        BYTE           N44     En2   v099   gtp3
        BYTE   W24
// 031   ----------------------------------------
        BYTE   W48
        BYTE           N13     Bn1   v087
        BYTE   W08
        BYTE                   BnM1   v089
        BYTE   W08
        BYTE                   Bn1   v085
        BYTE   W08
        BYTE           N44     En2   v099   gtp3
        BYTE   W24
// 032   ----------------------------------------
        BYTE   W60
        BYTE           N11     En2   v059
        BYTE   W06
        BYTE           N17     En0   v063
        BYTE   W06
        BYTE           N28     En2   v089   gtp1
        BYTE   W24
// 033   ----------------------------------------
        BYTE                   En0   v069
        BYTE   W24
        BYTE                   En2   v089
        BYTE   W24
        BYTE                   En0   v069
        BYTE   W24
        BYTE           N23     En2   v089
        BYTE   W12
        BYTE           N17     En1   v099
        BYTE   W12
// 034   ----------------------------------------
        BYTE           N23     En2   v089
        BYTE   W12
        BYTE           N17     En1   v099
        BYTE   W12
        BYTE           N23     En2   v089
        BYTE   W12
        BYTE           N17     En1   v099
        BYTE   W12
        BYTE           N23     En2   v089
        BYTE   W24
        BYTE           N28     An0   v083   gtp1
        BYTE           N32     An1   v103   gtp1
        BYTE   W24
// 035   ----------------------------------------
DARKPRISON0000_7_35:
        BYTE   W12
        BYTE           N07     An0   v075
        BYTE           N11     An1   v095
        BYTE   W12
        BYTE           N07     An0   v080
        BYTE           N11     An1   v100
        BYTE   W12
        BYTE           N07     An0   v071
        BYTE           N11     An1   v091
        BYTE   W12
        BYTE           N17     Gn0   v083
        BYTE           N21     Gn1   v103
        BYTE   W24
        BYTE           N11     Gn1   v101
        BYTE   W06
        BYTE           N09     GnM1   v089
        BYTE   W06
        BYTE           N07     Gn0   v075
        BYTE           N11     Gn1   v095
        BYTE   W12
        BYTE   PEND
// 036   ----------------------------------------
DARKPRISON0000_7_36:
        BYTE           N07     Gn0   v080
        BYTE           N11     Gn1   v100
        BYTE   W12
        BYTE           N07     Gn0   v071
        BYTE           N11     Gn1   v091
        BYTE   W12
        BYTE           N28     Fn0   v083   gtp1
        BYTE           N32     Fn1   v103   gtp1
        BYTE   W36
        BYTE           N07     Fn0   v075
        BYTE           N11     Fn1   v095
        BYTE   W12
        BYTE           N07     Fn0   v080
        BYTE           N11     Fn1   v100
        BYTE   W12
        BYTE           N07     Fn0   v071
        BYTE           N11     Fn1   v091
        BYTE   W12
        BYTE   PEND
// 037   ----------------------------------------
        BYTE           N17     Gn0   v083
        BYTE           N15     Gn1   v103
        BYTE   W18
        BYTE           N09     GnM1   v091
        BYTE   W06
        BYTE           N11     Gn1   v099
        BYTE   W12
        BYTE           N07     Gn0   v075
        BYTE           N11     Gn1   v095
        BYTE   W12
        BYTE           N07     Gn0   v080
        BYTE           N11     Gn1   v100
        BYTE   W12
        BYTE           N07     Gn0   v071
        BYTE           N11     Gn1   v091
        BYTE   W12
        BYTE           N28     An0   v083   gtp1
        BYTE           N32     An1   v103   gtp1
        BYTE   W24
// 038   ----------------------------------------
        BYTE   PATT
         POIN2  DARKPRISON0000_7_35
// 039   ----------------------------------------
        BYTE   PATT
         POIN2  DARKPRISON0000_7_36
// 040   ----------------------------------------
        BYTE           N11     Gn0   v083
        BYTE           N15     Gn1   v103
        BYTE   W18
        BYTE           N09     GnM1   v110
        BYTE   W06
        BYTE           N11     Gn1   v069
        BYTE   W12
        BYTE           N07     Gn0   v085
        BYTE           N11     Gn1   v105
        BYTE   W12
        BYTE           N07     Gn0   v070
        BYTE           N11     Gn1   v090
        BYTE   W12
        BYTE           N07     Gn0   v081
        BYTE           N11     Gn1   v101
        BYTE   W12
        BYTE           N42     Fn0   v090   gtp1
        BYTE           N44     Fn1   v110   gtp3
        BYTE   W24
// 041   ----------------------------------------
        BYTE   W96
// 042   ----------------------------------------
        BYTE   W96
// 043   ----------------------------------------
        BYTE   W96
// 044   ----------------------------------------
        BYTE   W96
// 045   ----------------------------------------
        BYTE   W96
// 046   ----------------------------------------
        BYTE   W96
// 047   ----------------------------------------
        BYTE   W96
// 048   ----------------------------------------
        BYTE   W96
// 049   ----------------------------------------
        BYTE   W96
// 050   ----------------------------------------
        BYTE   W96
// 051   ----------------------------------------
        BYTE   W96
// 052   ----------------------------------------
        BYTE   W96
// 053   ----------------------------------------
        BYTE   W96
// 054   ----------------------------------------
        BYTE   W48
        BYTE           N07     Gn1   v067
        BYTE   W08
        BYTE                   Gn1   v069
        BYTE   W08
        BYTE                   Gn1   v065
        BYTE   W08
        BYTE           N44     An1   v075   gtp3
        BYTE   W24
// 055   ----------------------------------------
        BYTE   W96
// 056   ----------------------------------------
        BYTE   W24
        BYTE           N11     An1   v079
        BYTE   W06
        BYTE                   AnM1   v064
        BYTE   W06
        BYTE                   An1   v067
        BYTE   W06
        BYTE                   AnM1   v073
        BYTE   W06
        BYTE                   An1   v077
        BYTE   W06
        BYTE                   AnM1   v083
        BYTE   W06
        BYTE                   An1   v088
        BYTE   W06
        BYTE           N05     AnM1   v094
        BYTE   W06
        BYTE   GoTo
         POIN2  DARKPRISON0000_7_LOOP
        BYTE   FINE

//***************** Track 8 (Midi-Chn.10) ******************//

DARKPRISON0000_8:
        BYTE   KEYSH   DARKPRISON0000_key+0
// 000   ----------------------------------------
        BYTE           VOICE   20
        BYTE           VOL     33
        BYTE   W01
        BYTE           PAN     c_v-25
        BYTE   W68
        BYTE   W03
        BYTE           N48     An4   v073
        BYTE   W24
// 001   ----------------------------------------
        BYTE   W24
        BYTE           N16     Cn5
        BYTE   W24
        BYTE                   Bn4
        BYTE   W24
        BYTE                   An4
        BYTE   W24
// 002   ----------------------------------------
        BYTE                   Gs4
        BYTE   W24
        BYTE                   An4
        BYTE   W24
        BYTE                   Bn4
        BYTE   W24
        BYTE                   Cn5
        BYTE   W24
// 003   ----------------------------------------
        BYTE                   An4
        BYTE   W24
        BYTE                   Bn4
        BYTE   W24
        BYTE                   Cn5
        BYTE   W24
        BYTE                   Dn4
        BYTE   W24
// 004   ----------------------------------------
        BYTE                   An4
        BYTE   W24
        BYTE                   Bn4
        BYTE   W24
        BYTE                   Cn5
        BYTE   W48
// 005   ----------------------------------------
        BYTE   W96
// 006   ----------------------------------------
        BYTE   W72
DARKPRISON0000_8_LOOP:
        BYTE   W24
// 007   ----------------------------------------
        BYTE   W96
// 008   ----------------------------------------
        BYTE   W96
// 009   ----------------------------------------
        BYTE   W96
// 010   ----------------------------------------
        BYTE   W96
// 011   ----------------------------------------
        BYTE   W96
// 012   ----------------------------------------
        BYTE   W96
// 013   ----------------------------------------
        BYTE   W96
// 014   ----------------------------------------
        BYTE   W96
// 015   ----------------------------------------
        BYTE   W96
// 016   ----------------------------------------
        BYTE   W96
// 017   ----------------------------------------
        BYTE   W96
// 018   ----------------------------------------
        BYTE   W96
// 019   ----------------------------------------
        BYTE   W96
// 020   ----------------------------------------
        BYTE   W96
// 021   ----------------------------------------
        BYTE   W96
// 022   ----------------------------------------
        BYTE   W96
// 023   ----------------------------------------
        BYTE   W96
// 024   ----------------------------------------
        BYTE   W96
// 025   ----------------------------------------
        BYTE   W96
// 026   ----------------------------------------
        BYTE   W96
// 027   ----------------------------------------
        BYTE   W96
// 028   ----------------------------------------
        BYTE   W96
// 029   ----------------------------------------
        BYTE   W96
// 030   ----------------------------------------
        BYTE   W96
// 031   ----------------------------------------
        BYTE   W96
// 032   ----------------------------------------
        BYTE   W96
// 033   ----------------------------------------
        BYTE   W96
// 034   ----------------------------------------
        BYTE   W96
// 035   ----------------------------------------
        BYTE   W96
// 036   ----------------------------------------
        BYTE   W96
// 037   ----------------------------------------
        BYTE   W96
// 038   ----------------------------------------
        BYTE   W96
// 039   ----------------------------------------
        BYTE   W96
// 040   ----------------------------------------
        BYTE   W96
// 041   ----------------------------------------
        BYTE   W96
// 042   ----------------------------------------
        BYTE   W96
// 043   ----------------------------------------
        BYTE   W96
// 044   ----------------------------------------
        BYTE   W96
// 045   ----------------------------------------
        BYTE   W96
// 046   ----------------------------------------
        BYTE   W96
// 047   ----------------------------------------
        BYTE   W96
// 048   ----------------------------------------
        BYTE   W96
// 049   ----------------------------------------
        BYTE   W96
// 050   ----------------------------------------
        BYTE   W96
// 051   ----------------------------------------
        BYTE   W96
// 052   ----------------------------------------
        BYTE   W96
// 053   ----------------------------------------
        BYTE   W96
// 054   ----------------------------------------
        BYTE   W96
// 055   ----------------------------------------
        BYTE   W96
// 056   ----------------------------------------
        BYTE   W72
        BYTE   GoTo
         POIN2  DARKPRISON0000_8_LOOP
        BYTE   FINE

//***************** Track 9 (Midi-Chn.11) ******************//

DARKPRISON0000_9:
        BYTE   KEYSH   DARKPRISON0000_key+0
// 000   ----------------------------------------
        BYTE           VOICE   19
        BYTE           VOL     33
        BYTE   W01
        BYTE           PAN     c_v+25
        BYTE   W68
        BYTE   W03
        BYTE           N12     An4   v090
        BYTE   W12
        BYTE           N10     En5   v073
        BYTE   W12
// 001   ----------------------------------------
        BYTE           N12     Dn5   v090
        BYTE   W12
        BYTE           N10     En5   v073
        BYTE   W12
        BYTE           N12     Cn5   v090
        BYTE   W12
        BYTE           N10     En5   v073
        BYTE   W12
        BYTE           N12     Bn4   v090
        BYTE   W12
        BYTE           N10     En5   v073
        BYTE   W12
        BYTE           N12     An4   v090
        BYTE   W12
        BYTE           N10     En5   v073
        BYTE   W12
// 002   ----------------------------------------
        BYTE           N12     Gs4   v090
        BYTE   W12
        BYTE           N10     En5   v073
        BYTE   W12
        BYTE           N12     An4   v090
        BYTE   W12
        BYTE           N10     En5   v073
        BYTE   W12
        BYTE           N12     Bn4   v090
        BYTE   W12
        BYTE           N10     En5   v073
        BYTE   W12
        BYTE           N12     Cn5   v090
        BYTE   W12
        BYTE           N11     Gn4   v073
        BYTE   W12
// 003   ----------------------------------------
        BYTE           N12     Dn5   v090
        BYTE   W12
        BYTE           N11     Gn4   v073
        BYTE   W12
        BYTE           N12     En5   v090
        BYTE   W12
        BYTE           N11     Gn4   v073
        BYTE   W12
        BYTE           N12     Cn5   v090
        BYTE   W12
        BYTE           N11     Gn4   v073
        BYTE   W12
        BYTE           N12     Dn5   v090
        BYTE   W12
        BYTE           N10     Fs4   v073
        BYTE   W12
// 004   ----------------------------------------
        BYTE           N12     Cn5   v090
        BYTE   W12
        BYTE           N10     Fs4   v073
        BYTE   W12
        BYTE           N12     Bn4   v090
        BYTE   W12
        BYTE           N10     Fs4   v073
        BYTE   W12
        BYTE           N12     Cn5   v090
        BYTE   W12
        BYTE           N10     Fs4   v073
        BYTE   W12
        BYTE           N12     An4   v090
        BYTE   W12
        BYTE           N10     En5   v073
        BYTE   W12
// 005   ----------------------------------------
        BYTE           N12     Dn5   v090
        BYTE   W12
        BYTE           N10     En5   v073
        BYTE   W12
        BYTE           N12     Cn5   v090
        BYTE   W12
        BYTE           N10     En5   v073
        BYTE   W12
        BYTE           N12     Dn5   v090
        BYTE   W12
        BYTE           N10     En5   v073
        BYTE   W12
        BYTE           N12     Bn4   v090
        BYTE   W12
        BYTE           N10     En5   v073
        BYTE   W12
// 006   ----------------------------------------
        BYTE           N12     Dn5   v090
        BYTE   W12
        BYTE           N10     En5   v073
        BYTE   W12
        BYTE           N12     Bn4   v090
        BYTE   W12
        BYTE           N10     En5   v073
        BYTE   W12
        BYTE           N12     Dn5   v090
        BYTE   W12
        BYTE           N10     En5   v073
        BYTE   W11
        BYTE           BENDR   127
        BYTE   W01
DARKPRISON0000_9_LOOP:
        BYTE   W24
// 007   ----------------------------------------
        BYTE   W96
// 008   ----------------------------------------
        BYTE   W96
// 009   ----------------------------------------
        BYTE   W96
// 010   ----------------------------------------
        BYTE   W96
// 011   ----------------------------------------
        BYTE   W96
// 012   ----------------------------------------
        BYTE   W96
// 013   ----------------------------------------
        BYTE   W96
// 014   ----------------------------------------
        BYTE   W96
// 015   ----------------------------------------
        BYTE   W96
// 016   ----------------------------------------
        BYTE   W96
// 017   ----------------------------------------
        BYTE   W96
// 018   ----------------------------------------
        BYTE   W96
// 019   ----------------------------------------
        BYTE   W96
// 020   ----------------------------------------
        BYTE   W96
// 021   ----------------------------------------
        BYTE   W96
// 022   ----------------------------------------
        BYTE   W96
// 023   ----------------------------------------
        BYTE   W96
// 024   ----------------------------------------
        BYTE   W96
// 025   ----------------------------------------
        BYTE   W96
// 026   ----------------------------------------
        BYTE   W96
// 027   ----------------------------------------
        BYTE   W96
// 028   ----------------------------------------
        BYTE   W96
// 029   ----------------------------------------
        BYTE   W96
// 030   ----------------------------------------
        BYTE   W96
// 031   ----------------------------------------
        BYTE   W96
// 032   ----------------------------------------
        BYTE   W96
// 033   ----------------------------------------
        BYTE   W96
// 034   ----------------------------------------
        BYTE   W96
// 035   ----------------------------------------
        BYTE   W96
// 036   ----------------------------------------
        BYTE   W96
// 037   ----------------------------------------
        BYTE   W96
// 038   ----------------------------------------
        BYTE   W96
// 039   ----------------------------------------
        BYTE   W90
        BYTE           VOICE   52
        BYTE           VOL     36
        BYTE   W01
        BYTE           PAN     c_v+0
        BYTE   W05
// 040   ----------------------------------------
        BYTE   W72
        BYTE           N92     Cn3   v073   gtp1
        BYTE                   Fn3   v083
        BYTE           N92     An3   v093   gtp2
        BYTE   W24
// 041   ----------------------------------------
DARKPRISON0000_9_41:
        BYTE   W72
        BYTE           N92     Dn3   v073   gtp1
        BYTE                   Gn3   v083
        BYTE           N92     Bn3   v093   gtp2
        BYTE   W24
        BYTE   PEND
// 042   ----------------------------------------
        BYTE   W72
        BYTE           N92     En3   v073   gtp1
        BYTE                   An3   v083
        BYTE           N92     Cn4   v093   gtp2
        BYTE   W24
// 043   ----------------------------------------
        BYTE   W72
        BYTE           N44     Dn3   v073   gtp1
        BYTE           N92     Gn3   v083   gtp1
        BYTE           N92     Cn4   v093   gtp2
        BYTE   W24
// 044   ----------------------------------------
        BYTE   W24
        BYTE           N44     Cn3   v073   gtp1
        BYTE   W48
        BYTE           N92     Cn3   v073   gtp1
        BYTE                   Fn3   v083
        BYTE           N92     An3   v093   gtp2
        BYTE   W24
// 045   ----------------------------------------
        BYTE   PATT
         POIN2  DARKPRISON0000_9_41
// 046   ----------------------------------------
        BYTE   W72
        BYTE           TIE     En3   v073
        BYTE           TIE     An3   v083
        BYTE           TIE     Cn4   v093
        BYTE   W24
// 047   ----------------------------------------
        BYTE   PATT
         POIN2  DARKPRISON0000_5_47
// 048   ----------------------------------------
        BYTE   W04
        BYTE           VOL     32
        BYTE   W08
        BYTE                   30
        BYTE   W07
        BYTE                   29
        BYTE   W05
        BYTE                   28
        BYTE   W06
        BYTE                   27
        BYTE   W04
        BYTE                   25
        BYTE   W08
        BYTE                   24
        BYTE   W03
        BYTE                   23
        BYTE   W03
        BYTE                   21
        BYTE   W01
        BYTE                   20
        BYTE   W03
        BYTE                   19
        BYTE   W05
        BYTE                   18
        BYTE   W01
        BYTE                   16
        BYTE   W03
        BYTE                   15
        BYTE   W02
        BYTE                   14
        BYTE   W01
        BYTE                   12
        BYTE   W03
        BYTE                   11
        BYTE   W02
        BYTE                   10
        BYTE   W01
        BYTE           EOT     En3
        BYTE                   An3
        BYTE                   Cn4
        BYTE           VOL     9
        BYTE   W24
        BYTE   W02
// 049   ----------------------------------------
        BYTE   W96
// 050   ----------------------------------------
        BYTE   W96
// 051   ----------------------------------------
        BYTE   W96
// 052   ----------------------------------------
        BYTE   W96
// 053   ----------------------------------------
        BYTE   W96
// 054   ----------------------------------------
        BYTE   W96
// 055   ----------------------------------------
        BYTE   W96
// 056   ----------------------------------------
        BYTE   W72
        BYTE           VOICE   19
        BYTE           VOL     33
        BYTE           PAN     c_v+25
        BYTE   GoTo
         POIN2  DARKPRISON0000_9_LOOP
        BYTE   FINE

//***************** Track 10 (Midi-Chn.12) *****************//

DARKPRISON0000_10:
        BYTE   KEYSH   DARKPRISON0000_key+0
// 000   ----------------------------------------
        BYTE           VOICE   127
        BYTE           VOL     52
        BYTE   W24
        BYTE           N44     En2   v113   gtp3
        BYTE   W44
        BYTE   W03
        BYTE                   An2   v103
        BYTE   W24
        BYTE   W01
// 001   ----------------------------------------
        BYTE   W96
// 002   ----------------------------------------
        BYTE   W48
        BYTE           N05     Dn1   v044
        BYTE   W06
        BYTE                   Dn1   v024
        BYTE   W06
        BYTE                   Dn1   v040
        BYTE   W06
        BYTE                   Dn1   v062
        BYTE   W06
        BYTE                   Dn1   v089
        BYTE   W06
        BYTE                   Dn1   v031
        BYTE   W06
        BYTE                   Dn1   v019
        BYTE   W12
// 003   ----------------------------------------
DARKPRISON0000_10_3:
        BYTE   W72
        BYTE           N92     En2   v075   gtp3
        BYTE   W24
        BYTE   PEND
// 004   ----------------------------------------
        BYTE   W44
        BYTE   W03
        BYTE           N11     An2   v048
        BYTE   W06
        BYTE                   Cs2   v058
        BYTE   W06
        BYTE           N17     Bn2   v068
        BYTE   W06
        BYTE                   An2   v078
        BYTE   W06
        BYTE           N44     Cs2   v103   gtp3
        BYTE   W24
        BYTE   W01
// 005   ----------------------------------------
        BYTE   PATT
         POIN2  DARKPRISON0000_10_3
// 006   ----------------------------------------
        BYTE   W44
        BYTE   W03
        BYTE           N11     An2   v048
        BYTE   W06
        BYTE                   Cs2   v058
        BYTE   W06
        BYTE                   Bn2   v068
        BYTE   W06
        BYTE                   An2   v078
        BYTE   W07
DARKPRISON0000_10_LOOP:
        BYTE           N05     Dn1   v059
        BYTE           N44     Cs2   v113   gtp3
        BYTE           N23     Cn1   v043
        BYTE   W12
        BYTE           N05     Dn1   v039
        BYTE   W06
        BYTE                   Dn1   v043
        BYTE   W06
// 007   ----------------------------------------
DARKPRISON0000_10_7:
        BYTE           N11     Dn1   v079
        BYTE           N23     Cn1   v040
        BYTE   W12
        BYTE           N05     Dn1   v039
        BYTE   W06
        BYTE                   Dn1   v043
        BYTE   W06
        BYTE                   Dn1   v059
        BYTE   W12
        BYTE                   Dn1   v039
        BYTE   W06
        BYTE                   Dn1   v043
        BYTE   W06
        BYTE           N11     Dn1   v079
        BYTE   W12
        BYTE           N05     Dn1   v039
        BYTE   W06
        BYTE                   Dn1   v043
        BYTE   W06
        BYTE                   Dn1   v059
        BYTE           N23     Cn1   v043
        BYTE   W12
        BYTE           N05     Dn1   v039
        BYTE   W06
        BYTE                   Dn1   v043
        BYTE   W06
        BYTE   PEND
// 008   ----------------------------------------
DARKPRISON0000_10_8:
        BYTE           N11     Dn1   v079
        BYTE           N23     Cn1   v040
        BYTE   W12
        BYTE           N05     Dn1   v039
        BYTE   W06
        BYTE                   Dn1   v043
        BYTE   W06
        BYTE                   Dn1   v059
        BYTE   W12
        BYTE                   Dn1   v039
        BYTE   W06
        BYTE                   Dn1   v043
        BYTE   W06
        BYTE           N11     Dn1   v079
        BYTE   W12
        BYTE           N05     Dn1   v039
        BYTE   W06
        BYTE                   Dn1   v043
        BYTE   W06
        BYTE                   Dn1   v059
        BYTE   W12
        BYTE                   Dn1   v039
        BYTE   W06
        BYTE                   Dn1   v043
        BYTE   W06
        BYTE   PEND
// 009   ----------------------------------------
DARKPRISON0000_10_9:
        BYTE           N11     Dn1   v079
        BYTE   W12
        BYTE           N05     Dn1   v039
        BYTE   W06
        BYTE                   Dn1   v043
        BYTE   W06
        BYTE                   Dn1   v059
        BYTE   W12
        BYTE                   Dn1   v039
        BYTE   W06
        BYTE                   Dn1   v043
        BYTE   W06
        BYTE           N11     Dn1   v079
        BYTE   W12
        BYTE           N05     Dn1   v039
        BYTE   W06
        BYTE                   Dn1   v043
        BYTE   W06
        BYTE                   Dn1   v059
        BYTE   W12
        BYTE                   Dn1   v039
        BYTE   W06
        BYTE                   Dn1   v043
        BYTE   W06
        BYTE   PEND
// 010   ----------------------------------------
DARKPRISON0000_10_10:
        BYTE           N11     Dn1   v079
        BYTE   W12
        BYTE           N05     Dn1   v039
        BYTE   W06
        BYTE                   Dn1   v043
        BYTE   W06
        BYTE                   Dn1   v059
        BYTE   W12
        BYTE                   Dn1   v039
        BYTE   W06
        BYTE                   Dn1   v043
        BYTE   W06
        BYTE           N11     Dn1   v079
        BYTE   W12
        BYTE           N05     Dn1   v039
        BYTE   W06
        BYTE                   Dn1   v043
        BYTE   W05
        BYTE           N44     An2   v103   gtp3
        BYTE   W01
        BYTE           N05     Dn1   v059
        BYTE           N23     Cn1   v043
        BYTE   W12
        BYTE           N05     Dn1   v039
        BYTE   W06
        BYTE                   Dn1   v043
        BYTE   W06
        BYTE   PEND
// 011   ----------------------------------------
        BYTE   PATT
         POIN2  DARKPRISON0000_10_7
// 012   ----------------------------------------
        BYTE   PATT
         POIN2  DARKPRISON0000_10_8
// 013   ----------------------------------------
        BYTE   PATT
         POIN2  DARKPRISON0000_10_9
// 014   ----------------------------------------
        BYTE   PATT
         POIN2  DARKPRISON0000_10_10
// 015   ----------------------------------------
        BYTE   PATT
         POIN2  DARKPRISON0000_10_7
// 016   ----------------------------------------
        BYTE   PATT
         POIN2  DARKPRISON0000_10_8
// 017   ----------------------------------------
        BYTE           N11     Dn1   v079
        BYTE   W12
        BYTE           N05     Dn1   v039
        BYTE   W06
        BYTE                   Dn1   v043
        BYTE   W06
        BYTE                   Dn1   v059
        BYTE   W12
        BYTE                   Dn1   v039
        BYTE   W06
        BYTE                   Dn1   v043
        BYTE   W06
        BYTE           N11     Dn1   v079
        BYTE   W12
        BYTE           N05     Dn1   v039
        BYTE   W06
        BYTE                   Dn1   v043
        BYTE   W06
        BYTE                   Dn1   v059
        BYTE           N92     En2   v085   gtp3
        BYTE   W12
        BYTE           N05     Dn1   v039
        BYTE   W06
        BYTE                   Dn1   v043
        BYTE   W06
// 018   ----------------------------------------
DARKPRISON0000_10_18:
        BYTE           N11     Dn1   v079
        BYTE   W12
        BYTE           N05     Dn1   v039
        BYTE   W06
        BYTE                   Dn1   v043
        BYTE   W06
        BYTE                   Dn1   v059
        BYTE   W12
        BYTE                   Dn1   v039
        BYTE   W06
        BYTE                   Dn1   v043
        BYTE   W06
        BYTE           N11     Dn1   v079
        BYTE   W12
        BYTE           N05     Dn1   v039
        BYTE   W06
        BYTE                   Dn1   v043
        BYTE   W05
        BYTE           N44     An2   v100   gtp3
        BYTE   W01
        BYTE           N05     Dn1   v059
        BYTE           N23     Cn1   v043
        BYTE   W12
        BYTE           N05     Dn1   v039
        BYTE   W06
        BYTE                   Dn1   v043
        BYTE   W06
        BYTE   PEND
// 019   ----------------------------------------
        BYTE   PATT
         POIN2  DARKPRISON0000_10_8
// 020   ----------------------------------------
DARKPRISON0000_10_20:
        BYTE           N11     Dn1   v079
        BYTE   W12
        BYTE           N05     Dn1   v039
        BYTE   W06
        BYTE                   Dn1   v043
        BYTE   W06
        BYTE                   Dn1   v059
        BYTE   W12
        BYTE                   Dn1   v039
        BYTE   W06
        BYTE                   Dn1   v043
        BYTE   W06
        BYTE           N11     Dn1   v079
        BYTE   W12
        BYTE           N05     Dn1   v039
        BYTE   W06
        BYTE                   Dn1   v043
        BYTE   W05
        BYTE           N44     An2   v046   gtp3
        BYTE   W01
        BYTE           N05     Dn1   v059
        BYTE           N23     Cn1   v043
        BYTE   W12
        BYTE           N05     Dn1   v039
        BYTE   W06
        BYTE                   Dn1   v043
        BYTE   W06
        BYTE   PEND
// 021   ----------------------------------------
        BYTE   PATT
         POIN2  DARKPRISON0000_10_8
// 022   ----------------------------------------
        BYTE   PATT
         POIN2  DARKPRISON0000_10_18
// 023   ----------------------------------------
        BYTE   PATT
         POIN2  DARKPRISON0000_10_8
// 024   ----------------------------------------
        BYTE   PATT
         POIN2  DARKPRISON0000_10_20
// 025   ----------------------------------------
        BYTE   PATT
         POIN2  DARKPRISON0000_10_8
// 026   ----------------------------------------
        BYTE   PATT
         POIN2  DARKPRISON0000_10_18
// 027   ----------------------------------------
        BYTE   PATT
         POIN2  DARKPRISON0000_10_8
// 028   ----------------------------------------
        BYTE   PATT
         POIN2  DARKPRISON0000_10_20
// 029   ----------------------------------------
        BYTE   PATT
         POIN2  DARKPRISON0000_10_8
// 030   ----------------------------------------
        BYTE   PATT
         POIN2  DARKPRISON0000_10_18
// 031   ----------------------------------------
        BYTE   PATT
         POIN2  DARKPRISON0000_10_8
// 032   ----------------------------------------
        BYTE           N11     Dn1   v079
        BYTE   W12
        BYTE           N05     Dn1   v039
        BYTE   W06
        BYTE                   Dn1   v043
        BYTE   W06
        BYTE                   Dn1   v059
        BYTE   W12
        BYTE                   Dn1   v039
        BYTE   W06
        BYTE                   Dn1   v043
        BYTE   W06
        BYTE           N11     Dn1   v079
        BYTE   W12
        BYTE           N05     Dn1   v039
        BYTE   W06
        BYTE                   Dn1   v043
        BYTE   W06
        BYTE                   Dn1   v059
        BYTE   W12
        BYTE                   Dn1   v039
        BYTE   W06
        BYTE                   Dn1   v043
        BYTE   W05
        BYTE           N52     Cs2   v102   gtp1
        BYTE   W01
// 033   ----------------------------------------
        BYTE           N11     Dn1   v079
        BYTE           N23     Cn1   v043
        BYTE   W12
        BYTE           N05     Dn1   v039
        BYTE   W06
        BYTE                   Dn1   v043
        BYTE   W06
        BYTE                   Dn1   v059
        BYTE   W12
        BYTE                   Dn1   v039
        BYTE   W06
        BYTE                   Dn1   v043
        BYTE   W05
        BYTE           N52     An2   v102   gtp1
        BYTE   W01
        BYTE           N11     Dn1   v079
        BYTE           N23     Cn1   v043
        BYTE   W12
        BYTE           N05     Dn1   v039
        BYTE   W06
        BYTE                   Dn1   v043
        BYTE   W06
        BYTE                   Dn1   v059
        BYTE           N92     En2   v102   gtp3
        BYTE   W12
        BYTE           N05     Dn1   v039
        BYTE   W06
        BYTE                   Dn1   v043
        BYTE   W05
        BYTE           N28     Cs2   v047   gtp1
        BYTE   W01
// 034   ----------------------------------------
        BYTE           N11     Dn1   v079
        BYTE   W12
        BYTE           N05     Dn1   v039
        BYTE   W06
        BYTE                   Dn1   v043
        BYTE   W05
        BYTE           N28     Bn2   v062   gtp1
        BYTE   W01
        BYTE           N05     Dn1   v059
        BYTE   W12
        BYTE                   Dn1   v039
        BYTE   W06
        BYTE                   Dn1   v043
        BYTE   W05
        BYTE           N17     An2   v077
        BYTE   W01
        BYTE           N11     Dn1   v079
        BYTE   W11
        BYTE                   Cs2   v055
        BYTE   W01
        BYTE           N05     Dn1   v077
        BYTE   W05
        BYTE           N11     Bn2   v065
        BYTE   W01
        BYTE           N05     Dn1   v063
        BYTE   W05
        BYTE           N44     An2   v100   gtp3
        BYTE   W01
        BYTE           N05     Dn1   v089
        BYTE   W06
        BYTE                   Dn1   v033
        BYTE   W06
        BYTE                   Dn1   v043
        BYTE   W06
        BYTE                   Dn1   v039
        BYTE   W06
// 035   ----------------------------------------
        BYTE                   Dn1   v041
        BYTE   W06
        BYTE                   Dn1   v036
        BYTE   W06
        BYTE                   Dn1   v079
        BYTE   W06
        BYTE                   Dn1   v033
        BYTE   W06
        BYTE                   Dn1   v043
        BYTE   W06
        BYTE                   Dn1   v039
        BYTE   W06
        BYTE                   Dn1   v089
        BYTE   W06
        BYTE                   Dn1   v036
        BYTE   W05
        BYTE           N44     An2   v100   gtp3
        BYTE   W01
        BYTE           N05     Dn1   v089
        BYTE   W06
        BYTE                   Dn1   v033
        BYTE   W06
        BYTE                   Dn1   v043
        BYTE   W06
        BYTE                   Dn1   v039
        BYTE   W06
        BYTE                   Dn1   v041
        BYTE   W06
        BYTE                   Dn1   v036
        BYTE   W06
        BYTE                   Dn1   v079
        BYTE   W06
        BYTE                   Dn1   v033
        BYTE   W06
// 036   ----------------------------------------
        BYTE                   Dn1   v043
        BYTE   W06
        BYTE                   Dn1   v039
        BYTE   W05
        BYTE           N11     Cs2   v055
        BYTE   W01
        BYTE           N05     Dn1   v089
        BYTE   W05
        BYTE           N11     Bn2   v065
        BYTE   W01
        BYTE           N05     Dn1   v036
        BYTE   W05
        BYTE           N44     An2   v100   gtp3
        BYTE   W01
        BYTE           N05     Dn1   v089
        BYTE   W06
        BYTE                   Dn1   v033
        BYTE   W06
        BYTE                   Dn1   v043
        BYTE   W06
        BYTE                   Dn1   v039
        BYTE   W06
        BYTE                   Dn1   v041
        BYTE   W06
        BYTE                   Dn1   v036
        BYTE   W06
        BYTE                   Dn1   v079
        BYTE   W06
        BYTE                   Dn1   v033
        BYTE   W06
        BYTE                   Dn1   v043
        BYTE   W06
        BYTE                   Dn1   v039
        BYTE   W06
        BYTE                   Dn1   v089
        BYTE   W06
        BYTE                   Dn1   v036
        BYTE   W05
        BYTE           N32     An2   v100   gtp3
        BYTE   W01
// 037   ----------------------------------------
        BYTE           N05     Dn1   v089
        BYTE   W06
        BYTE                   Dn1   v033
        BYTE   W06
        BYTE                   Dn1   v043
        BYTE   W06
        BYTE                   Dn1   v039
        BYTE   W06
        BYTE                   Dn1   v041
        BYTE   W06
        BYTE                   Dn1   v036
        BYTE   W05
        BYTE           N32     Cs2   v100   gtp3
        BYTE   W01
        BYTE           N05     Dn1   v079
        BYTE   W06
        BYTE                   Dn1   v033
        BYTE   W06
        BYTE                   Dn1   v043
        BYTE   W06
        BYTE                   Dn1   v039
        BYTE   W06
        BYTE                   Dn1   v089
        BYTE   W06
        BYTE                   Dn1   v036
        BYTE   W05
        BYTE           N44     An2   v100   gtp3
        BYTE   W01
        BYTE           N05     Dn1   v089
        BYTE   W06
        BYTE                   Dn1   v033
        BYTE   W06
        BYTE                   Dn1   v043
        BYTE   W06
        BYTE                   Dn1   v039
        BYTE   W06
// 038   ----------------------------------------
        BYTE                   Dn1   v041
        BYTE   W06
        BYTE                   Dn1   v036
        BYTE   W06
        BYTE                   Dn1   v079
        BYTE   W06
        BYTE                   Dn1   v033
        BYTE   W06
        BYTE                   Dn1   v043
        BYTE   W06
        BYTE                   Dn1   v039
        BYTE   W05
        BYTE           N09     Cs2   v055
        BYTE   W01
        BYTE           N05     Dn1   v089
        BYTE   W05
        BYTE           N09     Bn2   v065
        BYTE   W01
        BYTE           N05     Dn1   v036
        BYTE   W05
        BYTE           N44     An2   v100   gtp3
        BYTE   W01
        BYTE           N05     Dn1   v089
        BYTE   W06
        BYTE                   Dn1   v033
        BYTE   W06
        BYTE                   Dn1   v043
        BYTE   W06
        BYTE                   Dn1   v039
        BYTE   W06
        BYTE                   Dn1   v041
        BYTE   W06
        BYTE                   Dn1   v036
        BYTE   W06
        BYTE                   Dn1   v079
        BYTE   W06
        BYTE                   Dn1   v033
        BYTE   W06
// 039   ----------------------------------------
        BYTE                   Dn1   v043
        BYTE   W06
        BYTE                   Dn1   v039
        BYTE   W05
        BYTE           N09     Cs2   v055
        BYTE   W01
        BYTE           N05     Dn1   v089
        BYTE   W05
        BYTE           N09     Bn2   v065
        BYTE   W01
        BYTE           N05     Dn1   v036
        BYTE   W05
        BYTE           N44     An2   v100   gtp3
        BYTE   W01
        BYTE           N05     Dn1   v089
        BYTE   W06
        BYTE                   Dn1   v033
        BYTE   W06
        BYTE                   Dn1   v043
        BYTE   W06
        BYTE                   Dn1   v039
        BYTE   W06
        BYTE                   Dn1   v041
        BYTE   W06
        BYTE                   Dn1   v036
        BYTE   W06
        BYTE                   Dn1   v089
        BYTE   W06
        BYTE                   Dn1   v033
        BYTE   W06
        BYTE                   Dn1   v043
        BYTE   W06
        BYTE                   Dn1   v039
        BYTE   W06
        BYTE                   Dn1   v059
        BYTE   W06
        BYTE                   Dn1   v036
        BYTE   W05
        BYTE           N44     An2   v080   gtp3
        BYTE   W01
// 040   ----------------------------------------
        BYTE           N05     Dn1   v089
        BYTE   W06
        BYTE                   Dn1   v033
        BYTE   W06
        BYTE                   Dn1   v043
        BYTE   W06
        BYTE                   Dn1   v039
        BYTE   W06
        BYTE                   Dn1   v089
        BYTE   W06
        BYTE                   Dn1   v033
        BYTE   W06
        BYTE                   Dn1   v043
        BYTE   W06
        BYTE                   Dn1   v039
        BYTE   W06
        BYTE                   Dn1   v089
        BYTE   W06
        BYTE                   Dn1   v033
        BYTE   W05
        BYTE           N09     Cs2   v055
        BYTE   W01
        BYTE           N05     Dn1   v043
        BYTE   W05
        BYTE           N09     Bn2   v065
        BYTE   W01
        BYTE           N05     Dn1   v039
        BYTE   W05
        BYTE           N44     An2   v100   gtp3
        BYTE   W01
        BYTE           N05     Dn1   v059
        BYTE   W06
        BYTE                   Dn1   v036
        BYTE   W06
        BYTE                   Dn1   v039
        BYTE   W06
        BYTE                   Dn1   v043
        BYTE   W06
// 041   ----------------------------------------
DARKPRISON0000_10_41:
        BYTE           N05     Dn1   v089
        BYTE   W06
        BYTE                   Dn1   v036
        BYTE   W06
        BYTE                   Dn1   v039
        BYTE   W06
        BYTE                   Dn1   v043
        BYTE   W06
        BYTE                   Dn1   v059
        BYTE   W06
        BYTE                   Dn1   v036
        BYTE   W06
        BYTE                   Dn1   v039
        BYTE   W06
        BYTE                   Dn1   v043
        BYTE   W06
        BYTE                   Dn1   v089
        BYTE   W06
        BYTE                   Dn1   v036
        BYTE   W06
        BYTE                   Dn1   v039
        BYTE   W06
        BYTE                   Dn1   v043
        BYTE   W06
        BYTE                   Dn1   v059
        BYTE   W06
        BYTE                   Dn1   v036
        BYTE   W06
        BYTE                   Dn1   v039
        BYTE   W06
        BYTE                   Dn1   v043
        BYTE   W06
        BYTE   PEND
// 042   ----------------------------------------
        BYTE   PATT
         POIN2  DARKPRISON0000_10_41
// 043   ----------------------------------------
        BYTE   PATT
         POIN2  DARKPRISON0000_10_41
// 044   ----------------------------------------
        BYTE           N05     Dn1   v089
        BYTE   W06
        BYTE                   Dn1   v036
        BYTE   W05
        BYTE           N28     Cs2   v080   gtp1
        BYTE   W01
        BYTE           N05     Dn1   v039
        BYTE   W06
        BYTE                   Dn1   v043
        BYTE   W06
        BYTE                   Dn1   v059
        BYTE   W06
        BYTE                   Dn1   v036
        BYTE   W05
        BYTE           N32     An2   v080   gtp3
        BYTE   W01
        BYTE           N05     Dn1   v039
        BYTE   W06
        BYTE                   Dn1   v043
        BYTE   W06
        BYTE                   Dn1   v089
        BYTE   W06
        BYTE                   Dn1   v036
        BYTE   W05
        BYTE           N17     Cs2   v070
        BYTE   W01
        BYTE           N05     Dn1   v039
        BYTE   W06
        BYTE                   Dn1   v043
        BYTE   W05
        BYTE           N44     An2   v080   gtp3
        BYTE   W01
        BYTE           N05     Dn1   v059
        BYTE   W06
        BYTE                   Dn1   v036
        BYTE   W06
        BYTE                   Dn1   v039
        BYTE   W06
        BYTE                   Dn1   v043
        BYTE   W06
// 045   ----------------------------------------
        BYTE   PATT
         POIN2  DARKPRISON0000_10_41
// 046   ----------------------------------------
        BYTE   PATT
         POIN2  DARKPRISON0000_10_41
// 047   ----------------------------------------
        BYTE   PATT
         POIN2  DARKPRISON0000_10_41
// 048   ----------------------------------------
DARKPRISON0000_10_48:
        BYTE           N05     Dn1   v089
        BYTE   W06
        BYTE                   Dn1   v036
        BYTE   W06
        BYTE                   Dn1   v039
        BYTE   W06
        BYTE                   Dn1   v043
        BYTE   W06
        BYTE                   Dn1   v059
        BYTE   W06
        BYTE                   Dn1   v036
        BYTE   W06
        BYTE                   Dn1   v039
        BYTE   W06
        BYTE                   Dn1   v043
        BYTE   W06
        BYTE                   Dn1   v089
        BYTE   W06
        BYTE                   Dn1   v036
        BYTE   W06
        BYTE                   Dn1   v039
        BYTE   W06
        BYTE                   Dn1   v043
        BYTE   W05
        BYTE           N44     An2   v093   gtp3
        BYTE   W01
        BYTE           N05     Dn1   v059
        BYTE   W06
        BYTE                   Dn1   v036
        BYTE   W06
        BYTE                   Dn1   v039
        BYTE   W06
        BYTE                   Dn1   v043
        BYTE   W06
        BYTE   PEND
// 049   ----------------------------------------
        BYTE   PATT
         POIN2  DARKPRISON0000_10_41
// 050   ----------------------------------------
        BYTE   PATT
         POIN2  DARKPRISON0000_10_41
// 051   ----------------------------------------
        BYTE   PATT
         POIN2  DARKPRISON0000_10_41
// 052   ----------------------------------------
        BYTE   PATT
         POIN2  DARKPRISON0000_10_48
// 053   ----------------------------------------
        BYTE   PATT
         POIN2  DARKPRISON0000_10_41
// 054   ----------------------------------------
        BYTE           N05     Dn1   v089
        BYTE   W06
        BYTE                   Dn1   v036
        BYTE   W06
        BYTE                   Dn1   v039
        BYTE   W06
        BYTE                   Dn1   v043
        BYTE   W06
        BYTE                   Dn1   v059
        BYTE   W06
        BYTE                   Dn1   v036
        BYTE   W06
        BYTE                   Dn1   v039
        BYTE   W06
        BYTE                   Dn1   v043
        BYTE   W05
        BYTE           N28     Cs2   v088   gtp1
        BYTE   W01
        BYTE           N05     Dn1   v089
        BYTE   W06
        BYTE                   Dn1   v036
        BYTE   W06
        BYTE                   Dn1   v039
        BYTE   W06
        BYTE                   Dn1   v043
        BYTE   W05
        BYTE           N44     An2   v098   gtp3
        BYTE   W01
        BYTE           N05     Dn1   v059
        BYTE   W06
        BYTE                   Dn1   v036
        BYTE   W06
        BYTE                   Dn1   v039
        BYTE   W06
        BYTE                   Dn1   v043
        BYTE   W06
// 055   ----------------------------------------
        BYTE                   Dn1   v089
        BYTE   W06
        BYTE                   Dn1   v036
        BYTE   W06
        BYTE                   Dn1   v039
        BYTE   W06
        BYTE                   Dn1   v043
        BYTE   W06
        BYTE                   Dn1   v059
        BYTE   W06
        BYTE                   Dn1   v036
        BYTE   W06
        BYTE                   Dn1   v039
        BYTE   W06
        BYTE                   Dn1   v043
        BYTE   W06
        BYTE                   Dn1   v089
        BYTE   W06
        BYTE                   Dn1   v036
        BYTE   W06
        BYTE                   Dn1   v039
        BYTE   W06
        BYTE                   Dn1   v043
        BYTE   W06
        BYTE                   Dn1   v059
        BYTE           N92     En2   v110   gtp3
        BYTE   W06
        BYTE           N05     Dn1   v036
        BYTE   W06
        BYTE                   Dn1   v039
        BYTE   W06
        BYTE                   Dn1   v043
        BYTE   W06
// 056   ----------------------------------------
        BYTE                   Dn1   v089
        BYTE   W06
        BYTE                   Dn1   v036
        BYTE   W06
        BYTE                   Dn1   v039
        BYTE   W06
        BYTE                   Dn1   v043
        BYTE   W06
        BYTE                   Dn1   v059
        BYTE   W06
        BYTE                   Dn1   v036
        BYTE   W06
        BYTE                   Dn1   v039
        BYTE   W06
        BYTE                   Dn1   v043
        BYTE   W06
        BYTE                   Dn1   v089
        BYTE   W06
        BYTE                   Dn1   v036
        BYTE   W06
        BYTE                   Dn1   v039
        BYTE   W06
        BYTE                   Dn1   v043
        BYTE   W06
        BYTE   GoTo
         POIN2  DARKPRISON0000_10_LOOP
        BYTE   FINE


//********************** End of Song ***********************//

        ALIGN 4
DARKPRISON0000:
        BYTE   11                      // Num Tracks
        BYTE   0                       // Unknown
        BYTE   DARKPRISON0000_pri      // Priority
        BYTE   DARKPRISON0000_rev      // Reverb

        POIN2   DARKPRISON0000_grp     

        POIN2   DARKPRISON0000_0
        POIN2   DARKPRISON0000_1
        POIN2   DARKPRISON0000_2
        POIN2   DARKPRISON0000_3
        POIN2   DARKPRISON0000_4
        POIN2   DARKPRISON0000_5
        POIN2   DARKPRISON0000_6
        POIN2   DARKPRISON0000_7
        POIN2   DARKPRISON0000_8
        POIN2   DARKPRISON0000_9
        POIN2   DARKPRISON0000_10

        
