//Event file generated from Sappy .s format.
        #include "MPlayDef.event"

        #define    DrunkAsIlikeTheDUBSpeedArt0_grp  voicegroup000
        #define    DrunkAsIlikeTheDUBSpeedArt0_pri  0
        #define    DrunkAsIlikeTheDUBSpeedArt0_rev  0
        #define    DrunkAsIlikeTheDUBSpeedArt0_key  0

        // .rodata
        // DrunkAsIlikeTheDUBSpeedArt0
        ALIGN 4

//****************** Track 0 (Midi-Chn.0) ******************//

DrunkAsIlikeTheDUBSpeedArt0_0:
        BYTE   KEYSH   DrunkAsIlikeTheDUBSpeedArt0_key+0
// 000   ----------------------------------------
        BYTE   TEMPO   120/2
DrunkAsIlikeTheDUBSpeedArt0_0_LOOP:
        BYTE           VOICE   36
        BYTE           VOL     35
        BYTE           PAN     c_v-45
        BYTE           N12     Dn2   v100
        BYTE   W12
        BYTE           N06
        BYTE   W06
        BYTE                   Dn3
        BYTE   W06
        BYTE                   Cn3
        BYTE   W06
        BYTE                   Dn3
        BYTE   W06
        BYTE           N12     Dn2
        BYTE   W12
        BYTE                   Cn2
        BYTE   W12
        BYTE                   Cn3
        BYTE   W12
        BYTE                   Cn2
        BYTE   W12
        BYTE                   Cn3
        BYTE   W12
// 001   ----------------------------------------
DrunkAsIlikeTheDUBSpeedArt0_0_1:
        BYTE           N18     As1   v100
        BYTE   W18
        BYTE           N06
        BYTE   W06
        BYTE           N12     As2
        BYTE   W12
        BYTE           N06     Fn2
        BYTE   W06
        BYTE                   As1
        BYTE   W06
        BYTE                   Cn3
        BYTE   W06
        BYTE                   Cn2
        BYTE   W06
        BYTE           N12
        BYTE   W12
        BYTE                   Fn2
        BYTE   W12
        BYTE                   En2
        BYTE   W12
        BYTE   PEND
// 002   ----------------------------------------
DrunkAsIlikeTheDUBSpeedArt0_0_2:
        BYTE           N12     Dn2   v100
        BYTE   W12
        BYTE           N06
        BYTE   W06
        BYTE                   Dn3
        BYTE   W06
        BYTE                   Cn3
        BYTE   W06
        BYTE                   Dn3
        BYTE   W06
        BYTE           N12     Dn2
        BYTE   W12
        BYTE                   Cn2
        BYTE   W12
        BYTE                   Cn3
        BYTE   W12
        BYTE                   Cn2
        BYTE   W12
        BYTE                   Cn3
        BYTE   W12
        BYTE   PEND
// 003   ----------------------------------------
DrunkAsIlikeTheDUBSpeedArt0_0_3:
        BYTE           N18     As1   v100
        BYTE   W18
        BYTE           N06
        BYTE   W06
        BYTE           N12     As2
        BYTE   W12
        BYTE           N06     Fn2
        BYTE   W06
        BYTE                   Gn2
        BYTE   W06
        BYTE           N12     An2
        BYTE   W12
        BYTE           N06     En2
        BYTE   W06
        BYTE                   Cn2
        BYTE   W06
        BYTE           N12     An1
        BYTE   W12
        BYTE                   En2
        BYTE   W12
        BYTE   PEND
// 004   ----------------------------------------
        BYTE   PATT
         POIN2  DrunkAsIlikeTheDUBSpeedArt0_0_2
// 005   ----------------------------------------
        BYTE   PATT
         POIN2  DrunkAsIlikeTheDUBSpeedArt0_0_1
// 006   ----------------------------------------
        BYTE   PATT
         POIN2  DrunkAsIlikeTheDUBSpeedArt0_0_2
// 007   ----------------------------------------
        BYTE   PATT
         POIN2  DrunkAsIlikeTheDUBSpeedArt0_0_3
// 008   ----------------------------------------
        BYTE   PATT
         POIN2  DrunkAsIlikeTheDUBSpeedArt0_0_2
// 009   ----------------------------------------
        BYTE   PATT
         POIN2  DrunkAsIlikeTheDUBSpeedArt0_0_1
// 010   ----------------------------------------
DrunkAsIlikeTheDUBSpeedArt0_0_10:
        BYTE           N18     Gn1   v100
        BYTE   W18
        BYTE           N06
        BYTE   W06
        BYTE           N12     Fn2
        BYTE   W06
        BYTE           BEND    c_v+33
        BYTE   W06
        BYTE                   c_v+0
        BYTE           N12     Gn2
        BYTE   W12
        BYTE                   An2
        BYTE   W12
        BYTE                   An1
        BYTE   W12
        BYTE                   En2
        BYTE   W12
        BYTE                   An1
        BYTE   W12
        BYTE   PEND
// 011   ----------------------------------------
DrunkAsIlikeTheDUBSpeedArt0_0_11:
        BYTE           N18     Dn2   v100
        BYTE   W18
        BYTE           N06
        BYTE   W06
        BYTE           N12     Gn2
        BYTE   W06
        BYTE           BEND    c_v+32
        BYTE   W06
        BYTE                   c_v+0
        BYTE           N06     An2
        BYTE   W06
        BYTE                   Cn3
        BYTE   W06
        BYTE                   Dn3
        BYTE   W06
        BYTE                   Dn3
        BYTE   W06
        BYTE                   Cn3
        BYTE   W06
        BYTE                   An2
        BYTE   W06
        BYTE                   Gn2
        BYTE   W06
        BYTE                   Fn2
        BYTE   W06
        BYTE           N12     An1
        BYTE   W12
        BYTE   PEND
// 012   ----------------------------------------
        BYTE   PATT
         POIN2  DrunkAsIlikeTheDUBSpeedArt0_0_2
// 013   ----------------------------------------
        BYTE   PATT
         POIN2  DrunkAsIlikeTheDUBSpeedArt0_0_1
// 014   ----------------------------------------
        BYTE   PATT
         POIN2  DrunkAsIlikeTheDUBSpeedArt0_0_2
// 015   ----------------------------------------
        BYTE   PATT
         POIN2  DrunkAsIlikeTheDUBSpeedArt0_0_3
// 016   ----------------------------------------
        BYTE   PATT
         POIN2  DrunkAsIlikeTheDUBSpeedArt0_0_2
// 017   ----------------------------------------
        BYTE   PATT
         POIN2  DrunkAsIlikeTheDUBSpeedArt0_0_1
// 018   ----------------------------------------
        BYTE   PATT
         POIN2  DrunkAsIlikeTheDUBSpeedArt0_0_10
// 019   ----------------------------------------
        BYTE   PATT
         POIN2  DrunkAsIlikeTheDUBSpeedArt0_0_11
// 020   ----------------------------------------
DrunkAsIlikeTheDUBSpeedArt0_0_20:
        BYTE           N12     As1   v100
        BYTE   W36
        BYTE           N06
        BYTE   W06
        BYTE                   As1
        BYTE   W12
        BYTE                   As2
        BYTE   W06
        BYTE           N12     As1
        BYTE   W12
        BYTE                   Fn2
        BYTE   W12
        BYTE                   As1
        BYTE   W12
        BYTE   PEND
// 021   ----------------------------------------
DrunkAsIlikeTheDUBSpeedArt0_0_21:
        BYTE           N12     An1   v100
        BYTE   W36
        BYTE           N06
        BYTE   W06
        BYTE                   An1
        BYTE   W12
        BYTE                   An2
        BYTE   W06
        BYTE           N12     An1
        BYTE   W12
        BYTE                   En2
        BYTE   W12
        BYTE                   An1
        BYTE   W12
        BYTE   PEND
// 022   ----------------------------------------
DrunkAsIlikeTheDUBSpeedArt0_0_22:
        BYTE           N12     Gn1   v100
        BYTE   W36
        BYTE           N06
        BYTE   W06
        BYTE                   Gn1
        BYTE   W12
        BYTE                   Gn1
        BYTE   W06
        BYTE                   As1
        BYTE   W06
        BYTE                   Cn2
        BYTE   W06
        BYTE                   Cs2
        BYTE   W06
        BYTE                   Dn2
        BYTE   W06
        BYTE           N12     Gn2
        BYTE   W12
        BYTE   PEND
// 023   ----------------------------------------
DrunkAsIlikeTheDUBSpeedArt0_0_23:
        BYTE           N12     An1   v100
        BYTE   W36
        BYTE           N06
        BYTE   W06
        BYTE                   An1
        BYTE   W06
        BYTE                   An2
        BYTE   W06
        BYTE                   An2
        BYTE   W06
        BYTE                   Gn2
        BYTE   W06
        BYTE                   An2
        BYTE   W06
        BYTE                   En2
        BYTE   W06
        BYTE                   Fn2
        BYTE   W06
        BYTE           N12     An1
        BYTE   W12
        BYTE   PEND
// 024   ----------------------------------------
        BYTE   PATT
         POIN2  DrunkAsIlikeTheDUBSpeedArt0_0_20
// 025   ----------------------------------------
        BYTE   PATT
         POIN2  DrunkAsIlikeTheDUBSpeedArt0_0_21
// 026   ----------------------------------------
DrunkAsIlikeTheDUBSpeedArt0_0_26:
        BYTE           N12     As1   v100
        BYTE   W36
        BYTE           N06
        BYTE   W06
        BYTE                   Cn2
        BYTE   W12
        BYTE                   Cn3
        BYTE   W06
        BYTE           N12     Cn2
        BYTE   W12
        BYTE                   Gn2
        BYTE   W12
        BYTE                   En2
        BYTE   W12
        BYTE   PEND
// 027   ----------------------------------------
DrunkAsIlikeTheDUBSpeedArt0_0_27:
        BYTE           N30     Dn2   v100
        BYTE   W30
        BYTE           N06     Fn2
        BYTE   W06
        BYTE                   Gs2
        BYTE   W06
        BYTE                   An2
        BYTE   W06
        BYTE                   Cn3
        BYTE   W06
        BYTE                   Dn3
        BYTE   W06
        BYTE                   An2
        BYTE   W06
        BYTE                   Gn2
        BYTE   W06
        BYTE                   Fn2
        BYTE   W06
        BYTE           N18     Cn2
        BYTE   W18
        BYTE   PEND
// 028   ----------------------------------------
        BYTE           N12     Dn2
        BYTE   GoTo
         POIN2  DrunkAsIlikeTheDUBSpeedArt0_0_LOOP
        BYTE   W12
        BYTE           N06
        BYTE   W06
        BYTE                   Dn3
        BYTE   W06
        BYTE                   Cn3
        BYTE   W06
        BYTE                   Dn3
        BYTE   W06
        BYTE           N12     Dn2
        BYTE   W12
        BYTE                   Cn2
        BYTE   W12
        BYTE                   Cn3
        BYTE   W12
        BYTE                   Cn2
        BYTE   W12
        BYTE                   Cn3
        BYTE   W12
// 029   ----------------------------------------
        BYTE   PATT
         POIN2  DrunkAsIlikeTheDUBSpeedArt0_0_1
// 030   ----------------------------------------
        BYTE   PATT
         POIN2  DrunkAsIlikeTheDUBSpeedArt0_0_2
// 031   ----------------------------------------
        BYTE   PATT
         POIN2  DrunkAsIlikeTheDUBSpeedArt0_0_3
// 032   ----------------------------------------
        BYTE   PATT
         POIN2  DrunkAsIlikeTheDUBSpeedArt0_0_2
// 033   ----------------------------------------
        BYTE   PATT
         POIN2  DrunkAsIlikeTheDUBSpeedArt0_0_1
// 034   ----------------------------------------
        BYTE   PATT
         POIN2  DrunkAsIlikeTheDUBSpeedArt0_0_2
// 035   ----------------------------------------
        BYTE   PATT
         POIN2  DrunkAsIlikeTheDUBSpeedArt0_0_3
// 036   ----------------------------------------
        BYTE   PATT
         POIN2  DrunkAsIlikeTheDUBSpeedArt0_0_2
// 037   ----------------------------------------
        BYTE   PATT
         POIN2  DrunkAsIlikeTheDUBSpeedArt0_0_1
// 038   ----------------------------------------
        BYTE   PATT
         POIN2  DrunkAsIlikeTheDUBSpeedArt0_0_10
// 039   ----------------------------------------
        BYTE   PATT
         POIN2  DrunkAsIlikeTheDUBSpeedArt0_0_11
// 040   ----------------------------------------
        BYTE   PATT
         POIN2  DrunkAsIlikeTheDUBSpeedArt0_0_2
// 041   ----------------------------------------
        BYTE   PATT
         POIN2  DrunkAsIlikeTheDUBSpeedArt0_0_1
// 042   ----------------------------------------
        BYTE   PATT
         POIN2  DrunkAsIlikeTheDUBSpeedArt0_0_2
// 043   ----------------------------------------
        BYTE   PATT
         POIN2  DrunkAsIlikeTheDUBSpeedArt0_0_3
// 044   ----------------------------------------
        BYTE   PATT
         POIN2  DrunkAsIlikeTheDUBSpeedArt0_0_2
// 045   ----------------------------------------
        BYTE   PATT
         POIN2  DrunkAsIlikeTheDUBSpeedArt0_0_1
// 046   ----------------------------------------
        BYTE   PATT
         POIN2  DrunkAsIlikeTheDUBSpeedArt0_0_10
// 047   ----------------------------------------
        BYTE   PATT
         POIN2  DrunkAsIlikeTheDUBSpeedArt0_0_11
// 048   ----------------------------------------
        BYTE   PATT
         POIN2  DrunkAsIlikeTheDUBSpeedArt0_0_20
// 049   ----------------------------------------
        BYTE   PATT
         POIN2  DrunkAsIlikeTheDUBSpeedArt0_0_21
// 050   ----------------------------------------
        BYTE   PATT
         POIN2  DrunkAsIlikeTheDUBSpeedArt0_0_22
// 051   ----------------------------------------
        BYTE   PATT
         POIN2  DrunkAsIlikeTheDUBSpeedArt0_0_23
// 052   ----------------------------------------
        BYTE   PATT
         POIN2  DrunkAsIlikeTheDUBSpeedArt0_0_20
// 053   ----------------------------------------
        BYTE   PATT
         POIN2  DrunkAsIlikeTheDUBSpeedArt0_0_21
// 054   ----------------------------------------
        BYTE   PATT
         POIN2  DrunkAsIlikeTheDUBSpeedArt0_0_26
// 055   ----------------------------------------
        BYTE   PATT
         POIN2  DrunkAsIlikeTheDUBSpeedArt0_0_27
// 056   ----------------------------------------
        BYTE   FINE

//****************** Track 1 (Midi-Chn.1) ******************//

DrunkAsIlikeTheDUBSpeedArt0_1:
        BYTE   KEYSH   DrunkAsIlikeTheDUBSpeedArt0_key+0
// 000   ----------------------------------------
DrunkAsIlikeTheDUBSpeedArt0_1_LOOP:
        BYTE           VOICE   90
        BYTE           PAN     c_v-13
        BYTE           VOL     39
        BYTE           N06     Dn3   v100
        BYTE   W12
        BYTE                   Dn3
        BYTE   W12
        BYTE           N12     Fn3
        BYTE   W12
        BYTE           N06     Gn3
        BYTE   W06
        BYTE                   Gs3
        BYTE   W06
        BYTE                   An3
        BYTE   W12
        BYTE                   An3
        BYTE   W12
        BYTE                   An3
        BYTE   W06
        BYTE                   Gn3
        BYTE   W06
        BYTE           N12     Fn3
        BYTE   W12
// 001   ----------------------------------------
DrunkAsIlikeTheDUBSpeedArt0_1_1:
        BYTE           N06     Dn3   v100
        BYTE   W12
        BYTE                   Dn3
        BYTE   W12
        BYTE           N12
        BYTE   W12
        BYTE           N06     Cn3
        BYTE   W06
        BYTE                   Gs2
        BYTE   W06
        BYTE                   An2
        BYTE   W06
        BYTE                   Cn3
        BYTE   W06
        BYTE           N12     An2
        BYTE   W12
        BYTE                   Cn3
        BYTE   W12
        BYTE                   Cs3
        BYTE   W12
        BYTE   PEND
// 002   ----------------------------------------
DrunkAsIlikeTheDUBSpeedArt0_1_2:
        BYTE           N06     Dn3   v100
        BYTE   W12
        BYTE                   Dn3
        BYTE   W12
        BYTE           N12     Fn3
        BYTE   W12
        BYTE           N06     Gn3
        BYTE   W06
        BYTE                   Gs3
        BYTE   W06
        BYTE                   An3
        BYTE   W12
        BYTE                   An3
        BYTE   W12
        BYTE                   An3
        BYTE   W06
        BYTE                   Gn3
        BYTE   W06
        BYTE           N12     An3
        BYTE   W12
        BYTE   PEND
// 003   ----------------------------------------
DrunkAsIlikeTheDUBSpeedArt0_1_3:
        BYTE           N06     Cn4   v100
        BYTE   W12
        BYTE                   Cn4
        BYTE   W12
        BYTE                   Cn4
        BYTE   W06
        BYTE                   An3
        BYTE   W06
        BYTE           N12     Gn3
        BYTE   W12
        BYTE           N06     An3
        BYTE   W12
        BYTE                   An3
        BYTE   W12
        BYTE           N24
        BYTE   W24
        BYTE   PEND
// 004   ----------------------------------------
DrunkAsIlikeTheDUBSpeedArt0_1_4:
        BYTE           N06     Dn3   v100
        BYTE   W12
        BYTE                   Dn3
        BYTE   W12
        BYTE           N12     Fn3
        BYTE   W12
        BYTE           N06     Gn3
        BYTE   W06
        BYTE                   Gs3
        BYTE   W06
        BYTE                   An3
        BYTE   W12
        BYTE                   An3
        BYTE   W12
        BYTE                   An3
        BYTE   W06
        BYTE                   Gn3
        BYTE   W06
        BYTE           N12     Fn3
        BYTE   W12
        BYTE   PEND
// 005   ----------------------------------------
        BYTE   PATT
         POIN2  DrunkAsIlikeTheDUBSpeedArt0_1_1
// 006   ----------------------------------------
        BYTE   PATT
         POIN2  DrunkAsIlikeTheDUBSpeedArt0_1_2
// 007   ----------------------------------------
        BYTE   PATT
         POIN2  DrunkAsIlikeTheDUBSpeedArt0_1_3
// 008   ----------------------------------------
        BYTE   PATT
         POIN2  DrunkAsIlikeTheDUBSpeedArt0_1_4
// 009   ----------------------------------------
        BYTE   PATT
         POIN2  DrunkAsIlikeTheDUBSpeedArt0_1_1
// 010   ----------------------------------------
DrunkAsIlikeTheDUBSpeedArt0_1_10:
        BYTE           N06     Dn3   v100
        BYTE   W12
        BYTE                   Dn3
        BYTE   W12
        BYTE           N12     Fn3
        BYTE   W12
        BYTE           N06     Gn3
        BYTE   W06
        BYTE                   Dn3
        BYTE   W06
        BYTE                   Cn3
        BYTE   W12
        BYTE                   Cn3
        BYTE   W12
        BYTE                   Cn3
        BYTE   W06
        BYTE                   An2
        BYTE   W06
        BYTE           N12     Cn3
        BYTE   W12
        BYTE   PEND
// 011   ----------------------------------------
DrunkAsIlikeTheDUBSpeedArt0_1_11:
        BYTE           N06     Dn4   v100
        BYTE   W06
        BYTE                   Cn4
        BYTE   W06
        BYTE                   Dn4
        BYTE   W12
        BYTE           N12     Cn4
        BYTE   W12
        BYTE           N06     An3
        BYTE   W06
        BYTE                   Gn3
        BYTE   W06
        BYTE                   Gs3
        BYTE   W06
        BYTE                   An3
        BYTE   W06
        BYTE                   Gn3
        BYTE   W06
        BYTE                   Fn3
        BYTE   W06
        BYTE                   Dn3
        BYTE   W24
        BYTE   PEND
// 012   ----------------------------------------
        BYTE   PATT
         POIN2  DrunkAsIlikeTheDUBSpeedArt0_1_4
// 013   ----------------------------------------
        BYTE   PATT
         POIN2  DrunkAsIlikeTheDUBSpeedArt0_1_1
// 014   ----------------------------------------
        BYTE   PATT
         POIN2  DrunkAsIlikeTheDUBSpeedArt0_1_2
// 015   ----------------------------------------
        BYTE   PATT
         POIN2  DrunkAsIlikeTheDUBSpeedArt0_1_3
// 016   ----------------------------------------
        BYTE   PATT
         POIN2  DrunkAsIlikeTheDUBSpeedArt0_1_4
// 017   ----------------------------------------
        BYTE   PATT
         POIN2  DrunkAsIlikeTheDUBSpeedArt0_1_1
// 018   ----------------------------------------
DrunkAsIlikeTheDUBSpeedArt0_1_18:
        BYTE           N06     Dn3   v100
        BYTE   W12
        BYTE                   Dn3
        BYTE   W12
        BYTE           N12
        BYTE   W12
        BYTE           N06     En3
        BYTE   W06
        BYTE                   Fn3
        BYTE   W06
        BYTE                   Gn3
        BYTE   W12
        BYTE                   Gn3
        BYTE   W12
        BYTE                   Gn3
        BYTE   W06
        BYTE                   En3
        BYTE   W06
        BYTE           N12     Cn3
        BYTE   W12
        BYTE   PEND
// 019   ----------------------------------------
DrunkAsIlikeTheDUBSpeedArt0_1_19:
        BYTE           N06     Dn3   v100
        BYTE   W12
        BYTE                   Dn3
        BYTE   W12
        BYTE                   Gn3
        BYTE   W06
        BYTE                   En3
        BYTE   W06
        BYTE                   Fn3
        BYTE   W06
        BYTE                   An3
        BYTE   W06
        BYTE                   Cn4
        BYTE   W06
        BYTE                   An3
        BYTE   W06
        BYTE                   Cn4
        BYTE   W06
        BYTE                   Cs4
        BYTE   W06
        BYTE           TIE     Dn4
        BYTE   W24
        BYTE   PEND
// 020   ----------------------------------------
        BYTE   W96
// 021   ----------------------------------------
DrunkAsIlikeTheDUBSpeedArt0_1_21:
        BYTE           EOT     Dn4
        BYTE           N36     An3   v100
        BYTE   W36
        BYTE           N06     Gn3
        BYTE   W06
        BYTE                   An3
        BYTE   W06
        BYTE           N12     Cn4
        BYTE   W12
        BYTE                   As3
        BYTE   W12
        BYTE                   An3
        BYTE   W12
        BYTE                   Gn3
        BYTE   W12
        BYTE   PEND
// 022   ----------------------------------------
        BYTE           N96     Fn3
        BYTE   W96
// 023   ----------------------------------------
DrunkAsIlikeTheDUBSpeedArt0_1_23:
        BYTE           N18     Gn3   v100
        BYTE   W18
        BYTE                   An3
        BYTE   W18
        BYTE           N12     Cn4
        BYTE   W12
        BYTE           N24     An3
        BYTE   W24
        BYTE           N12
        BYTE   W12
        BYTE                   Gn3
        BYTE   W12
        BYTE   PEND
// 024   ----------------------------------------
        BYTE           N96     Fn3
        BYTE   W96
// 025   ----------------------------------------
DrunkAsIlikeTheDUBSpeedArt0_1_25:
        BYTE           N36     An3   v100
        BYTE   W36
        BYTE           N06     Gn3
        BYTE   W06
        BYTE                   An3
        BYTE   W06
        BYTE           N12     Cn4
        BYTE   W12
        BYTE                   As3
        BYTE   W12
        BYTE                   An3
        BYTE   W12
        BYTE                   Gn3
        BYTE   W12
        BYTE   PEND
// 026   ----------------------------------------
DrunkAsIlikeTheDUBSpeedArt0_1_26:
        BYTE           N36     Fn3   v100
        BYTE   W36
        BYTE           N06     En3
        BYTE   W06
        BYTE                   Fn3
        BYTE   W06
        BYTE           N12     An3
        BYTE   W12
        BYTE                   Gn3
        BYTE   W12
        BYTE                   An3
        BYTE   W12
        BYTE                   Cn4
        BYTE   W12
        BYTE   PEND
// 027   ----------------------------------------
DrunkAsIlikeTheDUBSpeedArt0_1_27:
        BYTE           N06     Dn4   v100
        BYTE   W12
        BYTE                   Dn4
        BYTE   W12
        BYTE           N12     Cn4
        BYTE   W12
        BYTE           N06     An3
        BYTE   W06
        BYTE                   Gn3
        BYTE   W06
        BYTE                   Gs3
        BYTE   W06
        BYTE                   An3
        BYTE   W06
        BYTE                   Fn3
        BYTE   W06
        BYTE                   En3
        BYTE   W06
        BYTE                   Dn3
        BYTE   W06
        BYTE           N18     Cn3
        BYTE   W18
        BYTE   PEND
// 028   ----------------------------------------
        BYTE           N06     Dn3
        BYTE   GoTo
         POIN2  DrunkAsIlikeTheDUBSpeedArt0_1_LOOP
        BYTE   W12
        BYTE                   Dn3
        BYTE   W12
        BYTE           N12     Fn3
        BYTE   W12
        BYTE           N06     Gn3
        BYTE   W06
        BYTE                   Gs3
        BYTE   W06
        BYTE                   An3
        BYTE   W12
        BYTE                   An3
        BYTE   W12
        BYTE                   An3
        BYTE   W06
        BYTE                   Gn3
        BYTE   W06
        BYTE           N12     Fn3
        BYTE   W12
// 029   ----------------------------------------
        BYTE   PATT
         POIN2  DrunkAsIlikeTheDUBSpeedArt0_1_1
// 030   ----------------------------------------
        BYTE   PATT
         POIN2  DrunkAsIlikeTheDUBSpeedArt0_1_2
// 031   ----------------------------------------
        BYTE   PATT
         POIN2  DrunkAsIlikeTheDUBSpeedArt0_1_3
// 032   ----------------------------------------
        BYTE   PATT
         POIN2  DrunkAsIlikeTheDUBSpeedArt0_1_4
// 033   ----------------------------------------
        BYTE   PATT
         POIN2  DrunkAsIlikeTheDUBSpeedArt0_1_1
// 034   ----------------------------------------
        BYTE   PATT
         POIN2  DrunkAsIlikeTheDUBSpeedArt0_1_2
// 035   ----------------------------------------
        BYTE   PATT
         POIN2  DrunkAsIlikeTheDUBSpeedArt0_1_3
// 036   ----------------------------------------
        BYTE   PATT
         POIN2  DrunkAsIlikeTheDUBSpeedArt0_1_4
// 037   ----------------------------------------
        BYTE   PATT
         POIN2  DrunkAsIlikeTheDUBSpeedArt0_1_1
// 038   ----------------------------------------
        BYTE   PATT
         POIN2  DrunkAsIlikeTheDUBSpeedArt0_1_10
// 039   ----------------------------------------
        BYTE   PATT
         POIN2  DrunkAsIlikeTheDUBSpeedArt0_1_11
// 040   ----------------------------------------
        BYTE   PATT
         POIN2  DrunkAsIlikeTheDUBSpeedArt0_1_4
// 041   ----------------------------------------
        BYTE   PATT
         POIN2  DrunkAsIlikeTheDUBSpeedArt0_1_1
// 042   ----------------------------------------
        BYTE   PATT
         POIN2  DrunkAsIlikeTheDUBSpeedArt0_1_2
// 043   ----------------------------------------
        BYTE   PATT
         POIN2  DrunkAsIlikeTheDUBSpeedArt0_1_3
// 044   ----------------------------------------
        BYTE   PATT
         POIN2  DrunkAsIlikeTheDUBSpeedArt0_1_4
// 045   ----------------------------------------
        BYTE   PATT
         POIN2  DrunkAsIlikeTheDUBSpeedArt0_1_1
// 046   ----------------------------------------
        BYTE   PATT
         POIN2  DrunkAsIlikeTheDUBSpeedArt0_1_18
// 047   ----------------------------------------
        BYTE   PATT
         POIN2  DrunkAsIlikeTheDUBSpeedArt0_1_19
// 048   ----------------------------------------
        BYTE   W96
// 049   ----------------------------------------
        BYTE   PATT
         POIN2  DrunkAsIlikeTheDUBSpeedArt0_1_21
// 050   ----------------------------------------
        BYTE           N96     Fn3   v100
        BYTE   W96
// 051   ----------------------------------------
        BYTE   PATT
         POIN2  DrunkAsIlikeTheDUBSpeedArt0_1_23
// 052   ----------------------------------------
        BYTE           N96     Fn3   v100
        BYTE   W96
// 053   ----------------------------------------
        BYTE   PATT
         POIN2  DrunkAsIlikeTheDUBSpeedArt0_1_25
// 054   ----------------------------------------
        BYTE   PATT
         POIN2  DrunkAsIlikeTheDUBSpeedArt0_1_26
// 055   ----------------------------------------
        BYTE   PATT
         POIN2  DrunkAsIlikeTheDUBSpeedArt0_1_27
// 056   ----------------------------------------
        BYTE   FINE

//****************** Track 2 (Midi-Chn.2) ******************//

DrunkAsIlikeTheDUBSpeedArt0_2:
        BYTE   KEYSH   DrunkAsIlikeTheDUBSpeedArt0_key+0
// 000   ----------------------------------------
DrunkAsIlikeTheDUBSpeedArt0_2_LOOP:
        BYTE           VOICE   99
        BYTE           PAN     c_v-8
        BYTE           VOL     32
        BYTE           N06     Dn4   v080
        BYTE   W12
        BYTE                   Dn4
        BYTE   W12
        BYTE           N12     Fn4
        BYTE   W12
        BYTE           N06     Gn4
        BYTE   W06
        BYTE                   Gs4
        BYTE   W06
        BYTE                   An4
        BYTE   W12
        BYTE                   An4
        BYTE   W12
        BYTE                   An4
        BYTE   W06
        BYTE                   Gn4
        BYTE   W06
        BYTE           N12     Fn4
        BYTE   W12
// 001   ----------------------------------------
DrunkAsIlikeTheDUBSpeedArt0_2_1:
        BYTE           N06     Dn4   v080
        BYTE   W12
        BYTE                   Dn4
        BYTE   W12
        BYTE           N12
        BYTE   W12
        BYTE           N06     Cn4
        BYTE   W06
        BYTE                   Gs3
        BYTE   W06
        BYTE                   An3
        BYTE   W06
        BYTE                   Cn4
        BYTE   W06
        BYTE           N12     An3
        BYTE   W12
        BYTE                   Cn4
        BYTE   W12
        BYTE                   Cs4
        BYTE   W12
        BYTE   PEND
// 002   ----------------------------------------
DrunkAsIlikeTheDUBSpeedArt0_2_2:
        BYTE           N06     Dn4   v080
        BYTE   W12
        BYTE                   Dn4
        BYTE   W12
        BYTE           N12     Fn4
        BYTE   W12
        BYTE           N06     Gn4
        BYTE   W06
        BYTE                   Gs4
        BYTE   W06
        BYTE                   An4
        BYTE   W12
        BYTE                   An4
        BYTE   W12
        BYTE                   An4
        BYTE   W06
        BYTE                   Gn4
        BYTE   W06
        BYTE           N12     An4
        BYTE   W12
        BYTE   PEND
// 003   ----------------------------------------
DrunkAsIlikeTheDUBSpeedArt0_2_3:
        BYTE           N06     Cn5   v080
        BYTE   W12
        BYTE                   Cn5
        BYTE   W12
        BYTE                   Cn5
        BYTE   W06
        BYTE                   An4
        BYTE   W06
        BYTE           N12     Gn4
        BYTE   W12
        BYTE           N06     An4
        BYTE   W12
        BYTE                   An4
        BYTE   W12
        BYTE           N24
        BYTE   W24
        BYTE   PEND
// 004   ----------------------------------------
DrunkAsIlikeTheDUBSpeedArt0_2_4:
        BYTE           N06     Dn4   v080
        BYTE   W12
        BYTE                   Dn4
        BYTE   W12
        BYTE           N12     Fn4
        BYTE   W12
        BYTE           N06     Gn4
        BYTE   W06
        BYTE                   Gs4
        BYTE   W06
        BYTE                   An4
        BYTE   W12
        BYTE                   An4
        BYTE   W12
        BYTE                   An4
        BYTE   W06
        BYTE                   Gn4
        BYTE   W06
        BYTE           N12     Fn4
        BYTE   W12
        BYTE   PEND
// 005   ----------------------------------------
        BYTE   PATT
         POIN2  DrunkAsIlikeTheDUBSpeedArt0_2_1
// 006   ----------------------------------------
        BYTE   PATT
         POIN2  DrunkAsIlikeTheDUBSpeedArt0_2_2
// 007   ----------------------------------------
        BYTE   PATT
         POIN2  DrunkAsIlikeTheDUBSpeedArt0_2_3
// 008   ----------------------------------------
        BYTE   PATT
         POIN2  DrunkAsIlikeTheDUBSpeedArt0_2_4
// 009   ----------------------------------------
        BYTE   PATT
         POIN2  DrunkAsIlikeTheDUBSpeedArt0_2_1
// 010   ----------------------------------------
DrunkAsIlikeTheDUBSpeedArt0_2_10:
        BYTE           N06     Dn4   v080
        BYTE   W12
        BYTE                   Dn4
        BYTE   W12
        BYTE           N12     Fn4
        BYTE   W12
        BYTE           N06     Gn4
        BYTE   W06
        BYTE                   Dn4
        BYTE   W06
        BYTE                   Cn4
        BYTE   W12
        BYTE                   Cn4
        BYTE   W12
        BYTE                   Cn4
        BYTE   W06
        BYTE                   An3
        BYTE   W06
        BYTE           N12     Cn4
        BYTE   W12
        BYTE   PEND
// 011   ----------------------------------------
DrunkAsIlikeTheDUBSpeedArt0_2_11:
        BYTE           N06     Dn5   v080
        BYTE   W06
        BYTE                   Cn5
        BYTE   W06
        BYTE                   Dn5
        BYTE   W12
        BYTE           N12     Cn5
        BYTE   W12
        BYTE           N06     An4
        BYTE   W06
        BYTE                   Gn4
        BYTE   W06
        BYTE                   Gs4
        BYTE   W06
        BYTE                   An4
        BYTE   W06
        BYTE                   Gn4
        BYTE   W06
        BYTE                   Fn4
        BYTE   W06
        BYTE                   Dn4
        BYTE   W24
        BYTE   PEND
// 012   ----------------------------------------
        BYTE   PATT
         POIN2  DrunkAsIlikeTheDUBSpeedArt0_2_4
// 013   ----------------------------------------
        BYTE   PATT
         POIN2  DrunkAsIlikeTheDUBSpeedArt0_2_1
// 014   ----------------------------------------
        BYTE   PATT
         POIN2  DrunkAsIlikeTheDUBSpeedArt0_2_2
// 015   ----------------------------------------
        BYTE   PATT
         POIN2  DrunkAsIlikeTheDUBSpeedArt0_2_3
// 016   ----------------------------------------
        BYTE   PATT
         POIN2  DrunkAsIlikeTheDUBSpeedArt0_2_4
// 017   ----------------------------------------
        BYTE   PATT
         POIN2  DrunkAsIlikeTheDUBSpeedArt0_2_1
// 018   ----------------------------------------
DrunkAsIlikeTheDUBSpeedArt0_2_18:
        BYTE           N06     Dn4   v080
        BYTE   W12
        BYTE                   Dn4
        BYTE   W12
        BYTE           N12
        BYTE   W12
        BYTE           N06     En4
        BYTE   W06
        BYTE                   Fn4
        BYTE   W06
        BYTE                   Gn4
        BYTE   W12
        BYTE                   Gn4
        BYTE   W12
        BYTE                   Gn4
        BYTE   W06
        BYTE                   En4
        BYTE   W06
        BYTE           N12     Cn4
        BYTE   W12
        BYTE   PEND
// 019   ----------------------------------------
DrunkAsIlikeTheDUBSpeedArt0_2_19:
        BYTE           N06     Dn4   v080
        BYTE   W12
        BYTE                   Dn4
        BYTE   W12
        BYTE                   Gn4
        BYTE   W06
        BYTE                   En4
        BYTE   W06
        BYTE                   Fn4
        BYTE   W06
        BYTE                   An4
        BYTE   W06
        BYTE                   Cn5
        BYTE   W06
        BYTE                   An4
        BYTE   W06
        BYTE                   Cn5
        BYTE   W06
        BYTE                   Cs5
        BYTE   W06
        BYTE           TIE     Dn5
        BYTE   W24
        BYTE   PEND
// 020   ----------------------------------------
        BYTE   W96
// 021   ----------------------------------------
DrunkAsIlikeTheDUBSpeedArt0_2_21:
        BYTE           EOT     Dn5
        BYTE           N36     An4   v080
        BYTE   W36
        BYTE           N06     Gn4
        BYTE   W06
        BYTE                   An4
        BYTE   W06
        BYTE           N12     Cn5
        BYTE   W12
        BYTE                   As4
        BYTE   W12
        BYTE                   An4
        BYTE   W12
        BYTE                   Gn4
        BYTE   W12
        BYTE   PEND
// 022   ----------------------------------------
        BYTE           N96     Fn4
        BYTE   W96
// 023   ----------------------------------------
DrunkAsIlikeTheDUBSpeedArt0_2_23:
        BYTE           N18     Gn4   v080
        BYTE   W18
        BYTE                   An4
        BYTE   W18
        BYTE           N12     Cn5
        BYTE   W12
        BYTE           N24     An4
        BYTE   W24
        BYTE           N12     En4
        BYTE   W12
        BYTE                   Gn4
        BYTE   W12
        BYTE   PEND
// 024   ----------------------------------------
        BYTE           N96     Fn4
        BYTE   W96
// 025   ----------------------------------------
DrunkAsIlikeTheDUBSpeedArt0_2_25:
        BYTE           N36     An4   v080
        BYTE   W36
        BYTE           N06     Gn4
        BYTE   W06
        BYTE                   An4
        BYTE   W06
        BYTE           N12     Cn5
        BYTE   W12
        BYTE                   As4
        BYTE   W12
        BYTE                   An4
        BYTE   W12
        BYTE                   Gn4
        BYTE   W12
        BYTE   PEND
// 026   ----------------------------------------
DrunkAsIlikeTheDUBSpeedArt0_2_26:
        BYTE           N36     Fn4   v080
        BYTE   W36
        BYTE           N06     En4
        BYTE   W06
        BYTE                   Fn4
        BYTE   W06
        BYTE           N12     An4
        BYTE   W12
        BYTE                   Gn4
        BYTE   W12
        BYTE                   An4
        BYTE   W12
        BYTE                   Cn5
        BYTE   W12
        BYTE   PEND
// 027   ----------------------------------------
DrunkAsIlikeTheDUBSpeedArt0_2_27:
        BYTE           N06     Dn5   v080
        BYTE   W12
        BYTE                   Dn5
        BYTE   W12
        BYTE           N12     Cn5
        BYTE   W12
        BYTE           N06     An4
        BYTE   W06
        BYTE                   Gn4
        BYTE   W06
        BYTE                   Gs4
        BYTE   W06
        BYTE                   An4
        BYTE   W06
        BYTE                   Fn4
        BYTE   W06
        BYTE                   En4
        BYTE   W06
        BYTE                   Dn4
        BYTE   W06
        BYTE           N18     Cn4
        BYTE   W18
        BYTE   PEND
// 028   ----------------------------------------
        BYTE           N06     Dn4
        BYTE   GoTo
         POIN2  DrunkAsIlikeTheDUBSpeedArt0_2_LOOP
        BYTE   W12
        BYTE                   Dn4
        BYTE   W12
        BYTE           N12     Fn4
        BYTE   W12
        BYTE           N06     Gn4
        BYTE   W06
        BYTE                   Gs4
        BYTE   W06
        BYTE                   An4
        BYTE   W12
        BYTE                   An4
        BYTE   W12
        BYTE                   An4
        BYTE   W06
        BYTE                   Gn4
        BYTE   W06
        BYTE           N12     Fn4
        BYTE   W12
// 029   ----------------------------------------
        BYTE   PATT
         POIN2  DrunkAsIlikeTheDUBSpeedArt0_2_1
// 030   ----------------------------------------
        BYTE   PATT
         POIN2  DrunkAsIlikeTheDUBSpeedArt0_2_2
// 031   ----------------------------------------
        BYTE   PATT
         POIN2  DrunkAsIlikeTheDUBSpeedArt0_2_3
// 032   ----------------------------------------
        BYTE   PATT
         POIN2  DrunkAsIlikeTheDUBSpeedArt0_2_4
// 033   ----------------------------------------
        BYTE   PATT
         POIN2  DrunkAsIlikeTheDUBSpeedArt0_2_1
// 034   ----------------------------------------
        BYTE   PATT
         POIN2  DrunkAsIlikeTheDUBSpeedArt0_2_2
// 035   ----------------------------------------
        BYTE   PATT
         POIN2  DrunkAsIlikeTheDUBSpeedArt0_2_3
// 036   ----------------------------------------
        BYTE   PATT
         POIN2  DrunkAsIlikeTheDUBSpeedArt0_2_4
// 037   ----------------------------------------
        BYTE   PATT
         POIN2  DrunkAsIlikeTheDUBSpeedArt0_2_1
// 038   ----------------------------------------
        BYTE   PATT
         POIN2  DrunkAsIlikeTheDUBSpeedArt0_2_10
// 039   ----------------------------------------
        BYTE   PATT
         POIN2  DrunkAsIlikeTheDUBSpeedArt0_2_11
// 040   ----------------------------------------
        BYTE   PATT
         POIN2  DrunkAsIlikeTheDUBSpeedArt0_2_4
// 041   ----------------------------------------
        BYTE   PATT
         POIN2  DrunkAsIlikeTheDUBSpeedArt0_2_1
// 042   ----------------------------------------
        BYTE   PATT
         POIN2  DrunkAsIlikeTheDUBSpeedArt0_2_2
// 043   ----------------------------------------
        BYTE   PATT
         POIN2  DrunkAsIlikeTheDUBSpeedArt0_2_3
// 044   ----------------------------------------
        BYTE   PATT
         POIN2  DrunkAsIlikeTheDUBSpeedArt0_2_4
// 045   ----------------------------------------
        BYTE   PATT
         POIN2  DrunkAsIlikeTheDUBSpeedArt0_2_1
// 046   ----------------------------------------
        BYTE   PATT
         POIN2  DrunkAsIlikeTheDUBSpeedArt0_2_18
// 047   ----------------------------------------
        BYTE   PATT
         POIN2  DrunkAsIlikeTheDUBSpeedArt0_2_19
// 048   ----------------------------------------
        BYTE   W96
// 049   ----------------------------------------
        BYTE   PATT
         POIN2  DrunkAsIlikeTheDUBSpeedArt0_2_21
// 050   ----------------------------------------
        BYTE           N96     Fn4   v080
        BYTE   W96
// 051   ----------------------------------------
        BYTE   PATT
         POIN2  DrunkAsIlikeTheDUBSpeedArt0_2_23
// 052   ----------------------------------------
        BYTE           N96     Fn4   v080
        BYTE   W96
// 053   ----------------------------------------
        BYTE   PATT
         POIN2  DrunkAsIlikeTheDUBSpeedArt0_2_25
// 054   ----------------------------------------
        BYTE   PATT
         POIN2  DrunkAsIlikeTheDUBSpeedArt0_2_26
// 055   ----------------------------------------
        BYTE   PATT
         POIN2  DrunkAsIlikeTheDUBSpeedArt0_2_27
// 056   ----------------------------------------
        BYTE   FINE

//****************** Track 3 (Midi-Chn.3) ******************//

DrunkAsIlikeTheDUBSpeedArt0_3:
        BYTE   KEYSH   DrunkAsIlikeTheDUBSpeedArt0_key+0
// 000   ----------------------------------------
DrunkAsIlikeTheDUBSpeedArt0_3_LOOP:
        BYTE           VOICE   56
        BYTE           VOL     39
        BYTE           PAN     c_v+20
        BYTE   W96
// 001   ----------------------------------------
        BYTE   W96
// 002   ----------------------------------------
        BYTE   W96
// 003   ----------------------------------------
DrunkAsIlikeTheDUBSpeedArt0_3_3:
        BYTE   W72
        BYTE           N12     An2   v110
        BYTE   W12
        BYTE                   Cn3
        BYTE   W12
        BYTE   PEND
// 004   ----------------------------------------
DrunkAsIlikeTheDUBSpeedArt0_3_4:
        BYTE           N72     Dn3   v110
        BYTE   W72
        BYTE           N12     Cn3
        BYTE   W12
        BYTE                   Dn3
        BYTE   W12
        BYTE   PEND
// 005   ----------------------------------------
DrunkAsIlikeTheDUBSpeedArt0_3_5:
        BYTE           N12     Fn3   v110
        BYTE   W12
        BYTE                   En3
        BYTE   W12
        BYTE           N04     Dn3
        BYTE   W04
        BYTE                   En3
        BYTE   W04
        BYTE                   Dn3
        BYTE   W04
        BYTE           N12     Cn3
        BYTE   W12
        BYTE           N24     Dn3
        BYTE   W24
        BYTE           N12     An2
        BYTE   W12
        BYTE                   Cn3
        BYTE   W12
        BYTE   PEND
// 006   ----------------------------------------
DrunkAsIlikeTheDUBSpeedArt0_3_6:
        BYTE           N60     Dn3   v110
        BYTE   W60
        BYTE           N12
        BYTE   W12
        BYTE           N06     En3
        BYTE   W12
        BYTE                   Fn3
        BYTE   W12
        BYTE   PEND
// 007   ----------------------------------------
DrunkAsIlikeTheDUBSpeedArt0_3_7:
        BYTE           N12     Gn3   v110
        BYTE   W12
        BYTE           N06     An3
        BYTE   W12
        BYTE           N48
        BYTE   W48
        BYTE           N12     Fn3
        BYTE   W12
        BYTE                   En3
        BYTE   W12
        BYTE   PEND
// 008   ----------------------------------------
        BYTE   PATT
         POIN2  DrunkAsIlikeTheDUBSpeedArt0_3_4
// 009   ----------------------------------------
DrunkAsIlikeTheDUBSpeedArt0_3_9:
        BYTE           N12     Fn3   v110
        BYTE   W12
        BYTE                   En3
        BYTE   W12
        BYTE           N04     Dn3
        BYTE   W04
        BYTE                   En3
        BYTE   W04
        BYTE                   Dn3
        BYTE   W04
        BYTE           N12     Cn3
        BYTE   W12
        BYTE           N24     Dn3
        BYTE   W24
        BYTE           N12     Cn3
        BYTE   W12
        BYTE                   Gn3
        BYTE   W12
        BYTE   PEND
// 010   ----------------------------------------
DrunkAsIlikeTheDUBSpeedArt0_3_10:
        BYTE           N24     Dn3   v110
        BYTE   W24
        BYTE           N12     Cn3
        BYTE   W12
        BYTE                   Gn3
        BYTE   W12
        BYTE           N24     Dn3
        BYTE   W24
        BYTE           N12     Cn3
        BYTE   W12
        BYTE                   An2
        BYTE   W12
        BYTE   PEND
// 011   ----------------------------------------
DrunkAsIlikeTheDUBSpeedArt0_3_11:
        BYTE           N72     Dn3   v110
        BYTE   W72
        BYTE           N12     An2
        BYTE   W12
        BYTE                   Cn3
        BYTE   W12
        BYTE   PEND
// 012   ----------------------------------------
        BYTE   PATT
         POIN2  DrunkAsIlikeTheDUBSpeedArt0_3_4
// 013   ----------------------------------------
        BYTE   PATT
         POIN2  DrunkAsIlikeTheDUBSpeedArt0_3_5
// 014   ----------------------------------------
        BYTE   PATT
         POIN2  DrunkAsIlikeTheDUBSpeedArt0_3_6
// 015   ----------------------------------------
        BYTE   PATT
         POIN2  DrunkAsIlikeTheDUBSpeedArt0_3_7
// 016   ----------------------------------------
        BYTE   PATT
         POIN2  DrunkAsIlikeTheDUBSpeedArt0_3_4
// 017   ----------------------------------------
DrunkAsIlikeTheDUBSpeedArt0_3_17:
        BYTE           N12     Fn3   v110
        BYTE   W12
        BYTE                   En3
        BYTE   W12
        BYTE           N04     Fn3
        BYTE   W04
        BYTE                   En3
        BYTE   W04
        BYTE                   Fn3
        BYTE   W04
        BYTE           N12     Gn3
        BYTE   W12
        BYTE           N24     An3
        BYTE   W24
        BYTE           N12
        BYTE   W12
        BYTE                   Gn3
        BYTE   W12
        BYTE   PEND
// 018   ----------------------------------------
DrunkAsIlikeTheDUBSpeedArt0_3_18:
        BYTE           N24     Fn3   v110
        BYTE   W24
        BYTE           N12     En3
        BYTE   W12
        BYTE                   Dn3
        BYTE   W12
        BYTE           N24     En3
        BYTE   W24
        BYTE           N12     An2
        BYTE   W12
        BYTE                   En3
        BYTE   W12
        BYTE   PEND
// 019   ----------------------------------------
DrunkAsIlikeTheDUBSpeedArt0_3_19:
        BYTE           N06     En3   v110
        BYTE   W06
        BYTE                   Fn3
        BYTE   W06
        BYTE           N60     Dn3
        BYTE   W60
        BYTE           N12     An2
        BYTE   W12
        BYTE                   Cn3
        BYTE   W12
        BYTE   PEND
// 020   ----------------------------------------
DrunkAsIlikeTheDUBSpeedArt0_3_20:
        BYTE           N36     Dn3   v110
        BYTE   W36
        BYTE           N06     Cn3
        BYTE   W06
        BYTE                   Dn3
        BYTE   W06
        BYTE           N12     Fn3
        BYTE   W12
        BYTE                   En3
        BYTE   W12
        BYTE                   Dn3
        BYTE   W12
        BYTE                   Cn3
        BYTE   W12
        BYTE   PEND
// 021   ----------------------------------------
DrunkAsIlikeTheDUBSpeedArt0_3_21:
        BYTE           N36     Cn3   v110
        BYTE   W36
        BYTE           N06     As2
        BYTE   W06
        BYTE                   Cn3
        BYTE   W06
        BYTE           N24     An2
        BYTE   W24
        BYTE           N12
        BYTE   W12
        BYTE                   Cn3
        BYTE   W12
        BYTE   PEND
// 022   ----------------------------------------
DrunkAsIlikeTheDUBSpeedArt0_3_22:
        BYTE           N36     Dn3   v110
        BYTE   W36
        BYTE           N06     Cn3
        BYTE   W06
        BYTE                   Dn3
        BYTE   W06
        BYTE           N12     An3
        BYTE   W12
        BYTE                   Gn3
        BYTE   W12
        BYTE                   Fn3
        BYTE   W12
        BYTE                   En3
        BYTE   W12
        BYTE   PEND
// 023   ----------------------------------------
DrunkAsIlikeTheDUBSpeedArt0_3_23:
        BYTE           N18     En3   v110
        BYTE   W18
        BYTE           N15     Fn3
        BYTE   W15
        BYTE           N01     As3
        BYTE   W01
        BYTE           N02     Bn3
        BYTE   W02
        BYTE           N12     Cn4
        BYTE   W12
        BYTE           N24     An3
        BYTE   W24
        BYTE           N12     An2
        BYTE   W12
        BYTE                   Cn3
        BYTE   W12
        BYTE   PEND
// 024   ----------------------------------------
        BYTE   PATT
         POIN2  DrunkAsIlikeTheDUBSpeedArt0_3_20
// 025   ----------------------------------------
        BYTE   PATT
         POIN2  DrunkAsIlikeTheDUBSpeedArt0_3_21
// 026   ----------------------------------------
        BYTE   PATT
         POIN2  DrunkAsIlikeTheDUBSpeedArt0_3_20
// 027   ----------------------------------------
        BYTE           N96     Dn3   v110
        BYTE   W96
// 028   ----------------------------------------
        BYTE   GoTo
         POIN2  DrunkAsIlikeTheDUBSpeedArt0_3_LOOP
        BYTE   W96
// 029   ----------------------------------------
        BYTE   W96
// 030   ----------------------------------------
        BYTE   W96
// 031   ----------------------------------------
        BYTE   PATT
         POIN2  DrunkAsIlikeTheDUBSpeedArt0_3_3
// 032   ----------------------------------------
        BYTE   PATT
         POIN2  DrunkAsIlikeTheDUBSpeedArt0_3_4
// 033   ----------------------------------------
        BYTE   PATT
         POIN2  DrunkAsIlikeTheDUBSpeedArt0_3_5
// 034   ----------------------------------------
        BYTE   PATT
         POIN2  DrunkAsIlikeTheDUBSpeedArt0_3_6
// 035   ----------------------------------------
        BYTE   PATT
         POIN2  DrunkAsIlikeTheDUBSpeedArt0_3_7
// 036   ----------------------------------------
        BYTE   PATT
         POIN2  DrunkAsIlikeTheDUBSpeedArt0_3_4
// 037   ----------------------------------------
        BYTE   PATT
         POIN2  DrunkAsIlikeTheDUBSpeedArt0_3_9
// 038   ----------------------------------------
        BYTE   PATT
         POIN2  DrunkAsIlikeTheDUBSpeedArt0_3_10
// 039   ----------------------------------------
        BYTE   PATT
         POIN2  DrunkAsIlikeTheDUBSpeedArt0_3_11
// 040   ----------------------------------------
        BYTE   PATT
         POIN2  DrunkAsIlikeTheDUBSpeedArt0_3_4
// 041   ----------------------------------------
        BYTE   PATT
         POIN2  DrunkAsIlikeTheDUBSpeedArt0_3_5
// 042   ----------------------------------------
        BYTE   PATT
         POIN2  DrunkAsIlikeTheDUBSpeedArt0_3_6
// 043   ----------------------------------------
        BYTE   PATT
         POIN2  DrunkAsIlikeTheDUBSpeedArt0_3_7
// 044   ----------------------------------------
        BYTE   PATT
         POIN2  DrunkAsIlikeTheDUBSpeedArt0_3_4
// 045   ----------------------------------------
        BYTE   PATT
         POIN2  DrunkAsIlikeTheDUBSpeedArt0_3_17
// 046   ----------------------------------------
        BYTE   PATT
         POIN2  DrunkAsIlikeTheDUBSpeedArt0_3_18
// 047   ----------------------------------------
        BYTE   PATT
         POIN2  DrunkAsIlikeTheDUBSpeedArt0_3_19
// 048   ----------------------------------------
        BYTE   PATT
         POIN2  DrunkAsIlikeTheDUBSpeedArt0_3_20
// 049   ----------------------------------------
        BYTE   PATT
         POIN2  DrunkAsIlikeTheDUBSpeedArt0_3_21
// 050   ----------------------------------------
        BYTE   PATT
         POIN2  DrunkAsIlikeTheDUBSpeedArt0_3_22
// 051   ----------------------------------------
        BYTE   PATT
         POIN2  DrunkAsIlikeTheDUBSpeedArt0_3_23
// 052   ----------------------------------------
        BYTE   PATT
         POIN2  DrunkAsIlikeTheDUBSpeedArt0_3_20
// 053   ----------------------------------------
        BYTE   PATT
         POIN2  DrunkAsIlikeTheDUBSpeedArt0_3_21
// 054   ----------------------------------------
        BYTE   PATT
         POIN2  DrunkAsIlikeTheDUBSpeedArt0_3_20
// 055   ----------------------------------------
        BYTE           N96     Dn3   v110
        BYTE   W96
// 056   ----------------------------------------
        BYTE   FINE

//****************** Track 4 (Midi-Chn.4) ******************//

DrunkAsIlikeTheDUBSpeedArt0_4:
        BYTE   KEYSH   DrunkAsIlikeTheDUBSpeedArt0_key+0
// 000   ----------------------------------------
DrunkAsIlikeTheDUBSpeedArt0_4_LOOP:
        BYTE           VOICE   44
        BYTE           PAN     c_v+20
        BYTE           VOL     36
        BYTE   W96
// 001   ----------------------------------------
        BYTE   W96
// 002   ----------------------------------------
        BYTE   W96
// 003   ----------------------------------------
DrunkAsIlikeTheDUBSpeedArt0_4_3:
        BYTE   W72
        BYTE           N12     An2   v080
        BYTE   W12
        BYTE                   Cn3
        BYTE   W12
        BYTE   PEND
// 004   ----------------------------------------
DrunkAsIlikeTheDUBSpeedArt0_4_4:
        BYTE           N72     Dn3   v080
        BYTE   W72
        BYTE           N12     Cn3
        BYTE   W12
        BYTE                   Dn3
        BYTE   W12
        BYTE   PEND
// 005   ----------------------------------------
DrunkAsIlikeTheDUBSpeedArt0_4_5:
        BYTE           N12     Fn3   v080
        BYTE   W12
        BYTE                   En3
        BYTE   W12
        BYTE           N04     Dn3
        BYTE   W04
        BYTE                   En3
        BYTE   W04
        BYTE                   Dn3
        BYTE   W04
        BYTE           N12     Cn3
        BYTE   W12
        BYTE           N24     Dn3
        BYTE   W24
        BYTE           N12     An2
        BYTE   W12
        BYTE                   Cn3
        BYTE   W12
        BYTE   PEND
// 006   ----------------------------------------
DrunkAsIlikeTheDUBSpeedArt0_4_6:
        BYTE           N60     Dn3   v080
        BYTE   W60
        BYTE           N12
        BYTE   W12
        BYTE           N06     En3
        BYTE   W12
        BYTE                   Fn3
        BYTE   W12
        BYTE   PEND
// 007   ----------------------------------------
DrunkAsIlikeTheDUBSpeedArt0_4_7:
        BYTE           N12     Gn3   v080
        BYTE   W12
        BYTE           N06     An3
        BYTE   W12
        BYTE           N48
        BYTE   W48
        BYTE           N12     Fn3
        BYTE   W12
        BYTE                   En3
        BYTE   W12
        BYTE   PEND
// 008   ----------------------------------------
        BYTE   PATT
         POIN2  DrunkAsIlikeTheDUBSpeedArt0_4_4
// 009   ----------------------------------------
DrunkAsIlikeTheDUBSpeedArt0_4_9:
        BYTE           N12     Fn3   v080
        BYTE   W12
        BYTE                   En3
        BYTE   W12
        BYTE           N04     Dn3
        BYTE   W04
        BYTE                   En3
        BYTE   W04
        BYTE                   Dn3
        BYTE   W04
        BYTE           N12     Cn3
        BYTE   W12
        BYTE           N24     Dn3
        BYTE   W24
        BYTE           N12     Cn3
        BYTE   W12
        BYTE                   Gn3
        BYTE   W12
        BYTE   PEND
// 010   ----------------------------------------
DrunkAsIlikeTheDUBSpeedArt0_4_10:
        BYTE           N24     Dn3   v080
        BYTE   W24
        BYTE           N12     Cn3
        BYTE   W12
        BYTE                   Gn3
        BYTE   W12
        BYTE           N24     Dn3
        BYTE   W24
        BYTE           N12     Cn3
        BYTE   W12
        BYTE                   An2
        BYTE   W12
        BYTE   PEND
// 011   ----------------------------------------
DrunkAsIlikeTheDUBSpeedArt0_4_11:
        BYTE           N72     Dn3   v080
        BYTE   W72
        BYTE           N12     An2
        BYTE   W12
        BYTE                   Cn3
        BYTE   W12
        BYTE   PEND
// 012   ----------------------------------------
        BYTE   PATT
         POIN2  DrunkAsIlikeTheDUBSpeedArt0_4_4
// 013   ----------------------------------------
        BYTE   PATT
         POIN2  DrunkAsIlikeTheDUBSpeedArt0_4_5
// 014   ----------------------------------------
        BYTE   PATT
         POIN2  DrunkAsIlikeTheDUBSpeedArt0_4_6
// 015   ----------------------------------------
        BYTE   PATT
         POIN2  DrunkAsIlikeTheDUBSpeedArt0_4_7
// 016   ----------------------------------------
        BYTE   PATT
         POIN2  DrunkAsIlikeTheDUBSpeedArt0_4_4
// 017   ----------------------------------------
DrunkAsIlikeTheDUBSpeedArt0_4_17:
        BYTE           N12     Fn3   v080
        BYTE   W12
        BYTE                   En3
        BYTE   W12
        BYTE           N04     Fn3
        BYTE   W04
        BYTE                   En3
        BYTE   W04
        BYTE                   Fn3
        BYTE   W04
        BYTE           N12     Gn3
        BYTE   W12
        BYTE           N24     An3
        BYTE   W24
        BYTE           N12
        BYTE   W12
        BYTE                   Gn3
        BYTE   W12
        BYTE   PEND
// 018   ----------------------------------------
DrunkAsIlikeTheDUBSpeedArt0_4_18:
        BYTE           N24     Fn3   v080
        BYTE   W24
        BYTE           N12     En3
        BYTE   W12
        BYTE                   Dn3
        BYTE   W12
        BYTE           N24     En3
        BYTE   W24
        BYTE           N12     An2
        BYTE   W12
        BYTE                   En3
        BYTE   W12
        BYTE   PEND
// 019   ----------------------------------------
DrunkAsIlikeTheDUBSpeedArt0_4_19:
        BYTE           N06     En3   v080
        BYTE   W06
        BYTE                   Fn3
        BYTE   W06
        BYTE           N60     Dn3
        BYTE   W60
        BYTE           N12     An2
        BYTE   W12
        BYTE                   Cn3
        BYTE   W12
        BYTE   PEND
// 020   ----------------------------------------
DrunkAsIlikeTheDUBSpeedArt0_4_20:
        BYTE           N36     Dn3   v080
        BYTE   W36
        BYTE           N06     Cn3
        BYTE   W06
        BYTE                   Dn3
        BYTE   W06
        BYTE           N12     Fn3
        BYTE   W12
        BYTE                   En3
        BYTE   W12
        BYTE                   Dn3
        BYTE   W12
        BYTE                   Cn3
        BYTE   W12
        BYTE   PEND
// 021   ----------------------------------------
DrunkAsIlikeTheDUBSpeedArt0_4_21:
        BYTE           N36     Cn3   v080
        BYTE   W36
        BYTE           N06     As2
        BYTE   W06
        BYTE                   Cn3
        BYTE   W06
        BYTE           N24     An2
        BYTE   W24
        BYTE           N12
        BYTE   W12
        BYTE                   Cn3
        BYTE   W12
        BYTE   PEND
// 022   ----------------------------------------
DrunkAsIlikeTheDUBSpeedArt0_4_22:
        BYTE           N36     Dn3   v080
        BYTE   W36
        BYTE           N06     Cn3
        BYTE   W06
        BYTE                   Dn3
        BYTE   W06
        BYTE           N12     An3
        BYTE   W12
        BYTE                   Gn3
        BYTE   W12
        BYTE                   Fn3
        BYTE   W12
        BYTE                   En3
        BYTE   W12
        BYTE   PEND
// 023   ----------------------------------------
DrunkAsIlikeTheDUBSpeedArt0_4_23:
        BYTE           N18     En3   v080
        BYTE   W18
        BYTE           N15     Fn3
        BYTE   W15
        BYTE           N01     As3
        BYTE   W01
        BYTE           N02     Bn3
        BYTE   W02
        BYTE           N12     Cn4
        BYTE   W12
        BYTE           N24     An3
        BYTE   W24
        BYTE           N12     An2
        BYTE   W12
        BYTE                   Cn3
        BYTE   W12
        BYTE   PEND
// 024   ----------------------------------------
        BYTE   PATT
         POIN2  DrunkAsIlikeTheDUBSpeedArt0_4_20
// 025   ----------------------------------------
        BYTE   PATT
         POIN2  DrunkAsIlikeTheDUBSpeedArt0_4_21
// 026   ----------------------------------------
        BYTE   PATT
         POIN2  DrunkAsIlikeTheDUBSpeedArt0_4_20
// 027   ----------------------------------------
        BYTE           N96     Dn3   v080
        BYTE   W96
// 028   ----------------------------------------
        BYTE   GoTo
         POIN2  DrunkAsIlikeTheDUBSpeedArt0_4_LOOP
        BYTE   W96
// 029   ----------------------------------------
        BYTE   W96
// 030   ----------------------------------------
        BYTE   W96
// 031   ----------------------------------------
        BYTE   PATT
         POIN2  DrunkAsIlikeTheDUBSpeedArt0_4_3
// 032   ----------------------------------------
        BYTE   PATT
         POIN2  DrunkAsIlikeTheDUBSpeedArt0_4_4
// 033   ----------------------------------------
        BYTE   PATT
         POIN2  DrunkAsIlikeTheDUBSpeedArt0_4_5
// 034   ----------------------------------------
        BYTE   PATT
         POIN2  DrunkAsIlikeTheDUBSpeedArt0_4_6
// 035   ----------------------------------------
        BYTE   PATT
         POIN2  DrunkAsIlikeTheDUBSpeedArt0_4_7
// 036   ----------------------------------------
        BYTE   PATT
         POIN2  DrunkAsIlikeTheDUBSpeedArt0_4_4
// 037   ----------------------------------------
        BYTE   PATT
         POIN2  DrunkAsIlikeTheDUBSpeedArt0_4_9
// 038   ----------------------------------------
        BYTE   PATT
         POIN2  DrunkAsIlikeTheDUBSpeedArt0_4_10
// 039   ----------------------------------------
        BYTE   PATT
         POIN2  DrunkAsIlikeTheDUBSpeedArt0_4_11
// 040   ----------------------------------------
        BYTE   PATT
         POIN2  DrunkAsIlikeTheDUBSpeedArt0_4_4
// 041   ----------------------------------------
        BYTE   PATT
         POIN2  DrunkAsIlikeTheDUBSpeedArt0_4_5
// 042   ----------------------------------------
        BYTE   PATT
         POIN2  DrunkAsIlikeTheDUBSpeedArt0_4_6
// 043   ----------------------------------------
        BYTE   PATT
         POIN2  DrunkAsIlikeTheDUBSpeedArt0_4_7
// 044   ----------------------------------------
        BYTE   PATT
         POIN2  DrunkAsIlikeTheDUBSpeedArt0_4_4
// 045   ----------------------------------------
        BYTE   PATT
         POIN2  DrunkAsIlikeTheDUBSpeedArt0_4_17
// 046   ----------------------------------------
        BYTE   PATT
         POIN2  DrunkAsIlikeTheDUBSpeedArt0_4_18
// 047   ----------------------------------------
        BYTE   PATT
         POIN2  DrunkAsIlikeTheDUBSpeedArt0_4_19
// 048   ----------------------------------------
        BYTE   PATT
         POIN2  DrunkAsIlikeTheDUBSpeedArt0_4_20
// 049   ----------------------------------------
        BYTE   PATT
         POIN2  DrunkAsIlikeTheDUBSpeedArt0_4_21
// 050   ----------------------------------------
        BYTE   PATT
         POIN2  DrunkAsIlikeTheDUBSpeedArt0_4_22
// 051   ----------------------------------------
        BYTE   PATT
         POIN2  DrunkAsIlikeTheDUBSpeedArt0_4_23
// 052   ----------------------------------------
        BYTE   PATT
         POIN2  DrunkAsIlikeTheDUBSpeedArt0_4_20
// 053   ----------------------------------------
        BYTE   PATT
         POIN2  DrunkAsIlikeTheDUBSpeedArt0_4_21
// 054   ----------------------------------------
        BYTE   PATT
         POIN2  DrunkAsIlikeTheDUBSpeedArt0_4_20
// 055   ----------------------------------------
        BYTE           N96     Dn3   v080
        BYTE   W96
// 056   ----------------------------------------
        BYTE   FINE

//****************** Track 5 (Midi-Chn.5) ******************//

DrunkAsIlikeTheDUBSpeedArt0_5:
        BYTE   KEYSH   DrunkAsIlikeTheDUBSpeedArt0_key+0
// 000   ----------------------------------------
DrunkAsIlikeTheDUBSpeedArt0_5_LOOP:
        BYTE           VOICE   24
        BYTE           VOL     19
        BYTE           PAN     c_v-1
        BYTE           N12     Dn2   v100
        BYTE   W12
        BYTE           N06     An3
        BYTE           N06     Dn3
        BYTE           N06     Fn3
        BYTE   W06
        BYTE                   Fn3   v080
        BYTE           N06     An3
        BYTE           N06     Dn3
        BYTE   W06
        BYTE           N12     Dn2   v100
        BYTE   W12
        BYTE           N06     Dn3
        BYTE           N06     Fn3
        BYTE           N06     An3
        BYTE   W12
        BYTE           N12     Cn2
        BYTE   W12
        BYTE           N06     An3
        BYTE           N06     Cn3
        BYTE           N06     En3
        BYTE   W06
        BYTE                   En3   v080
        BYTE           N06     An3
        BYTE           N06     Cn3
        BYTE   W06
        BYTE           N12     Cn2   v100
        BYTE   W12
        BYTE           N06     Cn3
        BYTE           N06     En3
        BYTE           N06     An3
        BYTE   W12
// 001   ----------------------------------------
DrunkAsIlikeTheDUBSpeedArt0_5_1:
        BYTE           N12     As1   v100
        BYTE   W12
        BYTE           N06     Gn3
        BYTE           N06     As2
        BYTE           N06     Dn3
        BYTE   W06
        BYTE                   Dn3   v080
        BYTE           N06     Gn3
        BYTE           N06     As2
        BYTE   W06
        BYTE           N12     As1   v100
        BYTE   W12
        BYTE           N06     As2
        BYTE           N06     Dn3
        BYTE           N06     Gn3
        BYTE   W12
        BYTE           N12     Cn2
        BYTE   W12
        BYTE           N06     An3
        BYTE           N06     Cn3
        BYTE           N06     En3
        BYTE   W06
        BYTE                   En3   v080
        BYTE           N06     An3
        BYTE           N06     Cn3
        BYTE   W06
        BYTE           N12     Cn2   v100
        BYTE   W12
        BYTE           N06     Cn3
        BYTE           N06     En3
        BYTE           N06     An3
        BYTE   W12
        BYTE   PEND
// 002   ----------------------------------------
DrunkAsIlikeTheDUBSpeedArt0_5_2:
        BYTE           N12     Dn2   v100
        BYTE   W12
        BYTE           N06     An3
        BYTE           N06     Dn3
        BYTE           N06     Fn3
        BYTE   W06
        BYTE                   Fn3   v080
        BYTE           N06     An3
        BYTE           N06     Dn3
        BYTE   W06
        BYTE           N12     Dn2   v100
        BYTE   W12
        BYTE           N06     Dn3
        BYTE           N06     Fn3
        BYTE           N06     An3
        BYTE   W12
        BYTE           N12     Cn2
        BYTE   W12
        BYTE           N06     An3
        BYTE           N06     Cn3
        BYTE           N06     En3
        BYTE   W06
        BYTE                   En3   v080
        BYTE           N06     An3
        BYTE           N06     Cn3
        BYTE   W06
        BYTE           N12     Cn2   v100
        BYTE   W12
        BYTE           N06     Cn3
        BYTE           N06     En3
        BYTE           N06     An3
        BYTE   W12
        BYTE   PEND
// 003   ----------------------------------------
DrunkAsIlikeTheDUBSpeedArt0_5_3:
        BYTE           N12     As1   v100
        BYTE   W12
        BYTE           N06     Gn3
        BYTE           N06     As2
        BYTE           N06     Dn3
        BYTE   W06
        BYTE                   Dn3   v080
        BYTE           N06     Gn3
        BYTE           N06     As2
        BYTE   W06
        BYTE           N12     As1   v100
        BYTE   W12
        BYTE           N06     As2
        BYTE           N06     Dn3
        BYTE           N06     Gn3
        BYTE   W12
        BYTE           N12     An1
        BYTE   W12
        BYTE           N06     An3
        BYTE           N06     Cn3
        BYTE           N06     En3
        BYTE   W06
        BYTE                   En3   v080
        BYTE           N06     An3
        BYTE           N06     Cn3
        BYTE   W06
        BYTE           N12     An1   v100
        BYTE   W12
        BYTE           N06     Cn3
        BYTE           N06     En3
        BYTE           N06     An3
        BYTE   W12
        BYTE   PEND
// 004   ----------------------------------------
DrunkAsIlikeTheDUBSpeedArt0_5_4:
        BYTE           N12     Dn2   v100
        BYTE   W12
        BYTE           N06     Fn3
        BYTE           N06     An3
        BYTE           N06     Dn3
        BYTE   W06
        BYTE                   Dn3   v080
        BYTE           N06     Fn3
        BYTE           N06     An3
        BYTE   W06
        BYTE           N12     Dn2   v100
        BYTE   W12
        BYTE           N06     An3
        BYTE           N06     Dn3
        BYTE           N06     Fn3
        BYTE   W12
        BYTE           N12     Cn2
        BYTE   W12
        BYTE           N06     En3
        BYTE           N06     An3
        BYTE           N06     Cn3
        BYTE   W06
        BYTE                   Cn3   v080
        BYTE           N06     En3
        BYTE           N06     An3
        BYTE   W06
        BYTE           N12     Cn2   v100
        BYTE   W12
        BYTE           N06     An3
        BYTE           N06     Cn3
        BYTE           N06     En3
        BYTE   W12
        BYTE   PEND
// 005   ----------------------------------------
DrunkAsIlikeTheDUBSpeedArt0_5_5:
        BYTE           N12     As1   v100
        BYTE   W12
        BYTE           N06     Dn3
        BYTE           N06     Gn3
        BYTE           N06     As2
        BYTE   W06
        BYTE                   As2   v080
        BYTE           N06     Dn3
        BYTE           N06     Gn3
        BYTE   W06
        BYTE           N12     As1   v100
        BYTE   W12
        BYTE           N06     Gn3
        BYTE           N06     As2
        BYTE           N06     Dn3
        BYTE   W12
        BYTE           N12     Cn2
        BYTE   W12
        BYTE           N06     En3
        BYTE           N06     An3
        BYTE           N06     Cn3
        BYTE   W06
        BYTE                   Cn3   v080
        BYTE           N06     En3
        BYTE           N06     An3
        BYTE   W06
        BYTE           N12     Cn2   v100
        BYTE   W12
        BYTE           N06     An3
        BYTE           N06     Cn3
        BYTE           N06     En3
        BYTE   W12
        BYTE   PEND
// 006   ----------------------------------------
        BYTE   PATT
         POIN2  DrunkAsIlikeTheDUBSpeedArt0_5_4
// 007   ----------------------------------------
        BYTE           N12     As1   v100
        BYTE   W12
        BYTE           N06     Dn3
        BYTE           N06     Gn3
        BYTE           N06     As2
        BYTE   W06
        BYTE                   As2   v080
        BYTE           N06     Dn3
        BYTE           N06     Gn3
        BYTE   W06
        BYTE           N12     As1   v100
        BYTE   W12
        BYTE           N06     Gn3
        BYTE           N06     As2
        BYTE           N06     Dn3
        BYTE   W12
        BYTE           N12     An1
        BYTE   W12
        BYTE           N06     En3
        BYTE           N06     An3
        BYTE           N06     Cn3
        BYTE   W06
        BYTE                   Cn3   v080
        BYTE           N06     En3
        BYTE           N06     An3
        BYTE   W06
        BYTE           N12     An1   v100
        BYTE   W12
        BYTE           N06     An3
        BYTE           N06     Cn3
        BYTE           N06     En3
        BYTE   W12
// 008   ----------------------------------------
        BYTE   PATT
         POIN2  DrunkAsIlikeTheDUBSpeedArt0_5_4
// 009   ----------------------------------------
        BYTE   PATT
         POIN2  DrunkAsIlikeTheDUBSpeedArt0_5_5
// 010   ----------------------------------------
        BYTE           N12     Gn1   v100
        BYTE   W12
        BYTE           N06     Dn3
        BYTE           N06     Gn3
        BYTE           N06     As2
        BYTE   W06
        BYTE                   As2   v080
        BYTE           N06     Dn3
        BYTE           N06     Gn3
        BYTE   W06
        BYTE           N12     Gn1   v100
        BYTE   W12
        BYTE           N06     Gn3
        BYTE           N06     As2
        BYTE           N06     Dn3
        BYTE   W12
        BYTE           N12     An1
        BYTE   W12
        BYTE           N06     En3
        BYTE           N06     An3
        BYTE           N06     Cn3
        BYTE   W06
        BYTE                   Cn3   v080
        BYTE           N06     En3
        BYTE           N06     An3
        BYTE   W06
        BYTE           N12     An1   v100
        BYTE   W12
        BYTE           N06     An3
        BYTE           N06     Cn3
        BYTE           N06     En3
        BYTE   W12
// 011   ----------------------------------------
        BYTE           N12     Dn2
        BYTE   W12
        BYTE           N06     Gn3
        BYTE           N06     An3
        BYTE           N06     Dn3
        BYTE   W06
        BYTE                   Dn3   v080
        BYTE           N06     Gn3
        BYTE           N06     An3
        BYTE   W06
        BYTE           N12     Dn2   v100
        BYTE   W12
        BYTE           N06     An3
        BYTE           N06     Dn3
        BYTE           N06     Gn3
        BYTE   W12
        BYTE           N12     Dn2
        BYTE   W12
        BYTE           N06     Dn3
        BYTE           N06     Fs3
        BYTE           N06     An3
        BYTE   W06
        BYTE                   An3   v080
        BYTE           N06     Dn3
        BYTE           N06     Fs3
        BYTE   W06
        BYTE           N12     Dn2   v100
        BYTE   W12
        BYTE           N06     Fs3
        BYTE           N06     An3
        BYTE           N06     Dn3
        BYTE   W12
// 012   ----------------------------------------
        BYTE   PATT
         POIN2  DrunkAsIlikeTheDUBSpeedArt0_5_2
// 013   ----------------------------------------
        BYTE   PATT
         POIN2  DrunkAsIlikeTheDUBSpeedArt0_5_1
// 014   ----------------------------------------
        BYTE   PATT
         POIN2  DrunkAsIlikeTheDUBSpeedArt0_5_2
// 015   ----------------------------------------
        BYTE   PATT
         POIN2  DrunkAsIlikeTheDUBSpeedArt0_5_3
// 016   ----------------------------------------
        BYTE   PATT
         POIN2  DrunkAsIlikeTheDUBSpeedArt0_5_2
// 017   ----------------------------------------
        BYTE   PATT
         POIN2  DrunkAsIlikeTheDUBSpeedArt0_5_1
// 018   ----------------------------------------
DrunkAsIlikeTheDUBSpeedArt0_5_18:
        BYTE           N12     Gn1   v100
        BYTE   W12
        BYTE           N06     Gn3
        BYTE           N06     As2
        BYTE           N06     Dn3
        BYTE   W06
        BYTE                   Dn3   v080
        BYTE           N06     Gn3
        BYTE           N06     As2
        BYTE   W06
        BYTE           N12     Gn1   v100
        BYTE   W12
        BYTE           N06     As2
        BYTE           N06     Dn3
        BYTE           N06     Gn3
        BYTE   W12
        BYTE           N12     An1
        BYTE   W12
        BYTE           N06     An3
        BYTE           N06     Cn3
        BYTE           N06     En3
        BYTE   W06
        BYTE                   En3   v080
        BYTE           N06     An3
        BYTE           N06     Cn3
        BYTE   W06
        BYTE           N12     An1   v100
        BYTE   W12
        BYTE           N06     Cn3
        BYTE           N06     En3
        BYTE           N06     An3
        BYTE   W12
        BYTE   PEND
// 019   ----------------------------------------
DrunkAsIlikeTheDUBSpeedArt0_5_19:
        BYTE           N12     Dn2   v100
        BYTE   W12
        BYTE           N06     An3
        BYTE           N06     Dn3
        BYTE           N06     Gn3
        BYTE   W06
        BYTE                   Gn3   v080
        BYTE           N06     An3
        BYTE           N06     Dn3
        BYTE   W06
        BYTE           N12     Dn2   v100
        BYTE   W12
        BYTE           N06     Dn3
        BYTE           N06     Gn3
        BYTE           N06     An3
        BYTE   W12
        BYTE           N12     Dn2
        BYTE   W12
        BYTE           N06     Fs3
        BYTE           N06     An3
        BYTE           N06     Dn3
        BYTE   W06
        BYTE                   Dn3   v080
        BYTE           N06     Fs3
        BYTE           N06     An3
        BYTE   W06
        BYTE           N12     Dn2   v100
        BYTE   W12
        BYTE           N06     An3
        BYTE           N06     Dn3
        BYTE           N06     Fs3
        BYTE   W12
        BYTE   PEND
// 020   ----------------------------------------
DrunkAsIlikeTheDUBSpeedArt0_5_20:
        BYTE           N18     As1   v100
        BYTE   W06
        BYTE           N06     An3
        BYTE           N06     Dn3
        BYTE           N06     Fn3
        BYTE   W18
        BYTE                   Fn3
        BYTE           N18     As1
        BYTE           N06     An3
        BYTE           N06     Dn3
        BYTE   W12
        BYTE                   Dn3
        BYTE           N06     Fn3
        BYTE           N06     An3
        BYTE   W06
        BYTE                   An3
        BYTE           N06     Dn3
        BYTE           N06     Fn3
        BYTE   W06
        BYTE           N18     As1
        BYTE   W12
        BYTE           N06     Fn3
        BYTE           N06     An3
        BYTE           N06     Dn3
        BYTE   W12
        BYTE                   Dn3
        BYTE           N18     As1
        BYTE           N06     Fn3
        BYTE           N06     An3
        BYTE   W06
        BYTE                   Fn3
        BYTE           N06     An3
        BYTE           N06     Dn3
        BYTE   W18
        BYTE   PEND
// 021   ----------------------------------------
DrunkAsIlikeTheDUBSpeedArt0_5_21:
        BYTE           N18     An1   v100
        BYTE   W06
        BYTE           N06     Gn3
        BYTE           N06     Cn3
        BYTE           N06     En3
        BYTE   W18
        BYTE                   En3
        BYTE           N18     An1
        BYTE           N06     Gn3
        BYTE           N06     Cn3
        BYTE   W12
        BYTE                   Cn3
        BYTE           N06     En3
        BYTE           N06     Gn3
        BYTE   W06
        BYTE                   Gn3
        BYTE           N06     Cn3
        BYTE           N06     En3
        BYTE   W06
        BYTE           N18     An1
        BYTE   W12
        BYTE           N06     En3
        BYTE           N06     Gn3
        BYTE           N06     Cn3
        BYTE   W12
        BYTE                   Cn3
        BYTE           N18     An1
        BYTE           N06     En3
        BYTE           N06     Gn3
        BYTE   W06
        BYTE                   En3
        BYTE           N06     Gn3
        BYTE           N06     Cn3
        BYTE   W18
        BYTE   PEND
// 022   ----------------------------------------
        BYTE           N18     Gn1
        BYTE   W06
        BYTE           N06     Fn3
        BYTE           N06     As2
        BYTE           N06     Dn3
        BYTE   W18
        BYTE                   Dn3
        BYTE           N18     Gn1
        BYTE           N06     Fn3
        BYTE           N06     As2
        BYTE   W12
        BYTE                   As2
        BYTE           N06     Dn3
        BYTE           N06     Fn3
        BYTE   W06
        BYTE                   Fn3
        BYTE           N06     As2
        BYTE           N06     Dn3
        BYTE   W06
        BYTE           N18     Gn1
        BYTE   W12
        BYTE           N06     Dn3
        BYTE           N06     Fn3
        BYTE           N06     As2
        BYTE   W12
        BYTE                   As2
        BYTE           N18     Gn1
        BYTE           N06     Dn3
        BYTE           N06     Fn3
        BYTE   W06
        BYTE                   Dn3
        BYTE           N06     Fn3
        BYTE           N06     As2
        BYTE   W18
// 023   ----------------------------------------
        BYTE           N18     An1
        BYTE   W06
        BYTE           N06     Gn3
        BYTE           N06     Cn3
        BYTE           N06     En3
        BYTE   W18
        BYTE           N18     An1
        BYTE           N06     Gn3
        BYTE           N06     Cn3
        BYTE           N06     En3
        BYTE   W12
        BYTE                   Cn3
        BYTE           N06     En3
        BYTE           N06     Gn3
        BYTE   W06
        BYTE                   Gn3
        BYTE           N06     Cn3
        BYTE           N06     En3
        BYTE   W06
        BYTE           N18     An1
        BYTE   W12
        BYTE           N06     En3
        BYTE           N06     Gn3
        BYTE           N06     Cn3
        BYTE   W12
        BYTE           N18     An1
        BYTE           N06     En3
        BYTE           N06     Gn3
        BYTE           N06     Cn3
        BYTE   W06
        BYTE                   En3
        BYTE           N06     Gn3
        BYTE           N06     Cn3
        BYTE   W18
// 024   ----------------------------------------
        BYTE   PATT
         POIN2  DrunkAsIlikeTheDUBSpeedArt0_5_20
// 025   ----------------------------------------
        BYTE   PATT
         POIN2  DrunkAsIlikeTheDUBSpeedArt0_5_21
// 026   ----------------------------------------
        BYTE           N18     As1   v100
        BYTE   W06
        BYTE           N06     An3
        BYTE           N06     Dn3
        BYTE           N06     Fn3
        BYTE   W18
        BYTE                   Fn3
        BYTE           N18     As1
        BYTE           N06     An3
        BYTE           N06     Dn3
        BYTE   W12
        BYTE                   Dn3
        BYTE           N06     Fn3
        BYTE           N06     An3
        BYTE   W06
        BYTE                   En3
        BYTE           N06     Gn3
        BYTE           N06     Cn3
        BYTE   W06
        BYTE           N18     Cn2
        BYTE   W12
        BYTE           N06     En3
        BYTE           N06     Gn3
        BYTE           N06     Cn3
        BYTE   W12
        BYTE                   Cn3
        BYTE           N18     Cn2
        BYTE           N06     En3
        BYTE           N06     Gn3
        BYTE   W06
        BYTE                   En3
        BYTE           N06     Gn3
        BYTE           N06     Cn3
        BYTE   W18
// 027   ----------------------------------------
        BYTE           N18     Dn2
        BYTE   W06
        BYTE           N06     An3
        BYTE           N06     Dn3
        BYTE           N06     Fn3
        BYTE   W18
        BYTE                   Fn3
        BYTE           N06     An3
        BYTE           N18     Dn2
        BYTE           N06     Dn3
        BYTE   W12
        BYTE                   Dn3
        BYTE           N06     Fn3
        BYTE           N06     An3
        BYTE   W06
        BYTE                   An3
        BYTE           N06     Dn3
        BYTE           N06     Fn3
        BYTE   W06
        BYTE           N18     Dn2
        BYTE   W12
        BYTE           N06     Fn3
        BYTE           N06     An3
        BYTE           N06     Dn3
        BYTE   W12
        BYTE                   Dn3
        BYTE           N06     Fn3
        BYTE           N18     Dn2
        BYTE           N06     An3
        BYTE   W06
        BYTE                   Fn3
        BYTE           N06     An3
        BYTE           N06     Dn3
        BYTE   W18
// 028   ----------------------------------------
        BYTE           N12     Dn2
        BYTE   GoTo
         POIN2  DrunkAsIlikeTheDUBSpeedArt0_5_LOOP
        BYTE   W12
        BYTE           N06     Dn3
        BYTE           N06     Fn3
        BYTE           N06     An3
        BYTE   W06
        BYTE                   An3   v080
        BYTE           N06     Dn3
        BYTE           N06     Fn3
        BYTE   W06
        BYTE           N12     Dn2   v100
        BYTE   W12
        BYTE           N06     Fn3
        BYTE           N06     An3
        BYTE           N06     Dn3
        BYTE   W12
        BYTE           N12     Cn2
        BYTE   W12
        BYTE           N06     Cn3
        BYTE           N06     En3
        BYTE           N06     An3
        BYTE   W06
        BYTE                   An3   v080
        BYTE           N06     Cn3
        BYTE           N06     En3
        BYTE   W06
        BYTE           N12     Cn2   v100
        BYTE   W12
        BYTE           N06     En3
        BYTE           N06     An3
        BYTE           N06     Cn3
        BYTE   W12
// 029   ----------------------------------------
DrunkAsIlikeTheDUBSpeedArt0_5_29:
        BYTE           N12     As1   v100
        BYTE   W12
        BYTE           N06     As2
        BYTE           N06     Dn3
        BYTE           N06     Gn3
        BYTE   W06
        BYTE                   Gn3   v080
        BYTE           N06     As2
        BYTE           N06     Dn3
        BYTE   W06
        BYTE           N12     As1   v100
        BYTE   W12
        BYTE           N06     Dn3
        BYTE           N06     Gn3
        BYTE           N06     As2
        BYTE   W12
        BYTE           N12     Cn2
        BYTE   W12
        BYTE           N06     Cn3
        BYTE           N06     En3
        BYTE           N06     An3
        BYTE   W06
        BYTE                   An3   v080
        BYTE           N06     Cn3
        BYTE           N06     En3
        BYTE   W06
        BYTE           N12     Cn2   v100
        BYTE   W12
        BYTE           N06     En3
        BYTE           N06     An3
        BYTE           N06     Cn3
        BYTE   W12
        BYTE   PEND
// 030   ----------------------------------------
DrunkAsIlikeTheDUBSpeedArt0_5_30:
        BYTE           N12     Dn2   v100
        BYTE   W12
        BYTE           N06     Dn3
        BYTE           N06     Fn3
        BYTE           N06     An3
        BYTE   W06
        BYTE                   An3   v080
        BYTE           N06     Dn3
        BYTE           N06     Fn3
        BYTE   W06
        BYTE           N12     Dn2   v100
        BYTE   W12
        BYTE           N06     Fn3
        BYTE           N06     An3
        BYTE           N06     Dn3
        BYTE   W12
        BYTE           N12     Cn2
        BYTE   W12
        BYTE           N06     Cn3
        BYTE           N06     En3
        BYTE           N06     An3
        BYTE   W06
        BYTE                   An3   v080
        BYTE           N06     Cn3
        BYTE           N06     En3
        BYTE   W06
        BYTE           N12     Cn2   v100
        BYTE   W12
        BYTE           N06     En3
        BYTE           N06     An3
        BYTE           N06     Cn3
        BYTE   W12
        BYTE   PEND
// 031   ----------------------------------------
DrunkAsIlikeTheDUBSpeedArt0_5_31:
        BYTE           N12     As1   v100
        BYTE   W12
        BYTE           N06     As2
        BYTE           N06     Dn3
        BYTE           N06     Gn3
        BYTE   W06
        BYTE                   Gn3   v080
        BYTE           N06     As2
        BYTE           N06     Dn3
        BYTE   W06
        BYTE           N12     As1   v100
        BYTE   W12
        BYTE           N06     Dn3
        BYTE           N06     Gn3
        BYTE           N06     As2
        BYTE   W12
        BYTE           N12     An1
        BYTE   W12
        BYTE           N06     Cn3
        BYTE           N06     En3
        BYTE           N06     An3
        BYTE   W06
        BYTE                   An3   v080
        BYTE           N06     Cn3
        BYTE           N06     En3
        BYTE   W06
        BYTE           N12     An1   v100
        BYTE   W12
        BYTE           N06     En3
        BYTE           N06     An3
        BYTE           N06     Cn3
        BYTE   W12
        BYTE   PEND
// 032   ----------------------------------------
        BYTE   PATT
         POIN2  DrunkAsIlikeTheDUBSpeedArt0_5_2
// 033   ----------------------------------------
        BYTE   PATT
         POIN2  DrunkAsIlikeTheDUBSpeedArt0_5_1
// 034   ----------------------------------------
        BYTE   PATT
         POIN2  DrunkAsIlikeTheDUBSpeedArt0_5_2
// 035   ----------------------------------------
        BYTE   PATT
         POIN2  DrunkAsIlikeTheDUBSpeedArt0_5_3
// 036   ----------------------------------------
        BYTE   PATT
         POIN2  DrunkAsIlikeTheDUBSpeedArt0_5_2
// 037   ----------------------------------------
        BYTE   PATT
         POIN2  DrunkAsIlikeTheDUBSpeedArt0_5_1
// 038   ----------------------------------------
        BYTE   PATT
         POIN2  DrunkAsIlikeTheDUBSpeedArt0_5_18
// 039   ----------------------------------------
        BYTE   PATT
         POIN2  DrunkAsIlikeTheDUBSpeedArt0_5_19
// 040   ----------------------------------------
        BYTE   PATT
         POIN2  DrunkAsIlikeTheDUBSpeedArt0_5_30
// 041   ----------------------------------------
        BYTE   PATT
         POIN2  DrunkAsIlikeTheDUBSpeedArt0_5_29
// 042   ----------------------------------------
        BYTE   PATT
         POIN2  DrunkAsIlikeTheDUBSpeedArt0_5_30
// 043   ----------------------------------------
        BYTE   PATT
         POIN2  DrunkAsIlikeTheDUBSpeedArt0_5_31
// 044   ----------------------------------------
        BYTE   PATT
         POIN2  DrunkAsIlikeTheDUBSpeedArt0_5_30
// 045   ----------------------------------------
        BYTE   PATT
         POIN2  DrunkAsIlikeTheDUBSpeedArt0_5_29
// 046   ----------------------------------------
        BYTE           N12     Gn1   v100
        BYTE   W12
        BYTE           N06     As2
        BYTE           N06     Dn3
        BYTE           N06     Gn3
        BYTE   W06
        BYTE                   Gn3   v080
        BYTE           N06     As2
        BYTE           N06     Dn3
        BYTE   W06
        BYTE           N12     Gn1   v100
        BYTE   W12
        BYTE           N06     Dn3
        BYTE           N06     Gn3
        BYTE           N06     As2
        BYTE   W12
        BYTE           N12     An1
        BYTE   W12
        BYTE           N06     Cn3
        BYTE           N06     En3
        BYTE           N06     An3
        BYTE   W06
        BYTE                   An3   v080
        BYTE           N06     Cn3
        BYTE           N06     En3
        BYTE   W06
        BYTE           N12     An1   v100
        BYTE   W12
        BYTE           N06     En3
        BYTE           N06     An3
        BYTE           N06     Cn3
        BYTE   W12
// 047   ----------------------------------------
        BYTE           N12     Dn2
        BYTE   W12
        BYTE           N06     Dn3
        BYTE           N06     Gn3
        BYTE           N06     An3
        BYTE   W06
        BYTE                   An3   v080
        BYTE           N06     Dn3
        BYTE           N06     Gn3
        BYTE   W06
        BYTE           N12     Dn2   v100
        BYTE   W12
        BYTE           N06     Gn3
        BYTE           N06     An3
        BYTE           N06     Dn3
        BYTE   W12
        BYTE           N12     Dn2
        BYTE   W12
        BYTE           N06     An3
        BYTE           N06     Dn3
        BYTE           N06     Fs3
        BYTE   W06
        BYTE                   Fs3   v080
        BYTE           N06     An3
        BYTE           N06     Dn3
        BYTE   W06
        BYTE           N12     Dn2   v100
        BYTE   W12
        BYTE           N06     Dn3
        BYTE           N06     Fs3
        BYTE           N06     An3
        BYTE   W12
// 048   ----------------------------------------
DrunkAsIlikeTheDUBSpeedArt0_5_48:
        BYTE           N18     As1   v100
        BYTE   W06
        BYTE           N06     Dn3
        BYTE           N06     Fn3
        BYTE           N06     An3
        BYTE   W18
        BYTE           N18     As1
        BYTE           N06     An3
        BYTE           N06     Dn3
        BYTE           N06     Fn3
        BYTE   W12
        BYTE                   Fn3
        BYTE           N06     An3
        BYTE           N06     Dn3
        BYTE   W06
        BYTE                   Dn3
        BYTE           N06     Fn3
        BYTE           N06     An3
        BYTE   W06
        BYTE           N18     As1
        BYTE   W12
        BYTE           N06     An3
        BYTE           N06     Dn3
        BYTE           N06     Fn3
        BYTE   W12
        BYTE           N18     As1
        BYTE           N06     Fn3
        BYTE           N06     An3
        BYTE           N06     Dn3
        BYTE   W06
        BYTE                   An3
        BYTE           N06     Dn3
        BYTE           N06     Fn3
        BYTE   W18
        BYTE   PEND
// 049   ----------------------------------------
DrunkAsIlikeTheDUBSpeedArt0_5_49:
        BYTE           N18     An1   v100
        BYTE   W06
        BYTE           N06     Cn3
        BYTE           N06     En3
        BYTE           N06     Gn3
        BYTE   W18
        BYTE           N18     An1
        BYTE           N06     Gn3
        BYTE           N06     Cn3
        BYTE           N06     En3
        BYTE   W12
        BYTE                   En3
        BYTE           N06     Gn3
        BYTE           N06     Cn3
        BYTE   W06
        BYTE                   Cn3
        BYTE           N06     En3
        BYTE           N06     Gn3
        BYTE   W06
        BYTE           N18     An1
        BYTE   W12
        BYTE           N06     Gn3
        BYTE           N06     Cn3
        BYTE           N06     En3
        BYTE   W12
        BYTE           N18     An1
        BYTE           N06     En3
        BYTE           N06     Gn3
        BYTE           N06     Cn3
        BYTE   W06
        BYTE                   Gn3
        BYTE           N06     Cn3
        BYTE           N06     En3
        BYTE   W18
        BYTE   PEND
// 050   ----------------------------------------
        BYTE           N18     Gn1
        BYTE   W06
        BYTE           N06     As2
        BYTE           N06     Dn3
        BYTE           N06     Fn3
        BYTE   W18
        BYTE           N18     Gn1
        BYTE           N06     Fn3
        BYTE           N06     As2
        BYTE           N06     Dn3
        BYTE   W12
        BYTE                   Dn3
        BYTE           N06     Fn3
        BYTE           N06     As2
        BYTE   W06
        BYTE                   As2
        BYTE           N06     Dn3
        BYTE           N06     Fn3
        BYTE   W06
        BYTE           N18     Gn1
        BYTE   W12
        BYTE           N06     Fn3
        BYTE           N06     As2
        BYTE           N06     Dn3
        BYTE   W12
        BYTE           N18     Gn1
        BYTE           N06     Dn3
        BYTE           N06     Fn3
        BYTE           N06     As2
        BYTE   W06
        BYTE                   Fn3
        BYTE           N06     As2
        BYTE           N06     Dn3
        BYTE   W18
// 051   ----------------------------------------
        BYTE           N18     An1
        BYTE   W06
        BYTE           N06     Cn3
        BYTE           N06     En3
        BYTE           N06     Gn3
        BYTE   W18
        BYTE                   Gn3
        BYTE           N06     Cn3
        BYTE           N06     En3
        BYTE           N18     An1
        BYTE   W12
        BYTE           N06     En3
        BYTE           N06     Gn3
        BYTE           N06     Cn3
        BYTE   W06
        BYTE                   Cn3
        BYTE           N06     En3
        BYTE           N06     Gn3
        BYTE   W06
        BYTE           N18     An1
        BYTE   W12
        BYTE           N06     Gn3
        BYTE           N06     Cn3
        BYTE           N06     En3
        BYTE   W12
        BYTE                   En3
        BYTE           N06     Gn3
        BYTE           N06     Cn3
        BYTE           N18     An1
        BYTE   W06
        BYTE           N06     Gn3
        BYTE           N06     Cn3
        BYTE           N06     En3
        BYTE   W18
// 052   ----------------------------------------
        BYTE   PATT
         POIN2  DrunkAsIlikeTheDUBSpeedArt0_5_48
// 053   ----------------------------------------
        BYTE   PATT
         POIN2  DrunkAsIlikeTheDUBSpeedArt0_5_49
// 054   ----------------------------------------
        BYTE           N18     As1   v100
        BYTE   W06
        BYTE           N06     Dn3
        BYTE           N06     Fn3
        BYTE           N06     An3
        BYTE   W18
        BYTE           N18     As1
        BYTE           N06     An3
        BYTE           N06     Dn3
        BYTE           N06     Fn3
        BYTE   W12
        BYTE                   Fn3
        BYTE           N06     An3
        BYTE           N06     Dn3
        BYTE   W06
        BYTE                   Gn3
        BYTE           N06     Cn3
        BYTE           N06     En3
        BYTE   W06
        BYTE           N18     Cn2
        BYTE   W12
        BYTE           N06     Gn3
        BYTE           N06     Cn3
        BYTE           N06     En3
        BYTE   W12
        BYTE           N18     Cn2
        BYTE           N06     En3
        BYTE           N06     Gn3
        BYTE           N06     Cn3
        BYTE   W06
        BYTE                   Gn3
        BYTE           N06     Cn3
        BYTE           N06     En3
        BYTE   W18
// 055   ----------------------------------------
        BYTE           N18     Dn2
        BYTE   W06
        BYTE           N06     Dn3
        BYTE           N06     Fn3
        BYTE           N06     An3
        BYTE   W18
        BYTE                   An3
        BYTE           N18     Dn2
        BYTE           N06     Dn3
        BYTE           N06     Fn3
        BYTE   W12
        BYTE                   Fn3
        BYTE           N06     An3
        BYTE           N06     Dn3
        BYTE   W06
        BYTE                   Dn3
        BYTE           N06     Fn3
        BYTE           N06     An3
        BYTE   W06
        BYTE           N18     Dn2
        BYTE   W12
        BYTE           N06     An3
        BYTE           N06     Dn3
        BYTE           N06     Fn3
        BYTE   W12
        BYTE                   Fn3
        BYTE           N18     Dn2
        BYTE           N06     An3
        BYTE           N06     Dn3
        BYTE   W06
        BYTE                   An3
        BYTE           N06     Dn3
        BYTE           N06     Fn3
        BYTE   W18
// 056   ----------------------------------------
        BYTE   FINE

//****************** Track 6 (Midi-Chn.6) ******************//

DrunkAsIlikeTheDUBSpeedArt0_6:
        BYTE   KEYSH   DrunkAsIlikeTheDUBSpeedArt0_key+0
// 000   ----------------------------------------
DrunkAsIlikeTheDUBSpeedArt0_6_LOOP:
        BYTE           VOICE   24
        BYTE           PAN     c_v-2
        BYTE           VOL     27
        BYTE           N24     Dn2   v080
        BYTE   W12
        BYTE           N06     Dn3
        BYTE   W06
        BYTE                   Dn3   v050
        BYTE   W06
        BYTE           N24     Dn2   v080
        BYTE   W12
        BYTE           N06     Dn3
        BYTE   W12
        BYTE           N24     Cn2
        BYTE   W12
        BYTE           N06     Cn3
        BYTE   W06
        BYTE                   Cn3   v050
        BYTE   W06
        BYTE           N24     Cn2   v080
        BYTE   W12
        BYTE           N06     Cn3
        BYTE   W12
// 001   ----------------------------------------
DrunkAsIlikeTheDUBSpeedArt0_6_1:
        BYTE           N24     As1   v080
        BYTE   W12
        BYTE           N06     As2
        BYTE   W06
        BYTE                   As2   v050
        BYTE   W06
        BYTE           N24     As1   v080
        BYTE   W12
        BYTE           N06     As2
        BYTE   W12
        BYTE           N24     Cn2
        BYTE   W12
        BYTE           N06     Cn3
        BYTE   W06
        BYTE                   Cn3   v050
        BYTE   W06
        BYTE           N24     Cn2   v080
        BYTE   W12
        BYTE           N06     Cn3
        BYTE   W12
        BYTE   PEND
// 002   ----------------------------------------
DrunkAsIlikeTheDUBSpeedArt0_6_2:
        BYTE           N24     Dn2   v080
        BYTE   W12
        BYTE           N06     Dn3
        BYTE   W06
        BYTE                   Dn3   v050
        BYTE   W06
        BYTE           N24     Dn2   v080
        BYTE   W12
        BYTE           N06     Dn3
        BYTE   W12
        BYTE           N24     Cn2
        BYTE   W12
        BYTE           N06     Cn3
        BYTE   W06
        BYTE                   Cn3   v050
        BYTE   W06
        BYTE           N24     Cn2   v080
        BYTE   W12
        BYTE           N06     Cn3
        BYTE   W12
        BYTE   PEND
// 003   ----------------------------------------
DrunkAsIlikeTheDUBSpeedArt0_6_3:
        BYTE           N24     As1   v080
        BYTE   W12
        BYTE           N06     As2
        BYTE   W06
        BYTE                   As2   v050
        BYTE   W06
        BYTE           N24     As1   v080
        BYTE   W12
        BYTE           N06     As2
        BYTE   W12
        BYTE           N24     An1
        BYTE   W12
        BYTE           N06     Cn3
        BYTE   W06
        BYTE                   Cn3   v050
        BYTE   W06
        BYTE           N24     An1   v080
        BYTE   W12
        BYTE           N06     Cn3
        BYTE   W12
        BYTE   PEND
// 004   ----------------------------------------
        BYTE   PATT
         POIN2  DrunkAsIlikeTheDUBSpeedArt0_6_2
// 005   ----------------------------------------
        BYTE   PATT
         POIN2  DrunkAsIlikeTheDUBSpeedArt0_6_1
// 006   ----------------------------------------
        BYTE   PATT
         POIN2  DrunkAsIlikeTheDUBSpeedArt0_6_2
// 007   ----------------------------------------
        BYTE   PATT
         POIN2  DrunkAsIlikeTheDUBSpeedArt0_6_3
// 008   ----------------------------------------
        BYTE   PATT
         POIN2  DrunkAsIlikeTheDUBSpeedArt0_6_2
// 009   ----------------------------------------
        BYTE   PATT
         POIN2  DrunkAsIlikeTheDUBSpeedArt0_6_1
// 010   ----------------------------------------
DrunkAsIlikeTheDUBSpeedArt0_6_10:
        BYTE           N24     Gn1   v080
        BYTE   W12
        BYTE           N06     As2
        BYTE   W06
        BYTE                   As2   v050
        BYTE   W06
        BYTE           N24     Gn1   v080
        BYTE   W12
        BYTE           N06     As2
        BYTE   W12
        BYTE           N24     An1
        BYTE   W12
        BYTE           N06     Cn3
        BYTE   W06
        BYTE                   Cn3   v050
        BYTE   W06
        BYTE           N24     An1   v080
        BYTE   W12
        BYTE           N06     Cn3
        BYTE   W12
        BYTE   PEND
// 011   ----------------------------------------
DrunkAsIlikeTheDUBSpeedArt0_6_11:
        BYTE           N24     Dn2   v080
        BYTE   W12
        BYTE           N06     Dn3
        BYTE   W06
        BYTE                   Dn3   v050
        BYTE   W06
        BYTE           N24     Dn2   v080
        BYTE   W12
        BYTE           N06     Dn3
        BYTE   W12
        BYTE           N24     Dn2
        BYTE   W12
        BYTE           N06     Dn3
        BYTE   W06
        BYTE                   Dn3   v050
        BYTE   W06
        BYTE           N24     Dn2   v080
        BYTE   W12
        BYTE           N06     Dn3
        BYTE   W12
        BYTE   PEND
// 012   ----------------------------------------
        BYTE   PATT
         POIN2  DrunkAsIlikeTheDUBSpeedArt0_6_2
// 013   ----------------------------------------
        BYTE   PATT
         POIN2  DrunkAsIlikeTheDUBSpeedArt0_6_1
// 014   ----------------------------------------
        BYTE   PATT
         POIN2  DrunkAsIlikeTheDUBSpeedArt0_6_2
// 015   ----------------------------------------
        BYTE   PATT
         POIN2  DrunkAsIlikeTheDUBSpeedArt0_6_3
// 016   ----------------------------------------
        BYTE   PATT
         POIN2  DrunkAsIlikeTheDUBSpeedArt0_6_2
// 017   ----------------------------------------
        BYTE   PATT
         POIN2  DrunkAsIlikeTheDUBSpeedArt0_6_1
// 018   ----------------------------------------
        BYTE   PATT
         POIN2  DrunkAsIlikeTheDUBSpeedArt0_6_10
// 019   ----------------------------------------
        BYTE   PATT
         POIN2  DrunkAsIlikeTheDUBSpeedArt0_6_11
// 020   ----------------------------------------
DrunkAsIlikeTheDUBSpeedArt0_6_20:
        BYTE           N24     As1   v080
        BYTE   W06
        BYTE           N06     Dn3
        BYTE   W18
        BYTE                   Dn3
        BYTE           N24     As1
        BYTE   W12
        BYTE           N06     Dn3
        BYTE   W06
        BYTE                   Dn3
        BYTE   W06
        BYTE           N24     As1
        BYTE   W12
        BYTE           N06     Dn3
        BYTE   W12
        BYTE                   Dn3
        BYTE           N24     As1
        BYTE   W06
        BYTE           N06     Dn3
        BYTE   W18
        BYTE   PEND
// 021   ----------------------------------------
DrunkAsIlikeTheDUBSpeedArt0_6_21:
        BYTE           N24     An1   v080
        BYTE   W06
        BYTE           N06     Cn3
        BYTE   W18
        BYTE                   Cn3
        BYTE           N24     An1
        BYTE   W12
        BYTE           N06     Cn3
        BYTE   W06
        BYTE                   Cn3
        BYTE   W06
        BYTE           N24     An1
        BYTE   W12
        BYTE           N06     Cn3
        BYTE   W12
        BYTE                   Cn3
        BYTE           N24     An1
        BYTE   W06
        BYTE           N06     Cn3
        BYTE   W18
        BYTE   PEND
// 022   ----------------------------------------
        BYTE           N24     Gn1
        BYTE   W06
        BYTE           N06     As2
        BYTE   W18
        BYTE                   As2
        BYTE           N24     Gn1
        BYTE   W12
        BYTE           N06     As2
        BYTE   W06
        BYTE                   As2
        BYTE   W06
        BYTE           N24     Gn1
        BYTE   W12
        BYTE           N06     As2
        BYTE   W12
        BYTE                   As2
        BYTE           N24     Gn1
        BYTE   W06
        BYTE           N06     As2
        BYTE   W18
// 023   ----------------------------------------
DrunkAsIlikeTheDUBSpeedArt0_6_23:
        BYTE           N24     An1   v080
        BYTE   W06
        BYTE           N06     Cn3
        BYTE   W18
        BYTE           N24     An1
        BYTE           N06     Cn3
        BYTE   W12
        BYTE                   Cn3
        BYTE   W06
        BYTE                   Cn3
        BYTE   W06
        BYTE           N24     An1
        BYTE   W12
        BYTE           N06     Cn3
        BYTE   W12
        BYTE                   Cn3
        BYTE           N24     An1
        BYTE   W06
        BYTE           N06     Cn3
        BYTE   W18
        BYTE   PEND
// 024   ----------------------------------------
        BYTE   PATT
         POIN2  DrunkAsIlikeTheDUBSpeedArt0_6_20
// 025   ----------------------------------------
        BYTE   PATT
         POIN2  DrunkAsIlikeTheDUBSpeedArt0_6_21
// 026   ----------------------------------------
DrunkAsIlikeTheDUBSpeedArt0_6_26:
        BYTE           N24     As1   v080
        BYTE   W06
        BYTE           N06     Dn3
        BYTE   W18
        BYTE           N24     As1
        BYTE   W18
        BYTE           N06     Cn3
        BYTE   W06
        BYTE           N24     Cn2
        BYTE   W12
        BYTE           N06     Cn3
        BYTE   W12
        BYTE                   Cn3
        BYTE           N24     Cn2
        BYTE   W06
        BYTE           N06     Cn3
        BYTE   W18
        BYTE   PEND
// 027   ----------------------------------------
        BYTE           N24     Dn2
        BYTE   W06
        BYTE           N06     Dn3
        BYTE   W18
        BYTE                   Dn3
        BYTE           N24     Dn2
        BYTE   W12
        BYTE           N06     Dn3
        BYTE   W06
        BYTE                   Dn3
        BYTE   W06
        BYTE           N24     Dn2
        BYTE   W12
        BYTE           N06     Dn3
        BYTE   W12
        BYTE                   Dn3
        BYTE           N24     Dn2
        BYTE   W06
        BYTE           N06     Dn3
        BYTE   W18
// 028   ----------------------------------------
        BYTE           N24     Dn2
        BYTE   GoTo
         POIN2  DrunkAsIlikeTheDUBSpeedArt0_6_LOOP
        BYTE   W12
        BYTE           N06     Dn3
        BYTE   W06
        BYTE                   Dn3   v050
        BYTE   W06
        BYTE           N24     Dn2   v080
        BYTE   W12
        BYTE           N06     Dn3
        BYTE   W12
        BYTE           N24     Cn2
        BYTE   W12
        BYTE           N06     Cn3
        BYTE   W06
        BYTE                   Cn3   v050
        BYTE   W06
        BYTE           N24     Cn2   v080
        BYTE   W12
        BYTE           N06     Cn3
        BYTE   W12
// 029   ----------------------------------------
        BYTE   PATT
         POIN2  DrunkAsIlikeTheDUBSpeedArt0_6_1
// 030   ----------------------------------------
        BYTE   PATT
         POIN2  DrunkAsIlikeTheDUBSpeedArt0_6_2
// 031   ----------------------------------------
        BYTE   PATT
         POIN2  DrunkAsIlikeTheDUBSpeedArt0_6_3
// 032   ----------------------------------------
        BYTE   PATT
         POIN2  DrunkAsIlikeTheDUBSpeedArt0_6_2
// 033   ----------------------------------------
        BYTE   PATT
         POIN2  DrunkAsIlikeTheDUBSpeedArt0_6_1
// 034   ----------------------------------------
        BYTE   PATT
         POIN2  DrunkAsIlikeTheDUBSpeedArt0_6_2
// 035   ----------------------------------------
        BYTE   PATT
         POIN2  DrunkAsIlikeTheDUBSpeedArt0_6_3
// 036   ----------------------------------------
        BYTE   PATT
         POIN2  DrunkAsIlikeTheDUBSpeedArt0_6_2
// 037   ----------------------------------------
        BYTE   PATT
         POIN2  DrunkAsIlikeTheDUBSpeedArt0_6_1
// 038   ----------------------------------------
        BYTE   PATT
         POIN2  DrunkAsIlikeTheDUBSpeedArt0_6_10
// 039   ----------------------------------------
        BYTE   PATT
         POIN2  DrunkAsIlikeTheDUBSpeedArt0_6_11
// 040   ----------------------------------------
        BYTE   PATT
         POIN2  DrunkAsIlikeTheDUBSpeedArt0_6_2
// 041   ----------------------------------------
        BYTE   PATT
         POIN2  DrunkAsIlikeTheDUBSpeedArt0_6_1
// 042   ----------------------------------------
        BYTE   PATT
         POIN2  DrunkAsIlikeTheDUBSpeedArt0_6_2
// 043   ----------------------------------------
        BYTE   PATT
         POIN2  DrunkAsIlikeTheDUBSpeedArt0_6_3
// 044   ----------------------------------------
        BYTE   PATT
         POIN2  DrunkAsIlikeTheDUBSpeedArt0_6_2
// 045   ----------------------------------------
        BYTE   PATT
         POIN2  DrunkAsIlikeTheDUBSpeedArt0_6_1
// 046   ----------------------------------------
        BYTE   PATT
         POIN2  DrunkAsIlikeTheDUBSpeedArt0_6_10
// 047   ----------------------------------------
        BYTE   PATT
         POIN2  DrunkAsIlikeTheDUBSpeedArt0_6_11
// 048   ----------------------------------------
DrunkAsIlikeTheDUBSpeedArt0_6_48:
        BYTE           N24     As1   v080
        BYTE   W06
        BYTE           N06     Dn3
        BYTE   W18
        BYTE           N24     As1
        BYTE           N06     Dn3
        BYTE   W12
        BYTE                   Dn3
        BYTE   W06
        BYTE                   Dn3
        BYTE   W06
        BYTE           N24     As1
        BYTE   W12
        BYTE           N06     Dn3
        BYTE   W12
        BYTE                   Dn3
        BYTE           N24     As1
        BYTE   W06
        BYTE           N06     Dn3
        BYTE   W18
        BYTE   PEND
// 049   ----------------------------------------
        BYTE   PATT
         POIN2  DrunkAsIlikeTheDUBSpeedArt0_6_23
// 050   ----------------------------------------
        BYTE           N24     Gn1   v080
        BYTE   W06
        BYTE           N06     As2
        BYTE   W18
        BYTE           N24     Gn1
        BYTE           N06     As2
        BYTE   W12
        BYTE                   As2
        BYTE   W06
        BYTE                   As2
        BYTE   W06
        BYTE           N24     Gn1
        BYTE   W12
        BYTE           N06     As2
        BYTE   W12
        BYTE                   As2
        BYTE           N24     Gn1
        BYTE   W06
        BYTE           N06     As2
        BYTE   W18
// 051   ----------------------------------------
        BYTE           N24     An1
        BYTE   W06
        BYTE           N06     Cn3
        BYTE   W18
        BYTE           N24     An1
        BYTE           N06     Cn3
        BYTE   W12
        BYTE                   Cn3
        BYTE   W06
        BYTE                   Cn3
        BYTE   W06
        BYTE           N24     An1
        BYTE   W12
        BYTE           N06     Cn3
        BYTE   W12
        BYTE           N24     An1
        BYTE           N06     Cn3
        BYTE   W06
        BYTE                   Cn3
        BYTE   W18
// 052   ----------------------------------------
        BYTE   PATT
         POIN2  DrunkAsIlikeTheDUBSpeedArt0_6_48
// 053   ----------------------------------------
        BYTE   PATT
         POIN2  DrunkAsIlikeTheDUBSpeedArt0_6_23
// 054   ----------------------------------------
        BYTE   PATT
         POIN2  DrunkAsIlikeTheDUBSpeedArt0_6_26
// 055   ----------------------------------------
        BYTE           N24     Dn2   v080
        BYTE   W06
        BYTE           N06     Dn3
        BYTE   W18
        BYTE           N24     Dn2
        BYTE           N06     Dn3
        BYTE   W12
        BYTE                   Dn3
        BYTE   W06
        BYTE                   Dn3
        BYTE   W06
        BYTE           N24     Dn2
        BYTE   W12
        BYTE           N06     Dn3
        BYTE   W12
        BYTE                   Dn3
        BYTE           N24     Dn2
        BYTE   W06
        BYTE           N06     Dn3
        BYTE   W18
// 056   ----------------------------------------
        BYTE   FINE

//****************** Track 7 (Midi-Chn.7) ******************//

DrunkAsIlikeTheDUBSpeedArt0_7:
        BYTE   KEYSH   DrunkAsIlikeTheDUBSpeedArt0_key+0
// 000   ----------------------------------------
DrunkAsIlikeTheDUBSpeedArt0_7_LOOP:
        BYTE           VOICE   121
        BYTE           VOL     33
        BYTE           N01     Bn0   v080
        BYTE           N01     Fs1   v100
        BYTE           N01     Cn1
        BYTE   W12
        BYTE                   Fs1
        BYTE           N01     Fs2
        BYTE   W06
        BYTE                   Bn0   v080
        BYTE           N01     Fs1   v070
        BYTE           N01     Fs2   v100
        BYTE           N01     Cn1
        BYTE   W06
        BYTE                   En1   v090
        BYTE           N01     Fs1   v100
        BYTE           N01     Dn1
        BYTE   W12
        BYTE                   Fs2
        BYTE           N01     Dn1   v080
        BYTE           N01     Fs1   v100
        BYTE   W06
        BYTE                   Cn1
        BYTE           N01     Bn0   v080
        BYTE           N01     Fs1
        BYTE   W06
        BYTE                   Fs1   v100
        BYTE   W06
        BYTE                   Dn1
        BYTE           N01     En1   v090
        BYTE   W06
        BYTE                   Fs1   v100
        BYTE           N01     Bn0   v080
        BYTE           N01     Fs2   v100
        BYTE           N01     Cn1
        BYTE   W06
        BYTE                   Fs2
        BYTE           N01     Fs1   v070
        BYTE   W06
        BYTE                   En1   v090
        BYTE           N01     Dn1   v100
        BYTE           N01     Fs1
        BYTE   W12
        BYTE                   Fs2
        BYTE           N01     Bn0   v080
        BYTE           N01     Fs1   v100
        BYTE           N01     Cn1
        BYTE   W06
        BYTE                   Dn1   v090
        BYTE           N01     Fs1   v080
        BYTE   W06
// 001   ----------------------------------------
        BYTE                   Cn1   v100
        BYTE           N01     Fs1
        BYTE           N01     Bn0   v080
        BYTE   W12
        BYTE                   Fs2   v100
        BYTE           N01     Fs1
        BYTE   W06
        BYTE                   Bn0   v080
        BYTE           N01     Fs2   v100
        BYTE           N01     Fs1   v070
        BYTE           N01     Cn1   v100
        BYTE   W06
        BYTE                   En1   v090
        BYTE           N01     Fs1   v100
        BYTE           N01     Dn1
        BYTE   W12
        BYTE                   Dn1   v080
        BYTE           N01     Fs1   v100
        BYTE           N01     Fs2
        BYTE   W06
        BYTE                   Cn1
        BYTE           N01     Bn0   v080
        BYTE           N01     Fs1
        BYTE   W06
        BYTE                   Fs1   v100
        BYTE   W06
        BYTE                   Dn1
        BYTE           N01     En1   v090
        BYTE   W06
        BYTE                   Fs2   v100
        BYTE           N01     Bn0   v080
        BYTE           N01     Cn1   v100
        BYTE           N01     Fs1
        BYTE   W06
        BYTE                   Fs2
        BYTE           N01     Fs1   v070
        BYTE   W06
        BYTE                   Dn1   v100
        BYTE           N01     Fs1
        BYTE           N01     En1   v090
        BYTE   W12
        BYTE                   Fs2   v100
        BYTE           N01     Bn0   v080
        BYTE           N01     Cn1   v100
        BYTE           N01     Fs1
        BYTE   W06
        BYTE                   Dn1   v090
        BYTE           N01     Fs1   v080
        BYTE   W06
// 002   ----------------------------------------
        BYTE                   Bn0
        BYTE           N01     Fs1   v100
        BYTE           N01     Cn1
        BYTE   W12
        BYTE                   Fs2
        BYTE           N01     Fs1
        BYTE   W06
        BYTE                   Fs1   v070
        BYTE           N01     Cn1   v100
        BYTE           N01     Fs2
        BYTE           N01     Bn0   v080
        BYTE   W06
        BYTE                   En1   v090
        BYTE           N01     Fs1   v100
        BYTE           N01     Dn1
        BYTE   W12
        BYTE                   Fs2
        BYTE           N01     Fs1
        BYTE           N01     Dn1   v080
        BYTE   W06
        BYTE                   Cn1   v100
        BYTE           N01     Bn0   v080
        BYTE           N01     Fs1
        BYTE   W06
        BYTE                   Fs1   v100
        BYTE   W06
        BYTE                   Dn1
        BYTE           N01     En1   v090
        BYTE   W06
        BYTE                   Bn0   v080
        BYTE           N01     Cn1   v100
        BYTE           N01     Fs2
        BYTE           N01     Fs1
        BYTE   W06
        BYTE                   Fs2
        BYTE           N01     Fs1   v070
        BYTE   W06
        BYTE                   En1   v090
        BYTE           N01     Dn1   v100
        BYTE           N01     Fs1
        BYTE   W12
        BYTE                   Bn0   v080
        BYTE           N01     Fs1   v100
        BYTE           N01     Fs2
        BYTE           N01     Cn1
        BYTE   W06
        BYTE                   Dn1   v090
        BYTE           N01     Fs1   v080
        BYTE   W06
// 003   ----------------------------------------
        BYTE                   Cn1   v100
        BYTE           N01     Fs1
        BYTE           N01     Bn0   v080
        BYTE   W12
        BYTE                   Fs2   v100
        BYTE           N01     Fs1
        BYTE   W06
        BYTE                   Bn0   v080
        BYTE           N01     Fs1   v070
        BYTE           N01     Fs2   v100
        BYTE           N01     Cn1
        BYTE   W06
        BYTE                   Dn1
        BYTE           N01     En1   v090
        BYTE           N01     Fs1   v100
        BYTE   W12
        BYTE                   Fs2
        BYTE           N01     Fs1
        BYTE           N01     Dn1   v080
        BYTE   W06
        BYTE                   En1   v090
        BYTE           N01     Dn1   v100
        BYTE           N01     Fs1   v080
        BYTE   W06
        BYTE                   Cn1   v100
        BYTE           N01     Fs1
        BYTE           N01     Bn0   v080
        BYTE   W06
        BYTE                   En1   v070
        BYTE           N01     Dn1   v100
        BYTE   W06
        BYTE                   Fs1
        BYTE           N01     Bn0   v080
        BYTE           N01     Fs2   v100
        BYTE           N01     Cn1
        BYTE   W06
        BYTE                   En1   v070
        BYTE           N01     Fs1
        BYTE           N01     Fs2   v100
        BYTE           N01     Dn1
        BYTE   W06
        BYTE                   En1   v090
        BYTE           N01     En2   v100
        BYTE           N01     Dn1
        BYTE           N01     Fs1
        BYTE   W12
        BYTE                   Fs1
        BYTE           N01     Dn1   v060
        BYTE           N01     Fs2   v100
        BYTE   W06
        BYTE                   Bn0   v080
        BYTE           N01     Fs1
        BYTE           N01     Dn1   v060
        BYTE           N01     Cn1   v100
        BYTE   W06
// 004   ----------------------------------------
        BYTE                   Fs1
        BYTE           N01     Gn2
        BYTE           N01     Cn1
        BYTE           N01     Bn0   v080
        BYTE   W12
        BYTE                   Fs1   v100
        BYTE           N01     Fs2
        BYTE   W06
        BYTE                   Bn0   v080
        BYTE           N01     Fs2   v100
        BYTE           N01     Fs1   v070
        BYTE           N01     Cn1   v100
        BYTE   W06
        BYTE                   Dn1
        BYTE           N01     En1   v090
        BYTE           N01     Fs1   v100
        BYTE   W12
        BYTE                   Fs2
        BYTE           N01     Dn1   v080
        BYTE           N01     Fs1   v100
        BYTE   W06
        BYTE                   Fs1   v080
        BYTE           N01     Cn1   v100
        BYTE           N01     Bn0   v080
        BYTE   W06
        BYTE                   Fs1   v100
        BYTE   W06
        BYTE                   En1   v090
        BYTE           N01     Dn1   v100
        BYTE   W06
        BYTE                   Fs1
        BYTE           N01     Fs2
        BYTE           N01     Bn0   v080
        BYTE           N01     Cn1   v100
        BYTE   W06
        BYTE                   Fs1   v070
        BYTE           N01     Fs2   v100
        BYTE   W06
        BYTE                   Fs1
        BYTE           N01     En1   v090
        BYTE           N01     Dn1   v100
        BYTE   W12
        BYTE                   Bn0   v080
        BYTE           N01     Fs2   v100
        BYTE           N01     Fs1
        BYTE           N01     Cn1
        BYTE   W06
        BYTE                   Fs1   v080
        BYTE           N01     Dn1   v090
        BYTE   W06
// 005   ----------------------------------------
        BYTE                   Bn0   v080
        BYTE           N01     Cn1   v100
        BYTE           N01     Fs1
        BYTE   W12
        BYTE                   Fs1
        BYTE           N01     Fs2
        BYTE   W06
        BYTE                   Bn0   v080
        BYTE           N01     Fs2   v100
        BYTE           N01     Fs1   v070
        BYTE           N01     Cn1   v100
        BYTE   W06
        BYTE                   Dn1
        BYTE           N01     En1   v090
        BYTE           N01     Fs1   v100
        BYTE   W12
        BYTE                   Fs2
        BYTE           N01     Fs1
        BYTE           N01     Dn1   v080
        BYTE   W06
        BYTE                   Fs1
        BYTE           N01     Cn1   v100
        BYTE           N01     Bn0   v080
        BYTE   W06
        BYTE                   Fs1   v100
        BYTE   W06
        BYTE                   En1   v090
        BYTE           N01     Dn1   v100
        BYTE   W06
        BYTE                   Bn0   v080
        BYTE           N01     Fs2   v100
        BYTE           N01     Cn1
        BYTE           N01     Fs1
        BYTE   W06
        BYTE                   Fs1   v070
        BYTE           N01     Fs2   v100
        BYTE   W06
        BYTE                   En1   v090
        BYTE           N01     Dn1   v100
        BYTE           N01     Fs1
        BYTE   W12
        BYTE                   Bn0   v080
        BYTE           N01     Fs2   v100
        BYTE           N01     Cn1
        BYTE           N01     Fs1
        BYTE   W06
        BYTE                   Fs1   v080
        BYTE           N01     Dn1   v090
        BYTE   W06
// 006   ----------------------------------------
        BYTE                   Cn1   v100
        BYTE           N01     Bn0   v080
        BYTE           N01     Fs1   v100
        BYTE   W12
        BYTE                   Fs1
        BYTE           N01     Fs2
        BYTE   W06
        BYTE                   Bn0   v080
        BYTE           N01     Fs1   v070
        BYTE           N01     Cn1   v100
        BYTE           N01     Fs2
        BYTE   W06
        BYTE                   Dn1
        BYTE           N01     En1   v090
        BYTE           N01     Fs1   v100
        BYTE   W12
        BYTE                   Fs1
        BYTE           N01     Dn1   v080
        BYTE           N01     Fs2   v100
        BYTE   W06
        BYTE                   Fs1   v080
        BYTE           N01     Cn1   v100
        BYTE           N01     Bn0   v080
        BYTE   W06
        BYTE                   Fs1   v100
        BYTE   W06
        BYTE                   En1   v090
        BYTE           N01     Dn1   v100
        BYTE   W06
        BYTE                   Fs1
        BYTE           N01     Bn0   v080
        BYTE           N01     Cn1   v100
        BYTE           N01     Fs2
        BYTE   W06
        BYTE                   Fs1   v070
        BYTE           N01     Fs2   v100
        BYTE   W06
        BYTE                   Fs1
        BYTE           N01     En1   v090
        BYTE           N01     Dn1   v100
        BYTE   W12
        BYTE                   Cn1
        BYTE           N01     Bn0   v080
        BYTE           N01     Fs1   v100
        BYTE           N01     Fs2
        BYTE   W06
        BYTE                   Fs1   v080
        BYTE           N01     Dn1   v090
        BYTE   W06
// 007   ----------------------------------------
        BYTE                   Bn0   v080
        BYTE           N01     Cn1   v100
        BYTE           N01     Fs1
        BYTE   W12
        BYTE                   Fs1
        BYTE           N01     Fs2
        BYTE   W06
        BYTE                   Cn1
        BYTE           N01     Bn0   v080
        BYTE           N01     Fs1   v070
        BYTE           N01     Fs2   v100
        BYTE   W06
        BYTE                   Dn1
        BYTE           N01     En1   v090
        BYTE           N01     Fs1   v100
        BYTE   W12
        BYTE                   Dn1   v080
        BYTE           N01     Fs1   v100
        BYTE           N01     Fs2
        BYTE   W06
        BYTE                   Fs1   v080
        BYTE           N01     Cn1   v100
        BYTE           N01     Bn0   v080
        BYTE   W06
        BYTE                   Fs1   v100
        BYTE   W06
        BYTE                   En1   v090
        BYTE           N01     Dn1   v100
        BYTE   W06
        BYTE                   Fs1
        BYTE           N01     Bn0   v080
        BYTE           N01     Cn1   v100
        BYTE           N01     Fs2
        BYTE   W06
        BYTE                   Fs1   v070
        BYTE           N01     Fs2   v100
        BYTE   W06
        BYTE                   En1   v090
        BYTE           N01     Dn1   v100
        BYTE           N01     Fs1
        BYTE   W12
        BYTE                   Fs1
        BYTE           N01     Bn0   v080
        BYTE           N01     Cn1   v100
        BYTE           N01     Fs2
        BYTE   W06
        BYTE                   Fs1   v080
        BYTE           N01     Dn1   v090
        BYTE   W06
// 008   ----------------------------------------
        BYTE                   Cn1   v100
        BYTE           N01     Bn0   v080
        BYTE           N01     Fs1   v100
        BYTE   W12
        BYTE                   Fs1
        BYTE           N01     Fs2
        BYTE   W06
        BYTE                   Fs1   v070
        BYTE           N01     Fs2   v100
        BYTE           N01     Cn1
        BYTE           N01     Bn0   v080
        BYTE   W06
        BYTE                   Dn1   v100
        BYTE           N01     En1   v090
        BYTE           N01     Fs1   v100
        BYTE   W12
        BYTE                   Dn1   v080
        BYTE           N01     Fs2   v100
        BYTE           N01     Fs1
        BYTE   W06
        BYTE                   Fs1   v080
        BYTE           N01     Cn1   v100
        BYTE           N01     Bn0   v080
        BYTE   W06
        BYTE                   Fs1   v100
        BYTE   W06
        BYTE                   En1   v090
        BYTE           N01     Dn1   v100
        BYTE   W06
        BYTE                   Bn0   v080
        BYTE           N01     Fs2   v100
        BYTE           N01     Cn1
        BYTE           N01     Fs1
        BYTE   W06
        BYTE                   Fs1   v070
        BYTE           N01     Fs2   v100
        BYTE   W06
        BYTE                   Fs1
        BYTE           N01     En1   v090
        BYTE           N01     Dn1   v100
        BYTE   W12
        BYTE                   Bn0   v080
        BYTE           N01     Fs2   v100
        BYTE           N01     Fs1
        BYTE           N01     Cn1
        BYTE   W06
        BYTE                   Fs1   v080
        BYTE           N01     Dn1   v090
        BYTE   W06
// 009   ----------------------------------------
        BYTE                   Bn0   v080
        BYTE           N01     Cn1   v100
        BYTE           N01     Fs1
        BYTE   W12
        BYTE                   Fs1
        BYTE           N01     Fs2
        BYTE   W06
        BYTE                   Bn0   v080
        BYTE           N01     Fs2   v100
        BYTE           N01     Fs1   v070
        BYTE           N01     Cn1   v100
        BYTE   W06
        BYTE                   Dn1
        BYTE           N01     En1   v090
        BYTE           N01     Fs1   v100
        BYTE   W12
        BYTE                   Fs1
        BYTE           N01     Fs2
        BYTE           N01     Dn1   v080
        BYTE   W06
        BYTE                   Fs1
        BYTE           N01     Cn1   v100
        BYTE           N01     Bn0   v080
        BYTE   W06
        BYTE                   Fs1   v100
        BYTE   W06
        BYTE                   En1   v090
        BYTE           N01     Dn1   v100
        BYTE   W06
        BYTE                   Bn0   v080
        BYTE           N01     Fs2   v100
        BYTE           N01     Cn1
        BYTE           N01     Fs1
        BYTE   W06
        BYTE                   Fs1   v070
        BYTE           N01     Fs2   v100
        BYTE   W06
        BYTE                   En1   v090
        BYTE           N01     Dn1   v100
        BYTE           N01     Fs1
        BYTE   W12
        BYTE                   Bn0   v080
        BYTE           N01     Fs2   v100
        BYTE           N01     Cn1
        BYTE           N01     Fs1
        BYTE   W06
        BYTE                   Fs1   v080
        BYTE           N01     Dn1   v090
        BYTE   W06
// 010   ----------------------------------------
        BYTE                   Cn1   v100
        BYTE           N01     Bn0   v080
        BYTE           N01     Fs1   v100
        BYTE   W12
        BYTE                   Fs1
        BYTE           N01     Fs2
        BYTE   W06
        BYTE                   Bn0   v080
        BYTE           N01     Fs2   v100
        BYTE           N01     Fs1   v070
        BYTE           N01     Cn1   v100
        BYTE   W06
        BYTE                   Fs1
        BYTE           N01     Dn1
        BYTE           N01     En1   v090
        BYTE   W12
        BYTE                   Dn1   v080
        BYTE           N01     Fs1   v100
        BYTE           N01     Fs2
        BYTE   W06
        BYTE                   Fs1   v080
        BYTE           N01     Cn1   v100
        BYTE           N01     Bn0   v080
        BYTE   W06
        BYTE                   Fs1   v100
        BYTE   W06
        BYTE                   En1   v090
        BYTE           N01     Dn1   v100
        BYTE   W06
        BYTE                   Cn1
        BYTE           N01     Fs2
        BYTE           N01     Fs1
        BYTE           N01     Bn0   v080
        BYTE   W06
        BYTE                   Fs1   v070
        BYTE           N01     Fs2   v100
        BYTE   W06
        BYTE                   Fs1
        BYTE           N01     En1   v090
        BYTE           N01     Dn1   v100
        BYTE   W12
        BYTE                   Fs1
        BYTE           N01     Fs2
        BYTE           N01     Cn1
        BYTE           N01     Bn0   v080
        BYTE   W06
        BYTE                   Fs1
        BYTE           N01     Dn1   v090
        BYTE   W06
// 011   ----------------------------------------
        BYTE                   Bn0   v080
        BYTE           N01     Cn1   v100
        BYTE           N01     Fs1
        BYTE   W06
        BYTE                   En1   v090
        BYTE           N01     Dn1   v080
        BYTE   W06
        BYTE                   Fs1   v100
        BYTE           N01     Fs2
        BYTE   W06
        BYTE                   Cn1
        BYTE           N01     Fs2
        BYTE           N01     Fs1   v070
        BYTE           N01     Bn0   v080
        BYTE   W06
        BYTE                   En1   v090
        BYTE           N01     Dn1   v100
        BYTE           N01     Fs1
        BYTE   W12
        BYTE                   Fs1
        BYTE           N01     Fs2
        BYTE   W06
        BYTE                   Cn1
        BYTE           N01     Fs1   v080
        BYTE           N01     Bn0
        BYTE   W06
        BYTE                   Fs1   v100
        BYTE   W06
        BYTE                   Dn1   v080
        BYTE           N01     En1   v090
        BYTE   W06
        BYTE                   Fs1   v100
        BYTE           N01     Fs2
        BYTE   W06
        BYTE                   Fs1   v070
        BYTE           N01     Bn0   v080
        BYTE           N01     Cn1   v100
        BYTE           N01     Fs2
        BYTE   W06
        BYTE                   Dn1
        BYTE           N01     Fs1
        BYTE           N01     En2
        BYTE           N01     En1   v090
        BYTE   W04
        BYTE                   En1   v070
        BYTE   W04
        BYTE                   En1   v060
        BYTE   W04
        BYTE                   Fs1   v100
        BYTE           N01     En1   v050
        BYTE           N01     Fs2   v100
        BYTE   W06
        BYTE                   Fs1   v080
        BYTE           N01     Bn0
        BYTE           N01     Cn1   v100
        BYTE   W06
// 012   ----------------------------------------
DrunkAsIlikeTheDUBSpeedArt0_7_12:
        BYTE           N01     Gn2   v100
        BYTE           N01     Cn1
        BYTE           N01     Bn0   v080
        BYTE           N01     Fs1   v100
        BYTE   W12
        BYTE                   Fs2
        BYTE           N01     Fs1
        BYTE   W06
        BYTE                   Fs2
        BYTE           N01     Fs1   v070
        BYTE           N01     Cn1   v100
        BYTE           N01     Bn0   v080
        BYTE   W06
        BYTE                   En1   v090
        BYTE           N01     Fs1   v100
        BYTE           N01     Dn1
        BYTE   W12
        BYTE                   Dn1   v080
        BYTE           N01     Fs1   v100
        BYTE           N01     Fs2
        BYTE   W06
        BYTE                   Cn1
        BYTE           N01     Bn0   v080
        BYTE           N01     Fs1
        BYTE   W06
        BYTE                   Fs1   v100
        BYTE   W06
        BYTE                   Dn1
        BYTE           N01     En1   v090
        BYTE   W06
        BYTE                   Fs2   v100
        BYTE           N01     Bn0   v080
        BYTE           N01     Cn1   v100
        BYTE           N01     Fs1
        BYTE   W06
        BYTE                   Fs2
        BYTE           N01     Fs1   v070
        BYTE   W06
        BYTE                   En1   v090
        BYTE           N01     Dn1   v100
        BYTE           N01     Fs1
        BYTE   W12
        BYTE                   Fs2
        BYTE           N01     Fs1
        BYTE           N01     Cn1
        BYTE           N01     Bn0   v080
        BYTE   W06
        BYTE                   Dn1   v090
        BYTE           N01     Fs1   v080
        BYTE   W06
        BYTE   PEND
// 013   ----------------------------------------
DrunkAsIlikeTheDUBSpeedArt0_7_13:
        BYTE           N01     Cn1   v100
        BYTE           N01     Fs1
        BYTE           N01     Bn0   v080
        BYTE   W12
        BYTE                   Fs2   v100
        BYTE           N01     Fs1
        BYTE   W06
        BYTE                   Fs2
        BYTE           N01     Fs1   v070
        BYTE           N01     Cn1   v100
        BYTE           N01     Bn0   v080
        BYTE   W06
        BYTE                   En1   v090
        BYTE           N01     Fs1   v100
        BYTE           N01     Dn1
        BYTE   W12
        BYTE                   Fs1
        BYTE           N01     Dn1   v080
        BYTE           N01     Fs2   v100
        BYTE   W06
        BYTE                   Cn1
        BYTE           N01     Bn0   v080
        BYTE           N01     Fs1
        BYTE   W06
        BYTE                   Fs1   v100
        BYTE   W06
        BYTE                   Dn1
        BYTE           N01     En1   v090
        BYTE   W06
        BYTE                   Fs2   v100
        BYTE           N01     Cn1
        BYTE           N01     Fs1
        BYTE           N01     Bn0   v080
        BYTE   W06
        BYTE                   Fs2   v100
        BYTE           N01     Fs1   v070
        BYTE   W06
        BYTE                   Dn1   v100
        BYTE           N01     Fs1
        BYTE           N01     En1   v090
        BYTE   W12
        BYTE                   Fs2   v100
        BYTE           N01     Cn1
        BYTE           N01     Fs1
        BYTE           N01     Bn0   v080
        BYTE   W06
        BYTE                   Dn1   v090
        BYTE           N01     Fs1   v080
        BYTE   W06
        BYTE   PEND
// 014   ----------------------------------------
DrunkAsIlikeTheDUBSpeedArt0_7_14:
        BYTE           N01     Bn0   v080
        BYTE           N01     Fs1   v100
        BYTE           N01     Cn1
        BYTE   W12
        BYTE                   Fs2
        BYTE           N01     Fs1
        BYTE   W06
        BYTE                   Fs1   v070
        BYTE           N01     Cn1   v100
        BYTE           N01     Fs2
        BYTE           N01     Bn0   v080
        BYTE   W06
        BYTE                   En1   v090
        BYTE           N01     Fs1   v100
        BYTE           N01     Dn1
        BYTE   W12
        BYTE                   Dn1   v080
        BYTE           N01     Fs2   v100
        BYTE           N01     Fs1
        BYTE   W06
        BYTE                   Cn1
        BYTE           N01     Bn0   v080
        BYTE           N01     Fs1
        BYTE   W06
        BYTE                   Fs1   v100
        BYTE   W06
        BYTE                   Dn1
        BYTE           N01     En1   v090
        BYTE   W06
        BYTE                   Bn0   v080
        BYTE           N01     Cn1   v100
        BYTE           N01     Fs2
        BYTE           N01     Fs1
        BYTE   W06
        BYTE                   Fs2
        BYTE           N01     Fs1   v070
        BYTE   W06
        BYTE                   En1   v090
        BYTE           N01     Dn1   v100
        BYTE           N01     Fs1
        BYTE   W12
        BYTE                   Bn0   v080
        BYTE           N01     Fs1   v100
        BYTE           N01     Fs2
        BYTE           N01     Cn1
        BYTE   W06
        BYTE                   Dn1   v090
        BYTE           N01     Fs1   v080
        BYTE   W06
        BYTE   PEND
// 015   ----------------------------------------
DrunkAsIlikeTheDUBSpeedArt0_7_15:
        BYTE           N01     Cn1   v100
        BYTE           N01     Fs1
        BYTE           N01     Bn0   v080
        BYTE   W12
        BYTE                   Fs2   v100
        BYTE           N01     Fs1
        BYTE   W06
        BYTE                   Bn0   v080
        BYTE           N01     Fs1   v070
        BYTE           N01     Fs2   v100
        BYTE           N01     Cn1
        BYTE   W06
        BYTE                   En1   v090
        BYTE           N01     Fs1   v100
        BYTE           N01     Dn1
        BYTE   W12
        BYTE                   Fs1
        BYTE           N01     Fs2
        BYTE           N01     Dn1   v080
        BYTE   W06
        BYTE                   Cn1   v100
        BYTE           N01     Bn0   v080
        BYTE           N01     Fs1
        BYTE   W06
        BYTE                   Fs1   v100
        BYTE   W06
        BYTE                   Dn1
        BYTE           N01     En1   v090
        BYTE   W06
        BYTE                   Bn0   v080
        BYTE           N01     Cn1   v100
        BYTE           N01     Fs2
        BYTE           N01     Fs1
        BYTE   W06
        BYTE                   Fs2
        BYTE           N01     Fs1   v070
        BYTE   W06
        BYTE                   Dn1   v100
        BYTE           N01     Fs1
        BYTE           N01     En1   v090
        BYTE   W12
        BYTE                   Bn0   v080
        BYTE           N01     Cn1   v100
        BYTE           N01     Fs2
        BYTE           N01     Fs1
        BYTE   W06
        BYTE                   Dn1   v090
        BYTE           N01     Fs1   v080
        BYTE   W06
        BYTE   PEND
// 016   ----------------------------------------
DrunkAsIlikeTheDUBSpeedArt0_7_16:
        BYTE           N01     Bn0   v080
        BYTE           N01     Fs1   v100
        BYTE           N01     Cn1
        BYTE   W12
        BYTE                   Fs2
        BYTE           N01     Fs1
        BYTE   W06
        BYTE                   Fs2
        BYTE           N01     Cn1
        BYTE           N01     Bn0   v080
        BYTE           N01     Fs1   v070
        BYTE   W06
        BYTE                   En1   v090
        BYTE           N01     Fs1   v100
        BYTE           N01     Dn1
        BYTE   W12
        BYTE                   Fs2
        BYTE           N01     Fs1
        BYTE           N01     Dn1   v080
        BYTE   W06
        BYTE                   Cn1   v100
        BYTE           N01     Bn0   v080
        BYTE           N01     Fs1
        BYTE   W06
        BYTE                   Fs1   v100
        BYTE   W06
        BYTE                   Dn1
        BYTE           N01     En1   v090
        BYTE   W06
        BYTE                   Fs2   v100
        BYTE           N01     Cn1
        BYTE           N01     Fs1
        BYTE           N01     Bn0   v080
        BYTE   W06
        BYTE                   Fs2   v100
        BYTE           N01     Fs1   v070
        BYTE   W06
        BYTE                   En1   v090
        BYTE           N01     Dn1   v100
        BYTE           N01     Fs1
        BYTE   W12
        BYTE                   Fs2
        BYTE           N01     Fs1
        BYTE           N01     Cn1
        BYTE           N01     Bn0   v080
        BYTE   W06
        BYTE                   Dn1   v090
        BYTE           N01     Fs1   v080
        BYTE   W06
        BYTE   PEND
// 017   ----------------------------------------
DrunkAsIlikeTheDUBSpeedArt0_7_17:
        BYTE           N01     Cn1   v100
        BYTE           N01     Fs1
        BYTE           N01     Bn0   v080
        BYTE   W12
        BYTE                   Fs2   v100
        BYTE           N01     Fs1
        BYTE   W06
        BYTE                   Fs2
        BYTE           N01     Fs1   v070
        BYTE           N01     Cn1   v100
        BYTE           N01     Bn0   v080
        BYTE   W06
        BYTE                   En1   v090
        BYTE           N01     Fs1   v100
        BYTE           N01     Dn1
        BYTE   W12
        BYTE                   Fs2
        BYTE           N01     Dn1   v080
        BYTE           N01     Fs1   v100
        BYTE   W06
        BYTE                   Cn1
        BYTE           N01     Bn0   v080
        BYTE           N01     Fs1
        BYTE   W06
        BYTE                   Fs1   v100
        BYTE   W06
        BYTE                   Dn1
        BYTE           N01     En1   v090
        BYTE   W06
        BYTE                   Fs2   v100
        BYTE           N01     Cn1
        BYTE           N01     Fs1
        BYTE           N01     Bn0   v080
        BYTE   W06
        BYTE                   Fs2   v100
        BYTE           N01     Fs1   v070
        BYTE   W06
        BYTE                   Dn1   v100
        BYTE           N01     Fs1
        BYTE           N01     En1   v090
        BYTE   W12
        BYTE                   Fs2   v100
        BYTE           N01     Cn1
        BYTE           N01     Fs1
        BYTE           N01     Bn0   v080
        BYTE   W06
        BYTE                   Dn1   v090
        BYTE           N01     Fs1   v080
        BYTE   W06
        BYTE   PEND
// 018   ----------------------------------------
DrunkAsIlikeTheDUBSpeedArt0_7_18:
        BYTE           N01     Bn0   v080
        BYTE           N01     Fs1   v100
        BYTE           N01     Cn1
        BYTE   W12
        BYTE                   Fs2
        BYTE           N01     Fs1
        BYTE   W06
        BYTE                   Fs2
        BYTE           N01     Fs1   v070
        BYTE           N01     Cn1   v100
        BYTE           N01     Bn0   v080
        BYTE   W06
        BYTE                   Dn1   v100
        BYTE           N01     En1   v090
        BYTE           N01     Fs1   v100
        BYTE   W12
        BYTE                   Fs1
        BYTE           N01     Fs2
        BYTE           N01     Dn1   v080
        BYTE   W06
        BYTE                   Cn1   v100
        BYTE           N01     Bn0   v080
        BYTE           N01     Fs1
        BYTE   W06
        BYTE                   Fs1   v100
        BYTE   W06
        BYTE                   Dn1
        BYTE           N01     En1   v090
        BYTE   W06
        BYTE                   Fs2   v100
        BYTE           N01     Fs1
        BYTE           N01     Bn0   v080
        BYTE           N01     Cn1   v100
        BYTE   W06
        BYTE                   Fs2
        BYTE           N01     Fs1   v070
        BYTE   W06
        BYTE                   En1   v090
        BYTE           N01     Dn1   v100
        BYTE           N01     Fs1
        BYTE   W12
        BYTE                   Fs2
        BYTE           N01     Cn1
        BYTE           N01     Bn0   v080
        BYTE           N01     Fs1   v100
        BYTE   W06
        BYTE                   Dn1   v090
        BYTE           N01     Fs1   v080
        BYTE   W06
        BYTE   PEND
// 019   ----------------------------------------
        BYTE                   Cn1   v100
        BYTE           N01     Fs1
        BYTE           N01     Bn0   v080
        BYTE   W06
        BYTE                   Dn1
        BYTE           N01     En1   v090
        BYTE   W06
        BYTE                   Fs2   v100
        BYTE           N01     Fs1
        BYTE   W06
        BYTE                   Fs2
        BYTE           N01     Fs1   v070
        BYTE           N01     Bn0   v080
        BYTE           N01     Cn1   v100
        BYTE   W06
        BYTE                   Dn1
        BYTE           N01     Fs1
        BYTE           N01     En1   v090
        BYTE   W12
        BYTE                   Fs2   v100
        BYTE           N01     Fs1
        BYTE   W06
        BYTE                   Fs1   v080
        BYTE           N01     Bn0
        BYTE           N01     Cn1   v100
        BYTE   W06
        BYTE                   Fs1
        BYTE   W06
        BYTE                   En1   v090
        BYTE           N01     Dn1   v080
        BYTE   W06
        BYTE                   Fs2   v100
        BYTE           N01     Fs1
        BYTE   W06
        BYTE                   Bn0   v080
        BYTE           N01     Cn1   v100
        BYTE           N01     Fs2
        BYTE           N01     Fs1   v070
        BYTE   W06
        BYTE                   As1   v080
        BYTE           N01     En2   v100
        BYTE           N01     En1   v090
        BYTE           N01     Dn1   v100
        BYTE           N01     Fs2
        BYTE   W03
        BYTE                   En1   v090
        BYTE   W03
        BYTE                   En1
        BYTE   W03
        BYTE                   En1
        BYTE   W03
        BYTE                   En1
        BYTE   W06
        BYTE                   Cn1   v100
        BYTE           N01     Bn0   v080
        BYTE   W06
// 020   ----------------------------------------
        BYTE                   Bn0
        BYTE           N01     Fs1   v100
        BYTE           N01     Cn1
        BYTE           N01     Gn2
        BYTE   W06
        BYTE                   Fs1
        BYTE   W06
        BYTE                   As1
        BYTE   W06
        BYTE                   Cn1
        BYTE           N01     Bn0   v080
        BYTE   W06
        BYTE                   Fs1   v100
        BYTE           N01     En1   v090
        BYTE           N01     Dn1   v100
        BYTE   W06
        BYTE                   Fs1
        BYTE   W06
        BYTE                   Dn1   v080
        BYTE           N01     As1   v100
        BYTE   W06
        BYTE                   Cn1
        BYTE           N01     Bn0   v080
        BYTE   W06
        BYTE                   Fs1   v100
        BYTE   W06
        BYTE                   Fs1
        BYTE           N01     En1   v080
        BYTE   W06
        BYTE                   As1   v100
        BYTE           N01     Cn1
        BYTE           N01     Bn0   v080
        BYTE   W12
        BYTE                   Fs1   v100
        BYTE           N01     Dn1
        BYTE           N01     En1   v090
        BYTE   W06
        BYTE                   Fs1   v100
        BYTE   W06
        BYTE                   As1
        BYTE           N01     Cn1
        BYTE           N01     Bn0   v080
        BYTE   W06
        BYTE                   Dn1   v090
        BYTE   W06
// 021   ----------------------------------------
DrunkAsIlikeTheDUBSpeedArt0_7_21:
        BYTE           N01     Bn0   v080
        BYTE           N01     Fs1   v100
        BYTE           N01     Cn1
        BYTE   W06
        BYTE                   Fs1
        BYTE   W06
        BYTE                   As1
        BYTE   W06
        BYTE                   Cn1
        BYTE           N01     Bn0   v080
        BYTE   W06
        BYTE                   Fs1   v100
        BYTE           N01     En1   v090
        BYTE           N01     Dn1   v100
        BYTE   W06
        BYTE                   Fs1
        BYTE   W06
        BYTE                   Dn1   v080
        BYTE           N01     As1   v100
        BYTE   W06
        BYTE                   Cn1
        BYTE           N01     Bn0   v080
        BYTE   W06
        BYTE                   Fs1   v100
        BYTE   W06
        BYTE                   Fs1
        BYTE           N01     En1   v080
        BYTE   W06
        BYTE                   As1   v100
        BYTE           N01     Cn1
        BYTE           N01     Bn0   v080
        BYTE   W12
        BYTE                   Fs1   v100
        BYTE           N01     Dn1
        BYTE           N01     En1   v090
        BYTE   W06
        BYTE                   Fs1   v100
        BYTE   W06
        BYTE                   As1
        BYTE           N01     Cn1
        BYTE           N01     Bn0   v080
        BYTE   W06
        BYTE                   Dn1   v090
        BYTE   W06
        BYTE   PEND
// 022   ----------------------------------------
DrunkAsIlikeTheDUBSpeedArt0_7_22:
        BYTE           N01     Fs1   v100
        BYTE           N01     Cn1
        BYTE           N01     Bn0   v080
        BYTE   W06
        BYTE                   Fs1   v100
        BYTE   W06
        BYTE                   As1
        BYTE   W06
        BYTE                   Cn1
        BYTE           N01     Bn0   v080
        BYTE   W06
        BYTE                   Fs1   v100
        BYTE           N01     En1   v090
        BYTE           N01     Dn1   v100
        BYTE   W06
        BYTE                   Fs1
        BYTE   W06
        BYTE                   Dn1   v080
        BYTE           N01     As1   v100
        BYTE   W06
        BYTE                   Cn1
        BYTE           N01     Bn0   v080
        BYTE   W06
        BYTE                   Fs1   v100
        BYTE   W06
        BYTE                   Fs1
        BYTE           N01     En1   v080
        BYTE   W06
        BYTE                   As1   v100
        BYTE           N01     Cn1
        BYTE           N01     Bn0   v080
        BYTE   W12
        BYTE                   Fs1   v100
        BYTE           N01     Dn1
        BYTE           N01     En1   v090
        BYTE   W06
        BYTE                   Fs1   v100
        BYTE   W06
        BYTE                   As1
        BYTE           N01     Cn1
        BYTE           N01     Bn0   v080
        BYTE   W06
        BYTE                   Dn1   v090
        BYTE   W06
        BYTE   PEND
// 023   ----------------------------------------
        BYTE                   Bn0   v080
        BYTE           N01     Fs1   v100
        BYTE           N01     Cn1
        BYTE   W06
        BYTE                   Fs1
        BYTE   W06
        BYTE                   As1
        BYTE   W06
        BYTE                   Cn1
        BYTE           N01     Bn0   v080
        BYTE   W06
        BYTE                   Fs1   v100
        BYTE           N01     En1   v090
        BYTE           N01     Dn1   v100
        BYTE   W06
        BYTE                   Fs1
        BYTE   W06
        BYTE                   Dn1   v080
        BYTE           N01     As1   v100
        BYTE   W06
        BYTE                   Cn1
        BYTE           N01     Bn0   v080
        BYTE   W06
        BYTE                   Fs1   v100
        BYTE   W06
        BYTE                   Fs1
        BYTE           N01     En1   v080
        BYTE   W06
        BYTE                   As1   v100
        BYTE           N01     Cn1
        BYTE           N01     Bn0   v080
        BYTE   W12
        BYTE                   Fs1   v100
        BYTE           N01     Dn1
        BYTE           N01     En1   v090
        BYTE   W06
        BYTE                   Fs1   v100
        BYTE           N01     Dn1   v070
        BYTE   W06
        BYTE                   As1   v100
        BYTE           N01     Cn1
        BYTE           N01     Bn0   v080
        BYTE   W06
        BYTE                   Dn1   v090
        BYTE   W06
// 024   ----------------------------------------
        BYTE   PATT
         POIN2  DrunkAsIlikeTheDUBSpeedArt0_7_22
// 025   ----------------------------------------
        BYTE   PATT
         POIN2  DrunkAsIlikeTheDUBSpeedArt0_7_21
// 026   ----------------------------------------
        BYTE   PATT
         POIN2  DrunkAsIlikeTheDUBSpeedArt0_7_22
// 027   ----------------------------------------
        BYTE           N01     Bn0   v080
        BYTE           N01     Fs1   v100
        BYTE           N01     Cn1
        BYTE   W06
        BYTE                   Fs1
        BYTE   W06
        BYTE                   As1
        BYTE   W06
        BYTE                   Cn1
        BYTE           N01     Bn0   v080
        BYTE   W06
        BYTE                   Fs1   v100
        BYTE           N01     En1   v090
        BYTE           N01     Dn1   v100
        BYTE   W06
        BYTE                   Fs1
        BYTE   W06
        BYTE                   Dn1   v080
        BYTE           N01     As1   v100
        BYTE   W06
        BYTE                   Cn1
        BYTE           N01     Bn0   v080
        BYTE   W06
        BYTE                   Fs1   v100
        BYTE   W06
        BYTE                   En1   v090
        BYTE           N01     Fs1   v100
        BYTE           N01     Fs2
        BYTE   W06
        BYTE                   As1
        BYTE           N01     Fs2
        BYTE   W06
        BYTE                   Cn1
        BYTE           N01     Bn0   v080
        BYTE   W06
        BYTE                   Fs2   v100
        BYTE           N01     En2
        BYTE           N01     En1   v090
        BYTE           N01     Fs1   v100
        BYTE           N01     Dn1
        BYTE   W03
        BYTE                   En1   v090
        BYTE   W01
        BYTE                   Fs2   v100
        BYTE   W02
        BYTE                   Fs1
        BYTE           N01     En1   v090
        BYTE   W02
        BYTE                   Fs2   v100
        BYTE   W01
        BYTE                   En1   v090
        BYTE   W03
        BYTE                   En1
        BYTE           N01     As1   v100
        BYTE           N01     Fs2
        BYTE   W06
        BYTE                   Bn0   v080
        BYTE           N01     Cn1   v100
        BYTE   W06
// 028   ----------------------------------------
        BYTE                   Fs1
        BYTE           N01     Cn1
        BYTE           N01     Gn2
        BYTE           N01     Bn0   v080
        BYTE   GoTo
         POIN2  DrunkAsIlikeTheDUBSpeedArt0_7_LOOP
        BYTE   W12
        BYTE                   Fs2   v100
        BYTE           N01     Fs1
        BYTE   W06
        BYTE                   Fs1   v070
        BYTE           N01     Fs2   v100
        BYTE           N01     Cn1
        BYTE           N01     Bn0   v080
        BYTE   W06
        BYTE                   Fs1   v100
        BYTE           N01     Dn1
        BYTE           N01     En1   v090
        BYTE   W12
        BYTE                   Dn1   v080
        BYTE           N01     Fs1   v100
        BYTE           N01     Fs2
        BYTE   W06
        BYTE                   Bn0   v080
        BYTE           N01     Fs1
        BYTE           N01     Cn1   v100
        BYTE   W06
        BYTE                   Fs1
        BYTE   W06
        BYTE                   En1   v090
        BYTE           N01     Dn1   v100
        BYTE   W06
        BYTE                   Bn0   v080
        BYTE           N01     Fs2   v100
        BYTE           N01     Cn1
        BYTE           N01     Fs1
        BYTE   W06
        BYTE                   Fs1   v070
        BYTE           N01     Fs2   v100
        BYTE   W06
        BYTE                   Dn1
        BYTE           N01     Fs1
        BYTE           N01     En1   v090
        BYTE   W12
        BYTE                   Bn0   v080
        BYTE           N01     Fs1   v100
        BYTE           N01     Cn1
        BYTE           N01     Fs2
        BYTE   W06
        BYTE                   Fs1   v080
        BYTE           N01     Dn1   v090
        BYTE   W06
// 029   ----------------------------------------
        BYTE                   Fs1   v100
        BYTE           N01     Bn0   v080
        BYTE           N01     Cn1   v100
        BYTE   W12
        BYTE                   Fs1
        BYTE           N01     Fs2
        BYTE   W06
        BYTE                   Fs2
        BYTE           N01     Fs1   v070
        BYTE           N01     Cn1   v100
        BYTE           N01     Bn0   v080
        BYTE   W06
        BYTE                   Fs1   v100
        BYTE           N01     Dn1
        BYTE           N01     En1   v090
        BYTE   W12
        BYTE                   Fs1   v100
        BYTE           N01     Fs2
        BYTE           N01     Dn1   v080
        BYTE   W06
        BYTE                   Bn0
        BYTE           N01     Fs1
        BYTE           N01     Cn1   v100
        BYTE   W06
        BYTE                   Fs1
        BYTE   W06
        BYTE                   En1   v090
        BYTE           N01     Dn1   v100
        BYTE   W06
        BYTE                   Bn0   v080
        BYTE           N01     Cn1   v100
        BYTE           N01     Fs1
        BYTE           N01     Fs2
        BYTE   W06
        BYTE                   Fs1   v070
        BYTE           N01     Fs2   v100
        BYTE   W06
        BYTE                   Fs1
        BYTE           N01     En1   v090
        BYTE           N01     Dn1   v100
        BYTE   W12
        BYTE                   Bn0   v080
        BYTE           N01     Cn1   v100
        BYTE           N01     Fs1
        BYTE           N01     Fs2
        BYTE   W06
        BYTE                   Fs1   v080
        BYTE           N01     Dn1   v090
        BYTE   W06
// 030   ----------------------------------------
        BYTE                   Fs1   v100
        BYTE           N01     Cn1
        BYTE           N01     Bn0   v080
        BYTE   W12
        BYTE                   Fs1   v100
        BYTE           N01     Fs2
        BYTE   W06
        BYTE                   Cn1
        BYTE           N01     Fs2
        BYTE           N01     Bn0   v080
        BYTE           N01     Fs1   v070
        BYTE   W06
        BYTE                   Fs1   v100
        BYTE           N01     Dn1
        BYTE           N01     En1   v090
        BYTE   W12
        BYTE                   Fs1   v100
        BYTE           N01     Dn1   v080
        BYTE           N01     Fs2   v100
        BYTE   W06
        BYTE                   Bn0   v080
        BYTE           N01     Fs1
        BYTE           N01     Cn1   v100
        BYTE   W06
        BYTE                   Fs1
        BYTE   W06
        BYTE                   En1   v090
        BYTE           N01     Dn1   v100
        BYTE   W06
        BYTE                   Cn1
        BYTE           N01     Fs2
        BYTE           N01     Fs1
        BYTE           N01     Bn0   v080
        BYTE   W06
        BYTE                   Fs1   v070
        BYTE           N01     Fs2   v100
        BYTE   W06
        BYTE                   Dn1
        BYTE           N01     Fs1
        BYTE           N01     En1   v090
        BYTE   W12
        BYTE                   Fs1   v100
        BYTE           N01     Fs2
        BYTE           N01     Cn1
        BYTE           N01     Bn0   v080
        BYTE   W06
        BYTE                   Fs1
        BYTE           N01     Dn1   v090
        BYTE   W06
// 031   ----------------------------------------
        BYTE                   Fs1   v100
        BYTE           N01     Bn0   v080
        BYTE           N01     Cn1   v100
        BYTE   W12
        BYTE                   Fs1
        BYTE           N01     Fs2
        BYTE   W06
        BYTE                   Fs1   v070
        BYTE           N01     Fs2   v100
        BYTE           N01     Cn1
        BYTE           N01     Bn0   v080
        BYTE   W06
        BYTE                   En1   v090
        BYTE           N01     Fs1   v100
        BYTE           N01     Dn1
        BYTE   W12
        BYTE                   Fs1
        BYTE           N01     Dn1   v080
        BYTE           N01     Fs2   v100
        BYTE   W06
        BYTE                   Dn1
        BYTE           N01     Fs1   v080
        BYTE           N01     En1   v090
        BYTE   W06
        BYTE                   Fs1   v100
        BYTE           N01     Bn0   v080
        BYTE           N01     Cn1   v100
        BYTE   W06
        BYTE                   Dn1
        BYTE           N01     En1   v070
        BYTE   W06
        BYTE                   Bn0   v080
        BYTE           N01     Fs2   v100
        BYTE           N01     Cn1
        BYTE           N01     Fs1
        BYTE   W06
        BYTE                   Fs1   v070
        BYTE           N01     Fs2   v100
        BYTE           N01     Dn1
        BYTE           N01     En1   v070
        BYTE   W06
        BYTE                   En2   v100
        BYTE           N01     Dn1
        BYTE           N01     Fs1
        BYTE           N01     En1   v090
        BYTE   W12
        BYTE                   Dn1   v060
        BYTE           N01     Fs2   v100
        BYTE           N01     Fs1
        BYTE   W06
        BYTE                   Fs1   v080
        BYTE           N01     Dn1   v060
        BYTE           N01     Cn1   v100
        BYTE           N01     Bn0   v080
        BYTE   W06
// 032   ----------------------------------------
        BYTE   PATT
         POIN2  DrunkAsIlikeTheDUBSpeedArt0_7_12
// 033   ----------------------------------------
        BYTE   PATT
         POIN2  DrunkAsIlikeTheDUBSpeedArt0_7_13
// 034   ----------------------------------------
        BYTE   PATT
         POIN2  DrunkAsIlikeTheDUBSpeedArt0_7_14
// 035   ----------------------------------------
        BYTE   PATT
         POIN2  DrunkAsIlikeTheDUBSpeedArt0_7_15
// 036   ----------------------------------------
        BYTE   PATT
         POIN2  DrunkAsIlikeTheDUBSpeedArt0_7_16
// 037   ----------------------------------------
        BYTE   PATT
         POIN2  DrunkAsIlikeTheDUBSpeedArt0_7_17
// 038   ----------------------------------------
        BYTE   PATT
         POIN2  DrunkAsIlikeTheDUBSpeedArt0_7_18
// 039   ----------------------------------------
        BYTE           N01     Cn1   v100
        BYTE           N01     Fs1
        BYTE           N01     Bn0   v080
        BYTE   W06
        BYTE                   Dn1
        BYTE           N01     En1   v090
        BYTE   W06
        BYTE                   Fs2   v100
        BYTE           N01     Fs1
        BYTE   W06
        BYTE                   Fs2
        BYTE           N01     Fs1   v070
        BYTE           N01     Bn0   v080
        BYTE           N01     Cn1   v100
        BYTE   W06
        BYTE                   Dn1
        BYTE           N01     Fs1
        BYTE           N01     En1   v090
        BYTE   W12
        BYTE                   Fs2   v100
        BYTE           N01     Fs1
        BYTE   W06
        BYTE                   Fs1   v080
        BYTE           N01     Bn0
        BYTE           N01     Cn1   v100
        BYTE   W06
        BYTE                   Fs1
        BYTE   W06
        BYTE                   En1   v090
        BYTE           N01     Dn1   v080
        BYTE   W06
        BYTE                   Fs2   v100
        BYTE           N01     Fs1
        BYTE   W06
        BYTE                   Bn0   v080
        BYTE           N01     Cn1   v100
        BYTE           N01     Fs2
        BYTE           N01     Fs1   v070
        BYTE   W06
        BYTE                   Fs1   v100
        BYTE           N01     En2
        BYTE           N01     En1   v090
        BYTE           N01     Dn1   v100
        BYTE   W04
        BYTE                   En1   v070
        BYTE   W04
        BYTE                   En1   v060
        BYTE   W04
        BYTE                   En1   v050
        BYTE           N01     Fs2   v100
        BYTE           N01     Fs1
        BYTE   W06
        BYTE                   Bn0   v080
        BYTE           N01     Cn1   v100
        BYTE           N01     Fs1   v080
        BYTE   W06
// 040   ----------------------------------------
        BYTE                   Cn1   v100
        BYTE           N01     Bn0   v080
        BYTE           N01     Fs1   v100
        BYTE           N01     Gn2
        BYTE   W12
        BYTE                   Fs1
        BYTE           N01     Fs2
        BYTE   W06
        BYTE                   Fs1   v070
        BYTE           N01     Cn1   v100
        BYTE           N01     Bn0   v080
        BYTE           N01     Fs2   v100
        BYTE   W06
        BYTE                   Fs1
        BYTE           N01     Dn1
        BYTE           N01     En1   v090
        BYTE   W12
        BYTE                   Fs1   v100
        BYTE           N01     Fs2
        BYTE           N01     Dn1   v080
        BYTE   W06
        BYTE                   Bn0
        BYTE           N01     Fs1
        BYTE           N01     Cn1   v100
        BYTE   W06
        BYTE                   Fs1
        BYTE   W06
        BYTE                   En1   v090
        BYTE           N01     Dn1   v100
        BYTE   W06
        BYTE                   Bn0   v080
        BYTE           N01     Cn1   v100
        BYTE           N01     Fs1
        BYTE           N01     Fs2
        BYTE   W06
        BYTE                   Fs1   v070
        BYTE           N01     Fs2   v100
        BYTE   W06
        BYTE                   Dn1
        BYTE           N01     Fs1
        BYTE           N01     En1   v090
        BYTE   W12
        BYTE                   Fs1   v100
        BYTE           N01     Cn1
        BYTE           N01     Bn0   v080
        BYTE           N01     Fs2   v100
        BYTE   W06
        BYTE                   Fs1   v080
        BYTE           N01     Dn1   v090
        BYTE   W06
// 041   ----------------------------------------
        BYTE                   Fs1   v100
        BYTE           N01     Bn0   v080
        BYTE           N01     Cn1   v100
        BYTE   W12
        BYTE                   Fs1
        BYTE           N01     Fs2
        BYTE   W06
        BYTE                   Fs1   v070
        BYTE           N01     Cn1   v100
        BYTE           N01     Bn0   v080
        BYTE           N01     Fs2   v100
        BYTE   W06
        BYTE                   Fs1
        BYTE           N01     Dn1
        BYTE           N01     En1   v090
        BYTE   W12
        BYTE                   Dn1   v080
        BYTE           N01     Fs2   v100
        BYTE           N01     Fs1
        BYTE   W06
        BYTE                   Bn0   v080
        BYTE           N01     Fs1
        BYTE           N01     Cn1   v100
        BYTE   W06
        BYTE                   Fs1
        BYTE   W06
        BYTE                   En1   v090
        BYTE           N01     Dn1   v100
        BYTE   W06
        BYTE                   Cn1
        BYTE           N01     Fs1
        BYTE           N01     Bn0   v080
        BYTE           N01     Fs2   v100
        BYTE   W06
        BYTE                   Fs1   v070
        BYTE           N01     Fs2   v100
        BYTE   W06
        BYTE                   Fs1
        BYTE           N01     En1   v090
        BYTE           N01     Dn1   v100
        BYTE   W12
        BYTE                   Cn1
        BYTE           N01     Fs1
        BYTE           N01     Bn0   v080
        BYTE           N01     Fs2   v100
        BYTE   W06
        BYTE                   Fs1   v080
        BYTE           N01     Dn1   v090
        BYTE   W06
// 042   ----------------------------------------
        BYTE                   Fs1   v100
        BYTE           N01     Cn1
        BYTE           N01     Bn0   v080
        BYTE   W12
        BYTE                   Fs1   v100
        BYTE           N01     Fs2
        BYTE   W06
        BYTE                   Cn1
        BYTE           N01     Fs2
        BYTE           N01     Bn0   v080
        BYTE           N01     Fs1   v070
        BYTE   W06
        BYTE                   Fs1   v100
        BYTE           N01     Dn1
        BYTE           N01     En1   v090
        BYTE   W12
        BYTE                   Fs2   v100
        BYTE           N01     Fs1
        BYTE           N01     Dn1   v080
        BYTE   W06
        BYTE                   Bn0
        BYTE           N01     Fs1
        BYTE           N01     Cn1   v100
        BYTE   W06
        BYTE                   Fs1
        BYTE   W06
        BYTE                   En1   v090
        BYTE           N01     Dn1   v100
        BYTE   W06
        BYTE                   Cn1
        BYTE           N01     Fs2
        BYTE           N01     Fs1
        BYTE           N01     Bn0   v080
        BYTE   W06
        BYTE                   Fs1   v070
        BYTE           N01     Fs2   v100
        BYTE   W06
        BYTE                   Dn1
        BYTE           N01     Fs1
        BYTE           N01     En1   v090
        BYTE   W12
        BYTE                   Fs1   v100
        BYTE           N01     Fs2
        BYTE           N01     Cn1
        BYTE           N01     Bn0   v080
        BYTE   W06
        BYTE                   Fs1
        BYTE           N01     Dn1   v090
        BYTE   W06
// 043   ----------------------------------------
        BYTE                   Fs1   v100
        BYTE           N01     Bn0   v080
        BYTE           N01     Cn1   v100
        BYTE   W12
        BYTE                   Fs1
        BYTE           N01     Fs2
        BYTE   W06
        BYTE                   Fs1   v070
        BYTE           N01     Fs2   v100
        BYTE           N01     Cn1
        BYTE           N01     Bn0   v080
        BYTE   W06
        BYTE                   Fs1   v100
        BYTE           N01     Dn1
        BYTE           N01     En1   v090
        BYTE   W12
        BYTE                   Fs2   v100
        BYTE           N01     Dn1   v080
        BYTE           N01     Fs1   v100
        BYTE   W06
        BYTE                   Bn0   v080
        BYTE           N01     Fs1
        BYTE           N01     Cn1   v100
        BYTE   W06
        BYTE                   Fs1
        BYTE   W06
        BYTE                   En1   v090
        BYTE           N01     Dn1   v100
        BYTE   W06
        BYTE                   Cn1
        BYTE           N01     Fs2
        BYTE           N01     Fs1
        BYTE           N01     Bn0   v080
        BYTE   W06
        BYTE                   Fs1   v070
        BYTE           N01     Fs2   v100
        BYTE   W06
        BYTE                   Fs1
        BYTE           N01     En1   v090
        BYTE           N01     Dn1   v100
        BYTE   W12
        BYTE                   Cn1
        BYTE           N01     Fs2
        BYTE           N01     Fs1
        BYTE           N01     Bn0   v080
        BYTE   W06
        BYTE                   Fs1
        BYTE           N01     Dn1   v090
        BYTE   W06
// 044   ----------------------------------------
        BYTE                   Fs1   v100
        BYTE           N01     Cn1
        BYTE           N01     Bn0   v080
        BYTE   W12
        BYTE                   Fs1   v100
        BYTE           N01     Fs2
        BYTE   W06
        BYTE                   Cn1
        BYTE           N01     Bn0   v080
        BYTE           N01     Fs1   v070
        BYTE           N01     Fs2   v100
        BYTE   W06
        BYTE                   Fs1
        BYTE           N01     Dn1
        BYTE           N01     En1   v090
        BYTE   W12
        BYTE                   Fs1   v100
        BYTE           N01     Dn1   v080
        BYTE           N01     Fs2   v100
        BYTE   W06
        BYTE                   Bn0   v080
        BYTE           N01     Fs1
        BYTE           N01     Cn1   v100
        BYTE   W06
        BYTE                   Fs1
        BYTE   W06
        BYTE                   En1   v090
        BYTE           N01     Dn1   v100
        BYTE   W06
        BYTE                   Cn1
        BYTE           N01     Fs1
        BYTE           N01     Bn0   v080
        BYTE           N01     Fs2   v100
        BYTE   W06
        BYTE                   Fs1   v070
        BYTE           N01     Fs2   v100
        BYTE   W06
        BYTE                   Dn1
        BYTE           N01     Fs1
        BYTE           N01     En1   v090
        BYTE   W12
        BYTE                   Fs1   v100
        BYTE           N01     Cn1
        BYTE           N01     Bn0   v080
        BYTE           N01     Fs2   v100
        BYTE   W06
        BYTE                   Fs1   v080
        BYTE           N01     Dn1   v090
        BYTE   W06
// 045   ----------------------------------------
        BYTE                   Fs1   v100
        BYTE           N01     Bn0   v080
        BYTE           N01     Cn1   v100
        BYTE   W12
        BYTE                   Fs1
        BYTE           N01     Fs2
        BYTE   W06
        BYTE                   Fs1   v070
        BYTE           N01     Cn1   v100
        BYTE           N01     Bn0   v080
        BYTE           N01     Fs2   v100
        BYTE   W06
        BYTE                   Fs1
        BYTE           N01     Dn1
        BYTE           N01     En1   v090
        BYTE   W12
        BYTE                   Dn1   v080
        BYTE           N01     Fs1   v100
        BYTE           N01     Fs2
        BYTE   W06
        BYTE                   Bn0   v080
        BYTE           N01     Fs1
        BYTE           N01     Cn1   v100
        BYTE   W06
        BYTE                   Fs1
        BYTE   W06
        BYTE                   En1   v090
        BYTE           N01     Dn1   v100
        BYTE   W06
        BYTE                   Cn1
        BYTE           N01     Fs1
        BYTE           N01     Bn0   v080
        BYTE           N01     Fs2   v100
        BYTE   W06
        BYTE                   Fs1   v070
        BYTE           N01     Fs2   v100
        BYTE   W06
        BYTE                   Fs1
        BYTE           N01     En1   v090
        BYTE           N01     Dn1   v100
        BYTE   W12
        BYTE                   Cn1
        BYTE           N01     Fs1
        BYTE           N01     Bn0   v080
        BYTE           N01     Fs2   v100
        BYTE   W06
        BYTE                   Fs1   v080
        BYTE           N01     Dn1   v090
        BYTE   W06
// 046   ----------------------------------------
        BYTE                   Fs1   v100
        BYTE           N01     Cn1
        BYTE           N01     Bn0   v080
        BYTE   W12
        BYTE                   Fs1   v100
        BYTE           N01     Fs2
        BYTE   W06
        BYTE                   Fs1   v070
        BYTE           N01     Cn1   v100
        BYTE           N01     Bn0   v080
        BYTE           N01     Fs2   v100
        BYTE   W06
        BYTE                   En1   v090
        BYTE           N01     Fs1   v100
        BYTE           N01     Dn1
        BYTE   W12
        BYTE                   Fs2
        BYTE           N01     Dn1   v080
        BYTE           N01     Fs1   v100
        BYTE   W06
        BYTE                   Bn0   v080
        BYTE           N01     Fs1
        BYTE           N01     Cn1   v100
        BYTE   W06
        BYTE                   Fs1
        BYTE   W06
        BYTE                   En1   v090
        BYTE           N01     Dn1   v100
        BYTE   W06
        BYTE                   Fs1
        BYTE           N01     Bn0   v080
        BYTE           N01     Cn1   v100
        BYTE           N01     Fs2
        BYTE   W06
        BYTE                   Fs1   v070
        BYTE           N01     Fs2   v100
        BYTE   W06
        BYTE                   Dn1
        BYTE           N01     Fs1
        BYTE           N01     En1   v090
        BYTE   W12
        BYTE                   Cn1   v100
        BYTE           N01     Bn0   v080
        BYTE           N01     Fs1   v100
        BYTE           N01     Fs2
        BYTE   W06
        BYTE                   Fs1   v080
        BYTE           N01     Dn1   v090
        BYTE   W06
// 047   ----------------------------------------
        BYTE                   Fs1   v100
        BYTE           N01     Bn0   v080
        BYTE           N01     Cn1   v100
        BYTE   W06
        BYTE                   En1   v090
        BYTE           N01     Dn1   v080
        BYTE   W06
        BYTE                   Fs1   v100
        BYTE           N01     Fs2
        BYTE   W06
        BYTE                   Fs1   v070
        BYTE           N01     Bn0   v080
        BYTE           N01     Cn1   v100
        BYTE           N01     Fs2
        BYTE   W06
        BYTE                   Fs1
        BYTE           N01     En1   v090
        BYTE           N01     Dn1   v100
        BYTE   W12
        BYTE                   Fs1
        BYTE           N01     Fs2
        BYTE   W06
        BYTE                   Bn0   v080
        BYTE           N01     Cn1   v100
        BYTE           N01     Fs1   v080
        BYTE   W06
        BYTE                   Fs1   v100
        BYTE   W06
        BYTE                   Dn1   v080
        BYTE           N01     En1   v090
        BYTE   W06
        BYTE                   Fs1   v100
        BYTE           N01     Fs2
        BYTE   W06
        BYTE                   Cn1
        BYTE           N01     Fs2
        BYTE           N01     Fs1   v070
        BYTE           N01     Bn0   v080
        BYTE   W06
        BYTE                   En2   v100
        BYTE           N01     En1   v090
        BYTE           N01     Dn1   v100
        BYTE           N01     Fs2
        BYTE           N01     As1   v080
        BYTE   W03
        BYTE                   En1   v090
        BYTE   W03
        BYTE                   En1
        BYTE   W03
        BYTE                   En1
        BYTE   W03
        BYTE                   En1
        BYTE   W06
        BYTE                   Bn0   v080
        BYTE           N01     Cn1   v100
        BYTE   W06
// 048   ----------------------------------------
        BYTE                   Fs1
        BYTE           N01     Cn1
        BYTE           N01     Gn2
        BYTE           N01     Bn0   v080
        BYTE   W06
        BYTE                   Fs1   v100
        BYTE   W06
        BYTE                   As1
        BYTE   W06
        BYTE                   Bn0   v080
        BYTE           N01     Cn1   v100
        BYTE   W06
        BYTE                   En1   v090
        BYTE           N01     Dn1   v100
        BYTE           N01     Fs1
        BYTE   W06
        BYTE                   Fs1
        BYTE   W06
        BYTE                   As1
        BYTE           N01     Dn1   v080
        BYTE   W06
        BYTE                   Bn0
        BYTE           N01     Cn1   v100
        BYTE   W06
        BYTE                   Fs1
        BYTE   W06
        BYTE                   En1   v080
        BYTE           N01     Fs1   v100
        BYTE   W06
        BYTE                   Cn1
        BYTE           N01     Bn0   v080
        BYTE           N01     As1   v100
        BYTE   W12
        BYTE                   Dn1
        BYTE           N01     En1   v090
        BYTE           N01     Fs1   v100
        BYTE   W06
        BYTE                   Fs1
        BYTE   W06
        BYTE                   Cn1
        BYTE           N01     Bn0   v080
        BYTE           N01     As1   v100
        BYTE   W06
        BYTE                   Dn1   v090
        BYTE   W06
// 049   ----------------------------------------
DrunkAsIlikeTheDUBSpeedArt0_7_49:
        BYTE           N01     Fs1   v100
        BYTE           N01     Cn1
        BYTE           N01     Bn0   v080
        BYTE   W06
        BYTE                   Fs1   v100
        BYTE   W06
        BYTE                   As1
        BYTE   W06
        BYTE                   Bn0   v080
        BYTE           N01     Cn1   v100
        BYTE   W06
        BYTE                   En1   v090
        BYTE           N01     Dn1   v100
        BYTE           N01     Fs1
        BYTE   W06
        BYTE                   Fs1
        BYTE   W06
        BYTE                   As1
        BYTE           N01     Dn1   v080
        BYTE   W06
        BYTE                   Bn0
        BYTE           N01     Cn1   v100
        BYTE   W06
        BYTE                   Fs1
        BYTE   W06
        BYTE                   En1   v080
        BYTE           N01     Fs1   v100
        BYTE   W06
        BYTE                   Cn1
        BYTE           N01     Bn0   v080
        BYTE           N01     As1   v100
        BYTE   W12
        BYTE                   Dn1
        BYTE           N01     En1   v090
        BYTE           N01     Fs1   v100
        BYTE   W06
        BYTE                   Fs1
        BYTE   W06
        BYTE                   Cn1
        BYTE           N01     Bn0   v080
        BYTE           N01     As1   v100
        BYTE   W06
        BYTE                   Dn1   v090
        BYTE   W06
        BYTE   PEND
// 050   ----------------------------------------
DrunkAsIlikeTheDUBSpeedArt0_7_50:
        BYTE           N01     Cn1   v100
        BYTE           N01     Bn0   v080
        BYTE           N01     Fs1   v100
        BYTE   W06
        BYTE                   Fs1
        BYTE   W06
        BYTE                   As1
        BYTE   W06
        BYTE                   Bn0   v080
        BYTE           N01     Cn1   v100
        BYTE   W06
        BYTE                   En1   v090
        BYTE           N01     Dn1   v100
        BYTE           N01     Fs1
        BYTE   W06
        BYTE                   Fs1
        BYTE   W06
        BYTE                   As1
        BYTE           N01     Dn1   v080
        BYTE   W06
        BYTE                   Bn0
        BYTE           N01     Cn1   v100
        BYTE   W06
        BYTE                   Fs1
        BYTE   W06
        BYTE                   En1   v080
        BYTE           N01     Fs1   v100
        BYTE   W06
        BYTE                   Cn1
        BYTE           N01     Bn0   v080
        BYTE           N01     As1   v100
        BYTE   W12
        BYTE                   Dn1
        BYTE           N01     En1   v090
        BYTE           N01     Fs1   v100
        BYTE   W06
        BYTE                   Fs1
        BYTE   W06
        BYTE                   Cn1
        BYTE           N01     Bn0   v080
        BYTE           N01     As1   v100
        BYTE   W06
        BYTE                   Dn1   v090
        BYTE   W06
        BYTE   PEND
// 051   ----------------------------------------
        BYTE                   Fs1   v100
        BYTE           N01     Cn1
        BYTE           N01     Bn0   v080
        BYTE   W06
        BYTE                   Fs1   v100
        BYTE   W06
        BYTE                   As1
        BYTE   W06
        BYTE                   Bn0   v080
        BYTE           N01     Cn1   v100
        BYTE   W06
        BYTE                   En1   v090
        BYTE           N01     Dn1   v100
        BYTE           N01     Fs1
        BYTE   W06
        BYTE                   Fs1
        BYTE   W06
        BYTE                   As1
        BYTE           N01     Dn1   v080
        BYTE   W06
        BYTE                   Bn0
        BYTE           N01     Cn1   v100
        BYTE   W06
        BYTE                   Fs1
        BYTE   W06
        BYTE                   En1   v080
        BYTE           N01     Fs1   v100
        BYTE   W06
        BYTE                   Cn1
        BYTE           N01     Bn0   v080
        BYTE           N01     As1   v100
        BYTE   W12
        BYTE                   Dn1
        BYTE           N01     En1   v090
        BYTE           N01     Fs1   v100
        BYTE   W06
        BYTE                   Dn1   v070
        BYTE           N01     Fs1   v100
        BYTE   W06
        BYTE                   Cn1
        BYTE           N01     Bn0   v080
        BYTE           N01     As1   v100
        BYTE   W06
        BYTE                   Dn1   v090
        BYTE   W06
// 052   ----------------------------------------
        BYTE   PATT
         POIN2  DrunkAsIlikeTheDUBSpeedArt0_7_50
// 053   ----------------------------------------
        BYTE   PATT
         POIN2  DrunkAsIlikeTheDUBSpeedArt0_7_49
// 054   ----------------------------------------
        BYTE   PATT
         POIN2  DrunkAsIlikeTheDUBSpeedArt0_7_50
// 055   ----------------------------------------
        BYTE           N01     Fs1   v100
        BYTE           N01     Cn1
        BYTE           N01     Bn0   v080
        BYTE   W06
        BYTE                   Fs1   v100
        BYTE   W06
        BYTE                   As1
        BYTE   W06
        BYTE                   Bn0   v080
        BYTE           N01     Cn1   v100
        BYTE   W06
        BYTE                   En1   v090
        BYTE           N01     Dn1   v100
        BYTE           N01     Fs1
        BYTE   W06
        BYTE                   Fs1
        BYTE   W06
        BYTE                   As1
        BYTE           N01     Dn1   v080
        BYTE   W06
        BYTE                   Bn0
        BYTE           N01     Cn1   v100
        BYTE   W06
        BYTE                   Fs1
        BYTE   W06
        BYTE                   Fs1
        BYTE           N01     Fs2
        BYTE           N01     En1   v090
        BYTE   W06
        BYTE                   Fs2   v100
        BYTE           N01     As1
        BYTE   W06
        BYTE                   Bn0   v080
        BYTE           N01     Cn1   v100
        BYTE   W06
        BYTE                   En2
        BYTE           N01     En1   v090
        BYTE           N01     Fs1   v100
        BYTE           N01     Dn1
        BYTE           N01     Fs2
        BYTE   W03
        BYTE                   En1   v090
        BYTE   W01
        BYTE                   Fs2   v100
        BYTE   W02
        BYTE                   En1   v090
        BYTE           N01     Fs1   v100
        BYTE   W02
        BYTE                   Fs2
        BYTE   W01
        BYTE                   En1   v090
        BYTE   W03
        BYTE                   As1   v100
        BYTE           N01     Fs2
        BYTE           N01     En1   v090
        BYTE   W06
        BYTE                   Cn1   v100
        BYTE           N01     Bn0   v080
        BYTE   W06
// 056   ----------------------------------------
        BYTE   FINE


//********************** End of Song ***********************//

        ALIGN 4
DrunkAsIlikeTheDUBSpeedArt0:
        BYTE   8                       // Num Tracks
        BYTE   0                       // Unknown
        BYTE   DrunkAsIlikeTheDUBSpeedArt0_pri // Priority
        BYTE   DrunkAsIlikeTheDUBSpeedArt0_rev // Reverb

        POIN2   DrunkAsIlikeTheDUBSpeedArt0_grp

        POIN2   DrunkAsIlikeTheDUBSpeedArt0_0
        POIN2   DrunkAsIlikeTheDUBSpeedArt0_1
        POIN2   DrunkAsIlikeTheDUBSpeedArt0_2
        POIN2   DrunkAsIlikeTheDUBSpeedArt0_3
        POIN2   DrunkAsIlikeTheDUBSpeedArt0_4
        POIN2   DrunkAsIlikeTheDUBSpeedArt0_5
        POIN2   DrunkAsIlikeTheDUBSpeedArt0_6
        POIN2   DrunkAsIlikeTheDUBSpeedArt0_7

        
