//Event file generated from Sappy .s format.
        #include "MPlayDef.event"

        #define    EachJustice_grp  voicegroup000
        #define    EachJustice_pri  0
        #define    EachJustice_rev  0
        #define    EachJustice_key  0

        // .rodata
        // EachJustice
        ALIGN 4

//****************** Track 0 (Midi-Chn.0) ******************//

EachJustice_0:
        BYTE   KEYSH   EachJustice_key+0
// 000   ----------------------------------------
        BYTE   TEMPO   180/2
EachJustice_0_LOOP:
        BYTE           VOICE   122
        BYTE           VOL     23
        BYTE           N02     Cn1   v118
        BYTE           N92     Cs2   v127   gtp3
        BYTE   W24
        BYTE           N05     An0   v092
        BYTE   W48
        BYTE                   An0
        BYTE   W24
// 001   ----------------------------------------
EachJustice_0_1:
        BYTE   W24
        BYTE           N05     An0   v092
        BYTE   W72
        BYTE   PEND
// 002   ----------------------------------------
EachJustice_0_2:
        BYTE           N02     Cn1   v118
        BYTE           N92     Cs2   v127   gtp3
        BYTE   W24
        BYTE           N05     An0   v092
        BYTE   W48
        BYTE                   An0
        BYTE   W24
        BYTE   PEND
// 003   ----------------------------------------
        BYTE   W96
// 004   ----------------------------------------
        BYTE   PATT
         POIN2  EachJustice_0_2
// 005   ----------------------------------------
        BYTE   PATT
         POIN2  EachJustice_0_1
// 006   ----------------------------------------
        BYTE           N02     Cn1   v118
        BYTE           N92     Cs2   v127   gtp3
        BYTE   W96
// 007   ----------------------------------------
        BYTE   W96
// 008   ----------------------------------------
        BYTE   W96
// 009   ----------------------------------------
        BYTE   W96
// 010   ----------------------------------------
EachJustice_0_10:
        BYTE           N02     Cn1   v118
        BYTE           N92     Cs2   v127   gtp3
        BYTE   W15
        BYTE           N03     Cn1   v091
        BYTE   W08
        BYTE                   Cn1   v099
        BYTE   W01
        BYTE           N02     An0   v125
        BYTE           N03     Dn1   v127
        BYTE   W07
        BYTE                   Cn1   v099
        BYTE   W09
        BYTE           N02     Cn1   v098
        BYTE   W07
        BYTE           N03     Cn1   v099
        BYTE   W01
        BYTE           N07     An0   v122
        BYTE   W15
        BYTE           N03     Cn1   v106
        BYTE   W09
        BYTE           N02     Cn1   v103
        BYTE           N02     An0   v125
        BYTE           N02     Dn1   v127
        BYTE   W07
        BYTE           N03     Cn1   v094
        BYTE   W08
        BYTE                   Cn1   v103
        BYTE   W08
        BYTE                   Cn1   v106
        BYTE   W01
        BYTE   PEND
// 011   ----------------------------------------
EachJustice_0_11:
        BYTE           N07     An0   v121
        BYTE   W15
        BYTE           N03     Cn1   v102
        BYTE   W08
        BYTE                   Cn1   v105
        BYTE   W01
        BYTE           N02     Dn1   v127
        BYTE           N07     An0   v125
        BYTE   W07
        BYTE           N03     Cn1   v094
        BYTE   W08
        BYTE                   Cn1   v105
        BYTE   W08
        BYTE                   Cn1   v113
        BYTE   W01
        BYTE           N07     An0   v121
        BYTE   W15
        BYTE           N03     Cn1   v101
        BYTE   W01
        BYTE           N07     An0   v115
        BYTE   W07
        BYTE           N03     Cn1   v105
        BYTE           N03     Dn1   v127
        BYTE   W08
        BYTE                   Cn1   v097
        BYTE           N08     An0   v119
        BYTE   W08
        BYTE           N03     Cn1   v102
        BYTE   W08
        BYTE                   Cn1   v114
        BYTE   W01
        BYTE   PEND
// 012   ----------------------------------------
EachJustice_0_12:
        BYTE           N07     An0   v122
        BYTE   W15
        BYTE           N03     Cn1   v100
        BYTE   W08
        BYTE                   Dn1   v127
        BYTE           N03     Cn1   v110
        BYTE   W01
        BYTE           N07     An0   v122
        BYTE   W07
        BYTE           N03     Cn1   v094
        BYTE   W08
        BYTE                   Cn1   v100
        BYTE   W08
        BYTE                   Cn1   v115
        BYTE   W01
        BYTE           N07     An0   v121
        BYTE   W15
        BYTE           N03     Cn1   v102
        BYTE   W08
        BYTE                   Cn1   v115
        BYTE           N03     Dn1   v127
        BYTE   W01
        BYTE           N07     An0   v125
        BYTE   W07
        BYTE           N03     Cn1   v100
        BYTE   W08
        BYTE                   Cn1   v097
        BYTE   W08
        BYTE                   Cn1   v112
        BYTE   W01
        BYTE   PEND
// 013   ----------------------------------------
EachJustice_0_13:
        BYTE           N07     An0   v121
        BYTE   W15
        BYTE           N03     Cn1   v100
        BYTE   W08
        BYTE                   Dn1   v127
        BYTE           N03     Cn1   v114
        BYTE   W01
        BYTE           N07     An0   v125
        BYTE   W08
        BYTE           N02     Cn1   v097
        BYTE   W07
        BYTE           N03     Cn1   v100
        BYTE   W08
        BYTE                   Cn1   v108
        BYTE   W01
        BYTE           N07     An0   v121
        BYTE   W15
        BYTE           N03     Cn1   v113
        BYTE   W01
        BYTE           N07     An0   v115
        BYTE   W07
        BYTE           N03     Dn1   v127
        BYTE   W01
        BYTE           N02     Cn1   v108
        BYTE   W07
        BYTE           N03     An0   v119
        BYTE           N03     Cn1   v112
        BYTE   W09
        BYTE           N02     Cn1   v116
        BYTE   W08
        BYTE   PEND
// 014   ----------------------------------------
        BYTE   PATT
         POIN2  EachJustice_0_10
// 015   ----------------------------------------
        BYTE   PATT
         POIN2  EachJustice_0_11
// 016   ----------------------------------------
        BYTE   PATT
         POIN2  EachJustice_0_12
// 017   ----------------------------------------
        BYTE   PATT
         POIN2  EachJustice_0_13
// 018   ----------------------------------------
EachJustice_0_18:
        BYTE           N02     Cn1   v118
        BYTE           N92     Cs2   v127   gtp3
        BYTE   W15
        BYTE           N03     Cn1   v091
        BYTE   W08
        BYTE                   Cn1   v099
        BYTE   W01
        BYTE           N02     An0   v120
        BYTE           N03     Dn1   v127
        BYTE   W07
        BYTE                   Cn1   v099
        BYTE   W09
        BYTE           N02     Cn1   v098
        BYTE   W07
        BYTE           N03     Cn1   v099
        BYTE   W01
        BYTE           N07     An0   v117
        BYTE   W07
        BYTE           N03     Cn1   v093
        BYTE   W08
        BYTE                   Cn1   v106
        BYTE   W09
        BYTE           N02     Cn1   v103
        BYTE           N02     An0   v120
        BYTE           N02     Dn1   v127
        BYTE   W07
        BYTE           N03     Cn1   v094
        BYTE   W08
        BYTE                   Cn1   v103
        BYTE   W08
        BYTE                   Cn1   v106
        BYTE   W01
        BYTE   PEND
// 019   ----------------------------------------
EachJustice_0_19:
        BYTE           N07     An0   v114
        BYTE   W15
        BYTE           N03     Cn1   v102
        BYTE   W08
        BYTE                   Cn1   v105
        BYTE   W01
        BYTE           N02     Dn1   v127
        BYTE           N07     An0   v114
        BYTE   W07
        BYTE           N03     Cn1   v094
        BYTE   W08
        BYTE                   Cn1   v105
        BYTE   W08
        BYTE                   Cn1   v113
        BYTE   W01
        BYTE           N07     An0   v107
        BYTE   W15
        BYTE           N03     Cn1   v101
        BYTE   W01
        BYTE           N07     An0   v107
        BYTE   W07
        BYTE           N03     Cn1   v105
        BYTE           N03     Dn1   v127
        BYTE   W08
        BYTE                   Cn1   v097
        BYTE   W01
        BYTE           N07     An0   v115
        BYTE   W07
        BYTE           N03     Cn1   v102
        BYTE   W08
        BYTE                   Cn1   v114
        BYTE   W01
        BYTE   PEND
// 020   ----------------------------------------
EachJustice_0_20:
        BYTE           N07     An0   v117
        BYTE   W15
        BYTE           N03     Cn1   v100
        BYTE   W08
        BYTE                   Dn1   v127
        BYTE           N03     Cn1   v110
        BYTE   W01
        BYTE           N07     An0   v117
        BYTE   W07
        BYTE           N03     Cn1   v094
        BYTE   W08
        BYTE                   Cn1   v100
        BYTE   W08
        BYTE                   Cn1   v115
        BYTE   W01
        BYTE           N07     An0   v116
        BYTE   W15
        BYTE           N03     Cn1   v102
        BYTE   W08
        BYTE                   Cn1   v115
        BYTE           N03     Dn1   v127
        BYTE   W01
        BYTE           N07     An0   v120
        BYTE   W07
        BYTE           N03     Cn1   v100
        BYTE   W08
        BYTE                   Cn1   v097
        BYTE   W08
        BYTE                   Cn1   v112
        BYTE   W01
        BYTE   PEND
// 021   ----------------------------------------
EachJustice_0_21:
        BYTE           N07     An0   v114
        BYTE   W15
        BYTE           N03     Cn1   v100
        BYTE   W08
        BYTE                   Dn1   v127
        BYTE           N03     Cn1   v114
        BYTE   W01
        BYTE           N07     An0
        BYTE   W08
        BYTE           N02     Cn1   v097
        BYTE   W07
        BYTE           N03     Cn1   v100
        BYTE   W08
        BYTE                   Cn1   v108
        BYTE   W01
        BYTE           N07     An0   v107
        BYTE   W15
        BYTE           N03     Cn1   v113
        BYTE   W01
        BYTE           N07     An0   v107
        BYTE   W07
        BYTE           N03     Dn1   v127
        BYTE   W01
        BYTE           N02     Cn1   v108
        BYTE   W07
        BYTE           N03     Cn1   v112
        BYTE   W01
        BYTE           N07     An0   v115
        BYTE   W08
        BYTE           N02     Cn1   v116
        BYTE   W07
        BYTE           N03
        BYTE   W01
        BYTE   PEND
// 022   ----------------------------------------
EachJustice_0_22:
        BYTE           N07     An0   v117
        BYTE   W15
        BYTE           N03     Cn1   v099
        BYTE   W08
        BYTE                   Dn1   v127
        BYTE           N03     Cn1   v102
        BYTE   W01
        BYTE           N07     An0   v117
        BYTE   W07
        BYTE           N03     Cn1   v096
        BYTE   W08
        BYTE                   Cn1   v110
        BYTE   W08
        BYTE                   Cn1   v112
        BYTE   W01
        BYTE           N07     An0   v116
        BYTE   W15
        BYTE           N03     Cn1   v100
        BYTE   W08
        BYTE                   Dn1   v127
        BYTE           N03     Cn1   v114
        BYTE   W01
        BYTE           N07     An0   v120
        BYTE   W07
        BYTE           N03     Cn1   v094
        BYTE   W08
        BYTE                   Cn1   v099
        BYTE   W08
        BYTE                   Cn1   v112
        BYTE   W01
        BYTE   PEND
// 023   ----------------------------------------
EachJustice_0_23:
        BYTE           N07     An0   v114
        BYTE   W15
        BYTE           N03     Cn1   v097
        BYTE   W08
        BYTE                   Dn1   v127
        BYTE           N03     Cn1   v113
        BYTE   W01
        BYTE           N07     An0   v114
        BYTE   W07
        BYTE           N03     Cn1   v094
        BYTE   W08
        BYTE                   Cn1   v095
        BYTE   W08
        BYTE                   Cn1   v115
        BYTE   W01
        BYTE           N07     An0   v107
        BYTE   W15
        BYTE           N03     Cn1   v096
        BYTE   W01
        BYTE           N07     An0   v107
        BYTE   W07
        BYTE           N03     Dn1   v127
        BYTE           N03     Cn1   v112
        BYTE   W08
        BYTE                   Cn1   v096
        BYTE   W01
        BYTE           N07     An0   v115
        BYTE   W07
        BYTE           N03     Cn1   v099
        BYTE   W08
        BYTE                   Cn1   v114
        BYTE   W01
        BYTE   PEND
// 024   ----------------------------------------
EachJustice_0_24:
        BYTE           N07     An0   v117
        BYTE   W15
        BYTE           N03     Cn1   v097
        BYTE   W08
        BYTE                   Cn1   v119
        BYTE   W01
        BYTE           N02     An0   v117
        BYTE           N02     Dn1   v127
        BYTE   W08
        BYTE                   Cn1   v099
        BYTE   W08
        BYTE                   Cn1   v097
        BYTE   W08
        BYTE                   Cn1   v115
        BYTE           N07     An0   v116
        BYTE   W15
        BYTE           N03     Cn1   v104
        BYTE   W08
        BYTE                   Cn1   v113
        BYTE   W01
        BYTE           N02     An0   v120
        BYTE           N02     Dn1   v127
        BYTE   W07
        BYTE           N03     Cn1   v108
        BYTE   W09
        BYTE           N02     Cn1   v103
        BYTE   W08
        BYTE   PEND
// 025   ----------------------------------------
EachJustice_0_25:
        BYTE           N02     Dn1   v127
        BYTE           N92     Cs2   v108   gtp3
        BYTE   W08
        BYTE           N03     Cn1   v113
        BYTE   W07
        BYTE                   An0   v117
        BYTE   W09
        BYTE           N02     Cn1   v102
        BYTE   W08
        BYTE                   An0   v127
        BYTE   W07
        BYTE           N03     Cn1   v096
        BYTE   W09
        BYTE                   An0   v127
        BYTE   W09
        BYTE           N02     An0   v117
        BYTE   W07
        BYTE                   An1   v099
        BYTE   W08
        BYTE                   An1   v118
        BYTE   W08
        BYTE                   An1   v111
        BYTE   W07
        BYTE           N03     An1   v127
        BYTE   W09
        BYTE   PEND
// 026   ----------------------------------------
        BYTE   PATT
         POIN2  EachJustice_0_10
// 027   ----------------------------------------
        BYTE   PATT
         POIN2  EachJustice_0_11
// 028   ----------------------------------------
        BYTE   PATT
         POIN2  EachJustice_0_12
// 029   ----------------------------------------
        BYTE   PATT
         POIN2  EachJustice_0_13
// 030   ----------------------------------------
        BYTE   PATT
         POIN2  EachJustice_0_10
// 031   ----------------------------------------
        BYTE   PATT
         POIN2  EachJustice_0_11
// 032   ----------------------------------------
        BYTE   PATT
         POIN2  EachJustice_0_12
// 033   ----------------------------------------
        BYTE   PATT
         POIN2  EachJustice_0_13
// 034   ----------------------------------------
        BYTE   PATT
         POIN2  EachJustice_0_18
// 035   ----------------------------------------
        BYTE   PATT
         POIN2  EachJustice_0_19
// 036   ----------------------------------------
        BYTE   PATT
         POIN2  EachJustice_0_20
// 037   ----------------------------------------
        BYTE   PATT
         POIN2  EachJustice_0_21
// 038   ----------------------------------------
        BYTE   PATT
         POIN2  EachJustice_0_22
// 039   ----------------------------------------
        BYTE   PATT
         POIN2  EachJustice_0_23
// 040   ----------------------------------------
        BYTE   PATT
         POIN2  EachJustice_0_24
// 041   ----------------------------------------
        BYTE   PATT
         POIN2  EachJustice_0_25
// 042   ----------------------------------------
EachJustice_0_42:
        BYTE           N02     Cn1   v118
        BYTE           N92     Cs2   v127   gtp3
        BYTE   W15
        BYTE           N03     Cn1   v091
        BYTE   W08
        BYTE                   Cn1   v099
        BYTE   W01
        BYTE           N02     An0   v100
        BYTE           N03     Dn1   v127
        BYTE   W07
        BYTE                   Cn1   v099
        BYTE   W09
        BYTE           N02     Cn1   v098
        BYTE   W07
        BYTE           N03     Cn1   v099
        BYTE   W01
        BYTE           N02     An0   v100
        BYTE   W15
        BYTE           N03     Cn1   v106
        BYTE   W09
        BYTE           N02     Cn1   v103
        BYTE           N02     An0   v099
        BYTE           N02     Dn1   v127
        BYTE   W07
        BYTE           N03     Cn1   v094
        BYTE   W08
        BYTE                   Cn1   v103
        BYTE   W08
        BYTE                   Cn1   v106
        BYTE   W01
        BYTE   PEND
// 043   ----------------------------------------
EachJustice_0_43:
        BYTE           N02     An0   v103
        BYTE   W15
        BYTE           N03     Cn1   v102
        BYTE   W08
        BYTE                   Cn1   v105
        BYTE   W01
        BYTE           N02     Dn1   v127
        BYTE           N02     An0   v100
        BYTE   W07
        BYTE           N03     Cn1   v094
        BYTE   W08
        BYTE                   Cn1   v105
        BYTE   W08
        BYTE                   Cn1   v113
        BYTE   W01
        BYTE           N02     An0   v100
        BYTE   W15
        BYTE           N03     Cn1   v101
        BYTE   W08
        BYTE                   Cn1   v105
        BYTE           N03     Dn1   v127
        BYTE   W01
        BYTE           N02     An0   v099
        BYTE   W07
        BYTE           N03     Cn1   v097
        BYTE   W08
        BYTE                   Cn1   v102
        BYTE   W08
        BYTE                   Cn1   v114
        BYTE   W01
        BYTE   PEND
// 044   ----------------------------------------
EachJustice_0_44:
        BYTE           N02     An0   v103
        BYTE   W15
        BYTE           N03     Cn1   v100
        BYTE   W08
        BYTE                   Dn1   v127
        BYTE           N03     Cn1   v110
        BYTE   W01
        BYTE           N02     An0   v100
        BYTE   W07
        BYTE           N03     Cn1   v094
        BYTE   W08
        BYTE                   Cn1   v100
        BYTE   W08
        BYTE                   Cn1   v115
        BYTE   W01
        BYTE           N02     An0   v100
        BYTE   W15
        BYTE           N03     Cn1   v102
        BYTE   W08
        BYTE                   Cn1   v115
        BYTE           N03     Dn1   v127
        BYTE   W01
        BYTE           N02     An0   v099
        BYTE   W07
        BYTE           N03     Cn1   v100
        BYTE   W08
        BYTE                   Cn1   v097
        BYTE   W08
        BYTE                   Cn1   v112
        BYTE   W01
        BYTE   PEND
// 045   ----------------------------------------
EachJustice_0_45:
        BYTE           N02     An0   v103
        BYTE   W15
        BYTE           N03     Cn1   v100
        BYTE   W08
        BYTE                   Dn1   v127
        BYTE           N03     Cn1   v114
        BYTE   W01
        BYTE           N02     An0   v100
        BYTE   W08
        BYTE                   Cn1   v097
        BYTE   W07
        BYTE           N03     Cn1   v100
        BYTE   W08
        BYTE                   Cn1   v108
        BYTE   W01
        BYTE           N02     An0   v100
        BYTE   W15
        BYTE           N03     Cn1   v113
        BYTE   W08
        BYTE                   Dn1   v127
        BYTE   W01
        BYTE           N02     An0   v099
        BYTE           N02     Cn1   v108
        BYTE   W07
        BYTE           N03     Cn1   v112
        BYTE   W09
        BYTE           N02     Cn1   v116
        BYTE   W08
        BYTE   PEND
// 046   ----------------------------------------
        BYTE   PATT
         POIN2  EachJustice_0_42
// 047   ----------------------------------------
        BYTE   PATT
         POIN2  EachJustice_0_43
// 048   ----------------------------------------
        BYTE   PATT
         POIN2  EachJustice_0_44
// 049   ----------------------------------------
        BYTE   W96
// 050   ----------------------------------------
EachJustice_0_50:
        BYTE           N02     Cn1   v118
        BYTE           N72     Cs2   v127
        BYTE   W15
        BYTE           N03     Cn1   v091
        BYTE   W08
        BYTE                   Cn1   v099
        BYTE   W01
        BYTE           N02     An0   v104
        BYTE           N03     Dn1   v127
        BYTE   W08
        BYTE           N02
        BYTE   W08
        BYTE                   Dn1
        BYTE   W07
        BYTE           N03     Cn1   v099
        BYTE   W01
        BYTE           N02     Dn1   v127
        BYTE           N07     An0   v101
        BYTE   W24
        BYTE           N02     Cn1   v103
        BYTE           N23     Cs2   v127
        BYTE           N02     Dn1
        BYTE   W23
        BYTE           N03     Cn1   v106
        BYTE   W01
        BYTE   PEND
// 051   ----------------------------------------
EachJustice_0_51:
        BYTE           N68     Cs2   v127   gtp3
        BYTE   W15
        BYTE           N03     Cn1   v102
        BYTE   W01
        BYTE           N07     An0   v094
        BYTE   W07
        BYTE           N03     Cn1   v105
        BYTE   W01
        BYTE           N02     Dn1   v127
        BYTE   W07
        BYTE           N03     Cn1   v094
        BYTE   W01
        BYTE           N07     An0   v090
        BYTE   W07
        BYTE           N03     Cn1   v105
        BYTE   W08
        BYTE                   Cn1   v113
        BYTE   W01
        BYTE           N07     An0   v091
        BYTE   W15
        BYTE           N03     Cn1   v101
        BYTE   W01
        BYTE           N07     An0   v091
        BYTE   W07
        BYTE           N03     Cn1   v105
        BYTE           N03     Dn1   v127
        BYTE   W08
        BYTE                   Cn1   v097
        BYTE   W01
        BYTE           N07     An0   v099
        BYTE   W07
        BYTE           N03     Cn1   v102
        BYTE   W01
        BYTE           N02     Dn1   v127
        BYTE   W08
        BYTE   PEND
// 052   ----------------------------------------
        BYTE   PATT
         POIN2  EachJustice_0_50
// 053   ----------------------------------------
        BYTE   PATT
         POIN2  EachJustice_0_51
// 054   ----------------------------------------
EachJustice_0_54:
        BYTE           N02     Cn1   v118
        BYTE           N92     Cs2   v124   gtp3
        BYTE   W15
        BYTE           N03     Cn1   v091
        BYTE   W08
        BYTE                   Cn1   v099
        BYTE   W01
        BYTE           N02     An0   v104
        BYTE           N03     Dn1   v127
        BYTE   W07
        BYTE                   Cn1   v099
        BYTE   W09
        BYTE           N02     Cn1   v098
        BYTE   W07
        BYTE           N03     Cn1   v099
        BYTE   W01
        BYTE           N07     An0   v101
        BYTE   W15
        BYTE           N03     Cn1   v106
        BYTE   W09
        BYTE           N02     Cn1   v103
        BYTE           N02     Dn1   v127
        BYTE           N07     An0   v104
        BYTE   W07
        BYTE           N03     Cn1   v094
        BYTE   W08
        BYTE                   Cn1   v103
        BYTE   W08
        BYTE                   Cn1   v106
        BYTE   W01
        BYTE   PEND
// 055   ----------------------------------------
EachJustice_0_55:
        BYTE           N07     An0   v098
        BYTE   W15
        BYTE           N03     Cn1   v102
        BYTE   W01
        BYTE           N07     An0   v094
        BYTE   W07
        BYTE           N03     Cn1   v105
        BYTE   W01
        BYTE           N02     Dn1   v127
        BYTE   W07
        BYTE           N03     Cn1   v094
        BYTE   W01
        BYTE           N07     An0   v090
        BYTE   W07
        BYTE           N03     Cn1   v105
        BYTE   W08
        BYTE                   Cn1   v113
        BYTE   W01
        BYTE           N07     An0   v091
        BYTE   W15
        BYTE           N03     Cn1   v101
        BYTE   W01
        BYTE           N07     An0   v091
        BYTE   W07
        BYTE           N03     Cn1   v105
        BYTE           N03     Dn1   v127
        BYTE   W08
        BYTE                   Cn1   v097
        BYTE   W01
        BYTE           N07     An0   v099
        BYTE   W07
        BYTE           N03     Cn1   v102
        BYTE   W08
        BYTE                   Cn1   v114
        BYTE   W01
        BYTE   PEND
// 056   ----------------------------------------
        BYTE           N07     An0   v101
        BYTE   W15
        BYTE           N03     Cn1   v100
        BYTE   W08
        BYTE                   An0   v101
        BYTE           N03     Dn1   v127
        BYTE           N03     Cn1   v110
        BYTE   W08
        BYTE                   Cn1   v094
        BYTE   W08
        BYTE                   Cn1   v100
        BYTE   W08
        BYTE                   An0
        BYTE           N03     Cn1   v115
        BYTE   W16
        BYTE                   Cn1   v102
        BYTE   W08
        BYTE                   An0   v104
        BYTE           N03     Cn1   v115
        BYTE           N03     Dn1   v127
        BYTE   W08
        BYTE                   Cn1   v100
        BYTE   W08
        BYTE                   Cn1   v097
        BYTE   W08
        BYTE                   Cn1   v112
        BYTE           N08     An0   v098
        BYTE   W01
// 057   ----------------------------------------
        BYTE   W15
        BYTE           N03     Cn1   v100
        BYTE           N08     An0   v091
        BYTE   W08
        BYTE           N03     Dn1   v127
        BYTE           N03     Cn1   v114
        BYTE   W09
        BYTE           N02     Cn1   v097
        BYTE           N07     An0   v096
        BYTE   W07
        BYTE           N03     Cn1   v100
        BYTE   W08
        BYTE                   Cn1   v108
        BYTE   W01
        BYTE           N07     An0   v100
        BYTE   W15
        BYTE           N03     Cn1   v113
        BYTE   W01
        BYTE           N07     An0   v094
        BYTE   W07
        BYTE           N03     Dn1   v127
        BYTE   W01
        BYTE           N02     Cn1   v108
        BYTE   W07
        BYTE           N03     An0   v098
        BYTE           N03     Cn1   v112
        BYTE   W09
        BYTE           N02     Cn1   v116
        BYTE   W08
// 058   ----------------------------------------
        BYTE   PATT
         POIN2  EachJustice_0_50
// 059   ----------------------------------------
        BYTE   PATT
         POIN2  EachJustice_0_51
// 060   ----------------------------------------
        BYTE   PATT
         POIN2  EachJustice_0_50
// 061   ----------------------------------------
        BYTE   PATT
         POIN2  EachJustice_0_51
// 062   ----------------------------------------
        BYTE   PATT
         POIN2  EachJustice_0_54
// 063   ----------------------------------------
        BYTE   PATT
         POIN2  EachJustice_0_55
// 064   ----------------------------------------
        BYTE           N07     An0   v101
        BYTE   W15
        BYTE           N03     Cn1   v100
        BYTE   W08
        BYTE                   An0   v101
        BYTE           N03     Dn1   v127
        BYTE           N03     Cn1   v110
        BYTE   W08
        BYTE                   Cn1   v094
        BYTE   W08
        BYTE                   Cn1   v100
        BYTE   W08
        BYTE                   An0
        BYTE           N03     Cn1   v115
        BYTE   W16
        BYTE                   Cn1   v102
        BYTE   W08
        BYTE                   An0   v104
        BYTE           N03     Cn1   v115
        BYTE           N03     Dn1   v127
        BYTE   W08
        BYTE                   Cn1   v100
        BYTE   W08
        BYTE                   Cn1   v097
        BYTE   W09
// 065   ----------------------------------------
        BYTE   W96
// 066   ----------------------------------------
        BYTE   PATT
         POIN2  EachJustice_0_42
// 067   ----------------------------------------
        BYTE   PATT
         POIN2  EachJustice_0_43
// 068   ----------------------------------------
        BYTE   PATT
         POIN2  EachJustice_0_44
// 069   ----------------------------------------
        BYTE   PATT
         POIN2  EachJustice_0_45
// 070   ----------------------------------------
        BYTE   PATT
         POIN2  EachJustice_0_42
// 071   ----------------------------------------
EachJustice_0_71:
        BYTE           N02     An0   v103
        BYTE   W15
        BYTE           N03     Cn1   v102
        BYTE   W08
        BYTE                   Cn1   v105
        BYTE   W01
        BYTE           N02     Dn1   v127
        BYTE           N02     An0   v100
        BYTE   W07
        BYTE           N03     Cn1   v094
        BYTE   W08
        BYTE                   Cn1   v105
        BYTE   W08
        BYTE                   Cn1   v113
        BYTE   W01
        BYTE           N02     An0   v100
        BYTE   W15
        BYTE           N03     Cn1   v101
        BYTE   W08
        BYTE                   Cn1   v105
        BYTE           N03     Dn1   v127
        BYTE   W01
        BYTE           N02     An0   v099
        BYTE   W07
        BYTE           N03     Cn1   v097
        BYTE   W08
        BYTE                   Cn1   v102
        BYTE   W08
        BYTE           N01     Cn1   v114
        BYTE   W01
        BYTE   PEND
// 072   ----------------------------------------
        BYTE   PATT
         POIN2  EachJustice_0_42
// 073   ----------------------------------------
        BYTE   PATT
         POIN2  EachJustice_0_71
// 074   ----------------------------------------
        BYTE   PATT
         POIN2  EachJustice_0_42
// 075   ----------------------------------------
        BYTE   PATT
         POIN2  EachJustice_0_71
// 076   ----------------------------------------
        BYTE   PATT
         POIN2  EachJustice_0_42
// 077   ----------------------------------------
        BYTE   PATT
         POIN2  EachJustice_0_71
// 078   ----------------------------------------
        BYTE           N02     Cn1   v118
        BYTE           N02     An0   v127
        BYTE   W15
        BYTE           N03     Cn1   v091
        BYTE   W08
        BYTE                   Cn1   v099
        BYTE   W01
        BYTE           N48     Cs2   v127
        BYTE           N03     Dn1
        BYTE   W07
        BYTE                   Cn1   v099
        BYTE   W09
        BYTE           N02     Cn1   v098
        BYTE   W07
        BYTE           N03     Cn1   v099
        BYTE   W01
        BYTE           N02     An0   v127
        BYTE   W15
        BYTE           N03     Cn1   v106
        BYTE   W09
        BYTE           N02     Cn1   v103
        BYTE           N44     Cs2   v127   gtp3
        BYTE           N02     Dn1
        BYTE   W07
        BYTE           N03     Cn1   v094
        BYTE   W08
        BYTE                   Cn1   v103
        BYTE   W08
        BYTE                   Cn1   v106
        BYTE   W01
// 079   ----------------------------------------
        BYTE   W96
// 080   ----------------------------------------
EachJustice_0_80:
        BYTE           N02     Cn1   v118
        BYTE           N48     Cs2   v127
        BYTE   W24
        BYTE           N02     An0
        BYTE   W08
        BYTE                   Dn1   v070
        BYTE   W08
        BYTE                   Dn1   v088
        BYTE   W07
        BYTE           N03     Cn1   v127
        BYTE   W01
        BYTE           N02     Dn1
        BYTE           N02     An0
        BYTE           N44     Cs2   v127   gtp3
        BYTE   W24
        BYTE           N02     An0
        BYTE   W24
        BYTE   PEND
// 081   ----------------------------------------
EachJustice_0_81:
        BYTE           N02     Cn1   v127
        BYTE           N02     Dn1
        BYTE   W08
        BYTE                   Dn1
        BYTE   W08
        BYTE                   Dn1
        BYTE   W08
        BYTE                   Cn1
        BYTE           N02     Dn1
        BYTE   W24
        BYTE                   An0   v098
        BYTE   W24
        BYTE                   An0   v127
        BYTE   W24
        BYTE   PEND
// 082   ----------------------------------------
        BYTE   PATT
         POIN2  EachJustice_0_80
// 083   ----------------------------------------
        BYTE   PATT
         POIN2  EachJustice_0_81
// 084   ----------------------------------------
        BYTE   PATT
         POIN2  EachJustice_0_80
// 085   ----------------------------------------
        BYTE   PATT
         POIN2  EachJustice_0_81
// 086   ----------------------------------------
        BYTE           N02     Cn1   v118
        BYTE           N92     Cs2   v127   gtp3
        BYTE   W24
        BYTE           N02     An0
        BYTE   W08
        BYTE                   Dn1   v070
        BYTE   W08
        BYTE                   Dn1   v088
        BYTE   W07
        BYTE           N03     Cn1   v127
        BYTE   W01
        BYTE           N02     Dn1
        BYTE           N02     An0
        BYTE   W24
        BYTE                   An0
        BYTE   W08
        BYTE                   Dn1   v070
        BYTE   W08
        BYTE                   Dn1   v088
        BYTE   W08
// 087   ----------------------------------------
        BYTE                   Cn1   v127
        BYTE           N02     Dn1
        BYTE           N92     Cs2   v127   gtp3
        BYTE   W24
        BYTE           N02     An0
        BYTE   W08
        BYTE                   Dn1   v070
        BYTE   W08
        BYTE                   Dn1   v088
        BYTE   W07
        BYTE           N03     Cn1   v127
        BYTE   W01
        BYTE           N02     Dn1
        BYTE           N02     An0
        BYTE   W24
        BYTE                   An0
        BYTE   W08
        BYTE                   Dn1   v070
        BYTE   W08
        BYTE                   Dn1   v088
        BYTE   W08
// 088   ----------------------------------------
        BYTE                   Cn1   v118
        BYTE           N92     Cs2   v127   gtp3
        BYTE   W24
        BYTE           N02     Cn1
        BYTE           N02     Dn1
        BYTE   W08
        BYTE                   Dn1   v070
        BYTE   W08
        BYTE                   Dn1   v088
        BYTE   W07
        BYTE           N03     Cn1   v127
        BYTE   W01
        BYTE           N02     Dn1
        BYTE   W08
        BYTE                   Dn1   v070
        BYTE   W08
        BYTE                   Dn1   v088
        BYTE   W07
        BYTE           N03     Cn1   v127
        BYTE   W01
        BYTE           N02     Dn1
        BYTE   W08
        BYTE                   Dn1   v070
        BYTE   W08
        BYTE                   Dn1   v088
        BYTE   W07
        BYTE           N03     Cn1   v127
        BYTE   W01
// 089   ----------------------------------------
        BYTE           N02     Dn1
        BYTE   W08
        BYTE                   Dn1   v107
        BYTE   W08
        BYTE                   Dn1   v115
        BYTE   W07
        BYTE           N03     Cn1   v127
        BYTE   W01
        BYTE           N02     Dn1
        BYTE   W08
        BYTE                   Dn1   v120
        BYTE   W08
        BYTE                   Dn1
        BYTE   W07
        BYTE           N03     Cn1   v127
        BYTE   W01
        BYTE           N02     Dn1
        BYTE   W08
        BYTE                   Dn1   v121
        BYTE   W08
        BYTE                   Dn1
        BYTE   W08
        BYTE                   Dn1   v127
        BYTE   W08
        BYTE                   Dn1
        BYTE   W08
        BYTE                   Dn1
        BYTE   W08
// 090   ----------------------------------------
        BYTE   PATT
         POIN2  EachJustice_0_42
// 091   ----------------------------------------
        BYTE   PATT
         POIN2  EachJustice_0_71
// 092   ----------------------------------------
        BYTE   PATT
         POIN2  EachJustice_0_42
// 093   ----------------------------------------
        BYTE   PATT
         POIN2  EachJustice_0_71
// 094   ----------------------------------------
EachJustice_0_94:
        BYTE           N02     Cn1   v118
        BYTE           N02     An0   v098
        BYTE   W15
        BYTE           N03     Cn1   v091
        BYTE   W08
        BYTE                   Cn1   v099
        BYTE   W01
        BYTE           N92     Cs2   v127   gtp3
        BYTE           N03     Dn1
        BYTE   W07
        BYTE                   Cn1   v099
        BYTE   W09
        BYTE           N02     Cn1   v098
        BYTE   W07
        BYTE           N03     Cn1   v099
        BYTE   W01
        BYTE           N02     An0   v101
        BYTE   W15
        BYTE           N03     Cn1   v106
        BYTE   W09
        BYTE           N02     Cn1   v103
        BYTE           N02     An0   v104
        BYTE           N02     Dn1   v127
        BYTE   W07
        BYTE           N03     Cn1   v094
        BYTE   W08
        BYTE                   Cn1   v103
        BYTE   W08
        BYTE                   Cn1   v106
        BYTE   W01
        BYTE   PEND
// 095   ----------------------------------------
EachJustice_0_95:
        BYTE           N02     An0   v098
        BYTE   W15
        BYTE           N03     Cn1   v102
        BYTE   W08
        BYTE                   Cn1   v105
        BYTE           N96     Cs2   v127
        BYTE   W01
        BYTE           N02     Dn1
        BYTE   W07
        BYTE           N03     Cn1   v094
        BYTE   W08
        BYTE                   Cn1   v105
        BYTE   W08
        BYTE                   Cn1   v113
        BYTE   W01
        BYTE                   An0   v101
        BYTE   W15
        BYTE                   Cn1
        BYTE   W08
        BYTE                   Cn1   v105
        BYTE           N03     Dn1   v127
        BYTE   W01
        BYTE           N02     An0   v104
        BYTE   W07
        BYTE           N03     Cn1   v097
        BYTE   W08
        BYTE                   Cn1   v102
        BYTE   W08
        BYTE           N01     Cn1   v114
        BYTE   W01
        BYTE   PEND
// 096   ----------------------------------------
        BYTE   PATT
         POIN2  EachJustice_0_94
// 097   ----------------------------------------
        BYTE   PATT
         POIN2  EachJustice_0_95
// 098   ----------------------------------------
EachJustice_0_98:
        BYTE           N02     Cn1   v118
        BYTE           N02     Dn1   v127
        BYTE   W08
        BYTE                   Cn1   v098
        BYTE           N02     Dn1   v125
        BYTE   W08
        BYTE                   Dn1   v127
        BYTE           N02     Cn1   v091
        BYTE   W08
        BYTE                   Cn1   v099
        BYTE           N02     Dn1   v127
        BYTE           N02     An0   v123
        BYTE   W24
        BYTE                   An0   v126
        BYTE   W24
        BYTE                   Cn1   v103
        BYTE           N02     Dn1   v127
        BYTE   W07
        BYTE           N03     Cn1   v094
        BYTE   W01
        BYTE           N02     Dn1   v127
        BYTE   W07
        BYTE           N03     Cn1   v103
        BYTE   W01
        BYTE           N02     Dn1   v127
        BYTE   W07
        BYTE           N03     Cn1
        BYTE   W01
        BYTE   PEND
// 099   ----------------------------------------
        BYTE           N02     Dn1
        BYTE   W24
        BYTE                   An0   v112
        BYTE   W24
        BYTE                   An0   v120
        BYTE   W24
        BYTE                   An0   v127
        BYTE   W24
// 100   ----------------------------------------
        BYTE   PATT
         POIN2  EachJustice_0_98
// 101   ----------------------------------------
        BYTE           N02     Dn1   v127
        BYTE   W24
        BYTE                   An0   v112
        BYTE   W72
// 102   ----------------------------------------
        BYTE   GoTo
         POIN2  EachJustice_0_LOOP
        BYTE   FINE

//****************** Track 1 (Midi-Chn.1) ******************//

EachJustice_1:
        BYTE   KEYSH   EachJustice_key+0
// 000   ----------------------------------------
EachJustice_1_LOOP:
        BYTE           VOICE   122
        BYTE           VOL     23
        BYTE   W96
// 001   ----------------------------------------
        BYTE   W72
        BYTE           N01     Dn2   v125
        BYTE           N07     Cn2   v100
        BYTE   W07
        BYTE           N08     Bn1   v125
        BYTE   W09
        BYTE           N07     An1   v127
        BYTE   W08
// 002   ----------------------------------------
        BYTE   W96
// 003   ----------------------------------------
        BYTE           N01     Dn2   v124
        BYTE           N02     Cn2   v100
        BYTE   W03
        BYTE           N04     Dn2   v124
        BYTE   W04
        BYTE           N08     Dn2   v109
        BYTE   W08
        BYTE                   Dn2   v119
        BYTE   W09
        BYTE           N01     Dn2   v127
        BYTE           N07     Cn2   v100
        BYTE   W07
        BYTE           N08     Dn2   v127
        BYTE   W09
        BYTE           N07     Dn2   v125
        BYTE   W07
        BYTE           N01     Bn1   v127
        BYTE   W01
        BYTE           N07     Cn2   v100
        BYTE   W07
        BYTE           N08     Bn1   v120
        BYTE   W08
        BYTE                   Bn1   v127
        BYTE   W09
        BYTE           N01     Bn1   v120
        BYTE           N07     Cn2   v100
        BYTE   W07
        BYTE           N08     An1   v127
        BYTE   W09
        BYTE           N07
        BYTE   W08
// 004   ----------------------------------------
        BYTE   W96
// 005   ----------------------------------------
        BYTE   W96
// 006   ----------------------------------------
        BYTE   W96
// 007   ----------------------------------------
        BYTE   W96
// 008   ----------------------------------------
        BYTE   W96
// 009   ----------------------------------------
        BYTE           N01     En1
        BYTE           N07     Cn2   v100
        BYTE   W07
        BYTE           N04     En1   v095
        BYTE   W05
        BYTE           N03     En1   v115
        BYTE   W03
        BYTE           N08     En1   v127
        BYTE   W09
        BYTE           N01     En1   v105
        BYTE           N07     Cn2   v100
        BYTE   W07
        BYTE           N08     En1   v127
        BYTE   W09
        BYTE           N07
        BYTE   W07
        BYTE           N01     Dn2
        BYTE   W01
        BYTE           N07     Cn2   v100
        BYTE   W07
        BYTE           N04     Dn2   v125
        BYTE   W05
        BYTE           N03     Dn2   v115
        BYTE   W03
        BYTE           N08     Dn2   v127
        BYTE   W09
        BYTE           N01     Dn2   v125
        BYTE           N07     Cn2   v100
        BYTE   W07
        BYTE           N08     Bn1   v125
        BYTE   W09
        BYTE           N07     An1   v127
        BYTE   W08
// 010   ----------------------------------------
        BYTE   W96
// 011   ----------------------------------------
        BYTE   W96
// 012   ----------------------------------------
        BYTE   W96
// 013   ----------------------------------------
        BYTE   W96
// 014   ----------------------------------------
        BYTE   W96
// 015   ----------------------------------------
        BYTE   W96
// 016   ----------------------------------------
        BYTE   W96
// 017   ----------------------------------------
        BYTE   W96
// 018   ----------------------------------------
        BYTE   W96
// 019   ----------------------------------------
        BYTE   W96
// 020   ----------------------------------------
        BYTE   W96
// 021   ----------------------------------------
        BYTE   W96
// 022   ----------------------------------------
        BYTE   W96
// 023   ----------------------------------------
        BYTE   W96
// 024   ----------------------------------------
        BYTE   W96
// 025   ----------------------------------------
        BYTE   W96
// 026   ----------------------------------------
        BYTE   W96
// 027   ----------------------------------------
        BYTE   W96
// 028   ----------------------------------------
        BYTE   W96
// 029   ----------------------------------------
        BYTE   W96
// 030   ----------------------------------------
        BYTE   W96
// 031   ----------------------------------------
        BYTE   W96
// 032   ----------------------------------------
        BYTE   W96
// 033   ----------------------------------------
        BYTE   W96
// 034   ----------------------------------------
        BYTE   W96
// 035   ----------------------------------------
        BYTE   W96
// 036   ----------------------------------------
        BYTE   W96
// 037   ----------------------------------------
        BYTE   W96
// 038   ----------------------------------------
        BYTE   W96
// 039   ----------------------------------------
        BYTE   W96
// 040   ----------------------------------------
        BYTE   W96
// 041   ----------------------------------------
        BYTE   W96
// 042   ----------------------------------------
        BYTE   W96
// 043   ----------------------------------------
        BYTE   W96
// 044   ----------------------------------------
        BYTE   W96
// 045   ----------------------------------------
        BYTE   W96
// 046   ----------------------------------------
        BYTE   W96
// 047   ----------------------------------------
        BYTE   W96
// 048   ----------------------------------------
        BYTE   W96
// 049   ----------------------------------------
        BYTE           N02     Dn1
        BYTE           N08     Cs2   v108
        BYTE   W08
        BYTE           N07     Cn1   v103
        BYTE   W07
        BYTE           N08     Dn2   v117
        BYTE   W09
        BYTE                   Cn1   v092
        BYTE   W08
        BYTE           N07     Bn1   v127
        BYTE   W07
        BYTE           N09     Cn1   v086
        BYTE   W09
        BYTE           N08     Bn1   v127
        BYTE   W09
        BYTE           N06     Bn1   v117
        BYTE   W07
        BYTE           N07     An1   v099
        BYTE   W08
        BYTE                   An1   v118
        BYTE   W08
        BYTE                   An1   v111
        BYTE   W07
        BYTE           N08     An1   v127
        BYTE   W09
// 050   ----------------------------------------
        BYTE   W96
// 051   ----------------------------------------
        BYTE   W96
// 052   ----------------------------------------
        BYTE   W96
// 053   ----------------------------------------
        BYTE   W96
// 054   ----------------------------------------
        BYTE   W96
// 055   ----------------------------------------
        BYTE   W96
// 056   ----------------------------------------
        BYTE   W96
// 057   ----------------------------------------
        BYTE   W96
// 058   ----------------------------------------
        BYTE   W96
// 059   ----------------------------------------
        BYTE   W96
// 060   ----------------------------------------
        BYTE   W96
// 061   ----------------------------------------
        BYTE   W96
// 062   ----------------------------------------
        BYTE   W96
// 063   ----------------------------------------
        BYTE   W96
// 064   ----------------------------------------
        BYTE   W96
// 065   ----------------------------------------
        BYTE           N01     En1
        BYTE           N07     Cn2   v100
        BYTE   W07
        BYTE           N08     En1   v115
        BYTE   W08
        BYTE                   En1   v125
        BYTE   W09
        BYTE           N01     En1   v115
        BYTE           N07     Cn2   v100
        BYTE   W07
        BYTE           N08     En1   v127
        BYTE   W09
        BYTE           N07     En1   v125
        BYTE   W07
        BYTE           N01     Dn2   v127
        BYTE   W01
        BYTE           N07     Cn2   v100
        BYTE   W07
        BYTE           N08     Dn2   v125
        BYTE   W08
        BYTE                   Dn2   v127
        BYTE   W09
        BYTE           N01     An1   v115
        BYTE           N07     Cn2   v100
        BYTE   W07
        BYTE           N08     En1   v127
        BYTE   W09
        BYTE           N07     An1
        BYTE   W08
// 066   ----------------------------------------
        BYTE   W96
// 067   ----------------------------------------
        BYTE   W96
// 068   ----------------------------------------
        BYTE   W96
// 069   ----------------------------------------
        BYTE   W96
// 070   ----------------------------------------
        BYTE   W96
// 071   ----------------------------------------
        BYTE   W96
// 072   ----------------------------------------
        BYTE   W96
// 073   ----------------------------------------
        BYTE   W96
// 074   ----------------------------------------
        BYTE   W96
// 075   ----------------------------------------
        BYTE   W96
// 076   ----------------------------------------
        BYTE   W96
// 077   ----------------------------------------
        BYTE   W96
// 078   ----------------------------------------
        BYTE   W96
// 079   ----------------------------------------
        BYTE                   Cn1   v108
        BYTE           N07     An2   v127
        BYTE   W15
        BYTE           N08     Cn1   v081
        BYTE   W08
        BYTE           N03     Cn1   v089
        BYTE   W01
        BYTE           N02     Cs2   v127
        BYTE           N07     Dn1
        BYTE   W07
        BYTE           N03     Cn1   v089
        BYTE   W09
        BYTE           N08     Cn1   v088
        BYTE   W08
        BYTE                   Bn1   v127
        BYTE   W09
        BYTE           N06     Bn1   v117
        BYTE   W07
        BYTE           N07     An1   v099
        BYTE   W08
        BYTE                   An1   v118
        BYTE   W08
        BYTE                   An1   v111
        BYTE   W07
        BYTE           N08     An1   v127
        BYTE   W09
// 080   ----------------------------------------
        BYTE   W96
// 081   ----------------------------------------
        BYTE   W96
// 082   ----------------------------------------
        BYTE   W96
// 083   ----------------------------------------
        BYTE   W96
// 084   ----------------------------------------
        BYTE   W96
// 085   ----------------------------------------
        BYTE   W96
// 086   ----------------------------------------
        BYTE   W96
// 087   ----------------------------------------
        BYTE   W96
// 088   ----------------------------------------
        BYTE   W96
// 089   ----------------------------------------
        BYTE   W96
// 090   ----------------------------------------
        BYTE   W96
// 091   ----------------------------------------
        BYTE   W96
// 092   ----------------------------------------
        BYTE   W96
// 093   ----------------------------------------
        BYTE   W96
// 094   ----------------------------------------
        BYTE   W96
// 095   ----------------------------------------
        BYTE   W96
// 096   ----------------------------------------
        BYTE   W96
// 097   ----------------------------------------
        BYTE   W96
// 098   ----------------------------------------
        BYTE   W96
// 099   ----------------------------------------
        BYTE   W96
// 100   ----------------------------------------
        BYTE   W96
// 101   ----------------------------------------
        BYTE   W48
        BYTE           N03     Fn1
        BYTE   W03
        BYTE           N12
        BYTE   W13
        BYTE           N01     Bn1
        BYTE   W01
        BYTE           N14
        BYTE   W15
        BYTE           N15     An1   v103
        BYTE   W16
// 102   ----------------------------------------
        BYTE   GoTo
         POIN2  EachJustice_1_LOOP
        BYTE   FINE

//****************** Track 2 (Midi-Chn.2) ******************//

EachJustice_2:
        BYTE   KEYSH   EachJustice_key+0
// 000   ----------------------------------------
EachJustice_2_LOOP:
        BYTE           VOICE   84
        BYTE           VOL     17
        BYTE           PAN     c_v+62
        BYTE           TIE     Dn2   v069
        BYTE   W96
// 001   ----------------------------------------
        BYTE   W78
        BYTE   W01
        BYTE           EOT
        BYTE   W17
// 002   ----------------------------------------
        BYTE           TIE     Cn2
        BYTE   W96
// 003   ----------------------------------------
        BYTE   W78
        BYTE   W01
        BYTE           EOT
        BYTE   W05
        BYTE           N03     Fn1   v060
        BYTE   W04
        BYTE                   Gn1
        BYTE   W04
        BYTE                   An1
        BYTE   W04
// 004   ----------------------------------------
        BYTE           N92     As1   v069   gtp3
        BYTE   W96
// 005   ----------------------------------------
        BYTE                   Gn1
        BYTE   W96
// 006   ----------------------------------------
        BYTE           TIE     An1
        BYTE   W96
// 007   ----------------------------------------
        BYTE   W96
// 008   ----------------------------------------
        BYTE   W92
        BYTE   W03
        BYTE           EOT
        BYTE   W01
// 009   ----------------------------------------
        BYTE           N44     An1   v019   gtp3
        BYTE   W48
        BYTE                   An1   v001
        BYTE   W48
// 010   ----------------------------------------
        BYTE   W96
// 011   ----------------------------------------
        BYTE   W96
// 012   ----------------------------------------
        BYTE   W96
// 013   ----------------------------------------
        BYTE   W96
// 014   ----------------------------------------
        BYTE   W96
// 015   ----------------------------------------
        BYTE   W96
// 016   ----------------------------------------
        BYTE   W96
// 017   ----------------------------------------
        BYTE   W96
// 018   ----------------------------------------
        BYTE   W96
// 019   ----------------------------------------
        BYTE   W96
// 020   ----------------------------------------
        BYTE   W96
// 021   ----------------------------------------
        BYTE   W96
// 022   ----------------------------------------
        BYTE   W96
// 023   ----------------------------------------
        BYTE   W96
// 024   ----------------------------------------
        BYTE   W96
// 025   ----------------------------------------
        BYTE   W96
// 026   ----------------------------------------
        BYTE   W96
// 027   ----------------------------------------
        BYTE   W96
// 028   ----------------------------------------
        BYTE   W96
// 029   ----------------------------------------
        BYTE   W96
// 030   ----------------------------------------
        BYTE   W96
// 031   ----------------------------------------
        BYTE   W96
// 032   ----------------------------------------
        BYTE   W96
// 033   ----------------------------------------
        BYTE   W96
// 034   ----------------------------------------
        BYTE   W96
// 035   ----------------------------------------
        BYTE   W96
// 036   ----------------------------------------
        BYTE   W96
// 037   ----------------------------------------
        BYTE   W96
// 038   ----------------------------------------
        BYTE   W96
// 039   ----------------------------------------
        BYTE   W96
// 040   ----------------------------------------
        BYTE   W96
// 041   ----------------------------------------
        BYTE   W96
// 042   ----------------------------------------
EachJustice_2_42:
        BYTE   W24
        BYTE           N56     Dn3   v065
        BYTE   W72
        BYTE   PEND
// 043   ----------------------------------------
        BYTE   PATT
         POIN2  EachJustice_2_42
// 044   ----------------------------------------
        BYTE   W24
        BYTE           N54     Cs3   v065   gtp1
        BYTE   W72
// 045   ----------------------------------------
        BYTE   W24
        BYTE                   Cn3
        BYTE   W72
// 046   ----------------------------------------
EachJustice_2_46:
        BYTE   W24
        BYTE           N54     Bn2   v065   gtp1
        BYTE   W72
        BYTE   PEND
// 047   ----------------------------------------
        BYTE   PATT
         POIN2  EachJustice_2_46
// 048   ----------------------------------------
        BYTE   PATT
         POIN2  EachJustice_2_46
// 049   ----------------------------------------
        BYTE   W24
        BYTE           N54     An2   v065   gtp1
        BYTE   W72
// 050   ----------------------------------------
        BYTE   W96
// 051   ----------------------------------------
        BYTE   W96
// 052   ----------------------------------------
        BYTE   W96
// 053   ----------------------------------------
        BYTE   W96
// 054   ----------------------------------------
        BYTE   W96
// 055   ----------------------------------------
        BYTE   W96
// 056   ----------------------------------------
        BYTE   W96
// 057   ----------------------------------------
        BYTE   W96
// 058   ----------------------------------------
        BYTE   W96
// 059   ----------------------------------------
        BYTE   W96
// 060   ----------------------------------------
        BYTE   W96
// 061   ----------------------------------------
        BYTE   W96
// 062   ----------------------------------------
        BYTE   W96
// 063   ----------------------------------------
        BYTE   W96
// 064   ----------------------------------------
        BYTE   W96
// 065   ----------------------------------------
        BYTE   W96
// 066   ----------------------------------------
        BYTE   W96
// 067   ----------------------------------------
        BYTE   W96
// 068   ----------------------------------------
        BYTE   W96
// 069   ----------------------------------------
        BYTE   W96
// 070   ----------------------------------------
        BYTE   W96
// 071   ----------------------------------------
        BYTE   W96
// 072   ----------------------------------------
        BYTE   W96
// 073   ----------------------------------------
        BYTE   W96
// 074   ----------------------------------------
        BYTE   W96
// 075   ----------------------------------------
        BYTE   W96
// 076   ----------------------------------------
        BYTE   W96
// 077   ----------------------------------------
        BYTE   W96
// 078   ----------------------------------------
        BYTE   W96
// 079   ----------------------------------------
        BYTE   W96
// 080   ----------------------------------------
EachJustice_2_80:
        BYTE           N28     En2   v098   gtp1
        BYTE   W48
        BYTE           N44     En1   v080
        BYTE   W48
        BYTE   PEND
// 081   ----------------------------------------
EachJustice_2_81:
        BYTE   W72
        BYTE           N07     En1   v080
        BYTE   W08
        BYTE                   Gn1
        BYTE   W08
        BYTE                   Bn1
        BYTE   W08
        BYTE   PEND
// 082   ----------------------------------------
EachJustice_2_82:
        BYTE           N24     Dn2   v093   gtp1
        BYTE   W48
        BYTE           N32     Dn1   v084
        BYTE   W48
        BYTE   PEND
// 083   ----------------------------------------
EachJustice_2_83:
        BYTE   W72
        BYTE           N07     Dn1   v080
        BYTE   W08
        BYTE                   Fs1
        BYTE   W08
        BYTE                   Bn1
        BYTE   W08
        BYTE   PEND
// 084   ----------------------------------------
        BYTE           N32     Cs2   v084
        BYTE   W48
        BYTE                   Cs1   v082   gtp1
        BYTE   W48
// 085   ----------------------------------------
        BYTE   W96
// 086   ----------------------------------------
EachJustice_2_86:
        BYTE           N32     Fs2   v084
        BYTE   W48
        BYTE                   Fs1
        BYTE   W48
        BYTE   PEND
// 087   ----------------------------------------
        BYTE   PATT
         POIN2  EachJustice_2_86
// 088   ----------------------------------------
        BYTE           N15     Fs2   v084
        BYTE   W24
        BYTE           N19     Fs1
        BYTE   W24
        BYTE                   Fs1
        BYTE   W24
        BYTE                   Fs1
        BYTE   W24
// 089   ----------------------------------------
        BYTE           N03
        BYTE   W08
        BYTE                   Fs1
        BYTE   W08
        BYTE                   Fs1
        BYTE   W08
        BYTE                   Fs1
        BYTE   W08
        BYTE                   Fs1
        BYTE   W08
        BYTE                   Fs1
        BYTE   W08
        BYTE                   Fs1
        BYTE   W08
        BYTE                   Fs1
        BYTE   W08
        BYTE                   Fs1
        BYTE   W08
        BYTE                   Fs1
        BYTE   W08
        BYTE                   Fs1
        BYTE   W08
        BYTE                   Fs1
        BYTE   W08
// 090   ----------------------------------------
        BYTE   PATT
         POIN2  EachJustice_2_80
// 091   ----------------------------------------
        BYTE   PATT
         POIN2  EachJustice_2_81
// 092   ----------------------------------------
        BYTE   PATT
         POIN2  EachJustice_2_82
// 093   ----------------------------------------
        BYTE   PATT
         POIN2  EachJustice_2_83
// 094   ----------------------------------------
        BYTE           N32     Cs2   v084
        BYTE   W48
        BYTE           N23     Cs1   v082
        BYTE   W24
        BYTE           N07     Cs1   v080
        BYTE   W08
        BYTE                   Fn1
        BYTE   W08
        BYTE                   Bn1
        BYTE   W08
// 095   ----------------------------------------
        BYTE           N32     Dn2   v084
        BYTE   W48
        BYTE           N23     Dn1   v082
        BYTE   W24
        BYTE           N07     Dn1   v080
        BYTE   W08
        BYTE                   Fs1
        BYTE   W08
        BYTE                   Bn1
        BYTE   W08
// 096   ----------------------------------------
        BYTE           N32     En2   v084
        BYTE   W48
        BYTE           N23     En1   v082
        BYTE   W24
        BYTE           N07     En1   v080
        BYTE   W08
        BYTE                   Bn1
        BYTE   W08
        BYTE                   En2
        BYTE   W08
// 097   ----------------------------------------
        BYTE           N32     Fn2   v084
        BYTE   W48
        BYTE           N23     Fn1   v082
        BYTE   W24
        BYTE           N07     Fn1   v080
        BYTE   W08
        BYTE                   Cs2
        BYTE   W08
        BYTE                   Fn2
        BYTE   W08
// 098   ----------------------------------------
EachJustice_2_98:
        BYTE           N07     Fs2   v084
        BYTE   W08
        BYTE                   Fs2
        BYTE   W08
        BYTE                   Fs2
        BYTE   W08
        BYTE                   Fs2
        BYTE   W48
        BYTE                   Fs2
        BYTE   W08
        BYTE                   Fs2
        BYTE   W08
        BYTE                   Fs2
        BYTE   W08
        BYTE   PEND
// 099   ----------------------------------------
        BYTE                   Fs2
        BYTE   W96
// 100   ----------------------------------------
        BYTE   PATT
         POIN2  EachJustice_2_98
// 101   ----------------------------------------
        BYTE           N07     Fs2   v084
        BYTE   W84
        BYTE           N03     An1   v060
        BYTE   W04
        BYTE                   Bn1
        BYTE   W04
        BYTE                   Cs2
        BYTE   W04
// 102   ----------------------------------------
        BYTE   GoTo
         POIN2  EachJustice_2_LOOP
        BYTE   FINE

//****************** Track 3 (Midi-Chn.3) ******************//

EachJustice_3:
        BYTE   KEYSH   EachJustice_key+0
// 000   ----------------------------------------
EachJustice_3_LOOP:
        BYTE           VOICE   84
        BYTE           VOL     20
        BYTE           PAN     c_v-62
        BYTE           N66     An4   v079   gtp1
        BYTE   W72
        BYTE           N03
        BYTE   W08
        BYTE                   Fn4
        BYTE   W08
        BYTE                   An4
        BYTE   W08
// 001   ----------------------------------------
        BYTE           N92     As4   v079   gtp3
        BYTE   W96
// 002   ----------------------------------------
        BYTE           N66     Gn4   v079   gtp1
        BYTE   W72
        BYTE           N03
        BYTE   W08
        BYTE                   En4
        BYTE   W08
        BYTE                   Gn4
        BYTE   W08
// 003   ----------------------------------------
        BYTE           N92     An4   v079   gtp3
        BYTE   W96
// 004   ----------------------------------------
        BYTE           N60     Fn4   v079   gtp3
        BYTE   W72
        BYTE           N03
        BYTE   W08
        BYTE                   Dn4
        BYTE   W08
        BYTE                   Fn4
        BYTE   W08
// 005   ----------------------------------------
        BYTE           N92     Gn4   v079   gtp3
        BYTE   W96
// 006   ----------------------------------------
        BYTE           TIE     An4
        BYTE   W96
// 007   ----------------------------------------
        BYTE   W96
// 008   ----------------------------------------
        BYTE   W96
// 009   ----------------------------------------
        BYTE   W05
        BYTE           EOT
        BYTE   W07
        BYTE           N32     An4   v045   gtp3
        BYTE   W42
        BYTE                   An4   v025
        BYTE   W42
// 010   ----------------------------------------
        BYTE   W96
// 011   ----------------------------------------
        BYTE   W96
// 012   ----------------------------------------
        BYTE   W96
// 013   ----------------------------------------
        BYTE   W96
// 014   ----------------------------------------
        BYTE   W96
// 015   ----------------------------------------
        BYTE   W96
// 016   ----------------------------------------
        BYTE   W96
// 017   ----------------------------------------
        BYTE   W96
// 018   ----------------------------------------
        BYTE   W96
// 019   ----------------------------------------
        BYTE   W96
// 020   ----------------------------------------
        BYTE   W96
// 021   ----------------------------------------
        BYTE   W96
// 022   ----------------------------------------
        BYTE   W96
// 023   ----------------------------------------
        BYTE   W96
// 024   ----------------------------------------
        BYTE   W96
// 025   ----------------------------------------
        BYTE   W96
// 026   ----------------------------------------
        BYTE   W96
// 027   ----------------------------------------
        BYTE   W96
// 028   ----------------------------------------
        BYTE   W96
// 029   ----------------------------------------
        BYTE   W96
// 030   ----------------------------------------
        BYTE   W96
// 031   ----------------------------------------
        BYTE   W96
// 032   ----------------------------------------
        BYTE   W96
// 033   ----------------------------------------
        BYTE   W96
// 034   ----------------------------------------
        BYTE   W96
// 035   ----------------------------------------
        BYTE   W96
// 036   ----------------------------------------
        BYTE   W96
// 037   ----------------------------------------
        BYTE   W96
// 038   ----------------------------------------
        BYTE   W96
// 039   ----------------------------------------
        BYTE   W96
// 040   ----------------------------------------
        BYTE   W96
// 041   ----------------------------------------
        BYTE   W96
// 042   ----------------------------------------
        BYTE   W96
// 043   ----------------------------------------
        BYTE   W96
// 044   ----------------------------------------
        BYTE   W96
// 045   ----------------------------------------
        BYTE   W96
// 046   ----------------------------------------
        BYTE   W96
// 047   ----------------------------------------
        BYTE   W96
// 048   ----------------------------------------
        BYTE   W96
// 049   ----------------------------------------
        BYTE   W96
// 050   ----------------------------------------
        BYTE   W96
// 051   ----------------------------------------
        BYTE   W96
// 052   ----------------------------------------
        BYTE   W96
// 053   ----------------------------------------
        BYTE   W96
// 054   ----------------------------------------
        BYTE   W96
// 055   ----------------------------------------
        BYTE   W96
// 056   ----------------------------------------
        BYTE   W96
// 057   ----------------------------------------
        BYTE   W96
// 058   ----------------------------------------
        BYTE   W96
// 059   ----------------------------------------
        BYTE   W96
// 060   ----------------------------------------
        BYTE   W96
// 061   ----------------------------------------
        BYTE   W96
// 062   ----------------------------------------
        BYTE   W96
// 063   ----------------------------------------
        BYTE   W96
// 064   ----------------------------------------
        BYTE   W96
// 065   ----------------------------------------
        BYTE   W96
// 066   ----------------------------------------
EachJustice_3_66:
        BYTE           N60     Dn4   v090   gtp3
        BYTE   W72
        BYTE           N07     An3   v091
        BYTE   W08
        BYTE                   Dn4
        BYTE   W08
        BYTE                   Fn4
        BYTE   W08
        BYTE   PEND
// 067   ----------------------------------------
EachJustice_3_67:
        BYTE           N68     En4   v098   gtp3
        BYTE   W72
        BYTE           N07     Gn4   v088
        BYTE   W24
        BYTE   PEND
// 068   ----------------------------------------
EachJustice_3_68:
        BYTE           N60     Cs4   v095   gtp3
        BYTE   W72
        BYTE           N07     Gn3   v084
        BYTE   W08
        BYTE                   Cs4
        BYTE   W08
        BYTE                   En4
        BYTE   W08
        BYTE   PEND
// 069   ----------------------------------------
EachJustice_3_69:
        BYTE           N56     Dn4   v098   gtp3
        BYTE   W72
        BYTE           N07     Cn4   v084
        BYTE   W08
        BYTE                   Dn4
        BYTE   W08
        BYTE                   Cn4
        BYTE   W08
        BYTE   PEND
// 070   ----------------------------------------
EachJustice_3_70:
        BYTE           N56     As3   v098   gtp3
        BYTE   W72
        BYTE           N07     Dn3   v084
        BYTE   W08
        BYTE                   Gn3
        BYTE   W08
        BYTE                   As3
        BYTE   W08
        BYTE   PEND
// 071   ----------------------------------------
EachJustice_3_71:
        BYTE           N56     An3   v085   gtp2
        BYTE   W72
        BYTE           N07     An2   v084
        BYTE   W08
        BYTE                   Cs3
        BYTE   W08
        BYTE                   En3
        BYTE   W08
        BYTE   PEND
// 072   ----------------------------------------
EachJustice_3_72:
        BYTE           N56     Fn3   v085   gtp2
        BYTE   W72
        BYTE           N07     An2   v084
        BYTE   W08
        BYTE                   Dn3
        BYTE   W08
        BYTE                   Fn3
        BYTE   W08
        BYTE   PEND
// 073   ----------------------------------------
EachJustice_3_73:
        BYTE           N56     Fs3   v085   gtp2
        BYTE   W72
        BYTE           N07     Bn2   v084
        BYTE   W08
        BYTE                   Ds3
        BYTE   W08
        BYTE                   Fs3
        BYTE   W08
        BYTE   PEND
// 074   ----------------------------------------
EachJustice_3_74:
        BYTE           N56     Gn3   v085   gtp2
        BYTE   W72
        BYTE           N07     Bn2   v084
        BYTE   W08
        BYTE                   Dn3
        BYTE   W08
        BYTE                   Gn3
        BYTE   W08
        BYTE   PEND
// 075   ----------------------------------------
EachJustice_3_75:
        BYTE           N56     Gs3   v085   gtp2
        BYTE   W72
        BYTE           N07     Bn2   v084
        BYTE   W08
        BYTE                   En3
        BYTE   W08
        BYTE                   Gs3
        BYTE   W08
        BYTE   PEND
// 076   ----------------------------------------
EachJustice_3_76:
        BYTE           N56     An3   v085   gtp2
        BYTE   W72
        BYTE           N07     Cn3   v084
        BYTE   W08
        BYTE                   En3
        BYTE   W08
        BYTE                   An3
        BYTE   W08
        BYTE   PEND
// 077   ----------------------------------------
EachJustice_3_77:
        BYTE           N56     As3   v085   gtp2
        BYTE   W72
        BYTE           N07     Cs3   v084
        BYTE   W08
        BYTE                   Fs3
        BYTE   W08
        BYTE                   As3
        BYTE   W08
        BYTE   PEND
// 078   ----------------------------------------
EachJustice_3_78:
        BYTE           N30     Bn3   v085   gtp1
        BYTE   W48
        BYTE                   Bn3
        BYTE   W48
        BYTE   PEND
// 079   ----------------------------------------
EachJustice_3_79:
        BYTE           N30     Bn3   v085   gtp1
        BYTE   W48
        BYTE                   As3
        BYTE   W48
        BYTE   PEND
// 080   ----------------------------------------
EachJustice_3_80:
        BYTE           N07     Bn3   v084
        BYTE   W08
        BYTE                   Gn3
        BYTE   W08
        BYTE                   En3
        BYTE   W08
        BYTE                   Bn3
        BYTE   W08
        BYTE                   Gn3
        BYTE   W08
        BYTE                   En3
        BYTE   W08
        BYTE                   Bn3
        BYTE   W08
        BYTE                   Gn3
        BYTE   W08
        BYTE                   En3
        BYTE   W08
        BYTE                   Bn3
        BYTE   W08
        BYTE                   Gn3
        BYTE   W08
        BYTE                   En3
        BYTE   W08
        BYTE   PEND
// 081   ----------------------------------------
EachJustice_3_81:
        BYTE           N07     En4   v084
        BYTE   W08
        BYTE                   Dn4
        BYTE   W08
        BYTE                   Cs4
        BYTE   W08
        BYTE                   Bn3
        BYTE   W08
        BYTE                   An3
        BYTE   W08
        BYTE                   Gn3
        BYTE   W08
        BYTE                   Gn3
        BYTE   W08
        BYTE                   Fs3
        BYTE   W08
        BYTE                   En3
        BYTE   W08
        BYTE                   En3
        BYTE   W08
        BYTE                   Dn3
        BYTE   W08
        BYTE                   Cs3
        BYTE   W08
        BYTE   PEND
// 082   ----------------------------------------
EachJustice_3_82:
        BYTE           N07     Bn3   v084
        BYTE   W08
        BYTE                   Fs3
        BYTE   W08
        BYTE                   Dn3
        BYTE   W08
        BYTE                   Bn3
        BYTE   W08
        BYTE                   Fs3
        BYTE   W08
        BYTE                   Dn3
        BYTE   W08
        BYTE                   Bn3
        BYTE   W08
        BYTE                   Fs3
        BYTE   W08
        BYTE                   Dn3
        BYTE   W08
        BYTE                   Bn3
        BYTE   W08
        BYTE                   Fs3
        BYTE   W08
        BYTE                   Dn3
        BYTE   W08
        BYTE   PEND
// 083   ----------------------------------------
EachJustice_3_83:
        BYTE           N07     Fs4   v084
        BYTE   W08
        BYTE                   En4
        BYTE   W08
        BYTE                   Dn4
        BYTE   W08
        BYTE                   Dn4
        BYTE   W08
        BYTE                   Cs4
        BYTE   W08
        BYTE                   Bn3
        BYTE   W08
        BYTE                   Bn3
        BYTE   W08
        BYTE                   An3
        BYTE   W08
        BYTE                   Gn3
        BYTE   W08
        BYTE                   Fs3
        BYTE   W08
        BYTE                   En3
        BYTE   W08
        BYTE                   Dn3
        BYTE   W08
        BYTE   PEND
// 084   ----------------------------------------
EachJustice_3_84:
        BYTE           N07     Bn3   v084
        BYTE   W08
        BYTE                   Fn3
        BYTE   W08
        BYTE                   Cs3
        BYTE   W08
        BYTE                   Bn3
        BYTE   W08
        BYTE                   Fn3
        BYTE   W08
        BYTE                   Cs3
        BYTE   W08
        BYTE                   Bn3
        BYTE   W08
        BYTE                   Fn3
        BYTE   W08
        BYTE                   Cs3
        BYTE   W08
        BYTE                   Bn3
        BYTE   W08
        BYTE                   Fn3
        BYTE   W08
        BYTE                   Cs3
        BYTE   W08
        BYTE   PEND
// 085   ----------------------------------------
EachJustice_3_85:
        BYTE           N07     Cs3   v084
        BYTE   W08
        BYTE                   Cn3
        BYTE   W08
        BYTE                   Cs3
        BYTE   W08
        BYTE                   Ds3
        BYTE   W08
        BYTE                   Fn3
        BYTE   W08
        BYTE                   Fs3
        BYTE   W08
        BYTE                   Gs3
        BYTE   W08
        BYTE                   Gn3
        BYTE   W08
        BYTE                   Gs3
        BYTE   W08
        BYTE                   As3
        BYTE   W08
        BYTE                   Bn3
        BYTE   W08
        BYTE                   Cs4
        BYTE   W08
        BYTE   PEND
// 086   ----------------------------------------
EachJustice_3_86:
        BYTE           N07     Dn4   v084
        BYTE   W08
        BYTE                   Bn3
        BYTE   W08
        BYTE                   Fs3
        BYTE   W08
        BYTE                   Dn3
        BYTE   W08
        BYTE                   Fs3
        BYTE   W08
        BYTE                   Bn3
        BYTE   W08
        BYTE                   Dn4
        BYTE   W08
        BYTE                   Bn3
        BYTE   W08
        BYTE                   Fs3
        BYTE   W08
        BYTE                   Bn3
        BYTE   W08
        BYTE                   Fs3
        BYTE   W08
        BYTE                   Dn3
        BYTE   W08
        BYTE   PEND
// 087   ----------------------------------------
EachJustice_3_87:
        BYTE           N07     Cs4   v084
        BYTE   W08
        BYTE                   As3
        BYTE   W08
        BYTE                   Fs3
        BYTE   W08
        BYTE                   Cs3
        BYTE   W08
        BYTE                   Fs3
        BYTE   W08
        BYTE                   As3
        BYTE   W08
        BYTE                   Cs4
        BYTE   W08
        BYTE                   As3
        BYTE   W08
        BYTE                   Fs3
        BYTE   W08
        BYTE                   As3
        BYTE   W08
        BYTE                   Fs3
        BYTE   W08
        BYTE                   Cs3
        BYTE   W08
        BYTE   PEND
// 088   ----------------------------------------
EachJustice_3_88:
        BYTE           N07     Dn4   v084
        BYTE   W08
        BYTE                   Bn3
        BYTE   W08
        BYTE                   Fs3
        BYTE   W08
        BYTE                   Bn3
        BYTE   W08
        BYTE                   Dn4
        BYTE   W08
        BYTE                   Fs4
        BYTE   W08
        BYTE                   Bn4
        BYTE   W08
        BYTE                   Fs4
        BYTE   W08
        BYTE                   Dn4
        BYTE   W08
        BYTE                   Bn3
        BYTE   W08
        BYTE                   Fs3
        BYTE   W08
        BYTE                   Dn3
        BYTE   W08
        BYTE   PEND
// 089   ----------------------------------------
EachJustice_3_89:
        BYTE           N07     Cs4   v084
        BYTE   W08
        BYTE                   As3
        BYTE   W08
        BYTE                   Fs3
        BYTE   W08
        BYTE                   As3
        BYTE   W08
        BYTE                   Cs4
        BYTE   W08
        BYTE                   Fs4
        BYTE   W08
        BYTE                   As4
        BYTE   W08
        BYTE                   Fs4
        BYTE   W08
        BYTE                   Cs4
        BYTE   W08
        BYTE                   As3
        BYTE   W08
        BYTE                   Fs3
        BYTE   W08
        BYTE                   Cs3
        BYTE   W08
        BYTE   PEND
// 090   ----------------------------------------
        BYTE   PATT
         POIN2  EachJustice_3_80
// 091   ----------------------------------------
EachJustice_3_91:
        BYTE           N07     Bn4   v084
        BYTE   W08
        BYTE                   An4
        BYTE   W08
        BYTE                   Gn4
        BYTE   W08
        BYTE                   Gn4
        BYTE   W08
        BYTE                   Fs4
        BYTE   W08
        BYTE                   En4
        BYTE   W08
        BYTE                   Dn4
        BYTE   W08
        BYTE                   Cs4
        BYTE   W08
        BYTE                   Bn3
        BYTE   W08
        BYTE                   Cs4
        BYTE   W08
        BYTE                   Dn4
        BYTE   W08
        BYTE                   En4
        BYTE   W08
        BYTE   PEND
// 092   ----------------------------------------
        BYTE   PATT
         POIN2  EachJustice_3_82
// 093   ----------------------------------------
        BYTE   PATT
         POIN2  EachJustice_3_83
// 094   ----------------------------------------
        BYTE   PATT
         POIN2  EachJustice_3_84
// 095   ----------------------------------------
        BYTE   PATT
         POIN2  EachJustice_3_82
// 096   ----------------------------------------
        BYTE   PATT
         POIN2  EachJustice_3_80
// 097   ----------------------------------------
EachJustice_3_97:
        BYTE           N07     Cs4   v084
        BYTE   W08
        BYTE                   Gs3
        BYTE   W08
        BYTE                   Fn3
        BYTE   W08
        BYTE                   Cs4
        BYTE   W08
        BYTE                   Gs3
        BYTE   W08
        BYTE                   Fn3
        BYTE   W08
        BYTE                   Cs4
        BYTE   W08
        BYTE                   Gs3
        BYTE   W08
        BYTE                   Fn3
        BYTE   W08
        BYTE                   Cs4
        BYTE   W08
        BYTE                   Gs3
        BYTE   W08
        BYTE                   Fn3
        BYTE   W08
        BYTE   PEND
// 098   ----------------------------------------
EachJustice_3_98:
        BYTE           N07     Dn4   v084
        BYTE   W08
        BYTE                   Bn3
        BYTE   W08
        BYTE                   Fs3
        BYTE   W08
        BYTE                   Bn3
        BYTE   W08
        BYTE                   Fs3
        BYTE   W08
        BYTE                   Dn3
        BYTE   W08
        BYTE                   Fs3
        BYTE   W08
        BYTE                   Bn3
        BYTE   W08
        BYTE                   Dn4
        BYTE   W08
        BYTE                   Bn3
        BYTE   W08
        BYTE                   Dn4
        BYTE   W08
        BYTE                   Fs4
        BYTE   W08
        BYTE   PEND
// 099   ----------------------------------------
EachJustice_3_99:
        BYTE           N07     Bn4   v084
        BYTE   W08
        BYTE                   Fs4
        BYTE   W08
        BYTE                   Dn4
        BYTE   W08
        BYTE                   Fs4
        BYTE   W08
        BYTE                   Dn4
        BYTE   W08
        BYTE                   Bn3
        BYTE   W08
        BYTE                   Dn4
        BYTE   W08
        BYTE                   Bn3
        BYTE   W08
        BYTE                   Fs3
        BYTE   W08
        BYTE                   Bn3
        BYTE   W08
        BYTE                   Fs3
        BYTE   W08
        BYTE                   Dn3
        BYTE   W08
        BYTE   PEND
// 100   ----------------------------------------
EachJustice_3_100:
        BYTE           N07     Cs4   v084
        BYTE   W08
        BYTE                   As3
        BYTE   W08
        BYTE                   Fs3
        BYTE   W08
        BYTE                   As3
        BYTE   W08
        BYTE                   Fs3
        BYTE   W08
        BYTE                   Cs3
        BYTE   W08
        BYTE                   Fs3
        BYTE   W08
        BYTE                   As3
        BYTE   W08
        BYTE                   Cs4
        BYTE   W08
        BYTE                   As3
        BYTE   W08
        BYTE                   Cs4
        BYTE   W08
        BYTE                   Fs4
        BYTE   W08
        BYTE   PEND
// 101   ----------------------------------------
EachJustice_3_101:
        BYTE           N07     As4   v084
        BYTE   W08
        BYTE                   Fs4
        BYTE   W08
        BYTE                   Cs4
        BYTE   W08
        BYTE                   Fs4
        BYTE   W08
        BYTE                   Cs4
        BYTE   W08
        BYTE                   As3
        BYTE   W08
        BYTE                   Cs4
        BYTE   W08
        BYTE                   As3
        BYTE   W08
        BYTE                   Fs3
        BYTE   W08
        BYTE                   As3
        BYTE   W08
        BYTE                   Fs3
        BYTE   W08
        BYTE                   Cs3
        BYTE   W08
        BYTE   PEND
// 102   ----------------------------------------
        BYTE   GoTo
         POIN2  EachJustice_3_LOOP
        BYTE   FINE

//****************** Track 4 (Midi-Chn.4) ******************//

EachJustice_4:
        BYTE   KEYSH   EachJustice_key+0
// 000   ----------------------------------------
EachJustice_4_LOOP:
        BYTE           VOICE   83
        BYTE           VOL     26
        BYTE           PAN     c_v+2
        BYTE   W96
// 001   ----------------------------------------
        BYTE   W96
// 002   ----------------------------------------
        BYTE   W96
// 003   ----------------------------------------
        BYTE   W96
// 004   ----------------------------------------
        BYTE   W96
// 005   ----------------------------------------
        BYTE   W96
// 006   ----------------------------------------
        BYTE   W96
// 007   ----------------------------------------
        BYTE   W96
// 008   ----------------------------------------
        BYTE   W96
// 009   ----------------------------------------
        BYTE   W96
// 010   ----------------------------------------
        BYTE           N08     Dn3   v090
        BYTE   W08
        BYTE           N06     Fn3
        BYTE   W08
        BYTE           N09     An3
        BYTE   W08
        BYTE           TIE     Dn4
        BYTE   W24
        BYTE           MOD     1
        BYTE   W48
// 011   ----------------------------------------
EachJustice_4_11:
        BYTE   W30
        BYTE           EOT     Dn4
        BYTE   W10
        BYTE           N08     An3   v090
        BYTE   W04
        BYTE           N07     Dn4
        BYTE   W04
        BYTE           N20     Fn4
        BYTE   W18
        BYTE           N14     En4
        BYTE   W13
        BYTE           N11     Dn4
        BYTE   W17
        BYTE   PEND
// 012   ----------------------------------------
EachJustice_4_12:
        BYTE           N80     Dn4   v090   gtp2
        BYTE   W84
        BYTE           N05     Cn4
        BYTE   W04
        BYTE           N07     Dn4
        BYTE   W08
        BYTE   PEND
// 013   ----------------------------------------
EachJustice_4_13:
        BYTE           N80     Cn4   v090
        BYTE   W80
        BYTE           N03     Gn3   v060
        BYTE   W04
        BYTE                   Dn3   v054
        BYTE   W12
        BYTE   PEND
// 014   ----------------------------------------
EachJustice_4_14:
        BYTE           N09     As2   v090
        BYTE   W08
        BYTE           N05     Dn3
        BYTE   W08
        BYTE           N10     Fn3
        BYTE   W08
        BYTE           TIE     As3
        BYTE   W72
        BYTE   PEND
// 015   ----------------------------------------
EachJustice_4_15:
        BYTE   W28
        BYTE           EOT     As3
        BYTE   W09
        BYTE           N08     Fn3   v090
        BYTE   W06
        BYTE                   As3
        BYTE   W06
        BYTE           N18     Dn4
        BYTE   W17
        BYTE           N16     Cn4
        BYTE   W14
        BYTE           N11     As3
        BYTE   W16
        BYTE   PEND
// 016   ----------------------------------------
EachJustice_4_16:
        BYTE           N80     As3   v090   gtp1
        BYTE   W80
        BYTE   W02
        BYTE           N06     An3
        BYTE   W06
        BYTE           N09     As3
        BYTE   W06
        BYTE           N80     An3
        BYTE   W02
        BYTE   PEND
// 017   ----------------------------------------
EachJustice_4_17:
        BYTE   W80
        BYTE           N03     Fs3   v060
        BYTE   W04
        BYTE                   Dn3
        BYTE   W12
        BYTE   PEND
// 018   ----------------------------------------
EachJustice_4_18:
        BYTE           N10     An2   v090
        BYTE   W08
        BYTE           N07     Cn3
        BYTE   W08
        BYTE           N09     Fs3
        BYTE   W08
        BYTE           TIE     An3
        BYTE   W72
        BYTE   PEND
// 019   ----------------------------------------
EachJustice_4_19:
        BYTE   W24
        BYTE   W01
        BYTE           EOT     An3
        BYTE   W10
        BYTE           N05     Fs3   v090
        BYTE   W06
        BYTE           N07     An3
        BYTE   W07
        BYTE           N17     Ds4
        BYTE   W17
        BYTE                   Dn4
        BYTE   W15
        BYTE           N12     Cn4
        BYTE   W16
        BYTE   PEND
// 020   ----------------------------------------
EachJustice_4_20:
        BYTE           N88     Cn4   v090   gtp1
        BYTE   W84
        BYTE   W02
        BYTE           N05     As3
        BYTE   W06
        BYTE           N10     An3
        BYTE   W04
        BYTE   PEND
// 021   ----------------------------------------
EachJustice_4_21:
        BYTE   W03
        BYTE           N76     As3   v090
        BYTE   W76
        BYTE   W01
        BYTE           N03     Gn3   v060
        BYTE   W04
        BYTE                   Dn3
        BYTE   W08
        BYTE                   Fs3   v080
        BYTE   W04
        BYTE   PEND
// 022   ----------------------------------------
EachJustice_4_22:
        BYTE           N11     Gs3   v090
        BYTE   W08
        BYTE           N06     Bn3
        BYTE   W08
        BYTE           N08     Dn4
        BYTE   W08
        BYTE           TIE     Fn4
        BYTE   W72
        BYTE   PEND
// 023   ----------------------------------------
EachJustice_4_23:
        BYTE   W30
        BYTE   W01
        BYTE           EOT     Fn4
        BYTE   W04
        BYTE           N08     Dn4   v090
        BYTE   W04
        BYTE                   En4
        BYTE   W06
        BYTE           N21     Fn4
        BYTE   W19
        BYTE           N18     En4
        BYTE   W17
        BYTE           N15     Dn4
        BYTE   W15
        BYTE   PEND
// 024   ----------------------------------------
        BYTE           TIE     An4
        BYTE   W96
// 025   ----------------------------------------
        BYTE   W78
        BYTE           EOT
        BYTE   W18
// 026   ----------------------------------------
EachJustice_4_26:
        BYTE           N08     Dn3   v090
        BYTE   W08
        BYTE           N06     Fn3
        BYTE   W08
        BYTE           N09     An3
        BYTE   W08
        BYTE           TIE     Dn4
        BYTE   W72
        BYTE   PEND
// 027   ----------------------------------------
        BYTE   PATT
         POIN2  EachJustice_4_11
// 028   ----------------------------------------
        BYTE   PATT
         POIN2  EachJustice_4_12
// 029   ----------------------------------------
        BYTE   PATT
         POIN2  EachJustice_4_13
// 030   ----------------------------------------
        BYTE   PATT
         POIN2  EachJustice_4_14
// 031   ----------------------------------------
        BYTE   PATT
         POIN2  EachJustice_4_15
// 032   ----------------------------------------
        BYTE   PATT
         POIN2  EachJustice_4_16
// 033   ----------------------------------------
        BYTE   PATT
         POIN2  EachJustice_4_17
// 034   ----------------------------------------
        BYTE   PATT
         POIN2  EachJustice_4_18
// 035   ----------------------------------------
        BYTE   PATT
         POIN2  EachJustice_4_19
// 036   ----------------------------------------
        BYTE   PATT
         POIN2  EachJustice_4_20
// 037   ----------------------------------------
        BYTE   PATT
         POIN2  EachJustice_4_21
// 038   ----------------------------------------
        BYTE   PATT
         POIN2  EachJustice_4_22
// 039   ----------------------------------------
        BYTE   PATT
         POIN2  EachJustice_4_23
// 040   ----------------------------------------
        BYTE           TIE     An4   v090
        BYTE   W96
// 041   ----------------------------------------
        BYTE   W78
        BYTE           EOT
        BYTE   W18
// 042   ----------------------------------------
        BYTE   W96
// 043   ----------------------------------------
        BYTE   W96
// 044   ----------------------------------------
        BYTE   W96
// 045   ----------------------------------------
        BYTE   W96
// 046   ----------------------------------------
        BYTE   W96
// 047   ----------------------------------------
        BYTE   W96
// 048   ----------------------------------------
        BYTE   W96
// 049   ----------------------------------------
        BYTE   W96
// 050   ----------------------------------------
        BYTE   W96
// 051   ----------------------------------------
        BYTE   W96
// 052   ----------------------------------------
        BYTE   W96
// 053   ----------------------------------------
        BYTE   W96
// 054   ----------------------------------------
        BYTE   W96
// 055   ----------------------------------------
        BYTE   W96
// 056   ----------------------------------------
        BYTE   W96
// 057   ----------------------------------------
        BYTE   W96
// 058   ----------------------------------------
        BYTE   W96
// 059   ----------------------------------------
        BYTE   W96
// 060   ----------------------------------------
        BYTE   W96
// 061   ----------------------------------------
        BYTE   W96
// 062   ----------------------------------------
        BYTE   W96
// 063   ----------------------------------------
        BYTE   W96
// 064   ----------------------------------------
        BYTE   W96
// 065   ----------------------------------------
        BYTE           N07     An4   v080
        BYTE   W08
        BYTE                   As4
        BYTE   W08
        BYTE                   An4
        BYTE   W08
        BYTE                   Gn4
        BYTE   W08
        BYTE                   Fn4
        BYTE   W08
        BYTE                   En4
        BYTE   W08
        BYTE                   Cs4
        BYTE   W08
        BYTE                   Dn4
        BYTE   W08
        BYTE                   Cs4
        BYTE   W08
        BYTE                   As3
        BYTE   W08
        BYTE                   An3
        BYTE   W08
        BYTE                   Gn3
        BYTE   W08
// 066   ----------------------------------------
        BYTE   PATT
         POIN2  EachJustice_3_66
// 067   ----------------------------------------
        BYTE   PATT
         POIN2  EachJustice_3_67
// 068   ----------------------------------------
        BYTE   PATT
         POIN2  EachJustice_3_68
// 069   ----------------------------------------
        BYTE   PATT
         POIN2  EachJustice_3_69
// 070   ----------------------------------------
        BYTE   PATT
         POIN2  EachJustice_3_70
// 071   ----------------------------------------
        BYTE   PATT
         POIN2  EachJustice_3_71
// 072   ----------------------------------------
        BYTE   PATT
         POIN2  EachJustice_3_72
// 073   ----------------------------------------
        BYTE   PATT
         POIN2  EachJustice_3_73
// 074   ----------------------------------------
        BYTE   PATT
         POIN2  EachJustice_3_74
// 075   ----------------------------------------
        BYTE   PATT
         POIN2  EachJustice_3_75
// 076   ----------------------------------------
        BYTE   PATT
         POIN2  EachJustice_3_76
// 077   ----------------------------------------
        BYTE   PATT
         POIN2  EachJustice_3_77
// 078   ----------------------------------------
        BYTE   PATT
         POIN2  EachJustice_3_78
// 079   ----------------------------------------
        BYTE   PATT
         POIN2  EachJustice_3_79
// 080   ----------------------------------------
        BYTE   PATT
         POIN2  EachJustice_3_80
// 081   ----------------------------------------
        BYTE   PATT
         POIN2  EachJustice_3_81
// 082   ----------------------------------------
        BYTE   PATT
         POIN2  EachJustice_3_82
// 083   ----------------------------------------
        BYTE   PATT
         POIN2  EachJustice_3_83
// 084   ----------------------------------------
        BYTE   PATT
         POIN2  EachJustice_3_84
// 085   ----------------------------------------
        BYTE   PATT
         POIN2  EachJustice_3_85
// 086   ----------------------------------------
        BYTE   PATT
         POIN2  EachJustice_3_86
// 087   ----------------------------------------
        BYTE   PATT
         POIN2  EachJustice_3_87
// 088   ----------------------------------------
        BYTE   PATT
         POIN2  EachJustice_3_88
// 089   ----------------------------------------
        BYTE   PATT
         POIN2  EachJustice_3_89
// 090   ----------------------------------------
        BYTE   PATT
         POIN2  EachJustice_3_80
// 091   ----------------------------------------
        BYTE   PATT
         POIN2  EachJustice_3_91
// 092   ----------------------------------------
        BYTE   PATT
         POIN2  EachJustice_3_82
// 093   ----------------------------------------
        BYTE   PATT
         POIN2  EachJustice_3_83
// 094   ----------------------------------------
        BYTE   PATT
         POIN2  EachJustice_3_84
// 095   ----------------------------------------
        BYTE   PATT
         POIN2  EachJustice_3_82
// 096   ----------------------------------------
        BYTE   PATT
         POIN2  EachJustice_3_80
// 097   ----------------------------------------
        BYTE   PATT
         POIN2  EachJustice_3_97
// 098   ----------------------------------------
        BYTE   PATT
         POIN2  EachJustice_3_98
// 099   ----------------------------------------
        BYTE   PATT
         POIN2  EachJustice_3_99
// 100   ----------------------------------------
        BYTE   PATT
         POIN2  EachJustice_3_100
// 101   ----------------------------------------
        BYTE   PATT
         POIN2  EachJustice_3_101
// 102   ----------------------------------------
        BYTE           MOD     0
        BYTE   GoTo
         POIN2  EachJustice_4_LOOP
        BYTE   FINE

//****************** Track 5 (Midi-Chn.5) ******************//

EachJustice_5:
        BYTE   KEYSH   EachJustice_key+0
// 000   ----------------------------------------
EachJustice_5_LOOP:
        BYTE           VOICE   19
        BYTE           VOL     14
        BYTE           PAN     c_v+62
        BYTE           TIE     Dn3   v079
        BYTE           TIE     Fn3
        BYTE           TIE     Dn1
        BYTE   W96
// 001   ----------------------------------------
        BYTE   W92
        BYTE   W03
        BYTE           EOT     Dn3
        BYTE                   Fn3
        BYTE                   Dn1
        BYTE   W01
// 002   ----------------------------------------
        BYTE           TIE     Cn3
        BYTE           TIE     En3
        BYTE           TIE     Cn1
        BYTE   W96
// 003   ----------------------------------------
        BYTE   W92
        BYTE   W03
        BYTE           EOT     Cn3
        BYTE                   En3
        BYTE                   Cn1
        BYTE   W01
// 004   ----------------------------------------
        BYTE           N92     As0   v079   gtp3
        BYTE           TIE     As2
        BYTE           TIE     Dn3
        BYTE   W96
// 005   ----------------------------------------
        BYTE           N92     Gn0   v079   gtp3
        BYTE   W92
        BYTE   W03
        BYTE           EOT     As2
        BYTE                   Dn3
        BYTE   W01
// 006   ----------------------------------------
        BYTE           TIE     An0
        BYTE           TIE     An2
        BYTE           TIE     Dn3
        BYTE   W96
// 007   ----------------------------------------
        BYTE   W92
        BYTE   W03
        BYTE           EOT
        BYTE   W01
// 008   ----------------------------------------
        BYTE           TIE     Cs3
        BYTE   W96
// 009   ----------------------------------------
        BYTE   W05
        BYTE           EOT     An0
        BYTE                   An2
        BYTE                   Cs3
        BYTE   W07
        BYTE           N32     Cs3   v044   gtp3
        BYTE   W42
        BYTE                   Cs3   v022
        BYTE   W42
// 010   ----------------------------------------
        BYTE   W96
// 011   ----------------------------------------
        BYTE   W96
// 012   ----------------------------------------
        BYTE   W96
// 013   ----------------------------------------
        BYTE   W96
// 014   ----------------------------------------
        BYTE   W96
// 015   ----------------------------------------
        BYTE   W96
// 016   ----------------------------------------
        BYTE   W96
// 017   ----------------------------------------
        BYTE   W96
// 018   ----------------------------------------
        BYTE   W96
// 019   ----------------------------------------
        BYTE   W96
// 020   ----------------------------------------
        BYTE   W96
// 021   ----------------------------------------
        BYTE   W96
// 022   ----------------------------------------
        BYTE   W96
// 023   ----------------------------------------
        BYTE   W96
// 024   ----------------------------------------
        BYTE   W96
// 025   ----------------------------------------
        BYTE   W96
// 026   ----------------------------------------
        BYTE   W96
// 027   ----------------------------------------
        BYTE   W96
// 028   ----------------------------------------
        BYTE   W96
// 029   ----------------------------------------
        BYTE   W96
// 030   ----------------------------------------
        BYTE   W96
// 031   ----------------------------------------
        BYTE   W96
// 032   ----------------------------------------
        BYTE   W96
// 033   ----------------------------------------
        BYTE   W96
// 034   ----------------------------------------
        BYTE   W96
// 035   ----------------------------------------
        BYTE   W96
// 036   ----------------------------------------
        BYTE   W96
// 037   ----------------------------------------
        BYTE   W96
// 038   ----------------------------------------
        BYTE   W96
// 039   ----------------------------------------
        BYTE   W96
// 040   ----------------------------------------
        BYTE   W96
// 041   ----------------------------------------
        BYTE   W96
// 042   ----------------------------------------
        BYTE   W24
        BYTE           N60     Fn3   v070   gtp3
        BYTE                   An3
        BYTE           N60     Dn4   v070   gtp3
        BYTE   W72
// 043   ----------------------------------------
        BYTE   W24
        BYTE                   Gn3
        BYTE           N60     As3   v070   gtp3
        BYTE                   Dn4
        BYTE   W72
// 044   ----------------------------------------
        BYTE   W24
        BYTE                   Gn3
        BYTE           N60     As3   v070   gtp3
        BYTE                   Cs4
        BYTE   W72
// 045   ----------------------------------------
        BYTE   W24
        BYTE                   An3
        BYTE           N60     Cn4   v070   gtp3
        BYTE                   Ds4
        BYTE   W72
// 046   ----------------------------------------
        BYTE   W24
        BYTE           N54     Gs3   v070   gtp1
        BYTE                   Bn3
        BYTE           N60     Dn4   v070   gtp3
        BYTE   W72
// 047   ----------------------------------------
        BYTE   W24
        BYTE                   Bn3
        BYTE           N60     Dn4   v070   gtp3
        BYTE                   Fn4
        BYTE   W72
// 048   ----------------------------------------
        BYTE   W24
        BYTE                   Dn4
        BYTE           N60     Fn4   v070   gtp3
        BYTE                   Gs4
        BYTE   W72
// 049   ----------------------------------------
        BYTE   W24
        BYTE           N54     Cs4   v070   gtp1
        BYTE                   En4
        BYTE           N54     An4   v070   gtp1
        BYTE   W72
// 050   ----------------------------------------
        BYTE   W96
// 051   ----------------------------------------
        BYTE   W96
// 052   ----------------------------------------
        BYTE   W96
// 053   ----------------------------------------
        BYTE   W96
// 054   ----------------------------------------
        BYTE   W96
// 055   ----------------------------------------
        BYTE   W96
// 056   ----------------------------------------
        BYTE   W96
// 057   ----------------------------------------
        BYTE   W96
// 058   ----------------------------------------
        BYTE   W96
// 059   ----------------------------------------
        BYTE   W96
// 060   ----------------------------------------
        BYTE   W96
// 061   ----------------------------------------
        BYTE   W96
// 062   ----------------------------------------
        BYTE   W96
// 063   ----------------------------------------
        BYTE   W96
// 064   ----------------------------------------
        BYTE   W96
// 065   ----------------------------------------
        BYTE   W96
// 066   ----------------------------------------
        BYTE           N60     Fn3   v082   gtp1
        BYTE           N60     An3   v076   gtp3
        BYTE   W96
// 067   ----------------------------------------
        BYTE           N68     Gn3   v085   gtp3
        BYTE           N72     As3   v076   gtp2
        BYTE   W96
// 068   ----------------------------------------
        BYTE           N60     En3   v076   gtp3
        BYTE                   An3   v073
        BYTE   W96
// 069   ----------------------------------------
        BYTE           N56     Fs3   v086   gtp3
        BYTE                   An3   v088
        BYTE   W96
// 070   ----------------------------------------
        BYTE                   Dn3   v086
        BYTE           N56     Gn3   v088   gtp3
        BYTE   W96
// 071   ----------------------------------------
        BYTE           N56     Cs3   v081
        BYTE           N54     En3   v085   gtp1
        BYTE   W96
// 072   ----------------------------------------
        BYTE           N56     An2   v085   gtp2
        BYTE                   Dn3
        BYTE   W96
// 073   ----------------------------------------
        BYTE                   Bn2
        BYTE           N56     Ds3   v085   gtp2
        BYTE   W96
// 074   ----------------------------------------
        BYTE                   Bn2
        BYTE           N56     Dn3   v085   gtp2
        BYTE   W96
// 075   ----------------------------------------
        BYTE                   Bn2
        BYTE           N56     En3   v085   gtp2
        BYTE   W96
// 076   ----------------------------------------
        BYTE                   Cn3
        BYTE           N56     En3   v085   gtp2
        BYTE   W96
// 077   ----------------------------------------
        BYTE                   Cs3
        BYTE           N56     Fs3   v085   gtp2
        BYTE   W96
// 078   ----------------------------------------
        BYTE           N30     Dn3   v085   gtp1
        BYTE                   Fs3
        BYTE   W48
        BYTE                   En3
        BYTE           N30     Gn3   v085   gtp1
        BYTE   W48
// 079   ----------------------------------------
        BYTE                   Dn3
        BYTE           N30     Fs3   v085   gtp1
        BYTE   W48
        BYTE                   Cs3
        BYTE           N30     Fs3   v085   gtp1
        BYTE   W48
// 080   ----------------------------------------
        BYTE           MOD     3
        BYTE           N30     Gn3   v085   gtp1
        BYTE           N28     Bn3   v092   gtp1
        BYTE   W48
        BYTE           N32     En3   v091
        BYTE   W04
        BYTE           N24     Bn2   v084   gtp3
        BYTE   W44
// 081   ----------------------------------------
        BYTE   W96
// 082   ----------------------------------------
EachJustice_5_82:
        BYTE           N28     Fs3   v093
        BYTE           N24     Bn3   v094   gtp3
        BYTE   W48
        BYTE           N30     Bn2   v082   gtp1
        BYTE           N32     Dn3   v091
        BYTE   W48
        BYTE   PEND
// 083   ----------------------------------------
        BYTE   W96
// 084   ----------------------------------------
        BYTE           N28     Fn3   v093
        BYTE           N24     Bn3   v094   gtp3
        BYTE   W48
        BYTE           N32     Cs3   v091
        BYTE           N30     Fn3   v082   gtp1
        BYTE   W48
// 085   ----------------------------------------
        BYTE   W96
// 086   ----------------------------------------
        BYTE           N24     Fs3   v087   gtp3
        BYTE                   Bn3
        BYTE   W48
        BYTE                   Bn2
        BYTE           N24     Dn3   v087   gtp3
        BYTE   W48
// 087   ----------------------------------------
        BYTE                   Fs3
        BYTE           N24     As3   v087   gtp3
        BYTE   W48
        BYTE                   As2
        BYTE           N24     Cs3   v087   gtp3
        BYTE   W48
// 088   ----------------------------------------
        BYTE           N15     Fs3
        BYTE           N15     Bn3
        BYTE   W24
        BYTE                   Dn3
        BYTE           N15     Fs3
        BYTE   W24
        BYTE                   Fs3
        BYTE           N15     Bn3
        BYTE   W24
        BYTE                   Dn3
        BYTE           N15     Fs3
        BYTE   W24
// 089   ----------------------------------------
        BYTE                   Fs3
        BYTE           N15     As3
        BYTE   W24
        BYTE                   Cs3
        BYTE           N15     Fs3
        BYTE   W24
        BYTE                   Fs3
        BYTE           N15     As3
        BYTE   W24
        BYTE                   Cs3
        BYTE           N15     Fs3
        BYTE   W24
// 090   ----------------------------------------
        BYTE           N30     Gn3   v085   gtp1
        BYTE           N28     Bn3   v092   gtp1
        BYTE   W48
        BYTE           N30     Bn2   v084   gtp1
        BYTE           N32     En3   v091
        BYTE   W48
// 091   ----------------------------------------
        BYTE   W96
// 092   ----------------------------------------
        BYTE   PATT
         POIN2  EachJustice_5_82
// 093   ----------------------------------------
        BYTE   W96
// 094   ----------------------------------------
        BYTE           N24     Fn3   v093   gtp3
        BYTE                   Bn3   v094
        BYTE   W48
        BYTE           N30     Cs3   v092   gtp1
        BYTE                   Fn3
        BYTE   W48
// 095   ----------------------------------------
        BYTE           N24     Fs3   v093   gtp3
        BYTE                   Bn3   v094
        BYTE   W48
        BYTE           N30     Dn3   v092   gtp1
        BYTE                   Fs3
        BYTE   W48
// 096   ----------------------------------------
        BYTE           N24     Gn3   v093   gtp3
        BYTE                   Bn3   v094
        BYTE   W48
        BYTE                   En3   v093
        BYTE           N24     Gn3   v094   gtp3
        BYTE   W48
// 097   ----------------------------------------
        BYTE                   Gs3   v093
        BYTE           N24     Cs4   v094   gtp3
        BYTE   W48
        BYTE                   Fn3   v093
        BYTE           N24     Gs3   v093   gtp3
        BYTE   W48
// 098   ----------------------------------------
        BYTE           N03     Fs3   v094
        BYTE           N03     Bn3
        BYTE   W08
        BYTE                   Fs3
        BYTE           N03     Bn3
        BYTE   W08
        BYTE                   Fs3
        BYTE           N03     Bn3
        BYTE   W08
        BYTE                   Fs3
        BYTE           N03     Bn3
        BYTE   W48
        BYTE                   Fs3
        BYTE           N03     Bn3
        BYTE   W08
        BYTE                   Fs3
        BYTE           N03     Bn3
        BYTE   W08
        BYTE                   Fs3
        BYTE           N03     Bn3
        BYTE   W08
// 099   ----------------------------------------
        BYTE                   Fs3
        BYTE           N03     Bn3
        BYTE   W96
// 100   ----------------------------------------
        BYTE                   Fs3
        BYTE           N03     As3
        BYTE   W08
        BYTE                   Fs3
        BYTE           N03     As3
        BYTE   W08
        BYTE                   Fs3
        BYTE           N03     As3
        BYTE   W08
        BYTE                   Fs3
        BYTE           N03     As3
        BYTE   W48
        BYTE                   Fs3
        BYTE           N03     As3
        BYTE   W08
        BYTE                   Fs3
        BYTE           N03     As3
        BYTE   W08
        BYTE                   Fs3
        BYTE           N03     As3
        BYTE   W08
// 101   ----------------------------------------
        BYTE                   Fs3
        BYTE           N03     As3
        BYTE   W96
// 102   ----------------------------------------
        BYTE           MOD     0
        BYTE   GoTo
         POIN2  EachJustice_5_LOOP
        BYTE   FINE

//****************** Track 6 (Midi-Chn.6) ******************//

EachJustice_6:
        BYTE   KEYSH   EachJustice_key+0
// 000   ----------------------------------------
EachJustice_6_LOOP:
        BYTE           VOICE   19
        BYTE           VOL     10
        BYTE           PAN     c_v+63
        BYTE   W96
// 001   ----------------------------------------
        BYTE   W96
// 002   ----------------------------------------
        BYTE   W96
// 003   ----------------------------------------
        BYTE   W96
// 004   ----------------------------------------
        BYTE   W96
// 005   ----------------------------------------
        BYTE   W96
// 006   ----------------------------------------
        BYTE   W96
// 007   ----------------------------------------
        BYTE   W96
// 008   ----------------------------------------
        BYTE   W96
// 009   ----------------------------------------
        BYTE   W96
// 010   ----------------------------------------
EachJustice_6_10:
        BYTE           TIE     Fn3   v080
        BYTE           TIE     An3
        BYTE           TIE     Dn4
        BYTE   W96
        BYTE   PEND
// 011   ----------------------------------------
EachJustice_6_11:
        BYTE   W84
        BYTE   W01
        BYTE           EOT     Fn3
        BYTE   W02
        BYTE                   Dn4
        BYTE   W02
        BYTE                   An3
        BYTE   W07
        BYTE   PEND
// 012   ----------------------------------------
EachJustice_6_12:
        BYTE           TIE     Gn3   v080
        BYTE           TIE     Dn4
        BYTE   W96
        BYTE   PEND
// 013   ----------------------------------------
EachJustice_6_13:
        BYTE           N92     Cn4   v080   gtp1
        BYTE   W02
        BYTE           EOT     Dn4
        BYTE   W80
        BYTE   W01
        BYTE                   Gn3
        BYTE   W13
        BYTE   PEND
// 014   ----------------------------------------
EachJustice_6_14:
        BYTE           TIE     Dn3   v080
        BYTE           TIE     Fn3
        BYTE           TIE     As3
        BYTE   W96
        BYTE   PEND
// 015   ----------------------------------------
EachJustice_6_15:
        BYTE   W72
        BYTE   W03
        BYTE           EOT     Fn3
        BYTE   W06
        BYTE                   Dn3
        BYTE   W05
        BYTE                   As3
        BYTE   W10
        BYTE   PEND
// 016   ----------------------------------------
EachJustice_6_16:
        BYTE           TIE     En3   v080
        BYTE           TIE     As3
        BYTE   W96
        BYTE   PEND
// 017   ----------------------------------------
EachJustice_6_17:
        BYTE           N80     An3   v080   gtp2
        BYTE   W07
        BYTE           EOT     As3
        BYTE   W78
        BYTE                   En3
        BYTE   W11
        BYTE   PEND
// 018   ----------------------------------------
EachJustice_6_18:
        BYTE           TIE     Ds3   v080
        BYTE           TIE     An3
        BYTE   W96
        BYTE   PEND
// 019   ----------------------------------------
        BYTE   W92
        BYTE   W01
        BYTE           EOT
        BYTE   W03
// 020   ----------------------------------------
EachJustice_6_20:
        BYTE           TIE     Fs3   v080
        BYTE   W80
        BYTE   W03
        BYTE           EOT     Ds3
        BYTE   W13
        BYTE   PEND
// 021   ----------------------------------------
EachJustice_6_21:
        BYTE           N80     Dn3   v080
        BYTE           N80     Gn3   v080   gtp3
        BYTE   W03
        BYTE           EOT     Fs3
        BYTE   W92
        BYTE   W01
        BYTE   PEND
// 022   ----------------------------------------
EachJustice_6_22:
        BYTE           N90     Fn3   v080
        BYTE           N92     Gs3
        BYTE   W96
        BYTE   PEND
// 023   ----------------------------------------
EachJustice_6_23:
        BYTE           N32     Fn3   v080   gtp3
        BYTE           N36     Gs3   v080   gtp3
        BYTE   W48
        BYTE                   Fn3
        BYTE           N40     Gs3
        BYTE           N40     Dn4   v080   gtp1
        BYTE   W48
        BYTE   PEND
// 024   ----------------------------------------
EachJustice_6_24:
        BYTE           N88     En3   v080
        BYTE           N88     An3   v080   gtp1
        BYTE           N92     Dn4
        BYTE   W96
        BYTE   PEND
// 025   ----------------------------------------
EachJustice_6_25:
        BYTE           N88     En3   v080
        BYTE           N84     An3   v080   gtp3
        BYTE           N88     Cs4
        BYTE   W96
        BYTE   PEND
// 026   ----------------------------------------
        BYTE   PATT
         POIN2  EachJustice_6_10
// 027   ----------------------------------------
        BYTE   PATT
         POIN2  EachJustice_6_11
// 028   ----------------------------------------
        BYTE   PATT
         POIN2  EachJustice_6_12
// 029   ----------------------------------------
        BYTE   PATT
         POIN2  EachJustice_6_13
// 030   ----------------------------------------
        BYTE   PATT
         POIN2  EachJustice_6_14
// 031   ----------------------------------------
        BYTE   PATT
         POIN2  EachJustice_6_15
// 032   ----------------------------------------
        BYTE   PATT
         POIN2  EachJustice_6_16
// 033   ----------------------------------------
        BYTE   PATT
         POIN2  EachJustice_6_17
// 034   ----------------------------------------
        BYTE   PATT
         POIN2  EachJustice_6_18
// 035   ----------------------------------------
        BYTE   W92
        BYTE   W01
        BYTE           EOT     An3
        BYTE   W03
// 036   ----------------------------------------
        BYTE   PATT
         POIN2  EachJustice_6_20
// 037   ----------------------------------------
        BYTE   PATT
         POIN2  EachJustice_6_21
// 038   ----------------------------------------
        BYTE   PATT
         POIN2  EachJustice_6_22
// 039   ----------------------------------------
        BYTE   PATT
         POIN2  EachJustice_6_23
// 040   ----------------------------------------
        BYTE   PATT
         POIN2  EachJustice_6_24
// 041   ----------------------------------------
        BYTE   PATT
         POIN2  EachJustice_6_25
// 042   ----------------------------------------
        BYTE   W96
// 043   ----------------------------------------
        BYTE   W96
// 044   ----------------------------------------
        BYTE   W96
// 045   ----------------------------------------
        BYTE   W96
// 046   ----------------------------------------
        BYTE   W96
// 047   ----------------------------------------
        BYTE   W96
// 048   ----------------------------------------
        BYTE   W96
// 049   ----------------------------------------
        BYTE   W96
// 050   ----------------------------------------
        BYTE   W96
// 051   ----------------------------------------
        BYTE   W96
// 052   ----------------------------------------
        BYTE   W96
// 053   ----------------------------------------
        BYTE   W96
// 054   ----------------------------------------
        BYTE   W96
// 055   ----------------------------------------
        BYTE   W96
// 056   ----------------------------------------
        BYTE   W96
// 057   ----------------------------------------
        BYTE   W96
// 058   ----------------------------------------
        BYTE   W96
// 059   ----------------------------------------
        BYTE   W96
// 060   ----------------------------------------
        BYTE   W96
// 061   ----------------------------------------
        BYTE   W96
// 062   ----------------------------------------
        BYTE   W96
// 063   ----------------------------------------
        BYTE   W96
// 064   ----------------------------------------
        BYTE   W96
// 065   ----------------------------------------
        BYTE   W96
// 066   ----------------------------------------
        BYTE   W96
// 067   ----------------------------------------
        BYTE   W96
// 068   ----------------------------------------
        BYTE   W96
// 069   ----------------------------------------
        BYTE   W96
// 070   ----------------------------------------
        BYTE   W96
// 071   ----------------------------------------
        BYTE   W96
// 072   ----------------------------------------
        BYTE   W96
// 073   ----------------------------------------
        BYTE   W96
// 074   ----------------------------------------
        BYTE   W96
// 075   ----------------------------------------
        BYTE   W96
// 076   ----------------------------------------
        BYTE   W96
// 077   ----------------------------------------
        BYTE   W96
// 078   ----------------------------------------
        BYTE   W96
// 079   ----------------------------------------
        BYTE   W96
// 080   ----------------------------------------
        BYTE   W96
// 081   ----------------------------------------
        BYTE   W96
// 082   ----------------------------------------
        BYTE   W96
// 083   ----------------------------------------
        BYTE   W96
// 084   ----------------------------------------
        BYTE   W96
// 085   ----------------------------------------
        BYTE   W96
// 086   ----------------------------------------
        BYTE   W96
// 087   ----------------------------------------
        BYTE   W96
// 088   ----------------------------------------
        BYTE   W96
// 089   ----------------------------------------
        BYTE   W96
// 090   ----------------------------------------
        BYTE   W96
// 091   ----------------------------------------
        BYTE   W96
// 092   ----------------------------------------
        BYTE   W96
// 093   ----------------------------------------
        BYTE   W96
// 094   ----------------------------------------
        BYTE   W96
// 095   ----------------------------------------
        BYTE   W96
// 096   ----------------------------------------
        BYTE   W96
// 097   ----------------------------------------
        BYTE   W96
// 098   ----------------------------------------
        BYTE   W96
// 099   ----------------------------------------
        BYTE   W96
// 100   ----------------------------------------
        BYTE   W96
// 101   ----------------------------------------
        BYTE   W96
// 102   ----------------------------------------
        BYTE   GoTo
         POIN2  EachJustice_6_LOOP
        BYTE   FINE

//****************** Track 7 (Midi-Chn.7) ******************//

EachJustice_7:
        BYTE   KEYSH   EachJustice_key+0
// 000   ----------------------------------------
EachJustice_7_LOOP:
        BYTE           VOICE   2
        BYTE           VOL     28
        BYTE   W96
// 001   ----------------------------------------
        BYTE   W96
// 002   ----------------------------------------
        BYTE   W96
// 003   ----------------------------------------
        BYTE   W96
// 004   ----------------------------------------
        BYTE   W96
// 005   ----------------------------------------
        BYTE   W96
// 006   ----------------------------------------
        BYTE   W96
// 007   ----------------------------------------
        BYTE   W96
// 008   ----------------------------------------
        BYTE   W96
// 009   ----------------------------------------
        BYTE   W96
// 010   ----------------------------------------
        BYTE   W96
// 011   ----------------------------------------
        BYTE   W96
// 012   ----------------------------------------
        BYTE   W96
// 013   ----------------------------------------
        BYTE   W96
// 014   ----------------------------------------
        BYTE   W96
// 015   ----------------------------------------
        BYTE   W96
// 016   ----------------------------------------
        BYTE   W96
// 017   ----------------------------------------
        BYTE   W96
// 018   ----------------------------------------
        BYTE   W96
// 019   ----------------------------------------
        BYTE   W96
// 020   ----------------------------------------
        BYTE   W96
// 021   ----------------------------------------
        BYTE   W96
// 022   ----------------------------------------
        BYTE   W96
// 023   ----------------------------------------
        BYTE   W96
// 024   ----------------------------------------
        BYTE   W96
// 025   ----------------------------------------
        BYTE   W96
// 026   ----------------------------------------
        BYTE   W96
// 027   ----------------------------------------
        BYTE   W96
// 028   ----------------------------------------
        BYTE   W96
// 029   ----------------------------------------
        BYTE   W96
// 030   ----------------------------------------
        BYTE   W96
// 031   ----------------------------------------
        BYTE   W96
// 032   ----------------------------------------
        BYTE   W96
// 033   ----------------------------------------
        BYTE   W96
// 034   ----------------------------------------
        BYTE   W96
// 035   ----------------------------------------
        BYTE   W96
// 036   ----------------------------------------
        BYTE   W96
// 037   ----------------------------------------
        BYTE   W96
// 038   ----------------------------------------
        BYTE   W96
// 039   ----------------------------------------
        BYTE   W96
// 040   ----------------------------------------
        BYTE   W96
// 041   ----------------------------------------
        BYTE   W96
// 042   ----------------------------------------
        BYTE   W96
// 043   ----------------------------------------
        BYTE   W96
// 044   ----------------------------------------
        BYTE   W96
// 045   ----------------------------------------
        BYTE   W96
// 046   ----------------------------------------
        BYTE   W96
// 047   ----------------------------------------
        BYTE   W96
// 048   ----------------------------------------
        BYTE   W96
// 049   ----------------------------------------
        BYTE   W96
// 050   ----------------------------------------
        BYTE   W96
// 051   ----------------------------------------
        BYTE   W96
// 052   ----------------------------------------
        BYTE   W96
// 053   ----------------------------------------
        BYTE   W96
// 054   ----------------------------------------
        BYTE   W96
// 055   ----------------------------------------
        BYTE   W96
// 056   ----------------------------------------
        BYTE   W96
// 057   ----------------------------------------
        BYTE   W96
// 058   ----------------------------------------
        BYTE   W96
// 059   ----------------------------------------
        BYTE   W96
// 060   ----------------------------------------
        BYTE   W96
// 061   ----------------------------------------
        BYTE   W96
// 062   ----------------------------------------
        BYTE   W96
// 063   ----------------------------------------
        BYTE   W96
// 064   ----------------------------------------
        BYTE   W96
// 065   ----------------------------------------
        BYTE   W96
// 066   ----------------------------------------
        BYTE   W96
// 067   ----------------------------------------
        BYTE   W96
// 068   ----------------------------------------
        BYTE   W96
// 069   ----------------------------------------
        BYTE   W96
// 070   ----------------------------------------
        BYTE   W96
// 071   ----------------------------------------
        BYTE   W96
// 072   ----------------------------------------
        BYTE   W96
// 073   ----------------------------------------
        BYTE   W96
// 074   ----------------------------------------
        BYTE   W96
// 075   ----------------------------------------
        BYTE   W96
// 076   ----------------------------------------
        BYTE   W96
// 077   ----------------------------------------
        BYTE   W96
// 078   ----------------------------------------
        BYTE   W96
// 079   ----------------------------------------
        BYTE   W96
// 080   ----------------------------------------
        BYTE           N92     En1   v085   gtp3
        BYTE   W96
// 081   ----------------------------------------
        BYTE   W96
// 082   ----------------------------------------
        BYTE                   Dn1
        BYTE   W96
// 083   ----------------------------------------
        BYTE   W96
// 084   ----------------------------------------
        BYTE                   Cs1
        BYTE   W96
// 085   ----------------------------------------
        BYTE   W96
// 086   ----------------------------------------
        BYTE                   Fs1
        BYTE   W96
// 087   ----------------------------------------
        BYTE                   Fs1
        BYTE   W96
// 088   ----------------------------------------
        BYTE                   Fs1
        BYTE   W96
// 089   ----------------------------------------
        BYTE                   Fs1
        BYTE   W96
// 090   ----------------------------------------
        BYTE   W96
// 091   ----------------------------------------
        BYTE   W96
// 092   ----------------------------------------
        BYTE   W96
// 093   ----------------------------------------
        BYTE   W96
// 094   ----------------------------------------
        BYTE   W96
// 095   ----------------------------------------
        BYTE   W96
// 096   ----------------------------------------
        BYTE   W96
// 097   ----------------------------------------
        BYTE   W96
// 098   ----------------------------------------
        BYTE   W96
// 099   ----------------------------------------
        BYTE   W96
// 100   ----------------------------------------
        BYTE   W96
// 101   ----------------------------------------
        BYTE   W96
// 102   ----------------------------------------
        BYTE   GoTo
         POIN2  EachJustice_7_LOOP
        BYTE   FINE

//****************** Track 8 (Midi-Chn.8) ******************//

EachJustice_8:
        BYTE   KEYSH   EachJustice_key+0
// 000   ----------------------------------------
EachJustice_8_LOOP:
        BYTE           VOICE   84
        BYTE           VOL     25
        BYTE           N07     Dn4   v091
        BYTE   W08
        BYTE                   An3   v090
        BYTE   W08
        BYTE                   Fn3   v087
        BYTE   W08
        BYTE                   Dn4
        BYTE   W08
        BYTE                   An3   v086
        BYTE   W08
        BYTE                   Fn3
        BYTE   W08
        BYTE           MOD     1
        BYTE           N07     Dn4   v085
        BYTE   W08
        BYTE                   An3   v083
        BYTE   W08
        BYTE                   Fn3   v082
        BYTE   W08
        BYTE                   Dn4
        BYTE   W08
        BYTE                   An3   v081
        BYTE   W08
        BYTE                   Fn3
        BYTE   W08
// 001   ----------------------------------------
        BYTE                   Dn4   v080
        BYTE   W08
        BYTE                   As3   v079
        BYTE   W08
        BYTE                   Fn3
        BYTE   W08
        BYTE                   Dn4
        BYTE   W08
        BYTE                   As3
        BYTE   W08
        BYTE                   Fn3   v078
        BYTE   W08
        BYTE                   Dn4
        BYTE   W08
        BYTE                   As3
        BYTE   W08
        BYTE                   Fn3
        BYTE   W08
        BYTE                   Dn4
        BYTE   W08
        BYTE                   As3
        BYTE   W08
        BYTE                   Fn3
        BYTE   W08
// 002   ----------------------------------------
        BYTE                   Cn4
        BYTE   W08
        BYTE                   Gn3
        BYTE   W08
        BYTE                   En3
        BYTE   W08
        BYTE                   Cn4
        BYTE   W08
        BYTE                   Gn3
        BYTE   W08
        BYTE                   En3
        BYTE   W08
        BYTE                   Cn4
        BYTE   W08
        BYTE                   Gn3
        BYTE   W08
        BYTE                   En3
        BYTE   W08
        BYTE                   Cn4
        BYTE   W08
        BYTE                   Gn3
        BYTE   W08
        BYTE                   En3
        BYTE   W08
// 003   ----------------------------------------
        BYTE                   Cn4   v077
        BYTE   W08
        BYTE                   An3
        BYTE   W08
        BYTE                   En3
        BYTE   W08
        BYTE                   Cn4
        BYTE   W08
        BYTE                   An3
        BYTE   W08
        BYTE                   En3
        BYTE   W08
        BYTE                   Cn4
        BYTE   W08
        BYTE                   An3
        BYTE   W08
        BYTE                   En3
        BYTE   W08
        BYTE                   Cn4
        BYTE   W08
        BYTE                   An3
        BYTE   W08
        BYTE                   En3
        BYTE   W08
// 004   ----------------------------------------
        BYTE                   Dn4   v091
        BYTE   W08
        BYTE                   As3   v090
        BYTE   W08
        BYTE                   Fn3   v087
        BYTE   W08
        BYTE                   Dn4
        BYTE   W08
        BYTE                   As3   v086
        BYTE   W08
        BYTE                   Fn3
        BYTE   W08
        BYTE                   Dn4   v085
        BYTE   W08
        BYTE                   As3   v083
        BYTE   W08
        BYTE                   Fn3   v082
        BYTE   W08
        BYTE                   Dn4
        BYTE   W08
        BYTE                   As3   v081
        BYTE   W08
        BYTE                   Fn3
        BYTE   W08
// 005   ----------------------------------------
        BYTE                   Dn4   v080
        BYTE   W08
        BYTE                   As3   v079
        BYTE   W08
        BYTE                   Gn3
        BYTE   W08
        BYTE                   Dn4
        BYTE   W08
        BYTE                   As3
        BYTE   W08
        BYTE                   Gn3   v078
        BYTE   W08
        BYTE                   Dn4
        BYTE   W08
        BYTE                   As3
        BYTE   W08
        BYTE                   Gn3
        BYTE   W08
        BYTE                   Dn4
        BYTE   W08
        BYTE                   As3
        BYTE   W08
        BYTE                   Gn3
        BYTE   W08
// 006   ----------------------------------------
        BYTE                   Dn4
        BYTE   W08
        BYTE                   An3
        BYTE   W08
        BYTE                   En3
        BYTE   W08
        BYTE                   Dn4
        BYTE   W08
        BYTE                   An3
        BYTE   W08
        BYTE                   En3
        BYTE   W08
        BYTE                   Dn4
        BYTE   W08
        BYTE                   An3
        BYTE   W08
        BYTE                   En3
        BYTE   W08
        BYTE                   Dn4
        BYTE   W08
        BYTE                   An3
        BYTE   W08
        BYTE                   En3
        BYTE   W08
// 007   ----------------------------------------
        BYTE                   Dn4   v077
        BYTE   W08
        BYTE                   An3
        BYTE   W08
        BYTE                   En3
        BYTE   W08
        BYTE                   Dn4
        BYTE   W08
        BYTE                   An3
        BYTE   W08
        BYTE                   En3
        BYTE   W08
        BYTE                   Dn4
        BYTE   W08
        BYTE                   An3
        BYTE   W08
        BYTE                   En3
        BYTE   W08
        BYTE                   Dn4
        BYTE   W08
        BYTE                   An3
        BYTE   W08
        BYTE                   En3
        BYTE   W08
// 008   ----------------------------------------
        BYTE                   Cs4
        BYTE   W08
        BYTE                   An3
        BYTE   W08
        BYTE                   En3
        BYTE   W08
        BYTE                   Cs4
        BYTE   W08
        BYTE                   An3
        BYTE   W08
        BYTE                   En3
        BYTE   W08
        BYTE                   Cs4
        BYTE   W08
        BYTE                   An3
        BYTE   W08
        BYTE                   En3
        BYTE   W08
        BYTE                   Cs4
        BYTE   W08
        BYTE                   An3
        BYTE   W08
        BYTE                   En3
        BYTE   W08
// 009   ----------------------------------------
        BYTE                   Cs4
        BYTE   W08
        BYTE                   An3
        BYTE   W08
        BYTE                   En3
        BYTE   W08
        BYTE                   Cs4
        BYTE   W08
        BYTE                   An3
        BYTE   W08
        BYTE                   En3
        BYTE   W08
        BYTE                   Cs4   v038
        BYTE   W08
        BYTE                   An3
        BYTE   W08
        BYTE                   En3
        BYTE   W08
        BYTE                   Cs4
        BYTE   W08
        BYTE                   An3
        BYTE   W08
        BYTE                   En3
        BYTE   W08
// 010   ----------------------------------------
        BYTE   PATT
         POIN2  EachJustice_4_26
// 011   ----------------------------------------
        BYTE   PATT
         POIN2  EachJustice_4_11
// 012   ----------------------------------------
        BYTE   PATT
         POIN2  EachJustice_4_12
// 013   ----------------------------------------
        BYTE   PATT
         POIN2  EachJustice_4_13
// 014   ----------------------------------------
        BYTE   PATT
         POIN2  EachJustice_4_14
// 015   ----------------------------------------
        BYTE   PATT
         POIN2  EachJustice_4_15
// 016   ----------------------------------------
        BYTE   PATT
         POIN2  EachJustice_4_16
// 017   ----------------------------------------
        BYTE   PATT
         POIN2  EachJustice_4_17
// 018   ----------------------------------------
        BYTE   PATT
         POIN2  EachJustice_4_18
// 019   ----------------------------------------
        BYTE   PATT
         POIN2  EachJustice_4_19
// 020   ----------------------------------------
        BYTE   PATT
         POIN2  EachJustice_4_20
// 021   ----------------------------------------
        BYTE   PATT
         POIN2  EachJustice_4_21
// 022   ----------------------------------------
        BYTE   PATT
         POIN2  EachJustice_4_22
// 023   ----------------------------------------
        BYTE   PATT
         POIN2  EachJustice_4_23
// 024   ----------------------------------------
        BYTE           TIE     An4   v090
        BYTE   W96
// 025   ----------------------------------------
        BYTE   W78
        BYTE           EOT
        BYTE   W18
// 026   ----------------------------------------
        BYTE   PATT
         POIN2  EachJustice_4_26
// 027   ----------------------------------------
        BYTE   PATT
         POIN2  EachJustice_4_11
// 028   ----------------------------------------
        BYTE   PATT
         POIN2  EachJustice_4_12
// 029   ----------------------------------------
        BYTE   PATT
         POIN2  EachJustice_4_13
// 030   ----------------------------------------
        BYTE   PATT
         POIN2  EachJustice_4_14
// 031   ----------------------------------------
        BYTE   PATT
         POIN2  EachJustice_4_15
// 032   ----------------------------------------
        BYTE   PATT
         POIN2  EachJustice_4_16
// 033   ----------------------------------------
        BYTE   PATT
         POIN2  EachJustice_4_17
// 034   ----------------------------------------
        BYTE   PATT
         POIN2  EachJustice_4_18
// 035   ----------------------------------------
        BYTE   PATT
         POIN2  EachJustice_4_19
// 036   ----------------------------------------
        BYTE   PATT
         POIN2  EachJustice_4_20
// 037   ----------------------------------------
        BYTE   PATT
         POIN2  EachJustice_4_21
// 038   ----------------------------------------
        BYTE   PATT
         POIN2  EachJustice_4_22
// 039   ----------------------------------------
        BYTE   PATT
         POIN2  EachJustice_4_23
// 040   ----------------------------------------
        BYTE           TIE     An4   v090
        BYTE   W96
// 041   ----------------------------------------
        BYTE   W78
        BYTE           EOT
        BYTE   W18
// 042   ----------------------------------------
        BYTE   W96
// 043   ----------------------------------------
        BYTE   W96
// 044   ----------------------------------------
        BYTE   W96
// 045   ----------------------------------------
        BYTE   W96
// 046   ----------------------------------------
        BYTE   W96
// 047   ----------------------------------------
        BYTE   W96
// 048   ----------------------------------------
        BYTE   W96
// 049   ----------------------------------------
        BYTE   W96
// 050   ----------------------------------------
        BYTE           MOD     0
        BYTE           N07     An4   v101
        BYTE   W08
        BYTE                   As4
        BYTE   W08
        BYTE                   An4
        BYTE   W08
        BYTE                   Gn4
        BYTE   W08
        BYTE                   Fn4
        BYTE   W08
        BYTE                   En4
        BYTE   W08
        BYTE                   Fn4
        BYTE   W08
        BYTE                   Gn4
        BYTE   W08
        BYTE                   Fn4
        BYTE   W08
        BYTE                   En4
        BYTE   W08
        BYTE                   Dn4
        BYTE   W08
        BYTE                   Cn4
        BYTE   W08
// 051   ----------------------------------------
EachJustice_8_51:
        BYTE           N07     As3   v101
        BYTE   W08
        BYTE                   Gn3
        BYTE   W08
        BYTE                   Fn3
        BYTE   W08
        BYTE                   Gn3
        BYTE   W08
        BYTE                   Fn3
        BYTE   W08
        BYTE                   En3
        BYTE   W08
        BYTE                   Fn3
        BYTE   W08
        BYTE                   An3
        BYTE   W08
        BYTE                   Cn4
        BYTE   W08
        BYTE                   Fn3
        BYTE   W08
        BYTE                   An3
        BYTE   W08
        BYTE                   Cn4
        BYTE   W08
        BYTE   PEND
// 052   ----------------------------------------
EachJustice_8_52:
        BYTE           N07     En4   v101
        BYTE   W08
        BYTE                   Fn4
        BYTE   W08
        BYTE                   En4
        BYTE   W08
        BYTE                   Dn4
        BYTE   W08
        BYTE                   Cn4
        BYTE   W08
        BYTE                   Bn3
        BYTE   W08
        BYTE                   Cn4
        BYTE   W08
        BYTE                   Dn4
        BYTE   W08
        BYTE                   Cn4
        BYTE   W08
        BYTE                   Bn3
        BYTE   W08
        BYTE                   An3
        BYTE   W08
        BYTE                   Gn3
        BYTE   W08
        BYTE   PEND
// 053   ----------------------------------------
EachJustice_8_53:
        BYTE           N07     Fn3   v101
        BYTE   W08
        BYTE                   En3
        BYTE   W08
        BYTE                   Dn3
        BYTE   W08
        BYTE                   Dn3
        BYTE   W08
        BYTE                   Cn3
        BYTE   W08
        BYTE                   Bn2
        BYTE   W08
        BYTE                   Cn3
        BYTE   W08
        BYTE                   En3
        BYTE   W08
        BYTE                   Gn3
        BYTE   W08
        BYTE                   Cn3
        BYTE   W08
        BYTE                   En3
        BYTE   W08
        BYTE                   Gn3
        BYTE   W08
        BYTE   PEND
// 054   ----------------------------------------
EachJustice_8_54:
        BYTE           N07     An3   v101
        BYTE   W08
        BYTE                   As3
        BYTE   W08
        BYTE                   An3
        BYTE   W08
        BYTE                   Gn3
        BYTE   W08
        BYTE                   Fn3
        BYTE   W08
        BYTE                   En3
        BYTE   W08
        BYTE                   An3
        BYTE   W08
        BYTE                   As3
        BYTE   W08
        BYTE                   An3
        BYTE   W08
        BYTE                   Gn3
        BYTE   W08
        BYTE                   Fn3
        BYTE   W08
        BYTE                   En3
        BYTE   W08
        BYTE   PEND
// 055   ----------------------------------------
        BYTE   PATT
         POIN2  EachJustice_8_54
// 056   ----------------------------------------
        BYTE   PATT
         POIN2  EachJustice_8_54
// 057   ----------------------------------------
        BYTE   PATT
         POIN2  EachJustice_8_54
// 058   ----------------------------------------
        BYTE           N07     An4   v101
        BYTE   W08
        BYTE                   As4
        BYTE   W08
        BYTE                   An4
        BYTE   W08
        BYTE                   Gn4
        BYTE   W08
        BYTE                   Fn4
        BYTE   W08
        BYTE                   En4
        BYTE   W08
        BYTE                   Fn4
        BYTE   W08
        BYTE                   Gn4
        BYTE   W08
        BYTE                   Fn4
        BYTE   W08
        BYTE                   En4
        BYTE   W08
        BYTE                   Dn4
        BYTE   W08
        BYTE                   Cn4
        BYTE   W08
// 059   ----------------------------------------
        BYTE   PATT
         POIN2  EachJustice_8_51
// 060   ----------------------------------------
        BYTE   PATT
         POIN2  EachJustice_8_52
// 061   ----------------------------------------
        BYTE   PATT
         POIN2  EachJustice_8_53
// 062   ----------------------------------------
        BYTE   PATT
         POIN2  EachJustice_8_54
// 063   ----------------------------------------
        BYTE   PATT
         POIN2  EachJustice_8_54
// 064   ----------------------------------------
        BYTE   PATT
         POIN2  EachJustice_8_54
// 065   ----------------------------------------
        BYTE           N07     An3   v101
        BYTE   W08
        BYTE                   As3
        BYTE   W08
        BYTE                   An3
        BYTE   W08
        BYTE                   Gn3
        BYTE   W08
        BYTE                   Fn3
        BYTE   W08
        BYTE                   En3
        BYTE   W08
        BYTE                   Cs3
        BYTE   W08
        BYTE                   Dn3
        BYTE   W08
        BYTE                   Cs3
        BYTE   W08
        BYTE                   As2
        BYTE   W08
        BYTE                   An2
        BYTE   W08
        BYTE                   Gn2
        BYTE   W08
// 066   ----------------------------------------
EachJustice_8_66:
        BYTE           N07     An3   v074
        BYTE   W08
        BYTE                   Fn3
        BYTE   W08
        BYTE                   Dn3
        BYTE   W08
        BYTE                   An3
        BYTE   W08
        BYTE                   Fn3
        BYTE   W08
        BYTE                   Dn3
        BYTE   W08
        BYTE                   An3
        BYTE   W08
        BYTE                   Fn3
        BYTE   W08
        BYTE                   Dn3
        BYTE   W08
        BYTE                   An3
        BYTE   W08
        BYTE                   Fn3
        BYTE   W08
        BYTE                   Dn3
        BYTE   W08
        BYTE   PEND
// 067   ----------------------------------------
EachJustice_8_67:
        BYTE           N07     As3   v074
        BYTE   W08
        BYTE                   Gn3
        BYTE   W08
        BYTE                   Dn3
        BYTE   W08
        BYTE                   As3
        BYTE   W08
        BYTE                   Gn3
        BYTE   W08
        BYTE                   Dn3
        BYTE   W08
        BYTE                   As3
        BYTE   W08
        BYTE                   Gn3
        BYTE   W08
        BYTE                   Dn3
        BYTE   W08
        BYTE                   As3
        BYTE   W08
        BYTE                   Gn3
        BYTE   W08
        BYTE                   Dn3
        BYTE   W08
        BYTE   PEND
// 068   ----------------------------------------
EachJustice_8_68:
        BYTE           N07     An3   v074
        BYTE   W08
        BYTE                   En3
        BYTE   W08
        BYTE                   Cs3
        BYTE   W08
        BYTE                   An3
        BYTE   W08
        BYTE                   En3
        BYTE   W08
        BYTE                   Cs3
        BYTE   W08
        BYTE                   An3
        BYTE   W08
        BYTE                   En3
        BYTE   W08
        BYTE                   Cs3
        BYTE   W08
        BYTE                   An3
        BYTE   W08
        BYTE                   En3
        BYTE   W08
        BYTE                   Cs3
        BYTE   W08
        BYTE   PEND
// 069   ----------------------------------------
EachJustice_8_69:
        BYTE           N07     An3   v074
        BYTE   W08
        BYTE                   Fs3
        BYTE   W08
        BYTE                   Dn3
        BYTE   W08
        BYTE                   An3
        BYTE   W08
        BYTE                   Fs3
        BYTE   W08
        BYTE                   Dn3
        BYTE   W08
        BYTE                   An3
        BYTE   W08
        BYTE                   Fs3
        BYTE   W08
        BYTE                   Dn3
        BYTE   W08
        BYTE                   An3
        BYTE   W08
        BYTE                   Fs3
        BYTE   W08
        BYTE                   Dn3
        BYTE   W08
        BYTE   PEND
// 070   ----------------------------------------
EachJustice_8_70:
        BYTE           N07     Gn3   v074
        BYTE   W08
        BYTE                   Dn3
        BYTE   W08
        BYTE                   As2
        BYTE   W08
        BYTE                   Gn3
        BYTE   W08
        BYTE                   Dn3
        BYTE   W08
        BYTE                   As2
        BYTE   W08
        BYTE                   Gn3
        BYTE   W08
        BYTE                   Dn3
        BYTE   W08
        BYTE                   As2
        BYTE   W08
        BYTE                   Gn3
        BYTE   W08
        BYTE                   Dn3
        BYTE   W08
        BYTE                   As2
        BYTE   W08
        BYTE   PEND
// 071   ----------------------------------------
        BYTE   PATT
         POIN2  EachJustice_8_68
// 072   ----------------------------------------
EachJustice_8_72:
        BYTE           N07     Fn3   v083
        BYTE   W08
        BYTE                   Dn3
        BYTE   W08
        BYTE                   An2
        BYTE   W08
        BYTE                   Fn3
        BYTE   W08
        BYTE                   Dn3
        BYTE   W08
        BYTE                   An2
        BYTE   W08
        BYTE                   Fn3
        BYTE   W08
        BYTE                   Dn3
        BYTE   W08
        BYTE                   An2
        BYTE   W08
        BYTE                   Fn3
        BYTE   W08
        BYTE                   Dn3
        BYTE   W08
        BYTE                   An2
        BYTE   W08
        BYTE   PEND
// 073   ----------------------------------------
EachJustice_8_73:
        BYTE           N07     Fs3   v083
        BYTE   W08
        BYTE                   Ds3
        BYTE   W08
        BYTE                   Bn2
        BYTE   W08
        BYTE                   Fs3
        BYTE   W08
        BYTE                   Ds3
        BYTE   W08
        BYTE                   Bn2
        BYTE   W08
        BYTE                   Fs3
        BYTE   W08
        BYTE                   Ds3
        BYTE   W08
        BYTE                   Bn2
        BYTE   W08
        BYTE                   Fs3
        BYTE   W08
        BYTE                   Ds3
        BYTE   W08
        BYTE                   Bn2
        BYTE   W08
        BYTE   PEND
// 074   ----------------------------------------
EachJustice_8_74:
        BYTE           N07     Gn3   v083
        BYTE   W08
        BYTE                   Dn3
        BYTE   W08
        BYTE                   Bn2
        BYTE   W08
        BYTE                   Gn3
        BYTE   W08
        BYTE                   Dn3
        BYTE   W08
        BYTE                   Bn2
        BYTE   W08
        BYTE                   Gn3
        BYTE   W08
        BYTE                   Dn3
        BYTE   W08
        BYTE                   Bn2
        BYTE   W08
        BYTE                   Gn3
        BYTE   W08
        BYTE                   Dn3
        BYTE   W08
        BYTE                   Bn2
        BYTE   W08
        BYTE   PEND
// 075   ----------------------------------------
EachJustice_8_75:
        BYTE           N07     Gs3   v083
        BYTE   W08
        BYTE                   En3
        BYTE   W08
        BYTE                   Bn2
        BYTE   W08
        BYTE                   Gs3
        BYTE   W08
        BYTE                   En3
        BYTE   W08
        BYTE                   Bn2
        BYTE   W08
        BYTE                   Gs3
        BYTE   W08
        BYTE                   En3
        BYTE   W08
        BYTE                   Bn2
        BYTE   W08
        BYTE                   Gs3
        BYTE   W08
        BYTE                   En3
        BYTE   W08
        BYTE                   Bn2
        BYTE   W08
        BYTE   PEND
// 076   ----------------------------------------
EachJustice_8_76:
        BYTE           N07     An3   v083
        BYTE   W08
        BYTE                   En3
        BYTE   W08
        BYTE                   Cn3
        BYTE   W08
        BYTE                   An3
        BYTE   W08
        BYTE                   En3
        BYTE   W08
        BYTE                   Cn3
        BYTE   W08
        BYTE                   An3
        BYTE   W08
        BYTE                   En3
        BYTE   W08
        BYTE                   Cn3
        BYTE   W08
        BYTE                   An3
        BYTE   W08
        BYTE                   En3
        BYTE   W08
        BYTE                   Cn3
        BYTE   W08
        BYTE   PEND
// 077   ----------------------------------------
EachJustice_8_77:
        BYTE           N07     As3   v083
        BYTE   W08
        BYTE                   Fs3
        BYTE   W08
        BYTE                   Cs3
        BYTE   W08
        BYTE                   As3
        BYTE   W08
        BYTE                   Fs3
        BYTE   W08
        BYTE                   Cs3
        BYTE   W08
        BYTE                   As3
        BYTE   W08
        BYTE                   Fs3
        BYTE   W08
        BYTE                   Cs3
        BYTE   W08
        BYTE                   As3
        BYTE   W08
        BYTE                   Fs3
        BYTE   W08
        BYTE                   Cs3
        BYTE   W08
        BYTE   PEND
// 078   ----------------------------------------
EachJustice_8_78:
        BYTE           N07     Bn3   v083
        BYTE   W08
        BYTE                   Fs3
        BYTE   W08
        BYTE                   Dn3
        BYTE   W08
        BYTE                   Bn3
        BYTE   W08
        BYTE                   Fs3
        BYTE   W08
        BYTE                   Dn3
        BYTE   W08
        BYTE                   Bn3
        BYTE   W08
        BYTE                   Gn3
        BYTE   W08
        BYTE                   En3
        BYTE   W08
        BYTE                   Bn3
        BYTE   W08
        BYTE                   Gn3
        BYTE   W08
        BYTE                   En3
        BYTE   W08
        BYTE   PEND
// 079   ----------------------------------------
EachJustice_8_79:
        BYTE           N07     Bn3   v083
        BYTE   W08
        BYTE                   Fs3
        BYTE   W08
        BYTE                   Dn3
        BYTE   W08
        BYTE                   Bn3
        BYTE   W08
        BYTE                   Fs3
        BYTE   W08
        BYTE                   Dn3
        BYTE   W08
        BYTE                   As3
        BYTE   W08
        BYTE                   Fs3
        BYTE   W08
        BYTE                   Cs3
        BYTE   W08
        BYTE                   As3
        BYTE   W08
        BYTE                   Fs3
        BYTE   W08
        BYTE                   Cs3
        BYTE   W08
        BYTE   PEND
// 080   ----------------------------------------
        BYTE   W96
// 081   ----------------------------------------
        BYTE   W96
// 082   ----------------------------------------
        BYTE   W96
// 083   ----------------------------------------
        BYTE   W96
// 084   ----------------------------------------
        BYTE   W96
// 085   ----------------------------------------
        BYTE   W96
// 086   ----------------------------------------
        BYTE   W96
// 087   ----------------------------------------
        BYTE   W96
// 088   ----------------------------------------
        BYTE   W96
// 089   ----------------------------------------
        BYTE   W96
// 090   ----------------------------------------
        BYTE   W96
// 091   ----------------------------------------
        BYTE   W96
// 092   ----------------------------------------
        BYTE   W96
// 093   ----------------------------------------
        BYTE   W96
// 094   ----------------------------------------
        BYTE   W96
// 095   ----------------------------------------
        BYTE   W96
// 096   ----------------------------------------
        BYTE   W96
// 097   ----------------------------------------
        BYTE   W96
// 098   ----------------------------------------
        BYTE   W96
// 099   ----------------------------------------
        BYTE   W96
// 100   ----------------------------------------
        BYTE   W96
// 101   ----------------------------------------
        BYTE   W96
// 102   ----------------------------------------
        BYTE   GoTo
         POIN2  EachJustice_8_LOOP
        BYTE   FINE

//***************** Track 9 (Midi-Chn.10) ******************//

EachJustice_9:
        BYTE   KEYSH   EachJustice_key+0
// 000   ----------------------------------------
EachJustice_9_LOOP:
        BYTE           VOICE   84
        BYTE           VOL     22
        BYTE           PAN     c_v+62
        BYTE   W96
// 001   ----------------------------------------
        BYTE   W96
// 002   ----------------------------------------
        BYTE   W96
// 003   ----------------------------------------
        BYTE   W96
// 004   ----------------------------------------
        BYTE   W96
// 005   ----------------------------------------
        BYTE   W96
// 006   ----------------------------------------
        BYTE   W96
// 007   ----------------------------------------
        BYTE   W96
// 008   ----------------------------------------
        BYTE   W96
// 009   ----------------------------------------
        BYTE   W96
// 010   ----------------------------------------
        BYTE   W96
// 011   ----------------------------------------
        BYTE   W96
// 012   ----------------------------------------
        BYTE   W96
// 013   ----------------------------------------
        BYTE   W96
// 014   ----------------------------------------
        BYTE   W96
// 015   ----------------------------------------
        BYTE   W96
// 016   ----------------------------------------
        BYTE   W96
// 017   ----------------------------------------
        BYTE   W96
// 018   ----------------------------------------
        BYTE   W96
// 019   ----------------------------------------
        BYTE   W96
// 020   ----------------------------------------
        BYTE   W96
// 021   ----------------------------------------
        BYTE   W96
// 022   ----------------------------------------
        BYTE   W96
// 023   ----------------------------------------
        BYTE   W96
// 024   ----------------------------------------
        BYTE   W96
// 025   ----------------------------------------
        BYTE   W96
// 026   ----------------------------------------
        BYTE   W96
// 027   ----------------------------------------
        BYTE   W96
// 028   ----------------------------------------
        BYTE   W96
// 029   ----------------------------------------
        BYTE   W96
// 030   ----------------------------------------
        BYTE   W96
// 031   ----------------------------------------
        BYTE   W96
// 032   ----------------------------------------
        BYTE   W96
// 033   ----------------------------------------
        BYTE   W96
// 034   ----------------------------------------
        BYTE   W96
// 035   ----------------------------------------
        BYTE   W96
// 036   ----------------------------------------
        BYTE   W96
// 037   ----------------------------------------
        BYTE   W96
// 038   ----------------------------------------
        BYTE   W96
// 039   ----------------------------------------
        BYTE   W96
// 040   ----------------------------------------
        BYTE   W96
// 041   ----------------------------------------
        BYTE   W96
// 042   ----------------------------------------
        BYTE   W96
// 043   ----------------------------------------
        BYTE   W96
// 044   ----------------------------------------
        BYTE   W96
// 045   ----------------------------------------
        BYTE   W96
// 046   ----------------------------------------
        BYTE   W96
// 047   ----------------------------------------
        BYTE   W96
// 048   ----------------------------------------
        BYTE   W96
// 049   ----------------------------------------
        BYTE   W96
// 050   ----------------------------------------
        BYTE   W96
// 051   ----------------------------------------
        BYTE   W96
// 052   ----------------------------------------
        BYTE   W96
// 053   ----------------------------------------
        BYTE   W96
// 054   ----------------------------------------
EachJustice_9_54:
        BYTE   W48
        BYTE           N07     Cs3   v094
        BYTE   W08
        BYTE                   Dn3
        BYTE   W08
        BYTE                   Cs3
        BYTE   W08
        BYTE                   As2
        BYTE   W08
        BYTE                   An2
        BYTE   W08
        BYTE                   Gn2
        BYTE   W08
        BYTE   PEND
// 055   ----------------------------------------
EachJustice_9_55:
        BYTE   W48
        BYTE           N07     Cs2   v094
        BYTE   W08
        BYTE                   Dn2
        BYTE   W08
        BYTE                   Cs2
        BYTE   W08
        BYTE                   As1
        BYTE   W08
        BYTE                   An1
        BYTE   W08
        BYTE                   Gn1
        BYTE   W08
        BYTE   PEND
// 056   ----------------------------------------
        BYTE   PATT
         POIN2  EachJustice_9_54
// 057   ----------------------------------------
        BYTE   PATT
         POIN2  EachJustice_9_55
// 058   ----------------------------------------
        BYTE   W96
// 059   ----------------------------------------
        BYTE   W96
// 060   ----------------------------------------
        BYTE   W96
// 061   ----------------------------------------
        BYTE   W96
// 062   ----------------------------------------
        BYTE   PATT
         POIN2  EachJustice_9_54
// 063   ----------------------------------------
        BYTE   PATT
         POIN2  EachJustice_9_55
// 064   ----------------------------------------
        BYTE   PATT
         POIN2  EachJustice_9_54
// 065   ----------------------------------------
        BYTE   W48
        BYTE           N07     Cs2   v094
        BYTE           N07     Cs3   v084
        BYTE   W08
        BYTE                   Dn2   v094
        BYTE           N07     Dn3   v084
        BYTE   W08
        BYTE                   Cs2   v094
        BYTE           N07     Cs3   v084
        BYTE   W08
        BYTE                   As1   v094
        BYTE           N07     As2   v084
        BYTE   W08
        BYTE                   An1   v094
        BYTE           N07     An2   v084
        BYTE   W08
        BYTE                   Gn1   v094
        BYTE           N07     Gn2   v084
        BYTE   W08
// 066   ----------------------------------------
        BYTE   W96
// 067   ----------------------------------------
        BYTE   W96
// 068   ----------------------------------------
        BYTE   W96
// 069   ----------------------------------------
        BYTE   W96
// 070   ----------------------------------------
        BYTE   W96
// 071   ----------------------------------------
        BYTE   W96
// 072   ----------------------------------------
        BYTE   W96
// 073   ----------------------------------------
        BYTE   W96
// 074   ----------------------------------------
        BYTE   W96
// 075   ----------------------------------------
        BYTE   W96
// 076   ----------------------------------------
        BYTE   W96
// 077   ----------------------------------------
        BYTE   W96
// 078   ----------------------------------------
        BYTE   W96
// 079   ----------------------------------------
        BYTE   W96
// 080   ----------------------------------------
        BYTE   W96
// 081   ----------------------------------------
        BYTE   W96
// 082   ----------------------------------------
        BYTE   W96
// 083   ----------------------------------------
        BYTE   W96
// 084   ----------------------------------------
        BYTE   W96
// 085   ----------------------------------------
        BYTE   W96
// 086   ----------------------------------------
        BYTE   W96
// 087   ----------------------------------------
        BYTE   W96
// 088   ----------------------------------------
        BYTE   W96
// 089   ----------------------------------------
        BYTE   W96
// 090   ----------------------------------------
        BYTE   W96
// 091   ----------------------------------------
        BYTE   W96
// 092   ----------------------------------------
        BYTE   W96
// 093   ----------------------------------------
        BYTE   W96
// 094   ----------------------------------------
        BYTE   W96
// 095   ----------------------------------------
        BYTE   W96
// 096   ----------------------------------------
        BYTE   W96
// 097   ----------------------------------------
        BYTE   W96
// 098   ----------------------------------------
        BYTE   W96
// 099   ----------------------------------------
        BYTE   W96
// 100   ----------------------------------------
        BYTE   W96
// 101   ----------------------------------------
        BYTE   W96
// 102   ----------------------------------------
        BYTE   GoTo
         POIN2  EachJustice_9_LOOP
        BYTE   FINE

//***************** Track 10 (Midi-Chn.11) *****************//

EachJustice_10:
        BYTE   KEYSH   EachJustice_key+0
// 000   ----------------------------------------
EachJustice_10_LOOP:
        BYTE           VOICE   114
        BYTE           VOL     17
        BYTE           BEND    c_v+2
        BYTE   W09
        BYTE           N08     Dn4   v091
        BYTE   W08
        BYTE                   An3   v090
        BYTE   W08
        BYTE                   Fn3   v087
        BYTE   W08
        BYTE                   Dn4
        BYTE   W08
        BYTE                   An3   v086
        BYTE   W08
        BYTE                   Fn3
        BYTE   W08
        BYTE           MOD     1
        BYTE           N08     Dn4   v085
        BYTE   W08
        BYTE                   An3   v083
        BYTE   W08
        BYTE                   Fn3   v082
        BYTE   W08
        BYTE                   Dn4
        BYTE   W08
        BYTE                   An3   v081
        BYTE   W07
// 001   ----------------------------------------
        BYTE   W01
        BYTE                   Fn3
        BYTE   W08
        BYTE                   Dn4   v080
        BYTE   W08
        BYTE                   As3   v079
        BYTE   W08
        BYTE                   Fn3
        BYTE   W08
        BYTE                   Dn4
        BYTE   W08
        BYTE                   As3
        BYTE   W08
        BYTE                   Fn3   v078
        BYTE   W08
        BYTE                   Dn4
        BYTE   W08
        BYTE                   As3
        BYTE   W08
        BYTE                   Fn3
        BYTE   W08
        BYTE                   Dn4
        BYTE   W08
        BYTE                   As3
        BYTE   W07
// 002   ----------------------------------------
        BYTE   W01
        BYTE                   Fn3
        BYTE   W08
        BYTE                   Cn4
        BYTE   W08
        BYTE                   Gn3
        BYTE   W08
        BYTE                   En3
        BYTE   W08
        BYTE                   Cn4
        BYTE   W08
        BYTE                   Gn3
        BYTE   W08
        BYTE                   En3
        BYTE   W08
        BYTE                   Cn4
        BYTE   W08
        BYTE                   Gn3
        BYTE   W08
        BYTE                   En3
        BYTE   W08
        BYTE                   Cn4
        BYTE   W08
        BYTE                   Gn3
        BYTE   W07
// 003   ----------------------------------------
        BYTE   W01
        BYTE                   En3
        BYTE   W08
        BYTE                   Cn4   v077
        BYTE   W08
        BYTE                   An3
        BYTE   W08
        BYTE                   En3
        BYTE   W08
        BYTE                   Cn4
        BYTE   W08
        BYTE                   An3
        BYTE   W08
        BYTE                   En3
        BYTE   W08
        BYTE                   Cn4
        BYTE   W08
        BYTE                   An3
        BYTE   W08
        BYTE                   En3
        BYTE   W08
        BYTE                   Cn4
        BYTE   W08
        BYTE                   An3
        BYTE   W07
// 004   ----------------------------------------
        BYTE   W01
        BYTE                   En3
        BYTE   W08
        BYTE                   Dn4   v091
        BYTE   W08
        BYTE                   As3   v090
        BYTE   W08
        BYTE                   Fn3   v087
        BYTE   W08
        BYTE                   Dn4
        BYTE   W08
        BYTE                   As3   v086
        BYTE   W08
        BYTE                   Fn3
        BYTE   W08
        BYTE                   Dn4   v085
        BYTE   W08
        BYTE                   As3   v083
        BYTE   W08
        BYTE                   Fn3   v082
        BYTE   W08
        BYTE                   Dn4
        BYTE   W08
        BYTE                   As3   v081
        BYTE   W07
// 005   ----------------------------------------
        BYTE   W01
        BYTE                   Fn3
        BYTE   W08
        BYTE                   Dn4   v080
        BYTE   W08
        BYTE                   As3   v079
        BYTE   W08
        BYTE                   Gn3
        BYTE   W08
        BYTE                   Dn4
        BYTE   W08
        BYTE                   As3
        BYTE   W08
        BYTE                   Gn3   v078
        BYTE   W08
        BYTE                   Dn4
        BYTE   W08
        BYTE                   As3
        BYTE   W08
        BYTE                   Gn3
        BYTE   W08
        BYTE                   Dn4
        BYTE   W08
        BYTE                   As3
        BYTE   W07
// 006   ----------------------------------------
        BYTE   W01
        BYTE                   Gn3
        BYTE   W08
        BYTE                   Dn4
        BYTE   W08
        BYTE                   An3
        BYTE   W08
        BYTE                   En3
        BYTE   W08
        BYTE                   Dn4
        BYTE   W08
        BYTE                   An3
        BYTE   W08
        BYTE                   En3
        BYTE   W08
        BYTE                   Dn4
        BYTE   W08
        BYTE                   An3
        BYTE   W08
        BYTE                   En3
        BYTE   W08
        BYTE                   Dn4
        BYTE   W08
        BYTE                   An3
        BYTE   W07
// 007   ----------------------------------------
        BYTE   W01
        BYTE                   En3
        BYTE   W08
        BYTE                   Dn4   v077
        BYTE   W08
        BYTE                   An3
        BYTE   W08
        BYTE                   En3
        BYTE   W08
        BYTE                   Dn4
        BYTE   W08
        BYTE                   An3
        BYTE   W08
        BYTE                   En3
        BYTE   W08
        BYTE                   Dn4
        BYTE   W08
        BYTE                   An3
        BYTE   W08
        BYTE                   En3
        BYTE   W08
        BYTE                   Dn4
        BYTE   W08
        BYTE                   An3
        BYTE   W07
// 008   ----------------------------------------
        BYTE   W01
        BYTE                   En3
        BYTE   W08
        BYTE                   Cs4
        BYTE   W08
        BYTE                   An3
        BYTE   W08
        BYTE                   En3
        BYTE   W08
        BYTE                   Cs4
        BYTE   W08
        BYTE                   An3
        BYTE   W08
        BYTE                   En3
        BYTE   W08
        BYTE                   Cs4
        BYTE   W08
        BYTE                   An3
        BYTE   W08
        BYTE                   En3
        BYTE   W08
        BYTE                   Cs4
        BYTE   W08
        BYTE                   An3
        BYTE   W07
// 009   ----------------------------------------
        BYTE   W01
        BYTE                   En3
        BYTE   W08
        BYTE                   Cs4   v045
        BYTE   W08
        BYTE                   An3
        BYTE   W08
        BYTE                   En3
        BYTE   W08
        BYTE                   Cs4
        BYTE   W08
        BYTE                   An3
        BYTE   W08
        BYTE                   En3
        BYTE   W08
        BYTE                   Cs4   v038
        BYTE   W08
        BYTE                   An3
        BYTE   W08
        BYTE                   En3
        BYTE   W08
        BYTE                   Cs4
        BYTE   W08
        BYTE                   An3
        BYTE   W07
// 010   ----------------------------------------
        BYTE   W01
        BYTE                   En3
        BYTE   W08
        BYTE                   Dn3   v090
        BYTE   W08
        BYTE           N06     Fn3
        BYTE   W08
        BYTE           N10     An3
        BYTE   W08
        BYTE           TIE     Dn4
        BYTE   W60
        BYTE   W03
// 011   ----------------------------------------
EachJustice_10_11:
        BYTE   W36
        BYTE   W03
        BYTE           EOT     Dn4
        BYTE   W10
        BYTE           N08     An3   v090
        BYTE   W04
        BYTE                   Dn4
        BYTE   W04
        BYTE           N21     Fn4
        BYTE   W19
        BYTE           N14     En4
        BYTE   W13
        BYTE           N11     Dn4
        BYTE   W07
        BYTE   PEND
// 012   ----------------------------------------
EachJustice_10_12:
        BYTE   W10
        BYTE           N80     Dn4   v090   gtp2
        BYTE   W80
        BYTE   W03
        BYTE           N06     Cn4
        BYTE   W03
        BYTE   PEND
// 013   ----------------------------------------
EachJustice_10_13:
        BYTE   W01
        BYTE           N08     Dn4   v090
        BYTE   W08
        BYTE           N80     Cn4
        BYTE   W80
        BYTE           N04     Gn3   v060
        BYTE   W04
        BYTE                   Dn3   v054
        BYTE   W03
        BYTE   PEND
// 014   ----------------------------------------
EachJustice_10_14:
        BYTE   W09
        BYTE           N10     As2   v090
        BYTE   W08
        BYTE           N05     Dn3
        BYTE   W08
        BYTE           N10     Fn3
        BYTE   W08
        BYTE           TIE     As3
        BYTE   W60
        BYTE   W03
        BYTE   PEND
// 015   ----------------------------------------
EachJustice_10_15:
        BYTE   W36
        BYTE   W01
        BYTE           EOT     As3
        BYTE   W09
        BYTE           N09     Fn3   v090
        BYTE   W06
        BYTE           N08     As3
        BYTE   W07
        BYTE           N18     Dn4
        BYTE   W16
        BYTE           N16     Cn4
        BYTE   W14
        BYTE           N12     As3
        BYTE   W07
        BYTE   PEND
// 016   ----------------------------------------
EachJustice_10_16:
        BYTE   W09
        BYTE           N80     As3   v090   gtp1
        BYTE   W80
        BYTE   W03
        BYTE           N06     An3
        BYTE   W04
        BYTE   PEND
// 017   ----------------------------------------
EachJustice_10_17:
        BYTE   W02
        BYTE           N08     As3   v090
        BYTE   W06
        BYTE           N80     An3
        BYTE   W80
        BYTE   W01
        BYTE           N04     Fs3   v060
        BYTE   W04
        BYTE                   Dn3
        BYTE   W03
        BYTE   PEND
// 018   ----------------------------------------
EachJustice_10_18:
        BYTE   W09
        BYTE           N10     An2   v090
        BYTE   W08
        BYTE           N08     Cn3
        BYTE   W08
        BYTE           N10     Fs3
        BYTE   W08
        BYTE           TIE     An3
        BYTE   W60
        BYTE   W03
        BYTE   PEND
// 019   ----------------------------------------
EachJustice_10_19:
        BYTE   W32
        BYTE   W02
        BYTE           EOT     An3
        BYTE   W11
        BYTE           N05     Fs3   v090
        BYTE   W05
        BYTE           N07     An3
        BYTE   W07
        BYTE           N17     Ds4
        BYTE   W17
        BYTE                   Dn4
        BYTE   W15
        BYTE           N12     Cn4
        BYTE   W07
        BYTE   PEND
// 020   ----------------------------------------
EachJustice_10_20:
        BYTE   W10
        BYTE           N88     Cn4   v090   gtp1
        BYTE   W84
        BYTE   W02
        BYTE   PEND
// 021   ----------------------------------------
EachJustice_10_21:
        BYTE           N05     As3   v090
        BYTE   W05
        BYTE           N10     An3
        BYTE   W08
        BYTE           N72     As3   v090   gtp3
        BYTE   W76
        BYTE           N04     Gn3   v060
        BYTE   W04
        BYTE                   Dn3
        BYTE   W03
        BYTE   PEND
// 022   ----------------------------------------
EachJustice_10_22:
        BYTE   W05
        BYTE           N04     Fs3   v080
        BYTE   W04
        BYTE           N11     Gs3   v090
        BYTE   W08
        BYTE           N07     Bn3
        BYTE   W08
        BYTE           N09     Dn4
        BYTE   W08
        BYTE           TIE     Fn4
        BYTE   W60
        BYTE   W03
        BYTE   PEND
// 023   ----------------------------------------
EachJustice_10_23:
        BYTE   W40
        BYTE           EOT     Fn4
        BYTE   W04
        BYTE           N09     Dn4   v090
        BYTE   W05
        BYTE           N08     En4
        BYTE   W06
        BYTE           N21     Fn4
        BYTE   W19
        BYTE           N18     En4
        BYTE   W17
        BYTE           N14     Dn4
        BYTE   W05
        BYTE   PEND
// 024   ----------------------------------------
        BYTE   W09
        BYTE           TIE     An4
        BYTE   W84
        BYTE   W03
// 025   ----------------------------------------
        BYTE   W88
        BYTE           EOT
        BYTE   W08
// 026   ----------------------------------------
        BYTE   W09
        BYTE           N08     Dn3
        BYTE   W08
        BYTE           N06     Fn3
        BYTE   W08
        BYTE           N10     An3
        BYTE   W08
        BYTE           TIE     Dn4
        BYTE   W60
        BYTE   W03
// 027   ----------------------------------------
        BYTE   PATT
         POIN2  EachJustice_10_11
// 028   ----------------------------------------
        BYTE   PATT
         POIN2  EachJustice_10_12
// 029   ----------------------------------------
        BYTE   PATT
         POIN2  EachJustice_10_13
// 030   ----------------------------------------
        BYTE   PATT
         POIN2  EachJustice_10_14
// 031   ----------------------------------------
        BYTE   PATT
         POIN2  EachJustice_10_15
// 032   ----------------------------------------
        BYTE   PATT
         POIN2  EachJustice_10_16
// 033   ----------------------------------------
        BYTE   PATT
         POIN2  EachJustice_10_17
// 034   ----------------------------------------
        BYTE   PATT
         POIN2  EachJustice_10_18
// 035   ----------------------------------------
        BYTE   PATT
         POIN2  EachJustice_10_19
// 036   ----------------------------------------
        BYTE   PATT
         POIN2  EachJustice_10_20
// 037   ----------------------------------------
        BYTE   PATT
         POIN2  EachJustice_10_21
// 038   ----------------------------------------
        BYTE   PATT
         POIN2  EachJustice_10_22
// 039   ----------------------------------------
        BYTE   PATT
         POIN2  EachJustice_10_23
// 040   ----------------------------------------
        BYTE   W09
        BYTE           TIE     An4   v090
        BYTE   W84
        BYTE   W03
// 041   ----------------------------------------
        BYTE   W88
        BYTE           EOT
        BYTE   W08
// 042   ----------------------------------------
        BYTE   W96
// 043   ----------------------------------------
        BYTE   W96
// 044   ----------------------------------------
        BYTE   W96
// 045   ----------------------------------------
        BYTE   W96
// 046   ----------------------------------------
        BYTE   W96
// 047   ----------------------------------------
        BYTE   W96
// 048   ----------------------------------------
        BYTE   W96
// 049   ----------------------------------------
        BYTE   W96
// 050   ----------------------------------------
        BYTE   W09
        BYTE           MOD     0
        BYTE           N08     An4   v091
        BYTE   W08
        BYTE                   As4
        BYTE   W08
        BYTE                   An4
        BYTE   W08
        BYTE                   Gn4
        BYTE   W08
        BYTE                   Fn4
        BYTE   W08
        BYTE                   En4
        BYTE   W08
        BYTE                   Fn4
        BYTE   W08
        BYTE                   Gn4
        BYTE   W08
        BYTE                   Fn4
        BYTE   W08
        BYTE                   En4
        BYTE   W08
        BYTE                   Dn4
        BYTE   W07
// 051   ----------------------------------------
EachJustice_10_51:
        BYTE   W01
        BYTE           N08     Cn4   v091
        BYTE   W08
        BYTE                   As3
        BYTE   W08
        BYTE                   Gn3
        BYTE   W08
        BYTE                   Fn3
        BYTE   W08
        BYTE                   Gn3
        BYTE   W08
        BYTE                   Fn3
        BYTE   W08
        BYTE                   En3
        BYTE   W08
        BYTE                   Fn3
        BYTE   W08
        BYTE                   An3
        BYTE   W08
        BYTE                   Cn4
        BYTE   W08
        BYTE                   Fn3
        BYTE   W08
        BYTE                   An3
        BYTE   W07
        BYTE   PEND
// 052   ----------------------------------------
EachJustice_10_52:
        BYTE   W01
        BYTE           N08     Cn4   v091
        BYTE   W08
        BYTE                   En4
        BYTE   W08
        BYTE                   Fn4
        BYTE   W08
        BYTE                   En4
        BYTE   W08
        BYTE                   Dn4
        BYTE   W08
        BYTE                   Cn4
        BYTE   W08
        BYTE                   Bn3
        BYTE   W08
        BYTE                   Cn4
        BYTE   W08
        BYTE                   Dn4
        BYTE   W08
        BYTE                   Cn4
        BYTE   W08
        BYTE                   Bn3
        BYTE   W08
        BYTE                   An3
        BYTE   W07
        BYTE   PEND
// 053   ----------------------------------------
EachJustice_10_53:
        BYTE   W01
        BYTE           N08     Gn3   v091
        BYTE   W08
        BYTE                   Fn3
        BYTE   W08
        BYTE                   En3
        BYTE   W08
        BYTE                   Dn3
        BYTE   W08
        BYTE                   Dn3
        BYTE   W08
        BYTE                   Cn3
        BYTE   W08
        BYTE                   Bn2
        BYTE   W08
        BYTE                   Cn3
        BYTE   W08
        BYTE                   En3
        BYTE   W08
        BYTE                   Gn3
        BYTE   W08
        BYTE                   Cn3
        BYTE   W08
        BYTE                   En3
        BYTE   W07
        BYTE   PEND
// 054   ----------------------------------------
EachJustice_10_54:
        BYTE   W01
        BYTE           N08     Gn3   v091
        BYTE   W08
        BYTE                   An3
        BYTE   W08
        BYTE                   As3
        BYTE   W08
        BYTE                   An3
        BYTE   W08
        BYTE                   Gn3
        BYTE   W08
        BYTE                   Fn3
        BYTE   W08
        BYTE                   En3
        BYTE   W08
        BYTE                   An3
        BYTE   W08
        BYTE                   As3
        BYTE   W08
        BYTE                   An3
        BYTE   W08
        BYTE                   Gn3
        BYTE   W08
        BYTE                   Fn3
        BYTE   W07
        BYTE   PEND
// 055   ----------------------------------------
EachJustice_10_55:
        BYTE   W01
        BYTE           N08     En3   v091
        BYTE   W08
        BYTE                   An3
        BYTE   W08
        BYTE                   As3
        BYTE   W08
        BYTE                   An3
        BYTE   W08
        BYTE                   Gn3
        BYTE   W08
        BYTE                   Fn3
        BYTE   W08
        BYTE                   En3
        BYTE   W08
        BYTE                   An3
        BYTE   W08
        BYTE                   As3
        BYTE   W08
        BYTE                   An3
        BYTE   W08
        BYTE                   Gn3
        BYTE   W08
        BYTE                   Fn3
        BYTE   W07
        BYTE   PEND
// 056   ----------------------------------------
        BYTE   PATT
         POIN2  EachJustice_10_55
// 057   ----------------------------------------
        BYTE   PATT
         POIN2  EachJustice_10_55
// 058   ----------------------------------------
        BYTE   W01
        BYTE           N08     En3   v091
        BYTE   W08
        BYTE                   An4
        BYTE   W08
        BYTE                   As4
        BYTE   W08
        BYTE                   An4
        BYTE   W08
        BYTE                   Gn4
        BYTE   W08
        BYTE                   Fn4
        BYTE   W08
        BYTE                   En4
        BYTE   W08
        BYTE                   Fn4
        BYTE   W08
        BYTE                   Gn4
        BYTE   W08
        BYTE                   Fn4
        BYTE   W08
        BYTE                   En4
        BYTE   W08
        BYTE                   Dn4
        BYTE   W07
// 059   ----------------------------------------
        BYTE   PATT
         POIN2  EachJustice_10_51
// 060   ----------------------------------------
        BYTE   PATT
         POIN2  EachJustice_10_52
// 061   ----------------------------------------
        BYTE   PATT
         POIN2  EachJustice_10_53
// 062   ----------------------------------------
        BYTE   PATT
         POIN2  EachJustice_10_54
// 063   ----------------------------------------
        BYTE   PATT
         POIN2  EachJustice_10_55
// 064   ----------------------------------------
        BYTE   PATT
         POIN2  EachJustice_10_55
// 065   ----------------------------------------
        BYTE   W01
        BYTE           N08     En3   v091
        BYTE   W08
        BYTE                   An3
        BYTE   W08
        BYTE                   As3
        BYTE   W08
        BYTE                   An3
        BYTE   W08
        BYTE                   Gn3
        BYTE   W08
        BYTE                   Fn3
        BYTE   W08
        BYTE                   En3
        BYTE   W08
        BYTE                   Cs3
        BYTE   W08
        BYTE                   Dn3
        BYTE   W08
        BYTE                   Cs3
        BYTE   W08
        BYTE                   As2
        BYTE   W08
        BYTE                   An2
        BYTE   W07
// 066   ----------------------------------------
        BYTE   W96
// 067   ----------------------------------------
        BYTE   W96
// 068   ----------------------------------------
        BYTE   W96
// 069   ----------------------------------------
        BYTE   W96
// 070   ----------------------------------------
        BYTE   W96
// 071   ----------------------------------------
        BYTE   W96
// 072   ----------------------------------------
        BYTE   W96
// 073   ----------------------------------------
        BYTE   W96
// 074   ----------------------------------------
        BYTE   W96
// 075   ----------------------------------------
        BYTE   W96
// 076   ----------------------------------------
        BYTE   W96
// 077   ----------------------------------------
        BYTE   W96
// 078   ----------------------------------------
        BYTE   W96
// 079   ----------------------------------------
        BYTE   W96
// 080   ----------------------------------------
        BYTE   W96
// 081   ----------------------------------------
        BYTE   W96
// 082   ----------------------------------------
        BYTE   W96
// 083   ----------------------------------------
        BYTE   W96
// 084   ----------------------------------------
        BYTE   W96
// 085   ----------------------------------------
        BYTE   W96
// 086   ----------------------------------------
        BYTE   W96
// 087   ----------------------------------------
        BYTE   W96
// 088   ----------------------------------------
        BYTE   W96
// 089   ----------------------------------------
        BYTE   W96
// 090   ----------------------------------------
        BYTE   W96
// 091   ----------------------------------------
        BYTE   W96
// 092   ----------------------------------------
        BYTE   W96
// 093   ----------------------------------------
        BYTE   W96
// 094   ----------------------------------------
        BYTE   W96
// 095   ----------------------------------------
        BYTE   W96
// 096   ----------------------------------------
        BYTE   W96
// 097   ----------------------------------------
        BYTE   W96
// 098   ----------------------------------------
        BYTE   W96
// 099   ----------------------------------------
        BYTE   W96
// 100   ----------------------------------------
        BYTE   W96
// 101   ----------------------------------------
        BYTE   W96
// 102   ----------------------------------------
        BYTE   GoTo
         POIN2  EachJustice_10_LOOP
        BYTE   FINE

//***************** Track 11 (Midi-Chn.12) *****************//

EachJustice_11:
        BYTE   KEYSH   EachJustice_key+0
// 000   ----------------------------------------
EachJustice_11_LOOP:
        BYTE           VOICE   19
        BYTE           VOL     17
        BYTE           PAN     c_v-64
        BYTE           TIE     Fn3   v076
        BYTE           N92     An3   v076   gtp3
        BYTE   W96
// 001   ----------------------------------------
        BYTE                   As3
        BYTE   W92
        BYTE   W03
        BYTE           EOT     Fn3
        BYTE   W01
// 002   ----------------------------------------
        BYTE           TIE     En3
        BYTE           N92     Gn3   v076   gtp3
        BYTE   W96
// 003   ----------------------------------------
        BYTE                   An3
        BYTE   W92
        BYTE   W03
        BYTE           EOT     En3
        BYTE   W01
// 004   ----------------------------------------
        BYTE           N92     Fn3   v076   gtp3
        BYTE                   Dn4
        BYTE   W96
// 005   ----------------------------------------
        BYTE                   Gn3
        BYTE           N92     Dn4   v076   gtp3
        BYTE   W96
// 006   ----------------------------------------
        BYTE           TIE     An3
        BYTE           TIE     Dn4
        BYTE   W96
// 007   ----------------------------------------
        BYTE   W92
        BYTE   W03
        BYTE           EOT
        BYTE   W01
// 008   ----------------------------------------
        BYTE           TIE     Cs4
        BYTE   W96
// 009   ----------------------------------------
        BYTE   W05
        BYTE           EOT     An3
        BYTE                   Cs4
        BYTE   W90
        BYTE   W01
// 010   ----------------------------------------
EachJustice_11_10:
        BYTE           TIE     An3   v068
        BYTE           TIE     Dn4   v074
        BYTE   W96
        BYTE   PEND
// 011   ----------------------------------------
EachJustice_11_11:
        BYTE   W84
        BYTE   W03
        BYTE           EOT     Dn4
        BYTE   W02
        BYTE                   An3
        BYTE   W07
        BYTE   PEND
// 012   ----------------------------------------
        BYTE           TIE     Dn4   v086
        BYTE   W96
// 013   ----------------------------------------
EachJustice_11_13:
        BYTE           N92     Cn4   v090   gtp1
        BYTE   W02
        BYTE           EOT     Dn4
        BYTE   W92
        BYTE   W02
        BYTE   PEND
// 014   ----------------------------------------
EachJustice_11_14:
        BYTE           TIE     Fn3   v070
        BYTE           TIE     As3   v084
        BYTE   W96
        BYTE   PEND
// 015   ----------------------------------------
EachJustice_11_15:
        BYTE   W72
        BYTE   W03
        BYTE           EOT     Fn3
        BYTE   W11
        BYTE                   As3
        BYTE   W10
        BYTE   PEND
// 016   ----------------------------------------
        BYTE           TIE     As3   v073
        BYTE   W96
// 017   ----------------------------------------
EachJustice_11_17:
        BYTE           N80     An3   v087   gtp2
        BYTE   W07
        BYTE           EOT     As3
        BYTE   W88
        BYTE   W01
        BYTE   PEND
// 018   ----------------------------------------
        BYTE           TIE     An3   v078
        BYTE   W96
// 019   ----------------------------------------
        BYTE   W92
        BYTE   W01
        BYTE           EOT
        BYTE   W03
// 020   ----------------------------------------
        BYTE   W96
// 021   ----------------------------------------
        BYTE           N80     Gn3   v082   gtp3
        BYTE   W96
// 022   ----------------------------------------
EachJustice_11_22:
        BYTE           N90     Fn3   v087
        BYTE           N92     Gs3   v083
        BYTE   W96
        BYTE   PEND
// 023   ----------------------------------------
EachJustice_11_23:
        BYTE           N32     Fn3   v080   gtp3
        BYTE           N36     Gs3   v089   gtp3
        BYTE   W48
        BYTE           N40     Gs3   v088
        BYTE           N40     Dn4   v102   gtp1
        BYTE   W48
        BYTE   PEND
// 024   ----------------------------------------
EachJustice_11_24:
        BYTE           N88     An3   v088   gtp1
        BYTE           N92     Dn4   v095
        BYTE   W96
        BYTE   PEND
// 025   ----------------------------------------
EachJustice_11_25:
        BYTE           N84     An3   v088   gtp3
        BYTE           N88     Cs4   v090
        BYTE   W96
        BYTE   PEND
// 026   ----------------------------------------
        BYTE   PATT
         POIN2  EachJustice_11_10
// 027   ----------------------------------------
        BYTE   PATT
         POIN2  EachJustice_11_11
// 028   ----------------------------------------
        BYTE           TIE     Dn4   v086
        BYTE   W96
// 029   ----------------------------------------
        BYTE   PATT
         POIN2  EachJustice_11_13
// 030   ----------------------------------------
        BYTE   PATT
         POIN2  EachJustice_11_14
// 031   ----------------------------------------
        BYTE   PATT
         POIN2  EachJustice_11_15
// 032   ----------------------------------------
        BYTE           TIE     As3   v073
        BYTE   W96
// 033   ----------------------------------------
        BYTE   PATT
         POIN2  EachJustice_11_17
// 034   ----------------------------------------
        BYTE           TIE     An3   v078
        BYTE   W96
// 035   ----------------------------------------
        BYTE   W92
        BYTE   W01
        BYTE           EOT
        BYTE   W03
// 036   ----------------------------------------
        BYTE   W96
// 037   ----------------------------------------
        BYTE           N80     Gn3   v082   gtp3
        BYTE   W96
// 038   ----------------------------------------
        BYTE   PATT
         POIN2  EachJustice_11_22
// 039   ----------------------------------------
        BYTE   PATT
         POIN2  EachJustice_11_23
// 040   ----------------------------------------
        BYTE   PATT
         POIN2  EachJustice_11_24
// 041   ----------------------------------------
        BYTE   PATT
         POIN2  EachJustice_11_25
// 042   ----------------------------------------
        BYTE           N84     An3   v086   gtp3
        BYTE                   Dn4
        BYTE   W96
// 043   ----------------------------------------
        BYTE                   As3
        BYTE           N84     Dn4   v086   gtp3
        BYTE   W96
// 044   ----------------------------------------
        BYTE                   As3
        BYTE           N84     Cs4   v086   gtp3
        BYTE   W96
// 045   ----------------------------------------
        BYTE                   Cn4
        BYTE           N84     Ds4   v086   gtp3
        BYTE   W96
// 046   ----------------------------------------
        BYTE           N78     Bn3   v086   gtp1
        BYTE           N84     Dn4   v086   gtp3
        BYTE   W96
// 047   ----------------------------------------
        BYTE                   Dn4
        BYTE           N84     Fn4   v086   gtp3
        BYTE   W96
// 048   ----------------------------------------
        BYTE                   Fn4
        BYTE           N84     Gs4   v086   gtp3
        BYTE   W96
// 049   ----------------------------------------
        BYTE           N78     En4   v086   gtp1
        BYTE                   An4
        BYTE   W96
// 050   ----------------------------------------
        BYTE   W96
// 051   ----------------------------------------
        BYTE   W96
// 052   ----------------------------------------
        BYTE   W96
// 053   ----------------------------------------
        BYTE   W96
// 054   ----------------------------------------
        BYTE   W96
// 055   ----------------------------------------
        BYTE   W96
// 056   ----------------------------------------
        BYTE   W96
// 057   ----------------------------------------
        BYTE   W96
// 058   ----------------------------------------
        BYTE   W96
// 059   ----------------------------------------
        BYTE   W96
// 060   ----------------------------------------
        BYTE   W96
// 061   ----------------------------------------
        BYTE   W96
// 062   ----------------------------------------
        BYTE   W96
// 063   ----------------------------------------
        BYTE   W96
// 064   ----------------------------------------
        BYTE   W96
// 065   ----------------------------------------
        BYTE   W96
// 066   ----------------------------------------
        BYTE           N92     An3   v085   gtp3
        BYTE                   Dn4
        BYTE   W96
// 067   ----------------------------------------
        BYTE                   As3
        BYTE           N92     En4   v085   gtp3
        BYTE   W96
// 068   ----------------------------------------
        BYTE           TIE     An3
        BYTE           N92     Cs4   v085   gtp3
        BYTE   W96
// 069   ----------------------------------------
        BYTE                   Dn4
        BYTE   W92
        BYTE   W03
        BYTE           EOT     An3
        BYTE   W01
// 070   ----------------------------------------
        BYTE           N92     Gn3   v085   gtp3
        BYTE                   As3
        BYTE   W96
// 071   ----------------------------------------
        BYTE                   En3
        BYTE           N92     An3   v085   gtp3
        BYTE   W96
// 072   ----------------------------------------
        BYTE                   Fn3
        BYTE           N92     An3   v085   gtp3
        BYTE   W96
// 073   ----------------------------------------
        BYTE                   Fs3
        BYTE           N92     Bn3   v085   gtp3
        BYTE   W96
// 074   ----------------------------------------
        BYTE                   Gn3
        BYTE           N92     Bn3   v085   gtp3
        BYTE   W96
// 075   ----------------------------------------
        BYTE                   Gs3
        BYTE           N92     Bn3   v085   gtp3
        BYTE   W96
// 076   ----------------------------------------
        BYTE                   An3
        BYTE           N92     Cn4   v085   gtp3
        BYTE   W96
// 077   ----------------------------------------
        BYTE                   As3
        BYTE           N92     Cs4   v085   gtp3
        BYTE   W96
// 078   ----------------------------------------
        BYTE                   Bn3
        BYTE           N44     Dn4   v085   gtp3
        BYTE   W48
        BYTE                   En4
        BYTE   W48
// 079   ----------------------------------------
        BYTE                   Bn3
        BYTE           N44     Dn4   v085   gtp3
        BYTE   W48
        BYTE                   Cs4
        BYTE           N44     As3   v085   gtp3
        BYTE   W48
// 080   ----------------------------------------
EachJustice_11_80:
        BYTE           N44     Bn3   v095   gtp3
        BYTE                   En4
        BYTE   W48
        BYTE                   Bn3   v076
        BYTE           N44     En4   v076   gtp3
        BYTE   W48
        BYTE   PEND
// 081   ----------------------------------------
EachJustice_11_81:
        BYTE           N44     Bn3   v040   gtp3
        BYTE                   En4
        BYTE   W48
        BYTE                   Gn3   v017
        BYTE           N44     Bn3   v017   gtp3
        BYTE   W48
        BYTE   PEND
// 082   ----------------------------------------
EachJustice_11_82:
        BYTE           N44     Bn3   v095   gtp3
        BYTE                   Dn4
        BYTE   W48
        BYTE                   Bn3   v076
        BYTE           N44     Dn4   v076   gtp3
        BYTE   W48
        BYTE   PEND
// 083   ----------------------------------------
EachJustice_11_83:
        BYTE           N44     Bn3   v040   gtp3
        BYTE                   Dn4
        BYTE   W48
        BYTE                   Fs3   v017
        BYTE           N44     Bn3   v017   gtp3
        BYTE   W48
        BYTE   PEND
// 084   ----------------------------------------
EachJustice_11_84:
        BYTE           N44     Bn3   v095   gtp3
        BYTE                   Cs4
        BYTE   W48
        BYTE                   Bn3   v076
        BYTE           N44     Cs4   v076   gtp3
        BYTE   W48
        BYTE   PEND
// 085   ----------------------------------------
        BYTE                   Bn3   v040
        BYTE           N44     Cs4   v040   gtp3
        BYTE   W48
        BYTE                   Fn3   v017
        BYTE           N44     Bn3   v017   gtp3
        BYTE   W48
// 086   ----------------------------------------
        BYTE   PATT
         POIN2  EachJustice_11_82
// 087   ----------------------------------------
EachJustice_11_87:
        BYTE           N44     As3   v095   gtp3
        BYTE                   Cs4
        BYTE   W48
        BYTE                   As3   v076
        BYTE           N44     Cs4   v076   gtp3
        BYTE   W48
        BYTE   PEND
// 088   ----------------------------------------
        BYTE   PATT
         POIN2  EachJustice_11_82
// 089   ----------------------------------------
        BYTE   PATT
         POIN2  EachJustice_11_87
// 090   ----------------------------------------
        BYTE   PATT
         POIN2  EachJustice_11_80
// 091   ----------------------------------------
        BYTE   PATT
         POIN2  EachJustice_11_81
// 092   ----------------------------------------
        BYTE   PATT
         POIN2  EachJustice_11_82
// 093   ----------------------------------------
        BYTE   PATT
         POIN2  EachJustice_11_83
// 094   ----------------------------------------
        BYTE   PATT
         POIN2  EachJustice_11_84
// 095   ----------------------------------------
        BYTE   PATT
         POIN2  EachJustice_11_82
// 096   ----------------------------------------
        BYTE   PATT
         POIN2  EachJustice_11_80
// 097   ----------------------------------------
        BYTE           N44     Cs4   v095   gtp3
        BYTE                   Fn4
        BYTE   W48
        BYTE                   Cs4   v076
        BYTE           N44     Fn4   v076   gtp3
        BYTE   W48
// 098   ----------------------------------------
        BYTE           N23     Dn4   v095
        BYTE           N23     Fs4
        BYTE   W24
        BYTE                   Dn4   v076
        BYTE           N23     Fs4
        BYTE   W24
        BYTE                   Dn4   v039
        BYTE           N23     Fs4
        BYTE   W24
        BYTE                   Dn4   v076
        BYTE           N23     Fs4
        BYTE   W24
// 099   ----------------------------------------
        BYTE           N15     Dn4   v095
        BYTE           N15     Fs4
        BYTE   W24
        BYTE                   Dn4   v048
        BYTE           N15     Fs4
        BYTE   W24
        BYTE                   Dn4   v020
        BYTE           N15     Fs4
        BYTE   W48
// 100   ----------------------------------------
        BYTE           N23     Cs4   v095
        BYTE           N23     Fs4
        BYTE   W24
        BYTE                   Cs4   v076
        BYTE           N23     Fs4
        BYTE   W24
        BYTE                   Cs4   v039
        BYTE           N23     Fs4
        BYTE   W24
        BYTE                   Cs4   v076
        BYTE           N23     Fs4
        BYTE   W24
// 101   ----------------------------------------
        BYTE           N15     Cs4   v095
        BYTE           N15     Fs4
        BYTE   W24
        BYTE                   Cs4   v048
        BYTE           N15     Fs4
        BYTE   W24
        BYTE                   Cs4   v020
        BYTE           N15     Fs4
        BYTE   W48
// 102   ----------------------------------------
        BYTE   GoTo
         POIN2  EachJustice_11_LOOP
        BYTE   FINE

//***************** Track 12 (Midi-Chn.13) *****************//

EachJustice_12:
        BYTE   KEYSH   EachJustice_key+0
// 000   ----------------------------------------
EachJustice_12_LOOP:
        BYTE           VOICE   38
        BYTE           VOL     36
        BYTE           N78     Dn1   v081   gtp1
        BYTE   W80
        BYTE           N07     An1   v053
        BYTE   W08
        BYTE                   Cn2   v059
        BYTE   W08
// 001   ----------------------------------------
        BYTE           N80     Dn2   v068   gtp3
        BYTE   W84
        BYTE           N02     An1   v067
        BYTE   W03
        BYTE                   Fn1
        BYTE   W03
        BYTE                   Dn1   v071
        BYTE   W06
// 002   ----------------------------------------
        BYTE           N68     Cn1   v081   gtp1
        BYTE   W72
        BYTE           N07     Gn1   v053
        BYTE   W08
        BYTE                   Cn1
        BYTE   W08
        BYTE                   Gn1
        BYTE   W08
// 003   ----------------------------------------
        BYTE           N84     Cn2   v079   gtp2
        BYTE   W84
        BYTE   W03
        BYTE           N02     Gn1   v067
        BYTE   W03
        BYTE                   En1
        BYTE   W03
        BYTE                   Cn1   v071
        BYTE   W03
// 004   ----------------------------------------
        BYTE           N68     As0   v081   gtp3
        BYTE   W72
        BYTE           N07     As0   v071
        BYTE   W08
        BYTE                   An0
        BYTE   W08
        BYTE                   Fn0
        BYTE   W08
// 005   ----------------------------------------
        BYTE           N68     Gn0   v081   gtp3
        BYTE   W72
        BYTE           N07     Gn0   v078
        BYTE   W08
        BYTE                   Gn0   v071
        BYTE   W08
        BYTE                   Gn0
        BYTE   W08
// 006   ----------------------------------------
        BYTE           TIE     An0   v081
        BYTE   W96
// 007   ----------------------------------------
        BYTE   W68
        BYTE   W03
        BYTE           EOT
        BYTE   W01
        BYTE           N07     An0   v055
        BYTE   W08
        BYTE                   Cs1   v057
        BYTE   W08
        BYTE                   En1   v067
        BYTE   W08
// 008   ----------------------------------------
        BYTE           TIE     An1   v081
        BYTE   W96
// 009   ----------------------------------------
        BYTE   W68
        BYTE   W03
        BYTE           EOT
        BYTE   W16
        BYTE           N02     An1   v058
        BYTE   W03
        BYTE                   En1   v059
        BYTE   W03
        BYTE                   Cs1   v045
        BYTE   W03
// 010   ----------------------------------------
EachJustice_12_10:
        BYTE           N07     Dn1   v068
        BYTE   W16
        BYTE                   Dn1
        BYTE   W08
        BYTE                   Dn2
        BYTE   W08
        BYTE                   Dn1
        BYTE   W08
        BYTE                   Dn1
        BYTE   W08
        BYTE                   Dn1
        BYTE   W16
        BYTE                   Dn1
        BYTE   W08
        BYTE                   Dn2
        BYTE   W08
        BYTE                   Dn1
        BYTE   W08
        BYTE                   Dn1
        BYTE   W08
        BYTE   PEND
// 011   ----------------------------------------
        BYTE   PATT
         POIN2  EachJustice_12_10
// 012   ----------------------------------------
        BYTE   PATT
         POIN2  EachJustice_12_10
// 013   ----------------------------------------
        BYTE   PATT
         POIN2  EachJustice_12_10
// 014   ----------------------------------------
        BYTE   PATT
         POIN2  EachJustice_12_10
// 015   ----------------------------------------
        BYTE   PATT
         POIN2  EachJustice_12_10
// 016   ----------------------------------------
        BYTE   PATT
         POIN2  EachJustice_12_10
// 017   ----------------------------------------
        BYTE   PATT
         POIN2  EachJustice_12_10
// 018   ----------------------------------------
        BYTE   PATT
         POIN2  EachJustice_12_10
// 019   ----------------------------------------
        BYTE   PATT
         POIN2  EachJustice_12_10
// 020   ----------------------------------------
        BYTE   PATT
         POIN2  EachJustice_12_10
// 021   ----------------------------------------
        BYTE   PATT
         POIN2  EachJustice_12_10
// 022   ----------------------------------------
EachJustice_12_22:
        BYTE           N07     En1   v068
        BYTE   W16
        BYTE                   En1
        BYTE   W08
        BYTE                   En2
        BYTE   W08
        BYTE                   En1
        BYTE   W08
        BYTE                   En1
        BYTE   W08
        BYTE                   En1
        BYTE   W16
        BYTE                   En1
        BYTE   W08
        BYTE                   En2
        BYTE   W08
        BYTE                   En1
        BYTE   W08
        BYTE                   En1
        BYTE   W08
        BYTE   PEND
// 023   ----------------------------------------
EachJustice_12_23:
        BYTE           N07     As0   v068
        BYTE   W16
        BYTE                   As0
        BYTE   W08
        BYTE                   As1
        BYTE   W08
        BYTE                   As0
        BYTE   W08
        BYTE                   As0
        BYTE   W08
        BYTE                   As0
        BYTE   W16
        BYTE                   As0
        BYTE   W08
        BYTE                   As1
        BYTE   W08
        BYTE                   As0
        BYTE   W08
        BYTE                   As0
        BYTE   W08
        BYTE   PEND
// 024   ----------------------------------------
EachJustice_12_24:
        BYTE           N07     An0   v068
        BYTE   W16
        BYTE                   An0
        BYTE   W08
        BYTE                   An1
        BYTE   W08
        BYTE                   An0
        BYTE   W08
        BYTE                   An0
        BYTE   W08
        BYTE                   An0
        BYTE   W16
        BYTE                   An0
        BYTE   W08
        BYTE                   An1
        BYTE   W08
        BYTE                   An0
        BYTE   W08
        BYTE                   An0
        BYTE   W08
        BYTE   PEND
// 025   ----------------------------------------
        BYTE   PATT
         POIN2  EachJustice_12_24
// 026   ----------------------------------------
        BYTE   PATT
         POIN2  EachJustice_12_10
// 027   ----------------------------------------
        BYTE   PATT
         POIN2  EachJustice_12_10
// 028   ----------------------------------------
        BYTE   PATT
         POIN2  EachJustice_12_10
// 029   ----------------------------------------
        BYTE   PATT
         POIN2  EachJustice_12_10
// 030   ----------------------------------------
        BYTE   PATT
         POIN2  EachJustice_12_10
// 031   ----------------------------------------
        BYTE   PATT
         POIN2  EachJustice_12_10
// 032   ----------------------------------------
        BYTE   PATT
         POIN2  EachJustice_12_10
// 033   ----------------------------------------
        BYTE   PATT
         POIN2  EachJustice_12_10
// 034   ----------------------------------------
        BYTE   PATT
         POIN2  EachJustice_12_10
// 035   ----------------------------------------
        BYTE   PATT
         POIN2  EachJustice_12_10
// 036   ----------------------------------------
        BYTE   PATT
         POIN2  EachJustice_12_10
// 037   ----------------------------------------
        BYTE   PATT
         POIN2  EachJustice_12_10
// 038   ----------------------------------------
        BYTE   PATT
         POIN2  EachJustice_12_22
// 039   ----------------------------------------
        BYTE   PATT
         POIN2  EachJustice_12_23
// 040   ----------------------------------------
        BYTE   PATT
         POIN2  EachJustice_12_24
// 041   ----------------------------------------
        BYTE   PATT
         POIN2  EachJustice_12_24
// 042   ----------------------------------------
EachJustice_12_42:
        BYTE           N07     Dn1   v068
        BYTE   W16
        BYTE                   Dn1
        BYTE   W08
        BYTE                   Dn2
        BYTE   W08
        BYTE                   Dn1
        BYTE   W08
        BYTE                   Dn2
        BYTE   W08
        BYTE                   Dn1
        BYTE   W16
        BYTE                   Dn1
        BYTE   W08
        BYTE                   Dn2
        BYTE   W08
        BYTE                   Dn1
        BYTE   W08
        BYTE                   Dn2
        BYTE   W08
        BYTE   PEND
// 043   ----------------------------------------
        BYTE   PATT
         POIN2  EachJustice_12_42
// 044   ----------------------------------------
        BYTE   PATT
         POIN2  EachJustice_12_42
// 045   ----------------------------------------
        BYTE   PATT
         POIN2  EachJustice_12_42
// 046   ----------------------------------------
        BYTE   PATT
         POIN2  EachJustice_12_42
// 047   ----------------------------------------
        BYTE   PATT
         POIN2  EachJustice_12_42
// 048   ----------------------------------------
        BYTE   PATT
         POIN2  EachJustice_12_42
// 049   ----------------------------------------
        BYTE           N07     An0   v068
        BYTE   W16
        BYTE                   An0
        BYTE   W08
        BYTE                   An1
        BYTE   W08
        BYTE                   An0
        BYTE   W08
        BYTE                   An1
        BYTE   W08
        BYTE                   An0
        BYTE   W16
        BYTE                   An0
        BYTE   W08
        BYTE                   An1
        BYTE   W08
        BYTE                   An0
        BYTE   W08
        BYTE                   An1
        BYTE   W08
// 050   ----------------------------------------
EachJustice_12_50:
        BYTE           N07     Dn1   v068
        BYTE   W16
        BYTE                   Dn1
        BYTE   W08
        BYTE                   Dn2
        BYTE   W08
        BYTE                   Dn1
        BYTE   W08
        BYTE                   Dn1
        BYTE   W08
        BYTE                   Dn1
        BYTE   W16
        BYTE                   Dn1   v047
        BYTE   W08
        BYTE                   Cn1   v068
        BYTE   W08
        BYTE                   Cn2
        BYTE   W08
        BYTE                   Cn1
        BYTE   W08
        BYTE   PEND
// 051   ----------------------------------------
EachJustice_12_51:
        BYTE           N07     Fn1   v068
        BYTE   W16
        BYTE                   Fn1
        BYTE   W08
        BYTE                   Fn2
        BYTE   W08
        BYTE                   Fn1
        BYTE   W08
        BYTE                   Fn1
        BYTE   W08
        BYTE                   Fn2
        BYTE   W08
        BYTE                   Fn1
        BYTE   W08
        BYTE                   Fn2
        BYTE   W08
        BYTE                   Fn1
        BYTE   W08
        BYTE                   Fn2
        BYTE   W08
        BYTE                   Fn1
        BYTE   W08
        BYTE   PEND
// 052   ----------------------------------------
EachJustice_12_52:
        BYTE           N07     An0   v068
        BYTE   W16
        BYTE                   An0
        BYTE   W08
        BYTE                   An1
        BYTE   W08
        BYTE                   An0
        BYTE   W08
        BYTE                   An0
        BYTE   W08
        BYTE                   An0
        BYTE   W16
        BYTE                   An0   v047
        BYTE   W08
        BYTE                   Gn0   v068
        BYTE   W08
        BYTE                   Gn1
        BYTE   W08
        BYTE                   Gn0
        BYTE   W08
        BYTE   PEND
// 053   ----------------------------------------
EachJustice_12_53:
        BYTE           N07     Cn1   v068
        BYTE   W16
        BYTE                   Cn1
        BYTE   W08
        BYTE                   Cn2
        BYTE   W08
        BYTE                   Cn1
        BYTE   W08
        BYTE                   Cn1
        BYTE   W08
        BYTE                   Cn2
        BYTE   W08
        BYTE                   Cn1
        BYTE   W08
        BYTE                   Cn2
        BYTE   W08
        BYTE                   Cn1
        BYTE   W08
        BYTE                   Cn2
        BYTE   W08
        BYTE                   Cn1
        BYTE   W08
        BYTE   PEND
// 054   ----------------------------------------
        BYTE   PATT
         POIN2  EachJustice_12_24
// 055   ----------------------------------------
        BYTE   PATT
         POIN2  EachJustice_12_24
// 056   ----------------------------------------
        BYTE   PATT
         POIN2  EachJustice_12_24
// 057   ----------------------------------------
        BYTE   PATT
         POIN2  EachJustice_12_24
// 058   ----------------------------------------
        BYTE   PATT
         POIN2  EachJustice_12_50
// 059   ----------------------------------------
        BYTE   PATT
         POIN2  EachJustice_12_51
// 060   ----------------------------------------
        BYTE   PATT
         POIN2  EachJustice_12_52
// 061   ----------------------------------------
        BYTE   PATT
         POIN2  EachJustice_12_53
// 062   ----------------------------------------
        BYTE   PATT
         POIN2  EachJustice_12_24
// 063   ----------------------------------------
        BYTE   PATT
         POIN2  EachJustice_12_24
// 064   ----------------------------------------
        BYTE   PATT
         POIN2  EachJustice_12_24
// 065   ----------------------------------------
        BYTE           N07     An1   v068
        BYTE   W08
        BYTE                   As1
        BYTE   W08
        BYTE                   An1
        BYTE   W08
        BYTE                   Gn1
        BYTE   W08
        BYTE                   Fn1
        BYTE   W08
        BYTE                   En1
        BYTE   W08
        BYTE                   Cs1
        BYTE   W08
        BYTE                   Dn1
        BYTE   W08
        BYTE                   Cs1
        BYTE   W08
        BYTE                   As0
        BYTE   W08
        BYTE                   An0
        BYTE   W08
        BYTE                   Gn0
        BYTE   W08
// 066   ----------------------------------------
        BYTE   PATT
         POIN2  EachJustice_12_10
// 067   ----------------------------------------
        BYTE   PATT
         POIN2  EachJustice_12_10
// 068   ----------------------------------------
        BYTE           N07     An0   v068
        BYTE   W16
        BYTE                   An0
        BYTE   W08
        BYTE                   An1
        BYTE   W08
        BYTE                   An0
        BYTE   W08
        BYTE                   An0
        BYTE   W08
        BYTE                   Gn1
        BYTE   W16
        BYTE                   Gn1
        BYTE   W08
        BYTE                   Gn2
        BYTE   W08
        BYTE                   Gn1
        BYTE   W08
        BYTE                   Gn1
        BYTE   W08
// 069   ----------------------------------------
        BYTE                   Fs1
        BYTE   W16
        BYTE                   Fs1
        BYTE   W08
        BYTE                   Fs2
        BYTE   W08
        BYTE                   Fs1
        BYTE   W08
        BYTE                   Fs1
        BYTE   W08
        BYTE                   Dn1
        BYTE   W16
        BYTE                   Dn1
        BYTE   W08
        BYTE                   Dn2
        BYTE   W08
        BYTE                   Dn1
        BYTE   W08
        BYTE                   Dn1
        BYTE   W08
// 070   ----------------------------------------
EachJustice_12_70:
        BYTE           N07     En1   v068
        BYTE   W16
        BYTE                   En1
        BYTE   W08
        BYTE                   En2
        BYTE   W08
        BYTE                   En1
        BYTE   W08
        BYTE                   En1
        BYTE   W08
        BYTE                   Dn1
        BYTE   W16
        BYTE                   Dn1
        BYTE   W08
        BYTE                   Dn2
        BYTE   W08
        BYTE                   Dn1
        BYTE   W08
        BYTE                   Dn1
        BYTE   W08
        BYTE   PEND
// 071   ----------------------------------------
        BYTE                   Cs1
        BYTE   W16
        BYTE                   Cs1
        BYTE   W08
        BYTE                   Cs2
        BYTE   W08
        BYTE                   Cs1
        BYTE   W08
        BYTE                   Cs1
        BYTE   W08
        BYTE                   An0
        BYTE   W16
        BYTE                   An0
        BYTE   W08
        BYTE                   An1
        BYTE   W08
        BYTE                   An0
        BYTE   W08
        BYTE                   An0
        BYTE   W08
// 072   ----------------------------------------
        BYTE                   Dn1
        BYTE   W16
        BYTE                   Dn1
        BYTE   W08
        BYTE                   Dn2
        BYTE   W08
        BYTE                   Dn1
        BYTE   W08
        BYTE                   Dn1
        BYTE   W08
        BYTE                   Cn1
        BYTE   W16
        BYTE                   Cn1
        BYTE   W08
        BYTE                   Cn2
        BYTE   W08
        BYTE                   Cn1
        BYTE   W08
        BYTE                   Cn1
        BYTE   W08
// 073   ----------------------------------------
        BYTE                   Bn0
        BYTE   W16
        BYTE                   Bn0
        BYTE   W08
        BYTE                   Bn1
        BYTE   W08
        BYTE                   Bn0
        BYTE   W08
        BYTE                   Bn0
        BYTE   W08
        BYTE                   An1
        BYTE   W16
        BYTE                   An1
        BYTE   W08
        BYTE                   An2
        BYTE   W08
        BYTE                   An1
        BYTE   W08
        BYTE                   An1
        BYTE   W08
// 074   ----------------------------------------
        BYTE                   Gn1
        BYTE   W16
        BYTE                   Gn1
        BYTE   W08
        BYTE                   Gn2
        BYTE   W08
        BYTE                   Gn1
        BYTE   W08
        BYTE                   Gn1
        BYTE   W08
        BYTE                   Fn1
        BYTE   W16
        BYTE                   Fn1
        BYTE   W08
        BYTE                   Fn2
        BYTE   W08
        BYTE                   Fn1
        BYTE   W08
        BYTE                   Fn1
        BYTE   W08
// 075   ----------------------------------------
        BYTE   PATT
         POIN2  EachJustice_12_70
// 076   ----------------------------------------
        BYTE           N07     Cn1   v068
        BYTE   W16
        BYTE                   Cn1
        BYTE   W08
        BYTE                   Cn2
        BYTE   W08
        BYTE                   Cn1
        BYTE   W08
        BYTE                   Cn1
        BYTE   W08
        BYTE                   Bn0
        BYTE   W16
        BYTE                   Bn0
        BYTE   W08
        BYTE                   Bn1
        BYTE   W08
        BYTE                   Bn0
        BYTE   W08
        BYTE                   Bn0
        BYTE   W08
// 077   ----------------------------------------
        BYTE                   Fs1
        BYTE   W16
        BYTE                   Fs1
        BYTE   W08
        BYTE                   Fs2
        BYTE   W08
        BYTE                   Fs1
        BYTE   W08
        BYTE                   Fs1
        BYTE   W08
        BYTE                   En1
        BYTE   W16
        BYTE                   En1
        BYTE   W08
        BYTE                   En2
        BYTE   W08
        BYTE                   En1
        BYTE   W08
        BYTE                   En1
        BYTE   W08
// 078   ----------------------------------------
        BYTE                   Dn1
        BYTE   W16
        BYTE                   Dn1
        BYTE   W08
        BYTE                   Dn2
        BYTE   W08
        BYTE                   Dn1
        BYTE   W08
        BYTE                   Dn1
        BYTE   W08
        BYTE                   En1
        BYTE   W16
        BYTE                   En1
        BYTE   W08
        BYTE                   En2
        BYTE   W08
        BYTE                   En1
        BYTE   W08
        BYTE                   En1
        BYTE   W08
// 079   ----------------------------------------
        BYTE                   Fs1
        BYTE   W16
        BYTE                   Fs1
        BYTE   W08
        BYTE                   Fs2
        BYTE   W08
        BYTE                   Fs1
        BYTE   W08
        BYTE                   Fs1
        BYTE   W08
        BYTE                   Fs1
        BYTE   W16
        BYTE                   Fs1
        BYTE   W08
        BYTE                   Fs2
        BYTE   W08
        BYTE                   Fs1
        BYTE   W08
        BYTE                   Fs1
        BYTE   W08
// 080   ----------------------------------------
        BYTE           N28     En1   v103   gtp1
        BYTE   W48
        BYTE           N30     En0   v085   gtp1
        BYTE   W48
// 081   ----------------------------------------
        BYTE   W72
        BYTE           N07
        BYTE   W08
        BYTE                   Gn0
        BYTE   W08
        BYTE                   Bn0
        BYTE   W08
// 082   ----------------------------------------
        BYTE           N24     Dn1   v098   gtp1
        BYTE   W48
        BYTE           N30     Dn0   v089   gtp1
        BYTE   W48
// 083   ----------------------------------------
        BYTE   W72
        BYTE           N07     Dn0   v085
        BYTE   W08
        BYTE                   Fs0
        BYTE   W08
        BYTE                   Bn0
        BYTE   W08
// 084   ----------------------------------------
        BYTE           N32     Cs1   v089
        BYTE   W48
        BYTE                   Cs1   v087   gtp1
        BYTE   W48
// 085   ----------------------------------------
        BYTE   W96
// 086   ----------------------------------------
EachJustice_12_86:
        BYTE           N32     Fs0   v089
        BYTE   W48
        BYTE                   Fs0
        BYTE   W48
        BYTE   PEND
// 087   ----------------------------------------
        BYTE   PATT
         POIN2  EachJustice_12_86
// 088   ----------------------------------------
        BYTE           N15     Fs0   v089
        BYTE   W24
        BYTE           N19
        BYTE   W24
        BYTE                   Fs0
        BYTE   W24
        BYTE                   Fs0
        BYTE   W24
// 089   ----------------------------------------
        BYTE           N03
        BYTE   W08
        BYTE                   Fs0
        BYTE   W08
        BYTE                   Fs0
        BYTE   W08
        BYTE                   Fs0
        BYTE   W08
        BYTE                   Fs0
        BYTE   W08
        BYTE                   Fs0
        BYTE   W08
        BYTE                   Fs0
        BYTE   W08
        BYTE                   Fs0
        BYTE   W08
        BYTE                   Fs0
        BYTE   W08
        BYTE                   Fs0
        BYTE   W08
        BYTE                   Fs0
        BYTE   W08
        BYTE                   Fs0
        BYTE   W08
// 090   ----------------------------------------
        BYTE   PATT
         POIN2  EachJustice_12_22
// 091   ----------------------------------------
        BYTE   PATT
         POIN2  EachJustice_12_22
// 092   ----------------------------------------
        BYTE   PATT
         POIN2  EachJustice_12_10
// 093   ----------------------------------------
        BYTE   PATT
         POIN2  EachJustice_12_10
// 094   ----------------------------------------
        BYTE           N07     Cs1   v068
        BYTE   W16
        BYTE                   Cs1
        BYTE   W08
        BYTE                   Cs2
        BYTE   W08
        BYTE                   Cs1
        BYTE   W08
        BYTE                   Cs1
        BYTE   W08
        BYTE                   Cs1
        BYTE   W16
        BYTE                   Cs1
        BYTE   W08
        BYTE                   Cs2
        BYTE   W08
        BYTE                   Cs1
        BYTE   W08
        BYTE                   Cs1
        BYTE   W08
// 095   ----------------------------------------
        BYTE   PATT
         POIN2  EachJustice_12_10
// 096   ----------------------------------------
        BYTE   PATT
         POIN2  EachJustice_12_22
// 097   ----------------------------------------
        BYTE           N07     Fn1   v068
        BYTE   W16
        BYTE                   Fn1
        BYTE   W08
        BYTE                   Fn2
        BYTE   W08
        BYTE                   Fn1
        BYTE   W08
        BYTE                   Fn1
        BYTE   W08
        BYTE                   Fn1
        BYTE   W16
        BYTE                   Fn1
        BYTE   W08
        BYTE                   Fn2
        BYTE   W08
        BYTE                   Fn1
        BYTE   W08
        BYTE                   Fn1
        BYTE   W08
// 098   ----------------------------------------
EachJustice_12_98:
        BYTE           N04     Fs1   v068
        BYTE   W08
        BYTE                   Fs1
        BYTE   W08
        BYTE                   Fs1
        BYTE   W08
        BYTE           N07
        BYTE   W48
        BYTE           N04
        BYTE   W08
        BYTE                   Fs1
        BYTE   W08
        BYTE                   Fs1
        BYTE   W08
        BYTE   PEND
// 099   ----------------------------------------
        BYTE           N07
        BYTE   W96
// 100   ----------------------------------------
        BYTE   PATT
         POIN2  EachJustice_12_98
// 101   ----------------------------------------
        BYTE           N07     Fs1   v068
        BYTE   W96
// 102   ----------------------------------------
        BYTE   GoTo
         POIN2  EachJustice_12_LOOP
        BYTE   FINE

//***************** Track 13 (Midi-Chn.14) *****************//

EachJustice_13:
        BYTE   KEYSH   EachJustice_key+0
// 000   ----------------------------------------
EachJustice_13_LOOP:
        BYTE           VOICE   46
        BYTE           VOL     20
        BYTE           PAN     c_v-62
        BYTE   W96
// 001   ----------------------------------------
        BYTE   W96
// 002   ----------------------------------------
        BYTE   W96
// 003   ----------------------------------------
        BYTE   W96
// 004   ----------------------------------------
        BYTE   W96
// 005   ----------------------------------------
        BYTE   W96
// 006   ----------------------------------------
        BYTE   W96
// 007   ----------------------------------------
        BYTE   W96
// 008   ----------------------------------------
        BYTE   W96
// 009   ----------------------------------------
        BYTE   W96
// 010   ----------------------------------------
        BYTE   W96
// 011   ----------------------------------------
        BYTE   W96
// 012   ----------------------------------------
        BYTE   W96
// 013   ----------------------------------------
        BYTE   W96
// 014   ----------------------------------------
        BYTE   W96
// 015   ----------------------------------------
        BYTE   W96
// 016   ----------------------------------------
        BYTE   W96
// 017   ----------------------------------------
        BYTE   W96
// 018   ----------------------------------------
        BYTE   W96
// 019   ----------------------------------------
        BYTE   W96
// 020   ----------------------------------------
        BYTE   W96
// 021   ----------------------------------------
        BYTE   W96
// 022   ----------------------------------------
        BYTE   W96
// 023   ----------------------------------------
        BYTE   W96
// 024   ----------------------------------------
        BYTE   W96
// 025   ----------------------------------------
        BYTE   W96
// 026   ----------------------------------------
        BYTE   W96
// 027   ----------------------------------------
        BYTE   W96
// 028   ----------------------------------------
        BYTE   W96
// 029   ----------------------------------------
        BYTE   W96
// 030   ----------------------------------------
        BYTE   W96
// 031   ----------------------------------------
        BYTE   W96
// 032   ----------------------------------------
        BYTE   W96
// 033   ----------------------------------------
        BYTE   W96
// 034   ----------------------------------------
        BYTE   W96
// 035   ----------------------------------------
        BYTE   W96
// 036   ----------------------------------------
        BYTE   W96
// 037   ----------------------------------------
        BYTE   W96
// 038   ----------------------------------------
        BYTE   W96
// 039   ----------------------------------------
        BYTE   W96
// 040   ----------------------------------------
        BYTE   W96
// 041   ----------------------------------------
        BYTE   W96
// 042   ----------------------------------------
        BYTE   W96
// 043   ----------------------------------------
        BYTE   W96
// 044   ----------------------------------------
        BYTE   W96
// 045   ----------------------------------------
        BYTE   W96
// 046   ----------------------------------------
        BYTE   W96
// 047   ----------------------------------------
        BYTE   W96
// 048   ----------------------------------------
        BYTE   W96
// 049   ----------------------------------------
        BYTE   W96
// 050   ----------------------------------------
        BYTE           MOD     3
        BYTE           N54     An2   v045   gtp1
        BYTE                   Dn3
        BYTE   W72
        BYTE           N15     Gn2
        BYTE           N15     Cn3
        BYTE   W24
// 051   ----------------------------------------
EachJustice_13_51:
        BYTE           N78     Cn3   v045   gtp1
        BYTE                   Fn3
        BYTE   W96
        BYTE   PEND
// 052   ----------------------------------------
EachJustice_13_52:
        BYTE           N54     An2   v045   gtp1
        BYTE                   Cn3
        BYTE   W72
        BYTE           N15     Gn2
        BYTE           N15     Bn2
        BYTE   W24
        BYTE   PEND
// 053   ----------------------------------------
EachJustice_13_53:
        BYTE           N78     Cn3   v045   gtp1
        BYTE                   En3
        BYTE   W96
        BYTE   PEND
// 054   ----------------------------------------
EachJustice_13_54:
        BYTE           N30     Cn3   v045   gtp1
        BYTE           N32     En3   v045   gtp2
        BYTE   W48
        BYTE           N32     Cs3   v045   gtp3
        BYTE           N36     En3
        BYTE   W48
        BYTE   PEND
// 055   ----------------------------------------
EachJustice_13_55:
        BYTE           N32     Cn3   v045
        BYTE           N32     En3   v045   gtp2
        BYTE   W48
        BYTE           N32     Cs3
        BYTE           N30     En3   v045   gtp1
        BYTE   W48
        BYTE   PEND
// 056   ----------------------------------------
EachJustice_13_56:
        BYTE           N32     Cn3   v045   gtp1
        BYTE           N32     En3   v045   gtp3
        BYTE   W48
        BYTE           N30     Cs3   v045   gtp1
        BYTE           N32     En3
        BYTE   W48
        BYTE   PEND
// 057   ----------------------------------------
        BYTE           N30     Cn3   v045   gtp1
        BYTE           N32     En3
        BYTE   W48
        BYTE           N30     Cs3   v045   gtp1
        BYTE           N28     En3   v045   gtp1
        BYTE   W48
// 058   ----------------------------------------
        BYTE           N54     An2   v045   gtp1
        BYTE                   Dn3
        BYTE   W72
        BYTE           N15     Gn2
        BYTE           N15     Cn3
        BYTE   W24
// 059   ----------------------------------------
        BYTE   PATT
         POIN2  EachJustice_13_51
// 060   ----------------------------------------
        BYTE   PATT
         POIN2  EachJustice_13_52
// 061   ----------------------------------------
        BYTE   PATT
         POIN2  EachJustice_13_53
// 062   ----------------------------------------
        BYTE   PATT
         POIN2  EachJustice_13_54
// 063   ----------------------------------------
        BYTE   PATT
         POIN2  EachJustice_13_55
// 064   ----------------------------------------
        BYTE   PATT
         POIN2  EachJustice_13_56
// 065   ----------------------------------------
        BYTE   W44
        BYTE   W03
        BYTE           N08     Cs3   v045
        BYTE   W08
        BYTE                   Dn3
        BYTE   W08
        BYTE                   Cs3
        BYTE   W08
        BYTE                   As2
        BYTE   W08
        BYTE                   An2
        BYTE   W08
        BYTE                   Gn2   v030
        BYTE   W09
// 066   ----------------------------------------
        BYTE   W96
// 067   ----------------------------------------
        BYTE   W96
// 068   ----------------------------------------
        BYTE   W96
// 069   ----------------------------------------
        BYTE   W96
// 070   ----------------------------------------
        BYTE   W96
// 071   ----------------------------------------
        BYTE   W96
// 072   ----------------------------------------
        BYTE   W24
        BYTE           N07     Fn3   v090
        BYTE   W08
        BYTE                   An3
        BYTE   W08
        BYTE                   Dn4
        BYTE   W08
        BYTE           N19     Fn4   v100
        BYTE   W48
// 073   ----------------------------------------
        BYTE   W24
        BYTE           N07     Fs3   v090
        BYTE   W08
        BYTE                   Bn3
        BYTE   W08
        BYTE                   Ds4
        BYTE   W08
        BYTE           N15     Fs4   v100
        BYTE   W48
// 074   ----------------------------------------
        BYTE   W24
        BYTE           N07     Gn3   v090
        BYTE   W08
        BYTE                   Bn3
        BYTE   W08
        BYTE                   Dn4
        BYTE   W08
        BYTE           N15     Gn4   v100
        BYTE   W48
// 075   ----------------------------------------
        BYTE   W24
        BYTE           N07     Gs3   v090
        BYTE   W08
        BYTE                   Bn3
        BYTE   W08
        BYTE                   En4
        BYTE   W08
        BYTE           N15     Gs4   v100
        BYTE   W48
// 076   ----------------------------------------
        BYTE   W24
        BYTE           N07     An3   v090
        BYTE   W08
        BYTE                   Cn4
        BYTE   W08
        BYTE                   En4
        BYTE   W08
        BYTE           N15     An4   v100
        BYTE   W48
// 077   ----------------------------------------
        BYTE   W24
        BYTE           N07     As3   v090
        BYTE   W08
        BYTE                   Cs4
        BYTE   W08
        BYTE                   Fs4
        BYTE   W08
        BYTE           N15     As4   v100
        BYTE   W48
// 078   ----------------------------------------
        BYTE   W96
// 079   ----------------------------------------
        BYTE   W96
// 080   ----------------------------------------
        BYTE   W96
// 081   ----------------------------------------
        BYTE   W96
// 082   ----------------------------------------
        BYTE   W96
// 083   ----------------------------------------
        BYTE   W96
// 084   ----------------------------------------
        BYTE   W96
// 085   ----------------------------------------
        BYTE   W96
// 086   ----------------------------------------
        BYTE   W96
// 087   ----------------------------------------
        BYTE   W96
// 088   ----------------------------------------
        BYTE   W96
// 089   ----------------------------------------
        BYTE   W96
// 090   ----------------------------------------
        BYTE   W96
// 091   ----------------------------------------
        BYTE   W96
// 092   ----------------------------------------
        BYTE   W96
// 093   ----------------------------------------
        BYTE   W96
// 094   ----------------------------------------
        BYTE   W96
// 095   ----------------------------------------
        BYTE   W96
// 096   ----------------------------------------
        BYTE   W96
// 097   ----------------------------------------
        BYTE   W96
// 098   ----------------------------------------
        BYTE   W96
// 099   ----------------------------------------
        BYTE   W96
// 100   ----------------------------------------
        BYTE   W96
// 101   ----------------------------------------
        BYTE   W96
// 102   ----------------------------------------
        BYTE           MOD     0
        BYTE   GoTo
         POIN2  EachJustice_13_LOOP
        BYTE   FINE

//***************** Track 14 (Midi-Chn.15) *****************//

EachJustice_14:
        BYTE   KEYSH   EachJustice_key+0
// 000   ----------------------------------------
EachJustice_14_LOOP:
        BYTE           VOICE   114
        BYTE           VOL     22
        BYTE   W96
// 001   ----------------------------------------
        BYTE   W96
// 002   ----------------------------------------
        BYTE   W96
// 003   ----------------------------------------
        BYTE   W96
// 004   ----------------------------------------
        BYTE   W96
// 005   ----------------------------------------
        BYTE   W96
// 006   ----------------------------------------
        BYTE   W96
// 007   ----------------------------------------
        BYTE   W96
// 008   ----------------------------------------
        BYTE   W96
// 009   ----------------------------------------
        BYTE   W96
// 010   ----------------------------------------
        BYTE   W96
// 011   ----------------------------------------
        BYTE   W96
// 012   ----------------------------------------
        BYTE   W96
// 013   ----------------------------------------
        BYTE   W96
// 014   ----------------------------------------
        BYTE   W96
// 015   ----------------------------------------
        BYTE   W96
// 016   ----------------------------------------
        BYTE   W96
// 017   ----------------------------------------
        BYTE   W96
// 018   ----------------------------------------
        BYTE   W96
// 019   ----------------------------------------
        BYTE   W96
// 020   ----------------------------------------
        BYTE   W96
// 021   ----------------------------------------
        BYTE   W96
// 022   ----------------------------------------
        BYTE   W96
// 023   ----------------------------------------
        BYTE   W96
// 024   ----------------------------------------
        BYTE   W96
// 025   ----------------------------------------
        BYTE   W96
// 026   ----------------------------------------
        BYTE   W48
        BYTE           N07     Dn3   v090
        BYTE   W08
        BYTE                   Fn3
        BYTE   W08
        BYTE                   An3
        BYTE   W08
        BYTE           N23     Dn4
        BYTE   W24
// 027   ----------------------------------------
        BYTE           N07     Dn3   v060
        BYTE   W08
        BYTE                   Fn3
        BYTE   W08
        BYTE                   An3
        BYTE   W08
        BYTE           N23     Dn4
        BYTE   W24
        BYTE           N07     Dn3   v034
        BYTE   W08
        BYTE                   Fn3
        BYTE   W08
        BYTE                   An3
        BYTE   W08
        BYTE           N23     Dn4
        BYTE   W24
// 028   ----------------------------------------
        BYTE           N60     Dn4   v090   gtp3
        BYTE   W96
// 029   ----------------------------------------
        BYTE           N68     Cn4   v090   gtp3
        BYTE   W96
// 030   ----------------------------------------
        BYTE   W48
        BYTE           N07     As2
        BYTE   W08
        BYTE                   Dn3
        BYTE   W08
        BYTE                   Fn3
        BYTE   W08
        BYTE           N23     As3
        BYTE   W24
// 031   ----------------------------------------
        BYTE           N07     As2   v060
        BYTE   W08
        BYTE                   Dn3
        BYTE   W08
        BYTE                   Fn3
        BYTE   W08
        BYTE           N23     As3
        BYTE   W24
        BYTE           N07     As2   v034
        BYTE   W08
        BYTE                   Dn3
        BYTE   W08
        BYTE                   Fn3
        BYTE   W08
        BYTE           N23     As3
        BYTE   W24
// 032   ----------------------------------------
        BYTE           N68     As3   v090   gtp3
        BYTE   W96
// 033   ----------------------------------------
        BYTE           N84     An3   v090   gtp3
        BYTE   W96
// 034   ----------------------------------------
        BYTE   W48
        BYTE           N07     An2
        BYTE   W08
        BYTE                   Cn3
        BYTE   W08
        BYTE                   Fs3
        BYTE   W08
        BYTE           N23     An3
        BYTE   W24
// 035   ----------------------------------------
        BYTE           N07     An2   v060
        BYTE   W08
        BYTE                   Cn3
        BYTE   W08
        BYTE                   Fs3
        BYTE   W08
        BYTE           N23     An3
        BYTE   W24
        BYTE           N07     An2   v034
        BYTE   W08
        BYTE                   Cn3
        BYTE   W08
        BYTE                   Fs3
        BYTE   W08
        BYTE           N23     An3
        BYTE   W24
// 036   ----------------------------------------
        BYTE           N68     Fs3   v090   gtp3
        BYTE   W96
// 037   ----------------------------------------
        BYTE                   Gn3
        BYTE   W96
// 038   ----------------------------------------
        BYTE   W48
        BYTE           N07     Gs3
        BYTE   W08
        BYTE                   Bn3
        BYTE   W08
        BYTE                   Dn4
        BYTE   W08
        BYTE           N23     Fn4
        BYTE   W24
// 039   ----------------------------------------
        BYTE           N07     Gs3   v060
        BYTE   W08
        BYTE                   Bn3
        BYTE   W08
        BYTE                   Dn4
        BYTE   W08
        BYTE           N23     Fn4
        BYTE   W24
        BYTE           N15     Fn4   v090
        BYTE   W16
        BYTE                   En4
        BYTE   W16
        BYTE           N07     Dn4
        BYTE   W16
// 040   ----------------------------------------
        BYTE           N84     An4   v090   gtp3
        BYTE   W96
// 041   ----------------------------------------
        BYTE   W96
// 042   ----------------------------------------
        BYTE           N07     Dn3   v120
        BYTE   W08
        BYTE                   Fn3
        BYTE   W08
        BYTE                   An3
        BYTE   W08
        BYTE                   Dn4
        BYTE   W08
        BYTE                   An3
        BYTE   W08
        BYTE                   Fn3
        BYTE   W08
        BYTE                   Dn3
        BYTE   W08
        BYTE                   Fn3
        BYTE   W08
        BYTE                   An3
        BYTE   W08
        BYTE                   Dn4
        BYTE   W08
        BYTE                   An3
        BYTE   W08
        BYTE                   Fn3
        BYTE   W08
// 043   ----------------------------------------
        BYTE                   Dn3
        BYTE   W08
        BYTE                   Gn3
        BYTE   W08
        BYTE                   As3
        BYTE   W08
        BYTE                   Dn4
        BYTE   W08
        BYTE                   As3
        BYTE   W08
        BYTE                   Gn3
        BYTE   W08
        BYTE                   Dn3
        BYTE   W08
        BYTE                   Gn3
        BYTE   W08
        BYTE                   As3
        BYTE   W08
        BYTE                   Dn4
        BYTE   W08
        BYTE                   As3
        BYTE   W08
        BYTE                   Gn3
        BYTE   W08
// 044   ----------------------------------------
        BYTE                   En3
        BYTE   W08
        BYTE                   Gn3
        BYTE   W08
        BYTE                   As3
        BYTE   W08
        BYTE                   Cs4
        BYTE   W08
        BYTE                   As3
        BYTE   W08
        BYTE                   Gn3
        BYTE   W08
        BYTE                   En3
        BYTE   W08
        BYTE                   Gn3
        BYTE   W08
        BYTE                   As3
        BYTE   W08
        BYTE                   Cs4
        BYTE   W08
        BYTE                   As3
        BYTE   W08
        BYTE                   Gn3
        BYTE   W08
// 045   ----------------------------------------
        BYTE                   Fs3
        BYTE   W08
        BYTE                   An3
        BYTE   W08
        BYTE                   Cn4
        BYTE   W08
        BYTE                   Ds4
        BYTE   W08
        BYTE                   Cn4
        BYTE   W08
        BYTE                   An3
        BYTE   W08
        BYTE                   Fs3
        BYTE   W08
        BYTE                   An3
        BYTE   W08
        BYTE                   Cn4
        BYTE   W08
        BYTE                   Ds4
        BYTE   W08
        BYTE                   Cn4
        BYTE   W08
        BYTE                   An3
        BYTE   W08
// 046   ----------------------------------------
        BYTE                   Fn3
        BYTE   W08
        BYTE                   Gs3
        BYTE   W08
        BYTE                   Bn3
        BYTE   W08
        BYTE                   Dn4
        BYTE   W08
        BYTE                   Bn3
        BYTE   W08
        BYTE                   Gs3
        BYTE   W08
        BYTE                   Fn3
        BYTE   W08
        BYTE                   Gs3
        BYTE   W08
        BYTE                   Bn3
        BYTE   W08
        BYTE                   Dn4
        BYTE   W08
        BYTE                   Bn3
        BYTE   W08
        BYTE                   Fn3
        BYTE   W08
// 047   ----------------------------------------
        BYTE                   Gs3
        BYTE   W08
        BYTE                   Bn3
        BYTE   W08
        BYTE                   Dn4
        BYTE   W08
        BYTE                   Fn4
        BYTE   W08
        BYTE                   Dn4
        BYTE   W08
        BYTE                   Bn3
        BYTE   W08
        BYTE                   Gs3
        BYTE   W08
        BYTE                   Bn3
        BYTE   W08
        BYTE                   Dn4
        BYTE   W08
        BYTE                   Fn4
        BYTE   W08
        BYTE                   Dn4
        BYTE   W08
        BYTE                   Bn3
        BYTE   W08
// 048   ----------------------------------------
        BYTE                   Bn3
        BYTE   W08
        BYTE                   Dn4
        BYTE   W08
        BYTE                   Fn4
        BYTE   W08
        BYTE                   Gs4
        BYTE   W08
        BYTE                   Fn4
        BYTE   W08
        BYTE                   Dn4
        BYTE   W08
        BYTE                   Bn3
        BYTE   W08
        BYTE                   Dn4
        BYTE   W08
        BYTE                   Fn4
        BYTE   W08
        BYTE                   Gs4
        BYTE   W08
        BYTE                   Fn4
        BYTE   W08
        BYTE                   Dn4
        BYTE   W08
// 049   ----------------------------------------
        BYTE                   An3
        BYTE   W08
        BYTE                   Cs4
        BYTE   W08
        BYTE                   En4
        BYTE   W08
        BYTE                   An4
        BYTE   W08
        BYTE                   En4
        BYTE   W08
        BYTE                   Cs4
        BYTE   W08
        BYTE                   An3
        BYTE   W08
        BYTE                   Cs4
        BYTE   W08
        BYTE                   En4
        BYTE   W08
        BYTE                   An4
        BYTE   W08
        BYTE                   En4
        BYTE   W08
        BYTE                   Cs4
        BYTE   W08
// 050   ----------------------------------------
        BYTE   W96
// 051   ----------------------------------------
        BYTE   W96
// 052   ----------------------------------------
        BYTE   W96
// 053   ----------------------------------------
        BYTE   W96
// 054   ----------------------------------------
        BYTE   W96
// 055   ----------------------------------------
        BYTE   W96
// 056   ----------------------------------------
        BYTE   W96
// 057   ----------------------------------------
        BYTE   W96
// 058   ----------------------------------------
        BYTE   W96
// 059   ----------------------------------------
        BYTE   W96
// 060   ----------------------------------------
        BYTE   W96
// 061   ----------------------------------------
        BYTE   W96
// 062   ----------------------------------------
        BYTE   W96
// 063   ----------------------------------------
        BYTE   W96
// 064   ----------------------------------------
        BYTE   W96
// 065   ----------------------------------------
        BYTE   W96
// 066   ----------------------------------------
        BYTE   PATT
         POIN2  EachJustice_8_66
// 067   ----------------------------------------
        BYTE   PATT
         POIN2  EachJustice_8_67
// 068   ----------------------------------------
        BYTE   PATT
         POIN2  EachJustice_8_68
// 069   ----------------------------------------
        BYTE   PATT
         POIN2  EachJustice_8_69
// 070   ----------------------------------------
        BYTE   PATT
         POIN2  EachJustice_8_70
// 071   ----------------------------------------
        BYTE   PATT
         POIN2  EachJustice_8_68
// 072   ----------------------------------------
        BYTE   PATT
         POIN2  EachJustice_8_72
// 073   ----------------------------------------
        BYTE   PATT
         POIN2  EachJustice_8_73
// 074   ----------------------------------------
        BYTE   PATT
         POIN2  EachJustice_8_74
// 075   ----------------------------------------
        BYTE   PATT
         POIN2  EachJustice_8_75
// 076   ----------------------------------------
        BYTE   PATT
         POIN2  EachJustice_8_76
// 077   ----------------------------------------
        BYTE   PATT
         POIN2  EachJustice_8_77
// 078   ----------------------------------------
        BYTE   PATT
         POIN2  EachJustice_8_78
// 079   ----------------------------------------
        BYTE   PATT
         POIN2  EachJustice_8_79
// 080   ----------------------------------------
        BYTE   W96
// 081   ----------------------------------------
        BYTE   PATT
         POIN2  EachJustice_3_81
// 082   ----------------------------------------
        BYTE   W96
// 083   ----------------------------------------
        BYTE   PATT
         POIN2  EachJustice_3_83
// 084   ----------------------------------------
        BYTE   W96
// 085   ----------------------------------------
        BYTE   PATT
         POIN2  EachJustice_3_85
// 086   ----------------------------------------
        BYTE   W96
// 087   ----------------------------------------
        BYTE   W96
// 088   ----------------------------------------
        BYTE   PATT
         POIN2  EachJustice_3_88
// 089   ----------------------------------------
        BYTE   PATT
         POIN2  EachJustice_3_89
// 090   ----------------------------------------
        BYTE   W96
// 091   ----------------------------------------
        BYTE   W96
// 092   ----------------------------------------
        BYTE   W96
// 093   ----------------------------------------
        BYTE   W96
// 094   ----------------------------------------
        BYTE   W96
// 095   ----------------------------------------
        BYTE   W96
// 096   ----------------------------------------
        BYTE   W96
// 097   ----------------------------------------
        BYTE   W96
// 098   ----------------------------------------
        BYTE   W96
// 099   ----------------------------------------
        BYTE   W96
// 100   ----------------------------------------
        BYTE   W96
// 101   ----------------------------------------
        BYTE   W96
// 102   ----------------------------------------
        BYTE   GoTo
         POIN2  EachJustice_14_LOOP
        BYTE   FINE


//********************** End of Song ***********************//

        ALIGN 4
EachJustice:
        BYTE   15                      // Num Tracks
        BYTE   0                       // Unknown
        BYTE   EachJustice_pri         // Priority
        BYTE   EachJustice_rev         // Reverb

        POIN2   EachJustice_grp        

        POIN2   EachJustice_0
        POIN2   EachJustice_1
        POIN2   EachJustice_2
        POIN2   EachJustice_3
        POIN2   EachJustice_4
        POIN2   EachJustice_5
        POIN2   EachJustice_6
        POIN2   EachJustice_7
        POIN2   EachJustice_8
        POIN2   EachJustice_9
        POIN2   EachJustice_10
        POIN2   EachJustice_11
        POIN2   EachJustice_12
        POIN2   EachJustice_13
        POIN2   EachJustice_14

        
