//Event file generated from Sappy .s format.
        #include "MPlayDef.event"

        #define    earthbound0_grp  voicegroup000
        #define    earthbound0_pri  0
        #define    earthbound0_rev  0
        #define    earthbound0_key  0

        // .rodata
        // earthbound0
        ALIGN 4

//****************** Track 0 (Midi-Chn.0) ******************//

earthbound0_0:
        BYTE   KEYSH   earthbound0_key+0
// 000   ----------------------------------------
        BYTE   TEMPO   140/2
        BYTE           VOICE   96
        BYTE           VOL     27
        BYTE   W24
// 001   ----------------------------------------
        BYTE           PAN     c_v-64
        BYTE           N68     An2   v115
        BYTE   W72
        BYTE           N12     En3
        BYTE   W16
        BYTE           N68     Dn3   v115   gtp3
        BYTE   W08
// 002   ----------------------------------------
        BYTE   W64
        BYTE           N07     An2
        BYTE   W08
        BYTE                   Dn3
        BYTE   W08
        BYTE                   En3
        BYTE   W08
        BYTE           N30     Fn3
        BYTE   W08
// 003   ----------------------------------------
        BYTE   W24
        BYTE           N07     Cn3
        BYTE   W08
        BYTE                   Bn2
        BYTE   W08
        BYTE                   An2
        BYTE   W08
        BYTE                   Fn2
        BYTE   W08
        BYTE                   Gn2
        BYTE   W08
        BYTE                   An2
        BYTE   W08
        BYTE                   Cn3
        BYTE   W08
        BYTE                   Bn2
        BYTE   W08
        BYTE           N92     An2
        BYTE   W08
// 004   ----------------------------------------
        BYTE   W88
        BYTE           N52     En3   v115   gtp1
        BYTE   W08
// 005   ----------------------------------------
        BYTE   W48
        BYTE           N22     An3
        BYTE   W24
        BYTE           N12     Gn3
        BYTE   W16
        BYTE           N52     Fs3   v115   gtp1
        BYTE   W08
// 006   ----------------------------------------
        BYTE   W48
        BYTE           N22     Dn3
        BYTE   W24
        BYTE           N12     En3
        BYTE   W16
        BYTE           N52     Fn3   v115   gtp1
        BYTE   W08
// 007   ----------------------------------------
        BYTE   W48
        BYTE           N22     An3
        BYTE   W24
        BYTE           N12     Cn4
        BYTE   W16
        BYTE           N76     Bn3
        BYTE   W08
// 008   ----------------------------------------
        BYTE   W48
earthbound0_0_LOOP:
        BYTE   W24
        BYTE           N07     An2   v115
        BYTE   W08
        BYTE                   Bn2
        BYTE   W08
        BYTE           N76     Cn3
        BYTE   W08
// 009   ----------------------------------------
earthbound0_0_9:
        BYTE   W72
        BYTE           N07     Gn2   v115
        BYTE   W08
        BYTE                   An2
        BYTE   W08
        BYTE           N76     Bn2
        BYTE   W08
        BYTE   PEND
// 010   ----------------------------------------
earthbound0_0_10:
        BYTE   W72
        BYTE           N07     Bn2   v115
        BYTE   W08
        BYTE                   Cn3
        BYTE   W08
        BYTE           TIE     An2
        BYTE   W08
        BYTE   PEND
// 011   ----------------------------------------
        BYTE   W96
// 012   ----------------------------------------
earthbound0_0_12:
        BYTE   W68
        BYTE           EOT     An2
        BYTE   W04
        BYTE           N07     An2   v115
        BYTE   W08
        BYTE                   Bn2
        BYTE   W08
        BYTE           N76     Cn3
        BYTE   W08
        BYTE   PEND
// 013   ----------------------------------------
earthbound0_0_13:
        BYTE   W72
        BYTE           N07     Dn3   v115
        BYTE   W08
        BYTE                   En3
        BYTE   W08
        BYTE           N76     Cn3
        BYTE   W08
        BYTE   PEND
// 014   ----------------------------------------
earthbound0_0_14:
        BYTE   W72
        BYTE           N07     Cn3   v115
        BYTE   W08
        BYTE                   Bn2
        BYTE   W08
        BYTE           TIE     An2
        BYTE   W08
        BYTE   PEND
// 015   ----------------------------------------
        BYTE   W96
// 016   ----------------------------------------
        BYTE   PATT
         POIN2  earthbound0_0_12
// 017   ----------------------------------------
        BYTE   PATT
         POIN2  earthbound0_0_9
// 018   ----------------------------------------
        BYTE   PATT
         POIN2  earthbound0_0_10
// 019   ----------------------------------------
        BYTE   W96
// 020   ----------------------------------------
        BYTE   PATT
         POIN2  earthbound0_0_12
// 021   ----------------------------------------
        BYTE   PATT
         POIN2  earthbound0_0_13
// 022   ----------------------------------------
        BYTE   PATT
         POIN2  earthbound0_0_14
// 023   ----------------------------------------
        BYTE   W90
        BYTE   W01
        BYTE           EOT     An2
        BYTE   W05
// 024   ----------------------------------------
        BYTE           N07     Fn2   v115
        BYTE   W08
        BYTE                   Gn2
        BYTE   W08
        BYTE                   An2
        BYTE   W08
        BYTE                   Cn3
        BYTE   W08
        BYTE                   Bn2
        BYTE   W08
        BYTE                   An2
        BYTE   W08
        BYTE                   Dn2
        BYTE   W08
        BYTE                   En2
        BYTE   W08
        BYTE                   Dn2
        BYTE   W08
        BYTE                   Cn2
        BYTE   W08
        BYTE                   Bn1
        BYTE   W16
// 025   ----------------------------------------
        BYTE   W96
// 026   ----------------------------------------
        BYTE   W96
// 027   ----------------------------------------
        BYTE   W96
// 028   ----------------------------------------
        BYTE   W96
// 029   ----------------------------------------
        BYTE   W96
// 030   ----------------------------------------
        BYTE   W96
// 031   ----------------------------------------
        BYTE   W96
// 032   ----------------------------------------
        BYTE           VOL     34
        BYTE           N07     Fn2   v127
        BYTE   W08
        BYTE                   Gn2
        BYTE   W08
        BYTE                   An2
        BYTE   W08
        BYTE                   Bn2
        BYTE   W08
        BYTE                   Cn3
        BYTE   W08
        BYTE                   Fn3
        BYTE   W08
        BYTE                   Cn3
        BYTE   W08
        BYTE                   Fn3
        BYTE   W08
        BYTE                   Gn3
        BYTE   W08
        BYTE                   An3
        BYTE   W08
        BYTE                   Cn4
        BYTE   W08
        BYTE                   Fn4
        BYTE   W08
// 033   ----------------------------------------
earthbound0_0_33:
        BYTE           N22     An3   v127
        BYTE   W24
        BYTE                   En3
        BYTE   W24
        BYTE                   An3
        BYTE   W24
        BYTE           N07     En4
        BYTE   W16
        BYTE           N68     Dn4   v127   gtp3
        BYTE   W08
        BYTE   PEND
// 034   ----------------------------------------
earthbound0_0_34:
        BYTE   W64
        BYTE           N07     An3   v127
        BYTE   W08
        BYTE                   Dn4
        BYTE   W08
        BYTE                   En4
        BYTE   W08
        BYTE           N30     Fn4
        BYTE   W08
        BYTE   PEND
// 035   ----------------------------------------
        BYTE   W24
        BYTE           N07     Cn4
        BYTE   W08
        BYTE                   Bn3
        BYTE   W08
        BYTE                   An3
        BYTE   W08
        BYTE                   Fn3
        BYTE   W08
        BYTE                   Gn3
        BYTE   W08
        BYTE                   An3
        BYTE   W08
        BYTE                   Cn4
        BYTE   W08
        BYTE                   Bn3
        BYTE   W08
        BYTE           TIE     An3
        BYTE   W08
// 036   ----------------------------------------
        BYTE   W90
        BYTE   W01
        BYTE           EOT
        BYTE   W05
// 037   ----------------------------------------
        BYTE   PATT
         POIN2  earthbound0_0_33
// 038   ----------------------------------------
        BYTE   PATT
         POIN2  earthbound0_0_34
// 039   ----------------------------------------
        BYTE   W24
        BYTE           N22     Cn4   v127
        BYTE   W24
        BYTE                   An3
        BYTE   W24
        BYTE           N07     Fn4
        BYTE   W16
        BYTE           N76     En4
        BYTE   W08
// 040   ----------------------------------------
        BYTE   W48
        BYTE           VOL     27
        BYTE   GoTo
         POIN2  earthbound0_0_LOOP
        BYTE   W24
        BYTE                   32
        BYTE           N07     An2
        BYTE   W08
        BYTE                   Bn2
        BYTE   W08
        BYTE           N08     Cn3
        BYTE   W08
// 041   ----------------------------------------
        BYTE           VOL     25
        BYTE           N68     Cn3   v115
        BYTE   W12
        BYTE           VOL     24
        BYTE   W12
        BYTE                   23
        BYTE   W12
        BYTE                   22
        BYTE   W12
        BYTE                   21
        BYTE   W12
        BYTE                   20
        BYTE   W12
        BYTE                   19
        BYTE           N07     Gn2
        BYTE   W08
        BYTE                   An2
        BYTE   W04
        BYTE           VOL     18
        BYTE   W04
        BYTE           N76     Bn2
        BYTE   W08
// 042   ----------------------------------------
        BYTE           VOL     17
        BYTE   W12
        BYTE                   16
        BYTE   W12
        BYTE                   15
        BYTE   W12
        BYTE                   14
        BYTE   W12
        BYTE                   13
        BYTE   W12
        BYTE                   12
        BYTE   W12
        BYTE                   11
        BYTE           N07
        BYTE   W08
        BYTE                   Cn3
        BYTE   W04
        BYTE           VOL     10
        BYTE   W04
        BYTE           TIE     An2
        BYTE   W08
// 043   ----------------------------------------
earthbound0_0_43:
        BYTE           VOL     9
        BYTE   W12
        BYTE                   8
        BYTE   W12
        BYTE                   7
        BYTE   W12
        BYTE                   6
        BYTE   W12
        BYTE                   5
        BYTE   W12
        BYTE                   4
        BYTE   W12
        BYTE                   3
        BYTE   W12
        BYTE                   2
        BYTE   W12
        BYTE   PEND
// 044   ----------------------------------------
        BYTE                   1
        BYTE   W12
        BYTE                   0
        BYTE   W56
        BYTE           EOT     An2
        BYTE   W04
        BYTE           N07     An2   v115
        BYTE   W08
        BYTE                   Bn2
        BYTE   W12
        BYTE   FINE

//****************** Track 1 (Midi-Chn.1) ******************//

earthbound0_1:
        BYTE   KEYSH   earthbound0_key+0
// 000   ----------------------------------------
        BYTE           VOICE   68
        BYTE           VOL     29
        BYTE   W24
// 001   ----------------------------------------
        BYTE   W96
// 002   ----------------------------------------
        BYTE                   37
        BYTE           PAN     c_v-43
        BYTE   W24
        BYTE           N04     Dn4   v120
        BYTE   W08
        BYTE                   Cn4
        BYTE   W08
        BYTE                   Bn3
        BYTE   W08
        BYTE                   Cn4
        BYTE   W08
        BYTE                   Bn3
        BYTE   W08
        BYTE           N20     An3
        BYTE   W32
// 003   ----------------------------------------
        BYTE   W96
// 004   ----------------------------------------
        BYTE   W24
        BYTE           N04     En4
        BYTE   W08
        BYTE                   Dn4
        BYTE   W08
        BYTE                   Dn4
        BYTE   W08
        BYTE                   Dn4
        BYTE   W08
        BYTE                   Cn4
        BYTE   W08
        BYTE                   Cn4
        BYTE   W08
        BYTE                   Cn4
        BYTE   W08
        BYTE           N06     Bn3
        BYTE   W16
// 005   ----------------------------------------
        BYTE   W96
// 006   ----------------------------------------
        BYTE   W24
        BYTE           N08     An3
        BYTE   W08
        BYTE                   Dn4
        BYTE   W08
        BYTE                   En4
        BYTE   W08
        BYTE                   Fs4
        BYTE   W08
        BYTE                   Gn4
        BYTE   W08
        BYTE                   Fs4
        BYTE   W08
        BYTE                   En4
        BYTE   W08
        BYTE                   Dn4
        BYTE   W08
        BYTE           N32     Cn5
        BYTE   W08
// 007   ----------------------------------------
        BYTE   W24
        BYTE           N24     An4
        BYTE   W24
        BYTE                   Fn4
        BYTE   W24
        BYTE           N16     Cn4
        BYTE   W16
        BYTE           N24     En4
        BYTE   W08
// 008   ----------------------------------------
        BYTE   W16
        BYTE           N08     Dn4
        BYTE   W08
        BYTE                   Cn4
        BYTE   W08
        BYTE                   Bn3
        BYTE   W08
        BYTE                   An3
        BYTE   W08
earthbound0_1_LOOP:
        BYTE           N08     Gs3   v120
        BYTE   W08
        BYTE                   En3
        BYTE   W08
        BYTE                   Bn2
        BYTE   W08
        BYTE           N24     En2
        BYTE   W24
// 009   ----------------------------------------
        BYTE   W96
// 010   ----------------------------------------
        BYTE   W96
// 011   ----------------------------------------
        BYTE   W24
        BYTE           N04     An3
        BYTE   W08
        BYTE                   Bn3
        BYTE   W08
        BYTE                   Cn4
        BYTE   W08
        BYTE           N12     Bn3
        BYTE   W16
        BYTE                   An3
        BYTE   W16
        BYTE                   Gn3
        BYTE   W16
// 012   ----------------------------------------
        BYTE                   Fn3
        BYTE   W16
        BYTE                   Cn3
        BYTE   W16
        BYTE                   An3
        BYTE   W16
        BYTE           N04     Gn3
        BYTE   W08
        BYTE                   An3
        BYTE   W08
        BYTE           N20     Bn3
        BYTE   W32
// 013   ----------------------------------------
        BYTE   W96
// 014   ----------------------------------------
        BYTE   W96
// 015   ----------------------------------------
        BYTE   W24
        BYTE           N04     An3
        BYTE   W08
        BYTE                   Bn3
        BYTE   W08
        BYTE                   Cn4
        BYTE   W08
        BYTE           N12     Dn4
        BYTE   W16
        BYTE                   Cn4
        BYTE   W16
        BYTE                   Bn3
        BYTE   W16
// 016   ----------------------------------------
        BYTE                   An3
        BYTE   W16
        BYTE                   Fn3
        BYTE   W16
        BYTE                   Cn4
        BYTE   W16
        BYTE           N04     Bn3
        BYTE   W08
        BYTE                   Bn2
        BYTE   W08
        BYTE                   Dn3
        BYTE   W08
        BYTE                   Gn3
        BYTE   W08
        BYTE                   Bn3
        BYTE   W16
// 017   ----------------------------------------
        BYTE   W96
// 018   ----------------------------------------
        BYTE   W96
// 019   ----------------------------------------
        BYTE   W24
        BYTE                   An3
        BYTE   W08
        BYTE                   Bn3
        BYTE   W08
        BYTE                   Cn4
        BYTE   W08
        BYTE           N12     Fn4
        BYTE   W16
        BYTE                   Cn4
        BYTE   W16
        BYTE                   Gn4
        BYTE   W16
// 020   ----------------------------------------
        BYTE                   An4
        BYTE   W16
        BYTE                   Bn4
        BYTE   W16
        BYTE                   Cn5
        BYTE   W16
        BYTE           N04     Bn4
        BYTE   W08
        BYTE                   An4
        BYTE   W08
        BYTE           N20     Gn4
        BYTE   W32
// 021   ----------------------------------------
        BYTE   W96
// 022   ----------------------------------------
        BYTE   W96
// 023   ----------------------------------------
        BYTE   W24
        BYTE           N04     En5
        BYTE   W08
        BYTE                   Dn5
        BYTE   W08
        BYTE                   Dn5
        BYTE   W08
        BYTE                   Dn5
        BYTE   W08
        BYTE                   Cn5
        BYTE   W08
        BYTE                   Cn5
        BYTE   W08
        BYTE                   Cn5
        BYTE   W08
        BYTE                   Bn4
        BYTE   W08
        BYTE                   Bn4
        BYTE   W08
// 024   ----------------------------------------
        BYTE                   An4
        BYTE   W08
        BYTE                   Bn4
        BYTE   W08
        BYTE                   Cn5
        BYTE   W08
        BYTE                   Fn4
        BYTE   W08
        BYTE                   Gn4
        BYTE   W08
        BYTE                   An4
        BYTE   W08
        BYTE                   Cn4
        BYTE   W08
        BYTE                   Fn4
        BYTE   W08
        BYTE                   Gn4
        BYTE   W08
        BYTE                   An4
        BYTE   W08
        BYTE                   Bn4
        BYTE   W08
        BYTE           N30     An3
        BYTE   W08
// 025   ----------------------------------------
earthbound0_1_25:
        BYTE   W24
        BYTE           N22     Bn3   v120
        BYTE   W24
        BYTE                   Cn4
        BYTE   W24
        BYTE           N15     En4
        BYTE   W16
        BYTE           N30     Dn4
        BYTE   W08
        BYTE   PEND
// 026   ----------------------------------------
earthbound0_1_26:
        BYTE   W24
        BYTE           N22     Cn4   v120
        BYTE   W24
        BYTE                   Bn3
        BYTE   W24
        BYTE           N15     An3
        BYTE   W16
        BYTE           N30     Gn3
        BYTE   W08
        BYTE   PEND
// 027   ----------------------------------------
        BYTE   W24
        BYTE           N22     An3
        BYTE   W24
        BYTE                   Bn3
        BYTE   W24
        BYTE           N15     Dn4
        BYTE   W16
        BYTE           N19     Cn4
        BYTE   W08
// 028   ----------------------------------------
        BYTE   W12
        BYTE           N03     Dn4
        BYTE   W04
        BYTE                   Cn4
        BYTE   W04
        BYTE                   Bn3
        BYTE   W04
        BYTE           N60     Cn4   v120   gtp3
        BYTE   W64
        BYTE           N30     An3
        BYTE   W08
// 029   ----------------------------------------
        BYTE   PATT
         POIN2  earthbound0_1_25
// 030   ----------------------------------------
        BYTE   PATT
         POIN2  earthbound0_1_26
// 031   ----------------------------------------
        BYTE   W24
        BYTE           N22     An3   v120
        BYTE   W24
        BYTE           N12     Bn3
        BYTE   W16
        BYTE                   Dn4
        BYTE   W16
        BYTE                   Bn3
        BYTE   W16
// 032   ----------------------------------------
        BYTE           N32     Bn3   v120   gtp2
        BYTE   W36
        BYTE           N05     Cn4
        BYTE   W06
        BYTE                   Bn3
        BYTE   W06
        BYTE           N44     An3   v120   gtp1
        BYTE   W48
// 033   ----------------------------------------
        BYTE   W96
// 034   ----------------------------------------
        BYTE   W96
// 035   ----------------------------------------
        BYTE   W96
// 036   ----------------------------------------
        BYTE   W24
        BYTE           N04     En4
        BYTE   W08
        BYTE                   Dn4
        BYTE   W08
        BYTE                   Dn4
        BYTE   W08
        BYTE                   Dn4
        BYTE   W08
        BYTE                   Cn4
        BYTE   W08
        BYTE                   Cn4
        BYTE   W08
        BYTE                   Cn4
        BYTE   W08
        BYTE                   Bn3
        BYTE   W08
        BYTE                   Bn3
        BYTE   W08
// 037   ----------------------------------------
        BYTE   W96
// 038   ----------------------------------------
        BYTE   W96
// 039   ----------------------------------------
        BYTE   W96
// 040   ----------------------------------------
        BYTE   W48
        BYTE   GoTo
         POIN2  earthbound0_1_LOOP
        BYTE   W48
// 041   ----------------------------------------
        BYTE           VOL     29
        BYTE   W12
        BYTE                   28
        BYTE   W12
        BYTE                   27
        BYTE   W12
        BYTE                   26
        BYTE   W12
        BYTE                   24
        BYTE   W12
        BYTE                   23
        BYTE   W12
        BYTE                   22
        BYTE   W12
        BYTE                   21
        BYTE   W12
// 042   ----------------------------------------
        BYTE                   20
        BYTE   W12
        BYTE                   19
        BYTE   W12
        BYTE                   17
        BYTE   W12
        BYTE                   16
        BYTE   W12
        BYTE                   15
        BYTE   W12
        BYTE                   14
        BYTE   W12
        BYTE                   13
        BYTE   W12
        BYTE                   12
        BYTE   W12
// 043   ----------------------------------------
        BYTE                   10
        BYTE   W12
        BYTE                   9
        BYTE   W12
        BYTE                   8
        BYTE           N04     An3
        BYTE   W08
        BYTE                   Bn3
        BYTE   W04
        BYTE           VOL     7
        BYTE   W04
        BYTE           N04     Cn4
        BYTE   W08
        BYTE           VOL     6
        BYTE           N12     Bn3
        BYTE   W12
        BYTE           VOL     5
        BYTE   W04
        BYTE           N12     An3
        BYTE   W08
        BYTE           VOL     3
        BYTE   W08
        BYTE           N12     Gn3
        BYTE   W04
        BYTE           VOL     2
        BYTE   W12
// 044   ----------------------------------------
        BYTE                   1
        BYTE           N12     Fn3
        BYTE   W12
        BYTE           VOL     0
        BYTE   W04
        BYTE           N12     Cn3
        BYTE   W16
        BYTE                   An3
        BYTE   W16
        BYTE           N04     Gn3
        BYTE   W08
        BYTE                   An3
        BYTE   W08
        BYTE           N20     Bn3
        BYTE   W28
        BYTE   FINE

//****************** Track 2 (Midi-Chn.2) ******************//

earthbound0_2:
        BYTE   KEYSH   earthbound0_key+0
// 000   ----------------------------------------
        BYTE           VOICE   61
        BYTE           VOL     25
        BYTE   W24
// 001   ----------------------------------------
        BYTE           PAN     c_v-22
        BYTE           N68     En3   v100   gtp2
        BYTE   W72
        BYTE           N07
        BYTE   W16
        BYTE           N84     Fs3   v100   gtp3
        BYTE   W08
// 002   ----------------------------------------
earthbound0_2_2:
        BYTE   W88
        BYTE           N78     Fn3   v100
        BYTE   W08
        BYTE   PEND
// 003   ----------------------------------------
earthbound0_2_3:
        BYTE   W72
        BYTE           N07     Fn3   v100
        BYTE   W16
        BYTE           N84     En3   v100   gtp3
        BYTE   W08
        BYTE   PEND
// 004   ----------------------------------------
earthbound0_2_4:
        BYTE   W88
        BYTE           N78     En3   v100
        BYTE   W08
        BYTE   PEND
// 005   ----------------------------------------
earthbound0_2_5:
        BYTE   W72
        BYTE           N07     En3   v100
        BYTE   W16
        BYTE           N78     Fs3
        BYTE   W08
        BYTE   PEND
// 006   ----------------------------------------
earthbound0_2_6:
        BYTE   W72
        BYTE           N07     Fs3   v100
        BYTE   W16
        BYTE           N78     An3
        BYTE   W08
        BYTE   PEND
// 007   ----------------------------------------
earthbound0_2_7:
        BYTE   W72
        BYTE           N07     An3   v100
        BYTE   W16
        BYTE           N54     Gs3   v100   gtp1
        BYTE   W08
        BYTE   PEND
// 008   ----------------------------------------
        BYTE   W48
earthbound0_2_LOOP:
        BYTE           N23     Gs3   v100
        BYTE   W24
        BYTE           N07     Gs2
        BYTE   W16
        BYTE           N84     En3   v100   gtp3
        BYTE   W08
// 009   ----------------------------------------
earthbound0_2_9:
        BYTE   W88
        BYTE           N84     Dn3   v100   gtp3
        BYTE   W08
        BYTE   PEND
// 010   ----------------------------------------
        BYTE   W88
        BYTE           TIE     Cn3
        BYTE   W08
// 011   ----------------------------------------
        BYTE   W92
        BYTE   W02
        BYTE           EOT
        BYTE   W02
// 012   ----------------------------------------
earthbound0_2_12:
        BYTE           N60     Cn3   v100   gtp3
        BYTE   W64
        BYTE           N15     Dn3
        BYTE   W24
        BYTE           N84     En3   v100   gtp3
        BYTE   W08
        BYTE   PEND
// 013   ----------------------------------------
earthbound0_2_13:
        BYTE   W88
        BYTE           N84     Fn3   v100   gtp3
        BYTE   W08
        BYTE   PEND
// 014   ----------------------------------------
earthbound0_2_14:
        BYTE   W88
        BYTE           N68     Dn3   v100   gtp3
        BYTE   W08
        BYTE   PEND
// 015   ----------------------------------------
earthbound0_2_15:
        BYTE   W64
        BYTE           N15     Dn3   v100
        BYTE   W32
        BYTE   PEND
// 016   ----------------------------------------
        BYTE   PATT
         POIN2  earthbound0_2_12
// 017   ----------------------------------------
        BYTE   PATT
         POIN2  earthbound0_2_9
// 018   ----------------------------------------
        BYTE   W88
        BYTE           TIE     Cn3   v100
        BYTE   W08
// 019   ----------------------------------------
        BYTE   W92
        BYTE   W02
        BYTE           EOT
        BYTE   W02
// 020   ----------------------------------------
        BYTE   PATT
         POIN2  earthbound0_2_12
// 021   ----------------------------------------
        BYTE   PATT
         POIN2  earthbound0_2_13
// 022   ----------------------------------------
        BYTE   PATT
         POIN2  earthbound0_2_14
// 023   ----------------------------------------
        BYTE   PATT
         POIN2  earthbound0_2_15
// 024   ----------------------------------------
        BYTE           N60     Cn3   v100   gtp3
        BYTE   W64
        BYTE           N15     Gn2
        BYTE   W24
        BYTE           N84     Cn3   v100   gtp3
        BYTE   W08
// 025   ----------------------------------------
        BYTE   PATT
         POIN2  earthbound0_2_9
// 026   ----------------------------------------
earthbound0_2_26:
        BYTE   W88
        BYTE           N84     Bn2   v100   gtp3
        BYTE   W08
        BYTE   PEND
// 027   ----------------------------------------
        BYTE   W88
        BYTE           N68     Cn3   v100   gtp3
        BYTE   W08
// 028   ----------------------------------------
        BYTE   W64
        BYTE           N15     Bn2
        BYTE   W24
        BYTE           N84     Cn3   v100   gtp3
        BYTE   W08
// 029   ----------------------------------------
        BYTE   PATT
         POIN2  earthbound0_2_9
// 030   ----------------------------------------
        BYTE   W88
        BYTE           TIE     Bn2   v100
        BYTE   W08
// 031   ----------------------------------------
        BYTE   W92
        BYTE   W02
        BYTE           EOT
        BYTE   W02
// 032   ----------------------------------------
        BYTE           N92     An2   v100   gtp2
        BYTE   W96
// 033   ----------------------------------------
        BYTE           N68     En3   v100   gtp2
        BYTE   W72
        BYTE           N07
        BYTE   W16
        BYTE           N84     Fs3   v100   gtp3
        BYTE   W08
// 034   ----------------------------------------
        BYTE   PATT
         POIN2  earthbound0_2_2
// 035   ----------------------------------------
        BYTE   PATT
         POIN2  earthbound0_2_3
// 036   ----------------------------------------
        BYTE   PATT
         POIN2  earthbound0_2_4
// 037   ----------------------------------------
        BYTE   PATT
         POIN2  earthbound0_2_5
// 038   ----------------------------------------
        BYTE   PATT
         POIN2  earthbound0_2_6
// 039   ----------------------------------------
        BYTE   PATT
         POIN2  earthbound0_2_7
// 040   ----------------------------------------
        BYTE   W48
        BYTE           N23     Gs3   v100
        BYTE   GoTo
         POIN2  earthbound0_2_LOOP
        BYTE   W24
        BYTE           N07     Gs2
        BYTE   W16
        BYTE           N08     En3
        BYTE   W08
// 041   ----------------------------------------
        BYTE           VOL     20
        BYTE           N78     En3   v100   gtp1
        BYTE   W12
        BYTE           VOL     19
        BYTE   W12
        BYTE                   18
        BYTE   W12
        BYTE                   17
        BYTE   W24
        BYTE                   16
        BYTE   W12
        BYTE                   15
        BYTE   W12
        BYTE                   14
        BYTE   W04
        BYTE           N84     Dn3   v100   gtp3
        BYTE   W08
// 042   ----------------------------------------
        BYTE           VOL     13
        BYTE   W24
        BYTE                   12
        BYTE   W12
        BYTE                   11
        BYTE   W12
        BYTE                   10
        BYTE   W12
        BYTE                   9
        BYTE   W24
        BYTE                   8
        BYTE   W04
        BYTE           TIE     Cn3
        BYTE   W08
// 043   ----------------------------------------
        BYTE           VOL     7
        BYTE   W12
        BYTE                   6
        BYTE   W24
        BYTE                   5
        BYTE   W12
        BYTE                   4
        BYTE   W12
        BYTE                   3
        BYTE   W12
        BYTE                   2
        BYTE   W22
        BYTE           EOT
        BYTE   W02
// 044   ----------------------------------------
        BYTE           VOL     1
        BYTE           N60     Cn3   v100   gtp3
        BYTE   W12
        BYTE           VOL     0
        BYTE   W52
        BYTE           N15     Dn3
        BYTE   W28
        BYTE   FINE

//****************** Track 3 (Midi-Chn.3) ******************//

earthbound0_3:
        BYTE   KEYSH   earthbound0_key+0
// 000   ----------------------------------------
        BYTE           VOICE   61
        BYTE           VOL     25
        BYTE   W24
// 001   ----------------------------------------
        BYTE           PAN     c_v-1
        BYTE           N68     An2   v100   gtp2
        BYTE   W72
        BYTE           N07
        BYTE   W16
        BYTE           N84     An2   v100   gtp3
        BYTE   W08
// 002   ----------------------------------------
earthbound0_3_2:
        BYTE   W88
        BYTE           N78     An2   v100
        BYTE   W08
        BYTE   PEND
// 003   ----------------------------------------
earthbound0_3_3:
        BYTE   W72
        BYTE           N07     An2   v100
        BYTE   W16
        BYTE           N84     An2   v100   gtp3
        BYTE   W08
        BYTE   PEND
// 004   ----------------------------------------
        BYTE   PATT
         POIN2  earthbound0_3_2
// 005   ----------------------------------------
        BYTE   W72
        BYTE           N07     An2   v100
        BYTE   W16
        BYTE           N78
        BYTE   W08
// 006   ----------------------------------------
        BYTE   W72
        BYTE           N07
        BYTE   W16
        BYTE           N78     Cn3
        BYTE   W08
// 007   ----------------------------------------
        BYTE   W72
        BYTE           N07
        BYTE   W16
        BYTE           N54     Bn2   v100   gtp1
        BYTE   W08
// 008   ----------------------------------------
        BYTE   W48
earthbound0_3_LOOP:
        BYTE           N23     Bn2   v100
        BYTE   W24
        BYTE           N07
        BYTE   W16
        BYTE           N84     An2   v100   gtp3
        BYTE   W08
// 009   ----------------------------------------
earthbound0_3_9:
        BYTE   W88
        BYTE           N84     Gn2   v100   gtp3
        BYTE   W08
        BYTE   PEND
// 010   ----------------------------------------
        BYTE   W88
        BYTE           TIE     Fn2
        BYTE   W08
// 011   ----------------------------------------
        BYTE   W92
        BYTE   W02
        BYTE           EOT
        BYTE   W02
// 012   ----------------------------------------
earthbound0_3_12:
        BYTE           N60     Fn2   v100   gtp3
        BYTE   W64
        BYTE           N15     Gn2
        BYTE   W24
        BYTE           N84     An2   v100   gtp3
        BYTE   W08
        BYTE   PEND
// 013   ----------------------------------------
earthbound0_3_13:
        BYTE   W88
        BYTE           N84     An2   v100   gtp3
        BYTE   W08
        BYTE   PEND
// 014   ----------------------------------------
earthbound0_3_14:
        BYTE   W88
        BYTE           N68     Fs2   v100   gtp3
        BYTE   W08
        BYTE   PEND
// 015   ----------------------------------------
earthbound0_3_15:
        BYTE   W64
        BYTE           N15     Fs2   v100
        BYTE   W32
        BYTE   PEND
// 016   ----------------------------------------
        BYTE   PATT
         POIN2  earthbound0_3_12
// 017   ----------------------------------------
        BYTE   PATT
         POIN2  earthbound0_3_9
// 018   ----------------------------------------
        BYTE   W88
        BYTE           TIE     Fn2   v100
        BYTE   W08
// 019   ----------------------------------------
        BYTE   W92
        BYTE   W02
        BYTE           EOT
        BYTE   W02
// 020   ----------------------------------------
        BYTE   PATT
         POIN2  earthbound0_3_12
// 021   ----------------------------------------
        BYTE   PATT
         POIN2  earthbound0_3_13
// 022   ----------------------------------------
        BYTE   PATT
         POIN2  earthbound0_3_14
// 023   ----------------------------------------
        BYTE   PATT
         POIN2  earthbound0_3_15
// 024   ----------------------------------------
        BYTE           N60     Fn2   v100   gtp3
        BYTE   W64
        BYTE           N15     Dn2
        BYTE   W24
        BYTE           N84     Fn2   v100   gtp3
        BYTE   W08
// 025   ----------------------------------------
        BYTE   PATT
         POIN2  earthbound0_3_9
// 026   ----------------------------------------
        BYTE   W88
        BYTE           N84     En2   v100   gtp3
        BYTE   W08
// 027   ----------------------------------------
        BYTE   W88
        BYTE           N68     Fn2   v100   gtp3
        BYTE   W08
// 028   ----------------------------------------
        BYTE   W64
        BYTE           N15     Dn2
        BYTE   W24
        BYTE           N84     Fn2   v100   gtp3
        BYTE   W08
// 029   ----------------------------------------
        BYTE   PATT
         POIN2  earthbound0_3_9
// 030   ----------------------------------------
        BYTE   W88
        BYTE           TIE     En2   v100
        BYTE   W08
// 031   ----------------------------------------
        BYTE   W92
        BYTE   W02
        BYTE           EOT
        BYTE   W02
// 032   ----------------------------------------
        BYTE           N92     Cn2   v100   gtp2
        BYTE   W96
// 033   ----------------------------------------
        BYTE           N68     An2   v100   gtp2
        BYTE   W72
        BYTE           N07
        BYTE   W16
        BYTE           N84     An2   v100   gtp3
        BYTE   W08
// 034   ----------------------------------------
        BYTE   PATT
         POIN2  earthbound0_3_2
// 035   ----------------------------------------
        BYTE   PATT
         POIN2  earthbound0_3_3
// 036   ----------------------------------------
        BYTE   PATT
         POIN2  earthbound0_3_2
// 037   ----------------------------------------
        BYTE           VOL     17
        BYTE           PAN     c_v+41
        BYTE   W72
        BYTE           N07     An2   v100
        BYTE   W16
        BYTE           N84     An2   v100   gtp3
        BYTE   W08
// 038   ----------------------------------------
        BYTE   W88
        BYTE                   Cn3
        BYTE   W08
// 039   ----------------------------------------
        BYTE   W88
        BYTE           N54     Bn2   v100   gtp1
        BYTE   W08
// 040   ----------------------------------------
        BYTE   W48
        BYTE           N30     Bn2   v100   gtp1
        BYTE           VOL     25
        BYTE           PAN     c_v-1
        BYTE   GoTo
         POIN2  earthbound0_3_LOOP
        BYTE   W40
        BYTE           N08     An2
        BYTE   W08
// 041   ----------------------------------------
        BYTE           VOL     13
        BYTE           N78     An2   v100   gtp1
        BYTE   W24
        BYTE           VOL     12
        BYTE   W24
        BYTE                   11
        BYTE   W24
        BYTE                   10
        BYTE   W16
        BYTE           N84     Gn2   v100   gtp3
        BYTE   W08
// 042   ----------------------------------------
        BYTE           VOL     9
        BYTE   W24
        BYTE                   8
        BYTE   W12
        BYTE                   7
        BYTE   W24
        BYTE                   6
        BYTE   W24
        BYTE                   5
        BYTE   W04
        BYTE           TIE     Fn2
        BYTE   W08
// 043   ----------------------------------------
        BYTE   W12
        BYTE           VOL     4
        BYTE   W24
        BYTE                   3
        BYTE   W24
        BYTE                   2
        BYTE   W24
        BYTE                   1
        BYTE   W10
        BYTE           EOT
        BYTE   W02
// 044   ----------------------------------------
        BYTE           N60     Fn2   v100   gtp3
        BYTE   W12
        BYTE           VOL     0
        BYTE   W52
        BYTE           N15     Gn2
        BYTE   W28
        BYTE   FINE

//****************** Track 4 (Midi-Chn.4) ******************//

earthbound0_4:
        BYTE   KEYSH   earthbound0_key+0
// 000   ----------------------------------------
        BYTE           VOICE   61
        BYTE           VOL     25
        BYTE   W24
// 001   ----------------------------------------
        BYTE           PAN     c_v+20
        BYTE           N68     Cn3   v100   gtp2
        BYTE   W72
        BYTE           N07
        BYTE   W16
        BYTE           N84     Dn3   v100   gtp3
        BYTE   W08
// 002   ----------------------------------------
earthbound0_4_2:
        BYTE   W88
        BYTE           N78     Cn3   v100
        BYTE   W08
        BYTE   PEND
// 003   ----------------------------------------
earthbound0_4_3:
        BYTE   W72
        BYTE           N07     Cn3   v100
        BYTE   W16
        BYTE           N84     Cn3   v100   gtp3
        BYTE   W08
        BYTE   PEND
// 004   ----------------------------------------
        BYTE   PATT
         POIN2  earthbound0_4_2
// 005   ----------------------------------------
earthbound0_4_5:
        BYTE   W72
        BYTE           N07     Cn3   v100
        BYTE   W16
        BYTE           N78     Dn3
        BYTE   W08
        BYTE   PEND
// 006   ----------------------------------------
earthbound0_4_6:
        BYTE   W72
        BYTE           N07     Dn3   v100
        BYTE   W16
        BYTE           N78     Fn3
        BYTE   W08
        BYTE   PEND
// 007   ----------------------------------------
earthbound0_4_7:
        BYTE   W72
        BYTE           N07     Fn3   v100
        BYTE   W16
        BYTE           N54     En3   v100   gtp1
        BYTE   W08
        BYTE   PEND
// 008   ----------------------------------------
        BYTE   W48
earthbound0_4_LOOP:
        BYTE           N23     En3   v100
        BYTE   W24
        BYTE           N07     En2
        BYTE   W16
        BYTE           N84     Cn3   v100   gtp3
        BYTE   W08
// 009   ----------------------------------------
        BYTE   PATT
         POIN2  earthbound0_2_26
// 010   ----------------------------------------
        BYTE   W88
        BYTE           TIE     An2   v100
        BYTE   W08
// 011   ----------------------------------------
        BYTE   W92
        BYTE   W02
        BYTE           EOT
        BYTE   W02
// 012   ----------------------------------------
earthbound0_4_12:
        BYTE           N60     An2   v100   gtp3
        BYTE   W64
        BYTE           N15     Bn2
        BYTE   W24
        BYTE           N84     Cn3   v100   gtp3
        BYTE   W08
        BYTE   PEND
// 013   ----------------------------------------
earthbound0_4_13:
        BYTE   W88
        BYTE           N07     An2   v100
        BYTE   W08
        BYTE   PEND
// 014   ----------------------------------------
earthbound0_4_14:
        BYTE           N78     An2   v100   gtp1
        BYTE   W88
        BYTE           N68     An2   v100   gtp3
        BYTE   W08
        BYTE   PEND
// 015   ----------------------------------------
earthbound0_4_15:
        BYTE   W64
        BYTE           N15     An2   v100
        BYTE   W32
        BYTE   PEND
// 016   ----------------------------------------
        BYTE   PATT
         POIN2  earthbound0_4_12
// 017   ----------------------------------------
        BYTE   PATT
         POIN2  earthbound0_2_26
// 018   ----------------------------------------
        BYTE   W88
        BYTE           TIE     An2   v100
        BYTE   W08
// 019   ----------------------------------------
        BYTE   W92
        BYTE   W02
        BYTE           EOT
        BYTE   W02
// 020   ----------------------------------------
        BYTE   PATT
         POIN2  earthbound0_4_12
// 021   ----------------------------------------
        BYTE   PATT
         POIN2  earthbound0_4_13
// 022   ----------------------------------------
        BYTE   PATT
         POIN2  earthbound0_4_14
// 023   ----------------------------------------
        BYTE   PATT
         POIN2  earthbound0_4_15
// 024   ----------------------------------------
        BYTE           N60     An2   v100   gtp3
        BYTE   W64
        BYTE           N15     Bn2
        BYTE   W24
        BYTE           N84     An2   v100   gtp3
        BYTE   W08
// 025   ----------------------------------------
        BYTE   PATT
         POIN2  earthbound0_2_26
// 026   ----------------------------------------
        BYTE   PATT
         POIN2  earthbound0_3_9
// 027   ----------------------------------------
        BYTE   W88
        BYTE           N68     An2   v100   gtp3
        BYTE   W08
// 028   ----------------------------------------
        BYTE   W64
        BYTE           N15     Gn2
        BYTE   W24
        BYTE           N84     An2   v100   gtp3
        BYTE   W08
// 029   ----------------------------------------
        BYTE   PATT
         POIN2  earthbound0_2_26
// 030   ----------------------------------------
        BYTE   W88
        BYTE           TIE     Gn2   v100
        BYTE   W08
// 031   ----------------------------------------
        BYTE   W92
        BYTE   W02
        BYTE           EOT
        BYTE   W02
// 032   ----------------------------------------
        BYTE           N92     Fn2   v100   gtp2
        BYTE   W96
// 033   ----------------------------------------
        BYTE           N68     Cn3   v100   gtp2
        BYTE   W72
        BYTE           N07
        BYTE   W16
        BYTE           N84     Dn3   v100   gtp3
        BYTE   W08
// 034   ----------------------------------------
        BYTE   PATT
         POIN2  earthbound0_4_2
// 035   ----------------------------------------
        BYTE   PATT
         POIN2  earthbound0_4_3
// 036   ----------------------------------------
        BYTE   PATT
         POIN2  earthbound0_4_2
// 037   ----------------------------------------
        BYTE   PATT
         POIN2  earthbound0_4_5
// 038   ----------------------------------------
        BYTE   PATT
         POIN2  earthbound0_4_6
// 039   ----------------------------------------
        BYTE   PATT
         POIN2  earthbound0_4_7
// 040   ----------------------------------------
        BYTE   W48
        BYTE           N23     En3   v100
        BYTE   GoTo
         POIN2  earthbound0_4_LOOP
        BYTE   W24
        BYTE           N07     En2
        BYTE   W16
        BYTE           N08     Cn3
        BYTE   W08
// 041   ----------------------------------------
        BYTE           VOL     20
        BYTE           N78     Cn3   v100   gtp1
        BYTE   W12
        BYTE           VOL     19
        BYTE   W12
        BYTE                   18
        BYTE   W12
        BYTE                   17
        BYTE   W24
        BYTE                   16
        BYTE   W12
        BYTE                   15
        BYTE   W12
        BYTE                   14
        BYTE   W04
        BYTE           N84     Bn2   v100   gtp3
        BYTE   W08
// 042   ----------------------------------------
        BYTE           VOL     13
        BYTE   W24
        BYTE                   12
        BYTE   W12
        BYTE                   11
        BYTE   W12
        BYTE                   10
        BYTE   W12
        BYTE                   9
        BYTE   W24
        BYTE                   8
        BYTE   W04
        BYTE           TIE     An2
        BYTE   W08
// 043   ----------------------------------------
        BYTE           VOL     7
        BYTE   W12
        BYTE                   6
        BYTE   W24
        BYTE                   5
        BYTE   W12
        BYTE                   4
        BYTE   W12
        BYTE                   3
        BYTE   W12
        BYTE                   2
        BYTE   W22
        BYTE           EOT
        BYTE   W02
// 044   ----------------------------------------
        BYTE           VOL     1
        BYTE           N60     An2   v100   gtp3
        BYTE   W12
        BYTE           VOL     0
        BYTE   W52
        BYTE           N15     Bn2
        BYTE   W28
        BYTE   FINE

//****************** Track 5 (Midi-Chn.5) ******************//

earthbound0_5:
        BYTE   KEYSH   earthbound0_key+0
// 000   ----------------------------------------
        BYTE           VOICE   18
        BYTE           VOL     27
        BYTE   W24
// 001   ----------------------------------------
        BYTE   W96
// 002   ----------------------------------------
        BYTE   W96
// 003   ----------------------------------------
        BYTE   W96
// 004   ----------------------------------------
        BYTE   W96
// 005   ----------------------------------------
        BYTE   W96
// 006   ----------------------------------------
        BYTE   W96
// 007   ----------------------------------------
        BYTE   W96
// 008   ----------------------------------------
        BYTE   W48
earthbound0_5_LOOP:
        BYTE   W48
// 009   ----------------------------------------
        BYTE   W96
// 010   ----------------------------------------
        BYTE   W96
// 011   ----------------------------------------
        BYTE   W96
// 012   ----------------------------------------
        BYTE   W96
// 013   ----------------------------------------
        BYTE   W96
// 014   ----------------------------------------
        BYTE   W96
// 015   ----------------------------------------
        BYTE   W96
// 016   ----------------------------------------
        BYTE   W96
// 017   ----------------------------------------
        BYTE   W96
// 018   ----------------------------------------
        BYTE   W96
// 019   ----------------------------------------
        BYTE   W96
// 020   ----------------------------------------
        BYTE   W96
// 021   ----------------------------------------
        BYTE   W96
// 022   ----------------------------------------
        BYTE   W96
// 023   ----------------------------------------
        BYTE   W96
// 024   ----------------------------------------
        BYTE           MOD     5
        BYTE           VOL     34
        BYTE           PAN     c_v+41
        BYTE   W88
        BYTE           N32     Fn3   v115
        BYTE   W08
// 025   ----------------------------------------
earthbound0_5_25:
        BYTE   W24
        BYTE           N24     Gn3   v115
        BYTE   W24
        BYTE                   An3
        BYTE   W24
        BYTE           N16     Cn4
        BYTE   W16
        BYTE           N32     Bn3
        BYTE   W08
        BYTE   PEND
// 026   ----------------------------------------
earthbound0_5_26:
        BYTE   W24
        BYTE           N24     An3   v115
        BYTE   W24
        BYTE                   Gn3
        BYTE   W24
        BYTE           N16     Fn3
        BYTE   W16
        BYTE           N32     En3
        BYTE   W08
        BYTE   PEND
// 027   ----------------------------------------
earthbound0_5_27:
        BYTE   W24
        BYTE           N24     Fn3   v115
        BYTE   W24
        BYTE                   Gn3
        BYTE   W24
        BYTE           N16     Bn3
        BYTE   W16
        BYTE           N20     An3
        BYTE   W08
        BYTE   PEND
// 028   ----------------------------------------
earthbound0_5_28:
        BYTE   W12
        BYTE           N04     Bn3   v115
        BYTE   W04
        BYTE                   An3
        BYTE   W04
        BYTE                   Gn3
        BYTE   W04
        BYTE           N08     An3
        BYTE   W08
        BYTE                   Bn3
        BYTE   W08
        BYTE                   Cn4
        BYTE   W08
        BYTE                   Bn3
        BYTE   W08
        BYTE                   Cn4
        BYTE   W08
        BYTE                   Dn4
        BYTE   W08
        BYTE                   Cn4
        BYTE   W08
        BYTE                   Dn4
        BYTE   W08
        BYTE           N56     En4
        BYTE   W08
        BYTE   PEND
// 029   ----------------------------------------
earthbound0_5_29:
        BYTE   W48
        BYTE           N40     An4   v115
        BYTE   W40
        BYTE           N32     Gn4
        BYTE   W08
        BYTE   PEND
// 030   ----------------------------------------
earthbound0_5_30:
        BYTE   W24
        BYTE           N24     Fn4   v115
        BYTE   W24
        BYTE                   En4
        BYTE   W24
        BYTE           N16     Dn4
        BYTE   W16
        BYTE           N56     En4
        BYTE   W08
        BYTE   PEND
// 031   ----------------------------------------
earthbound0_5_31:
        BYTE   W48
        BYTE           N16     Gn3   v115
        BYTE   W16
        BYTE                   En3
        BYTE   W16
        BYTE                   Gn3
        BYTE   W16
        BYTE   PEND
// 032   ----------------------------------------
        BYTE   W96
// 033   ----------------------------------------
        BYTE   W96
// 034   ----------------------------------------
        BYTE   W96
// 035   ----------------------------------------
        BYTE   W96
// 036   ----------------------------------------
        BYTE   W96
// 037   ----------------------------------------
        BYTE   W96
// 038   ----------------------------------------
        BYTE   W96
// 039   ----------------------------------------
        BYTE   W96
// 040   ----------------------------------------
        BYTE   W48
        BYTE           VOL     27
        BYTE           PAN     c_v+0
        BYTE           MOD     0
        BYTE   GoTo
         POIN2  earthbound0_5_LOOP
        BYTE   W48
// 041   ----------------------------------------
        BYTE   W96
// 042   ----------------------------------------
        BYTE   W96
// 043   ----------------------------------------
        BYTE   W96
// 044   ----------------------------------------
        BYTE   W92
        BYTE   FINE

//****************** Track 6 (Midi-Chn.6) ******************//

earthbound0_6:
        BYTE   KEYSH   earthbound0_key+0
// 000   ----------------------------------------
        BYTE           VOICE   18
        BYTE           VOL     27
        BYTE   W24
// 001   ----------------------------------------
        BYTE   W96
// 002   ----------------------------------------
        BYTE   W96
// 003   ----------------------------------------
        BYTE   W96
// 004   ----------------------------------------
        BYTE   W96
// 005   ----------------------------------------
        BYTE   W96
// 006   ----------------------------------------
        BYTE   W96
// 007   ----------------------------------------
        BYTE   W96
// 008   ----------------------------------------
        BYTE   W48
earthbound0_6_LOOP:
        BYTE   W48
// 009   ----------------------------------------
        BYTE   W96
// 010   ----------------------------------------
        BYTE   W96
// 011   ----------------------------------------
        BYTE   W96
// 012   ----------------------------------------
        BYTE   W96
// 013   ----------------------------------------
        BYTE   W96
// 014   ----------------------------------------
        BYTE   W96
// 015   ----------------------------------------
        BYTE   W96
// 016   ----------------------------------------
        BYTE   W96
// 017   ----------------------------------------
        BYTE   W96
// 018   ----------------------------------------
        BYTE   W96
// 019   ----------------------------------------
        BYTE   W96
// 020   ----------------------------------------
        BYTE   W96
// 021   ----------------------------------------
        BYTE   W96
// 022   ----------------------------------------
        BYTE   W96
// 023   ----------------------------------------
        BYTE   W96
// 024   ----------------------------------------
        BYTE           MOD     2
        BYTE           VOL     34
        BYTE           PAN     c_v+41
        BYTE   W88
        BYTE           N32     Fn3   v115
        BYTE   W08
// 025   ----------------------------------------
        BYTE   PATT
         POIN2  earthbound0_5_25
// 026   ----------------------------------------
        BYTE   PATT
         POIN2  earthbound0_5_26
// 027   ----------------------------------------
        BYTE   PATT
         POIN2  earthbound0_5_27
// 028   ----------------------------------------
        BYTE   PATT
         POIN2  earthbound0_5_28
// 029   ----------------------------------------
        BYTE   PATT
         POIN2  earthbound0_5_29
// 030   ----------------------------------------
        BYTE   PATT
         POIN2  earthbound0_5_30
// 031   ----------------------------------------
        BYTE   PATT
         POIN2  earthbound0_5_31
// 032   ----------------------------------------
        BYTE   W96
// 033   ----------------------------------------
        BYTE   W96
// 034   ----------------------------------------
        BYTE   W96
// 035   ----------------------------------------
        BYTE   W96
// 036   ----------------------------------------
        BYTE   W96
// 037   ----------------------------------------
        BYTE   W96
// 038   ----------------------------------------
        BYTE   W96
// 039   ----------------------------------------
        BYTE   W96
// 040   ----------------------------------------
        BYTE   W48
        BYTE           VOL     27
        BYTE           PAN     c_v+0
        BYTE           MOD     0
        BYTE   GoTo
         POIN2  earthbound0_6_LOOP
        BYTE   W48
// 041   ----------------------------------------
        BYTE   W96
// 042   ----------------------------------------
        BYTE   W96
// 043   ----------------------------------------
        BYTE   W96
// 044   ----------------------------------------
        BYTE   W92
        BYTE   FINE

//****************** Track 7 (Midi-Chn.7) ******************//

earthbound0_7:
        BYTE   KEYSH   earthbound0_key+0
// 000   ----------------------------------------
        BYTE           VOICE   30
        BYTE           VOL     32
        BYTE   W24
// 001   ----------------------------------------
        BYTE                   39
        BYTE           N14     An1   v110
        BYTE   W16
        BYTE           N07
        BYTE   W08
        BYTE           N14
        BYTE   W16
        BYTE           N07
        BYTE   W08
        BYTE           N14
        BYTE   W16
        BYTE           N07
        BYTE   W08
        BYTE           N14
        BYTE   W16
        BYTE           N07
        BYTE   W08
// 002   ----------------------------------------
earthbound0_7_2:
        BYTE           N14     An1   v110
        BYTE   W16
        BYTE           N07
        BYTE   W08
        BYTE           N14
        BYTE   W16
        BYTE           N07
        BYTE   W08
        BYTE           N14
        BYTE   W16
        BYTE           N07
        BYTE   W08
        BYTE           N14
        BYTE   W16
        BYTE           N07
        BYTE   W08
        BYTE   PEND
// 003   ----------------------------------------
        BYTE   PATT
         POIN2  earthbound0_7_2
// 004   ----------------------------------------
        BYTE   PATT
         POIN2  earthbound0_7_2
// 005   ----------------------------------------
        BYTE   PATT
         POIN2  earthbound0_7_2
// 006   ----------------------------------------
earthbound0_7_6:
        BYTE           N14     An1   v110
        BYTE   W16
        BYTE           N07
        BYTE   W08
        BYTE           N14
        BYTE   W16
        BYTE           N07
        BYTE   W08
        BYTE           N14
        BYTE   W16
        BYTE           N07
        BYTE   W08
        BYTE           N14     Dn1
        BYTE   W16
        BYTE           N22     Fn1
        BYTE   W08
        BYTE   PEND
// 007   ----------------------------------------
earthbound0_7_7:
        BYTE   W16
        BYTE           N07     Fn1   v100
        BYTE   W08
        BYTE           N14
        BYTE   W16
        BYTE           N07
        BYTE   W08
        BYTE           N14
        BYTE   W16
        BYTE           N07
        BYTE   W08
        BYTE           N14     Fn1   v110
        BYTE   W16
        BYTE           N48     En1   v110   gtp3
        BYTE   W08
        BYTE   PEND
// 008   ----------------------------------------
        BYTE   W48
earthbound0_7_LOOP:
        BYTE           N07     En2   v110
        BYTE   W08
        BYTE                   Cn2
        BYTE   W08
        BYTE                   An1
        BYTE   W08
        BYTE                   En1
        BYTE   W08
        BYTE                   Cn1
        BYTE   W08
        BYTE           N22     An1
        BYTE   W08
// 009   ----------------------------------------
earthbound0_7_9:
        BYTE   W16
        BYTE           N07     An1   v110
        BYTE   W08
        BYTE           N14
        BYTE   W16
        BYTE           N07
        BYTE   W08
        BYTE           N14
        BYTE   W16
        BYTE           N07
        BYTE   W08
        BYTE           N14
        BYTE   W16
        BYTE           N22
        BYTE   W08
        BYTE   PEND
// 010   ----------------------------------------
        BYTE   PATT
         POIN2  earthbound0_7_9
// 011   ----------------------------------------
earthbound0_7_11:
        BYTE   W16
        BYTE           N07     An1   v110
        BYTE   W08
        BYTE           N14
        BYTE   W16
        BYTE           N07
        BYTE   W08
        BYTE           N14
        BYTE   W16
        BYTE           N07
        BYTE   W08
        BYTE                   An1
        BYTE   W08
        BYTE                   Cn2
        BYTE   W08
        BYTE                   En2
        BYTE   W08
        BYTE   PEND
// 012   ----------------------------------------
earthbound0_7_12:
        BYTE           N14     Fn1   v110
        BYTE   W16
        BYTE           N07
        BYTE   W08
        BYTE           N14
        BYTE   W16
        BYTE           N07
        BYTE   W08
        BYTE           N14
        BYTE   W16
        BYTE           N07
        BYTE   W08
        BYTE           N14     Gn1
        BYTE   W16
        BYTE           N22     An1
        BYTE   W08
        BYTE   PEND
// 013   ----------------------------------------
        BYTE   PATT
         POIN2  earthbound0_7_9
// 014   ----------------------------------------
        BYTE   PATT
         POIN2  earthbound0_7_9
// 015   ----------------------------------------
        BYTE   PATT
         POIN2  earthbound0_7_11
// 016   ----------------------------------------
        BYTE   PATT
         POIN2  earthbound0_7_12
// 017   ----------------------------------------
        BYTE   PATT
         POIN2  earthbound0_7_9
// 018   ----------------------------------------
        BYTE   PATT
         POIN2  earthbound0_7_9
// 019   ----------------------------------------
        BYTE   PATT
         POIN2  earthbound0_7_11
// 020   ----------------------------------------
        BYTE   PATT
         POIN2  earthbound0_7_12
// 021   ----------------------------------------
        BYTE   PATT
         POIN2  earthbound0_7_9
// 022   ----------------------------------------
        BYTE   PATT
         POIN2  earthbound0_7_9
// 023   ----------------------------------------
        BYTE   PATT
         POIN2  earthbound0_7_11
// 024   ----------------------------------------
earthbound0_7_24:
        BYTE           N14     Fn1   v110
        BYTE   W16
        BYTE           N07
        BYTE   W08
        BYTE           N14
        BYTE   W16
        BYTE           N07
        BYTE   W08
        BYTE                   Fn1
        BYTE   W08
        BYTE                   Fn2
        BYTE   W08
        BYTE                   Gn1
        BYTE   W08
        BYTE                   Cn2
        BYTE   W08
        BYTE                   An1
        BYTE   W08
        BYTE           N22     Fn1
        BYTE   W08
        BYTE   PEND
// 025   ----------------------------------------
earthbound0_7_25:
        BYTE   W16
        BYTE           N07     Fn1   v110
        BYTE   W08
        BYTE           N14
        BYTE   W16
        BYTE           N07
        BYTE   W08
        BYTE                   Fn1
        BYTE   W08
        BYTE                   An1
        BYTE   W08
        BYTE                   Cn2
        BYTE   W08
        BYTE           N14     Fn2
        BYTE   W16
        BYTE           N22     Gn1
        BYTE   W08
        BYTE   PEND
// 026   ----------------------------------------
earthbound0_7_26:
        BYTE   W16
        BYTE           N07     Gn1   v110
        BYTE   W08
        BYTE           N14
        BYTE   W16
        BYTE           N07
        BYTE   W08
        BYTE                   Gn1
        BYTE   W08
        BYTE                   Bn1
        BYTE   W08
        BYTE                   Dn2
        BYTE   W08
        BYTE           N14     Gn2
        BYTE   W16
        BYTE           N22     En2
        BYTE   W08
        BYTE   PEND
// 027   ----------------------------------------
earthbound0_7_27:
        BYTE   W16
        BYTE           N07     En2   v110
        BYTE   W08
        BYTE                   Bn1
        BYTE   W08
        BYTE                   Bn1
        BYTE   W08
        BYTE                   Bn1
        BYTE   W08
        BYTE                   Gn1
        BYTE   W08
        BYTE                   Gn1
        BYTE   W08
        BYTE                   Gn1
        BYTE   W08
        BYTE                   En2
        BYTE   W08
        BYTE                   Bn1
        BYTE   W08
        BYTE           N22     Fn1
        BYTE   W08
        BYTE   PEND
// 028   ----------------------------------------
earthbound0_7_28:
        BYTE   W16
        BYTE           N07     Fn1   v110
        BYTE   W08
        BYTE                   Gn1
        BYTE   W08
        BYTE                   Gn2
        BYTE   W08
        BYTE                   Gn2
        BYTE   W08
        BYTE                   An1
        BYTE   W08
        BYTE                   An2
        BYTE   W08
        BYTE                   An1
        BYTE   W08
        BYTE                   Gn2
        BYTE   W08
        BYTE                   Gn1
        BYTE   W08
        BYTE           N22     Fn1
        BYTE   W08
        BYTE   PEND
// 029   ----------------------------------------
        BYTE   PATT
         POIN2  earthbound0_7_25
// 030   ----------------------------------------
earthbound0_7_30:
        BYTE   W16
        BYTE           N07     Gn1   v110
        BYTE   W08
        BYTE           N14
        BYTE   W16
        BYTE           N07
        BYTE   W08
        BYTE                   Gn1
        BYTE   W08
        BYTE                   Bn1
        BYTE   W08
        BYTE                   Dn2
        BYTE   W08
        BYTE                   Gn2
        BYTE   W08
        BYTE                   Fn2
        BYTE   W08
        BYTE           N22     En1
        BYTE   W08
        BYTE   PEND
// 031   ----------------------------------------
earthbound0_7_31:
        BYTE   W16
        BYTE           N07     Gn1   v110
        BYTE   W08
        BYTE                   Gn1
        BYTE   W08
        BYTE                   Gn1
        BYTE   W08
        BYTE                   Gn1
        BYTE   W08
        BYTE                   An1
        BYTE   W08
        BYTE                   An1
        BYTE   W08
        BYTE                   An1
        BYTE   W08
        BYTE                   En1
        BYTE   W08
        BYTE                   Gn1
        BYTE   W08
        BYTE                   Bn1
        BYTE   W08
        BYTE   PEND
// 032   ----------------------------------------
earthbound0_7_32:
        BYTE           N14     En1   v110
        BYTE   W16
        BYTE           N07     Gn1
        BYTE   W08
        BYTE                   Gn1
        BYTE   W08
        BYTE                   Gn1
        BYTE   W08
        BYTE                   Gn1
        BYTE   W08
        BYTE                   An1
        BYTE   W08
        BYTE                   An1
        BYTE   W08
        BYTE                   An1
        BYTE   W08
        BYTE                   Gn1
        BYTE   W08
        BYTE                   Gn1
        BYTE   W08
        BYTE                   Gn1
        BYTE   W08
        BYTE   PEND
// 033   ----------------------------------------
        BYTE   PATT
         POIN2  earthbound0_7_2
// 034   ----------------------------------------
        BYTE   PATT
         POIN2  earthbound0_7_2
// 035   ----------------------------------------
        BYTE   PATT
         POIN2  earthbound0_7_2
// 036   ----------------------------------------
        BYTE   PATT
         POIN2  earthbound0_7_2
// 037   ----------------------------------------
earthbound0_7_37:
        BYTE           N14     An1   v110
        BYTE   W16
        BYTE           N07
        BYTE   W08
        BYTE           N14
        BYTE   W16
        BYTE           N07
        BYTE   W08
        BYTE           N14
        BYTE   W16
        BYTE           N07
        BYTE   W08
        BYTE           N14     Cn2
        BYTE   W16
        BYTE           N22     Dn2
        BYTE   W08
        BYTE   PEND
// 038   ----------------------------------------
earthbound0_7_38:
        BYTE   W16
        BYTE           N07     Dn2   v110
        BYTE   W08
        BYTE           N21     An1
        BYTE   W24
        BYTE                   Dn2
        BYTE   W24
        BYTE           N14     En2
        BYTE   W16
        BYTE           N22     Fn2
        BYTE   W08
        BYTE   PEND
// 039   ----------------------------------------
earthbound0_7_39:
        BYTE   W16
        BYTE           N07     An1   v110
        BYTE   W08
        BYTE           N21
        BYTE   W24
        BYTE           N07
        BYTE   W08
        BYTE                   Bn1
        BYTE   W08
        BYTE                   Cn2
        BYTE   W08
        BYTE                   Dn2
        BYTE   W08
        BYTE                   En2
        BYTE   W08
        BYTE           N48     En1   v110   gtp3
        BYTE   W08
        BYTE   PEND
// 040   ----------------------------------------
        BYTE   W48
        BYTE           N07     En2
        BYTE   GoTo
         POIN2  earthbound0_7_LOOP
        BYTE   W08
        BYTE                   Cn2
        BYTE   W08
        BYTE                   An1
        BYTE   W08
        BYTE                   En1
        BYTE   W08
        BYTE                   Cn1
        BYTE   W08
        BYTE           N08     An1
        BYTE   W08
// 041   ----------------------------------------
        BYTE           VOL     31
        BYTE           N14
        BYTE   W12
        BYTE           VOL     29
        BYTE   W04
        BYTE           N07
        BYTE   W08
        BYTE           VOL     28
        BYTE           N14
        BYTE   W12
        BYTE           VOL     27
        BYTE   W04
        BYTE           N07
        BYTE   W08
        BYTE           VOL     26
        BYTE           N14
        BYTE   W12
        BYTE           VOL     25
        BYTE   W04
        BYTE           N07
        BYTE   W08
        BYTE           VOL     23
        BYTE           N14
        BYTE   W12
        BYTE           VOL     22
        BYTE   W04
        BYTE           N22
        BYTE   W08
// 042   ----------------------------------------
        BYTE           VOL     21
        BYTE   W12
        BYTE                   20
        BYTE   W04
        BYTE           N07
        BYTE   W08
        BYTE           VOL     18
        BYTE           N14
        BYTE   W12
        BYTE           VOL     17
        BYTE   W04
        BYTE           N07
        BYTE   W08
        BYTE           VOL     16
        BYTE           N14
        BYTE   W12
        BYTE           VOL     15
        BYTE   W04
        BYTE           N07
        BYTE   W08
        BYTE           VOL     14
        BYTE           N14
        BYTE   W12
        BYTE           VOL     12
        BYTE   W04
        BYTE           N22
        BYTE   W08
// 043   ----------------------------------------
        BYTE           VOL     11
        BYTE   W12
        BYTE                   10
        BYTE   W04
        BYTE           N07
        BYTE   W08
        BYTE           VOL     9
        BYTE           N14
        BYTE   W12
        BYTE           VOL     7
        BYTE   W04
        BYTE           N07
        BYTE   W08
        BYTE           VOL     6
        BYTE           N14
        BYTE   W12
        BYTE           VOL     5
        BYTE   W04
        BYTE           N07
        BYTE   W08
        BYTE           VOL     4
        BYTE           N07
        BYTE   W08
        BYTE                   Cn2
        BYTE   W04
        BYTE           VOL     2
        BYTE   W04
        BYTE           N07     En2
        BYTE   W08
// 044   ----------------------------------------
earthbound0_7_44:
        BYTE           VOL     1
        BYTE           N14     Fn1   v110
        BYTE   W12
        BYTE           VOL     0
        BYTE   W04
        BYTE           N07
        BYTE   W08
        BYTE           N14
        BYTE   W16
        BYTE           N07
        BYTE   W08
        BYTE           N14
        BYTE   W16
        BYTE           N07
        BYTE   W08
        BYTE           N14     Gn1
        BYTE   W20
        BYTE   PEND
        BYTE   FINE

//****************** Track 8 (Midi-Chn.8) ******************//

earthbound0_8:
        BYTE   KEYSH   earthbound0_key+0
// 000   ----------------------------------------
        BYTE           VOICE   36
        BYTE           VOL     27
        BYTE   W24
// 001   ----------------------------------------
        BYTE                   32
        BYTE           PAN     c_v-43
        BYTE           N14     An1   v110
        BYTE   W16
        BYTE           N07
        BYTE   W08
        BYTE           N14
        BYTE   W16
        BYTE           N07
        BYTE   W08
        BYTE           N14
        BYTE   W16
        BYTE           N07
        BYTE   W08
        BYTE           N14
        BYTE   W16
        BYTE           N07
        BYTE   W08
// 002   ----------------------------------------
        BYTE   PATT
         POIN2  earthbound0_7_2
// 003   ----------------------------------------
        BYTE   PATT
         POIN2  earthbound0_7_2
// 004   ----------------------------------------
        BYTE   PATT
         POIN2  earthbound0_7_2
// 005   ----------------------------------------
        BYTE   PATT
         POIN2  earthbound0_7_2
// 006   ----------------------------------------
        BYTE   PATT
         POIN2  earthbound0_7_6
// 007   ----------------------------------------
        BYTE   PATT
         POIN2  earthbound0_7_7
// 008   ----------------------------------------
        BYTE   W48
earthbound0_8_LOOP:
        BYTE           N07     En2   v110
        BYTE   W08
        BYTE                   Cn2
        BYTE   W08
        BYTE                   An1
        BYTE   W08
        BYTE                   En1
        BYTE   W08
        BYTE                   Cn1
        BYTE   W08
        BYTE           N22     An1
        BYTE   W08
// 009   ----------------------------------------
        BYTE   PATT
         POIN2  earthbound0_7_9
// 010   ----------------------------------------
        BYTE   PATT
         POIN2  earthbound0_7_9
// 011   ----------------------------------------
        BYTE   PATT
         POIN2  earthbound0_7_11
// 012   ----------------------------------------
        BYTE   PATT
         POIN2  earthbound0_7_12
// 013   ----------------------------------------
        BYTE   PATT
         POIN2  earthbound0_7_9
// 014   ----------------------------------------
        BYTE   PATT
         POIN2  earthbound0_7_9
// 015   ----------------------------------------
        BYTE   PATT
         POIN2  earthbound0_7_11
// 016   ----------------------------------------
        BYTE   PATT
         POIN2  earthbound0_7_12
// 017   ----------------------------------------
        BYTE   PATT
         POIN2  earthbound0_7_9
// 018   ----------------------------------------
        BYTE   PATT
         POIN2  earthbound0_7_9
// 019   ----------------------------------------
        BYTE   PATT
         POIN2  earthbound0_7_11
// 020   ----------------------------------------
        BYTE   PATT
         POIN2  earthbound0_7_12
// 021   ----------------------------------------
        BYTE   PATT
         POIN2  earthbound0_7_9
// 022   ----------------------------------------
        BYTE   PATT
         POIN2  earthbound0_7_9
// 023   ----------------------------------------
        BYTE   PATT
         POIN2  earthbound0_7_11
// 024   ----------------------------------------
        BYTE   PATT
         POIN2  earthbound0_7_24
// 025   ----------------------------------------
        BYTE   PATT
         POIN2  earthbound0_7_25
// 026   ----------------------------------------
        BYTE   PATT
         POIN2  earthbound0_7_26
// 027   ----------------------------------------
        BYTE   PATT
         POIN2  earthbound0_7_27
// 028   ----------------------------------------
        BYTE   PATT
         POIN2  earthbound0_7_28
// 029   ----------------------------------------
        BYTE   PATT
         POIN2  earthbound0_7_25
// 030   ----------------------------------------
        BYTE   PATT
         POIN2  earthbound0_7_30
// 031   ----------------------------------------
        BYTE   PATT
         POIN2  earthbound0_7_31
// 032   ----------------------------------------
        BYTE   PATT
         POIN2  earthbound0_7_32
// 033   ----------------------------------------
        BYTE   PATT
         POIN2  earthbound0_7_2
// 034   ----------------------------------------
        BYTE   PATT
         POIN2  earthbound0_7_2
// 035   ----------------------------------------
        BYTE   PATT
         POIN2  earthbound0_7_2
// 036   ----------------------------------------
        BYTE   PATT
         POIN2  earthbound0_7_2
// 037   ----------------------------------------
        BYTE   PATT
         POIN2  earthbound0_7_37
// 038   ----------------------------------------
        BYTE   PATT
         POIN2  earthbound0_7_38
// 039   ----------------------------------------
        BYTE   PATT
         POIN2  earthbound0_7_39
// 040   ----------------------------------------
        BYTE   W48
        BYTE           N07     En2   v110
        BYTE   GoTo
         POIN2  earthbound0_8_LOOP
        BYTE   W08
        BYTE                   Cn2
        BYTE   W08
        BYTE                   An1
        BYTE   W08
        BYTE                   En1
        BYTE   W08
        BYTE                   Cn1
        BYTE   W08
        BYTE           N08     An1
        BYTE   W08
// 041   ----------------------------------------
earthbound0_8_41:
        BYTE           VOL     25
        BYTE           N14     An1   v110
        BYTE   W12
        BYTE           VOL     24
        BYTE   W04
        BYTE           N07
        BYTE   W08
        BYTE           VOL     23
        BYTE           N14
        BYTE   W12
        BYTE           VOL     22
        BYTE   W04
        BYTE           N07
        BYTE   W08
        BYTE           VOL     21
        BYTE           N14
        BYTE   W12
        BYTE           VOL     20
        BYTE   W04
        BYTE           N07
        BYTE   W08
        BYTE           VOL     19
        BYTE           N14
        BYTE   W12
        BYTE           VOL     18
        BYTE   W04
        BYTE           N22
        BYTE   W08
        BYTE   PEND
// 042   ----------------------------------------
earthbound0_8_42:
        BYTE           VOL     17
        BYTE   W12
        BYTE                   16
        BYTE   W04
        BYTE           N07     An1   v110
        BYTE   W08
        BYTE           VOL     15
        BYTE           N14
        BYTE   W12
        BYTE           VOL     14
        BYTE   W04
        BYTE           N07
        BYTE   W08
        BYTE           VOL     13
        BYTE           N14
        BYTE   W12
        BYTE           VOL     12
        BYTE   W04
        BYTE           N07
        BYTE   W08
        BYTE           VOL     11
        BYTE           N14
        BYTE   W12
        BYTE           VOL     10
        BYTE   W04
        BYTE           N22
        BYTE   W08
        BYTE   PEND
// 043   ----------------------------------------
earthbound0_8_43:
        BYTE           VOL     9
        BYTE   W12
        BYTE                   8
        BYTE   W04
        BYTE           N07     An1   v110
        BYTE   W08
        BYTE           VOL     7
        BYTE           N14
        BYTE   W12
        BYTE           VOL     6
        BYTE   W04
        BYTE           N07
        BYTE   W08
        BYTE           VOL     5
        BYTE           N14
        BYTE   W12
        BYTE           VOL     4
        BYTE   W04
        BYTE           N07
        BYTE   W08
        BYTE           VOL     3
        BYTE           N07
        BYTE   W08
        BYTE                   Cn2
        BYTE   W04
        BYTE           VOL     2
        BYTE   W04
        BYTE           N07     En2
        BYTE   W08
        BYTE   PEND
// 044   ----------------------------------------
        BYTE   PATT
         POIN2  earthbound0_7_44
        BYTE   FINE

//***************** Track 9 (Midi-Chn.10) ******************//

earthbound0_9:
        BYTE   KEYSH   earthbound0_key+0
// 000   ----------------------------------------
        BYTE           VOICE   122
        BYTE           VOL     27
        BYTE   W24
// 001   ----------------------------------------
        BYTE   W96
// 002   ----------------------------------------
        BYTE   W96
// 003   ----------------------------------------
        BYTE   W96
// 004   ----------------------------------------
        BYTE   W96
// 005   ----------------------------------------
        BYTE   W96
// 006   ----------------------------------------
        BYTE   W96
// 007   ----------------------------------------
        BYTE                   34
        BYTE   W48
        BYTE           N06     Cn1   v080
        BYTE   W24
        BYTE                   Cn1
        BYTE   W24
// 008   ----------------------------------------
        BYTE   W48
earthbound0_9_LOOP:
        BYTE           N06     En1   v080
        BYTE   W24
        BYTE                   En1
        BYTE   W08
        BYTE           N12
        BYTE   W16
// 009   ----------------------------------------
earthbound0_9_9:
        BYTE   W24
        BYTE           N19     En1   v080
        BYTE   W48
        BYTE                   En1
        BYTE   W24
        BYTE   PEND
// 010   ----------------------------------------
        BYTE   PATT
         POIN2  earthbound0_9_9
// 011   ----------------------------------------
earthbound0_9_11:
        BYTE   W24
        BYTE           N19     En1   v080
        BYTE   W48
        BYTE           N06
        BYTE   W08
        BYTE                   En1
        BYTE   W08
        BYTE                   En1
        BYTE   W08
        BYTE   PEND
// 012   ----------------------------------------
        BYTE   W24
        BYTE           N19
        BYTE   W48
        BYTE           N06
        BYTE   W08
        BYTE           N12
        BYTE   W16
// 013   ----------------------------------------
        BYTE   PATT
         POIN2  earthbound0_9_9
// 014   ----------------------------------------
        BYTE   PATT
         POIN2  earthbound0_9_9
// 015   ----------------------------------------
        BYTE   PATT
         POIN2  earthbound0_9_11
// 016   ----------------------------------------
earthbound0_9_16:
        BYTE   W24
        BYTE           N19     En1   v080
        BYTE   W32
        BYTE           N06
        BYTE   W08
        BYTE                   En1
        BYTE   W08
        BYTE                   En1
        BYTE   W08
        BYTE                   En1
        BYTE   W16
        BYTE   PEND
// 017   ----------------------------------------
        BYTE   PATT
         POIN2  earthbound0_9_9
// 018   ----------------------------------------
        BYTE   PATT
         POIN2  earthbound0_9_9
// 019   ----------------------------------------
        BYTE   PATT
         POIN2  earthbound0_9_11
// 020   ----------------------------------------
        BYTE   W24
        BYTE           N19     En1   v080
        BYTE   W40
        BYTE           N06
        BYTE   W08
        BYTE                   En1
        BYTE   W08
        BYTE                   En1
        BYTE   W16
// 021   ----------------------------------------
        BYTE   PATT
         POIN2  earthbound0_9_9
// 022   ----------------------------------------
        BYTE   PATT
         POIN2  earthbound0_9_9
// 023   ----------------------------------------
        BYTE   PATT
         POIN2  earthbound0_9_11
// 024   ----------------------------------------
        BYTE   PATT
         POIN2  earthbound0_9_16
// 025   ----------------------------------------
        BYTE   PATT
         POIN2  earthbound0_9_9
// 026   ----------------------------------------
        BYTE   PATT
         POIN2  earthbound0_9_9
// 027   ----------------------------------------
        BYTE   PATT
         POIN2  earthbound0_9_9
// 028   ----------------------------------------
        BYTE   PATT
         POIN2  earthbound0_9_11
// 029   ----------------------------------------
        BYTE   PATT
         POIN2  earthbound0_9_9
// 030   ----------------------------------------
earthbound0_9_30:
        BYTE   W24
        BYTE           N19     En1   v080
        BYTE   W48
        BYTE           N06
        BYTE   W08
        BYTE                   En1
        BYTE   W16
        BYTE   PEND
// 031   ----------------------------------------
        BYTE   PATT
         POIN2  earthbound0_9_30
// 032   ----------------------------------------
        BYTE           N12     Bn0   v080
        BYTE   W16
        BYTE           N06
        BYTE   W08
        BYTE           N19     En1
        BYTE   W32
        BYTE           N06
        BYTE   W08
        BYTE                   En1
        BYTE   W08
        BYTE                   En1
        BYTE   W08
        BYTE                   En1
        BYTE   W08
        BYTE                   En1
        BYTE   W08
// 033   ----------------------------------------
        BYTE   PATT
         POIN2  earthbound0_9_9
// 034   ----------------------------------------
        BYTE   PATT
         POIN2  earthbound0_9_9
// 035   ----------------------------------------
        BYTE   PATT
         POIN2  earthbound0_9_9
// 036   ----------------------------------------
        BYTE   PATT
         POIN2  earthbound0_9_30
// 037   ----------------------------------------
        BYTE   W24
        BYTE           N19     En1   v080
        BYTE   W40
        BYTE           N06
        BYTE   W08
        BYTE           N19
        BYTE   W24
// 038   ----------------------------------------
        BYTE   W72
        BYTE           N06
        BYTE   W08
        BYTE                   En1
        BYTE   W16
// 039   ----------------------------------------
        BYTE   PATT
         POIN2  earthbound0_9_9
// 040   ----------------------------------------
        BYTE   W48
        BYTE           N06     En1   v080
        BYTE   GoTo
         POIN2  earthbound0_9_LOOP
        BYTE   W08
        BYTE                   En1
        BYTE   W08
        BYTE                   En1
        BYTE   W32
// 041   ----------------------------------------
        BYTE           VOL     27
        BYTE   W12
        BYTE                   26
        BYTE   W12
        BYTE                   25
        BYTE           N19
        BYTE   W12
        BYTE           VOL     24
        BYTE   W12
        BYTE                   22
        BYTE   W12
        BYTE                   21
        BYTE   W12
        BYTE                   20
        BYTE           N19
        BYTE   W12
        BYTE           VOL     19
        BYTE   W12
// 042   ----------------------------------------
        BYTE                   18
        BYTE   W12
        BYTE                   17
        BYTE   W12
        BYTE                   16
        BYTE           N19
        BYTE   W12
        BYTE           VOL     15
        BYTE   W12
        BYTE                   14
        BYTE   W12
        BYTE                   13
        BYTE   W12
        BYTE                   12
        BYTE           N19
        BYTE   W12
        BYTE           VOL     11
        BYTE   W12
// 043   ----------------------------------------
        BYTE                   10
        BYTE   W12
        BYTE                   9
        BYTE   W12
        BYTE                   7
        BYTE           N19
        BYTE   W12
        BYTE           VOL     6
        BYTE   W12
        BYTE                   5
        BYTE   W12
        BYTE                   4
        BYTE   W12
        BYTE                   3
        BYTE           N06
        BYTE   W08
        BYTE                   En1
        BYTE   W04
        BYTE           VOL     2
        BYTE   W04
        BYTE           N06
        BYTE   W08
// 044   ----------------------------------------
        BYTE           VOL     1
        BYTE   W12
        BYTE                   0
        BYTE   W12
        BYTE           N19
        BYTE   W48
        BYTE           N06
        BYTE   W08
        BYTE           N12
        BYTE   W12
        BYTE   FINE

//***************** Track 10 (Midi-Chn.11) *****************//

earthbound0_10:
        BYTE   KEYSH   earthbound0_key+0
// 000   ----------------------------------------
        BYTE           VOICE   122
        BYTE           VOL     27
        BYTE   W24
// 001   ----------------------------------------
        BYTE   W96
// 002   ----------------------------------------
        BYTE   W96
// 003   ----------------------------------------
        BYTE   W96
// 004   ----------------------------------------
        BYTE   W96
// 005   ----------------------------------------
        BYTE   W96
// 006   ----------------------------------------
        BYTE                   34
        BYTE   W88
        BYTE           N20     Cn2   v127
        BYTE   W08
// 007   ----------------------------------------
        BYTE   W16
        BYTE           N06
        BYTE   W08
        BYTE                   Bn1
        BYTE   W08
        BYTE                   Bn1
        BYTE   W08
        BYTE                   Bn1
        BYTE   W16
        BYTE                   An1
        BYTE   W08
        BYTE                   An1
        BYTE   W16
        BYTE                   Gn1
        BYTE   W16
// 008   ----------------------------------------
        BYTE   W16
        BYTE                   Cn2
        BYTE   W08
        BYTE                   Gn1
        BYTE   W08
        BYTE                   Bn1
        BYTE   W08
        BYTE                   Bn1
        BYTE   W08
earthbound0_10_LOOP:
        BYTE   W08
        BYTE           N06     An1   v127
        BYTE   W08
        BYTE                   Gn1
        BYTE   W32
// 009   ----------------------------------------
        BYTE   W96
// 010   ----------------------------------------
        BYTE   W96
// 011   ----------------------------------------
        BYTE   W96
// 012   ----------------------------------------
        BYTE   W96
// 013   ----------------------------------------
        BYTE   W96
// 014   ----------------------------------------
        BYTE   W96
// 015   ----------------------------------------
        BYTE   W96
// 016   ----------------------------------------
        BYTE   W96
// 017   ----------------------------------------
        BYTE   W96
// 018   ----------------------------------------
        BYTE   W96
// 019   ----------------------------------------
        BYTE   W96
// 020   ----------------------------------------
        BYTE   W96
// 021   ----------------------------------------
        BYTE   W96
// 022   ----------------------------------------
        BYTE   W96
// 023   ----------------------------------------
        BYTE   W96
// 024   ----------------------------------------
        BYTE   W24
        BYTE                   Cn2
        BYTE   W08
        BYTE                   Bn1
        BYTE   W08
        BYTE                   An1
        BYTE   W56
// 025   ----------------------------------------
        BYTE   W96
// 026   ----------------------------------------
        BYTE   W96
// 027   ----------------------------------------
        BYTE   W96
// 028   ----------------------------------------
        BYTE   W96
// 029   ----------------------------------------
        BYTE   W96
// 030   ----------------------------------------
        BYTE   W96
// 031   ----------------------------------------
        BYTE   W96
// 032   ----------------------------------------
        BYTE   W32
        BYTE                   Bn1
        BYTE   W08
        BYTE                   An1
        BYTE   W56
// 033   ----------------------------------------
        BYTE   W96
// 034   ----------------------------------------
        BYTE   W96
// 035   ----------------------------------------
        BYTE   W96
// 036   ----------------------------------------
        BYTE   W96
// 037   ----------------------------------------
        BYTE   W96
// 038   ----------------------------------------
        BYTE   W16
        BYTE                   Cn2
        BYTE   W08
        BYTE                   Bn1
        BYTE   W08
        BYTE                   Bn1
        BYTE   W08
        BYTE                   An1
        BYTE   W08
        BYTE                   An1
        BYTE   W08
        BYTE                   Gn1
        BYTE   W08
        BYTE                   Gn1
        BYTE   W32
// 039   ----------------------------------------
        BYTE   W96
// 040   ----------------------------------------
        BYTE   W16
        BYTE                   Bn1
        BYTE   W08
        BYTE                   An1
        BYTE   W08
        BYTE                   An1
        BYTE   W08
        BYTE                   Gn1
        BYTE   W08
        BYTE   GoTo
         POIN2  earthbound0_10_LOOP
        BYTE   W24
        BYTE                   An1
        BYTE   W08
        BYTE                   Gn1
        BYTE   W16
// 041   ----------------------------------------
        BYTE   W96
// 042   ----------------------------------------
        BYTE   W96
// 043   ----------------------------------------
        BYTE   W96
// 044   ----------------------------------------
        BYTE   W92
        BYTE   FINE

//***************** Track 11 (Midi-Chn.12) *****************//

earthbound0_11:
        BYTE   KEYSH   earthbound0_key+0
// 000   ----------------------------------------
        BYTE           VOICE   97
        BYTE           PAN     c_v-1
        BYTE           VOL     27
        BYTE   W24
// 001   ----------------------------------------
        BYTE                   32
        BYTE           N68     An3   v115
        BYTE   W72
        BYTE           N12     En4
        BYTE   W16
        BYTE           N68     Dn4   v115   gtp3
        BYTE   W08
// 002   ----------------------------------------
        BYTE   W64
        BYTE           N07     An3
        BYTE   W08
        BYTE                   Dn4
        BYTE   W08
        BYTE                   En4
        BYTE   W08
        BYTE           N30     Fn4
        BYTE   W08
// 003   ----------------------------------------
        BYTE   W24
        BYTE           N07     Cn4
        BYTE   W08
        BYTE                   Bn3
        BYTE   W08
        BYTE                   An3
        BYTE   W08
        BYTE                   Fn3
        BYTE   W08
        BYTE                   Gn3
        BYTE   W08
        BYTE                   An3
        BYTE   W08
        BYTE                   Cn4
        BYTE   W08
        BYTE                   Bn3
        BYTE   W08
        BYTE           N92     An3
        BYTE   W08
// 004   ----------------------------------------
        BYTE   W88
        BYTE           N52     En4   v115   gtp1
        BYTE   W08
// 005   ----------------------------------------
        BYTE   W48
        BYTE           N22     An4
        BYTE   W24
        BYTE           N12     Gn4
        BYTE   W16
        BYTE           N52     Fs4   v115   gtp1
        BYTE   W08
// 006   ----------------------------------------
        BYTE   W48
        BYTE           N22     Dn4
        BYTE   W24
        BYTE           N12     En4
        BYTE   W16
        BYTE           N52     Fn4   v115   gtp1
        BYTE   W08
// 007   ----------------------------------------
        BYTE   W48
        BYTE           N22     An4
        BYTE   W24
        BYTE           N12     Cn5
        BYTE   W16
        BYTE           N76     Bn4
        BYTE   W08
// 008   ----------------------------------------
        BYTE   W48
earthbound0_11_LOOP:
        BYTE   W24
        BYTE           N07     An3   v115
        BYTE   W08
        BYTE                   Bn3
        BYTE   W08
        BYTE           N76     Cn4
        BYTE   W08
// 009   ----------------------------------------
earthbound0_11_9:
        BYTE   W72
        BYTE           N07     Gn3   v115
        BYTE   W08
        BYTE                   An3
        BYTE   W08
        BYTE           N76     Bn3
        BYTE   W08
        BYTE   PEND
// 010   ----------------------------------------
earthbound0_11_10:
        BYTE   W72
        BYTE           N07     Bn3   v115
        BYTE   W08
        BYTE                   Cn4
        BYTE   W08
        BYTE           TIE     An3
        BYTE   W08
        BYTE   PEND
// 011   ----------------------------------------
        BYTE   W96
// 012   ----------------------------------------
earthbound0_11_12:
        BYTE   W68
        BYTE           EOT     An3
        BYTE   W04
        BYTE           N07     An3   v115
        BYTE   W08
        BYTE                   Bn3
        BYTE   W08
        BYTE           N76     Cn4
        BYTE   W08
        BYTE   PEND
// 013   ----------------------------------------
earthbound0_11_13:
        BYTE   W72
        BYTE           N07     Dn4   v115
        BYTE   W08
        BYTE                   En4
        BYTE   W08
        BYTE           N76     Cn4
        BYTE   W08
        BYTE   PEND
// 014   ----------------------------------------
earthbound0_11_14:
        BYTE   W72
        BYTE           N07     Cn4   v115
        BYTE   W08
        BYTE                   Bn3
        BYTE   W08
        BYTE           TIE     An3
        BYTE   W08
        BYTE   PEND
// 015   ----------------------------------------
        BYTE   W96
// 016   ----------------------------------------
        BYTE   PATT
         POIN2  earthbound0_11_12
// 017   ----------------------------------------
        BYTE   PATT
         POIN2  earthbound0_11_9
// 018   ----------------------------------------
        BYTE   PATT
         POIN2  earthbound0_11_10
// 019   ----------------------------------------
        BYTE   W96
// 020   ----------------------------------------
        BYTE   PATT
         POIN2  earthbound0_11_12
// 021   ----------------------------------------
        BYTE   PATT
         POIN2  earthbound0_11_13
// 022   ----------------------------------------
        BYTE   PATT
         POIN2  earthbound0_11_14
// 023   ----------------------------------------
        BYTE   W90
        BYTE   W01
        BYTE           EOT     An3
        BYTE   W05
// 024   ----------------------------------------
        BYTE           N07     Fn3   v115
        BYTE   W08
        BYTE                   Gn3
        BYTE   W08
        BYTE                   An3
        BYTE   W08
        BYTE                   Cn4
        BYTE   W08
        BYTE                   Bn3
        BYTE   W08
        BYTE                   An3
        BYTE   W08
        BYTE                   Dn3
        BYTE   W08
        BYTE                   En3
        BYTE   W08
        BYTE                   Dn3
        BYTE   W08
        BYTE                   Cn3
        BYTE   W08
        BYTE                   Bn2
        BYTE   W16
// 025   ----------------------------------------
        BYTE   W96
// 026   ----------------------------------------
        BYTE   W96
// 027   ----------------------------------------
        BYTE   W96
// 028   ----------------------------------------
        BYTE   W96
// 029   ----------------------------------------
        BYTE   W96
// 030   ----------------------------------------
        BYTE   W96
// 031   ----------------------------------------
        BYTE   W96
// 032   ----------------------------------------
        BYTE           VOL     34
        BYTE           N07     Fn3   v127
        BYTE   W08
        BYTE                   Gn3
        BYTE   W08
        BYTE                   An3
        BYTE   W08
        BYTE                   Bn3
        BYTE   W08
        BYTE                   Cn4
        BYTE   W08
        BYTE                   Fn4
        BYTE   W08
        BYTE                   Cn4
        BYTE   W08
        BYTE                   Fn4
        BYTE   W08
        BYTE                   Gn4
        BYTE   W08
        BYTE                   An4
        BYTE   W08
        BYTE                   Cn5
        BYTE   W08
        BYTE                   Fn5
        BYTE   W08
// 033   ----------------------------------------
earthbound0_11_33:
        BYTE           N22     An4   v127
        BYTE   W24
        BYTE                   En4
        BYTE   W24
        BYTE                   An4
        BYTE   W24
        BYTE           N07     En5
        BYTE   W16
        BYTE           N68     Dn5   v127   gtp3
        BYTE   W08
        BYTE   PEND
// 034   ----------------------------------------
earthbound0_11_34:
        BYTE   W64
        BYTE           N07     An4   v127
        BYTE   W08
        BYTE                   Dn5
        BYTE   W08
        BYTE                   En5
        BYTE   W08
        BYTE           N30     Fn5
        BYTE   W08
        BYTE   PEND
// 035   ----------------------------------------
        BYTE   W24
        BYTE           N07     Cn5
        BYTE   W08
        BYTE                   Bn4
        BYTE   W08
        BYTE                   An4
        BYTE   W08
        BYTE                   Fn4
        BYTE   W08
        BYTE                   Gn4
        BYTE   W08
        BYTE                   An4
        BYTE   W08
        BYTE                   Cn5
        BYTE   W08
        BYTE                   Bn4
        BYTE   W08
        BYTE           TIE     An4
        BYTE   W08
// 036   ----------------------------------------
        BYTE   W90
        BYTE   W01
        BYTE           EOT
        BYTE   W05
// 037   ----------------------------------------
        BYTE   PATT
         POIN2  earthbound0_11_33
// 038   ----------------------------------------
        BYTE   PATT
         POIN2  earthbound0_11_34
// 039   ----------------------------------------
        BYTE   W24
        BYTE           N22     Cn5   v127
        BYTE   W24
        BYTE                   An4
        BYTE   W24
        BYTE           N07     Fn5
        BYTE   W16
        BYTE           N76     En5
        BYTE   W08
// 040   ----------------------------------------
        BYTE   W48
        BYTE           VOL     32
        BYTE   GoTo
         POIN2  earthbound0_11_LOOP
        BYTE   W24
        BYTE           N07     An3
        BYTE   W08
        BYTE                   Bn3
        BYTE   W08
        BYTE           N08     Cn4
        BYTE   W08
// 041   ----------------------------------------
        BYTE           VOL     25
        BYTE           N68     Cn4   v115
        BYTE   W12
        BYTE           VOL     24
        BYTE   W12
        BYTE                   23
        BYTE   W12
        BYTE                   22
        BYTE   W12
        BYTE                   21
        BYTE   W12
        BYTE                   20
        BYTE   W12
        BYTE                   19
        BYTE           N07     Gn3
        BYTE   W08
        BYTE                   An3
        BYTE   W04
        BYTE           VOL     18
        BYTE   W04
        BYTE           N76     Bn3
        BYTE   W08
// 042   ----------------------------------------
        BYTE           VOL     17
        BYTE   W12
        BYTE                   16
        BYTE   W12
        BYTE                   15
        BYTE   W12
        BYTE                   14
        BYTE   W12
        BYTE                   13
        BYTE   W12
        BYTE                   12
        BYTE   W12
        BYTE                   11
        BYTE           N07
        BYTE   W08
        BYTE                   Cn4
        BYTE   W04
        BYTE           VOL     10
        BYTE   W04
        BYTE           TIE     An3
        BYTE   W08
// 043   ----------------------------------------
        BYTE   PATT
         POIN2  earthbound0_0_43
// 044   ----------------------------------------
        BYTE           VOL     1
        BYTE   W12
        BYTE                   0
        BYTE   W56
        BYTE           EOT     An3
        BYTE   W04
        BYTE           N07     An3   v115
        BYTE   W08
        BYTE                   Bn3
        BYTE   W12
        BYTE   FINE

//***************** Track 12 (Midi-Chn.13) *****************//

earthbound0_12:
        BYTE   KEYSH   earthbound0_key+0
// 000   ----------------------------------------
        BYTE           VOICE   122
        BYTE           VOL     27
        BYTE   W24
// 001   ----------------------------------------
        BYTE   W96
// 002   ----------------------------------------
        BYTE   W96
// 003   ----------------------------------------
        BYTE   W96
// 004   ----------------------------------------
        BYTE   W96
// 005   ----------------------------------------
        BYTE   W96
// 006   ----------------------------------------
        BYTE   W96
// 007   ----------------------------------------
        BYTE                   34
        BYTE   W88
        BYTE           N64     An2   v110   gtp1
        BYTE   W08
// 008   ----------------------------------------
        BYTE   W48
earthbound0_12_LOOP:
        BYTE   W40
        BYTE           N08     An2   v110
        BYTE   W08
// 009   ----------------------------------------
earthbound0_12_9:
        BYTE   W16
        BYTE           N06     Fs1   v110
        BYTE   W08
        BYTE                   Fs1
        BYTE   W08
        BYTE                   Fs1
        BYTE   W08
        BYTE                   Fs1
        BYTE   W08
        BYTE                   Fs1
        BYTE   W08
        BYTE                   Fs1
        BYTE   W08
        BYTE                   Fs1
        BYTE   W08
        BYTE                   Fs1
        BYTE   W08
        BYTE                   Fs1
        BYTE   W08
        BYTE           N20     As1
        BYTE   W08
        BYTE   PEND
// 010   ----------------------------------------
earthbound0_12_10:
        BYTE   W16
        BYTE           N06     Fs1   v110
        BYTE   W08
        BYTE                   Fs1
        BYTE   W08
        BYTE                   Fs1
        BYTE   W08
        BYTE                   Fs1
        BYTE   W08
        BYTE                   Fs1
        BYTE   W08
        BYTE                   Fs1
        BYTE   W08
        BYTE                   Fs1
        BYTE   W08
        BYTE                   Fs1
        BYTE   W08
        BYTE                   Fs1
        BYTE   W08
        BYTE           N14     As1
        BYTE   W08
        BYTE   PEND
// 011   ----------------------------------------
earthbound0_12_11:
        BYTE   W08
        BYTE           N06     Fs1   v110
        BYTE   W08
        BYTE                   Fs1
        BYTE   W08
        BYTE                   Fs1
        BYTE   W08
        BYTE                   Fs1
        BYTE   W08
        BYTE                   Fs1
        BYTE   W08
        BYTE                   Fs1
        BYTE   W08
        BYTE                   Fs1
        BYTE   W08
        BYTE                   Fs1
        BYTE   W08
        BYTE                   Fs1
        BYTE   W08
        BYTE                   Fs1
        BYTE   W08
        BYTE                   Fs1
        BYTE   W08
        BYTE   PEND
// 012   ----------------------------------------
earthbound0_12_12:
        BYTE           N06     As1   v110
        BYTE   W08
        BYTE                   Fs1
        BYTE   W08
        BYTE                   Fs1
        BYTE   W08
        BYTE                   Fs1
        BYTE   W08
        BYTE                   Fs1
        BYTE   W08
        BYTE                   Fs1
        BYTE   W08
        BYTE                   Fs1
        BYTE   W08
        BYTE                   Fs1
        BYTE   W08
        BYTE                   Fs1
        BYTE   W08
        BYTE                   Fs1
        BYTE   W08
        BYTE                   Fs1
        BYTE   W08
        BYTE           N14     As1
        BYTE   W08
        BYTE   PEND
// 013   ----------------------------------------
earthbound0_12_13:
        BYTE   W08
        BYTE           N06     Fs1   v110
        BYTE   W08
        BYTE                   Fs1
        BYTE   W08
        BYTE                   Fs1
        BYTE   W08
        BYTE                   Fs1
        BYTE   W08
        BYTE                   Fs1
        BYTE   W08
        BYTE                   Fs1
        BYTE   W08
        BYTE                   Fs1
        BYTE   W08
        BYTE                   Fs1
        BYTE   W08
        BYTE                   Fs1
        BYTE   W08
        BYTE                   Fs1
        BYTE   W08
        BYTE           N14     As1
        BYTE   W08
        BYTE   PEND
// 014   ----------------------------------------
        BYTE   PATT
         POIN2  earthbound0_12_13
// 015   ----------------------------------------
        BYTE   PATT
         POIN2  earthbound0_12_11
// 016   ----------------------------------------
        BYTE   PATT
         POIN2  earthbound0_12_12
// 017   ----------------------------------------
        BYTE   PATT
         POIN2  earthbound0_12_13
// 018   ----------------------------------------
        BYTE   PATT
         POIN2  earthbound0_12_13
// 019   ----------------------------------------
        BYTE   PATT
         POIN2  earthbound0_12_11
// 020   ----------------------------------------
        BYTE   PATT
         POIN2  earthbound0_12_12
// 021   ----------------------------------------
        BYTE   PATT
         POIN2  earthbound0_12_13
// 022   ----------------------------------------
        BYTE   PATT
         POIN2  earthbound0_12_13
// 023   ----------------------------------------
        BYTE   PATT
         POIN2  earthbound0_12_11
// 024   ----------------------------------------
        BYTE           N06     As1   v110
        BYTE   W08
        BYTE                   Fs1
        BYTE   W08
        BYTE                   Fs1
        BYTE   W08
        BYTE                   Fs1
        BYTE   W08
        BYTE                   Fs1
        BYTE   W08
        BYTE                   Fs1
        BYTE   W08
        BYTE                   Fs1
        BYTE   W08
        BYTE                   Fs1
        BYTE   W08
        BYTE                   Fs1
        BYTE   W08
        BYTE                   Fs1
        BYTE   W08
        BYTE                   Fs1
        BYTE   W08
        BYTE           N20     An2
        BYTE   W08
// 025   ----------------------------------------
        BYTE   PATT
         POIN2  earthbound0_12_9
// 026   ----------------------------------------
        BYTE   PATT
         POIN2  earthbound0_12_9
// 027   ----------------------------------------
        BYTE   PATT
         POIN2  earthbound0_12_10
// 028   ----------------------------------------
        BYTE   PATT
         POIN2  earthbound0_12_13
// 029   ----------------------------------------
        BYTE   PATT
         POIN2  earthbound0_12_13
// 030   ----------------------------------------
        BYTE   PATT
         POIN2  earthbound0_12_13
// 031   ----------------------------------------
        BYTE   W08
        BYTE           N06     Fs1   v110
        BYTE   W08
        BYTE                   Fs1
        BYTE   W08
        BYTE                   Fs1
        BYTE   W08
        BYTE                   Fs1
        BYTE   W08
        BYTE                   Fs1
        BYTE   W08
        BYTE                   Fs1
        BYTE   W08
        BYTE                   Fs1
        BYTE   W08
        BYTE                   Fs1
        BYTE   W08
        BYTE                   Fs1
        BYTE   W08
        BYTE                   Fs1
        BYTE   W08
        BYTE                   As1
        BYTE   W08
// 032   ----------------------------------------
        BYTE                   Fs1
        BYTE   W08
        BYTE                   Fs1
        BYTE   W08
        BYTE                   Fs1
        BYTE   W08
        BYTE           N19
        BYTE   W24
        BYTE           N06
        BYTE   W08
        BYTE                   Fs1
        BYTE   W08
        BYTE                   Fs1
        BYTE   W08
        BYTE           N19     Gn2
        BYTE   W24
// 033   ----------------------------------------
        BYTE           N12     An2
        BYTE   W16
        BYTE           N06     Fs1
        BYTE   W08
        BYTE                   Fs1
        BYTE   W08
        BYTE                   Fs1
        BYTE   W08
        BYTE                   Fs1
        BYTE   W08
        BYTE                   Fs1
        BYTE   W08
        BYTE                   Fs1
        BYTE   W08
        BYTE                   Fs1
        BYTE   W08
        BYTE                   As1
        BYTE   W08
        BYTE                   Fs1
        BYTE   W08
        BYTE                   Fs1
        BYTE   W08
// 034   ----------------------------------------
earthbound0_12_34:
        BYTE           N06     Fs1   v110
        BYTE   W08
        BYTE                   Fs1
        BYTE   W08
        BYTE                   Fs1
        BYTE   W08
        BYTE                   As1
        BYTE   W08
        BYTE                   Fs1
        BYTE   W08
        BYTE                   Fs1
        BYTE   W08
        BYTE                   Fs1
        BYTE   W08
        BYTE                   Fs1
        BYTE   W08
        BYTE                   Fs1
        BYTE   W08
        BYTE                   As1
        BYTE   W08
        BYTE                   Fs1
        BYTE   W08
        BYTE                   Fs1
        BYTE   W08
        BYTE   PEND
// 035   ----------------------------------------
        BYTE   PATT
         POIN2  earthbound0_12_34
// 036   ----------------------------------------
        BYTE           N06     Fs1   v110
        BYTE   W08
        BYTE                   Fs1
        BYTE   W08
        BYTE                   Fs1
        BYTE   W08
        BYTE                   As1
        BYTE   W08
        BYTE                   Fs1
        BYTE   W08
        BYTE                   Fs1
        BYTE   W08
        BYTE                   Fs1
        BYTE   W08
        BYTE                   Fs1
        BYTE   W08
        BYTE                   Fs1
        BYTE   W08
        BYTE                   Fs1
        BYTE   W08
        BYTE                   Fs1
        BYTE   W08
        BYTE                   As1
        BYTE   W08
// 037   ----------------------------------------
        BYTE           N12     An2
        BYTE   W16
        BYTE           N06     Fs1
        BYTE   W08
        BYTE                   As1
        BYTE   W08
        BYTE                   Fs1
        BYTE   W08
        BYTE                   Fs1
        BYTE   W08
        BYTE                   Fs1
        BYTE   W08
        BYTE                   Fs1
        BYTE   W32
        BYTE           N64     An2   v110   gtp1
        BYTE   W08
// 038   ----------------------------------------
        BYTE   W88
        BYTE           N24     An2   v110   gtp3
        BYTE   W08
// 039   ----------------------------------------
        BYTE   W24
        BYTE           N19     As1
        BYTE   W24
        BYTE                   As1
        BYTE   W24
        BYTE           N12
        BYTE   W16
        BYTE           N64     An2   v110   gtp1
        BYTE   W08
// 040   ----------------------------------------
        BYTE   W48
        BYTE   GoTo
         POIN2  earthbound0_12_LOOP
        BYTE   W40
        BYTE           N08
        BYTE   W08
// 041   ----------------------------------------
        BYTE           VOL     27
        BYTE   W12
        BYTE                   26
        BYTE   W04
        BYTE           N06     Fs1
        BYTE   W08
        BYTE           VOL     25
        BYTE           N06
        BYTE   W08
        BYTE                   Fs1
        BYTE   W04
        BYTE           VOL     24
        BYTE   W04
        BYTE           N06
        BYTE   W08
        BYTE           VOL     22
        BYTE           N06
        BYTE   W08
        BYTE                   Fs1
        BYTE   W04
        BYTE           VOL     21
        BYTE   W04
        BYTE           N06
        BYTE   W08
        BYTE           VOL     20
        BYTE           N06
        BYTE   W08
        BYTE                   Fs1
        BYTE   W04
        BYTE           VOL     19
        BYTE   W04
        BYTE           N20     As1
        BYTE   W08
// 042   ----------------------------------------
        BYTE           VOL     18
        BYTE   W12
        BYTE                   17
        BYTE   W04
        BYTE           N06     Fs1
        BYTE   W08
        BYTE           VOL     16
        BYTE           N06
        BYTE   W08
        BYTE                   Fs1
        BYTE   W04
        BYTE           VOL     15
        BYTE   W04
        BYTE           N06
        BYTE   W08
        BYTE           VOL     14
        BYTE           N06
        BYTE   W08
        BYTE                   Fs1
        BYTE   W04
        BYTE           VOL     13
        BYTE   W04
        BYTE           N06
        BYTE   W08
        BYTE           VOL     12
        BYTE           N06
        BYTE   W08
        BYTE                   Fs1
        BYTE   W04
        BYTE           VOL     11
        BYTE   W04
        BYTE           N14     As1
        BYTE   W08
// 043   ----------------------------------------
        BYTE           VOL     10
        BYTE   W08
        BYTE           N06     Fs1
        BYTE   W04
        BYTE           VOL     9
        BYTE   W04
        BYTE           N06
        BYTE   W08
        BYTE           VOL     7
        BYTE           N06
        BYTE   W08
        BYTE                   Fs1
        BYTE   W04
        BYTE           VOL     6
        BYTE   W04
        BYTE           N06
        BYTE   W08
        BYTE           VOL     5
        BYTE           N06
        BYTE   W08
        BYTE                   Fs1
        BYTE   W04
        BYTE           VOL     4
        BYTE   W04
        BYTE           N06
        BYTE   W08
        BYTE           VOL     3
        BYTE           N06
        BYTE   W08
        BYTE                   Fs1
        BYTE   W04
        BYTE           VOL     2
        BYTE   W04
        BYTE           N06
        BYTE   W08
// 044   ----------------------------------------
        BYTE           VOL     1
        BYTE           N06     As1
        BYTE   W08
        BYTE                   Fs1
        BYTE   W04
        BYTE           VOL     0
        BYTE   W04
        BYTE           N06
        BYTE   W08
        BYTE                   Fs1
        BYTE   W08
        BYTE                   Fs1
        BYTE   W08
        BYTE                   Fs1
        BYTE   W08
        BYTE                   Fs1
        BYTE   W08
        BYTE                   Fs1
        BYTE   W08
        BYTE                   Fs1
        BYTE   W08
        BYTE                   Fs1
        BYTE   W08
        BYTE                   Fs1
        BYTE   W12
        BYTE   FINE

//***************** Track 13 (Midi-Chn.14) *****************//

earthbound0_13:
        BYTE   KEYSH   earthbound0_key+0
// 000   ----------------------------------------
        BYTE           VOICE   36
        BYTE           VOL     27
        BYTE   W24
// 001   ----------------------------------------
        BYTE                   32
        BYTE           PAN     c_v+41
        BYTE           N14     An1   v110
        BYTE   W16
        BYTE           N07
        BYTE   W08
        BYTE           N14
        BYTE   W16
        BYTE           N07
        BYTE   W08
        BYTE           N14
        BYTE   W16
        BYTE           N07
        BYTE   W08
        BYTE           N14
        BYTE   W16
        BYTE           N07
        BYTE   W08
// 002   ----------------------------------------
        BYTE   PATT
         POIN2  earthbound0_7_2
// 003   ----------------------------------------
        BYTE   PATT
         POIN2  earthbound0_7_2
// 004   ----------------------------------------
        BYTE   PATT
         POIN2  earthbound0_7_2
// 005   ----------------------------------------
        BYTE   PATT
         POIN2  earthbound0_7_2
// 006   ----------------------------------------
        BYTE   PATT
         POIN2  earthbound0_7_6
// 007   ----------------------------------------
        BYTE   PATT
         POIN2  earthbound0_7_7
// 008   ----------------------------------------
        BYTE   W48
earthbound0_13_LOOP:
        BYTE           N07     En2   v110
        BYTE   W08
        BYTE                   Cn2
        BYTE   W08
        BYTE                   An1
        BYTE   W08
        BYTE                   En1
        BYTE   W08
        BYTE                   Cn1
        BYTE   W08
        BYTE           N22     An1
        BYTE   W08
// 009   ----------------------------------------
        BYTE   PATT
         POIN2  earthbound0_7_9
// 010   ----------------------------------------
        BYTE   PATT
         POIN2  earthbound0_7_9
// 011   ----------------------------------------
        BYTE   PATT
         POIN2  earthbound0_7_11
// 012   ----------------------------------------
        BYTE   PATT
         POIN2  earthbound0_7_12
// 013   ----------------------------------------
        BYTE   PATT
         POIN2  earthbound0_7_9
// 014   ----------------------------------------
        BYTE   PATT
         POIN2  earthbound0_7_9
// 015   ----------------------------------------
        BYTE   PATT
         POIN2  earthbound0_7_11
// 016   ----------------------------------------
        BYTE   PATT
         POIN2  earthbound0_7_12
// 017   ----------------------------------------
        BYTE   PATT
         POIN2  earthbound0_7_9
// 018   ----------------------------------------
        BYTE   PATT
         POIN2  earthbound0_7_9
// 019   ----------------------------------------
        BYTE   PATT
         POIN2  earthbound0_7_11
// 020   ----------------------------------------
        BYTE   PATT
         POIN2  earthbound0_7_12
// 021   ----------------------------------------
        BYTE   PATT
         POIN2  earthbound0_7_9
// 022   ----------------------------------------
        BYTE   PATT
         POIN2  earthbound0_7_9
// 023   ----------------------------------------
        BYTE   PATT
         POIN2  earthbound0_7_11
// 024   ----------------------------------------
        BYTE   PATT
         POIN2  earthbound0_7_24
// 025   ----------------------------------------
        BYTE   PATT
         POIN2  earthbound0_7_25
// 026   ----------------------------------------
        BYTE   PATT
         POIN2  earthbound0_7_26
// 027   ----------------------------------------
        BYTE   PATT
         POIN2  earthbound0_7_27
// 028   ----------------------------------------
        BYTE   PATT
         POIN2  earthbound0_7_28
// 029   ----------------------------------------
        BYTE   PATT
         POIN2  earthbound0_7_25
// 030   ----------------------------------------
        BYTE   PATT
         POIN2  earthbound0_7_30
// 031   ----------------------------------------
        BYTE   PATT
         POIN2  earthbound0_7_31
// 032   ----------------------------------------
        BYTE   PATT
         POIN2  earthbound0_7_32
// 033   ----------------------------------------
        BYTE   PATT
         POIN2  earthbound0_7_2
// 034   ----------------------------------------
        BYTE   PATT
         POIN2  earthbound0_7_2
// 035   ----------------------------------------
        BYTE   PATT
         POIN2  earthbound0_7_2
// 036   ----------------------------------------
        BYTE   PATT
         POIN2  earthbound0_7_2
// 037   ----------------------------------------
        BYTE   PATT
         POIN2  earthbound0_7_37
// 038   ----------------------------------------
        BYTE   PATT
         POIN2  earthbound0_7_38
// 039   ----------------------------------------
        BYTE   PATT
         POIN2  earthbound0_7_39
// 040   ----------------------------------------
        BYTE   W48
        BYTE           N07     En2   v110
        BYTE   GoTo
         POIN2  earthbound0_13_LOOP
        BYTE   W08
        BYTE                   Cn2
        BYTE   W08
        BYTE                   An1
        BYTE   W08
        BYTE                   En1
        BYTE   W08
        BYTE                   Cn1
        BYTE   W08
        BYTE           N08     An1
        BYTE   W08
// 041   ----------------------------------------
        BYTE   PATT
         POIN2  earthbound0_8_41
// 042   ----------------------------------------
        BYTE   PATT
         POIN2  earthbound0_8_42
// 043   ----------------------------------------
        BYTE   PATT
         POIN2  earthbound0_8_43
// 044   ----------------------------------------
        BYTE   PATT
         POIN2  earthbound0_7_44
        BYTE   FINE

//***************** Track 14 (Midi-Chn.15) *****************//

earthbound0_14:
        BYTE   KEYSH   earthbound0_key+0
// 000   ----------------------------------------
        BYTE           VOICE   122
        BYTE           VOL     27
        BYTE   W24
// 001   ----------------------------------------
        BYTE   W96
// 002   ----------------------------------------
        BYTE   W96
// 003   ----------------------------------------
        BYTE   W96
// 004   ----------------------------------------
        BYTE   W96
// 005   ----------------------------------------
        BYTE   W96
// 006   ----------------------------------------
        BYTE                   34
        BYTE   W88
        BYTE           N20     Cn2   v070
        BYTE   W08
// 007   ----------------------------------------
        BYTE   W16
        BYTE           N06
        BYTE   W08
        BYTE                   Bn1
        BYTE   W08
        BYTE                   Bn1
        BYTE   W08
        BYTE                   Bn1
        BYTE   W16
        BYTE                   An1
        BYTE   W08
        BYTE                   An1
        BYTE   W16
        BYTE                   Gn1
        BYTE   W16
// 008   ----------------------------------------
        BYTE   W16
        BYTE                   Cn2
        BYTE   W08
        BYTE                   Gn1
        BYTE   W08
        BYTE                   Bn1
        BYTE   W08
        BYTE                   Bn1
        BYTE   W08
earthbound0_14_LOOP:
        BYTE   W08
        BYTE           N06     An1   v070
        BYTE   W08
        BYTE                   Gn1
        BYTE   W32
// 009   ----------------------------------------
        BYTE   W96
// 010   ----------------------------------------
        BYTE   W96
// 011   ----------------------------------------
        BYTE   W96
// 012   ----------------------------------------
        BYTE   W96
// 013   ----------------------------------------
        BYTE   W96
// 014   ----------------------------------------
        BYTE   W96
// 015   ----------------------------------------
        BYTE   W96
// 016   ----------------------------------------
        BYTE   W96
// 017   ----------------------------------------
        BYTE   W96
// 018   ----------------------------------------
        BYTE   W96
// 019   ----------------------------------------
        BYTE   W96
// 020   ----------------------------------------
        BYTE   W96
// 021   ----------------------------------------
        BYTE   W96
// 022   ----------------------------------------
        BYTE   W96
// 023   ----------------------------------------
        BYTE   W96
// 024   ----------------------------------------
        BYTE   W24
        BYTE                   Cn2
        BYTE   W08
        BYTE                   Bn1
        BYTE   W08
        BYTE                   An1
        BYTE   W56
// 025   ----------------------------------------
        BYTE   W96
// 026   ----------------------------------------
        BYTE   W96
// 027   ----------------------------------------
        BYTE   W96
// 028   ----------------------------------------
        BYTE   W96
// 029   ----------------------------------------
        BYTE   W96
// 030   ----------------------------------------
        BYTE   W96
// 031   ----------------------------------------
        BYTE   W96
// 032   ----------------------------------------
        BYTE   W32
        BYTE                   Bn1
        BYTE   W08
        BYTE                   An1
        BYTE   W56
// 033   ----------------------------------------
        BYTE   W96
// 034   ----------------------------------------
        BYTE   W96
// 035   ----------------------------------------
        BYTE   W96
// 036   ----------------------------------------
        BYTE   W96
// 037   ----------------------------------------
        BYTE   W96
// 038   ----------------------------------------
        BYTE   W16
        BYTE                   Cn2
        BYTE   W08
        BYTE                   Bn1
        BYTE   W08
        BYTE                   Bn1
        BYTE   W08
        BYTE                   An1
        BYTE   W08
        BYTE                   An1
        BYTE   W08
        BYTE                   Gn1
        BYTE   W08
        BYTE                   Gn1
        BYTE   W32
// 039   ----------------------------------------
        BYTE   W96
// 040   ----------------------------------------
        BYTE   W16
        BYTE                   Bn1
        BYTE   W08
        BYTE                   An1
        BYTE   W08
        BYTE                   An1
        BYTE   W08
        BYTE                   Gn1
        BYTE   W08
        BYTE   GoTo
         POIN2  earthbound0_14_LOOP
        BYTE   W24
        BYTE                   An1
        BYTE   W08
        BYTE                   Gn1
        BYTE   W16
// 041   ----------------------------------------
        BYTE   W96
// 042   ----------------------------------------
        BYTE   W96
// 043   ----------------------------------------
        BYTE   W96
// 044   ----------------------------------------
        BYTE   W92
        BYTE   FINE


//********************** End of Song ***********************//

        ALIGN 4
earthbound0:
        BYTE   15                      // Num Tracks
        BYTE   0                       // Unknown
        BYTE   earthbound0_pri         // Priority
        BYTE   earthbound0_rev         // Reverb

        POIN2   earthbound0_grp        

        POIN2   earthbound0_0
        POIN2   earthbound0_1
        POIN2   earthbound0_2
        POIN2   earthbound0_3
        POIN2   earthbound0_4
        POIN2   earthbound0_5
        POIN2   earthbound0_6
        POIN2   earthbound0_7
        POIN2   earthbound0_8
        POIN2   earthbound0_9
        POIN2   earthbound0_10
        POIN2   earthbound0_11
        POIN2   earthbound0_12
        POIN2   earthbound0_13
        POIN2   earthbound0_14

        
