//Event file generated from Sappy .s format.
        #include "MPlayDef.event"

        #define    HeavyArmorCorps4_grp  voicegroup000
        #define    HeavyArmorCorps4_pri  0
        #define    HeavyArmorCorps4_rev  0
        #define    HeavyArmorCorps4_key  0

        // .rodata
        // HeavyArmorCorps4
        ALIGN 4

//****************** Track 0 (Midi-Chn.0) ******************//

HeavyArmorCorps4_0:
        BYTE   KEYSH   HeavyArmorCorps4_key+0
// 000   ----------------------------------------
        BYTE   TEMPO   200/2
        BYTE           VOICE   96
        BYTE           VOL     25
        BYTE           PAN     c_v-41
        BYTE   W11
        BYTE   TEMPO   100/2
        BYTE   W84
        BYTE   W01
// 001   ----------------------------------------
        BYTE   W96
// 002   ----------------------------------------
        BYTE   W18
HeavyArmorCorps4_0_LOOP:
        BYTE   W78
// 003   ----------------------------------------
        BYTE   W96
// 004   ----------------------------------------
        BYTE   W96
// 005   ----------------------------------------
        BYTE   W96
// 006   ----------------------------------------
        BYTE   W96
// 007   ----------------------------------------
        BYTE   W96
// 008   ----------------------------------------
        BYTE   W96
// 009   ----------------------------------------
        BYTE   W96
// 010   ----------------------------------------
        BYTE   W96
// 011   ----------------------------------------
        BYTE   W96
// 012   ----------------------------------------
        BYTE   W96
// 013   ----------------------------------------
        BYTE   W96
// 014   ----------------------------------------
        BYTE   W96
// 015   ----------------------------------------
        BYTE   W96
// 016   ----------------------------------------
        BYTE   W96
// 017   ----------------------------------------
        BYTE   W96
// 018   ----------------------------------------
        BYTE   W96
// 019   ----------------------------------------
        BYTE   W96
// 020   ----------------------------------------
        BYTE   W96
// 021   ----------------------------------------
        BYTE   W96
// 022   ----------------------------------------
        BYTE   W96
// 023   ----------------------------------------
        BYTE   W96
// 024   ----------------------------------------
        BYTE   W96
// 025   ----------------------------------------
        BYTE   W96
// 026   ----------------------------------------
        BYTE   W96
// 027   ----------------------------------------
        BYTE   W96
// 028   ----------------------------------------
        BYTE   W96
// 029   ----------------------------------------
        BYTE   W96
// 030   ----------------------------------------
        BYTE   W96
// 031   ----------------------------------------
        BYTE   W96
// 032   ----------------------------------------
HeavyArmorCorps4_0_32:
        BYTE   W24
        BYTE           N48     Cn4   v114   gtp2
        BYTE   W48
        BYTE           N24     As3   v113   gtp2
        BYTE   W24
        BYTE   PEND
// 033   ----------------------------------------
HeavyArmorCorps4_0_33:
        BYTE           N24     Cn4   v114   gtp2
        BYTE   W24
        BYTE           N48     Dn4   v115   gtp2
        BYTE   W48
        BYTE                   As3   v113
        BYTE   W24
        BYTE   PEND
// 034   ----------------------------------------
HeavyArmorCorps4_0_34:
        BYTE   W24
        BYTE           N48     Ds4   v116   gtp2
        BYTE   W48
        BYTE           N72     Gn3   v112   gtp2
        BYTE   W24
        BYTE   PEND
// 035   ----------------------------------------
HeavyArmorCorps4_0_35:
        BYTE   W48
        BYTE           N24     Cn4   v113   gtp2
        BYTE   W24
        BYTE           N36     Dn4   v114   gtp2
        BYTE   W24
        BYTE   PEND
// 036   ----------------------------------------
HeavyArmorCorps4_0_36:
        BYTE   W12
        BYTE           N14     Ds4   v115
        BYTE   W12
        BYTE           N48     Gn4   v116   gtp2
        BYTE   W48
        BYTE           N24     Fn4   v115   gtp2
        BYTE   W24
        BYTE   PEND
// 037   ----------------------------------------
HeavyArmorCorps4_0_37:
        BYTE           N24     Gn4   v116   gtp2
        BYTE   W24
        BYTE           N48     As4   v117   gtp2
        BYTE   W48
        BYTE           N24     Gs4   v116   gtp2
        BYTE   W24
        BYTE   PEND
// 038   ----------------------------------------
HeavyArmorCorps4_0_38:
        BYTE           N24     Gn4   v115   gtp2
        BYTE   W24
        BYTE           N48     Fn4   v116   gtp2
        BYTE   W48
        BYTE                   Ds4   v115
        BYTE   W24
        BYTE   PEND
// 039   ----------------------------------------
        BYTE   W24
        BYTE                   Dn4   v114
        BYTE   W48
        BYTE                   As3   v113
        BYTE   W24
// 040   ----------------------------------------
        BYTE   PATT
         POIN2  HeavyArmorCorps4_0_32
// 041   ----------------------------------------
        BYTE   PATT
         POIN2  HeavyArmorCorps4_0_33
// 042   ----------------------------------------
        BYTE   PATT
         POIN2  HeavyArmorCorps4_0_34
// 043   ----------------------------------------
        BYTE   PATT
         POIN2  HeavyArmorCorps4_0_35
// 044   ----------------------------------------
        BYTE   PATT
         POIN2  HeavyArmorCorps4_0_36
// 045   ----------------------------------------
        BYTE   PATT
         POIN2  HeavyArmorCorps4_0_37
// 046   ----------------------------------------
        BYTE   PATT
         POIN2  HeavyArmorCorps4_0_38
// 047   ----------------------------------------
        BYTE   W24
        BYTE           N48     Dn4   v114   gtp2
        BYTE   W48
        BYTE                   Gn4   v113
        BYTE   W24
// 048   ----------------------------------------
        BYTE   W24
        BYTE                   Cn5   v114
        BYTE   W48
        BYTE           N24     As4   v113   gtp2
        BYTE   W24
// 049   ----------------------------------------
        BYTE                   Cn5   v114
        BYTE   W24
        BYTE           N48     Dn5   v115   gtp2
        BYTE   W48
        BYTE                   As4   v113
        BYTE   W24
// 050   ----------------------------------------
        BYTE   W24
        BYTE                   Fn5   v116
        BYTE   W48
        BYTE                   Ds5   v114
        BYTE   W24
// 051   ----------------------------------------
        BYTE   W24
        BYTE                   Dn5   v112
        BYTE   W44
        BYTE   W03
        BYTE                   Cn5
        BYTE   W24
        BYTE   W01
// 052   ----------------------------------------
        BYTE   W24
        BYTE           TIE     As4
        BYTE   W72
// 053   ----------------------------------------
        BYTE   W24
        BYTE                   Gs4   v110
        BYTE   W02
        BYTE           EOT     As4
        BYTE   W68
        BYTE   W02
// 054   ----------------------------------------
        BYTE   W24
        BYTE           TIE     Gn4
        BYTE   W02
        BYTE           EOT     Gs4
        BYTE   W68
        BYTE   W02
// 055   ----------------------------------------
        BYTE   W96
// 056   ----------------------------------------
        BYTE   W24
        BYTE                   Gn4
        BYTE   W72
// 057   ----------------------------------------
        BYTE   W96
// 058   ----------------------------------------
        BYTE   W18
        BYTE   GoTo
         POIN2  HeavyArmorCorps4_0_LOOP
        BYTE   W30
        BYTE   FINE

//****************** Track 1 (Midi-Chn.1) ******************//

HeavyArmorCorps4_1:
        BYTE   KEYSH   HeavyArmorCorps4_key+0
// 000   ----------------------------------------
        BYTE           VOICE   97
        BYTE           VOL     27
        BYTE           PAN     c_v-11
        BYTE   W96
// 001   ----------------------------------------
        BYTE   W96
// 002   ----------------------------------------
        BYTE   W18
HeavyArmorCorps4_1_LOOP:
        BYTE   W78
// 003   ----------------------------------------
        BYTE   W96
// 004   ----------------------------------------
        BYTE   W96
// 005   ----------------------------------------
        BYTE   W96
// 006   ----------------------------------------
        BYTE   W96
// 007   ----------------------------------------
        BYTE   W96
// 008   ----------------------------------------
        BYTE   W96
// 009   ----------------------------------------
        BYTE   W96
// 010   ----------------------------------------
        BYTE   W96
// 011   ----------------------------------------
        BYTE   W96
// 012   ----------------------------------------
        BYTE   W96
// 013   ----------------------------------------
        BYTE   W96
// 014   ----------------------------------------
        BYTE   W96
// 015   ----------------------------------------
        BYTE   W96
// 016   ----------------------------------------
        BYTE   W96
// 017   ----------------------------------------
        BYTE   W96
// 018   ----------------------------------------
        BYTE   W96
// 019   ----------------------------------------
        BYTE   W96
// 020   ----------------------------------------
        BYTE   W96
// 021   ----------------------------------------
        BYTE   W96
// 022   ----------------------------------------
        BYTE   W96
// 023   ----------------------------------------
        BYTE   W96
// 024   ----------------------------------------
        BYTE   W96
// 025   ----------------------------------------
        BYTE   W96
// 026   ----------------------------------------
        BYTE   W96
// 027   ----------------------------------------
        BYTE   W96
// 028   ----------------------------------------
        BYTE   W96
// 029   ----------------------------------------
        BYTE   W96
// 030   ----------------------------------------
        BYTE   W96
// 031   ----------------------------------------
        BYTE   W96
// 032   ----------------------------------------
HeavyArmorCorps4_1_32:
        BYTE   W24
        BYTE           N48     Cn3   v114   gtp2
        BYTE   W48
        BYTE           N24     As2   v113   gtp2
        BYTE   W24
        BYTE   PEND
// 033   ----------------------------------------
HeavyArmorCorps4_1_33:
        BYTE           N24     Cn3   v114   gtp2
        BYTE   W24
        BYTE           N48     Dn3   v115   gtp2
        BYTE   W48
        BYTE                   As2   v113
        BYTE   W24
        BYTE   PEND
// 034   ----------------------------------------
HeavyArmorCorps4_1_34:
        BYTE   W24
        BYTE           N48     Ds3   v116   gtp2
        BYTE   W48
        BYTE           N72     Gn2   v112   gtp2
        BYTE   W24
        BYTE   PEND
// 035   ----------------------------------------
HeavyArmorCorps4_1_35:
        BYTE   W48
        BYTE           N24     Cn3   v113   gtp2
        BYTE   W24
        BYTE           N36     Dn3   v114   gtp2
        BYTE   W24
        BYTE   PEND
// 036   ----------------------------------------
HeavyArmorCorps4_1_36:
        BYTE   W12
        BYTE           N14     Ds3   v115
        BYTE   W12
        BYTE           N48     Gn3   v117   gtp2
        BYTE   W48
        BYTE           N24     Fn3   v115   gtp2
        BYTE   W24
        BYTE   PEND
// 037   ----------------------------------------
HeavyArmorCorps4_1_37:
        BYTE           N24     Gn3   v116   gtp2
        BYTE   W24
        BYTE           N48     As3   v117   gtp2
        BYTE   W48
        BYTE           N24     Gs3   v116   gtp2
        BYTE   W24
        BYTE   PEND
// 038   ----------------------------------------
HeavyArmorCorps4_1_38:
        BYTE           N24     Gn3   v115   gtp2
        BYTE   W24
        BYTE           N48     Fn3   v114   gtp2
        BYTE   W48
        BYTE                   Ds3   v113
        BYTE   W24
        BYTE   PEND
// 039   ----------------------------------------
        BYTE   W24
        BYTE                   Dn3   v112
        BYTE   W48
        BYTE           N48     As2   v107
        BYTE   W24
// 040   ----------------------------------------
        BYTE   PATT
         POIN2  HeavyArmorCorps4_1_32
// 041   ----------------------------------------
        BYTE   PATT
         POIN2  HeavyArmorCorps4_1_33
// 042   ----------------------------------------
        BYTE   PATT
         POIN2  HeavyArmorCorps4_1_34
// 043   ----------------------------------------
        BYTE   PATT
         POIN2  HeavyArmorCorps4_1_35
// 044   ----------------------------------------
        BYTE   PATT
         POIN2  HeavyArmorCorps4_1_36
// 045   ----------------------------------------
        BYTE   PATT
         POIN2  HeavyArmorCorps4_1_37
// 046   ----------------------------------------
        BYTE   PATT
         POIN2  HeavyArmorCorps4_1_38
// 047   ----------------------------------------
        BYTE   W24
        BYTE           N48     Dn3   v112   gtp2
        BYTE   W48
        BYTE           N48     Gn3   v107
        BYTE   W24
// 048   ----------------------------------------
        BYTE   PATT
         POIN2  HeavyArmorCorps4_0_32
// 049   ----------------------------------------
        BYTE   PATT
         POIN2  HeavyArmorCorps4_0_33
// 050   ----------------------------------------
        BYTE   W24
        BYTE           N48     Fn4   v116   gtp2
        BYTE   W48
        BYTE                   Ds4   v112
        BYTE   W24
// 051   ----------------------------------------
        BYTE   W24
        BYTE           N24     Dn4
        BYTE   W24
        BYTE                   Gn3   v113   gtp2
        BYTE   W24
        BYTE           N36     Cn4   v114   gtp2
        BYTE   W24
// 052   ----------------------------------------
        BYTE   W12
        BYTE           N14     As3   v115
        BYTE   W12
        BYTE           N48     Ds3   v116   gtp2
        BYTE   W48
        BYTE           N24     Fn3   v115   gtp2
        BYTE   W24
// 053   ----------------------------------------
        BYTE                   Gn3   v116
        BYTE   W24
        BYTE           N48     Fn3   v117   gtp2
        BYTE   W48
        BYTE           N24     Gn3   v116   gtp2
        BYTE   W24
// 054   ----------------------------------------
        BYTE                   Gs3   v115
        BYTE   W24
        BYTE           TIE     Gn3   v116
        BYTE   W72
// 055   ----------------------------------------
        BYTE   W96
// 056   ----------------------------------------
        BYTE   W24
        BYTE           EOT
        BYTE   W72
// 057   ----------------------------------------
        BYTE   W96
// 058   ----------------------------------------
        BYTE   W18
        BYTE   GoTo
         POIN2  HeavyArmorCorps4_1_LOOP
        BYTE   W30
        BYTE   FINE

//****************** Track 2 (Midi-Chn.2) ******************//

HeavyArmorCorps4_2:
        BYTE   KEYSH   HeavyArmorCorps4_key+0
// 000   ----------------------------------------
        BYTE           VOICE   109
        BYTE           VOL     18
        BYTE           PAN     c_v+26
        BYTE   W96
// 001   ----------------------------------------
        BYTE   W96
// 002   ----------------------------------------
        BYTE   W18
HeavyArmorCorps4_2_LOOP:
        BYTE   W78
// 003   ----------------------------------------
        BYTE   W96
// 004   ----------------------------------------
        BYTE   W96
// 005   ----------------------------------------
        BYTE   W96
// 006   ----------------------------------------
        BYTE   W96
// 007   ----------------------------------------
        BYTE   W96
// 008   ----------------------------------------
        BYTE   W96
// 009   ----------------------------------------
        BYTE   W96
// 010   ----------------------------------------
        BYTE   W96
// 011   ----------------------------------------
        BYTE   W72
        BYTE           N48     Gn2   v104   gtp2
        BYTE   W24
// 012   ----------------------------------------
        BYTE   W24
        BYTE           TIE     Fn2   v106
        BYTE           N48     Cn3   v106   gtp2
        BYTE   W48
        BYTE           TIE     As2   v104
        BYTE   W24
// 013   ----------------------------------------
        BYTE   W72
        BYTE           N48     Cn3   v105   gtp2
        BYTE   W02
        BYTE           EOT     As2
        BYTE   W22
// 014   ----------------------------------------
        BYTE           N24     Gn2   v105   gtp2
        BYTE   W02
        BYTE           EOT     Fn2
        BYTE   W22
        BYTE           TIE     Gs2   v106
        BYTE           N48     Ds3   v106   gtp2
        BYTE   W48
        BYTE           TIE     Cs3   v105
        BYTE   W24
// 015   ----------------------------------------
        BYTE   W72
        BYTE           N48     Gs3   v106   gtp2
        BYTE   W02
        BYTE           EOT     Cs3
        BYTE   W22
// 016   ----------------------------------------
        BYTE   W24
        BYTE           TIE     Gn2   v105
        BYTE           TIE     Gn3
        BYTE   W02
        BYTE           EOT     Gs2
        BYTE   W68
        BYTE   W02
// 017   ----------------------------------------
HeavyArmorCorps4_2_17:
        BYTE   W72
        BYTE           N48     Fn2   v104   gtp2
        BYTE                   Fn3
        BYTE   W02
        BYTE           EOT     Gn2
        BYTE                   Gn3
        BYTE   W22
        BYTE   PEND
// 018   ----------------------------------------
HeavyArmorCorps4_2_18:
        BYTE   W24
        BYTE           TIE     Ds2   v103
        BYTE           TIE     Ds3
        BYTE   W72
        BYTE   PEND
// 019   ----------------------------------------
HeavyArmorCorps4_2_19:
        BYTE   W24
        BYTE           N48     Dn2   v102   gtp2
        BYTE                   Dn3
        BYTE   W02
        BYTE           EOT     Ds2
        BYTE                   Ds3
        BYTE   W44
        BYTE   W02
        BYTE           N48     Cn2   v101
        BYTE           N48     Cn3   v101   gtp2
        BYTE   W24
        BYTE   PEND
// 020   ----------------------------------------
HeavyArmorCorps4_2_20:
        BYTE   W24
        BYTE           TIE     Gn2   v104
        BYTE           TIE     Gn3
        BYTE   W72
        BYTE   PEND
// 021   ----------------------------------------
HeavyArmorCorps4_2_21:
        BYTE   W72
        BYTE           N24     Fn2   v103   gtp2
        BYTE                   Fn3
        BYTE   W02
        BYTE           EOT     Gn2
        BYTE                   Gn3
        BYTE   W22
        BYTE   PEND
// 022   ----------------------------------------
        BYTE           N24     Gn2   v104   gtp2
        BYTE                   Gn3
        BYTE   W24
        BYTE           TIE     Gs2   v105
        BYTE           TIE     Gs3
        BYTE   W72
// 023   ----------------------------------------
        BYTE   W24
        BYTE                   Fn2
        BYTE           TIE     Fn3
        BYTE   W02
        BYTE           EOT     Gs2
        BYTE                   Gs3
        BYTE   W68
        BYTE   W02
// 024   ----------------------------------------
        BYTE   W24
        BYTE           TIE     Gn2
        BYTE           TIE     Gn3
        BYTE   W02
        BYTE           EOT     Fn2
        BYTE                   Fn3
        BYTE   W68
        BYTE   W02
// 025   ----------------------------------------
        BYTE   PATT
         POIN2  HeavyArmorCorps4_2_17
// 026   ----------------------------------------
        BYTE   PATT
         POIN2  HeavyArmorCorps4_2_18
// 027   ----------------------------------------
        BYTE   PATT
         POIN2  HeavyArmorCorps4_2_19
// 028   ----------------------------------------
        BYTE   PATT
         POIN2  HeavyArmorCorps4_2_20
// 029   ----------------------------------------
        BYTE   PATT
         POIN2  HeavyArmorCorps4_2_21
// 030   ----------------------------------------
        BYTE           N24     Gn2   v104   gtp2
        BYTE                   Gn3
        BYTE   W24
        BYTE           N48     Gs2   v105   gtp2
        BYTE                   Gs3
        BYTE   W48
        BYTE           N36     Cs2   v104   gtp2
        BYTE                   Cs3
        BYTE   W24
// 031   ----------------------------------------
        BYTE   W12
        BYTE           N14     Ds2   v105
        BYTE           N14     Ds3
        BYTE   W12
        BYTE           N24     Fn2   v105   gtp2
        BYTE                   Fn3
        BYTE   W24
        BYTE                   Gn2   v106
        BYTE           N24     Gn3   v106   gtp2
        BYTE   W24
        BYTE                   Gs2   v107
        BYTE           N24     Gs3   v107   gtp2
        BYTE   W24
// 032   ----------------------------------------
        BYTE                   As2   v109
        BYTE           N24     As3   v109   gtp2
        BYTE   W24
        BYTE           TIE     Gn2   v107
        BYTE           TIE     Gn3
        BYTE   W72
// 033   ----------------------------------------
        BYTE   W96
// 034   ----------------------------------------
        BYTE   W96
// 035   ----------------------------------------
        BYTE   W96
// 036   ----------------------------------------
HeavyArmorCorps4_2_36:
        BYTE   W24
        BYTE           TIE     Gs2   v108
        BYTE           TIE     Cn3
        BYTE   W02
        BYTE           EOT     Gn2
        BYTE                   Gn3
        BYTE   W68
        BYTE   W02
        BYTE   PEND
// 037   ----------------------------------------
HeavyArmorCorps4_2_37:
        BYTE   W24
        BYTE           TIE     Fn3   v109
        BYTE   W02
        BYTE           EOT     Cn3
        BYTE   W68
        BYTE   W02
        BYTE   PEND
// 038   ----------------------------------------
        BYTE   W24
        BYTE           TIE     Gn2   v107
        BYTE           TIE     As2
        BYTE   W02
        BYTE           EOT     Gs2
        BYTE                   Fn3
        BYTE   W68
        BYTE   W02
// 039   ----------------------------------------
        BYTE   W96
// 040   ----------------------------------------
        BYTE   W24
        BYTE                   Gn2
        BYTE                   As2
        BYTE           TIE     Gn2
        BYTE           TIE     Gn3
        BYTE   W72
// 041   ----------------------------------------
        BYTE   W96
// 042   ----------------------------------------
        BYTE   W96
// 043   ----------------------------------------
        BYTE   W96
// 044   ----------------------------------------
        BYTE   PATT
         POIN2  HeavyArmorCorps4_2_36
// 045   ----------------------------------------
        BYTE   PATT
         POIN2  HeavyArmorCorps4_2_37
// 046   ----------------------------------------
        BYTE   W24
        BYTE           TIE     Gn2   v107
        BYTE           N96     As2
        BYTE   W02
        BYTE           EOT     Gs2
        BYTE                   Fn3
        BYTE   W68
        BYTE   W02
// 047   ----------------------------------------
        BYTE   W96
// 048   ----------------------------------------
        BYTE   W24
        BYTE                   Gn2
        BYTE           N96     Gs2
        BYTE           N96     Cn3
        BYTE   W72
// 049   ----------------------------------------
        BYTE   W24
        BYTE           TIE     As2
        BYTE           TIE     Dn3
        BYTE   W72
// 050   ----------------------------------------
        BYTE   W72
        BYTE           EOT     As2
        BYTE                   Dn3
        BYTE           N48     Cn3
        BYTE           N48     Ds3
        BYTE   W24
// 051   ----------------------------------------
        BYTE   W24
        BYTE                   Dn3
        BYTE           N48     Fn3
        BYTE   W48
        BYTE                   Ds3
        BYTE           N48     Gn3
        BYTE   W24
// 052   ----------------------------------------
        BYTE   W24
        BYTE           N96     Cn3
        BYTE           TIE     Gs3
        BYTE   W72
// 053   ----------------------------------------
        BYTE   W24
        BYTE           N96     Cs3
        BYTE   W72
// 054   ----------------------------------------
        BYTE   W24
        BYTE           EOT     Gs3
        BYTE           N96     Dn3
        BYTE           N48     Gn3
        BYTE   W48
        BYTE           N96     Cn4
        BYTE   W24
// 055   ----------------------------------------
        BYTE   W24
        BYTE                   Fn3
        BYTE   W48
        BYTE           N48     Bn3
        BYTE   W24
// 056   ----------------------------------------
        BYTE   W96
// 057   ----------------------------------------
        BYTE   W96
// 058   ----------------------------------------
        BYTE   W18
        BYTE   GoTo
         POIN2  HeavyArmorCorps4_2_LOOP
        BYTE   W30
        BYTE   FINE

//****************** Track 3 (Midi-Chn.4) ******************//

HeavyArmorCorps4_3:
        BYTE   KEYSH   HeavyArmorCorps4_key+0
// 000   ----------------------------------------
        BYTE           VOICE   105
        BYTE   W01
        BYTE           VOL     27
        BYTE           PAN     c_v-31
        BYTE   W92
        BYTE   W03
// 001   ----------------------------------------
        BYTE   W96
// 002   ----------------------------------------
        BYTE   W18
HeavyArmorCorps4_3_LOOP:
        BYTE   W06
        BYTE           N03     Ds2   v115
        BYTE   W06
        BYTE                   Ds2   v110
        BYTE   W06
        BYTE                   Ds2   v113
        BYTE   W24
        BYTE                   Ds2   v110
        BYTE   W06
        BYTE                   Ds2   v112
        BYTE   W06
        BYTE                   Ds2   v113
        BYTE   W24
// 003   ----------------------------------------
HeavyArmorCorps4_3_3:
        BYTE           N03     Ds2   v110
        BYTE   W06
        BYTE                   Ds2   v112
        BYTE   W06
        BYTE                   Ds2   v113
        BYTE   W06
        BYTE                   Ds2   v114
        BYTE   W06
        BYTE                   Ds2   v115
        BYTE   W06
        BYTE                   Ds2   v110
        BYTE   W06
        BYTE                   Ds2   v113
        BYTE   W24
        BYTE                   Ds2   v110
        BYTE   W06
        BYTE                   Ds2   v112
        BYTE   W06
        BYTE                   Ds2   v113
        BYTE   W24
        BYTE   PEND
// 004   ----------------------------------------
        BYTE                   Ds2   v110
        BYTE   W06
        BYTE                   Ds2   v112
        BYTE   W06
        BYTE                   Ds2   v113
        BYTE   W06
        BYTE                   Ds2   v114
        BYTE   W06
        BYTE                   Cs2   v115
        BYTE           N03     Fn2
        BYTE   W06
        BYTE                   Cs2   v110
        BYTE           N03     Fn2
        BYTE   W06
        BYTE                   Cs2   v113
        BYTE           N03     Fn2
        BYTE   W24
        BYTE                   Cs2   v110
        BYTE           N03     Fn2
        BYTE   W06
        BYTE                   Cs2   v112
        BYTE           N03     Fn2
        BYTE   W06
        BYTE                   Cs2   v113
        BYTE           N03     Fn2
        BYTE   W24
// 005   ----------------------------------------
        BYTE                   Cs2   v110
        BYTE           N03     Fn2
        BYTE   W06
        BYTE                   Cs2   v112
        BYTE           N03     Fn2
        BYTE   W06
        BYTE                   Cs2   v113
        BYTE           N03     Fn2
        BYTE   W06
        BYTE                   Cs2   v114
        BYTE           N03     Fn2
        BYTE   W06
        BYTE                   Cs2   v115
        BYTE           N03     Fn2
        BYTE   W06
        BYTE                   Cs2   v110
        BYTE           N03     Fn2
        BYTE   W06
        BYTE                   Cs2   v113
        BYTE           N03     Fn2
        BYTE   W24
        BYTE                   Cs2   v110
        BYTE           N03     Fn2
        BYTE   W06
        BYTE                   Cs2   v112
        BYTE           N03     Fn2
        BYTE   W06
        BYTE                   Cs2   v113
        BYTE           N03     Fn2
        BYTE   W24
// 006   ----------------------------------------
        BYTE                   Cs2   v110
        BYTE           N03     Fn2
        BYTE   W06
        BYTE                   Cs2   v112
        BYTE           N03     Fn2
        BYTE   W06
        BYTE                   Cs2   v113
        BYTE           N03     Fn2
        BYTE   W06
        BYTE                   Cs2   v114
        BYTE           N03     Fn2
        BYTE   W06
        BYTE                   Cs2   v115
        BYTE           N03     Gs2
        BYTE   W06
        BYTE                   Cs2   v110
        BYTE           N03     Gs2
        BYTE   W06
        BYTE                   Cs2   v113
        BYTE           N03     Gs2
        BYTE   W24
        BYTE                   Cs2   v110
        BYTE           N03     Gs2
        BYTE   W06
        BYTE                   Cs2   v112
        BYTE           N03     Gs2
        BYTE   W06
        BYTE                   Cs2   v113
        BYTE           N03     Gs2
        BYTE   W24
// 007   ----------------------------------------
        BYTE                   Cs2   v110
        BYTE           N03     Gs2
        BYTE   W06
        BYTE                   Cs2   v112
        BYTE           N03     Gs2
        BYTE   W06
        BYTE                   Cs2   v113
        BYTE           N03     Gs2
        BYTE   W06
        BYTE                   Cs2   v114
        BYTE           N03     Gs2
        BYTE   W06
        BYTE                   Fn2   v115
        BYTE           N03     Cs3
        BYTE   W06
        BYTE                   Fn2   v110
        BYTE           N03     Cs3
        BYTE   W06
        BYTE                   Fn2   v113
        BYTE           N03     Cs3
        BYTE   W24
        BYTE                   Fn2   v110
        BYTE           N03     Cs3
        BYTE   W06
        BYTE                   Fn2   v112
        BYTE           N03     Cs3
        BYTE   W06
        BYTE                   Fn2   v113
        BYTE           N03     Cs3
        BYTE   W24
// 008   ----------------------------------------
        BYTE                   Fn2   v110
        BYTE           N03     Cs3
        BYTE   W06
        BYTE                   Fn2   v112
        BYTE           N03     Cs3
        BYTE   W06
        BYTE                   Fn2   v113
        BYTE           N03     Cs3
        BYTE   W06
        BYTE                   Fn2   v114
        BYTE           N03     Cs3
        BYTE   W78
// 009   ----------------------------------------
        BYTE   W96
// 010   ----------------------------------------
        BYTE   W24
        BYTE                   Ds2   v115
        BYTE   W06
        BYTE                   Ds2   v110
        BYTE   W06
        BYTE                   Ds2   v113
        BYTE   W24
        BYTE                   Ds2   v110
        BYTE   W06
        BYTE                   Ds2   v112
        BYTE   W06
        BYTE                   Ds2   v113
        BYTE   W24
// 011   ----------------------------------------
        BYTE   PATT
         POIN2  HeavyArmorCorps4_3_3
// 012   ----------------------------------------
        BYTE           N03     Ds2   v110
        BYTE   W06
        BYTE                   Ds2   v112
        BYTE   W06
        BYTE                   Ds2   v113
        BYTE   W06
        BYTE                   Ds2   v114
        BYTE   W78
// 013   ----------------------------------------
        BYTE   W96
// 014   ----------------------------------------
        BYTE   W96
// 015   ----------------------------------------
        BYTE   W96
// 016   ----------------------------------------
        BYTE   W96
// 017   ----------------------------------------
        BYTE   W96
// 018   ----------------------------------------
        BYTE   W96
// 019   ----------------------------------------
        BYTE   W96
// 020   ----------------------------------------
        BYTE   W96
// 021   ----------------------------------------
        BYTE   W96
// 022   ----------------------------------------
        BYTE   W96
// 023   ----------------------------------------
        BYTE   W96
// 024   ----------------------------------------
        BYTE   W96
// 025   ----------------------------------------
        BYTE   W96
// 026   ----------------------------------------
        BYTE   W96
// 027   ----------------------------------------
        BYTE   W96
// 028   ----------------------------------------
        BYTE   W96
// 029   ----------------------------------------
        BYTE   W96
// 030   ----------------------------------------
        BYTE   W96
// 031   ----------------------------------------
        BYTE   W96
// 032   ----------------------------------------
        BYTE   W96
// 033   ----------------------------------------
        BYTE   W96
// 034   ----------------------------------------
        BYTE   W96
// 035   ----------------------------------------
        BYTE   W96
// 036   ----------------------------------------
        BYTE   W96
// 037   ----------------------------------------
        BYTE   W96
// 038   ----------------------------------------
        BYTE   W96
// 039   ----------------------------------------
        BYTE   W96
// 040   ----------------------------------------
        BYTE   W96
// 041   ----------------------------------------
        BYTE   W96
// 042   ----------------------------------------
        BYTE   W96
// 043   ----------------------------------------
        BYTE   W96
// 044   ----------------------------------------
        BYTE   W96
// 045   ----------------------------------------
        BYTE   W96
// 046   ----------------------------------------
        BYTE   W96
// 047   ----------------------------------------
        BYTE   W96
// 048   ----------------------------------------
        BYTE   W96
// 049   ----------------------------------------
        BYTE   W96
// 050   ----------------------------------------
        BYTE   W96
// 051   ----------------------------------------
        BYTE   W96
// 052   ----------------------------------------
        BYTE   W96
// 053   ----------------------------------------
        BYTE   W96
// 054   ----------------------------------------
        BYTE   W96
// 055   ----------------------------------------
        BYTE   W96
// 056   ----------------------------------------
        BYTE   W96
// 057   ----------------------------------------
        BYTE   W96
// 058   ----------------------------------------
        BYTE   W18
        BYTE   GoTo
         POIN2  HeavyArmorCorps4_3_LOOP
        BYTE   W30
        BYTE   FINE

//****************** Track 4 (Midi-Chn.5) ******************//

HeavyArmorCorps4_4:
        BYTE   KEYSH   HeavyArmorCorps4_key+0
// 000   ----------------------------------------
        BYTE           VOICE   105
        BYTE   W01
        BYTE           VOL     31
        BYTE           PAN     c_v-25
        BYTE   W23
        BYTE           N03     Cn2   v115
        BYTE   W06
        BYTE                   Cn2   v110
        BYTE   W06
        BYTE                   Cn2   v113
        BYTE   W24
        BYTE                   Cn2   v110
        BYTE   W06
        BYTE                   Cn2   v112
        BYTE   W06
        BYTE                   Cn2   v113
        BYTE   W24
// 001   ----------------------------------------
HeavyArmorCorps4_4_1:
        BYTE           N03     Cn2   v110
        BYTE   W06
        BYTE                   Cn2   v112
        BYTE   W06
        BYTE                   Cn2   v113
        BYTE   W06
        BYTE                   Cn2   v114
        BYTE   W06
        BYTE                   Cn2   v115
        BYTE   W06
        BYTE                   Cn2   v110
        BYTE   W06
        BYTE                   Cn2   v113
        BYTE   W24
        BYTE                   Cn2   v110
        BYTE   W06
        BYTE                   Cn2   v112
        BYTE   W06
        BYTE                   Cn2   v113
        BYTE   W24
        BYTE   PEND
// 002   ----------------------------------------
        BYTE                   Cn2   v110
        BYTE   W06
        BYTE                   Cn2   v112
        BYTE   W06
        BYTE                   Cn2   v113
        BYTE   W06
HeavyArmorCorps4_4_LOOP:
        BYTE           N03     Cn2   v114
        BYTE   W06
        BYTE                   Cn2   v115
        BYTE   W06
        BYTE                   Cn2   v110
        BYTE   W06
        BYTE                   Cn2   v113
        BYTE   W24
        BYTE                   Cn2   v110
        BYTE   W06
        BYTE                   Cn2   v112
        BYTE   W06
        BYTE                   Cn2   v113
        BYTE   W24
// 003   ----------------------------------------
        BYTE   PATT
         POIN2  HeavyArmorCorps4_4_1
// 004   ----------------------------------------
        BYTE   PATT
         POIN2  HeavyArmorCorps4_4_1
// 005   ----------------------------------------
        BYTE   PATT
         POIN2  HeavyArmorCorps4_4_1
// 006   ----------------------------------------
        BYTE           N03     Cn2   v110
        BYTE   W06
        BYTE                   Cn2   v112
        BYTE   W06
        BYTE                   Cn2   v113
        BYTE   W06
        BYTE                   Cn2   v114
        BYTE   W06
        BYTE                   Cn2   v115
        BYTE           N03     Fn2
        BYTE   W06
        BYTE                   Cn2   v110
        BYTE           N03     Fn2
        BYTE   W06
        BYTE                   Cn2   v113
        BYTE           N03     Fn2
        BYTE   W24
        BYTE                   Cn2   v110
        BYTE           N03     Fn2
        BYTE   W06
        BYTE                   Cn2   v112
        BYTE           N03     Fn2
        BYTE   W06
        BYTE                   Cn2   v113
        BYTE           N03     Fn2
        BYTE   W24
// 007   ----------------------------------------
        BYTE                   Cn2   v110
        BYTE           N03     Fn2
        BYTE   W06
        BYTE                   Cn2   v112
        BYTE           N03     Fn2
        BYTE   W06
        BYTE                   Cn2   v113
        BYTE           N03     Fn2
        BYTE   W06
        BYTE                   Cn2   v114
        BYTE           N03     Fn2
        BYTE   W06
        BYTE                   Cs2   v115
        BYTE           N03     Gs2
        BYTE   W06
        BYTE                   Cs2   v110
        BYTE           N03     Gs2
        BYTE   W06
        BYTE                   Cs2   v113
        BYTE           N03     Gs2
        BYTE   W24
        BYTE                   Cs2   v110
        BYTE           N03     Gs2
        BYTE   W06
        BYTE                   Cs2   v112
        BYTE           N03     Gs2
        BYTE   W06
        BYTE                   Cs2   v113
        BYTE           N03     Gs2
        BYTE   W24
// 008   ----------------------------------------
        BYTE                   Cs2   v110
        BYTE           N03     Gs2
        BYTE   W06
        BYTE                   Cs2   v112
        BYTE           N03     Gs2
        BYTE   W06
        BYTE                   Cs2   v113
        BYTE           N03     Gs2
        BYTE   W06
        BYTE                   Cs2   v114
        BYTE           N03     Gs2
        BYTE   W06
        BYTE                   Cn2   v115
        BYTE   W06
        BYTE                   Cn2   v110
        BYTE   W06
        BYTE                   Cn2   v113
        BYTE   W24
        BYTE                   Cn2   v110
        BYTE   W06
        BYTE                   Cn2   v112
        BYTE   W06
        BYTE                   Cn2   v113
        BYTE   W24
// 009   ----------------------------------------
        BYTE   PATT
         POIN2  HeavyArmorCorps4_4_1
// 010   ----------------------------------------
        BYTE   PATT
         POIN2  HeavyArmorCorps4_4_1
// 011   ----------------------------------------
        BYTE   PATT
         POIN2  HeavyArmorCorps4_4_1
// 012   ----------------------------------------
HeavyArmorCorps4_4_12:
        BYTE           N03     Cn2   v110
        BYTE   W06
        BYTE                   Cn2   v112
        BYTE   W06
        BYTE                   Cn2   v113
        BYTE   W06
        BYTE                   Cn2   v114
        BYTE   W06
        BYTE                   Cs2   v115
        BYTE   W06
        BYTE                   Cs2   v110
        BYTE   W06
        BYTE                   Cs2   v113
        BYTE   W24
        BYTE                   Cs2   v110
        BYTE   W06
        BYTE                   Cs2   v112
        BYTE   W06
        BYTE                   Cs2   v113
        BYTE   W24
        BYTE   PEND
// 013   ----------------------------------------
HeavyArmorCorps4_4_13:
        BYTE           N03     Cs2   v110
        BYTE   W06
        BYTE                   Cs2   v112
        BYTE   W06
        BYTE                   Cs2   v113
        BYTE   W06
        BYTE                   Cs2   v114
        BYTE   W06
        BYTE                   Cn2   v115
        BYTE   W06
        BYTE                   Cn2   v110
        BYTE   W06
        BYTE                   Cn2   v113
        BYTE   W24
        BYTE                   Cn2   v110
        BYTE   W06
        BYTE                   Cn2   v112
        BYTE   W06
        BYTE                   Cn2   v113
        BYTE   W24
        BYTE   PEND
// 014   ----------------------------------------
        BYTE   PATT
         POIN2  HeavyArmorCorps4_4_12
// 015   ----------------------------------------
HeavyArmorCorps4_4_15:
        BYTE           N03     Cs2   v110
        BYTE   W06
        BYTE                   Cs2   v112
        BYTE   W06
        BYTE                   Cs2   v113
        BYTE   W06
        BYTE                   Cs2   v114
        BYTE   W06
        BYTE                   Cs2   v115
        BYTE   W06
        BYTE                   Cs2   v110
        BYTE   W06
        BYTE                   Cs2   v113
        BYTE   W24
        BYTE                   Cs2   v110
        BYTE   W06
        BYTE                   Cs2   v112
        BYTE   W06
        BYTE                   Cs2   v113
        BYTE   W24
        BYTE   PEND
// 016   ----------------------------------------
        BYTE   PATT
         POIN2  HeavyArmorCorps4_4_13
// 017   ----------------------------------------
        BYTE   PATT
         POIN2  HeavyArmorCorps4_4_1
// 018   ----------------------------------------
        BYTE   PATT
         POIN2  HeavyArmorCorps4_4_1
// 019   ----------------------------------------
        BYTE   PATT
         POIN2  HeavyArmorCorps4_4_1
// 020   ----------------------------------------
        BYTE   PATT
         POIN2  HeavyArmorCorps4_4_12
// 021   ----------------------------------------
        BYTE   PATT
         POIN2  HeavyArmorCorps4_4_15
// 022   ----------------------------------------
        BYTE   PATT
         POIN2  HeavyArmorCorps4_4_15
// 023   ----------------------------------------
        BYTE   PATT
         POIN2  HeavyArmorCorps4_4_15
// 024   ----------------------------------------
        BYTE   PATT
         POIN2  HeavyArmorCorps4_4_13
// 025   ----------------------------------------
        BYTE   PATT
         POIN2  HeavyArmorCorps4_4_1
// 026   ----------------------------------------
        BYTE   PATT
         POIN2  HeavyArmorCorps4_4_1
// 027   ----------------------------------------
        BYTE   PATT
         POIN2  HeavyArmorCorps4_4_1
// 028   ----------------------------------------
        BYTE   PATT
         POIN2  HeavyArmorCorps4_4_12
// 029   ----------------------------------------
        BYTE   PATT
         POIN2  HeavyArmorCorps4_4_15
// 030   ----------------------------------------
        BYTE   PATT
         POIN2  HeavyArmorCorps4_4_15
// 031   ----------------------------------------
        BYTE   PATT
         POIN2  HeavyArmorCorps4_4_15
// 032   ----------------------------------------
        BYTE   PATT
         POIN2  HeavyArmorCorps4_4_13
// 033   ----------------------------------------
        BYTE   PATT
         POIN2  HeavyArmorCorps4_4_1
// 034   ----------------------------------------
        BYTE   PATT
         POIN2  HeavyArmorCorps4_4_1
// 035   ----------------------------------------
HeavyArmorCorps4_4_35:
        BYTE           N03     Cn2   v110
        BYTE   W06
        BYTE                   Cn2   v112
        BYTE   W06
        BYTE                   Cn2   v113
        BYTE   W06
        BYTE                   Cn2   v114
        BYTE   W06
        BYTE                   As1   v115
        BYTE   W06
        BYTE                   As1   v110
        BYTE   W06
        BYTE                   As1   v113
        BYTE   W24
        BYTE                   As1   v110
        BYTE   W06
        BYTE                   As1   v112
        BYTE   W06
        BYTE                   As1   v113
        BYTE   W24
        BYTE   PEND
// 036   ----------------------------------------
HeavyArmorCorps4_4_36:
        BYTE           N03     As1   v110
        BYTE   W06
        BYTE                   As1   v112
        BYTE   W06
        BYTE                   As1   v113
        BYTE   W06
        BYTE                   As1   v114
        BYTE   W06
        BYTE                   Gs1   v115
        BYTE   W06
        BYTE                   Gs1   v110
        BYTE   W06
        BYTE                   Gs1   v113
        BYTE   W24
        BYTE                   Gs1   v110
        BYTE   W06
        BYTE                   Gs1   v112
        BYTE   W06
        BYTE                   Gs1   v113
        BYTE   W24
        BYTE   PEND
// 037   ----------------------------------------
HeavyArmorCorps4_4_37:
        BYTE           N03     Gs1   v110
        BYTE   W06
        BYTE                   Gs1   v112
        BYTE   W06
        BYTE                   Gs1   v113
        BYTE   W06
        BYTE                   Gs1   v114
        BYTE   W06
        BYTE                   Fn1   v115
        BYTE   W06
        BYTE                   Fn1   v110
        BYTE   W06
        BYTE                   Fn1   v113
        BYTE   W24
        BYTE                   Fn1   v110
        BYTE   W06
        BYTE                   Fn1   v112
        BYTE   W06
        BYTE                   Fn1   v113
        BYTE   W24
        BYTE   PEND
// 038   ----------------------------------------
HeavyArmorCorps4_4_38:
        BYTE           N03     Fn1   v110
        BYTE   W06
        BYTE                   Fn1   v112
        BYTE   W06
        BYTE                   Fn1   v113
        BYTE   W06
        BYTE                   Fn1   v114
        BYTE   W06
        BYTE                   Cn2   v115
        BYTE   W06
        BYTE                   Cn2   v110
        BYTE   W06
        BYTE                   Cn2   v113
        BYTE   W24
        BYTE                   Cn2   v110
        BYTE   W06
        BYTE                   Cn2   v112
        BYTE   W06
        BYTE                   Cn2   v113
        BYTE   W24
        BYTE   PEND
// 039   ----------------------------------------
        BYTE                   Cn2   v110
        BYTE   W06
        BYTE                   Cn2   v112
        BYTE   W06
        BYTE                   Cn2   v113
        BYTE   W06
        BYTE                   Cn2   v114
        BYTE   W06
        BYTE                   Gn1   v115
        BYTE   W06
        BYTE                   Gn1   v110
        BYTE   W06
        BYTE                   Gn1   v113
        BYTE   W24
        BYTE                   Gn1   v110
        BYTE   W06
        BYTE                   Gn1   v112
        BYTE   W06
        BYTE                   Gn1   v113
        BYTE   W24
// 040   ----------------------------------------
HeavyArmorCorps4_4_40:
        BYTE           N03     Gn1   v110
        BYTE   W06
        BYTE                   Gn1   v112
        BYTE   W06
        BYTE                   Gn1   v113
        BYTE   W06
        BYTE                   Gn1   v114
        BYTE   W06
        BYTE                   Cn2   v115
        BYTE   W06
        BYTE                   Cn2   v110
        BYTE   W06
        BYTE                   Cn2   v113
        BYTE   W24
        BYTE                   Cn2   v110
        BYTE   W06
        BYTE                   Cn2   v112
        BYTE   W06
        BYTE                   Cn2   v113
        BYTE   W24
        BYTE   PEND
// 041   ----------------------------------------
        BYTE   PATT
         POIN2  HeavyArmorCorps4_4_1
// 042   ----------------------------------------
        BYTE   PATT
         POIN2  HeavyArmorCorps4_4_1
// 043   ----------------------------------------
        BYTE   PATT
         POIN2  HeavyArmorCorps4_4_35
// 044   ----------------------------------------
        BYTE   PATT
         POIN2  HeavyArmorCorps4_4_36
// 045   ----------------------------------------
        BYTE   PATT
         POIN2  HeavyArmorCorps4_4_37
// 046   ----------------------------------------
        BYTE   PATT
         POIN2  HeavyArmorCorps4_4_38
// 047   ----------------------------------------
        BYTE   PATT
         POIN2  HeavyArmorCorps4_4_35
// 048   ----------------------------------------
        BYTE   PATT
         POIN2  HeavyArmorCorps4_4_36
// 049   ----------------------------------------
        BYTE           N03     Gs1   v110
        BYTE   W06
        BYTE                   Gs1   v112
        BYTE   W06
        BYTE                   Gs1   v113
        BYTE   W06
        BYTE                   Gs1   v114
        BYTE   W06
        BYTE                   As1   v115
        BYTE   W06
        BYTE                   As1   v110
        BYTE   W06
        BYTE                   As1   v113
        BYTE   W24
        BYTE                   As1   v110
        BYTE   W06
        BYTE                   As1   v112
        BYTE   W06
        BYTE                   As1   v113
        BYTE   W24
// 050   ----------------------------------------
        BYTE                   As1   v110
        BYTE   W06
        BYTE                   As1   v112
        BYTE   W06
        BYTE                   As1   v113
        BYTE   W06
        BYTE                   As1   v114
        BYTE   W06
        BYTE                   Cn2   v115
        BYTE   W06
        BYTE                   Cn2   v110
        BYTE   W06
        BYTE                   Cn2   v113
        BYTE   W24
        BYTE                   Cn2   v110
        BYTE   W06
        BYTE                   Cn2   v112
        BYTE   W06
        BYTE                   Cn2   v113
        BYTE   W24
// 051   ----------------------------------------
        BYTE                   Cn2   v110
        BYTE   W06
        BYTE                   Cn2   v112
        BYTE   W06
        BYTE                   Cn2   v113
        BYTE   W06
        BYTE                   Cn2   v114
        BYTE   W06
        BYTE                   Ds1   v115
        BYTE   W06
        BYTE                   Ds1   v110
        BYTE   W06
        BYTE                   Ds1   v113
        BYTE   W24
        BYTE                   Ds1   v110
        BYTE   W06
        BYTE                   Ds1   v112
        BYTE   W06
        BYTE                   Ds1   v113
        BYTE   W24
// 052   ----------------------------------------
        BYTE                   Ds1   v110
        BYTE   W06
        BYTE                   Ds1   v112
        BYTE   W06
        BYTE                   Ds1   v113
        BYTE   W06
        BYTE                   Ds1   v114
        BYTE   W06
        BYTE                   Gs1   v115
        BYTE   W06
        BYTE                   Gs1   v110
        BYTE   W06
        BYTE                   Gs1   v113
        BYTE   W24
        BYTE                   Gs1   v110
        BYTE   W06
        BYTE                   Gs1   v112
        BYTE   W06
        BYTE                   Gs1   v113
        BYTE   W24
// 053   ----------------------------------------
        BYTE                   Gs1   v110
        BYTE   W06
        BYTE                   Gs1   v112
        BYTE   W06
        BYTE                   Gs1   v113
        BYTE   W06
        BYTE                   Gs1   v114
        BYTE   W06
        BYTE                   Cs2   v115
        BYTE   W06
        BYTE                   Cs2   v110
        BYTE   W06
        BYTE                   Cs2   v113
        BYTE   W24
        BYTE                   Cs2   v110
        BYTE   W06
        BYTE                   Cs2   v112
        BYTE   W06
        BYTE                   Cs2   v113
        BYTE   W24
// 054   ----------------------------------------
        BYTE                   Cs2   v110
        BYTE   W06
        BYTE                   Cs2   v112
        BYTE   W06
        BYTE                   Cs2   v113
        BYTE   W06
        BYTE                   Cs2   v114
        BYTE   W06
        BYTE                   Dn2   v115
        BYTE   W06
        BYTE                   Dn2   v110
        BYTE   W06
        BYTE                   Dn2   v113
        BYTE   W24
        BYTE                   Dn2   v110
        BYTE   W06
        BYTE                   Dn2   v112
        BYTE   W06
        BYTE                   Dn2   v113
        BYTE   W24
// 055   ----------------------------------------
        BYTE                   Dn2   v110
        BYTE   W06
        BYTE                   Dn2   v112
        BYTE   W06
        BYTE                   Dn2   v113
        BYTE   W06
        BYTE                   Dn2   v114
        BYTE   W06
        BYTE                   Gn1   v115
        BYTE   W06
        BYTE                   Gn1   v110
        BYTE   W06
        BYTE                   Gn1   v113
        BYTE   W24
        BYTE                   Gn1   v110
        BYTE   W06
        BYTE                   Gn1   v112
        BYTE   W06
        BYTE                   Gn1   v113
        BYTE   W24
// 056   ----------------------------------------
        BYTE   PATT
         POIN2  HeavyArmorCorps4_4_40
// 057   ----------------------------------------
        BYTE   PATT
         POIN2  HeavyArmorCorps4_4_1
// 058   ----------------------------------------
        BYTE           N03     Cn2   v110
        BYTE   W06
        BYTE                   Cn2   v112
        BYTE   W06
        BYTE                   Cn2   v113
        BYTE   W06
        BYTE                   Cn2   v114
        BYTE   GoTo
         POIN2  HeavyArmorCorps4_4_LOOP
        BYTE   W30
        BYTE   FINE

//****************** Track 5 (Midi-Chn.6) ******************//

HeavyArmorCorps4_5:
        BYTE   KEYSH   HeavyArmorCorps4_key+0
// 000   ----------------------------------------
        BYTE           VOICE   105
        BYTE   W01
        BYTE           VOL     31
        BYTE   W01
        BYTE           PAN     c_v+56
        BYTE   W22
        BYTE           N06     Cn1   v118
        BYTE   W36
        BYTE                   Cn1   v113
        BYTE   W36
// 001   ----------------------------------------
HeavyArmorCorps4_5_1:
        BYTE           N06     Cn1   v115
        BYTE   W24
        BYTE                   Cn1   v118
        BYTE   W36
        BYTE                   Cn1   v113
        BYTE   W36
        BYTE   PEND
// 002   ----------------------------------------
        BYTE                   Cn1   v115
        BYTE   W18
HeavyArmorCorps4_5_LOOP:
        BYTE   W06
        BYTE           N06     Cn1   v118
        BYTE   W36
        BYTE                   Cn1   v113
        BYTE   W36
// 003   ----------------------------------------
        BYTE   PATT
         POIN2  HeavyArmorCorps4_5_1
// 004   ----------------------------------------
        BYTE   PATT
         POIN2  HeavyArmorCorps4_5_1
// 005   ----------------------------------------
        BYTE   PATT
         POIN2  HeavyArmorCorps4_5_1
// 006   ----------------------------------------
        BYTE   PATT
         POIN2  HeavyArmorCorps4_5_1
// 007   ----------------------------------------
        BYTE   PATT
         POIN2  HeavyArmorCorps4_5_1
// 008   ----------------------------------------
        BYTE   PATT
         POIN2  HeavyArmorCorps4_5_1
// 009   ----------------------------------------
        BYTE   PATT
         POIN2  HeavyArmorCorps4_5_1
// 010   ----------------------------------------
        BYTE   PATT
         POIN2  HeavyArmorCorps4_5_1
// 011   ----------------------------------------
        BYTE   PATT
         POIN2  HeavyArmorCorps4_5_1
// 012   ----------------------------------------
        BYTE   PATT
         POIN2  HeavyArmorCorps4_5_1
// 013   ----------------------------------------
        BYTE   PATT
         POIN2  HeavyArmorCorps4_5_1
// 014   ----------------------------------------
        BYTE   PATT
         POIN2  HeavyArmorCorps4_5_1
// 015   ----------------------------------------
        BYTE   PATT
         POIN2  HeavyArmorCorps4_5_1
// 016   ----------------------------------------
        BYTE   PATT
         POIN2  HeavyArmorCorps4_5_1
// 017   ----------------------------------------
        BYTE   PATT
         POIN2  HeavyArmorCorps4_5_1
// 018   ----------------------------------------
        BYTE   PATT
         POIN2  HeavyArmorCorps4_5_1
// 019   ----------------------------------------
        BYTE   PATT
         POIN2  HeavyArmorCorps4_5_1
// 020   ----------------------------------------
        BYTE   PATT
         POIN2  HeavyArmorCorps4_5_1
// 021   ----------------------------------------
        BYTE   PATT
         POIN2  HeavyArmorCorps4_5_1
// 022   ----------------------------------------
        BYTE   PATT
         POIN2  HeavyArmorCorps4_5_1
// 023   ----------------------------------------
        BYTE   PATT
         POIN2  HeavyArmorCorps4_5_1
// 024   ----------------------------------------
        BYTE   PATT
         POIN2  HeavyArmorCorps4_5_1
// 025   ----------------------------------------
        BYTE   PATT
         POIN2  HeavyArmorCorps4_5_1
// 026   ----------------------------------------
        BYTE   PATT
         POIN2  HeavyArmorCorps4_5_1
// 027   ----------------------------------------
        BYTE   PATT
         POIN2  HeavyArmorCorps4_5_1
// 028   ----------------------------------------
        BYTE   PATT
         POIN2  HeavyArmorCorps4_5_1
// 029   ----------------------------------------
        BYTE   PATT
         POIN2  HeavyArmorCorps4_5_1
// 030   ----------------------------------------
        BYTE   PATT
         POIN2  HeavyArmorCorps4_5_1
// 031   ----------------------------------------
        BYTE   PATT
         POIN2  HeavyArmorCorps4_5_1
// 032   ----------------------------------------
        BYTE   PATT
         POIN2  HeavyArmorCorps4_5_1
// 033   ----------------------------------------
        BYTE   PATT
         POIN2  HeavyArmorCorps4_5_1
// 034   ----------------------------------------
        BYTE   PATT
         POIN2  HeavyArmorCorps4_5_1
// 035   ----------------------------------------
HeavyArmorCorps4_5_35:
        BYTE           N06     Cn1   v115
        BYTE   W24
        BYTE                   As0   v118
        BYTE   W36
        BYTE                   As0   v113
        BYTE   W36
        BYTE   PEND
// 036   ----------------------------------------
HeavyArmorCorps4_5_36:
        BYTE           N06     As0   v115
        BYTE   W24
        BYTE                   Gs0   v118
        BYTE   W36
        BYTE                   Gs0   v113
        BYTE   W36
        BYTE   PEND
// 037   ----------------------------------------
HeavyArmorCorps4_5_37:
        BYTE           N06     Gs0   v115
        BYTE   W24
        BYTE                   Fn0   v118
        BYTE   W36
        BYTE                   Fn0   v113
        BYTE   W36
        BYTE   PEND
// 038   ----------------------------------------
HeavyArmorCorps4_5_38:
        BYTE           N06     Fn0   v115
        BYTE   W24
        BYTE                   Cn1   v118
        BYTE   W36
        BYTE                   Cn1   v113
        BYTE   W36
        BYTE   PEND
// 039   ----------------------------------------
        BYTE                   Cn1   v115
        BYTE   W24
        BYTE                   Gn0   v118
        BYTE   W36
        BYTE                   Gn0   v113
        BYTE   W36
// 040   ----------------------------------------
HeavyArmorCorps4_5_40:
        BYTE           N06     Gn0   v115
        BYTE   W24
        BYTE                   Cn1   v118
        BYTE   W36
        BYTE                   Cn1   v113
        BYTE   W36
        BYTE   PEND
// 041   ----------------------------------------
        BYTE   PATT
         POIN2  HeavyArmorCorps4_5_1
// 042   ----------------------------------------
        BYTE   PATT
         POIN2  HeavyArmorCorps4_5_1
// 043   ----------------------------------------
        BYTE   PATT
         POIN2  HeavyArmorCorps4_5_35
// 044   ----------------------------------------
        BYTE   PATT
         POIN2  HeavyArmorCorps4_5_36
// 045   ----------------------------------------
        BYTE   PATT
         POIN2  HeavyArmorCorps4_5_37
// 046   ----------------------------------------
        BYTE   PATT
         POIN2  HeavyArmorCorps4_5_38
// 047   ----------------------------------------
        BYTE   PATT
         POIN2  HeavyArmorCorps4_5_35
// 048   ----------------------------------------
        BYTE   PATT
         POIN2  HeavyArmorCorps4_5_36
// 049   ----------------------------------------
        BYTE           N06     Gs0   v115
        BYTE   W24
        BYTE                   As0   v118
        BYTE   W36
        BYTE                   As0   v113
        BYTE   W36
// 050   ----------------------------------------
        BYTE                   As0   v115
        BYTE   W24
        BYTE                   Cn1   v118
        BYTE   W36
        BYTE                   Cn1   v113
        BYTE   W36
// 051   ----------------------------------------
        BYTE                   Cn1   v115
        BYTE   W24
        BYTE                   Ds0   v118
        BYTE   W36
        BYTE                   Ds0   v113
        BYTE   W36
// 052   ----------------------------------------
        BYTE                   Ds0   v115
        BYTE   W24
        BYTE                   Gs0   v118
        BYTE   W36
        BYTE                   Gs0   v113
        BYTE   W36
// 053   ----------------------------------------
        BYTE                   Gs0   v115
        BYTE   W24
        BYTE                   Cs1   v118
        BYTE   W36
        BYTE                   Cs1   v113
        BYTE   W36
// 054   ----------------------------------------
        BYTE                   Cs1   v115
        BYTE   W24
        BYTE                   Dn1   v118
        BYTE   W36
        BYTE                   Dn1   v113
        BYTE   W36
// 055   ----------------------------------------
        BYTE                   Dn1   v115
        BYTE   W24
        BYTE                   Gn0   v118
        BYTE   W36
        BYTE                   Gn0   v113
        BYTE   W36
// 056   ----------------------------------------
        BYTE   PATT
         POIN2  HeavyArmorCorps4_5_40
// 057   ----------------------------------------
        BYTE   PATT
         POIN2  HeavyArmorCorps4_5_1
// 058   ----------------------------------------
        BYTE           N06     Cn1   v115
        BYTE   W18
        BYTE   GoTo
         POIN2  HeavyArmorCorps4_5_LOOP
        BYTE   W30
        BYTE   FINE

//****************** Track 6 (Midi-Chn.7) ******************//

HeavyArmorCorps4_6:
        BYTE   KEYSH   HeavyArmorCorps4_key+0
// 000   ----------------------------------------
        BYTE           VOICE   61
        BYTE           PAN     c_v+27
        BYTE   W02
        BYTE           VOL     27
        BYTE   W92
        BYTE   W02
// 001   ----------------------------------------
        BYTE   W96
// 002   ----------------------------------------
        BYTE   W18
HeavyArmorCorps4_6_LOOP:
        BYTE   W78
// 003   ----------------------------------------
        BYTE   W96
// 004   ----------------------------------------
        BYTE   W96
// 005   ----------------------------------------
        BYTE   W96
// 006   ----------------------------------------
        BYTE   W96
// 007   ----------------------------------------
        BYTE   W96
// 008   ----------------------------------------
        BYTE   W96
// 009   ----------------------------------------
        BYTE   W96
// 010   ----------------------------------------
        BYTE   W96
// 011   ----------------------------------------
        BYTE   W96
// 012   ----------------------------------------
        BYTE   W96
// 013   ----------------------------------------
        BYTE   W96
// 014   ----------------------------------------
        BYTE   W96
// 015   ----------------------------------------
        BYTE   W96
// 016   ----------------------------------------
        BYTE   W24
        BYTE           N48     Ds2   v112   gtp2
        BYTE                   Cn3   v114
        BYTE   W48
        BYTE           N24     Dn2   v110   gtp2
        BYTE                   As2
        BYTE   W24
// 017   ----------------------------------------
HeavyArmorCorps4_6_17:
        BYTE           N24     Ds2   v112   gtp2
        BYTE                   Cn3   v114
        BYTE   W24
        BYTE           N48     Fn2   v113   gtp2
        BYTE                   Dn3
        BYTE   W48
        BYTE                   Dn2   v110
        BYTE           N48     As2   v113   gtp2
        BYTE   W24
        BYTE   PEND
// 018   ----------------------------------------
HeavyArmorCorps4_6_18:
        BYTE   W24
        BYTE           N48     Gn2   v115
        BYTE           N48     Ds3   v116   gtp2
        BYTE   W48
        BYTE           N96     Cn2   v112
        BYTE           N96     Gn2   v109
        BYTE   W24
        BYTE   PEND
// 019   ----------------------------------------
HeavyArmorCorps4_6_19:
        BYTE   W72
        BYTE           N48     Gn2   v112   gtp2
        BYTE                   Cn3   v111
        BYTE   W24
        BYTE   PEND
// 020   ----------------------------------------
HeavyArmorCorps4_6_20:
        BYTE   W24
        BYTE           TIE     Gs2   v113
        BYTE           N48     Gn3   v112   gtp2
        BYTE   W48
        BYTE           N24     Fn3   v110   gtp2
        BYTE   W24
        BYTE   PEND
// 021   ----------------------------------------
HeavyArmorCorps4_6_21:
        BYTE           N24     Gn3   v111   gtp2
        BYTE   W24
        BYTE           TIE     Cs3   v115
        BYTE           N48     As3   v117   gtp2
        BYTE   W02
        BYTE           EOT     Gs2
        BYTE   W44
        BYTE   W02
        BYTE           N24     Gs3   v112   gtp2
        BYTE   W24
        BYTE   PEND
// 022   ----------------------------------------
        BYTE                   Gn3   v113
        BYTE   W24
        BYTE           TIE     Gs2   v112
        BYTE           N48     Fn3   v110   gtp2
        BYTE   W02
        BYTE           EOT     Cs3
        BYTE   W44
        BYTE   W02
        BYTE           N48     Ds3   v115
        BYTE   W24
// 023   ----------------------------------------
        BYTE   W24
        BYTE           TIE     Fn2   v112
        BYTE           N96     Cs3   v115
        BYTE   W02
        BYTE           EOT     Gs2
        BYTE   W68
        BYTE   W02
// 024   ----------------------------------------
        BYTE   W24
        BYTE           N48     Ds2   v112   gtp2
        BYTE                   Cn3   v114
        BYTE   W02
        BYTE           EOT     Fn2
        BYTE   W44
        BYTE   W02
        BYTE           N24     Dn2   v110   gtp2
        BYTE                   As2
        BYTE   W24
// 025   ----------------------------------------
        BYTE   PATT
         POIN2  HeavyArmorCorps4_6_17
// 026   ----------------------------------------
        BYTE   PATT
         POIN2  HeavyArmorCorps4_6_18
// 027   ----------------------------------------
        BYTE   PATT
         POIN2  HeavyArmorCorps4_6_19
// 028   ----------------------------------------
        BYTE   PATT
         POIN2  HeavyArmorCorps4_6_20
// 029   ----------------------------------------
        BYTE   PATT
         POIN2  HeavyArmorCorps4_6_21
// 030   ----------------------------------------
        BYTE           N24     Gn3   v113   gtp2
        BYTE   W24
        BYTE           N48     Fn2   v112   gtp2
        BYTE                   Fn3   v110
        BYTE   W02
        BYTE           EOT     Cs3
        BYTE   W44
        BYTE   W02
        BYTE           N48     Gn2   v112   gtp2
        BYTE                   Gn3
        BYTE   W24
// 031   ----------------------------------------
        BYTE   W24
        BYTE           N96     Gs2   v113
        BYTE           N96     Gs3
        BYTE   W72
// 032   ----------------------------------------
        BYTE   W96
// 033   ----------------------------------------
        BYTE   W96
// 034   ----------------------------------------
        BYTE   W96
// 035   ----------------------------------------
        BYTE   W96
// 036   ----------------------------------------
        BYTE   W96
// 037   ----------------------------------------
        BYTE   W96
// 038   ----------------------------------------
        BYTE   W96
// 039   ----------------------------------------
        BYTE   W96
// 040   ----------------------------------------
        BYTE   W96
// 041   ----------------------------------------
        BYTE   W96
// 042   ----------------------------------------
        BYTE   W96
// 043   ----------------------------------------
        BYTE   W96
// 044   ----------------------------------------
        BYTE   W96
// 045   ----------------------------------------
        BYTE   W96
// 046   ----------------------------------------
        BYTE   W96
// 047   ----------------------------------------
        BYTE   W96
// 048   ----------------------------------------
        BYTE           N24     Gn2   v115   gtp2
        BYTE   W24
        BYTE           N48     Cn3   v117   gtp2
        BYTE   W48
        BYTE           N24     As2   v115   gtp2
        BYTE   W24
// 049   ----------------------------------------
        BYTE                   Cn3   v117
        BYTE   W24
        BYTE           N48     Dn3   v118   gtp2
        BYTE   W48
        BYTE                   As2   v115
        BYTE   W24
// 050   ----------------------------------------
        BYTE   W24
        BYTE                   Fn3   v119
        BYTE   W48
        BYTE                   Ds3   v120
        BYTE   W24
// 051   ----------------------------------------
        BYTE   W24
        BYTE           N24     Dn3   v115   gtp2
        BYTE   W24
        BYTE                   Gn2
        BYTE   W24
        BYTE           N36     Cn3   v117   gtp1
        BYTE   W24
// 052   ----------------------------------------
        BYTE   W12
        BYTE           N13     As2   v118
        BYTE   W12
        BYTE           N48     Ds2   v119   gtp1
        BYTE                   Gs2   v120
        BYTE   W48
        BYTE           N24     Fn2   v118   gtp2
        BYTE           N48     As2   v119   gtp1
        BYTE   W24
// 053   ----------------------------------------
        BYTE           N24     Gn2   v119   gtp2
        BYTE   W24
        BYTE           N48     Fn2   v120   gtp2
        BYTE           N48     Cn3   v118   gtp1
        BYTE   W48
        BYTE           N24     Gn2   v119   gtp2
        BYTE           N72     Fn3   v114   gtp1
        BYTE   W24
// 054   ----------------------------------------
        BYTE           N24     Gs2   v118   gtp2
        BYTE   W24
        BYTE           TIE     Gn2   v119
        BYTE   W24
        BYTE           N24     Cn3   v118   gtp1
        BYTE   W24
        BYTE           N36     Gn3   v118   gtp1
        BYTE   W24
// 055   ----------------------------------------
        BYTE   W12
        BYTE           N13     Fn3
        BYTE   W12
        BYTE           N96     Gn3   v120
        BYTE   W72
// 056   ----------------------------------------
        BYTE   W24
        BYTE           EOT     Gn2
        BYTE   W72
// 057   ----------------------------------------
        BYTE   W96
// 058   ----------------------------------------
        BYTE   W18
        BYTE   GoTo
         POIN2  HeavyArmorCorps4_6_LOOP
        BYTE   W30
        BYTE   FINE

//****************** Track 7 (Midi-Chn.8) ******************//

HeavyArmorCorps4_7:
        BYTE   KEYSH   HeavyArmorCorps4_key+0
// 000   ----------------------------------------
        BYTE           VOICE   16
        BYTE   W02
        BYTE           VOL     23
        BYTE           PAN     c_v+11
        BYTE   W92
        BYTE   W02
// 001   ----------------------------------------
        BYTE   W96
// 002   ----------------------------------------
        BYTE   W18
HeavyArmorCorps4_7_LOOP:
        BYTE   W78
// 003   ----------------------------------------
        BYTE   W96
// 004   ----------------------------------------
        BYTE   W96
// 005   ----------------------------------------
        BYTE   W96
// 006   ----------------------------------------
        BYTE   W96
// 007   ----------------------------------------
        BYTE   W96
// 008   ----------------------------------------
        BYTE   W96
// 009   ----------------------------------------
        BYTE   W96
// 010   ----------------------------------------
        BYTE   W96
// 011   ----------------------------------------
        BYTE   W96
// 012   ----------------------------------------
        BYTE   W96
// 013   ----------------------------------------
        BYTE   W96
// 014   ----------------------------------------
        BYTE   W96
// 015   ----------------------------------------
        BYTE   W96
// 016   ----------------------------------------
        BYTE   W96
// 017   ----------------------------------------
        BYTE   W96
// 018   ----------------------------------------
HeavyArmorCorps4_7_18:
        BYTE   W72
        BYTE           N48     Ds4   v112   gtp2
        BYTE                   Gn4   v113
        BYTE   W24
        BYTE   PEND
// 019   ----------------------------------------
HeavyArmorCorps4_7_19:
        BYTE   W24
        BYTE           N48     Dn4   v110   gtp2
        BYTE                   Fn4
        BYTE   W48
        BYTE           N48     Cn4   v108
        BYTE           N48     Ds4   v109
        BYTE   W24
        BYTE   PEND
// 020   ----------------------------------------
        BYTE   W96
// 021   ----------------------------------------
        BYTE   W96
// 022   ----------------------------------------
        BYTE   W72
        BYTE                   Ds4   v113
        BYTE           N48     As4   v113   gtp2
        BYTE   W24
// 023   ----------------------------------------
        BYTE   W24
        BYTE           TIE     Cs4   v110
        BYTE           N48     Gs4   v110   gtp2
        BYTE   W48
        BYTE                   Fn4   v108
        BYTE   W24
// 024   ----------------------------------------
        BYTE   W24
        BYTE           TIE     Gn4
        BYTE   W02
        BYTE           EOT     Cs4
        BYTE   W68
        BYTE   W02
// 025   ----------------------------------------
        BYTE   W48
        BYTE   W02
        BYTE                   Gn4
        BYTE   W44
        BYTE   W02
// 026   ----------------------------------------
        BYTE   PATT
         POIN2  HeavyArmorCorps4_7_18
// 027   ----------------------------------------
        BYTE   PATT
         POIN2  HeavyArmorCorps4_7_19
// 028   ----------------------------------------
        BYTE   W96
// 029   ----------------------------------------
        BYTE   W96
// 030   ----------------------------------------
        BYTE   W72
        BYTE           N96     Fn4   v113
        BYTE           N48     As4   v113   gtp2
        BYTE   W24
// 031   ----------------------------------------
        BYTE   W24
        BYTE                   Gs4   v110
        BYTE   W48
        BYTE                   Cs4
        BYTE           N48     Fn4   v108   gtp2
        BYTE   W24
// 032   ----------------------------------------
HeavyArmorCorps4_7_32:
        BYTE   W24
        BYTE           TIE     Ds4   v112
        BYTE           TIE     Gn4   v113
        BYTE   W72
        BYTE   PEND
// 033   ----------------------------------------
HeavyArmorCorps4_7_33:
        BYTE   W24
        BYTE           TIE     Dn4   v110
        BYTE           TIE     Fn4   v112
        BYTE   W02
        BYTE           EOT     Ds4
        BYTE                   Gn4
        BYTE   W68
        BYTE   W02
        BYTE   PEND
// 034   ----------------------------------------
HeavyArmorCorps4_7_34:
        BYTE   W24
        BYTE           TIE     Cn4   v112
        BYTE           TIE     Ds4   v108
        BYTE   W02
        BYTE           EOT     Dn4
        BYTE                   Fn4
        BYTE   W68
        BYTE   W02
        BYTE   PEND
// 035   ----------------------------------------
HeavyArmorCorps4_7_35:
        BYTE   W24
        BYTE           TIE     As3   v109
        BYTE           TIE     Dn4
        BYTE   W02
        BYTE           EOT     Cn4
        BYTE                   Ds4
        BYTE   W68
        BYTE   W02
        BYTE   PEND
// 036   ----------------------------------------
HeavyArmorCorps4_7_36:
        BYTE   W24
        BYTE           N96     Gs3   v110
        BYTE           N96     Cn4
        BYTE   W02
        BYTE           EOT     As3
        BYTE                   Dn4
        BYTE   W68
        BYTE   W02
        BYTE   PEND
// 037   ----------------------------------------
HeavyArmorCorps4_7_37:
        BYTE   W48
        BYTE           N24     Fn3   v110   gtp2
        BYTE                   Gs3   v108
        BYTE   W24
        BYTE           N36     Gn3   v112   gtp2
        BYTE                   As3   v110
        BYTE   W24
        BYTE   PEND
// 038   ----------------------------------------
HeavyArmorCorps4_7_38:
        BYTE   W12
        BYTE           N14     Gs3   v113
        BYTE           N14     Cn4   v112
        BYTE   W12
        BYTE           N48     As3   v114   gtp2
        BYTE                   Dn4
        BYTE   W48
        BYTE                   Cn4
        BYTE           N48     Ds4   v115   gtp2
        BYTE   W24
        BYTE   PEND
// 039   ----------------------------------------
HeavyArmorCorps4_7_39:
        BYTE   W24
        BYTE           N48     As3   v114
        BYTE           N48     Dn4
        BYTE   W48
        BYTE                   Gn3   v113
        BYTE           N48     As3   v111
        BYTE   W24
        BYTE   PEND
// 040   ----------------------------------------
        BYTE   PATT
         POIN2  HeavyArmorCorps4_7_32
// 041   ----------------------------------------
        BYTE   PATT
         POIN2  HeavyArmorCorps4_7_33
// 042   ----------------------------------------
        BYTE   PATT
         POIN2  HeavyArmorCorps4_7_34
// 043   ----------------------------------------
        BYTE   PATT
         POIN2  HeavyArmorCorps4_7_35
// 044   ----------------------------------------
        BYTE   PATT
         POIN2  HeavyArmorCorps4_7_36
// 045   ----------------------------------------
        BYTE   PATT
         POIN2  HeavyArmorCorps4_7_37
// 046   ----------------------------------------
        BYTE   PATT
         POIN2  HeavyArmorCorps4_7_38
// 047   ----------------------------------------
        BYTE   PATT
         POIN2  HeavyArmorCorps4_7_39
// 048   ----------------------------------------
        BYTE   W96
// 049   ----------------------------------------
        BYTE   W96
// 050   ----------------------------------------
        BYTE   W96
// 051   ----------------------------------------
        BYTE   W96
// 052   ----------------------------------------
        BYTE   W96
// 053   ----------------------------------------
        BYTE   W96
// 054   ----------------------------------------
        BYTE   W96
// 055   ----------------------------------------
        BYTE   W12
        BYTE           N05     Dn4   v107
        BYTE           N05     Dn5
        BYTE   W04
        BYTE                   Ds4   v108
        BYTE           N05     Ds5
        BYTE   W04
        BYTE                   Fn4   v109
        BYTE           N05     Fn5
        BYTE   W04
        BYTE           N36     Gn4   v110   gtp1
        BYTE                   Gn5
        BYTE   W36
        BYTE           N07     Fn4   v109
        BYTE           N07     Fn5
        BYTE   W06
        BYTE                   Ds4   v108
        BYTE           N07     Ds5
        BYTE   W06
        BYTE           N48     Dn4   v107
        BYTE           N48     Dn5
        BYTE   W24
// 056   ----------------------------------------
        BYTE   W96
// 057   ----------------------------------------
        BYTE   W96
// 058   ----------------------------------------
        BYTE   W18
        BYTE   GoTo
         POIN2  HeavyArmorCorps4_7_LOOP
        BYTE   W30
        BYTE   FINE

//***************** Track 8 (Midi-Chn.10) ******************//

HeavyArmorCorps4_8:
        BYTE   KEYSH   HeavyArmorCorps4_key+0
// 000   ----------------------------------------
        BYTE   W03
        BYTE           VOICE   119
        BYTE           VOL     0
        BYTE   W09
        BYTE           N96     Gn2   v071
        BYTE           VOL     5
        BYTE   W01
        BYTE                   7
        BYTE   W01
        BYTE                   9
        BYTE   W01
        BYTE                   11
        BYTE   W01
        BYTE                   12
        BYTE   W01
        BYTE                   13
        BYTE   W01
        BYTE                   15
        BYTE   W01
        BYTE                   16
        BYTE   W01
        BYTE                   21
        BYTE   W01
        BYTE                   22
        BYTE   W01
        BYTE                   24
        BYTE   W01
        BYTE                   28
        BYTE   W02
        BYTE                   27
        BYTE   W02
        BYTE                   26
        BYTE   W01
        BYTE                   25
        BYTE   W02
        BYTE                   24
        BYTE   W01
        BYTE                   23
        BYTE   W02
        BYTE                   22
        BYTE   W01
        BYTE                   21
        BYTE   W01
        BYTE                   20
        BYTE   W01
        BYTE                   19
        BYTE   W05
        BYTE                   18
        BYTE   W04
        BYTE                   17
        BYTE   W05
        BYTE                   16
        BYTE   W04
        BYTE                   15
        BYTE   W03
        BYTE                   14
        BYTE   W05
        BYTE                   13
        BYTE   W05
        BYTE                   12
        BYTE   W06
        BYTE                   11
        BYTE   W06
        BYTE                   10
        BYTE   W03
        BYTE                   9
        BYTE   W09
        BYTE                   8
        BYTE   W03
        BYTE                   7
        BYTE   W02
// 001   ----------------------------------------
        BYTE   W01
        BYTE                   6
        BYTE   W03
        BYTE                   5
        BYTE   W03
        BYTE                   3
        BYTE   W03
        BYTE                   0
        BYTE   W84
        BYTE   W02
// 002   ----------------------------------------
        BYTE   W18
HeavyArmorCorps4_8_LOOP:
        BYTE   W78
// 003   ----------------------------------------
        BYTE   W96
// 004   ----------------------------------------
        BYTE   W96
// 005   ----------------------------------------
HeavyArmorCorps4_8_5:
        BYTE   W24
        BYTE           TIE     Fn2   v115
        BYTE   W10
        BYTE           VOL     2
        BYTE   W05
        BYTE                   3
        BYTE   W05
        BYTE                   4
        BYTE   W06
        BYTE                   5
        BYTE   W05
        BYTE                   6
        BYTE   W16
        BYTE                   7
        BYTE   W10
        BYTE                   8
        BYTE   W10
        BYTE                   9
        BYTE   W05
        BYTE   PEND
// 006   ----------------------------------------
HeavyArmorCorps4_8_6:
        BYTE   W16
        BYTE           VOL     10
        BYTE   W09
        BYTE                   11
        BYTE   W12
        BYTE                   12
        BYTE   W09
        BYTE                   13
        BYTE   W15
        BYTE                   14
        BYTE   W09
        BYTE                   15
        BYTE   W15
        BYTE                   16
        BYTE   W11
        BYTE   PEND
// 007   ----------------------------------------
HeavyArmorCorps4_8_7:
        BYTE   W04
        BYTE           VOL     17
        BYTE   W15
        BYTE                   18
        BYTE   W12
        BYTE                   19
        BYTE   W15
        BYTE                   20
        BYTE   W12
        BYTE                   21
        BYTE   W15
        BYTE                   22
        BYTE   W15
        BYTE                   23
        BYTE   W08
        BYTE   PEND
// 008   ----------------------------------------
HeavyArmorCorps4_8_8:
        BYTE           VOL     24
        BYTE   W06
        BYTE                   25
        BYTE   W05
        BYTE                   26
        BYTE   W06
        BYTE                   27
        BYTE   W06
        BYTE                   28
        BYTE   W01
        BYTE                   27
        BYTE   W02
        BYTE                   26
        BYTE   W02
        BYTE                   25
        BYTE   W01
        BYTE                   24
        BYTE   W01
        BYTE                   23
        BYTE   W02
        BYTE                   22
        BYTE   W01
        BYTE                   21
        BYTE   W01
        BYTE                   20
        BYTE   W04
        BYTE                   19
        BYTE   W03
        BYTE                   18
        BYTE   W03
        BYTE                   17
        BYTE   W03
        BYTE                   16
        BYTE   W03
        BYTE                   15
        BYTE   W02
        BYTE                   14
        BYTE   W06
        BYTE                   13
        BYTE   W06
        BYTE                   12
        BYTE   W03
        BYTE                   11
        BYTE   W03
        BYTE                   10
        BYTE   W03
        BYTE                   9
        BYTE   W03
        BYTE                   8
        BYTE   W09
        BYTE                   7
        BYTE   W09
        BYTE                   6
        BYTE   W02
        BYTE   PEND
// 009   ----------------------------------------
HeavyArmorCorps4_8_9:
        BYTE   W10
        BYTE           VOL     5
        BYTE   W05
        BYTE                   4
        BYTE   W04
        BYTE                   3
        BYTE   W04
        BYTE                   2
        BYTE   W01
        BYTE           EOT     Fn2
        BYTE           VOL     0
        BYTE   W72
        BYTE   PEND
// 010   ----------------------------------------
        BYTE   W96
// 011   ----------------------------------------
        BYTE   W96
// 012   ----------------------------------------
        BYTE   W96
// 013   ----------------------------------------
        BYTE   W96
// 014   ----------------------------------------
        BYTE   W96
// 015   ----------------------------------------
        BYTE   W96
// 016   ----------------------------------------
        BYTE   W96
// 017   ----------------------------------------
        BYTE   W96
// 018   ----------------------------------------
        BYTE   W96
// 019   ----------------------------------------
        BYTE   W96
// 020   ----------------------------------------
        BYTE   W96
// 021   ----------------------------------------
        BYTE   W96
// 022   ----------------------------------------
        BYTE   W96
// 023   ----------------------------------------
        BYTE   W96
// 024   ----------------------------------------
        BYTE   W96
// 025   ----------------------------------------
        BYTE   W96
// 026   ----------------------------------------
        BYTE   W96
// 027   ----------------------------------------
        BYTE   W96
// 028   ----------------------------------------
        BYTE   W96
// 029   ----------------------------------------
        BYTE   PATT
         POIN2  HeavyArmorCorps4_8_5
// 030   ----------------------------------------
        BYTE   PATT
         POIN2  HeavyArmorCorps4_8_6
// 031   ----------------------------------------
        BYTE   PATT
         POIN2  HeavyArmorCorps4_8_7
// 032   ----------------------------------------
        BYTE   PATT
         POIN2  HeavyArmorCorps4_8_8
// 033   ----------------------------------------
        BYTE   PATT
         POIN2  HeavyArmorCorps4_8_9
// 034   ----------------------------------------
        BYTE   W96
// 035   ----------------------------------------
        BYTE   W96
// 036   ----------------------------------------
        BYTE   W96
// 037   ----------------------------------------
        BYTE   W96
// 038   ----------------------------------------
        BYTE   W96
// 039   ----------------------------------------
        BYTE   W96
// 040   ----------------------------------------
        BYTE   W96
// 041   ----------------------------------------
        BYTE   W96
// 042   ----------------------------------------
        BYTE   W96
// 043   ----------------------------------------
        BYTE   W96
// 044   ----------------------------------------
        BYTE   W96
// 045   ----------------------------------------
        BYTE   W96
// 046   ----------------------------------------
        BYTE   W96
// 047   ----------------------------------------
        BYTE   W96
// 048   ----------------------------------------
        BYTE   W96
// 049   ----------------------------------------
        BYTE   W96
// 050   ----------------------------------------
        BYTE   W96
// 051   ----------------------------------------
        BYTE   W96
// 052   ----------------------------------------
        BYTE   W96
// 053   ----------------------------------------
        BYTE   PATT
         POIN2  HeavyArmorCorps4_8_5
// 054   ----------------------------------------
        BYTE   PATT
         POIN2  HeavyArmorCorps4_8_6
// 055   ----------------------------------------
        BYTE   PATT
         POIN2  HeavyArmorCorps4_8_7
// 056   ----------------------------------------
        BYTE   PATT
         POIN2  HeavyArmorCorps4_8_8
// 057   ----------------------------------------
        BYTE   PATT
         POIN2  HeavyArmorCorps4_8_9
// 058   ----------------------------------------
        BYTE   W18
        BYTE   GoTo
         POIN2  HeavyArmorCorps4_8_LOOP
        BYTE   W30
        BYTE   FINE

//***************** Track 9 (Midi-Chn.11) ******************//

HeavyArmorCorps4_9:
        BYTE   KEYSH   HeavyArmorCorps4_key+0
// 000   ----------------------------------------
        BYTE           VOICE   34
        BYTE           VOL     28
        BYTE   W03
        BYTE                   25
        BYTE   W21
        BYTE           N07     Cn2   v118
        BYTE   W36
        BYTE                   Cn2   v113
        BYTE   W36
// 001   ----------------------------------------
HeavyArmorCorps4_9_1:
        BYTE           N07     Cn2   v115
        BYTE   W24
        BYTE                   Cn2   v118
        BYTE   W36
        BYTE                   Cn2   v113
        BYTE   W36
        BYTE   PEND
// 002   ----------------------------------------
        BYTE                   Cn2   v115
        BYTE   W18
HeavyArmorCorps4_9_LOOP:
        BYTE   W06
        BYTE           N07     Cn2   v118
        BYTE   W36
        BYTE                   Cn2   v113
        BYTE   W36
// 003   ----------------------------------------
        BYTE   PATT
         POIN2  HeavyArmorCorps4_9_1
// 004   ----------------------------------------
        BYTE   PATT
         POIN2  HeavyArmorCorps4_9_1
// 005   ----------------------------------------
        BYTE   PATT
         POIN2  HeavyArmorCorps4_9_1
// 006   ----------------------------------------
        BYTE   PATT
         POIN2  HeavyArmorCorps4_9_1
// 007   ----------------------------------------
        BYTE   PATT
         POIN2  HeavyArmorCorps4_9_1
// 008   ----------------------------------------
        BYTE   PATT
         POIN2  HeavyArmorCorps4_9_1
// 009   ----------------------------------------
        BYTE   PATT
         POIN2  HeavyArmorCorps4_9_1
// 010   ----------------------------------------
        BYTE   PATT
         POIN2  HeavyArmorCorps4_9_1
// 011   ----------------------------------------
        BYTE   PATT
         POIN2  HeavyArmorCorps4_9_1
// 012   ----------------------------------------
        BYTE   PATT
         POIN2  HeavyArmorCorps4_9_1
// 013   ----------------------------------------
        BYTE   PATT
         POIN2  HeavyArmorCorps4_9_1
// 014   ----------------------------------------
        BYTE   PATT
         POIN2  HeavyArmorCorps4_9_1
// 015   ----------------------------------------
        BYTE   PATT
         POIN2  HeavyArmorCorps4_9_1
// 016   ----------------------------------------
        BYTE   PATT
         POIN2  HeavyArmorCorps4_9_1
// 017   ----------------------------------------
        BYTE   PATT
         POIN2  HeavyArmorCorps4_9_1
// 018   ----------------------------------------
        BYTE   PATT
         POIN2  HeavyArmorCorps4_9_1
// 019   ----------------------------------------
        BYTE   PATT
         POIN2  HeavyArmorCorps4_9_1
// 020   ----------------------------------------
        BYTE   PATT
         POIN2  HeavyArmorCorps4_9_1
// 021   ----------------------------------------
        BYTE   PATT
         POIN2  HeavyArmorCorps4_9_1
// 022   ----------------------------------------
        BYTE   PATT
         POIN2  HeavyArmorCorps4_9_1
// 023   ----------------------------------------
        BYTE   PATT
         POIN2  HeavyArmorCorps4_9_1
// 024   ----------------------------------------
        BYTE   PATT
         POIN2  HeavyArmorCorps4_9_1
// 025   ----------------------------------------
        BYTE   PATT
         POIN2  HeavyArmorCorps4_9_1
// 026   ----------------------------------------
        BYTE   PATT
         POIN2  HeavyArmorCorps4_9_1
// 027   ----------------------------------------
        BYTE   PATT
         POIN2  HeavyArmorCorps4_9_1
// 028   ----------------------------------------
        BYTE   PATT
         POIN2  HeavyArmorCorps4_9_1
// 029   ----------------------------------------
        BYTE   PATT
         POIN2  HeavyArmorCorps4_9_1
// 030   ----------------------------------------
        BYTE   PATT
         POIN2  HeavyArmorCorps4_9_1
// 031   ----------------------------------------
        BYTE   PATT
         POIN2  HeavyArmorCorps4_9_1
// 032   ----------------------------------------
        BYTE           N07     Cn2   v115
        BYTE   W96
// 033   ----------------------------------------
        BYTE   W96
// 034   ----------------------------------------
        BYTE   W96
// 035   ----------------------------------------
        BYTE   W96
// 036   ----------------------------------------
        BYTE   W96
// 037   ----------------------------------------
        BYTE   W96
// 038   ----------------------------------------
        BYTE   W96
// 039   ----------------------------------------
        BYTE   W96
// 040   ----------------------------------------
        BYTE   W96
// 041   ----------------------------------------
        BYTE   W96
// 042   ----------------------------------------
        BYTE   W96
// 043   ----------------------------------------
        BYTE   W96
// 044   ----------------------------------------
        BYTE   W96
// 045   ----------------------------------------
        BYTE   W96
// 046   ----------------------------------------
        BYTE   W96
// 047   ----------------------------------------
        BYTE   W96
// 048   ----------------------------------------
        BYTE   W96
// 049   ----------------------------------------
        BYTE   W96
// 050   ----------------------------------------
        BYTE   W96
// 051   ----------------------------------------
        BYTE   W96
// 052   ----------------------------------------
        BYTE   W96
// 053   ----------------------------------------
        BYTE   W96
// 054   ----------------------------------------
        BYTE   W96
// 055   ----------------------------------------
        BYTE   W96
// 056   ----------------------------------------
        BYTE   W24
        BYTE                   Cn2   v118
        BYTE   W36
        BYTE                   Cn2   v113
        BYTE   W36
// 057   ----------------------------------------
        BYTE   PATT
         POIN2  HeavyArmorCorps4_9_1
// 058   ----------------------------------------
        BYTE           N07     Cn2   v115
        BYTE   W18
        BYTE   GoTo
         POIN2  HeavyArmorCorps4_9_LOOP
        BYTE   W30
        BYTE   FINE

//***************** Track 10 (Midi-Chn.12) *****************//

HeavyArmorCorps4_10:
        BYTE   KEYSH   HeavyArmorCorps4_key+0
// 000   ----------------------------------------
        BYTE           VOICE   127
        BYTE           VOL     39
        BYTE   W02
        BYTE                   34
        BYTE   W22
        BYTE           N96     Cn1   v123
        BYTE           TIE     Fn2
        BYTE   W72
// 001   ----------------------------------------
        BYTE   W96
// 002   ----------------------------------------
        BYTE   W18
HeavyArmorCorps4_10_LOOP:
        BYTE   W06
        BYTE           EOT     Fn2
        BYTE           N96     Cn1   v123
        BYTE   W72
// 003   ----------------------------------------
        BYTE   W96
// 004   ----------------------------------------
HeavyArmorCorps4_10_4:
        BYTE   W24
        BYTE           N96     Cn1   v123
        BYTE   W72
        BYTE   PEND
// 005   ----------------------------------------
        BYTE   W96
// 006   ----------------------------------------
        BYTE   PATT
         POIN2  HeavyArmorCorps4_10_4
// 007   ----------------------------------------
        BYTE   W96
// 008   ----------------------------------------
        BYTE   W24
        BYTE           N96     Cn1   v123
        BYTE           TIE     Cn2   v107
        BYTE           TIE     Fn2   v123
        BYTE   W72
// 009   ----------------------------------------
        BYTE   PATT
         POIN2  HeavyArmorCorps4_10_4
// 010   ----------------------------------------
        BYTE   W24
        BYTE           EOT     Cn2
        BYTE                   Fn2
        BYTE           N96     Cn1   v123
        BYTE           TIE     Cn2   v107
        BYTE   W72
// 011   ----------------------------------------
        BYTE   PATT
         POIN2  HeavyArmorCorps4_10_4
// 012   ----------------------------------------
HeavyArmorCorps4_10_12:
        BYTE   W24
        BYTE           EOT     Cn2
        BYTE           N96     Cn1   v123
        BYTE           TIE     Cn2   v107
        BYTE   W72
        BYTE   PEND
// 013   ----------------------------------------
        BYTE   PATT
         POIN2  HeavyArmorCorps4_10_4
// 014   ----------------------------------------
        BYTE   PATT
         POIN2  HeavyArmorCorps4_10_12
// 015   ----------------------------------------
        BYTE   PATT
         POIN2  HeavyArmorCorps4_10_4
// 016   ----------------------------------------
        BYTE   PATT
         POIN2  HeavyArmorCorps4_10_12
// 017   ----------------------------------------
        BYTE   PATT
         POIN2  HeavyArmorCorps4_10_4
// 018   ----------------------------------------
        BYTE   PATT
         POIN2  HeavyArmorCorps4_10_12
// 019   ----------------------------------------
        BYTE   PATT
         POIN2  HeavyArmorCorps4_10_4
// 020   ----------------------------------------
        BYTE   PATT
         POIN2  HeavyArmorCorps4_10_12
// 021   ----------------------------------------
        BYTE   PATT
         POIN2  HeavyArmorCorps4_10_4
// 022   ----------------------------------------
        BYTE   PATT
         POIN2  HeavyArmorCorps4_10_12
// 023   ----------------------------------------
        BYTE   PATT
         POIN2  HeavyArmorCorps4_10_4
// 024   ----------------------------------------
        BYTE   PATT
         POIN2  HeavyArmorCorps4_10_12
// 025   ----------------------------------------
        BYTE   PATT
         POIN2  HeavyArmorCorps4_10_4
// 026   ----------------------------------------
        BYTE   PATT
         POIN2  HeavyArmorCorps4_10_12
// 027   ----------------------------------------
        BYTE   PATT
         POIN2  HeavyArmorCorps4_10_4
// 028   ----------------------------------------
        BYTE   PATT
         POIN2  HeavyArmorCorps4_10_12
// 029   ----------------------------------------
        BYTE   PATT
         POIN2  HeavyArmorCorps4_10_4
// 030   ----------------------------------------
        BYTE   PATT
         POIN2  HeavyArmorCorps4_10_12
// 031   ----------------------------------------
        BYTE   PATT
         POIN2  HeavyArmorCorps4_10_4
// 032   ----------------------------------------
        BYTE   W12
        BYTE           N12     Ds1   v101
        BYTE   W11
        BYTE           N06     Dn1
        BYTE   W01
        BYTE           EOT     Cn2
        BYTE           N96     Cn1   v123
        BYTE           TIE     Cn2   v107
        BYTE           TIE     Fn2   v123
        BYTE   W05
        BYTE           N06     Cs1   v087
        BYTE   W06
        BYTE                   Dn1   v094
        BYTE   W24
        BYTE   W01
        BYTE           N12     Ds1   v101
        BYTE   W11
        BYTE           N06     Dn1
        BYTE   W24
        BYTE   W01
// 033   ----------------------------------------
HeavyArmorCorps4_10_33:
        BYTE   W06
        BYTE           N06     Ds1   v101
        BYTE   W07
        BYTE           N12     Cs1   v094
        BYTE   W11
        BYTE           N96     Cn1   v123
        BYTE           N06     Dn1   v101
        BYTE   W11
        BYTE                   Ds1   v107
        BYTE   W24
        BYTE                   Dn1   v101
        BYTE   W12
        BYTE                   Dn1
        BYTE   W07
        BYTE                   Dn1
        BYTE   W05
        BYTE                   Cs1   v094
        BYTE   W13
        BYTE   PEND
// 034   ----------------------------------------
HeavyArmorCorps4_10_34:
        BYTE   W11
        BYTE           N12     Ds1   v101
        BYTE   W13
        BYTE           EOT     Cn2
        BYTE                   Fn2
        BYTE           N96     Cn1   v123
        BYTE           TIE     Cn2   v107
        BYTE           N06     Dn1   v101
        BYTE   W06
        BYTE                   Cs1   v094
        BYTE   W05
        BYTE                   Dn1   v107
        BYTE   W23
        BYTE           N12     Ds1   v101
        BYTE   W13
        BYTE           N06     Dn1   v094
        BYTE   W24
        BYTE   W01
        BYTE   PEND
// 035   ----------------------------------------
HeavyArmorCorps4_10_35:
        BYTE   W12
        BYTE           N12     Cs1   v101
        BYTE   W11
        BYTE           N06     Dn1   v107
        BYTE   W01
        BYTE           N96     Cn1   v123
        BYTE   W11
        BYTE           N06     Ds1   v101
        BYTE   W24
        BYTE   W01
        BYTE                   Cs1
        BYTE   W06
        BYTE                   Dn1   v094
        BYTE   W06
        BYTE                   Dn1   v101
        BYTE   W12
        BYTE                   Cs1   v087
        BYTE   W12
        BYTE   PEND
// 036   ----------------------------------------
HeavyArmorCorps4_10_36:
        BYTE           N06     Dn1   v101
        BYTE   W06
        BYTE                   Ds1   v107
        BYTE   W06
        BYTE                   Cs1   v094
        BYTE   W05
        BYTE                   Dn1   v107
        BYTE   W06
        BYTE           N01     Dn1   v101
        BYTE   W01
        BYTE           EOT     Cn2
        BYTE           N96     Cn1   v123
        BYTE           TIE     Cn2   v107
        BYTE   W05
        BYTE           N06     Cs1   v094
        BYTE   W07
        BYTE                   Dn1   v107
        BYTE   W23
        BYTE           N12     Ds1   v101
        BYTE   W13
        BYTE           N06     Dn1   v094
        BYTE   W24
        BYTE   PEND
// 037   ----------------------------------------
HeavyArmorCorps4_10_37:
        BYTE   W05
        BYTE           N06     Ds1   v101
        BYTE   W07
        BYTE           N12     Cs1   v094
        BYTE   W12
        BYTE           N96     Cn1   v123
        BYTE           N06     Dn1   v101
        BYTE   W11
        BYTE                   Ds1   v107
        BYTE   W24
        BYTE   W01
        BYTE                   Dn1   v101
        BYTE   W06
        BYTE                   Cs1   v087
        BYTE   W06
        BYTE                   Dn1   v101
        BYTE   W12
        BYTE                   Cs1   v107
        BYTE   W12
        BYTE   PEND
// 038   ----------------------------------------
HeavyArmorCorps4_10_38:
        BYTE   W13
        BYTE           N12     Ds1   v094
        BYTE   W10
        BYTE           N06     Dn1   v101
        BYTE   W01
        BYTE           EOT     Cn2
        BYTE           N96     Cn1   v123
        BYTE           TIE     Cn2   v107
        BYTE   W05
        BYTE           N06     Cs1   v094
        BYTE   W07
        BYTE                   Dn1   v107
        BYTE   W23
        BYTE           N11     Ds1   v101
        BYTE   W12
        BYTE           N06     Dn1   v094
        BYTE   W24
        BYTE   W01
        BYTE   PEND
// 039   ----------------------------------------
HeavyArmorCorps4_10_39:
        BYTE   W12
        BYTE           N12     Cs1   v101
        BYTE   W12
        BYTE           N96     Cn1   v123
        BYTE           N06     Dn1   v107
        BYTE   W12
        BYTE                   Ds1
        BYTE   W24
        BYTE                   Dn1   v101
        BYTE   W06
        BYTE                   Cs1   v094
        BYTE   W06
        BYTE                   Cs1   v101
        BYTE   W12
        BYTE                   Dn1   v094
        BYTE   W11
        BYTE                   Cs1   v101
        BYTE   W01
        BYTE   PEND
// 040   ----------------------------------------
        BYTE   W05
        BYTE           N01     Cs1   v094
        BYTE   W06
        BYTE           N06     Dn1   v107
        BYTE   W12
        BYTE                   Dn1   v101
        BYTE   W01
        BYTE           EOT     Cn2
        BYTE           N96     Cn1   v123
        BYTE           TIE     Cn2   v107
        BYTE           TIE     Fn2   v123
        BYTE   W05
        BYTE           N06     Cs1   v087
        BYTE   W06
        BYTE                   Dn1   v094
        BYTE   W24
        BYTE   W01
        BYTE           N12     Ds1   v101
        BYTE   W11
        BYTE           N06     Dn1
        BYTE   W24
        BYTE   W01
// 041   ----------------------------------------
        BYTE   PATT
         POIN2  HeavyArmorCorps4_10_33
// 042   ----------------------------------------
        BYTE   PATT
         POIN2  HeavyArmorCorps4_10_34
// 043   ----------------------------------------
        BYTE   PATT
         POIN2  HeavyArmorCorps4_10_35
// 044   ----------------------------------------
        BYTE   PATT
         POIN2  HeavyArmorCorps4_10_36
// 045   ----------------------------------------
        BYTE   PATT
         POIN2  HeavyArmorCorps4_10_37
// 046   ----------------------------------------
        BYTE   PATT
         POIN2  HeavyArmorCorps4_10_38
// 047   ----------------------------------------
        BYTE   PATT
         POIN2  HeavyArmorCorps4_10_39
// 048   ----------------------------------------
        BYTE   W05
        BYTE           N01     Cs1   v094
        BYTE   W06
        BYTE           N06     Dn1   v107
        BYTE   W12
        BYTE                   Dn1   v101
        BYTE   W01
        BYTE           EOT     Cn2
        BYTE           N96     Cn1   v123
        BYTE           TIE     Cn2   v107
        BYTE   W05
        BYTE           N06     Cs1   v087
        BYTE   W06
        BYTE                   Dn1   v094
        BYTE   W24
        BYTE   W01
        BYTE           N12     Ds1   v101
        BYTE   W11
        BYTE           N06     Dn1
        BYTE   W24
        BYTE   W01
// 049   ----------------------------------------
        BYTE   PATT
         POIN2  HeavyArmorCorps4_10_33
// 050   ----------------------------------------
        BYTE   W11
        BYTE           N12     Ds1   v101
        BYTE   W13
        BYTE           EOT     Cn2
        BYTE           N96     Cn1   v123
        BYTE           TIE     Cn2   v107
        BYTE           N06     Dn1   v101
        BYTE   W06
        BYTE                   Cs1   v094
        BYTE   W05
        BYTE                   Dn1   v107
        BYTE   W23
        BYTE           N12     Ds1   v101
        BYTE   W13
        BYTE           N06     Dn1   v094
        BYTE   W24
        BYTE   W01
// 051   ----------------------------------------
        BYTE   PATT
         POIN2  HeavyArmorCorps4_10_35
// 052   ----------------------------------------
        BYTE   PATT
         POIN2  HeavyArmorCorps4_10_36
// 053   ----------------------------------------
        BYTE   PATT
         POIN2  HeavyArmorCorps4_10_37
// 054   ----------------------------------------
        BYTE   PATT
         POIN2  HeavyArmorCorps4_10_38
// 055   ----------------------------------------
        BYTE   PATT
         POIN2  HeavyArmorCorps4_10_39
// 056   ----------------------------------------
        BYTE   W05
        BYTE           N01     Cs1   v094
        BYTE   W06
        BYTE           N06     Dn1   v107
        BYTE   W13
        BYTE           EOT     Cn2
        BYTE           N96     Cn1   v123
        BYTE           TIE     Fn2
        BYTE   W72
// 057   ----------------------------------------
        BYTE   W96
// 058   ----------------------------------------
        BYTE   W18
        BYTE   GoTo
         POIN2  HeavyArmorCorps4_10_LOOP
        BYTE   W05
        BYTE           EOT
        BYTE   W24
        BYTE   W01
        BYTE   FINE


//********************** End of Song ***********************//

        ALIGN 4
HeavyArmorCorps4:
        BYTE   11                      // Num Tracks
        BYTE   0                       // Unknown
        BYTE   HeavyArmorCorps4_pri    // Priority
        BYTE   HeavyArmorCorps4_rev    // Reverb

        POIN2   HeavyArmorCorps4_grp   

        POIN2   HeavyArmorCorps4_0
        POIN2   HeavyArmorCorps4_1
        POIN2   HeavyArmorCorps4_2
        POIN2   HeavyArmorCorps4_3
        POIN2   HeavyArmorCorps4_4
        POIN2   HeavyArmorCorps4_5
        POIN2   HeavyArmorCorps4_6
        POIN2   HeavyArmorCorps4_7
        POIN2   HeavyArmorCorps4_8
        POIN2   HeavyArmorCorps4_9
        POIN2   HeavyArmorCorps4_10

        
