//Event file generated from Sappy .s format.
        #include "MPlayDef.event"

        #define    knightsoath2_grp  voicegroup000
        #define    knightsoath2_pri  0
        #define    knightsoath2_rev  0
        #define    knightsoath2_key  0

        // .rodata
        // knightsoath2
        ALIGN 4

//****************** Track 0 (Midi-Chn.0) ******************//

knightsoath2_0:
        BYTE   KEYSH   knightsoath2_key+0
// 000   ----------------------------------------
        BYTE   TEMPO   118/2
        BYTE           VOICE   97
        BYTE           PAN     c_v+23
        BYTE           VOL     31
        BYTE   W64
        BYTE                   26
        BYTE           N08     Fn2   v091
        BYTE           N08     An2   v097
        BYTE   W08
        BYTE           N07     Fn2   v045
        BYTE           N07     An2
        BYTE   W08
        BYTE           N08     Fn2   v088
        BYTE           N08     An2   v065
        BYTE   W08
        BYTE                   Fn2   v082
        BYTE           N08     An2   v084
        BYTE   W08
// 001   ----------------------------------------
knightsoath2_0_1:
        BYTE           N07     Fn2   v045
        BYTE           N07     An2
        BYTE   W08
        BYTE           N08     Fn2   v086
        BYTE           N08     An2   v084
        BYTE   W03
        BYTE           VOL     27
        BYTE   W05
        BYTE           N08     Fn2   v082
        BYTE           N08     An2   v086
        BYTE   W08
        BYTE           N07     Fn2   v045
        BYTE           N07     An2
        BYTE   W08
        BYTE           N08     Fn2   v094
        BYTE           N08     An2   v082
        BYTE   W08
        BYTE                   Fn2   v084
        BYTE           N08     An2   v086
        BYTE   W06
        BYTE           VOL     28
        BYTE   W02
        BYTE           N07     Fn2   v045
        BYTE           N07     An2
        BYTE   W08
        BYTE           N08     Fn2   v097
        BYTE           N08     An2   v088
        BYTE   W08
        BYTE                   Fn2   v094
        BYTE           N08     An2   v082
        BYTE   W08
        BYTE           N07     Fn2   v045
        BYTE           N07     An2
        BYTE   W08
        BYTE           N08     Fn2   v091
        BYTE           N08     An2   v082
        BYTE   W01
        BYTE           VOL     29
        BYTE   W07
        BYTE           N08     Fn2   v086
        BYTE           N08     An2   v082
        BYTE   W08
        BYTE   PEND
// 002   ----------------------------------------
knightsoath2_0_2:
        BYTE           N07     Fn2   v045
        BYTE           N07     An2
        BYTE   W08
        BYTE           N08     Fn2   v097
        BYTE           N08     An2   v091
        BYTE   W08
        BYTE                   Fn2   v088
        BYTE           N08     An2   v078
        BYTE   W04
        BYTE           VOL     30
        BYTE   W04
        BYTE           N07     Fn2   v045
        BYTE           N07     An2
        BYTE   W08
        BYTE           N08     Fn2   v101
        BYTE           N08     An2   v086
        BYTE   W08
        BYTE                   Fn2   v084
        BYTE           N08     An2   v080
        BYTE   W08
        BYTE           N07     Fn2   v045
        BYTE           N07     An2
        BYTE   W07
        BYTE           VOL     31
        BYTE   W01
        BYTE           N08     Fn2   v097
        BYTE           N08     An2   v086
        BYTE   W08
        BYTE                   En2   v094
        BYTE           N08     An2   v084
        BYTE   W08
        BYTE           N07     En2   v045
        BYTE           N07     An2
        BYTE   W08
        BYTE           N08     En2   v084
        BYTE           N08     An2   v078
        BYTE   W08
        BYTE                   En2
        BYTE           N08     An2   v080
        BYTE   W08
        BYTE   PEND
// 003   ----------------------------------------
knightsoath2_0_3:
        BYTE           N07     En2   v045
        BYTE           N07     An2
        BYTE   W03
        BYTE           VOL     30
        BYTE   W05
        BYTE           N08     En2   v088
        BYTE           N08     An2   v074
        BYTE   W08
        BYTE                   En2   v086
        BYTE           N08     An2
        BYTE   W08
        BYTE           N07     En2   v045
        BYTE           N07     An2
        BYTE   W08
        BYTE           N08     En2   v094
        BYTE           N08     An2   v086
        BYTE   W06
        BYTE           VOL     29
        BYTE   W02
        BYTE           N08     En2   v082
        BYTE           N08     An2
        BYTE   W08
        BYTE           N07     En2   v045
        BYTE           N07     An2
        BYTE   W08
        BYTE           N08     En2   v097
        BYTE           N08     An2   v094
        BYTE   W08
        BYTE                   En2   v080
        BYTE           N08     An2   v086
        BYTE   W08
        BYTE           N07     En2   v045
        BYTE           N07     An2
        BYTE           VOL     28
        BYTE   W08
        BYTE           N08     En2   v094
        BYTE           N08     An2
        BYTE   W08
        BYTE                   En2   v053
        BYTE           N08     An2   v063
        BYTE   W08
        BYTE   PEND
// 004   ----------------------------------------
        BYTE           N07     En2   v045
        BYTE           N07     An2
        BYTE   W08
        BYTE           N08     En2   v097
        BYTE           N08     An2   v091
        BYTE   W03
        BYTE           VOL     27
        BYTE   W05
        BYTE           N08     En2   v097
        BYTE           N08     An2   v088
        BYTE   W08
        BYTE           N07     En2   v045
        BYTE           N07     An2
        BYTE   W08
        BYTE           N08     En2   v097
        BYTE           N08     An2   v063
        BYTE   W08
        BYTE                   En2   v082
        BYTE           N08     An2   v069
        BYTE   W06
        BYTE           VOL     26
        BYTE   W02
        BYTE           N07     En2   v045
        BYTE           N07     An2
        BYTE   W08
        BYTE           N08     En2   v068
        BYTE           N08     An2   v071
        BYTE   W04
knightsoath2_0_LOOP:
        BYTE   W04
        BYTE           N08     Fn2   v101
        BYTE           N08     Gn2   v071
        BYTE   W08
        BYTE           N07     Fn2   v045
        BYTE           N07     Gn2
        BYTE   W08
        BYTE           N08     Fn2   v094
        BYTE           N08     Gn2   v082
        BYTE   W08
        BYTE                   Fn2   v094
        BYTE           N08     Gn2   v084
        BYTE   W08
// 005   ----------------------------------------
knightsoath2_0_5:
        BYTE           N07     Fn2   v045
        BYTE           N07     Gn2
        BYTE   W08
        BYTE           N08     Fn2   v101
        BYTE           N08     Gn2   v097
        BYTE   W03
        BYTE           VOL     27
        BYTE   W05
        BYTE           N08     Fn2   v082
        BYTE           N08     Gn2   v086
        BYTE   W08
        BYTE           N07     Fn2   v045
        BYTE           N07     Gn2
        BYTE   W08
        BYTE           N08     Fn2   v091
        BYTE           N08     Gn2
        BYTE   W08
        BYTE                   Fn2   v086
        BYTE           N08     Gn2   v088
        BYTE   W06
        BYTE           VOL     28
        BYTE   W02
        BYTE           N07     Fn2   v045
        BYTE           N07     Gn2
        BYTE   W08
        BYTE           N08     Fn2   v086
        BYTE           N08     Gn2   v084
        BYTE   W08
        BYTE                   Fn2   v091
        BYTE           N08     An2   v088
        BYTE   W08
        BYTE           N07     Fn2   v045
        BYTE           N07     An2
        BYTE   W08
        BYTE           N08     Fn2   v091
        BYTE           N08     An2   v078
        BYTE   W01
        BYTE           VOL     29
        BYTE   W07
        BYTE           N08     Fn2   v097
        BYTE           N08     An2   v101
        BYTE   W08
        BYTE   PEND
// 006   ----------------------------------------
knightsoath2_0_6:
        BYTE           N07     Fn2   v045
        BYTE           N07     An2
        BYTE   W08
        BYTE           N08     Fn2   v101
        BYTE           N08     An2   v097
        BYTE   W08
        BYTE                   Fn2   v078
        BYTE           N08     An2   v074
        BYTE   W04
        BYTE           VOL     30
        BYTE   W04
        BYTE           N07     Fn2   v045
        BYTE           N07     An2
        BYTE   W08
        BYTE           N08     Fn2   v094
        BYTE           N08     An2   v084
        BYTE   W08
        BYTE                   Fn2   v088
        BYTE           N08     An2   v084
        BYTE   W08
        BYTE           N07     Fn2   v045
        BYTE           N07     An2
        BYTE   W07
        BYTE           VOL     31
        BYTE   W01
        BYTE           N08     Fn2   v088
        BYTE           N08     An2   v086
        BYTE   W08
        BYTE                   Fn2   v094
        BYTE           N08     Gn2   v104
        BYTE   W08
        BYTE           N07     Fn2   v045
        BYTE           N07     Gn2
        BYTE   W08
        BYTE           N08     Fn2   v094
        BYTE           N08     Gn2   v097
        BYTE   W08
        BYTE                   Fn2   v091
        BYTE           N08     Gn2
        BYTE   W08
        BYTE   PEND
// 007   ----------------------------------------
knightsoath2_0_7:
        BYTE           N07     Fn2   v045
        BYTE           N07     Gn2
        BYTE   W02
        BYTE           VOL     30
        BYTE   W06
        BYTE           N08     Fn2   v097
        BYTE           N08     Gn2   v091
        BYTE   W08
        BYTE                   Fn2   v078
        BYTE           N08     Gn2   v097
        BYTE   W08
        BYTE           N07     Fn2   v045
        BYTE           N07     Gn2
        BYTE   W08
        BYTE           N08     Fn2   v104
        BYTE           N08     Gn2   v097
        BYTE   W05
        BYTE           VOL     29
        BYTE   W03
        BYTE           N08     Fn2   v076
        BYTE           N08     Gn2   v086
        BYTE   W08
        BYTE           N07     Fn2   v045
        BYTE           N07     Gn2
        BYTE   W08
        BYTE           N08     Fn2   v101
        BYTE           N08     Gn2   v097
        BYTE   W08
        BYTE                   En2   v091
        BYTE           N08     An2   v086
        BYTE   W08
        BYTE           VOL     28
        BYTE           N07     En2   v045
        BYTE           N07     An2
        BYTE   W08
        BYTE           N08     En2   v101
        BYTE           N08     An2   v097
        BYTE   W08
        BYTE                   En2   v086
        BYTE           N08     An2   v088
        BYTE   W08
        BYTE   PEND
// 008   ----------------------------------------
        BYTE           N07     En2   v045
        BYTE           N07     An2
        BYTE   W08
        BYTE           N08     En2   v101
        BYTE           N08     An2
        BYTE   W02
        BYTE           VOL     27
        BYTE   W06
        BYTE           N08     En2   v084
        BYTE           N08     Gn2   v091
        BYTE   W08
        BYTE           N07     En2   v045
        BYTE           N07     Gn2
        BYTE   W08
        BYTE           N08     En2   v086
        BYTE           N08     Gn2
        BYTE   W08
        BYTE                   En2   v091
        BYTE           N08     Gn2   v097
        BYTE   W05
        BYTE           VOL     26
        BYTE   W03
        BYTE           N07     En2   v045
        BYTE           N07     Gn2
        BYTE   W08
        BYTE           N08     En2   v104
        BYTE           N08     Gn2
        BYTE   W08
        BYTE                   Fn2   v091
        BYTE           N08     An2   v097
        BYTE   W08
        BYTE           N07     Fn2   v045
        BYTE           N07     An2
        BYTE   W08
        BYTE           N08     Fn2   v088
        BYTE           N08     An2   v065
        BYTE   W08
        BYTE                   Fn2   v082
        BYTE           N08     An2   v084
        BYTE   W08
// 009   ----------------------------------------
        BYTE   PATT
         POIN2  knightsoath2_0_1
// 010   ----------------------------------------
        BYTE   PATT
         POIN2  knightsoath2_0_2
// 011   ----------------------------------------
        BYTE   PATT
         POIN2  knightsoath2_0_3
// 012   ----------------------------------------
        BYTE           N07     En2   v045
        BYTE           N07     An2
        BYTE   W08
        BYTE           N08     En2   v097
        BYTE           N08     An2   v091
        BYTE   W03
        BYTE           VOL     27
        BYTE   W05
        BYTE           N08     En2   v097
        BYTE           N08     An2   v088
        BYTE   W08
        BYTE           N07     En2   v045
        BYTE           N07     An2
        BYTE   W08
        BYTE           N08     En2   v097
        BYTE           N08     An2   v063
        BYTE   W08
        BYTE                   En2   v082
        BYTE           N08     An2   v069
        BYTE   W06
        BYTE           VOL     26
        BYTE   W02
        BYTE           N07     En2   v045
        BYTE           N07     An2
        BYTE   W08
        BYTE           N08     En2   v068
        BYTE           N08     An2   v071
        BYTE   W08
        BYTE                   Fn2   v101
        BYTE           N08     Gn2   v071
        BYTE   W08
        BYTE           N07     Fn2   v045
        BYTE           N07     Gn2
        BYTE   W08
        BYTE           N08     Fn2   v094
        BYTE           N08     Gn2   v082
        BYTE   W08
        BYTE                   Fn2   v094
        BYTE           N08     Gn2   v084
        BYTE   W08
// 013   ----------------------------------------
        BYTE   PATT
         POIN2  knightsoath2_0_5
// 014   ----------------------------------------
        BYTE   PATT
         POIN2  knightsoath2_0_6
// 015   ----------------------------------------
        BYTE   PATT
         POIN2  knightsoath2_0_7
// 016   ----------------------------------------
        BYTE           N07     En2   v045
        BYTE           N07     An2
        BYTE   W08
        BYTE           N08     En2   v101
        BYTE           N08     An2
        BYTE   W02
        BYTE           VOL     27
        BYTE   W06
        BYTE           N08     En2   v084
        BYTE           N08     Gn2   v091
        BYTE   W08
        BYTE           N07     En2   v045
        BYTE           N07     Gn2
        BYTE   W08
        BYTE           N08     En2   v086
        BYTE           N08     Gn2
        BYTE   W08
        BYTE                   En2   v091
        BYTE           N08     Gn2   v097
        BYTE   W05
        BYTE           VOL     26
        BYTE   W03
        BYTE           N07     En2   v045
        BYTE           N07     Gn2
        BYTE   W08
        BYTE           N08     En2   v104
        BYTE           N08     Gn2
        BYTE   W08
        BYTE                   Fn2   v091
        BYTE           N08     An2   v097
        BYTE           N08     Dn3   v104
        BYTE   W08
        BYTE           N07     Fn2   v045
        BYTE           N07     An2
        BYTE           N07     Dn3
        BYTE   W08
        BYTE           N08     Fn2   v088
        BYTE           N08     An2   v065
        BYTE           N08     Dn3   v097
        BYTE   W08
        BYTE                   Fn2   v082
        BYTE           N08     An2   v084
        BYTE           N08     Dn3   v097
        BYTE   W08
// 017   ----------------------------------------
        BYTE           N07     Fn2   v045
        BYTE           N07     An2
        BYTE           N07     Dn3
        BYTE   W08
        BYTE           N08     Fn2   v086
        BYTE           N08     An2   v084
        BYTE           N08     Dn3   v104
        BYTE   W03
        BYTE           VOL     27
        BYTE   W05
        BYTE           N08     Fn2   v082
        BYTE           N08     An2   v086
        BYTE           N08     Dn3   v094
        BYTE   W08
        BYTE           N07     Fn2   v045
        BYTE           N07     An2
        BYTE           N07     Dn3
        BYTE   W08
        BYTE           N08     Fn2   v094
        BYTE           N08     An2   v082
        BYTE           N08     Dn3   v101
        BYTE   W08
        BYTE                   Fn2   v084
        BYTE           N08     An2   v086
        BYTE           N08     Dn3   v094
        BYTE   W06
        BYTE           VOL     28
        BYTE   W02
        BYTE           N07     Fn2   v045
        BYTE           N07     An2
        BYTE           N07     Dn3
        BYTE   W08
        BYTE           N08     Fn2   v097
        BYTE           N08     An2   v088
        BYTE           N08     Dn3   v080
        BYTE   W08
        BYTE                   Fn2   v094
        BYTE           N08     An2   v082
        BYTE           N08     Dn3   v101
        BYTE   W08
        BYTE           N07     Fn2   v045
        BYTE           N07     An2
        BYTE           N07     Dn3
        BYTE   W08
        BYTE           N08     Fn2   v091
        BYTE           N08     An2   v082
        BYTE           N08     Dn3   v094
        BYTE   W01
        BYTE           VOL     29
        BYTE   W07
        BYTE           N08     Fn2   v086
        BYTE           N08     An2   v082
        BYTE           N08     Dn3   v094
        BYTE   W08
// 018   ----------------------------------------
        BYTE           N07     Fn2   v045
        BYTE           N07     An2
        BYTE           N07     Dn3
        BYTE   W08
        BYTE           N08     Fn2   v097
        BYTE           N08     An2   v091
        BYTE           N08     Dn3   v108
        BYTE   W08
        BYTE                   Fn2   v088
        BYTE           N08     An2   v078
        BYTE           N08     Dn3   v097
        BYTE   W04
        BYTE           VOL     30
        BYTE   W04
        BYTE           N07     Fn2   v045
        BYTE           N07     An2
        BYTE           N07     Dn3
        BYTE   W08
        BYTE           N08     Fn2   v101
        BYTE           N08     An2   v086
        BYTE           N08     Dn3   v097
        BYTE   W08
        BYTE                   Fn2   v084
        BYTE           N08     An2   v080
        BYTE           N08     Dn3   v094
        BYTE   W08
        BYTE           N07     Fn2   v045
        BYTE           N07     An2
        BYTE           N07     Dn3
        BYTE   W07
        BYTE           VOL     31
        BYTE   W01
        BYTE           N08     Fn2   v097
        BYTE           N08     An2   v086
        BYTE           N08     Dn3   v101
        BYTE   W08
        BYTE                   En2   v094
        BYTE           N08     An2   v084
        BYTE           N08     Cn3   v104
        BYTE   W08
        BYTE           N07     En2   v045
        BYTE           N07     An2
        BYTE           N07     Cn3
        BYTE   W08
        BYTE           N08     En2   v084
        BYTE           N08     An2   v078
        BYTE           N08     Cn3   v091
        BYTE   W08
        BYTE                   En2   v078
        BYTE           N08     An2   v080
        BYTE           N08     Cn3   v097
        BYTE   W08
// 019   ----------------------------------------
        BYTE           N07     En2   v045
        BYTE           N07     An2
        BYTE           N07     Cn3
        BYTE   W03
        BYTE           VOL     30
        BYTE   W05
        BYTE           N08     En2   v088
        BYTE           N08     An2   v074
        BYTE           N08     Cn3   v088
        BYTE   W08
        BYTE                   En2   v086
        BYTE           N08     An2
        BYTE           N08     Cn3   v101
        BYTE   W08
        BYTE           N07     En2   v045
        BYTE           N07     An2
        BYTE           N07     Cn3
        BYTE   W08
        BYTE           N08     En2   v094
        BYTE           N08     An2   v086
        BYTE           N08     Cn3   v097
        BYTE   W06
        BYTE           VOL     29
        BYTE   W02
        BYTE           N08     En2   v082
        BYTE           N08     An2
        BYTE           N08     Cn3   v094
        BYTE   W08
        BYTE           N07     En2   v045
        BYTE           N07     An2
        BYTE           N07     Cn3
        BYTE   W08
        BYTE           N08     En2   v097
        BYTE           N08     An2   v094
        BYTE           N08     Cn3   v104
        BYTE   W08
        BYTE                   En2   v080
        BYTE           N08     An2   v086
        BYTE           N08     Cn3   v101
        BYTE   W08
        BYTE           N07     En2   v045
        BYTE           N07     An2
        BYTE           N07     Cn3
        BYTE           VOL     28
        BYTE   W08
        BYTE           N08     En2   v094
        BYTE           N08     An2
        BYTE           N08     Cn3   v104
        BYTE   W08
        BYTE                   En2   v053
        BYTE           N08     An2   v063
        BYTE           N08     Cn3   v082
        BYTE   W08
// 020   ----------------------------------------
        BYTE           N07     En2   v045
        BYTE           N07     An2
        BYTE           N07     Cn3
        BYTE   W08
        BYTE           N08     En2   v097
        BYTE           N08     An2   v091
        BYTE           N08     Cn3   v108
        BYTE   W03
        BYTE           VOL     27
        BYTE   W05
        BYTE           N08     En2   v097
        BYTE           N08     An2   v088
        BYTE           N08     Cn3   v108
        BYTE   W08
        BYTE           N07     En2   v045
        BYTE           N07     An2
        BYTE           N07     Cn3
        BYTE   W08
        BYTE           N08     En2   v097
        BYTE           N08     An2   v063
        BYTE           N08     Cn3   v080
        BYTE   W08
        BYTE                   En2   v082
        BYTE           N08     An2   v069
        BYTE           N08     Cn3   v088
        BYTE   W06
        BYTE           VOL     26
        BYTE   W02
        BYTE           N07     En2   v045
        BYTE           N07     An2
        BYTE           N07     Cn3
        BYTE   W08
        BYTE           N08     En2   v068
        BYTE           N08     An2   v071
        BYTE           N08     Cn3   v097
        BYTE   W08
        BYTE                   Fn2   v101
        BYTE           N08     Gn2   v071
        BYTE           N08     Bn2   v108
        BYTE   W08
        BYTE           N07     Fn2   v045
        BYTE           N07     Gn2
        BYTE           N07     Bn2
        BYTE   W08
        BYTE           N08     Fn2   v094
        BYTE           N08     Gn2   v082
        BYTE           N08     Bn2   v094
        BYTE   W08
        BYTE                   Fn2
        BYTE           N08     Gn2   v084
        BYTE           N08     Bn2   v067
        BYTE   W08
// 021   ----------------------------------------
        BYTE           N07     Fn2   v045
        BYTE           N07     Gn2
        BYTE           N07     Bn2
        BYTE   W08
        BYTE           N08     Fn2   v101
        BYTE           N08     Gn2   v097
        BYTE           N08     Bn2   v108
        BYTE   W03
        BYTE           VOL     27
        BYTE   W05
        BYTE           N08     Fn2   v082
        BYTE           N08     Gn2   v086
        BYTE           N08     Bn2   v097
        BYTE   W08
        BYTE           N07     Fn2   v045
        BYTE           N07     Gn2
        BYTE           N07     Bn2
        BYTE   W08
        BYTE           N08     Fn2   v091
        BYTE           N08     Gn2
        BYTE           N08     Bn2   v101
        BYTE   W08
        BYTE                   Fn2   v086
        BYTE           N08     Gn2   v088
        BYTE           N08     Bn2   v094
        BYTE   W06
        BYTE           VOL     28
        BYTE   W02
        BYTE           N07     Fn2   v045
        BYTE           N07     Gn2
        BYTE           N07     Bn2
        BYTE   W08
        BYTE           N08     Fn2   v086
        BYTE           N08     Gn2   v084
        BYTE           N08     Bn2   v094
        BYTE   W08
        BYTE                   Fn2   v091
        BYTE           N08     An2   v088
        BYTE           N08     Bn2   v097
        BYTE   W08
        BYTE           N07     Fn2   v045
        BYTE           N07     An2
        BYTE           N07     Bn2
        BYTE   W08
        BYTE           N08     Fn2   v091
        BYTE           N08     An2   v078
        BYTE           N08     Bn2   v097
        BYTE   W01
        BYTE           VOL     29
        BYTE   W07
        BYTE           N08     Fn2
        BYTE           N08     An2   v101
        BYTE           N08     Bn2   v113
        BYTE   W08
// 022   ----------------------------------------
        BYTE           N07     Fn2   v045
        BYTE           N07     An2
        BYTE           N07     Bn2
        BYTE   W08
        BYTE           N08     Fn2   v101
        BYTE           N08     An2   v097
        BYTE           N08     Bn2   v108
        BYTE   W08
        BYTE                   Fn2   v078
        BYTE           N08     An2   v074
        BYTE           N08     Bn2   v091
        BYTE   W04
        BYTE           VOL     30
        BYTE   W04
        BYTE           N07     Fn2   v045
        BYTE           N07     An2
        BYTE           N07     Bn2
        BYTE   W08
        BYTE           N08     Fn2   v094
        BYTE           N08     An2   v084
        BYTE           N08     Bn2   v101
        BYTE   W08
        BYTE                   Fn2   v088
        BYTE           N08     An2   v084
        BYTE           N08     Bn2   v104
        BYTE   W08
        BYTE           N07     Fn2   v045
        BYTE           N07     An2
        BYTE           N07     Bn2
        BYTE   W07
        BYTE           VOL     31
        BYTE   W01
        BYTE           N08     Fn2   v088
        BYTE           N08     An2   v086
        BYTE           N08     Bn2   v097
        BYTE   W08
        BYTE                   Fn2   v094
        BYTE           N08     Gn2   v104
        BYTE           N08     As2   v100
        BYTE   W08
        BYTE           N07     Fn2   v045
        BYTE           N07     Gn2
        BYTE           N07     As2
        BYTE   W08
        BYTE           N08     Fn2   v094
        BYTE           N08     Gn2   v097
        BYTE           N08     As2   v081
        BYTE   W08
        BYTE                   Fn2   v091
        BYTE           N08     Gn2
        BYTE           N08     As2   v081
        BYTE   W08
// 023   ----------------------------------------
        BYTE           N07     Fn2   v045
        BYTE           N07     Gn2
        BYTE           N07     As2
        BYTE   W02
        BYTE           VOL     30
        BYTE   W06
        BYTE           N08     Fn2   v097
        BYTE           N08     Gn2   v091
        BYTE           N08     As2   v087
        BYTE   W08
        BYTE                   Fn2   v078
        BYTE           N08     Gn2   v097
        BYTE           N08     As2   v108
        BYTE   W08
        BYTE           N07     Fn2   v045
        BYTE           N07     Gn2
        BYTE           N07     As2
        BYTE   W08
        BYTE           N08     Fn2   v104
        BYTE           N08     Gn2   v097
        BYTE           N08     As2   v095
        BYTE   W05
        BYTE           VOL     29
        BYTE   W03
        BYTE           N08     Fn2   v076
        BYTE           N08     Gn2   v086
        BYTE           N08     As2   v084
        BYTE   W08
        BYTE           N07     Fn2   v045
        BYTE           N07     Gn2
        BYTE           N07     As2
        BYTE   W08
        BYTE           N08     Fn2   v101
        BYTE           N08     Gn2   v097
        BYTE           N08     As2   v095
        BYTE   W08
        BYTE                   En2   v091
        BYTE           N08     An2   v086
        BYTE           N08     As2   v081
        BYTE   W08
        BYTE           VOL     28
        BYTE           N07     En2   v045
        BYTE           N07     An2
        BYTE           N07     As2
        BYTE   W08
        BYTE           N08     En2   v101
        BYTE           N08     An2   v097
        BYTE           N08     As2   v100
        BYTE   W08
        BYTE                   En2   v086
        BYTE           N08     An2   v088
        BYTE           N08     As2   v084
        BYTE   W08
// 024   ----------------------------------------
        BYTE           N07     En2   v045
        BYTE           N07     An2
        BYTE           N07     As2
        BYTE   W08
        BYTE           N08     En2   v101
        BYTE           N08     An2
        BYTE           N08     As2   v095
        BYTE   W02
        BYTE           VOL     27
        BYTE   W06
        BYTE           N08     En2   v084
        BYTE           N08     Gn2   v091
        BYTE           N08     As2   v081
        BYTE   W08
        BYTE           N07     En2   v045
        BYTE           N07     Gn2
        BYTE           N07     As2
        BYTE   W08
        BYTE           N08     En2   v086
        BYTE           N08     Gn2
        BYTE           N08     As2   v087
        BYTE   W08
        BYTE                   En2   v091
        BYTE           N08     Gn2   v097
        BYTE           N08     As2   v087
        BYTE   W05
        BYTE           VOL     26
        BYTE   W03
        BYTE           N07     En2   v045
        BYTE           N07     Gn2
        BYTE           N07     As2
        BYTE   W08
        BYTE           N08     En2   v104
        BYTE           N08     Gn2
        BYTE           N08     As2
        BYTE   W08
        BYTE                   Fn2   v091
        BYTE           N08     An2   v097
        BYTE   W08
        BYTE           N07     Fn2   v045
        BYTE           N07     An2
        BYTE   W08
        BYTE           N08     Fn2   v088
        BYTE           N08     An2   v065
        BYTE   W08
        BYTE                   Fn2   v082
        BYTE           N08     An2   v084
        BYTE   W08
// 025   ----------------------------------------
        BYTE   PATT
         POIN2  knightsoath2_0_1
// 026   ----------------------------------------
        BYTE   PATT
         POIN2  knightsoath2_0_2
// 027   ----------------------------------------
        BYTE   PATT
         POIN2  knightsoath2_0_3
// 028   ----------------------------------------
        BYTE           N07     En2   v045
        BYTE           N07     An2
        BYTE   W08
        BYTE           N08     En2   v097
        BYTE           N08     An2   v091
        BYTE   W03
        BYTE           VOL     27
        BYTE   W05
        BYTE           N08     En2   v097
        BYTE           N08     An2   v088
        BYTE   W08
        BYTE           N07     En2   v045
        BYTE           N07     An2
        BYTE   W08
        BYTE           N08     En2   v097
        BYTE           N08     An2   v063
        BYTE   W08
        BYTE                   En2   v082
        BYTE           N08     An2   v069
        BYTE   W06
        BYTE           VOL     26
        BYTE   W02
        BYTE           N07     En2   v045
        BYTE           N07     An2
        BYTE   W08
        BYTE           N08     En2   v068
        BYTE           N08     An2   v071
        BYTE   W04
        BYTE   GoTo
         POIN2  knightsoath2_0_LOOP
        BYTE   W04
        BYTE                   Fn2   v101
        BYTE           N08     Gn2   v071
        BYTE   W08
        BYTE           N07     Fn2   v045
        BYTE           N07     Gn2
        BYTE   W08
        BYTE           N08     Fn2   v094
        BYTE           N08     Gn2   v082
        BYTE   W08
        BYTE                   Fn2   v094
        BYTE           N08     Gn2   v084
        BYTE   W08
// 029   ----------------------------------------
        BYTE   PATT
         POIN2  knightsoath2_0_5
// 030   ----------------------------------------
        BYTE           N07     Fn2   v045
        BYTE           N07     An2
        BYTE   W08
        BYTE           N08     Fn2   v101
        BYTE           N08     An2   v097
        BYTE   W08
        BYTE                   Fn2   v078
        BYTE           N08     An2   v074
        BYTE   W04
        BYTE           VOL     30
        BYTE   W04
        BYTE           N07     Fn2   v045
        BYTE           N07     An2
        BYTE   W08
        BYTE           N08     Fn2   v094
        BYTE           N08     An2   v084
        BYTE   W30
        BYTE   W01
        BYTE   FINE

//****************** Track 1 (Midi-Chn.1) ******************//

knightsoath2_1:
        BYTE   KEYSH   knightsoath2_key+0
// 000   ----------------------------------------
        BYTE           VOICE   34
        BYTE           VOL     30
        BYTE   W16
        BYTE           N09     As1   v125
        BYTE   W16
        BYTE           N03     As1   v117
        BYTE   W08
        BYTE           N23     An1   v125
        BYTE   W24
        BYTE           N09     Dn2   v126
        BYTE   W16
        BYTE           N03     Dn2   v118
        BYTE   W08
        BYTE           N09     Dn2   v127
        BYTE   W08
// 001   ----------------------------------------
        BYTE   W08
        BYTE           N03     Dn2   v118
        BYTE   W08
        BYTE           N09     Dn2   v122
        BYTE   W16
        BYTE           N03     Dn2   v121
        BYTE   W08
        BYTE           N09     Dn2   v125
        BYTE   W16
        BYTE           N03     Dn2   v122
        BYTE   W08
        BYTE           N09     Dn2   v127
        BYTE   W16
        BYTE           N03     Dn2   v117
        BYTE   W08
        BYTE           N09     Dn2   v126
        BYTE   W08
// 002   ----------------------------------------
        BYTE   W08
        BYTE           N03     Dn2   v117
        BYTE   W08
        BYTE           N09     Dn2   v126
        BYTE   W16
        BYTE           N03     Dn2   v119
        BYTE   W08
        BYTE           N09     Dn2   v127
        BYTE   W16
        BYTE           N03     Dn2   v125
        BYTE   W08
        BYTE           N09     Cn2   v123
        BYTE   W16
        BYTE           N03     Cn2   v121
        BYTE   W08
        BYTE           N09     Cn2   v124
        BYTE   W08
// 003   ----------------------------------------
        BYTE   W08
        BYTE           N03     Cn2   v122
        BYTE   W08
        BYTE           N09     Cn2   v127
        BYTE   W16
        BYTE           N03     Cn2   v121
        BYTE   W08
        BYTE           N09     Cn2   v127
        BYTE   W16
        BYTE           N03     Cn2   v123
        BYTE   W08
        BYTE           N09     Cn2   v126
        BYTE   W16
        BYTE           N03     Cn2   v122
        BYTE   W08
        BYTE           N09     Cn2   v127
        BYTE   W08
// 004   ----------------------------------------
        BYTE   W08
        BYTE           N03     Cn2   v123
        BYTE   W08
        BYTE           N09     Cn2   v127
        BYTE   W16
        BYTE           N03     Cn2   v120
        BYTE   W08
        BYTE           N09     Cn2   v127
        BYTE   W16
        BYTE           N03     Cn2   v118
        BYTE   W04
knightsoath2_1_LOOP:
        BYTE   W04
        BYTE           N09     Bn1   v127
        BYTE   W16
        BYTE           N03     Bn1   v119
        BYTE   W08
        BYTE           N09     Bn1   v126
        BYTE   W08
// 005   ----------------------------------------
        BYTE   W08
        BYTE           N03     Bn1   v120
        BYTE   W08
        BYTE           N09     Bn1   v123
        BYTE   W16
        BYTE           N03     Bn1   v124
        BYTE   W08
        BYTE           N09     Bn1   v127
        BYTE   W16
        BYTE           N03     Bn1   v117
        BYTE   W08
        BYTE           N09     Bn1   v127
        BYTE   W16
        BYTE           N03     Bn1   v121
        BYTE   W08
        BYTE           N09     Bn1   v127
        BYTE   W08
// 006   ----------------------------------------
        BYTE   W08
        BYTE           N03     Bn1   v121
        BYTE   W08
        BYTE           N09     Bn1   v124
        BYTE   W16
        BYTE           N03     Bn1   v123
        BYTE   W08
        BYTE           N09     Bn1   v127
        BYTE   W16
        BYTE           N03     Bn1   v121
        BYTE   W08
        BYTE           N09     As1   v127
        BYTE   W16
        BYTE           N03     As1   v119
        BYTE   W08
        BYTE           N09     As1   v125
        BYTE   W08
// 007   ----------------------------------------
        BYTE   W08
        BYTE           N03     As1   v120
        BYTE   W08
        BYTE           N09     As1   v125
        BYTE   W16
        BYTE           N03     As1   v120
        BYTE   W08
        BYTE           N09     As1   v127
        BYTE   W16
        BYTE           N03     As1   v121
        BYTE   W08
        BYTE           N09     An1   v127
        BYTE   W16
        BYTE           N03     An1   v121
        BYTE   W08
        BYTE           N09     An1   v127
        BYTE   W08
// 008   ----------------------------------------
        BYTE   W08
        BYTE           N03     An1   v123
        BYTE   W08
        BYTE           N09     An1   v125
        BYTE   W16
        BYTE           N03     An1   v121
        BYTE   W08
        BYTE           N09     An1   v127
        BYTE   W16
        BYTE           N03     An1   v119
        BYTE   W08
        BYTE           N09     Dn2   v127
        BYTE   W16
        BYTE           N03     Dn2   v121
        BYTE   W08
        BYTE           N09     Dn2   v122
        BYTE   W08
// 009   ----------------------------------------
        BYTE   W08
        BYTE           N03
        BYTE   W08
        BYTE           N09     Dn2   v124
        BYTE   W16
        BYTE           N03     Dn2   v118
        BYTE   W08
        BYTE           N09     Dn2   v126
        BYTE   W16
        BYTE           N03     Dn2   v121
        BYTE   W08
        BYTE           N09     Dn2   v127
        BYTE   W16
        BYTE           N03     Dn2   v125
        BYTE   W08
        BYTE           N09
        BYTE   W08
// 010   ----------------------------------------
        BYTE   W08
        BYTE           N03     Dn2   v117
        BYTE   W08
        BYTE           N09     Dn2   v123
        BYTE   W16
        BYTE           N03     Dn2   v120
        BYTE   W08
        BYTE           N09     Dn2   v123
        BYTE   W16
        BYTE           N03     Dn2   v118
        BYTE   W08
        BYTE           N09     Cn2   v127
        BYTE   W16
        BYTE           N03     Cn2   v125
        BYTE   W08
        BYTE           N09     Cn2   v126
        BYTE   W08
// 011   ----------------------------------------
        BYTE   W08
        BYTE           N03     Cn2   v118
        BYTE   W08
        BYTE           N09     Cn2   v127
        BYTE   W16
        BYTE           N03     Cn2   v118
        BYTE   W08
        BYTE           N09     Cn2   v127
        BYTE   W16
        BYTE           N03     Cn2   v121
        BYTE   W08
        BYTE           N09     Cn2   v126
        BYTE   W16
        BYTE           N03     Cn2   v121
        BYTE   W08
        BYTE           N09     Cn2   v127
        BYTE   W08
// 012   ----------------------------------------
        BYTE   W08
        BYTE           N03     Cn2   v123
        BYTE   W08
        BYTE           N09     Cn2   v127
        BYTE   W16
        BYTE           N03     Cn2   v121
        BYTE   W08
        BYTE           N09     Cn2   v126
        BYTE   W16
        BYTE           N03     Cn2   v120
        BYTE   W08
        BYTE           N09     Bn1   v123
        BYTE   W16
        BYTE           N03     Bn1   v122
        BYTE   W08
        BYTE           N09     Bn1   v127
        BYTE   W08
// 013   ----------------------------------------
        BYTE   W08
        BYTE           N03     Bn1   v124
        BYTE   W08
        BYTE           N09     Bn1   v125
        BYTE   W16
        BYTE           N03     Bn1   v121
        BYTE   W08
        BYTE           N09     Bn1   v127
        BYTE   W16
        BYTE           N03     Bn1   v123
        BYTE   W08
        BYTE           N09     Bn1   v127
        BYTE   W16
        BYTE           N03     Bn1   v120
        BYTE   W08
        BYTE           N09     Bn1   v127
        BYTE   W08
// 014   ----------------------------------------
        BYTE   W08
        BYTE           N03     Bn1   v121
        BYTE   W08
        BYTE           N09     Bn1   v127
        BYTE   W16
        BYTE           N03     Bn1   v125
        BYTE   W08
        BYTE           N09     Bn1   v126
        BYTE   W16
        BYTE           N03     Bn1   v123
        BYTE   W08
        BYTE           N09     As1   v125
        BYTE   W16
        BYTE           N03     As1   v122
        BYTE   W08
        BYTE           N09     As1   v127
        BYTE   W08
// 015   ----------------------------------------
        BYTE   W08
        BYTE           N03     As1   v124
        BYTE   W08
        BYTE           N09     As1   v126
        BYTE   W16
        BYTE           N03     As1   v125
        BYTE   W08
        BYTE           N09     As1   v127
        BYTE   W16
        BYTE           N03     As1   v120
        BYTE   W08
        BYTE           N09     An1   v127
        BYTE   W16
        BYTE           N03     An1   v121
        BYTE   W08
        BYTE           N09     An1   v126
        BYTE   W08
// 016   ----------------------------------------
        BYTE   W08
        BYTE           N03     An1   v123
        BYTE   W08
        BYTE           N09     An1   v122
        BYTE   W16
        BYTE           N03     An1   v121
        BYTE   W08
        BYTE           N09     An1   v124
        BYTE   W16
        BYTE           N03     An1   v121
        BYTE   W08
        BYTE           N09     Dn2   v125
        BYTE   W16
        BYTE           N03     Dn2   v124
        BYTE   W08
        BYTE           N09     Dn2   v125
        BYTE   W08
// 017   ----------------------------------------
        BYTE   W08
        BYTE           N03     Dn2   v118
        BYTE   W08
        BYTE           N09     Dn2   v126
        BYTE   W16
        BYTE           N03     Dn2   v123
        BYTE   W08
        BYTE           N09     Dn2   v126
        BYTE   W16
        BYTE           N03     Dn2   v118
        BYTE   W08
        BYTE           N09     Dn2   v127
        BYTE   W16
        BYTE           N03     Dn2   v123
        BYTE   W08
        BYTE           N09
        BYTE   W08
// 018   ----------------------------------------
        BYTE   W08
        BYTE           N03     Dn2   v117
        BYTE   W08
        BYTE           N09     Dn2   v127
        BYTE   W16
        BYTE           N03     Dn2   v121
        BYTE   W08
        BYTE           N09     Dn2   v127
        BYTE   W16
        BYTE           N03     Dn2   v121
        BYTE   W08
        BYTE           N09     Cn2   v122
        BYTE   W16
        BYTE           N03     Cn2   v120
        BYTE   W08
        BYTE           N09     Cn2   v127
        BYTE   W08
// 019   ----------------------------------------
        BYTE   W08
        BYTE           N03     Cn2   v122
        BYTE   W08
        BYTE           N09     Cn2   v123
        BYTE   W16
        BYTE           N03
        BYTE   W08
        BYTE           N09     Cn2   v127
        BYTE   W16
        BYTE           N03     Cn2   v119
        BYTE   W08
        BYTE           N09     Cn2   v125
        BYTE   W16
        BYTE           N03     Cn2   v120
        BYTE   W08
        BYTE           N09     Cn2   v126
        BYTE   W08
// 020   ----------------------------------------
        BYTE   W08
        BYTE           N03     Cn2   v123
        BYTE   W08
        BYTE           N09     Cn2   v125
        BYTE   W16
        BYTE           N03     Cn2   v122
        BYTE   W08
        BYTE           N09
        BYTE   W16
        BYTE           N03     Cn2   v121
        BYTE   W08
        BYTE           N09     Bn1   v126
        BYTE   W16
        BYTE           N03     Bn1   v117
        BYTE   W08
        BYTE           N09     Bn1   v122
        BYTE   W08
// 021   ----------------------------------------
        BYTE   W08
        BYTE           N03     Bn1   v120
        BYTE   W08
        BYTE           N09     Bn1   v126
        BYTE   W16
        BYTE           N03     Bn1   v117
        BYTE   W08
        BYTE           N09     Bn1   v122
        BYTE   W16
        BYTE           N03     Bn1   v121
        BYTE   W08
        BYTE           N09     Bn1   v127
        BYTE   W16
        BYTE           N03     Bn1   v119
        BYTE   W08
        BYTE           N09     Bn1   v126
        BYTE   W08
// 022   ----------------------------------------
        BYTE   W08
        BYTE           N03     Bn1   v121
        BYTE   W08
        BYTE           N09     Bn1   v127
        BYTE   W16
        BYTE           N03     Bn1   v117
        BYTE   W08
        BYTE           N09     Bn1   v122
        BYTE   W16
        BYTE           N03     Bn1   v117
        BYTE   W08
        BYTE           N09     As1   v127
        BYTE   W16
        BYTE           N03     As1   v125
        BYTE   W08
        BYTE           N09     As1   v122
        BYTE   W08
// 023   ----------------------------------------
        BYTE   W08
        BYTE           N03     As1   v120
        BYTE   W08
        BYTE           N09     As1   v127
        BYTE   W16
        BYTE           N03     As1   v121
        BYTE   W08
        BYTE           N09     As1   v127
        BYTE   W16
        BYTE           N03     As1   v117
        BYTE   W08
        BYTE           N09     An1   v127
        BYTE   W16
        BYTE           N03     An1   v120
        BYTE   W08
        BYTE           N09     An1   v125
        BYTE   W08
// 024   ----------------------------------------
        BYTE   W08
        BYTE           N03     An1   v123
        BYTE   W08
        BYTE           N09     An1   v127
        BYTE   W16
        BYTE           N03     An1   v122
        BYTE   W08
        BYTE           N09     An1   v127
        BYTE   W16
        BYTE           N03     An1   v123
        BYTE   W08
        BYTE           N09     Dn2   v127
        BYTE   W16
        BYTE           N03     Dn2   v119
        BYTE   W08
        BYTE           N09     Dn2   v127
        BYTE   W08
// 025   ----------------------------------------
        BYTE   W08
        BYTE           N03     Dn2   v122
        BYTE   W08
        BYTE           N09     Dn2   v127
        BYTE   W16
        BYTE           N03     Dn2   v120
        BYTE   W08
        BYTE           N09     Dn2   v127
        BYTE   W16
        BYTE           N03     Dn2   v124
        BYTE   W08
        BYTE           N09     Dn2   v127
        BYTE   W16
        BYTE           N03     Dn2   v122
        BYTE   W08
        BYTE           N09     Dn2   v127
        BYTE   W08
// 026   ----------------------------------------
        BYTE   W08
        BYTE           N03     Dn2   v117
        BYTE   W08
        BYTE           N09     Dn2   v126
        BYTE   W16
        BYTE           N03     Dn2   v121
        BYTE   W08
        BYTE           N09     Dn2   v125
        BYTE   W16
        BYTE           N03     Dn2   v122
        BYTE   W08
        BYTE           N09     Cn2   v126
        BYTE   W16
        BYTE           N03     Cn2   v122
        BYTE   W08
        BYTE           N09     Cn2   v123
        BYTE   W08
// 027   ----------------------------------------
        BYTE   W08
        BYTE           N03     Cn2   v118
        BYTE   W08
        BYTE           N09     Cn2   v125
        BYTE   W16
        BYTE           N03     Cn2   v120
        BYTE   W08
        BYTE           N09     Cn2   v127
        BYTE   W16
        BYTE           N03     Cn2   v125
        BYTE   W08
        BYTE           N09
        BYTE   W16
        BYTE           N03     Cn2   v119
        BYTE   W08
        BYTE           N09     Cn2   v125
        BYTE   W08
// 028   ----------------------------------------
        BYTE   W08
        BYTE           N03     Cn2   v122
        BYTE   W08
        BYTE           N09
        BYTE   W16
        BYTE           N03     Cn2   v123
        BYTE   W08
        BYTE           N09     Cn2   v126
        BYTE   W16
        BYTE           N03     Cn2   v124
        BYTE   W04
        BYTE   GoTo
         POIN2  knightsoath2_1_LOOP
        BYTE   W04
        BYTE           N09     Bn1   v122
        BYTE   W16
        BYTE           N03     Bn1   v120
        BYTE   W08
        BYTE           N09     Bn1   v125
        BYTE   W08
// 029   ----------------------------------------
        BYTE   W08
        BYTE           N03     Bn1   v124
        BYTE   W08
        BYTE           N09     Bn1   v127
        BYTE   W16
        BYTE           N03     Bn1   v122
        BYTE   W08
        BYTE           N09     Bn1   v123
        BYTE   W16
        BYTE           N03     Bn1   v119
        BYTE   W08
        BYTE           N09     Bn1   v127
        BYTE   W16
        BYTE           N03     Bn1   v117
        BYTE   W08
        BYTE           N09     Bn1   v125
        BYTE   W08
// 030   ----------------------------------------
        BYTE   W08
        BYTE           N03     Bn1   v121
        BYTE   W08
        BYTE           N09     Bn1   v125
        BYTE   W16
        BYTE           N03     Bn1   v118
        BYTE   W30
        BYTE   W01
        BYTE   FINE

//****************** Track 2 (Midi-Chn.2) ******************//

knightsoath2_2:
        BYTE   KEYSH   knightsoath2_key+0
// 000   ----------------------------------------
        BYTE           VOICE   102
        BYTE           PAN     c_v-28
        BYTE           VOL     31
        BYTE   W16
        BYTE           N07     Gn2   v090
        BYTE           N07     As2
        BYTE   W08
        BYTE                   Gn2   v076
        BYTE           N07     As2
        BYTE   W08
        BYTE                   Gn2   v070
        BYTE           N07     As2
        BYTE   W08
        BYTE           N22     Gn2   v086
        BYTE           N22     As2
        BYTE   W24
        BYTE           VOL     26
        BYTE           N07     An2   v090
        BYTE   W08
        BYTE                   An2   v076
        BYTE   W08
        BYTE                   An2   v070
        BYTE   W08
        BYTE           N23     Fn3   v083
        BYTE           N22     An3   v086
        BYTE   W08
// 001   ----------------------------------------
knightsoath2_2_1:
        BYTE   W11
        BYTE           VOL     27
        BYTE   W05
        BYTE           N07     An2   v071
        BYTE   W08
        BYTE                   An2   v066
        BYTE   W08
        BYTE                   An2   v072
        BYTE   W08
        BYTE           N23     En3   v094
        BYTE           N23     Gn3   v099
        BYTE   W06
        BYTE           VOL     28
        BYTE   W18
        BYTE           N07     An2   v090
        BYTE   W08
        BYTE                   An2   v080
        BYTE   W08
        BYTE                   An2   v082
        BYTE   W01
        BYTE           VOL     29
        BYTE   W07
        BYTE           N23     Dn3   v094
        BYTE           N22     Fn3   v082
        BYTE   W08
        BYTE   PEND
// 002   ----------------------------------------
knightsoath2_2_2:
        BYTE   W16
        BYTE           N07     An2   v082
        BYTE   W04
        BYTE           VOL     30
        BYTE   W04
        BYTE           N07     An2   v076
        BYTE   W08
        BYTE                   An2   v073
        BYTE   W08
        BYTE           N23     Cn3   v097
        BYTE           N23     En3   v088
        BYTE   W15
        BYTE           VOL     31
        BYTE   W09
        BYTE           N07     An2   v092
        BYTE   W08
        BYTE                   An2   v094
        BYTE   W08
        BYTE                   An2   v086
        BYTE   W08
        BYTE           N23     Fn3   v102
        BYTE           N23     An3
        BYTE   W08
        BYTE   PEND
// 003   ----------------------------------------
knightsoath2_2_3:
        BYTE   W03
        BYTE           VOL     30
        BYTE   W13
        BYTE           N07     An2   v088
        BYTE   W08
        BYTE                   An2   v080
        BYTE   W08
        BYTE                   An2   v078
        BYTE   W06
        BYTE           VOL     29
        BYTE   W02
        BYTE           N23     En3   v090
        BYTE           N23     Gn3   v092
        BYTE   W24
        BYTE           N07     An2
        BYTE   W08
        BYTE                   An2   v086
        BYTE           VOL     28
        BYTE   W08
        BYTE           N07     An2   v075
        BYTE   W08
        BYTE           N22     Dn3   v086
        BYTE           N22     Fn3   v090
        BYTE   W08
        BYTE   PEND
// 004   ----------------------------------------
        BYTE   W11
        BYTE           VOL     27
        BYTE   W05
        BYTE           N07     An2   v086
        BYTE   W08
        BYTE                   An2   v085
        BYTE   W08
        BYTE                   An2   v083
        BYTE   W08
        BYTE           N23     Cn3   v098
        BYTE           N23     En3
        BYTE   W06
        BYTE           VOL     26
        BYTE   W14
knightsoath2_2_LOOP:
        BYTE   W04
        BYTE           N07     An2   v086
        BYTE   W08
        BYTE                   An2   v085
        BYTE   W08
        BYTE                   An2   v068
        BYTE   W08
        BYTE           N23     Fn3   v098
        BYTE           N23     An3
        BYTE   W08
// 005   ----------------------------------------
knightsoath2_2_5:
        BYTE   W11
        BYTE           VOL     27
        BYTE   W05
        BYTE           N07     An2   v086
        BYTE   W08
        BYTE                   An2   v083
        BYTE   W08
        BYTE                   An2   v076
        BYTE   W08
        BYTE           N23     En3   v086
        BYTE           N23     Gn3   v092
        BYTE   W06
        BYTE           VOL     28
        BYTE   W18
        BYTE           N07     An2   v086
        BYTE   W08
        BYTE                   An2   v090
        BYTE   W08
        BYTE                   An2   v078
        BYTE   W01
        BYTE           VOL     29
        BYTE   W07
        BYTE           N23     Dn3   v092
        BYTE           N23     Fn3   v088
        BYTE   W08
        BYTE   PEND
// 006   ----------------------------------------
knightsoath2_2_6:
        BYTE   W16
        BYTE           N07     An2   v082
        BYTE   W04
        BYTE           VOL     30
        BYTE   W04
        BYTE           N07     An2   v085
        BYTE   W08
        BYTE                   An2   v079
        BYTE   W08
        BYTE           N23     Cn3   v094
        BYTE           N23     En3   v090
        BYTE   W15
        BYTE           VOL     31
        BYTE   W09
        BYTE           N07     An2   v088
        BYTE   W08
        BYTE                   An2
        BYTE   W08
        BYTE                   An2   v080
        BYTE   W08
        BYTE           N23     Fn3   v092
        BYTE           N23     An3   v094
        BYTE   W08
        BYTE   PEND
// 007   ----------------------------------------
knightsoath2_2_7:
        BYTE   W02
        BYTE           VOL     30
        BYTE   W14
        BYTE           N07     An2   v076
        BYTE   W08
        BYTE                   An2   v083
        BYTE   W08
        BYTE                   An2   v074
        BYTE   W05
        BYTE           VOL     29
        BYTE   W03
        BYTE           N23     En3   v094
        BYTE           N23     Gn3
        BYTE   W24
        BYTE           N07     An2   v086
        BYTE   W08
        BYTE           VOL     28
        BYTE           N07
        BYTE   W08
        BYTE                   An2   v074
        BYTE   W08
        BYTE           N23     Dn3   v090
        BYTE           N23     Fn3   v092
        BYTE   W08
        BYTE   PEND
// 008   ----------------------------------------
knightsoath2_2_8:
        BYTE   W10
        BYTE           VOL     27
        BYTE   W06
        BYTE           N07     An2   v079
        BYTE   W08
        BYTE                   An2   v071
        BYTE   W08
        BYTE                   An2   v080
        BYTE   W08
        BYTE           N22     Cs3   v086
        BYTE           N23     En3   v088
        BYTE   W05
        BYTE           VOL     26
        BYTE   W19
        BYTE           N07     An2   v090
        BYTE   W08
        BYTE                   An2   v076
        BYTE   W08
        BYTE                   An2   v070
        BYTE   W08
        BYTE           N23     Fn3   v083
        BYTE           N22     An3   v086
        BYTE   W08
        BYTE   PEND
// 009   ----------------------------------------
        BYTE   PATT
         POIN2  knightsoath2_2_1
// 010   ----------------------------------------
        BYTE   PATT
         POIN2  knightsoath2_2_2
// 011   ----------------------------------------
        BYTE   PATT
         POIN2  knightsoath2_2_3
// 012   ----------------------------------------
knightsoath2_2_12:
        BYTE   W11
        BYTE           VOL     27
        BYTE   W05
        BYTE           N07     An2   v086
        BYTE   W08
        BYTE                   An2   v085
        BYTE   W08
        BYTE                   An2   v083
        BYTE   W08
        BYTE           N23     Cn3   v098
        BYTE           N23     En3
        BYTE   W06
        BYTE           VOL     26
        BYTE   W18
        BYTE           N07     An2   v086
        BYTE   W08
        BYTE                   An2   v085
        BYTE   W08
        BYTE                   An2   v068
        BYTE   W08
        BYTE           N23     Fn3   v098
        BYTE           N23     An3
        BYTE   W08
        BYTE   PEND
// 013   ----------------------------------------
        BYTE   PATT
         POIN2  knightsoath2_2_5
// 014   ----------------------------------------
        BYTE   PATT
         POIN2  knightsoath2_2_6
// 015   ----------------------------------------
        BYTE   PATT
         POIN2  knightsoath2_2_7
// 016   ----------------------------------------
        BYTE   PATT
         POIN2  knightsoath2_2_8
// 017   ----------------------------------------
        BYTE   PATT
         POIN2  knightsoath2_2_1
// 018   ----------------------------------------
        BYTE   PATT
         POIN2  knightsoath2_2_2
// 019   ----------------------------------------
        BYTE   PATT
         POIN2  knightsoath2_2_3
// 020   ----------------------------------------
        BYTE   PATT
         POIN2  knightsoath2_2_12
// 021   ----------------------------------------
        BYTE   PATT
         POIN2  knightsoath2_2_5
// 022   ----------------------------------------
        BYTE   PATT
         POIN2  knightsoath2_2_6
// 023   ----------------------------------------
        BYTE   PATT
         POIN2  knightsoath2_2_7
// 024   ----------------------------------------
        BYTE   PATT
         POIN2  knightsoath2_2_8
// 025   ----------------------------------------
        BYTE   PATT
         POIN2  knightsoath2_2_1
// 026   ----------------------------------------
        BYTE   PATT
         POIN2  knightsoath2_2_2
// 027   ----------------------------------------
        BYTE   PATT
         POIN2  knightsoath2_2_3
// 028   ----------------------------------------
        BYTE   W11
        BYTE           VOL     27
        BYTE   W05
        BYTE           N07     An2   v086
        BYTE   W08
        BYTE                   An2   v085
        BYTE   W08
        BYTE                   An2   v083
        BYTE   W08
        BYTE           N23     Cn3   v098
        BYTE           N23     En3
        BYTE   W06
        BYTE           VOL     26
        BYTE   W14
        BYTE   GoTo
         POIN2  knightsoath2_2_LOOP
        BYTE   W04
        BYTE           N07     An2   v086
        BYTE   W08
        BYTE                   An2   v085
        BYTE   W08
        BYTE                   An2   v068
        BYTE   W08
        BYTE           N23     Fn3   v098
        BYTE           N23     An3
        BYTE   W08
// 029   ----------------------------------------
        BYTE   PATT
         POIN2  knightsoath2_2_5
// 030   ----------------------------------------
        BYTE   W16
        BYTE           N07     An2   v082
        BYTE   W04
        BYTE           VOL     30
        BYTE   W04
        BYTE           N07     An2   v085
        BYTE   W08
        BYTE                   An2   v079
        BYTE   W30
        BYTE   W01
        BYTE   FINE

//****************** Track 3 (Midi-Chn.3) ******************//

knightsoath2_3:
        BYTE   KEYSH   knightsoath2_key+0
// 000   ----------------------------------------
        BYTE           VOICE   96
        BYTE           VOL     47
        BYTE           PAN     c_v+24
        BYTE           N08     En4   v001
        BYTE   W16
        BYTE           VOL     28
        BYTE           N08     En3   v083
        BYTE   W06
        BYTE           VOL     29
        BYTE   W02
        BYTE           N08     Fn3
        BYTE   W01
        BYTE           VOL     30
        BYTE   W06
        BYTE                   31
        BYTE   W01
        BYTE           N08     Gn3
        BYTE   W02
        BYTE           VOL     32
        BYTE   W03
        BYTE                   33
        BYTE   W03
        BYTE                   34
        BYTE           N23     Gn3   v064
        BYTE   W03
        BYTE           VOL     35
        BYTE   W01
        BYTE                   36
        BYTE   W03
        BYTE                   37
        BYTE   W02
        BYTE                   38
        BYTE   W01
        BYTE                   39
        BYTE   W02
        BYTE                   40
        BYTE   W01
        BYTE                   41
        BYTE   W02
        BYTE                   43
        BYTE   W01
        BYTE                   44
        BYTE   W02
        BYTE                   47
        BYTE   W06
        BYTE           N44     An3   v064   gtp3
        BYTE   W04
        BYTE           VOL     46
        BYTE   W03
        BYTE                   45
        BYTE   W03
        BYTE                   44
        BYTE   W03
        BYTE                   43
        BYTE   W02
        BYTE                   42
        BYTE   W03
        BYTE                   41
        BYTE   W01
        BYTE                   40
        BYTE   W03
        BYTE                   39
        BYTE   W02
        BYTE                   38
        BYTE   W01
        BYTE                   37
        BYTE   W02
        BYTE                   36
        BYTE   W03
        BYTE                   34
        BYTE   W01
        BYTE                   33
        BYTE   W01
// 001   ----------------------------------------
        BYTE   W01
        BYTE                   32
        BYTE   W01
        BYTE                   31
        BYTE   W02
        BYTE                   30
        BYTE   W01
        BYTE                   29
        BYTE   W02
        BYTE                   27
        BYTE   W01
        BYTE                   26
        BYTE   W02
        BYTE                   24
        BYTE   W01
        BYTE                   23
        BYTE   W02
        BYTE                   21
        BYTE   W01
        BYTE                   19
        BYTE   W02
        BYTE                   17
        BYTE           TIE     En4   v051
        BYTE   W01
        BYTE           VOL     15
        BYTE   W06
        BYTE                   16
        BYTE   W15
        BYTE                   17
        BYTE   W09
        BYTE                   18
        BYTE   W06
        BYTE                   19
        BYTE   W09
        BYTE                   20
        BYTE   W09
        BYTE                   21
        BYTE   W06
        BYTE                   22
        BYTE   W03
        BYTE                   23
        BYTE   W06
        BYTE                   24
        BYTE   W03
        BYTE                   25
        BYTE   W03
        BYTE                   26
        BYTE   W03
        BYTE                   27
        BYTE   W01
// 002   ----------------------------------------
        BYTE   W05
        BYTE                   28
        BYTE   W03
        BYTE                   30
        BYTE   W03
        BYTE                   31
        BYTE   W03
        BYTE                   33
        BYTE   W03
        BYTE                   34
        BYTE   W03
        BYTE                   36
        BYTE   W03
        BYTE                   38
        BYTE   W03
        BYTE                   40
        BYTE   W03
        BYTE                   43
        BYTE   W03
        BYTE                   46
        BYTE   W01
        BYTE                   47
        BYTE   W18
        BYTE           EOT
        BYTE   W01
        BYTE           N05     Dn4
        BYTE   W06
        BYTE                   En4
        BYTE   W06
        BYTE           N92     En4   v051   gtp3
        BYTE   W32
// 003   ----------------------------------------
knightsoath2_3_3:
        BYTE   W64
        BYTE           TIE     Fn4   v051
        BYTE   W23
        BYTE           VOL     46
        BYTE   W08
        BYTE                   45
        BYTE   W01
        BYTE   PEND
// 004   ----------------------------------------
        BYTE   W02
        BYTE                   44
        BYTE   W06
        BYTE                   43
        BYTE   W06
        BYTE                   42
        BYTE   W03
        BYTE                   41
        BYTE   W04
        BYTE                   40
        BYTE   W05
        BYTE                   39
        BYTE   W03
        BYTE                   38
        BYTE   W04
        BYTE                   37
        BYTE   W05
        BYTE                   36
        BYTE   W04
        BYTE                   35
        BYTE   W02
        BYTE                   34
        BYTE   W03
        BYTE                   33
        BYTE   W04
        BYTE                   32
        BYTE   W02
        BYTE                   31
        BYTE   W03
        BYTE                   30
        BYTE   W03
        BYTE                   29
        BYTE   W01
knightsoath2_3_LOOP:
        BYTE   W02
        BYTE           VOL     28
        BYTE   W01
        BYTE                   27
        BYTE   W03
        BYTE                   26
        BYTE   W03
        BYTE                   25
        BYTE   W02
        BYTE                   24
        BYTE   W03
        BYTE                   23
        BYTE   W01
        BYTE                   22
        BYTE   W02
        BYTE                   21
        BYTE   W03
        BYTE                   20
        BYTE   W01
        BYTE                   19
        BYTE   W02
        BYTE                   18
        BYTE   W01
        BYTE                   17
        BYTE   W02
        BYTE                   16
        BYTE   W03
        BYTE                   14
        BYTE   W03
        BYTE                   13
        BYTE   W01
        BYTE                   11
        BYTE   W03
// 005   ----------------------------------------
knightsoath2_3_5:
        BYTE           VOL     10
        BYTE   W02
        BYTE                   9
        BYTE   W01
        BYTE           EOT     Fn4
        BYTE           VOL     7
        BYTE   W02
        BYTE                   6
        BYTE   W01
        BYTE                   5
        BYTE   W02
        BYTE                   4
        BYTE   W01
        BYTE                   2
        BYTE   W02
        BYTE                   1
        BYTE   W01
        BYTE                   0
        BYTE   W84
        BYTE   PEND
// 006   ----------------------------------------
        BYTE   W96
// 007   ----------------------------------------
        BYTE   W96
// 008   ----------------------------------------
        BYTE   W64
        BYTE                   28
        BYTE   W09
        BYTE                   29
        BYTE   W12
        BYTE                   30
        BYTE   W11
// 009   ----------------------------------------
        BYTE   W04
        BYTE                   31
        BYTE   W12
        BYTE                   32
        BYTE           N30     Fn3   v071   gtp1
        BYTE   W06
        BYTE           VOL     33
        BYTE   W09
        BYTE                   34
        BYTE   W06
        BYTE                   35
        BYTE   W03
        BYTE                   36
        BYTE   W03
        BYTE                   37
        BYTE   W05
        BYTE           N07     Gn3
        BYTE   W01
        BYTE           VOL     38
        BYTE   W03
        BYTE                   40
        BYTE   W03
        BYTE                   41
        BYTE   W01
        BYTE           N07     Gs3
        BYTE   W02
        BYTE           VOL     42
        BYTE   W03
        BYTE                   44
        BYTE   W03
        BYTE                   46
        BYTE           N92     An3   v073   gtp3
        BYTE   W01
        BYTE           VOL     47
        BYTE   W30
        BYTE   W01
// 010   ----------------------------------------
        BYTE                   46
        BYTE   W09
        BYTE                   45
        BYTE   W03
        BYTE                   44
        BYTE   W06
        BYTE                   43
        BYTE   W06
        BYTE                   42
        BYTE   W03
        BYTE                   41
        BYTE   W06
        BYTE                   40
        BYTE   W03
        BYTE                   39
        BYTE   W03
        BYTE                   38
        BYTE   W03
        BYTE                   37
        BYTE   W03
        BYTE                   36
        BYTE   W03
        BYTE                   35
        BYTE   W03
        BYTE                   34
        BYTE   W03
        BYTE                   32
        BYTE   W03
        BYTE                   31
        BYTE   W03
        BYTE                   29
        BYTE   W03
        BYTE                   27
        BYTE   W01
        BYTE                   26
        BYTE           N92     An3   v069   gtp3
        BYTE   W06
        BYTE           VOL     27
        BYTE   W18
        BYTE                   28
        BYTE   W08
// 011   ----------------------------------------
        BYTE   W04
        BYTE                   29
        BYTE   W09
        BYTE                   30
        BYTE   W12
        BYTE                   31
        BYTE   W12
        BYTE                   32
        BYTE   W06
        BYTE                   33
        BYTE   W09
        BYTE                   34
        BYTE   W06
        BYTE                   35
        BYTE   W06
        BYTE                   36
        BYTE           N44     Gn3   v071   gtp3
        BYTE   W06
        BYTE           VOL     37
        BYTE   W09
        BYTE                   38
        BYTE   W06
        BYTE                   39
        BYTE   W03
        BYTE                   40
        BYTE   W06
        BYTE                   41
        BYTE   W02
// 012   ----------------------------------------
        BYTE   W01
        BYTE                   42
        BYTE   W03
        BYTE                   43
        BYTE   W06
        BYTE                   44
        BYTE   W03
        BYTE                   45
        BYTE   W03
        BYTE                   46
        BYTE           TIE     An3   v070
        BYTE   W03
        BYTE           VOL     47
        BYTE   W60
        BYTE   W01
        BYTE                   46
        BYTE   W09
        BYTE                   45
        BYTE   W06
        BYTE                   44
        BYTE   W01
// 013   ----------------------------------------
        BYTE   W05
        BYTE                   43
        BYTE   W09
        BYTE                   42
        BYTE   W03
        BYTE                   41
        BYTE   W06
        BYTE                   40
        BYTE   W06
        BYTE                   39
        BYTE   W03
        BYTE                   38
        BYTE   W03
        BYTE                   37
        BYTE   W06
        BYTE                   36
        BYTE   W03
        BYTE                   35
        BYTE   W03
        BYTE                   34
        BYTE   W03
        BYTE                   33
        BYTE   W03
        BYTE                   31
        BYTE   W03
        BYTE                   30
        BYTE   W03
        BYTE                   29
        BYTE   W02
        BYTE                   28
        BYTE   W03
        BYTE           N92     Dn4   v065   gtp3
        BYTE   W12
        BYTE           VOL     29
        BYTE   W06
        BYTE                   30
        BYTE   W12
        BYTE                   31
        BYTE   W02
// 014   ----------------------------------------
        BYTE   W07
        BYTE                   32
        BYTE   W03
        BYTE                   33
        BYTE   W05
        BYTE           EOT     An3
        BYTE   W01
        BYTE           N23     Gn3   v069
        BYTE   W03
        BYTE           VOL     34
        BYTE   W06
        BYTE                   35
        BYTE   W03
        BYTE                   36
        BYTE   W06
        BYTE                   37
        BYTE   W03
        BYTE                   38
        BYTE   W03
        BYTE           N23     An3   v073
        BYTE   W03
        BYTE           VOL     40
        BYTE   W06
        BYTE                   41
        BYTE   W03
        BYTE                   43
        BYTE   W03
        BYTE                   44
        BYTE   W03
        BYTE                   45
        BYTE   W03
        BYTE                   47
        BYTE   W03
        BYTE           N44     As3   v078   gtp3
        BYTE   W32
// 015   ----------------------------------------
        BYTE   W13
        BYTE           VOL     46
        BYTE   W03
        BYTE           N44     Dn4   v065   gtp3
        BYTE   W12
        BYTE           VOL     45
        BYTE   W06
        BYTE                   44
        BYTE   W12
        BYTE                   43
        BYTE   W09
        BYTE                   42
        BYTE   W03
        BYTE                   41
        BYTE   W06
        BYTE           N44     As3   v080   gtp3
        BYTE   W03
        BYTE           VOL     40
        BYTE   W06
        BYTE                   39
        BYTE   W03
        BYTE                   38
        BYTE   W03
        BYTE                   37
        BYTE   W06
        BYTE                   36
        BYTE   W03
        BYTE                   35
        BYTE   W03
        BYTE                   34
        BYTE   W03
        BYTE                   33
        BYTE   W02
// 016   ----------------------------------------
        BYTE   W01
        BYTE                   32
        BYTE   W03
        BYTE                   31
        BYTE   W03
        BYTE                   29
        BYTE   W03
        BYTE                   28
        BYTE   W03
        BYTE                   26
        BYTE   W03
        BYTE                   14
        BYTE           TIE     An3   v081
        BYTE   W06
        BYTE           VOL     15
        BYTE   W03
        BYTE                   16
        BYTE   W04
        BYTE                   17
        BYTE   W03
        BYTE                   18
        BYTE   W02
        BYTE                   19
        BYTE   W03
        BYTE                   20
        BYTE   W03
        BYTE                   21
        BYTE   W01
        BYTE                   22
        BYTE   W02
        BYTE                   23
        BYTE   W01
        BYTE                   24
        BYTE   W02
        BYTE                   25
        BYTE   W01
        BYTE                   26
        BYTE   W02
        BYTE                   28
        BYTE   W01
        BYTE                   29
        BYTE   W02
        BYTE                   31
        BYTE   W01
        BYTE                   33
        BYTE   W02
        BYTE                   36
        BYTE   W01
        BYTE                   38
        BYTE   W02
        BYTE                   41
        BYTE   W01
        BYTE                   46
        BYTE   W01
        BYTE                   47
        BYTE   W17
        BYTE                   46
        BYTE   W03
        BYTE                   45
        BYTE   W03
        BYTE                   44
        BYTE   W03
        BYTE                   43
        BYTE   W03
        BYTE                   42
        BYTE   W01
        BYTE                   41
        BYTE   W03
        BYTE                   40
        BYTE   W03
// 017   ----------------------------------------
        BYTE                   39
        BYTE   W02
        BYTE                   38
        BYTE   W01
        BYTE                   37
        BYTE   W03
        BYTE                   36
        BYTE   W02
        BYTE                   35
        BYTE   W01
        BYTE                   34
        BYTE   W03
        BYTE                   33
        BYTE   W02
        BYTE                   32
        BYTE   W01
        BYTE                   31
        BYTE   W02
        BYTE                   30
        BYTE   W01
        BYTE                   29
        BYTE   W02
        BYTE                   28
        BYTE   W01
        BYTE                   27
        BYTE   W02
        BYTE                   26
        BYTE   W01
        BYTE                   25
        BYTE   W02
        BYTE                   24
        BYTE   W01
        BYTE                   22
        BYTE   W02
        BYTE                   21
        BYTE   W01
        BYTE                   20
        BYTE   W02
        BYTE                   19
        BYTE   W01
        BYTE                   17
        BYTE   W02
        BYTE                   16
        BYTE   W01
        BYTE                   14
        BYTE   W02
        BYTE                   13
        BYTE   W01
        BYTE           EOT
        BYTE           VOL     11
        BYTE   W02
        BYTE                   9
        BYTE   W01
        BYTE                   7
        BYTE   W02
        BYTE                   5
        BYTE   W01
        BYTE                   3
        BYTE   W02
        BYTE                   1
        BYTE   W01
        BYTE                   0
        BYTE   W48
// 018   ----------------------------------------
        BYTE   W96
// 019   ----------------------------------------
        BYTE   W96
// 020   ----------------------------------------
        BYTE   W96
// 021   ----------------------------------------
        BYTE   W96
// 022   ----------------------------------------
        BYTE   W96
// 023   ----------------------------------------
        BYTE   W96
// 024   ----------------------------------------
        BYTE   W64
        BYTE                   15
        BYTE   W32
// 025   ----------------------------------------
        BYTE   W06
        BYTE                   16
        BYTE   W10
        BYTE           TIE     En4   v051
        BYTE   W08
        BYTE           VOL     17
        BYTE   W12
        BYTE                   18
        BYTE   W06
        BYTE                   19
        BYTE   W09
        BYTE                   20
        BYTE   W09
        BYTE                   21
        BYTE   W09
        BYTE                   22
        BYTE   W03
        BYTE                   23
        BYTE   W06
        BYTE                   24
        BYTE   W06
        BYTE                   25
        BYTE   W03
        BYTE                   26
        BYTE   W03
        BYTE                   27
        BYTE   W06
// 026   ----------------------------------------
        BYTE                   28
        BYTE   W03
        BYTE                   29
        BYTE   W03
        BYTE                   30
        BYTE   W03
        BYTE                   31
        BYTE   W03
        BYTE                   33
        BYTE   W03
        BYTE                   34
        BYTE   W03
        BYTE                   36
        BYTE   W03
        BYTE                   37
        BYTE   W03
        BYTE                   39
        BYTE   W03
        BYTE                   41
        BYTE   W03
        BYTE                   44
        BYTE   W03
        BYTE                   47
        BYTE   W18
        BYTE           EOT
        BYTE   W01
        BYTE           N05     Dn4
        BYTE   W06
        BYTE                   En4
        BYTE   W06
        BYTE           N92     En4   v051   gtp3
        BYTE   W32
// 027   ----------------------------------------
        BYTE   PATT
         POIN2  knightsoath2_3_3
// 028   ----------------------------------------
        BYTE   W02
        BYTE           VOL     44
        BYTE   W06
        BYTE                   43
        BYTE   W06
        BYTE                   42
        BYTE   W03
        BYTE                   41
        BYTE   W04
        BYTE                   40
        BYTE   W05
        BYTE                   39
        BYTE   W03
        BYTE                   38
        BYTE   W04
        BYTE                   37
        BYTE   W05
        BYTE                   36
        BYTE   W04
        BYTE                   35
        BYTE   W02
        BYTE                   34
        BYTE   W03
        BYTE                   33
        BYTE   W04
        BYTE                   32
        BYTE   W02
        BYTE                   31
        BYTE   W03
        BYTE                   30
        BYTE   W03
        BYTE                   29
        BYTE   W01
        BYTE   GoTo
         POIN2  knightsoath2_3_LOOP
        BYTE   W02
        BYTE                   28
        BYTE   W01
        BYTE                   27
        BYTE   W03
        BYTE                   26
        BYTE   W03
        BYTE                   25
        BYTE   W02
        BYTE                   24
        BYTE   W03
        BYTE                   23
        BYTE   W01
        BYTE                   22
        BYTE   W02
        BYTE                   21
        BYTE   W03
        BYTE                   20
        BYTE   W01
        BYTE                   19
        BYTE   W02
        BYTE                   18
        BYTE   W01
        BYTE                   17
        BYTE   W02
        BYTE                   16
        BYTE   W03
        BYTE                   14
        BYTE   W03
        BYTE                   13
        BYTE   W01
        BYTE                   11
        BYTE   W03
// 029   ----------------------------------------
        BYTE   PATT
         POIN2  knightsoath2_3_5
// 030   ----------------------------------------
        BYTE   W60
        BYTE   W03
        BYTE   FINE

//****************** Track 4 (Midi-Chn.4) ******************//

knightsoath2_4:
        BYTE   KEYSH   knightsoath2_key+0
// 000   ----------------------------------------
        BYTE           VOICE   97
        BYTE           VOL     36
        BYTE           PAN     c_v-26
        BYTE   W16
        BYTE           VOL     18
        BYTE           N08     As2   v075
        BYTE   W03
        BYTE           VOL     19
        BYTE   W04
        BYTE                   20
        BYTE   W01
        BYTE           N08     Cn3
        BYTE   W02
        BYTE           VOL     21
        BYTE   W03
        BYTE                   22
        BYTE   W03
        BYTE           N08     Dn3
        BYTE   W02
        BYTE           VOL     23
        BYTE   W01
        BYTE                   24
        BYTE   W03
        BYTE                   25
        BYTE   W02
        BYTE           N23     Dn3   v064
        BYTE   W01
        BYTE           VOL     26
        BYTE   W02
        BYTE                   27
        BYTE   W03
        BYTE                   28
        BYTE   W01
        BYTE                   29
        BYTE   W02
        BYTE                   30
        BYTE   W01
        BYTE                   31
        BYTE   W02
        BYTE                   32
        BYTE   W01
        BYTE                   33
        BYTE   W02
        BYTE                   34
        BYTE   W01
        BYTE                   35
        BYTE   W01
        BYTE                   36
        BYTE   W07
        BYTE           N68     En3   v087   gtp3
        BYTE   W07
        BYTE           VOL     35
        BYTE   W03
        BYTE                   34
        BYTE   W03
        BYTE                   33
        BYTE   W03
        BYTE                   32
        BYTE   W03
        BYTE                   31
        BYTE   W03
        BYTE                   30
        BYTE   W02
        BYTE                   29
        BYTE   W01
        BYTE                   28
        BYTE   W03
        BYTE                   27
        BYTE   W02
        BYTE                   26
        BYTE   W01
        BYTE                   25
        BYTE   W01
// 001   ----------------------------------------
        BYTE   W01
        BYTE                   24
        BYTE   W03
        BYTE                   22
        BYTE   W03
        BYTE                   20
        BYTE   W01
        BYTE                   19
        BYTE   W02
        BYTE                   18
        BYTE   W01
        BYTE                   16
        BYTE   W02
        BYTE                   15
        BYTE   W01
        BYTE                   14
        BYTE   W02
        BYTE                   12
        BYTE   W18
        BYTE                   13
        BYTE   W06
        BYTE           TIE     En3   v106
        BYTE   W06
        BYTE           VOL     14
        BYTE   W12
        BYTE                   15
        BYTE   W09
        BYTE                   16
        BYTE   W06
        BYTE                   17
        BYTE   W06
        BYTE                   18
        BYTE   W06
        BYTE                   19
        BYTE   W06
        BYTE                   20
        BYTE   W03
        BYTE                   21
        BYTE   W02
// 002   ----------------------------------------
        BYTE   W01
        BYTE                   22
        BYTE   W06
        BYTE                   23
        BYTE   W03
        BYTE                   24
        BYTE   W03
        BYTE                   26
        BYTE   W03
        BYTE                   27
        BYTE   W03
        BYTE                   28
        BYTE   W03
        BYTE                   30
        BYTE   W03
        BYTE                   32
        BYTE   W03
        BYTE                   34
        BYTE   W02
        BYTE                   36
        BYTE   W21
        BYTE           EOT
        BYTE   W01
        BYTE           N05     Dn3   v095
        BYTE   W06
        BYTE                   En3   v107
        BYTE   W06
        BYTE           N92     En3   v104   gtp3
        BYTE   W32
// 003   ----------------------------------------
knightsoath2_4_3:
        BYTE   W64
        BYTE           TIE     Fn3   v092
        BYTE   W24
        BYTE   W01
        BYTE           VOL     35
        BYTE   W07
        BYTE   PEND
// 004   ----------------------------------------
        BYTE   W02
        BYTE                   34
        BYTE   W06
        BYTE                   33
        BYTE   W06
        BYTE                   32
        BYTE   W06
        BYTE                   31
        BYTE   W03
        BYTE                   30
        BYTE   W06
        BYTE                   29
        BYTE   W03
        BYTE                   28
        BYTE   W03
        BYTE                   27
        BYTE   W03
        BYTE                   26
        BYTE   W06
        BYTE                   24
        BYTE   W03
        BYTE                   23
        BYTE   W03
        BYTE                   22
        BYTE   W03
        BYTE                   20
        BYTE   W03
        BYTE                   19
        BYTE   W03
        BYTE                   17
        BYTE   W01
knightsoath2_4_LOOP:
        BYTE           VOL     16
        BYTE   W09
        BYTE                   17
        BYTE   W09
        BYTE                   18
        BYTE   W09
        BYTE                   19
        BYTE   W06
        BYTE                   20
        BYTE   W03
// 005   ----------------------------------------
knightsoath2_4_5:
        BYTE   W03
        BYTE           VOL     21
        BYTE   W06
        BYTE                   22
        BYTE   W06
        BYTE                   23
        BYTE   W06
        BYTE                   24
        BYTE   W03
        BYTE                   25
        BYTE   W06
        BYTE                   26
        BYTE   W03
        BYTE                   27
        BYTE   W03
        BYTE                   28
        BYTE   W03
        BYTE                   29
        BYTE   W06
        BYTE                   31
        BYTE   W06
        BYTE                   33
        BYTE   W03
        BYTE                   34
        BYTE   W03
        BYTE                   35
        BYTE   W02
        BYTE                   36
        BYTE   W04
        BYTE           EOT     Fn3
        BYTE   W01
        BYTE           N44     Gn3   v084   gtp3
        BYTE   W32
        BYTE   PEND
// 006   ----------------------------------------
        BYTE   W16
        BYTE           N23     Fn3
        BYTE   W24
        BYTE                   En3
        BYTE   W24
        BYTE           N68     Dn3   v084   gtp3
        BYTE   W16
        BYTE           VOL     35
        BYTE   W15
        BYTE                   34
        BYTE   W01
// 007   ----------------------------------------
        BYTE   W10
        BYTE                   33
        BYTE   W15
        BYTE                   32
        BYTE   W11
        BYTE                   31
        BYTE   W04
        BYTE           N15     En3
        BYTE   W11
        BYTE           VOL     30
        BYTE   W05
        BYTE           N07     Dn3
        BYTE   W06
        BYTE           VOL     29
        BYTE   W02
        BYTE           N44     En3   v084   gtp3
        BYTE   W13
        BYTE           VOL     28
        BYTE   W12
        BYTE                   27
        BYTE   W07
// 008   ----------------------------------------
        BYTE   W07
        BYTE                   26
        BYTE   W09
        BYTE           N44     An1   v084   gtp3
        BYTE   W06
        BYTE           VOL     25
        BYTE   W12
        BYTE                   24
        BYTE   W14
        BYTE                   23
        BYTE   W12
        BYTE                   22
        BYTE   W04
        BYTE           N44     Fn3   v073   gtp3
        BYTE   W21
        BYTE           VOL     23
        BYTE   W11
// 009   ----------------------------------------
        BYTE   W04
        BYTE                   24
        BYTE   W12
        BYTE           N92     En3   v073   gtp3
        BYTE   W03
        BYTE           VOL     25
        BYTE   W09
        BYTE                   26
        BYTE   W09
        BYTE                   27
        BYTE   W06
        BYTE                   28
        BYTE   W03
        BYTE                   29
        BYTE   W06
        BYTE                   30
        BYTE   W03
        BYTE                   31
        BYTE   W03
        BYTE                   32
        BYTE   W03
        BYTE                   34
        BYTE   W03
        BYTE                   35
        BYTE   W01
        BYTE                   36
        BYTE   W30
        BYTE   W01
// 010   ----------------------------------------
        BYTE                   35
        BYTE   W12
        BYTE                   34
        BYTE   W04
        BYTE           N44     Dn3   v072   gtp3
        BYTE   W02
        BYTE           VOL     33
        BYTE   W06
        BYTE                   32
        BYTE   W06
        BYTE                   31
        BYTE   W06
        BYTE                   30
        BYTE   W03
        BYTE                   29
        BYTE   W06
        BYTE                   28
        BYTE   W03
        BYTE                   27
        BYTE   W03
        BYTE                   26
        BYTE   W03
        BYTE                   25
        BYTE   W03
        BYTE                   24
        BYTE   W03
        BYTE                   22
        BYTE   W03
        BYTE                   21
        BYTE   W01
        BYTE                   20
        BYTE           N44     Cn3   v073   gtp3
        BYTE   W12
        BYTE           VOL     21
        BYTE   W15
        BYTE                   22
        BYTE   W05
// 011   ----------------------------------------
        BYTE   W13
        BYTE                   23
        BYTE   W03
        BYTE           N44     Fn3   v072   gtp3
        BYTE   W09
        BYTE           VOL     24
        BYTE   W15
        BYTE                   25
        BYTE   W09
        BYTE                   26
        BYTE   W09
        BYTE                   27
        BYTE   W06
        BYTE           N44     En3   v068   gtp3
        BYTE   W06
        BYTE           VOL     28
        BYTE   W06
        BYTE                   29
        BYTE   W09
        BYTE                   30
        BYTE   W06
        BYTE                   31
        BYTE   W05
// 012   ----------------------------------------
        BYTE   W01
        BYTE                   32
        BYTE   W03
        BYTE                   33
        BYTE   W06
        BYTE                   34
        BYTE   W06
        BYTE                   35
        BYTE           N44     Fn3   v073   gtp2
        BYTE   W03
        BYTE           VOL     36
        BYTE   W44
        BYTE   W01
        BYTE           N44     Dn3   v070   gtp2
        BYTE   W19
        BYTE           VOL     35
        BYTE   W13
// 013   ----------------------------------------
        BYTE   W08
        BYTE                   34
        BYTE   W08
        BYTE           N48     Cn3   v076
        BYTE   W04
        BYTE           VOL     33
        BYTE   W15
        BYTE                   32
        BYTE   W09
        BYTE                   31
        BYTE   W12
        BYTE                   30
        BYTE   W06
        BYTE                   29
        BYTE   W02
        BYTE           N44     Bn2   v078   gtp3
        BYTE   W10
        BYTE           VOL     28
        BYTE   W06
        BYTE                   27
        BYTE   W06
        BYTE                   26
        BYTE   W09
        BYTE                   25
        BYTE   W01
// 014   ----------------------------------------
        BYTE   W02
        BYTE                   24
        BYTE   W06
        BYTE                   23
        BYTE   W03
        BYTE                   22
        BYTE   W05
        BYTE                   21
        BYTE           N23     En3   v069
        BYTE   W03
        BYTE           VOL     22
        BYTE   W07
        BYTE                   23
        BYTE   W05
        BYTE                   24
        BYTE   W06
        BYTE                   25
        BYTE   W03
        BYTE                   26
        BYTE           N23     Fn3   v075
        BYTE   W04
        BYTE           VOL     27
        BYTE   W03
        BYTE                   28
        BYTE   W03
        BYTE                   29
        BYTE   W03
        BYTE                   30
        BYTE   W02
        BYTE                   31
        BYTE   W01
        BYTE                   32
        BYTE   W02
        BYTE                   33
        BYTE   W01
        BYTE                   34
        BYTE   W02
        BYTE                   35
        BYTE   W01
        BYTE                   36
        BYTE   W02
        BYTE           N92     Gn3   v069   gtp3
        BYTE   W32
// 015   ----------------------------------------
        BYTE   W13
        BYTE           VOL     35
        BYTE   W18
        BYTE                   34
        BYTE   W12
        BYTE                   33
        BYTE   W12
        BYTE                   32
        BYTE   W06
        BYTE                   31
        BYTE   W03
        BYTE           N23     Cs2   v082
        BYTE   W06
        BYTE           VOL     30
        BYTE   W06
        BYTE                   29
        BYTE   W06
        BYTE                   28
        BYTE   W03
        BYTE                   27
        BYTE   W03
        BYTE           N23     Dn2   v083
        BYTE   W03
        BYTE           VOL     26
        BYTE   W03
        BYTE                   25
        BYTE   W02
// 016   ----------------------------------------
        BYTE   W01
        BYTE                   24
        BYTE   W06
        BYTE                   22
        BYTE   W03
        BYTE                   21
        BYTE   W03
        BYTE                   20
        BYTE   W03
        BYTE                   10
        BYTE           TIE     En2   v082
        BYTE   W03
        BYTE           VOL     11
        BYTE   W04
        BYTE                   12
        BYTE   W06
        BYTE                   13
        BYTE   W03
        BYTE                   14
        BYTE   W05
        BYTE                   15
        BYTE   W01
        BYTE                   16
        BYTE   W03
        BYTE                   17
        BYTE   W02
        BYTE                   18
        BYTE   W03
        BYTE                   19
        BYTE   W01
        BYTE                   20
        BYTE   W02
        BYTE                   21
        BYTE   W01
        BYTE                   22
        BYTE   W02
        BYTE                   24
        BYTE   W01
        BYTE                   26
        BYTE   W02
        BYTE                   27
        BYTE   W01
        BYTE                   29
        BYTE   W02
        BYTE                   32
        BYTE   W01
        BYTE                   35
        BYTE   W01
        BYTE                   36
        BYTE   W16
        BYTE                   35
        BYTE   W05
        BYTE                   34
        BYTE   W03
        BYTE                   33
        BYTE   W03
        BYTE                   32
        BYTE   W03
        BYTE                   31
        BYTE   W03
        BYTE                   30
        BYTE   W03
// 017   ----------------------------------------
        BYTE                   29
        BYTE   W03
        BYTE                   28
        BYTE   W01
        BYTE                   27
        BYTE   W03
        BYTE                   26
        BYTE   W02
        BYTE                   25
        BYTE   W01
        BYTE                   24
        BYTE   W03
        BYTE                   23
        BYTE   W02
        BYTE                   22
        BYTE   W01
        BYTE                   21
        BYTE   W02
        BYTE                   20
        BYTE   W01
        BYTE                   19
        BYTE   W02
        BYTE                   18
        BYTE   W01
        BYTE                   17
        BYTE   W02
        BYTE                   16
        BYTE   W01
        BYTE                   15
        BYTE   W02
        BYTE           EOT
        BYTE           VOL     13
        BYTE   W01
        BYTE                   12
        BYTE   W02
        BYTE                   11
        BYTE   W01
        BYTE                   9
        BYTE   W02
        BYTE                   8
        BYTE   W01
        BYTE                   6
        BYTE   W02
        BYTE                   4
        BYTE   W01
        BYTE                   2
        BYTE   W02
        BYTE                   0
        BYTE   W56
        BYTE   W01
// 018   ----------------------------------------
        BYTE   W96
// 019   ----------------------------------------
        BYTE   W96
// 020   ----------------------------------------
        BYTE   W64
        BYTE                   20
        BYTE   W15
        BYTE                   21
        BYTE   W09
        BYTE                   22
        BYTE   W08
// 021   ----------------------------------------
        BYTE   W04
        BYTE                   23
        BYTE   W06
        BYTE                   24
        BYTE   W09
        BYTE                   25
        BYTE   W06
        BYTE                   26
        BYTE   W06
        BYTE                   27
        BYTE   W06
        BYTE                   28
        BYTE   W03
        BYTE                   29
        BYTE   W06
        BYTE                   30
        BYTE   W03
        BYTE                   31
        BYTE   W03
        BYTE                   32
        BYTE   W03
        BYTE                   33
        BYTE   W03
        BYTE                   34
        BYTE   W03
        BYTE                   35
        BYTE   W02
        BYTE                   36
        BYTE   W32
        BYTE   W01
// 022   ----------------------------------------
        BYTE   W01
        BYTE                   35
        BYTE   W15
        BYTE                   34
        BYTE   W06
        BYTE                   33
        BYTE   W09
        BYTE                   32
        BYTE   W06
        BYTE                   31
        BYTE   W06
        BYTE                   30
        BYTE   W03
        BYTE                   29
        BYTE   W03
        BYTE                   28
        BYTE   W03
        BYTE                   27
        BYTE   W03
        BYTE                   26
        BYTE   W03
        BYTE                   25
        BYTE   W03
        BYTE                   23
        BYTE   W03
        BYTE                   22
        BYTE   W15
        BYTE                   23
        BYTE   W12
        BYTE                   24
        BYTE   W05
// 023   ----------------------------------------
        BYTE   W07
        BYTE                   25
        BYTE   W06
        BYTE                   26
        BYTE   W09
        BYTE                   27
        BYTE   W06
        BYTE                   28
        BYTE   W06
        BYTE                   29
        BYTE   W03
        BYTE                   30
        BYTE   W06
        BYTE                   31
        BYTE   W03
        BYTE                   32
        BYTE   W03
        BYTE                   33
        BYTE   W03
        BYTE                   34
        BYTE   W03
        BYTE                   35
        BYTE   W01
        BYTE                   36
        BYTE   W08
        BYTE           N36     Fn3   v084   gtp2
        BYTE   W32
// 024   ----------------------------------------
        BYTE   W08
        BYTE           N03     En3   v092
        BYTE   W04
        BYTE           N02     Ds3
        BYTE   W04
        BYTE           N24     Dn3   v084
        BYTE   W24
        BYTE           N03     Cn3   v094
        BYTE   W04
        BYTE                   Cs3
        BYTE   W04
        BYTE                   Dn3
        BYTE   W04
        BYTE           N11     Ds3
        BYTE   W12
        BYTE           TIE     En3   v106
        BYTE   W07
        BYTE           VOL     35
        BYTE   W02
        BYTE                   33
        BYTE   W01
        BYTE                   32
        BYTE   W02
        BYTE                   31
        BYTE   W01
        BYTE                   29
        BYTE   W02
        BYTE                   28
        BYTE   W01
        BYTE                   26
        BYTE   W02
        BYTE                   25
        BYTE   W01
        BYTE                   24
        BYTE   W02
        BYTE                   22
        BYTE   W01
        BYTE                   21
        BYTE   W02
        BYTE                   20
        BYTE   W01
        BYTE                   18
        BYTE   W02
        BYTE                   17
        BYTE   W01
        BYTE                   15
        BYTE   W02
        BYTE                   14
        BYTE   W01
        BYTE                   12
        BYTE   W01
// 025   ----------------------------------------
        BYTE   W21
        BYTE                   13
        BYTE   W12
        BYTE                   14
        BYTE   W15
        BYTE                   15
        BYTE   W09
        BYTE                   16
        BYTE   W09
        BYTE                   17
        BYTE   W06
        BYTE                   18
        BYTE   W09
        BYTE                   19
        BYTE   W03
        BYTE                   20
        BYTE   W06
        BYTE                   21
        BYTE   W03
        BYTE                   22
        BYTE   W03
// 026   ----------------------------------------
        BYTE   W03
        BYTE                   23
        BYTE   W03
        BYTE                   24
        BYTE   W03
        BYTE                   25
        BYTE   W03
        BYTE                   26
        BYTE   W03
        BYTE                   27
        BYTE   W03
        BYTE                   29
        BYTE   W03
        BYTE                   30
        BYTE   W03
        BYTE                   32
        BYTE   W03
        BYTE                   34
        BYTE   W03
        BYTE                   36
        BYTE   W21
        BYTE           EOT
        BYTE   W01
        BYTE           N05     Dn3   v095
        BYTE   W06
        BYTE                   En3   v107
        BYTE   W06
        BYTE           N92     En3   v104   gtp3
        BYTE   W32
// 027   ----------------------------------------
        BYTE   PATT
         POIN2  knightsoath2_4_3
// 028   ----------------------------------------
        BYTE   W02
        BYTE           VOL     34
        BYTE   W06
        BYTE                   33
        BYTE   W06
        BYTE                   32
        BYTE   W06
        BYTE                   31
        BYTE   W03
        BYTE                   30
        BYTE   W06
        BYTE                   29
        BYTE   W03
        BYTE                   28
        BYTE   W03
        BYTE                   27
        BYTE   W03
        BYTE                   26
        BYTE   W06
        BYTE                   24
        BYTE   W03
        BYTE                   23
        BYTE   W03
        BYTE                   22
        BYTE   W03
        BYTE                   20
        BYTE   W03
        BYTE                   19
        BYTE   W03
        BYTE                   17
        BYTE   W01
        BYTE                   16
        BYTE   GoTo
         POIN2  knightsoath2_4_LOOP
        BYTE   W09
        BYTE                   17
        BYTE   W09
        BYTE                   18
        BYTE   W09
        BYTE                   19
        BYTE   W06
        BYTE                   20
        BYTE   W03
// 029   ----------------------------------------
        BYTE   PATT
         POIN2  knightsoath2_4_5
// 030   ----------------------------------------
        BYTE   W16
        BYTE           N23     Fn3   v084
        BYTE   W44
        BYTE   W03
        BYTE   FINE

//****************** Track 5 (Midi-Chn.5) ******************//

knightsoath2_5:
        BYTE   KEYSH   knightsoath2_key+0
// 000   ----------------------------------------
        BYTE           VOICE   96
        BYTE           VOL     38
        BYTE   W64
        BYTE           PAN     c_v+22
        BYTE           VOL     25
        BYTE   W32
// 001   ----------------------------------------
knightsoath2_5_1:
        BYTE   W16
        BYTE           N92     An2   v067   gtp3
        BYTE   W66
        BYTE           VOL     26
        BYTE   W09
        BYTE                   27
        BYTE   W05
        BYTE   PEND
// 002   ----------------------------------------
knightsoath2_5_2:
        BYTE   W04
        BYTE           VOL     28
        BYTE   W06
        BYTE                   29
        BYTE   W06
        BYTE           N84     Cn3   v067   gtp3
        BYTE           VOL     30
        BYTE   W03
        BYTE                   31
        BYTE   W03
        BYTE                   32
        BYTE   W03
        BYTE                   33
        BYTE   W03
        BYTE                   35
        BYTE   W03
        BYTE                   37
        BYTE   W02
        BYTE                   38
        BYTE   W60
        BYTE   W03
        BYTE   PEND
// 003   ----------------------------------------
knightsoath2_5_3:
        BYTE   W08
        BYTE           N07     Cn3   v029
        BYTE   W08
        BYTE           N23     Cn3   v066
        BYTE   W24
        BYTE                   Dn3
        BYTE   W24
        BYTE                   Cn3   v067
        BYTE   W08
        BYTE           VOL     37
        BYTE   W04
        BYTE                   36
        BYTE   W03
        BYTE                   35
        BYTE   W03
        BYTE                   34
        BYTE   W05
        BYTE                   33
        BYTE   W01
        BYTE           N23     An2
        BYTE           VOL     32
        BYTE   W03
        BYTE                   31
        BYTE   W02
        BYTE                   30
        BYTE   W01
        BYTE                   29
        BYTE   W02
        BYTE   PEND
// 004   ----------------------------------------
        BYTE                   28
        BYTE   W03
        BYTE                   26
        BYTE   W01
        BYTE                   25
        BYTE   W02
        BYTE                   24
        BYTE   W01
        BYTE                   22
        BYTE   W09
        BYTE           N90     An3   v067   gtp1
        BYTE   W04
        BYTE           VOL     23
        BYTE   W09
        BYTE                   24
        BYTE   W03
        BYTE                   25
        BYTE   W09
        BYTE                   26
        BYTE   W03
        BYTE                   27
        BYTE   W03
        BYTE                   28
        BYTE   W03
        BYTE                   29
        BYTE   W03
        BYTE                   30
        BYTE   W03
        BYTE                   31
        BYTE   W03
        BYTE                   32
        BYTE   W01
knightsoath2_5_LOOP:
        BYTE   W02
        BYTE           VOL     34
        BYTE   W03
        BYTE                   36
        BYTE   W03
        BYTE                   38
        BYTE   W12
        BYTE                   37
        BYTE   W05
        BYTE                   36
        BYTE   W03
        BYTE                   35
        BYTE   W03
        BYTE                   34
        BYTE   W03
        BYTE                   33
        BYTE   W02
// 005   ----------------------------------------
knightsoath2_5_5:
        BYTE   W01
        BYTE           VOL     32
        BYTE   W01
        BYTE                   31
        BYTE   W02
        BYTE                   30
        BYTE   W01
        BYTE                   29
        BYTE   W02
        BYTE                   28
        BYTE   W01
        BYTE                   27
        BYTE   W02
        BYTE                   26
        BYTE   W01
        BYTE                   25
        BYTE   W01
        BYTE           N03     An3   v029
        BYTE   W01
        BYTE           VOL     24
        BYTE   W01
        BYTE                   22
        BYTE   W02
        BYTE                   20
        BYTE           N68     Bn2   v067   gtp3
        BYTE   W04
        BYTE           VOL     21
        BYTE   W05
        BYTE                   22
        BYTE   W04
        BYTE                   23
        BYTE   W03
        BYTE                   24
        BYTE   W03
        BYTE                   25
        BYTE   W03
        BYTE                   26
        BYTE   W03
        BYTE                   27
        BYTE   W02
        BYTE                   28
        BYTE   W03
        BYTE                   29
        BYTE   W01
        BYTE                   30
        BYTE   W02
        BYTE                   31
        BYTE   W03
        BYTE                   33
        BYTE   W01
        BYTE                   34
        BYTE   W02
        BYTE                   35
        BYTE   W01
        BYTE                   36
        BYTE   W02
        BYTE                   37
        BYTE   W01
        BYTE                   38
        BYTE   W28
        BYTE   W01
        BYTE           N23     Gn2
        BYTE   W08
        BYTE   PEND
// 006   ----------------------------------------
        BYTE   W16
        BYTE                   Bn2
        BYTE   W24
        BYTE           N19     Dn3
        BYTE   W20
        BYTE           N03     Fn3   v074
        BYTE   W04
        BYTE                   Fs3
        BYTE   W04
        BYTE           N19     Gn3   v067
        BYTE   W13
        BYTE           VOL     37
        BYTE   W07
        BYTE           N80     As2   v067   gtp3
        BYTE   W08
// 007   ----------------------------------------
        BYTE   W18
        BYTE           VOL     36
        BYTE   W19
        BYTE                   35
        BYTE   W15
        BYTE                   34
        BYTE   W19
        BYTE                   33
        BYTE   W09
        BYTE           N07     As2   v037
        BYTE   W06
        BYTE           VOL     32
        BYTE   W02
        BYTE           N15     En3   v088
        BYTE   W05
        BYTE           VOL     31
        BYTE   W03
// 008   ----------------------------------------
        BYTE   W08
        BYTE           N03     Ds3   v095
        BYTE   W04
        BYTE                   Dn3
        BYTE           VOL     30
        BYTE   W04
        BYTE           N23     Cs3   v088
        BYTE   W04
        BYTE           VOL     29
        BYTE   W07
        BYTE                   28
        BYTE   W12
        BYTE                   27
        BYTE   W01
        BYTE           N23     An2
        BYTE   W02
        BYTE           VOL     26
        BYTE   W06
        BYTE           VOICE   71
        BYTE   W02
        BYTE           VOL     25
        BYTE   W07
        BYTE                   24
        BYTE   W04
        BYTE                   23
        BYTE   W03
        BYTE           PAN     c_v-20
        BYTE           VOL     38
        BYTE           N07     An3   v060
        BYTE   W08
        BYTE                   Dn4   v084
        BYTE   W08
        BYTE                   An3   v066
        BYTE   W08
        BYTE           N05     An4   v087
        BYTE   W08
// 009   ----------------------------------------
        BYTE   W08
        BYTE           N07     An4   v067
        BYTE   W08
        BYTE                   Dn4
        BYTE   W08
        BYTE           N05     En4   v069
        BYTE   W08
        BYTE           N07     Dn4   v052
        BYTE   W08
        BYTE           N09     An4   v075
        BYTE   W16
        BYTE           N07     An4   v057
        BYTE   W08
        BYTE                   An3   v084
        BYTE   W08
        BYTE                   Dn4   v093
        BYTE   W08
        BYTE                   An3   v072
        BYTE   W08
        BYTE                   An4   v084
        BYTE   W08
// 010   ----------------------------------------
        BYTE   W08
        BYTE                   An4   v075
        BYTE   W08
        BYTE                   Dn4   v078
        BYTE   W08
        BYTE                   En4   v081
        BYTE   W08
        BYTE                   Dn4   v069
        BYTE   W08
        BYTE           N06     An4   v081
        BYTE   W16
        BYTE           N07     Dn5   v072
        BYTE   W08
        BYTE                   An3   v069
        BYTE   W08
        BYTE                   Dn4   v081
        BYTE   W08
        BYTE                   An3   v069
        BYTE   W08
        BYTE                   An4   v048
        BYTE   W08
// 011   ----------------------------------------
        BYTE   W08
        BYTE                   An4   v093
        BYTE   W08
        BYTE                   An3   v081
        BYTE   W08
        BYTE           N05     Dn4   v095
        BYTE   W08
        BYTE           N04     An3   v076
        BYTE   W08
        BYTE           N06     An4   v095
        BYTE   W16
        BYTE                   An4   v072
        BYTE   W08
        BYTE           N07     Gn3   v087
        BYTE   W08
        BYTE           N06     Dn4   v072
        BYTE   W08
        BYTE           N07     Gn3
        BYTE   W08
        BYTE           N06     Gn4   v055
        BYTE           N06     An4   v093
        BYTE   W08
// 012   ----------------------------------------
        BYTE   W08
        BYTE           N07     Gn4   v052
        BYTE           N07     An4   v090
        BYTE   W08
        BYTE                   An3   v081
        BYTE   W08
        BYTE                   Dn4
        BYTE   W08
        BYTE                   Gn4   v095
        BYTE   W08
        BYTE           N05     An4   v087
        BYTE   W08
        BYTE           N07     Gn4   v076
        BYTE   W08
        BYTE           N03     En4   v066
        BYTE   W08
        BYTE           N07     Dn4   v095
        BYTE   W08
        BYTE           N06     An4   v093
        BYTE   W08
        BYTE           N07     Dn4   v081
        BYTE   W08
        BYTE           N06     Dn5   v084
        BYTE   W08
// 013   ----------------------------------------
        BYTE   W08
        BYTE           N05     Dn5   v072
        BYTE   W08
        BYTE           N07     Dn4   v078
        BYTE   W08
        BYTE                   An4   v095
        BYTE   W08
        BYTE                   Dn4   v072
        BYTE   W08
        BYTE                   Dn5   v076
        BYTE   W16
        BYTE           N06     Dn5   v073
        BYTE   W08
        BYTE           N07     Dn4   v085
        BYTE   W08
        BYTE                   En4   v084
        BYTE   W08
        BYTE                   Dn4   v078
        BYTE   W08
        BYTE           N08     Gn4   v081
        BYTE   W08
// 014   ----------------------------------------
        BYTE   W08
        BYTE           N06     Dn5   v090
        BYTE   W08
        BYTE           N07     Gn4   v072
        BYTE   W08
        BYTE                   An4   v095
        BYTE   W08
        BYTE                   Gn4   v090
        BYTE   W08
        BYTE                   Dn5   v095
        BYTE   W16
        BYTE                   Gn5   v078
        BYTE   W08
        BYTE                   Dn4   v091
        BYTE   W08
        BYTE                   An4   v095
        BYTE   W08
        BYTE                   Dn4
        BYTE   W08
        BYTE                   Dn5   v093
        BYTE   W08
// 015   ----------------------------------------
        BYTE   W08
        BYTE           N06     Dn5   v091
        BYTE   W08
        BYTE           N07     Dn4   v075
        BYTE   W08
        BYTE                   An4   v095
        BYTE   W08
        BYTE                   Dn4   v091
        BYTE   W08
        BYTE           N06     Dn5   v087
        BYTE   W16
        BYTE           N07     Dn5   v088
        BYTE   W08
        BYTE                   Dn4   v075
        BYTE   W08
        BYTE                   An4   v095
        BYTE   W08
        BYTE                   Dn4   v091
        BYTE   W08
        BYTE           N06     Dn5   v087
        BYTE   W08
// 016   ----------------------------------------
        BYTE   W08
        BYTE           N07     Dn5   v088
        BYTE   W08
        BYTE                   Cs5   v067
        BYTE   W08
        BYTE                   An4
        BYTE   W08
        BYTE                   As4
        BYTE   W08
        BYTE           N03     An4   v095
        BYTE   W04
        BYTE                   Gn4
        BYTE   W04
        BYTE                   En4
        BYTE   W04
        BYTE                   Dn4
        BYTE   W04
        BYTE                   Cs4
        BYTE   W04
        BYTE                   An3
        BYTE   W36
// 017   ----------------------------------------
        BYTE           VOICE   56
        BYTE   W96
// 018   ----------------------------------------
        BYTE   W96
// 019   ----------------------------------------
        BYTE   W96
// 020   ----------------------------------------
        BYTE   W96
// 021   ----------------------------------------
        BYTE   W96
// 022   ----------------------------------------
        BYTE   W96
// 023   ----------------------------------------
        BYTE   W96
// 024   ----------------------------------------
        BYTE   W64
        BYTE           PAN     c_v+22
        BYTE           VOL     25
        BYTE   W32
// 025   ----------------------------------------
        BYTE   PATT
         POIN2  knightsoath2_5_1
// 026   ----------------------------------------
        BYTE   PATT
         POIN2  knightsoath2_5_2
// 027   ----------------------------------------
        BYTE   PATT
         POIN2  knightsoath2_5_3
// 028   ----------------------------------------
        BYTE           VOL     28
        BYTE   W03
        BYTE                   26
        BYTE   W01
        BYTE                   25
        BYTE   W02
        BYTE                   24
        BYTE   W01
        BYTE                   22
        BYTE   W09
        BYTE           N90     An3   v067   gtp1
        BYTE   W04
        BYTE           VOL     23
        BYTE   W09
        BYTE                   24
        BYTE   W03
        BYTE                   25
        BYTE   W09
        BYTE                   26
        BYTE   W03
        BYTE                   27
        BYTE   W03
        BYTE                   28
        BYTE   W03
        BYTE                   29
        BYTE   W03
        BYTE                   30
        BYTE   W03
        BYTE                   31
        BYTE   W03
        BYTE                   32
        BYTE   W01
        BYTE           VOICE   96
        BYTE   GoTo
         POIN2  knightsoath2_5_LOOP
        BYTE   W02
        BYTE           VOL     34
        BYTE   W03
        BYTE                   36
        BYTE   W03
        BYTE                   38
        BYTE   W12
        BYTE                   37
        BYTE   W05
        BYTE                   36
        BYTE   W03
        BYTE                   35
        BYTE   W03
        BYTE                   34
        BYTE   W03
        BYTE                   33
        BYTE   W02
// 029   ----------------------------------------
        BYTE   PATT
         POIN2  knightsoath2_5_5
// 030   ----------------------------------------
        BYTE   W16
        BYTE           N23     Bn2   v067
        BYTE   W44
        BYTE   W03
        BYTE   FINE

//****************** Track 6 (Midi-Chn.7) ******************//

knightsoath2_6:
        BYTE   KEYSH   knightsoath2_key+0
// 000   ----------------------------------------
        BYTE           VOICE   122
        BYTE           VOL     32
        BYTE   W16
        BYTE           N08     Cn1   v113
        BYTE           N07     En1   v094
        BYTE   W16
        BYTE                   En1
        BYTE   W08
        BYTE           N08     Cn1   v113
        BYTE           N07     En1   v094
        BYTE   W08
        BYTE                   En1
        BYTE   W08
        BYTE           N08     Cn1   v113
        BYTE           N07     En1   v094
        BYTE   W08
        BYTE           N08     Cn1   v113
        BYTE           N07     Cs2   v063
        BYTE   W16
        BYTE           N08     En1   v092
        BYTE   W08
        BYTE                   Cn1   v104
        BYTE           N08     En1   v088
        BYTE   W08
// 001   ----------------------------------------
knightsoath2_6_1:
        BYTE   W08
        BYTE           N08     En1   v090
        BYTE   W08
        BYTE                   Cn1   v104
        BYTE           N08     En1   v088
        BYTE   W16
        BYTE                   En1   v083
        BYTE   W08
        BYTE                   Cn1   v104
        BYTE           N08     En1   v085
        BYTE   W16
        BYTE                   En1   v094
        BYTE   W08
        BYTE                   Cn1   v108
        BYTE           N08     En1   v085
        BYTE   W16
        BYTE                   En1   v097
        BYTE   W08
        BYTE                   Cn1   v113
        BYTE           N08     En1   v090
        BYTE   W08
        BYTE   PEND
// 002   ----------------------------------------
knightsoath2_6_2:
        BYTE   W08
        BYTE           N08     En1   v094
        BYTE   W08
        BYTE                   Cn1   v113
        BYTE           N08     En1   v086
        BYTE   W16
        BYTE                   Cn1   v097
        BYTE           N08     En1   v092
        BYTE   W08
        BYTE                   Cn1   v113
        BYTE           N08     En1   v092
        BYTE   W08
        BYTE                   En1   v094
        BYTE   W08
        BYTE                   Cn1   v101
        BYTE           N08     En1   v085
        BYTE   W08
        BYTE                   Cn1   v104
        BYTE           N08     En1   v097
        BYTE   W16
        BYTE                   En1   v090
        BYTE   W08
        BYTE                   Cn1   v088
        BYTE           N08     En1   v094
        BYTE   W08
        BYTE   PEND
// 003   ----------------------------------------
knightsoath2_6_3:
        BYTE   W08
        BYTE           N08     En1   v092
        BYTE   W08
        BYTE                   Cn1   v101
        BYTE           N08     En1   v086
        BYTE   W16
        BYTE                   En1   v090
        BYTE   W08
        BYTE                   Cn1   v108
        BYTE           N08     En1   v086
        BYTE   W16
        BYTE                   En1   v090
        BYTE   W08
        BYTE                   Cn1   v113
        BYTE           N08     En1   v088
        BYTE   W16
        BYTE                   En1   v090
        BYTE   W08
        BYTE                   Cn1   v101
        BYTE           N08     En1   v090
        BYTE   W08
        BYTE   PEND
// 004   ----------------------------------------
        BYTE   W08
        BYTE                   En1   v088
        BYTE   W08
        BYTE                   Cn1   v113
        BYTE           N08     En1   v094
        BYTE   W16
        BYTE                   En1   v097
        BYTE   W08
        BYTE                   Cn1   v101
        BYTE           N08     En1   v094
        BYTE   W08
        BYTE                   En1   v086
        BYTE   W08
        BYTE                   Cn1   v108
        BYTE           N08     En1   v085
        BYTE   W04
knightsoath2_6_LOOP:
        BYTE   W04
        BYTE           N08     Cn1   v094
        BYTE           N08     En1   v092
        BYTE   W16
        BYTE                   En1   v090
        BYTE   W08
        BYTE                   Cn1   v108
        BYTE           N08     En1   v090
        BYTE   W08
// 005   ----------------------------------------
knightsoath2_6_5:
        BYTE   W08
        BYTE           N08     En1   v094
        BYTE   W08
        BYTE                   Cn1   v113
        BYTE           N08     En1   v083
        BYTE   W16
        BYTE                   En1   v097
        BYTE   W08
        BYTE                   Cn1   v108
        BYTE           N08     En1   v086
        BYTE   W16
        BYTE                   En1   v094
        BYTE   W08
        BYTE                   Cn1   v108
        BYTE           N08     En1   v085
        BYTE   W16
        BYTE                   En1   v092
        BYTE   W08
        BYTE                   Cn1   v108
        BYTE           N08     En1   v085
        BYTE   W08
        BYTE   PEND
// 006   ----------------------------------------
knightsoath2_6_6:
        BYTE   W08
        BYTE           N08     En1   v092
        BYTE   W08
        BYTE                   Cn1   v108
        BYTE           N08     En1   v090
        BYTE   W16
        BYTE                   En1   v094
        BYTE   W08
        BYTE                   Cn1   v113
        BYTE           N08     En1   v090
        BYTE   W08
        BYTE                   En1   v083
        BYTE   W08
        BYTE                   Cn1   v108
        BYTE           N08     En1   v079
        BYTE   W08
        BYTE                   Cn1   v097
        BYTE           N08     En1   v099
        BYTE   W16
        BYTE                   En1   v092
        BYTE   W08
        BYTE                   Cn1   v101
        BYTE           N08     En1   v086
        BYTE   W08
        BYTE   PEND
// 007   ----------------------------------------
knightsoath2_6_7:
        BYTE           N08     En1   v088
        BYTE   W08
        BYTE                   En1   v078
        BYTE   W08
        BYTE                   Cn1   v108
        BYTE           N08     En1   v097
        BYTE   W16
        BYTE                   En1   v086
        BYTE   W08
        BYTE                   Cn1   v104
        BYTE           N08     En1   v078
        BYTE   W08
        BYTE                   En1   v088
        BYTE   W08
        BYTE                   En1   v090
        BYTE   W08
        BYTE                   Cn1   v113
        BYTE           N08     En1   v101
        BYTE   W16
        BYTE                   En1   v099
        BYTE   W08
        BYTE                   Cn1   v104
        BYTE           N08     En1   v094
        BYTE   W08
        BYTE   PEND
// 008   ----------------------------------------
knightsoath2_6_8:
        BYTE           N08     En1   v094
        BYTE   W08
        BYTE                   En1   v085
        BYTE   W08
        BYTE                   Cn1   v094
        BYTE           N08     En1   v090
        BYTE   W08
        BYTE                   Cn1   v094
        BYTE   W08
        BYTE                   Cn1   v084
        BYTE           N08     En1   v086
        BYTE   W08
        BYTE                   Cn1   v101
        BYTE           N07     Fs1   v053
        BYTE           N23     Fn5   v116
        BYTE   W08
        BYTE           N07     Gs1   v053
        BYTE   W08
        BYTE           N08     Cn1   v117
        BYTE           N07     As1   v053
        BYTE   W08
        BYTE           N08     Cn1   v113
        BYTE           N08     En1   v094
        BYTE           N02     Cs2   v063
        BYTE   W16
        BYTE           N08     En1   v092
        BYTE   W08
        BYTE                   Cn1   v104
        BYTE           N08     En1   v088
        BYTE   W08
        BYTE   PEND
// 009   ----------------------------------------
        BYTE   PATT
         POIN2  knightsoath2_6_1
// 010   ----------------------------------------
        BYTE   PATT
         POIN2  knightsoath2_6_2
// 011   ----------------------------------------
        BYTE   PATT
         POIN2  knightsoath2_6_3
// 012   ----------------------------------------
knightsoath2_6_12:
        BYTE   W08
        BYTE           N08     En1   v088
        BYTE   W08
        BYTE                   Cn1   v113
        BYTE           N08     En1   v094
        BYTE   W16
        BYTE                   En1   v097
        BYTE   W08
        BYTE                   Cn1   v101
        BYTE           N08     En1   v094
        BYTE   W08
        BYTE                   En1   v086
        BYTE   W08
        BYTE                   Cn1   v108
        BYTE           N08     En1   v085
        BYTE   W08
        BYTE                   Cn1   v094
        BYTE           N08     En1   v092
        BYTE   W16
        BYTE                   En1   v090
        BYTE   W08
        BYTE                   Cn1   v108
        BYTE           N08     En1   v090
        BYTE   W08
        BYTE   PEND
// 013   ----------------------------------------
        BYTE   PATT
         POIN2  knightsoath2_6_5
// 014   ----------------------------------------
        BYTE   PATT
         POIN2  knightsoath2_6_6
// 015   ----------------------------------------
        BYTE   PATT
         POIN2  knightsoath2_6_7
// 016   ----------------------------------------
        BYTE   PATT
         POIN2  knightsoath2_6_8
// 017   ----------------------------------------
        BYTE   PATT
         POIN2  knightsoath2_6_1
// 018   ----------------------------------------
        BYTE   PATT
         POIN2  knightsoath2_6_2
// 019   ----------------------------------------
        BYTE   PATT
         POIN2  knightsoath2_6_3
// 020   ----------------------------------------
        BYTE   PATT
         POIN2  knightsoath2_6_12
// 021   ----------------------------------------
        BYTE   PATT
         POIN2  knightsoath2_6_5
// 022   ----------------------------------------
        BYTE   PATT
         POIN2  knightsoath2_6_6
// 023   ----------------------------------------
        BYTE   PATT
         POIN2  knightsoath2_6_7
// 024   ----------------------------------------
        BYTE   PATT
         POIN2  knightsoath2_6_8
// 025   ----------------------------------------
        BYTE   PATT
         POIN2  knightsoath2_6_1
// 026   ----------------------------------------
        BYTE   PATT
         POIN2  knightsoath2_6_2
// 027   ----------------------------------------
        BYTE   PATT
         POIN2  knightsoath2_6_3
// 028   ----------------------------------------
        BYTE   W08
        BYTE           N08     En1   v088
        BYTE   W08
        BYTE                   Cn1   v113
        BYTE           N08     En1   v094
        BYTE   W16
        BYTE                   En1   v097
        BYTE   W08
        BYTE                   Cn1   v101
        BYTE           N08     En1   v094
        BYTE   W08
        BYTE                   En1   v086
        BYTE   W08
        BYTE                   Cn1   v108
        BYTE           N08     En1   v085
        BYTE   W04
        BYTE   GoTo
         POIN2  knightsoath2_6_LOOP
        BYTE   W04
        BYTE                   Cn1   v094
        BYTE           N08     En1   v092
        BYTE   W16
        BYTE                   En1   v090
        BYTE   W08
        BYTE                   Cn1   v108
        BYTE           N08     En1   v090
        BYTE   W08
// 029   ----------------------------------------
        BYTE   PATT
         POIN2  knightsoath2_6_5
// 030   ----------------------------------------
        BYTE   W08
        BYTE           N08     En1   v092
        BYTE   W08
        BYTE                   Cn1   v108
        BYTE           N08     En1   v090
        BYTE   W16
        BYTE                   En1   v094
        BYTE   W30
        BYTE   W01
        BYTE   FINE

//****************** Track 7 (Midi-Chn.8) ******************//

knightsoath2_7:
        BYTE   KEYSH   knightsoath2_key+0
// 000   ----------------------------------------
        BYTE           VOICE   16
        BYTE           VOL     39
        BYTE   W64
        BYTE           PAN     c_v-35
        BYTE           VOL     26
        BYTE           TIE     Dn3   v095
        BYTE   W05
        BYTE           PAN     c_v-34
        BYTE   W03
        BYTE                   c_v-33
        BYTE   W02
        BYTE                   c_v-32
        BYTE   W03
        BYTE                   c_v-31
        BYTE   W03
        BYTE                   c_v-30
        BYTE   W01
        BYTE           VOL     27
        BYTE   W02
        BYTE           PAN     c_v-29
        BYTE   W02
        BYTE                   c_v-28
        BYTE   W03
        BYTE                   c_v-27
        BYTE   W03
        BYTE                   c_v-26
        BYTE   W02
        BYTE                   c_v-25
        BYTE   W02
        BYTE           VOL     28
        BYTE   W01
// 001   ----------------------------------------
knightsoath2_7_1:
        BYTE           PAN     c_v-24
        BYTE   W03
        BYTE                   c_v-23
        BYTE   W03
        BYTE                   c_v-22
        BYTE   W02
        BYTE                   c_v-21
        BYTE   W03
        BYTE                   c_v-20
        BYTE   W01
        BYTE           VOL     29
        BYTE   W02
        BYTE           PAN     c_v-19
        BYTE   W03
        BYTE                   c_v-18
        BYTE   W02
        BYTE                   c_v-17
        BYTE   W03
        BYTE                   c_v-16
        BYTE   W03
        BYTE                   c_v-15
        BYTE   W02
        BYTE                   c_v-14
        BYTE   W03
        BYTE           VOL     30
        BYTE           PAN     c_v-13
        BYTE   W03
        BYTE                   c_v-12
        BYTE   W03
        BYTE                   c_v-11
        BYTE   W02
        BYTE                   c_v-10
        BYTE   W03
        BYTE                   c_v-9
        BYTE   W02
        BYTE           VOL     31
        BYTE   W01
        BYTE           PAN     c_v-8
        BYTE   W03
        BYTE                   c_v-7
        BYTE   W02
        BYTE                   c_v-6
        BYTE   W03
        BYTE                   c_v-5
        BYTE   W03
        BYTE                   c_v-4
        BYTE   W02
        BYTE           VOL     32
        BYTE           PAN     c_v-3
        BYTE   W03
        BYTE                   c_v-2
        BYTE   W03
        BYTE                   c_v-1
        BYTE   W03
        BYTE                   c_v+0
        BYTE   W02
        BYTE                   c_v+1
        BYTE   W02
        BYTE           VOL     33
        BYTE   W01
        BYTE           PAN     c_v+2
        BYTE   W03
        BYTE                   c_v+3
        BYTE   W03
        BYTE                   c_v+4
        BYTE   W02
        BYTE                   c_v+5
        BYTE   W03
        BYTE                   c_v+6
        BYTE   W03
        BYTE                   c_v+7
        BYTE   W02
        BYTE                   c_v+8
        BYTE   W01
        BYTE           VOL     34
        BYTE   W02
        BYTE           PAN     c_v+9
        BYTE   W03
        BYTE                   c_v+10
        BYTE   W03
        BYTE   PEND
// 002   ----------------------------------------
knightsoath2_7_2:
        BYTE           PAN     c_v+11
        BYTE   W02
        BYTE                   c_v+12
        BYTE   W03
        BYTE           VOL     35
        BYTE           PAN     c_v+13
        BYTE   W03
        BYTE                   c_v+14
        BYTE   W02
        BYTE                   c_v+15
        BYTE   W03
        BYTE                   c_v+16
        BYTE   W03
        BYTE                   c_v+17
        BYTE   W02
        BYTE           VOL     36
        BYTE   W01
        BYTE           PAN     c_v+18
        BYTE   W02
        BYTE                   c_v+19
        BYTE   W03
        BYTE                   c_v+20
        BYTE   W03
        BYTE                   c_v+21
        BYTE   W03
        BYTE                   c_v+22
        BYTE   W02
        BYTE           VOL     37
        BYTE           PAN     c_v+23
        BYTE   W03
        BYTE                   c_v+24
        BYTE   W03
        BYTE                   c_v+25
        BYTE   W02
        BYTE                   c_v+26
        BYTE   W03
        BYTE                   c_v+27
        BYTE   W03
        BYTE                   c_v+28
        BYTE   W03
        BYTE                   c_v+29
        BYTE   W01
        BYTE           VOL     38
        BYTE   W01
        BYTE           PAN     c_v+30
        BYTE   W03
        BYTE                   c_v+31
        BYTE   W03
        BYTE                   c_v+32
        BYTE   W03
        BYTE                   c_v+33
        BYTE   W02
        BYTE                   c_v+34
        BYTE   W01
        BYTE           EOT     Dn3
        BYTE           VOL     39
        BYTE   W01
        BYTE           PAN     c_v+35
        BYTE           TIE     Cn3   v095
        BYTE   W05
        BYTE           PAN     c_v+34
        BYTE   W03
        BYTE                   c_v+33
        BYTE   W02
        BYTE                   c_v+32
        BYTE   W03
        BYTE           VOL     38
        BYTE           PAN     c_v+31
        BYTE   W03
        BYTE                   c_v+30
        BYTE   W03
        BYTE                   c_v+29
        BYTE   W02
        BYTE                   c_v+28
        BYTE   W03
        BYTE                   c_v+27
        BYTE   W02
        BYTE           VOL     37
        BYTE   W01
        BYTE           PAN     c_v+26
        BYTE   W02
        BYTE                   c_v+25
        BYTE   W03
        BYTE   PEND
// 003   ----------------------------------------
knightsoath2_7_3:
        BYTE           PAN     c_v+24
        BYTE   W03
        BYTE                   c_v+23
        BYTE   W03
        BYTE                   c_v+22
        BYTE   W02
        BYTE                   c_v+21
        BYTE   W03
        BYTE                   c_v+20
        BYTE   W01
        BYTE           VOL     36
        BYTE   W02
        BYTE           PAN     c_v+19
        BYTE   W03
        BYTE                   c_v+18
        BYTE   W02
        BYTE                   c_v+17
        BYTE   W03
        BYTE                   c_v+16
        BYTE   W03
        BYTE                   c_v+15
        BYTE   W01
        BYTE           VOL     35
        BYTE   W01
        BYTE           PAN     c_v+14
        BYTE   W03
        BYTE                   c_v+13
        BYTE   W03
        BYTE                   c_v+12
        BYTE   W03
        BYTE                   c_v+11
        BYTE   W02
        BYTE                   c_v+10
        BYTE   W01
        BYTE           VOL     34
        BYTE   W02
        BYTE           PAN     c_v+9
        BYTE   W03
        BYTE                   c_v+8
        BYTE   W03
        BYTE                   c_v+7
        BYTE   W02
        BYTE                   c_v+6
        BYTE   W03
        BYTE                   c_v+5
        BYTE   W01
        BYTE           VOL     33
        BYTE   W02
        BYTE           PAN     c_v+4
        BYTE   W02
        BYTE                   c_v+3
        BYTE   W03
        BYTE                   c_v+2
        BYTE   W03
        BYTE                   c_v+1
        BYTE   W03
        BYTE                   c_v+0
        BYTE   W02
        BYTE                   c_v-1
        BYTE   W02
        BYTE           VOL     32
        BYTE   W01
        BYTE           PAN     c_v-2
        BYTE   W03
        BYTE                   c_v-3
        BYTE   W03
        BYTE                   c_v-4
        BYTE   W02
        BYTE                   c_v-5
        BYTE   W03
        BYTE                   c_v-6
        BYTE   W02
        BYTE           VOL     31
        BYTE   W01
        BYTE           PAN     c_v-7
        BYTE   W02
        BYTE                   c_v-8
        BYTE   W03
        BYTE                   c_v-9
        BYTE   W03
        BYTE                   c_v-10
        BYTE   W03
        BYTE   PEND
// 004   ----------------------------------------
        BYTE                   c_v-11
        BYTE   W01
        BYTE           VOL     30
        BYTE   W01
        BYTE           PAN     c_v-12
        BYTE   W03
        BYTE                   c_v-13
        BYTE   W03
        BYTE                   c_v-14
        BYTE   W02
        BYTE                   c_v-15
        BYTE   W03
        BYTE                   c_v-16
        BYTE   W02
        BYTE           VOL     29
        BYTE   W01
        BYTE           PAN     c_v-17
        BYTE   W03
        BYTE                   c_v-18
        BYTE   W02
        BYTE                   c_v-19
        BYTE   W03
        BYTE                   c_v-20
        BYTE   W03
        BYTE                   c_v-21
        BYTE   W03
        BYTE                   c_v-22
        BYTE   W02
        BYTE                   c_v-23
        BYTE   W01
        BYTE           VOL     28
        BYTE   W02
        BYTE           PAN     c_v-24
        BYTE   W03
        BYTE                   c_v-25
        BYTE   W02
        BYTE                   c_v-26
        BYTE   W03
        BYTE                   c_v-27
        BYTE   W03
        BYTE                   c_v-28
        BYTE           VOL     27
        BYTE   W03
        BYTE           PAN     c_v-29
        BYTE   W02
        BYTE                   c_v-30
        BYTE   W03
        BYTE                   c_v-31
        BYTE   W03
        BYTE                   c_v-32
        BYTE   W02
        BYTE           VOL     26
        BYTE   W01
knightsoath2_7_LOOP:
        BYTE           PAN     c_v-33
        BYTE   W02
        BYTE                   c_v-34
        BYTE   W01
        BYTE           EOT     Cn3
        BYTE   W01
        BYTE           PAN     c_v-35
        BYTE           TIE     Bn2   v095
        BYTE   W05
        BYTE           PAN     c_v-34
        BYTE   W03
        BYTE                   c_v-33
        BYTE   W02
        BYTE                   c_v-32
        BYTE   W03
        BYTE                   c_v-31
        BYTE   W03
        BYTE                   c_v-30
        BYTE   W02
        BYTE           VOL     27
        BYTE   W01
        BYTE           PAN     c_v-29
        BYTE   W02
        BYTE                   c_v-28
        BYTE   W03
        BYTE                   c_v-27
        BYTE   W03
        BYTE                   c_v-26
        BYTE   W02
        BYTE                   c_v-25
        BYTE   W02
        BYTE           VOL     28
        BYTE   W01
// 005   ----------------------------------------
knightsoath2_7_5:
        BYTE           PAN     c_v-24
        BYTE   W03
        BYTE                   c_v-23
        BYTE   W03
        BYTE                   c_v-22
        BYTE   W02
        BYTE                   c_v-21
        BYTE   W03
        BYTE                   c_v-20
        BYTE   W01
        BYTE           VOL     29
        BYTE   W02
        BYTE           PAN     c_v-19
        BYTE   W03
        BYTE                   c_v-18
        BYTE   W02
        BYTE                   c_v-17
        BYTE   W03
        BYTE                   c_v-16
        BYTE   W03
        BYTE                   c_v-15
        BYTE   W02
        BYTE                   c_v-14
        BYTE   W02
        BYTE           VOL     30
        BYTE   W01
        BYTE           PAN     c_v-13
        BYTE   W03
        BYTE                   c_v-12
        BYTE   W03
        BYTE                   c_v-11
        BYTE   W02
        BYTE                   c_v-10
        BYTE   W03
        BYTE                   c_v-9
        BYTE   W01
        BYTE           VOL     31
        BYTE   W02
        BYTE           PAN     c_v-8
        BYTE   W03
        BYTE                   c_v-7
        BYTE   W02
        BYTE                   c_v-6
        BYTE   W03
        BYTE                   c_v-5
        BYTE   W03
        BYTE                   c_v-4
        BYTE           VOL     32
        BYTE   W02
        BYTE           PAN     c_v-3
        BYTE   W03
        BYTE                   c_v-2
        BYTE   W03
        BYTE                   c_v-1
        BYTE   W03
        BYTE                   c_v+0
        BYTE   W02
        BYTE           VOL     33
        BYTE           PAN     c_v+1
        BYTE   W03
        BYTE                   c_v+2
        BYTE   W03
        BYTE                   c_v+3
        BYTE   W03
        BYTE                   c_v+4
        BYTE   W02
        BYTE                   c_v+5
        BYTE   W03
        BYTE                   c_v+6
        BYTE   W03
        BYTE                   c_v+7
        BYTE           VOL     34
        BYTE   W02
        BYTE           PAN     c_v+8
        BYTE   W03
        BYTE                   c_v+9
        BYTE   W03
        BYTE                   c_v+10
        BYTE   W03
        BYTE   PEND
// 006   ----------------------------------------
        BYTE                   c_v+11
        BYTE   W02
        BYTE           VOL     35
        BYTE           PAN     c_v+12
        BYTE   W03
        BYTE                   c_v+13
        BYTE   W03
        BYTE                   c_v+14
        BYTE   W02
        BYTE                   c_v+15
        BYTE   W03
        BYTE                   c_v+16
        BYTE   W02
        BYTE           VOL     36
        BYTE   W01
        BYTE           PAN     c_v+17
        BYTE   W03
        BYTE                   c_v+18
        BYTE   W02
        BYTE                   c_v+19
        BYTE   W03
        BYTE                   c_v+20
        BYTE   W03
        BYTE                   c_v+21
        BYTE   W01
        BYTE           VOL     37
        BYTE   W02
        BYTE           PAN     c_v+22
        BYTE   W02
        BYTE                   c_v+23
        BYTE   W03
        BYTE                   c_v+24
        BYTE   W03
        BYTE                   c_v+25
        BYTE   W02
        BYTE                   c_v+26
        BYTE   W03
        BYTE                   c_v+27
        BYTE   W02
        BYTE           VOL     38
        BYTE   W01
        BYTE           PAN     c_v+28
        BYTE   W03
        BYTE                   c_v+29
        BYTE   W02
        BYTE                   c_v+30
        BYTE   W03
        BYTE                   c_v+31
        BYTE   W03
        BYTE                   c_v+32
        BYTE   W01
        BYTE           VOL     39
        BYTE   W02
        BYTE           PAN     c_v+33
        BYTE   W02
        BYTE                   c_v+34
        BYTE   W01
        BYTE           EOT     Bn2
        BYTE   W01
        BYTE           PAN     c_v+35
        BYTE           N92     As2   v095   gtp3
        BYTE   W05
        BYTE           PAN     c_v+34
        BYTE   W03
        BYTE                   c_v+33
        BYTE           VOL     38
        BYTE   W02
        BYTE           PAN     c_v+32
        BYTE   W03
        BYTE                   c_v+31
        BYTE   W03
        BYTE                   c_v+30
        BYTE   W03
        BYTE                   c_v+29
        BYTE   W02
        BYTE                   c_v+28
        BYTE   W01
        BYTE           VOL     37
        BYTE   W02
        BYTE           PAN     c_v+27
        BYTE   W03
        BYTE                   c_v+26
        BYTE   W02
        BYTE                   c_v+25
        BYTE   W03
// 007   ----------------------------------------
knightsoath2_7_7:
        BYTE           PAN     c_v+24
        BYTE   W03
        BYTE                   c_v+23
        BYTE   W03
        BYTE                   c_v+22
        BYTE   W02
        BYTE                   c_v+21
        BYTE           VOL     36
        BYTE   W03
        BYTE           PAN     c_v+20
        BYTE   W03
        BYTE                   c_v+19
        BYTE   W03
        BYTE                   c_v+18
        BYTE   W02
        BYTE                   c_v+17
        BYTE   W03
        BYTE                   c_v+16
        BYTE           VOL     35
        BYTE   W03
        BYTE           PAN     c_v+15
        BYTE   W02
        BYTE                   c_v+14
        BYTE   W03
        BYTE                   c_v+13
        BYTE   W03
        BYTE                   c_v+12
        BYTE   W03
        BYTE                   c_v+11
        BYTE           VOL     34
        BYTE   W02
        BYTE           PAN     c_v+10
        BYTE   W03
        BYTE                   c_v+9
        BYTE   W03
        BYTE                   c_v+8
        BYTE   W03
        BYTE                   c_v+7
        BYTE   W02
        BYTE                   c_v+6
        BYTE   W01
        BYTE           VOL     33
        BYTE   W02
        BYTE           PAN     c_v+5
        BYTE   W03
        BYTE                   c_v+4
        BYTE   W02
        BYTE                   c_v+3
        BYTE   W03
        BYTE                   c_v+2
        BYTE   W03
        BYTE                   c_v+1
        BYTE   W01
        BYTE           N92     An2   v095   gtp3
        BYTE   W02
        BYTE           PAN     c_v+0
        BYTE   W02
        BYTE           VOL     32
        BYTE           PAN     c_v-1
        BYTE   W03
        BYTE                   c_v-2
        BYTE   W03
        BYTE                   c_v-3
        BYTE   W03
        BYTE                   c_v-4
        BYTE   W02
        BYTE                   c_v-5
        BYTE   W03
        BYTE           VOL     31
        BYTE           PAN     c_v-6
        BYTE   W03
        BYTE                   c_v-7
        BYTE   W02
        BYTE                   c_v-8
        BYTE   W03
        BYTE                   c_v-9
        BYTE   W03
        BYTE                   c_v-10
        BYTE   W02
        BYTE           VOL     30
        BYTE   W01
        BYTE   PEND
// 008   ----------------------------------------
        BYTE           PAN     c_v-11
        BYTE   W02
        BYTE                   c_v-12
        BYTE   W03
        BYTE                   c_v-13
        BYTE   W03
        BYTE                   c_v-14
        BYTE   W02
        BYTE                   c_v-15
        BYTE   W03
        BYTE           VOL     29
        BYTE           PAN     c_v-16
        BYTE   W03
        BYTE                   c_v-17
        BYTE   W03
        BYTE                   c_v-18
        BYTE   W02
        BYTE                   c_v-19
        BYTE   W03
        BYTE                   c_v-20
        BYTE   W03
        BYTE                   c_v-21
        BYTE   W03
        BYTE                   c_v-22
        BYTE   W01
        BYTE           VOL     28
        BYTE   W01
        BYTE           PAN     c_v-23
        BYTE   W03
        BYTE                   c_v-24
        BYTE   W03
        BYTE                   c_v-25
        BYTE   W02
        BYTE                   c_v-26
        BYTE   W03
        BYTE                   c_v-27
        BYTE   W02
        BYTE           VOL     27
        BYTE   W01
        BYTE           PAN     c_v-28
        BYTE   W03
        BYTE                   c_v-29
        BYTE   W02
        BYTE                   c_v-30
        BYTE   W03
        BYTE                   c_v-31
        BYTE   W03
        BYTE                   c_v-32
        BYTE   W02
        BYTE           VOL     26
        BYTE   W01
        BYTE           PAN     c_v-33
        BYTE   W02
        BYTE                   c_v-34
        BYTE   W02
        BYTE                   c_v-35
        BYTE   W05
        BYTE                   c_v-34
        BYTE   W03
        BYTE                   c_v-33
        BYTE   W02
        BYTE                   c_v-32
        BYTE   W03
        BYTE                   c_v-31
        BYTE   W03
        BYTE                   c_v-30
        BYTE   W01
        BYTE           VOL     27
        BYTE   W02
        BYTE           PAN     c_v-29
        BYTE   W02
        BYTE                   c_v-28
        BYTE   W03
        BYTE                   c_v-27
        BYTE   W03
        BYTE                   c_v-26
        BYTE   W02
        BYTE                   c_v-25
        BYTE   W02
        BYTE           VOL     28
        BYTE   W01
// 009   ----------------------------------------
        BYTE   PATT
         POIN2  knightsoath2_7_1
// 010   ----------------------------------------
        BYTE           PAN     c_v+11
        BYTE   W02
        BYTE                   c_v+12
        BYTE   W03
        BYTE           VOL     35
        BYTE           PAN     c_v+13
        BYTE   W03
        BYTE                   c_v+14
        BYTE   W02
        BYTE                   c_v+15
        BYTE   W03
        BYTE                   c_v+16
        BYTE   W03
        BYTE                   c_v+17
        BYTE   W02
        BYTE           VOL     36
        BYTE   W01
        BYTE           PAN     c_v+18
        BYTE   W02
        BYTE                   c_v+19
        BYTE   W03
        BYTE                   c_v+20
        BYTE   W03
        BYTE                   c_v+21
        BYTE   W03
        BYTE                   c_v+22
        BYTE   W02
        BYTE           VOL     37
        BYTE           PAN     c_v+23
        BYTE   W03
        BYTE                   c_v+24
        BYTE   W03
        BYTE                   c_v+25
        BYTE   W02
        BYTE                   c_v+26
        BYTE   W03
        BYTE                   c_v+27
        BYTE   W03
        BYTE                   c_v+28
        BYTE   W03
        BYTE                   c_v+29
        BYTE   W01
        BYTE           VOL     38
        BYTE   W01
        BYTE           PAN     c_v+30
        BYTE   W03
        BYTE                   c_v+31
        BYTE   W03
        BYTE                   c_v+32
        BYTE   W03
        BYTE                   c_v+33
        BYTE   W02
        BYTE                   c_v+34
        BYTE   W01
        BYTE           VOL     39
        BYTE   W01
        BYTE           PAN     c_v+35
        BYTE   W05
        BYTE                   c_v+34
        BYTE   W03
        BYTE                   c_v+33
        BYTE   W02
        BYTE                   c_v+32
        BYTE   W03
        BYTE           VOL     38
        BYTE           PAN     c_v+31
        BYTE   W03
        BYTE                   c_v+30
        BYTE   W03
        BYTE                   c_v+29
        BYTE   W02
        BYTE                   c_v+28
        BYTE   W03
        BYTE                   c_v+27
        BYTE   W02
        BYTE           VOL     37
        BYTE   W01
        BYTE           PAN     c_v+26
        BYTE   W02
        BYTE                   c_v+25
        BYTE   W03
// 011   ----------------------------------------
        BYTE   PATT
         POIN2  knightsoath2_7_3
// 012   ----------------------------------------
        BYTE           PAN     c_v-11
        BYTE   W01
        BYTE           VOL     30
        BYTE   W01
        BYTE           PAN     c_v-12
        BYTE   W03
        BYTE                   c_v-13
        BYTE   W03
        BYTE                   c_v-14
        BYTE   W02
        BYTE                   c_v-15
        BYTE   W03
        BYTE                   c_v-16
        BYTE   W02
        BYTE           VOL     29
        BYTE   W01
        BYTE           PAN     c_v-17
        BYTE   W03
        BYTE                   c_v-18
        BYTE   W02
        BYTE                   c_v-19
        BYTE   W03
        BYTE                   c_v-20
        BYTE   W03
        BYTE                   c_v-21
        BYTE   W03
        BYTE                   c_v-22
        BYTE   W02
        BYTE                   c_v-23
        BYTE   W01
        BYTE           VOL     28
        BYTE   W02
        BYTE           PAN     c_v-24
        BYTE   W03
        BYTE                   c_v-25
        BYTE   W02
        BYTE                   c_v-26
        BYTE   W03
        BYTE                   c_v-27
        BYTE   W03
        BYTE                   c_v-28
        BYTE           VOL     27
        BYTE   W03
        BYTE           PAN     c_v-29
        BYTE   W02
        BYTE                   c_v-30
        BYTE   W03
        BYTE                   c_v-31
        BYTE   W03
        BYTE                   c_v-32
        BYTE   W02
        BYTE           VOL     26
        BYTE   W01
        BYTE           PAN     c_v-33
        BYTE   W02
        BYTE                   c_v-34
        BYTE   W02
        BYTE                   c_v-35
        BYTE   W05
        BYTE                   c_v-34
        BYTE   W03
        BYTE                   c_v-33
        BYTE   W02
        BYTE                   c_v-32
        BYTE   W03
        BYTE                   c_v-31
        BYTE   W03
        BYTE                   c_v-30
        BYTE   W02
        BYTE           VOL     27
        BYTE   W01
        BYTE           PAN     c_v-29
        BYTE   W02
        BYTE                   c_v-28
        BYTE   W03
        BYTE                   c_v-27
        BYTE   W03
        BYTE                   c_v-26
        BYTE   W02
        BYTE                   c_v-25
        BYTE   W02
        BYTE           VOL     28
        BYTE   W01
// 013   ----------------------------------------
        BYTE   PATT
         POIN2  knightsoath2_7_5
// 014   ----------------------------------------
        BYTE           PAN     c_v+11
        BYTE   W02
        BYTE           VOL     35
        BYTE           PAN     c_v+12
        BYTE   W03
        BYTE                   c_v+13
        BYTE   W03
        BYTE                   c_v+14
        BYTE   W02
        BYTE                   c_v+15
        BYTE   W03
        BYTE                   c_v+16
        BYTE   W02
        BYTE           VOL     36
        BYTE   W01
        BYTE           PAN     c_v+17
        BYTE   W03
        BYTE                   c_v+18
        BYTE   W02
        BYTE                   c_v+19
        BYTE   W03
        BYTE                   c_v+20
        BYTE   W03
        BYTE                   c_v+21
        BYTE   W01
        BYTE           VOL     37
        BYTE   W02
        BYTE           PAN     c_v+22
        BYTE   W02
        BYTE                   c_v+23
        BYTE   W03
        BYTE                   c_v+24
        BYTE   W03
        BYTE                   c_v+25
        BYTE   W02
        BYTE                   c_v+26
        BYTE   W03
        BYTE                   c_v+27
        BYTE   W02
        BYTE           VOL     38
        BYTE   W01
        BYTE           PAN     c_v+28
        BYTE   W03
        BYTE                   c_v+29
        BYTE   W02
        BYTE                   c_v+30
        BYTE   W03
        BYTE                   c_v+31
        BYTE   W03
        BYTE                   c_v+32
        BYTE   W01
        BYTE           VOL     39
        BYTE   W02
        BYTE           PAN     c_v+33
        BYTE   W02
        BYTE                   c_v+34
        BYTE   W02
        BYTE                   c_v+35
        BYTE   W05
        BYTE                   c_v+34
        BYTE   W03
        BYTE                   c_v+33
        BYTE           VOL     38
        BYTE   W02
        BYTE           PAN     c_v+32
        BYTE   W03
        BYTE                   c_v+31
        BYTE   W03
        BYTE                   c_v+30
        BYTE   W03
        BYTE                   c_v+29
        BYTE   W02
        BYTE                   c_v+28
        BYTE   W01
        BYTE           VOL     37
        BYTE   W02
        BYTE           PAN     c_v+27
        BYTE   W03
        BYTE                   c_v+26
        BYTE   W02
        BYTE                   c_v+25
        BYTE   W03
// 015   ----------------------------------------
        BYTE                   c_v+24
        BYTE   W03
        BYTE                   c_v+23
        BYTE   W03
        BYTE                   c_v+22
        BYTE   W02
        BYTE                   c_v+21
        BYTE           VOL     36
        BYTE   W03
        BYTE           PAN     c_v+20
        BYTE   W03
        BYTE                   c_v+19
        BYTE   W03
        BYTE                   c_v+18
        BYTE   W02
        BYTE                   c_v+17
        BYTE   W03
        BYTE                   c_v+16
        BYTE           VOL     35
        BYTE   W03
        BYTE           PAN     c_v+15
        BYTE   W02
        BYTE                   c_v+14
        BYTE   W03
        BYTE                   c_v+13
        BYTE   W03
        BYTE                   c_v+12
        BYTE   W03
        BYTE                   c_v+11
        BYTE           VOL     34
        BYTE   W02
        BYTE           PAN     c_v+10
        BYTE   W03
        BYTE                   c_v+9
        BYTE   W03
        BYTE                   c_v+8
        BYTE   W03
        BYTE                   c_v+7
        BYTE   W02
        BYTE                   c_v+6
        BYTE   W01
        BYTE           VOL     33
        BYTE   W02
        BYTE           PAN     c_v+5
        BYTE   W03
        BYTE                   c_v+4
        BYTE   W02
        BYTE                   c_v+3
        BYTE   W03
        BYTE                   c_v+2
        BYTE   W03
        BYTE                   c_v+1
        BYTE   W03
        BYTE                   c_v+0
        BYTE   W02
        BYTE           VOL     32
        BYTE           PAN     c_v-1
        BYTE   W03
        BYTE                   c_v-2
        BYTE   W03
        BYTE                   c_v-3
        BYTE   W03
        BYTE                   c_v-4
        BYTE   W02
        BYTE                   c_v-5
        BYTE   W03
        BYTE           VOL     31
        BYTE           PAN     c_v-6
        BYTE   W03
        BYTE                   c_v-7
        BYTE   W02
        BYTE                   c_v-8
        BYTE   W03
        BYTE                   c_v-9
        BYTE   W03
        BYTE                   c_v-10
        BYTE   W02
        BYTE           VOL     30
        BYTE   W01
// 016   ----------------------------------------
        BYTE           PAN     c_v-11
        BYTE   W02
        BYTE                   c_v-12
        BYTE   W03
        BYTE                   c_v-13
        BYTE   W03
        BYTE                   c_v-14
        BYTE   W02
        BYTE                   c_v-15
        BYTE   W03
        BYTE           VOL     29
        BYTE           PAN     c_v-16
        BYTE   W03
        BYTE                   c_v-17
        BYTE   W03
        BYTE                   c_v-18
        BYTE   W02
        BYTE                   c_v-19
        BYTE   W03
        BYTE                   c_v-20
        BYTE   W03
        BYTE                   c_v-21
        BYTE   W03
        BYTE                   c_v-22
        BYTE   W01
        BYTE           VOL     28
        BYTE   W01
        BYTE           PAN     c_v-23
        BYTE   W03
        BYTE                   c_v-24
        BYTE   W03
        BYTE                   c_v-25
        BYTE   W02
        BYTE                   c_v-26
        BYTE   W03
        BYTE                   c_v-27
        BYTE   W02
        BYTE           VOL     27
        BYTE   W01
        BYTE           PAN     c_v-28
        BYTE   W03
        BYTE                   c_v-29
        BYTE   W02
        BYTE                   c_v-30
        BYTE   W03
        BYTE                   c_v-31
        BYTE   W03
        BYTE                   c_v-32
        BYTE   W02
        BYTE           VOL     26
        BYTE   W01
        BYTE           PAN     c_v-33
        BYTE   W02
        BYTE                   c_v-34
        BYTE   W02
        BYTE           TIE     Dn3   v126
        BYTE   W08
        BYTE           PAN     c_v-33
        BYTE   W02
        BYTE                   c_v-32
        BYTE   W03
        BYTE                   c_v-31
        BYTE   W03
        BYTE                   c_v-30
        BYTE   W01
        BYTE           VOL     27
        BYTE   W02
        BYTE           PAN     c_v-29
        BYTE   W02
        BYTE                   c_v-28
        BYTE   W03
        BYTE                   c_v-27
        BYTE   W03
        BYTE                   c_v-26
        BYTE   W02
        BYTE                   c_v-25
        BYTE   W02
        BYTE           VOL     28
        BYTE   W01
// 017   ----------------------------------------
        BYTE   PATT
         POIN2  knightsoath2_7_1
// 018   ----------------------------------------
        BYTE           PAN     c_v+11
        BYTE   W02
        BYTE                   c_v+12
        BYTE   W03
        BYTE           VOL     35
        BYTE           PAN     c_v+13
        BYTE   W03
        BYTE                   c_v+14
        BYTE   W02
        BYTE                   c_v+15
        BYTE   W03
        BYTE                   c_v+16
        BYTE   W03
        BYTE                   c_v+17
        BYTE   W02
        BYTE           VOL     36
        BYTE   W01
        BYTE           PAN     c_v+18
        BYTE   W02
        BYTE                   c_v+19
        BYTE   W03
        BYTE                   c_v+20
        BYTE   W03
        BYTE                   c_v+21
        BYTE   W03
        BYTE                   c_v+22
        BYTE   W02
        BYTE           VOL     37
        BYTE           PAN     c_v+23
        BYTE   W03
        BYTE                   c_v+24
        BYTE   W03
        BYTE                   c_v+25
        BYTE   W02
        BYTE                   c_v+26
        BYTE   W03
        BYTE                   c_v+27
        BYTE   W03
        BYTE                   c_v+28
        BYTE   W03
        BYTE                   c_v+29
        BYTE   W01
        BYTE           VOL     38
        BYTE   W01
        BYTE           PAN     c_v+30
        BYTE   W03
        BYTE                   c_v+31
        BYTE   W03
        BYTE                   c_v+32
        BYTE   W03
        BYTE                   c_v+33
        BYTE   W02
        BYTE                   c_v+34
        BYTE   W01
        BYTE           EOT     Dn3
        BYTE           VOL     39
        BYTE   W01
        BYTE           PAN     c_v+35
        BYTE           TIE     Cn3   v126
        BYTE   W05
        BYTE           PAN     c_v+34
        BYTE   W03
        BYTE                   c_v+33
        BYTE   W02
        BYTE                   c_v+32
        BYTE   W03
        BYTE           VOL     38
        BYTE           PAN     c_v+31
        BYTE   W03
        BYTE                   c_v+30
        BYTE   W03
        BYTE                   c_v+29
        BYTE   W02
        BYTE                   c_v+28
        BYTE   W03
        BYTE                   c_v+27
        BYTE   W02
        BYTE           VOL     37
        BYTE   W01
        BYTE           PAN     c_v+26
        BYTE   W02
        BYTE                   c_v+25
        BYTE   W03
// 019   ----------------------------------------
        BYTE   PATT
         POIN2  knightsoath2_7_3
// 020   ----------------------------------------
        BYTE           PAN     c_v-11
        BYTE   W01
        BYTE           VOL     30
        BYTE   W01
        BYTE           PAN     c_v-12
        BYTE   W03
        BYTE                   c_v-13
        BYTE   W03
        BYTE                   c_v-14
        BYTE   W02
        BYTE                   c_v-15
        BYTE   W03
        BYTE                   c_v-16
        BYTE   W02
        BYTE           VOL     29
        BYTE   W01
        BYTE           PAN     c_v-17
        BYTE   W03
        BYTE                   c_v-18
        BYTE   W02
        BYTE                   c_v-19
        BYTE   W03
        BYTE                   c_v-20
        BYTE   W03
        BYTE                   c_v-21
        BYTE   W03
        BYTE                   c_v-22
        BYTE   W02
        BYTE                   c_v-23
        BYTE   W01
        BYTE           VOL     28
        BYTE   W02
        BYTE           PAN     c_v-24
        BYTE   W03
        BYTE                   c_v-25
        BYTE   W02
        BYTE                   c_v-26
        BYTE   W03
        BYTE                   c_v-27
        BYTE   W03
        BYTE                   c_v-28
        BYTE           VOL     27
        BYTE   W03
        BYTE           PAN     c_v-29
        BYTE   W02
        BYTE                   c_v-30
        BYTE   W03
        BYTE                   c_v-31
        BYTE   W03
        BYTE                   c_v-32
        BYTE   W02
        BYTE           VOL     26
        BYTE   W01
        BYTE           PAN     c_v-33
        BYTE   W02
        BYTE                   c_v-34
        BYTE   W01
        BYTE           EOT     Cn3
        BYTE   W01
        BYTE           PAN     c_v-35
        BYTE           TIE     Bn2   v126
        BYTE   W05
        BYTE           PAN     c_v-34
        BYTE   W03
        BYTE                   c_v-33
        BYTE   W02
        BYTE                   c_v-32
        BYTE   W03
        BYTE                   c_v-31
        BYTE   W03
        BYTE                   c_v-30
        BYTE   W02
        BYTE           VOL     27
        BYTE   W01
        BYTE           PAN     c_v-29
        BYTE   W02
        BYTE                   c_v-28
        BYTE   W03
        BYTE                   c_v-27
        BYTE   W03
        BYTE                   c_v-26
        BYTE   W02
        BYTE                   c_v-25
        BYTE   W02
        BYTE           VOL     28
        BYTE   W01
// 021   ----------------------------------------
        BYTE   PATT
         POIN2  knightsoath2_7_5
// 022   ----------------------------------------
        BYTE           PAN     c_v+11
        BYTE   W02
        BYTE           VOL     35
        BYTE           PAN     c_v+12
        BYTE   W03
        BYTE                   c_v+13
        BYTE   W03
        BYTE                   c_v+14
        BYTE   W02
        BYTE                   c_v+15
        BYTE   W03
        BYTE                   c_v+16
        BYTE   W02
        BYTE           VOL     36
        BYTE   W01
        BYTE           PAN     c_v+17
        BYTE   W03
        BYTE                   c_v+18
        BYTE   W02
        BYTE                   c_v+19
        BYTE   W03
        BYTE                   c_v+20
        BYTE   W03
        BYTE                   c_v+21
        BYTE   W01
        BYTE           VOL     37
        BYTE   W02
        BYTE           PAN     c_v+22
        BYTE   W02
        BYTE                   c_v+23
        BYTE   W03
        BYTE                   c_v+24
        BYTE   W03
        BYTE                   c_v+25
        BYTE   W02
        BYTE                   c_v+26
        BYTE   W03
        BYTE                   c_v+27
        BYTE   W02
        BYTE           VOL     38
        BYTE   W01
        BYTE           PAN     c_v+28
        BYTE   W03
        BYTE                   c_v+29
        BYTE   W02
        BYTE                   c_v+30
        BYTE   W03
        BYTE                   c_v+31
        BYTE   W03
        BYTE                   c_v+32
        BYTE   W01
        BYTE           VOL     39
        BYTE   W02
        BYTE           PAN     c_v+33
        BYTE   W02
        BYTE                   c_v+34
        BYTE   W01
        BYTE           EOT     Bn2
        BYTE   W01
        BYTE           PAN     c_v+35
        BYTE           N92     As2   v126   gtp3
        BYTE   W05
        BYTE           PAN     c_v+34
        BYTE   W03
        BYTE                   c_v+33
        BYTE           VOL     38
        BYTE   W02
        BYTE           PAN     c_v+32
        BYTE   W03
        BYTE                   c_v+31
        BYTE   W03
        BYTE                   c_v+30
        BYTE   W03
        BYTE                   c_v+29
        BYTE   W02
        BYTE                   c_v+28
        BYTE   W01
        BYTE           VOL     37
        BYTE   W02
        BYTE           PAN     c_v+27
        BYTE   W03
        BYTE                   c_v+26
        BYTE   W02
        BYTE                   c_v+25
        BYTE   W03
// 023   ----------------------------------------
        BYTE   PATT
         POIN2  knightsoath2_7_7
// 024   ----------------------------------------
        BYTE           PAN     c_v-11
        BYTE   W02
        BYTE                   c_v-12
        BYTE   W03
        BYTE                   c_v-13
        BYTE   W03
        BYTE                   c_v-14
        BYTE   W02
        BYTE                   c_v-15
        BYTE   W03
        BYTE           VOL     29
        BYTE           PAN     c_v-16
        BYTE   W03
        BYTE                   c_v-17
        BYTE   W03
        BYTE                   c_v-18
        BYTE   W02
        BYTE                   c_v-19
        BYTE   W03
        BYTE                   c_v-20
        BYTE   W03
        BYTE                   c_v-21
        BYTE   W03
        BYTE                   c_v-22
        BYTE   W01
        BYTE           VOL     28
        BYTE   W01
        BYTE           PAN     c_v-23
        BYTE   W03
        BYTE                   c_v-24
        BYTE   W03
        BYTE                   c_v-25
        BYTE   W02
        BYTE                   c_v-26
        BYTE   W03
        BYTE                   c_v-27
        BYTE   W02
        BYTE           VOL     27
        BYTE   W01
        BYTE           PAN     c_v-28
        BYTE   W03
        BYTE                   c_v-29
        BYTE   W02
        BYTE                   c_v-30
        BYTE   W03
        BYTE                   c_v-31
        BYTE   W03
        BYTE                   c_v-32
        BYTE   W02
        BYTE           VOL     26
        BYTE   W01
        BYTE           PAN     c_v-33
        BYTE   W02
        BYTE                   c_v-34
        BYTE   W02
        BYTE                   c_v-35
        BYTE           TIE     Dn3   v095
        BYTE   W05
        BYTE           PAN     c_v-34
        BYTE   W03
        BYTE                   c_v-33
        BYTE   W02
        BYTE                   c_v-32
        BYTE   W03
        BYTE                   c_v-31
        BYTE   W03
        BYTE                   c_v-30
        BYTE   W01
        BYTE           VOL     27
        BYTE   W02
        BYTE           PAN     c_v-29
        BYTE   W02
        BYTE                   c_v-28
        BYTE   W03
        BYTE                   c_v-27
        BYTE   W03
        BYTE                   c_v-26
        BYTE   W02
        BYTE                   c_v-25
        BYTE   W02
        BYTE           VOL     28
        BYTE   W01
// 025   ----------------------------------------
        BYTE   PATT
         POIN2  knightsoath2_7_1
// 026   ----------------------------------------
        BYTE   PATT
         POIN2  knightsoath2_7_2
// 027   ----------------------------------------
        BYTE   PATT
         POIN2  knightsoath2_7_3
// 028   ----------------------------------------
        BYTE           PAN     c_v-11
        BYTE   W01
        BYTE           VOL     30
        BYTE   W01
        BYTE           PAN     c_v-12
        BYTE   W03
        BYTE                   c_v-13
        BYTE   W03
        BYTE                   c_v-14
        BYTE   W02
        BYTE                   c_v-15
        BYTE   W03
        BYTE                   c_v-16
        BYTE   W02
        BYTE           VOL     29
        BYTE   W01
        BYTE           PAN     c_v-17
        BYTE   W03
        BYTE                   c_v-18
        BYTE   W02
        BYTE                   c_v-19
        BYTE   W03
        BYTE                   c_v-20
        BYTE   W03
        BYTE                   c_v-21
        BYTE   W03
        BYTE                   c_v-22
        BYTE   W02
        BYTE                   c_v-23
        BYTE   W01
        BYTE           VOL     28
        BYTE   W02
        BYTE           PAN     c_v-24
        BYTE   W03
        BYTE                   c_v-25
        BYTE   W02
        BYTE                   c_v-26
        BYTE   W03
        BYTE                   c_v-27
        BYTE   W03
        BYTE                   c_v-28
        BYTE           VOL     27
        BYTE   W03
        BYTE           PAN     c_v-29
        BYTE   W02
        BYTE                   c_v-30
        BYTE   W03
        BYTE                   c_v-31
        BYTE   W03
        BYTE                   c_v-32
        BYTE   W02
        BYTE           VOL     26
        BYTE   W01
        BYTE           PAN     c_v-33
        BYTE   GoTo
         POIN2  knightsoath2_7_LOOP
        BYTE   W02
        BYTE                   c_v-34
        BYTE   W01
        BYTE           EOT     Cn3
        BYTE   W01
        BYTE           PAN     c_v-35
        BYTE           TIE     Bn2   v095
        BYTE   W05
        BYTE           PAN     c_v-34
        BYTE   W03
        BYTE                   c_v-33
        BYTE   W02
        BYTE                   c_v-32
        BYTE   W03
        BYTE                   c_v-31
        BYTE   W03
        BYTE                   c_v-30
        BYTE   W02
        BYTE           VOL     27
        BYTE   W01
        BYTE           PAN     c_v-29
        BYTE   W02
        BYTE                   c_v-28
        BYTE   W03
        BYTE                   c_v-27
        BYTE   W03
        BYTE                   c_v-26
        BYTE   W02
        BYTE                   c_v-25
        BYTE   W02
        BYTE           VOL     28
        BYTE   W01
// 029   ----------------------------------------
        BYTE   PATT
         POIN2  knightsoath2_7_5
// 030   ----------------------------------------
        BYTE           PAN     c_v+11
        BYTE   W02
        BYTE           VOL     35
        BYTE           PAN     c_v+12
        BYTE   W03
        BYTE                   c_v+13
        BYTE   W03
        BYTE                   c_v+14
        BYTE   W02
        BYTE                   c_v+15
        BYTE   W03
        BYTE                   c_v+16
        BYTE   W02
        BYTE           VOL     36
        BYTE   W01
        BYTE           PAN     c_v+17
        BYTE   W03
        BYTE                   c_v+18
        BYTE   W02
        BYTE                   c_v+19
        BYTE   W03
        BYTE                   c_v+20
        BYTE   W03
        BYTE                   c_v+21
        BYTE   W01
        BYTE           VOL     37
        BYTE   W02
        BYTE           PAN     c_v+22
        BYTE   W02
        BYTE                   c_v+23
        BYTE   W03
        BYTE                   c_v+24
        BYTE   W03
        BYTE                   c_v+25
        BYTE   W24
        BYTE   W01
        BYTE           EOT     Bn2
        BYTE   FINE

//***************** Track 8 (Midi-Chn.11) ******************//

knightsoath2_8:
        BYTE   KEYSH   knightsoath2_key+0
// 000   ----------------------------------------
        BYTE           VOICE   71
        BYTE   W96
// 001   ----------------------------------------
        BYTE   W96
// 002   ----------------------------------------
        BYTE   W96
// 003   ----------------------------------------
        BYTE   W96
// 004   ----------------------------------------
        BYTE   W60
knightsoath2_8_LOOP:
        BYTE   W36
// 005   ----------------------------------------
        BYTE   W96
// 006   ----------------------------------------
        BYTE   W96
// 007   ----------------------------------------
        BYTE   W96
// 008   ----------------------------------------
        BYTE   W68
        BYTE           PAN     c_v+63
        BYTE           VOL     17
        BYTE           N07     An3   v046
        BYTE   W08
        BYTE                   Dn4   v064
        BYTE   W08
        BYTE                   An3   v050
        BYTE   W08
        BYTE           N05     An4   v066
        BYTE   W04
// 009   ----------------------------------------
        BYTE   W12
        BYTE           N07     An4   v051
        BYTE   W08
        BYTE                   Dn4
        BYTE   W08
        BYTE           N05     En4   v052
        BYTE   W08
        BYTE           N07     Dn4   v040
        BYTE   W08
        BYTE           N09     An4   v057
        BYTE   W16
        BYTE           N07     An4   v044
        BYTE   W08
        BYTE                   An3   v064
        BYTE   W08
        BYTE                   Dn4   v070
        BYTE   W08
        BYTE                   An3   v054
        BYTE   W08
        BYTE                   An4   v064
        BYTE   W04
// 010   ----------------------------------------
        BYTE   W12
        BYTE                   An4   v057
        BYTE   W08
        BYTE                   Dn4   v059
        BYTE   W08
        BYTE                   En4   v061
        BYTE   W08
        BYTE                   Dn4   v053
        BYTE   W08
        BYTE           N06     An4   v062
        BYTE   W16
        BYTE           N07     Dn5   v054
        BYTE   W08
        BYTE                   An3   v053
        BYTE   W08
        BYTE                   Dn4   v061
        BYTE   W08
        BYTE                   An3   v053
        BYTE   W08
        BYTE                   An4   v037
        BYTE   W04
// 011   ----------------------------------------
        BYTE   W12
        BYTE                   An4   v070
        BYTE   W08
        BYTE                   An3   v062
        BYTE   W08
        BYTE           N05     Dn4   v076
        BYTE   W08
        BYTE           N04     An3   v058
        BYTE   W08
        BYTE           N06     An4   v072
        BYTE   W16
        BYTE                   An4   v054
        BYTE   W08
        BYTE           N07     Gn3   v066
        BYTE   W08
        BYTE           N06     Dn4   v054
        BYTE   W08
        BYTE           N07     Gn3
        BYTE   W08
        BYTE           N06     Gn4   v042
        BYTE           N06     An4   v070
        BYTE   W04
// 012   ----------------------------------------
        BYTE   W12
        BYTE           N07     Gn4   v040
        BYTE           N07     An4   v068
        BYTE   W08
        BYTE                   An3   v062
        BYTE   W08
        BYTE                   Dn4   v061
        BYTE   W08
        BYTE                   Gn4   v074
        BYTE   W08
        BYTE           N05     An4   v066
        BYTE   W08
        BYTE           N07     Gn4   v058
        BYTE   W08
        BYTE           N03     En4   v050
        BYTE   W08
        BYTE           N07     Dn4   v072
        BYTE   W08
        BYTE           N06     An4   v070
        BYTE   W08
        BYTE           N07     Dn4   v062
        BYTE   W08
        BYTE           N06     Dn5   v064
        BYTE   W04
// 013   ----------------------------------------
        BYTE   W12
        BYTE           N05     Dn5   v054
        BYTE   W08
        BYTE           N07     Dn4   v059
        BYTE   W08
        BYTE                   An4   v078
        BYTE   W08
        BYTE                   Dn4   v054
        BYTE   W08
        BYTE                   Dn5   v058
        BYTE   W16
        BYTE           N06     Dn5   v056
        BYTE   W08
        BYTE           N07     Dn4   v065
        BYTE   W08
        BYTE                   En4   v064
        BYTE   W08
        BYTE                   Dn4   v059
        BYTE   W08
        BYTE           N08     Gn4   v062
        BYTE   W04
// 014   ----------------------------------------
        BYTE   W12
        BYTE           N06     Dn5   v068
        BYTE   W08
        BYTE           N07     Gn4   v055
        BYTE   W08
        BYTE                   An4   v072
        BYTE   W08
        BYTE                   Gn4   v068
        BYTE   W08
        BYTE                   Dn5   v074
        BYTE   W16
        BYTE                   Gn5   v059
        BYTE   W08
        BYTE                   Dn4   v069
        BYTE   W08
        BYTE                   An4   v082
        BYTE   W08
        BYTE                   Dn4   v072
        BYTE   W08
        BYTE                   Dn5   v071
        BYTE   W04
// 015   ----------------------------------------
        BYTE   W12
        BYTE           N06     Dn5   v069
        BYTE   W08
        BYTE           N07     Dn4   v057
        BYTE   W08
        BYTE                   An4   v075
        BYTE   W08
        BYTE                   Dn4   v069
        BYTE   W08
        BYTE           N06     Dn5   v066
        BYTE   W16
        BYTE           N07     Dn5   v067
        BYTE   W08
        BYTE                   Dn4   v057
        BYTE   W08
        BYTE                   An4   v075
        BYTE   W08
        BYTE                   Dn4   v069
        BYTE   W08
        BYTE           N06     Dn5   v066
        BYTE   W04
// 016   ----------------------------------------
        BYTE   W12
        BYTE           N07     Dn5   v067
        BYTE   W08
        BYTE                   Cs5   v051
        BYTE   W08
        BYTE                   An4
        BYTE   W08
        BYTE                   As4
        BYTE   W08
        BYTE           N03     An4   v072
        BYTE   W04
        BYTE                   Gn4
        BYTE   W04
        BYTE                   En4
        BYTE   W04
        BYTE                   Dn4
        BYTE   W04
        BYTE                   Cs4
        BYTE   W04
        BYTE                   An3
        BYTE   W32
// 017   ----------------------------------------
        BYTE   W96
// 018   ----------------------------------------
        BYTE   W96
// 019   ----------------------------------------
        BYTE   W96
// 020   ----------------------------------------
        BYTE   W96
// 021   ----------------------------------------
        BYTE   W96
// 022   ----------------------------------------
        BYTE   W96
// 023   ----------------------------------------
        BYTE   W96
// 024   ----------------------------------------
        BYTE   W96
// 025   ----------------------------------------
        BYTE   W96
// 026   ----------------------------------------
        BYTE   W96
// 027   ----------------------------------------
        BYTE   W96
// 028   ----------------------------------------
        BYTE   W60
        BYTE           VOL     100
        BYTE           PAN     c_v+0
        BYTE   GoTo
         POIN2  knightsoath2_8_LOOP
        BYTE   W36
// 029   ----------------------------------------
        BYTE   W96
// 030   ----------------------------------------
        BYTE   W60
        BYTE   W03
        BYTE   FINE


//********************** End of Song ***********************//

        ALIGN 4
knightsoath2:
        BYTE   9                       // Num Tracks
        BYTE   0                       // Unknown
        BYTE   knightsoath2_pri        // Priority
        BYTE   knightsoath2_rev        // Reverb

        POIN2   knightsoath2_grp       

        POIN2   knightsoath2_0
        POIN2   knightsoath2_1
        POIN2   knightsoath2_2
        POIN2   knightsoath2_3
        POIN2   knightsoath2_4
        POIN2   knightsoath2_5
        POIN2   knightsoath2_6
        POIN2   knightsoath2_7
        POIN2   knightsoath2_8

        
