//Event file generated from Sappy .s format.
        #include "MPlayDef.event"

        #define    LunarClockLunaDial00_grp  voicegroup000
        #define    LunarClockLunaDial00_pri  0
        #define    LunarClockLunaDial00_rev  0
        #define    LunarClockLunaDial00_key  0

        // .rodata
        // LunarClockLunaDial00
        ALIGN 4

//****************** Track 0 (Midi-Chn.0) ******************//

LunarClockLunaDial00_0:
        BYTE   KEYSH   LunarClockLunaDial00_key+0
// 000   ----------------------------------------
        BYTE   TEMPO   138/2
        BYTE           VOICE   122
        BYTE           VOL     38
        BYTE           BENDR   12
        BYTE   W24
// 001   ----------------------------------------
LunarClockLunaDial00_0_LOOP:
        BYTE           N05     Cn1   v100
        BYTE           N23     An2
        BYTE   W18
        BYTE           N05     As1   v040
        BYTE           N05     Cn1   v050
        BYTE   W06
        BYTE                   Dn1   v100
        BYTE           N05     As1
        BYTE   W18
        BYTE                   Cn1   v040
        BYTE           N05     As1
        BYTE   W06
        BYTE                   Cn1   v100
        BYTE           N05     As1
        BYTE   W18
        BYTE                   Cn1   v070
        BYTE           N05     As1   v040
        BYTE   W06
        BYTE                   Dn1   v100
        BYTE           N05     As1
        BYTE   W18
        BYTE                   As1   v040
        BYTE   W06
// 002   ----------------------------------------
LunarClockLunaDial00_0_2:
        BYTE           N05     Cn1   v100
        BYTE           N05     As1
        BYTE   W18
        BYTE                   Cn1   v070
        BYTE           N05     As1   v040
        BYTE   W06
        BYTE                   Dn1   v100
        BYTE           N05     As1
        BYTE   W12
        BYTE                   Cn1   v080
        BYTE   W06
        BYTE           N03     Dn1   v070
        BYTE           N05     As1   v040
        BYTE   W03
        BYTE           N03     Dn1   v080
        BYTE   W03
        BYTE           N05     Dn1   v100
        BYTE           N23     An2
        BYTE   W06
        BYTE           N05     Cn1   v070
        BYTE   W12
        BYTE                   Dn1   v080
        BYTE   W06
        BYTE                   Cn1   v070
        BYTE           N23     Cs2   v100
        BYTE   W06
        BYTE           N05     Dn1   v080
        BYTE   W06
        BYTE                   Dn1   v100
        BYTE   W12
        BYTE   PEND
// 003   ----------------------------------------
LunarClockLunaDial00_0_3:
        BYTE           N05     Cn1   v100
        BYTE           N23     An2
        BYTE   W18
        BYTE           N05     As1   v040
        BYTE           N05     Cn1   v050
        BYTE   W06
        BYTE                   Dn1   v100
        BYTE           N05     As1
        BYTE   W18
        BYTE                   Cn1   v040
        BYTE           N05     As1
        BYTE   W06
        BYTE                   Cn1   v100
        BYTE           N05     As1
        BYTE   W18
        BYTE                   Cn1   v070
        BYTE           N05     As1   v040
        BYTE   W06
        BYTE                   Dn1   v100
        BYTE           N05     As1
        BYTE   W18
        BYTE                   As1   v040
        BYTE   W06
        BYTE   PEND
// 004   ----------------------------------------
LunarClockLunaDial00_0_4:
        BYTE           N05     Cn1   v100
        BYTE           N05     As1
        BYTE   W18
        BYTE                   Cn1   v070
        BYTE           N05     As1   v040
        BYTE   W06
        BYTE                   Dn1   v100
        BYTE           N05     As1
        BYTE   W12
        BYTE                   Cn1   v080
        BYTE   W06
        BYTE           N03     En1   v070
        BYTE           N05     As1   v040
        BYTE   W03
        BYTE           N03     En1   v080
        BYTE   W03
        BYTE           N05     En1   v100
        BYTE           N23     An2
        BYTE   W06
        BYTE           N05     Cn1   v070
        BYTE   W12
        BYTE                   En1   v080
        BYTE   W06
        BYTE                   Cn1   v070
        BYTE           N23     Cs2   v100
        BYTE   W06
        BYTE           N05     En1   v080
        BYTE   W06
        BYTE                   En1   v100
        BYTE   W12
        BYTE   PEND
// 005   ----------------------------------------
        BYTE   PATT
         POIN2  LunarClockLunaDial00_0_3
// 006   ----------------------------------------
        BYTE   PATT
         POIN2  LunarClockLunaDial00_0_2
// 007   ----------------------------------------
        BYTE   PATT
         POIN2  LunarClockLunaDial00_0_3
// 008   ----------------------------------------
        BYTE   PATT
         POIN2  LunarClockLunaDial00_0_4
// 009   ----------------------------------------
        BYTE   PATT
         POIN2  LunarClockLunaDial00_0_3
// 010   ----------------------------------------
        BYTE   PATT
         POIN2  LunarClockLunaDial00_0_2
// 011   ----------------------------------------
        BYTE   PATT
         POIN2  LunarClockLunaDial00_0_3
// 012   ----------------------------------------
        BYTE   PATT
         POIN2  LunarClockLunaDial00_0_4
// 013   ----------------------------------------
LunarClockLunaDial00_0_13:
        BYTE           N05     Cn1   v100
        BYTE           N23     An2
        BYTE   W36
        BYTE           N05     Cn1
        BYTE           N23     Cs2
        BYTE   W18
        BYTE           N05     En1   v050
        BYTE   W06
        BYTE                   En1   v080
        BYTE   W12
        BYTE                   En1   v040
        BYTE           N05     As1   v100
        BYTE   W06
        BYTE                   En1   v080
        BYTE   W06
        BYTE                   En1
        BYTE   W12
        BYTE   PEND
// 014   ----------------------------------------
LunarClockLunaDial00_0_14:
        BYTE           N05     Cn1   v100
        BYTE           N23     An2
        BYTE   W36
        BYTE           N05     Cn1
        BYTE           N23     Cs2
        BYTE   W24
        BYTE           N05     As1   v080
        BYTE   W12
        BYTE                   En1   v070
        BYTE           N05     As1   v100
        BYTE   W06
        BYTE                   En1   v080
        BYTE   W06
        BYTE                   En1   v090
        BYTE           N11     Cs2
        BYTE   W12
        BYTE   PEND
// 015   ----------------------------------------
        BYTE   PATT
         POIN2  LunarClockLunaDial00_0_13
// 016   ----------------------------------------
LunarClockLunaDial00_0_16:
        BYTE           N05     Cn1   v100
        BYTE           N23     An2
        BYTE   W12
        BYTE           N05     En1   v080
        BYTE   W12
        BYTE                   En1
        BYTE   W12
        BYTE                   Cn1   v100
        BYTE           N23     Cs2
        BYTE   W12
        BYTE           N05     En1   v070
        BYTE   W12
        BYTE                   As1   v080
        BYTE           N05     En1   v090
        BYTE   W12
        BYTE                   Dn1   v100
        BYTE           N23     Cs2   v090
        BYTE   W24
        BYTE   PEND
// 017   ----------------------------------------
LunarClockLunaDial00_0_17:
        BYTE           N05     Cn1   v100
        BYTE           N05     Fs1
        BYTE           N23     An2
        BYTE   W06
        BYTE           N05     Gs1
        BYTE   W06
        BYTE                   Fs1
        BYTE   W06
        BYTE                   Gs1
        BYTE   W06
        BYTE                   Dn1
        BYTE           N05     Fs1
        BYTE   W06
        BYTE                   Gs1
        BYTE   W06
        BYTE                   Fs1
        BYTE   W06
        BYTE                   Cn1   v080
        BYTE           N05     Gs1   v100
        BYTE   W06
        BYTE                   Cn1
        BYTE           N05     Fs1
        BYTE   W06
        BYTE                   Gs1
        BYTE   W06
        BYTE                   Cn1   v080
        BYTE           N05     Fs1   v100
        BYTE   W06
        BYTE                   Gs1
        BYTE   W06
        BYTE                   Dn1
        BYTE           N05     Fs1
        BYTE   W06
        BYTE                   Gs1
        BYTE   W06
        BYTE                   Fs1
        BYTE   W06
        BYTE                   Gs1
        BYTE   W06
        BYTE   PEND
// 018   ----------------------------------------
LunarClockLunaDial00_0_18:
        BYTE           N05     Cn1   v100
        BYTE           N05     Fs1
        BYTE   W06
        BYTE                   Gs1
        BYTE   W06
        BYTE                   Fs1
        BYTE   W06
        BYTE                   Gs1
        BYTE   W06
        BYTE                   Dn1
        BYTE           N05     Fs1
        BYTE   W06
        BYTE                   Gs1
        BYTE   W06
        BYTE                   Fs1
        BYTE   W06
        BYTE                   Cn1   v080
        BYTE           N05     Gs1   v100
        BYTE   W06
        BYTE                   Cn1
        BYTE           N05     Fs1
        BYTE   W06
        BYTE                   Gs1
        BYTE   W06
        BYTE                   Cn1   v080
        BYTE           N05     Fs1   v100
        BYTE   W06
        BYTE                   Gs1
        BYTE   W06
        BYTE                   Dn1
        BYTE           N05     Fs1
        BYTE   W06
        BYTE                   Gs1
        BYTE   W06
        BYTE                   Fs1
        BYTE   W06
        BYTE                   Gs1
        BYTE   W06
        BYTE   PEND
// 019   ----------------------------------------
        BYTE   PATT
         POIN2  LunarClockLunaDial00_0_18
// 020   ----------------------------------------
LunarClockLunaDial00_0_20:
        BYTE           N05     Cn1   v100
        BYTE           N05     Fs1
        BYTE   W06
        BYTE                   Gs1
        BYTE   W06
        BYTE                   Fs1
        BYTE   W06
        BYTE                   Gs1
        BYTE   W06
        BYTE                   Dn1
        BYTE           N05     Fs1
        BYTE   W06
        BYTE                   Gs1
        BYTE   W06
        BYTE                   Fs1
        BYTE   W06
        BYTE                   Cn1   v080
        BYTE           N05     Gs1   v100
        BYTE   W06
        BYTE                   Cn1
        BYTE           N05     Fs1
        BYTE   W06
        BYTE                   Dn1   v080
        BYTE           N05     Gs1   v100
        BYTE   W06
        BYTE                   Cn1   v080
        BYTE           N05     Fs1   v100
        BYTE   W06
        BYTE                   Gs1
        BYTE   W06
        BYTE                   Dn1
        BYTE           N05     Fs1
        BYTE   W06
        BYTE                   Gs1
        BYTE   W06
        BYTE                   Dn1   v060
        BYTE           N05     Fs1   v100
        BYTE           N11     Cs2
        BYTE   W06
        BYTE           N05     Dn1   v070
        BYTE           N05     Gs1   v100
        BYTE   W06
        BYTE   PEND
// 021   ----------------------------------------
        BYTE   PATT
         POIN2  LunarClockLunaDial00_0_17
// 022   ----------------------------------------
        BYTE   PATT
         POIN2  LunarClockLunaDial00_0_18
// 023   ----------------------------------------
        BYTE   PATT
         POIN2  LunarClockLunaDial00_0_18
// 024   ----------------------------------------
        BYTE   PATT
         POIN2  LunarClockLunaDial00_0_20
// 025   ----------------------------------------
        BYTE   PATT
         POIN2  LunarClockLunaDial00_0_17
// 026   ----------------------------------------
        BYTE   PATT
         POIN2  LunarClockLunaDial00_0_18
// 027   ----------------------------------------
        BYTE   PATT
         POIN2  LunarClockLunaDial00_0_18
// 028   ----------------------------------------
        BYTE   PATT
         POIN2  LunarClockLunaDial00_0_20
// 029   ----------------------------------------
        BYTE   PATT
         POIN2  LunarClockLunaDial00_0_17
// 030   ----------------------------------------
LunarClockLunaDial00_0_30:
        BYTE           N05     Cn1   v100
        BYTE           N05     Fs1
        BYTE   W06
        BYTE                   Gs1
        BYTE   W06
        BYTE                   Fs1
        BYTE   W06
        BYTE                   Gs1
        BYTE   W06
        BYTE                   Dn1
        BYTE           N05     Fs1
        BYTE   W06
        BYTE                   Gs1
        BYTE   W06
        BYTE                   Fs1
        BYTE   W06
        BYTE                   Cn1   v080
        BYTE           N05     Gs1   v100
        BYTE   W06
        BYTE                   Cn1
        BYTE           N05     Fs1
        BYTE   W06
        BYTE                   Gs1
        BYTE   W06
        BYTE                   Cn1   v080
        BYTE           N05     Fs1   v100
        BYTE   W06
        BYTE                   Gs1
        BYTE   W06
        BYTE                   Dn1
        BYTE           N05     Fs1
        BYTE   W06
        BYTE                   Gs1
        BYTE   W06
        BYTE                   Fs1
        BYTE           N05     Dn1   v080
        BYTE   W06
        BYTE                   Gs1   v100
        BYTE           N05     Dn1   v080
        BYTE   W06
        BYTE   PEND
// 031   ----------------------------------------
LunarClockLunaDial00_0_31:
        BYTE           N05     Cn1   v100
        BYTE           N05     Fs1
        BYTE   W06
        BYTE                   Gs1
        BYTE           N05     Dn1   v080
        BYTE   W06
        BYTE                   Fs1   v100
        BYTE           N05     Cn1   v080
        BYTE   W06
        BYTE                   Gs1   v100
        BYTE   W06
        BYTE                   Dn1
        BYTE           N05     Fs1
        BYTE           N23     Cs2
        BYTE   W06
        BYTE           N05     Gs1
        BYTE   W06
        BYTE                   Fs1
        BYTE   W06
        BYTE                   Dn1   v080
        BYTE           N05     Cn1
        BYTE           N05     Gs1   v100
        BYTE   W06
        BYTE                   Cn1
        BYTE           N05     Fs1
        BYTE           N23     An2   v080
        BYTE   W06
        BYTE           N05     Gs1   v100
        BYTE           N05     Dn1   v080
        BYTE   W06
        BYTE                   Cn1
        BYTE           N05     Fs1   v100
        BYTE   W06
        BYTE                   Gs1
        BYTE   W06
        BYTE                   Dn1
        BYTE           N05     Fs1
        BYTE           N23     Cs2
        BYTE   W06
        BYTE           N05     Gs1
        BYTE   W06
        BYTE           N03     Dn1   v060
        BYTE           N05     Fs1   v120
        BYTE   W03
        BYTE           N03     Dn1   v070
        BYTE   W03
        BYTE           N05     Dn1   v080
        BYTE           N05     Gs1   v100
        BYTE   W06
        BYTE   PEND
// 032   ----------------------------------------
LunarClockLunaDial00_0_32:
        BYTE           N05     Cn1   v100
        BYTE           N05     Fs1
        BYTE           N17     An2   v090
        BYTE   W06
        BYTE           N05     Gs1   v100
        BYTE           N05     Dn1   v090
        BYTE   W06
        BYTE                   Fs1   v100
        BYTE           N05     Dn1   v060
        BYTE   W06
        BYTE                   Gs1   v100
        BYTE           N05     Dn1   v070
        BYTE           N17     Cs2   v090
        BYTE   W06
        BYTE           N05     Dn1   v100
        BYTE           N05     Fs1
        BYTE   W06
        BYTE                   Gs1
        BYTE   W06
        BYTE                   Fs1
        BYTE           N05     Dn1   v060
        BYTE           N17     An2   v090
        BYTE   W06
        BYTE           N05     Cn1   v080
        BYTE           N05     Gs1   v100
        BYTE           N05     Dn1   v080
        BYTE   W06
        BYTE                   Cn1   v100
        BYTE           N05     Fs1
        BYTE   W06
        BYTE                   Dn1   v080
        BYTE           N05     Gs1   v100
        BYTE           N17     Cs2   v090
        BYTE   W06
        BYTE           N05     Cn1   v080
        BYTE           N05     Fs1   v100
        BYTE   W06
        BYTE                   Gs1
        BYTE   W06
        BYTE                   Dn1
        BYTE           N05     Fs1
        BYTE           N11     An2
        BYTE   W06
        BYTE           N05     Gs1
        BYTE   W06
        BYTE                   Fs1
        BYTE           N05     Dn1   v080
        BYTE           N11     Cs2   v100
        BYTE   W06
        BYTE           N05     Gs1
        BYTE           N05     Dn1   v080
        BYTE   W06
        BYTE   PEND
// 033   ----------------------------------------
LunarClockLunaDial00_0_33:
        BYTE           N05     Fs1   v100
        BYTE           N05     Cn1
        BYTE           N23     An2
        BYTE   W06
        BYTE           N05     Gs1
        BYTE   W06
        BYTE                   Fs1
        BYTE   W06
        BYTE                   Gs1
        BYTE   W06
        BYTE                   Fs1
        BYTE           N05     Dn1
        BYTE   W06
        BYTE                   Gs1
        BYTE   W06
        BYTE                   Fs1
        BYTE   W06
        BYTE                   Gs1
        BYTE           N05     Cn1   v070
        BYTE   W06
        BYTE                   Fs1   v100
        BYTE           N05     Cn1
        BYTE   W06
        BYTE                   Gs1
        BYTE   W06
        BYTE                   Fs1
        BYTE           N05     Cn1   v070
        BYTE   W06
        BYTE                   Gs1   v100
        BYTE   W06
        BYTE                   Fs1
        BYTE           N05     Dn1
        BYTE   W06
        BYTE                   Gs1
        BYTE   W06
        BYTE                   Fs1
        BYTE           N05     Cn1   v070
        BYTE   W06
        BYTE                   Gs1   v100
        BYTE   W06
        BYTE   PEND
// 034   ----------------------------------------
LunarClockLunaDial00_0_34:
        BYTE           N05     Fs1   v100
        BYTE           N05     Cn1
        BYTE   W06
        BYTE                   Gs1
        BYTE   W06
        BYTE                   Fs1
        BYTE   W06
        BYTE                   Gs1
        BYTE   W06
        BYTE                   Fs1
        BYTE           N05     Dn1
        BYTE   W06
        BYTE                   Gs1
        BYTE   W06
        BYTE                   Fs1
        BYTE   W06
        BYTE                   Gs1
        BYTE           N05     Cn1   v070
        BYTE   W06
        BYTE                   Fs1   v100
        BYTE           N05     Cn1
        BYTE   W06
        BYTE                   Gs1
        BYTE   W06
        BYTE                   Fs1
        BYTE           N05     Cn1   v070
        BYTE   W06
        BYTE                   Gs1   v100
        BYTE   W06
        BYTE                   Fs1
        BYTE           N05     Dn1
        BYTE   W06
        BYTE                   Gs1
        BYTE   W06
        BYTE                   Fs1
        BYTE           N05     Cn1   v080
        BYTE   W06
        BYTE                   Gs1   v100
        BYTE   W06
        BYTE   PEND
// 035   ----------------------------------------
LunarClockLunaDial00_0_35:
        BYTE           N05     Fs1   v100
        BYTE           N05     Cn1
        BYTE   W06
        BYTE                   Gs1
        BYTE   W06
        BYTE                   Fs1
        BYTE   W06
        BYTE                   Gs1
        BYTE   W06
        BYTE                   Fs1
        BYTE           N05     Dn1
        BYTE   W06
        BYTE                   Gs1
        BYTE   W06
        BYTE                   Fs1
        BYTE   W06
        BYTE                   Gs1
        BYTE           N05     Cn1   v070
        BYTE   W06
        BYTE                   Fs1   v100
        BYTE           N05     Cn1
        BYTE   W06
        BYTE                   Gs1
        BYTE   W06
        BYTE                   Fs1
        BYTE           N05     Cn1   v070
        BYTE   W06
        BYTE                   Gs1   v100
        BYTE   W06
        BYTE                   Fs1
        BYTE           N05     Dn1
        BYTE   W06
        BYTE                   Gs1
        BYTE   W06
        BYTE                   Fs1
        BYTE           N05     Cn1   v070
        BYTE   W06
        BYTE                   Gs1   v100
        BYTE   W06
        BYTE   PEND
// 036   ----------------------------------------
LunarClockLunaDial00_0_36:
        BYTE           N05     Fs1   v100
        BYTE           N05     Cn1
        BYTE   W06
        BYTE                   Gs1
        BYTE   W06
        BYTE                   Fs1
        BYTE   W06
        BYTE                   Gs1
        BYTE   W06
        BYTE                   Fs1
        BYTE           N05     Dn1
        BYTE   W06
        BYTE                   Gs1
        BYTE   W06
        BYTE                   Fs1
        BYTE   W06
        BYTE                   Gs1
        BYTE           N05     Cn1   v070
        BYTE   W06
        BYTE                   Fs1   v100
        BYTE           N05     Cn1
        BYTE   W06
        BYTE                   Gs1
        BYTE           N05     Dn1   v080
        BYTE   W06
        BYTE                   Fs1   v100
        BYTE           N05     Cn1   v070
        BYTE   W06
        BYTE                   Gs1   v100
        BYTE   W06
        BYTE                   Fs1
        BYTE           N05     Dn1
        BYTE   W06
        BYTE                   Gs1
        BYTE           N05     Dn1   v080
        BYTE   W06
        BYTE                   Fs1   v100
        BYTE   W06
        BYTE                   Gs1
        BYTE   W06
        BYTE   PEND
// 037   ----------------------------------------
        BYTE   PATT
         POIN2  LunarClockLunaDial00_0_35
// 038   ----------------------------------------
        BYTE   PATT
         POIN2  LunarClockLunaDial00_0_34
// 039   ----------------------------------------
        BYTE   PATT
         POIN2  LunarClockLunaDial00_0_35
// 040   ----------------------------------------
LunarClockLunaDial00_0_40:
        BYTE           N05     Fs1   v100
        BYTE           N05     Cn1
        BYTE   W06
        BYTE                   Gs1
        BYTE           N05     Dn1   v080
        BYTE   W06
        BYTE                   Fs1   v100
        BYTE   W06
        BYTE                   Gs1
        BYTE   W06
        BYTE                   Fs1
        BYTE           N05     Dn1
        BYTE   W06
        BYTE                   Gs1
        BYTE   W06
        BYTE                   Fs1
        BYTE   W06
        BYTE                   Gs1
        BYTE           N05     Cn1   v070
        BYTE           N05     Dn1   v080
        BYTE   W06
        BYTE                   Fs1   v100
        BYTE           N05     Cn1
        BYTE   W06
        BYTE                   Gs1
        BYTE           N05     Dn1   v080
        BYTE   W06
        BYTE                   Fs1   v100
        BYTE           N05     Cn1   v070
        BYTE   W06
        BYTE                   Gs1   v100
        BYTE   W06
        BYTE                   Fs1
        BYTE           N05     Dn1
        BYTE           N23     Cs2   v080
        BYTE   W06
        BYTE           N05     Gs1   v100
        BYTE   W06
        BYTE                   Fs1
        BYTE   W06
        BYTE                   Gs1
        BYTE   W06
        BYTE   PEND
// 041   ----------------------------------------
        BYTE   PATT
         POIN2  LunarClockLunaDial00_0_33
// 042   ----------------------------------------
        BYTE   PATT
         POIN2  LunarClockLunaDial00_0_34
// 043   ----------------------------------------
        BYTE   PATT
         POIN2  LunarClockLunaDial00_0_35
// 044   ----------------------------------------
LunarClockLunaDial00_0_44:
        BYTE           N05     Fs1   v100
        BYTE           N05     Cn1
        BYTE   W06
        BYTE                   Gs1
        BYTE   W06
        BYTE                   Fs1
        BYTE   W06
        BYTE                   Gs1
        BYTE   W06
        BYTE                   Fs1
        BYTE           N05     Dn1
        BYTE   W06
        BYTE                   Gs1
        BYTE   W06
        BYTE                   Fs1
        BYTE   W06
        BYTE           N03     Dn1   v070
        BYTE           N05     Gs1   v100
        BYTE           N05     Cn1   v070
        BYTE   W03
        BYTE           N03     Dn1   v080
        BYTE   W03
        BYTE           N05     Dn1   v100
        BYTE           N11     Cs2   v080
        BYTE   W12
        BYTE           N05     Dn1   v100
        BYTE           N11     Cs2   v090
        BYTE   W12
        BYTE           N05     Dn1   v100
        BYTE           N11     Cs2   v090
        BYTE   W12
        BYTE           N05     Dn1   v100
        BYTE           N11     Cs2
        BYTE   W12
        BYTE   PEND
// 045   ----------------------------------------
        BYTE   PATT
         POIN2  LunarClockLunaDial00_0_35
// 046   ----------------------------------------
        BYTE   PATT
         POIN2  LunarClockLunaDial00_0_34
// 047   ----------------------------------------
        BYTE   PATT
         POIN2  LunarClockLunaDial00_0_35
// 048   ----------------------------------------
LunarClockLunaDial00_0_48:
        BYTE           N05     Fs1   v100
        BYTE           N05     Cn1
        BYTE   W06
        BYTE                   Gs1
        BYTE   W06
        BYTE                   Fs1
        BYTE   W06
        BYTE                   Gs1
        BYTE   W06
        BYTE                   Fs1
        BYTE           N05     Dn1
        BYTE   W06
        BYTE                   Gs1
        BYTE   W06
        BYTE                   Fs1
        BYTE   W06
        BYTE                   Gs1
        BYTE           N05     Cn1   v070
        BYTE   W06
        BYTE                   Fs1   v100
        BYTE           N05     Cn1
        BYTE   W06
        BYTE                   Gs1
        BYTE           N05     Dn1   v080
        BYTE   W06
        BYTE                   Fs1   v100
        BYTE           N05     Cn1   v070
        BYTE   W06
        BYTE                   Gs1   v100
        BYTE   W06
        BYTE                   Fs1
        BYTE           N05     Dn1
        BYTE           N23     Cs2
        BYTE   W06
        BYTE           N05     Gs1
        BYTE   W06
        BYTE                   Fs1
        BYTE           N05     Cn1   v080
        BYTE   W06
        BYTE                   Gs1   v100
        BYTE   W06
        BYTE   PEND
// 049   ----------------------------------------
        BYTE   PATT
         POIN2  LunarClockLunaDial00_0_3
// 050   ----------------------------------------
        BYTE   PATT
         POIN2  LunarClockLunaDial00_0_2
// 051   ----------------------------------------
        BYTE   PATT
         POIN2  LunarClockLunaDial00_0_3
// 052   ----------------------------------------
        BYTE   PATT
         POIN2  LunarClockLunaDial00_0_4
// 053   ----------------------------------------
        BYTE   PATT
         POIN2  LunarClockLunaDial00_0_3
// 054   ----------------------------------------
        BYTE   PATT
         POIN2  LunarClockLunaDial00_0_2
// 055   ----------------------------------------
        BYTE   PATT
         POIN2  LunarClockLunaDial00_0_3
// 056   ----------------------------------------
        BYTE   PATT
         POIN2  LunarClockLunaDial00_0_4
// 057   ----------------------------------------
        BYTE   PATT
         POIN2  LunarClockLunaDial00_0_3
// 058   ----------------------------------------
        BYTE   PATT
         POIN2  LunarClockLunaDial00_0_2
// 059   ----------------------------------------
        BYTE   PATT
         POIN2  LunarClockLunaDial00_0_3
// 060   ----------------------------------------
        BYTE   PATT
         POIN2  LunarClockLunaDial00_0_4
// 061   ----------------------------------------
        BYTE   PATT
         POIN2  LunarClockLunaDial00_0_13
// 062   ----------------------------------------
        BYTE   PATT
         POIN2  LunarClockLunaDial00_0_14
// 063   ----------------------------------------
        BYTE   PATT
         POIN2  LunarClockLunaDial00_0_13
// 064   ----------------------------------------
        BYTE   PATT
         POIN2  LunarClockLunaDial00_0_16
// 065   ----------------------------------------
        BYTE   PATT
         POIN2  LunarClockLunaDial00_0_17
// 066   ----------------------------------------
        BYTE   PATT
         POIN2  LunarClockLunaDial00_0_18
// 067   ----------------------------------------
        BYTE   PATT
         POIN2  LunarClockLunaDial00_0_18
// 068   ----------------------------------------
        BYTE   PATT
         POIN2  LunarClockLunaDial00_0_20
// 069   ----------------------------------------
        BYTE   PATT
         POIN2  LunarClockLunaDial00_0_17
// 070   ----------------------------------------
        BYTE   PATT
         POIN2  LunarClockLunaDial00_0_18
// 071   ----------------------------------------
        BYTE   PATT
         POIN2  LunarClockLunaDial00_0_18
// 072   ----------------------------------------
        BYTE   PATT
         POIN2  LunarClockLunaDial00_0_20
// 073   ----------------------------------------
        BYTE   PATT
         POIN2  LunarClockLunaDial00_0_17
// 074   ----------------------------------------
        BYTE   PATT
         POIN2  LunarClockLunaDial00_0_18
// 075   ----------------------------------------
        BYTE   PATT
         POIN2  LunarClockLunaDial00_0_18
// 076   ----------------------------------------
        BYTE   PATT
         POIN2  LunarClockLunaDial00_0_20
// 077   ----------------------------------------
        BYTE   PATT
         POIN2  LunarClockLunaDial00_0_17
// 078   ----------------------------------------
        BYTE   PATT
         POIN2  LunarClockLunaDial00_0_30
// 079   ----------------------------------------
        BYTE   PATT
         POIN2  LunarClockLunaDial00_0_31
// 080   ----------------------------------------
        BYTE   PATT
         POIN2  LunarClockLunaDial00_0_32
// 081   ----------------------------------------
        BYTE   PATT
         POIN2  LunarClockLunaDial00_0_33
// 082   ----------------------------------------
        BYTE   PATT
         POIN2  LunarClockLunaDial00_0_34
// 083   ----------------------------------------
        BYTE   PATT
         POIN2  LunarClockLunaDial00_0_35
// 084   ----------------------------------------
        BYTE   PATT
         POIN2  LunarClockLunaDial00_0_36
// 085   ----------------------------------------
        BYTE   PATT
         POIN2  LunarClockLunaDial00_0_35
// 086   ----------------------------------------
        BYTE   PATT
         POIN2  LunarClockLunaDial00_0_34
// 087   ----------------------------------------
        BYTE   PATT
         POIN2  LunarClockLunaDial00_0_35
// 088   ----------------------------------------
        BYTE   PATT
         POIN2  LunarClockLunaDial00_0_40
// 089   ----------------------------------------
        BYTE   PATT
         POIN2  LunarClockLunaDial00_0_33
// 090   ----------------------------------------
        BYTE   PATT
         POIN2  LunarClockLunaDial00_0_34
// 091   ----------------------------------------
        BYTE   PATT
         POIN2  LunarClockLunaDial00_0_35
// 092   ----------------------------------------
        BYTE   PATT
         POIN2  LunarClockLunaDial00_0_44
// 093   ----------------------------------------
        BYTE   PATT
         POIN2  LunarClockLunaDial00_0_35
// 094   ----------------------------------------
        BYTE   PATT
         POIN2  LunarClockLunaDial00_0_34
// 095   ----------------------------------------
        BYTE   PATT
         POIN2  LunarClockLunaDial00_0_35
// 096   ----------------------------------------
        BYTE   PATT
         POIN2  LunarClockLunaDial00_0_48
// 097   ----------------------------------------
        BYTE           N05     Cn1   v100
        BYTE           N23     An2
        BYTE   GoTo
         POIN2  LunarClockLunaDial00_0_LOOP
        BYTE   W18
        BYTE           N05     As1   v040
        BYTE           N05     Cn1   v050
        BYTE   W06
        BYTE                   Dn1   v100
        BYTE           N05     As1
        BYTE   W18
        BYTE                   Cn1   v040
        BYTE           N05     As1
        BYTE   W06
        BYTE                   Cn1   v100
        BYTE           N05     As1
        BYTE   W18
        BYTE                   Cn1   v070
        BYTE           N05     As1   v040
        BYTE   W06
        BYTE                   Dn1   v100
        BYTE           N05     As1
        BYTE   W18
        BYTE                   As1   v040
        BYTE   W06
// 098   ----------------------------------------
        BYTE   PATT
         POIN2  LunarClockLunaDial00_0_2
// 099   ----------------------------------------
        BYTE   PATT
         POIN2  LunarClockLunaDial00_0_3
// 100   ----------------------------------------
        BYTE   PATT
         POIN2  LunarClockLunaDial00_0_4
// 101   ----------------------------------------
        BYTE   PATT
         POIN2  LunarClockLunaDial00_0_3
// 102   ----------------------------------------
        BYTE   PATT
         POIN2  LunarClockLunaDial00_0_2
// 103   ----------------------------------------
        BYTE   PATT
         POIN2  LunarClockLunaDial00_0_3
// 104   ----------------------------------------
        BYTE           N05     Cn1   v100
        BYTE           N05     As1
        BYTE   W18
        BYTE                   Cn1   v070
        BYTE           N05     As1   v040
        BYTE   W06
        BYTE                   Dn1   v100
        BYTE           N05     As1
        BYTE   W12
        BYTE                   Cn1   v080
        BYTE   W06
        BYTE           N03     En1   v070
        BYTE           N05     As1   v040
        BYTE   W03
        BYTE           N03     En1   v080
        BYTE   W03
        BYTE           N05     En1   v100
        BYTE           N23     An2
        BYTE   W06
        BYTE           N05     Cn1   v070
        BYTE   W12
        BYTE                   En1   v080
        BYTE   W06
        BYTE                   Cn1   v070
        BYTE           N23     Cs2   v100
        BYTE   W06
        BYTE           N05     En1   v080
        BYTE   W06
        BYTE                   En1   v100
        BYTE   W11
        BYTE   FINE

//****************** Track 1 (Midi-Chn.1) ******************//

LunarClockLunaDial00_1:
        BYTE   KEYSH   LunarClockLunaDial00_key+0
// 000   ----------------------------------------
        BYTE           VOICE   34
        BYTE           BENDR   12
        BYTE           VOL     33
        BYTE   W24
// 001   ----------------------------------------
LunarClockLunaDial00_1_LOOP:
        BYTE           N05     As1   v120
        BYTE   W06
        BYTE                   As1
        BYTE   W06
        BYTE                   As1
        BYTE   W06
        BYTE                   As1
        BYTE   W06
        BYTE                   As1
        BYTE   W06
        BYTE                   As1
        BYTE   W06
        BYTE                   As1
        BYTE   W06
        BYTE                   As1
        BYTE   W06
        BYTE                   As1
        BYTE   W06
        BYTE                   As1
        BYTE   W06
        BYTE                   As1
        BYTE   W06
        BYTE                   Cs2
        BYTE   W06
        BYTE                   Ds2
        BYTE   W06
        BYTE                   En2
        BYTE   W06
        BYTE                   Ds2
        BYTE   W06
        BYTE                   Cs2
        BYTE   W06
// 002   ----------------------------------------
LunarClockLunaDial00_1_2:
        BYTE           N05     As1   v120
        BYTE   W06
        BYTE                   As1
        BYTE   W06
        BYTE                   As1
        BYTE   W06
        BYTE                   As1
        BYTE   W06
        BYTE                   As1
        BYTE   W06
        BYTE                   As1
        BYTE   W06
        BYTE                   As1
        BYTE   W06
        BYTE                   As1
        BYTE   W06
        BYTE           N23     Ds2
        BYTE   W24
        BYTE                   En2
        BYTE   W24
        BYTE   PEND
// 003   ----------------------------------------
LunarClockLunaDial00_1_3:
        BYTE           N05     As1   v120
        BYTE   W06
        BYTE                   As1
        BYTE   W06
        BYTE                   As1
        BYTE   W06
        BYTE                   As1
        BYTE   W06
        BYTE                   As1
        BYTE   W06
        BYTE                   As1
        BYTE   W06
        BYTE                   As1
        BYTE   W06
        BYTE                   As1
        BYTE   W06
        BYTE                   As1
        BYTE   W06
        BYTE                   As1
        BYTE   W06
        BYTE                   As1
        BYTE   W06
        BYTE                   Cs2
        BYTE   W06
        BYTE                   Ds2
        BYTE   W06
        BYTE                   En2
        BYTE   W06
        BYTE                   Ds2
        BYTE   W06
        BYTE                   Cs2
        BYTE   W06
        BYTE   PEND
// 004   ----------------------------------------
        BYTE   PATT
         POIN2  LunarClockLunaDial00_1_2
// 005   ----------------------------------------
        BYTE   PATT
         POIN2  LunarClockLunaDial00_1_3
// 006   ----------------------------------------
        BYTE   PATT
         POIN2  LunarClockLunaDial00_1_2
// 007   ----------------------------------------
        BYTE   PATT
         POIN2  LunarClockLunaDial00_1_3
// 008   ----------------------------------------
        BYTE   PATT
         POIN2  LunarClockLunaDial00_1_2
// 009   ----------------------------------------
        BYTE   PATT
         POIN2  LunarClockLunaDial00_1_3
// 010   ----------------------------------------
        BYTE   PATT
         POIN2  LunarClockLunaDial00_1_2
// 011   ----------------------------------------
        BYTE   PATT
         POIN2  LunarClockLunaDial00_1_3
// 012   ----------------------------------------
        BYTE   PATT
         POIN2  LunarClockLunaDial00_1_2
// 013   ----------------------------------------
LunarClockLunaDial00_1_13:
        BYTE           N23     As1   v120
        BYTE   W24
        BYTE           N11     Ds2
        BYTE   W12
        BYTE                   As1
        BYTE   W24
        BYTE                   Ds1
        BYTE   W12
        BYTE           N05     En1
        BYTE   W06
        BYTE                   Fs1
        BYTE   W06
        BYTE                   Gs1
        BYTE   W06
        BYTE                   An1
        BYTE   W06
        BYTE   PEND
// 014   ----------------------------------------
LunarClockLunaDial00_1_14:
        BYTE           N23     As1   v120
        BYTE   W24
        BYTE           N11     Cs2
        BYTE   W12
        BYTE                   As1
        BYTE   W24
        BYTE                   As1
        BYTE   W12
        BYTE           N05     Cs2
        BYTE   W06
        BYTE                   Dn2
        BYTE   W06
        BYTE           N11     Ds2
        BYTE   W12
        BYTE   PEND
// 015   ----------------------------------------
        BYTE   PATT
         POIN2  LunarClockLunaDial00_1_13
// 016   ----------------------------------------
        BYTE   PATT
         POIN2  LunarClockLunaDial00_1_14
// 017   ----------------------------------------
LunarClockLunaDial00_1_17:
        BYTE           N23     As1   v120
        BYTE   W24
        BYTE                   Cs2
        BYTE   W24
        BYTE           N17     Dn2
        BYTE   W18
        BYTE                   Ds2
        BYTE   W18
        BYTE           N11     En2
        BYTE   W12
        BYTE   PEND
// 018   ----------------------------------------
LunarClockLunaDial00_1_18:
        BYTE           N23     Fn2   v120
        BYTE   W24
        BYTE                   As1
        BYTE   W24
        BYTE           N17     Fn2
        BYTE   W18
        BYTE                   Ds2
        BYTE   W18
        BYTE           N11     Cs2
        BYTE   W12
        BYTE   PEND
// 019   ----------------------------------------
        BYTE   PATT
         POIN2  LunarClockLunaDial00_1_17
// 020   ----------------------------------------
LunarClockLunaDial00_1_20:
        BYTE           N23     Fn2   v120
        BYTE   W24
        BYTE                   As1
        BYTE   W24
        BYTE           N17     Ds2
        BYTE   W18
        BYTE                   Cs2
        BYTE   W18
        BYTE           N11     Cn2
        BYTE   W12
        BYTE   PEND
// 021   ----------------------------------------
LunarClockLunaDial00_1_21:
        BYTE           N23     Bn1   v120
        BYTE   W24
        BYTE                   Dn2
        BYTE   W24
        BYTE           N17     Ds2
        BYTE   W18
        BYTE                   En2
        BYTE   W18
        BYTE           N11     Fn2
        BYTE   W12
        BYTE   PEND
// 022   ----------------------------------------
LunarClockLunaDial00_1_22:
        BYTE           N23     Fs2   v120
        BYTE   W24
        BYTE                   Bn1
        BYTE   W24
        BYTE           N17     Fs2
        BYTE   W18
        BYTE                   En2
        BYTE   W18
        BYTE           N11     Dn2
        BYTE   W12
        BYTE   PEND
// 023   ----------------------------------------
        BYTE   PATT
         POIN2  LunarClockLunaDial00_1_21
// 024   ----------------------------------------
LunarClockLunaDial00_1_24:
        BYTE           N23     Fs2   v120
        BYTE   W24
        BYTE                   Bn1
        BYTE   W24
        BYTE           N17     En2
        BYTE   W18
        BYTE                   Dn2
        BYTE   W18
        BYTE           N11     Cs2
        BYTE   W12
        BYTE   PEND
// 025   ----------------------------------------
        BYTE   PATT
         POIN2  LunarClockLunaDial00_1_17
// 026   ----------------------------------------
        BYTE   PATT
         POIN2  LunarClockLunaDial00_1_18
// 027   ----------------------------------------
        BYTE   PATT
         POIN2  LunarClockLunaDial00_1_17
// 028   ----------------------------------------
        BYTE   PATT
         POIN2  LunarClockLunaDial00_1_20
// 029   ----------------------------------------
        BYTE   PATT
         POIN2  LunarClockLunaDial00_1_21
// 030   ----------------------------------------
        BYTE   PATT
         POIN2  LunarClockLunaDial00_1_22
// 031   ----------------------------------------
        BYTE   PATT
         POIN2  LunarClockLunaDial00_1_21
// 032   ----------------------------------------
LunarClockLunaDial00_1_32:
        BYTE           N23     Fs2   v120
        BYTE   W24
        BYTE                   Bn1
        BYTE   W24
        BYTE           N17     Dn2
        BYTE   W18
        BYTE                   An1
        BYTE   W18
        BYTE           N11     Cs2
        BYTE   W12
        BYTE   PEND
// 033   ----------------------------------------
LunarClockLunaDial00_1_33:
        BYTE           N17     As1   v120
        BYTE   W18
        BYTE           N05
        BYTE   W18
        BYTE                   Cs2
        BYTE   W06
        BYTE           N17     Ds2
        BYTE   W18
        BYTE           N11     Cs2
        BYTE   W12
        BYTE                   Ds2
        BYTE   W12
        BYTE                   Fn2
        BYTE   W12
        BYTE   PEND
// 034   ----------------------------------------
LunarClockLunaDial00_1_34:
        BYTE           N17     Gs1   v120
        BYTE   W18
        BYTE           N05
        BYTE   W18
        BYTE                   As1
        BYTE   W06
        BYTE           N17     Cs2
        BYTE   W18
        BYTE           N11     Cn2
        BYTE   W12
        BYTE                   Cs2
        BYTE   W12
        BYTE                   Ds2
        BYTE   W12
        BYTE   PEND
// 035   ----------------------------------------
LunarClockLunaDial00_1_35:
        BYTE           N17     Fs1   v120
        BYTE   W18
        BYTE           N05
        BYTE   W18
        BYTE                   Gs1
        BYTE   W06
        BYTE           N17     As1
        BYTE   W18
        BYTE           N11     Gs1
        BYTE   W12
        BYTE                   As1
        BYTE   W12
        BYTE                   Cn2
        BYTE   W12
        BYTE   PEND
// 036   ----------------------------------------
LunarClockLunaDial00_1_36:
        BYTE           N17     Gs1   v120
        BYTE   W18
        BYTE           N05
        BYTE   W18
        BYTE                   As1
        BYTE   W06
        BYTE           N17     Cs2
        BYTE   W18
        BYTE           N11     Cn2
        BYTE   W12
        BYTE                   Fn2
        BYTE   W12
        BYTE                   An1
        BYTE   W12
        BYTE   PEND
// 037   ----------------------------------------
        BYTE   PATT
         POIN2  LunarClockLunaDial00_1_33
// 038   ----------------------------------------
        BYTE   PATT
         POIN2  LunarClockLunaDial00_1_34
// 039   ----------------------------------------
        BYTE   PATT
         POIN2  LunarClockLunaDial00_1_35
// 040   ----------------------------------------
        BYTE   PATT
         POIN2  LunarClockLunaDial00_1_36
// 041   ----------------------------------------
        BYTE   PATT
         POIN2  LunarClockLunaDial00_1_33
// 042   ----------------------------------------
        BYTE   PATT
         POIN2  LunarClockLunaDial00_1_34
// 043   ----------------------------------------
        BYTE   PATT
         POIN2  LunarClockLunaDial00_1_35
// 044   ----------------------------------------
        BYTE   PATT
         POIN2  LunarClockLunaDial00_1_36
// 045   ----------------------------------------
        BYTE   PATT
         POIN2  LunarClockLunaDial00_1_33
// 046   ----------------------------------------
        BYTE   PATT
         POIN2  LunarClockLunaDial00_1_34
// 047   ----------------------------------------
        BYTE   PATT
         POIN2  LunarClockLunaDial00_1_35
// 048   ----------------------------------------
        BYTE   PATT
         POIN2  LunarClockLunaDial00_1_36
// 049   ----------------------------------------
        BYTE   PATT
         POIN2  LunarClockLunaDial00_1_3
// 050   ----------------------------------------
        BYTE   PATT
         POIN2  LunarClockLunaDial00_1_2
// 051   ----------------------------------------
        BYTE   PATT
         POIN2  LunarClockLunaDial00_1_3
// 052   ----------------------------------------
        BYTE   PATT
         POIN2  LunarClockLunaDial00_1_2
// 053   ----------------------------------------
        BYTE   PATT
         POIN2  LunarClockLunaDial00_1_3
// 054   ----------------------------------------
        BYTE   PATT
         POIN2  LunarClockLunaDial00_1_2
// 055   ----------------------------------------
        BYTE   PATT
         POIN2  LunarClockLunaDial00_1_3
// 056   ----------------------------------------
        BYTE   PATT
         POIN2  LunarClockLunaDial00_1_2
// 057   ----------------------------------------
        BYTE   PATT
         POIN2  LunarClockLunaDial00_1_3
// 058   ----------------------------------------
        BYTE   PATT
         POIN2  LunarClockLunaDial00_1_2
// 059   ----------------------------------------
        BYTE   PATT
         POIN2  LunarClockLunaDial00_1_3
// 060   ----------------------------------------
        BYTE   PATT
         POIN2  LunarClockLunaDial00_1_2
// 061   ----------------------------------------
        BYTE   PATT
         POIN2  LunarClockLunaDial00_1_13
// 062   ----------------------------------------
        BYTE   PATT
         POIN2  LunarClockLunaDial00_1_14
// 063   ----------------------------------------
        BYTE   PATT
         POIN2  LunarClockLunaDial00_1_13
// 064   ----------------------------------------
        BYTE   PATT
         POIN2  LunarClockLunaDial00_1_14
// 065   ----------------------------------------
        BYTE   PATT
         POIN2  LunarClockLunaDial00_1_17
// 066   ----------------------------------------
        BYTE   PATT
         POIN2  LunarClockLunaDial00_1_18
// 067   ----------------------------------------
        BYTE   PATT
         POIN2  LunarClockLunaDial00_1_17
// 068   ----------------------------------------
        BYTE   PATT
         POIN2  LunarClockLunaDial00_1_20
// 069   ----------------------------------------
        BYTE   PATT
         POIN2  LunarClockLunaDial00_1_21
// 070   ----------------------------------------
        BYTE   PATT
         POIN2  LunarClockLunaDial00_1_22
// 071   ----------------------------------------
        BYTE   PATT
         POIN2  LunarClockLunaDial00_1_21
// 072   ----------------------------------------
        BYTE   PATT
         POIN2  LunarClockLunaDial00_1_24
// 073   ----------------------------------------
        BYTE   PATT
         POIN2  LunarClockLunaDial00_1_17
// 074   ----------------------------------------
        BYTE   PATT
         POIN2  LunarClockLunaDial00_1_18
// 075   ----------------------------------------
        BYTE   PATT
         POIN2  LunarClockLunaDial00_1_17
// 076   ----------------------------------------
        BYTE   PATT
         POIN2  LunarClockLunaDial00_1_20
// 077   ----------------------------------------
        BYTE   PATT
         POIN2  LunarClockLunaDial00_1_21
// 078   ----------------------------------------
        BYTE   PATT
         POIN2  LunarClockLunaDial00_1_22
// 079   ----------------------------------------
        BYTE   PATT
         POIN2  LunarClockLunaDial00_1_21
// 080   ----------------------------------------
        BYTE   PATT
         POIN2  LunarClockLunaDial00_1_32
// 081   ----------------------------------------
        BYTE   PATT
         POIN2  LunarClockLunaDial00_1_33
// 082   ----------------------------------------
        BYTE   PATT
         POIN2  LunarClockLunaDial00_1_34
// 083   ----------------------------------------
        BYTE   PATT
         POIN2  LunarClockLunaDial00_1_35
// 084   ----------------------------------------
        BYTE   PATT
         POIN2  LunarClockLunaDial00_1_36
// 085   ----------------------------------------
        BYTE   PATT
         POIN2  LunarClockLunaDial00_1_33
// 086   ----------------------------------------
        BYTE   PATT
         POIN2  LunarClockLunaDial00_1_34
// 087   ----------------------------------------
        BYTE   PATT
         POIN2  LunarClockLunaDial00_1_35
// 088   ----------------------------------------
        BYTE   PATT
         POIN2  LunarClockLunaDial00_1_36
// 089   ----------------------------------------
        BYTE   PATT
         POIN2  LunarClockLunaDial00_1_33
// 090   ----------------------------------------
        BYTE   PATT
         POIN2  LunarClockLunaDial00_1_34
// 091   ----------------------------------------
        BYTE   PATT
         POIN2  LunarClockLunaDial00_1_35
// 092   ----------------------------------------
        BYTE   PATT
         POIN2  LunarClockLunaDial00_1_36
// 093   ----------------------------------------
        BYTE   PATT
         POIN2  LunarClockLunaDial00_1_33
// 094   ----------------------------------------
        BYTE   PATT
         POIN2  LunarClockLunaDial00_1_34
// 095   ----------------------------------------
        BYTE   PATT
         POIN2  LunarClockLunaDial00_1_35
// 096   ----------------------------------------
        BYTE   PATT
         POIN2  LunarClockLunaDial00_1_36
// 097   ----------------------------------------
        BYTE           N05     As1   v120
        BYTE   GoTo
         POIN2  LunarClockLunaDial00_1_LOOP
        BYTE   W06
        BYTE                   As1
        BYTE   W06
        BYTE                   As1
        BYTE   W06
        BYTE                   As1
        BYTE   W06
        BYTE                   As1
        BYTE   W06
        BYTE                   As1
        BYTE   W06
        BYTE                   As1
        BYTE   W06
        BYTE                   As1
        BYTE   W06
        BYTE                   As1
        BYTE   W06
        BYTE                   As1
        BYTE   W06
        BYTE                   As1
        BYTE   W06
        BYTE                   Cs2
        BYTE   W06
        BYTE                   Ds2
        BYTE   W06
        BYTE                   En2
        BYTE   W06
        BYTE                   Ds2
        BYTE   W06
        BYTE                   Cs2
        BYTE   W06
// 098   ----------------------------------------
        BYTE   PATT
         POIN2  LunarClockLunaDial00_1_2
// 099   ----------------------------------------
        BYTE   PATT
         POIN2  LunarClockLunaDial00_1_3
// 100   ----------------------------------------
        BYTE   PATT
         POIN2  LunarClockLunaDial00_1_2
// 101   ----------------------------------------
        BYTE   PATT
         POIN2  LunarClockLunaDial00_1_3
// 102   ----------------------------------------
        BYTE   PATT
         POIN2  LunarClockLunaDial00_1_2
// 103   ----------------------------------------
        BYTE   PATT
         POIN2  LunarClockLunaDial00_1_3
// 104   ----------------------------------------
        BYTE           N05     As1   v120
        BYTE   W06
        BYTE                   As1
        BYTE   W06
        BYTE                   As1
        BYTE   W06
        BYTE                   As1
        BYTE   W06
        BYTE                   As1
        BYTE   W06
        BYTE                   As1
        BYTE   W06
        BYTE                   As1
        BYTE   W06
        BYTE                   As1
        BYTE   W06
        BYTE           N23     Ds2
        BYTE   W24
        BYTE                   En2
        BYTE   W23
        BYTE   FINE

//****************** Track 2 (Midi-Chn.2) ******************//

LunarClockLunaDial00_2:
        BYTE   KEYSH   LunarClockLunaDial00_key+0
// 000   ----------------------------------------
        BYTE           VOICE   1
        BYTE           PAN     c_v+16
        BYTE           VOL     44
        BYTE           BENDR   12
        BYTE   W24
// 001   ----------------------------------------
LunarClockLunaDial00_2_LOOP:
        BYTE   W96
// 002   ----------------------------------------
        BYTE   W96
// 003   ----------------------------------------
        BYTE   W96
// 004   ----------------------------------------
        BYTE   W96
// 005   ----------------------------------------
        BYTE   W96
// 006   ----------------------------------------
        BYTE   W96
// 007   ----------------------------------------
        BYTE   W96
// 008   ----------------------------------------
        BYTE   W96
// 009   ----------------------------------------
        BYTE   W96
// 010   ----------------------------------------
        BYTE   W96
// 011   ----------------------------------------
        BYTE   W96
// 012   ----------------------------------------
        BYTE   W96
// 013   ----------------------------------------
        BYTE   W96
// 014   ----------------------------------------
        BYTE   W96
// 015   ----------------------------------------
        BYTE   W96
// 016   ----------------------------------------
LunarClockLunaDial00_2_16:
        BYTE   W72
        BYTE           N05     As4   v070
        BYTE   W03
        BYTE                   An4
        BYTE   W03
        BYTE                   Gn4
        BYTE   W03
        BYTE                   Fn4
        BYTE   W03
        BYTE                   Ds4
        BYTE   W03
        BYTE                   Dn4
        BYTE   W03
        BYTE                   Cn4
        BYTE   W03
        BYTE           N03     As3
        BYTE   W03
        BYTE   PEND
// 017   ----------------------------------------
LunarClockLunaDial00_2_17:
        BYTE           N23     As3   v100
        BYTE   W24
        BYTE           N03     Ds4   v080
        BYTE   W03
        BYTE           N20     Fn4   v100
        BYTE   W21
        BYTE           N17     En4
        BYTE   W18
        BYTE                   Ds4
        BYTE   W18
        BYTE           N23     Cs4
        BYTE   W12
        BYTE   PEND
// 018   ----------------------------------------
LunarClockLunaDial00_2_18:
        BYTE   W24
        BYTE           N23     As3   v090
        BYTE           N23     Fn3   v080
        BYTE   W24
        BYTE           N17     As3   v090
        BYTE           N17     Fn3   v080
        BYTE   W18
        BYTE                   As3   v090
        BYTE           N17     Fn3   v080
        BYTE   W18
        BYTE           N11     As3   v090
        BYTE           N11     Fn3   v080
        BYTE   W12
        BYTE   PEND
// 019   ----------------------------------------
LunarClockLunaDial00_2_19:
        BYTE           N11     As3   v100
        BYTE           N11     Fn3   v090
        BYTE   W12
        BYTE           N03     Ds4   v080
        BYTE   W03
        BYTE           N08     Fn4   v100
        BYTE   W09
        BYTE           N05     En4
        BYTE           N05     As3   v090
        BYTE   W06
        BYTE           N11     Ds4   v100
        BYTE           N11     As3   v090
        BYTE   W12
        BYTE           N17     Cs4   v100
        BYTE           N17     Fn3   v090
        BYTE   W18
        BYTE           N11     As3   v100
        BYTE   W12
        BYTE                   Gs3
        BYTE   W12
        BYTE                   Fn3
        BYTE   W12
        BYTE   PEND
// 020   ----------------------------------------
LunarClockLunaDial00_2_20:
        BYTE           N05     As3   v100
        BYTE           N05     Fn3   v080
        BYTE   W06
        BYTE           N11     Cs4   v100
        BYTE           N11     As3   v080
        BYTE           N11     Fn3   v070
        BYTE   W12
        BYTE           N05     As3   v100
        BYTE           N05     Fn3   v080
        BYTE   W06
        BYTE           N11     Ds4   v100
        BYTE           N11     As3   v080
        BYTE           N11     Fn3   v070
        BYTE   W12
        BYTE           N05     As3   v100
        BYTE           N05     Fn3   v080
        BYTE   W06
        BYTE           N17     En4   v100
        BYTE           N17     As3   v080
        BYTE           N17     Fn3   v070
        BYTE   W18
        BYTE           N11     Ds4   v100
        BYTE           N11     As3   v080
        BYTE           N11     Fn3   v070
        BYTE   W12
        BYTE                   Cs4   v100
        BYTE           N11     As3   v080
        BYTE   W12
        BYTE                   Gs3   v100
        BYTE           N11     Fn3   v080
        BYTE   W12
        BYTE   PEND
// 021   ----------------------------------------
LunarClockLunaDial00_2_21:
        BYTE           N23     Bn3   v100
        BYTE   W24
        BYTE                   Dn4
        BYTE   W24
        BYTE           N17     Fn4
        BYTE   W18
        BYTE                   En4
        BYTE   W18
        BYTE           N23     Dn4
        BYTE   W12
        BYTE   PEND
// 022   ----------------------------------------
LunarClockLunaDial00_2_22:
        BYTE   W24
        BYTE           N23     Bn3   v090
        BYTE           N23     Fs3   v080
        BYTE   W24
        BYTE           N17     Bn3   v090
        BYTE           N17     Fs3   v080
        BYTE   W18
        BYTE                   Bn3   v090
        BYTE           N17     Fs3   v080
        BYTE   W18
        BYTE           N11     Bn3   v090
        BYTE           N11     Fs3   v080
        BYTE   W12
        BYTE   PEND
// 023   ----------------------------------------
LunarClockLunaDial00_2_23:
        BYTE           N11     Bn3   v100
        BYTE           N11     Fs3   v090
        BYTE   W12
        BYTE           N03     En4   v080
        BYTE   W03
        BYTE           N08     Fs4   v100
        BYTE   W09
        BYTE           N05     Fn4
        BYTE           N05     Bn3   v090
        BYTE   W06
        BYTE           N11     En4   v100
        BYTE           N11     Bn3   v090
        BYTE   W12
        BYTE           N17     Dn4   v100
        BYTE           N17     Fs3   v090
        BYTE   W18
        BYTE           N11     Bn3   v100
        BYTE   W12
        BYTE                   An3
        BYTE   W12
        BYTE                   Fs3
        BYTE   W12
        BYTE   PEND
// 024   ----------------------------------------
LunarClockLunaDial00_2_24:
        BYTE           N05     Bn3   v100
        BYTE           N05     Fs3   v080
        BYTE   W06
        BYTE           N11     Dn4   v100
        BYTE           N11     Bn3   v080
        BYTE           N11     Fs3   v070
        BYTE   W12
        BYTE           N05     Bn3   v100
        BYTE           N05     Fs3   v080
        BYTE   W06
        BYTE           N11     En4   v100
        BYTE           N11     Bn3   v080
        BYTE           N11     Fs3   v070
        BYTE   W12
        BYTE           N05     Bn3   v100
        BYTE           N05     Fs3   v080
        BYTE   W06
        BYTE           N17     Fn4   v100
        BYTE           N17     Bn3   v080
        BYTE           N17     Fs3   v070
        BYTE   W18
        BYTE           N11     En4   v100
        BYTE           N11     Bn3   v080
        BYTE           N11     Fs3   v070
        BYTE   W12
        BYTE                   Dn4   v100
        BYTE           N11     Bn3   v080
        BYTE   W12
        BYTE                   An3   v100
        BYTE           N11     Fs3   v080
        BYTE   W12
        BYTE   PEND
// 025   ----------------------------------------
        BYTE   PATT
         POIN2  LunarClockLunaDial00_2_17
// 026   ----------------------------------------
        BYTE   PATT
         POIN2  LunarClockLunaDial00_2_18
// 027   ----------------------------------------
        BYTE   PATT
         POIN2  LunarClockLunaDial00_2_19
// 028   ----------------------------------------
LunarClockLunaDial00_2_28:
        BYTE           N05     As3   v100
        BYTE           N05     Fn3   v080
        BYTE   W06
        BYTE           N11     Cs4   v100
        BYTE           N11     As3   v080
        BYTE           N11     Fn3   v070
        BYTE   W12
        BYTE           N05     As3   v100
        BYTE           N05     Fn3   v080
        BYTE   W06
        BYTE           N11     Ds4   v100
        BYTE           N11     As3   v080
        BYTE           N11     Fn3   v070
        BYTE   W12
        BYTE           N05     As3   v100
        BYTE           N05     Fn3   v080
        BYTE   W06
        BYTE           N17     En4   v100
        BYTE           N17     As3   v080
        BYTE           N17     Fn3   v070
        BYTE   W18
        BYTE           N11
        BYTE           N11     Ds4   v100
        BYTE           N11     As3   v080
        BYTE   W12
        BYTE                   Cs4   v100
        BYTE           N11     As3   v080
        BYTE   W12
        BYTE                   Gs3   v100
        BYTE           N11     Fn3   v080
        BYTE   W12
        BYTE   PEND
// 029   ----------------------------------------
        BYTE   PATT
         POIN2  LunarClockLunaDial00_2_21
// 030   ----------------------------------------
        BYTE   PATT
         POIN2  LunarClockLunaDial00_2_22
// 031   ----------------------------------------
LunarClockLunaDial00_2_31:
        BYTE           N11     Bn3   v100
        BYTE           N11     Fs3   v090
        BYTE   W12
        BYTE           N03     En4   v080
        BYTE   W03
        BYTE           N08     Fs4   v100
        BYTE   W09
        BYTE           N05     Fn4
        BYTE           N05     Bn3   v090
        BYTE   W06
        BYTE           N11     En4   v100
        BYTE           N11     Bn3   v090
        BYTE   W12
        BYTE           N17     Dn4   v100
        BYTE           N17     Fs3   v090
        BYTE   W18
        BYTE           N11     Bn3   v100
        BYTE   W12
        BYTE                   Dn4
        BYTE   W12
        BYTE                   Fs4
        BYTE   W12
        BYTE   PEND
// 032   ----------------------------------------
LunarClockLunaDial00_2_32:
        BYTE           N05     Bn3   v100
        BYTE           N05     Fs3   v080
        BYTE   W06
        BYTE           N11     An4   v100
        BYTE           N11     Bn3   v080
        BYTE           N11     Fs3   v070
        BYTE   W12
        BYTE           N05     Bn3   v100
        BYTE           N05     Fs3   v080
        BYTE   W06
        BYTE           N11     En4   v100
        BYTE           N11     Bn3   v080
        BYTE           N11     Fs3   v070
        BYTE   W12
        BYTE           N05     Bn3   v100
        BYTE           N05     Fs3   v080
        BYTE   W06
        BYTE           N17     Fn4   v100
        BYTE           N17     Bn3   v080
        BYTE           N17     Fs3   v070
        BYTE   W18
        BYTE           N11     En4   v100
        BYTE           N11     Bn3   v080
        BYTE           N11     Fs3   v070
        BYTE   W12
        BYTE                   Dn4   v100
        BYTE           N11     Bn3   v080
        BYTE   W12
        BYTE                   An3   v100
        BYTE           N11     Fs3   v080
        BYTE   W12
        BYTE   PEND
// 033   ----------------------------------------
LunarClockLunaDial00_2_33:
        BYTE           N11     As3   v100
        BYTE   W12
        BYTE                   Fn4
        BYTE   W12
        BYTE                   Ds4
        BYTE   W12
        BYTE                   Fn4
        BYTE   W12
        BYTE                   Cn4
        BYTE   W12
        BYTE           N05     Cs4
        BYTE   W06
        BYTE                   Fn4
        BYTE   W06
        BYTE                   Ds4
        BYTE   W06
        BYTE                   Cs4
        BYTE   W06
        BYTE           N11     Cn4
        BYTE   W12
        BYTE   PEND
// 034   ----------------------------------------
LunarClockLunaDial00_2_34:
        BYTE           N11     As3   v100
        BYTE   W12
        BYTE                   Fn4
        BYTE   W12
        BYTE                   Ds4
        BYTE   W12
        BYTE                   Fn4
        BYTE   W12
        BYTE                   Cn4
        BYTE   W12
        BYTE           N05     Cs4
        BYTE   W06
        BYTE                   Fn4
        BYTE   W06
        BYTE           N11     Gs3
        BYTE   W12
        BYTE                   As3
        BYTE   W12
        BYTE   PEND
// 035   ----------------------------------------
LunarClockLunaDial00_2_35:
        BYTE           N11     As3   v100
        BYTE   W12
        BYTE                   Fn4
        BYTE   W12
        BYTE                   Ds4
        BYTE   W12
        BYTE                   Fn4
        BYTE   W12
        BYTE                   Cn4
        BYTE   W12
        BYTE           N05     Cs4
        BYTE   W06
        BYTE                   Fn4
        BYTE   W06
        BYTE                   Ds4
        BYTE   W06
        BYTE                   Fn4
        BYTE   W06
        BYTE                   Fs4
        BYTE   W06
        BYTE                   Gs4
        BYTE   W06
        BYTE   PEND
// 036   ----------------------------------------
        BYTE   PATT
         POIN2  LunarClockLunaDial00_2_33
// 037   ----------------------------------------
        BYTE   PATT
         POIN2  LunarClockLunaDial00_2_33
// 038   ----------------------------------------
        BYTE   PATT
         POIN2  LunarClockLunaDial00_2_34
// 039   ----------------------------------------
        BYTE   PATT
         POIN2  LunarClockLunaDial00_2_35
// 040   ----------------------------------------
        BYTE   PATT
         POIN2  LunarClockLunaDial00_2_33
// 041   ----------------------------------------
LunarClockLunaDial00_2_41:
        BYTE           N11     As3   v100
        BYTE           N11     Cs3   v090
        BYTE   W12
        BYTE                   Fn4   v100
        BYTE           N11     Gs3   v090
        BYTE   W12
        BYTE                   Ds4   v100
        BYTE           N11     Fs3   v090
        BYTE   W12
        BYTE                   Gs3
        BYTE           N11     Fn4   v100
        BYTE   W12
        BYTE                   Cn4
        BYTE           N11     Ds3   v090
        BYTE   W12
        BYTE           N05     Cs4   v100
        BYTE           N05     Ds3   v090
        BYTE   W06
        BYTE                   Fn4   v100
        BYTE           N05     Gs3   v090
        BYTE   W06
        BYTE                   Ds4   v100
        BYTE           N05     Fs3   v090
        BYTE   W06
        BYTE                   Cs4   v100
        BYTE           N05     Ds3   v090
        BYTE   W06
        BYTE           N11     Cn4   v100
        BYTE           N11     Ds3   v090
        BYTE   W12
        BYTE   PEND
// 042   ----------------------------------------
LunarClockLunaDial00_2_42:
        BYTE           N05     Cs4   v100
        BYTE           N05     Cs3   v090
        BYTE   W06
        BYTE                   Cn4   v100
        BYTE           N05     Cn3   v090
        BYTE   W06
        BYTE                   Cs4   v100
        BYTE           N05     Cs3   v090
        BYTE   W12
        BYTE           N11     Ds4   v100
        BYTE           N11     Ds3   v090
        BYTE   W12
        BYTE           N05     Cs4   v100
        BYTE           N05     Cs3   v090
        BYTE   W06
        BYTE                   Ds4   v100
        BYTE           N05     Ds3   v090
        BYTE   W06
        BYTE                   Fn4   v100
        BYTE           N05     Fn3   v090
        BYTE   W06
        BYTE                   Ds4   v100
        BYTE           N05     Ds3   v090
        BYTE   W12
        BYTE                   As4   v100
        BYTE   W06
        BYTE           N03     Gs4
        BYTE   W03
        BYTE                   Gn4
        BYTE   W03
        BYTE           N05     Fn4
        BYTE   W06
        BYTE                   Ds4
        BYTE   W06
        BYTE                   Cn4
        BYTE   W06
        BYTE   PEND
// 043   ----------------------------------------
LunarClockLunaDial00_2_43:
        BYTE           N05     As3   v100
        BYTE   W06
        BYTE                   An3
        BYTE   W06
        BYTE                   As3
        BYTE   W06
        BYTE           N11     Cn4
        BYTE   W12
        BYTE           N05     Cs4
        BYTE   W06
        BYTE                   Cn4
        BYTE   W06
        BYTE           N11     Cs4
        BYTE   W12
        BYTE           N05     Ds4
        BYTE   W06
        BYTE                   Cs4
        BYTE   W06
        BYTE                   Ds4
        BYTE   W06
        BYTE                   Fn4
        BYTE   W06
        BYTE                   Ds4
        BYTE   W06
        BYTE                   Gs4
        BYTE   W06
        BYTE                   Fs4
        BYTE   W06
        BYTE   PEND
// 044   ----------------------------------------
LunarClockLunaDial00_2_44:
        BYTE           N05     Fn4   v100
        BYTE   W06
        BYTE                   Fs4
        BYTE   W06
        BYTE                   Fn4
        BYTE   W06
        BYTE                   Ds4
        BYTE   W06
        BYTE                   Fn4
        BYTE   W06
        BYTE                   Ds4
        BYTE   W06
        BYTE                   Cs4
        BYTE   W06
        BYTE                   Ds4
        BYTE   W06
        BYTE                   Cn4
        BYTE   W06
        BYTE                   Cs4
        BYTE   W06
        BYTE                   Cn4
        BYTE   W06
        BYTE                   Cs4
        BYTE   W06
        BYTE                   Cn4
        BYTE   W06
        BYTE                   Cs4
        BYTE   W06
        BYTE                   Cn4
        BYTE   W06
        BYTE                   Cs4
        BYTE   W06
        BYTE   PEND
// 045   ----------------------------------------
LunarClockLunaDial00_2_45:
        BYTE           N05     As3   v100
        BYTE   W06
        BYTE                   Cn4
        BYTE   W06
        BYTE                   Cs4
        BYTE   W06
        BYTE                   Ds4
        BYTE   W12
        BYTE                   Fn4
        BYTE   W06
        BYTE                   Ds4
        BYTE   W06
        BYTE                   Fn4
        BYTE   W12
        BYTE           N03     Bn4
        BYTE   W03
        BYTE                   Cn5
        BYTE   W03
        BYTE           N05     Cs5
        BYTE   W06
        BYTE                   As4
        BYTE   W06
        BYTE                   Gs4
        BYTE   W06
        BYTE                   Fn4
        BYTE   W06
        BYTE                   Ds4
        BYTE   W06
        BYTE                   Cs4
        BYTE   W06
        BYTE   PEND
// 046   ----------------------------------------
LunarClockLunaDial00_2_46:
        BYTE           N05     Ds4   v100
        BYTE   W06
        BYTE                   Gs4
        BYTE   W06
        BYTE                   Gs3
        BYTE   W06
        BYTE                   Ds4
        BYTE   W06
        BYTE                   Gs4
        BYTE   W06
        BYTE                   Gs3
        BYTE   W06
        BYTE                   Ds4
        BYTE   W06
        BYTE                   Gs4
        BYTE   W06
        BYTE                   Gs3
        BYTE   W06
        BYTE                   Ds4
        BYTE   W06
        BYTE                   Gs4
        BYTE   W06
        BYTE                   Gs3
        BYTE   W06
        BYTE           N03     Fn4
        BYTE   W03
        BYTE                   Fs4
        BYTE   W03
        BYTE                   Gn4
        BYTE   W03
        BYTE                   Gs4
        BYTE   W03
        BYTE                   An4
        BYTE   W03
        BYTE                   As4
        BYTE   W03
        BYTE                   Bn4
        BYTE   W03
        BYTE                   Cn5
        BYTE   W03
        BYTE   PEND
// 047   ----------------------------------------
LunarClockLunaDial00_2_47:
        BYTE           N32     As4   v100   gtp3
        BYTE                   Fs4   v090
        BYTE   W36
        BYTE           N11     As4   v100
        BYTE           N11     Fs4   v090
        BYTE   W12
        BYTE           N17     Cn5   v100
        BYTE           N17     Gs4   v090
        BYTE   W18
        BYTE                   Cs5   v100
        BYTE           N17     As4   v090
        BYTE   W18
        BYTE           N11     Cn5   v100
        BYTE           N11     Gs4   v090
        BYTE   W12
        BYTE   PEND
// 048   ----------------------------------------
LunarClockLunaDial00_2_48:
        BYTE           N08     As4   v100
        BYTE           N92     Ds4   v090   gtp3
        BYTE   W08
        BYTE           N07     As4   v050
        BYTE   W08
        BYTE                   As4
        BYTE   W08
        BYTE                   As4   v060
        BYTE   W08
        BYTE                   As4
        BYTE   W08
        BYTE                   As4   v070
        BYTE   W08
        BYTE                   As4
        BYTE   W08
        BYTE                   As4
        BYTE   W08
        BYTE                   As4   v080
        BYTE   W08
        BYTE                   As4
        BYTE   W08
        BYTE                   As4   v090
        BYTE   W08
        BYTE                   As4
        BYTE   W08
        BYTE   PEND
// 049   ----------------------------------------
        BYTE   W96
// 050   ----------------------------------------
        BYTE   W96
// 051   ----------------------------------------
        BYTE   W96
// 052   ----------------------------------------
        BYTE   W96
// 053   ----------------------------------------
        BYTE   W96
// 054   ----------------------------------------
        BYTE   W96
// 055   ----------------------------------------
        BYTE   W96
// 056   ----------------------------------------
        BYTE   W96
// 057   ----------------------------------------
        BYTE   W96
// 058   ----------------------------------------
        BYTE   W96
// 059   ----------------------------------------
        BYTE   W96
// 060   ----------------------------------------
        BYTE   W96
// 061   ----------------------------------------
        BYTE   W96
// 062   ----------------------------------------
        BYTE   W96
// 063   ----------------------------------------
        BYTE   W96
// 064   ----------------------------------------
LunarClockLunaDial00_2_64:
        BYTE   W72
        BYTE           N05     As4   v090
        BYTE   W03
        BYTE                   An4
        BYTE   W03
        BYTE                   Gn4
        BYTE   W03
        BYTE                   Fn4
        BYTE   W03
        BYTE                   Ds4
        BYTE   W03
        BYTE                   Dn4
        BYTE   W03
        BYTE                   Cn4
        BYTE   W03
        BYTE           N03     As3
        BYTE   W03
        BYTE   PEND
// 065   ----------------------------------------
        BYTE   PATT
         POIN2  LunarClockLunaDial00_2_17
// 066   ----------------------------------------
        BYTE   PATT
         POIN2  LunarClockLunaDial00_2_18
// 067   ----------------------------------------
        BYTE   PATT
         POIN2  LunarClockLunaDial00_2_19
// 068   ----------------------------------------
        BYTE   PATT
         POIN2  LunarClockLunaDial00_2_20
// 069   ----------------------------------------
        BYTE   PATT
         POIN2  LunarClockLunaDial00_2_21
// 070   ----------------------------------------
        BYTE   PATT
         POIN2  LunarClockLunaDial00_2_22
// 071   ----------------------------------------
        BYTE   PATT
         POIN2  LunarClockLunaDial00_2_23
// 072   ----------------------------------------
        BYTE   PATT
         POIN2  LunarClockLunaDial00_2_24
// 073   ----------------------------------------
        BYTE   PATT
         POIN2  LunarClockLunaDial00_2_17
// 074   ----------------------------------------
        BYTE   PATT
         POIN2  LunarClockLunaDial00_2_18
// 075   ----------------------------------------
        BYTE   PATT
         POIN2  LunarClockLunaDial00_2_19
// 076   ----------------------------------------
        BYTE   PATT
         POIN2  LunarClockLunaDial00_2_28
// 077   ----------------------------------------
        BYTE   PATT
         POIN2  LunarClockLunaDial00_2_21
// 078   ----------------------------------------
        BYTE   PATT
         POIN2  LunarClockLunaDial00_2_22
// 079   ----------------------------------------
        BYTE   PATT
         POIN2  LunarClockLunaDial00_2_31
// 080   ----------------------------------------
        BYTE   PATT
         POIN2  LunarClockLunaDial00_2_32
// 081   ----------------------------------------
        BYTE   PATT
         POIN2  LunarClockLunaDial00_2_33
// 082   ----------------------------------------
        BYTE   PATT
         POIN2  LunarClockLunaDial00_2_34
// 083   ----------------------------------------
        BYTE   PATT
         POIN2  LunarClockLunaDial00_2_35
// 084   ----------------------------------------
        BYTE   PATT
         POIN2  LunarClockLunaDial00_2_33
// 085   ----------------------------------------
        BYTE   PATT
         POIN2  LunarClockLunaDial00_2_33
// 086   ----------------------------------------
        BYTE   PATT
         POIN2  LunarClockLunaDial00_2_34
// 087   ----------------------------------------
        BYTE   PATT
         POIN2  LunarClockLunaDial00_2_35
// 088   ----------------------------------------
        BYTE   PATT
         POIN2  LunarClockLunaDial00_2_33
// 089   ----------------------------------------
        BYTE   PATT
         POIN2  LunarClockLunaDial00_2_41
// 090   ----------------------------------------
        BYTE   PATT
         POIN2  LunarClockLunaDial00_2_42
// 091   ----------------------------------------
        BYTE   PATT
         POIN2  LunarClockLunaDial00_2_43
// 092   ----------------------------------------
        BYTE   PATT
         POIN2  LunarClockLunaDial00_2_44
// 093   ----------------------------------------
        BYTE   PATT
         POIN2  LunarClockLunaDial00_2_45
// 094   ----------------------------------------
        BYTE   PATT
         POIN2  LunarClockLunaDial00_2_46
// 095   ----------------------------------------
        BYTE   PATT
         POIN2  LunarClockLunaDial00_2_47
// 096   ----------------------------------------
        BYTE   PATT
         POIN2  LunarClockLunaDial00_2_48
// 097   ----------------------------------------
        BYTE   GoTo
         POIN2  LunarClockLunaDial00_2_LOOP
        BYTE   W96
// 098   ----------------------------------------
        BYTE   W96
// 099   ----------------------------------------
        BYTE   W96
// 100   ----------------------------------------
        BYTE   W96
// 101   ----------------------------------------
        BYTE   W96
// 102   ----------------------------------------
        BYTE   W96
// 103   ----------------------------------------
        BYTE   W96
// 104   ----------------------------------------
        BYTE   W92
        BYTE   W03
        BYTE   FINE

//****************** Track 3 (Midi-Chn.3) ******************//

LunarClockLunaDial00_3:
        BYTE   KEYSH   LunarClockLunaDial00_key+0
// 000   ----------------------------------------
        BYTE           VOICE   30
        BYTE           PAN     c_v+6
        BYTE           VOL     38
        BYTE           BENDR   12
        BYTE   W24
// 001   ----------------------------------------
LunarClockLunaDial00_3_LOOP:
        BYTE           N05     As1   v100
        BYTE   W06
        BYTE                   As1
        BYTE   W06
        BYTE                   As1
        BYTE   W06
        BYTE                   As1
        BYTE   W06
        BYTE                   As1
        BYTE   W06
        BYTE                   As1
        BYTE   W06
        BYTE                   As1
        BYTE   W06
        BYTE                   As1
        BYTE   W06
        BYTE                   As1
        BYTE   W06
        BYTE                   As1
        BYTE   W06
        BYTE                   As1
        BYTE   W06
        BYTE                   Cs2
        BYTE   W06
        BYTE                   Ds2
        BYTE   W06
        BYTE                   En2
        BYTE   W06
        BYTE                   Ds2
        BYTE   W06
        BYTE                   Cs2
        BYTE   W06
// 002   ----------------------------------------
LunarClockLunaDial00_3_2:
        BYTE           N05     As1   v100
        BYTE   W06
        BYTE                   As1
        BYTE   W06
        BYTE                   As1
        BYTE   W06
        BYTE                   As1
        BYTE   W06
        BYTE                   As1
        BYTE   W06
        BYTE                   As1
        BYTE   W06
        BYTE                   As1
        BYTE   W06
        BYTE                   As1
        BYTE   W54
        BYTE   PEND
// 003   ----------------------------------------
LunarClockLunaDial00_3_3:
        BYTE           N05     As1   v100
        BYTE   W06
        BYTE                   As1
        BYTE   W06
        BYTE                   As1
        BYTE   W06
        BYTE                   As1
        BYTE   W06
        BYTE                   As1
        BYTE   W06
        BYTE                   As1
        BYTE   W06
        BYTE                   As1
        BYTE   W06
        BYTE                   As1
        BYTE   W06
        BYTE                   As1
        BYTE   W06
        BYTE                   As1
        BYTE   W06
        BYTE                   As1
        BYTE   W06
        BYTE                   Cs2
        BYTE   W06
        BYTE                   Ds2
        BYTE   W06
        BYTE                   En2
        BYTE   W06
        BYTE                   Ds2
        BYTE   W06
        BYTE                   Cs2
        BYTE   W06
        BYTE   PEND
// 004   ----------------------------------------
        BYTE   PATT
         POIN2  LunarClockLunaDial00_3_2
// 005   ----------------------------------------
        BYTE   PATT
         POIN2  LunarClockLunaDial00_3_3
// 006   ----------------------------------------
        BYTE   PATT
         POIN2  LunarClockLunaDial00_3_2
// 007   ----------------------------------------
        BYTE   PATT
         POIN2  LunarClockLunaDial00_3_3
// 008   ----------------------------------------
        BYTE   PATT
         POIN2  LunarClockLunaDial00_3_2
// 009   ----------------------------------------
        BYTE   PATT
         POIN2  LunarClockLunaDial00_3_3
// 010   ----------------------------------------
        BYTE   PATT
         POIN2  LunarClockLunaDial00_3_2
// 011   ----------------------------------------
        BYTE   PATT
         POIN2  LunarClockLunaDial00_3_3
// 012   ----------------------------------------
        BYTE   PATT
         POIN2  LunarClockLunaDial00_3_2
// 013   ----------------------------------------
        BYTE   W96
// 014   ----------------------------------------
        BYTE   W96
// 015   ----------------------------------------
        BYTE   W96
// 016   ----------------------------------------
        BYTE   W96
// 017   ----------------------------------------
        BYTE   W96
// 018   ----------------------------------------
        BYTE   W96
// 019   ----------------------------------------
        BYTE   W96
// 020   ----------------------------------------
        BYTE   W96
// 021   ----------------------------------------
        BYTE   W96
// 022   ----------------------------------------
        BYTE   W96
// 023   ----------------------------------------
        BYTE   W96
// 024   ----------------------------------------
        BYTE   W96
// 025   ----------------------------------------
        BYTE   W96
// 026   ----------------------------------------
        BYTE   W96
// 027   ----------------------------------------
        BYTE   W96
// 028   ----------------------------------------
        BYTE   W96
// 029   ----------------------------------------
        BYTE   W96
// 030   ----------------------------------------
        BYTE   W96
// 031   ----------------------------------------
        BYTE   W96
// 032   ----------------------------------------
        BYTE   W96
// 033   ----------------------------------------
        BYTE   W96
// 034   ----------------------------------------
        BYTE   W96
// 035   ----------------------------------------
        BYTE   W96
// 036   ----------------------------------------
        BYTE   W96
// 037   ----------------------------------------
        BYTE   W96
// 038   ----------------------------------------
        BYTE   W96
// 039   ----------------------------------------
        BYTE   W96
// 040   ----------------------------------------
        BYTE   W96
// 041   ----------------------------------------
        BYTE   W96
// 042   ----------------------------------------
        BYTE   W96
// 043   ----------------------------------------
        BYTE   W96
// 044   ----------------------------------------
        BYTE   W96
// 045   ----------------------------------------
        BYTE   W96
// 046   ----------------------------------------
        BYTE   W96
// 047   ----------------------------------------
        BYTE   W96
// 048   ----------------------------------------
        BYTE   W96
// 049   ----------------------------------------
        BYTE   PATT
         POIN2  LunarClockLunaDial00_3_3
// 050   ----------------------------------------
        BYTE   PATT
         POIN2  LunarClockLunaDial00_3_2
// 051   ----------------------------------------
        BYTE   PATT
         POIN2  LunarClockLunaDial00_3_3
// 052   ----------------------------------------
        BYTE   PATT
         POIN2  LunarClockLunaDial00_3_2
// 053   ----------------------------------------
        BYTE   PATT
         POIN2  LunarClockLunaDial00_3_3
// 054   ----------------------------------------
        BYTE   PATT
         POIN2  LunarClockLunaDial00_3_2
// 055   ----------------------------------------
        BYTE   PATT
         POIN2  LunarClockLunaDial00_3_3
// 056   ----------------------------------------
        BYTE   PATT
         POIN2  LunarClockLunaDial00_3_2
// 057   ----------------------------------------
        BYTE   PATT
         POIN2  LunarClockLunaDial00_3_3
// 058   ----------------------------------------
        BYTE   PATT
         POIN2  LunarClockLunaDial00_3_2
// 059   ----------------------------------------
        BYTE   PATT
         POIN2  LunarClockLunaDial00_3_3
// 060   ----------------------------------------
        BYTE   PATT
         POIN2  LunarClockLunaDial00_3_2
// 061   ----------------------------------------
        BYTE   W96
// 062   ----------------------------------------
        BYTE   W96
// 063   ----------------------------------------
        BYTE   W96
// 064   ----------------------------------------
        BYTE   W96
// 065   ----------------------------------------
        BYTE   W96
// 066   ----------------------------------------
        BYTE   W96
// 067   ----------------------------------------
        BYTE   W96
// 068   ----------------------------------------
        BYTE   W96
// 069   ----------------------------------------
        BYTE   W96
// 070   ----------------------------------------
        BYTE   W96
// 071   ----------------------------------------
        BYTE   W96
// 072   ----------------------------------------
        BYTE   W96
// 073   ----------------------------------------
        BYTE   W96
// 074   ----------------------------------------
        BYTE   W96
// 075   ----------------------------------------
        BYTE   W96
// 076   ----------------------------------------
        BYTE   W96
// 077   ----------------------------------------
        BYTE   W96
// 078   ----------------------------------------
        BYTE   W96
// 079   ----------------------------------------
        BYTE   W96
// 080   ----------------------------------------
        BYTE   W96
// 081   ----------------------------------------
        BYTE   W96
// 082   ----------------------------------------
        BYTE   W96
// 083   ----------------------------------------
        BYTE   W96
// 084   ----------------------------------------
        BYTE   W96
// 085   ----------------------------------------
        BYTE   W96
// 086   ----------------------------------------
        BYTE   W96
// 087   ----------------------------------------
        BYTE   W96
// 088   ----------------------------------------
        BYTE   W96
// 089   ----------------------------------------
        BYTE   W96
// 090   ----------------------------------------
        BYTE   W96
// 091   ----------------------------------------
        BYTE   W96
// 092   ----------------------------------------
        BYTE   W96
// 093   ----------------------------------------
        BYTE   W96
// 094   ----------------------------------------
        BYTE   W96
// 095   ----------------------------------------
        BYTE   W96
// 096   ----------------------------------------
        BYTE   W96
// 097   ----------------------------------------
        BYTE           N05     As1   v100
        BYTE   GoTo
         POIN2  LunarClockLunaDial00_3_LOOP
        BYTE   W06
        BYTE                   As1
        BYTE   W06
        BYTE                   As1
        BYTE   W06
        BYTE                   As1
        BYTE   W06
        BYTE                   As1
        BYTE   W06
        BYTE                   As1
        BYTE   W06
        BYTE                   As1
        BYTE   W06
        BYTE                   As1
        BYTE   W06
        BYTE                   As1
        BYTE   W06
        BYTE                   As1
        BYTE   W06
        BYTE                   As1
        BYTE   W06
        BYTE                   Cs2
        BYTE   W06
        BYTE                   Ds2
        BYTE   W06
        BYTE                   En2
        BYTE   W06
        BYTE                   Ds2
        BYTE   W06
        BYTE                   Cs2
        BYTE   W06
// 098   ----------------------------------------
        BYTE   PATT
         POIN2  LunarClockLunaDial00_3_2
// 099   ----------------------------------------
        BYTE   PATT
         POIN2  LunarClockLunaDial00_3_3
// 100   ----------------------------------------
        BYTE   PATT
         POIN2  LunarClockLunaDial00_3_2
// 101   ----------------------------------------
        BYTE   PATT
         POIN2  LunarClockLunaDial00_3_3
// 102   ----------------------------------------
        BYTE   PATT
         POIN2  LunarClockLunaDial00_3_2
// 103   ----------------------------------------
        BYTE   PATT
         POIN2  LunarClockLunaDial00_3_3
// 104   ----------------------------------------
        BYTE           N05     As1   v100
        BYTE   W06
        BYTE                   As1
        BYTE   W06
        BYTE                   As1
        BYTE   W06
        BYTE                   As1
        BYTE   W06
        BYTE                   As1
        BYTE   W06
        BYTE                   As1
        BYTE   W06
        BYTE                   As1
        BYTE   W06
        BYTE                   As1
        BYTE   W52
        BYTE   W01
        BYTE   FINE

//****************** Track 4 (Midi-Chn.4) ******************//

LunarClockLunaDial00_4:
        BYTE   KEYSH   LunarClockLunaDial00_key+0
// 000   ----------------------------------------
        BYTE           VOICE   30
        BYTE           PAN     c_v+16
        BYTE           VOL     34
        BYTE           BENDR   12
        BYTE   W24
// 001   ----------------------------------------
LunarClockLunaDial00_4_LOOP:
        BYTE           N05     As0   v100
        BYTE   W06
        BYTE                   As0
        BYTE   W06
        BYTE                   As0
        BYTE   W06
        BYTE                   As0
        BYTE   W06
        BYTE                   As0
        BYTE   W06
        BYTE                   As0
        BYTE   W06
        BYTE                   As0
        BYTE   W06
        BYTE                   As0
        BYTE   W06
        BYTE                   As0
        BYTE   W06
        BYTE                   As0
        BYTE   W06
        BYTE                   As0
        BYTE   W06
        BYTE                   Cs1
        BYTE   W06
        BYTE                   Ds1
        BYTE   W06
        BYTE                   En1
        BYTE   W06
        BYTE                   Ds1
        BYTE   W06
        BYTE                   Cs1
        BYTE   W06
// 002   ----------------------------------------
LunarClockLunaDial00_4_2:
        BYTE           N05     As0   v100
        BYTE   W06
        BYTE                   As0
        BYTE   W06
        BYTE                   As0
        BYTE   W06
        BYTE                   As0
        BYTE   W06
        BYTE                   As0
        BYTE   W06
        BYTE                   As0
        BYTE   W06
        BYTE                   As0
        BYTE   W06
        BYTE                   As0
        BYTE   W54
        BYTE   PEND
// 003   ----------------------------------------
LunarClockLunaDial00_4_3:
        BYTE           N05     As0   v100
        BYTE   W06
        BYTE                   As0
        BYTE   W06
        BYTE                   As0
        BYTE   W06
        BYTE                   As0
        BYTE   W06
        BYTE                   As0
        BYTE   W06
        BYTE                   As0
        BYTE   W06
        BYTE                   As0
        BYTE   W06
        BYTE                   As0
        BYTE   W06
        BYTE                   As0
        BYTE   W06
        BYTE                   As0
        BYTE   W06
        BYTE                   As0
        BYTE   W06
        BYTE                   Cs1
        BYTE   W06
        BYTE                   Ds1
        BYTE   W06
        BYTE                   En1
        BYTE   W06
        BYTE                   Ds1
        BYTE   W06
        BYTE                   Cs1
        BYTE   W06
        BYTE   PEND
// 004   ----------------------------------------
        BYTE   PATT
         POIN2  LunarClockLunaDial00_4_2
// 005   ----------------------------------------
        BYTE   PATT
         POIN2  LunarClockLunaDial00_4_3
// 006   ----------------------------------------
        BYTE   PATT
         POIN2  LunarClockLunaDial00_4_2
// 007   ----------------------------------------
        BYTE   PATT
         POIN2  LunarClockLunaDial00_4_3
// 008   ----------------------------------------
        BYTE   PATT
         POIN2  LunarClockLunaDial00_4_2
// 009   ----------------------------------------
        BYTE   PATT
         POIN2  LunarClockLunaDial00_4_3
// 010   ----------------------------------------
        BYTE   PATT
         POIN2  LunarClockLunaDial00_4_2
// 011   ----------------------------------------
        BYTE   PATT
         POIN2  LunarClockLunaDial00_4_3
// 012   ----------------------------------------
        BYTE   PATT
         POIN2  LunarClockLunaDial00_4_2
// 013   ----------------------------------------
        BYTE   W96
// 014   ----------------------------------------
        BYTE   W96
// 015   ----------------------------------------
        BYTE   W96
// 016   ----------------------------------------
        BYTE   W96
// 017   ----------------------------------------
        BYTE   W96
// 018   ----------------------------------------
        BYTE   W96
// 019   ----------------------------------------
        BYTE   W96
// 020   ----------------------------------------
        BYTE   W96
// 021   ----------------------------------------
        BYTE   W96
// 022   ----------------------------------------
        BYTE   W96
// 023   ----------------------------------------
        BYTE   W96
// 024   ----------------------------------------
        BYTE   W96
// 025   ----------------------------------------
        BYTE   W96
// 026   ----------------------------------------
        BYTE   W96
// 027   ----------------------------------------
        BYTE   W96
// 028   ----------------------------------------
        BYTE   W96
// 029   ----------------------------------------
        BYTE   W96
// 030   ----------------------------------------
        BYTE   W96
// 031   ----------------------------------------
        BYTE   W96
// 032   ----------------------------------------
        BYTE   W96
// 033   ----------------------------------------
        BYTE   W96
// 034   ----------------------------------------
        BYTE   W96
// 035   ----------------------------------------
        BYTE   W96
// 036   ----------------------------------------
        BYTE   W96
// 037   ----------------------------------------
        BYTE   W96
// 038   ----------------------------------------
        BYTE   W96
// 039   ----------------------------------------
        BYTE   W96
// 040   ----------------------------------------
        BYTE   W96
// 041   ----------------------------------------
        BYTE   W96
// 042   ----------------------------------------
        BYTE   W96
// 043   ----------------------------------------
        BYTE   W96
// 044   ----------------------------------------
        BYTE   W96
// 045   ----------------------------------------
        BYTE   W96
// 046   ----------------------------------------
        BYTE   W96
// 047   ----------------------------------------
        BYTE   W96
// 048   ----------------------------------------
        BYTE   W96
// 049   ----------------------------------------
        BYTE   PATT
         POIN2  LunarClockLunaDial00_4_3
// 050   ----------------------------------------
        BYTE   PATT
         POIN2  LunarClockLunaDial00_4_2
// 051   ----------------------------------------
        BYTE   PATT
         POIN2  LunarClockLunaDial00_4_3
// 052   ----------------------------------------
        BYTE   PATT
         POIN2  LunarClockLunaDial00_4_2
// 053   ----------------------------------------
        BYTE   PATT
         POIN2  LunarClockLunaDial00_4_3
// 054   ----------------------------------------
        BYTE   PATT
         POIN2  LunarClockLunaDial00_4_2
// 055   ----------------------------------------
        BYTE   PATT
         POIN2  LunarClockLunaDial00_4_3
// 056   ----------------------------------------
        BYTE   PATT
         POIN2  LunarClockLunaDial00_4_2
// 057   ----------------------------------------
        BYTE   PATT
         POIN2  LunarClockLunaDial00_4_3
// 058   ----------------------------------------
        BYTE   PATT
         POIN2  LunarClockLunaDial00_4_2
// 059   ----------------------------------------
        BYTE   PATT
         POIN2  LunarClockLunaDial00_4_3
// 060   ----------------------------------------
        BYTE   PATT
         POIN2  LunarClockLunaDial00_4_2
// 061   ----------------------------------------
        BYTE   W96
// 062   ----------------------------------------
        BYTE   W96
// 063   ----------------------------------------
        BYTE   W96
// 064   ----------------------------------------
        BYTE   W96
// 065   ----------------------------------------
        BYTE   W96
// 066   ----------------------------------------
        BYTE   W96
// 067   ----------------------------------------
        BYTE   W96
// 068   ----------------------------------------
        BYTE   W96
// 069   ----------------------------------------
        BYTE   W96
// 070   ----------------------------------------
        BYTE   W96
// 071   ----------------------------------------
        BYTE   W96
// 072   ----------------------------------------
        BYTE   W96
// 073   ----------------------------------------
        BYTE   W96
// 074   ----------------------------------------
        BYTE   W96
// 075   ----------------------------------------
        BYTE   W96
// 076   ----------------------------------------
        BYTE   W96
// 077   ----------------------------------------
        BYTE   W96
// 078   ----------------------------------------
        BYTE   W96
// 079   ----------------------------------------
        BYTE   W96
// 080   ----------------------------------------
        BYTE   W96
// 081   ----------------------------------------
        BYTE   W96
// 082   ----------------------------------------
        BYTE   W96
// 083   ----------------------------------------
        BYTE   W96
// 084   ----------------------------------------
        BYTE   W96
// 085   ----------------------------------------
        BYTE   W96
// 086   ----------------------------------------
        BYTE   W96
// 087   ----------------------------------------
        BYTE   W96
// 088   ----------------------------------------
        BYTE   W96
// 089   ----------------------------------------
        BYTE   W96
// 090   ----------------------------------------
        BYTE   W96
// 091   ----------------------------------------
        BYTE   W96
// 092   ----------------------------------------
        BYTE   W96
// 093   ----------------------------------------
        BYTE   W96
// 094   ----------------------------------------
        BYTE   W96
// 095   ----------------------------------------
        BYTE   W96
// 096   ----------------------------------------
        BYTE   W96
// 097   ----------------------------------------
        BYTE           N05     As0   v100
        BYTE   GoTo
         POIN2  LunarClockLunaDial00_4_LOOP
        BYTE   W06
        BYTE                   As0
        BYTE   W06
        BYTE                   As0
        BYTE   W06
        BYTE                   As0
        BYTE   W06
        BYTE                   As0
        BYTE   W06
        BYTE                   As0
        BYTE   W06
        BYTE                   As0
        BYTE   W06
        BYTE                   As0
        BYTE   W06
        BYTE                   As0
        BYTE   W06
        BYTE                   As0
        BYTE   W06
        BYTE                   As0
        BYTE   W06
        BYTE                   Cs1
        BYTE   W06
        BYTE                   Ds1
        BYTE   W06
        BYTE                   En1
        BYTE   W06
        BYTE                   Ds1
        BYTE   W06
        BYTE                   Cs1
        BYTE   W06
// 098   ----------------------------------------
        BYTE   PATT
         POIN2  LunarClockLunaDial00_4_2
// 099   ----------------------------------------
        BYTE   PATT
         POIN2  LunarClockLunaDial00_4_3
// 100   ----------------------------------------
        BYTE   PATT
         POIN2  LunarClockLunaDial00_4_2
// 101   ----------------------------------------
        BYTE   PATT
         POIN2  LunarClockLunaDial00_4_3
// 102   ----------------------------------------
        BYTE   PATT
         POIN2  LunarClockLunaDial00_4_2
// 103   ----------------------------------------
        BYTE   PATT
         POIN2  LunarClockLunaDial00_4_3
// 104   ----------------------------------------
        BYTE           N05     As0   v100
        BYTE   W06
        BYTE                   As0
        BYTE   W06
        BYTE                   As0
        BYTE   W06
        BYTE                   As0
        BYTE   W06
        BYTE                   As0
        BYTE   W06
        BYTE                   As0
        BYTE   W06
        BYTE                   As0
        BYTE   W06
        BYTE                   As0
        BYTE   W52
        BYTE   W01
        BYTE   FINE

//****************** Track 5 (Midi-Chn.5) ******************//

LunarClockLunaDial00_5:
        BYTE   KEYSH   LunarClockLunaDial00_key+0
// 000   ----------------------------------------
        BYTE           VOICE   18
        BYTE           PAN     c_v-14
        BYTE           VOL     29
        BYTE           BENDR   12
        BYTE   W24
// 001   ----------------------------------------
LunarClockLunaDial00_5_LOOP:
        BYTE   W96
// 002   ----------------------------------------
        BYTE   W96
// 003   ----------------------------------------
        BYTE   W96
// 004   ----------------------------------------
LunarClockLunaDial00_5_4:
        BYTE   W92
        BYTE   W01
        BYTE           N05     Ds4   v090
        BYTE           N05     Ds3
        BYTE   W03
        BYTE   PEND
// 005   ----------------------------------------
LunarClockLunaDial00_5_5:
        BYTE           N17     Fn4   v100
        BYTE           N17     As3
        BYTE           N17     Fn3   v090
        BYTE           N17     As2
        BYTE   W18
        BYTE                   Cs5   v100
        BYTE           N17     Fn4
        BYTE           N17     Cs4   v090
        BYTE           N17     Fn3
        BYTE   W18
        BYTE           N09     Cn5   v100
        BYTE           N09     Gs4
        BYTE           N09     Cn4   v090
        BYTE           N09     Gs3
        BYTE   W12
        BYTE           N08     As4   v100
        BYTE           N08     Fn4
        BYTE           N08     As3   v090
        BYTE           N08     Fn3
        BYTE   W12
        BYTE                   Gs4   v100
        BYTE           N08     Ds4
        BYTE           N08     Gs3   v090
        BYTE           N08     Ds3
        BYTE   W12
        BYTE                   Fn4   v100
        BYTE           N08     Cn4
        BYTE           N08     Fn3   v090
        BYTE           N08     Cn3
        BYTE   W12
        BYTE                   Fn4   v100
        BYTE           N08     As4
        BYTE           N08     As3   v090
        BYTE           N08     Fn3
        BYTE   W12
        BYTE   PEND
// 006   ----------------------------------------
        BYTE   W96
// 007   ----------------------------------------
LunarClockLunaDial00_5_7:
        BYTE           N05     Fn4   v100
        BYTE           N05     Fn3   v090
        BYTE           N05     As3   v070
        BYTE           N05     As2   v060
        BYTE   W06
        BYTE                   As4   v100
        BYTE           N05     As3   v090
        BYTE           N05     Cs4   v070
        BYTE           N05     Cs3   v060
        BYTE   W06
        BYTE                   Cs5   v100
        BYTE           N05     Cs4   v090
        BYTE           N05     Fn4   v070
        BYTE           N05     Fn3   v060
        BYTE   W06
        BYTE                   As4   v100
        BYTE           N05     As3   v090
        BYTE           N05     Cs4   v070
        BYTE           N05     Cs3   v060
        BYTE   W06
        BYTE                   Cs5   v100
        BYTE           N05     Cs4   v090
        BYTE           N05     Fn4   v070
        BYTE           N05     Fn3   v060
        BYTE   W06
        BYTE                   Ds5   v100
        BYTE           N05     Ds4   v090
        BYTE           N05     Gs4   v070
        BYTE           N05     Gs3   v060
        BYTE   W06
        BYTE                   En5   v100
        BYTE           N05     En4   v090
        BYTE           N05     An4   v070
        BYTE           N05     An3   v060
        BYTE   W06
        BYTE                   As4   v070
        BYTE           N05     Fn5   v100
        BYTE           N05     Fn4   v090
        BYTE           N05     As3   v060
        BYTE   W06
        BYTE                   Cn5   v100
        BYTE           N05     Cn4   v090
        BYTE           N05     Fn4   v070
        BYTE           N05     Fn3   v060
        BYTE   W06
        BYTE                   Cs5   v100
        BYTE           N05     Cs4   v090
        BYTE           N05     Fn4   v070
        BYTE           N05     Fn3   v060
        BYTE   W06
        BYTE                   Gs4   v100
        BYTE           N05     Gs3   v090
        BYTE           N05     Cs4   v070
        BYTE           N05     Cs3   v060
        BYTE   W06
        BYTE                   Cs5   v100
        BYTE           N05     Cs4   v090
        BYTE           N05     Fn4   v070
        BYTE           N05     Fn3   v060
        BYTE   W06
        BYTE                   Fn4   v100
        BYTE           N05     Fn3   v090
        BYTE           N05     As3   v070
        BYTE           N05     As2   v060
        BYTE   W06
        BYTE                   Cs5   v100
        BYTE           N05     Cs4   v090
        BYTE           N05     Fn4   v070
        BYTE           N05     Fn3   v060
        BYTE   W06
        BYTE                   Cs4   v100
        BYTE           N05     Cs3   v090
        BYTE           N05     Gs3   v070
        BYTE           N05     Gs2   v060
        BYTE   W06
        BYTE                   Cs5   v100
        BYTE           N05     Cs4   v090
        BYTE           N05     Fn4   v070
        BYTE           N05     Fn3   v060
        BYTE   W06
        BYTE   PEND
// 008   ----------------------------------------
LunarClockLunaDial00_5_8:
        BYTE           N05     Ds4   v100
        BYTE           N05     Ds3   v090
        BYTE           N05     As3   v070
        BYTE           N05     As2   v060
        BYTE   W06
        BYTE                   Cs5   v100
        BYTE           N05     Cs4   v090
        BYTE           N05     Fn4   v070
        BYTE           N05     Fn3   v060
        BYTE   W06
        BYTE                   Ds4   v100
        BYTE           N05     Ds3   v090
        BYTE           N05     As3   v070
        BYTE           N05     As2   v060
        BYTE   W06
        BYTE                   Cs5   v100
        BYTE           N05     Cs4   v090
        BYTE           N05     Fn4   v070
        BYTE           N05     Fn3   v060
        BYTE   W06
        BYTE                   Fn4   v100
        BYTE           N05     Fn3   v090
        BYTE           N05     Cs4   v070
        BYTE           N05     Cs3   v060
        BYTE   W06
        BYTE                   Cs5   v100
        BYTE           N05     Cs4   v090
        BYTE           N05     Fn4   v070
        BYTE           N05     Fn3   v060
        BYTE   W06
        BYTE                   Fn4   v100
        BYTE           N05     Fn3   v090
        BYTE           N05     Cs4   v070
        BYTE           N05     Cs3   v060
        BYTE   W06
        BYTE                   Cs5   v100
        BYTE           N05     Cs4   v090
        BYTE           N05     Fn4   v070
        BYTE           N05     Fn3   v060
        BYTE   W06
        BYTE           N23     Ds5   v100
        BYTE           N23     As4
        BYTE           N23     Ds4   v090
        BYTE           N23     As3
        BYTE   W24
        BYTE                   En5   v100
        BYTE           N23     Bn4
        BYTE           N23     En4   v090
        BYTE           N23     Bn3
        BYTE   W24
        BYTE   PEND
// 009   ----------------------------------------
        BYTE   PATT
         POIN2  LunarClockLunaDial00_5_5
// 010   ----------------------------------------
        BYTE   W96
// 011   ----------------------------------------
        BYTE   PATT
         POIN2  LunarClockLunaDial00_5_7
// 012   ----------------------------------------
        BYTE   PATT
         POIN2  LunarClockLunaDial00_5_8
// 013   ----------------------------------------
LunarClockLunaDial00_5_13:
        BYTE   W60
        BYTE           N05     As4   v100
        BYTE           N05     Ds4   v065
        BYTE           N05     As3   v090
        BYTE           N05     Ds3   v055
        BYTE   W06
        BYTE                   Cn5   v100
        BYTE           N05     Fn4   v065
        BYTE           N05     Cn4   v090
        BYTE           N05     Fn3   v055
        BYTE   W06
        BYTE                   Cs5   v100
        BYTE           N05     Fs4   v065
        BYTE           N05     Cs4   v090
        BYTE           N05     Fs3   v055
        BYTE   W06
        BYTE                   Ds5   v100
        BYTE           N05     Gs4   v065
        BYTE           N05     Ds4   v090
        BYTE           N05     An3   v055
        BYTE   W06
        BYTE                   Cs5   v100
        BYTE           N05     Fs4   v065
        BYTE           N05     Cs4   v090
        BYTE           N05     Fs3   v055
        BYTE   W06
        BYTE                   Cn5   v100
        BYTE           N05     Fn4   v065
        BYTE           N05     Cn4   v090
        BYTE           N05     Fn3   v055
        BYTE   W06
        BYTE   PEND
// 014   ----------------------------------------
LunarClockLunaDial00_5_14:
        BYTE   W60
        BYTE           N05     Fn4   v100
        BYTE           N05     As3   v065
        BYTE           N05     Fn3   v090
        BYTE           N05     As2   v055
        BYTE   W06
        BYTE                   Gs4   v100
        BYTE           N05     Cs4   v065
        BYTE           N05     Gs3   v090
        BYTE           N05     Cs3   v055
        BYTE   W06
        BYTE                   As4   v100
        BYTE           N05     Ds4   v065
        BYTE           N05     As3   v090
        BYTE           N05     Ds3   v055
        BYTE   W06
        BYTE                   Cn5   v100
        BYTE           N05     Fn4   v065
        BYTE           N05     Cn4   v090
        BYTE           N05     Fn3   v055
        BYTE   W06
        BYTE                   Cs5   v100
        BYTE           N05     Fs4   v065
        BYTE           N05     Cs4   v090
        BYTE           N05     Fs3   v055
        BYTE   W06
        BYTE                   Ds5   v100
        BYTE           N05     Gs4   v065
        BYTE           N05     Ds4   v090
        BYTE           N05     Gs3   v055
        BYTE   W06
        BYTE   PEND
// 015   ----------------------------------------
        BYTE   PATT
         POIN2  LunarClockLunaDial00_5_13
// 016   ----------------------------------------
        BYTE   PATT
         POIN2  LunarClockLunaDial00_5_14
// 017   ----------------------------------------
LunarClockLunaDial00_5_17:
        BYTE           N23     As4   v100
        BYTE           N23     As3   v090
        BYTE   W22
        BYTE           N03     Ds5   v080
        BYTE           N03     Ds4   v070
        BYTE   W02
        BYTE           N23     Fn5   v100
        BYTE           N23     Fn4   v090
        BYTE   W24
        BYTE           N17     En5   v100
        BYTE           N17     En4   v090
        BYTE   W18
        BYTE                   Ds5   v100
        BYTE           N17     Ds4   v090
        BYTE   W18
        BYTE           N23     Cs5   v100
        BYTE           N23     Cs4   v090
        BYTE   W12
        BYTE   PEND
// 018   ----------------------------------------
LunarClockLunaDial00_5_18:
        BYTE   W12
        BYTE           N11     As4   v100
        BYTE           N11     As3   v090
        BYTE   W12
        BYTE                   Fn4   v100
        BYTE           N11     Fn3   v090
        BYTE   W12
        BYTE                   Gs4   v100
        BYTE           N11     Gs3   v090
        BYTE   W12
        BYTE                   As4   v100
        BYTE           N11     As3   v090
        BYTE   W12
        BYTE                   Fn4   v100
        BYTE           N11     Fn3   v090
        BYTE   W12
        BYTE                   Gs4   v100
        BYTE           N11     Gs3   v090
        BYTE   W12
        BYTE                   An4   v100
        BYTE           N11     An3   v090
        BYTE   W12
        BYTE   PEND
// 019   ----------------------------------------
LunarClockLunaDial00_5_19:
        BYTE           N68     As4   v100   gtp3
        BYTE                   As3   v090
        BYTE   W84
        BYTE           N11     As4   v100
        BYTE           N11     As3   v090
        BYTE   W12
        BYTE   PEND
// 020   ----------------------------------------
LunarClockLunaDial00_5_20:
        BYTE           N17     Fn5   v100
        BYTE           N17     Fn4   v090
        BYTE   W18
        BYTE                   En5   v100
        BYTE           N17     En4   v090
        BYTE   W18
        BYTE                   Ds5   v100
        BYTE           N17     Ds4   v090
        BYTE   W18
        BYTE                   Cs5   v100
        BYTE           N17     Cs4   v090
        BYTE   W18
        BYTE           N11     Gs4   v100
        BYTE           N11     Gs3   v090
        BYTE   W12
        BYTE                   An4   v100
        BYTE           N11     An3   v090
        BYTE   W12
        BYTE   PEND
// 021   ----------------------------------------
LunarClockLunaDial00_5_21:
        BYTE           N23     Bn4   v100
        BYTE           N23     Bn3   v090
        BYTE   W24
        BYTE                   Dn5   v100
        BYTE           N23     Dn4   v090
        BYTE   W24
        BYTE           N17     Fn5   v100
        BYTE           N17     Fn4   v090
        BYTE   W18
        BYTE                   En5   v100
        BYTE           N17     En4   v090
        BYTE   W18
        BYTE           N23     Dn5   v100
        BYTE           N23     Dn4   v090
        BYTE   W12
        BYTE   PEND
// 022   ----------------------------------------
LunarClockLunaDial00_5_22:
        BYTE   W10
        BYTE           N03     Gn5   v080
        BYTE           N03     Gn4   v070
        BYTE   W02
        BYTE           N11     An5   v100
        BYTE           N11     An4   v090
        BYTE   W12
        BYTE                   Fn5   v100
        BYTE           N11     Fn4   v090
        BYTE   W12
        BYTE                   En5   v100
        BYTE           N11     En4   v090
        BYTE   W12
        BYTE                   Dn5   v100
        BYTE           N11     Dn4   v090
        BYTE   W12
        BYTE                   Bn4   v100
        BYTE           N11     Bn3   v090
        BYTE   W12
        BYTE                   En5   v100
        BYTE           N11     En4   v090
        BYTE   W12
        BYTE                   Fn5   v100
        BYTE           N11     Fn4   v090
        BYTE   W12
        BYTE   PEND
// 023   ----------------------------------------
LunarClockLunaDial00_5_23:
        BYTE           N68     Bn4   v100   gtp3
        BYTE                   Bn3   v090
        BYTE   W84
        BYTE           N11     Bn4   v100
        BYTE           N11     Bn3   v090
        BYTE   W10
        BYTE           N03     Fn5   v080
        BYTE           N03     Fn4   v070
        BYTE   W02
        BYTE   PEND
// 024   ----------------------------------------
LunarClockLunaDial00_5_24:
        BYTE           N17     Fs5   v100
        BYTE           N17     Fs4   v090
        BYTE   W18
        BYTE                   Fn5   v100
        BYTE           N17     Fn4   v090
        BYTE   W18
        BYTE                   En5   v100
        BYTE           N17     En4   v090
        BYTE   W18
        BYTE                   Dn5   v100
        BYTE           N17     Dn4   v090
        BYTE   W18
        BYTE           N11     Cs5   v100
        BYTE           N11     Cs4   v090
        BYTE   W12
        BYTE                   Cn5   v100
        BYTE           N11     Cn4   v090
        BYTE   W12
        BYTE   PEND
// 025   ----------------------------------------
        BYTE   PATT
         POIN2  LunarClockLunaDial00_5_17
// 026   ----------------------------------------
        BYTE   PATT
         POIN2  LunarClockLunaDial00_5_18
// 027   ----------------------------------------
        BYTE   PATT
         POIN2  LunarClockLunaDial00_5_19
// 028   ----------------------------------------
        BYTE   PATT
         POIN2  LunarClockLunaDial00_5_20
// 029   ----------------------------------------
        BYTE   PATT
         POIN2  LunarClockLunaDial00_5_21
// 030   ----------------------------------------
LunarClockLunaDial00_5_30:
        BYTE   W12
        BYTE           N11     An5   v100
        BYTE           N11     An4   v090
        BYTE   W12
        BYTE                   Fn5   v100
        BYTE           N11     Fn4   v090
        BYTE   W12
        BYTE                   En5   v100
        BYTE           N11     En4   v090
        BYTE   W12
        BYTE                   Dn5   v100
        BYTE           N11     Dn4   v090
        BYTE   W12
        BYTE                   Bn4   v100
        BYTE           N11     Bn3   v090
        BYTE   W12
        BYTE                   En5   v100
        BYTE           N11     En4   v090
        BYTE   W12
        BYTE                   Fn5   v100
        BYTE           N11     Fn4   v090
        BYTE   W12
        BYTE   PEND
// 031   ----------------------------------------
LunarClockLunaDial00_5_31:
        BYTE           N11     Bn4   v100
        BYTE           N11     Bn3   v090
        BYTE   W12
        BYTE                   An4   v100
        BYTE           N11     An3   v090
        BYTE   W12
        BYTE                   As4   v100
        BYTE           N11     As3   v090
        BYTE   W12
        BYTE                   Bn4   v100
        BYTE           N11     Bn3   v090
        BYTE   W12
        BYTE                   Dn5   v100
        BYTE           N11     Dn4   v090
        BYTE   W12
        BYTE                   Bn4   v100
        BYTE           N11     Bn3   v090
        BYTE   W12
        BYTE                   Dn5   v100
        BYTE           N11     Dn4   v090
        BYTE   W12
        BYTE                   Fn5   v100
        BYTE           N11     Fn4   v090
        BYTE   W12
        BYTE   PEND
// 032   ----------------------------------------
LunarClockLunaDial00_5_32:
        BYTE           N17     Bn5   v100
        BYTE           N17     Bn4   v090
        BYTE   W18
        BYTE                   Fs5   v100
        BYTE           N17     Fs4   v090
        BYTE   W18
        BYTE                   Fn5   v100
        BYTE           N17     Fn4   v090
        BYTE   W18
        BYTE                   En5   v100
        BYTE           N17     En4   v090
        BYTE   W18
        BYTE           N11     Dn5   v100
        BYTE           N11     Dn4   v090
        BYTE   W12
        BYTE                   Cs5   v100
        BYTE           N11     Cs4   v090
        BYTE   W12
        BYTE   PEND
// 033   ----------------------------------------
        BYTE   W96
// 034   ----------------------------------------
        BYTE   W96
// 035   ----------------------------------------
        BYTE   W96
// 036   ----------------------------------------
        BYTE   W96
// 037   ----------------------------------------
        BYTE   W96
// 038   ----------------------------------------
        BYTE   W96
// 039   ----------------------------------------
        BYTE   W96
// 040   ----------------------------------------
        BYTE   W96
// 041   ----------------------------------------
        BYTE   W96
// 042   ----------------------------------------
        BYTE   W96
// 043   ----------------------------------------
        BYTE   W96
// 044   ----------------------------------------
        BYTE   W96
// 045   ----------------------------------------
        BYTE   W96
// 046   ----------------------------------------
        BYTE   W96
// 047   ----------------------------------------
        BYTE   W96
// 048   ----------------------------------------
        BYTE   W96
// 049   ----------------------------------------
        BYTE   W96
// 050   ----------------------------------------
        BYTE   W96
// 051   ----------------------------------------
        BYTE   W96
// 052   ----------------------------------------
        BYTE   PATT
         POIN2  LunarClockLunaDial00_5_4
// 053   ----------------------------------------
        BYTE   PATT
         POIN2  LunarClockLunaDial00_5_5
// 054   ----------------------------------------
        BYTE   W96
// 055   ----------------------------------------
        BYTE   PATT
         POIN2  LunarClockLunaDial00_5_7
// 056   ----------------------------------------
        BYTE   PATT
         POIN2  LunarClockLunaDial00_5_8
// 057   ----------------------------------------
        BYTE   PATT
         POIN2  LunarClockLunaDial00_5_5
// 058   ----------------------------------------
        BYTE   W96
// 059   ----------------------------------------
        BYTE   PATT
         POIN2  LunarClockLunaDial00_5_7
// 060   ----------------------------------------
        BYTE   PATT
         POIN2  LunarClockLunaDial00_5_8
// 061   ----------------------------------------
        BYTE   PATT
         POIN2  LunarClockLunaDial00_5_13
// 062   ----------------------------------------
        BYTE   PATT
         POIN2  LunarClockLunaDial00_5_14
// 063   ----------------------------------------
        BYTE   PATT
         POIN2  LunarClockLunaDial00_5_13
// 064   ----------------------------------------
        BYTE   PATT
         POIN2  LunarClockLunaDial00_5_14
// 065   ----------------------------------------
        BYTE   PATT
         POIN2  LunarClockLunaDial00_5_17
// 066   ----------------------------------------
        BYTE   PATT
         POIN2  LunarClockLunaDial00_5_18
// 067   ----------------------------------------
        BYTE   PATT
         POIN2  LunarClockLunaDial00_5_19
// 068   ----------------------------------------
        BYTE   PATT
         POIN2  LunarClockLunaDial00_5_20
// 069   ----------------------------------------
        BYTE   PATT
         POIN2  LunarClockLunaDial00_5_21
// 070   ----------------------------------------
        BYTE   PATT
         POIN2  LunarClockLunaDial00_5_22
// 071   ----------------------------------------
        BYTE   PATT
         POIN2  LunarClockLunaDial00_5_23
// 072   ----------------------------------------
        BYTE   PATT
         POIN2  LunarClockLunaDial00_5_24
// 073   ----------------------------------------
        BYTE   PATT
         POIN2  LunarClockLunaDial00_5_17
// 074   ----------------------------------------
        BYTE   PATT
         POIN2  LunarClockLunaDial00_5_18
// 075   ----------------------------------------
        BYTE   PATT
         POIN2  LunarClockLunaDial00_5_19
// 076   ----------------------------------------
        BYTE   PATT
         POIN2  LunarClockLunaDial00_5_20
// 077   ----------------------------------------
        BYTE   PATT
         POIN2  LunarClockLunaDial00_5_21
// 078   ----------------------------------------
        BYTE   PATT
         POIN2  LunarClockLunaDial00_5_30
// 079   ----------------------------------------
        BYTE   PATT
         POIN2  LunarClockLunaDial00_5_31
// 080   ----------------------------------------
        BYTE   PATT
         POIN2  LunarClockLunaDial00_5_32
// 081   ----------------------------------------
        BYTE   W96
// 082   ----------------------------------------
        BYTE   W96
// 083   ----------------------------------------
        BYTE   W96
// 084   ----------------------------------------
        BYTE   W96
// 085   ----------------------------------------
        BYTE   W96
// 086   ----------------------------------------
        BYTE   W96
// 087   ----------------------------------------
        BYTE   W96
// 088   ----------------------------------------
        BYTE   W96
// 089   ----------------------------------------
        BYTE   W96
// 090   ----------------------------------------
        BYTE   W96
// 091   ----------------------------------------
        BYTE   W96
// 092   ----------------------------------------
        BYTE   W96
// 093   ----------------------------------------
        BYTE   W96
// 094   ----------------------------------------
        BYTE   W96
// 095   ----------------------------------------
        BYTE   W96
// 096   ----------------------------------------
        BYTE   W96
// 097   ----------------------------------------
        BYTE   GoTo
         POIN2  LunarClockLunaDial00_5_LOOP
        BYTE   W96
// 098   ----------------------------------------
        BYTE   W96
// 099   ----------------------------------------
        BYTE   W96
// 100   ----------------------------------------
        BYTE   PATT
         POIN2  LunarClockLunaDial00_5_4
// 101   ----------------------------------------
        BYTE   PATT
         POIN2  LunarClockLunaDial00_5_5
// 102   ----------------------------------------
        BYTE   W96
// 103   ----------------------------------------
        BYTE   PATT
         POIN2  LunarClockLunaDial00_5_7
// 104   ----------------------------------------
        BYTE           N05     Ds4   v100
        BYTE           N05     Ds3   v090
        BYTE           N05     As3   v070
        BYTE           N05     As2   v060
        BYTE   W06
        BYTE                   Cs5   v100
        BYTE           N05     Cs4   v090
        BYTE           N05     Fn4   v070
        BYTE           N05     Fn3   v060
        BYTE   W06
        BYTE                   Ds4   v100
        BYTE           N05     Ds3   v090
        BYTE           N05     As3   v070
        BYTE           N05     As2   v060
        BYTE   W06
        BYTE                   Cs5   v100
        BYTE           N05     Cs4   v090
        BYTE           N05     Fn4   v070
        BYTE           N05     Fn3   v060
        BYTE   W06
        BYTE                   Fn4   v100
        BYTE           N05     Fn3   v090
        BYTE           N05     Cs4   v070
        BYTE           N05     Cs3   v060
        BYTE   W06
        BYTE                   Cs5   v100
        BYTE           N05     Cs4   v090
        BYTE           N05     Fn4   v070
        BYTE           N05     Fn3   v060
        BYTE   W06
        BYTE                   Fn4   v100
        BYTE           N05     Fn3   v090
        BYTE           N05     Cs4   v070
        BYTE           N05     Cs3   v060
        BYTE   W06
        BYTE                   Cs5   v100
        BYTE           N05     Cs4   v090
        BYTE           N05     Fn4   v070
        BYTE           N05     Fn3   v060
        BYTE   W06
        BYTE           N23     Ds5   v100
        BYTE           N23     As4
        BYTE           N23     Ds4   v090
        BYTE           N23     As3
        BYTE   W24
        BYTE                   En5   v100
        BYTE           N23     Bn4
        BYTE           N23     En4   v090
        BYTE           N23     Bn3
        BYTE   W23
        BYTE   FINE

//****************** Track 6 (Midi-Chn.6) ******************//

LunarClockLunaDial00_6:
        BYTE   KEYSH   LunarClockLunaDial00_key+0
// 000   ----------------------------------------
        BYTE           VOICE   18
        BYTE           PAN     c_v-19
        BYTE           VOL     32
        BYTE           BENDR   12
        BYTE   W24
// 001   ----------------------------------------
LunarClockLunaDial00_6_LOOP:
        BYTE   W96
// 002   ----------------------------------------
        BYTE   W96
// 003   ----------------------------------------
        BYTE   W96
// 004   ----------------------------------------
LunarClockLunaDial00_6_4:
        BYTE   W92
        BYTE   W01
        BYTE           N05     Ds4   v100
        BYTE           N05     Ds3   v080
        BYTE   W03
        BYTE   PEND
// 005   ----------------------------------------
LunarClockLunaDial00_6_5:
        BYTE           N17     Fn4   v100
        BYTE           N17     Fn3   v080
        BYTE   W18
        BYTE                   Cs5   v100
        BYTE           N17     Cs4   v080
        BYTE   W18
        BYTE           N09     Cn5   v100
        BYTE           N09     Cn4   v080
        BYTE   W12
        BYTE           N08     As4   v100
        BYTE           N08     As3   v080
        BYTE   W12
        BYTE                   Gs4   v100
        BYTE           N08     Gs3   v080
        BYTE   W12
        BYTE                   Fn4   v100
        BYTE           N08     Fn3   v080
        BYTE   W12
        BYTE                   As4   v100
        BYTE           N08     As3   v080
        BYTE   W12
        BYTE   PEND
// 006   ----------------------------------------
        BYTE   W96
// 007   ----------------------------------------
LunarClockLunaDial00_6_7:
        BYTE           N05     Fn4   v100
        BYTE           N05     Fn3   v080
        BYTE   W06
        BYTE                   As4   v100
        BYTE           N05     As3   v080
        BYTE   W06
        BYTE                   Cs5   v100
        BYTE           N05     Cs4   v080
        BYTE   W06
        BYTE                   As4   v100
        BYTE           N05     As3   v080
        BYTE   W06
        BYTE                   Cs5   v100
        BYTE           N05     Cs4   v080
        BYTE   W06
        BYTE                   Ds5   v100
        BYTE           N05     Ds4   v080
        BYTE   W06
        BYTE                   En5   v100
        BYTE           N05     En4   v080
        BYTE   W06
        BYTE                   Fn5   v100
        BYTE           N05     Fn4   v080
        BYTE   W06
        BYTE                   Cn5   v100
        BYTE           N05     Cn4   v080
        BYTE   W06
        BYTE                   Cs5   v100
        BYTE           N05     Cs4   v080
        BYTE   W06
        BYTE                   Gs4   v100
        BYTE           N05     Gs3   v080
        BYTE   W06
        BYTE                   Cs5   v100
        BYTE           N05     Cs4   v080
        BYTE   W06
        BYTE                   Fn4   v100
        BYTE           N05     Fn3   v080
        BYTE   W06
        BYTE                   Cs5   v100
        BYTE           N05     Cs4   v080
        BYTE   W06
        BYTE                   Cs4   v100
        BYTE           N05     Cs3   v080
        BYTE   W06
        BYTE                   Cs5   v100
        BYTE           N05     Cs4   v080
        BYTE   W06
        BYTE   PEND
// 008   ----------------------------------------
LunarClockLunaDial00_6_8:
        BYTE           N05     Ds4   v100
        BYTE           N05     Ds3   v080
        BYTE   W06
        BYTE                   Cs5   v100
        BYTE           N05     Cs4   v080
        BYTE   W06
        BYTE                   Ds4   v100
        BYTE           N05     Ds3   v080
        BYTE   W06
        BYTE                   Cs5   v100
        BYTE           N05     Cs4   v080
        BYTE   W06
        BYTE                   Fn4   v100
        BYTE           N05     Fn3   v080
        BYTE   W06
        BYTE                   Cs5   v100
        BYTE           N05     Cs4   v080
        BYTE   W06
        BYTE                   Fn4   v100
        BYTE           N05     Fn3   v080
        BYTE   W06
        BYTE                   Cs5   v100
        BYTE           N05     Cs4   v080
        BYTE   W06
        BYTE           N23     Ds5   v100
        BYTE           N23     Ds4   v080
        BYTE   W24
        BYTE                   En5   v100
        BYTE           N23     En4   v080
        BYTE   W24
        BYTE   PEND
// 009   ----------------------------------------
        BYTE   PATT
         POIN2  LunarClockLunaDial00_6_5
// 010   ----------------------------------------
        BYTE   W96
// 011   ----------------------------------------
        BYTE   PATT
         POIN2  LunarClockLunaDial00_6_7
// 012   ----------------------------------------
        BYTE   PATT
         POIN2  LunarClockLunaDial00_6_8
// 013   ----------------------------------------
LunarClockLunaDial00_6_13:
        BYTE   W60
        BYTE           N05     As4   v100
        BYTE           N05     As3   v080
        BYTE   W06
        BYTE                   Cn5   v100
        BYTE           N05     Cn4   v080
        BYTE   W06
        BYTE                   Cs5   v100
        BYTE           N05     Cs4   v080
        BYTE   W06
        BYTE                   Ds5   v100
        BYTE           N05     Ds4   v080
        BYTE   W06
        BYTE                   Cs5   v100
        BYTE           N05     Cs4   v080
        BYTE   W06
        BYTE                   Cn5   v100
        BYTE           N05     Cn4   v080
        BYTE   W06
        BYTE   PEND
// 014   ----------------------------------------
LunarClockLunaDial00_6_14:
        BYTE   W60
        BYTE           N05     Fn4   v100
        BYTE           N05     Fn3   v080
        BYTE   W06
        BYTE                   Gs4   v100
        BYTE           N05     Gs3   v080
        BYTE   W06
        BYTE                   As4   v100
        BYTE           N05     As3   v080
        BYTE   W06
        BYTE                   Cn5   v100
        BYTE           N05     Cn4   v080
        BYTE   W06
        BYTE                   Cs5   v100
        BYTE           N05     Cs4   v080
        BYTE   W06
        BYTE                   Ds5   v100
        BYTE           N05     Ds4   v080
        BYTE   W06
        BYTE   PEND
// 015   ----------------------------------------
        BYTE   PATT
         POIN2  LunarClockLunaDial00_6_13
// 016   ----------------------------------------
        BYTE   PATT
         POIN2  LunarClockLunaDial00_6_14
// 017   ----------------------------------------
        BYTE   PATT
         POIN2  LunarClockLunaDial00_5_17
// 018   ----------------------------------------
        BYTE   PATT
         POIN2  LunarClockLunaDial00_5_18
// 019   ----------------------------------------
        BYTE   PATT
         POIN2  LunarClockLunaDial00_5_19
// 020   ----------------------------------------
        BYTE   PATT
         POIN2  LunarClockLunaDial00_5_20
// 021   ----------------------------------------
        BYTE   PATT
         POIN2  LunarClockLunaDial00_5_21
// 022   ----------------------------------------
        BYTE   PATT
         POIN2  LunarClockLunaDial00_5_22
// 023   ----------------------------------------
        BYTE   PATT
         POIN2  LunarClockLunaDial00_5_23
// 024   ----------------------------------------
        BYTE   PATT
         POIN2  LunarClockLunaDial00_5_24
// 025   ----------------------------------------
        BYTE   PATT
         POIN2  LunarClockLunaDial00_5_17
// 026   ----------------------------------------
        BYTE   PATT
         POIN2  LunarClockLunaDial00_5_18
// 027   ----------------------------------------
        BYTE   PATT
         POIN2  LunarClockLunaDial00_5_19
// 028   ----------------------------------------
        BYTE   PATT
         POIN2  LunarClockLunaDial00_5_20
// 029   ----------------------------------------
        BYTE   PATT
         POIN2  LunarClockLunaDial00_5_21
// 030   ----------------------------------------
        BYTE   PATT
         POIN2  LunarClockLunaDial00_5_30
// 031   ----------------------------------------
        BYTE   PATT
         POIN2  LunarClockLunaDial00_5_31
// 032   ----------------------------------------
        BYTE   PATT
         POIN2  LunarClockLunaDial00_5_32
// 033   ----------------------------------------
        BYTE   W96
// 034   ----------------------------------------
        BYTE   W96
// 035   ----------------------------------------
        BYTE   W96
// 036   ----------------------------------------
        BYTE   W96
// 037   ----------------------------------------
        BYTE   W96
// 038   ----------------------------------------
        BYTE   W96
// 039   ----------------------------------------
        BYTE   W96
// 040   ----------------------------------------
        BYTE   W96
// 041   ----------------------------------------
        BYTE   W96
// 042   ----------------------------------------
        BYTE   W96
// 043   ----------------------------------------
        BYTE   W96
// 044   ----------------------------------------
        BYTE   W96
// 045   ----------------------------------------
        BYTE   W96
// 046   ----------------------------------------
        BYTE   W96
// 047   ----------------------------------------
        BYTE   W96
// 048   ----------------------------------------
        BYTE   W96
// 049   ----------------------------------------
        BYTE   W96
// 050   ----------------------------------------
        BYTE   W96
// 051   ----------------------------------------
        BYTE   W96
// 052   ----------------------------------------
        BYTE   PATT
         POIN2  LunarClockLunaDial00_6_4
// 053   ----------------------------------------
        BYTE   PATT
         POIN2  LunarClockLunaDial00_6_5
// 054   ----------------------------------------
        BYTE   W96
// 055   ----------------------------------------
        BYTE   PATT
         POIN2  LunarClockLunaDial00_6_7
// 056   ----------------------------------------
        BYTE   PATT
         POIN2  LunarClockLunaDial00_6_8
// 057   ----------------------------------------
        BYTE   PATT
         POIN2  LunarClockLunaDial00_6_5
// 058   ----------------------------------------
        BYTE   W96
// 059   ----------------------------------------
        BYTE   PATT
         POIN2  LunarClockLunaDial00_6_7
// 060   ----------------------------------------
        BYTE   PATT
         POIN2  LunarClockLunaDial00_6_8
// 061   ----------------------------------------
        BYTE   PATT
         POIN2  LunarClockLunaDial00_6_13
// 062   ----------------------------------------
        BYTE   PATT
         POIN2  LunarClockLunaDial00_6_14
// 063   ----------------------------------------
        BYTE   PATT
         POIN2  LunarClockLunaDial00_6_13
// 064   ----------------------------------------
        BYTE   PATT
         POIN2  LunarClockLunaDial00_6_14
// 065   ----------------------------------------
        BYTE   PATT
         POIN2  LunarClockLunaDial00_5_17
// 066   ----------------------------------------
        BYTE   PATT
         POIN2  LunarClockLunaDial00_5_18
// 067   ----------------------------------------
        BYTE   PATT
         POIN2  LunarClockLunaDial00_5_19
// 068   ----------------------------------------
        BYTE   PATT
         POIN2  LunarClockLunaDial00_5_20
// 069   ----------------------------------------
        BYTE   PATT
         POIN2  LunarClockLunaDial00_5_21
// 070   ----------------------------------------
        BYTE   PATT
         POIN2  LunarClockLunaDial00_5_22
// 071   ----------------------------------------
        BYTE   PATT
         POIN2  LunarClockLunaDial00_5_23
// 072   ----------------------------------------
        BYTE   PATT
         POIN2  LunarClockLunaDial00_5_24
// 073   ----------------------------------------
        BYTE   PATT
         POIN2  LunarClockLunaDial00_5_17
// 074   ----------------------------------------
        BYTE   PATT
         POIN2  LunarClockLunaDial00_5_18
// 075   ----------------------------------------
        BYTE   PATT
         POIN2  LunarClockLunaDial00_5_19
// 076   ----------------------------------------
        BYTE   PATT
         POIN2  LunarClockLunaDial00_5_20
// 077   ----------------------------------------
        BYTE   PATT
         POIN2  LunarClockLunaDial00_5_21
// 078   ----------------------------------------
        BYTE   PATT
         POIN2  LunarClockLunaDial00_5_30
// 079   ----------------------------------------
        BYTE   PATT
         POIN2  LunarClockLunaDial00_5_31
// 080   ----------------------------------------
        BYTE   PATT
         POIN2  LunarClockLunaDial00_5_32
// 081   ----------------------------------------
        BYTE   W96
// 082   ----------------------------------------
        BYTE   W96
// 083   ----------------------------------------
        BYTE   W96
// 084   ----------------------------------------
        BYTE   W96
// 085   ----------------------------------------
        BYTE   W96
// 086   ----------------------------------------
        BYTE   W96
// 087   ----------------------------------------
        BYTE   W96
// 088   ----------------------------------------
        BYTE   W96
// 089   ----------------------------------------
        BYTE   W96
// 090   ----------------------------------------
        BYTE   W96
// 091   ----------------------------------------
        BYTE   W96
// 092   ----------------------------------------
        BYTE   W96
// 093   ----------------------------------------
        BYTE   W96
// 094   ----------------------------------------
        BYTE   W96
// 095   ----------------------------------------
        BYTE   W96
// 096   ----------------------------------------
        BYTE   W96
// 097   ----------------------------------------
        BYTE   GoTo
         POIN2  LunarClockLunaDial00_6_LOOP
        BYTE   W96
// 098   ----------------------------------------
        BYTE   W96
// 099   ----------------------------------------
        BYTE   W96
// 100   ----------------------------------------
        BYTE   PATT
         POIN2  LunarClockLunaDial00_6_4
// 101   ----------------------------------------
        BYTE   PATT
         POIN2  LunarClockLunaDial00_6_5
// 102   ----------------------------------------
        BYTE   W96
// 103   ----------------------------------------
        BYTE   PATT
         POIN2  LunarClockLunaDial00_6_7
// 104   ----------------------------------------
        BYTE           N05     Ds4   v100
        BYTE           N05     Ds3   v080
        BYTE   W06
        BYTE                   Cs5   v100
        BYTE           N05     Cs4   v080
        BYTE   W06
        BYTE                   Ds4   v100
        BYTE           N05     Ds3   v080
        BYTE   W06
        BYTE                   Cs5   v100
        BYTE           N05     Cs4   v080
        BYTE   W06
        BYTE                   Fn4   v100
        BYTE           N05     Fn3   v080
        BYTE   W06
        BYTE                   Cs5   v100
        BYTE           N05     Cs4   v080
        BYTE   W06
        BYTE                   Fn4   v100
        BYTE           N05     Fn3   v080
        BYTE   W06
        BYTE                   Cs5   v100
        BYTE           N05     Cs4   v080
        BYTE   W06
        BYTE           N23     Ds5   v100
        BYTE           N23     Ds4   v080
        BYTE   W24
        BYTE                   En5   v100
        BYTE           N23     En4   v080
        BYTE   W23
        BYTE   FINE

//****************** Track 7 (Midi-Chn.8) ******************//

LunarClockLunaDial00_7:
        BYTE   KEYSH   LunarClockLunaDial00_key+0
// 000   ----------------------------------------
        BYTE           VOICE   54
        BYTE           PAN     c_v-9
        BYTE           VOL     31
        BYTE           BENDR   12
        BYTE   W24
// 001   ----------------------------------------
LunarClockLunaDial00_7_LOOP:
        BYTE   W96
// 002   ----------------------------------------
        BYTE   W96
// 003   ----------------------------------------
        BYTE   W96
// 004   ----------------------------------------
        BYTE   W96
// 005   ----------------------------------------
        BYTE   W96
// 006   ----------------------------------------
        BYTE   W96
// 007   ----------------------------------------
        BYTE   W96
// 008   ----------------------------------------
        BYTE   W96
// 009   ----------------------------------------
        BYTE   W96
// 010   ----------------------------------------
        BYTE   W96
// 011   ----------------------------------------
        BYTE   W96
// 012   ----------------------------------------
        BYTE   W96
// 013   ----------------------------------------
        BYTE   W96
// 014   ----------------------------------------
        BYTE   W96
// 015   ----------------------------------------
        BYTE   W96
// 016   ----------------------------------------
        BYTE   W96
// 017   ----------------------------------------
        BYTE   W96
// 018   ----------------------------------------
        BYTE   W96
// 019   ----------------------------------------
        BYTE   W96
// 020   ----------------------------------------
        BYTE   W96
// 021   ----------------------------------------
        BYTE   W96
// 022   ----------------------------------------
        BYTE   W96
// 023   ----------------------------------------
        BYTE   W96
// 024   ----------------------------------------
        BYTE   W96
// 025   ----------------------------------------
        BYTE   W96
// 026   ----------------------------------------
        BYTE   W96
// 027   ----------------------------------------
        BYTE   W96
// 028   ----------------------------------------
        BYTE   W96
// 029   ----------------------------------------
        BYTE   W96
// 030   ----------------------------------------
        BYTE   W96
// 031   ----------------------------------------
        BYTE   W96
// 032   ----------------------------------------
        BYTE   W96
// 033   ----------------------------------------
LunarClockLunaDial00_7_33:
        BYTE           N92     As3   v100   gtp3
        BYTE                   Fn3
        BYTE   W96
        BYTE   PEND
// 034   ----------------------------------------
LunarClockLunaDial00_7_34:
        BYTE           N92     Gs3   v100   gtp3
        BYTE                   Fn3
        BYTE   W96
        BYTE   PEND
// 035   ----------------------------------------
LunarClockLunaDial00_7_35:
        BYTE           N92     Fs3   v100   gtp3
        BYTE                   Cs3
        BYTE   W96
        BYTE   PEND
// 036   ----------------------------------------
LunarClockLunaDial00_7_36:
        BYTE           N44     Gs3   v100   gtp3
        BYTE           N92     Fn3   v100   gtp3
        BYTE   W48
        BYTE           N44     Fs3   v100   gtp3
        BYTE   W48
        BYTE   PEND
// 037   ----------------------------------------
LunarClockLunaDial00_7_37:
        BYTE           N92     Cs3   v100   gtp3
        BYTE                   Fn3
        BYTE   W96
        BYTE   PEND
// 038   ----------------------------------------
LunarClockLunaDial00_7_38:
        BYTE           N92     Fn3   v100   gtp3
        BYTE                   Ds3
        BYTE   W96
        BYTE   PEND
// 039   ----------------------------------------
LunarClockLunaDial00_7_39:
        BYTE           N92     Fs3   v100   gtp3
        BYTE                   Ds3
        BYTE   W96
        BYTE   PEND
// 040   ----------------------------------------
        BYTE   PATT
         POIN2  LunarClockLunaDial00_7_34
// 041   ----------------------------------------
        BYTE   PATT
         POIN2  LunarClockLunaDial00_7_33
// 042   ----------------------------------------
        BYTE   PATT
         POIN2  LunarClockLunaDial00_7_34
// 043   ----------------------------------------
        BYTE   PATT
         POIN2  LunarClockLunaDial00_7_35
// 044   ----------------------------------------
        BYTE   PATT
         POIN2  LunarClockLunaDial00_7_36
// 045   ----------------------------------------
        BYTE   PATT
         POIN2  LunarClockLunaDial00_7_37
// 046   ----------------------------------------
        BYTE   PATT
         POIN2  LunarClockLunaDial00_7_38
// 047   ----------------------------------------
        BYTE   PATT
         POIN2  LunarClockLunaDial00_7_39
// 048   ----------------------------------------
        BYTE   PATT
         POIN2  LunarClockLunaDial00_7_34
// 049   ----------------------------------------
        BYTE   W96
// 050   ----------------------------------------
        BYTE   W96
// 051   ----------------------------------------
        BYTE   W96
// 052   ----------------------------------------
        BYTE   W96
// 053   ----------------------------------------
        BYTE   W96
// 054   ----------------------------------------
        BYTE   W96
// 055   ----------------------------------------
        BYTE   W96
// 056   ----------------------------------------
        BYTE   W96
// 057   ----------------------------------------
        BYTE   W96
// 058   ----------------------------------------
        BYTE   W96
// 059   ----------------------------------------
        BYTE   W96
// 060   ----------------------------------------
        BYTE   W96
// 061   ----------------------------------------
        BYTE   W96
// 062   ----------------------------------------
        BYTE   W96
// 063   ----------------------------------------
        BYTE   W96
// 064   ----------------------------------------
        BYTE   W96
// 065   ----------------------------------------
        BYTE   W96
// 066   ----------------------------------------
        BYTE   W96
// 067   ----------------------------------------
        BYTE   W96
// 068   ----------------------------------------
        BYTE   W96
// 069   ----------------------------------------
        BYTE   W96
// 070   ----------------------------------------
        BYTE   W96
// 071   ----------------------------------------
        BYTE   W96
// 072   ----------------------------------------
        BYTE   W96
// 073   ----------------------------------------
        BYTE   W96
// 074   ----------------------------------------
        BYTE   W96
// 075   ----------------------------------------
        BYTE   W96
// 076   ----------------------------------------
        BYTE   W96
// 077   ----------------------------------------
        BYTE   W96
// 078   ----------------------------------------
        BYTE   W96
// 079   ----------------------------------------
        BYTE   W96
// 080   ----------------------------------------
        BYTE   W96
// 081   ----------------------------------------
        BYTE   PATT
         POIN2  LunarClockLunaDial00_7_33
// 082   ----------------------------------------
        BYTE   PATT
         POIN2  LunarClockLunaDial00_7_34
// 083   ----------------------------------------
        BYTE   PATT
         POIN2  LunarClockLunaDial00_7_35
// 084   ----------------------------------------
        BYTE   PATT
         POIN2  LunarClockLunaDial00_7_36
// 085   ----------------------------------------
        BYTE   PATT
         POIN2  LunarClockLunaDial00_7_37
// 086   ----------------------------------------
        BYTE   PATT
         POIN2  LunarClockLunaDial00_7_38
// 087   ----------------------------------------
        BYTE   PATT
         POIN2  LunarClockLunaDial00_7_39
// 088   ----------------------------------------
        BYTE   PATT
         POIN2  LunarClockLunaDial00_7_34
// 089   ----------------------------------------
        BYTE   PATT
         POIN2  LunarClockLunaDial00_7_33
// 090   ----------------------------------------
        BYTE   PATT
         POIN2  LunarClockLunaDial00_7_34
// 091   ----------------------------------------
        BYTE   PATT
         POIN2  LunarClockLunaDial00_7_35
// 092   ----------------------------------------
        BYTE   PATT
         POIN2  LunarClockLunaDial00_7_36
// 093   ----------------------------------------
        BYTE   PATT
         POIN2  LunarClockLunaDial00_7_37
// 094   ----------------------------------------
        BYTE   PATT
         POIN2  LunarClockLunaDial00_7_38
// 095   ----------------------------------------
        BYTE   PATT
         POIN2  LunarClockLunaDial00_7_39
// 096   ----------------------------------------
        BYTE   PATT
         POIN2  LunarClockLunaDial00_7_34
// 097   ----------------------------------------
        BYTE   GoTo
         POIN2  LunarClockLunaDial00_7_LOOP
        BYTE   W96
// 098   ----------------------------------------
        BYTE   W96
// 099   ----------------------------------------
        BYTE   W96
// 100   ----------------------------------------
        BYTE   W96
// 101   ----------------------------------------
        BYTE   W96
// 102   ----------------------------------------
        BYTE   W96
// 103   ----------------------------------------
        BYTE   W96
// 104   ----------------------------------------
        BYTE   W92
        BYTE   W03
        BYTE   FINE

//***************** Track 8 (Midi-Chn.10) ******************//

LunarClockLunaDial00_8:
        BYTE   KEYSH   LunarClockLunaDial00_key+0
// 000   ----------------------------------------
        BYTE           VOICE   48
        BYTE           VOL     21
        BYTE           BENDR   12
        BYTE   W24
// 001   ----------------------------------------
LunarClockLunaDial00_8_LOOP:
        BYTE   W96
// 002   ----------------------------------------
        BYTE   W96
// 003   ----------------------------------------
        BYTE   W96
// 004   ----------------------------------------
        BYTE   W96
// 005   ----------------------------------------
        BYTE   W96
// 006   ----------------------------------------
        BYTE   W96
// 007   ----------------------------------------
        BYTE   W96
// 008   ----------------------------------------
        BYTE   W96
// 009   ----------------------------------------
        BYTE   W96
// 010   ----------------------------------------
        BYTE   W96
// 011   ----------------------------------------
        BYTE   W96
// 012   ----------------------------------------
        BYTE   W96
// 013   ----------------------------------------
        BYTE   W96
// 014   ----------------------------------------
        BYTE   W96
// 015   ----------------------------------------
        BYTE   W96
// 016   ----------------------------------------
        BYTE   W96
// 017   ----------------------------------------
        BYTE   W96
// 018   ----------------------------------------
        BYTE   W96
// 019   ----------------------------------------
        BYTE   W96
// 020   ----------------------------------------
        BYTE   W96
// 021   ----------------------------------------
        BYTE   W96
// 022   ----------------------------------------
        BYTE   W96
// 023   ----------------------------------------
        BYTE   W96
// 024   ----------------------------------------
        BYTE   W96
// 025   ----------------------------------------
        BYTE   W96
// 026   ----------------------------------------
        BYTE   W96
// 027   ----------------------------------------
        BYTE   W96
// 028   ----------------------------------------
        BYTE   W96
// 029   ----------------------------------------
        BYTE   W96
// 030   ----------------------------------------
        BYTE   W96
// 031   ----------------------------------------
        BYTE   W96
// 032   ----------------------------------------
        BYTE   W96
// 033   ----------------------------------------
LunarClockLunaDial00_8_33:
        BYTE           N92     Fn3   v100   gtp3
        BYTE                   Cs3
        BYTE   W96
        BYTE   PEND
// 034   ----------------------------------------
        BYTE   PATT
         POIN2  LunarClockLunaDial00_8_33
// 035   ----------------------------------------
LunarClockLunaDial00_8_35:
        BYTE           N92     Cs3   v100   gtp3
        BYTE                   As2
        BYTE   W96
        BYTE   PEND
// 036   ----------------------------------------
        BYTE   PATT
         POIN2  LunarClockLunaDial00_8_33
// 037   ----------------------------------------
        BYTE   PATT
         POIN2  LunarClockLunaDial00_8_35
// 038   ----------------------------------------
LunarClockLunaDial00_8_38:
        BYTE           N92     Ds3   v100   gtp3
        BYTE                   As2
        BYTE   W96
        BYTE   PEND
// 039   ----------------------------------------
        BYTE   PATT
         POIN2  LunarClockLunaDial00_8_38
// 040   ----------------------------------------
LunarClockLunaDial00_8_40:
        BYTE           N92     Fn3   v100   gtp3
        BYTE                   As2
        BYTE   W96
        BYTE   PEND
// 041   ----------------------------------------
        BYTE   PATT
         POIN2  LunarClockLunaDial00_8_33
// 042   ----------------------------------------
        BYTE   PATT
         POIN2  LunarClockLunaDial00_8_33
// 043   ----------------------------------------
        BYTE   PATT
         POIN2  LunarClockLunaDial00_8_35
// 044   ----------------------------------------
        BYTE   PATT
         POIN2  LunarClockLunaDial00_8_33
// 045   ----------------------------------------
        BYTE   PATT
         POIN2  LunarClockLunaDial00_8_35
// 046   ----------------------------------------
        BYTE   PATT
         POIN2  LunarClockLunaDial00_8_38
// 047   ----------------------------------------
        BYTE   PATT
         POIN2  LunarClockLunaDial00_8_38
// 048   ----------------------------------------
        BYTE   PATT
         POIN2  LunarClockLunaDial00_8_40
// 049   ----------------------------------------
        BYTE   W96
// 050   ----------------------------------------
        BYTE   W96
// 051   ----------------------------------------
        BYTE   W96
// 052   ----------------------------------------
        BYTE   W96
// 053   ----------------------------------------
        BYTE   W96
// 054   ----------------------------------------
        BYTE   W96
// 055   ----------------------------------------
        BYTE   W96
// 056   ----------------------------------------
        BYTE   W96
// 057   ----------------------------------------
        BYTE   W96
// 058   ----------------------------------------
        BYTE   W96
// 059   ----------------------------------------
        BYTE   W96
// 060   ----------------------------------------
        BYTE   W96
// 061   ----------------------------------------
        BYTE   W96
// 062   ----------------------------------------
        BYTE   W96
// 063   ----------------------------------------
        BYTE   W96
// 064   ----------------------------------------
        BYTE   W96
// 065   ----------------------------------------
        BYTE   W96
// 066   ----------------------------------------
        BYTE   W96
// 067   ----------------------------------------
        BYTE   W96
// 068   ----------------------------------------
        BYTE   W96
// 069   ----------------------------------------
        BYTE   W96
// 070   ----------------------------------------
        BYTE   W96
// 071   ----------------------------------------
        BYTE   W96
// 072   ----------------------------------------
        BYTE   W96
// 073   ----------------------------------------
        BYTE   W96
// 074   ----------------------------------------
        BYTE   W96
// 075   ----------------------------------------
        BYTE   W96
// 076   ----------------------------------------
        BYTE   W96
// 077   ----------------------------------------
        BYTE   W96
// 078   ----------------------------------------
        BYTE   W96
// 079   ----------------------------------------
        BYTE   W96
// 080   ----------------------------------------
        BYTE   W96
// 081   ----------------------------------------
        BYTE   PATT
         POIN2  LunarClockLunaDial00_8_33
// 082   ----------------------------------------
        BYTE   PATT
         POIN2  LunarClockLunaDial00_8_33
// 083   ----------------------------------------
        BYTE   PATT
         POIN2  LunarClockLunaDial00_8_35
// 084   ----------------------------------------
        BYTE   PATT
         POIN2  LunarClockLunaDial00_8_33
// 085   ----------------------------------------
        BYTE   PATT
         POIN2  LunarClockLunaDial00_8_35
// 086   ----------------------------------------
        BYTE   PATT
         POIN2  LunarClockLunaDial00_8_38
// 087   ----------------------------------------
        BYTE   PATT
         POIN2  LunarClockLunaDial00_8_38
// 088   ----------------------------------------
        BYTE   PATT
         POIN2  LunarClockLunaDial00_8_40
// 089   ----------------------------------------
        BYTE   PATT
         POIN2  LunarClockLunaDial00_8_33
// 090   ----------------------------------------
        BYTE   PATT
         POIN2  LunarClockLunaDial00_8_33
// 091   ----------------------------------------
        BYTE   PATT
         POIN2  LunarClockLunaDial00_8_35
// 092   ----------------------------------------
        BYTE   PATT
         POIN2  LunarClockLunaDial00_8_33
// 093   ----------------------------------------
        BYTE   PATT
         POIN2  LunarClockLunaDial00_8_35
// 094   ----------------------------------------
        BYTE   PATT
         POIN2  LunarClockLunaDial00_8_38
// 095   ----------------------------------------
        BYTE   PATT
         POIN2  LunarClockLunaDial00_8_38
// 096   ----------------------------------------
        BYTE   PATT
         POIN2  LunarClockLunaDial00_8_40
// 097   ----------------------------------------
        BYTE   GoTo
         POIN2  LunarClockLunaDial00_8_LOOP
        BYTE   W96
// 098   ----------------------------------------
        BYTE   W96
// 099   ----------------------------------------
        BYTE   W96
// 100   ----------------------------------------
        BYTE   W96
// 101   ----------------------------------------
        BYTE   W96
// 102   ----------------------------------------
        BYTE   W96
// 103   ----------------------------------------
        BYTE   W96
// 104   ----------------------------------------
        BYTE   W92
        BYTE   W03
        BYTE   FINE

//***************** Track 9 (Midi-Chn.11) ******************//

LunarClockLunaDial00_9:
        BYTE   KEYSH   LunarClockLunaDial00_key+0
// 000   ----------------------------------------
        BYTE           VOICE   1
        BYTE           PAN     c_v-24
        BYTE           VOL     34
        BYTE           BENDR   12
        BYTE   W24
// 001   ----------------------------------------
LunarClockLunaDial00_9_LOOP:
        BYTE   W96
// 002   ----------------------------------------
        BYTE   W96
// 003   ----------------------------------------
        BYTE   W96
// 004   ----------------------------------------
        BYTE   W96
// 005   ----------------------------------------
        BYTE   W96
// 006   ----------------------------------------
        BYTE   W96
// 007   ----------------------------------------
        BYTE   W96
// 008   ----------------------------------------
        BYTE   W96
// 009   ----------------------------------------
        BYTE   W96
// 010   ----------------------------------------
        BYTE   W96
// 011   ----------------------------------------
        BYTE   W96
// 012   ----------------------------------------
        BYTE   W96
// 013   ----------------------------------------
        BYTE   W96
// 014   ----------------------------------------
        BYTE   W96
// 015   ----------------------------------------
        BYTE   W96
// 016   ----------------------------------------
        BYTE   W96
// 017   ----------------------------------------
        BYTE   W96
// 018   ----------------------------------------
        BYTE   W96
// 019   ----------------------------------------
        BYTE   W96
// 020   ----------------------------------------
        BYTE   W96
// 021   ----------------------------------------
        BYTE   W96
// 022   ----------------------------------------
        BYTE   W96
// 023   ----------------------------------------
        BYTE   W96
// 024   ----------------------------------------
        BYTE   W96
// 025   ----------------------------------------
        BYTE   W96
// 026   ----------------------------------------
        BYTE   W96
// 027   ----------------------------------------
        BYTE   W96
// 028   ----------------------------------------
        BYTE   W96
// 029   ----------------------------------------
        BYTE   W96
// 030   ----------------------------------------
        BYTE   W96
// 031   ----------------------------------------
        BYTE   W96
// 032   ----------------------------------------
        BYTE   W96
// 033   ----------------------------------------
LunarClockLunaDial00_9_33:
        BYTE           N05     As2   v100
        BYTE   W06
        BYTE           N11     Fn3
        BYTE   W12
        BYTE           N05     As2
        BYTE   W06
        BYTE           N11     Fn3
        BYTE   W12
        BYTE           N05     As2
        BYTE   W06
        BYTE           N11     Cs3
        BYTE   W12
        BYTE           N05     As2
        BYTE   W06
        BYTE           N11     Fn3
        BYTE   W12
        BYTE           N05     As2
        BYTE   W12
        BYTE           N11     Cs3
        BYTE   W12
        BYTE   PEND
// 034   ----------------------------------------
        BYTE   PATT
         POIN2  LunarClockLunaDial00_9_33
// 035   ----------------------------------------
        BYTE   PATT
         POIN2  LunarClockLunaDial00_9_33
// 036   ----------------------------------------
        BYTE   PATT
         POIN2  LunarClockLunaDial00_9_33
// 037   ----------------------------------------
        BYTE   PATT
         POIN2  LunarClockLunaDial00_9_33
// 038   ----------------------------------------
        BYTE   PATT
         POIN2  LunarClockLunaDial00_9_33
// 039   ----------------------------------------
        BYTE   PATT
         POIN2  LunarClockLunaDial00_9_33
// 040   ----------------------------------------
        BYTE   PATT
         POIN2  LunarClockLunaDial00_9_33
// 041   ----------------------------------------
        BYTE   PATT
         POIN2  LunarClockLunaDial00_9_33
// 042   ----------------------------------------
        BYTE   PATT
         POIN2  LunarClockLunaDial00_9_33
// 043   ----------------------------------------
LunarClockLunaDial00_9_43:
        BYTE           N17     Cs3   v100
        BYTE           N17     As2   v090
        BYTE   W18
        BYTE                   Ds3   v100
        BYTE           N17     Cn3   v090
        BYTE   W18
        BYTE           N32     Fs3   v100   gtp3
        BYTE                   Ds3   v090
        BYTE   W36
        BYTE           N11     Fn3   v100
        BYTE           N11     Cs3   v090
        BYTE   W12
        BYTE                   Ds3   v100
        BYTE           N11     Cn3   v090
        BYTE   W12
        BYTE   PEND
// 044   ----------------------------------------
LunarClockLunaDial00_9_44:
        BYTE           N14     Fn3   v090
        BYTE           N14     Cs3
        BYTE           N14     Gs2
        BYTE   W18
        BYTE                   Ds3
        BYTE           N14     Cn3
        BYTE           N14     Fs2
        BYTE   W18
        BYTE           N08     Fn3
        BYTE           N08     Cs3
        BYTE           N08     Fn2
        BYTE   W12
        BYTE                   Fn3
        BYTE           N08     Cn3
        BYTE           N08     Fn2
        BYTE   W12
        BYTE                   Fn3
        BYTE           N08     Cn3
        BYTE           N08     Fn2
        BYTE   W12
        BYTE                   Fn3
        BYTE           N08     Cn3
        BYTE           N08     Fn2
        BYTE   W12
        BYTE                   Fn3
        BYTE           N08     Cn3
        BYTE           N08     Fn2
        BYTE   W12
        BYTE   PEND
// 045   ----------------------------------------
LunarClockLunaDial00_9_45:
        BYTE           N05     As2   v100
        BYTE   W06
        BYTE           N11     Fn3
        BYTE           N11     Cs3
        BYTE   W12
        BYTE           N05     As2
        BYTE   W06
        BYTE           N11     Fn3
        BYTE           N11     Cs3
        BYTE   W12
        BYTE           N05     As2
        BYTE   W06
        BYTE           N11     Fn3
        BYTE           N11     Cs3
        BYTE   W12
        BYTE           N05     As2
        BYTE   W06
        BYTE           N11     Fn3
        BYTE           N11     Cs3
        BYTE   W12
        BYTE           N05     As2
        BYTE   W12
        BYTE           N11     Cs3
        BYTE           N11     Fn3
        BYTE   W12
        BYTE   PEND
// 046   ----------------------------------------
LunarClockLunaDial00_9_46:
        BYTE           N05     Gs2   v100
        BYTE   W06
        BYTE           N11     Ds3
        BYTE           N11     Cs3
        BYTE   W12
        BYTE           N05     Gs2
        BYTE   W06
        BYTE           N11     Ds3
        BYTE           N11     Cs3
        BYTE   W12
        BYTE           N05     Gs2
        BYTE   W06
        BYTE           N11     Ds3
        BYTE           N11     Cs3
        BYTE   W12
        BYTE           N05     Gs2
        BYTE   W06
        BYTE           N11     Ds3
        BYTE           N11     Cs3
        BYTE   W12
        BYTE                   As2
        BYTE   W12
        BYTE                   Gs2
        BYTE   W12
        BYTE   PEND
// 047   ----------------------------------------
LunarClockLunaDial00_9_47:
        BYTE           N23     Fs2   v100
        BYTE   W24
        BYTE                   As2   v090
        BYTE           N23     As3   v100
        BYTE           N23     Fs3   v090
        BYTE           N23     Fs2   v080
        BYTE   W24
        BYTE           N17     Cn3   v090
        BYTE           N17     Cn4   v100
        BYTE           N17     Gs3   v090
        BYTE           N17     Gs2   v080
        BYTE   W18
        BYTE                   Cs3   v090
        BYTE           N17     Cs4   v100
        BYTE           N17     As3   v090
        BYTE           N17     As2   v080
        BYTE   W18
        BYTE           N11     Cn3   v090
        BYTE           N11     Cn4   v100
        BYTE           N11     Gs3   v090
        BYTE           N11     Gs2   v080
        BYTE   W12
        BYTE   PEND
// 048   ----------------------------------------
LunarClockLunaDial00_9_48:
        BYTE           N92     As2   v090   gtp3
        BYTE                   As3   v100
        BYTE           N92     Ds3   v090   gtp3
        BYTE                   Ds2   v080
        BYTE   W96
        BYTE   PEND
// 049   ----------------------------------------
        BYTE   W96
// 050   ----------------------------------------
        BYTE   W96
// 051   ----------------------------------------
        BYTE   W96
// 052   ----------------------------------------
        BYTE   W96
// 053   ----------------------------------------
        BYTE   W96
// 054   ----------------------------------------
        BYTE   W96
// 055   ----------------------------------------
        BYTE   W96
// 056   ----------------------------------------
        BYTE   W96
// 057   ----------------------------------------
        BYTE   W96
// 058   ----------------------------------------
        BYTE   W96
// 059   ----------------------------------------
        BYTE   W96
// 060   ----------------------------------------
        BYTE   W96
// 061   ----------------------------------------
        BYTE   W96
// 062   ----------------------------------------
        BYTE   W96
// 063   ----------------------------------------
        BYTE   W96
// 064   ----------------------------------------
        BYTE   W96
// 065   ----------------------------------------
        BYTE   W96
// 066   ----------------------------------------
        BYTE   W96
// 067   ----------------------------------------
        BYTE   W96
// 068   ----------------------------------------
        BYTE   W96
// 069   ----------------------------------------
        BYTE   W96
// 070   ----------------------------------------
        BYTE   W96
// 071   ----------------------------------------
        BYTE   W96
// 072   ----------------------------------------
        BYTE   W96
// 073   ----------------------------------------
        BYTE   W96
// 074   ----------------------------------------
        BYTE   W96
// 075   ----------------------------------------
        BYTE   W96
// 076   ----------------------------------------
        BYTE   W96
// 077   ----------------------------------------
        BYTE   W96
// 078   ----------------------------------------
        BYTE   W96
// 079   ----------------------------------------
        BYTE   W96
// 080   ----------------------------------------
        BYTE   W96
// 081   ----------------------------------------
        BYTE   PATT
         POIN2  LunarClockLunaDial00_9_33
// 082   ----------------------------------------
        BYTE   PATT
         POIN2  LunarClockLunaDial00_9_33
// 083   ----------------------------------------
        BYTE   PATT
         POIN2  LunarClockLunaDial00_9_33
// 084   ----------------------------------------
        BYTE   PATT
         POIN2  LunarClockLunaDial00_9_33
// 085   ----------------------------------------
        BYTE   PATT
         POIN2  LunarClockLunaDial00_9_33
// 086   ----------------------------------------
        BYTE   PATT
         POIN2  LunarClockLunaDial00_9_33
// 087   ----------------------------------------
        BYTE   PATT
         POIN2  LunarClockLunaDial00_9_33
// 088   ----------------------------------------
        BYTE   PATT
         POIN2  LunarClockLunaDial00_9_33
// 089   ----------------------------------------
        BYTE   PATT
         POIN2  LunarClockLunaDial00_9_33
// 090   ----------------------------------------
        BYTE   PATT
         POIN2  LunarClockLunaDial00_9_33
// 091   ----------------------------------------
        BYTE   PATT
         POIN2  LunarClockLunaDial00_9_43
// 092   ----------------------------------------
        BYTE   PATT
         POIN2  LunarClockLunaDial00_9_44
// 093   ----------------------------------------
        BYTE   PATT
         POIN2  LunarClockLunaDial00_9_45
// 094   ----------------------------------------
        BYTE   PATT
         POIN2  LunarClockLunaDial00_9_46
// 095   ----------------------------------------
        BYTE   PATT
         POIN2  LunarClockLunaDial00_9_47
// 096   ----------------------------------------
        BYTE   PATT
         POIN2  LunarClockLunaDial00_9_48
// 097   ----------------------------------------
        BYTE   GoTo
         POIN2  LunarClockLunaDial00_9_LOOP
        BYTE   W96
// 098   ----------------------------------------
        BYTE   W96
// 099   ----------------------------------------
        BYTE   W96
// 100   ----------------------------------------
        BYTE   W96
// 101   ----------------------------------------
        BYTE   W96
// 102   ----------------------------------------
        BYTE   W96
// 103   ----------------------------------------
        BYTE   W96
// 104   ----------------------------------------
        BYTE   W92
        BYTE   W03
        BYTE   FINE

//***************** Track 10 (Midi-Chn.12) *****************//

LunarClockLunaDial00_10:
        BYTE   KEYSH   LunarClockLunaDial00_key+0
// 000   ----------------------------------------
        BYTE           VOICE   30
        BYTE           PAN     c_v+6
        BYTE           VOL     38
        BYTE           BENDR   24
        BYTE           N23     As2   v100
        BYTE           N23     Ds2
        BYTE           N23     As1
        BYTE   W02
        BYTE           BEND    c_v-1
        BYTE   W02
        BYTE                   c_v-2
        BYTE   W01
        BYTE                   c_v-4
        BYTE   W01
        BYTE                   c_v-5
        BYTE   W01
        BYTE                   c_v-7
        BYTE   W01
        BYTE                   c_v-9
        BYTE   W01
        BYTE                   c_v-11
        BYTE   W01
        BYTE                   c_v-13
        BYTE   W01
        BYTE                   c_v-15
        BYTE   W01
        BYTE                   c_v-19
        BYTE   W01
        BYTE                   c_v-21
        BYTE   W01
        BYTE                   c_v-25
        BYTE   W01
        BYTE                   c_v-28
        BYTE   W01
        BYTE                   c_v-31
        BYTE   W01
        BYTE                   c_v-37
        BYTE   W01
        BYTE                   c_v-40
        BYTE   W01
        BYTE                   c_v-43
        BYTE   W01
        BYTE                   c_v-49
        BYTE   W01
        BYTE                   c_v-55
        BYTE   W01
        BYTE                   c_v-58
        BYTE   W01
        BYTE                   c_v-64
        BYTE   W01
// 001   ----------------------------------------
LunarClockLunaDial00_10_LOOP:
        BYTE   W03
        BYTE           BEND    c_v+0
        BYTE   W92
        BYTE   W01
// 002   ----------------------------------------
LunarClockLunaDial00_10_2:
        BYTE   W48
        BYTE           N23     Ds2   v100
        BYTE           N23     As1
        BYTE           N23     Ds1
        BYTE   W24
        BYTE                   En2
        BYTE           N23     Bn1
        BYTE           N23     En1
        BYTE   W24
        BYTE   PEND
// 003   ----------------------------------------
        BYTE   W96
// 004   ----------------------------------------
        BYTE   PATT
         POIN2  LunarClockLunaDial00_10_2
// 005   ----------------------------------------
        BYTE   W96
// 006   ----------------------------------------
        BYTE   PATT
         POIN2  LunarClockLunaDial00_10_2
// 007   ----------------------------------------
        BYTE   W96
// 008   ----------------------------------------
        BYTE   PATT
         POIN2  LunarClockLunaDial00_10_2
// 009   ----------------------------------------
        BYTE   W96
// 010   ----------------------------------------
        BYTE   PATT
         POIN2  LunarClockLunaDial00_10_2
// 011   ----------------------------------------
        BYTE   W96
// 012   ----------------------------------------
        BYTE   PATT
         POIN2  LunarClockLunaDial00_10_2
// 013   ----------------------------------------
LunarClockLunaDial00_10_13:
        BYTE           N23     As2   v100
        BYTE           N23     Fn2
        BYTE           N23     As1
        BYTE   W24
        BYTE           N11     Ds3
        BYTE           N11     As2
        BYTE           N11     Ds2
        BYTE   W12
        BYTE                   As2
        BYTE           N11     Fn2
        BYTE           N11     As1
        BYTE   W60
        BYTE   PEND
// 014   ----------------------------------------
LunarClockLunaDial00_10_14:
        BYTE           N23     As2   v100
        BYTE           N23     Fn2
        BYTE           N23     As1
        BYTE   W24
        BYTE           N11     Cs3
        BYTE           N11     Gs2
        BYTE           N11     Cs2
        BYTE   W12
        BYTE                   As2
        BYTE           N11     Fn2
        BYTE           N11     As1
        BYTE   W60
        BYTE   PEND
// 015   ----------------------------------------
        BYTE   PATT
         POIN2  LunarClockLunaDial00_10_13
// 016   ----------------------------------------
LunarClockLunaDial00_10_16:
        BYTE           N23     As2   v100
        BYTE           N23     Fn2
        BYTE           N23     As1
        BYTE   W24
        BYTE           N11     Cs3
        BYTE           N11     Gs2
        BYTE           N11     Cs2
        BYTE   W12
        BYTE                   As2
        BYTE           N11     Fn2
        BYTE           N11     As1
        BYTE   W36
        BYTE           N23     As2
        BYTE           N23     Ds2
        BYTE           N23     As1
        BYTE   W02
        BYTE           BEND    c_v-1
        BYTE   W02
        BYTE                   c_v-2
        BYTE   W01
        BYTE                   c_v-4
        BYTE   W01
        BYTE                   c_v-5
        BYTE   W01
        BYTE                   c_v-7
        BYTE   W01
        BYTE                   c_v-9
        BYTE   W01
        BYTE                   c_v-11
        BYTE   W01
        BYTE                   c_v-13
        BYTE   W01
        BYTE                   c_v-15
        BYTE   W01
        BYTE                   c_v-19
        BYTE   W01
        BYTE                   c_v-21
        BYTE   W01
        BYTE                   c_v-25
        BYTE   W01
        BYTE                   c_v-28
        BYTE   W01
        BYTE                   c_v-31
        BYTE   W01
        BYTE                   c_v-37
        BYTE   W01
        BYTE                   c_v-40
        BYTE   W01
        BYTE                   c_v-43
        BYTE   W01
        BYTE                   c_v-49
        BYTE   W01
        BYTE                   c_v-55
        BYTE   W01
        BYTE                   c_v-58
        BYTE   W01
        BYTE                   c_v-64
        BYTE   W01
        BYTE   PEND
// 017   ----------------------------------------
        BYTE   W03
        BYTE                   c_v+0
        BYTE   W92
        BYTE   W01
// 018   ----------------------------------------
        BYTE   W96
// 019   ----------------------------------------
        BYTE   W96
// 020   ----------------------------------------
        BYTE   W96
// 021   ----------------------------------------
        BYTE   W96
// 022   ----------------------------------------
        BYTE   W96
// 023   ----------------------------------------
        BYTE   W96
// 024   ----------------------------------------
        BYTE   W96
// 025   ----------------------------------------
        BYTE   W96
// 026   ----------------------------------------
        BYTE   W96
// 027   ----------------------------------------
        BYTE   W96
// 028   ----------------------------------------
        BYTE   W96
// 029   ----------------------------------------
        BYTE   W96
// 030   ----------------------------------------
        BYTE   W96
// 031   ----------------------------------------
        BYTE   W96
// 032   ----------------------------------------
        BYTE   W96
// 033   ----------------------------------------
        BYTE   W96
// 034   ----------------------------------------
        BYTE   W96
// 035   ----------------------------------------
        BYTE   W96
// 036   ----------------------------------------
        BYTE   W96
// 037   ----------------------------------------
        BYTE   W96
// 038   ----------------------------------------
        BYTE   W96
// 039   ----------------------------------------
        BYTE   W96
// 040   ----------------------------------------
        BYTE   W96
// 041   ----------------------------------------
        BYTE   W96
// 042   ----------------------------------------
        BYTE   W96
// 043   ----------------------------------------
        BYTE   W96
// 044   ----------------------------------------
        BYTE   W96
// 045   ----------------------------------------
        BYTE   W96
// 046   ----------------------------------------
        BYTE   W96
// 047   ----------------------------------------
        BYTE   W96
// 048   ----------------------------------------
LunarClockLunaDial00_10_48:
        BYTE   W72
        BYTE           N23     As2   v100
        BYTE           N23     Ds2
        BYTE           N23     As1
        BYTE   W02
        BYTE           BEND    c_v-1
        BYTE   W02
        BYTE                   c_v-2
        BYTE   W01
        BYTE                   c_v-4
        BYTE   W01
        BYTE                   c_v-5
        BYTE   W01
        BYTE                   c_v-7
        BYTE   W01
        BYTE                   c_v-9
        BYTE   W01
        BYTE                   c_v-11
        BYTE   W01
        BYTE                   c_v-13
        BYTE   W01
        BYTE                   c_v-15
        BYTE   W01
        BYTE                   c_v-19
        BYTE   W01
        BYTE                   c_v-21
        BYTE   W01
        BYTE                   c_v-25
        BYTE   W01
        BYTE                   c_v-28
        BYTE   W01
        BYTE                   c_v-31
        BYTE   W01
        BYTE                   c_v-37
        BYTE   W01
        BYTE                   c_v-40
        BYTE   W01
        BYTE                   c_v-43
        BYTE   W01
        BYTE                   c_v-49
        BYTE   W01
        BYTE                   c_v-55
        BYTE   W01
        BYTE                   c_v-58
        BYTE   W01
        BYTE                   c_v-64
        BYTE   W01
        BYTE   PEND
// 049   ----------------------------------------
        BYTE   W03
        BYTE                   c_v+0
        BYTE   W92
        BYTE   W01
// 050   ----------------------------------------
        BYTE   PATT
         POIN2  LunarClockLunaDial00_10_2
// 051   ----------------------------------------
        BYTE   W96
// 052   ----------------------------------------
        BYTE   PATT
         POIN2  LunarClockLunaDial00_10_2
// 053   ----------------------------------------
        BYTE   W96
// 054   ----------------------------------------
        BYTE   PATT
         POIN2  LunarClockLunaDial00_10_2
// 055   ----------------------------------------
        BYTE   W96
// 056   ----------------------------------------
        BYTE   PATT
         POIN2  LunarClockLunaDial00_10_2
// 057   ----------------------------------------
        BYTE   W96
// 058   ----------------------------------------
        BYTE   PATT
         POIN2  LunarClockLunaDial00_10_2
// 059   ----------------------------------------
        BYTE   W96
// 060   ----------------------------------------
        BYTE   PATT
         POIN2  LunarClockLunaDial00_10_2
// 061   ----------------------------------------
        BYTE   PATT
         POIN2  LunarClockLunaDial00_10_13
// 062   ----------------------------------------
        BYTE   PATT
         POIN2  LunarClockLunaDial00_10_14
// 063   ----------------------------------------
        BYTE   PATT
         POIN2  LunarClockLunaDial00_10_13
// 064   ----------------------------------------
        BYTE   PATT
         POIN2  LunarClockLunaDial00_10_16
// 065   ----------------------------------------
        BYTE   W03
        BYTE           BEND    c_v+0
        BYTE   W92
        BYTE   W01
// 066   ----------------------------------------
        BYTE   W96
// 067   ----------------------------------------
        BYTE   W96
// 068   ----------------------------------------
        BYTE   W96
// 069   ----------------------------------------
        BYTE   W96
// 070   ----------------------------------------
        BYTE   W96
// 071   ----------------------------------------
        BYTE   W96
// 072   ----------------------------------------
        BYTE   W96
// 073   ----------------------------------------
        BYTE   W96
// 074   ----------------------------------------
        BYTE   W96
// 075   ----------------------------------------
        BYTE   W96
// 076   ----------------------------------------
        BYTE   W96
// 077   ----------------------------------------
        BYTE   W96
// 078   ----------------------------------------
        BYTE   W96
// 079   ----------------------------------------
        BYTE   W96
// 080   ----------------------------------------
        BYTE   W96
// 081   ----------------------------------------
        BYTE   W96
// 082   ----------------------------------------
        BYTE   W96
// 083   ----------------------------------------
        BYTE   W96
// 084   ----------------------------------------
        BYTE   W96
// 085   ----------------------------------------
        BYTE   W96
// 086   ----------------------------------------
        BYTE   W96
// 087   ----------------------------------------
        BYTE   W96
// 088   ----------------------------------------
        BYTE   W96
// 089   ----------------------------------------
        BYTE   W96
// 090   ----------------------------------------
        BYTE   W96
// 091   ----------------------------------------
        BYTE   W96
// 092   ----------------------------------------
        BYTE   W96
// 093   ----------------------------------------
        BYTE   W96
// 094   ----------------------------------------
        BYTE   W96
// 095   ----------------------------------------
        BYTE   W96
// 096   ----------------------------------------
        BYTE   PATT
         POIN2  LunarClockLunaDial00_10_48
// 097   ----------------------------------------
        BYTE   GoTo
         POIN2  LunarClockLunaDial00_10_LOOP
        BYTE   W03
        BYTE           BEND    c_v+0
        BYTE   W92
        BYTE   W01
// 098   ----------------------------------------
        BYTE   PATT
         POIN2  LunarClockLunaDial00_10_2
// 099   ----------------------------------------
        BYTE   W96
// 100   ----------------------------------------
        BYTE   PATT
         POIN2  LunarClockLunaDial00_10_2
// 101   ----------------------------------------
        BYTE   W96
// 102   ----------------------------------------
        BYTE   PATT
         POIN2  LunarClockLunaDial00_10_2
// 103   ----------------------------------------
        BYTE   W96
// 104   ----------------------------------------
        BYTE   W48
        BYTE           N23     Ds2   v100
        BYTE           N23     As1
        BYTE           N23     Ds1
        BYTE   W24
        BYTE                   En2
        BYTE           N23     Bn1
        BYTE           N23     En1
        BYTE   W23
        BYTE   FINE

//***************** Track 11 (Midi-Chn.13) *****************//

LunarClockLunaDial00_11:
        BYTE   KEYSH   LunarClockLunaDial00_key+0
// 000   ----------------------------------------
        BYTE           VOICE   30
        BYTE           PAN     c_v-14
        BYTE           VOL     17
        BYTE           BENDR   12
        BYTE   W01
        BYTE           N23     As2   v100
        BYTE           N23     Ds2
        BYTE           N23     As1
        BYTE   W03
        BYTE           BEND    c_v-1
        BYTE   W01
        BYTE                   c_v-2
        BYTE   W01
        BYTE                   c_v-3
        BYTE   W01
        BYTE                   c_v-4
        BYTE   W01
        BYTE                   c_v-6
        BYTE   W01
        BYTE                   c_v-7
        BYTE   W01
        BYTE                   c_v-9
        BYTE   W01
        BYTE                   c_v-11
        BYTE   W01
        BYTE                   c_v-15
        BYTE   W01
        BYTE                   c_v-17
        BYTE   W01
        BYTE                   c_v-19
        BYTE   W01
        BYTE                   c_v-23
        BYTE   W01
        BYTE                   c_v-25
        BYTE   W01
        BYTE                   c_v-31
        BYTE   W01
        BYTE                   c_v-34
        BYTE   W01
        BYTE                   c_v-37
        BYTE   W01
        BYTE                   c_v-43
        BYTE   W01
        BYTE                   c_v-46
        BYTE   W01
        BYTE                   c_v-52
        BYTE   W01
        BYTE                   c_v-55
        BYTE   W01
// 001   ----------------------------------------
LunarClockLunaDial00_11_LOOP:
        BYTE           BEND    c_v-62
        BYTE   W01
        BYTE                   c_v-64
        BYTE   W92
        BYTE   W03
// 002   ----------------------------------------
        BYTE           VOL     31
        BYTE           BEND    c_v+0
        BYTE   W96
// 003   ----------------------------------------
        BYTE   W96
// 004   ----------------------------------------
        BYTE   W96
// 005   ----------------------------------------
        BYTE   W96
// 006   ----------------------------------------
LunarClockLunaDial00_11_6:
        BYTE           N23     Ds2   v100
        BYTE           N23     As1
        BYTE           N23     Ds1
        BYTE   W24
        BYTE                   En2
        BYTE           N23     Bn1
        BYTE           N23     En1
        BYTE   W72
        BYTE   PEND
// 007   ----------------------------------------
        BYTE   W96
// 008   ----------------------------------------
        BYTE   W96
// 009   ----------------------------------------
        BYTE   W96
// 010   ----------------------------------------
        BYTE   PATT
         POIN2  LunarClockLunaDial00_11_6
// 011   ----------------------------------------
        BYTE   W96
// 012   ----------------------------------------
        BYTE   W96
// 013   ----------------------------------------
LunarClockLunaDial00_11_13:
        BYTE           N23     As1   v100
        BYTE           N23     Fn1
        BYTE           N23     As0
        BYTE   W24
        BYTE           N11     Ds2
        BYTE           N11     As1
        BYTE           N11     Ds1
        BYTE   W12
        BYTE                   As1
        BYTE           N11     Fn1
        BYTE           N11     As0
        BYTE   W60
        BYTE   PEND
// 014   ----------------------------------------
LunarClockLunaDial00_11_14:
        BYTE           N23     As1   v100
        BYTE           N23     Fn1
        BYTE           N23     As0
        BYTE   W24
        BYTE           N11     Cs2
        BYTE           N11     Gs1
        BYTE           N11     Cs1
        BYTE   W12
        BYTE                   As1
        BYTE           N11     Fn1
        BYTE           N11     As0
        BYTE   W60
        BYTE   PEND
// 015   ----------------------------------------
        BYTE   PATT
         POIN2  LunarClockLunaDial00_11_13
// 016   ----------------------------------------
LunarClockLunaDial00_11_16:
        BYTE           N23     As1   v100
        BYTE           N23     Fn1
        BYTE           N23     As0
        BYTE   W24
        BYTE           N11     Cs2
        BYTE           N11     Gs1
        BYTE           N11     Cs1
        BYTE   W12
        BYTE                   As1
        BYTE           N11     Fn1
        BYTE           N11     As0
        BYTE   W36
        BYTE           VOL     17
        BYTE   W01
        BYTE           N23     As2
        BYTE           N23     Ds2
        BYTE           N23     As1
        BYTE   W03
        BYTE           BEND    c_v-1
        BYTE   W01
        BYTE                   c_v-2
        BYTE   W01
        BYTE                   c_v-3
        BYTE   W01
        BYTE                   c_v-4
        BYTE   W01
        BYTE                   c_v-6
        BYTE   W01
        BYTE                   c_v-7
        BYTE   W01
        BYTE                   c_v-9
        BYTE   W01
        BYTE                   c_v-11
        BYTE   W01
        BYTE                   c_v-15
        BYTE   W01
        BYTE                   c_v-17
        BYTE   W01
        BYTE                   c_v-19
        BYTE   W01
        BYTE                   c_v-23
        BYTE   W01
        BYTE                   c_v-25
        BYTE   W01
        BYTE                   c_v-31
        BYTE   W01
        BYTE                   c_v-34
        BYTE   W01
        BYTE                   c_v-37
        BYTE   W01
        BYTE                   c_v-43
        BYTE   W01
        BYTE                   c_v-46
        BYTE   W01
        BYTE                   c_v-52
        BYTE   W01
        BYTE                   c_v-55
        BYTE   W01
        BYTE   PEND
// 017   ----------------------------------------
LunarClockLunaDial00_11_17:
        BYTE           BEND    c_v-62
        BYTE   W01
        BYTE                   c_v-64
        BYTE   W92
        BYTE   W03
        BYTE   PEND
// 018   ----------------------------------------
        BYTE           VOL     31
        BYTE           BEND    c_v+0
        BYTE   W96
// 019   ----------------------------------------
        BYTE   W96
// 020   ----------------------------------------
        BYTE   W96
// 021   ----------------------------------------
        BYTE   PATT
         POIN2  LunarClockLunaDial00_11_17
// 022   ----------------------------------------
        BYTE           BEND    c_v+0
        BYTE   W96
// 023   ----------------------------------------
        BYTE   W96
// 024   ----------------------------------------
        BYTE   W96
// 025   ----------------------------------------
        BYTE   PATT
         POIN2  LunarClockLunaDial00_11_17
// 026   ----------------------------------------
        BYTE           BEND    c_v+0
        BYTE   W96
// 027   ----------------------------------------
        BYTE   W96
// 028   ----------------------------------------
        BYTE   W96
// 029   ----------------------------------------
        BYTE   PATT
         POIN2  LunarClockLunaDial00_11_17
// 030   ----------------------------------------
        BYTE           BEND    c_v+0
        BYTE   W96
// 031   ----------------------------------------
        BYTE   W96
// 032   ----------------------------------------
        BYTE   W96
// 033   ----------------------------------------
        BYTE   W96
// 034   ----------------------------------------
        BYTE   W96
// 035   ----------------------------------------
        BYTE   W96
// 036   ----------------------------------------
        BYTE   W96
// 037   ----------------------------------------
        BYTE   W96
// 038   ----------------------------------------
        BYTE   W96
// 039   ----------------------------------------
        BYTE   W96
// 040   ----------------------------------------
        BYTE   W96
// 041   ----------------------------------------
        BYTE   W96
// 042   ----------------------------------------
        BYTE   W96
// 043   ----------------------------------------
        BYTE   W96
// 044   ----------------------------------------
        BYTE   W96
// 045   ----------------------------------------
        BYTE   W96
// 046   ----------------------------------------
        BYTE   W96
// 047   ----------------------------------------
        BYTE   W96
// 048   ----------------------------------------
LunarClockLunaDial00_11_48:
        BYTE   W60
        BYTE           VOL     17
        BYTE   W13
        BYTE           N23     As2   v100
        BYTE           N23     Ds2
        BYTE           N23     As1
        BYTE   W03
        BYTE           BEND    c_v-1
        BYTE   W01
        BYTE                   c_v-2
        BYTE   W01
        BYTE                   c_v-3
        BYTE   W01
        BYTE                   c_v-4
        BYTE   W01
        BYTE                   c_v-6
        BYTE   W01
        BYTE                   c_v-7
        BYTE   W01
        BYTE                   c_v-9
        BYTE   W01
        BYTE                   c_v-11
        BYTE   W01
        BYTE                   c_v-15
        BYTE   W01
        BYTE                   c_v-17
        BYTE   W01
        BYTE                   c_v-19
        BYTE   W01
        BYTE                   c_v-23
        BYTE   W01
        BYTE                   c_v-25
        BYTE   W01
        BYTE                   c_v-31
        BYTE   W01
        BYTE                   c_v-34
        BYTE   W01
        BYTE                   c_v-37
        BYTE   W01
        BYTE                   c_v-43
        BYTE   W01
        BYTE                   c_v-46
        BYTE   W01
        BYTE                   c_v-52
        BYTE   W01
        BYTE                   c_v-55
        BYTE   W01
        BYTE   PEND
// 049   ----------------------------------------
        BYTE   PATT
         POIN2  LunarClockLunaDial00_11_17
// 050   ----------------------------------------
        BYTE           VOL     31
        BYTE           BEND    c_v+0
        BYTE   W96
// 051   ----------------------------------------
        BYTE   W96
// 052   ----------------------------------------
        BYTE   W96
// 053   ----------------------------------------
        BYTE   W96
// 054   ----------------------------------------
        BYTE   PATT
         POIN2  LunarClockLunaDial00_11_6
// 055   ----------------------------------------
        BYTE   W96
// 056   ----------------------------------------
        BYTE   W96
// 057   ----------------------------------------
        BYTE   W96
// 058   ----------------------------------------
        BYTE   PATT
         POIN2  LunarClockLunaDial00_11_6
// 059   ----------------------------------------
        BYTE   W96
// 060   ----------------------------------------
        BYTE   W96
// 061   ----------------------------------------
        BYTE   PATT
         POIN2  LunarClockLunaDial00_11_13
// 062   ----------------------------------------
        BYTE   PATT
         POIN2  LunarClockLunaDial00_11_14
// 063   ----------------------------------------
        BYTE   PATT
         POIN2  LunarClockLunaDial00_11_13
// 064   ----------------------------------------
        BYTE   PATT
         POIN2  LunarClockLunaDial00_11_16
// 065   ----------------------------------------
        BYTE   PATT
         POIN2  LunarClockLunaDial00_11_17
// 066   ----------------------------------------
        BYTE           VOL     31
        BYTE           BEND    c_v+0
        BYTE   W96
// 067   ----------------------------------------
        BYTE   W96
// 068   ----------------------------------------
        BYTE   W96
// 069   ----------------------------------------
        BYTE   PATT
         POIN2  LunarClockLunaDial00_11_17
// 070   ----------------------------------------
        BYTE           BEND    c_v+0
        BYTE   W96
// 071   ----------------------------------------
        BYTE   W96
// 072   ----------------------------------------
        BYTE   W96
// 073   ----------------------------------------
        BYTE   PATT
         POIN2  LunarClockLunaDial00_11_17
// 074   ----------------------------------------
        BYTE           BEND    c_v+0
        BYTE   W96
// 075   ----------------------------------------
        BYTE   W96
// 076   ----------------------------------------
        BYTE   W96
// 077   ----------------------------------------
        BYTE   PATT
         POIN2  LunarClockLunaDial00_11_17
// 078   ----------------------------------------
        BYTE           BEND    c_v+0
        BYTE   W96
// 079   ----------------------------------------
        BYTE   W96
// 080   ----------------------------------------
        BYTE   W96
// 081   ----------------------------------------
        BYTE   W96
// 082   ----------------------------------------
        BYTE   W96
// 083   ----------------------------------------
        BYTE   W96
// 084   ----------------------------------------
        BYTE   W96
// 085   ----------------------------------------
        BYTE   W96
// 086   ----------------------------------------
        BYTE   W96
// 087   ----------------------------------------
        BYTE   W96
// 088   ----------------------------------------
        BYTE   W96
// 089   ----------------------------------------
        BYTE   W96
// 090   ----------------------------------------
        BYTE   W96
// 091   ----------------------------------------
        BYTE   W96
// 092   ----------------------------------------
        BYTE   W96
// 093   ----------------------------------------
        BYTE   W96
// 094   ----------------------------------------
        BYTE   W96
// 095   ----------------------------------------
        BYTE   W96
// 096   ----------------------------------------
        BYTE   PATT
         POIN2  LunarClockLunaDial00_11_48
// 097   ----------------------------------------
        BYTE           BEND    c_v-62
        BYTE   GoTo
         POIN2  LunarClockLunaDial00_11_LOOP
        BYTE   W01
        BYTE                   c_v-64
        BYTE   W92
        BYTE   W03
// 098   ----------------------------------------
        BYTE           VOL     31
        BYTE           BEND    c_v+0
        BYTE   W96
// 099   ----------------------------------------
        BYTE   W96
// 100   ----------------------------------------
        BYTE   W96
// 101   ----------------------------------------
        BYTE   W96
// 102   ----------------------------------------
        BYTE   PATT
         POIN2  LunarClockLunaDial00_11_6
// 103   ----------------------------------------
        BYTE   W96
// 104   ----------------------------------------
        BYTE   W92
        BYTE   W03
        BYTE   FINE

//***************** Track 12 (Midi-Chn.14) *****************//

LunarClockLunaDial00_12:
        BYTE   KEYSH   LunarClockLunaDial00_key+0
// 000   ----------------------------------------
        BYTE           VOICE   0
        BYTE           PAN     c_v+16
        BYTE           VOL     31
        BYTE           BENDR   12
        BYTE   W24
// 001   ----------------------------------------
LunarClockLunaDial00_12_LOOP:
        BYTE   W96
// 002   ----------------------------------------
        BYTE   W96
// 003   ----------------------------------------
        BYTE   W96
// 004   ----------------------------------------
        BYTE   W96
// 005   ----------------------------------------
        BYTE   W96
// 006   ----------------------------------------
        BYTE   W96
// 007   ----------------------------------------
        BYTE   W96
// 008   ----------------------------------------
        BYTE   W96
// 009   ----------------------------------------
        BYTE   W96
// 010   ----------------------------------------
        BYTE   W96
// 011   ----------------------------------------
        BYTE   W96
// 012   ----------------------------------------
        BYTE   W96
// 013   ----------------------------------------
        BYTE   W96
// 014   ----------------------------------------
        BYTE   W96
// 015   ----------------------------------------
        BYTE   W96
// 016   ----------------------------------------
        BYTE   PATT
         POIN2  LunarClockLunaDial00_2_16
// 017   ----------------------------------------
        BYTE   PATT
         POIN2  LunarClockLunaDial00_2_17
// 018   ----------------------------------------
        BYTE   PATT
         POIN2  LunarClockLunaDial00_2_18
// 019   ----------------------------------------
        BYTE   PATT
         POIN2  LunarClockLunaDial00_2_19
// 020   ----------------------------------------
        BYTE   PATT
         POIN2  LunarClockLunaDial00_2_20
// 021   ----------------------------------------
        BYTE   PATT
         POIN2  LunarClockLunaDial00_2_21
// 022   ----------------------------------------
        BYTE   PATT
         POIN2  LunarClockLunaDial00_2_22
// 023   ----------------------------------------
        BYTE   PATT
         POIN2  LunarClockLunaDial00_2_23
// 024   ----------------------------------------
        BYTE   PATT
         POIN2  LunarClockLunaDial00_2_24
// 025   ----------------------------------------
        BYTE   PATT
         POIN2  LunarClockLunaDial00_2_17
// 026   ----------------------------------------
        BYTE   PATT
         POIN2  LunarClockLunaDial00_2_18
// 027   ----------------------------------------
        BYTE   PATT
         POIN2  LunarClockLunaDial00_2_19
// 028   ----------------------------------------
        BYTE   PATT
         POIN2  LunarClockLunaDial00_2_28
// 029   ----------------------------------------
        BYTE   PATT
         POIN2  LunarClockLunaDial00_2_21
// 030   ----------------------------------------
        BYTE   PATT
         POIN2  LunarClockLunaDial00_2_22
// 031   ----------------------------------------
        BYTE   PATT
         POIN2  LunarClockLunaDial00_2_31
// 032   ----------------------------------------
        BYTE   PATT
         POIN2  LunarClockLunaDial00_2_32
// 033   ----------------------------------------
        BYTE   PATT
         POIN2  LunarClockLunaDial00_2_33
// 034   ----------------------------------------
        BYTE   PATT
         POIN2  LunarClockLunaDial00_2_34
// 035   ----------------------------------------
        BYTE   PATT
         POIN2  LunarClockLunaDial00_2_35
// 036   ----------------------------------------
        BYTE   PATT
         POIN2  LunarClockLunaDial00_2_33
// 037   ----------------------------------------
        BYTE   PATT
         POIN2  LunarClockLunaDial00_2_33
// 038   ----------------------------------------
        BYTE   PATT
         POIN2  LunarClockLunaDial00_2_34
// 039   ----------------------------------------
        BYTE   PATT
         POIN2  LunarClockLunaDial00_2_35
// 040   ----------------------------------------
        BYTE   PATT
         POIN2  LunarClockLunaDial00_2_33
// 041   ----------------------------------------
        BYTE   PATT
         POIN2  LunarClockLunaDial00_2_41
// 042   ----------------------------------------
        BYTE   PATT
         POIN2  LunarClockLunaDial00_2_42
// 043   ----------------------------------------
        BYTE   PATT
         POIN2  LunarClockLunaDial00_2_43
// 044   ----------------------------------------
        BYTE   PATT
         POIN2  LunarClockLunaDial00_2_44
// 045   ----------------------------------------
        BYTE   PATT
         POIN2  LunarClockLunaDial00_2_45
// 046   ----------------------------------------
        BYTE   PATT
         POIN2  LunarClockLunaDial00_2_46
// 047   ----------------------------------------
        BYTE   PATT
         POIN2  LunarClockLunaDial00_2_47
// 048   ----------------------------------------
LunarClockLunaDial00_12_48:
        BYTE           N92     As4   v100   gtp3
        BYTE                   Ds4   v090
        BYTE   W96
        BYTE   PEND
// 049   ----------------------------------------
        BYTE   W96
// 050   ----------------------------------------
        BYTE   W96
// 051   ----------------------------------------
        BYTE   W96
// 052   ----------------------------------------
        BYTE   W96
// 053   ----------------------------------------
        BYTE   W96
// 054   ----------------------------------------
        BYTE   W96
// 055   ----------------------------------------
        BYTE   W96
// 056   ----------------------------------------
        BYTE   W96
// 057   ----------------------------------------
        BYTE   W96
// 058   ----------------------------------------
        BYTE   W96
// 059   ----------------------------------------
        BYTE   W96
// 060   ----------------------------------------
        BYTE   W96
// 061   ----------------------------------------
        BYTE   W96
// 062   ----------------------------------------
        BYTE   W96
// 063   ----------------------------------------
        BYTE   W96
// 064   ----------------------------------------
        BYTE   PATT
         POIN2  LunarClockLunaDial00_2_64
// 065   ----------------------------------------
        BYTE   PATT
         POIN2  LunarClockLunaDial00_2_17
// 066   ----------------------------------------
        BYTE   PATT
         POIN2  LunarClockLunaDial00_2_18
// 067   ----------------------------------------
        BYTE   PATT
         POIN2  LunarClockLunaDial00_2_19
// 068   ----------------------------------------
        BYTE   PATT
         POIN2  LunarClockLunaDial00_2_20
// 069   ----------------------------------------
        BYTE   PATT
         POIN2  LunarClockLunaDial00_2_21
// 070   ----------------------------------------
        BYTE   PATT
         POIN2  LunarClockLunaDial00_2_22
// 071   ----------------------------------------
        BYTE   PATT
         POIN2  LunarClockLunaDial00_2_23
// 072   ----------------------------------------
        BYTE   PATT
         POIN2  LunarClockLunaDial00_2_24
// 073   ----------------------------------------
        BYTE   PATT
         POIN2  LunarClockLunaDial00_2_17
// 074   ----------------------------------------
        BYTE   PATT
         POIN2  LunarClockLunaDial00_2_18
// 075   ----------------------------------------
        BYTE   PATT
         POIN2  LunarClockLunaDial00_2_19
// 076   ----------------------------------------
        BYTE   PATT
         POIN2  LunarClockLunaDial00_2_28
// 077   ----------------------------------------
        BYTE   PATT
         POIN2  LunarClockLunaDial00_2_21
// 078   ----------------------------------------
        BYTE   PATT
         POIN2  LunarClockLunaDial00_2_22
// 079   ----------------------------------------
        BYTE   PATT
         POIN2  LunarClockLunaDial00_2_31
// 080   ----------------------------------------
        BYTE   PATT
         POIN2  LunarClockLunaDial00_2_32
// 081   ----------------------------------------
        BYTE   PATT
         POIN2  LunarClockLunaDial00_2_33
// 082   ----------------------------------------
        BYTE   PATT
         POIN2  LunarClockLunaDial00_2_34
// 083   ----------------------------------------
        BYTE   PATT
         POIN2  LunarClockLunaDial00_2_35
// 084   ----------------------------------------
        BYTE   PATT
         POIN2  LunarClockLunaDial00_2_33
// 085   ----------------------------------------
        BYTE   PATT
         POIN2  LunarClockLunaDial00_2_33
// 086   ----------------------------------------
        BYTE   PATT
         POIN2  LunarClockLunaDial00_2_34
// 087   ----------------------------------------
        BYTE   PATT
         POIN2  LunarClockLunaDial00_2_35
// 088   ----------------------------------------
        BYTE   PATT
         POIN2  LunarClockLunaDial00_2_33
// 089   ----------------------------------------
        BYTE   PATT
         POIN2  LunarClockLunaDial00_2_41
// 090   ----------------------------------------
        BYTE   PATT
         POIN2  LunarClockLunaDial00_2_42
// 091   ----------------------------------------
        BYTE   PATT
         POIN2  LunarClockLunaDial00_2_43
// 092   ----------------------------------------
        BYTE   PATT
         POIN2  LunarClockLunaDial00_2_44
// 093   ----------------------------------------
        BYTE   PATT
         POIN2  LunarClockLunaDial00_2_45
// 094   ----------------------------------------
        BYTE   PATT
         POIN2  LunarClockLunaDial00_2_46
// 095   ----------------------------------------
        BYTE   PATT
         POIN2  LunarClockLunaDial00_2_47
// 096   ----------------------------------------
        BYTE   PATT
         POIN2  LunarClockLunaDial00_12_48
// 097   ----------------------------------------
        BYTE   GoTo
         POIN2  LunarClockLunaDial00_12_LOOP
        BYTE   W96
// 098   ----------------------------------------
        BYTE   W96
// 099   ----------------------------------------
        BYTE   W96
// 100   ----------------------------------------
        BYTE   W96
// 101   ----------------------------------------
        BYTE   W96
// 102   ----------------------------------------
        BYTE   W96
// 103   ----------------------------------------
        BYTE   W96
// 104   ----------------------------------------
        BYTE   W92
        BYTE   W03
        BYTE   FINE


//********************** End of Song ***********************//

        ALIGN 4
LunarClockLunaDial00:
        BYTE   13                      // Num Tracks
        BYTE   0                       // Unknown
        BYTE   LunarClockLunaDial00_pri // Priority
        BYTE   LunarClockLunaDial00_rev // Reverb

        POIN2   LunarClockLunaDial00_grp

        POIN2   LunarClockLunaDial00_0
        POIN2   LunarClockLunaDial00_1
        POIN2   LunarClockLunaDial00_2
        POIN2   LunarClockLunaDial00_3
        POIN2   LunarClockLunaDial00_4
        POIN2   LunarClockLunaDial00_5
        POIN2   LunarClockLunaDial00_6
        POIN2   LunarClockLunaDial00_7
        POIN2   LunarClockLunaDial00_8
        POIN2   LunarClockLunaDial00_9
        POIN2   LunarClockLunaDial00_10
        POIN2   LunarClockLunaDial00_11
        POIN2   LunarClockLunaDial00_12

        
