//Event file generated from Sappy .s format.
        #include "MPlayDef.event"

        #define    neverendingdream000_grp  voicegroup000
        #define    neverendingdream000_pri  0
        #define    neverendingdream000_rev  0
        #define    neverendingdream000_key  0

        // .rodata
        // neverendingdream000
        ALIGN 4

//****************** Track 0 (Midi-Chn.0) ******************//

neverendingdream000_0:
        BYTE   KEYSH   neverendingdream000_key+0
// 000   ----------------------------------------
        BYTE   TEMPO   240/2
        BYTE           VOICE   68
        BYTE           VOL     43
        BYTE   W06
// 001   ----------------------------------------
        BYTE   TEMPO   70/2
        BYTE           N11     Bn2   v092
        BYTE   W06
// 002   ----------------------------------------
        BYTE   W06
// 003   ----------------------------------------
        BYTE                   En3   v106
        BYTE   W06
// 004   ----------------------------------------
        BYTE   W06
// 005   ----------------------------------------
        BYTE                   Ds3   v076
        BYTE   W06
// 006   ----------------------------------------
        BYTE   W06
// 007   ----------------------------------------
        BYTE                   En3   v106
        BYTE   W06
// 008   ----------------------------------------
        BYTE   W06
// 009   ----------------------------------------
        BYTE                   Fs3
        BYTE   W06
// 010   ----------------------------------------
        BYTE   W05
neverendingdream000_0_LOOP:
        BYTE           BENDR   127
        BYTE   W01
// 011   ----------------------------------------
        BYTE           N32     Gn3   v106   gtp3
        BYTE   W06
// 012   ----------------------------------------
        BYTE   W06
// 013   ----------------------------------------
        BYTE   W06
// 014   ----------------------------------------
        BYTE   W06
// 015   ----------------------------------------
        BYTE   W06
// 016   ----------------------------------------
        BYTE   W06
// 017   ----------------------------------------
        BYTE           N44     Gn3   v106   gtp3
        BYTE   W06
// 018   ----------------------------------------
        BYTE   W06
// 019   ----------------------------------------
        BYTE   W06
// 020   ----------------------------------------
        BYTE   W06
// 021   ----------------------------------------
        BYTE   W06
// 022   ----------------------------------------
        BYTE   W06
// 023   ----------------------------------------
        BYTE   W06
// 024   ----------------------------------------
        BYTE   W06
// 025   ----------------------------------------
        BYTE           N05     An3
        BYTE   W06
// 026   ----------------------------------------
        BYTE                   Bn3
        BYTE   W06
// 027   ----------------------------------------
        BYTE           N32     Bn3   v106   gtp3
        BYTE   W06
// 028   ----------------------------------------
        BYTE   W06
// 029   ----------------------------------------
        BYTE   W06
// 030   ----------------------------------------
        BYTE   W06
// 031   ----------------------------------------
        BYTE   W06
// 032   ----------------------------------------
        BYTE   W06
// 033   ----------------------------------------
        BYTE           N11     Fs3
        BYTE   W06
// 034   ----------------------------------------
        BYTE   W06
// 035   ----------------------------------------
        BYTE           N32     Fs3   v106   gtp3
        BYTE   W06
// 036   ----------------------------------------
        BYTE   W06
// 037   ----------------------------------------
        BYTE   W06
// 038   ----------------------------------------
        BYTE   W06
// 039   ----------------------------------------
        BYTE   W06
// 040   ----------------------------------------
        BYTE   W06
// 041   ----------------------------------------
        BYTE           N11     Dn3
        BYTE   W06
// 042   ----------------------------------------
        BYTE   W06
// 043   ----------------------------------------
        BYTE           N44     En3   v106   gtp3
        BYTE   W06
// 044   ----------------------------------------
        BYTE   W06
// 045   ----------------------------------------
        BYTE   W06
// 046   ----------------------------------------
        BYTE   W06
// 047   ----------------------------------------
        BYTE   W06
// 048   ----------------------------------------
        BYTE   W06
// 049   ----------------------------------------
        BYTE   W06
// 050   ----------------------------------------
        BYTE   W06
// 051   ----------------------------------------
        BYTE           N17
        BYTE   W06
// 052   ----------------------------------------
        BYTE   W06
// 053   ----------------------------------------
        BYTE   W06
// 054   ----------------------------------------
        BYTE                   Fs3
        BYTE   W06
// 055   ----------------------------------------
        BYTE   W06
// 056   ----------------------------------------
        BYTE   W06
// 057   ----------------------------------------
        BYTE           N11     Gn3
        BYTE   W06
// 058   ----------------------------------------
        BYTE   W06
// 059   ----------------------------------------
        BYTE           N32     Gn3   v106   gtp3
        BYTE   W06
// 060   ----------------------------------------
        BYTE   W06
// 061   ----------------------------------------
        BYTE   W06
// 062   ----------------------------------------
        BYTE   W06
// 063   ----------------------------------------
        BYTE   W06
// 064   ----------------------------------------
        BYTE   W06
// 065   ----------------------------------------
        BYTE           N11     Dn3
        BYTE   W06
// 066   ----------------------------------------
        BYTE   W06
// 067   ----------------------------------------
        BYTE           N30     Dn3   v106   gtp1
        BYTE   W06
// 068   ----------------------------------------
        BYTE   W06
// 069   ----------------------------------------
        BYTE   W06
// 070   ----------------------------------------
        BYTE   W06
// 071   ----------------------------------------
        BYTE   W06
// 072   ----------------------------------------
        BYTE   W04
        BYTE           N04
        BYTE   W02
// 073   ----------------------------------------
        BYTE   W01
        BYTE                   Cn3
        BYTE   W05
// 074   ----------------------------------------
        BYTE           N05     Bn2
        BYTE   W06
// 075   ----------------------------------------
        BYTE           N44     Cn3   v106   gtp3
        BYTE   W06
// 076   ----------------------------------------
        BYTE   W06
// 077   ----------------------------------------
        BYTE   W06
// 078   ----------------------------------------
        BYTE   W06
// 079   ----------------------------------------
        BYTE   W06
// 080   ----------------------------------------
        BYTE   W06
// 081   ----------------------------------------
        BYTE   W06
// 082   ----------------------------------------
        BYTE   W06
// 083   ----------------------------------------
        BYTE           N23     Gn3
        BYTE   W06
// 084   ----------------------------------------
        BYTE   W06
// 085   ----------------------------------------
        BYTE   W06
// 086   ----------------------------------------
        BYTE   W06
// 087   ----------------------------------------
        BYTE                   An3
        BYTE   W06
// 088   ----------------------------------------
        BYTE   W06
// 089   ----------------------------------------
        BYTE   W06
// 090   ----------------------------------------
        BYTE   W06
// 091   ----------------------------------------
        BYTE           N32     Gn3   v106   gtp3
        BYTE   W06
// 092   ----------------------------------------
        BYTE   W06
// 093   ----------------------------------------
        BYTE   W06
// 094   ----------------------------------------
        BYTE   W06
// 095   ----------------------------------------
        BYTE   W06
// 096   ----------------------------------------
        BYTE   W06
// 097   ----------------------------------------
        BYTE           N11     Dn3
        BYTE   W06
// 098   ----------------------------------------
        BYTE   W06
// 099   ----------------------------------------
        BYTE           N44     Dn3   v106   gtp3
        BYTE   W06
// 100   ----------------------------------------
        BYTE   W06
// 101   ----------------------------------------
        BYTE   W06
// 102   ----------------------------------------
        BYTE   W06
// 103   ----------------------------------------
        BYTE   W06
// 104   ----------------------------------------
        BYTE   W06
// 105   ----------------------------------------
        BYTE   W06
// 106   ----------------------------------------
        BYTE   W06
// 107   ----------------------------------------
        BYTE                   En3
        BYTE   W06
// 108   ----------------------------------------
        BYTE   W06
// 109   ----------------------------------------
        BYTE   W06
// 110   ----------------------------------------
        BYTE   W06
// 111   ----------------------------------------
        BYTE   W06
// 112   ----------------------------------------
        BYTE   W06
// 113   ----------------------------------------
        BYTE   W06
// 114   ----------------------------------------
        BYTE   W06
// 115   ----------------------------------------
        BYTE           N17
        BYTE   W06
// 116   ----------------------------------------
        BYTE   W06
// 117   ----------------------------------------
        BYTE   W06
// 118   ----------------------------------------
        BYTE                   Fs3
        BYTE   W06
// 119   ----------------------------------------
        BYTE   W06
// 120   ----------------------------------------
        BYTE   W06
// 121   ----------------------------------------
        BYTE           N11     Gn3
        BYTE   W06
// 122   ----------------------------------------
        BYTE   W06
// 123   ----------------------------------------
        BYTE           N32     Bn3   v106   gtp3
        BYTE   W06
// 124   ----------------------------------------
        BYTE   W06
// 125   ----------------------------------------
        BYTE   W06
// 126   ----------------------------------------
        BYTE   W06
// 127   ----------------------------------------
        BYTE   W06
// 128   ----------------------------------------
        BYTE   W06
// 129   ----------------------------------------
        BYTE           N11     Cn4
        BYTE   W06
// 130   ----------------------------------------
        BYTE   W06
// 131   ----------------------------------------
        BYTE           N44     An3   v106   gtp3
        BYTE   W06
// 132   ----------------------------------------
        BYTE   W06
// 133   ----------------------------------------
        BYTE   W06
// 134   ----------------------------------------
        BYTE   W06
// 135   ----------------------------------------
        BYTE   W06
// 136   ----------------------------------------
        BYTE   W06
// 137   ----------------------------------------
        BYTE   W06
// 138   ----------------------------------------
        BYTE   W06
// 139   ----------------------------------------
        BYTE           N32     Gn3   v106   gtp3
        BYTE   W06
// 140   ----------------------------------------
        BYTE   W06
// 141   ----------------------------------------
        BYTE   W06
// 142   ----------------------------------------
        BYTE   W06
// 143   ----------------------------------------
        BYTE   W06
// 144   ----------------------------------------
        BYTE   W06
// 145   ----------------------------------------
        BYTE           N44     Gn3   v106   gtp3
        BYTE   W06
// 146   ----------------------------------------
        BYTE   W06
// 147   ----------------------------------------
        BYTE   W06
// 148   ----------------------------------------
        BYTE   W06
// 149   ----------------------------------------
        BYTE   W06
// 150   ----------------------------------------
        BYTE   W06
// 151   ----------------------------------------
        BYTE   W06
// 152   ----------------------------------------
        BYTE   W06
// 153   ----------------------------------------
        BYTE           N05     An3
        BYTE   W06
// 154   ----------------------------------------
        BYTE                   Bn3
        BYTE   W06
// 155   ----------------------------------------
        BYTE           N32     Bn3   v106   gtp3
        BYTE   W06
// 156   ----------------------------------------
        BYTE   W06
// 157   ----------------------------------------
        BYTE   W06
// 158   ----------------------------------------
        BYTE   W06
// 159   ----------------------------------------
        BYTE   W06
// 160   ----------------------------------------
        BYTE   W06
// 161   ----------------------------------------
        BYTE           N11     Fs3
        BYTE   W06
// 162   ----------------------------------------
        BYTE   W06
// 163   ----------------------------------------
        BYTE           N32     Fs3   v106   gtp3
        BYTE   W06
// 164   ----------------------------------------
        BYTE   W06
// 165   ----------------------------------------
        BYTE   W06
// 166   ----------------------------------------
        BYTE   W06
// 167   ----------------------------------------
        BYTE   W06
// 168   ----------------------------------------
        BYTE   W06
// 169   ----------------------------------------
        BYTE           N11     Dn3
        BYTE   W06
// 170   ----------------------------------------
        BYTE   W06
// 171   ----------------------------------------
        BYTE           N44     En3   v106   gtp3
        BYTE   W06
// 172   ----------------------------------------
        BYTE   W06
// 173   ----------------------------------------
        BYTE   W06
// 174   ----------------------------------------
        BYTE   W06
// 175   ----------------------------------------
        BYTE   W06
// 176   ----------------------------------------
        BYTE   W06
// 177   ----------------------------------------
        BYTE   W06
// 178   ----------------------------------------
        BYTE   W06
// 179   ----------------------------------------
        BYTE           N11
        BYTE   W06
// 180   ----------------------------------------
        BYTE   W06
// 181   ----------------------------------------
        BYTE                   Fs3
        BYTE   W06
// 182   ----------------------------------------
        BYTE   W06
// 183   ----------------------------------------
        BYTE                   En3
        BYTE   W06
// 184   ----------------------------------------
        BYTE   W06
// 185   ----------------------------------------
        BYTE           N44     Gn3   v106   gtp3
        BYTE   W06
// 186   ----------------------------------------
        BYTE   W06
// 187   ----------------------------------------
        BYTE   W06
// 188   ----------------------------------------
        BYTE   W06
// 189   ----------------------------------------
        BYTE   W06
// 190   ----------------------------------------
        BYTE   W06
// 191   ----------------------------------------
        BYTE   W06
// 192   ----------------------------------------
        BYTE   W06
// 193   ----------------------------------------
        BYTE           N11     Dn3
        BYTE   W06
// 194   ----------------------------------------
        BYTE   W06
// 195   ----------------------------------------
        BYTE           N30
        BYTE   W06
// 196   ----------------------------------------
        BYTE   W06
// 197   ----------------------------------------
        BYTE   W06
// 198   ----------------------------------------
        BYTE   W06
// 199   ----------------------------------------
        BYTE   W06
// 200   ----------------------------------------
        BYTE   W05
        BYTE           N04
        BYTE   W01
// 201   ----------------------------------------
        BYTE   W02
        BYTE                   Cn3
        BYTE   W04
// 202   ----------------------------------------
        BYTE           N05     Bn2
        BYTE   W06
// 203   ----------------------------------------
        BYTE           N44     Cn3   v106   gtp3
        BYTE   W06
// 204   ----------------------------------------
        BYTE   W06
// 205   ----------------------------------------
        BYTE   W06
// 206   ----------------------------------------
        BYTE   W06
// 207   ----------------------------------------
        BYTE   W06
// 208   ----------------------------------------
        BYTE   W06
// 209   ----------------------------------------
        BYTE   W06
// 210   ----------------------------------------
        BYTE   W06
// 211   ----------------------------------------
        BYTE           N23     Gn3
        BYTE   W06
// 212   ----------------------------------------
        BYTE   W06
// 213   ----------------------------------------
        BYTE   W06
// 214   ----------------------------------------
        BYTE   W06
// 215   ----------------------------------------
        BYTE                   An3
        BYTE   W06
// 216   ----------------------------------------
        BYTE   W06
// 217   ----------------------------------------
        BYTE   W06
// 218   ----------------------------------------
        BYTE   W06
// 219   ----------------------------------------
        BYTE           N32     Gn3   v106   gtp3
        BYTE   W06
// 220   ----------------------------------------
        BYTE   W06
// 221   ----------------------------------------
        BYTE   W06
// 222   ----------------------------------------
        BYTE   W06
// 223   ----------------------------------------
        BYTE   W06
// 224   ----------------------------------------
        BYTE   W06
// 225   ----------------------------------------
        BYTE           N09     Dn3
        BYTE   W06
// 226   ----------------------------------------
        BYTE   W06
// 227   ----------------------------------------
        BYTE           N44     Dn3   v106   gtp3
        BYTE   W06
// 228   ----------------------------------------
        BYTE   W06
// 229   ----------------------------------------
        BYTE   W06
// 230   ----------------------------------------
        BYTE   W06
// 231   ----------------------------------------
        BYTE   W06
// 232   ----------------------------------------
        BYTE   W06
// 233   ----------------------------------------
        BYTE   W06
// 234   ----------------------------------------
        BYTE   W06
// 235   ----------------------------------------
        BYTE                   En3
        BYTE   W06
// 236   ----------------------------------------
        BYTE   W06
// 237   ----------------------------------------
        BYTE   W06
// 238   ----------------------------------------
        BYTE   W06
// 239   ----------------------------------------
        BYTE   W06
// 240   ----------------------------------------
        BYTE   W06
// 241   ----------------------------------------
        BYTE   W06
// 242   ----------------------------------------
        BYTE   W06
// 243   ----------------------------------------
        BYTE           N17
        BYTE   W06
// 244   ----------------------------------------
        BYTE   W06
// 245   ----------------------------------------
        BYTE   W06
// 246   ----------------------------------------
        BYTE                   Fs3
        BYTE   W06
// 247   ----------------------------------------
        BYTE   W06
// 248   ----------------------------------------
        BYTE   W06
// 249   ----------------------------------------
        BYTE           N11     Gn3
        BYTE   W06
// 250   ----------------------------------------
        BYTE   W06
// 251   ----------------------------------------
        BYTE           N17     Fs3
        BYTE   W06
// 252   ----------------------------------------
        BYTE   W06
// 253   ----------------------------------------
        BYTE   W06
// 254   ----------------------------------------
        BYTE                   Gn3
        BYTE   W06
// 255   ----------------------------------------
        BYTE   W06
// 256   ----------------------------------------
        BYTE   W06
// 257   ----------------------------------------
        BYTE           N11     An3
        BYTE   W06
// 258   ----------------------------------------
        BYTE   W06
// 259   ----------------------------------------
        BYTE           N96
        BYTE   W06
// 260   ----------------------------------------
        BYTE   W06
// 261   ----------------------------------------
        BYTE   W06
// 262   ----------------------------------------
        BYTE   W06
// 263   ----------------------------------------
        BYTE   W06
// 264   ----------------------------------------
        BYTE   W06
// 265   ----------------------------------------
        BYTE   W06
// 266   ----------------------------------------
        BYTE   W06
// 267   ----------------------------------------
        BYTE   W06
// 268   ----------------------------------------
        BYTE   W06
// 269   ----------------------------------------
        BYTE   W06
// 270   ----------------------------------------
        BYTE   W06
// 271   ----------------------------------------
        BYTE   W06
// 272   ----------------------------------------
        BYTE   W06
// 273   ----------------------------------------
        BYTE   W06
// 274   ----------------------------------------
        BYTE   W06
// 275   ----------------------------------------
        BYTE   W06
// 276   ----------------------------------------
        BYTE   W06
// 277   ----------------------------------------
        BYTE   W06
// 278   ----------------------------------------
        BYTE   W06
// 279   ----------------------------------------
        BYTE   W06
// 280   ----------------------------------------
        BYTE   W06
// 281   ----------------------------------------
        BYTE   W06
// 282   ----------------------------------------
        BYTE   W06
// 283   ----------------------------------------
        BYTE           N11     Bn3
        BYTE   W06
// 284   ----------------------------------------
        BYTE   W06
// 285   ----------------------------------------
        BYTE                   An3
        BYTE   W06
// 286   ----------------------------------------
        BYTE   W06
// 287   ----------------------------------------
        BYTE                   Bn3
        BYTE   W06
// 288   ----------------------------------------
        BYTE   W06
// 289   ----------------------------------------
        BYTE           N56     Dn3   v106   gtp3
        BYTE   W06
// 290   ----------------------------------------
        BYTE   W06
// 291   ----------------------------------------
        BYTE   W06
// 292   ----------------------------------------
        BYTE   W06
// 293   ----------------------------------------
        BYTE   W06
// 294   ----------------------------------------
        BYTE   W06
// 295   ----------------------------------------
        BYTE   W06
// 296   ----------------------------------------
        BYTE   W06
// 297   ----------------------------------------
        BYTE   W06
// 298   ----------------------------------------
        BYTE   W06
// 299   ----------------------------------------
        BYTE           N17     Bn3
        BYTE   W06
// 300   ----------------------------------------
        BYTE   W06
// 301   ----------------------------------------
        BYTE   W06
// 302   ----------------------------------------
        BYTE                   Cn4
        BYTE   W06
// 303   ----------------------------------------
        BYTE   W06
// 304   ----------------------------------------
        BYTE   W06
// 305   ----------------------------------------
        BYTE           N11     Dn4
        BYTE   W06
// 306   ----------------------------------------
        BYTE   W06
// 307   ----------------------------------------
        BYTE           N17
        BYTE   W06
// 308   ----------------------------------------
        BYTE   W06
// 309   ----------------------------------------
        BYTE   W06
// 310   ----------------------------------------
        BYTE                   Cn4
        BYTE   W06
// 311   ----------------------------------------
        BYTE   W06
// 312   ----------------------------------------
        BYTE   W06
// 313   ----------------------------------------
        BYTE           N11     Bn3
        BYTE   W06
// 314   ----------------------------------------
        BYTE   W06
// 315   ----------------------------------------
        BYTE           N32     An3   v106   gtp3
        BYTE   W06
// 316   ----------------------------------------
        BYTE   W06
// 317   ----------------------------------------
        BYTE   W06
// 318   ----------------------------------------
        BYTE   W06
// 319   ----------------------------------------
        BYTE   W06
// 320   ----------------------------------------
        BYTE   W06
// 321   ----------------------------------------
        BYTE           N11     Bn3
        BYTE   W06
// 322   ----------------------------------------
        BYTE   W06
// 323   ----------------------------------------
        BYTE           N68     Bn3   v106   gtp3
        BYTE   W06
// 324   ----------------------------------------
        BYTE   W06
// 325   ----------------------------------------
        BYTE   W06
// 326   ----------------------------------------
        BYTE   W06
// 327   ----------------------------------------
        BYTE   W06
// 328   ----------------------------------------
        BYTE   W06
// 329   ----------------------------------------
        BYTE   W06
// 330   ----------------------------------------
        BYTE   W06
// 331   ----------------------------------------
        BYTE   W06
// 332   ----------------------------------------
        BYTE   W06
// 333   ----------------------------------------
        BYTE   W06
// 334   ----------------------------------------
        BYTE   W06
// 335   ----------------------------------------
        BYTE           N23     Cn4
        BYTE   W06
// 336   ----------------------------------------
        BYTE   W06
// 337   ----------------------------------------
        BYTE   W06
// 338   ----------------------------------------
        BYTE   W06
// 339   ----------------------------------------
        BYTE                   Bn3
        BYTE   W06
// 340   ----------------------------------------
        BYTE   W06
// 341   ----------------------------------------
        BYTE   W06
// 342   ----------------------------------------
        BYTE   W06
// 343   ----------------------------------------
        BYTE                   An3
        BYTE   W06
// 344   ----------------------------------------
        BYTE   W06
// 345   ----------------------------------------
        BYTE   W06
// 346   ----------------------------------------
        BYTE   W06
// 347   ----------------------------------------
        BYTE           N11     Gn3
        BYTE   W06
// 348   ----------------------------------------
        BYTE   W06
// 349   ----------------------------------------
        BYTE                   Fs3
        BYTE   W06
// 350   ----------------------------------------
        BYTE   W06
// 351   ----------------------------------------
        BYTE                   Gn3
        BYTE   W06
// 352   ----------------------------------------
        BYTE   W06
// 353   ----------------------------------------
        BYTE           N44     An3   v106   gtp3
        BYTE   W06
// 354   ----------------------------------------
        BYTE   W06
// 355   ----------------------------------------
        BYTE   W06
// 356   ----------------------------------------
        BYTE   W06
// 357   ----------------------------------------
        BYTE   W06
// 358   ----------------------------------------
        BYTE   W06
// 359   ----------------------------------------
        BYTE   W06
// 360   ----------------------------------------
        BYTE   W06
// 361   ----------------------------------------
        BYTE           N05     Gn3
        BYTE   W06
// 362   ----------------------------------------
        BYTE                   Fs3
        BYTE   W06
// 363   ----------------------------------------
        BYTE           N11     Gn3
        BYTE   W06
// 364   ----------------------------------------
        BYTE   W06
// 365   ----------------------------------------
        BYTE                   Fs3
        BYTE   W06
// 366   ----------------------------------------
        BYTE   W06
// 367   ----------------------------------------
        BYTE                   Gn3
        BYTE   W06
// 368   ----------------------------------------
        BYTE   W06
// 369   ----------------------------------------
        BYTE           N44     An3   v106   gtp3
        BYTE   W06
// 370   ----------------------------------------
        BYTE   W06
// 371   ----------------------------------------
        BYTE   W06
// 372   ----------------------------------------
        BYTE   W06
// 373   ----------------------------------------
        BYTE   W06
// 374   ----------------------------------------
        BYTE   W06
// 375   ----------------------------------------
        BYTE   W06
// 376   ----------------------------------------
        BYTE   W06
// 377   ----------------------------------------
        BYTE           N05     Gn3
        BYTE   W06
// 378   ----------------------------------------
        BYTE                   An3
        BYTE   W06
// 379   ----------------------------------------
        BYTE           N44     Bn3   v106   gtp3
        BYTE   W06
// 380   ----------------------------------------
        BYTE   W06
// 381   ----------------------------------------
        BYTE   W06
// 382   ----------------------------------------
        BYTE   W06
// 383   ----------------------------------------
        BYTE   W06
// 384   ----------------------------------------
        BYTE   W06
// 385   ----------------------------------------
        BYTE   W06
// 386   ----------------------------------------
        BYTE   W06
// 387   ----------------------------------------
        BYTE           N17
        BYTE   W06
// 388   ----------------------------------------
        BYTE   W06
// 389   ----------------------------------------
        BYTE   W06
// 390   ----------------------------------------
        BYTE                   Cn4
        BYTE   W06
// 391   ----------------------------------------
        BYTE   W06
// 392   ----------------------------------------
        BYTE   W06
// 393   ----------------------------------------
        BYTE           N11     Dn4
        BYTE   W06
// 394   ----------------------------------------
        BYTE   W06
// 395   ----------------------------------------
        BYTE           N32     Bn3   v106   gtp3
        BYTE   W06
// 396   ----------------------------------------
        BYTE   W06
// 397   ----------------------------------------
        BYTE   W06
// 398   ----------------------------------------
        BYTE   W06
// 399   ----------------------------------------
        BYTE   W06
// 400   ----------------------------------------
        BYTE   W06
// 401   ----------------------------------------
        BYTE           N05     Cn4
        BYTE   W06
// 402   ----------------------------------------
        BYTE                   Bn3
        BYTE   W06
// 403   ----------------------------------------
        BYTE           N44     An3   v106   gtp3
        BYTE   W06
// 404   ----------------------------------------
        BYTE   W06
// 405   ----------------------------------------
        BYTE   W06
// 406   ----------------------------------------
        BYTE   W06
// 407   ----------------------------------------
        BYTE   W06
// 408   ----------------------------------------
        BYTE   W06
// 409   ----------------------------------------
        BYTE   W06
// 410   ----------------------------------------
        BYTE   W06
// 411   ----------------------------------------
        BYTE           N11     Bn3
        BYTE   W06
// 412   ----------------------------------------
        BYTE   W06
// 413   ----------------------------------------
        BYTE                   An3
        BYTE   W06
// 414   ----------------------------------------
        BYTE   W06
// 415   ----------------------------------------
        BYTE                   Bn3
        BYTE   W06
// 416   ----------------------------------------
        BYTE   W06
// 417   ----------------------------------------
        BYTE           N56     Dn3   v106   gtp3
        BYTE   W06
// 418   ----------------------------------------
        BYTE   W06
// 419   ----------------------------------------
        BYTE   W06
// 420   ----------------------------------------
        BYTE   W06
// 421   ----------------------------------------
        BYTE   W06
// 422   ----------------------------------------
        BYTE   W06
// 423   ----------------------------------------
        BYTE   W06
// 424   ----------------------------------------
        BYTE   W06
// 425   ----------------------------------------
        BYTE   W06
// 426   ----------------------------------------
        BYTE   W06
// 427   ----------------------------------------
        BYTE           N17     Bn3
        BYTE   W06
// 428   ----------------------------------------
        BYTE   W06
// 429   ----------------------------------------
        BYTE   W06
// 430   ----------------------------------------
        BYTE                   Cn4
        BYTE   W06
// 431   ----------------------------------------
        BYTE   W06
// 432   ----------------------------------------
        BYTE   W06
// 433   ----------------------------------------
        BYTE           N11     Dn4
        BYTE   W06
// 434   ----------------------------------------
        BYTE   W06
// 435   ----------------------------------------
        BYTE           N17
        BYTE   W06
// 436   ----------------------------------------
        BYTE   W06
// 437   ----------------------------------------
        BYTE   W06
// 438   ----------------------------------------
        BYTE                   Cn4
        BYTE   W06
// 439   ----------------------------------------
        BYTE   W06
// 440   ----------------------------------------
        BYTE   W06
// 441   ----------------------------------------
        BYTE           N11     Bn3
        BYTE   W06
// 442   ----------------------------------------
        BYTE   W06
// 443   ----------------------------------------
        BYTE           N32     An3   v106   gtp3
        BYTE   W06
// 444   ----------------------------------------
        BYTE   W06
// 445   ----------------------------------------
        BYTE   W06
// 446   ----------------------------------------
        BYTE   W06
// 447   ----------------------------------------
        BYTE   W06
// 448   ----------------------------------------
        BYTE   W06
// 449   ----------------------------------------
        BYTE           N11     Bn3
        BYTE   W06
// 450   ----------------------------------------
        BYTE   W06
// 451   ----------------------------------------
        BYTE           N68     Bn3   v106   gtp3
        BYTE   W06
// 452   ----------------------------------------
        BYTE   W06
// 453   ----------------------------------------
        BYTE   W06
// 454   ----------------------------------------
        BYTE   W06
// 455   ----------------------------------------
        BYTE   W06
// 456   ----------------------------------------
        BYTE   W06
// 457   ----------------------------------------
        BYTE   W06
// 458   ----------------------------------------
        BYTE   W06
// 459   ----------------------------------------
        BYTE   W06
// 460   ----------------------------------------
        BYTE   W06
// 461   ----------------------------------------
        BYTE   W06
// 462   ----------------------------------------
        BYTE   W06
// 463   ----------------------------------------
        BYTE           N23     Cn4
        BYTE   W06
// 464   ----------------------------------------
        BYTE   W06
// 465   ----------------------------------------
        BYTE   W06
// 466   ----------------------------------------
        BYTE   W06
// 467   ----------------------------------------
        BYTE                   Bn3
        BYTE   W06
// 468   ----------------------------------------
        BYTE   W06
// 469   ----------------------------------------
        BYTE   W06
// 470   ----------------------------------------
        BYTE   W06
// 471   ----------------------------------------
        BYTE                   An3
        BYTE   W06
// 472   ----------------------------------------
        BYTE   W06
// 473   ----------------------------------------
        BYTE   W06
// 474   ----------------------------------------
        BYTE   W06
// 475   ----------------------------------------
        BYTE           N11     Gn3
        BYTE   W06
// 476   ----------------------------------------
        BYTE   W06
// 477   ----------------------------------------
        BYTE                   Fs3
        BYTE   W06
// 478   ----------------------------------------
        BYTE   W06
// 479   ----------------------------------------
        BYTE                   Gn3
        BYTE   W06
// 480   ----------------------------------------
        BYTE   W06
// 481   ----------------------------------------
        BYTE           N44     An3   v106   gtp3
        BYTE   W06
// 482   ----------------------------------------
        BYTE   W06
// 483   ----------------------------------------
        BYTE   W06
// 484   ----------------------------------------
        BYTE   W06
// 485   ----------------------------------------
        BYTE   W06
// 486   ----------------------------------------
        BYTE   W06
// 487   ----------------------------------------
        BYTE   W06
// 488   ----------------------------------------
        BYTE   W06
// 489   ----------------------------------------
        BYTE           N05     Gn3
        BYTE   W06
// 490   ----------------------------------------
        BYTE                   Fs3
        BYTE   W06
// 491   ----------------------------------------
        BYTE           N11     Gn3
        BYTE   W06
// 492   ----------------------------------------
        BYTE   W06
// 493   ----------------------------------------
        BYTE                   Fs3
        BYTE   W06
// 494   ----------------------------------------
        BYTE   W06
// 495   ----------------------------------------
        BYTE                   Gn3
        BYTE   W06
// 496   ----------------------------------------
        BYTE   W06
// 497   ----------------------------------------
        BYTE           N44     An3   v106   gtp3
        BYTE   W06
// 498   ----------------------------------------
        BYTE   W06
// 499   ----------------------------------------
        BYTE   W06
// 500   ----------------------------------------
        BYTE   W06
// 501   ----------------------------------------
        BYTE   W06
// 502   ----------------------------------------
        BYTE   W06
// 503   ----------------------------------------
        BYTE   W06
// 504   ----------------------------------------
        BYTE   W06
// 505   ----------------------------------------
        BYTE           N05     Gn3
        BYTE   W06
// 506   ----------------------------------------
        BYTE                   An3
        BYTE   W06
// 507   ----------------------------------------
        BYTE           N44     Bn3   v106   gtp3
        BYTE   W06
// 508   ----------------------------------------
        BYTE   W06
// 509   ----------------------------------------
        BYTE   W06
// 510   ----------------------------------------
        BYTE   W06
// 511   ----------------------------------------
        BYTE   W06
// 512   ----------------------------------------
        BYTE   W06
// 513   ----------------------------------------
        BYTE   W06
// 514   ----------------------------------------
        BYTE   W06
// 515   ----------------------------------------
        BYTE           N17
        BYTE   W06
// 516   ----------------------------------------
        BYTE   W06
// 517   ----------------------------------------
        BYTE   W06
// 518   ----------------------------------------
        BYTE                   Cn4
        BYTE   W06
// 519   ----------------------------------------
        BYTE   W06
// 520   ----------------------------------------
        BYTE   W06
// 521   ----------------------------------------
        BYTE           N11     Dn4
        BYTE   W06
// 522   ----------------------------------------
        BYTE   W06
// 523   ----------------------------------------
        BYTE           N32     Dn4   v106   gtp3
        BYTE   W06
// 524   ----------------------------------------
        BYTE   W06
// 525   ----------------------------------------
        BYTE   W06
// 526   ----------------------------------------
        BYTE   W06
// 527   ----------------------------------------
        BYTE   W06
// 528   ----------------------------------------
        BYTE   W06
// 529   ----------------------------------------
        BYTE           N23     Gn3
        BYTE   W06
// 530   ----------------------------------------
        BYTE   W06
// 531   ----------------------------------------
        BYTE   W06
// 532   ----------------------------------------
        BYTE   W06
// 533   ----------------------------------------
        BYTE           N11     Fs3
        BYTE   W06
// 534   ----------------------------------------
        BYTE   W06
// 535   ----------------------------------------
        BYTE           N23     An3
        BYTE   W06
// 536   ----------------------------------------
        BYTE   W06
// 537   ----------------------------------------
        BYTE   W06
// 538   ----------------------------------------
        BYTE   W06
// 539   ----------------------------------------
        BYTE           N96     Gn3   v081
        BYTE   W06
// 540   ----------------------------------------
        BYTE   W06
// 541   ----------------------------------------
        BYTE   W06
// 542   ----------------------------------------
        BYTE   W06
// 543   ----------------------------------------
        BYTE   W06
// 544   ----------------------------------------
        BYTE   W06
// 545   ----------------------------------------
        BYTE   W06
// 546   ----------------------------------------
        BYTE   W06
// 547   ----------------------------------------
        BYTE   W06
// 548   ----------------------------------------
        BYTE   W06
// 549   ----------------------------------------
        BYTE   W06
// 550   ----------------------------------------
        BYTE   W06
// 551   ----------------------------------------
        BYTE   W06
// 552   ----------------------------------------
        BYTE   W06
// 553   ----------------------------------------
        BYTE   W06
// 554   ----------------------------------------
        BYTE   W06
// 555   ----------------------------------------
        BYTE   W06
// 556   ----------------------------------------
        BYTE   W06
// 557   ----------------------------------------
        BYTE   W06
// 558   ----------------------------------------
        BYTE   W06
// 559   ----------------------------------------
        BYTE   W06
// 560   ----------------------------------------
        BYTE   W06
// 561   ----------------------------------------
        BYTE   W06
// 562   ----------------------------------------
        BYTE   W06
// 563   ----------------------------------------
        BYTE   W06
// 564   ----------------------------------------
        BYTE   W06
// 565   ----------------------------------------
        BYTE   W06
// 566   ----------------------------------------
        BYTE   W06
// 567   ----------------------------------------
        BYTE   W06
// 568   ----------------------------------------
        BYTE   W06
// 569   ----------------------------------------
        BYTE   W06
// 570   ----------------------------------------
        BYTE   W06
// 571   ----------------------------------------
        BYTE   W06
// 572   ----------------------------------------
        BYTE   W06
// 573   ----------------------------------------
        BYTE   W06
// 574   ----------------------------------------
        BYTE   W06
// 575   ----------------------------------------
        BYTE   W06
// 576   ----------------------------------------
        BYTE   W06
// 577   ----------------------------------------
        BYTE   W06
// 578   ----------------------------------------
        BYTE   W06
// 579   ----------------------------------------
        BYTE   W06
// 580   ----------------------------------------
        BYTE   W06
// 581   ----------------------------------------
        BYTE   W06
// 582   ----------------------------------------
        BYTE   W06
// 583   ----------------------------------------
        BYTE   W06
// 584   ----------------------------------------
        BYTE   W06
// 585   ----------------------------------------
        BYTE   W06
// 586   ----------------------------------------
        BYTE   W06
// 587   ----------------------------------------
        BYTE   W06
// 588   ----------------------------------------
        BYTE   W06
// 589   ----------------------------------------
        BYTE   W06
// 590   ----------------------------------------
        BYTE   W06
// 591   ----------------------------------------
        BYTE   W06
// 592   ----------------------------------------
        BYTE   W06
// 593   ----------------------------------------
        BYTE           N11     Bn2   v092
        BYTE   W06
// 594   ----------------------------------------
        BYTE   W06
// 595   ----------------------------------------
        BYTE                   En3   v106
        BYTE   W06
// 596   ----------------------------------------
        BYTE   W06
// 597   ----------------------------------------
        BYTE                   Ds3   v076
        BYTE   W06
// 598   ----------------------------------------
        BYTE   W06
// 599   ----------------------------------------
        BYTE                   En3   v106
        BYTE   W06
// 600   ----------------------------------------
        BYTE   W06
// 601   ----------------------------------------
        BYTE                   Fs3
        BYTE   W06
// 602   ----------------------------------------
        BYTE   W06
// 603   ----------------------------------------
        BYTE   GoTo
         POIN2  neverendingdream000_0_LOOP
        BYTE   FINE

//****************** Track 1 (Midi-Chn.1) ******************//

neverendingdream000_1:
        BYTE   KEYSH   neverendingdream000_key+0
// 000   ----------------------------------------
        BYTE           VOICE   69
        BYTE           VOL     31
        BYTE   W06
// 001   ----------------------------------------
neverendingdream000_1_1:
        BYTE   W01
        BYTE           N12     Bn2   v084
        BYTE   W05
        BYTE   PEND
// 002   ----------------------------------------
        BYTE   W06
// 003   ----------------------------------------
neverendingdream000_1_3:
        BYTE   W01
        BYTE           N12     En3   v092
        BYTE   W05
        BYTE   PEND
// 004   ----------------------------------------
        BYTE   W06
// 005   ----------------------------------------
        BYTE   W01
        BYTE                   Ds3   v072
        BYTE   W05
// 006   ----------------------------------------
        BYTE   W06
// 007   ----------------------------------------
        BYTE   PATT
         POIN2  neverendingdream000_1_3
// 008   ----------------------------------------
        BYTE   W06
// 009   ----------------------------------------
neverendingdream000_1_9:
        BYTE   W01
        BYTE           N12     Fs3   v092
        BYTE   W05
        BYTE   PEND
// 010   ----------------------------------------
        BYTE   W05
neverendingdream000_1_LOOP:
        BYTE   W01
// 011   ----------------------------------------
neverendingdream000_1_11:
        BYTE   W01
        BYTE           N36     Gn3   v092
        BYTE   W05
        BYTE   PEND
// 012   ----------------------------------------
        BYTE   W06
// 013   ----------------------------------------
        BYTE   W06
// 014   ----------------------------------------
        BYTE   W06
// 015   ----------------------------------------
        BYTE   W06
// 016   ----------------------------------------
        BYTE   W06
// 017   ----------------------------------------
neverendingdream000_1_17:
        BYTE   W01
        BYTE           N48     Gn3   v092
        BYTE   W05
        BYTE   PEND
// 018   ----------------------------------------
        BYTE   W06
// 019   ----------------------------------------
        BYTE   W06
// 020   ----------------------------------------
        BYTE   W06
// 021   ----------------------------------------
        BYTE   W06
// 022   ----------------------------------------
        BYTE   W06
// 023   ----------------------------------------
        BYTE   W06
// 024   ----------------------------------------
        BYTE   W06
// 025   ----------------------------------------
neverendingdream000_1_25:
        BYTE   W01
        BYTE           N06     An3   v092
        BYTE   W05
        BYTE   PEND
// 026   ----------------------------------------
neverendingdream000_1_26:
        BYTE   W01
        BYTE           N06     Bn3   v092
        BYTE   W05
        BYTE   PEND
// 027   ----------------------------------------
neverendingdream000_1_27:
        BYTE   W01
        BYTE           N36     Bn3   v092
        BYTE   W05
        BYTE   PEND
// 028   ----------------------------------------
        BYTE   W06
// 029   ----------------------------------------
        BYTE   W06
// 030   ----------------------------------------
        BYTE   W06
// 031   ----------------------------------------
        BYTE   W06
// 032   ----------------------------------------
        BYTE   W06
// 033   ----------------------------------------
        BYTE   PATT
         POIN2  neverendingdream000_1_9
// 034   ----------------------------------------
        BYTE   W06
// 035   ----------------------------------------
neverendingdream000_1_35:
        BYTE   W01
        BYTE           N36     Fs3   v092
        BYTE   W05
        BYTE   PEND
// 036   ----------------------------------------
        BYTE   W06
// 037   ----------------------------------------
        BYTE   W06
// 038   ----------------------------------------
        BYTE   W06
// 039   ----------------------------------------
        BYTE   W06
// 040   ----------------------------------------
        BYTE   W06
// 041   ----------------------------------------
neverendingdream000_1_41:
        BYTE   W01
        BYTE           N12     Dn3   v092
        BYTE   W05
        BYTE   PEND
// 042   ----------------------------------------
        BYTE   W06
// 043   ----------------------------------------
neverendingdream000_1_43:
        BYTE   W01
        BYTE           N48     En3   v092
        BYTE   W05
        BYTE   PEND
// 044   ----------------------------------------
        BYTE   W06
// 045   ----------------------------------------
        BYTE   W06
// 046   ----------------------------------------
        BYTE   W06
// 047   ----------------------------------------
        BYTE   W06
// 048   ----------------------------------------
        BYTE   W06
// 049   ----------------------------------------
        BYTE   W06
// 050   ----------------------------------------
        BYTE   W06
// 051   ----------------------------------------
neverendingdream000_1_51:
        BYTE   W01
        BYTE           N18     En3   v092
        BYTE   W05
        BYTE   PEND
// 052   ----------------------------------------
        BYTE   W06
// 053   ----------------------------------------
        BYTE   W06
// 054   ----------------------------------------
neverendingdream000_1_54:
        BYTE   W01
        BYTE           N18     Fs3   v092
        BYTE   W05
        BYTE   PEND
// 055   ----------------------------------------
        BYTE   W06
// 056   ----------------------------------------
        BYTE   W06
// 057   ----------------------------------------
neverendingdream000_1_57:
        BYTE   W01
        BYTE           N12     Gn3   v092
        BYTE   W05
        BYTE   PEND
// 058   ----------------------------------------
        BYTE   W06
// 059   ----------------------------------------
        BYTE   PATT
         POIN2  neverendingdream000_1_11
// 060   ----------------------------------------
        BYTE   W06
// 061   ----------------------------------------
        BYTE   W06
// 062   ----------------------------------------
        BYTE   W06
// 063   ----------------------------------------
        BYTE   W06
// 064   ----------------------------------------
        BYTE   W06
// 065   ----------------------------------------
        BYTE   PATT
         POIN2  neverendingdream000_1_41
// 066   ----------------------------------------
        BYTE   W06
// 067   ----------------------------------------
        BYTE   W01
        BYTE           N30     Dn3   v092   gtp1
        BYTE   W05
// 068   ----------------------------------------
        BYTE   W06
// 069   ----------------------------------------
        BYTE   W06
// 070   ----------------------------------------
        BYTE   W06
// 071   ----------------------------------------
        BYTE   W06
// 072   ----------------------------------------
        BYTE   W05
        BYTE           N04
        BYTE   W01
// 073   ----------------------------------------
        BYTE   W03
        BYTE                   Cn3
        BYTE   W03
// 074   ----------------------------------------
neverendingdream000_1_74:
        BYTE   W01
        BYTE           N06     Bn2   v092
        BYTE   W05
        BYTE   PEND
// 075   ----------------------------------------
neverendingdream000_1_75:
        BYTE   W01
        BYTE           N48     Cn3   v092
        BYTE   W05
        BYTE   PEND
// 076   ----------------------------------------
        BYTE   W06
// 077   ----------------------------------------
        BYTE   W06
// 078   ----------------------------------------
        BYTE   W06
// 079   ----------------------------------------
        BYTE   W06
// 080   ----------------------------------------
        BYTE   W06
// 081   ----------------------------------------
        BYTE   W06
// 082   ----------------------------------------
        BYTE   W06
// 083   ----------------------------------------
neverendingdream000_1_83:
        BYTE   W01
        BYTE           N24     Gn3   v092
        BYTE   W05
        BYTE   PEND
// 084   ----------------------------------------
        BYTE   W06
// 085   ----------------------------------------
        BYTE   W06
// 086   ----------------------------------------
        BYTE   W06
// 087   ----------------------------------------
neverendingdream000_1_87:
        BYTE   W01
        BYTE           N24     An3   v092
        BYTE   W05
        BYTE   PEND
// 088   ----------------------------------------
        BYTE   W06
// 089   ----------------------------------------
        BYTE   W06
// 090   ----------------------------------------
        BYTE   W06
// 091   ----------------------------------------
        BYTE   PATT
         POIN2  neverendingdream000_1_11
// 092   ----------------------------------------
        BYTE   W06
// 093   ----------------------------------------
        BYTE   W06
// 094   ----------------------------------------
        BYTE   W06
// 095   ----------------------------------------
        BYTE   W06
// 096   ----------------------------------------
        BYTE   W06
// 097   ----------------------------------------
        BYTE   PATT
         POIN2  neverendingdream000_1_41
// 098   ----------------------------------------
        BYTE   W06
// 099   ----------------------------------------
neverendingdream000_1_99:
        BYTE   W01
        BYTE           N48     Dn3   v092
        BYTE   W05
        BYTE   PEND
// 100   ----------------------------------------
        BYTE   W06
// 101   ----------------------------------------
        BYTE   W06
// 102   ----------------------------------------
        BYTE   W06
// 103   ----------------------------------------
        BYTE   W06
// 104   ----------------------------------------
        BYTE   W06
// 105   ----------------------------------------
        BYTE   W06
// 106   ----------------------------------------
        BYTE   W06
// 107   ----------------------------------------
        BYTE   PATT
         POIN2  neverendingdream000_1_43
// 108   ----------------------------------------
        BYTE   W06
// 109   ----------------------------------------
        BYTE   W06
// 110   ----------------------------------------
        BYTE   W06
// 111   ----------------------------------------
        BYTE   W06
// 112   ----------------------------------------
        BYTE   W06
// 113   ----------------------------------------
        BYTE   W06
// 114   ----------------------------------------
        BYTE   W06
// 115   ----------------------------------------
        BYTE   PATT
         POIN2  neverendingdream000_1_51
// 116   ----------------------------------------
        BYTE   W06
// 117   ----------------------------------------
        BYTE   W06
// 118   ----------------------------------------
        BYTE   PATT
         POIN2  neverendingdream000_1_54
// 119   ----------------------------------------
        BYTE   W06
// 120   ----------------------------------------
        BYTE   W06
// 121   ----------------------------------------
        BYTE   PATT
         POIN2  neverendingdream000_1_57
// 122   ----------------------------------------
        BYTE   W06
// 123   ----------------------------------------
        BYTE   PATT
         POIN2  neverendingdream000_1_27
// 124   ----------------------------------------
        BYTE   W06
// 125   ----------------------------------------
        BYTE   W06
// 126   ----------------------------------------
        BYTE   W06
// 127   ----------------------------------------
        BYTE   W06
// 128   ----------------------------------------
        BYTE   W06
// 129   ----------------------------------------
        BYTE   W01
        BYTE           N12     Cn4   v092
        BYTE   W05
// 130   ----------------------------------------
        BYTE   W06
// 131   ----------------------------------------
neverendingdream000_1_131:
        BYTE   W01
        BYTE           N48     An3   v092
        BYTE   W05
        BYTE   PEND
// 132   ----------------------------------------
        BYTE   W06
// 133   ----------------------------------------
        BYTE   W06
// 134   ----------------------------------------
        BYTE   W06
// 135   ----------------------------------------
        BYTE   W06
// 136   ----------------------------------------
        BYTE   W06
// 137   ----------------------------------------
        BYTE   W06
// 138   ----------------------------------------
        BYTE   W06
// 139   ----------------------------------------
        BYTE   PATT
         POIN2  neverendingdream000_1_11
// 140   ----------------------------------------
        BYTE   W06
// 141   ----------------------------------------
        BYTE   W06
// 142   ----------------------------------------
        BYTE   W06
// 143   ----------------------------------------
        BYTE   W06
// 144   ----------------------------------------
        BYTE   W06
// 145   ----------------------------------------
        BYTE   PATT
         POIN2  neverendingdream000_1_17
// 146   ----------------------------------------
        BYTE   W06
// 147   ----------------------------------------
        BYTE   W06
// 148   ----------------------------------------
        BYTE   W06
// 149   ----------------------------------------
        BYTE   W06
// 150   ----------------------------------------
        BYTE   W06
// 151   ----------------------------------------
        BYTE   W06
// 152   ----------------------------------------
        BYTE   W06
// 153   ----------------------------------------
        BYTE   PATT
         POIN2  neverendingdream000_1_25
// 154   ----------------------------------------
        BYTE   PATT
         POIN2  neverendingdream000_1_26
// 155   ----------------------------------------
        BYTE   PATT
         POIN2  neverendingdream000_1_27
// 156   ----------------------------------------
        BYTE   W06
// 157   ----------------------------------------
        BYTE   W06
// 158   ----------------------------------------
        BYTE   W06
// 159   ----------------------------------------
        BYTE   W06
// 160   ----------------------------------------
        BYTE   W06
// 161   ----------------------------------------
        BYTE   PATT
         POIN2  neverendingdream000_1_9
// 162   ----------------------------------------
        BYTE   W06
// 163   ----------------------------------------
        BYTE   PATT
         POIN2  neverendingdream000_1_35
// 164   ----------------------------------------
        BYTE   W06
// 165   ----------------------------------------
        BYTE   W06
// 166   ----------------------------------------
        BYTE   W06
// 167   ----------------------------------------
        BYTE   W06
// 168   ----------------------------------------
        BYTE   W06
// 169   ----------------------------------------
        BYTE   PATT
         POIN2  neverendingdream000_1_41
// 170   ----------------------------------------
        BYTE   W06
// 171   ----------------------------------------
        BYTE   PATT
         POIN2  neverendingdream000_1_43
// 172   ----------------------------------------
        BYTE   W06
// 173   ----------------------------------------
        BYTE   W06
// 174   ----------------------------------------
        BYTE   W06
// 175   ----------------------------------------
        BYTE   W06
// 176   ----------------------------------------
        BYTE   W06
// 177   ----------------------------------------
        BYTE   W06
// 178   ----------------------------------------
        BYTE   W06
// 179   ----------------------------------------
        BYTE   PATT
         POIN2  neverendingdream000_1_3
// 180   ----------------------------------------
        BYTE   W06
// 181   ----------------------------------------
        BYTE   PATT
         POIN2  neverendingdream000_1_9
// 182   ----------------------------------------
        BYTE   W06
// 183   ----------------------------------------
        BYTE   PATT
         POIN2  neverendingdream000_1_3
// 184   ----------------------------------------
        BYTE   W06
// 185   ----------------------------------------
        BYTE   PATT
         POIN2  neverendingdream000_1_17
// 186   ----------------------------------------
        BYTE   W06
// 187   ----------------------------------------
        BYTE   W06
// 188   ----------------------------------------
        BYTE   W06
// 189   ----------------------------------------
        BYTE   W06
// 190   ----------------------------------------
        BYTE   W06
// 191   ----------------------------------------
        BYTE   W06
// 192   ----------------------------------------
        BYTE   W06
// 193   ----------------------------------------
        BYTE   PATT
         POIN2  neverendingdream000_1_41
// 194   ----------------------------------------
        BYTE   W06
// 195   ----------------------------------------
        BYTE   W01
        BYTE           N30     Dn3   v092
        BYTE   W05
// 196   ----------------------------------------
        BYTE   W06
// 197   ----------------------------------------
        BYTE   W06
// 198   ----------------------------------------
        BYTE   W06
// 199   ----------------------------------------
        BYTE   W06
// 200   ----------------------------------------
        BYTE   W06
// 201   ----------------------------------------
        BYTE           N05
        BYTE   W04
        BYTE           N04     Cn3
        BYTE   W02
// 202   ----------------------------------------
        BYTE   PATT
         POIN2  neverendingdream000_1_74
// 203   ----------------------------------------
        BYTE   PATT
         POIN2  neverendingdream000_1_75
// 204   ----------------------------------------
        BYTE   W06
// 205   ----------------------------------------
        BYTE   W06
// 206   ----------------------------------------
        BYTE   W06
// 207   ----------------------------------------
        BYTE   W06
// 208   ----------------------------------------
        BYTE   W06
// 209   ----------------------------------------
        BYTE   W06
// 210   ----------------------------------------
        BYTE   W06
// 211   ----------------------------------------
        BYTE   PATT
         POIN2  neverendingdream000_1_83
// 212   ----------------------------------------
        BYTE   W06
// 213   ----------------------------------------
        BYTE   W06
// 214   ----------------------------------------
        BYTE   W06
// 215   ----------------------------------------
        BYTE   PATT
         POIN2  neverendingdream000_1_87
// 216   ----------------------------------------
        BYTE   W06
// 217   ----------------------------------------
        BYTE   W06
// 218   ----------------------------------------
        BYTE   W06
// 219   ----------------------------------------
        BYTE   PATT
         POIN2  neverendingdream000_1_11
// 220   ----------------------------------------
        BYTE   W06
// 221   ----------------------------------------
        BYTE   W06
// 222   ----------------------------------------
        BYTE   W06
// 223   ----------------------------------------
        BYTE   W06
// 224   ----------------------------------------
        BYTE   W06
// 225   ----------------------------------------
        BYTE   W01
        BYTE           N10     Dn3   v092
        BYTE   W05
// 226   ----------------------------------------
        BYTE   W06
// 227   ----------------------------------------
        BYTE   PATT
         POIN2  neverendingdream000_1_99
// 228   ----------------------------------------
        BYTE   W06
// 229   ----------------------------------------
        BYTE   W06
// 230   ----------------------------------------
        BYTE   W06
// 231   ----------------------------------------
        BYTE   W06
// 232   ----------------------------------------
        BYTE   W06
// 233   ----------------------------------------
        BYTE   W06
// 234   ----------------------------------------
        BYTE   W06
// 235   ----------------------------------------
        BYTE   PATT
         POIN2  neverendingdream000_1_43
// 236   ----------------------------------------
        BYTE   W06
// 237   ----------------------------------------
        BYTE   W06
// 238   ----------------------------------------
        BYTE   W06
// 239   ----------------------------------------
        BYTE   W06
// 240   ----------------------------------------
        BYTE   W06
// 241   ----------------------------------------
        BYTE   W06
// 242   ----------------------------------------
        BYTE   W06
// 243   ----------------------------------------
        BYTE   PATT
         POIN2  neverendingdream000_1_51
// 244   ----------------------------------------
        BYTE   W06
// 245   ----------------------------------------
        BYTE   W06
// 246   ----------------------------------------
        BYTE   PATT
         POIN2  neverendingdream000_1_54
// 247   ----------------------------------------
        BYTE   W06
// 248   ----------------------------------------
        BYTE   W06
// 249   ----------------------------------------
        BYTE   PATT
         POIN2  neverendingdream000_1_57
// 250   ----------------------------------------
        BYTE   W06
// 251   ----------------------------------------
        BYTE   PATT
         POIN2  neverendingdream000_1_54
// 252   ----------------------------------------
        BYTE   W06
// 253   ----------------------------------------
        BYTE   W06
// 254   ----------------------------------------
        BYTE   W01
        BYTE           N18     Gn3   v092
        BYTE   W05
// 255   ----------------------------------------
        BYTE   W06
// 256   ----------------------------------------
        BYTE   W06
// 257   ----------------------------------------
neverendingdream000_1_257:
        BYTE   W01
        BYTE           N12     An3   v092
        BYTE   W05
        BYTE   PEND
// 258   ----------------------------------------
        BYTE   W06
// 259   ----------------------------------------
        BYTE   W01
        BYTE           N92     An3   v092   gtp3
        BYTE   W05
// 260   ----------------------------------------
        BYTE   W06
// 261   ----------------------------------------
        BYTE   W06
// 262   ----------------------------------------
        BYTE   W06
// 263   ----------------------------------------
        BYTE   W06
// 264   ----------------------------------------
        BYTE   W06
// 265   ----------------------------------------
        BYTE   W06
// 266   ----------------------------------------
        BYTE   W06
// 267   ----------------------------------------
        BYTE   W06
// 268   ----------------------------------------
        BYTE   W06
// 269   ----------------------------------------
        BYTE   W06
// 270   ----------------------------------------
        BYTE   W06
// 271   ----------------------------------------
        BYTE   W06
// 272   ----------------------------------------
        BYTE   W06
// 273   ----------------------------------------
        BYTE   W06
// 274   ----------------------------------------
        BYTE   W06
// 275   ----------------------------------------
        BYTE   W06
// 276   ----------------------------------------
        BYTE   W06
// 277   ----------------------------------------
        BYTE   W06
// 278   ----------------------------------------
        BYTE   W06
// 279   ----------------------------------------
        BYTE   W06
// 280   ----------------------------------------
        BYTE   W06
// 281   ----------------------------------------
        BYTE   W06
// 282   ----------------------------------------
        BYTE   W06
// 283   ----------------------------------------
neverendingdream000_1_283:
        BYTE   W01
        BYTE           N12     Bn3   v092
        BYTE   W05
        BYTE   PEND
// 284   ----------------------------------------
        BYTE   W06
// 285   ----------------------------------------
        BYTE   PATT
         POIN2  neverendingdream000_1_257
// 286   ----------------------------------------
        BYTE   W06
// 287   ----------------------------------------
        BYTE   PATT
         POIN2  neverendingdream000_1_283
// 288   ----------------------------------------
        BYTE   W06
// 289   ----------------------------------------
neverendingdream000_1_289:
        BYTE   W01
        BYTE           N60     Dn3   v092
        BYTE   W05
        BYTE   PEND
// 290   ----------------------------------------
        BYTE   W06
// 291   ----------------------------------------
        BYTE   W06
// 292   ----------------------------------------
        BYTE   W06
// 293   ----------------------------------------
        BYTE   W06
// 294   ----------------------------------------
        BYTE   W06
// 295   ----------------------------------------
        BYTE   W06
// 296   ----------------------------------------
        BYTE   W06
// 297   ----------------------------------------
        BYTE   W06
// 298   ----------------------------------------
        BYTE   W06
// 299   ----------------------------------------
neverendingdream000_1_299:
        BYTE   W01
        BYTE           N18     Bn3   v092
        BYTE   W05
        BYTE   PEND
// 300   ----------------------------------------
        BYTE   W06
// 301   ----------------------------------------
        BYTE   W06
// 302   ----------------------------------------
neverendingdream000_1_302:
        BYTE   W01
        BYTE           N18     Cn4   v092
        BYTE   W05
        BYTE   PEND
// 303   ----------------------------------------
        BYTE   W06
// 304   ----------------------------------------
        BYTE   W06
// 305   ----------------------------------------
neverendingdream000_1_305:
        BYTE   W01
        BYTE           N12     Dn4   v092
        BYTE   W05
        BYTE   PEND
// 306   ----------------------------------------
        BYTE   W06
// 307   ----------------------------------------
neverendingdream000_1_307:
        BYTE   W01
        BYTE           N18     Dn4   v092
        BYTE   W05
        BYTE   PEND
// 308   ----------------------------------------
        BYTE   W06
// 309   ----------------------------------------
        BYTE   W06
// 310   ----------------------------------------
        BYTE   PATT
         POIN2  neverendingdream000_1_302
// 311   ----------------------------------------
        BYTE   W06
// 312   ----------------------------------------
        BYTE   W06
// 313   ----------------------------------------
        BYTE   PATT
         POIN2  neverendingdream000_1_283
// 314   ----------------------------------------
        BYTE   W06
// 315   ----------------------------------------
neverendingdream000_1_315:
        BYTE   W01
        BYTE           N36     An3   v092
        BYTE   W05
        BYTE   PEND
// 316   ----------------------------------------
        BYTE   W06
// 317   ----------------------------------------
        BYTE   W06
// 318   ----------------------------------------
        BYTE   W06
// 319   ----------------------------------------
        BYTE   W06
// 320   ----------------------------------------
        BYTE   W06
// 321   ----------------------------------------
        BYTE   PATT
         POIN2  neverendingdream000_1_283
// 322   ----------------------------------------
        BYTE   W06
// 323   ----------------------------------------
neverendingdream000_1_323:
        BYTE   W01
        BYTE           N72     Bn3   v092
        BYTE   W05
        BYTE   PEND
// 324   ----------------------------------------
        BYTE   W06
// 325   ----------------------------------------
        BYTE   W06
// 326   ----------------------------------------
        BYTE   W06
// 327   ----------------------------------------
        BYTE   W06
// 328   ----------------------------------------
        BYTE   W06
// 329   ----------------------------------------
        BYTE   W06
// 330   ----------------------------------------
        BYTE   W06
// 331   ----------------------------------------
        BYTE   W06
// 332   ----------------------------------------
        BYTE   W06
// 333   ----------------------------------------
        BYTE   W06
// 334   ----------------------------------------
        BYTE   W06
// 335   ----------------------------------------
neverendingdream000_1_335:
        BYTE   W01
        BYTE           N24     Cn4   v092
        BYTE   W05
        BYTE   PEND
// 336   ----------------------------------------
        BYTE   W06
// 337   ----------------------------------------
        BYTE   W06
// 338   ----------------------------------------
        BYTE   W06
// 339   ----------------------------------------
neverendingdream000_1_339:
        BYTE   W01
        BYTE           N24     Bn3   v092
        BYTE   W05
        BYTE   PEND
// 340   ----------------------------------------
        BYTE   W06
// 341   ----------------------------------------
        BYTE   W06
// 342   ----------------------------------------
        BYTE   W06
// 343   ----------------------------------------
        BYTE   PATT
         POIN2  neverendingdream000_1_87
// 344   ----------------------------------------
        BYTE   W06
// 345   ----------------------------------------
        BYTE   W06
// 346   ----------------------------------------
        BYTE   W06
// 347   ----------------------------------------
        BYTE   PATT
         POIN2  neverendingdream000_1_57
// 348   ----------------------------------------
        BYTE   W06
// 349   ----------------------------------------
        BYTE   PATT
         POIN2  neverendingdream000_1_9
// 350   ----------------------------------------
        BYTE   W06
// 351   ----------------------------------------
        BYTE   PATT
         POIN2  neverendingdream000_1_57
// 352   ----------------------------------------
        BYTE   W06
// 353   ----------------------------------------
        BYTE   PATT
         POIN2  neverendingdream000_1_131
// 354   ----------------------------------------
        BYTE   W06
// 355   ----------------------------------------
        BYTE   W06
// 356   ----------------------------------------
        BYTE   W06
// 357   ----------------------------------------
        BYTE   W06
// 358   ----------------------------------------
        BYTE   W06
// 359   ----------------------------------------
        BYTE   W06
// 360   ----------------------------------------
        BYTE   W06
// 361   ----------------------------------------
neverendingdream000_1_361:
        BYTE   W01
        BYTE           N06     Gn3   v092
        BYTE   W05
        BYTE   PEND
// 362   ----------------------------------------
neverendingdream000_1_362:
        BYTE   W01
        BYTE           N06     Fs3   v092
        BYTE   W05
        BYTE   PEND
// 363   ----------------------------------------
        BYTE   PATT
         POIN2  neverendingdream000_1_57
// 364   ----------------------------------------
        BYTE   W06
// 365   ----------------------------------------
        BYTE   PATT
         POIN2  neverendingdream000_1_9
// 366   ----------------------------------------
        BYTE   W06
// 367   ----------------------------------------
        BYTE   PATT
         POIN2  neverendingdream000_1_57
// 368   ----------------------------------------
        BYTE   W06
// 369   ----------------------------------------
        BYTE   PATT
         POIN2  neverendingdream000_1_131
// 370   ----------------------------------------
        BYTE   W06
// 371   ----------------------------------------
        BYTE   W06
// 372   ----------------------------------------
        BYTE   W06
// 373   ----------------------------------------
        BYTE   W06
// 374   ----------------------------------------
        BYTE   W06
// 375   ----------------------------------------
        BYTE   W06
// 376   ----------------------------------------
        BYTE   W06
// 377   ----------------------------------------
        BYTE   PATT
         POIN2  neverendingdream000_1_361
// 378   ----------------------------------------
        BYTE   PATT
         POIN2  neverendingdream000_1_25
// 379   ----------------------------------------
neverendingdream000_1_379:
        BYTE   W01
        BYTE           N48     Bn3   v092
        BYTE   W05
        BYTE   PEND
// 380   ----------------------------------------
        BYTE   W06
// 381   ----------------------------------------
        BYTE   W06
// 382   ----------------------------------------
        BYTE   W06
// 383   ----------------------------------------
        BYTE   W06
// 384   ----------------------------------------
        BYTE   W06
// 385   ----------------------------------------
        BYTE   W06
// 386   ----------------------------------------
        BYTE   W06
// 387   ----------------------------------------
        BYTE   PATT
         POIN2  neverendingdream000_1_299
// 388   ----------------------------------------
        BYTE   W06
// 389   ----------------------------------------
        BYTE   W06
// 390   ----------------------------------------
        BYTE   PATT
         POIN2  neverendingdream000_1_302
// 391   ----------------------------------------
        BYTE   W06
// 392   ----------------------------------------
        BYTE   W06
// 393   ----------------------------------------
        BYTE   PATT
         POIN2  neverendingdream000_1_305
// 394   ----------------------------------------
        BYTE   W06
// 395   ----------------------------------------
        BYTE   PATT
         POIN2  neverendingdream000_1_27
// 396   ----------------------------------------
        BYTE   W06
// 397   ----------------------------------------
        BYTE   W06
// 398   ----------------------------------------
        BYTE   W06
// 399   ----------------------------------------
        BYTE   W06
// 400   ----------------------------------------
        BYTE   W06
// 401   ----------------------------------------
        BYTE   W01
        BYTE           N06     Cn4   v092
        BYTE   W05
// 402   ----------------------------------------
        BYTE   PATT
         POIN2  neverendingdream000_1_26
// 403   ----------------------------------------
        BYTE   PATT
         POIN2  neverendingdream000_1_131
// 404   ----------------------------------------
        BYTE   W06
// 405   ----------------------------------------
        BYTE   W06
// 406   ----------------------------------------
        BYTE   W06
// 407   ----------------------------------------
        BYTE   W06
// 408   ----------------------------------------
        BYTE   W06
// 409   ----------------------------------------
        BYTE   W06
// 410   ----------------------------------------
        BYTE   W06
// 411   ----------------------------------------
        BYTE   PATT
         POIN2  neverendingdream000_1_283
// 412   ----------------------------------------
        BYTE   W06
// 413   ----------------------------------------
        BYTE   PATT
         POIN2  neverendingdream000_1_257
// 414   ----------------------------------------
        BYTE   W06
// 415   ----------------------------------------
        BYTE   PATT
         POIN2  neverendingdream000_1_283
// 416   ----------------------------------------
        BYTE   W06
// 417   ----------------------------------------
        BYTE   PATT
         POIN2  neverendingdream000_1_289
// 418   ----------------------------------------
        BYTE   W06
// 419   ----------------------------------------
        BYTE   W06
// 420   ----------------------------------------
        BYTE   W06
// 421   ----------------------------------------
        BYTE   W06
// 422   ----------------------------------------
        BYTE   W06
// 423   ----------------------------------------
        BYTE   W06
// 424   ----------------------------------------
        BYTE   W06
// 425   ----------------------------------------
        BYTE   W06
// 426   ----------------------------------------
        BYTE   W06
// 427   ----------------------------------------
        BYTE   PATT
         POIN2  neverendingdream000_1_299
// 428   ----------------------------------------
        BYTE   W06
// 429   ----------------------------------------
        BYTE   W06
// 430   ----------------------------------------
        BYTE   PATT
         POIN2  neverendingdream000_1_302
// 431   ----------------------------------------
        BYTE   W06
// 432   ----------------------------------------
        BYTE   W06
// 433   ----------------------------------------
        BYTE   PATT
         POIN2  neverendingdream000_1_305
// 434   ----------------------------------------
        BYTE   W06
// 435   ----------------------------------------
        BYTE   PATT
         POIN2  neverendingdream000_1_307
// 436   ----------------------------------------
        BYTE   W06
// 437   ----------------------------------------
        BYTE   W06
// 438   ----------------------------------------
        BYTE   PATT
         POIN2  neverendingdream000_1_302
// 439   ----------------------------------------
        BYTE   W06
// 440   ----------------------------------------
        BYTE   W06
// 441   ----------------------------------------
        BYTE   PATT
         POIN2  neverendingdream000_1_283
// 442   ----------------------------------------
        BYTE   W06
// 443   ----------------------------------------
        BYTE   PATT
         POIN2  neverendingdream000_1_315
// 444   ----------------------------------------
        BYTE   W06
// 445   ----------------------------------------
        BYTE   W06
// 446   ----------------------------------------
        BYTE   W06
// 447   ----------------------------------------
        BYTE   W06
// 448   ----------------------------------------
        BYTE   W06
// 449   ----------------------------------------
        BYTE   PATT
         POIN2  neverendingdream000_1_283
// 450   ----------------------------------------
        BYTE   W06
// 451   ----------------------------------------
        BYTE   PATT
         POIN2  neverendingdream000_1_323
// 452   ----------------------------------------
        BYTE   W06
// 453   ----------------------------------------
        BYTE   W06
// 454   ----------------------------------------
        BYTE   W06
// 455   ----------------------------------------
        BYTE   W06
// 456   ----------------------------------------
        BYTE   W06
// 457   ----------------------------------------
        BYTE   W06
// 458   ----------------------------------------
        BYTE   W06
// 459   ----------------------------------------
        BYTE   W06
// 460   ----------------------------------------
        BYTE   W06
// 461   ----------------------------------------
        BYTE   W06
// 462   ----------------------------------------
        BYTE   W06
// 463   ----------------------------------------
        BYTE   PATT
         POIN2  neverendingdream000_1_335
// 464   ----------------------------------------
        BYTE   W06
// 465   ----------------------------------------
        BYTE   W06
// 466   ----------------------------------------
        BYTE   W06
// 467   ----------------------------------------
        BYTE   PATT
         POIN2  neverendingdream000_1_339
// 468   ----------------------------------------
        BYTE   W06
// 469   ----------------------------------------
        BYTE   W06
// 470   ----------------------------------------
        BYTE   W06
// 471   ----------------------------------------
        BYTE   PATT
         POIN2  neverendingdream000_1_87
// 472   ----------------------------------------
        BYTE   W06
// 473   ----------------------------------------
        BYTE   W06
// 474   ----------------------------------------
        BYTE   W06
// 475   ----------------------------------------
        BYTE   PATT
         POIN2  neverendingdream000_1_57
// 476   ----------------------------------------
        BYTE   W06
// 477   ----------------------------------------
        BYTE   PATT
         POIN2  neverendingdream000_1_9
// 478   ----------------------------------------
        BYTE   W06
// 479   ----------------------------------------
        BYTE   PATT
         POIN2  neverendingdream000_1_57
// 480   ----------------------------------------
        BYTE   W06
// 481   ----------------------------------------
        BYTE   PATT
         POIN2  neverendingdream000_1_131
// 482   ----------------------------------------
        BYTE   W06
// 483   ----------------------------------------
        BYTE   W06
// 484   ----------------------------------------
        BYTE   W06
// 485   ----------------------------------------
        BYTE   W06
// 486   ----------------------------------------
        BYTE   W06
// 487   ----------------------------------------
        BYTE   W06
// 488   ----------------------------------------
        BYTE   W06
// 489   ----------------------------------------
        BYTE   PATT
         POIN2  neverendingdream000_1_361
// 490   ----------------------------------------
        BYTE   PATT
         POIN2  neverendingdream000_1_362
// 491   ----------------------------------------
        BYTE   PATT
         POIN2  neverendingdream000_1_57
// 492   ----------------------------------------
        BYTE   W06
// 493   ----------------------------------------
        BYTE   PATT
         POIN2  neverendingdream000_1_9
// 494   ----------------------------------------
        BYTE   W06
// 495   ----------------------------------------
        BYTE   PATT
         POIN2  neverendingdream000_1_57
// 496   ----------------------------------------
        BYTE   W06
// 497   ----------------------------------------
        BYTE   PATT
         POIN2  neverendingdream000_1_131
// 498   ----------------------------------------
        BYTE   W06
// 499   ----------------------------------------
        BYTE   W06
// 500   ----------------------------------------
        BYTE   W06
// 501   ----------------------------------------
        BYTE   W06
// 502   ----------------------------------------
        BYTE   W06
// 503   ----------------------------------------
        BYTE   W06
// 504   ----------------------------------------
        BYTE   W06
// 505   ----------------------------------------
        BYTE   PATT
         POIN2  neverendingdream000_1_361
// 506   ----------------------------------------
        BYTE   PATT
         POIN2  neverendingdream000_1_25
// 507   ----------------------------------------
        BYTE   PATT
         POIN2  neverendingdream000_1_379
// 508   ----------------------------------------
        BYTE   W06
// 509   ----------------------------------------
        BYTE   W06
// 510   ----------------------------------------
        BYTE   W06
// 511   ----------------------------------------
        BYTE   W06
// 512   ----------------------------------------
        BYTE   W06
// 513   ----------------------------------------
        BYTE   W06
// 514   ----------------------------------------
        BYTE   W06
// 515   ----------------------------------------
        BYTE   PATT
         POIN2  neverendingdream000_1_299
// 516   ----------------------------------------
        BYTE   W06
// 517   ----------------------------------------
        BYTE   W06
// 518   ----------------------------------------
        BYTE   PATT
         POIN2  neverendingdream000_1_302
// 519   ----------------------------------------
        BYTE   W06
// 520   ----------------------------------------
        BYTE   W06
// 521   ----------------------------------------
        BYTE   PATT
         POIN2  neverendingdream000_1_305
// 522   ----------------------------------------
        BYTE   W06
// 523   ----------------------------------------
        BYTE   W01
        BYTE           N36     Dn4   v092
        BYTE   W05
// 524   ----------------------------------------
        BYTE   W06
// 525   ----------------------------------------
        BYTE   W06
// 526   ----------------------------------------
        BYTE   W06
// 527   ----------------------------------------
        BYTE   W06
// 528   ----------------------------------------
        BYTE   W06
// 529   ----------------------------------------
        BYTE   PATT
         POIN2  neverendingdream000_1_83
// 530   ----------------------------------------
        BYTE   W06
// 531   ----------------------------------------
        BYTE   W06
// 532   ----------------------------------------
        BYTE   W06
// 533   ----------------------------------------
        BYTE   PATT
         POIN2  neverendingdream000_1_9
// 534   ----------------------------------------
        BYTE   W06
// 535   ----------------------------------------
        BYTE   PATT
         POIN2  neverendingdream000_1_87
// 536   ----------------------------------------
        BYTE   W06
// 537   ----------------------------------------
        BYTE   W06
// 538   ----------------------------------------
        BYTE   W06
// 539   ----------------------------------------
        BYTE   W01
        BYTE           N96     Gn3   v067
        BYTE   W05
// 540   ----------------------------------------
        BYTE   W06
// 541   ----------------------------------------
        BYTE   W06
// 542   ----------------------------------------
        BYTE   W06
// 543   ----------------------------------------
        BYTE   W06
// 544   ----------------------------------------
        BYTE   W06
// 545   ----------------------------------------
        BYTE   W06
// 546   ----------------------------------------
        BYTE   W06
// 547   ----------------------------------------
        BYTE   W06
// 548   ----------------------------------------
        BYTE   W06
// 549   ----------------------------------------
        BYTE   W06
// 550   ----------------------------------------
        BYTE   W06
// 551   ----------------------------------------
        BYTE   W06
// 552   ----------------------------------------
        BYTE   W06
// 553   ----------------------------------------
        BYTE   W06
// 554   ----------------------------------------
        BYTE   W06
// 555   ----------------------------------------
        BYTE   W06
// 556   ----------------------------------------
        BYTE   W06
// 557   ----------------------------------------
        BYTE   W06
// 558   ----------------------------------------
        BYTE   W06
// 559   ----------------------------------------
        BYTE   W06
// 560   ----------------------------------------
        BYTE   W06
// 561   ----------------------------------------
        BYTE   W06
// 562   ----------------------------------------
        BYTE   W06
// 563   ----------------------------------------
        BYTE   W06
// 564   ----------------------------------------
        BYTE   W06
// 565   ----------------------------------------
        BYTE   W06
// 566   ----------------------------------------
        BYTE   W06
// 567   ----------------------------------------
        BYTE   W06
// 568   ----------------------------------------
        BYTE   W06
// 569   ----------------------------------------
        BYTE   W06
// 570   ----------------------------------------
        BYTE   W06
// 571   ----------------------------------------
        BYTE   W06
// 572   ----------------------------------------
        BYTE   W06
// 573   ----------------------------------------
        BYTE   W06
// 574   ----------------------------------------
        BYTE   W06
// 575   ----------------------------------------
        BYTE   W06
// 576   ----------------------------------------
        BYTE   W06
// 577   ----------------------------------------
        BYTE   W06
// 578   ----------------------------------------
        BYTE   W06
// 579   ----------------------------------------
        BYTE   W06
// 580   ----------------------------------------
        BYTE   W06
// 581   ----------------------------------------
        BYTE   W06
// 582   ----------------------------------------
        BYTE   W06
// 583   ----------------------------------------
        BYTE   W06
// 584   ----------------------------------------
        BYTE   W06
// 585   ----------------------------------------
        BYTE   W06
// 586   ----------------------------------------
        BYTE   W06
// 587   ----------------------------------------
        BYTE   W06
// 588   ----------------------------------------
        BYTE   W06
// 589   ----------------------------------------
        BYTE   W06
// 590   ----------------------------------------
        BYTE   W06
// 591   ----------------------------------------
        BYTE   W06
// 592   ----------------------------------------
        BYTE   W06
// 593   ----------------------------------------
        BYTE   PATT
         POIN2  neverendingdream000_1_1
// 594   ----------------------------------------
        BYTE   W06
// 595   ----------------------------------------
        BYTE   PATT
         POIN2  neverendingdream000_1_3
// 596   ----------------------------------------
        BYTE   W06
// 597   ----------------------------------------
        BYTE   W01
        BYTE           N12     Ds3   v077
        BYTE   W05
// 598   ----------------------------------------
        BYTE   W06
// 599   ----------------------------------------
        BYTE   PATT
         POIN2  neverendingdream000_1_3
// 600   ----------------------------------------
        BYTE   W06
// 601   ----------------------------------------
        BYTE   W01
        BYTE           N10     Fs3   v092
        BYTE   W05
// 602   ----------------------------------------
        BYTE   W06
// 603   ----------------------------------------
        BYTE   GoTo
         POIN2  neverendingdream000_1_LOOP
        BYTE   FINE

//****************** Track 2 (Midi-Chn.2) ******************//

neverendingdream000_2:
        BYTE   KEYSH   neverendingdream000_key+0
// 000   ----------------------------------------
        BYTE           VOL     34
        BYTE   W01
        BYTE           VOICE   8
        BYTE   W05
// 001   ----------------------------------------
        BYTE   W06
// 002   ----------------------------------------
        BYTE   W06
// 003   ----------------------------------------
        BYTE   W06
// 004   ----------------------------------------
        BYTE   W06
// 005   ----------------------------------------
        BYTE   W06
// 006   ----------------------------------------
        BYTE   W06
// 007   ----------------------------------------
        BYTE   W06
// 008   ----------------------------------------
        BYTE   W06
// 009   ----------------------------------------
        BYTE   W06
// 010   ----------------------------------------
        BYTE   W05
neverendingdream000_2_LOOP:
        BYTE   W01
// 011   ----------------------------------------
        BYTE   W06
// 012   ----------------------------------------
        BYTE   W06
// 013   ----------------------------------------
        BYTE   W06
// 014   ----------------------------------------
        BYTE   W06
// 015   ----------------------------------------
        BYTE   W06
// 016   ----------------------------------------
        BYTE   W06
// 017   ----------------------------------------
        BYTE   W06
// 018   ----------------------------------------
        BYTE   W06
// 019   ----------------------------------------
        BYTE   W06
// 020   ----------------------------------------
        BYTE   W06
// 021   ----------------------------------------
        BYTE   W06
// 022   ----------------------------------------
        BYTE   W06
// 023   ----------------------------------------
        BYTE   W06
// 024   ----------------------------------------
        BYTE   W06
// 025   ----------------------------------------
        BYTE   W06
// 026   ----------------------------------------
        BYTE   W06
// 027   ----------------------------------------
        BYTE   W06
// 028   ----------------------------------------
        BYTE   W06
// 029   ----------------------------------------
        BYTE   W06
// 030   ----------------------------------------
        BYTE   W06
// 031   ----------------------------------------
        BYTE   W06
// 032   ----------------------------------------
        BYTE   W06
// 033   ----------------------------------------
        BYTE   W06
// 034   ----------------------------------------
        BYTE   W06
// 035   ----------------------------------------
        BYTE   W06
// 036   ----------------------------------------
        BYTE   W06
// 037   ----------------------------------------
        BYTE   W06
// 038   ----------------------------------------
        BYTE   W06
// 039   ----------------------------------------
        BYTE   W06
// 040   ----------------------------------------
        BYTE   W06
// 041   ----------------------------------------
        BYTE   W06
// 042   ----------------------------------------
        BYTE   W06
// 043   ----------------------------------------
        BYTE   W06
// 044   ----------------------------------------
        BYTE   W06
// 045   ----------------------------------------
        BYTE   W06
// 046   ----------------------------------------
        BYTE   W06
// 047   ----------------------------------------
        BYTE   W06
// 048   ----------------------------------------
        BYTE   W06
// 049   ----------------------------------------
        BYTE   W06
// 050   ----------------------------------------
        BYTE   W06
// 051   ----------------------------------------
        BYTE   W06
// 052   ----------------------------------------
        BYTE   W06
// 053   ----------------------------------------
        BYTE   W06
// 054   ----------------------------------------
        BYTE   W06
// 055   ----------------------------------------
        BYTE   W06
// 056   ----------------------------------------
        BYTE   W06
// 057   ----------------------------------------
        BYTE   W06
// 058   ----------------------------------------
        BYTE   W06
// 059   ----------------------------------------
        BYTE   W06
// 060   ----------------------------------------
        BYTE   W06
// 061   ----------------------------------------
        BYTE   W06
// 062   ----------------------------------------
        BYTE   W06
// 063   ----------------------------------------
        BYTE   W06
// 064   ----------------------------------------
        BYTE   W06
// 065   ----------------------------------------
        BYTE   W06
// 066   ----------------------------------------
        BYTE   W06
// 067   ----------------------------------------
        BYTE   W06
// 068   ----------------------------------------
        BYTE   W06
// 069   ----------------------------------------
        BYTE   W06
// 070   ----------------------------------------
        BYTE   W06
// 071   ----------------------------------------
        BYTE   W06
// 072   ----------------------------------------
        BYTE   W06
// 073   ----------------------------------------
        BYTE   W06
// 074   ----------------------------------------
        BYTE   W06
// 075   ----------------------------------------
        BYTE   W06
// 076   ----------------------------------------
        BYTE   W06
// 077   ----------------------------------------
        BYTE   W06
// 078   ----------------------------------------
        BYTE   W06
// 079   ----------------------------------------
        BYTE   W06
// 080   ----------------------------------------
        BYTE   W06
// 081   ----------------------------------------
        BYTE   W06
// 082   ----------------------------------------
        BYTE   W06
// 083   ----------------------------------------
        BYTE   W06
// 084   ----------------------------------------
        BYTE   W06
// 085   ----------------------------------------
        BYTE   W06
// 086   ----------------------------------------
        BYTE   W06
// 087   ----------------------------------------
        BYTE   W06
// 088   ----------------------------------------
        BYTE   W06
// 089   ----------------------------------------
        BYTE   W06
// 090   ----------------------------------------
        BYTE   W06
// 091   ----------------------------------------
        BYTE   W06
// 092   ----------------------------------------
        BYTE   W06
// 093   ----------------------------------------
        BYTE   W06
// 094   ----------------------------------------
        BYTE   W06
// 095   ----------------------------------------
        BYTE   W06
// 096   ----------------------------------------
        BYTE   W06
// 097   ----------------------------------------
        BYTE   W06
// 098   ----------------------------------------
        BYTE   W06
// 099   ----------------------------------------
        BYTE   W06
// 100   ----------------------------------------
        BYTE   W06
// 101   ----------------------------------------
        BYTE   W06
// 102   ----------------------------------------
        BYTE   W06
// 103   ----------------------------------------
        BYTE   W06
// 104   ----------------------------------------
        BYTE   W06
// 105   ----------------------------------------
        BYTE   W06
// 106   ----------------------------------------
        BYTE   W06
// 107   ----------------------------------------
        BYTE   W06
// 108   ----------------------------------------
        BYTE   W06
// 109   ----------------------------------------
        BYTE   W06
// 110   ----------------------------------------
        BYTE   W06
// 111   ----------------------------------------
        BYTE   W06
// 112   ----------------------------------------
        BYTE   W06
// 113   ----------------------------------------
        BYTE   W06
// 114   ----------------------------------------
        BYTE   W06
// 115   ----------------------------------------
        BYTE   W06
// 116   ----------------------------------------
        BYTE   W06
// 117   ----------------------------------------
        BYTE   W06
// 118   ----------------------------------------
        BYTE   W06
// 119   ----------------------------------------
        BYTE   W06
// 120   ----------------------------------------
        BYTE   W06
// 121   ----------------------------------------
        BYTE   W06
// 122   ----------------------------------------
        BYTE   W06
// 123   ----------------------------------------
        BYTE   W06
// 124   ----------------------------------------
        BYTE   W06
// 125   ----------------------------------------
        BYTE   W06
// 126   ----------------------------------------
        BYTE   W06
// 127   ----------------------------------------
        BYTE   W06
// 128   ----------------------------------------
        BYTE   W06
// 129   ----------------------------------------
        BYTE   W06
// 130   ----------------------------------------
        BYTE   W06
// 131   ----------------------------------------
        BYTE   W06
// 132   ----------------------------------------
        BYTE   W06
// 133   ----------------------------------------
        BYTE   W06
// 134   ----------------------------------------
        BYTE   W06
// 135   ----------------------------------------
        BYTE   W06
// 136   ----------------------------------------
        BYTE   W06
// 137   ----------------------------------------
        BYTE   W06
// 138   ----------------------------------------
        BYTE   W06
// 139   ----------------------------------------
        BYTE   W06
// 140   ----------------------------------------
        BYTE   W06
// 141   ----------------------------------------
        BYTE   W06
// 142   ----------------------------------------
        BYTE   W06
// 143   ----------------------------------------
        BYTE   W06
// 144   ----------------------------------------
        BYTE   W06
// 145   ----------------------------------------
        BYTE   W06
// 146   ----------------------------------------
        BYTE   W06
// 147   ----------------------------------------
        BYTE   W06
// 148   ----------------------------------------
        BYTE   W06
// 149   ----------------------------------------
        BYTE   W06
// 150   ----------------------------------------
        BYTE   W06
// 151   ----------------------------------------
        BYTE   W06
// 152   ----------------------------------------
        BYTE   W06
// 153   ----------------------------------------
        BYTE   W06
// 154   ----------------------------------------
        BYTE   W06
// 155   ----------------------------------------
        BYTE   W06
// 156   ----------------------------------------
        BYTE   W06
// 157   ----------------------------------------
        BYTE   W06
// 158   ----------------------------------------
        BYTE   W06
// 159   ----------------------------------------
        BYTE   W06
// 160   ----------------------------------------
        BYTE   W06
// 161   ----------------------------------------
        BYTE   W06
// 162   ----------------------------------------
        BYTE   W06
// 163   ----------------------------------------
        BYTE   W06
// 164   ----------------------------------------
        BYTE   W06
// 165   ----------------------------------------
        BYTE   W06
// 166   ----------------------------------------
        BYTE   W06
// 167   ----------------------------------------
        BYTE   W06
// 168   ----------------------------------------
        BYTE   W06
// 169   ----------------------------------------
        BYTE   W06
// 170   ----------------------------------------
        BYTE   W06
// 171   ----------------------------------------
        BYTE   W06
// 172   ----------------------------------------
        BYTE   W06
// 173   ----------------------------------------
        BYTE   W06
// 174   ----------------------------------------
        BYTE   W06
// 175   ----------------------------------------
        BYTE   W06
// 176   ----------------------------------------
        BYTE   W06
// 177   ----------------------------------------
        BYTE   W06
// 178   ----------------------------------------
        BYTE   W06
// 179   ----------------------------------------
        BYTE   W06
// 180   ----------------------------------------
        BYTE   W06
// 181   ----------------------------------------
        BYTE   W06
// 182   ----------------------------------------
        BYTE   W06
// 183   ----------------------------------------
        BYTE   W06
// 184   ----------------------------------------
        BYTE   W06
// 185   ----------------------------------------
        BYTE   W06
// 186   ----------------------------------------
        BYTE   W06
// 187   ----------------------------------------
        BYTE   W06
// 188   ----------------------------------------
        BYTE   W06
// 189   ----------------------------------------
        BYTE   W06
// 190   ----------------------------------------
        BYTE   W06
// 191   ----------------------------------------
        BYTE   W06
// 192   ----------------------------------------
        BYTE   W06
// 193   ----------------------------------------
        BYTE   W06
// 194   ----------------------------------------
        BYTE   W06
// 195   ----------------------------------------
        BYTE   W06
// 196   ----------------------------------------
        BYTE   W06
// 197   ----------------------------------------
        BYTE   W06
// 198   ----------------------------------------
        BYTE   W06
// 199   ----------------------------------------
        BYTE   W06
// 200   ----------------------------------------
        BYTE   W06
// 201   ----------------------------------------
        BYTE   W06
// 202   ----------------------------------------
        BYTE   W06
// 203   ----------------------------------------
        BYTE   W06
// 204   ----------------------------------------
        BYTE   W06
// 205   ----------------------------------------
        BYTE   W06
// 206   ----------------------------------------
        BYTE   W06
// 207   ----------------------------------------
        BYTE   W06
// 208   ----------------------------------------
        BYTE   W06
// 209   ----------------------------------------
        BYTE   W06
// 210   ----------------------------------------
        BYTE   W06
// 211   ----------------------------------------
        BYTE   W06
// 212   ----------------------------------------
        BYTE   W06
// 213   ----------------------------------------
        BYTE   W06
// 214   ----------------------------------------
        BYTE   W06
// 215   ----------------------------------------
        BYTE   W06
// 216   ----------------------------------------
        BYTE   W06
// 217   ----------------------------------------
        BYTE   W06
// 218   ----------------------------------------
        BYTE   W06
// 219   ----------------------------------------
        BYTE   W06
// 220   ----------------------------------------
        BYTE   W06
// 221   ----------------------------------------
        BYTE   W06
// 222   ----------------------------------------
        BYTE   W06
// 223   ----------------------------------------
        BYTE   W06
// 224   ----------------------------------------
        BYTE   W06
// 225   ----------------------------------------
        BYTE   W06
// 226   ----------------------------------------
        BYTE   W06
// 227   ----------------------------------------
        BYTE   W06
// 228   ----------------------------------------
        BYTE   W06
// 229   ----------------------------------------
        BYTE   W06
// 230   ----------------------------------------
        BYTE   W06
// 231   ----------------------------------------
        BYTE   W06
// 232   ----------------------------------------
        BYTE   W06
// 233   ----------------------------------------
        BYTE   W06
// 234   ----------------------------------------
        BYTE   W06
// 235   ----------------------------------------
        BYTE   W06
// 236   ----------------------------------------
        BYTE   W06
// 237   ----------------------------------------
        BYTE   W06
// 238   ----------------------------------------
        BYTE   W06
// 239   ----------------------------------------
        BYTE   W06
// 240   ----------------------------------------
        BYTE   W06
// 241   ----------------------------------------
        BYTE   W06
// 242   ----------------------------------------
        BYTE   W06
// 243   ----------------------------------------
        BYTE   W06
// 244   ----------------------------------------
        BYTE   W06
// 245   ----------------------------------------
        BYTE   W06
// 246   ----------------------------------------
        BYTE   W06
// 247   ----------------------------------------
        BYTE   W06
// 248   ----------------------------------------
        BYTE   W06
// 249   ----------------------------------------
        BYTE   W06
// 250   ----------------------------------------
        BYTE   W06
// 251   ----------------------------------------
        BYTE   W06
// 252   ----------------------------------------
        BYTE   W06
// 253   ----------------------------------------
        BYTE   W06
// 254   ----------------------------------------
        BYTE   W06
// 255   ----------------------------------------
        BYTE   W06
// 256   ----------------------------------------
        BYTE   W06
// 257   ----------------------------------------
        BYTE   W06
// 258   ----------------------------------------
        BYTE   W06
// 259   ----------------------------------------
        BYTE   W06
// 260   ----------------------------------------
        BYTE   W06
// 261   ----------------------------------------
        BYTE   W06
// 262   ----------------------------------------
        BYTE   W06
// 263   ----------------------------------------
        BYTE   W06
// 264   ----------------------------------------
        BYTE   W06
// 265   ----------------------------------------
        BYTE   W06
// 266   ----------------------------------------
        BYTE   W06
// 267   ----------------------------------------
        BYTE   W06
// 268   ----------------------------------------
        BYTE   W06
// 269   ----------------------------------------
        BYTE   W06
// 270   ----------------------------------------
        BYTE   W06
// 271   ----------------------------------------
        BYTE   W06
// 272   ----------------------------------------
        BYTE   W06
// 273   ----------------------------------------
        BYTE   W06
// 274   ----------------------------------------
        BYTE   W06
// 275   ----------------------------------------
        BYTE   W06
// 276   ----------------------------------------
        BYTE   W06
// 277   ----------------------------------------
        BYTE   W06
// 278   ----------------------------------------
        BYTE   W06
// 279   ----------------------------------------
        BYTE   W06
// 280   ----------------------------------------
        BYTE   W06
// 281   ----------------------------------------
        BYTE   W06
// 282   ----------------------------------------
        BYTE   W06
// 283   ----------------------------------------
        BYTE   W06
// 284   ----------------------------------------
        BYTE   W06
// 285   ----------------------------------------
        BYTE   W06
// 286   ----------------------------------------
        BYTE   W06
// 287   ----------------------------------------
        BYTE   W06
// 288   ----------------------------------------
        BYTE   W06
// 289   ----------------------------------------
        BYTE   W06
// 290   ----------------------------------------
        BYTE   W06
// 291   ----------------------------------------
        BYTE   W06
// 292   ----------------------------------------
        BYTE   W06
// 293   ----------------------------------------
        BYTE   W06
// 294   ----------------------------------------
        BYTE   W06
// 295   ----------------------------------------
        BYTE   W06
// 296   ----------------------------------------
        BYTE   W06
// 297   ----------------------------------------
        BYTE   W06
// 298   ----------------------------------------
        BYTE   W06
// 299   ----------------------------------------
        BYTE   W06
// 300   ----------------------------------------
        BYTE   W06
// 301   ----------------------------------------
        BYTE   W06
// 302   ----------------------------------------
        BYTE   W06
// 303   ----------------------------------------
        BYTE   W06
// 304   ----------------------------------------
        BYTE   W06
// 305   ----------------------------------------
        BYTE   W06
// 306   ----------------------------------------
        BYTE   W06
// 307   ----------------------------------------
        BYTE   W06
// 308   ----------------------------------------
        BYTE   W06
// 309   ----------------------------------------
        BYTE   W06
// 310   ----------------------------------------
        BYTE   W06
// 311   ----------------------------------------
        BYTE   W06
// 312   ----------------------------------------
        BYTE   W06
// 313   ----------------------------------------
        BYTE   W06
// 314   ----------------------------------------
        BYTE   W06
// 315   ----------------------------------------
        BYTE   W06
// 316   ----------------------------------------
        BYTE   W06
// 317   ----------------------------------------
        BYTE   W06
// 318   ----------------------------------------
        BYTE   W06
// 319   ----------------------------------------
        BYTE   W06
// 320   ----------------------------------------
        BYTE   W06
// 321   ----------------------------------------
        BYTE   W06
// 322   ----------------------------------------
        BYTE   W06
// 323   ----------------------------------------
        BYTE   W06
// 324   ----------------------------------------
        BYTE   W06
// 325   ----------------------------------------
        BYTE   W06
// 326   ----------------------------------------
        BYTE   W06
// 327   ----------------------------------------
        BYTE   W06
// 328   ----------------------------------------
        BYTE   W06
// 329   ----------------------------------------
        BYTE   W06
// 330   ----------------------------------------
        BYTE   W06
// 331   ----------------------------------------
        BYTE   W06
// 332   ----------------------------------------
        BYTE   W06
// 333   ----------------------------------------
        BYTE   W06
// 334   ----------------------------------------
        BYTE   W06
// 335   ----------------------------------------
        BYTE   W06
// 336   ----------------------------------------
        BYTE   W06
// 337   ----------------------------------------
        BYTE   W06
// 338   ----------------------------------------
        BYTE   W06
// 339   ----------------------------------------
        BYTE   W06
// 340   ----------------------------------------
        BYTE   W06
// 341   ----------------------------------------
        BYTE   W06
// 342   ----------------------------------------
        BYTE   W06
// 343   ----------------------------------------
        BYTE   W06
// 344   ----------------------------------------
        BYTE   W06
// 345   ----------------------------------------
        BYTE   W06
// 346   ----------------------------------------
        BYTE   W06
// 347   ----------------------------------------
        BYTE   W06
// 348   ----------------------------------------
        BYTE   W06
// 349   ----------------------------------------
        BYTE   W06
// 350   ----------------------------------------
        BYTE   W06
// 351   ----------------------------------------
        BYTE   W06
// 352   ----------------------------------------
        BYTE   W06
// 353   ----------------------------------------
        BYTE   W06
// 354   ----------------------------------------
        BYTE   W06
// 355   ----------------------------------------
        BYTE   W06
// 356   ----------------------------------------
        BYTE   W06
// 357   ----------------------------------------
        BYTE   W06
// 358   ----------------------------------------
        BYTE   W06
// 359   ----------------------------------------
        BYTE   W06
// 360   ----------------------------------------
        BYTE   W06
// 361   ----------------------------------------
        BYTE   W06
// 362   ----------------------------------------
        BYTE   W06
// 363   ----------------------------------------
        BYTE   W06
// 364   ----------------------------------------
        BYTE   W06
// 365   ----------------------------------------
        BYTE   W06
// 366   ----------------------------------------
        BYTE   W06
// 367   ----------------------------------------
        BYTE   W06
// 368   ----------------------------------------
        BYTE   W06
// 369   ----------------------------------------
        BYTE   W06
// 370   ----------------------------------------
        BYTE   W06
// 371   ----------------------------------------
        BYTE   W06
// 372   ----------------------------------------
        BYTE   W06
// 373   ----------------------------------------
        BYTE   W06
// 374   ----------------------------------------
        BYTE   W06
// 375   ----------------------------------------
        BYTE   W06
// 376   ----------------------------------------
        BYTE   W06
// 377   ----------------------------------------
        BYTE   W06
// 378   ----------------------------------------
        BYTE   W06
// 379   ----------------------------------------
        BYTE   W06
// 380   ----------------------------------------
        BYTE   W06
// 381   ----------------------------------------
        BYTE   W06
// 382   ----------------------------------------
        BYTE   W06
// 383   ----------------------------------------
        BYTE   W06
// 384   ----------------------------------------
        BYTE   W06
// 385   ----------------------------------------
        BYTE   W06
// 386   ----------------------------------------
        BYTE   W06
// 387   ----------------------------------------
        BYTE   W06
// 388   ----------------------------------------
        BYTE   W06
// 389   ----------------------------------------
        BYTE   W06
// 390   ----------------------------------------
        BYTE   W06
// 391   ----------------------------------------
        BYTE   W06
// 392   ----------------------------------------
        BYTE   W06
// 393   ----------------------------------------
        BYTE   W06
// 394   ----------------------------------------
        BYTE   W06
// 395   ----------------------------------------
        BYTE   W06
// 396   ----------------------------------------
        BYTE   W06
// 397   ----------------------------------------
        BYTE   W06
// 398   ----------------------------------------
        BYTE   W06
// 399   ----------------------------------------
        BYTE   W06
// 400   ----------------------------------------
        BYTE   W06
// 401   ----------------------------------------
        BYTE   W06
// 402   ----------------------------------------
        BYTE   W06
// 403   ----------------------------------------
        BYTE   W06
// 404   ----------------------------------------
        BYTE   W06
// 405   ----------------------------------------
        BYTE   W06
// 406   ----------------------------------------
        BYTE   W06
// 407   ----------------------------------------
        BYTE   W06
// 408   ----------------------------------------
        BYTE   W06
// 409   ----------------------------------------
        BYTE   W06
// 410   ----------------------------------------
        BYTE   W06
// 411   ----------------------------------------
        BYTE   W06
// 412   ----------------------------------------
        BYTE   W06
// 413   ----------------------------------------
        BYTE   W06
// 414   ----------------------------------------
        BYTE   W06
// 415   ----------------------------------------
        BYTE   W06
// 416   ----------------------------------------
        BYTE   W06
// 417   ----------------------------------------
        BYTE   W06
// 418   ----------------------------------------
        BYTE   W06
// 419   ----------------------------------------
        BYTE   W06
// 420   ----------------------------------------
        BYTE   W06
// 421   ----------------------------------------
        BYTE   W06
// 422   ----------------------------------------
        BYTE   W06
// 423   ----------------------------------------
        BYTE   W06
// 424   ----------------------------------------
        BYTE   W06
// 425   ----------------------------------------
        BYTE   W06
// 426   ----------------------------------------
        BYTE   W06
// 427   ----------------------------------------
        BYTE   W06
// 428   ----------------------------------------
        BYTE   W06
// 429   ----------------------------------------
        BYTE   W06
// 430   ----------------------------------------
        BYTE   W06
// 431   ----------------------------------------
        BYTE   W06
// 432   ----------------------------------------
        BYTE   W06
// 433   ----------------------------------------
        BYTE   W06
// 434   ----------------------------------------
        BYTE   W06
// 435   ----------------------------------------
        BYTE   W06
// 436   ----------------------------------------
        BYTE   W06
// 437   ----------------------------------------
        BYTE   W06
// 438   ----------------------------------------
        BYTE   W06
// 439   ----------------------------------------
        BYTE   W06
// 440   ----------------------------------------
        BYTE   W06
// 441   ----------------------------------------
        BYTE   W06
// 442   ----------------------------------------
        BYTE   W06
// 443   ----------------------------------------
        BYTE   W06
// 444   ----------------------------------------
        BYTE   W06
// 445   ----------------------------------------
        BYTE   W06
// 446   ----------------------------------------
        BYTE   W06
// 447   ----------------------------------------
        BYTE   W06
// 448   ----------------------------------------
        BYTE   W06
// 449   ----------------------------------------
        BYTE   W06
// 450   ----------------------------------------
        BYTE   W06
// 451   ----------------------------------------
        BYTE   W06
// 452   ----------------------------------------
        BYTE   W06
// 453   ----------------------------------------
        BYTE   W06
// 454   ----------------------------------------
        BYTE   W06
// 455   ----------------------------------------
        BYTE   W06
// 456   ----------------------------------------
        BYTE   W06
// 457   ----------------------------------------
        BYTE   W06
// 458   ----------------------------------------
        BYTE   W06
// 459   ----------------------------------------
        BYTE   W06
// 460   ----------------------------------------
        BYTE   W06
// 461   ----------------------------------------
        BYTE   W06
// 462   ----------------------------------------
        BYTE   W06
// 463   ----------------------------------------
        BYTE   W06
// 464   ----------------------------------------
        BYTE   W06
// 465   ----------------------------------------
        BYTE   W06
// 466   ----------------------------------------
        BYTE   W06
// 467   ----------------------------------------
        BYTE   W06
// 468   ----------------------------------------
        BYTE   W06
// 469   ----------------------------------------
        BYTE   W06
// 470   ----------------------------------------
        BYTE   W06
// 471   ----------------------------------------
        BYTE   W06
// 472   ----------------------------------------
        BYTE   W06
// 473   ----------------------------------------
        BYTE   W06
// 474   ----------------------------------------
        BYTE   W06
// 475   ----------------------------------------
        BYTE   W06
// 476   ----------------------------------------
        BYTE   W06
// 477   ----------------------------------------
        BYTE   W06
// 478   ----------------------------------------
        BYTE   W06
// 479   ----------------------------------------
        BYTE   W06
// 480   ----------------------------------------
        BYTE   W06
// 481   ----------------------------------------
        BYTE   W06
// 482   ----------------------------------------
        BYTE   W06
// 483   ----------------------------------------
        BYTE   W06
// 484   ----------------------------------------
        BYTE   W06
// 485   ----------------------------------------
        BYTE   W06
// 486   ----------------------------------------
        BYTE   W06
// 487   ----------------------------------------
        BYTE   W06
// 488   ----------------------------------------
        BYTE   W06
// 489   ----------------------------------------
        BYTE   W06
// 490   ----------------------------------------
        BYTE   W06
// 491   ----------------------------------------
        BYTE   W06
// 492   ----------------------------------------
        BYTE   W06
// 493   ----------------------------------------
        BYTE   W06
// 494   ----------------------------------------
        BYTE   W06
// 495   ----------------------------------------
        BYTE   W06
// 496   ----------------------------------------
        BYTE   W06
// 497   ----------------------------------------
        BYTE   W06
// 498   ----------------------------------------
        BYTE   W06
// 499   ----------------------------------------
        BYTE   W06
// 500   ----------------------------------------
        BYTE   W06
// 501   ----------------------------------------
        BYTE   W06
// 502   ----------------------------------------
        BYTE   W06
// 503   ----------------------------------------
        BYTE   W06
// 504   ----------------------------------------
        BYTE   W06
// 505   ----------------------------------------
        BYTE   W06
// 506   ----------------------------------------
        BYTE   W06
// 507   ----------------------------------------
        BYTE           N84     Gn3   v098
        BYTE   W06
// 508   ----------------------------------------
        BYTE   W06
// 509   ----------------------------------------
        BYTE   W06
// 510   ----------------------------------------
        BYTE   W06
// 511   ----------------------------------------
        BYTE   W06
// 512   ----------------------------------------
        BYTE   W06
// 513   ----------------------------------------
        BYTE   W06
// 514   ----------------------------------------
        BYTE   W06
// 515   ----------------------------------------
        BYTE   W06
// 516   ----------------------------------------
        BYTE   W06
// 517   ----------------------------------------
        BYTE   W06
// 518   ----------------------------------------
        BYTE   W06
// 519   ----------------------------------------
        BYTE   W06
// 520   ----------------------------------------
        BYTE   W06
// 521   ----------------------------------------
        BYTE           N06     An3
        BYTE   W06
// 522   ----------------------------------------
        BYTE                   Bn3
        BYTE   W06
// 523   ----------------------------------------
        BYTE           N96     An3
        BYTE   W06
// 524   ----------------------------------------
        BYTE   W06
// 525   ----------------------------------------
        BYTE   W06
// 526   ----------------------------------------
        BYTE   W06
// 527   ----------------------------------------
        BYTE   W06
// 528   ----------------------------------------
        BYTE   W06
// 529   ----------------------------------------
        BYTE   W06
// 530   ----------------------------------------
        BYTE   W06
// 531   ----------------------------------------
        BYTE   W06
// 532   ----------------------------------------
        BYTE   W06
// 533   ----------------------------------------
        BYTE   W06
// 534   ----------------------------------------
        BYTE   W06
// 535   ----------------------------------------
        BYTE   W06
// 536   ----------------------------------------
        BYTE   W06
// 537   ----------------------------------------
        BYTE   W06
// 538   ----------------------------------------
        BYTE   W06
// 539   ----------------------------------------
        BYTE                   Gn3
        BYTE   W06
// 540   ----------------------------------------
        BYTE   W06
// 541   ----------------------------------------
        BYTE   W06
// 542   ----------------------------------------
        BYTE   W06
// 543   ----------------------------------------
        BYTE   W06
// 544   ----------------------------------------
        BYTE   W06
// 545   ----------------------------------------
        BYTE   W06
// 546   ----------------------------------------
        BYTE   W06
// 547   ----------------------------------------
        BYTE   W06
// 548   ----------------------------------------
        BYTE   W06
// 549   ----------------------------------------
        BYTE   W06
// 550   ----------------------------------------
        BYTE   W06
// 551   ----------------------------------------
        BYTE   W06
// 552   ----------------------------------------
        BYTE   W06
// 553   ----------------------------------------
        BYTE   W06
// 554   ----------------------------------------
        BYTE   W06
// 555   ----------------------------------------
        BYTE   W06
// 556   ----------------------------------------
        BYTE   W06
// 557   ----------------------------------------
        BYTE   W06
// 558   ----------------------------------------
        BYTE   W06
// 559   ----------------------------------------
        BYTE   W06
// 560   ----------------------------------------
        BYTE   W06
// 561   ----------------------------------------
        BYTE   W06
// 562   ----------------------------------------
        BYTE   W06
// 563   ----------------------------------------
        BYTE   W06
// 564   ----------------------------------------
        BYTE   W06
// 565   ----------------------------------------
        BYTE   W06
// 566   ----------------------------------------
        BYTE   W06
// 567   ----------------------------------------
        BYTE   W06
// 568   ----------------------------------------
        BYTE   W06
// 569   ----------------------------------------
        BYTE   W06
// 570   ----------------------------------------
        BYTE   W06
// 571   ----------------------------------------
        BYTE   W06
// 572   ----------------------------------------
        BYTE   W06
// 573   ----------------------------------------
        BYTE   W06
// 574   ----------------------------------------
        BYTE   W06
// 575   ----------------------------------------
        BYTE   W06
// 576   ----------------------------------------
        BYTE   W06
// 577   ----------------------------------------
        BYTE   W06
// 578   ----------------------------------------
        BYTE   W06
// 579   ----------------------------------------
        BYTE   W06
// 580   ----------------------------------------
        BYTE   W06
// 581   ----------------------------------------
        BYTE   W06
// 582   ----------------------------------------
        BYTE   W06
// 583   ----------------------------------------
        BYTE   W06
// 584   ----------------------------------------
        BYTE   W06
// 585   ----------------------------------------
        BYTE   W06
// 586   ----------------------------------------
        BYTE   W06
// 587   ----------------------------------------
        BYTE   W06
// 588   ----------------------------------------
        BYTE   W06
// 589   ----------------------------------------
        BYTE   W06
// 590   ----------------------------------------
        BYTE   W06
// 591   ----------------------------------------
        BYTE   W06
// 592   ----------------------------------------
        BYTE   W06
// 593   ----------------------------------------
        BYTE   W06
// 594   ----------------------------------------
        BYTE   W06
// 595   ----------------------------------------
        BYTE   W06
// 596   ----------------------------------------
        BYTE   W06
// 597   ----------------------------------------
        BYTE   W06
// 598   ----------------------------------------
        BYTE   W06
// 599   ----------------------------------------
        BYTE   W06
// 600   ----------------------------------------
        BYTE   W06
// 601   ----------------------------------------
        BYTE   W06
// 602   ----------------------------------------
        BYTE   W06
// 603   ----------------------------------------
        BYTE   GoTo
         POIN2  neverendingdream000_2_LOOP
        BYTE   FINE

//****************** Track 3 (Midi-Chn.3) ******************//

neverendingdream000_3:
        BYTE   KEYSH   neverendingdream000_key+0
// 000   ----------------------------------------
        BYTE           VOICE   96
        BYTE   W02
        BYTE           VOL     18
        BYTE   W01
        BYTE           PAN     c_v-64
        BYTE   W03
// 001   ----------------------------------------
        BYTE   W06
// 002   ----------------------------------------
        BYTE   W06
// 003   ----------------------------------------
        BYTE   W06
// 004   ----------------------------------------
        BYTE   W06
// 005   ----------------------------------------
        BYTE   W06
// 006   ----------------------------------------
        BYTE   W06
// 007   ----------------------------------------
        BYTE   W06
// 008   ----------------------------------------
        BYTE   W06
// 009   ----------------------------------------
        BYTE   W06
// 010   ----------------------------------------
        BYTE   W05
neverendingdream000_3_LOOP:
        BYTE   W01
// 011   ----------------------------------------
        BYTE   W01
        BYTE           N96     En2   v092
        BYTE           N96     Gn3   v072
        BYTE           N96     Dn3
        BYTE           N96     Bn2
        BYTE   W05
// 012   ----------------------------------------
        BYTE   W06
// 013   ----------------------------------------
        BYTE   W06
// 014   ----------------------------------------
        BYTE   W06
// 015   ----------------------------------------
        BYTE   W06
// 016   ----------------------------------------
        BYTE   W06
// 017   ----------------------------------------
        BYTE   W06
// 018   ----------------------------------------
        BYTE   W06
// 019   ----------------------------------------
        BYTE   W06
// 020   ----------------------------------------
        BYTE   W06
// 021   ----------------------------------------
        BYTE   W06
// 022   ----------------------------------------
        BYTE   W06
// 023   ----------------------------------------
        BYTE   W06
// 024   ----------------------------------------
        BYTE   W06
// 025   ----------------------------------------
        BYTE   W06
// 026   ----------------------------------------
        BYTE   W06
// 027   ----------------------------------------
        BYTE   W01
        BYTE                   Dn2   v092
        BYTE           N96     Bn2   v072
        BYTE           N96     Fs3
        BYTE           N96     Dn3
        BYTE   W05
// 028   ----------------------------------------
        BYTE   W06
// 029   ----------------------------------------
        BYTE   W06
// 030   ----------------------------------------
        BYTE   W06
// 031   ----------------------------------------
        BYTE   W06
// 032   ----------------------------------------
        BYTE   W06
// 033   ----------------------------------------
        BYTE   W06
// 034   ----------------------------------------
        BYTE   W06
// 035   ----------------------------------------
        BYTE   W06
// 036   ----------------------------------------
        BYTE   W06
// 037   ----------------------------------------
        BYTE   W06
// 038   ----------------------------------------
        BYTE   W06
// 039   ----------------------------------------
        BYTE   W06
// 040   ----------------------------------------
        BYTE   W06
// 041   ----------------------------------------
        BYTE   W06
// 042   ----------------------------------------
        BYTE   W06
// 043   ----------------------------------------
        BYTE   W01
        BYTE                   Cn2   v092
        BYTE           N96     En3   v072
        BYTE           N96     Bn2
        BYTE           N96     Gn2
        BYTE   W05
// 044   ----------------------------------------
        BYTE   W06
// 045   ----------------------------------------
        BYTE   W06
// 046   ----------------------------------------
        BYTE   W06
// 047   ----------------------------------------
        BYTE   W06
// 048   ----------------------------------------
        BYTE   W06
// 049   ----------------------------------------
        BYTE   W06
// 050   ----------------------------------------
        BYTE   W06
// 051   ----------------------------------------
        BYTE   W06
// 052   ----------------------------------------
        BYTE   W06
// 053   ----------------------------------------
        BYTE   W06
// 054   ----------------------------------------
        BYTE   W06
// 055   ----------------------------------------
        BYTE   W06
// 056   ----------------------------------------
        BYTE   W06
// 057   ----------------------------------------
        BYTE   W06
// 058   ----------------------------------------
        BYTE   W06
// 059   ----------------------------------------
        BYTE   W01
        BYTE                   Bn1   v092
        BYTE           N96     Dn3   v072
        BYTE           N96     Bn2
        BYTE           N96     Gn2
        BYTE   W05
// 060   ----------------------------------------
        BYTE   W06
// 061   ----------------------------------------
        BYTE   W06
// 062   ----------------------------------------
        BYTE   W06
// 063   ----------------------------------------
        BYTE   W06
// 064   ----------------------------------------
        BYTE   W06
// 065   ----------------------------------------
        BYTE   W06
// 066   ----------------------------------------
        BYTE   W06
// 067   ----------------------------------------
        BYTE   W06
// 068   ----------------------------------------
        BYTE   W06
// 069   ----------------------------------------
        BYTE   W06
// 070   ----------------------------------------
        BYTE   W06
// 071   ----------------------------------------
        BYTE   W06
// 072   ----------------------------------------
        BYTE   W06
// 073   ----------------------------------------
        BYTE   W06
// 074   ----------------------------------------
        BYTE   W06
// 075   ----------------------------------------
        BYTE   W01
        BYTE                   An1   v092
        BYTE           N96     Cn3   v072
        BYTE           N96     Gn2
        BYTE           N96     En2
        BYTE   W05
// 076   ----------------------------------------
        BYTE   W06
// 077   ----------------------------------------
        BYTE   W06
// 078   ----------------------------------------
        BYTE   W06
// 079   ----------------------------------------
        BYTE   W06
// 080   ----------------------------------------
        BYTE   W06
// 081   ----------------------------------------
        BYTE   W06
// 082   ----------------------------------------
        BYTE   W06
// 083   ----------------------------------------
        BYTE   W06
// 084   ----------------------------------------
        BYTE   W06
// 085   ----------------------------------------
        BYTE   W06
// 086   ----------------------------------------
        BYTE   W06
// 087   ----------------------------------------
        BYTE   W06
// 088   ----------------------------------------
        BYTE   W06
// 089   ----------------------------------------
        BYTE   W06
// 090   ----------------------------------------
        BYTE   W06
// 091   ----------------------------------------
        BYTE   W01
        BYTE                   Bn1   v092
        BYTE           N96     Bn2   v072
        BYTE           N96     Gn2
        BYTE           N96     Dn3
        BYTE   W05
// 092   ----------------------------------------
        BYTE   W06
// 093   ----------------------------------------
        BYTE   W06
// 094   ----------------------------------------
        BYTE   W06
// 095   ----------------------------------------
        BYTE   W06
// 096   ----------------------------------------
        BYTE   W06
// 097   ----------------------------------------
        BYTE   W06
// 098   ----------------------------------------
        BYTE   W06
// 099   ----------------------------------------
        BYTE   W06
// 100   ----------------------------------------
        BYTE   W06
// 101   ----------------------------------------
        BYTE   W06
// 102   ----------------------------------------
        BYTE   W06
// 103   ----------------------------------------
        BYTE   W06
// 104   ----------------------------------------
        BYTE   W06
// 105   ----------------------------------------
        BYTE   W06
// 106   ----------------------------------------
        BYTE   W06
// 107   ----------------------------------------
        BYTE   W01
        BYTE                   Cn2   v092
        BYTE           N96     Cn3   v072
        BYTE           N96     Gn2
        BYTE           N96     En3
        BYTE   W05
// 108   ----------------------------------------
        BYTE   W06
// 109   ----------------------------------------
        BYTE   W06
// 110   ----------------------------------------
        BYTE   W06
// 111   ----------------------------------------
        BYTE   W06
// 112   ----------------------------------------
        BYTE   W06
// 113   ----------------------------------------
        BYTE   W06
// 114   ----------------------------------------
        BYTE   W06
// 115   ----------------------------------------
        BYTE   W06
// 116   ----------------------------------------
        BYTE   W06
// 117   ----------------------------------------
        BYTE   W06
// 118   ----------------------------------------
        BYTE   W06
// 119   ----------------------------------------
        BYTE   W06
// 120   ----------------------------------------
        BYTE   W06
// 121   ----------------------------------------
        BYTE   W06
// 122   ----------------------------------------
        BYTE   W06
// 123   ----------------------------------------
        BYTE   W01
        BYTE           N92     Dn2   v092   gtp2
        BYTE                   Fs3   v072
        BYTE           N92     Dn3   v072   gtp2
        BYTE                   An2
        BYTE   W05
// 124   ----------------------------------------
        BYTE   W06
// 125   ----------------------------------------
        BYTE   W06
// 126   ----------------------------------------
        BYTE   W06
// 127   ----------------------------------------
        BYTE   W06
// 128   ----------------------------------------
        BYTE   W06
// 129   ----------------------------------------
        BYTE   W06
// 130   ----------------------------------------
        BYTE   W06
// 131   ----------------------------------------
        BYTE   W06
// 132   ----------------------------------------
        BYTE   W06
// 133   ----------------------------------------
        BYTE   W06
// 134   ----------------------------------------
        BYTE   W06
// 135   ----------------------------------------
        BYTE   W06
// 136   ----------------------------------------
        BYTE   W06
// 137   ----------------------------------------
        BYTE   W06
// 138   ----------------------------------------
        BYTE   W05
        BYTE           N96     En2   v092
        BYTE           N96     Gn3   v072
        BYTE           N96     Dn3
        BYTE           N96     Bn2
        BYTE   W01
// 139   ----------------------------------------
        BYTE   W06
// 140   ----------------------------------------
        BYTE   W06
// 141   ----------------------------------------
        BYTE   W06
// 142   ----------------------------------------
        BYTE   W06
// 143   ----------------------------------------
        BYTE   W06
// 144   ----------------------------------------
        BYTE   W06
// 145   ----------------------------------------
        BYTE   W06
// 146   ----------------------------------------
        BYTE   W06
// 147   ----------------------------------------
        BYTE   W06
// 148   ----------------------------------------
        BYTE   W06
// 149   ----------------------------------------
        BYTE   W06
// 150   ----------------------------------------
        BYTE   W06
// 151   ----------------------------------------
        BYTE   W06
// 152   ----------------------------------------
        BYTE   W06
// 153   ----------------------------------------
        BYTE   W06
// 154   ----------------------------------------
        BYTE   W06
// 155   ----------------------------------------
        BYTE   W01
        BYTE                   Dn2   v092
        BYTE           N96     Fs3   v072
        BYTE           N96     Dn3
        BYTE           N96     Bn2
        BYTE   W05
// 156   ----------------------------------------
        BYTE   W06
// 157   ----------------------------------------
        BYTE   W06
// 158   ----------------------------------------
        BYTE   W06
// 159   ----------------------------------------
        BYTE   W06
// 160   ----------------------------------------
        BYTE   W06
// 161   ----------------------------------------
        BYTE   W06
// 162   ----------------------------------------
        BYTE   W06
// 163   ----------------------------------------
        BYTE   W01
        BYTE           N48     Bn3   v067
        BYTE   W05
// 164   ----------------------------------------
        BYTE   W06
// 165   ----------------------------------------
        BYTE   W06
// 166   ----------------------------------------
        BYTE   W06
// 167   ----------------------------------------
        BYTE   W06
// 168   ----------------------------------------
        BYTE   W06
// 169   ----------------------------------------
        BYTE   W06
// 170   ----------------------------------------
        BYTE   W06
// 171   ----------------------------------------
        BYTE   W01
        BYTE           N96     Cn2   v092
        BYTE           N96     Bn2   v072
        BYTE           N96     En3
        BYTE           N96     Gn2
        BYTE   W05
// 172   ----------------------------------------
        BYTE   W06
// 173   ----------------------------------------
        BYTE   W06
// 174   ----------------------------------------
        BYTE   W06
// 175   ----------------------------------------
        BYTE   W06
// 176   ----------------------------------------
        BYTE   W06
// 177   ----------------------------------------
        BYTE   W06
// 178   ----------------------------------------
        BYTE   W06
// 179   ----------------------------------------
        BYTE   W06
// 180   ----------------------------------------
        BYTE   W06
// 181   ----------------------------------------
        BYTE   W06
// 182   ----------------------------------------
        BYTE   W06
// 183   ----------------------------------------
        BYTE   W06
// 184   ----------------------------------------
        BYTE   W06
// 185   ----------------------------------------
        BYTE   W06
// 186   ----------------------------------------
        BYTE   W06
// 187   ----------------------------------------
        BYTE   W01
        BYTE                   Bn1   v092
        BYTE           N96     Gn2   v072
        BYTE           N96     Bn2
        BYTE           N96     Dn3
        BYTE   W05
// 188   ----------------------------------------
        BYTE   W06
// 189   ----------------------------------------
        BYTE   W06
// 190   ----------------------------------------
        BYTE   W06
// 191   ----------------------------------------
        BYTE   W06
// 192   ----------------------------------------
        BYTE   W06
// 193   ----------------------------------------
        BYTE   W06
// 194   ----------------------------------------
        BYTE   W06
// 195   ----------------------------------------
        BYTE   W01
        BYTE           N48     Gn3
        BYTE   W05
// 196   ----------------------------------------
        BYTE   W06
// 197   ----------------------------------------
        BYTE   W06
// 198   ----------------------------------------
        BYTE   W06
// 199   ----------------------------------------
        BYTE   W06
// 200   ----------------------------------------
        BYTE   W06
// 201   ----------------------------------------
        BYTE   W06
// 202   ----------------------------------------
        BYTE   W06
// 203   ----------------------------------------
        BYTE   W01
        BYTE           N96     An1   v092
        BYTE           N96     Gn2   v072
        BYTE           N96     En2
        BYTE           N96     Cn3
        BYTE   W05
// 204   ----------------------------------------
        BYTE   W06
// 205   ----------------------------------------
        BYTE   W06
// 206   ----------------------------------------
        BYTE   W06
// 207   ----------------------------------------
        BYTE   W06
// 208   ----------------------------------------
        BYTE   W06
// 209   ----------------------------------------
        BYTE   W06
// 210   ----------------------------------------
        BYTE   W06
// 211   ----------------------------------------
        BYTE   W06
// 212   ----------------------------------------
        BYTE   W06
// 213   ----------------------------------------
        BYTE   W06
// 214   ----------------------------------------
        BYTE   W06
// 215   ----------------------------------------
        BYTE   W06
// 216   ----------------------------------------
        BYTE   W06
// 217   ----------------------------------------
        BYTE   W06
// 218   ----------------------------------------
        BYTE   W06
// 219   ----------------------------------------
        BYTE   W01
        BYTE                   Bn1   v092
        BYTE           N96     Gn2   v072
        BYTE           N96     Dn3
        BYTE   W05
// 220   ----------------------------------------
        BYTE   W06
// 221   ----------------------------------------
        BYTE   W06
// 222   ----------------------------------------
        BYTE   W06
// 223   ----------------------------------------
        BYTE   W06
// 224   ----------------------------------------
        BYTE   W06
// 225   ----------------------------------------
        BYTE   W06
// 226   ----------------------------------------
        BYTE   W06
// 227   ----------------------------------------
        BYTE   W06
// 228   ----------------------------------------
        BYTE   W06
// 229   ----------------------------------------
        BYTE   W06
// 230   ----------------------------------------
        BYTE   W06
// 231   ----------------------------------------
        BYTE   W06
// 232   ----------------------------------------
        BYTE   W06
// 233   ----------------------------------------
        BYTE   W06
// 234   ----------------------------------------
        BYTE   W06
// 235   ----------------------------------------
        BYTE   W01
        BYTE           N24     Cn2   v112
        BYTE           N96     Cn3   v072
        BYTE           N96     Gn2
        BYTE           N96     En3
        BYTE   W05
// 236   ----------------------------------------
        BYTE   W06
// 237   ----------------------------------------
        BYTE   W06
// 238   ----------------------------------------
        BYTE   W06
// 239   ----------------------------------------
        BYTE   W01
        BYTE           N24     Bn1   v112
        BYTE   W05
// 240   ----------------------------------------
        BYTE   W06
// 241   ----------------------------------------
        BYTE   W06
// 242   ----------------------------------------
        BYTE   W06
// 243   ----------------------------------------
        BYTE   W01
        BYTE                   An1
        BYTE   W05
// 244   ----------------------------------------
        BYTE   W06
// 245   ----------------------------------------
        BYTE   W06
// 246   ----------------------------------------
        BYTE   W06
// 247   ----------------------------------------
        BYTE   W01
        BYTE                   Gn1
        BYTE   W05
// 248   ----------------------------------------
        BYTE   W06
// 249   ----------------------------------------
        BYTE   W06
// 250   ----------------------------------------
        BYTE   W06
// 251   ----------------------------------------
        BYTE   W01
        BYTE           TIE     Dn2   v107
        BYTE           TIE     Fs3   v072
        BYTE           TIE     Dn3
        BYTE           TIE     An2
        BYTE   W05
// 252   ----------------------------------------
        BYTE   W06
// 253   ----------------------------------------
        BYTE   W06
// 254   ----------------------------------------
        BYTE   W06
// 255   ----------------------------------------
        BYTE   W06
// 256   ----------------------------------------
        BYTE   W06
// 257   ----------------------------------------
        BYTE   W06
// 258   ----------------------------------------
        BYTE   W06
// 259   ----------------------------------------
        BYTE   W06
// 260   ----------------------------------------
        BYTE   W06
// 261   ----------------------------------------
        BYTE   W06
// 262   ----------------------------------------
        BYTE   W06
// 263   ----------------------------------------
        BYTE   W06
// 264   ----------------------------------------
        BYTE   W06
// 265   ----------------------------------------
        BYTE   W06
// 266   ----------------------------------------
        BYTE   W06
// 267   ----------------------------------------
        BYTE   W06
// 268   ----------------------------------------
        BYTE   W06
// 269   ----------------------------------------
        BYTE   W06
// 270   ----------------------------------------
        BYTE   W06
// 271   ----------------------------------------
        BYTE   W06
// 272   ----------------------------------------
        BYTE   W06
// 273   ----------------------------------------
        BYTE   W06
// 274   ----------------------------------------
        BYTE   W06
// 275   ----------------------------------------
        BYTE   W01
        BYTE           EOT     Dn2
        BYTE                   An2
        BYTE                   Dn3
        BYTE                   Fs3
        BYTE           N24     En2   v127
        BYTE           N24     En1
        BYTE           N24     Gn3   v072
        BYTE           N24     Cn3
        BYTE   W05
// 276   ----------------------------------------
        BYTE   W06
// 277   ----------------------------------------
        BYTE   W06
// 278   ----------------------------------------
        BYTE   W06
// 279   ----------------------------------------
        BYTE   W01
        BYTE                   Fs2   v127
        BYTE           N24     Fs1
        BYTE           N24     An3   v072
        BYTE           N24     Dn3
        BYTE   W05
// 280   ----------------------------------------
        BYTE   W06
// 281   ----------------------------------------
        BYTE   W06
// 282   ----------------------------------------
        BYTE   W06
// 283   ----------------------------------------
        BYTE   W01
        BYTE           TIE     Gn2   v127
        BYTE           TIE     Gn3   v072
        BYTE           N72     Dn3
        BYTE   W05
// 284   ----------------------------------------
        BYTE   W06
// 285   ----------------------------------------
        BYTE   W06
// 286   ----------------------------------------
        BYTE   W06
// 287   ----------------------------------------
        BYTE   W06
// 288   ----------------------------------------
        BYTE   W06
// 289   ----------------------------------------
        BYTE   W06
// 290   ----------------------------------------
        BYTE   W06
// 291   ----------------------------------------
        BYTE   W06
// 292   ----------------------------------------
        BYTE   W06
// 293   ----------------------------------------
        BYTE   W06
// 294   ----------------------------------------
        BYTE   W06
// 295   ----------------------------------------
neverendingdream000_3_295:
        BYTE   W01
        BYTE           N24     Fs3   v072
        BYTE   W05
        BYTE   PEND
// 296   ----------------------------------------
        BYTE   W06
// 297   ----------------------------------------
        BYTE   W06
// 298   ----------------------------------------
        BYTE   W06
// 299   ----------------------------------------
neverendingdream000_3_299:
        BYTE   W01
        BYTE           N96     Dn3   v072
        BYTE   W05
        BYTE   PEND
// 300   ----------------------------------------
        BYTE   W06
// 301   ----------------------------------------
        BYTE   W06
// 302   ----------------------------------------
        BYTE   W06
// 303   ----------------------------------------
        BYTE   W06
// 304   ----------------------------------------
        BYTE   W06
// 305   ----------------------------------------
        BYTE   W06
// 306   ----------------------------------------
        BYTE   W06
// 307   ----------------------------------------
        BYTE   W06
// 308   ----------------------------------------
        BYTE   W06
// 309   ----------------------------------------
        BYTE   W06
// 310   ----------------------------------------
        BYTE   W06
// 311   ----------------------------------------
        BYTE   W06
// 312   ----------------------------------------
        BYTE   W06
// 313   ----------------------------------------
        BYTE   W06
// 314   ----------------------------------------
        BYTE   W06
// 315   ----------------------------------------
        BYTE   W01
        BYTE           EOT     Gn2
        BYTE                   Gn3
        BYTE           N96     Fs2   v117
        BYTE           N72     En3   v072
        BYTE           N96     Bn3
        BYTE           N96     An3
        BYTE   W05
// 316   ----------------------------------------
        BYTE   W06
// 317   ----------------------------------------
        BYTE   W06
// 318   ----------------------------------------
        BYTE   W06
// 319   ----------------------------------------
        BYTE   W06
// 320   ----------------------------------------
        BYTE   W06
// 321   ----------------------------------------
        BYTE   W06
// 322   ----------------------------------------
        BYTE   W06
// 323   ----------------------------------------
        BYTE   W06
// 324   ----------------------------------------
        BYTE   W06
// 325   ----------------------------------------
        BYTE   W06
// 326   ----------------------------------------
        BYTE   W06
// 327   ----------------------------------------
neverendingdream000_3_327:
        BYTE   W01
        BYTE           N24     En3   v072
        BYTE   W05
        BYTE   PEND
// 328   ----------------------------------------
        BYTE   W06
// 329   ----------------------------------------
        BYTE   W06
// 330   ----------------------------------------
        BYTE   W06
// 331   ----------------------------------------
        BYTE   W01
        BYTE           N96     Bn1   v117
        BYTE           N96     Ds3   v072
        BYTE           N96     Fs3
        BYTE   W05
// 332   ----------------------------------------
        BYTE   W06
// 333   ----------------------------------------
        BYTE   W06
// 334   ----------------------------------------
        BYTE   W06
// 335   ----------------------------------------
        BYTE   W06
// 336   ----------------------------------------
        BYTE   W06
// 337   ----------------------------------------
        BYTE   W06
// 338   ----------------------------------------
        BYTE   W06
// 339   ----------------------------------------
        BYTE   W06
// 340   ----------------------------------------
        BYTE   W06
// 341   ----------------------------------------
        BYTE   W06
// 342   ----------------------------------------
        BYTE   W06
// 343   ----------------------------------------
        BYTE   W06
// 344   ----------------------------------------
        BYTE   W06
// 345   ----------------------------------------
        BYTE   W06
// 346   ----------------------------------------
        BYTE   W06
// 347   ----------------------------------------
        BYTE   W01
        BYTE           TIE     En2   v117
        BYTE           N96     En3   v072
        BYTE           TIE     Gn3
        BYTE           TIE     Bn2
        BYTE   W05
// 348   ----------------------------------------
        BYTE   W06
// 349   ----------------------------------------
        BYTE   W06
// 350   ----------------------------------------
        BYTE   W06
// 351   ----------------------------------------
        BYTE   W06
// 352   ----------------------------------------
        BYTE   W06
// 353   ----------------------------------------
        BYTE   W06
// 354   ----------------------------------------
        BYTE   W06
// 355   ----------------------------------------
        BYTE   W06
// 356   ----------------------------------------
        BYTE   W06
// 357   ----------------------------------------
        BYTE   W06
// 358   ----------------------------------------
        BYTE   W06
// 359   ----------------------------------------
        BYTE   W06
// 360   ----------------------------------------
        BYTE   W06
// 361   ----------------------------------------
        BYTE   W06
// 362   ----------------------------------------
        BYTE   W06
// 363   ----------------------------------------
        BYTE   W01
        BYTE           N96     Dn2   v117
        BYTE           N96     Dn3   v072
        BYTE   W01
        BYTE           EOT     En2
        BYTE   W04
// 364   ----------------------------------------
        BYTE   W06
// 365   ----------------------------------------
        BYTE   W06
// 366   ----------------------------------------
        BYTE   W06
// 367   ----------------------------------------
        BYTE   W06
// 368   ----------------------------------------
        BYTE   W06
// 369   ----------------------------------------
        BYTE   W06
// 370   ----------------------------------------
        BYTE   W06
// 371   ----------------------------------------
        BYTE   W06
// 372   ----------------------------------------
        BYTE   W06
// 373   ----------------------------------------
        BYTE   W06
// 374   ----------------------------------------
        BYTE   W06
// 375   ----------------------------------------
        BYTE   W06
// 376   ----------------------------------------
        BYTE   W06
// 377   ----------------------------------------
        BYTE   W06
// 378   ----------------------------------------
        BYTE   W06
// 379   ----------------------------------------
        BYTE   W01
        BYTE                   Bn2
        BYTE           N96     Cn2   v117
        BYTE           N96     En3   v072
        BYTE           N96     Cn3
        BYTE           N96     Gn2
        BYTE   W05
// 380   ----------------------------------------
        BYTE   W06
// 381   ----------------------------------------
        BYTE   W06
// 382   ----------------------------------------
        BYTE   W06
// 383   ----------------------------------------
        BYTE   W06
// 384   ----------------------------------------
        BYTE   W06
// 385   ----------------------------------------
        BYTE   W06
// 386   ----------------------------------------
        BYTE   W06
// 387   ----------------------------------------
        BYTE   W06
// 388   ----------------------------------------
        BYTE   W06
// 389   ----------------------------------------
        BYTE   W06
// 390   ----------------------------------------
        BYTE   W06
// 391   ----------------------------------------
        BYTE   W06
// 392   ----------------------------------------
        BYTE   W06
// 393   ----------------------------------------
        BYTE   W06
// 394   ----------------------------------------
        BYTE   W06
// 395   ----------------------------------------
        BYTE   W01
        BYTE           EOT     Gn3
        BYTE           N96     Dn2   v117
        BYTE           N96     An2   v072
        BYTE           N48     Gn3
        BYTE           N48     Cn3
        BYTE   W05
// 396   ----------------------------------------
        BYTE   W06
// 397   ----------------------------------------
        BYTE   W06
// 398   ----------------------------------------
        BYTE   W06
// 399   ----------------------------------------
        BYTE   W06
// 400   ----------------------------------------
        BYTE   W06
// 401   ----------------------------------------
        BYTE   W06
// 402   ----------------------------------------
        BYTE   W06
// 403   ----------------------------------------
        BYTE   W01
        BYTE                   Fs3
        BYTE           N48     Dn3
        BYTE   W05
// 404   ----------------------------------------
        BYTE   W06
// 405   ----------------------------------------
        BYTE   W06
// 406   ----------------------------------------
        BYTE   W06
// 407   ----------------------------------------
        BYTE   W06
// 408   ----------------------------------------
        BYTE   W06
// 409   ----------------------------------------
        BYTE   W06
// 410   ----------------------------------------
        BYTE   W06
// 411   ----------------------------------------
        BYTE   W01
        BYTE           TIE     Gn2   v117
        BYTE           TIE     Gn3   v072
        BYTE           N72     Dn3
        BYTE   W05
// 412   ----------------------------------------
        BYTE   W06
// 413   ----------------------------------------
        BYTE   W06
// 414   ----------------------------------------
        BYTE   W06
// 415   ----------------------------------------
        BYTE   W06
// 416   ----------------------------------------
        BYTE   W06
// 417   ----------------------------------------
        BYTE   W06
// 418   ----------------------------------------
        BYTE   W06
// 419   ----------------------------------------
        BYTE   W06
// 420   ----------------------------------------
        BYTE   W06
// 421   ----------------------------------------
        BYTE   W06
// 422   ----------------------------------------
        BYTE   W06
// 423   ----------------------------------------
        BYTE   PATT
         POIN2  neverendingdream000_3_295
// 424   ----------------------------------------
        BYTE   W06
// 425   ----------------------------------------
        BYTE   W06
// 426   ----------------------------------------
        BYTE   W06
// 427   ----------------------------------------
        BYTE   PATT
         POIN2  neverendingdream000_3_299
// 428   ----------------------------------------
        BYTE   W06
// 429   ----------------------------------------
        BYTE   W06
// 430   ----------------------------------------
        BYTE   W06
// 431   ----------------------------------------
        BYTE   W06
// 432   ----------------------------------------
        BYTE   W06
// 433   ----------------------------------------
        BYTE   W06
// 434   ----------------------------------------
        BYTE   W06
// 435   ----------------------------------------
        BYTE   W06
// 436   ----------------------------------------
        BYTE   W06
// 437   ----------------------------------------
        BYTE   W06
// 438   ----------------------------------------
        BYTE   W06
// 439   ----------------------------------------
        BYTE   W06
// 440   ----------------------------------------
        BYTE   W06
// 441   ----------------------------------------
        BYTE   W06
// 442   ----------------------------------------
        BYTE   W06
// 443   ----------------------------------------
        BYTE   W01
        BYTE           EOT     Gn2
        BYTE                   Gn3
        BYTE           N96     Fs2   v117
        BYTE           TIE     Bn3   v072
        BYTE           N72     An3
        BYTE           N72     En3
        BYTE   W05
// 444   ----------------------------------------
        BYTE   W06
// 445   ----------------------------------------
        BYTE   W06
// 446   ----------------------------------------
        BYTE   W06
// 447   ----------------------------------------
        BYTE   W06
// 448   ----------------------------------------
        BYTE   W06
// 449   ----------------------------------------
        BYTE   W06
// 450   ----------------------------------------
        BYTE   W06
// 451   ----------------------------------------
        BYTE   W06
// 452   ----------------------------------------
        BYTE   W06
// 453   ----------------------------------------
        BYTE   W06
// 454   ----------------------------------------
        BYTE   W06
// 455   ----------------------------------------
        BYTE   PATT
         POIN2  neverendingdream000_3_327
// 456   ----------------------------------------
        BYTE   W06
// 457   ----------------------------------------
        BYTE   W06
// 458   ----------------------------------------
        BYTE   W06
// 459   ----------------------------------------
        BYTE   W01
        BYTE           N96     Bn1   v117
        BYTE           N48     Fs3   v072
        BYTE           N48     Ds3
        BYTE   W05
// 460   ----------------------------------------
        BYTE   W06
// 461   ----------------------------------------
        BYTE   W06
// 462   ----------------------------------------
        BYTE   W06
// 463   ----------------------------------------
        BYTE   W06
// 464   ----------------------------------------
        BYTE   W06
// 465   ----------------------------------------
        BYTE   W06
// 466   ----------------------------------------
        BYTE   W06
// 467   ----------------------------------------
        BYTE   W01
        BYTE                   Bn2
        BYTE   W05
// 468   ----------------------------------------
        BYTE   W06
// 469   ----------------------------------------
        BYTE   W01
        BYTE           N36     Ds3
        BYTE   W05
// 470   ----------------------------------------
        BYTE   W06
// 471   ----------------------------------------
        BYTE   W01
        BYTE           EOT     Bn3
        BYTE           N24     Fs3
        BYTE   W05
// 472   ----------------------------------------
        BYTE   W06
// 473   ----------------------------------------
        BYTE   W01
        BYTE           N12     Bn3
        BYTE   W05
// 474   ----------------------------------------
        BYTE   W06
// 475   ----------------------------------------
        BYTE   W01
        BYTE           N96     En2   v117
        BYTE           N96     En3   v072
        BYTE           N96     Bn2
        BYTE           TIE     Gn3
        BYTE   W05
// 476   ----------------------------------------
        BYTE   W06
// 477   ----------------------------------------
        BYTE   W06
// 478   ----------------------------------------
        BYTE   W06
// 479   ----------------------------------------
        BYTE   W06
// 480   ----------------------------------------
        BYTE   W06
// 481   ----------------------------------------
        BYTE   W06
// 482   ----------------------------------------
        BYTE   W06
// 483   ----------------------------------------
        BYTE   W06
// 484   ----------------------------------------
        BYTE   W06
// 485   ----------------------------------------
        BYTE   W06
// 486   ----------------------------------------
        BYTE   W06
// 487   ----------------------------------------
        BYTE   W06
// 488   ----------------------------------------
        BYTE   W06
// 489   ----------------------------------------
        BYTE   W06
// 490   ----------------------------------------
        BYTE   W06
// 491   ----------------------------------------
        BYTE   W01
        BYTE           N96     Dn2   v117
        BYTE           N96     Bn2   v072
        BYTE           N96     Dn3
        BYTE   W05
// 492   ----------------------------------------
        BYTE   W06
// 493   ----------------------------------------
        BYTE   W06
// 494   ----------------------------------------
        BYTE   W06
// 495   ----------------------------------------
        BYTE   W06
// 496   ----------------------------------------
        BYTE   W06
// 497   ----------------------------------------
        BYTE   W06
// 498   ----------------------------------------
        BYTE   W06
// 499   ----------------------------------------
        BYTE   W06
// 500   ----------------------------------------
        BYTE   W06
// 501   ----------------------------------------
        BYTE   W06
// 502   ----------------------------------------
        BYTE   W06
// 503   ----------------------------------------
        BYTE   W06
// 504   ----------------------------------------
        BYTE   W06
// 505   ----------------------------------------
        BYTE   W06
// 506   ----------------------------------------
        BYTE   W06
// 507   ----------------------------------------
        BYTE   W01
        BYTE           EOT     Gn3
        BYTE           N96     Cn2   v117
        BYTE           N96     Bn2   v072
        BYTE           N96     En3
        BYTE           N96     Gn3
        BYTE   W05
// 508   ----------------------------------------
        BYTE   W06
// 509   ----------------------------------------
        BYTE   W06
// 510   ----------------------------------------
        BYTE   W06
// 511   ----------------------------------------
        BYTE   W06
// 512   ----------------------------------------
        BYTE   W06
// 513   ----------------------------------------
        BYTE   W06
// 514   ----------------------------------------
        BYTE   W06
// 515   ----------------------------------------
        BYTE   W06
// 516   ----------------------------------------
        BYTE   W06
// 517   ----------------------------------------
        BYTE   W06
// 518   ----------------------------------------
        BYTE   W06
// 519   ----------------------------------------
        BYTE   W06
// 520   ----------------------------------------
        BYTE   W06
// 521   ----------------------------------------
        BYTE   W06
// 522   ----------------------------------------
        BYTE   W06
// 523   ----------------------------------------
        BYTE   W01
        BYTE                   Cn2   v117
        BYTE           N96     An2   v072
        BYTE           N96     Ds3
        BYTE           TIE     Gn3
        BYTE   W05
// 524   ----------------------------------------
        BYTE   W06
// 525   ----------------------------------------
        BYTE   W06
// 526   ----------------------------------------
        BYTE   W06
// 527   ----------------------------------------
        BYTE   W06
// 528   ----------------------------------------
        BYTE   W06
// 529   ----------------------------------------
        BYTE   W06
// 530   ----------------------------------------
        BYTE   W06
// 531   ----------------------------------------
        BYTE   W06
// 532   ----------------------------------------
        BYTE   W06
// 533   ----------------------------------------
        BYTE   W06
// 534   ----------------------------------------
        BYTE   W06
// 535   ----------------------------------------
        BYTE   W06
// 536   ----------------------------------------
        BYTE   W06
// 537   ----------------------------------------
        BYTE   W06
// 538   ----------------------------------------
        BYTE   W06
// 539   ----------------------------------------
        BYTE   W01
        BYTE           N96     En2   v117
        BYTE           N96     En3   v072
        BYTE           N96     Bn2
        BYTE   W05
// 540   ----------------------------------------
        BYTE   W06
// 541   ----------------------------------------
        BYTE   W06
// 542   ----------------------------------------
        BYTE   W06
// 543   ----------------------------------------
        BYTE   W06
// 544   ----------------------------------------
        BYTE   W06
// 545   ----------------------------------------
        BYTE   W06
// 546   ----------------------------------------
        BYTE   W06
// 547   ----------------------------------------
        BYTE   W06
// 548   ----------------------------------------
        BYTE   W06
// 549   ----------------------------------------
        BYTE   W06
// 550   ----------------------------------------
        BYTE   W06
// 551   ----------------------------------------
        BYTE   W06
// 552   ----------------------------------------
        BYTE   W06
// 553   ----------------------------------------
        BYTE   W06
// 554   ----------------------------------------
        BYTE   W06
// 555   ----------------------------------------
        BYTE   W01
        BYTE           EOT     Gn3
        BYTE           N92     Dn2   v117   gtp3
        BYTE                   Bn2   v072
        BYTE           N92     Fs3   v072   gtp3
        BYTE   W05
// 556   ----------------------------------------
        BYTE   W06
// 557   ----------------------------------------
        BYTE   W06
// 558   ----------------------------------------
        BYTE   W06
// 559   ----------------------------------------
        BYTE   W06
// 560   ----------------------------------------
        BYTE   W06
// 561   ----------------------------------------
        BYTE   W06
// 562   ----------------------------------------
        BYTE   W06
// 563   ----------------------------------------
        BYTE   W01
        BYTE           N44     Bn3   v072   gtp3
        BYTE   W05
// 564   ----------------------------------------
        BYTE   W06
// 565   ----------------------------------------
        BYTE   W06
// 566   ----------------------------------------
        BYTE   W06
// 567   ----------------------------------------
        BYTE   W06
// 568   ----------------------------------------
        BYTE   W06
// 569   ----------------------------------------
        BYTE   W06
// 570   ----------------------------------------
        BYTE   W06
// 571   ----------------------------------------
        BYTE   W01
        BYTE           N96     Cn2   v117
        BYTE           N96     Gn3   v072
        BYTE           N96     En3
        BYTE           N96     Bn2
        BYTE   W05
// 572   ----------------------------------------
        BYTE   W06
// 573   ----------------------------------------
        BYTE   W06
// 574   ----------------------------------------
        BYTE   W06
// 575   ----------------------------------------
        BYTE   W06
// 576   ----------------------------------------
        BYTE   W06
// 577   ----------------------------------------
        BYTE   W06
// 578   ----------------------------------------
        BYTE   W06
// 579   ----------------------------------------
        BYTE   W06
// 580   ----------------------------------------
        BYTE   W06
// 581   ----------------------------------------
        BYTE   W06
// 582   ----------------------------------------
        BYTE   W06
// 583   ----------------------------------------
        BYTE   W06
// 584   ----------------------------------------
        BYTE   W06
// 585   ----------------------------------------
        BYTE   W06
// 586   ----------------------------------------
        BYTE   W06
// 587   ----------------------------------------
        BYTE   W06
// 588   ----------------------------------------
        BYTE   W06
// 589   ----------------------------------------
        BYTE   W06
// 590   ----------------------------------------
        BYTE   W06
// 591   ----------------------------------------
        BYTE   W06
// 592   ----------------------------------------
        BYTE   W06
// 593   ----------------------------------------
        BYTE   W06
// 594   ----------------------------------------
        BYTE   W06
// 595   ----------------------------------------
        BYTE   W06
// 596   ----------------------------------------
        BYTE   W06
// 597   ----------------------------------------
        BYTE   W06
// 598   ----------------------------------------
        BYTE   W06
// 599   ----------------------------------------
        BYTE   W06
// 600   ----------------------------------------
        BYTE   W06
// 601   ----------------------------------------
        BYTE   W06
// 602   ----------------------------------------
        BYTE   W06
// 603   ----------------------------------------
        BYTE   GoTo
         POIN2  neverendingdream000_3_LOOP
        BYTE   FINE

//****************** Track 4 (Midi-Chn.4) ******************//

neverendingdream000_4:
        BYTE   KEYSH   neverendingdream000_key+0
// 000   ----------------------------------------
        BYTE           VOICE   0
        BYTE   W03
        BYTE           VOL     28
        BYTE   W01
        BYTE           PAN     c_v-24
        BYTE   W02
// 001   ----------------------------------------
        BYTE   W06
// 002   ----------------------------------------
        BYTE   W06
// 003   ----------------------------------------
        BYTE   W06
// 004   ----------------------------------------
        BYTE   W06
// 005   ----------------------------------------
        BYTE   W06
// 006   ----------------------------------------
        BYTE   W06
// 007   ----------------------------------------
        BYTE   W06
// 008   ----------------------------------------
        BYTE   W06
// 009   ----------------------------------------
        BYTE   W06
// 010   ----------------------------------------
        BYTE   W05
neverendingdream000_4_LOOP:
        BYTE   W01
// 011   ----------------------------------------
        BYTE   W06
// 012   ----------------------------------------
        BYTE   W06
// 013   ----------------------------------------
        BYTE   W06
// 014   ----------------------------------------
        BYTE   W06
// 015   ----------------------------------------
        BYTE   W06
// 016   ----------------------------------------
        BYTE   W06
// 017   ----------------------------------------
        BYTE   W06
// 018   ----------------------------------------
        BYTE   W06
// 019   ----------------------------------------
        BYTE   W06
// 020   ----------------------------------------
        BYTE   W06
// 021   ----------------------------------------
        BYTE   W06
// 022   ----------------------------------------
        BYTE   W06
// 023   ----------------------------------------
        BYTE   W06
// 024   ----------------------------------------
        BYTE   W06
// 025   ----------------------------------------
        BYTE   W06
// 026   ----------------------------------------
        BYTE   W06
// 027   ----------------------------------------
        BYTE   W06
// 028   ----------------------------------------
        BYTE   W06
// 029   ----------------------------------------
        BYTE   W06
// 030   ----------------------------------------
        BYTE   W06
// 031   ----------------------------------------
        BYTE   W06
// 032   ----------------------------------------
        BYTE   W06
// 033   ----------------------------------------
        BYTE   W06
// 034   ----------------------------------------
        BYTE   W06
// 035   ----------------------------------------
        BYTE   W06
// 036   ----------------------------------------
        BYTE   W06
// 037   ----------------------------------------
        BYTE   W06
// 038   ----------------------------------------
        BYTE   W06
// 039   ----------------------------------------
        BYTE   W06
// 040   ----------------------------------------
        BYTE   W06
// 041   ----------------------------------------
        BYTE   W06
// 042   ----------------------------------------
        BYTE   W06
// 043   ----------------------------------------
        BYTE   W06
// 044   ----------------------------------------
        BYTE   W06
// 045   ----------------------------------------
        BYTE   W06
// 046   ----------------------------------------
        BYTE   W06
// 047   ----------------------------------------
        BYTE   W06
// 048   ----------------------------------------
        BYTE   W06
// 049   ----------------------------------------
        BYTE   W06
// 050   ----------------------------------------
        BYTE   W06
// 051   ----------------------------------------
        BYTE   W06
// 052   ----------------------------------------
        BYTE   W06
// 053   ----------------------------------------
        BYTE   W06
// 054   ----------------------------------------
        BYTE   W06
// 055   ----------------------------------------
        BYTE   W06
// 056   ----------------------------------------
        BYTE   W06
// 057   ----------------------------------------
        BYTE   W06
// 058   ----------------------------------------
        BYTE   W06
// 059   ----------------------------------------
        BYTE   W06
// 060   ----------------------------------------
        BYTE   W06
// 061   ----------------------------------------
        BYTE   W06
// 062   ----------------------------------------
        BYTE   W06
// 063   ----------------------------------------
        BYTE   W06
// 064   ----------------------------------------
        BYTE   W06
// 065   ----------------------------------------
        BYTE   W06
// 066   ----------------------------------------
        BYTE   W06
// 067   ----------------------------------------
        BYTE   W06
// 068   ----------------------------------------
        BYTE   W06
// 069   ----------------------------------------
        BYTE   W06
// 070   ----------------------------------------
        BYTE   W06
// 071   ----------------------------------------
        BYTE   W06
// 072   ----------------------------------------
        BYTE   W06
// 073   ----------------------------------------
        BYTE   W06
// 074   ----------------------------------------
        BYTE   W06
// 075   ----------------------------------------
        BYTE   W06
// 076   ----------------------------------------
        BYTE   W06
// 077   ----------------------------------------
        BYTE   W06
// 078   ----------------------------------------
        BYTE   W06
// 079   ----------------------------------------
        BYTE   W06
// 080   ----------------------------------------
        BYTE   W06
// 081   ----------------------------------------
        BYTE   W06
// 082   ----------------------------------------
        BYTE   W06
// 083   ----------------------------------------
        BYTE   W06
// 084   ----------------------------------------
        BYTE   W06
// 085   ----------------------------------------
        BYTE   W06
// 086   ----------------------------------------
        BYTE   W06
// 087   ----------------------------------------
        BYTE   W06
// 088   ----------------------------------------
        BYTE   W06
// 089   ----------------------------------------
        BYTE   W06
// 090   ----------------------------------------
        BYTE   W06
// 091   ----------------------------------------
        BYTE   W06
// 092   ----------------------------------------
        BYTE   W06
// 093   ----------------------------------------
        BYTE   W06
// 094   ----------------------------------------
        BYTE   W06
// 095   ----------------------------------------
        BYTE   W06
// 096   ----------------------------------------
        BYTE   W06
// 097   ----------------------------------------
        BYTE   W06
// 098   ----------------------------------------
        BYTE   W06
// 099   ----------------------------------------
        BYTE   W06
// 100   ----------------------------------------
        BYTE   W06
// 101   ----------------------------------------
        BYTE   W06
// 102   ----------------------------------------
        BYTE   W06
// 103   ----------------------------------------
        BYTE   W06
// 104   ----------------------------------------
        BYTE   W06
// 105   ----------------------------------------
        BYTE   W06
// 106   ----------------------------------------
        BYTE   W06
// 107   ----------------------------------------
        BYTE   W06
// 108   ----------------------------------------
        BYTE   W06
// 109   ----------------------------------------
        BYTE   W06
// 110   ----------------------------------------
        BYTE   W06
// 111   ----------------------------------------
        BYTE   W06
// 112   ----------------------------------------
        BYTE   W06
// 113   ----------------------------------------
        BYTE   W06
// 114   ----------------------------------------
        BYTE   W06
// 115   ----------------------------------------
        BYTE   W06
// 116   ----------------------------------------
        BYTE   W06
// 117   ----------------------------------------
        BYTE   W06
// 118   ----------------------------------------
        BYTE   W06
// 119   ----------------------------------------
        BYTE   W06
// 120   ----------------------------------------
        BYTE   W06
// 121   ----------------------------------------
        BYTE   W06
// 122   ----------------------------------------
        BYTE   W06
// 123   ----------------------------------------
        BYTE   W06
// 124   ----------------------------------------
        BYTE   W06
// 125   ----------------------------------------
        BYTE   W06
// 126   ----------------------------------------
        BYTE   W06
// 127   ----------------------------------------
        BYTE   W06
// 128   ----------------------------------------
        BYTE   W06
// 129   ----------------------------------------
        BYTE   W06
// 130   ----------------------------------------
        BYTE   W06
// 131   ----------------------------------------
        BYTE   W06
// 132   ----------------------------------------
        BYTE   W06
// 133   ----------------------------------------
        BYTE   W06
// 134   ----------------------------------------
        BYTE   W06
// 135   ----------------------------------------
        BYTE   W06
// 136   ----------------------------------------
        BYTE   W06
// 137   ----------------------------------------
        BYTE   W06
// 138   ----------------------------------------
        BYTE   W06
// 139   ----------------------------------------
        BYTE   W06
// 140   ----------------------------------------
        BYTE   W06
// 141   ----------------------------------------
        BYTE   W06
// 142   ----------------------------------------
        BYTE   W06
// 143   ----------------------------------------
        BYTE   W06
// 144   ----------------------------------------
        BYTE   W06
// 145   ----------------------------------------
        BYTE   W06
// 146   ----------------------------------------
        BYTE   W06
// 147   ----------------------------------------
        BYTE   W06
// 148   ----------------------------------------
        BYTE   W06
// 149   ----------------------------------------
        BYTE   W06
// 150   ----------------------------------------
        BYTE   W06
// 151   ----------------------------------------
        BYTE   W06
// 152   ----------------------------------------
        BYTE   W06
// 153   ----------------------------------------
        BYTE   W06
// 154   ----------------------------------------
        BYTE   W06
// 155   ----------------------------------------
        BYTE   W06
// 156   ----------------------------------------
        BYTE   W06
// 157   ----------------------------------------
        BYTE   W06
// 158   ----------------------------------------
        BYTE   W06
// 159   ----------------------------------------
        BYTE   W06
// 160   ----------------------------------------
        BYTE   W06
// 161   ----------------------------------------
        BYTE   W06
// 162   ----------------------------------------
        BYTE   W06
// 163   ----------------------------------------
        BYTE   W06
// 164   ----------------------------------------
        BYTE   W06
// 165   ----------------------------------------
        BYTE   W06
// 166   ----------------------------------------
        BYTE   W06
// 167   ----------------------------------------
        BYTE   W06
// 168   ----------------------------------------
        BYTE   W06
// 169   ----------------------------------------
        BYTE   W06
// 170   ----------------------------------------
        BYTE   W06
// 171   ----------------------------------------
        BYTE   W06
// 172   ----------------------------------------
        BYTE   W06
// 173   ----------------------------------------
        BYTE   W06
// 174   ----------------------------------------
        BYTE   W06
// 175   ----------------------------------------
        BYTE   W06
// 176   ----------------------------------------
        BYTE   W06
// 177   ----------------------------------------
        BYTE   W06
// 178   ----------------------------------------
        BYTE   W06
// 179   ----------------------------------------
        BYTE   W06
// 180   ----------------------------------------
        BYTE   W06
// 181   ----------------------------------------
        BYTE   W06
// 182   ----------------------------------------
        BYTE   W06
// 183   ----------------------------------------
        BYTE   W06
// 184   ----------------------------------------
        BYTE   W06
// 185   ----------------------------------------
        BYTE   W06
// 186   ----------------------------------------
        BYTE   W06
// 187   ----------------------------------------
        BYTE   W06
// 188   ----------------------------------------
        BYTE   W06
// 189   ----------------------------------------
        BYTE   W06
// 190   ----------------------------------------
        BYTE   W06
// 191   ----------------------------------------
        BYTE   W06
// 192   ----------------------------------------
        BYTE   W06
// 193   ----------------------------------------
        BYTE   W06
// 194   ----------------------------------------
        BYTE   W06
// 195   ----------------------------------------
        BYTE   W06
// 196   ----------------------------------------
        BYTE   W06
// 197   ----------------------------------------
        BYTE   W06
// 198   ----------------------------------------
        BYTE   W06
// 199   ----------------------------------------
        BYTE   W06
// 200   ----------------------------------------
        BYTE   W06
// 201   ----------------------------------------
        BYTE   W06
// 202   ----------------------------------------
        BYTE   W06
// 203   ----------------------------------------
        BYTE   W06
// 204   ----------------------------------------
        BYTE   W06
// 205   ----------------------------------------
        BYTE   W06
// 206   ----------------------------------------
        BYTE   W06
// 207   ----------------------------------------
        BYTE   W06
// 208   ----------------------------------------
        BYTE   W06
// 209   ----------------------------------------
        BYTE   W06
// 210   ----------------------------------------
        BYTE   W06
// 211   ----------------------------------------
        BYTE   W06
// 212   ----------------------------------------
        BYTE   W06
// 213   ----------------------------------------
        BYTE   W06
// 214   ----------------------------------------
        BYTE   W06
// 215   ----------------------------------------
        BYTE   W06
// 216   ----------------------------------------
        BYTE   W06
// 217   ----------------------------------------
        BYTE   W06
// 218   ----------------------------------------
        BYTE   W06
// 219   ----------------------------------------
        BYTE   W06
// 220   ----------------------------------------
        BYTE   W06
// 221   ----------------------------------------
        BYTE   W06
// 222   ----------------------------------------
        BYTE   W06
// 223   ----------------------------------------
        BYTE   W06
// 224   ----------------------------------------
        BYTE   W06
// 225   ----------------------------------------
        BYTE   W06
// 226   ----------------------------------------
        BYTE   W06
// 227   ----------------------------------------
        BYTE   W06
// 228   ----------------------------------------
        BYTE   W06
// 229   ----------------------------------------
        BYTE   W06
// 230   ----------------------------------------
        BYTE   W06
// 231   ----------------------------------------
        BYTE   W06
// 232   ----------------------------------------
        BYTE   W06
// 233   ----------------------------------------
        BYTE   W06
// 234   ----------------------------------------
        BYTE   W06
// 235   ----------------------------------------
        BYTE   W06
// 236   ----------------------------------------
        BYTE   W06
// 237   ----------------------------------------
        BYTE   W06
// 238   ----------------------------------------
        BYTE   W06
// 239   ----------------------------------------
        BYTE   W06
// 240   ----------------------------------------
        BYTE   W06
// 241   ----------------------------------------
        BYTE   W06
// 242   ----------------------------------------
        BYTE   W06
// 243   ----------------------------------------
        BYTE   W06
// 244   ----------------------------------------
        BYTE   W06
// 245   ----------------------------------------
        BYTE   W06
// 246   ----------------------------------------
        BYTE   W06
// 247   ----------------------------------------
        BYTE   W06
// 248   ----------------------------------------
        BYTE   W06
// 249   ----------------------------------------
        BYTE   W06
// 250   ----------------------------------------
        BYTE   W06
// 251   ----------------------------------------
        BYTE   W06
// 252   ----------------------------------------
        BYTE   W06
// 253   ----------------------------------------
        BYTE   W06
// 254   ----------------------------------------
        BYTE   W06
// 255   ----------------------------------------
        BYTE   W06
// 256   ----------------------------------------
        BYTE   W06
// 257   ----------------------------------------
        BYTE   W06
// 258   ----------------------------------------
        BYTE   W06
// 259   ----------------------------------------
        BYTE   W06
// 260   ----------------------------------------
        BYTE   W06
// 261   ----------------------------------------
        BYTE   W06
// 262   ----------------------------------------
        BYTE   W06
// 263   ----------------------------------------
        BYTE   W06
// 264   ----------------------------------------
        BYTE   W06
// 265   ----------------------------------------
        BYTE   W06
// 266   ----------------------------------------
        BYTE   W06
// 267   ----------------------------------------
        BYTE   W06
// 268   ----------------------------------------
        BYTE   W06
// 269   ----------------------------------------
        BYTE   W06
// 270   ----------------------------------------
        BYTE   W06
// 271   ----------------------------------------
        BYTE   W06
// 272   ----------------------------------------
        BYTE   W06
// 273   ----------------------------------------
        BYTE   W06
// 274   ----------------------------------------
        BYTE   W06
// 275   ----------------------------------------
        BYTE   W06
// 276   ----------------------------------------
        BYTE   W06
// 277   ----------------------------------------
        BYTE   W06
// 278   ----------------------------------------
        BYTE   W06
// 279   ----------------------------------------
        BYTE   W06
// 280   ----------------------------------------
        BYTE   W06
// 281   ----------------------------------------
        BYTE   W06
// 282   ----------------------------------------
        BYTE   W06
// 283   ----------------------------------------
        BYTE   W06
// 284   ----------------------------------------
        BYTE   W06
// 285   ----------------------------------------
        BYTE   W06
// 286   ----------------------------------------
        BYTE   W06
// 287   ----------------------------------------
        BYTE   W06
// 288   ----------------------------------------
        BYTE   W06
// 289   ----------------------------------------
        BYTE   W06
// 290   ----------------------------------------
        BYTE   W06
// 291   ----------------------------------------
        BYTE   W06
// 292   ----------------------------------------
        BYTE   W06
// 293   ----------------------------------------
        BYTE   W06
// 294   ----------------------------------------
        BYTE   W06
// 295   ----------------------------------------
        BYTE   W06
// 296   ----------------------------------------
        BYTE   W06
// 297   ----------------------------------------
        BYTE   W06
// 298   ----------------------------------------
        BYTE   W06
// 299   ----------------------------------------
        BYTE   W06
// 300   ----------------------------------------
        BYTE   W06
// 301   ----------------------------------------
        BYTE   W06
// 302   ----------------------------------------
        BYTE   W06
// 303   ----------------------------------------
        BYTE   W06
// 304   ----------------------------------------
        BYTE   W06
// 305   ----------------------------------------
        BYTE   W06
// 306   ----------------------------------------
        BYTE   W06
// 307   ----------------------------------------
        BYTE   W06
// 308   ----------------------------------------
        BYTE   W06
// 309   ----------------------------------------
        BYTE   W06
// 310   ----------------------------------------
        BYTE   W06
// 311   ----------------------------------------
        BYTE   W06
// 312   ----------------------------------------
        BYTE   W06
// 313   ----------------------------------------
        BYTE   W06
// 314   ----------------------------------------
        BYTE   W06
// 315   ----------------------------------------
        BYTE   W06
// 316   ----------------------------------------
        BYTE   W06
// 317   ----------------------------------------
        BYTE   W06
// 318   ----------------------------------------
        BYTE   W06
// 319   ----------------------------------------
        BYTE   W06
// 320   ----------------------------------------
        BYTE   W06
// 321   ----------------------------------------
        BYTE   W06
// 322   ----------------------------------------
        BYTE   W06
// 323   ----------------------------------------
        BYTE   W06
// 324   ----------------------------------------
        BYTE   W06
// 325   ----------------------------------------
        BYTE   W06
// 326   ----------------------------------------
        BYTE   W06
// 327   ----------------------------------------
        BYTE   W06
// 328   ----------------------------------------
        BYTE   W06
// 329   ----------------------------------------
        BYTE   W06
// 330   ----------------------------------------
        BYTE   W06
// 331   ----------------------------------------
        BYTE   W06
// 332   ----------------------------------------
        BYTE   W06
// 333   ----------------------------------------
        BYTE   W06
// 334   ----------------------------------------
        BYTE   W06
// 335   ----------------------------------------
        BYTE   W06
// 336   ----------------------------------------
        BYTE   W06
// 337   ----------------------------------------
        BYTE   W06
// 338   ----------------------------------------
        BYTE   W06
// 339   ----------------------------------------
        BYTE   W06
// 340   ----------------------------------------
        BYTE   W06
// 341   ----------------------------------------
        BYTE   W06
// 342   ----------------------------------------
        BYTE   W06
// 343   ----------------------------------------
        BYTE   W06
// 344   ----------------------------------------
        BYTE   W06
// 345   ----------------------------------------
        BYTE   W06
// 346   ----------------------------------------
        BYTE   W06
// 347   ----------------------------------------
        BYTE   W06
// 348   ----------------------------------------
        BYTE   W06
// 349   ----------------------------------------
        BYTE   W06
// 350   ----------------------------------------
        BYTE   W06
// 351   ----------------------------------------
        BYTE   W06
// 352   ----------------------------------------
        BYTE   W06
// 353   ----------------------------------------
        BYTE   W06
// 354   ----------------------------------------
        BYTE   W06
// 355   ----------------------------------------
        BYTE   W06
// 356   ----------------------------------------
        BYTE   W06
// 357   ----------------------------------------
        BYTE   W06
// 358   ----------------------------------------
        BYTE   W06
// 359   ----------------------------------------
        BYTE   W06
// 360   ----------------------------------------
        BYTE   W06
// 361   ----------------------------------------
        BYTE   W06
// 362   ----------------------------------------
        BYTE   W06
// 363   ----------------------------------------
        BYTE   W06
// 364   ----------------------------------------
        BYTE   W06
// 365   ----------------------------------------
        BYTE   W06
// 366   ----------------------------------------
        BYTE   W06
// 367   ----------------------------------------
        BYTE   W06
// 368   ----------------------------------------
        BYTE   W06
// 369   ----------------------------------------
        BYTE   W06
// 370   ----------------------------------------
        BYTE   W06
// 371   ----------------------------------------
        BYTE   W06
// 372   ----------------------------------------
        BYTE   W06
// 373   ----------------------------------------
        BYTE   W06
// 374   ----------------------------------------
        BYTE   W06
// 375   ----------------------------------------
        BYTE   W06
// 376   ----------------------------------------
        BYTE   W06
// 377   ----------------------------------------
        BYTE   W06
// 378   ----------------------------------------
        BYTE   W06
// 379   ----------------------------------------
        BYTE   W06
// 380   ----------------------------------------
        BYTE   W06
// 381   ----------------------------------------
        BYTE   W06
// 382   ----------------------------------------
        BYTE   W06
// 383   ----------------------------------------
        BYTE   W06
// 384   ----------------------------------------
        BYTE   W06
// 385   ----------------------------------------
        BYTE   W06
// 386   ----------------------------------------
        BYTE   W06
// 387   ----------------------------------------
        BYTE   W06
// 388   ----------------------------------------
        BYTE   W06
// 389   ----------------------------------------
        BYTE   W06
// 390   ----------------------------------------
        BYTE   W06
// 391   ----------------------------------------
        BYTE   W06
// 392   ----------------------------------------
        BYTE   W06
// 393   ----------------------------------------
        BYTE   W06
// 394   ----------------------------------------
        BYTE   W06
// 395   ----------------------------------------
        BYTE   W06
// 396   ----------------------------------------
        BYTE   W06
// 397   ----------------------------------------
        BYTE   W06
// 398   ----------------------------------------
        BYTE   W06
// 399   ----------------------------------------
        BYTE   W06
// 400   ----------------------------------------
        BYTE   W06
// 401   ----------------------------------------
        BYTE   W06
// 402   ----------------------------------------
        BYTE   W06
// 403   ----------------------------------------
        BYTE   W06
// 404   ----------------------------------------
        BYTE   W06
// 405   ----------------------------------------
        BYTE   W06
// 406   ----------------------------------------
        BYTE   W06
// 407   ----------------------------------------
        BYTE   W06
// 408   ----------------------------------------
        BYTE   W06
// 409   ----------------------------------------
        BYTE   W06
// 410   ----------------------------------------
        BYTE   W06
// 411   ----------------------------------------
        BYTE           N11     Gn4   v093
        BYTE   W06
// 412   ----------------------------------------
        BYTE   W06
// 413   ----------------------------------------
        BYTE                   Fs4
        BYTE   W06
// 414   ----------------------------------------
        BYTE   W06
// 415   ----------------------------------------
        BYTE                   Gn4
        BYTE   W06
// 416   ----------------------------------------
        BYTE   W06
// 417   ----------------------------------------
        BYTE           N56     Bn3   v093   gtp3
        BYTE   W06
// 418   ----------------------------------------
        BYTE   W06
// 419   ----------------------------------------
        BYTE   W06
// 420   ----------------------------------------
        BYTE   W06
// 421   ----------------------------------------
        BYTE   W06
// 422   ----------------------------------------
        BYTE   W06
// 423   ----------------------------------------
        BYTE   W06
// 424   ----------------------------------------
        BYTE   W06
// 425   ----------------------------------------
        BYTE   W06
// 426   ----------------------------------------
        BYTE   W06
// 427   ----------------------------------------
        BYTE           N17     Gn4
        BYTE   W06
// 428   ----------------------------------------
        BYTE   W06
// 429   ----------------------------------------
        BYTE   W06
// 430   ----------------------------------------
        BYTE                   An4
        BYTE   W06
// 431   ----------------------------------------
        BYTE   W06
// 432   ----------------------------------------
        BYTE   W06
// 433   ----------------------------------------
        BYTE           N11     Bn4
        BYTE   W06
// 434   ----------------------------------------
        BYTE   W06
// 435   ----------------------------------------
        BYTE           N17
        BYTE   W06
// 436   ----------------------------------------
        BYTE   W06
// 437   ----------------------------------------
        BYTE   W06
// 438   ----------------------------------------
        BYTE                   An4
        BYTE   W06
// 439   ----------------------------------------
        BYTE   W06
// 440   ----------------------------------------
        BYTE   W06
// 441   ----------------------------------------
        BYTE           N11     Gn4
        BYTE   W06
// 442   ----------------------------------------
        BYTE   W06
// 443   ----------------------------------------
        BYTE           N68     Fs4   v088   gtp3
        BYTE   W06
// 444   ----------------------------------------
        BYTE   W06
// 445   ----------------------------------------
        BYTE   W06
// 446   ----------------------------------------
        BYTE   W06
// 447   ----------------------------------------
        BYTE   W06
// 448   ----------------------------------------
        BYTE   W06
// 449   ----------------------------------------
        BYTE   W06
// 450   ----------------------------------------
        BYTE   W06
// 451   ----------------------------------------
        BYTE   W06
// 452   ----------------------------------------
        BYTE   W06
// 453   ----------------------------------------
        BYTE   W06
// 454   ----------------------------------------
        BYTE   W06
// 455   ----------------------------------------
        BYTE           N23     En4   v083
        BYTE   W06
// 456   ----------------------------------------
        BYTE   W06
// 457   ----------------------------------------
        BYTE   W06
// 458   ----------------------------------------
        BYTE   W06
// 459   ----------------------------------------
        BYTE           N44     Ds4   v083   gtp3
        BYTE   W06
// 460   ----------------------------------------
        BYTE   W06
// 461   ----------------------------------------
        BYTE   W06
// 462   ----------------------------------------
        BYTE   W06
// 463   ----------------------------------------
        BYTE   W06
// 464   ----------------------------------------
        BYTE   W06
// 465   ----------------------------------------
        BYTE   W06
// 466   ----------------------------------------
        BYTE   W06
// 467   ----------------------------------------
        BYTE           N05     Bn3
        BYTE   W06
// 468   ----------------------------------------
        BYTE                   Ds4
        BYTE   W06
// 469   ----------------------------------------
        BYTE                   Fs4   v088
        BYTE   W06
// 470   ----------------------------------------
        BYTE                   Bn4
        BYTE   W06
// 471   ----------------------------------------
        BYTE                   Bn4
        BYTE   W06
// 472   ----------------------------------------
        BYTE                   Ds5
        BYTE   W06
// 473   ----------------------------------------
        BYTE                   Fs5   v078
        BYTE   W06
// 474   ----------------------------------------
        BYTE                   Bn5
        BYTE   W06
// 475   ----------------------------------------
        BYTE           N92     En5   v068   gtp3
        BYTE   W06
// 476   ----------------------------------------
        BYTE   W06
// 477   ----------------------------------------
        BYTE   W06
// 478   ----------------------------------------
        BYTE   W06
// 479   ----------------------------------------
        BYTE   W06
// 480   ----------------------------------------
        BYTE   W06
// 481   ----------------------------------------
        BYTE   W06
// 482   ----------------------------------------
        BYTE   W06
// 483   ----------------------------------------
        BYTE   W06
// 484   ----------------------------------------
        BYTE   W06
// 485   ----------------------------------------
        BYTE   W06
// 486   ----------------------------------------
        BYTE   W06
// 487   ----------------------------------------
        BYTE   W06
// 488   ----------------------------------------
        BYTE   W06
// 489   ----------------------------------------
        BYTE   W06
// 490   ----------------------------------------
        BYTE   W06
// 491   ----------------------------------------
        BYTE                   Fs5
        BYTE   W06
// 492   ----------------------------------------
        BYTE   W06
// 493   ----------------------------------------
        BYTE   W06
// 494   ----------------------------------------
        BYTE   W06
// 495   ----------------------------------------
        BYTE   W06
// 496   ----------------------------------------
        BYTE   W06
// 497   ----------------------------------------
        BYTE   W06
// 498   ----------------------------------------
        BYTE   W06
// 499   ----------------------------------------
        BYTE   W06
// 500   ----------------------------------------
        BYTE   W06
// 501   ----------------------------------------
        BYTE   W06
// 502   ----------------------------------------
        BYTE   W06
// 503   ----------------------------------------
        BYTE   W06
// 504   ----------------------------------------
        BYTE   W06
// 505   ----------------------------------------
        BYTE   W06
// 506   ----------------------------------------
        BYTE   W06
// 507   ----------------------------------------
        BYTE           N42     Gn5
        BYTE   W06
// 508   ----------------------------------------
        BYTE   W06
// 509   ----------------------------------------
        BYTE   W06
// 510   ----------------------------------------
        BYTE   W06
// 511   ----------------------------------------
        BYTE   W06
// 512   ----------------------------------------
        BYTE   W06
// 513   ----------------------------------------
        BYTE   W06
// 514   ----------------------------------------
        BYTE   W06
// 515   ----------------------------------------
        BYTE           N17
        BYTE   W06
// 516   ----------------------------------------
        BYTE   W06
// 517   ----------------------------------------
        BYTE   W06
// 518   ----------------------------------------
        BYTE                   An5
        BYTE   W06
// 519   ----------------------------------------
        BYTE   W06
// 520   ----------------------------------------
        BYTE   W06
// 521   ----------------------------------------
        BYTE           N11     Bn5
        BYTE   W06
// 522   ----------------------------------------
        BYTE   W06
// 523   ----------------------------------------
        BYTE           N32     Bn5   v068   gtp3
        BYTE   W06
// 524   ----------------------------------------
        BYTE   W06
// 525   ----------------------------------------
        BYTE   W06
// 526   ----------------------------------------
        BYTE   W06
// 527   ----------------------------------------
        BYTE   W06
// 528   ----------------------------------------
        BYTE   W06
// 529   ----------------------------------------
        BYTE           N23     Gn5
        BYTE   W06
// 530   ----------------------------------------
        BYTE   W06
// 531   ----------------------------------------
        BYTE   W06
// 532   ----------------------------------------
        BYTE   W06
// 533   ----------------------------------------
        BYTE           N11     Fs5
        BYTE   W06
// 534   ----------------------------------------
        BYTE   W06
// 535   ----------------------------------------
        BYTE           N23     An5
        BYTE   W06
// 536   ----------------------------------------
        BYTE   W06
// 537   ----------------------------------------
        BYTE   W06
// 538   ----------------------------------------
        BYTE   W06
// 539   ----------------------------------------
        BYTE           N96     Gn5
        BYTE           N96     Gn4   v078
        BYTE   W06
// 540   ----------------------------------------
        BYTE   W06
// 541   ----------------------------------------
        BYTE   W06
// 542   ----------------------------------------
        BYTE   W06
// 543   ----------------------------------------
        BYTE   W06
// 544   ----------------------------------------
        BYTE   W06
// 545   ----------------------------------------
        BYTE   W06
// 546   ----------------------------------------
        BYTE   W06
// 547   ----------------------------------------
        BYTE   W06
// 548   ----------------------------------------
        BYTE   W06
// 549   ----------------------------------------
        BYTE   W06
// 550   ----------------------------------------
        BYTE   W06
// 551   ----------------------------------------
        BYTE   W06
// 552   ----------------------------------------
        BYTE   W06
// 553   ----------------------------------------
        BYTE   W06
// 554   ----------------------------------------
        BYTE   W06
// 555   ----------------------------------------
        BYTE           N48     Fs4
        BYTE   W06
// 556   ----------------------------------------
        BYTE   W06
// 557   ----------------------------------------
        BYTE   W06
// 558   ----------------------------------------
        BYTE   W06
// 559   ----------------------------------------
        BYTE   W06
// 560   ----------------------------------------
        BYTE   W06
// 561   ----------------------------------------
        BYTE   W06
// 562   ----------------------------------------
        BYTE   W06
// 563   ----------------------------------------
        BYTE           N24     Bn4
        BYTE   W06
// 564   ----------------------------------------
        BYTE   W06
// 565   ----------------------------------------
        BYTE   W06
// 566   ----------------------------------------
        BYTE   W06
// 567   ----------------------------------------
        BYTE                   Dn5
        BYTE   W06
// 568   ----------------------------------------
        BYTE   W06
// 569   ----------------------------------------
        BYTE   W06
// 570   ----------------------------------------
        BYTE   W06
// 571   ----------------------------------------
        BYTE           N96     En5
        BYTE           N96     En4
        BYTE   W06
// 572   ----------------------------------------
        BYTE   W06
// 573   ----------------------------------------
        BYTE   W06
// 574   ----------------------------------------
        BYTE   W06
// 575   ----------------------------------------
        BYTE   W06
// 576   ----------------------------------------
        BYTE   W06
// 577   ----------------------------------------
        BYTE   W06
// 578   ----------------------------------------
        BYTE   W06
// 579   ----------------------------------------
        BYTE   W06
// 580   ----------------------------------------
        BYTE   W06
// 581   ----------------------------------------
        BYTE   W06
// 582   ----------------------------------------
        BYTE   W06
// 583   ----------------------------------------
        BYTE   W06
// 584   ----------------------------------------
        BYTE   W06
// 585   ----------------------------------------
        BYTE   W06
// 586   ----------------------------------------
        BYTE   W06
// 587   ----------------------------------------
        BYTE   W06
// 588   ----------------------------------------
        BYTE   W06
// 589   ----------------------------------------
        BYTE   W06
// 590   ----------------------------------------
        BYTE   W06
// 591   ----------------------------------------
        BYTE   W06
// 592   ----------------------------------------
        BYTE   W06
// 593   ----------------------------------------
        BYTE   W06
// 594   ----------------------------------------
        BYTE   W06
// 595   ----------------------------------------
        BYTE   W06
// 596   ----------------------------------------
        BYTE   W06
// 597   ----------------------------------------
        BYTE   W06
// 598   ----------------------------------------
        BYTE   W06
// 599   ----------------------------------------
        BYTE   W06
// 600   ----------------------------------------
        BYTE   W06
// 601   ----------------------------------------
        BYTE   W06
// 602   ----------------------------------------
        BYTE   W06
// 603   ----------------------------------------
        BYTE   GoTo
         POIN2  neverendingdream000_4_LOOP
        BYTE   FINE

//****************** Track 5 (Midi-Chn.5) ******************//

neverendingdream000_5:
        BYTE   KEYSH   neverendingdream000_key+0
// 000   ----------------------------------------
        BYTE           VOICE   46
        BYTE   W03
        BYTE           VOL     40
        BYTE   W01
        BYTE           PAN     c_v+6
        BYTE   W02
// 001   ----------------------------------------
        BYTE   W06
// 002   ----------------------------------------
        BYTE   W06
// 003   ----------------------------------------
        BYTE   W06
// 004   ----------------------------------------
        BYTE   W06
// 005   ----------------------------------------
        BYTE   W06
// 006   ----------------------------------------
        BYTE   W06
// 007   ----------------------------------------
        BYTE   W06
// 008   ----------------------------------------
        BYTE   W06
// 009   ----------------------------------------
        BYTE   W06
// 010   ----------------------------------------
        BYTE   W05
neverendingdream000_5_LOOP:
        BYTE   W01
// 011   ----------------------------------------
neverendingdream000_5_11:
        BYTE   W04
        BYTE           N06     En2   v096
        BYTE   W02
        BYTE   PEND
// 012   ----------------------------------------
        BYTE   W06
// 013   ----------------------------------------
neverendingdream000_5_13:
        BYTE   W04
        BYTE           N06     Bn2   v096
        BYTE   W02
        BYTE   PEND
// 014   ----------------------------------------
        BYTE   W06
// 015   ----------------------------------------
neverendingdream000_5_15:
        BYTE   W04
        BYTE           N06     Fs3   v096
        BYTE   W02
        BYTE   PEND
// 016   ----------------------------------------
        BYTE   W06
// 017   ----------------------------------------
neverendingdream000_5_17:
        BYTE   W04
        BYTE           N06     Gn3   v096
        BYTE   W02
        BYTE   PEND
// 018   ----------------------------------------
        BYTE   W06
// 019   ----------------------------------------
        BYTE   W06
// 020   ----------------------------------------
        BYTE   W06
// 021   ----------------------------------------
        BYTE   W06
// 022   ----------------------------------------
        BYTE   W06
// 023   ----------------------------------------
        BYTE   W06
// 024   ----------------------------------------
        BYTE   W06
// 025   ----------------------------------------
        BYTE   W06
// 026   ----------------------------------------
        BYTE   W06
// 027   ----------------------------------------
neverendingdream000_5_27:
        BYTE   W04
        BYTE           N06     Dn2   v096
        BYTE   W02
        BYTE   PEND
// 028   ----------------------------------------
        BYTE   W06
// 029   ----------------------------------------
        BYTE   PATT
         POIN2  neverendingdream000_5_13
// 030   ----------------------------------------
        BYTE   W06
// 031   ----------------------------------------
        BYTE   PATT
         POIN2  neverendingdream000_5_15
// 032   ----------------------------------------
        BYTE   W06
// 033   ----------------------------------------
neverendingdream000_5_33:
        BYTE   W04
        BYTE           N06     Bn3   v096
        BYTE   W02
        BYTE   PEND
// 034   ----------------------------------------
        BYTE   W06
// 035   ----------------------------------------
        BYTE   W06
// 036   ----------------------------------------
        BYTE   W06
// 037   ----------------------------------------
        BYTE   W06
// 038   ----------------------------------------
        BYTE   W06
// 039   ----------------------------------------
        BYTE   W06
// 040   ----------------------------------------
        BYTE   W06
// 041   ----------------------------------------
        BYTE   W06
// 042   ----------------------------------------
        BYTE   W06
// 043   ----------------------------------------
neverendingdream000_5_43:
        BYTE   W04
        BYTE           N06     Cn2   v096
        BYTE   W02
        BYTE   PEND
// 044   ----------------------------------------
        BYTE   W06
// 045   ----------------------------------------
neverendingdream000_5_45:
        BYTE   W04
        BYTE           N06     Gn2   v096
        BYTE   W02
        BYTE   PEND
// 046   ----------------------------------------
        BYTE   W06
// 047   ----------------------------------------
neverendingdream000_5_47:
        BYTE   W04
        BYTE           N06     Dn3   v096
        BYTE   W02
        BYTE   PEND
// 048   ----------------------------------------
        BYTE   W06
// 049   ----------------------------------------
neverendingdream000_5_49:
        BYTE   W04
        BYTE           N06     En3   v096
        BYTE   W02
        BYTE   PEND
// 050   ----------------------------------------
        BYTE   W06
// 051   ----------------------------------------
        BYTE   W06
// 052   ----------------------------------------
        BYTE   W06
// 053   ----------------------------------------
        BYTE   W06
// 054   ----------------------------------------
        BYTE   W06
// 055   ----------------------------------------
        BYTE   W06
// 056   ----------------------------------------
        BYTE   W06
// 057   ----------------------------------------
        BYTE   W06
// 058   ----------------------------------------
        BYTE   W06
// 059   ----------------------------------------
neverendingdream000_5_59:
        BYTE   W04
        BYTE           N06     Bn1   v096
        BYTE   W02
        BYTE   PEND
// 060   ----------------------------------------
        BYTE   W06
// 061   ----------------------------------------
        BYTE   PATT
         POIN2  neverendingdream000_5_45
// 062   ----------------------------------------
        BYTE   W06
// 063   ----------------------------------------
        BYTE   PATT
         POIN2  neverendingdream000_5_47
// 064   ----------------------------------------
        BYTE   W06
// 065   ----------------------------------------
        BYTE   PATT
         POIN2  neverendingdream000_5_17
// 066   ----------------------------------------
        BYTE   W06
// 067   ----------------------------------------
        BYTE   W06
// 068   ----------------------------------------
        BYTE   W06
// 069   ----------------------------------------
        BYTE   W06
// 070   ----------------------------------------
        BYTE   W06
// 071   ----------------------------------------
        BYTE   W06
// 072   ----------------------------------------
        BYTE   W06
// 073   ----------------------------------------
        BYTE   W06
// 074   ----------------------------------------
        BYTE   W06
// 075   ----------------------------------------
neverendingdream000_5_75:
        BYTE   W04
        BYTE           N06     An1   v096
        BYTE   W02
        BYTE   PEND
// 076   ----------------------------------------
        BYTE   W06
// 077   ----------------------------------------
        BYTE   PATT
         POIN2  neverendingdream000_5_11
// 078   ----------------------------------------
        BYTE   W06
// 079   ----------------------------------------
neverendingdream000_5_79:
        BYTE   W04
        BYTE           N06     Cn3   v096
        BYTE   W02
        BYTE   PEND
// 080   ----------------------------------------
        BYTE   W06
// 081   ----------------------------------------
        BYTE   PATT
         POIN2  neverendingdream000_5_17
// 082   ----------------------------------------
        BYTE   W06
// 083   ----------------------------------------
        BYTE   W06
// 084   ----------------------------------------
        BYTE   W06
// 085   ----------------------------------------
        BYTE   W06
// 086   ----------------------------------------
        BYTE   W06
// 087   ----------------------------------------
        BYTE   W06
// 088   ----------------------------------------
        BYTE   W06
// 089   ----------------------------------------
        BYTE   W06
// 090   ----------------------------------------
        BYTE   W06
// 091   ----------------------------------------
        BYTE   PATT
         POIN2  neverendingdream000_5_59
// 092   ----------------------------------------
        BYTE   W06
// 093   ----------------------------------------
        BYTE   PATT
         POIN2  neverendingdream000_5_45
// 094   ----------------------------------------
        BYTE   W06
// 095   ----------------------------------------
        BYTE   PATT
         POIN2  neverendingdream000_5_47
// 096   ----------------------------------------
        BYTE   W06
// 097   ----------------------------------------
        BYTE   PATT
         POIN2  neverendingdream000_5_17
// 098   ----------------------------------------
        BYTE   W06
// 099   ----------------------------------------
        BYTE   W06
// 100   ----------------------------------------
        BYTE   W06
// 101   ----------------------------------------
        BYTE   W06
// 102   ----------------------------------------
        BYTE   W06
// 103   ----------------------------------------
        BYTE   W06
// 104   ----------------------------------------
        BYTE   W06
// 105   ----------------------------------------
        BYTE   W06
// 106   ----------------------------------------
        BYTE   W06
// 107   ----------------------------------------
        BYTE   PATT
         POIN2  neverendingdream000_5_43
// 108   ----------------------------------------
        BYTE   W06
// 109   ----------------------------------------
        BYTE   PATT
         POIN2  neverendingdream000_5_45
// 110   ----------------------------------------
        BYTE   W06
// 111   ----------------------------------------
        BYTE   PATT
         POIN2  neverendingdream000_5_47
// 112   ----------------------------------------
        BYTE   W06
// 113   ----------------------------------------
        BYTE   PATT
         POIN2  neverendingdream000_5_49
// 114   ----------------------------------------
        BYTE   W06
// 115   ----------------------------------------
        BYTE   W06
// 116   ----------------------------------------
        BYTE   W06
// 117   ----------------------------------------
        BYTE   W06
// 118   ----------------------------------------
        BYTE   W06
// 119   ----------------------------------------
        BYTE   W06
// 120   ----------------------------------------
        BYTE   W06
// 121   ----------------------------------------
        BYTE   W06
// 122   ----------------------------------------
        BYTE   W06
// 123   ----------------------------------------
        BYTE   PATT
         POIN2  neverendingdream000_5_27
// 124   ----------------------------------------
        BYTE   W06
// 125   ----------------------------------------
neverendingdream000_5_125:
        BYTE   W04
        BYTE           N06     An2   v096
        BYTE   W02
        BYTE   PEND
// 126   ----------------------------------------
        BYTE   W06
// 127   ----------------------------------------
        BYTE   PATT
         POIN2  neverendingdream000_5_49
// 128   ----------------------------------------
        BYTE   W06
// 129   ----------------------------------------
        BYTE   PATT
         POIN2  neverendingdream000_5_15
// 130   ----------------------------------------
        BYTE   W06
// 131   ----------------------------------------
        BYTE   W06
// 132   ----------------------------------------
        BYTE   W06
// 133   ----------------------------------------
        BYTE   W06
// 134   ----------------------------------------
        BYTE   W06
// 135   ----------------------------------------
        BYTE   W06
// 136   ----------------------------------------
        BYTE   W06
// 137   ----------------------------------------
        BYTE   W06
// 138   ----------------------------------------
        BYTE   W06
// 139   ----------------------------------------
        BYTE   PATT
         POIN2  neverendingdream000_5_11
// 140   ----------------------------------------
        BYTE   W06
// 141   ----------------------------------------
        BYTE   PATT
         POIN2  neverendingdream000_5_13
// 142   ----------------------------------------
        BYTE   W06
// 143   ----------------------------------------
        BYTE   PATT
         POIN2  neverendingdream000_5_15
// 144   ----------------------------------------
        BYTE   W06
// 145   ----------------------------------------
        BYTE   PATT
         POIN2  neverendingdream000_5_17
// 146   ----------------------------------------
        BYTE   W06
// 147   ----------------------------------------
        BYTE   W06
// 148   ----------------------------------------
        BYTE   W06
// 149   ----------------------------------------
        BYTE   W06
// 150   ----------------------------------------
        BYTE   W06
// 151   ----------------------------------------
        BYTE   W06
// 152   ----------------------------------------
        BYTE   W06
// 153   ----------------------------------------
        BYTE   W06
// 154   ----------------------------------------
        BYTE   W06
// 155   ----------------------------------------
        BYTE   PATT
         POIN2  neverendingdream000_5_27
// 156   ----------------------------------------
        BYTE   W06
// 157   ----------------------------------------
        BYTE   PATT
         POIN2  neverendingdream000_5_13
// 158   ----------------------------------------
        BYTE   W06
// 159   ----------------------------------------
        BYTE   PATT
         POIN2  neverendingdream000_5_15
// 160   ----------------------------------------
        BYTE   W06
// 161   ----------------------------------------
        BYTE   PATT
         POIN2  neverendingdream000_5_33
// 162   ----------------------------------------
        BYTE   W06
// 163   ----------------------------------------
        BYTE   W06
// 164   ----------------------------------------
        BYTE   W06
// 165   ----------------------------------------
        BYTE   W06
// 166   ----------------------------------------
        BYTE   W06
// 167   ----------------------------------------
        BYTE   W06
// 168   ----------------------------------------
        BYTE   W06
// 169   ----------------------------------------
        BYTE   W06
// 170   ----------------------------------------
        BYTE   W06
// 171   ----------------------------------------
        BYTE   PATT
         POIN2  neverendingdream000_5_43
// 172   ----------------------------------------
        BYTE   W06
// 173   ----------------------------------------
        BYTE   PATT
         POIN2  neverendingdream000_5_45
// 174   ----------------------------------------
        BYTE   W06
// 175   ----------------------------------------
        BYTE   PATT
         POIN2  neverendingdream000_5_47
// 176   ----------------------------------------
        BYTE   W06
// 177   ----------------------------------------
        BYTE   PATT
         POIN2  neverendingdream000_5_49
// 178   ----------------------------------------
        BYTE   W06
// 179   ----------------------------------------
        BYTE   W06
// 180   ----------------------------------------
        BYTE   W06
// 181   ----------------------------------------
        BYTE   W06
// 182   ----------------------------------------
        BYTE   W06
// 183   ----------------------------------------
        BYTE   W06
// 184   ----------------------------------------
        BYTE   W06
// 185   ----------------------------------------
        BYTE   W06
// 186   ----------------------------------------
        BYTE   W06
// 187   ----------------------------------------
        BYTE   PATT
         POIN2  neverendingdream000_5_59
// 188   ----------------------------------------
        BYTE   W06
// 189   ----------------------------------------
        BYTE   PATT
         POIN2  neverendingdream000_5_45
// 190   ----------------------------------------
        BYTE   W06
// 191   ----------------------------------------
        BYTE   PATT
         POIN2  neverendingdream000_5_47
// 192   ----------------------------------------
        BYTE   W06
// 193   ----------------------------------------
        BYTE   PATT
         POIN2  neverendingdream000_5_17
// 194   ----------------------------------------
        BYTE   W06
// 195   ----------------------------------------
        BYTE   W06
// 196   ----------------------------------------
        BYTE   W06
// 197   ----------------------------------------
        BYTE   W06
// 198   ----------------------------------------
        BYTE   W06
// 199   ----------------------------------------
        BYTE   W06
// 200   ----------------------------------------
        BYTE   W06
// 201   ----------------------------------------
        BYTE   W06
// 202   ----------------------------------------
        BYTE   W06
// 203   ----------------------------------------
        BYTE   PATT
         POIN2  neverendingdream000_5_75
// 204   ----------------------------------------
        BYTE   W06
// 205   ----------------------------------------
        BYTE   PATT
         POIN2  neverendingdream000_5_11
// 206   ----------------------------------------
        BYTE   W06
// 207   ----------------------------------------
        BYTE   PATT
         POIN2  neverendingdream000_5_79
// 208   ----------------------------------------
        BYTE   W06
// 209   ----------------------------------------
        BYTE   PATT
         POIN2  neverendingdream000_5_17
// 210   ----------------------------------------
        BYTE   W06
// 211   ----------------------------------------
        BYTE   W06
// 212   ----------------------------------------
        BYTE   W06
// 213   ----------------------------------------
        BYTE   W06
// 214   ----------------------------------------
        BYTE   W06
// 215   ----------------------------------------
        BYTE   W06
// 216   ----------------------------------------
        BYTE   W06
// 217   ----------------------------------------
        BYTE   W06
// 218   ----------------------------------------
        BYTE   W06
// 219   ----------------------------------------
        BYTE   PATT
         POIN2  neverendingdream000_5_59
// 220   ----------------------------------------
        BYTE   W06
// 221   ----------------------------------------
        BYTE   PATT
         POIN2  neverendingdream000_5_45
// 222   ----------------------------------------
        BYTE   W06
// 223   ----------------------------------------
        BYTE   PATT
         POIN2  neverendingdream000_5_47
// 224   ----------------------------------------
        BYTE   W06
// 225   ----------------------------------------
        BYTE   PATT
         POIN2  neverendingdream000_5_17
// 226   ----------------------------------------
        BYTE   W06
// 227   ----------------------------------------
        BYTE   W06
// 228   ----------------------------------------
        BYTE   W06
// 229   ----------------------------------------
        BYTE   W06
// 230   ----------------------------------------
        BYTE   W06
// 231   ----------------------------------------
        BYTE   W06
// 232   ----------------------------------------
        BYTE   W06
// 233   ----------------------------------------
        BYTE   W06
// 234   ----------------------------------------
        BYTE   W06
// 235   ----------------------------------------
        BYTE   PATT
         POIN2  neverendingdream000_5_43
// 236   ----------------------------------------
        BYTE   W06
// 237   ----------------------------------------
        BYTE   PATT
         POIN2  neverendingdream000_5_45
// 238   ----------------------------------------
        BYTE   W06
// 239   ----------------------------------------
        BYTE   PATT
         POIN2  neverendingdream000_5_47
// 240   ----------------------------------------
        BYTE   W06
// 241   ----------------------------------------
        BYTE   PATT
         POIN2  neverendingdream000_5_49
// 242   ----------------------------------------
        BYTE   W06
// 243   ----------------------------------------
        BYTE   W06
// 244   ----------------------------------------
        BYTE   W06
// 245   ----------------------------------------
        BYTE   W06
// 246   ----------------------------------------
        BYTE   W06
// 247   ----------------------------------------
        BYTE   W06
// 248   ----------------------------------------
        BYTE   W06
// 249   ----------------------------------------
        BYTE   W06
// 250   ----------------------------------------
        BYTE   W06
// 251   ----------------------------------------
        BYTE   PATT
         POIN2  neverendingdream000_5_27
// 252   ----------------------------------------
        BYTE   W06
// 253   ----------------------------------------
        BYTE   PATT
         POIN2  neverendingdream000_5_125
// 254   ----------------------------------------
        BYTE   W06
// 255   ----------------------------------------
        BYTE   PATT
         POIN2  neverendingdream000_5_49
// 256   ----------------------------------------
        BYTE   W06
// 257   ----------------------------------------
        BYTE   PATT
         POIN2  neverendingdream000_5_15
// 258   ----------------------------------------
        BYTE   W06
// 259   ----------------------------------------
        BYTE   W06
// 260   ----------------------------------------
        BYTE   W06
// 261   ----------------------------------------
        BYTE   W06
// 262   ----------------------------------------
        BYTE   W06
// 263   ----------------------------------------
        BYTE   W06
// 264   ----------------------------------------
        BYTE   W06
// 265   ----------------------------------------
        BYTE   W06
// 266   ----------------------------------------
        BYTE   W06
// 267   ----------------------------------------
        BYTE   W06
// 268   ----------------------------------------
        BYTE   W06
// 269   ----------------------------------------
        BYTE   W06
// 270   ----------------------------------------
        BYTE   W06
// 271   ----------------------------------------
        BYTE   W06
// 272   ----------------------------------------
        BYTE   W06
// 273   ----------------------------------------
        BYTE   W06
// 274   ----------------------------------------
        BYTE   W06
// 275   ----------------------------------------
        BYTE   W06
// 276   ----------------------------------------
        BYTE   W06
// 277   ----------------------------------------
        BYTE   W06
// 278   ----------------------------------------
        BYTE   W06
// 279   ----------------------------------------
        BYTE   W06
// 280   ----------------------------------------
        BYTE   W06
// 281   ----------------------------------------
        BYTE   W06
// 282   ----------------------------------------
        BYTE   W06
// 283   ----------------------------------------
neverendingdream000_5_283:
        BYTE   W04
        BYTE           N18     Gn1   v101
        BYTE   W02
        BYTE   PEND
// 284   ----------------------------------------
        BYTE   W06
// 285   ----------------------------------------
neverendingdream000_5_285:
        BYTE   W04
        BYTE           N12     Dn2   v091
        BYTE   W02
        BYTE   PEND
// 286   ----------------------------------------
        BYTE   W06
// 287   ----------------------------------------
neverendingdream000_5_287:
        BYTE   W04
        BYTE           N12     An2   v091
        BYTE   W02
        BYTE   PEND
// 288   ----------------------------------------
        BYTE   W06
// 289   ----------------------------------------
neverendingdream000_5_289:
        BYTE   W04
        BYTE           N12     Bn2   v091
        BYTE   W02
        BYTE   PEND
// 290   ----------------------------------------
        BYTE   W06
// 291   ----------------------------------------
neverendingdream000_5_291:
        BYTE   W04
        BYTE           N12     Dn3   v091
        BYTE   W02
        BYTE   PEND
// 292   ----------------------------------------
        BYTE   W06
// 293   ----------------------------------------
neverendingdream000_5_293:
        BYTE   W04
        BYTE           N12     Gn3   v091
        BYTE   W02
        BYTE   PEND
// 294   ----------------------------------------
        BYTE   W06
// 295   ----------------------------------------
neverendingdream000_5_295:
        BYTE   W04
        BYTE           N12     An3   v091
        BYTE   W02
        BYTE   PEND
// 296   ----------------------------------------
        BYTE   W06
// 297   ----------------------------------------
neverendingdream000_5_297:
        BYTE   W04
        BYTE           N12     Bn3   v091
        BYTE   W02
        BYTE   PEND
// 298   ----------------------------------------
        BYTE   W06
// 299   ----------------------------------------
        BYTE   PATT
         POIN2  neverendingdream000_5_283
// 300   ----------------------------------------
        BYTE   W06
// 301   ----------------------------------------
        BYTE   PATT
         POIN2  neverendingdream000_5_285
// 302   ----------------------------------------
        BYTE   W06
// 303   ----------------------------------------
        BYTE   PATT
         POIN2  neverendingdream000_5_287
// 304   ----------------------------------------
        BYTE   W06
// 305   ----------------------------------------
        BYTE   PATT
         POIN2  neverendingdream000_5_289
// 306   ----------------------------------------
        BYTE   W06
// 307   ----------------------------------------
        BYTE   PATT
         POIN2  neverendingdream000_5_291
// 308   ----------------------------------------
        BYTE   W06
// 309   ----------------------------------------
        BYTE   PATT
         POIN2  neverendingdream000_5_293
// 310   ----------------------------------------
        BYTE   W06
// 311   ----------------------------------------
        BYTE   PATT
         POIN2  neverendingdream000_5_295
// 312   ----------------------------------------
        BYTE   W06
// 313   ----------------------------------------
        BYTE   PATT
         POIN2  neverendingdream000_5_297
// 314   ----------------------------------------
        BYTE   W06
// 315   ----------------------------------------
neverendingdream000_5_315:
        BYTE   W04
        BYTE           N18     Fs1   v101
        BYTE   W02
        BYTE   PEND
// 316   ----------------------------------------
        BYTE   W06
// 317   ----------------------------------------
neverendingdream000_5_317:
        BYTE   W04
        BYTE           N12     En2   v091
        BYTE   W02
        BYTE   PEND
// 318   ----------------------------------------
        BYTE   W06
// 319   ----------------------------------------
neverendingdream000_5_319:
        BYTE   W04
        BYTE           N12     Fs2   v091
        BYTE   W02
        BYTE   PEND
// 320   ----------------------------------------
        BYTE   W06
// 321   ----------------------------------------
        BYTE   PATT
         POIN2  neverendingdream000_5_287
// 322   ----------------------------------------
        BYTE   W06
// 323   ----------------------------------------
        BYTE   PATT
         POIN2  neverendingdream000_5_289
// 324   ----------------------------------------
        BYTE   W06
// 325   ----------------------------------------
neverendingdream000_5_325:
        BYTE   W04
        BYTE           N12     En3   v091
        BYTE   W02
        BYTE   PEND
// 326   ----------------------------------------
        BYTE   W06
// 327   ----------------------------------------
neverendingdream000_5_327:
        BYTE   W04
        BYTE           N12     Fs3   v091
        BYTE   W02
        BYTE   PEND
// 328   ----------------------------------------
        BYTE   W06
// 329   ----------------------------------------
        BYTE   PATT
         POIN2  neverendingdream000_5_295
// 330   ----------------------------------------
        BYTE   W06
// 331   ----------------------------------------
neverendingdream000_5_331:
        BYTE   W04
        BYTE           N18     Bn1   v101
        BYTE   W02
        BYTE   PEND
// 332   ----------------------------------------
        BYTE   W06
// 333   ----------------------------------------
        BYTE   PATT
         POIN2  neverendingdream000_5_319
// 334   ----------------------------------------
        BYTE   W06
// 335   ----------------------------------------
        BYTE   PATT
         POIN2  neverendingdream000_5_289
// 336   ----------------------------------------
        BYTE   W06
// 337   ----------------------------------------
neverendingdream000_5_337:
        BYTE   W04
        BYTE           N12     Cs3   v091
        BYTE   W02
        BYTE   PEND
// 338   ----------------------------------------
        BYTE   W06
// 339   ----------------------------------------
neverendingdream000_5_339:
        BYTE   W04
        BYTE           N12     Ds3   v091
        BYTE   W02
        BYTE   PEND
// 340   ----------------------------------------
        BYTE   W06
// 341   ----------------------------------------
        BYTE   PATT
         POIN2  neverendingdream000_5_327
// 342   ----------------------------------------
        BYTE   W06
// 343   ----------------------------------------
        BYTE   PATT
         POIN2  neverendingdream000_5_295
// 344   ----------------------------------------
        BYTE   W06
// 345   ----------------------------------------
        BYTE   PATT
         POIN2  neverendingdream000_5_297
// 346   ----------------------------------------
        BYTE   W06
// 347   ----------------------------------------
neverendingdream000_5_347:
        BYTE   W04
        BYTE           N18     En1   v101
        BYTE   W02
        BYTE   PEND
// 348   ----------------------------------------
        BYTE   W06
// 349   ----------------------------------------
neverendingdream000_5_349:
        BYTE   W04
        BYTE           N12     Bn1   v091
        BYTE   W02
        BYTE   PEND
// 350   ----------------------------------------
        BYTE   W06
// 351   ----------------------------------------
        BYTE   PATT
         POIN2  neverendingdream000_5_319
// 352   ----------------------------------------
        BYTE   W06
// 353   ----------------------------------------
neverendingdream000_5_353:
        BYTE   W04
        BYTE           N12     Gn2   v091
        BYTE   W02
        BYTE   PEND
// 354   ----------------------------------------
        BYTE   W06
// 355   ----------------------------------------
        BYTE   PATT
         POIN2  neverendingdream000_5_289
// 356   ----------------------------------------
        BYTE   W06
// 357   ----------------------------------------
        BYTE   PATT
         POIN2  neverendingdream000_5_325
// 358   ----------------------------------------
        BYTE   W06
// 359   ----------------------------------------
        BYTE   PATT
         POIN2  neverendingdream000_5_327
// 360   ----------------------------------------
        BYTE   W06
// 361   ----------------------------------------
        BYTE   PATT
         POIN2  neverendingdream000_5_293
// 362   ----------------------------------------
        BYTE   W06
// 363   ----------------------------------------
neverendingdream000_5_363:
        BYTE   W04
        BYTE           N18     Dn1   v101
        BYTE   W02
        BYTE   PEND
// 364   ----------------------------------------
        BYTE   W06
// 365   ----------------------------------------
        BYTE   PATT
         POIN2  neverendingdream000_5_349
// 366   ----------------------------------------
        BYTE   W06
// 367   ----------------------------------------
        BYTE   PATT
         POIN2  neverendingdream000_5_317
// 368   ----------------------------------------
        BYTE   W06
// 369   ----------------------------------------
        BYTE   PATT
         POIN2  neverendingdream000_5_319
// 370   ----------------------------------------
        BYTE   W06
// 371   ----------------------------------------
        BYTE   PATT
         POIN2  neverendingdream000_5_289
// 372   ----------------------------------------
        BYTE   W06
// 373   ----------------------------------------
        BYTE   PATT
         POIN2  neverendingdream000_5_325
// 374   ----------------------------------------
        BYTE   W06
// 375   ----------------------------------------
        BYTE   PATT
         POIN2  neverendingdream000_5_327
// 376   ----------------------------------------
        BYTE   W06
// 377   ----------------------------------------
        BYTE   PATT
         POIN2  neverendingdream000_5_293
// 378   ----------------------------------------
        BYTE   W06
// 379   ----------------------------------------
neverendingdream000_5_379:
        BYTE   W04
        BYTE           N18     Cn1   v101
        BYTE   W02
        BYTE   PEND
// 380   ----------------------------------------
        BYTE   W06
// 381   ----------------------------------------
neverendingdream000_5_381:
        BYTE   W04
        BYTE           N12     Gn1   v091
        BYTE   W02
        BYTE   PEND
// 382   ----------------------------------------
        BYTE   W06
// 383   ----------------------------------------
        BYTE   PATT
         POIN2  neverendingdream000_5_285
// 384   ----------------------------------------
        BYTE   W06
// 385   ----------------------------------------
        BYTE   PATT
         POIN2  neverendingdream000_5_317
// 386   ----------------------------------------
        BYTE   W06
// 387   ----------------------------------------
        BYTE   PATT
         POIN2  neverendingdream000_5_353
// 388   ----------------------------------------
        BYTE   W06
// 389   ----------------------------------------
neverendingdream000_5_389:
        BYTE   W04
        BYTE           N12     Cn3   v091
        BYTE   W02
        BYTE   PEND
// 390   ----------------------------------------
        BYTE   W06
// 391   ----------------------------------------
        BYTE   PATT
         POIN2  neverendingdream000_5_291
// 392   ----------------------------------------
        BYTE   W06
// 393   ----------------------------------------
        BYTE   PATT
         POIN2  neverendingdream000_5_325
// 394   ----------------------------------------
        BYTE   W06
// 395   ----------------------------------------
        BYTE   PATT
         POIN2  neverendingdream000_5_363
// 396   ----------------------------------------
        BYTE   W06
// 397   ----------------------------------------
        BYTE   W04
        BYTE           N12     An1   v091
        BYTE   W02
// 398   ----------------------------------------
        BYTE   W06
// 399   ----------------------------------------
        BYTE   PATT
         POIN2  neverendingdream000_5_317
// 400   ----------------------------------------
        BYTE   W06
// 401   ----------------------------------------
        BYTE   PATT
         POIN2  neverendingdream000_5_319
// 402   ----------------------------------------
        BYTE   W06
// 403   ----------------------------------------
        BYTE   PATT
         POIN2  neverendingdream000_5_287
// 404   ----------------------------------------
        BYTE   W06
// 405   ----------------------------------------
        BYTE   PATT
         POIN2  neverendingdream000_5_291
// 406   ----------------------------------------
        BYTE   W06
// 407   ----------------------------------------
        BYTE   PATT
         POIN2  neverendingdream000_5_325
// 408   ----------------------------------------
        BYTE   W06
// 409   ----------------------------------------
        BYTE   PATT
         POIN2  neverendingdream000_5_327
// 410   ----------------------------------------
        BYTE   W06
// 411   ----------------------------------------
        BYTE   PATT
         POIN2  neverendingdream000_5_283
// 412   ----------------------------------------
        BYTE   W06
// 413   ----------------------------------------
        BYTE   PATT
         POIN2  neverendingdream000_5_285
// 414   ----------------------------------------
        BYTE   W06
// 415   ----------------------------------------
        BYTE   PATT
         POIN2  neverendingdream000_5_287
// 416   ----------------------------------------
        BYTE   W06
// 417   ----------------------------------------
        BYTE   PATT
         POIN2  neverendingdream000_5_289
// 418   ----------------------------------------
        BYTE   W06
// 419   ----------------------------------------
        BYTE   PATT
         POIN2  neverendingdream000_5_291
// 420   ----------------------------------------
        BYTE   W06
// 421   ----------------------------------------
        BYTE   PATT
         POIN2  neverendingdream000_5_293
// 422   ----------------------------------------
        BYTE   W06
// 423   ----------------------------------------
        BYTE   PATT
         POIN2  neverendingdream000_5_295
// 424   ----------------------------------------
        BYTE   W06
// 425   ----------------------------------------
        BYTE   PATT
         POIN2  neverendingdream000_5_297
// 426   ----------------------------------------
        BYTE   W06
// 427   ----------------------------------------
        BYTE   PATT
         POIN2  neverendingdream000_5_283
// 428   ----------------------------------------
        BYTE   W06
// 429   ----------------------------------------
        BYTE   PATT
         POIN2  neverendingdream000_5_285
// 430   ----------------------------------------
        BYTE   W06
// 431   ----------------------------------------
        BYTE   PATT
         POIN2  neverendingdream000_5_287
// 432   ----------------------------------------
        BYTE   W06
// 433   ----------------------------------------
        BYTE   PATT
         POIN2  neverendingdream000_5_289
// 434   ----------------------------------------
        BYTE   W06
// 435   ----------------------------------------
        BYTE   PATT
         POIN2  neverendingdream000_5_291
// 436   ----------------------------------------
        BYTE   W06
// 437   ----------------------------------------
        BYTE   PATT
         POIN2  neverendingdream000_5_293
// 438   ----------------------------------------
        BYTE   W06
// 439   ----------------------------------------
        BYTE   PATT
         POIN2  neverendingdream000_5_295
// 440   ----------------------------------------
        BYTE   W06
// 441   ----------------------------------------
        BYTE   PATT
         POIN2  neverendingdream000_5_297
// 442   ----------------------------------------
        BYTE   W06
// 443   ----------------------------------------
        BYTE   PATT
         POIN2  neverendingdream000_5_315
// 444   ----------------------------------------
        BYTE   W06
// 445   ----------------------------------------
        BYTE   PATT
         POIN2  neverendingdream000_5_317
// 446   ----------------------------------------
        BYTE   W06
// 447   ----------------------------------------
        BYTE   PATT
         POIN2  neverendingdream000_5_319
// 448   ----------------------------------------
        BYTE   W06
// 449   ----------------------------------------
        BYTE   PATT
         POIN2  neverendingdream000_5_287
// 450   ----------------------------------------
        BYTE   W06
// 451   ----------------------------------------
        BYTE   PATT
         POIN2  neverendingdream000_5_289
// 452   ----------------------------------------
        BYTE   W06
// 453   ----------------------------------------
        BYTE   PATT
         POIN2  neverendingdream000_5_325
// 454   ----------------------------------------
        BYTE   W06
// 455   ----------------------------------------
        BYTE   PATT
         POIN2  neverendingdream000_5_327
// 456   ----------------------------------------
        BYTE   W06
// 457   ----------------------------------------
        BYTE   PATT
         POIN2  neverendingdream000_5_295
// 458   ----------------------------------------
        BYTE   W06
// 459   ----------------------------------------
        BYTE   PATT
         POIN2  neverendingdream000_5_331
// 460   ----------------------------------------
        BYTE   W06
// 461   ----------------------------------------
        BYTE   PATT
         POIN2  neverendingdream000_5_319
// 462   ----------------------------------------
        BYTE   W06
// 463   ----------------------------------------
        BYTE   PATT
         POIN2  neverendingdream000_5_289
// 464   ----------------------------------------
        BYTE   W06
// 465   ----------------------------------------
        BYTE   PATT
         POIN2  neverendingdream000_5_337
// 466   ----------------------------------------
        BYTE   W06
// 467   ----------------------------------------
        BYTE   PATT
         POIN2  neverendingdream000_5_339
// 468   ----------------------------------------
        BYTE   W06
// 469   ----------------------------------------
        BYTE   PATT
         POIN2  neverendingdream000_5_327
// 470   ----------------------------------------
        BYTE   W06
// 471   ----------------------------------------
        BYTE   PATT
         POIN2  neverendingdream000_5_295
// 472   ----------------------------------------
        BYTE   W06
// 473   ----------------------------------------
        BYTE   PATT
         POIN2  neverendingdream000_5_297
// 474   ----------------------------------------
        BYTE   W06
// 475   ----------------------------------------
        BYTE   PATT
         POIN2  neverendingdream000_5_347
// 476   ----------------------------------------
        BYTE   W06
// 477   ----------------------------------------
        BYTE   PATT
         POIN2  neverendingdream000_5_349
// 478   ----------------------------------------
        BYTE   W06
// 479   ----------------------------------------
        BYTE   PATT
         POIN2  neverendingdream000_5_317
// 480   ----------------------------------------
        BYTE   W06
// 481   ----------------------------------------
        BYTE   PATT
         POIN2  neverendingdream000_5_319
// 482   ----------------------------------------
        BYTE   W06
// 483   ----------------------------------------
        BYTE   PATT
         POIN2  neverendingdream000_5_353
// 484   ----------------------------------------
        BYTE   W06
// 485   ----------------------------------------
        BYTE   PATT
         POIN2  neverendingdream000_5_289
// 486   ----------------------------------------
        BYTE   W06
// 487   ----------------------------------------
        BYTE   PATT
         POIN2  neverendingdream000_5_325
// 488   ----------------------------------------
        BYTE   W06
// 489   ----------------------------------------
        BYTE   PATT
         POIN2  neverendingdream000_5_327
// 490   ----------------------------------------
        BYTE   W06
// 491   ----------------------------------------
        BYTE   PATT
         POIN2  neverendingdream000_5_363
// 492   ----------------------------------------
        BYTE   W06
// 493   ----------------------------------------
        BYTE   PATT
         POIN2  neverendingdream000_5_349
// 494   ----------------------------------------
        BYTE   W06
// 495   ----------------------------------------
        BYTE   PATT
         POIN2  neverendingdream000_5_317
// 496   ----------------------------------------
        BYTE   W06
// 497   ----------------------------------------
        BYTE   PATT
         POIN2  neverendingdream000_5_319
// 498   ----------------------------------------
        BYTE   W06
// 499   ----------------------------------------
        BYTE   PATT
         POIN2  neverendingdream000_5_353
// 500   ----------------------------------------
        BYTE   W06
// 501   ----------------------------------------
        BYTE   PATT
         POIN2  neverendingdream000_5_289
// 502   ----------------------------------------
        BYTE   W06
// 503   ----------------------------------------
        BYTE   PATT
         POIN2  neverendingdream000_5_325
// 504   ----------------------------------------
        BYTE   W06
// 505   ----------------------------------------
        BYTE   PATT
         POIN2  neverendingdream000_5_327
// 506   ----------------------------------------
        BYTE   W06
// 507   ----------------------------------------
        BYTE   PATT
         POIN2  neverendingdream000_5_379
// 508   ----------------------------------------
        BYTE   W06
// 509   ----------------------------------------
        BYTE   PATT
         POIN2  neverendingdream000_5_381
// 510   ----------------------------------------
        BYTE   W06
// 511   ----------------------------------------
        BYTE   PATT
         POIN2  neverendingdream000_5_285
// 512   ----------------------------------------
        BYTE   W06
// 513   ----------------------------------------
        BYTE   PATT
         POIN2  neverendingdream000_5_317
// 514   ----------------------------------------
        BYTE   W06
// 515   ----------------------------------------
        BYTE   PATT
         POIN2  neverendingdream000_5_353
// 516   ----------------------------------------
        BYTE   W06
// 517   ----------------------------------------
        BYTE   PATT
         POIN2  neverendingdream000_5_291
// 518   ----------------------------------------
        BYTE   W06
// 519   ----------------------------------------
        BYTE   PATT
         POIN2  neverendingdream000_5_325
// 520   ----------------------------------------
        BYTE   W06
// 521   ----------------------------------------
        BYTE   PATT
         POIN2  neverendingdream000_5_293
// 522   ----------------------------------------
        BYTE   W06
// 523   ----------------------------------------
        BYTE   PATT
         POIN2  neverendingdream000_5_379
// 524   ----------------------------------------
        BYTE   W06
// 525   ----------------------------------------
        BYTE   PATT
         POIN2  neverendingdream000_5_381
// 526   ----------------------------------------
        BYTE   W06
// 527   ----------------------------------------
        BYTE   W04
        BYTE           N12     Cn2   v091
        BYTE   W02
// 528   ----------------------------------------
        BYTE   W06
// 529   ----------------------------------------
        BYTE   W04
        BYTE                   Ds2
        BYTE   W02
// 530   ----------------------------------------
        BYTE   W06
// 531   ----------------------------------------
        BYTE   PATT
         POIN2  neverendingdream000_5_353
// 532   ----------------------------------------
        BYTE   W06
// 533   ----------------------------------------
        BYTE   PATT
         POIN2  neverendingdream000_5_389
// 534   ----------------------------------------
        BYTE   W06
// 535   ----------------------------------------
        BYTE   PATT
         POIN2  neverendingdream000_5_339
// 536   ----------------------------------------
        BYTE   W06
// 537   ----------------------------------------
        BYTE   PATT
         POIN2  neverendingdream000_5_293
// 538   ----------------------------------------
        BYTE   W06
// 539   ----------------------------------------
        BYTE   PATT
         POIN2  neverendingdream000_5_347
// 540   ----------------------------------------
        BYTE   W06
// 541   ----------------------------------------
        BYTE   PATT
         POIN2  neverendingdream000_5_349
// 542   ----------------------------------------
        BYTE   W06
// 543   ----------------------------------------
        BYTE   PATT
         POIN2  neverendingdream000_5_319
// 544   ----------------------------------------
        BYTE   W06
// 545   ----------------------------------------
        BYTE   PATT
         POIN2  neverendingdream000_5_353
// 546   ----------------------------------------
        BYTE   W06
// 547   ----------------------------------------
        BYTE   PATT
         POIN2  neverendingdream000_5_289
// 548   ----------------------------------------
        BYTE   W06
// 549   ----------------------------------------
        BYTE   PATT
         POIN2  neverendingdream000_5_325
// 550   ----------------------------------------
        BYTE   W06
// 551   ----------------------------------------
        BYTE   PATT
         POIN2  neverendingdream000_5_327
// 552   ----------------------------------------
        BYTE   W06
// 553   ----------------------------------------
        BYTE   PATT
         POIN2  neverendingdream000_5_293
// 554   ----------------------------------------
        BYTE   W06
// 555   ----------------------------------------
        BYTE   PATT
         POIN2  neverendingdream000_5_363
// 556   ----------------------------------------
        BYTE   W06
// 557   ----------------------------------------
        BYTE   PATT
         POIN2  neverendingdream000_5_349
// 558   ----------------------------------------
        BYTE   W06
// 559   ----------------------------------------
        BYTE   PATT
         POIN2  neverendingdream000_5_319
// 560   ----------------------------------------
        BYTE   W06
// 561   ----------------------------------------
        BYTE   PATT
         POIN2  neverendingdream000_5_289
// 562   ----------------------------------------
        BYTE   W06
// 563   ----------------------------------------
        BYTE   PATT
         POIN2  neverendingdream000_5_291
// 564   ----------------------------------------
        BYTE   W06
// 565   ----------------------------------------
        BYTE   PATT
         POIN2  neverendingdream000_5_327
// 566   ----------------------------------------
        BYTE   W06
// 567   ----------------------------------------
        BYTE   PATT
         POIN2  neverendingdream000_5_297
// 568   ----------------------------------------
        BYTE   W06
// 569   ----------------------------------------
        BYTE   W04
        BYTE           N12     Dn4   v091
        BYTE   W02
// 570   ----------------------------------------
        BYTE   W06
// 571   ----------------------------------------
        BYTE   PATT
         POIN2  neverendingdream000_5_379
// 572   ----------------------------------------
        BYTE   W06
// 573   ----------------------------------------
        BYTE   PATT
         POIN2  neverendingdream000_5_381
// 574   ----------------------------------------
        BYTE   W06
// 575   ----------------------------------------
        BYTE   PATT
         POIN2  neverendingdream000_5_285
// 576   ----------------------------------------
        BYTE   W06
// 577   ----------------------------------------
        BYTE   PATT
         POIN2  neverendingdream000_5_317
// 578   ----------------------------------------
        BYTE   W06
// 579   ----------------------------------------
        BYTE   PATT
         POIN2  neverendingdream000_5_353
// 580   ----------------------------------------
        BYTE   W06
// 581   ----------------------------------------
        BYTE   PATT
         POIN2  neverendingdream000_5_389
// 582   ----------------------------------------
        BYTE   W06
// 583   ----------------------------------------
        BYTE   PATT
         POIN2  neverendingdream000_5_291
// 584   ----------------------------------------
        BYTE   W06
// 585   ----------------------------------------
        BYTE   PATT
         POIN2  neverendingdream000_5_293
// 586   ----------------------------------------
        BYTE   W06
// 587   ----------------------------------------
        BYTE   W04
        BYTE           N48     Cn3   v091
        BYTE           N48     Cn4
        BYTE   W02
// 588   ----------------------------------------
        BYTE   W01
        BYTE           N44     Dn3   v091   gtp1
        BYTE                   Dn4
        BYTE   W03
        BYTE           N42     Gn3
        BYTE           N42     Gn4
        BYTE   W02
// 589   ----------------------------------------
        BYTE   W06
// 590   ----------------------------------------
neverendingdream000_5_590:
        BYTE           VOL     33
        BYTE   W03
        BYTE                   29
        BYTE   W03
        BYTE   PEND
// 591   ----------------------------------------
neverendingdream000_5_591:
        BYTE           VOL     25
        BYTE   W03
        BYTE                   21
        BYTE   W03
        BYTE   PEND
// 592   ----------------------------------------
neverendingdream000_5_592:
        BYTE           VOL     16
        BYTE   W03
        BYTE                   12
        BYTE   W03
        BYTE   PEND
// 593   ----------------------------------------
neverendingdream000_5_593:
        BYTE           VOL     8
        BYTE   W03
        BYTE                   4
        BYTE   W03
        BYTE   PEND
// 594   ----------------------------------------
        BYTE                   0
        BYTE   W06
// 595   ----------------------------------------
        BYTE   W06
// 596   ----------------------------------------
        BYTE   W06
// 597   ----------------------------------------
        BYTE   W06
// 598   ----------------------------------------
        BYTE   W06
// 599   ----------------------------------------
        BYTE                   40
        BYTE   W06
// 600   ----------------------------------------
        BYTE   W06
// 601   ----------------------------------------
        BYTE   W06
// 602   ----------------------------------------
        BYTE   W06
// 603   ----------------------------------------
        BYTE   GoTo
         POIN2  neverendingdream000_5_LOOP
        BYTE   FINE

//****************** Track 6 (Midi-Chn.6) ******************//

neverendingdream000_6:
        BYTE   KEYSH   neverendingdream000_key+0
// 000   ----------------------------------------
        BYTE   W02
        BYTE           VOICE   54
        BYTE           VOL     40
        BYTE   W01
        BYTE           PAN     c_v+11
        BYTE   W03
// 001   ----------------------------------------
        BYTE   W06
// 002   ----------------------------------------
        BYTE   W06
// 003   ----------------------------------------
        BYTE   W06
// 004   ----------------------------------------
        BYTE   W06
// 005   ----------------------------------------
        BYTE   W06
// 006   ----------------------------------------
        BYTE   W06
// 007   ----------------------------------------
        BYTE   W06
// 008   ----------------------------------------
        BYTE   W06
// 009   ----------------------------------------
        BYTE   W06
// 010   ----------------------------------------
        BYTE   W05
neverendingdream000_6_LOOP:
        BYTE   W01
// 011   ----------------------------------------
        BYTE   W06
// 012   ----------------------------------------
neverendingdream000_6_12:
        BYTE   W03
        BYTE           N06     En2   v076
        BYTE   W03
        BYTE   PEND
// 013   ----------------------------------------
        BYTE   W06
// 014   ----------------------------------------
neverendingdream000_6_14:
        BYTE   W03
        BYTE           N06     Bn2   v076
        BYTE   W03
        BYTE   PEND
// 015   ----------------------------------------
        BYTE   W06
// 016   ----------------------------------------
neverendingdream000_6_16:
        BYTE   W03
        BYTE           N06     Fs3   v076
        BYTE   W03
        BYTE   PEND
// 017   ----------------------------------------
        BYTE   W06
// 018   ----------------------------------------
neverendingdream000_6_18:
        BYTE   W03
        BYTE           N06     Gn3   v076
        BYTE   W03
        BYTE   PEND
// 019   ----------------------------------------
        BYTE   W06
// 020   ----------------------------------------
        BYTE   W06
// 021   ----------------------------------------
        BYTE   W06
// 022   ----------------------------------------
        BYTE   W06
// 023   ----------------------------------------
        BYTE   W06
// 024   ----------------------------------------
        BYTE   W06
// 025   ----------------------------------------
        BYTE   W06
// 026   ----------------------------------------
        BYTE   W06
// 027   ----------------------------------------
        BYTE   W06
// 028   ----------------------------------------
neverendingdream000_6_28:
        BYTE   W03
        BYTE           N06     Dn2   v076
        BYTE   W03
        BYTE   PEND
// 029   ----------------------------------------
        BYTE   W06
// 030   ----------------------------------------
        BYTE   PATT
         POIN2  neverendingdream000_6_14
// 031   ----------------------------------------
        BYTE   W06
// 032   ----------------------------------------
        BYTE   PATT
         POIN2  neverendingdream000_6_16
// 033   ----------------------------------------
        BYTE   W06
// 034   ----------------------------------------
neverendingdream000_6_34:
        BYTE   W03
        BYTE           N06     Bn3   v076
        BYTE   W03
        BYTE   PEND
// 035   ----------------------------------------
        BYTE   W06
// 036   ----------------------------------------
        BYTE   W06
// 037   ----------------------------------------
        BYTE   W06
// 038   ----------------------------------------
        BYTE   W06
// 039   ----------------------------------------
        BYTE   W06
// 040   ----------------------------------------
        BYTE   W06
// 041   ----------------------------------------
        BYTE   W06
// 042   ----------------------------------------
        BYTE   W06
// 043   ----------------------------------------
        BYTE   W06
// 044   ----------------------------------------
neverendingdream000_6_44:
        BYTE   W03
        BYTE           N06     Cn2   v076
        BYTE   W03
        BYTE   PEND
// 045   ----------------------------------------
        BYTE   W06
// 046   ----------------------------------------
neverendingdream000_6_46:
        BYTE   W03
        BYTE           N06     Gn2   v076
        BYTE   W03
        BYTE   PEND
// 047   ----------------------------------------
        BYTE   W06
// 048   ----------------------------------------
neverendingdream000_6_48:
        BYTE   W03
        BYTE           N06     Dn3   v076
        BYTE   W03
        BYTE   PEND
// 049   ----------------------------------------
        BYTE   W06
// 050   ----------------------------------------
neverendingdream000_6_50:
        BYTE   W03
        BYTE           N06     En3   v076
        BYTE   W03
        BYTE   PEND
// 051   ----------------------------------------
        BYTE   W06
// 052   ----------------------------------------
        BYTE   W06
// 053   ----------------------------------------
        BYTE   W06
// 054   ----------------------------------------
        BYTE   W06
// 055   ----------------------------------------
        BYTE   W06
// 056   ----------------------------------------
        BYTE   W06
// 057   ----------------------------------------
        BYTE   W06
// 058   ----------------------------------------
        BYTE   W06
// 059   ----------------------------------------
        BYTE   W06
// 060   ----------------------------------------
neverendingdream000_6_60:
        BYTE   W03
        BYTE           N06     Bn1   v076
        BYTE   W03
        BYTE   PEND
// 061   ----------------------------------------
        BYTE   W06
// 062   ----------------------------------------
        BYTE   PATT
         POIN2  neverendingdream000_6_46
// 063   ----------------------------------------
        BYTE   W06
// 064   ----------------------------------------
        BYTE   PATT
         POIN2  neverendingdream000_6_48
// 065   ----------------------------------------
        BYTE   W06
// 066   ----------------------------------------
        BYTE   PATT
         POIN2  neverendingdream000_6_18
// 067   ----------------------------------------
        BYTE   W06
// 068   ----------------------------------------
        BYTE   W06
// 069   ----------------------------------------
        BYTE   W06
// 070   ----------------------------------------
        BYTE   W06
// 071   ----------------------------------------
        BYTE   W06
// 072   ----------------------------------------
        BYTE   W06
// 073   ----------------------------------------
        BYTE   W06
// 074   ----------------------------------------
        BYTE   W06
// 075   ----------------------------------------
        BYTE   W06
// 076   ----------------------------------------
neverendingdream000_6_76:
        BYTE   W03
        BYTE           N06     An1   v076
        BYTE   W03
        BYTE   PEND
// 077   ----------------------------------------
        BYTE   W06
// 078   ----------------------------------------
        BYTE   PATT
         POIN2  neverendingdream000_6_12
// 079   ----------------------------------------
        BYTE   W06
// 080   ----------------------------------------
neverendingdream000_6_80:
        BYTE   W03
        BYTE           N06     Cn3   v076
        BYTE   W03
        BYTE   PEND
// 081   ----------------------------------------
        BYTE   W06
// 082   ----------------------------------------
        BYTE   PATT
         POIN2  neverendingdream000_6_18
// 083   ----------------------------------------
        BYTE   W06
// 084   ----------------------------------------
        BYTE   W06
// 085   ----------------------------------------
        BYTE   W06
// 086   ----------------------------------------
        BYTE   W06
// 087   ----------------------------------------
        BYTE   W06
// 088   ----------------------------------------
        BYTE   W06
// 089   ----------------------------------------
        BYTE   W06
// 090   ----------------------------------------
        BYTE   W06
// 091   ----------------------------------------
        BYTE   W06
// 092   ----------------------------------------
        BYTE   PATT
         POIN2  neverendingdream000_6_60
// 093   ----------------------------------------
        BYTE   W06
// 094   ----------------------------------------
        BYTE   PATT
         POIN2  neverendingdream000_6_46
// 095   ----------------------------------------
        BYTE   W06
// 096   ----------------------------------------
        BYTE   PATT
         POIN2  neverendingdream000_6_48
// 097   ----------------------------------------
        BYTE   W06
// 098   ----------------------------------------
        BYTE   PATT
         POIN2  neverendingdream000_6_18
// 099   ----------------------------------------
        BYTE   W06
// 100   ----------------------------------------
        BYTE   W06
// 101   ----------------------------------------
        BYTE   W06
// 102   ----------------------------------------
        BYTE   W06
// 103   ----------------------------------------
        BYTE   W06
// 104   ----------------------------------------
        BYTE   W06
// 105   ----------------------------------------
        BYTE   W06
// 106   ----------------------------------------
        BYTE   W06
// 107   ----------------------------------------
        BYTE   W06
// 108   ----------------------------------------
        BYTE   PATT
         POIN2  neverendingdream000_6_44
// 109   ----------------------------------------
        BYTE   W06
// 110   ----------------------------------------
        BYTE   PATT
         POIN2  neverendingdream000_6_46
// 111   ----------------------------------------
        BYTE   W06
// 112   ----------------------------------------
        BYTE   PATT
         POIN2  neverendingdream000_6_48
// 113   ----------------------------------------
        BYTE   W06
// 114   ----------------------------------------
        BYTE   PATT
         POIN2  neverendingdream000_6_50
// 115   ----------------------------------------
        BYTE   W06
// 116   ----------------------------------------
        BYTE   W06
// 117   ----------------------------------------
        BYTE   W06
// 118   ----------------------------------------
        BYTE   W06
// 119   ----------------------------------------
        BYTE   W06
// 120   ----------------------------------------
        BYTE   W06
// 121   ----------------------------------------
        BYTE   W06
// 122   ----------------------------------------
        BYTE   W06
// 123   ----------------------------------------
        BYTE   W06
// 124   ----------------------------------------
        BYTE   PATT
         POIN2  neverendingdream000_6_28
// 125   ----------------------------------------
        BYTE   W06
// 126   ----------------------------------------
neverendingdream000_6_126:
        BYTE   W03
        BYTE           N06     An2   v076
        BYTE   W03
        BYTE   PEND
// 127   ----------------------------------------
        BYTE   W06
// 128   ----------------------------------------
        BYTE   PATT
         POIN2  neverendingdream000_6_50
// 129   ----------------------------------------
        BYTE   W06
// 130   ----------------------------------------
        BYTE   PATT
         POIN2  neverendingdream000_6_16
// 131   ----------------------------------------
        BYTE   W06
// 132   ----------------------------------------
        BYTE   W06
// 133   ----------------------------------------
        BYTE   W06
// 134   ----------------------------------------
        BYTE   W06
// 135   ----------------------------------------
        BYTE   W06
// 136   ----------------------------------------
        BYTE   W06
// 137   ----------------------------------------
        BYTE   W06
// 138   ----------------------------------------
        BYTE   W06
// 139   ----------------------------------------
        BYTE   W06
// 140   ----------------------------------------
        BYTE   PATT
         POIN2  neverendingdream000_6_12
// 141   ----------------------------------------
        BYTE   W06
// 142   ----------------------------------------
        BYTE   PATT
         POIN2  neverendingdream000_6_14
// 143   ----------------------------------------
        BYTE   W06
// 144   ----------------------------------------
        BYTE   PATT
         POIN2  neverendingdream000_6_16
// 145   ----------------------------------------
        BYTE   W06
// 146   ----------------------------------------
        BYTE   PATT
         POIN2  neverendingdream000_6_18
// 147   ----------------------------------------
        BYTE   W06
// 148   ----------------------------------------
        BYTE   W06
// 149   ----------------------------------------
        BYTE   W06
// 150   ----------------------------------------
        BYTE   W06
// 151   ----------------------------------------
        BYTE   W06
// 152   ----------------------------------------
        BYTE   W06
// 153   ----------------------------------------
        BYTE   W06
// 154   ----------------------------------------
        BYTE   W06
// 155   ----------------------------------------
        BYTE   W06
// 156   ----------------------------------------
        BYTE   PATT
         POIN2  neverendingdream000_6_28
// 157   ----------------------------------------
        BYTE   W06
// 158   ----------------------------------------
        BYTE   PATT
         POIN2  neverendingdream000_6_14
// 159   ----------------------------------------
        BYTE   W06
// 160   ----------------------------------------
        BYTE   PATT
         POIN2  neverendingdream000_6_16
// 161   ----------------------------------------
        BYTE   W06
// 162   ----------------------------------------
        BYTE   PATT
         POIN2  neverendingdream000_6_34
// 163   ----------------------------------------
        BYTE   W06
// 164   ----------------------------------------
        BYTE   W06
// 165   ----------------------------------------
        BYTE   W06
// 166   ----------------------------------------
        BYTE   W06
// 167   ----------------------------------------
        BYTE   W06
// 168   ----------------------------------------
        BYTE   W06
// 169   ----------------------------------------
        BYTE   W06
// 170   ----------------------------------------
        BYTE   W06
// 171   ----------------------------------------
        BYTE   W06
// 172   ----------------------------------------
        BYTE   PATT
         POIN2  neverendingdream000_6_44
// 173   ----------------------------------------
        BYTE   W06
// 174   ----------------------------------------
        BYTE   PATT
         POIN2  neverendingdream000_6_46
// 175   ----------------------------------------
        BYTE   W06
// 176   ----------------------------------------
        BYTE   PATT
         POIN2  neverendingdream000_6_48
// 177   ----------------------------------------
        BYTE   W06
// 178   ----------------------------------------
        BYTE   PATT
         POIN2  neverendingdream000_6_50
// 179   ----------------------------------------
        BYTE   W06
// 180   ----------------------------------------
        BYTE   W06
// 181   ----------------------------------------
        BYTE   W06
// 182   ----------------------------------------
        BYTE   W06
// 183   ----------------------------------------
        BYTE   W06
// 184   ----------------------------------------
        BYTE   W06
// 185   ----------------------------------------
        BYTE   W06
// 186   ----------------------------------------
        BYTE   W06
// 187   ----------------------------------------
        BYTE   W06
// 188   ----------------------------------------
        BYTE   PATT
         POIN2  neverendingdream000_6_60
// 189   ----------------------------------------
        BYTE   W06
// 190   ----------------------------------------
        BYTE   PATT
         POIN2  neverendingdream000_6_46
// 191   ----------------------------------------
        BYTE   W06
// 192   ----------------------------------------
        BYTE   PATT
         POIN2  neverendingdream000_6_48
// 193   ----------------------------------------
        BYTE   W06
// 194   ----------------------------------------
        BYTE   PATT
         POIN2  neverendingdream000_6_18
// 195   ----------------------------------------
        BYTE   W06
// 196   ----------------------------------------
        BYTE   W06
// 197   ----------------------------------------
        BYTE   W06
// 198   ----------------------------------------
        BYTE   W06
// 199   ----------------------------------------
        BYTE   W06
// 200   ----------------------------------------
        BYTE   W06
// 201   ----------------------------------------
        BYTE   W06
// 202   ----------------------------------------
        BYTE   W06
// 203   ----------------------------------------
        BYTE   W06
// 204   ----------------------------------------
        BYTE   PATT
         POIN2  neverendingdream000_6_76
// 205   ----------------------------------------
        BYTE   W06
// 206   ----------------------------------------
        BYTE   PATT
         POIN2  neverendingdream000_6_12
// 207   ----------------------------------------
        BYTE   W06
// 208   ----------------------------------------
        BYTE   PATT
         POIN2  neverendingdream000_6_80
// 209   ----------------------------------------
        BYTE   W06
// 210   ----------------------------------------
        BYTE   PATT
         POIN2  neverendingdream000_6_18
// 211   ----------------------------------------
        BYTE   W06
// 212   ----------------------------------------
        BYTE   W06
// 213   ----------------------------------------
        BYTE   W06
// 214   ----------------------------------------
        BYTE   W06
// 215   ----------------------------------------
        BYTE   W06
// 216   ----------------------------------------
        BYTE   W06
// 217   ----------------------------------------
        BYTE   W06
// 218   ----------------------------------------
        BYTE   W06
// 219   ----------------------------------------
        BYTE   W06
// 220   ----------------------------------------
        BYTE   PATT
         POIN2  neverendingdream000_6_60
// 221   ----------------------------------------
        BYTE   W06
// 222   ----------------------------------------
        BYTE   PATT
         POIN2  neverendingdream000_6_46
// 223   ----------------------------------------
        BYTE   W06
// 224   ----------------------------------------
        BYTE   PATT
         POIN2  neverendingdream000_6_48
// 225   ----------------------------------------
        BYTE   W06
// 226   ----------------------------------------
        BYTE   PATT
         POIN2  neverendingdream000_6_18
// 227   ----------------------------------------
        BYTE   W06
// 228   ----------------------------------------
        BYTE   W06
// 229   ----------------------------------------
        BYTE   W06
// 230   ----------------------------------------
        BYTE   W06
// 231   ----------------------------------------
        BYTE   W06
// 232   ----------------------------------------
        BYTE   W06
// 233   ----------------------------------------
        BYTE   W06
// 234   ----------------------------------------
        BYTE   W06
// 235   ----------------------------------------
        BYTE   W06
// 236   ----------------------------------------
        BYTE   PATT
         POIN2  neverendingdream000_6_44
// 237   ----------------------------------------
        BYTE   W06
// 238   ----------------------------------------
        BYTE   PATT
         POIN2  neverendingdream000_6_46
// 239   ----------------------------------------
        BYTE   W06
// 240   ----------------------------------------
        BYTE   PATT
         POIN2  neverendingdream000_6_48
// 241   ----------------------------------------
        BYTE   W06
// 242   ----------------------------------------
        BYTE   PATT
         POIN2  neverendingdream000_6_50
// 243   ----------------------------------------
        BYTE   W06
// 244   ----------------------------------------
        BYTE   W06
// 245   ----------------------------------------
        BYTE   W06
// 246   ----------------------------------------
        BYTE   W06
// 247   ----------------------------------------
        BYTE   W06
// 248   ----------------------------------------
        BYTE   W06
// 249   ----------------------------------------
        BYTE   W06
// 250   ----------------------------------------
        BYTE   W06
// 251   ----------------------------------------
        BYTE   W06
// 252   ----------------------------------------
        BYTE   PATT
         POIN2  neverendingdream000_6_28
// 253   ----------------------------------------
        BYTE   W06
// 254   ----------------------------------------
        BYTE   PATT
         POIN2  neverendingdream000_6_126
// 255   ----------------------------------------
        BYTE   W06
// 256   ----------------------------------------
        BYTE   PATT
         POIN2  neverendingdream000_6_50
// 257   ----------------------------------------
        BYTE   W06
// 258   ----------------------------------------
        BYTE   PATT
         POIN2  neverendingdream000_6_16
// 259   ----------------------------------------
        BYTE   W06
// 260   ----------------------------------------
        BYTE   W06
// 261   ----------------------------------------
        BYTE   W06
// 262   ----------------------------------------
        BYTE   W06
// 263   ----------------------------------------
        BYTE   W06
// 264   ----------------------------------------
        BYTE   W06
// 265   ----------------------------------------
        BYTE   W06
// 266   ----------------------------------------
        BYTE   W06
// 267   ----------------------------------------
        BYTE   W06
// 268   ----------------------------------------
        BYTE   W06
// 269   ----------------------------------------
        BYTE   W06
// 270   ----------------------------------------
        BYTE   W06
// 271   ----------------------------------------
        BYTE   W06
// 272   ----------------------------------------
        BYTE   W06
// 273   ----------------------------------------
        BYTE   W06
// 274   ----------------------------------------
        BYTE   W06
// 275   ----------------------------------------
        BYTE   W06
// 276   ----------------------------------------
        BYTE   W06
// 277   ----------------------------------------
        BYTE   W06
// 278   ----------------------------------------
        BYTE   W06
// 279   ----------------------------------------
        BYTE   W06
// 280   ----------------------------------------
        BYTE   W06
// 281   ----------------------------------------
        BYTE   W06
// 282   ----------------------------------------
        BYTE   W06
// 283   ----------------------------------------
        BYTE   W06
// 284   ----------------------------------------
neverendingdream000_6_284:
        BYTE   W03
        BYTE           N18     Gn1   v081
        BYTE   W03
        BYTE   PEND
// 285   ----------------------------------------
        BYTE   W06
// 286   ----------------------------------------
neverendingdream000_6_286:
        BYTE   W03
        BYTE           N12     Dn2   v071
        BYTE   W03
        BYTE   PEND
// 287   ----------------------------------------
        BYTE   W06
// 288   ----------------------------------------
neverendingdream000_6_288:
        BYTE   W03
        BYTE           N12     An2   v071
        BYTE   W03
        BYTE   PEND
// 289   ----------------------------------------
        BYTE   W06
// 290   ----------------------------------------
neverendingdream000_6_290:
        BYTE   W03
        BYTE           N12     Bn2   v071
        BYTE   W03
        BYTE   PEND
// 291   ----------------------------------------
        BYTE   W06
// 292   ----------------------------------------
neverendingdream000_6_292:
        BYTE   W03
        BYTE           N12     Dn3   v071
        BYTE   W03
        BYTE   PEND
// 293   ----------------------------------------
        BYTE   W06
// 294   ----------------------------------------
neverendingdream000_6_294:
        BYTE   W03
        BYTE           N12     Gn3   v071
        BYTE   W03
        BYTE   PEND
// 295   ----------------------------------------
        BYTE   W06
// 296   ----------------------------------------
neverendingdream000_6_296:
        BYTE   W03
        BYTE           N12     An3   v071
        BYTE   W03
        BYTE   PEND
// 297   ----------------------------------------
        BYTE   W06
// 298   ----------------------------------------
neverendingdream000_6_298:
        BYTE   W03
        BYTE           N12     Bn3   v071
        BYTE   W03
        BYTE   PEND
// 299   ----------------------------------------
        BYTE   W06
// 300   ----------------------------------------
        BYTE   PATT
         POIN2  neverendingdream000_6_284
// 301   ----------------------------------------
        BYTE   W06
// 302   ----------------------------------------
        BYTE   PATT
         POIN2  neverendingdream000_6_286
// 303   ----------------------------------------
        BYTE   W06
// 304   ----------------------------------------
        BYTE   PATT
         POIN2  neverendingdream000_6_288
// 305   ----------------------------------------
        BYTE   W06
// 306   ----------------------------------------
        BYTE   PATT
         POIN2  neverendingdream000_6_290
// 307   ----------------------------------------
        BYTE   W06
// 308   ----------------------------------------
        BYTE   PATT
         POIN2  neverendingdream000_6_292
// 309   ----------------------------------------
        BYTE   W06
// 310   ----------------------------------------
        BYTE   PATT
         POIN2  neverendingdream000_6_294
// 311   ----------------------------------------
        BYTE   W06
// 312   ----------------------------------------
        BYTE   PATT
         POIN2  neverendingdream000_6_296
// 313   ----------------------------------------
        BYTE   W06
// 314   ----------------------------------------
        BYTE   PATT
         POIN2  neverendingdream000_6_298
// 315   ----------------------------------------
        BYTE   W06
// 316   ----------------------------------------
neverendingdream000_6_316:
        BYTE   W03
        BYTE           N18     Fs1   v081
        BYTE   W03
        BYTE   PEND
// 317   ----------------------------------------
        BYTE   W06
// 318   ----------------------------------------
neverendingdream000_6_318:
        BYTE   W03
        BYTE           N12     En2   v071
        BYTE   W03
        BYTE   PEND
// 319   ----------------------------------------
        BYTE   W06
// 320   ----------------------------------------
neverendingdream000_6_320:
        BYTE   W03
        BYTE           N12     Fs2   v071
        BYTE   W03
        BYTE   PEND
// 321   ----------------------------------------
        BYTE   W06
// 322   ----------------------------------------
        BYTE   PATT
         POIN2  neverendingdream000_6_288
// 323   ----------------------------------------
        BYTE   W06
// 324   ----------------------------------------
        BYTE   PATT
         POIN2  neverendingdream000_6_290
// 325   ----------------------------------------
        BYTE   W06
// 326   ----------------------------------------
neverendingdream000_6_326:
        BYTE   W03
        BYTE           N12     En3   v071
        BYTE   W03
        BYTE   PEND
// 327   ----------------------------------------
        BYTE   W06
// 328   ----------------------------------------
neverendingdream000_6_328:
        BYTE   W03
        BYTE           N12     Fs3   v071
        BYTE   W03
        BYTE   PEND
// 329   ----------------------------------------
        BYTE   W06
// 330   ----------------------------------------
        BYTE   PATT
         POIN2  neverendingdream000_6_296
// 331   ----------------------------------------
        BYTE   W06
// 332   ----------------------------------------
neverendingdream000_6_332:
        BYTE   W03
        BYTE           N18     Bn1   v081
        BYTE   W03
        BYTE   PEND
// 333   ----------------------------------------
        BYTE   W06
// 334   ----------------------------------------
        BYTE   PATT
         POIN2  neverendingdream000_6_320
// 335   ----------------------------------------
        BYTE   W06
// 336   ----------------------------------------
        BYTE   PATT
         POIN2  neverendingdream000_6_290
// 337   ----------------------------------------
        BYTE   W06
// 338   ----------------------------------------
neverendingdream000_6_338:
        BYTE   W03
        BYTE           N12     Cs3   v071
        BYTE   W03
        BYTE   PEND
// 339   ----------------------------------------
        BYTE   W06
// 340   ----------------------------------------
neverendingdream000_6_340:
        BYTE   W03
        BYTE           N12     Ds3   v071
        BYTE   W03
        BYTE   PEND
// 341   ----------------------------------------
        BYTE   W06
// 342   ----------------------------------------
        BYTE   PATT
         POIN2  neverendingdream000_6_328
// 343   ----------------------------------------
        BYTE   W06
// 344   ----------------------------------------
        BYTE   PATT
         POIN2  neverendingdream000_6_296
// 345   ----------------------------------------
        BYTE   W06
// 346   ----------------------------------------
        BYTE   PATT
         POIN2  neverendingdream000_6_298
// 347   ----------------------------------------
        BYTE   W06
// 348   ----------------------------------------
neverendingdream000_6_348:
        BYTE   W03
        BYTE           N18     En1   v081
        BYTE   W03
        BYTE   PEND
// 349   ----------------------------------------
        BYTE   W06
// 350   ----------------------------------------
neverendingdream000_6_350:
        BYTE   W03
        BYTE           N12     Bn1   v071
        BYTE   W03
        BYTE   PEND
// 351   ----------------------------------------
        BYTE   W06
// 352   ----------------------------------------
        BYTE   PATT
         POIN2  neverendingdream000_6_320
// 353   ----------------------------------------
        BYTE   W06
// 354   ----------------------------------------
neverendingdream000_6_354:
        BYTE   W03
        BYTE           N12     Gn2   v071
        BYTE   W03
        BYTE   PEND
// 355   ----------------------------------------
        BYTE   W06
// 356   ----------------------------------------
        BYTE   PATT
         POIN2  neverendingdream000_6_290
// 357   ----------------------------------------
        BYTE   W06
// 358   ----------------------------------------
        BYTE   PATT
         POIN2  neverendingdream000_6_326
// 359   ----------------------------------------
        BYTE   W06
// 360   ----------------------------------------
        BYTE   PATT
         POIN2  neverendingdream000_6_328
// 361   ----------------------------------------
        BYTE   W06
// 362   ----------------------------------------
        BYTE   PATT
         POIN2  neverendingdream000_6_294
// 363   ----------------------------------------
        BYTE   W06
// 364   ----------------------------------------
neverendingdream000_6_364:
        BYTE   W03
        BYTE           N18     Dn1   v081
        BYTE   W03
        BYTE   PEND
// 365   ----------------------------------------
        BYTE   W06
// 366   ----------------------------------------
        BYTE   PATT
         POIN2  neverendingdream000_6_350
// 367   ----------------------------------------
        BYTE   W06
// 368   ----------------------------------------
        BYTE   PATT
         POIN2  neverendingdream000_6_318
// 369   ----------------------------------------
        BYTE   W06
// 370   ----------------------------------------
        BYTE   PATT
         POIN2  neverendingdream000_6_320
// 371   ----------------------------------------
        BYTE   W06
// 372   ----------------------------------------
        BYTE   PATT
         POIN2  neverendingdream000_6_290
// 373   ----------------------------------------
        BYTE   W06
// 374   ----------------------------------------
        BYTE   PATT
         POIN2  neverendingdream000_6_326
// 375   ----------------------------------------
        BYTE   W06
// 376   ----------------------------------------
        BYTE   PATT
         POIN2  neverendingdream000_6_328
// 377   ----------------------------------------
        BYTE   W06
// 378   ----------------------------------------
        BYTE   PATT
         POIN2  neverendingdream000_6_294
// 379   ----------------------------------------
        BYTE   W06
// 380   ----------------------------------------
neverendingdream000_6_380:
        BYTE   W03
        BYTE           N18     Cn1   v081
        BYTE   W03
        BYTE   PEND
// 381   ----------------------------------------
        BYTE   W06
// 382   ----------------------------------------
neverendingdream000_6_382:
        BYTE   W03
        BYTE           N12     Gn1   v071
        BYTE   W03
        BYTE   PEND
// 383   ----------------------------------------
        BYTE   W06
// 384   ----------------------------------------
        BYTE   PATT
         POIN2  neverendingdream000_6_286
// 385   ----------------------------------------
        BYTE   W06
// 386   ----------------------------------------
        BYTE   PATT
         POIN2  neverendingdream000_6_318
// 387   ----------------------------------------
        BYTE   W06
// 388   ----------------------------------------
        BYTE   PATT
         POIN2  neverendingdream000_6_354
// 389   ----------------------------------------
        BYTE   W06
// 390   ----------------------------------------
neverendingdream000_6_390:
        BYTE   W03
        BYTE           N12     Cn3   v071
        BYTE   W03
        BYTE   PEND
// 391   ----------------------------------------
        BYTE   W06
// 392   ----------------------------------------
        BYTE   PATT
         POIN2  neverendingdream000_6_292
// 393   ----------------------------------------
        BYTE   W06
// 394   ----------------------------------------
        BYTE   PATT
         POIN2  neverendingdream000_6_326
// 395   ----------------------------------------
        BYTE   W06
// 396   ----------------------------------------
        BYTE   PATT
         POIN2  neverendingdream000_6_364
// 397   ----------------------------------------
        BYTE   W06
// 398   ----------------------------------------
        BYTE   W03
        BYTE           N12     An1   v071
        BYTE   W03
// 399   ----------------------------------------
        BYTE   W06
// 400   ----------------------------------------
        BYTE   PATT
         POIN2  neverendingdream000_6_318
// 401   ----------------------------------------
        BYTE   W06
// 402   ----------------------------------------
        BYTE   PATT
         POIN2  neverendingdream000_6_320
// 403   ----------------------------------------
        BYTE   W06
// 404   ----------------------------------------
        BYTE   PATT
         POIN2  neverendingdream000_6_288
// 405   ----------------------------------------
        BYTE   W06
// 406   ----------------------------------------
        BYTE   PATT
         POIN2  neverendingdream000_6_292
// 407   ----------------------------------------
        BYTE   W06
// 408   ----------------------------------------
        BYTE   PATT
         POIN2  neverendingdream000_6_326
// 409   ----------------------------------------
        BYTE   W06
// 410   ----------------------------------------
        BYTE   PATT
         POIN2  neverendingdream000_6_328
// 411   ----------------------------------------
        BYTE   W06
// 412   ----------------------------------------
        BYTE   PATT
         POIN2  neverendingdream000_6_284
// 413   ----------------------------------------
        BYTE   W06
// 414   ----------------------------------------
        BYTE   PATT
         POIN2  neverendingdream000_6_286
// 415   ----------------------------------------
        BYTE   W06
// 416   ----------------------------------------
        BYTE   PATT
         POIN2  neverendingdream000_6_288
// 417   ----------------------------------------
        BYTE   W06
// 418   ----------------------------------------
        BYTE   PATT
         POIN2  neverendingdream000_6_290
// 419   ----------------------------------------
        BYTE   W06
// 420   ----------------------------------------
        BYTE   PATT
         POIN2  neverendingdream000_6_292
// 421   ----------------------------------------
        BYTE   W06
// 422   ----------------------------------------
        BYTE   PATT
         POIN2  neverendingdream000_6_294
// 423   ----------------------------------------
        BYTE   W06
// 424   ----------------------------------------
        BYTE   PATT
         POIN2  neverendingdream000_6_296
// 425   ----------------------------------------
        BYTE   W06
// 426   ----------------------------------------
        BYTE   PATT
         POIN2  neverendingdream000_6_298
// 427   ----------------------------------------
        BYTE   W06
// 428   ----------------------------------------
        BYTE   PATT
         POIN2  neverendingdream000_6_284
// 429   ----------------------------------------
        BYTE   W06
// 430   ----------------------------------------
        BYTE   PATT
         POIN2  neverendingdream000_6_286
// 431   ----------------------------------------
        BYTE   W06
// 432   ----------------------------------------
        BYTE   PATT
         POIN2  neverendingdream000_6_288
// 433   ----------------------------------------
        BYTE   W06
// 434   ----------------------------------------
        BYTE   PATT
         POIN2  neverendingdream000_6_290
// 435   ----------------------------------------
        BYTE   W06
// 436   ----------------------------------------
        BYTE   PATT
         POIN2  neverendingdream000_6_292
// 437   ----------------------------------------
        BYTE   W06
// 438   ----------------------------------------
        BYTE   PATT
         POIN2  neverendingdream000_6_294
// 439   ----------------------------------------
        BYTE   W06
// 440   ----------------------------------------
        BYTE   PATT
         POIN2  neverendingdream000_6_296
// 441   ----------------------------------------
        BYTE   W06
// 442   ----------------------------------------
        BYTE   PATT
         POIN2  neverendingdream000_6_298
// 443   ----------------------------------------
        BYTE   W06
// 444   ----------------------------------------
        BYTE   PATT
         POIN2  neverendingdream000_6_316
// 445   ----------------------------------------
        BYTE   W06
// 446   ----------------------------------------
        BYTE   PATT
         POIN2  neverendingdream000_6_318
// 447   ----------------------------------------
        BYTE   W06
// 448   ----------------------------------------
        BYTE   PATT
         POIN2  neverendingdream000_6_320
// 449   ----------------------------------------
        BYTE   W06
// 450   ----------------------------------------
        BYTE   PATT
         POIN2  neverendingdream000_6_288
// 451   ----------------------------------------
        BYTE   W06
// 452   ----------------------------------------
        BYTE   PATT
         POIN2  neverendingdream000_6_290
// 453   ----------------------------------------
        BYTE   W06
// 454   ----------------------------------------
        BYTE   PATT
         POIN2  neverendingdream000_6_326
// 455   ----------------------------------------
        BYTE   W06
// 456   ----------------------------------------
        BYTE   PATT
         POIN2  neverendingdream000_6_328
// 457   ----------------------------------------
        BYTE   W06
// 458   ----------------------------------------
        BYTE   PATT
         POIN2  neverendingdream000_6_296
// 459   ----------------------------------------
        BYTE   W06
// 460   ----------------------------------------
        BYTE   PATT
         POIN2  neverendingdream000_6_332
// 461   ----------------------------------------
        BYTE   W06
// 462   ----------------------------------------
        BYTE   PATT
         POIN2  neverendingdream000_6_320
// 463   ----------------------------------------
        BYTE   W06
// 464   ----------------------------------------
        BYTE   PATT
         POIN2  neverendingdream000_6_290
// 465   ----------------------------------------
        BYTE   W06
// 466   ----------------------------------------
        BYTE   PATT
         POIN2  neverendingdream000_6_338
// 467   ----------------------------------------
        BYTE   W06
// 468   ----------------------------------------
        BYTE   PATT
         POIN2  neverendingdream000_6_340
// 469   ----------------------------------------
        BYTE   W06
// 470   ----------------------------------------
        BYTE   PATT
         POIN2  neverendingdream000_6_328
// 471   ----------------------------------------
        BYTE   W06
// 472   ----------------------------------------
        BYTE   PATT
         POIN2  neverendingdream000_6_296
// 473   ----------------------------------------
        BYTE   W06
// 474   ----------------------------------------
        BYTE   PATT
         POIN2  neverendingdream000_6_298
// 475   ----------------------------------------
        BYTE   W06
// 476   ----------------------------------------
        BYTE   PATT
         POIN2  neverendingdream000_6_348
// 477   ----------------------------------------
        BYTE   W06
// 478   ----------------------------------------
        BYTE   PATT
         POIN2  neverendingdream000_6_350
// 479   ----------------------------------------
        BYTE   W06
// 480   ----------------------------------------
        BYTE   PATT
         POIN2  neverendingdream000_6_318
// 481   ----------------------------------------
        BYTE   W06
// 482   ----------------------------------------
        BYTE   PATT
         POIN2  neverendingdream000_6_320
// 483   ----------------------------------------
        BYTE   W06
// 484   ----------------------------------------
        BYTE   PATT
         POIN2  neverendingdream000_6_354
// 485   ----------------------------------------
        BYTE   W06
// 486   ----------------------------------------
        BYTE   PATT
         POIN2  neverendingdream000_6_290
// 487   ----------------------------------------
        BYTE   W06
// 488   ----------------------------------------
        BYTE   PATT
         POIN2  neverendingdream000_6_326
// 489   ----------------------------------------
        BYTE   W06
// 490   ----------------------------------------
        BYTE   PATT
         POIN2  neverendingdream000_6_328
// 491   ----------------------------------------
        BYTE   W06
// 492   ----------------------------------------
        BYTE   PATT
         POIN2  neverendingdream000_6_364
// 493   ----------------------------------------
        BYTE   W06
// 494   ----------------------------------------
        BYTE   PATT
         POIN2  neverendingdream000_6_350
// 495   ----------------------------------------
        BYTE   W06
// 496   ----------------------------------------
        BYTE   PATT
         POIN2  neverendingdream000_6_318
// 497   ----------------------------------------
        BYTE   W06
// 498   ----------------------------------------
        BYTE   PATT
         POIN2  neverendingdream000_6_320
// 499   ----------------------------------------
        BYTE   W06
// 500   ----------------------------------------
        BYTE   PATT
         POIN2  neverendingdream000_6_354
// 501   ----------------------------------------
        BYTE   W06
// 502   ----------------------------------------
        BYTE   PATT
         POIN2  neverendingdream000_6_290
// 503   ----------------------------------------
        BYTE   W06
// 504   ----------------------------------------
        BYTE   PATT
         POIN2  neverendingdream000_6_326
// 505   ----------------------------------------
        BYTE   W06
// 506   ----------------------------------------
        BYTE   PATT
         POIN2  neverendingdream000_6_328
// 507   ----------------------------------------
        BYTE   W06
// 508   ----------------------------------------
        BYTE   PATT
         POIN2  neverendingdream000_6_380
// 509   ----------------------------------------
        BYTE   W06
// 510   ----------------------------------------
        BYTE   PATT
         POIN2  neverendingdream000_6_382
// 511   ----------------------------------------
        BYTE   W06
// 512   ----------------------------------------
        BYTE   PATT
         POIN2  neverendingdream000_6_286
// 513   ----------------------------------------
        BYTE   W06
// 514   ----------------------------------------
        BYTE   PATT
         POIN2  neverendingdream000_6_318
// 515   ----------------------------------------
        BYTE   W06
// 516   ----------------------------------------
        BYTE   PATT
         POIN2  neverendingdream000_6_354
// 517   ----------------------------------------
        BYTE   W06
// 518   ----------------------------------------
        BYTE   PATT
         POIN2  neverendingdream000_6_292
// 519   ----------------------------------------
        BYTE   W06
// 520   ----------------------------------------
        BYTE   PATT
         POIN2  neverendingdream000_6_326
// 521   ----------------------------------------
        BYTE   W06
// 522   ----------------------------------------
        BYTE   PATT
         POIN2  neverendingdream000_6_294
// 523   ----------------------------------------
        BYTE   W06
// 524   ----------------------------------------
        BYTE   PATT
         POIN2  neverendingdream000_6_380
// 525   ----------------------------------------
        BYTE   W06
// 526   ----------------------------------------
        BYTE   PATT
         POIN2  neverendingdream000_6_382
// 527   ----------------------------------------
        BYTE   W06
// 528   ----------------------------------------
        BYTE   W03
        BYTE           N12     Cn2   v071
        BYTE   W03
// 529   ----------------------------------------
        BYTE   W06
// 530   ----------------------------------------
        BYTE   W03
        BYTE                   Ds2
        BYTE   W03
// 531   ----------------------------------------
        BYTE   W06
// 532   ----------------------------------------
        BYTE   PATT
         POIN2  neverendingdream000_6_354
// 533   ----------------------------------------
        BYTE   W06
// 534   ----------------------------------------
        BYTE   PATT
         POIN2  neverendingdream000_6_390
// 535   ----------------------------------------
        BYTE   W06
// 536   ----------------------------------------
        BYTE   PATT
         POIN2  neverendingdream000_6_340
// 537   ----------------------------------------
        BYTE   W06
// 538   ----------------------------------------
        BYTE   PATT
         POIN2  neverendingdream000_6_294
// 539   ----------------------------------------
        BYTE   W06
// 540   ----------------------------------------
        BYTE   PATT
         POIN2  neverendingdream000_6_348
// 541   ----------------------------------------
        BYTE   W06
// 542   ----------------------------------------
        BYTE   PATT
         POIN2  neverendingdream000_6_350
// 543   ----------------------------------------
        BYTE   W06
// 544   ----------------------------------------
        BYTE   PATT
         POIN2  neverendingdream000_6_320
// 545   ----------------------------------------
        BYTE   W06
// 546   ----------------------------------------
        BYTE   PATT
         POIN2  neverendingdream000_6_354
// 547   ----------------------------------------
        BYTE   W06
// 548   ----------------------------------------
        BYTE   PATT
         POIN2  neverendingdream000_6_290
// 549   ----------------------------------------
        BYTE   W06
// 550   ----------------------------------------
        BYTE   PATT
         POIN2  neverendingdream000_6_326
// 551   ----------------------------------------
        BYTE   W06
// 552   ----------------------------------------
        BYTE   PATT
         POIN2  neverendingdream000_6_328
// 553   ----------------------------------------
        BYTE   W06
// 554   ----------------------------------------
        BYTE   PATT
         POIN2  neverendingdream000_6_294
// 555   ----------------------------------------
        BYTE   W06
// 556   ----------------------------------------
        BYTE   PATT
         POIN2  neverendingdream000_6_364
// 557   ----------------------------------------
        BYTE   W06
// 558   ----------------------------------------
        BYTE   PATT
         POIN2  neverendingdream000_6_350
// 559   ----------------------------------------
        BYTE   W06
// 560   ----------------------------------------
        BYTE   PATT
         POIN2  neverendingdream000_6_320
// 561   ----------------------------------------
        BYTE   W06
// 562   ----------------------------------------
        BYTE   PATT
         POIN2  neverendingdream000_6_290
// 563   ----------------------------------------
        BYTE   W06
// 564   ----------------------------------------
        BYTE   PATT
         POIN2  neverendingdream000_6_292
// 565   ----------------------------------------
        BYTE   W06
// 566   ----------------------------------------
        BYTE   PATT
         POIN2  neverendingdream000_6_328
// 567   ----------------------------------------
        BYTE   W06
// 568   ----------------------------------------
        BYTE   PATT
         POIN2  neverendingdream000_6_298
// 569   ----------------------------------------
        BYTE   W06
// 570   ----------------------------------------
        BYTE   W03
        BYTE           N12     Dn4   v071
        BYTE   W03
// 571   ----------------------------------------
        BYTE   W06
// 572   ----------------------------------------
        BYTE   PATT
         POIN2  neverendingdream000_6_380
// 573   ----------------------------------------
        BYTE   W06
// 574   ----------------------------------------
        BYTE   PATT
         POIN2  neverendingdream000_6_382
// 575   ----------------------------------------
        BYTE   W06
// 576   ----------------------------------------
        BYTE   PATT
         POIN2  neverendingdream000_6_286
// 577   ----------------------------------------
        BYTE   W06
// 578   ----------------------------------------
        BYTE   PATT
         POIN2  neverendingdream000_6_318
// 579   ----------------------------------------
        BYTE   W06
// 580   ----------------------------------------
        BYTE   PATT
         POIN2  neverendingdream000_6_354
// 581   ----------------------------------------
        BYTE   W06
// 582   ----------------------------------------
        BYTE   PATT
         POIN2  neverendingdream000_6_390
// 583   ----------------------------------------
        BYTE   W06
// 584   ----------------------------------------
        BYTE   PATT
         POIN2  neverendingdream000_6_292
// 585   ----------------------------------------
        BYTE   W06
// 586   ----------------------------------------
        BYTE   PATT
         POIN2  neverendingdream000_6_294
// 587   ----------------------------------------
        BYTE   W06
// 588   ----------------------------------------
        BYTE   W03
        BYTE           N48     Cn3   v071
        BYTE           N48     Cn4
        BYTE   W03
// 589   ----------------------------------------
        BYTE           N44     Dn3   v071   gtp1
        BYTE                   Dn4
        BYTE   W03
        BYTE           N42     Gn3
        BYTE           N42     Gn4
        BYTE   W03
// 590   ----------------------------------------
        BYTE   W06
// 591   ----------------------------------------
        BYTE   PATT
         POIN2  neverendingdream000_5_590
// 592   ----------------------------------------
        BYTE   PATT
         POIN2  neverendingdream000_5_591
// 593   ----------------------------------------
        BYTE   PATT
         POIN2  neverendingdream000_5_592
// 594   ----------------------------------------
        BYTE   PATT
         POIN2  neverendingdream000_5_593
// 595   ----------------------------------------
        BYTE           VOL     0
        BYTE   W06
// 596   ----------------------------------------
        BYTE   W06
// 597   ----------------------------------------
        BYTE   W06
// 598   ----------------------------------------
        BYTE   W06
// 599   ----------------------------------------
        BYTE                   40
        BYTE   W06
// 600   ----------------------------------------
        BYTE   W06
// 601   ----------------------------------------
        BYTE   W06
// 602   ----------------------------------------
        BYTE   W06
// 603   ----------------------------------------
        BYTE   GoTo
         POIN2  neverendingdream000_6_LOOP
        BYTE   FINE

//***************** Track 7 (Midi-Chn.11) ******************//

neverendingdream000_7:
        BYTE   KEYSH   neverendingdream000_key+0
// 000   ----------------------------------------
        BYTE           VOICE   97
        BYTE   W02
        BYTE           VOL     18
        BYTE   W01
        BYTE           PAN     c_v+63
        BYTE   W03
// 001   ----------------------------------------
        BYTE   W06
// 002   ----------------------------------------
        BYTE   W06
// 003   ----------------------------------------
        BYTE   W06
// 004   ----------------------------------------
        BYTE   W06
// 005   ----------------------------------------
        BYTE   W06
// 006   ----------------------------------------
        BYTE   W06
// 007   ----------------------------------------
        BYTE   W06
// 008   ----------------------------------------
        BYTE   W06
// 009   ----------------------------------------
        BYTE   W06
// 010   ----------------------------------------
        BYTE   W05
neverendingdream000_7_LOOP:
        BYTE   W01
// 011   ----------------------------------------
        BYTE           N92     En2   v092   gtp2
        BYTE                   Gn3   v072
        BYTE           N92     Dn3   v072   gtp2
        BYTE                   Bn2
        BYTE   W06
// 012   ----------------------------------------
        BYTE   W06
// 013   ----------------------------------------
        BYTE   W06
// 014   ----------------------------------------
        BYTE   W06
// 015   ----------------------------------------
        BYTE   W06
// 016   ----------------------------------------
        BYTE   W06
// 017   ----------------------------------------
        BYTE   W06
// 018   ----------------------------------------
        BYTE   W06
// 019   ----------------------------------------
        BYTE   W06
// 020   ----------------------------------------
        BYTE   W06
// 021   ----------------------------------------
        BYTE   W06
// 022   ----------------------------------------
        BYTE   W06
// 023   ----------------------------------------
        BYTE   W06
// 024   ----------------------------------------
        BYTE   W06
// 025   ----------------------------------------
        BYTE   W06
// 026   ----------------------------------------
        BYTE   W04
        BYTE           N96     Dn2   v092
        BYTE           N96     Bn2   v072
        BYTE           N96     Fs3
        BYTE           N96     Dn3
        BYTE   W02
// 027   ----------------------------------------
        BYTE   W06
// 028   ----------------------------------------
        BYTE   W06
// 029   ----------------------------------------
        BYTE   W06
// 030   ----------------------------------------
        BYTE   W06
// 031   ----------------------------------------
        BYTE   W06
// 032   ----------------------------------------
        BYTE   W06
// 033   ----------------------------------------
        BYTE   W06
// 034   ----------------------------------------
        BYTE   W06
// 035   ----------------------------------------
        BYTE   W06
// 036   ----------------------------------------
        BYTE   W06
// 037   ----------------------------------------
        BYTE   W06
// 038   ----------------------------------------
        BYTE   W06
// 039   ----------------------------------------
        BYTE   W06
// 040   ----------------------------------------
        BYTE   W06
// 041   ----------------------------------------
        BYTE   W06
// 042   ----------------------------------------
        BYTE   W04
        BYTE                   Cn2   v092
        BYTE           N96     En3   v072
        BYTE           N96     Bn2
        BYTE           N96     Gn2
        BYTE   W02
// 043   ----------------------------------------
        BYTE   W06
// 044   ----------------------------------------
        BYTE   W06
// 045   ----------------------------------------
        BYTE   W06
// 046   ----------------------------------------
        BYTE   W06
// 047   ----------------------------------------
        BYTE   W06
// 048   ----------------------------------------
        BYTE   W06
// 049   ----------------------------------------
        BYTE   W06
// 050   ----------------------------------------
        BYTE   W06
// 051   ----------------------------------------
        BYTE   W06
// 052   ----------------------------------------
        BYTE   W06
// 053   ----------------------------------------
        BYTE   W06
// 054   ----------------------------------------
        BYTE   W06
// 055   ----------------------------------------
        BYTE   W06
// 056   ----------------------------------------
        BYTE   W06
// 057   ----------------------------------------
        BYTE   W06
// 058   ----------------------------------------
        BYTE   W04
        BYTE                   Bn1   v092
        BYTE           N96     Dn3   v072
        BYTE           N96     Bn2
        BYTE           N96     Gn2
        BYTE   W02
// 059   ----------------------------------------
        BYTE   W06
// 060   ----------------------------------------
        BYTE   W06
// 061   ----------------------------------------
        BYTE   W06
// 062   ----------------------------------------
        BYTE   W06
// 063   ----------------------------------------
        BYTE   W06
// 064   ----------------------------------------
        BYTE   W06
// 065   ----------------------------------------
        BYTE   W06
// 066   ----------------------------------------
        BYTE   W06
// 067   ----------------------------------------
        BYTE   W06
// 068   ----------------------------------------
        BYTE   W06
// 069   ----------------------------------------
        BYTE   W06
// 070   ----------------------------------------
        BYTE   W06
// 071   ----------------------------------------
        BYTE   W06
// 072   ----------------------------------------
        BYTE   W06
// 073   ----------------------------------------
        BYTE   W06
// 074   ----------------------------------------
        BYTE   W04
        BYTE                   An1   v092
        BYTE           N96     Cn3   v072
        BYTE           N96     Gn2
        BYTE           N96     En2
        BYTE   W02
// 075   ----------------------------------------
        BYTE   W06
// 076   ----------------------------------------
        BYTE   W06
// 077   ----------------------------------------
        BYTE   W06
// 078   ----------------------------------------
        BYTE   W06
// 079   ----------------------------------------
        BYTE   W06
// 080   ----------------------------------------
        BYTE   W06
// 081   ----------------------------------------
        BYTE   W06
// 082   ----------------------------------------
        BYTE   W06
// 083   ----------------------------------------
        BYTE   W06
// 084   ----------------------------------------
        BYTE   W06
// 085   ----------------------------------------
        BYTE   W06
// 086   ----------------------------------------
        BYTE   W06
// 087   ----------------------------------------
        BYTE   W06
// 088   ----------------------------------------
        BYTE   W06
// 089   ----------------------------------------
        BYTE   W06
// 090   ----------------------------------------
        BYTE   W04
        BYTE                   Bn1   v092
        BYTE           N96     Bn2   v072
        BYTE           N96     Gn2
        BYTE           N96     Dn3
        BYTE   W02
// 091   ----------------------------------------
        BYTE   W06
// 092   ----------------------------------------
        BYTE   W06
// 093   ----------------------------------------
        BYTE   W06
// 094   ----------------------------------------
        BYTE   W06
// 095   ----------------------------------------
        BYTE   W06
// 096   ----------------------------------------
        BYTE   W06
// 097   ----------------------------------------
        BYTE   W06
// 098   ----------------------------------------
        BYTE   W06
// 099   ----------------------------------------
        BYTE   W06
// 100   ----------------------------------------
        BYTE   W06
// 101   ----------------------------------------
        BYTE   W06
// 102   ----------------------------------------
        BYTE   W06
// 103   ----------------------------------------
        BYTE   W06
// 104   ----------------------------------------
        BYTE   W06
// 105   ----------------------------------------
        BYTE   W06
// 106   ----------------------------------------
        BYTE   W04
        BYTE                   Cn2   v092
        BYTE           N96     Cn3   v072
        BYTE           N96     Gn2
        BYTE           N96     En3
        BYTE   W02
// 107   ----------------------------------------
        BYTE   W06
// 108   ----------------------------------------
        BYTE   W06
// 109   ----------------------------------------
        BYTE   W06
// 110   ----------------------------------------
        BYTE   W06
// 111   ----------------------------------------
        BYTE   W06
// 112   ----------------------------------------
        BYTE   W06
// 113   ----------------------------------------
        BYTE   W06
// 114   ----------------------------------------
        BYTE   W06
// 115   ----------------------------------------
        BYTE   W06
// 116   ----------------------------------------
        BYTE   W06
// 117   ----------------------------------------
        BYTE   W06
// 118   ----------------------------------------
        BYTE   W06
// 119   ----------------------------------------
        BYTE   W06
// 120   ----------------------------------------
        BYTE   W06
// 121   ----------------------------------------
        BYTE   W06
// 122   ----------------------------------------
        BYTE   W04
        BYTE           N92     Dn2   v092   gtp2
        BYTE                   Fs3   v072
        BYTE           N92     Dn3   v072   gtp2
        BYTE                   An2
        BYTE   W02
// 123   ----------------------------------------
        BYTE   W06
// 124   ----------------------------------------
        BYTE   W06
// 125   ----------------------------------------
        BYTE   W06
// 126   ----------------------------------------
        BYTE   W06
// 127   ----------------------------------------
        BYTE   W06
// 128   ----------------------------------------
        BYTE   W06
// 129   ----------------------------------------
        BYTE   W06
// 130   ----------------------------------------
        BYTE   W06
// 131   ----------------------------------------
        BYTE   W06
// 132   ----------------------------------------
        BYTE   W06
// 133   ----------------------------------------
        BYTE   W06
// 134   ----------------------------------------
        BYTE   W06
// 135   ----------------------------------------
        BYTE   W06
// 136   ----------------------------------------
        BYTE   W06
// 137   ----------------------------------------
        BYTE   W06
// 138   ----------------------------------------
        BYTE   W02
        BYTE           N96     En2   v092
        BYTE           N96     Gn3   v072
        BYTE           N96     Dn3
        BYTE           N96     Bn2
        BYTE   W04
// 139   ----------------------------------------
        BYTE   W06
// 140   ----------------------------------------
        BYTE   W06
// 141   ----------------------------------------
        BYTE   W06
// 142   ----------------------------------------
        BYTE   W06
// 143   ----------------------------------------
        BYTE   W06
// 144   ----------------------------------------
        BYTE   W06
// 145   ----------------------------------------
        BYTE   W06
// 146   ----------------------------------------
        BYTE   W06
// 147   ----------------------------------------
        BYTE   W06
// 148   ----------------------------------------
        BYTE   W06
// 149   ----------------------------------------
        BYTE   W06
// 150   ----------------------------------------
        BYTE   W06
// 151   ----------------------------------------
        BYTE   W06
// 152   ----------------------------------------
        BYTE   W06
// 153   ----------------------------------------
        BYTE   W06
// 154   ----------------------------------------
        BYTE   W04
        BYTE                   Dn2   v092
        BYTE           N96     Fs3   v072
        BYTE           N96     Dn3
        BYTE           N96     Bn2
        BYTE   W02
// 155   ----------------------------------------
        BYTE   W06
// 156   ----------------------------------------
        BYTE   W06
// 157   ----------------------------------------
        BYTE   W06
// 158   ----------------------------------------
        BYTE   W06
// 159   ----------------------------------------
        BYTE   W06
// 160   ----------------------------------------
        BYTE   W06
// 161   ----------------------------------------
        BYTE   W06
// 162   ----------------------------------------
        BYTE   W04
        BYTE           N48     Bn3   v067
        BYTE   W02
// 163   ----------------------------------------
        BYTE   W06
// 164   ----------------------------------------
        BYTE   W06
// 165   ----------------------------------------
        BYTE   W06
// 166   ----------------------------------------
        BYTE   W06
// 167   ----------------------------------------
        BYTE   W06
// 168   ----------------------------------------
        BYTE   W06
// 169   ----------------------------------------
        BYTE   W06
// 170   ----------------------------------------
        BYTE   W04
        BYTE           N96     Cn2   v092
        BYTE           N96     Bn2   v072
        BYTE           N96     En3
        BYTE           N96     Gn2
        BYTE   W02
// 171   ----------------------------------------
        BYTE   W06
// 172   ----------------------------------------
        BYTE   W06
// 173   ----------------------------------------
        BYTE   W06
// 174   ----------------------------------------
        BYTE   W06
// 175   ----------------------------------------
        BYTE   W06
// 176   ----------------------------------------
        BYTE   W06
// 177   ----------------------------------------
        BYTE   W06
// 178   ----------------------------------------
        BYTE   W06
// 179   ----------------------------------------
        BYTE   W06
// 180   ----------------------------------------
        BYTE   W06
// 181   ----------------------------------------
        BYTE   W06
// 182   ----------------------------------------
        BYTE   W06
// 183   ----------------------------------------
        BYTE   W06
// 184   ----------------------------------------
        BYTE   W06
// 185   ----------------------------------------
        BYTE   W06
// 186   ----------------------------------------
        BYTE   W04
        BYTE                   Bn1   v092
        BYTE           N96     Gn2   v072
        BYTE           N96     Bn2
        BYTE           N96     Dn3
        BYTE   W02
// 187   ----------------------------------------
        BYTE   W06
// 188   ----------------------------------------
        BYTE   W06
// 189   ----------------------------------------
        BYTE   W06
// 190   ----------------------------------------
        BYTE   W06
// 191   ----------------------------------------
        BYTE   W06
// 192   ----------------------------------------
        BYTE   W06
// 193   ----------------------------------------
        BYTE   W06
// 194   ----------------------------------------
        BYTE   W04
        BYTE           N48     Gn3
        BYTE   W02
// 195   ----------------------------------------
        BYTE   W06
// 196   ----------------------------------------
        BYTE   W06
// 197   ----------------------------------------
        BYTE   W06
// 198   ----------------------------------------
        BYTE   W06
// 199   ----------------------------------------
        BYTE   W06
// 200   ----------------------------------------
        BYTE   W06
// 201   ----------------------------------------
        BYTE   W06
// 202   ----------------------------------------
        BYTE   W04
        BYTE           N96     An1   v092
        BYTE           N96     Gn2   v072
        BYTE           N96     En2
        BYTE           N96     Cn3
        BYTE   W02
// 203   ----------------------------------------
        BYTE   W06
// 204   ----------------------------------------
        BYTE   W06
// 205   ----------------------------------------
        BYTE   W06
// 206   ----------------------------------------
        BYTE   W06
// 207   ----------------------------------------
        BYTE   W06
// 208   ----------------------------------------
        BYTE   W06
// 209   ----------------------------------------
        BYTE   W06
// 210   ----------------------------------------
        BYTE   W06
// 211   ----------------------------------------
        BYTE   W06
// 212   ----------------------------------------
        BYTE   W06
// 213   ----------------------------------------
        BYTE   W06
// 214   ----------------------------------------
        BYTE   W06
// 215   ----------------------------------------
        BYTE   W06
// 216   ----------------------------------------
        BYTE   W06
// 217   ----------------------------------------
        BYTE   W06
// 218   ----------------------------------------
        BYTE   W04
        BYTE                   Bn1   v092
        BYTE           N96     Gn2   v072
        BYTE           N96     Dn3
        BYTE   W02
// 219   ----------------------------------------
        BYTE   W06
// 220   ----------------------------------------
        BYTE   W06
// 221   ----------------------------------------
        BYTE   W06
// 222   ----------------------------------------
        BYTE   W06
// 223   ----------------------------------------
        BYTE   W06
// 224   ----------------------------------------
        BYTE   W06
// 225   ----------------------------------------
        BYTE   W06
// 226   ----------------------------------------
        BYTE   W06
// 227   ----------------------------------------
        BYTE   W06
// 228   ----------------------------------------
        BYTE   W06
// 229   ----------------------------------------
        BYTE   W06
// 230   ----------------------------------------
        BYTE   W06
// 231   ----------------------------------------
        BYTE   W06
// 232   ----------------------------------------
        BYTE   W06
// 233   ----------------------------------------
        BYTE   W06
// 234   ----------------------------------------
        BYTE   W04
        BYTE           N24     Cn2   v112
        BYTE           N96     Cn3   v072
        BYTE           N96     Gn2
        BYTE           N96     En3
        BYTE   W02
// 235   ----------------------------------------
        BYTE   W06
// 236   ----------------------------------------
        BYTE   W06
// 237   ----------------------------------------
        BYTE   W06
// 238   ----------------------------------------
        BYTE   W04
        BYTE           N24     Bn1   v112
        BYTE   W02
// 239   ----------------------------------------
        BYTE   W06
// 240   ----------------------------------------
        BYTE   W06
// 241   ----------------------------------------
        BYTE   W06
// 242   ----------------------------------------
        BYTE   W04
        BYTE                   An1   v102
        BYTE   W02
// 243   ----------------------------------------
        BYTE   W06
// 244   ----------------------------------------
        BYTE   W06
// 245   ----------------------------------------
        BYTE   W06
// 246   ----------------------------------------
        BYTE   W04
        BYTE                   Gn1   v112
        BYTE   W02
// 247   ----------------------------------------
        BYTE   W06
// 248   ----------------------------------------
        BYTE   W06
// 249   ----------------------------------------
        BYTE   W06
// 250   ----------------------------------------
        BYTE   W04
        BYTE           TIE     Dn2   v107
        BYTE           TIE     Fs3   v072
        BYTE           TIE     Dn3
        BYTE           TIE     An2
        BYTE   W02
// 251   ----------------------------------------
        BYTE   W06
// 252   ----------------------------------------
        BYTE   W06
// 253   ----------------------------------------
        BYTE   W06
// 254   ----------------------------------------
        BYTE   W06
// 255   ----------------------------------------
        BYTE   W06
// 256   ----------------------------------------
        BYTE   W06
// 257   ----------------------------------------
        BYTE   W06
// 258   ----------------------------------------
        BYTE   W06
// 259   ----------------------------------------
        BYTE   W06
// 260   ----------------------------------------
        BYTE   W06
// 261   ----------------------------------------
        BYTE   W06
// 262   ----------------------------------------
        BYTE   W06
// 263   ----------------------------------------
        BYTE   W06
// 264   ----------------------------------------
        BYTE   W06
// 265   ----------------------------------------
        BYTE   W06
// 266   ----------------------------------------
        BYTE   W06
// 267   ----------------------------------------
        BYTE   W06
// 268   ----------------------------------------
        BYTE   W06
// 269   ----------------------------------------
        BYTE   W06
// 270   ----------------------------------------
        BYTE   W06
// 271   ----------------------------------------
        BYTE   W06
// 272   ----------------------------------------
        BYTE   W06
// 273   ----------------------------------------
        BYTE   W06
// 274   ----------------------------------------
        BYTE   W04
        BYTE           EOT     Dn2
        BYTE                   An2
        BYTE                   Dn3
        BYTE                   Fs3
        BYTE           N24     En2   v127
        BYTE           N24     En1
        BYTE           N24     Gn3   v072
        BYTE           N24     Cn3
        BYTE   W02
// 275   ----------------------------------------
        BYTE   W06
// 276   ----------------------------------------
        BYTE   W06
// 277   ----------------------------------------
        BYTE   W06
// 278   ----------------------------------------
        BYTE   W04
        BYTE                   Fs2   v127
        BYTE           N24     Fs1
        BYTE           N24     An3   v072
        BYTE           N24     Dn3
        BYTE   W02
// 279   ----------------------------------------
        BYTE   W06
// 280   ----------------------------------------
        BYTE   W06
// 281   ----------------------------------------
        BYTE   W06
// 282   ----------------------------------------
neverendingdream000_7_282:
        BYTE   W04
        BYTE           TIE     Gn2   v117
        BYTE           TIE     Gn3   v072
        BYTE           N72     Dn3
        BYTE   W02
        BYTE   PEND
// 283   ----------------------------------------
        BYTE   W06
// 284   ----------------------------------------
        BYTE   W06
// 285   ----------------------------------------
        BYTE   W06
// 286   ----------------------------------------
        BYTE   W06
// 287   ----------------------------------------
        BYTE   W06
// 288   ----------------------------------------
        BYTE   W06
// 289   ----------------------------------------
        BYTE   W06
// 290   ----------------------------------------
        BYTE   W06
// 291   ----------------------------------------
        BYTE   W06
// 292   ----------------------------------------
        BYTE   W06
// 293   ----------------------------------------
        BYTE   W06
// 294   ----------------------------------------
neverendingdream000_7_294:
        BYTE   W04
        BYTE           N24     Fs3   v072
        BYTE   W02
        BYTE   PEND
// 295   ----------------------------------------
        BYTE   W06
// 296   ----------------------------------------
        BYTE   W06
// 297   ----------------------------------------
        BYTE   W06
// 298   ----------------------------------------
neverendingdream000_7_298:
        BYTE   W04
        BYTE           N96     Dn3   v072
        BYTE   W02
        BYTE   PEND
// 299   ----------------------------------------
        BYTE   W06
// 300   ----------------------------------------
        BYTE   W06
// 301   ----------------------------------------
        BYTE   W06
// 302   ----------------------------------------
        BYTE   W06
// 303   ----------------------------------------
        BYTE   W06
// 304   ----------------------------------------
        BYTE   W06
// 305   ----------------------------------------
        BYTE   W06
// 306   ----------------------------------------
        BYTE   W06
// 307   ----------------------------------------
        BYTE   W06
// 308   ----------------------------------------
        BYTE   W06
// 309   ----------------------------------------
        BYTE   W06
// 310   ----------------------------------------
        BYTE   W06
// 311   ----------------------------------------
        BYTE   W06
// 312   ----------------------------------------
        BYTE   W06
// 313   ----------------------------------------
        BYTE   W06
// 314   ----------------------------------------
        BYTE   W04
        BYTE           EOT     Gn2
        BYTE                   Gn3
        BYTE           N96     Fs2   v117
        BYTE           N72     En3   v072
        BYTE           N96     Bn3
        BYTE           N96     An3
        BYTE   W02
// 315   ----------------------------------------
        BYTE   W06
// 316   ----------------------------------------
        BYTE   W06
// 317   ----------------------------------------
        BYTE   W06
// 318   ----------------------------------------
        BYTE   W06
// 319   ----------------------------------------
        BYTE   W06
// 320   ----------------------------------------
        BYTE   W06
// 321   ----------------------------------------
        BYTE   W06
// 322   ----------------------------------------
        BYTE   W06
// 323   ----------------------------------------
        BYTE   W06
// 324   ----------------------------------------
        BYTE   W06
// 325   ----------------------------------------
        BYTE   W06
// 326   ----------------------------------------
neverendingdream000_7_326:
        BYTE   W04
        BYTE           N24     En3   v072
        BYTE   W02
        BYTE   PEND
// 327   ----------------------------------------
        BYTE   W06
// 328   ----------------------------------------
        BYTE   W06
// 329   ----------------------------------------
        BYTE   W06
// 330   ----------------------------------------
        BYTE   W04
        BYTE           N96     Bn1   v117
        BYTE           N96     Ds3   v072
        BYTE           N96     Fs3
        BYTE   W02
// 331   ----------------------------------------
        BYTE   W06
// 332   ----------------------------------------
        BYTE   W06
// 333   ----------------------------------------
        BYTE   W06
// 334   ----------------------------------------
        BYTE   W06
// 335   ----------------------------------------
        BYTE   W06
// 336   ----------------------------------------
        BYTE   W06
// 337   ----------------------------------------
        BYTE   W06
// 338   ----------------------------------------
        BYTE   W06
// 339   ----------------------------------------
        BYTE   W06
// 340   ----------------------------------------
        BYTE   W06
// 341   ----------------------------------------
        BYTE   W06
// 342   ----------------------------------------
        BYTE   W06
// 343   ----------------------------------------
        BYTE   W06
// 344   ----------------------------------------
        BYTE   W06
// 345   ----------------------------------------
        BYTE   W06
// 346   ----------------------------------------
        BYTE   W04
        BYTE           TIE     En2   v117
        BYTE           N96     En3   v072
        BYTE           TIE     Gn3
        BYTE           TIE     Bn2
        BYTE   W02
// 347   ----------------------------------------
        BYTE   W06
// 348   ----------------------------------------
        BYTE   W06
// 349   ----------------------------------------
        BYTE   W06
// 350   ----------------------------------------
        BYTE   W06
// 351   ----------------------------------------
        BYTE   W06
// 352   ----------------------------------------
        BYTE   W06
// 353   ----------------------------------------
        BYTE   W06
// 354   ----------------------------------------
        BYTE   W06
// 355   ----------------------------------------
        BYTE   W06
// 356   ----------------------------------------
        BYTE   W06
// 357   ----------------------------------------
        BYTE   W06
// 358   ----------------------------------------
        BYTE   W06
// 359   ----------------------------------------
        BYTE   W06
// 360   ----------------------------------------
        BYTE   W06
// 361   ----------------------------------------
        BYTE   W06
// 362   ----------------------------------------
        BYTE   W04
        BYTE           N96     Dn2   v117
        BYTE           N96     Dn3   v072
        BYTE   W01
        BYTE           EOT     En2
        BYTE   W01
// 363   ----------------------------------------
        BYTE   W06
// 364   ----------------------------------------
        BYTE   W06
// 365   ----------------------------------------
        BYTE   W06
// 366   ----------------------------------------
        BYTE   W06
// 367   ----------------------------------------
        BYTE   W06
// 368   ----------------------------------------
        BYTE   W06
// 369   ----------------------------------------
        BYTE   W06
// 370   ----------------------------------------
        BYTE   W06
// 371   ----------------------------------------
        BYTE   W06
// 372   ----------------------------------------
        BYTE   W06
// 373   ----------------------------------------
        BYTE   W06
// 374   ----------------------------------------
        BYTE   W06
// 375   ----------------------------------------
        BYTE   W06
// 376   ----------------------------------------
        BYTE   W06
// 377   ----------------------------------------
        BYTE   W06
// 378   ----------------------------------------
        BYTE   W04
        BYTE                   Bn2
        BYTE           N96     Cn2   v117
        BYTE           N96     En3   v072
        BYTE           N96     Cn3
        BYTE           N96     Gn2
        BYTE   W02
// 379   ----------------------------------------
        BYTE   W06
// 380   ----------------------------------------
        BYTE   W06
// 381   ----------------------------------------
        BYTE   W06
// 382   ----------------------------------------
        BYTE   W06
// 383   ----------------------------------------
        BYTE   W06
// 384   ----------------------------------------
        BYTE   W06
// 385   ----------------------------------------
        BYTE   W06
// 386   ----------------------------------------
        BYTE   W06
// 387   ----------------------------------------
        BYTE   W06
// 388   ----------------------------------------
        BYTE   W06
// 389   ----------------------------------------
        BYTE   W06
// 390   ----------------------------------------
        BYTE   W06
// 391   ----------------------------------------
        BYTE   W06
// 392   ----------------------------------------
        BYTE   W06
// 393   ----------------------------------------
        BYTE   W06
// 394   ----------------------------------------
        BYTE   W04
        BYTE           EOT     Gn3
        BYTE           N96     Dn2   v117
        BYTE           N96     An2   v072
        BYTE           N48     Gn3
        BYTE           N48     Cn3
        BYTE   W02
// 395   ----------------------------------------
        BYTE   W06
// 396   ----------------------------------------
        BYTE   W06
// 397   ----------------------------------------
        BYTE   W06
// 398   ----------------------------------------
        BYTE   W06
// 399   ----------------------------------------
        BYTE   W06
// 400   ----------------------------------------
        BYTE   W06
// 401   ----------------------------------------
        BYTE   W06
// 402   ----------------------------------------
        BYTE   W04
        BYTE                   Fs3
        BYTE           N48     Dn3
        BYTE   W02
// 403   ----------------------------------------
        BYTE   W06
// 404   ----------------------------------------
        BYTE   W06
// 405   ----------------------------------------
        BYTE   W06
// 406   ----------------------------------------
        BYTE   W06
// 407   ----------------------------------------
        BYTE   W06
// 408   ----------------------------------------
        BYTE   W06
// 409   ----------------------------------------
        BYTE   W06
// 410   ----------------------------------------
        BYTE   PATT
         POIN2  neverendingdream000_7_282
// 411   ----------------------------------------
        BYTE   W06
// 412   ----------------------------------------
        BYTE   W06
// 413   ----------------------------------------
        BYTE   W06
// 414   ----------------------------------------
        BYTE   W06
// 415   ----------------------------------------
        BYTE   W06
// 416   ----------------------------------------
        BYTE   W06
// 417   ----------------------------------------
        BYTE   W06
// 418   ----------------------------------------
        BYTE   W06
// 419   ----------------------------------------
        BYTE   W06
// 420   ----------------------------------------
        BYTE   W06
// 421   ----------------------------------------
        BYTE   W06
// 422   ----------------------------------------
        BYTE   PATT
         POIN2  neverendingdream000_7_294
// 423   ----------------------------------------
        BYTE   W06
// 424   ----------------------------------------
        BYTE   W06
// 425   ----------------------------------------
        BYTE   W06
// 426   ----------------------------------------
        BYTE   PATT
         POIN2  neverendingdream000_7_298
// 427   ----------------------------------------
        BYTE   W06
// 428   ----------------------------------------
        BYTE   W06
// 429   ----------------------------------------
        BYTE   W06
// 430   ----------------------------------------
        BYTE   W06
// 431   ----------------------------------------
        BYTE   W06
// 432   ----------------------------------------
        BYTE   W06
// 433   ----------------------------------------
        BYTE   W06
// 434   ----------------------------------------
        BYTE   W06
// 435   ----------------------------------------
        BYTE   W06
// 436   ----------------------------------------
        BYTE   W06
// 437   ----------------------------------------
        BYTE   W06
// 438   ----------------------------------------
        BYTE   W06
// 439   ----------------------------------------
        BYTE   W06
// 440   ----------------------------------------
        BYTE   W06
// 441   ----------------------------------------
        BYTE   W06
// 442   ----------------------------------------
        BYTE   W04
        BYTE           EOT     Gn2
        BYTE                   Gn3
        BYTE           N96     Fs2   v117
        BYTE           TIE     Bn3   v072
        BYTE           N72     An3
        BYTE           N72     En3
        BYTE   W02
// 443   ----------------------------------------
        BYTE   W06
// 444   ----------------------------------------
        BYTE   W06
// 445   ----------------------------------------
        BYTE   W06
// 446   ----------------------------------------
        BYTE   W06
// 447   ----------------------------------------
        BYTE   W06
// 448   ----------------------------------------
        BYTE   W06
// 449   ----------------------------------------
        BYTE   W06
// 450   ----------------------------------------
        BYTE   W06
// 451   ----------------------------------------
        BYTE   W06
// 452   ----------------------------------------
        BYTE   W06
// 453   ----------------------------------------
        BYTE   W06
// 454   ----------------------------------------
        BYTE   PATT
         POIN2  neverendingdream000_7_326
// 455   ----------------------------------------
        BYTE   W06
// 456   ----------------------------------------
        BYTE   W06
// 457   ----------------------------------------
        BYTE   W06
// 458   ----------------------------------------
        BYTE   W04
        BYTE           N96     Bn1   v117
        BYTE           N48     Fs3   v072
        BYTE           N48     Ds3
        BYTE   W02
// 459   ----------------------------------------
        BYTE   W06
// 460   ----------------------------------------
        BYTE   W06
// 461   ----------------------------------------
        BYTE   W06
// 462   ----------------------------------------
        BYTE   W06
// 463   ----------------------------------------
        BYTE   W06
// 464   ----------------------------------------
        BYTE   W06
// 465   ----------------------------------------
        BYTE   W06
// 466   ----------------------------------------
        BYTE   W04
        BYTE                   Bn2
        BYTE   W02
// 467   ----------------------------------------
        BYTE   W06
// 468   ----------------------------------------
        BYTE   W04
        BYTE           N36     Ds3
        BYTE   W02
// 469   ----------------------------------------
        BYTE   W06
// 470   ----------------------------------------
        BYTE   W04
        BYTE           EOT     Bn3
        BYTE           N24     Fs3
        BYTE   W02
// 471   ----------------------------------------
        BYTE   W06
// 472   ----------------------------------------
        BYTE   W04
        BYTE           N12     Bn3
        BYTE   W02
// 473   ----------------------------------------
        BYTE   W06
// 474   ----------------------------------------
        BYTE   W04
        BYTE           N96     En2   v117
        BYTE           N96     En3   v072
        BYTE           N96     Bn2
        BYTE           TIE     Gn3
        BYTE   W02
// 475   ----------------------------------------
        BYTE   W06
// 476   ----------------------------------------
        BYTE   W06
// 477   ----------------------------------------
        BYTE   W06
// 478   ----------------------------------------
        BYTE   W06
// 479   ----------------------------------------
        BYTE   W06
// 480   ----------------------------------------
        BYTE   W06
// 481   ----------------------------------------
        BYTE   W06
// 482   ----------------------------------------
        BYTE   W06
// 483   ----------------------------------------
        BYTE   W06
// 484   ----------------------------------------
        BYTE   W06
// 485   ----------------------------------------
        BYTE   W06
// 486   ----------------------------------------
        BYTE   W06
// 487   ----------------------------------------
        BYTE   W06
// 488   ----------------------------------------
        BYTE   W06
// 489   ----------------------------------------
        BYTE   W06
// 490   ----------------------------------------
        BYTE   W04
        BYTE           N96     Dn2   v117
        BYTE           N96     Bn2   v072
        BYTE           N96     Dn3
        BYTE   W02
// 491   ----------------------------------------
        BYTE   W06
// 492   ----------------------------------------
        BYTE   W06
// 493   ----------------------------------------
        BYTE   W06
// 494   ----------------------------------------
        BYTE   W06
// 495   ----------------------------------------
        BYTE   W06
// 496   ----------------------------------------
        BYTE   W06
// 497   ----------------------------------------
        BYTE   W06
// 498   ----------------------------------------
        BYTE   W06
// 499   ----------------------------------------
        BYTE   W06
// 500   ----------------------------------------
        BYTE   W06
// 501   ----------------------------------------
        BYTE   W06
// 502   ----------------------------------------
        BYTE   W06
// 503   ----------------------------------------
        BYTE   W06
// 504   ----------------------------------------
        BYTE   W06
// 505   ----------------------------------------
        BYTE   W06
// 506   ----------------------------------------
        BYTE   W04
        BYTE           EOT     Gn3
        BYTE           N96     Cn2   v117
        BYTE           N96     Bn2   v072
        BYTE           N96     En3
        BYTE           N96     Gn3
        BYTE   W02
// 507   ----------------------------------------
        BYTE   W06
// 508   ----------------------------------------
        BYTE   W06
// 509   ----------------------------------------
        BYTE   W06
// 510   ----------------------------------------
        BYTE   W06
// 511   ----------------------------------------
        BYTE   W06
// 512   ----------------------------------------
        BYTE   W06
// 513   ----------------------------------------
        BYTE   W06
// 514   ----------------------------------------
        BYTE   W06
// 515   ----------------------------------------
        BYTE   W06
// 516   ----------------------------------------
        BYTE   W06
// 517   ----------------------------------------
        BYTE   W06
// 518   ----------------------------------------
        BYTE   W06
// 519   ----------------------------------------
        BYTE   W06
// 520   ----------------------------------------
        BYTE   W06
// 521   ----------------------------------------
        BYTE   W06
// 522   ----------------------------------------
        BYTE   W04
        BYTE                   Cn2   v117
        BYTE           N96     An2   v072
        BYTE           N96     Ds3
        BYTE           TIE     Gn3
        BYTE   W02
// 523   ----------------------------------------
        BYTE   W06
// 524   ----------------------------------------
        BYTE   W06
// 525   ----------------------------------------
        BYTE   W06
// 526   ----------------------------------------
        BYTE   W06
// 527   ----------------------------------------
        BYTE   W06
// 528   ----------------------------------------
        BYTE   W06
// 529   ----------------------------------------
        BYTE   W06
// 530   ----------------------------------------
        BYTE   W06
// 531   ----------------------------------------
        BYTE   W06
// 532   ----------------------------------------
        BYTE   W06
// 533   ----------------------------------------
        BYTE   W06
// 534   ----------------------------------------
        BYTE   W06
// 535   ----------------------------------------
        BYTE   W06
// 536   ----------------------------------------
        BYTE   W06
// 537   ----------------------------------------
        BYTE   W06
// 538   ----------------------------------------
        BYTE   W04
        BYTE           N96     En2   v117
        BYTE           N96     En3   v072
        BYTE           N96     Bn2
        BYTE   W02
// 539   ----------------------------------------
        BYTE   W06
// 540   ----------------------------------------
        BYTE   W06
// 541   ----------------------------------------
        BYTE   W06
// 542   ----------------------------------------
        BYTE   W06
// 543   ----------------------------------------
        BYTE   W06
// 544   ----------------------------------------
        BYTE   W06
// 545   ----------------------------------------
        BYTE   W06
// 546   ----------------------------------------
        BYTE   W06
// 547   ----------------------------------------
        BYTE   W06
// 548   ----------------------------------------
        BYTE   W06
// 549   ----------------------------------------
        BYTE   W06
// 550   ----------------------------------------
        BYTE   W06
// 551   ----------------------------------------
        BYTE   W06
// 552   ----------------------------------------
        BYTE   W06
// 553   ----------------------------------------
        BYTE   W06
// 554   ----------------------------------------
        BYTE   W04
        BYTE           EOT     Gn3
        BYTE           N92     Dn2   v117   gtp3
        BYTE                   Bn2   v072
        BYTE           N92     Fs3   v072   gtp3
        BYTE   W02
// 555   ----------------------------------------
        BYTE   W06
// 556   ----------------------------------------
        BYTE   W06
// 557   ----------------------------------------
        BYTE   W06
// 558   ----------------------------------------
        BYTE   W06
// 559   ----------------------------------------
        BYTE   W06
// 560   ----------------------------------------
        BYTE   W06
// 561   ----------------------------------------
        BYTE   W06
// 562   ----------------------------------------
        BYTE   W04
        BYTE           N44     Bn3   v072   gtp3
        BYTE   W02
// 563   ----------------------------------------
        BYTE   W06
// 564   ----------------------------------------
        BYTE   W06
// 565   ----------------------------------------
        BYTE   W06
// 566   ----------------------------------------
        BYTE   W06
// 567   ----------------------------------------
        BYTE   W06
// 568   ----------------------------------------
        BYTE   W06
// 569   ----------------------------------------
        BYTE   W06
// 570   ----------------------------------------
        BYTE   W04
        BYTE           N96     Cn2   v117
        BYTE           N96     Gn3   v072
        BYTE           N96     En3
        BYTE           N96     Bn2
        BYTE   W02
// 571   ----------------------------------------
        BYTE   W06
// 572   ----------------------------------------
        BYTE   W06
// 573   ----------------------------------------
        BYTE   W06
// 574   ----------------------------------------
        BYTE   W06
// 575   ----------------------------------------
        BYTE   W06
// 576   ----------------------------------------
        BYTE   W06
// 577   ----------------------------------------
        BYTE   W06
// 578   ----------------------------------------
        BYTE   W06
// 579   ----------------------------------------
        BYTE   W06
// 580   ----------------------------------------
        BYTE   W06
// 581   ----------------------------------------
        BYTE   W06
// 582   ----------------------------------------
        BYTE   W06
// 583   ----------------------------------------
        BYTE   W06
// 584   ----------------------------------------
        BYTE   W06
// 585   ----------------------------------------
        BYTE   W06
// 586   ----------------------------------------
        BYTE   W06
// 587   ----------------------------------------
        BYTE   W06
// 588   ----------------------------------------
        BYTE   W06
// 589   ----------------------------------------
        BYTE   W06
// 590   ----------------------------------------
        BYTE   W06
// 591   ----------------------------------------
        BYTE   W06
// 592   ----------------------------------------
        BYTE   W06
// 593   ----------------------------------------
        BYTE   W06
// 594   ----------------------------------------
        BYTE   W06
// 595   ----------------------------------------
        BYTE   W06
// 596   ----------------------------------------
        BYTE   W06
// 597   ----------------------------------------
        BYTE   W06
// 598   ----------------------------------------
        BYTE   W06
// 599   ----------------------------------------
        BYTE   W06
// 600   ----------------------------------------
        BYTE   W06
// 601   ----------------------------------------
        BYTE   W06
// 602   ----------------------------------------
        BYTE   W06
// 603   ----------------------------------------
        BYTE   GoTo
         POIN2  neverendingdream000_7_LOOP
        BYTE   FINE

//***************** Track 8 (Midi-Chn.12) ******************//

neverendingdream000_8:
        BYTE   KEYSH   neverendingdream000_key+0
// 000   ----------------------------------------
        BYTE           VOICE   46
        BYTE   W03
        BYTE           VOL     40
        BYTE   W03
// 001   ----------------------------------------
        BYTE   W06
// 002   ----------------------------------------
        BYTE   W06
// 003   ----------------------------------------
        BYTE   W06
// 004   ----------------------------------------
        BYTE   W06
// 005   ----------------------------------------
        BYTE   W06
// 006   ----------------------------------------
        BYTE   W06
// 007   ----------------------------------------
        BYTE   W06
// 008   ----------------------------------------
        BYTE   W06
// 009   ----------------------------------------
        BYTE   W06
// 010   ----------------------------------------
        BYTE   W05
neverendingdream000_8_LOOP:
        BYTE   W01
// 011   ----------------------------------------
        BYTE           N06     En2   v116
        BYTE   W06
// 012   ----------------------------------------
        BYTE   W06
// 013   ----------------------------------------
        BYTE                   Bn2
        BYTE   W06
// 014   ----------------------------------------
        BYTE   W06
// 015   ----------------------------------------
        BYTE                   Fs3
        BYTE   W06
// 016   ----------------------------------------
        BYTE   W06
// 017   ----------------------------------------
        BYTE                   Gn3
        BYTE   W06
// 018   ----------------------------------------
        BYTE   W06
// 019   ----------------------------------------
        BYTE   W06
// 020   ----------------------------------------
        BYTE   W06
// 021   ----------------------------------------
        BYTE   W06
// 022   ----------------------------------------
        BYTE   W06
// 023   ----------------------------------------
        BYTE   W06
// 024   ----------------------------------------
        BYTE   W06
// 025   ----------------------------------------
        BYTE   W06
// 026   ----------------------------------------
        BYTE   W06
// 027   ----------------------------------------
        BYTE                   Dn2
        BYTE   W06
// 028   ----------------------------------------
        BYTE   W06
// 029   ----------------------------------------
        BYTE                   Bn2
        BYTE   W06
// 030   ----------------------------------------
        BYTE   W06
// 031   ----------------------------------------
        BYTE                   Fs3
        BYTE   W06
// 032   ----------------------------------------
        BYTE   W06
// 033   ----------------------------------------
        BYTE                   Bn3
        BYTE   W06
// 034   ----------------------------------------
        BYTE   W06
// 035   ----------------------------------------
        BYTE   W06
// 036   ----------------------------------------
        BYTE   W06
// 037   ----------------------------------------
        BYTE   W06
// 038   ----------------------------------------
        BYTE   W06
// 039   ----------------------------------------
        BYTE   W06
// 040   ----------------------------------------
        BYTE   W06
// 041   ----------------------------------------
        BYTE   W06
// 042   ----------------------------------------
        BYTE   W06
// 043   ----------------------------------------
        BYTE                   Cn2
        BYTE   W06
// 044   ----------------------------------------
        BYTE   W06
// 045   ----------------------------------------
        BYTE                   Gn2
        BYTE   W06
// 046   ----------------------------------------
        BYTE   W06
// 047   ----------------------------------------
        BYTE                   Dn3
        BYTE   W06
// 048   ----------------------------------------
        BYTE   W06
// 049   ----------------------------------------
        BYTE                   En3
        BYTE   W06
// 050   ----------------------------------------
        BYTE   W06
// 051   ----------------------------------------
        BYTE   W06
// 052   ----------------------------------------
        BYTE   W06
// 053   ----------------------------------------
        BYTE   W06
// 054   ----------------------------------------
        BYTE   W06
// 055   ----------------------------------------
        BYTE   W06
// 056   ----------------------------------------
        BYTE   W06
// 057   ----------------------------------------
        BYTE   W06
// 058   ----------------------------------------
        BYTE   W06
// 059   ----------------------------------------
        BYTE                   Bn1
        BYTE   W06
// 060   ----------------------------------------
        BYTE   W06
// 061   ----------------------------------------
        BYTE                   Gn2
        BYTE   W06
// 062   ----------------------------------------
        BYTE   W06
// 063   ----------------------------------------
        BYTE                   Dn3
        BYTE   W06
// 064   ----------------------------------------
        BYTE   W06
// 065   ----------------------------------------
        BYTE                   Gn3
        BYTE   W06
// 066   ----------------------------------------
        BYTE   W06
// 067   ----------------------------------------
        BYTE   W06
// 068   ----------------------------------------
        BYTE   W06
// 069   ----------------------------------------
        BYTE   W06
// 070   ----------------------------------------
        BYTE   W06
// 071   ----------------------------------------
        BYTE   W06
// 072   ----------------------------------------
        BYTE   W06
// 073   ----------------------------------------
        BYTE   W06
// 074   ----------------------------------------
        BYTE   W06
// 075   ----------------------------------------
        BYTE                   An1
        BYTE   W06
// 076   ----------------------------------------
        BYTE   W06
// 077   ----------------------------------------
        BYTE                   En2
        BYTE   W06
// 078   ----------------------------------------
        BYTE   W06
// 079   ----------------------------------------
        BYTE                   Cn3
        BYTE   W06
// 080   ----------------------------------------
        BYTE   W06
// 081   ----------------------------------------
        BYTE                   Gn3
        BYTE   W06
// 082   ----------------------------------------
        BYTE   W06
// 083   ----------------------------------------
        BYTE   W06
// 084   ----------------------------------------
        BYTE   W06
// 085   ----------------------------------------
        BYTE   W06
// 086   ----------------------------------------
        BYTE   W06
// 087   ----------------------------------------
        BYTE   W06
// 088   ----------------------------------------
        BYTE   W06
// 089   ----------------------------------------
        BYTE   W06
// 090   ----------------------------------------
        BYTE   W06
// 091   ----------------------------------------
        BYTE                   Bn1
        BYTE   W06
// 092   ----------------------------------------
        BYTE   W06
// 093   ----------------------------------------
        BYTE                   Gn2
        BYTE   W06
// 094   ----------------------------------------
        BYTE   W06
// 095   ----------------------------------------
        BYTE                   Dn3
        BYTE   W06
// 096   ----------------------------------------
        BYTE   W06
// 097   ----------------------------------------
        BYTE                   Gn3
        BYTE   W06
// 098   ----------------------------------------
        BYTE   W06
// 099   ----------------------------------------
        BYTE   W06
// 100   ----------------------------------------
        BYTE   W06
// 101   ----------------------------------------
        BYTE   W06
// 102   ----------------------------------------
        BYTE   W06
// 103   ----------------------------------------
        BYTE   W06
// 104   ----------------------------------------
        BYTE   W06
// 105   ----------------------------------------
        BYTE   W06
// 106   ----------------------------------------
        BYTE   W06
// 107   ----------------------------------------
        BYTE                   Cn2
        BYTE   W06
// 108   ----------------------------------------
        BYTE   W06
// 109   ----------------------------------------
        BYTE                   Gn2
        BYTE   W06
// 110   ----------------------------------------
        BYTE   W06
// 111   ----------------------------------------
        BYTE                   Dn3
        BYTE   W06
// 112   ----------------------------------------
        BYTE   W06
// 113   ----------------------------------------
        BYTE                   En3
        BYTE   W06
// 114   ----------------------------------------
        BYTE   W06
// 115   ----------------------------------------
        BYTE   W06
// 116   ----------------------------------------
        BYTE   W06
// 117   ----------------------------------------
        BYTE   W06
// 118   ----------------------------------------
        BYTE   W06
// 119   ----------------------------------------
        BYTE   W06
// 120   ----------------------------------------
        BYTE   W06
// 121   ----------------------------------------
        BYTE   W06
// 122   ----------------------------------------
        BYTE   W06
// 123   ----------------------------------------
        BYTE                   Dn2
        BYTE   W06
// 124   ----------------------------------------
        BYTE   W06
// 125   ----------------------------------------
        BYTE                   An2
        BYTE   W06
// 126   ----------------------------------------
        BYTE   W06
// 127   ----------------------------------------
        BYTE                   En3
        BYTE   W06
// 128   ----------------------------------------
        BYTE   W06
// 129   ----------------------------------------
        BYTE                   Fs3
        BYTE   W06
// 130   ----------------------------------------
        BYTE   W06
// 131   ----------------------------------------
        BYTE   W06
// 132   ----------------------------------------
        BYTE   W06
// 133   ----------------------------------------
        BYTE   W06
// 134   ----------------------------------------
        BYTE   W06
// 135   ----------------------------------------
        BYTE   W06
// 136   ----------------------------------------
        BYTE   W06
// 137   ----------------------------------------
        BYTE   W06
// 138   ----------------------------------------
        BYTE   W06
// 139   ----------------------------------------
        BYTE                   En2
        BYTE   W06
// 140   ----------------------------------------
        BYTE   W06
// 141   ----------------------------------------
        BYTE                   Bn2
        BYTE   W06
// 142   ----------------------------------------
        BYTE   W06
// 143   ----------------------------------------
        BYTE                   Fs3
        BYTE   W06
// 144   ----------------------------------------
        BYTE   W06
// 145   ----------------------------------------
        BYTE                   Gn3
        BYTE   W06
// 146   ----------------------------------------
        BYTE   W06
// 147   ----------------------------------------
        BYTE   W06
// 148   ----------------------------------------
        BYTE   W06
// 149   ----------------------------------------
        BYTE   W06
// 150   ----------------------------------------
        BYTE   W06
// 151   ----------------------------------------
        BYTE   W06
// 152   ----------------------------------------
        BYTE   W06
// 153   ----------------------------------------
        BYTE   W06
// 154   ----------------------------------------
        BYTE   W06
// 155   ----------------------------------------
        BYTE                   Dn2
        BYTE   W06
// 156   ----------------------------------------
        BYTE   W06
// 157   ----------------------------------------
        BYTE                   Bn2
        BYTE   W06
// 158   ----------------------------------------
        BYTE   W06
// 159   ----------------------------------------
        BYTE                   Fs3
        BYTE   W06
// 160   ----------------------------------------
        BYTE   W06
// 161   ----------------------------------------
        BYTE                   Bn3
        BYTE   W06
// 162   ----------------------------------------
        BYTE   W06
// 163   ----------------------------------------
        BYTE   W06
// 164   ----------------------------------------
        BYTE   W06
// 165   ----------------------------------------
        BYTE   W06
// 166   ----------------------------------------
        BYTE   W06
// 167   ----------------------------------------
        BYTE   W06
// 168   ----------------------------------------
        BYTE   W06
// 169   ----------------------------------------
        BYTE   W06
// 170   ----------------------------------------
        BYTE   W06
// 171   ----------------------------------------
        BYTE                   Cn2
        BYTE   W06
// 172   ----------------------------------------
        BYTE   W06
// 173   ----------------------------------------
        BYTE                   Gn2
        BYTE   W06
// 174   ----------------------------------------
        BYTE   W06
// 175   ----------------------------------------
        BYTE                   Dn3
        BYTE   W06
// 176   ----------------------------------------
        BYTE   W06
// 177   ----------------------------------------
        BYTE                   En3
        BYTE   W06
// 178   ----------------------------------------
        BYTE   W06
// 179   ----------------------------------------
        BYTE   W06
// 180   ----------------------------------------
        BYTE   W06
// 181   ----------------------------------------
        BYTE   W06
// 182   ----------------------------------------
        BYTE   W06
// 183   ----------------------------------------
        BYTE   W06
// 184   ----------------------------------------
        BYTE   W06
// 185   ----------------------------------------
        BYTE   W06
// 186   ----------------------------------------
        BYTE   W06
// 187   ----------------------------------------
        BYTE                   Bn1
        BYTE   W06
// 188   ----------------------------------------
        BYTE   W06
// 189   ----------------------------------------
        BYTE                   Gn2
        BYTE   W06
// 190   ----------------------------------------
        BYTE   W06
// 191   ----------------------------------------
        BYTE                   Dn3
        BYTE   W06
// 192   ----------------------------------------
        BYTE   W06
// 193   ----------------------------------------
        BYTE                   Gn3
        BYTE   W06
// 194   ----------------------------------------
        BYTE   W06
// 195   ----------------------------------------
        BYTE   W06
// 196   ----------------------------------------
        BYTE   W06
// 197   ----------------------------------------
        BYTE   W06
// 198   ----------------------------------------
        BYTE   W06
// 199   ----------------------------------------
        BYTE   W06
// 200   ----------------------------------------
        BYTE   W06
// 201   ----------------------------------------
        BYTE   W06
// 202   ----------------------------------------
        BYTE   W06
// 203   ----------------------------------------
        BYTE                   An1
        BYTE   W06
// 204   ----------------------------------------
        BYTE   W06
// 205   ----------------------------------------
        BYTE                   En2
        BYTE   W06
// 206   ----------------------------------------
        BYTE   W06
// 207   ----------------------------------------
        BYTE                   Cn3
        BYTE   W06
// 208   ----------------------------------------
        BYTE   W06
// 209   ----------------------------------------
        BYTE                   Gn3
        BYTE   W06
// 210   ----------------------------------------
        BYTE   W06
// 211   ----------------------------------------
        BYTE   W06
// 212   ----------------------------------------
        BYTE   W06
// 213   ----------------------------------------
        BYTE   W06
// 214   ----------------------------------------
        BYTE   W06
// 215   ----------------------------------------
        BYTE   W06
// 216   ----------------------------------------
        BYTE   W06
// 217   ----------------------------------------
        BYTE   W06
// 218   ----------------------------------------
        BYTE   W06
// 219   ----------------------------------------
        BYTE                   Bn1
        BYTE   W06
// 220   ----------------------------------------
        BYTE   W06
// 221   ----------------------------------------
        BYTE                   Gn2
        BYTE   W06
// 222   ----------------------------------------
        BYTE   W06
// 223   ----------------------------------------
        BYTE                   Dn3
        BYTE   W06
// 224   ----------------------------------------
        BYTE   W06
// 225   ----------------------------------------
        BYTE                   Gn3
        BYTE   W06
// 226   ----------------------------------------
        BYTE   W06
// 227   ----------------------------------------
        BYTE   W06
// 228   ----------------------------------------
        BYTE   W06
// 229   ----------------------------------------
        BYTE   W06
// 230   ----------------------------------------
        BYTE   W06
// 231   ----------------------------------------
        BYTE   W06
// 232   ----------------------------------------
        BYTE   W06
// 233   ----------------------------------------
        BYTE   W06
// 234   ----------------------------------------
        BYTE   W06
// 235   ----------------------------------------
        BYTE                   Cn2
        BYTE   W06
// 236   ----------------------------------------
        BYTE   W06
// 237   ----------------------------------------
        BYTE                   Gn2
        BYTE   W06
// 238   ----------------------------------------
        BYTE   W06
// 239   ----------------------------------------
        BYTE                   Dn3
        BYTE   W06
// 240   ----------------------------------------
        BYTE   W06
// 241   ----------------------------------------
        BYTE                   En3
        BYTE   W06
// 242   ----------------------------------------
        BYTE   W06
// 243   ----------------------------------------
        BYTE   W06
// 244   ----------------------------------------
        BYTE   W06
// 245   ----------------------------------------
        BYTE   W06
// 246   ----------------------------------------
        BYTE   W06
// 247   ----------------------------------------
        BYTE   W06
// 248   ----------------------------------------
        BYTE   W06
// 249   ----------------------------------------
        BYTE   W06
// 250   ----------------------------------------
        BYTE   W06
// 251   ----------------------------------------
        BYTE                   Dn2
        BYTE   W06
// 252   ----------------------------------------
        BYTE   W06
// 253   ----------------------------------------
        BYTE                   An2
        BYTE   W06
// 254   ----------------------------------------
        BYTE   W06
// 255   ----------------------------------------
        BYTE                   En3
        BYTE   W06
// 256   ----------------------------------------
        BYTE   W06
// 257   ----------------------------------------
        BYTE                   Fs3
        BYTE   W06
// 258   ----------------------------------------
        BYTE   W06
// 259   ----------------------------------------
        BYTE   W06
// 260   ----------------------------------------
        BYTE   W06
// 261   ----------------------------------------
        BYTE   W06
// 262   ----------------------------------------
        BYTE   W06
// 263   ----------------------------------------
        BYTE   W06
// 264   ----------------------------------------
        BYTE   W06
// 265   ----------------------------------------
        BYTE   W06
// 266   ----------------------------------------
        BYTE   W06
// 267   ----------------------------------------
        BYTE   W06
// 268   ----------------------------------------
        BYTE   W06
// 269   ----------------------------------------
        BYTE   W06
// 270   ----------------------------------------
        BYTE   W06
// 271   ----------------------------------------
        BYTE   W06
// 272   ----------------------------------------
        BYTE   W06
// 273   ----------------------------------------
        BYTE   W06
// 274   ----------------------------------------
        BYTE   W06
// 275   ----------------------------------------
        BYTE   W06
// 276   ----------------------------------------
        BYTE   W06
// 277   ----------------------------------------
        BYTE   W06
// 278   ----------------------------------------
        BYTE   W06
// 279   ----------------------------------------
        BYTE   W06
// 280   ----------------------------------------
        BYTE   W06
// 281   ----------------------------------------
        BYTE   W06
// 282   ----------------------------------------
        BYTE   W06
// 283   ----------------------------------------
        BYTE           N18     Gn1   v121
        BYTE   W06
// 284   ----------------------------------------
        BYTE   W06
// 285   ----------------------------------------
        BYTE           N12     Dn2   v111
        BYTE   W06
// 286   ----------------------------------------
        BYTE   W06
// 287   ----------------------------------------
        BYTE                   An2
        BYTE   W06
// 288   ----------------------------------------
        BYTE   W06
// 289   ----------------------------------------
        BYTE                   Bn2
        BYTE   W06
// 290   ----------------------------------------
        BYTE   W06
// 291   ----------------------------------------
        BYTE                   Dn3
        BYTE   W06
// 292   ----------------------------------------
        BYTE   W06
// 293   ----------------------------------------
        BYTE                   Gn3
        BYTE   W06
// 294   ----------------------------------------
        BYTE   W06
// 295   ----------------------------------------
        BYTE                   An3
        BYTE   W06
// 296   ----------------------------------------
        BYTE   W06
// 297   ----------------------------------------
        BYTE                   Bn3
        BYTE   W06
// 298   ----------------------------------------
        BYTE   W06
// 299   ----------------------------------------
        BYTE           N18     Gn1   v121
        BYTE   W06
// 300   ----------------------------------------
        BYTE   W06
// 301   ----------------------------------------
        BYTE           N12     Dn2   v111
        BYTE   W06
// 302   ----------------------------------------
        BYTE   W06
// 303   ----------------------------------------
        BYTE                   An2
        BYTE   W06
// 304   ----------------------------------------
        BYTE   W06
// 305   ----------------------------------------
        BYTE                   Bn2
        BYTE   W06
// 306   ----------------------------------------
        BYTE   W06
// 307   ----------------------------------------
        BYTE                   Dn3
        BYTE   W06
// 308   ----------------------------------------
        BYTE   W06
// 309   ----------------------------------------
        BYTE                   Gn3
        BYTE   W06
// 310   ----------------------------------------
        BYTE   W06
// 311   ----------------------------------------
        BYTE                   An3
        BYTE   W06
// 312   ----------------------------------------
        BYTE   W06
// 313   ----------------------------------------
        BYTE                   Bn3
        BYTE   W06
// 314   ----------------------------------------
        BYTE   W06
// 315   ----------------------------------------
        BYTE           N18     Fs1   v121
        BYTE   W06
// 316   ----------------------------------------
        BYTE   W06
// 317   ----------------------------------------
        BYTE           N12     En2   v111
        BYTE   W06
// 318   ----------------------------------------
        BYTE   W06
// 319   ----------------------------------------
        BYTE                   Fs2
        BYTE   W06
// 320   ----------------------------------------
        BYTE   W06
// 321   ----------------------------------------
        BYTE                   An2
        BYTE   W06
// 322   ----------------------------------------
        BYTE   W06
// 323   ----------------------------------------
        BYTE                   Bn2
        BYTE   W06
// 324   ----------------------------------------
        BYTE   W06
// 325   ----------------------------------------
        BYTE                   En3
        BYTE   W06
// 326   ----------------------------------------
        BYTE   W06
// 327   ----------------------------------------
        BYTE                   Fs3
        BYTE   W06
// 328   ----------------------------------------
        BYTE   W06
// 329   ----------------------------------------
        BYTE                   An3
        BYTE   W06
// 330   ----------------------------------------
        BYTE   W06
// 331   ----------------------------------------
        BYTE           N18     Bn1   v121
        BYTE   W06
// 332   ----------------------------------------
        BYTE   W06
// 333   ----------------------------------------
        BYTE           N12     Fs2   v111
        BYTE   W06
// 334   ----------------------------------------
        BYTE   W06
// 335   ----------------------------------------
        BYTE                   Bn2
        BYTE   W06
// 336   ----------------------------------------
        BYTE   W06
// 337   ----------------------------------------
        BYTE                   Cs3
        BYTE   W06
// 338   ----------------------------------------
        BYTE   W06
// 339   ----------------------------------------
        BYTE                   Ds3
        BYTE   W06
// 340   ----------------------------------------
        BYTE   W06
// 341   ----------------------------------------
        BYTE                   Fs3
        BYTE   W06
// 342   ----------------------------------------
        BYTE   W06
// 343   ----------------------------------------
        BYTE                   An3
        BYTE   W06
// 344   ----------------------------------------
        BYTE   W06
// 345   ----------------------------------------
        BYTE                   Bn3
        BYTE   W06
// 346   ----------------------------------------
        BYTE   W06
// 347   ----------------------------------------
        BYTE           N18     En1   v121
        BYTE   W06
// 348   ----------------------------------------
        BYTE   W06
// 349   ----------------------------------------
        BYTE           N12     Bn1   v111
        BYTE   W06
// 350   ----------------------------------------
        BYTE   W06
// 351   ----------------------------------------
        BYTE                   Fs2
        BYTE   W06
// 352   ----------------------------------------
        BYTE   W06
// 353   ----------------------------------------
        BYTE                   Gn2
        BYTE   W06
// 354   ----------------------------------------
        BYTE   W06
// 355   ----------------------------------------
        BYTE                   Bn2
        BYTE   W06
// 356   ----------------------------------------
        BYTE   W06
// 357   ----------------------------------------
        BYTE                   En3
        BYTE   W06
// 358   ----------------------------------------
        BYTE   W06
// 359   ----------------------------------------
        BYTE                   Fs3
        BYTE   W06
// 360   ----------------------------------------
        BYTE   W06
// 361   ----------------------------------------
        BYTE                   Gn3
        BYTE   W06
// 362   ----------------------------------------
        BYTE   W06
// 363   ----------------------------------------
        BYTE           N18     Dn1   v121
        BYTE   W06
// 364   ----------------------------------------
        BYTE   W06
// 365   ----------------------------------------
        BYTE           N12     Bn1   v111
        BYTE   W06
// 366   ----------------------------------------
        BYTE   W06
// 367   ----------------------------------------
        BYTE                   En2
        BYTE   W06
// 368   ----------------------------------------
        BYTE   W06
// 369   ----------------------------------------
        BYTE                   Fs2
        BYTE   W06
// 370   ----------------------------------------
        BYTE   W06
// 371   ----------------------------------------
        BYTE                   Bn2
        BYTE   W06
// 372   ----------------------------------------
        BYTE   W06
// 373   ----------------------------------------
        BYTE                   En3
        BYTE   W06
// 374   ----------------------------------------
        BYTE   W06
// 375   ----------------------------------------
        BYTE                   Fs3
        BYTE   W06
// 376   ----------------------------------------
        BYTE   W06
// 377   ----------------------------------------
        BYTE                   Gn3
        BYTE   W06
// 378   ----------------------------------------
        BYTE   W06
// 379   ----------------------------------------
        BYTE           N18     Cn1   v121
        BYTE   W06
// 380   ----------------------------------------
        BYTE   W06
// 381   ----------------------------------------
        BYTE           N12     Gn1   v111
        BYTE   W06
// 382   ----------------------------------------
        BYTE   W06
// 383   ----------------------------------------
        BYTE                   Dn2
        BYTE   W06
// 384   ----------------------------------------
        BYTE   W06
// 385   ----------------------------------------
        BYTE                   En2
        BYTE   W06
// 386   ----------------------------------------
        BYTE   W06
// 387   ----------------------------------------
        BYTE                   Gn2
        BYTE   W06
// 388   ----------------------------------------
        BYTE   W06
// 389   ----------------------------------------
        BYTE                   Cn3
        BYTE   W06
// 390   ----------------------------------------
        BYTE   W06
// 391   ----------------------------------------
        BYTE                   Dn3
        BYTE   W06
// 392   ----------------------------------------
        BYTE   W06
// 393   ----------------------------------------
        BYTE                   En3
        BYTE   W06
// 394   ----------------------------------------
        BYTE   W06
// 395   ----------------------------------------
        BYTE           N18     Dn1   v121
        BYTE   W06
// 396   ----------------------------------------
        BYTE   W06
// 397   ----------------------------------------
        BYTE           N12     An1   v111
        BYTE   W06
// 398   ----------------------------------------
        BYTE   W06
// 399   ----------------------------------------
        BYTE                   En2
        BYTE   W06
// 400   ----------------------------------------
        BYTE   W06
// 401   ----------------------------------------
        BYTE                   Fs2
        BYTE   W06
// 402   ----------------------------------------
        BYTE   W06
// 403   ----------------------------------------
        BYTE                   An2
        BYTE   W06
// 404   ----------------------------------------
        BYTE   W06
// 405   ----------------------------------------
        BYTE                   Dn3
        BYTE   W06
// 406   ----------------------------------------
        BYTE   W06
// 407   ----------------------------------------
        BYTE                   En3
        BYTE   W06
// 408   ----------------------------------------
        BYTE   W06
// 409   ----------------------------------------
        BYTE                   Fs3
        BYTE   W06
// 410   ----------------------------------------
        BYTE   W06
// 411   ----------------------------------------
        BYTE           N18     Gn1   v121
        BYTE   W06
// 412   ----------------------------------------
        BYTE   W06
// 413   ----------------------------------------
        BYTE           N12     Dn2   v111
        BYTE   W06
// 414   ----------------------------------------
        BYTE   W06
// 415   ----------------------------------------
        BYTE                   An2
        BYTE   W06
// 416   ----------------------------------------
        BYTE   W06
// 417   ----------------------------------------
        BYTE                   Bn2
        BYTE   W06
// 418   ----------------------------------------
        BYTE   W06
// 419   ----------------------------------------
        BYTE                   Dn3
        BYTE   W06
// 420   ----------------------------------------
        BYTE   W06
// 421   ----------------------------------------
        BYTE                   Gn3
        BYTE   W06
// 422   ----------------------------------------
        BYTE   W06
// 423   ----------------------------------------
        BYTE                   An3
        BYTE   W06
// 424   ----------------------------------------
        BYTE   W06
// 425   ----------------------------------------
        BYTE                   Bn3
        BYTE   W06
// 426   ----------------------------------------
        BYTE   W06
// 427   ----------------------------------------
        BYTE           N18     Gn1   v121
        BYTE   W06
// 428   ----------------------------------------
        BYTE   W06
// 429   ----------------------------------------
        BYTE           N12     Dn2   v111
        BYTE   W06
// 430   ----------------------------------------
        BYTE   W06
// 431   ----------------------------------------
        BYTE                   An2
        BYTE   W06
// 432   ----------------------------------------
        BYTE   W06
// 433   ----------------------------------------
        BYTE                   Bn2
        BYTE   W06
// 434   ----------------------------------------
        BYTE   W06
// 435   ----------------------------------------
        BYTE                   Dn3
        BYTE   W06
// 436   ----------------------------------------
        BYTE   W06
// 437   ----------------------------------------
        BYTE                   Gn3
        BYTE   W06
// 438   ----------------------------------------
        BYTE   W06
// 439   ----------------------------------------
        BYTE                   An3
        BYTE   W06
// 440   ----------------------------------------
        BYTE   W06
// 441   ----------------------------------------
        BYTE                   Bn3
        BYTE   W06
// 442   ----------------------------------------
        BYTE   W06
// 443   ----------------------------------------
        BYTE           N18     Fs1   v121
        BYTE   W06
// 444   ----------------------------------------
        BYTE   W06
// 445   ----------------------------------------
        BYTE           N12     En2   v111
        BYTE   W06
// 446   ----------------------------------------
        BYTE   W06
// 447   ----------------------------------------
        BYTE                   Fs2
        BYTE   W06
// 448   ----------------------------------------
        BYTE   W06
// 449   ----------------------------------------
        BYTE                   An2
        BYTE   W06
// 450   ----------------------------------------
        BYTE   W06
// 451   ----------------------------------------
        BYTE                   Bn2
        BYTE   W06
// 452   ----------------------------------------
        BYTE   W06
// 453   ----------------------------------------
        BYTE                   En3
        BYTE   W06
// 454   ----------------------------------------
        BYTE   W06
// 455   ----------------------------------------
        BYTE                   Fs3
        BYTE   W06
// 456   ----------------------------------------
        BYTE   W06
// 457   ----------------------------------------
        BYTE                   An3
        BYTE   W06
// 458   ----------------------------------------
        BYTE   W06
// 459   ----------------------------------------
        BYTE           N18     Bn1   v121
        BYTE   W06
// 460   ----------------------------------------
        BYTE   W06
// 461   ----------------------------------------
        BYTE           N12     Fs2   v111
        BYTE   W06
// 462   ----------------------------------------
        BYTE   W06
// 463   ----------------------------------------
        BYTE                   Bn2
        BYTE   W06
// 464   ----------------------------------------
        BYTE   W06
// 465   ----------------------------------------
        BYTE                   Cs3
        BYTE   W06
// 466   ----------------------------------------
        BYTE   W06
// 467   ----------------------------------------
        BYTE                   Ds3
        BYTE   W06
// 468   ----------------------------------------
        BYTE   W06
// 469   ----------------------------------------
        BYTE                   Fs3
        BYTE   W06
// 470   ----------------------------------------
        BYTE   W06
// 471   ----------------------------------------
        BYTE                   An3
        BYTE   W06
// 472   ----------------------------------------
        BYTE   W06
// 473   ----------------------------------------
        BYTE                   Bn3
        BYTE   W06
// 474   ----------------------------------------
        BYTE   W06
// 475   ----------------------------------------
        BYTE           N18     En1   v121
        BYTE   W06
// 476   ----------------------------------------
        BYTE   W06
// 477   ----------------------------------------
        BYTE           N12     Bn1   v111
        BYTE   W06
// 478   ----------------------------------------
        BYTE   W06
// 479   ----------------------------------------
        BYTE                   En2
        BYTE   W06
// 480   ----------------------------------------
        BYTE   W06
// 481   ----------------------------------------
        BYTE                   Fs2
        BYTE   W06
// 482   ----------------------------------------
        BYTE   W06
// 483   ----------------------------------------
        BYTE                   Gn2
        BYTE   W06
// 484   ----------------------------------------
        BYTE   W06
// 485   ----------------------------------------
        BYTE                   Bn2
        BYTE   W06
// 486   ----------------------------------------
        BYTE   W06
// 487   ----------------------------------------
        BYTE                   En3
        BYTE   W06
// 488   ----------------------------------------
        BYTE   W06
// 489   ----------------------------------------
        BYTE                   Fs3
        BYTE   W06
// 490   ----------------------------------------
        BYTE   W06
// 491   ----------------------------------------
        BYTE           N18     Dn1   v121
        BYTE   W06
// 492   ----------------------------------------
        BYTE   W06
// 493   ----------------------------------------
        BYTE           N12     Bn1   v111
        BYTE   W06
// 494   ----------------------------------------
        BYTE   W06
// 495   ----------------------------------------
        BYTE                   En2
        BYTE   W06
// 496   ----------------------------------------
        BYTE   W06
// 497   ----------------------------------------
        BYTE                   Fs2
        BYTE   W06
// 498   ----------------------------------------
        BYTE   W06
// 499   ----------------------------------------
        BYTE                   Gn2
        BYTE   W06
// 500   ----------------------------------------
        BYTE   W06
// 501   ----------------------------------------
        BYTE                   Bn2
        BYTE   W06
// 502   ----------------------------------------
        BYTE   W06
// 503   ----------------------------------------
        BYTE                   En3
        BYTE   W06
// 504   ----------------------------------------
        BYTE   W06
// 505   ----------------------------------------
        BYTE                   Fs3
        BYTE   W06
// 506   ----------------------------------------
        BYTE   W06
// 507   ----------------------------------------
        BYTE           N18     Cn1   v121
        BYTE   W06
// 508   ----------------------------------------
        BYTE   W06
// 509   ----------------------------------------
        BYTE           N12     Gn1   v111
        BYTE   W06
// 510   ----------------------------------------
        BYTE   W06
// 511   ----------------------------------------
        BYTE                   Dn2
        BYTE   W06
// 512   ----------------------------------------
        BYTE   W06
// 513   ----------------------------------------
        BYTE                   En2
        BYTE   W06
// 514   ----------------------------------------
        BYTE   W06
// 515   ----------------------------------------
        BYTE                   Gn2
        BYTE   W06
// 516   ----------------------------------------
        BYTE   W06
// 517   ----------------------------------------
        BYTE                   Dn3
        BYTE   W06
// 518   ----------------------------------------
        BYTE   W06
// 519   ----------------------------------------
        BYTE                   En3
        BYTE   W06
// 520   ----------------------------------------
        BYTE   W06
// 521   ----------------------------------------
        BYTE                   Gn3
        BYTE   W06
// 522   ----------------------------------------
        BYTE   W06
// 523   ----------------------------------------
        BYTE           N18     Cn1   v121
        BYTE   W06
// 524   ----------------------------------------
        BYTE   W06
// 525   ----------------------------------------
        BYTE           N12     Gn1   v111
        BYTE   W06
// 526   ----------------------------------------
        BYTE   W06
// 527   ----------------------------------------
        BYTE                   Cn2
        BYTE   W06
// 528   ----------------------------------------
        BYTE   W06
// 529   ----------------------------------------
        BYTE                   Ds2
        BYTE   W06
// 530   ----------------------------------------
        BYTE   W06
// 531   ----------------------------------------
        BYTE                   Gn2
        BYTE   W06
// 532   ----------------------------------------
        BYTE   W06
// 533   ----------------------------------------
        BYTE                   Cn3
        BYTE   W06
// 534   ----------------------------------------
        BYTE   W06
// 535   ----------------------------------------
        BYTE                   Ds3
        BYTE   W06
// 536   ----------------------------------------
        BYTE   W06
// 537   ----------------------------------------
        BYTE                   Gn3
        BYTE   W06
// 538   ----------------------------------------
        BYTE   W06
// 539   ----------------------------------------
        BYTE           N18     En1   v121
        BYTE   W06
// 540   ----------------------------------------
        BYTE   W06
// 541   ----------------------------------------
        BYTE           N12     Bn1   v111
        BYTE   W06
// 542   ----------------------------------------
        BYTE   W06
// 543   ----------------------------------------
        BYTE                   Fs2
        BYTE   W06
// 544   ----------------------------------------
        BYTE   W06
// 545   ----------------------------------------
        BYTE                   Gn2
        BYTE   W06
// 546   ----------------------------------------
        BYTE   W06
// 547   ----------------------------------------
        BYTE                   Bn2
        BYTE   W06
// 548   ----------------------------------------
        BYTE   W06
// 549   ----------------------------------------
        BYTE                   En3
        BYTE   W06
// 550   ----------------------------------------
        BYTE   W06
// 551   ----------------------------------------
        BYTE                   Fs3
        BYTE   W06
// 552   ----------------------------------------
        BYTE   W06
// 553   ----------------------------------------
        BYTE                   Gn3
        BYTE   W06
// 554   ----------------------------------------
        BYTE   W06
// 555   ----------------------------------------
        BYTE           N18     Dn1   v121
        BYTE   W06
// 556   ----------------------------------------
        BYTE   W06
// 557   ----------------------------------------
        BYTE           N12     Bn1   v111
        BYTE   W06
// 558   ----------------------------------------
        BYTE   W06
// 559   ----------------------------------------
        BYTE                   Fs2
        BYTE   W06
// 560   ----------------------------------------
        BYTE   W06
// 561   ----------------------------------------
        BYTE                   Bn2
        BYTE   W06
// 562   ----------------------------------------
        BYTE   W06
// 563   ----------------------------------------
        BYTE                   Dn3
        BYTE   W06
// 564   ----------------------------------------
        BYTE   W06
// 565   ----------------------------------------
        BYTE                   Fs3
        BYTE   W06
// 566   ----------------------------------------
        BYTE   W06
// 567   ----------------------------------------
        BYTE                   Bn3
        BYTE   W06
// 568   ----------------------------------------
        BYTE   W06
// 569   ----------------------------------------
        BYTE                   Dn4
        BYTE   W06
// 570   ----------------------------------------
        BYTE   W06
// 571   ----------------------------------------
        BYTE           N18     Cn1   v121
        BYTE   W06
// 572   ----------------------------------------
        BYTE   W06
// 573   ----------------------------------------
        BYTE           N12     Gn1   v111
        BYTE   W06
// 574   ----------------------------------------
        BYTE   W06
// 575   ----------------------------------------
        BYTE                   Dn2
        BYTE   W06
// 576   ----------------------------------------
        BYTE   W06
// 577   ----------------------------------------
        BYTE                   En2
        BYTE   W06
// 578   ----------------------------------------
        BYTE   W06
// 579   ----------------------------------------
        BYTE                   Gn2
        BYTE   W06
// 580   ----------------------------------------
        BYTE   W06
// 581   ----------------------------------------
        BYTE                   Cn3
        BYTE   W06
// 582   ----------------------------------------
        BYTE   W06
// 583   ----------------------------------------
        BYTE                   Dn3
        BYTE   W06
// 584   ----------------------------------------
        BYTE   W06
// 585   ----------------------------------------
        BYTE                   Gn3
        BYTE   W06
// 586   ----------------------------------------
        BYTE   W06
// 587   ----------------------------------------
        BYTE           N48     Cn3
        BYTE           N48     Cn4
        BYTE   W03
        BYTE           N44     Dn3   v111   gtp1
        BYTE                   Dn4
        BYTE   W03
// 588   ----------------------------------------
        BYTE           N42     Gn3
        BYTE           N42     Gn4
        BYTE   W06
// 589   ----------------------------------------
        BYTE   PATT
         POIN2  neverendingdream000_5_590
// 590   ----------------------------------------
        BYTE   PATT
         POIN2  neverendingdream000_5_591
// 591   ----------------------------------------
        BYTE   PATT
         POIN2  neverendingdream000_5_592
// 592   ----------------------------------------
        BYTE   PATT
         POIN2  neverendingdream000_5_593
// 593   ----------------------------------------
        BYTE           VOL     0
        BYTE   W06
// 594   ----------------------------------------
        BYTE   W06
// 595   ----------------------------------------
        BYTE   W06
// 596   ----------------------------------------
        BYTE   W06
// 597   ----------------------------------------
        BYTE   W06
// 598   ----------------------------------------
        BYTE   W06
// 599   ----------------------------------------
        BYTE                   40
        BYTE   W06
// 600   ----------------------------------------
        BYTE   W06
// 601   ----------------------------------------
        BYTE   W06
// 602   ----------------------------------------
        BYTE   W06
// 603   ----------------------------------------
        BYTE   GoTo
         POIN2  neverendingdream000_8_LOOP
        BYTE   FINE


//********************** End of Song ***********************//

        ALIGN 4
neverendingdream000:
        BYTE   9                       // Num Tracks
        BYTE   0                       // Unknown
        BYTE   neverendingdream000_pri // Priority
        BYTE   neverendingdream000_rev // Reverb

        POIN2   neverendingdream000_grp

        POIN2   neverendingdream000_0
        POIN2   neverendingdream000_1
        POIN2   neverendingdream000_2
        POIN2   neverendingdream000_3
        POIN2   neverendingdream000_4
        POIN2   neverendingdream000_5
        POIN2   neverendingdream000_6
        POIN2   neverendingdream000_7
        POIN2   neverendingdream000_8

        
