//Event file generated from Sappy .s format.
        #include "MPlayDef.event"

        #define    shadowsOfIllusion_grp  voicegroup000
        #define    shadowsOfIllusion_pri  0
        #define    shadowsOfIllusion_rev  0
        #define    shadowsOfIllusion_key  0

        // .rodata
        // shadowsOfIllusion
        ALIGN 4

//****************** Track 0 (Midi-Chn.0) ******************//

shadowsOfIllusion_0:
        BYTE   KEYSH   shadowsOfIllusion_key+0
// 000   ----------------------------------------
        BYTE   TEMPO   110/2
shadowsOfIllusion_0_LOOP:
        BYTE           VOICE   45
        BYTE           VOL     34
        BYTE           PAN     c_v+16
        BYTE           N04     An3   v100
        BYTE   W06
        BYTE                   An2   v090
        BYTE   W06
        BYTE                   An2
        BYTE   W06
        BYTE                   Gn3   v100
        BYTE   W06
        BYTE                   An2   v090
        BYTE   W06
        BYTE                   An2
        BYTE   W06
        BYTE                   An3   v100
        BYTE   W06
        BYTE                   An2   v090
        BYTE   W06
        BYTE                   An2
        BYTE   W06
        BYTE                   Gn3   v100
        BYTE   W06
        BYTE                   An2   v090
        BYTE   W06
        BYTE                   An2
        BYTE   W06
        BYTE                   An3   v100
        BYTE   W06
        BYTE                   An2   v090
        BYTE   W06
        BYTE                   Bn3   v100
        BYTE   W06
        BYTE                   An2   v090
        BYTE   W06
        BYTE                   Cn4   v100
        BYTE   W06
        BYTE                   An2   v090
        BYTE   W06
// 001   ----------------------------------------
shadowsOfIllusion_0_1:
        BYTE           N04     An3   v100
        BYTE   W06
        BYTE                   An2   v090
        BYTE   W06
        BYTE                   An2
        BYTE   W06
        BYTE                   Gn3   v100
        BYTE   W06
        BYTE                   An2   v090
        BYTE   W06
        BYTE                   An2
        BYTE   W06
        BYTE                   An3   v100
        BYTE   W06
        BYTE                   An2   v090
        BYTE   W06
        BYTE                   An2
        BYTE   W06
        BYTE                   Gn3   v100
        BYTE   W06
        BYTE                   An2   v090
        BYTE   W06
        BYTE                   An2
        BYTE   W06
        BYTE                   Bn3   v100
        BYTE   W06
        BYTE                   An2   v090
        BYTE   W06
        BYTE                   Gn3   v100
        BYTE   W06
        BYTE                   An2   v090
        BYTE   W06
        BYTE   PEND
// 002   ----------------------------------------
shadowsOfIllusion_0_2:
        BYTE           N04     An3   v100
        BYTE   W06
        BYTE                   An2   v090
        BYTE   W06
        BYTE                   An2
        BYTE   W06
        BYTE                   Gn3   v100
        BYTE   W06
        BYTE                   An2   v090
        BYTE   W06
        BYTE                   An2
        BYTE   W06
        BYTE                   An3   v100
        BYTE   W06
        BYTE                   An2   v090
        BYTE   W06
        BYTE                   An2
        BYTE   W06
        BYTE                   Gn3   v100
        BYTE   W06
        BYTE                   An2   v090
        BYTE   W06
        BYTE                   An2
        BYTE   W06
        BYTE                   An3   v100
        BYTE   W06
        BYTE                   An2   v090
        BYTE   W06
        BYTE                   Bn3   v100
        BYTE   W06
        BYTE                   An2   v090
        BYTE   W06
        BYTE                   Cn4   v100
        BYTE   W06
        BYTE                   An2   v090
        BYTE   W06
        BYTE   PEND
// 003   ----------------------------------------
        BYTE   PATT
         POIN2  shadowsOfIllusion_0_1
// 004   ----------------------------------------
        BYTE   PATT
         POIN2  shadowsOfIllusion_0_2
// 005   ----------------------------------------
        BYTE   PATT
         POIN2  shadowsOfIllusion_0_1
// 006   ----------------------------------------
        BYTE   PATT
         POIN2  shadowsOfIllusion_0_2
// 007   ----------------------------------------
        BYTE   PATT
         POIN2  shadowsOfIllusion_0_1
// 008   ----------------------------------------
        BYTE   PATT
         POIN2  shadowsOfIllusion_0_2
// 009   ----------------------------------------
        BYTE   PATT
         POIN2  shadowsOfIllusion_0_1
// 010   ----------------------------------------
        BYTE   PATT
         POIN2  shadowsOfIllusion_0_2
// 011   ----------------------------------------
        BYTE   PATT
         POIN2  shadowsOfIllusion_0_1
// 012   ----------------------------------------
        BYTE   PATT
         POIN2  shadowsOfIllusion_0_2
// 013   ----------------------------------------
        BYTE   PATT
         POIN2  shadowsOfIllusion_0_1
// 014   ----------------------------------------
        BYTE   PATT
         POIN2  shadowsOfIllusion_0_2
// 015   ----------------------------------------
        BYTE   PATT
         POIN2  shadowsOfIllusion_0_1
// 016   ----------------------------------------
        BYTE   W96
        BYTE   W24
// 017   ----------------------------------------
        BYTE   W96
        BYTE   W24
// 018   ----------------------------------------
        BYTE   W96
        BYTE   W24
// 019   ----------------------------------------
        BYTE   W96
        BYTE   W24
// 020   ----------------------------------------
        BYTE   W96
        BYTE   W24
// 021   ----------------------------------------
        BYTE   W96
        BYTE   W24
// 022   ----------------------------------------
        BYTE   W96
        BYTE   W24
// 023   ----------------------------------------
        BYTE   W96
        BYTE   W24
// 024   ----------------------------------------
        BYTE           N04     An3   v100
        BYTE   GoTo
         POIN2  shadowsOfIllusion_0_LOOP
        BYTE   W06
        BYTE                   An2   v090
        BYTE   W06
        BYTE                   An2
        BYTE   W06
        BYTE                   Gn3   v100
        BYTE   W06
        BYTE                   An2   v090
        BYTE   W06
        BYTE                   An2
        BYTE   W06
        BYTE                   An3   v100
        BYTE   W06
        BYTE                   An2   v090
        BYTE   W06
        BYTE                   An2
        BYTE   W06
        BYTE                   Gn3   v100
        BYTE   W06
        BYTE                   An2   v090
        BYTE   W06
        BYTE                   An2
        BYTE   W06
        BYTE                   An3   v100
        BYTE   W06
        BYTE                   An2   v090
        BYTE   W06
        BYTE                   Bn3   v100
        BYTE   W06
        BYTE                   An2   v090
        BYTE   W06
        BYTE                   Cn4   v100
        BYTE   W06
        BYTE                   An2   v090
        BYTE   W06
        BYTE                   An3   v100
        BYTE   W06
        BYTE                   An2   v090
        BYTE   W06
// 025   ----------------------------------------
shadowsOfIllusion_0_25:
        BYTE           N04     An2   v090
        BYTE   W06
        BYTE                   Gn3   v100
        BYTE   W06
        BYTE                   An2   v090
        BYTE   W06
        BYTE                   An2
        BYTE   W06
        BYTE                   An3   v100
        BYTE   W06
        BYTE                   An2   v090
        BYTE   W06
        BYTE                   An2
        BYTE   W06
        BYTE                   Gn3   v100
        BYTE   W06
        BYTE                   An2   v090
        BYTE   W06
        BYTE                   An2
        BYTE   W06
        BYTE                   Bn3   v100
        BYTE   W06
        BYTE                   An2   v090
        BYTE   W06
        BYTE                   Gn3   v100
        BYTE   W06
        BYTE                   An2   v090
        BYTE   W06
        BYTE                   An3   v100
        BYTE   W06
        BYTE                   An2   v090
        BYTE   W06
        BYTE                   An2
        BYTE   W06
        BYTE                   Gn3   v100
        BYTE   W06
        BYTE                   An2   v090
        BYTE   W06
        BYTE                   An2
        BYTE   W06
        BYTE   PEND
// 026   ----------------------------------------
shadowsOfIllusion_0_26:
        BYTE           N04     An3   v100
        BYTE   W06
        BYTE                   An2   v090
        BYTE   W06
        BYTE                   An2
        BYTE   W06
        BYTE                   Gn3   v100
        BYTE   W06
        BYTE                   An2   v090
        BYTE   W06
        BYTE                   An2
        BYTE   W06
        BYTE                   An3   v100
        BYTE   W06
        BYTE                   An2   v090
        BYTE   W06
        BYTE                   Bn3   v100
        BYTE   W06
        BYTE                   An2   v090
        BYTE   W06
        BYTE                   Cn4   v100
        BYTE   W06
        BYTE                   An2   v090
        BYTE   W06
        BYTE                   An3   v100
        BYTE   W06
        BYTE                   An2   v090
        BYTE   W06
        BYTE                   An2
        BYTE   W06
        BYTE                   Gn3   v100
        BYTE   W06
        BYTE                   An2   v090
        BYTE   W06
        BYTE                   An2
        BYTE   W06
        BYTE                   An3   v100
        BYTE   W06
        BYTE                   An2   v090
        BYTE   W06
        BYTE   PEND
// 027   ----------------------------------------
shadowsOfIllusion_0_27:
        BYTE           N04     An2   v090
        BYTE   W06
        BYTE                   Gn3   v100
        BYTE   W06
        BYTE                   An2   v090
        BYTE   W06
        BYTE                   An2
        BYTE   W06
        BYTE                   Bn3   v100
        BYTE   W06
        BYTE                   An2   v090
        BYTE   W06
        BYTE                   Gn3   v100
        BYTE   W06
        BYTE                   An2   v090
        BYTE   W06
        BYTE                   An3   v100
        BYTE   W06
        BYTE                   An2   v090
        BYTE   W06
        BYTE                   An2
        BYTE   W06
        BYTE                   Gn3   v100
        BYTE   W06
        BYTE                   An2   v090
        BYTE   W06
        BYTE                   An2
        BYTE   W06
        BYTE                   An3   v100
        BYTE   W06
        BYTE                   An2   v090
        BYTE   W06
        BYTE                   An2
        BYTE   W06
        BYTE                   Gn3   v100
        BYTE   W06
        BYTE                   An2   v090
        BYTE   W06
        BYTE                   An2
        BYTE   W06
        BYTE   PEND
// 028   ----------------------------------------
shadowsOfIllusion_0_28:
        BYTE           N04     An3   v100
        BYTE   W06
        BYTE                   An2   v090
        BYTE   W06
        BYTE                   Bn3   v100
        BYTE   W06
        BYTE                   An2   v090
        BYTE   W06
        BYTE                   Cn4   v100
        BYTE   W06
        BYTE                   An2   v090
        BYTE   W06
        BYTE                   An3   v100
        BYTE   W06
        BYTE                   An2   v090
        BYTE   W06
        BYTE                   An2
        BYTE   W06
        BYTE                   Gn3   v100
        BYTE   W06
        BYTE                   An2   v090
        BYTE   W06
        BYTE                   An2
        BYTE   W06
        BYTE                   An3   v100
        BYTE   W06
        BYTE                   An2   v090
        BYTE   W06
        BYTE                   An2
        BYTE   W06
        BYTE                   Gn3   v100
        BYTE   W06
        BYTE                   An2   v090
        BYTE   W06
        BYTE                   An2
        BYTE   W06
        BYTE                   Bn3   v100
        BYTE   W06
        BYTE                   An2   v090
        BYTE   W06
        BYTE   PEND
// 029   ----------------------------------------
shadowsOfIllusion_0_29:
        BYTE           N04     Gn3   v100
        BYTE   W06
        BYTE                   An2   v090
        BYTE   W06
        BYTE                   An3   v100
        BYTE   W06
        BYTE                   An2   v090
        BYTE   W06
        BYTE                   An2
        BYTE   W06
        BYTE                   Gn3   v100
        BYTE   W06
        BYTE                   An2   v090
        BYTE   W06
        BYTE                   An2
        BYTE   W06
        BYTE                   An3   v100
        BYTE   W06
        BYTE                   An2   v090
        BYTE   W06
        BYTE                   An2
        BYTE   W06
        BYTE                   Gn3   v100
        BYTE   W06
        BYTE                   An2   v090
        BYTE   W06
        BYTE                   An2
        BYTE   W06
        BYTE                   An3   v100
        BYTE   W06
        BYTE                   An2   v090
        BYTE   W06
        BYTE                   Bn3   v100
        BYTE   W06
        BYTE                   An2   v090
        BYTE   W06
        BYTE                   Cn4   v100
        BYTE   W06
        BYTE                   An2   v090
        BYTE   W06
        BYTE   PEND
// 030   ----------------------------------------
shadowsOfIllusion_0_30:
        BYTE           N04     An3   v100
        BYTE   W06
        BYTE                   An2   v090
        BYTE   W06
        BYTE                   An2
        BYTE   W06
        BYTE                   Gn3   v100
        BYTE   W06
        BYTE                   An2   v090
        BYTE   W06
        BYTE                   An2
        BYTE   W06
        BYTE                   An3   v100
        BYTE   W06
        BYTE                   An2   v090
        BYTE   W06
        BYTE                   An2
        BYTE   W06
        BYTE                   Gn3   v100
        BYTE   W06
        BYTE                   An2   v090
        BYTE   W06
        BYTE                   An2
        BYTE   W06
        BYTE                   Bn3   v100
        BYTE   W06
        BYTE                   An2   v090
        BYTE   W06
        BYTE                   Gn3   v100
        BYTE   W06
        BYTE                   An2   v090
        BYTE   W06
        BYTE                   An3   v100
        BYTE   W06
        BYTE                   An2   v090
        BYTE   W06
        BYTE                   An2
        BYTE   W06
        BYTE                   Gn3   v100
        BYTE   W06
        BYTE   PEND
// 031   ----------------------------------------
shadowsOfIllusion_0_31:
        BYTE           N04     An2   v090
        BYTE   W06
        BYTE                   An2
        BYTE   W06
        BYTE                   An3   v100
        BYTE   W06
        BYTE                   An2   v090
        BYTE   W06
        BYTE                   An2
        BYTE   W06
        BYTE                   Gn3   v100
        BYTE   W06
        BYTE                   An2   v090
        BYTE   W06
        BYTE                   An2
        BYTE   W06
        BYTE                   An3   v100
        BYTE   W06
        BYTE                   An2   v090
        BYTE   W06
        BYTE                   Bn3   v100
        BYTE   W06
        BYTE                   An2   v090
        BYTE   W06
        BYTE                   Cn4   v100
        BYTE   W06
        BYTE                   An2   v090
        BYTE   W06
        BYTE                   An3   v100
        BYTE   W06
        BYTE                   An2   v090
        BYTE   W06
        BYTE                   An2
        BYTE   W06
        BYTE                   Gn3   v100
        BYTE   W06
        BYTE                   An2   v090
        BYTE   W06
        BYTE                   An2
        BYTE   W06
        BYTE   PEND
// 032   ----------------------------------------
shadowsOfIllusion_0_32:
        BYTE           N04     An3   v100
        BYTE   W06
        BYTE                   An2   v090
        BYTE   W06
        BYTE                   An2
        BYTE   W06
        BYTE                   Gn3   v100
        BYTE   W06
        BYTE                   An2   v090
        BYTE   W06
        BYTE                   An2
        BYTE   W06
        BYTE                   Bn3   v100
        BYTE   W06
        BYTE                   An2   v090
        BYTE   W06
        BYTE                   Gn3   v100
        BYTE   W06
        BYTE                   An2   v090
        BYTE   W06
        BYTE                   An3   v100
        BYTE   W06
        BYTE                   An2   v090
        BYTE   W06
        BYTE                   An2
        BYTE   W06
        BYTE                   Gn3   v100
        BYTE   W06
        BYTE                   An2   v090
        BYTE   W06
        BYTE                   An2
        BYTE   W06
        BYTE                   An3   v100
        BYTE   W06
        BYTE                   An2   v090
        BYTE   W06
        BYTE                   An2
        BYTE   W06
        BYTE                   Gn3   v100
        BYTE   W06
        BYTE   PEND
// 033   ----------------------------------------
shadowsOfIllusion_0_33:
        BYTE           N04     An2   v090
        BYTE   W06
        BYTE                   An2
        BYTE   W06
        BYTE                   An3   v100
        BYTE   W06
        BYTE                   An2   v090
        BYTE   W06
        BYTE                   Bn3   v100
        BYTE   W06
        BYTE                   An2   v090
        BYTE   W06
        BYTE                   Cn4   v100
        BYTE   W06
        BYTE                   An2   v090
        BYTE   W06
        BYTE                   An3   v100
        BYTE   W06
        BYTE                   An2   v090
        BYTE   W06
        BYTE                   An2
        BYTE   W06
        BYTE                   Gn3   v100
        BYTE   W06
        BYTE                   An2   v090
        BYTE   W06
        BYTE                   An2
        BYTE   W06
        BYTE                   An3   v100
        BYTE   W06
        BYTE                   An2   v090
        BYTE   W06
        BYTE                   An2
        BYTE   W06
        BYTE                   Gn3   v100
        BYTE   W06
        BYTE                   An2   v090
        BYTE   W06
        BYTE                   An2
        BYTE   W06
        BYTE   PEND
// 034   ----------------------------------------
        BYTE                   Bn3   v100
        BYTE   W06
        BYTE                   An2   v090
        BYTE   W06
        BYTE                   Gn3   v100
        BYTE   W06
        BYTE                   An2   v090
        BYTE   W06
        BYTE                   An3   v100
        BYTE   W06
        BYTE                   An2   v090
        BYTE   W06
        BYTE                   An2
        BYTE   W06
        BYTE                   Gn3   v100
        BYTE   W06
        BYTE                   An2   v090
        BYTE   W06
        BYTE                   An2
        BYTE   W06
        BYTE                   An3   v100
        BYTE   W06
        BYTE                   An2   v090
        BYTE   W06
        BYTE                   An2
        BYTE   W06
        BYTE                   Gn3   v100
        BYTE   W06
        BYTE                   An2   v090
        BYTE   W06
        BYTE                   An2
        BYTE   W06
        BYTE                   An3   v100
        BYTE   W06
        BYTE                   An2   v090
        BYTE   W06
        BYTE                   Bn3   v100
        BYTE   W06
        BYTE                   An2   v090
        BYTE   W06
// 035   ----------------------------------------
        BYTE                   Cn4   v100
        BYTE   W06
        BYTE                   An2   v090
        BYTE   W06
        BYTE                   An3   v100
        BYTE   W06
        BYTE                   An2   v090
        BYTE   W06
        BYTE                   An2
        BYTE   W06
        BYTE                   Gn3   v100
        BYTE   W06
        BYTE                   An2   v090
        BYTE   W06
        BYTE                   An2
        BYTE   W06
        BYTE                   An3   v100
        BYTE   W06
        BYTE                   An2   v090
        BYTE   W06
        BYTE                   An2
        BYTE   W06
        BYTE                   Gn3   v100
        BYTE   W06
        BYTE                   An2   v090
        BYTE   W06
        BYTE                   An2
        BYTE   W06
        BYTE                   Bn3   v100
        BYTE   W06
        BYTE                   An2   v090
        BYTE   W06
        BYTE                   Gn3   v100
        BYTE   W06
        BYTE                   An2   v090
        BYTE   W06
        BYTE                   An3   v100
        BYTE   W06
        BYTE                   An2   v090
        BYTE   W06
// 036   ----------------------------------------
        BYTE                   An2
        BYTE   W06
        BYTE                   Gn3   v100
        BYTE   W06
        BYTE                   An2   v090
        BYTE   W06
        BYTE                   An2
        BYTE   W06
        BYTE                   An3   v100
        BYTE   W06
        BYTE                   An2   v090
        BYTE   W06
        BYTE                   An2
        BYTE   W06
        BYTE                   Gn3   v100
        BYTE   W06
        BYTE                   An2   v090
        BYTE   W06
        BYTE                   An2
        BYTE   W06
        BYTE                   An3   v100
        BYTE   W06
        BYTE                   An2   v090
        BYTE   W06
        BYTE                   Bn3   v100
        BYTE   W06
        BYTE                   An2   v090
        BYTE   W06
        BYTE                   Cn4   v100
        BYTE   W06
        BYTE                   An2   v090
        BYTE   W06
        BYTE                   An3   v100
        BYTE   W06
        BYTE                   An2   v090
        BYTE   W06
        BYTE                   An2
        BYTE   W06
        BYTE                   Gn3   v100
        BYTE   W06
// 037   ----------------------------------------
        BYTE                   An2   v090
        BYTE   W06
        BYTE                   An2
        BYTE   W06
        BYTE                   An3   v100
        BYTE   W06
        BYTE                   An2   v090
        BYTE   W06
        BYTE                   An2
        BYTE   W06
        BYTE                   Gn3   v100
        BYTE   W06
        BYTE                   An2   v090
        BYTE   W06
        BYTE                   An2
        BYTE   W06
        BYTE                   Bn3   v100
        BYTE   W06
        BYTE                   An2   v090
        BYTE   W06
        BYTE                   Gn3   v100
        BYTE   W06
        BYTE                   An2   v090
        BYTE   W54
// 038   ----------------------------------------
        BYTE   W96
        BYTE   W24
// 039   ----------------------------------------
        BYTE   W96
        BYTE   W24
// 040   ----------------------------------------
        BYTE   W96
        BYTE   W24
// 041   ----------------------------------------
        BYTE   W96
        BYTE   W24
// 042   ----------------------------------------
        BYTE   W96
        BYTE   W24
// 043   ----------------------------------------
        BYTE   W96
        BYTE   W24
// 044   ----------------------------------------
        BYTE   W96
        BYTE   W24
// 045   ----------------------------------------
        BYTE   W72
        BYTE                   An3   v100
        BYTE   W06
        BYTE                   An2   v090
        BYTE   W06
        BYTE                   An2
        BYTE   W06
        BYTE                   Gn3   v100
        BYTE   W06
        BYTE                   An2   v090
        BYTE   W06
        BYTE                   An2
        BYTE   W06
        BYTE                   An3   v100
        BYTE   W06
        BYTE                   An2   v090
        BYTE   W06
// 046   ----------------------------------------
        BYTE                   An2
        BYTE   W06
        BYTE                   Gn3   v100
        BYTE   W06
        BYTE                   An2   v090
        BYTE   W06
        BYTE                   An2
        BYTE   W06
        BYTE                   An3   v100
        BYTE   W06
        BYTE                   An2   v090
        BYTE   W06
        BYTE                   Bn3   v100
        BYTE   W06
        BYTE                   An2   v090
        BYTE   W06
        BYTE                   Cn4   v100
        BYTE   W06
        BYTE                   An2   v090
        BYTE   W06
        BYTE                   An3   v100
        BYTE   W06
        BYTE                   An2   v090
        BYTE   W06
        BYTE                   An2
        BYTE   W06
        BYTE                   Gn3   v100
        BYTE   W06
        BYTE                   An2   v090
        BYTE   W06
        BYTE                   An2
        BYTE   W06
        BYTE                   An3   v100
        BYTE   W06
        BYTE                   An2   v090
        BYTE   W06
        BYTE                   An2
        BYTE   W06
        BYTE                   Gn3   v100
        BYTE   W06
// 047   ----------------------------------------
        BYTE                   An2   v090
        BYTE   W06
        BYTE                   An2
        BYTE   W06
        BYTE                   Bn3   v100
        BYTE   W06
        BYTE                   An2   v090
        BYTE   W06
        BYTE                   Gn3   v100
        BYTE   W06
        BYTE                   An2   v090
        BYTE   W06
        BYTE                   An3   v100
        BYTE   W06
        BYTE                   An2   v090
        BYTE   W06
        BYTE                   An2
        BYTE   W06
        BYTE                   Gn3   v100
        BYTE   W06
        BYTE                   An2   v090
        BYTE   W06
        BYTE                   An2
        BYTE   W06
        BYTE                   An3   v100
        BYTE   W06
        BYTE                   An2   v090
        BYTE   W06
        BYTE                   An2
        BYTE   W06
        BYTE                   Gn3   v100
        BYTE   W06
        BYTE                   An2   v090
        BYTE   W06
        BYTE                   An2
        BYTE   W06
        BYTE                   An3   v100
        BYTE   W06
        BYTE                   An2   v090
        BYTE   W06
// 048   ----------------------------------------
        BYTE                   Bn3   v100
        BYTE   W06
        BYTE                   An2   v090
        BYTE   W06
        BYTE                   Cn4   v100
        BYTE   W06
        BYTE                   An2   v090
        BYTE   W06
        BYTE                   An3   v100
        BYTE   W06
        BYTE                   An2   v090
        BYTE   W06
        BYTE                   An2
        BYTE   W06
        BYTE                   Gn3   v100
        BYTE   W06
        BYTE                   An2   v090
        BYTE   W06
        BYTE                   An2
        BYTE   W06
        BYTE                   An3   v100
        BYTE   W06
        BYTE                   An2   v090
        BYTE   W06
        BYTE                   An2
        BYTE   W06
        BYTE                   Gn3   v100
        BYTE   W06
        BYTE                   An2   v090
        BYTE   W06
        BYTE                   An2
        BYTE   W06
        BYTE                   Bn3   v100
        BYTE   W06
        BYTE                   An2   v090
        BYTE   W06
        BYTE                   Gn3   v100
        BYTE   W06
        BYTE                   An2   v090
        BYTE   W06
// 049   ----------------------------------------
        BYTE                   An3   v100
        BYTE   W06
        BYTE                   An2   v090
        BYTE   W06
        BYTE                   An2
        BYTE   W06
        BYTE                   Gn3   v100
        BYTE   W06
        BYTE                   An2   v090
        BYTE   W06
        BYTE                   An2
        BYTE   W06
        BYTE                   An3   v100
        BYTE   W06
        BYTE                   An2   v090
        BYTE   W06
        BYTE                   An2
        BYTE   W06
        BYTE                   Gn3   v100
        BYTE   W06
        BYTE                   An2   v090
        BYTE   W06
        BYTE                   An2
        BYTE   W06
        BYTE                   An3   v100
        BYTE   W06
        BYTE                   An2   v090
        BYTE   W06
        BYTE                   Bn3   v100
        BYTE   W06
        BYTE                   An2   v090
        BYTE   W06
        BYTE                   Cn4   v100
        BYTE   W06
        BYTE                   An2   v090
        BYTE   W06
        BYTE                   An3   v100
        BYTE   W06
        BYTE                   An2   v090
        BYTE   W06
// 050   ----------------------------------------
        BYTE   PATT
         POIN2  shadowsOfIllusion_0_25
// 051   ----------------------------------------
        BYTE   PATT
         POIN2  shadowsOfIllusion_0_26
// 052   ----------------------------------------
        BYTE   PATT
         POIN2  shadowsOfIllusion_0_27
// 053   ----------------------------------------
        BYTE   PATT
         POIN2  shadowsOfIllusion_0_28
// 054   ----------------------------------------
        BYTE   PATT
         POIN2  shadowsOfIllusion_0_29
// 055   ----------------------------------------
        BYTE   PATT
         POIN2  shadowsOfIllusion_0_30
// 056   ----------------------------------------
        BYTE   PATT
         POIN2  shadowsOfIllusion_0_31
// 057   ----------------------------------------
        BYTE   PATT
         POIN2  shadowsOfIllusion_0_32
// 058   ----------------------------------------
        BYTE   PATT
         POIN2  shadowsOfIllusion_0_33
// 059   ----------------------------------------
        BYTE           N04     Bn3   v100
        BYTE   W06
        BYTE                   An2   v090
        BYTE   W06
        BYTE                   Gn3   v100
        BYTE   W06
        BYTE                   An2   v090
        BYTE   W96
        BYTE   W06
// 060   ----------------------------------------
        BYTE   W96
        BYTE   W24
// 061   ----------------------------------------
        BYTE   W96
        BYTE   W24
// 062   ----------------------------------------
        BYTE   W96
        BYTE   W24
// 063   ----------------------------------------
        BYTE   W96
        BYTE   W24
// 064   ----------------------------------------
        BYTE   W96
        BYTE   W24
// 065   ----------------------------------------
        BYTE   W96
        BYTE   W24
// 066   ----------------------------------------
        BYTE   W96
        BYTE   W24
// 067   ----------------------------------------
        BYTE   W24
        BYTE   FINE

//****************** Track 1 (Midi-Chn.1) ******************//

shadowsOfIllusion_1:
        BYTE   KEYSH   shadowsOfIllusion_key+0
// 000   ----------------------------------------
shadowsOfIllusion_1_LOOP:
        BYTE           VOICE   52
        BYTE           VOL     27
        BYTE           PAN     c_v-4
        BYTE           MOD     4
        BYTE   W96
        BYTE   W12
// 001   ----------------------------------------
        BYTE   W96
// 002   ----------------------------------------
        BYTE   W96
        BYTE   W12
// 003   ----------------------------------------
        BYTE   W96
// 004   ----------------------------------------
        BYTE   W96
        BYTE   W12
// 005   ----------------------------------------
        BYTE   W96
// 006   ----------------------------------------
        BYTE   W96
        BYTE   W12
// 007   ----------------------------------------
        BYTE   W96
// 008   ----------------------------------------
        BYTE   W96
        BYTE   W12
// 009   ----------------------------------------
        BYTE   W96
// 010   ----------------------------------------
        BYTE   W96
        BYTE   W12
// 011   ----------------------------------------
        BYTE   W96
// 012   ----------------------------------------
        BYTE   W96
        BYTE   W12
// 013   ----------------------------------------
        BYTE   W96
// 014   ----------------------------------------
        BYTE   W96
        BYTE   W12
// 015   ----------------------------------------
        BYTE   W92
        BYTE   W01
        BYTE           VOL     21
        BYTE   W01
        BYTE                   24
        BYTE   W01
        BYTE                   27
        BYTE   W01
// 016   ----------------------------------------
        BYTE           TIE     An2   v100
        BYTE   W08
        BYTE           VOL     26
        BYTE   W20
        BYTE                   25
        BYTE   W16
        BYTE                   24
        BYTE   W20
        BYTE                   23
        BYTE   W07
        BYTE                   22
        BYTE   W04
        BYTE                   21
        BYTE   W05
        BYTE                   20
        BYTE   W05
        BYTE                   19
        BYTE   W04
        BYTE                   18
        BYTE   W05
        BYTE                   17
        BYTE   W05
        BYTE                   16
        BYTE   W05
        BYTE                   15
        BYTE   W03
        BYTE                   14
        BYTE   W05
        BYTE                   13
        BYTE   W05
        BYTE           EOT
        BYTE           VOL     17
        BYTE   W01
        BYTE                   20
        BYTE   W01
        BYTE                   25
        BYTE   W01
// 017   ----------------------------------------
        BYTE           TIE     As2
        BYTE           VOL     27
        BYTE   W08
        BYTE                   26
        BYTE   W21
        BYTE                   25
        BYTE   W15
        BYTE                   24
        BYTE   W20
        BYTE                   23
        BYTE   W10
        BYTE                   22
        BYTE   W04
        BYTE                   21
        BYTE   W05
        BYTE                   20
        BYTE   W05
        BYTE                   19
        BYTE   W05
        BYTE                   18
        BYTE   W04
        BYTE                   17
        BYTE   W06
        BYTE                   16
        BYTE   W05
        BYTE                   15
        BYTE   W04
        BYTE                   14
        BYTE   W05
        BYTE           EOT
        BYTE           VOL     15
        BYTE   W01
        BYTE                   19
        BYTE   W01
        BYTE                   24
        BYTE   W01
// 018   ----------------------------------------
        BYTE           TIE     An2
        BYTE           VOL     27
        BYTE   W07
        BYTE                   26
        BYTE   W19
        BYTE                   25
        BYTE   W15
        BYTE                   24
        BYTE   W19
        BYTE                   23
        BYTE   W08
        BYTE                   22
        BYTE   W04
        BYTE                   21
        BYTE   W06
        BYTE                   20
        BYTE   W06
        BYTE                   19
        BYTE   W04
        BYTE                   18
        BYTE   W06
        BYTE                   17
        BYTE   W05
        BYTE                   16
        BYTE   W06
        BYTE                   15
        BYTE   W05
        BYTE                   14
        BYTE   W05
        BYTE                   13
        BYTE   W02
        BYTE           EOT
        BYTE   W01
        BYTE           VOL     17
        BYTE   W01
        BYTE                   24
        BYTE   W01
// 019   ----------------------------------------
        BYTE           TIE     As2
        BYTE           VOL     27
        BYTE   W08
        BYTE                   26
        BYTE   W20
        BYTE                   25
        BYTE   W15
        BYTE                   24
        BYTE   W19
        BYTE                   23
        BYTE   W07
        BYTE                   22
        BYTE   W04
        BYTE                   21
        BYTE   W06
        BYTE                   20
        BYTE   W06
        BYTE                   19
        BYTE   W04
        BYTE                   18
        BYTE   W06
        BYTE                   17
        BYTE   W06
        BYTE                   16
        BYTE   W06
        BYTE                   15
        BYTE   W04
        BYTE                   14
        BYTE   W06
        BYTE           EOT
        BYTE           VOL     16
        BYTE   W01
        BYTE                   19
        BYTE   W01
        BYTE                   24
        BYTE   W01
// 020   ----------------------------------------
        BYTE           TIE     An2
        BYTE           VOL     27
        BYTE   W04
        BYTE                   26
        BYTE   W20
        BYTE                   25
        BYTE   W16
        BYTE                   24
        BYTE   W20
        BYTE                   23
        BYTE   W05
        BYTE                   22
        BYTE   W05
        BYTE                   21
        BYTE   W06
        BYTE                   20
        BYTE   W06
        BYTE                   19
        BYTE   W05
        BYTE                   18
        BYTE   W06
        BYTE                   17
        BYTE   W07
        BYTE                   16
        BYTE   W06
        BYTE                   15
        BYTE   W05
        BYTE                   14
        BYTE   W06
        BYTE           EOT
        BYTE   W01
        BYTE           VOL     17
        BYTE   W01
        BYTE                   24
        BYTE   W01
// 021   ----------------------------------------
        BYTE           TIE     As2
        BYTE           VOL     27
        BYTE   W08
        BYTE                   26
        BYTE   W19
        BYTE                   25
        BYTE   W15
        BYTE                   24
        BYTE   W19
        BYTE                   23
        BYTE   W06
        BYTE                   22
        BYTE   W05
        BYTE                   21
        BYTE   W05
        BYTE                   20
        BYTE   W05
        BYTE                   19
        BYTE   W04
        BYTE                   18
        BYTE   W05
        BYTE                   17
        BYTE   W06
        BYTE                   16
        BYTE   W05
        BYTE                   15
        BYTE   W04
        BYTE                   14
        BYTE   W05
        BYTE                   13
        BYTE   W06
        BYTE           EOT
        BYTE   W01
        BYTE           VOL     17
        BYTE   W01
        BYTE                   23
        BYTE   W01
// 022   ----------------------------------------
        BYTE           TIE     An2
        BYTE           VOL     27
        BYTE   W04
        BYTE                   26
        BYTE   W20
        BYTE                   25
        BYTE   W16
        BYTE                   24
        BYTE   W19
        BYTE                   23
        BYTE   W07
        BYTE                   22
        BYTE   W04
        BYTE                   21
        BYTE   W06
        BYTE                   20
        BYTE   W05
        BYTE                   19
        BYTE   W05
        BYTE                   18
        BYTE   W05
        BYTE                   17
        BYTE   W06
        BYTE                   16
        BYTE   W05
        BYTE                   15
        BYTE   W05
        BYTE                   14
        BYTE   W05
        BYTE                   13
        BYTE   W05
        BYTE           EOT
        BYTE   W01
        BYTE           VOL     15
        BYTE   W01
        BYTE                   22
        BYTE   W01
// 023   ----------------------------------------
        BYTE           TIE     As2
        BYTE           VOL     27
        BYTE   W08
        BYTE                   26
        BYTE   W20
        BYTE                   25
        BYTE   W16
        BYTE                   24
        BYTE   W20
        BYTE                   23
        BYTE   W08
        BYTE                   22
        BYTE   W03
        BYTE                   21
        BYTE   W06
        BYTE                   20
        BYTE   W05
        BYTE                   19
        BYTE   W05
        BYTE                   18
        BYTE   W05
        BYTE                   17
        BYTE   W06
        BYTE                   16
        BYTE   W05
        BYTE                   15
        BYTE   W05
        BYTE                   14
        BYTE   W05
        BYTE           EOT
        BYTE   W01
        BYTE           VOL     18
        BYTE   W01
        BYTE                   24
        BYTE   W01
// 024   ----------------------------------------
        BYTE                   27
        BYTE   GoTo
         POIN2  shadowsOfIllusion_1_LOOP
        BYTE   W96
        BYTE   W24
// 025   ----------------------------------------
        BYTE   W96
        BYTE   W24
// 026   ----------------------------------------
        BYTE   W96
        BYTE   W24
// 027   ----------------------------------------
        BYTE   W96
        BYTE   W24
// 028   ----------------------------------------
        BYTE   W96
        BYTE   W24
// 029   ----------------------------------------
        BYTE   W96
        BYTE   W24
// 030   ----------------------------------------
        BYTE   W96
        BYTE   W24
// 031   ----------------------------------------
        BYTE   W96
        BYTE   W24
// 032   ----------------------------------------
        BYTE   W96
        BYTE   W24
// 033   ----------------------------------------
        BYTE   W96
        BYTE   W24
// 034   ----------------------------------------
        BYTE   W96
        BYTE   W24
// 035   ----------------------------------------
        BYTE   W96
        BYTE   W24
// 036   ----------------------------------------
        BYTE   W96
        BYTE   W24
// 037   ----------------------------------------
        BYTE   W68
        BYTE   W01
        BYTE                   21
        BYTE   W01
        BYTE                   24
        BYTE   W01
        BYTE                   27
        BYTE   W01
        BYTE           TIE     An2
        BYTE   W08
        BYTE           VOL     26
        BYTE   W20
        BYTE                   25
        BYTE   W16
        BYTE                   24
        BYTE   W04
// 038   ----------------------------------------
        BYTE   W16
        BYTE                   23
        BYTE   W07
        BYTE                   22
        BYTE   W04
        BYTE                   21
        BYTE   W05
        BYTE                   20
        BYTE   W05
        BYTE                   19
        BYTE   W04
        BYTE                   18
        BYTE   W05
        BYTE                   17
        BYTE   W05
        BYTE                   16
        BYTE   W05
        BYTE                   15
        BYTE   W03
        BYTE                   14
        BYTE   W05
        BYTE                   13
        BYTE   W05
        BYTE           EOT
        BYTE           VOL     17
        BYTE   W01
        BYTE                   20
        BYTE   W01
        BYTE                   25
        BYTE   W01
        BYTE           TIE     As2
        BYTE           VOL     27
        BYTE   W08
        BYTE                   26
        BYTE   W21
        BYTE                   25
        BYTE   W15
        BYTE                   24
        BYTE   W04
// 039   ----------------------------------------
        BYTE   W16
        BYTE                   23
        BYTE   W10
        BYTE                   22
        BYTE   W04
        BYTE                   21
        BYTE   W05
        BYTE                   20
        BYTE   W05
        BYTE                   19
        BYTE   W05
        BYTE                   18
        BYTE   W04
        BYTE                   17
        BYTE   W06
        BYTE                   16
        BYTE   W05
        BYTE                   15
        BYTE   W04
        BYTE                   14
        BYTE   W05
        BYTE           EOT
        BYTE           VOL     15
        BYTE   W01
        BYTE                   19
        BYTE   W01
        BYTE                   24
        BYTE   W01
        BYTE           TIE     An2
        BYTE           VOL     27
        BYTE   W07
        BYTE                   26
        BYTE   W19
        BYTE                   25
        BYTE   W15
        BYTE                   24
        BYTE   W07
// 040   ----------------------------------------
        BYTE   W12
        BYTE                   23
        BYTE   W08
        BYTE                   22
        BYTE   W04
        BYTE                   21
        BYTE   W06
        BYTE                   20
        BYTE   W06
        BYTE                   19
        BYTE   W04
        BYTE                   18
        BYTE   W06
        BYTE                   17
        BYTE   W05
        BYTE                   16
        BYTE   W06
        BYTE                   15
        BYTE   W05
        BYTE                   14
        BYTE   W05
        BYTE                   13
        BYTE   W02
        BYTE           EOT
        BYTE   W01
        BYTE           VOL     17
        BYTE   W01
        BYTE                   24
        BYTE   W01
        BYTE           TIE     As2
        BYTE           VOL     27
        BYTE   W08
        BYTE                   26
        BYTE   W20
        BYTE                   25
        BYTE   W15
        BYTE                   24
        BYTE   W05
// 041   ----------------------------------------
        BYTE   W14
        BYTE                   23
        BYTE   W07
        BYTE                   22
        BYTE   W04
        BYTE                   21
        BYTE   W06
        BYTE                   20
        BYTE   W06
        BYTE                   19
        BYTE   W04
        BYTE                   18
        BYTE   W06
        BYTE                   17
        BYTE   W06
        BYTE                   16
        BYTE   W06
        BYTE                   15
        BYTE   W04
        BYTE                   14
        BYTE   W06
        BYTE           EOT
        BYTE           VOL     16
        BYTE   W01
        BYTE                   19
        BYTE   W01
        BYTE                   24
        BYTE   W01
        BYTE           TIE     An2
        BYTE           VOL     27
        BYTE   W04
        BYTE                   26
        BYTE   W20
        BYTE                   25
        BYTE   W16
        BYTE                   24
        BYTE   W08
// 042   ----------------------------------------
        BYTE   W12
        BYTE                   23
        BYTE   W05
        BYTE                   22
        BYTE   W05
        BYTE                   21
        BYTE   W06
        BYTE                   20
        BYTE   W06
        BYTE                   19
        BYTE   W05
        BYTE                   18
        BYTE   W06
        BYTE                   17
        BYTE   W07
        BYTE                   16
        BYTE   W06
        BYTE                   15
        BYTE   W05
        BYTE                   14
        BYTE   W06
        BYTE           EOT
        BYTE   W01
        BYTE           VOL     17
        BYTE   W01
        BYTE                   24
        BYTE   W01
        BYTE           TIE     As2
        BYTE           VOL     27
        BYTE   W08
        BYTE                   26
        BYTE   W19
        BYTE                   25
        BYTE   W15
        BYTE                   24
        BYTE   W06
// 043   ----------------------------------------
        BYTE   W13
        BYTE                   23
        BYTE   W06
        BYTE                   22
        BYTE   W05
        BYTE                   21
        BYTE   W05
        BYTE                   20
        BYTE   W05
        BYTE                   19
        BYTE   W04
        BYTE                   18
        BYTE   W05
        BYTE                   17
        BYTE   W06
        BYTE                   16
        BYTE   W05
        BYTE                   15
        BYTE   W04
        BYTE                   14
        BYTE   W05
        BYTE                   13
        BYTE   W06
        BYTE           EOT
        BYTE   W01
        BYTE           VOL     17
        BYTE   W01
        BYTE                   23
        BYTE   W01
        BYTE           TIE     An2
        BYTE           VOL     27
        BYTE   W04
        BYTE                   26
        BYTE   W20
        BYTE                   25
        BYTE   W16
        BYTE                   24
        BYTE   W08
// 044   ----------------------------------------
        BYTE   W11
        BYTE                   23
        BYTE   W07
        BYTE                   22
        BYTE   W04
        BYTE                   21
        BYTE   W06
        BYTE                   20
        BYTE   W05
        BYTE                   19
        BYTE   W05
        BYTE                   18
        BYTE   W05
        BYTE                   17
        BYTE   W06
        BYTE                   16
        BYTE   W05
        BYTE                   15
        BYTE   W05
        BYTE                   14
        BYTE   W05
        BYTE                   13
        BYTE   W05
        BYTE           EOT
        BYTE   W01
        BYTE           VOL     15
        BYTE   W01
        BYTE                   22
        BYTE   W01
        BYTE           TIE     As2
        BYTE           VOL     27
        BYTE   W08
        BYTE                   26
        BYTE   W20
        BYTE                   25
        BYTE   W16
        BYTE                   24
        BYTE   W04
// 045   ----------------------------------------
        BYTE   W16
        BYTE                   23
        BYTE   W08
        BYTE                   22
        BYTE   W03
        BYTE                   21
        BYTE   W06
        BYTE                   20
        BYTE   W05
        BYTE                   19
        BYTE   W05
        BYTE                   18
        BYTE   W05
        BYTE                   17
        BYTE   W06
        BYTE                   16
        BYTE   W05
        BYTE                   15
        BYTE   W05
        BYTE                   14
        BYTE   W05
        BYTE           EOT
        BYTE   W01
        BYTE           VOL     18
        BYTE   W01
        BYTE                   24
        BYTE   W01
        BYTE                   27
        BYTE   W48
// 046   ----------------------------------------
        BYTE   W96
        BYTE   W24
// 047   ----------------------------------------
        BYTE   W96
        BYTE   W24
// 048   ----------------------------------------
        BYTE   W96
        BYTE   W24
// 049   ----------------------------------------
        BYTE   W96
        BYTE   W24
// 050   ----------------------------------------
        BYTE   W96
        BYTE   W24
// 051   ----------------------------------------
        BYTE   W96
        BYTE   W24
// 052   ----------------------------------------
        BYTE   W96
        BYTE   W24
// 053   ----------------------------------------
        BYTE   W96
        BYTE   W24
// 054   ----------------------------------------
        BYTE   W96
        BYTE   W24
// 055   ----------------------------------------
        BYTE   W96
        BYTE   W24
// 056   ----------------------------------------
        BYTE   W96
        BYTE   W24
// 057   ----------------------------------------
        BYTE   W96
        BYTE   W24
// 058   ----------------------------------------
        BYTE   W96
        BYTE   W24
// 059   ----------------------------------------
        BYTE   W21
        BYTE                   21
        BYTE   W01
        BYTE                   24
        BYTE   W01
        BYTE                   27
        BYTE   W01
        BYTE           TIE     An2
        BYTE   W08
        BYTE           VOL     26
        BYTE   W20
        BYTE                   25
        BYTE   W16
        BYTE                   24
        BYTE   W20
        BYTE                   23
        BYTE   W07
        BYTE                   22
        BYTE   W04
        BYTE                   21
        BYTE   W05
        BYTE                   20
        BYTE   W05
        BYTE                   19
        BYTE   W04
        BYTE                   18
        BYTE   W05
        BYTE                   17
        BYTE   W02
// 060   ----------------------------------------
        BYTE   W03
        BYTE                   16
        BYTE   W05
        BYTE                   15
        BYTE   W03
        BYTE                   14
        BYTE   W05
        BYTE                   13
        BYTE   W05
        BYTE           EOT
        BYTE           VOL     17
        BYTE   W01
        BYTE                   20
        BYTE   W01
        BYTE                   25
        BYTE   W01
        BYTE           TIE     As2   v092
        BYTE           VOL     27
        BYTE   W08
        BYTE                   26
        BYTE   W21
        BYTE                   25
        BYTE   W15
        BYTE                   24
        BYTE   W20
        BYTE                   23
        BYTE   W10
        BYTE                   22
        BYTE   W04
        BYTE                   21
        BYTE   W05
        BYTE                   20
        BYTE   W05
        BYTE                   19
        BYTE   W05
        BYTE                   18
        BYTE   W03
// 061   ----------------------------------------
        BYTE   W01
        BYTE                   17
        BYTE   W06
        BYTE                   16
        BYTE   W05
        BYTE                   15
        BYTE   W04
        BYTE                   14
        BYTE   W05
        BYTE           EOT
        BYTE           VOL     15
        BYTE   W01
        BYTE                   19
        BYTE   W01
        BYTE                   24
        BYTE   W01
        BYTE           TIE     An2   v083
        BYTE           VOL     27
        BYTE   W07
        BYTE                   26
        BYTE   W19
        BYTE                   25
        BYTE   W15
        BYTE                   24
        BYTE   W19
        BYTE                   23
        BYTE   W08
        BYTE                   22
        BYTE   W04
        BYTE                   21
        BYTE   W06
        BYTE                   20
        BYTE   W06
        BYTE                   19
        BYTE   W04
        BYTE                   18
        BYTE   W06
        BYTE                   17
        BYTE   W02
// 062   ----------------------------------------
        BYTE   W03
        BYTE                   16
        BYTE   W06
        BYTE                   15
        BYTE   W05
        BYTE                   14
        BYTE   W05
        BYTE                   13
        BYTE   W02
        BYTE           EOT
        BYTE   W01
        BYTE           VOL     17
        BYTE   W01
        BYTE                   24
        BYTE   W01
        BYTE           TIE     As2   v075
        BYTE           VOL     27
        BYTE   W08
        BYTE                   26
        BYTE   W20
        BYTE                   25
        BYTE   W15
        BYTE                   24
        BYTE   W19
        BYTE                   23
        BYTE   W07
        BYTE                   22
        BYTE   W04
        BYTE                   21
        BYTE   W06
        BYTE                   20
        BYTE   W06
        BYTE                   19
        BYTE   W04
        BYTE                   18
        BYTE   W06
        BYTE                   17
        BYTE   W01
// 063   ----------------------------------------
        BYTE   W05
        BYTE                   16
        BYTE   W06
        BYTE                   15
        BYTE   W04
        BYTE                   14
        BYTE   W06
        BYTE           EOT
        BYTE           VOL     16
        BYTE   W01
        BYTE                   19
        BYTE   W01
        BYTE                   24
        BYTE   W01
        BYTE           TIE     An2   v066
        BYTE           VOL     27
        BYTE   W04
        BYTE                   26
        BYTE   W20
        BYTE                   25
        BYTE   W16
        BYTE                   24
        BYTE   W20
        BYTE                   23
        BYTE   W05
        BYTE                   22
        BYTE   W05
        BYTE                   21
        BYTE   W06
        BYTE                   20
        BYTE   W06
        BYTE                   19
        BYTE   W05
        BYTE                   18
        BYTE   W06
        BYTE                   17
        BYTE   W03
// 064   ----------------------------------------
        BYTE   W04
        BYTE                   16
        BYTE   W06
        BYTE                   15
        BYTE   W05
        BYTE                   14
        BYTE   W06
        BYTE           EOT
        BYTE   W01
        BYTE           VOL     17
        BYTE   W01
        BYTE                   24
        BYTE   W01
        BYTE           TIE     As2   v058
        BYTE           VOL     27
        BYTE   W08
        BYTE                   26
        BYTE   W19
        BYTE                   25
        BYTE   W15
        BYTE                   24
        BYTE   W19
        BYTE                   23
        BYTE   W06
        BYTE                   22
        BYTE   W05
        BYTE                   21
        BYTE   W05
        BYTE                   20
        BYTE   W05
        BYTE                   19
        BYTE   W04
        BYTE                   18
        BYTE   W05
        BYTE                   17
        BYTE   W05
// 065   ----------------------------------------
        BYTE   W01
        BYTE                   16
        BYTE   W05
        BYTE                   15
        BYTE   W04
        BYTE                   14
        BYTE   W05
        BYTE                   13
        BYTE   W06
        BYTE           EOT
        BYTE   W01
        BYTE           VOL     17
        BYTE   W01
        BYTE                   23
        BYTE   W01
        BYTE           TIE     An2   v048
        BYTE           VOL     27
        BYTE   W04
        BYTE                   26
        BYTE   W20
        BYTE                   25
        BYTE   W16
        BYTE                   24
        BYTE   W19
        BYTE                   23
        BYTE   W07
        BYTE                   22
        BYTE   W04
        BYTE                   21
        BYTE   W06
        BYTE                   20
        BYTE   W05
        BYTE                   19
        BYTE   W05
        BYTE                   18
        BYTE   W05
        BYTE                   17
        BYTE   W05
// 066   ----------------------------------------
        BYTE   W01
        BYTE                   16
        BYTE   W05
        BYTE                   15
        BYTE   W05
        BYTE                   14
        BYTE   W05
        BYTE                   13
        BYTE   W05
        BYTE           EOT
        BYTE   W01
        BYTE           VOL     15
        BYTE   W01
        BYTE                   22
        BYTE   W01
        BYTE           TIE     As2   v032
        BYTE           VOL     27
        BYTE   W08
        BYTE                   26
        BYTE   W20
        BYTE                   25
        BYTE   W16
        BYTE                   24
        BYTE   W20
        BYTE                   23
        BYTE   W08
        BYTE                   22
        BYTE   W03
        BYTE                   21
        BYTE   W06
        BYTE                   20
        BYTE   W05
        BYTE                   19
        BYTE   W05
        BYTE                   18
        BYTE   W05
// 067   ----------------------------------------
        BYTE                   17
        BYTE   W06
        BYTE                   16
        BYTE   W05
        BYTE                   15
        BYTE   W05
        BYTE                   14
        BYTE   W05
        BYTE           EOT
        BYTE   W01
        BYTE           VOL     18
        BYTE   W01
        BYTE                   24
        BYTE   W01
        BYTE                   27
        BYTE   FINE

//****************** Track 2 (Midi-Chn.2) ******************//

shadowsOfIllusion_2:
        BYTE   KEYSH   shadowsOfIllusion_key+0
// 000   ----------------------------------------
shadowsOfIllusion_2_LOOP:
        BYTE           VOICE   39
        BYTE           VOL     34
        BYTE           N09     An1   v100
        BYTE   W18
        BYTE                   An1
        BYTE   W18
        BYTE                   An1
        BYTE   W72
// 001   ----------------------------------------
        BYTE                   An1
        BYTE   W18
        BYTE                   An1
        BYTE   W18
        BYTE                   An1
        BYTE   W18
        BYTE                   An1
        BYTE   W42
// 002   ----------------------------------------
        BYTE                   An1
        BYTE   W18
        BYTE                   An1
        BYTE   W18
        BYTE                   An1
        BYTE   W60
        BYTE           N10     Gn1
        BYTE   W12
// 003   ----------------------------------------
shadowsOfIllusion_2_3:
        BYTE           N09     An1   v100
        BYTE   W18
        BYTE                   An1
        BYTE   W18
        BYTE                   An1
        BYTE   W18
        BYTE                   An1
        BYTE   W18
        BYTE           N10     Gn1
        BYTE   W12
        BYTE                   Gn1
        BYTE   W12
        BYTE   PEND
// 004   ----------------------------------------
shadowsOfIllusion_2_4:
        BYTE           N09     An1   v100
        BYTE   W18
        BYTE                   An1
        BYTE   W18
        BYTE                   An1
        BYTE   W18
        BYTE                   An1
        BYTE   W18
        BYTE                   An1
        BYTE   W24
        BYTE           N10     Gn1
        BYTE   W12
        BYTE   PEND
// 005   ----------------------------------------
        BYTE   PATT
         POIN2  shadowsOfIllusion_2_3
// 006   ----------------------------------------
shadowsOfIllusion_2_6:
        BYTE           N09     Dn2   v100
        BYTE   W18
        BYTE                   Dn2
        BYTE   W18
        BYTE                   Dn2
        BYTE   W18
        BYTE                   Dn2
        BYTE   W18
        BYTE                   Dn2
        BYTE   W24
        BYTE           N10     An1
        BYTE   W12
        BYTE   PEND
// 007   ----------------------------------------
shadowsOfIllusion_2_7:
        BYTE           N09     Cn2   v100
        BYTE   W18
        BYTE                   Cn2
        BYTE   W18
        BYTE                   Cn2
        BYTE   W18
        BYTE                   Cn2
        BYTE   W18
        BYTE           N10     Gn1
        BYTE   W12
        BYTE                   Gn1
        BYTE   W12
        BYTE   PEND
// 008   ----------------------------------------
        BYTE   PATT
         POIN2  shadowsOfIllusion_2_4
// 009   ----------------------------------------
        BYTE   PATT
         POIN2  shadowsOfIllusion_2_3
// 010   ----------------------------------------
        BYTE   PATT
         POIN2  shadowsOfIllusion_2_6
// 011   ----------------------------------------
        BYTE   PATT
         POIN2  shadowsOfIllusion_2_7
// 012   ----------------------------------------
        BYTE   PATT
         POIN2  shadowsOfIllusion_2_4
// 013   ----------------------------------------
        BYTE   PATT
         POIN2  shadowsOfIllusion_2_3
// 014   ----------------------------------------
        BYTE   PATT
         POIN2  shadowsOfIllusion_2_4
// 015   ----------------------------------------
        BYTE   PATT
         POIN2  shadowsOfIllusion_2_3
// 016   ----------------------------------------
shadowsOfIllusion_2_16:
        BYTE           N10     An1   v100
        BYTE   W18
        BYTE                   An1
        BYTE   W12
        BYTE           N06
        BYTE   W06
        BYTE                   An1
        BYTE   W06
        BYTE                   Dn2
        BYTE   W06
        BYTE                   En2
        BYTE   W06
        BYTE                   An2
        BYTE   W06
        BYTE           N10     An1
        BYTE   W18
        BYTE                   An1
        BYTE   W12
        BYTE           N06
        BYTE   W06
        BYTE                   An1
        BYTE   W06
        BYTE                   Dn2
        BYTE   W06
        BYTE                   En2
        BYTE   W06
        BYTE                   An2
        BYTE   W06
        BYTE   PEND
// 017   ----------------------------------------
shadowsOfIllusion_2_17:
        BYTE           N10     Ds1   v100
        BYTE   W18
        BYTE                   Ds1
        BYTE   W12
        BYTE           N06
        BYTE   W06
        BYTE                   Ds1
        BYTE   W06
        BYTE                   Gn1
        BYTE   W06
        BYTE                   As1
        BYTE   W06
        BYTE                   Ds2
        BYTE   W06
        BYTE           N10     Ds1
        BYTE   W18
        BYTE                   Ds1
        BYTE   W12
        BYTE           N06
        BYTE   W06
        BYTE                   Ds1
        BYTE   W06
        BYTE                   Gn1
        BYTE   W06
        BYTE                   As1
        BYTE   W06
        BYTE                   Ds2
        BYTE   W06
        BYTE   PEND
// 018   ----------------------------------------
        BYTE   PATT
         POIN2  shadowsOfIllusion_2_16
// 019   ----------------------------------------
        BYTE   PATT
         POIN2  shadowsOfIllusion_2_17
// 020   ----------------------------------------
        BYTE   PATT
         POIN2  shadowsOfIllusion_2_16
// 021   ----------------------------------------
        BYTE   PATT
         POIN2  shadowsOfIllusion_2_17
// 022   ----------------------------------------
        BYTE   PATT
         POIN2  shadowsOfIllusion_2_16
// 023   ----------------------------------------
        BYTE   PATT
         POIN2  shadowsOfIllusion_2_17
// 024   ----------------------------------------
        BYTE           N09     An1   v100
        BYTE   GoTo
         POIN2  shadowsOfIllusion_2_LOOP
        BYTE   W18
        BYTE                   An1
        BYTE   W18
        BYTE                   An1
        BYTE   W72
        BYTE                   An1
        BYTE   W12
// 025   ----------------------------------------
        BYTE   W06
        BYTE                   An1
        BYTE   W18
        BYTE                   An1
        BYTE   W18
        BYTE                   An1
        BYTE   W42
        BYTE                   An1
        BYTE   W18
        BYTE                   An1
        BYTE   W18
// 026   ----------------------------------------
        BYTE                   An1
        BYTE   W60
        BYTE           N10     Gn1
        BYTE   W12
        BYTE           N09     An1
        BYTE   W18
        BYTE                   An1
        BYTE   W18
        BYTE                   An1
        BYTE   W12
// 027   ----------------------------------------
        BYTE   W06
        BYTE                   An1
        BYTE   W18
        BYTE           N10     Gn1
        BYTE   W12
        BYTE                   Gn1
        BYTE   W12
        BYTE           N09     An1
        BYTE   W18
        BYTE                   An1
        BYTE   W18
        BYTE                   An1
        BYTE   W18
        BYTE                   An1
        BYTE   W18
// 028   ----------------------------------------
shadowsOfIllusion_2_28:
        BYTE           N09     An1   v100
        BYTE   W24
        BYTE           N10     Gn1
        BYTE   W12
        BYTE           N09     An1
        BYTE   W18
        BYTE                   An1
        BYTE   W18
        BYTE                   An1
        BYTE   W18
        BYTE                   An1
        BYTE   W18
        BYTE           N10     Gn1
        BYTE   W12
        BYTE   PEND
// 029   ----------------------------------------
shadowsOfIllusion_2_29:
        BYTE           N10     Gn1   v100
        BYTE   W12
        BYTE           N09     Dn2
        BYTE   W18
        BYTE                   Dn2
        BYTE   W18
        BYTE                   Dn2
        BYTE   W18
        BYTE                   Dn2
        BYTE   W18
        BYTE                   Dn2
        BYTE   W24
        BYTE           N10     An1
        BYTE   W12
        BYTE   PEND
// 030   ----------------------------------------
shadowsOfIllusion_2_30:
        BYTE           N09     Cn2   v100
        BYTE   W18
        BYTE                   Cn2
        BYTE   W18
        BYTE                   Cn2
        BYTE   W18
        BYTE                   Cn2
        BYTE   W18
        BYTE           N10     Gn1
        BYTE   W12
        BYTE                   Gn1
        BYTE   W12
        BYTE           N09     An1
        BYTE   W18
        BYTE                   An1
        BYTE   W06
        BYTE   PEND
// 031   ----------------------------------------
shadowsOfIllusion_2_31:
        BYTE   W12
        BYTE           N09     An1   v100
        BYTE   W18
        BYTE                   An1
        BYTE   W18
        BYTE                   An1
        BYTE   W24
        BYTE           N10     Gn1
        BYTE   W12
        BYTE           N09     An1
        BYTE   W18
        BYTE                   An1
        BYTE   W18
        BYTE   PEND
// 032   ----------------------------------------
        BYTE                   An1
        BYTE   W18
        BYTE                   An1
        BYTE   W18
        BYTE           N10     Gn1
        BYTE   W12
        BYTE                   Gn1
        BYTE   W12
        BYTE           N09     Dn2
        BYTE   W18
        BYTE                   Dn2
        BYTE   W18
        BYTE                   Dn2
        BYTE   W18
        BYTE                   Dn2
        BYTE   W06
// 033   ----------------------------------------
        BYTE   W12
        BYTE                   Dn2
        BYTE   W24
        BYTE           N10     An1
        BYTE   W12
        BYTE           N09     Cn2
        BYTE   W18
        BYTE                   Cn2
        BYTE   W18
        BYTE                   Cn2
        BYTE   W18
        BYTE                   Cn2
        BYTE   W18
// 034   ----------------------------------------
        BYTE           N10     Gn1
        BYTE   W12
        BYTE                   Gn1
        BYTE   W12
        BYTE           N09     An1
        BYTE   W18
        BYTE                   An1
        BYTE   W18
        BYTE                   An1
        BYTE   W18
        BYTE                   An1
        BYTE   W18
        BYTE                   An1
        BYTE   W24
// 035   ----------------------------------------
        BYTE           N10     Gn1
        BYTE   W12
        BYTE           N09     An1
        BYTE   W18
        BYTE                   An1
        BYTE   W18
        BYTE                   An1
        BYTE   W18
        BYTE                   An1
        BYTE   W18
        BYTE           N10     Gn1
        BYTE   W12
        BYTE                   Gn1
        BYTE   W12
        BYTE           N09     An1
        BYTE   W12
// 036   ----------------------------------------
        BYTE   W06
        BYTE                   An1
        BYTE   W18
        BYTE                   An1
        BYTE   W18
        BYTE                   An1
        BYTE   W18
        BYTE                   An1
        BYTE   W24
        BYTE           N10     Gn1
        BYTE   W12
        BYTE           N09     An1
        BYTE   W18
        BYTE                   An1
        BYTE   W06
// 037   ----------------------------------------
        BYTE   W12
        BYTE                   An1
        BYTE   W18
        BYTE                   An1
        BYTE   W18
        BYTE           N10     Gn1
        BYTE   W12
        BYTE                   Gn1
        BYTE   W12
        BYTE                   An1
        BYTE   W18
        BYTE                   An1
        BYTE   W12
        BYTE           N06
        BYTE   W06
        BYTE                   An1
        BYTE   W06
        BYTE                   Dn2
        BYTE   W06
// 038   ----------------------------------------
shadowsOfIllusion_2_38:
        BYTE           N06     En2   v100
        BYTE   W06
        BYTE                   An2
        BYTE   W06
        BYTE           N10     An1
        BYTE   W18
        BYTE                   An1
        BYTE   W12
        BYTE           N06
        BYTE   W06
        BYTE                   An1
        BYTE   W06
        BYTE                   Dn2
        BYTE   W06
        BYTE                   En2
        BYTE   W06
        BYTE                   An2
        BYTE   W06
        BYTE           N10     Ds1
        BYTE   W18
        BYTE                   Ds1
        BYTE   W12
        BYTE           N06
        BYTE   W06
        BYTE                   Ds1
        BYTE   W06
        BYTE                   Gn1
        BYTE   W06
        BYTE   PEND
// 039   ----------------------------------------
shadowsOfIllusion_2_39:
        BYTE           N06     As1   v100
        BYTE   W06
        BYTE                   Ds2
        BYTE   W06
        BYTE           N10     Ds1
        BYTE   W18
        BYTE                   Ds1
        BYTE   W12
        BYTE           N06
        BYTE   W06
        BYTE                   Ds1
        BYTE   W06
        BYTE                   Gn1
        BYTE   W06
        BYTE                   As1
        BYTE   W06
        BYTE                   Ds2
        BYTE   W06
        BYTE           N10     An1
        BYTE   W18
        BYTE                   An1
        BYTE   W12
        BYTE           N06
        BYTE   W06
        BYTE                   An1
        BYTE   W06
        BYTE                   Dn2
        BYTE   W06
        BYTE   PEND
// 040   ----------------------------------------
        BYTE   PATT
         POIN2  shadowsOfIllusion_2_38
// 041   ----------------------------------------
        BYTE   PATT
         POIN2  shadowsOfIllusion_2_39
// 042   ----------------------------------------
        BYTE   PATT
         POIN2  shadowsOfIllusion_2_38
// 043   ----------------------------------------
        BYTE   PATT
         POIN2  shadowsOfIllusion_2_39
// 044   ----------------------------------------
        BYTE   PATT
         POIN2  shadowsOfIllusion_2_38
// 045   ----------------------------------------
        BYTE           N06     As1   v100
        BYTE   W06
        BYTE                   Ds2
        BYTE   W06
        BYTE           N10     Ds1
        BYTE   W18
        BYTE                   Ds1
        BYTE   W12
        BYTE           N06
        BYTE   W06
        BYTE                   Ds1
        BYTE   W06
        BYTE                   Gn1
        BYTE   W06
        BYTE                   As1
        BYTE   W06
        BYTE                   Ds2
        BYTE   W06
        BYTE           N09     An1
        BYTE   W18
        BYTE                   An1
        BYTE   W18
        BYTE                   An1
        BYTE   W12
// 046   ----------------------------------------
        BYTE   W60
        BYTE                   An1
        BYTE   W18
        BYTE                   An1
        BYTE   W18
        BYTE                   An1
        BYTE   W18
        BYTE                   An1
        BYTE   W06
// 047   ----------------------------------------
        BYTE   W36
        BYTE                   An1
        BYTE   W18
        BYTE                   An1
        BYTE   W18
        BYTE                   An1
        BYTE   W48
// 048   ----------------------------------------
        BYTE   W12
        BYTE           N10     Gn1
        BYTE   W12
        BYTE           N09     An1
        BYTE   W18
        BYTE                   An1
        BYTE   W18
        BYTE                   An1
        BYTE   W18
        BYTE                   An1
        BYTE   W18
        BYTE           N10     Gn1
        BYTE   W12
        BYTE                   Gn1
        BYTE   W12
// 049   ----------------------------------------
        BYTE           N09     An1
        BYTE   W18
        BYTE                   An1
        BYTE   W18
        BYTE                   An1
        BYTE   W18
        BYTE                   An1
        BYTE   W18
        BYTE                   An1
        BYTE   W24
        BYTE           N10     Gn1
        BYTE   W12
        BYTE           N09     An1
        BYTE   W12
// 050   ----------------------------------------
        BYTE   W06
        BYTE                   An1
        BYTE   W18
        BYTE                   An1
        BYTE   W18
        BYTE                   An1
        BYTE   W18
        BYTE           N10     Gn1
        BYTE   W12
        BYTE                   Gn1
        BYTE   W12
        BYTE           N09     Dn2
        BYTE   W18
        BYTE                   Dn2
        BYTE   W18
// 051   ----------------------------------------
        BYTE                   Dn2
        BYTE   W18
        BYTE                   Dn2
        BYTE   W18
        BYTE                   Dn2
        BYTE   W24
        BYTE           N10     An1
        BYTE   W12
        BYTE           N09     Cn2
        BYTE   W18
        BYTE                   Cn2
        BYTE   W18
        BYTE                   Cn2
        BYTE   W12
// 052   ----------------------------------------
        BYTE   W06
        BYTE                   Cn2
        BYTE   W18
        BYTE           N10     Gn1
        BYTE   W12
        BYTE                   Gn1
        BYTE   W12
        BYTE           N09     An1
        BYTE   W18
        BYTE                   An1
        BYTE   W18
        BYTE                   An1
        BYTE   W18
        BYTE                   An1
        BYTE   W18
// 053   ----------------------------------------
        BYTE   PATT
         POIN2  shadowsOfIllusion_2_28
// 054   ----------------------------------------
        BYTE   PATT
         POIN2  shadowsOfIllusion_2_29
// 055   ----------------------------------------
        BYTE   PATT
         POIN2  shadowsOfIllusion_2_30
// 056   ----------------------------------------
        BYTE   PATT
         POIN2  shadowsOfIllusion_2_31
// 057   ----------------------------------------
        BYTE           N09     An1   v100
        BYTE   W18
        BYTE                   An1
        BYTE   W18
        BYTE           N10     Gn1
        BYTE   W12
        BYTE                   Gn1
        BYTE   W12
        BYTE           N09     An1
        BYTE   W18
        BYTE                   An1
        BYTE   W18
        BYTE                   An1
        BYTE   W18
        BYTE                   An1
        BYTE   W06
// 058   ----------------------------------------
        BYTE   W12
        BYTE                   An1
        BYTE   W24
        BYTE           N10     Gn1
        BYTE   W12
        BYTE           N09     An1
        BYTE   W18
        BYTE                   An1
        BYTE   W18
        BYTE                   An1
        BYTE   W18
        BYTE                   An1
        BYTE   W18
// 059   ----------------------------------------
        BYTE           N10     Gn1
        BYTE   W12
        BYTE                   Gn1
        BYTE   W12
        BYTE                   An1
        BYTE   W18
        BYTE                   An1   v099
        BYTE   W12
        BYTE           N06     An1   v098
        BYTE   W06
        BYTE                   An1
        BYTE   W06
        BYTE                   Dn2
        BYTE   W06
        BYTE                   En2   v097
        BYTE   W06
        BYTE                   An2
        BYTE   W06
        BYTE           N10     An1   v096
        BYTE   W18
        BYTE                   An1   v095
        BYTE   W12
        BYTE           N06     An1   v094
        BYTE   W06
// 060   ----------------------------------------
        BYTE                   An1
        BYTE   W06
        BYTE                   Dn2   v093
        BYTE   W06
        BYTE                   En2
        BYTE   W06
        BYTE                   An2   v092
        BYTE   W06
        BYTE           N10     Ds1
        BYTE   W18
        BYTE                   Ds1   v091
        BYTE   W12
        BYTE           N06     Ds1   v090
        BYTE   W06
        BYTE                   Ds1   v089
        BYTE   W06
        BYTE                   Gn1
        BYTE   W06
        BYTE                   As1
        BYTE   W06
        BYTE                   Ds2   v088
        BYTE   W06
        BYTE           N10     Ds1
        BYTE   W18
        BYTE                   Ds1   v086
        BYTE   W12
        BYTE           N06
        BYTE   W06
// 061   ----------------------------------------
        BYTE                   Ds1   v085
        BYTE   W06
        BYTE                   Gn1
        BYTE   W06
        BYTE                   As1   v084
        BYTE   W06
        BYTE                   Ds2
        BYTE   W06
        BYTE           N10     An1   v083
        BYTE   W18
        BYTE                   An1   v082
        BYTE   W12
        BYTE           N06     An1   v081
        BYTE   W06
        BYTE                   An1
        BYTE   W06
        BYTE                   Dn2
        BYTE   W06
        BYTE                   En2   v080
        BYTE   W06
        BYTE                   An2
        BYTE   W06
        BYTE           N10     An1   v079
        BYTE   W18
        BYTE                   An1   v078
        BYTE   W12
        BYTE           N06     An1   v077
        BYTE   W06
// 062   ----------------------------------------
        BYTE                   An1
        BYTE   W06
        BYTE                   Dn2   v076
        BYTE   W06
        BYTE                   En2
        BYTE   W06
        BYTE                   An2   v075
        BYTE   W06
        BYTE           N10     Ds1
        BYTE   W18
        BYTE                   Ds1   v074
        BYTE   W12
        BYTE           N06     Ds1   v073
        BYTE   W06
        BYTE                   Ds1   v072
        BYTE   W06
        BYTE                   Gn1
        BYTE   W06
        BYTE                   As1
        BYTE   W06
        BYTE                   Ds2   v071
        BYTE   W06
        BYTE           N10     Ds1
        BYTE   W18
        BYTE                   Ds1   v069
        BYTE   W12
        BYTE           N06
        BYTE   W06
// 063   ----------------------------------------
        BYTE                   Ds1   v068
        BYTE   W06
        BYTE                   Gn1
        BYTE   W06
        BYTE                   As1   v067
        BYTE   W06
        BYTE                   Ds2
        BYTE   W06
        BYTE           N10     An1   v066
        BYTE   W18
        BYTE                   An1   v065
        BYTE   W12
        BYTE           N06     An1   v064
        BYTE   W06
        BYTE                   An1
        BYTE   W06
        BYTE                   Dn2
        BYTE   W06
        BYTE                   En2   v063
        BYTE   W06
        BYTE                   An2
        BYTE   W06
        BYTE           N10     An1   v062
        BYTE   W18
        BYTE                   An1   v061
        BYTE   W12
        BYTE           N06     An1   v060
        BYTE   W06
// 064   ----------------------------------------
        BYTE                   An1
        BYTE   W06
        BYTE                   Dn2   v059
        BYTE   W06
        BYTE                   En2
        BYTE   W06
        BYTE                   An2   v058
        BYTE   W06
        BYTE           N10     Ds1
        BYTE   W18
        BYTE                   Ds1   v057
        BYTE   W12
        BYTE           N06     Ds1   v056
        BYTE   W06
        BYTE                   Ds1   v055
        BYTE   W06
        BYTE                   Gn1
        BYTE   W06
        BYTE                   As1
        BYTE   W06
        BYTE                   Ds2   v054
        BYTE   W06
        BYTE           N10     Ds1
        BYTE   W18
        BYTE                   Ds1   v052
        BYTE   W12
        BYTE           N06
        BYTE   W06
// 065   ----------------------------------------
        BYTE                   Ds1   v051
        BYTE   W06
        BYTE                   Gn1
        BYTE   W06
        BYTE                   As1   v050
        BYTE   W06
        BYTE                   Ds2
        BYTE   W06
        BYTE           N10     An1   v048
        BYTE   W18
        BYTE                   An1   v046
        BYTE   W12
        BYTE           N06     An1   v044
        BYTE   W06
        BYTE                   An1
        BYTE   W06
        BYTE                   Dn2   v043
        BYTE   W06
        BYTE                   En2   v042
        BYTE   W06
        BYTE                   An2   v041
        BYTE   W06
        BYTE           N10     An1   v040
        BYTE   W18
        BYTE                   An1   v038
        BYTE   W12
        BYTE           N06     An1   v036
        BYTE   W06
// 066   ----------------------------------------
        BYTE                   An1
        BYTE   W06
        BYTE                   Dn2   v035
        BYTE   W06
        BYTE                   En2   v034
        BYTE   W06
        BYTE                   An2   v033
        BYTE   W06
        BYTE           N10     Ds1   v032
        BYTE   W18
        BYTE                   Ds1   v030
        BYTE   W12
        BYTE           N06     Ds1   v028
        BYTE   W06
        BYTE                   Ds1
        BYTE   W06
        BYTE                   Gn1   v027
        BYTE   W06
        BYTE                   As1   v026
        BYTE   W06
        BYTE                   Ds2   v025
        BYTE   W06
        BYTE           N10     Ds1   v024
        BYTE   W18
        BYTE                   Ds1   v022
        BYTE   W12
        BYTE           N06     Ds1   v020
        BYTE   W06
// 067   ----------------------------------------
        BYTE                   Ds1
        BYTE   W06
        BYTE                   Gn1   v019
        BYTE   W06
        BYTE                   As1   v018
        BYTE   W06
        BYTE                   Ds2   v017
        BYTE   W06
        BYTE   FINE

//****************** Track 3 (Midi-Chn.3) ******************//

shadowsOfIllusion_3:
        BYTE   KEYSH   shadowsOfIllusion_key+0
// 000   ----------------------------------------
shadowsOfIllusion_3_LOOP:
        BYTE           VOICE   52
        BYTE           VOL     27
        BYTE           PAN     c_v+4
        BYTE           MOD     4
        BYTE   W96
        BYTE   W12
// 001   ----------------------------------------
        BYTE   W96
// 002   ----------------------------------------
        BYTE   W96
        BYTE   W12
// 003   ----------------------------------------
        BYTE   W96
// 004   ----------------------------------------
        BYTE   W96
        BYTE   W12
// 005   ----------------------------------------
        BYTE   W96
// 006   ----------------------------------------
        BYTE   W96
        BYTE   W12
// 007   ----------------------------------------
        BYTE   W96
// 008   ----------------------------------------
        BYTE   W96
        BYTE   W12
// 009   ----------------------------------------
        BYTE   W96
// 010   ----------------------------------------
        BYTE   W96
        BYTE   W12
// 011   ----------------------------------------
        BYTE   W96
// 012   ----------------------------------------
        BYTE   W96
        BYTE   W12
// 013   ----------------------------------------
        BYTE   W96
// 014   ----------------------------------------
        BYTE   W96
        BYTE   W12
// 015   ----------------------------------------
        BYTE   W96
// 016   ----------------------------------------
        BYTE           TIE     En3   v100
        BYTE   W08
        BYTE           VOL     26
        BYTE   W20
        BYTE                   25
        BYTE   W16
        BYTE                   24
        BYTE   W21
        BYTE                   23
        BYTE   W06
        BYTE                   22
        BYTE   W04
        BYTE                   21
        BYTE   W05
        BYTE                   20
        BYTE   W05
        BYTE                   19
        BYTE   W04
        BYTE                   18
        BYTE   W05
        BYTE                   17
        BYTE   W05
        BYTE                   16
        BYTE   W05
        BYTE                   15
        BYTE   W04
        BYTE                   14
        BYTE   W05
        BYTE                   13
        BYTE   W04
        BYTE                   15
        BYTE   W01
        BYTE           EOT
        BYTE           VOL     20
        BYTE   W01
        BYTE                   23
        BYTE   W01
// 017   ----------------------------------------
        BYTE           TIE     Ds3
        BYTE           VOL     27
        BYTE   W09
        BYTE                   26
        BYTE   W20
        BYTE                   25
        BYTE   W15
        BYTE                   24
        BYTE   W21
        BYTE                   23
        BYTE   W09
        BYTE                   22
        BYTE   W04
        BYTE                   21
        BYTE   W05
        BYTE                   20
        BYTE   W06
        BYTE                   19
        BYTE   W04
        BYTE                   18
        BYTE   W05
        BYTE                   17
        BYTE   W05
        BYTE                   16
        BYTE   W05
        BYTE                   15
        BYTE   W04
        BYTE                   14
        BYTE   W06
        BYTE           EOT
        BYTE           VOL     19
        BYTE   W01
        BYTE                   23
        BYTE   W01
// 018   ----------------------------------------
        BYTE           TIE     En3
        BYTE           VOL     27
        BYTE   W08
        BYTE                   26
        BYTE   W18
        BYTE                   25
        BYTE   W15
        BYTE                   24
        BYTE   W19
        BYTE                   23
        BYTE   W08
        BYTE                   22
        BYTE   W04
        BYTE                   21
        BYTE   W06
        BYTE                   20
        BYTE   W06
        BYTE                   19
        BYTE   W04
        BYTE                   18
        BYTE   W06
        BYTE                   17
        BYTE   W06
        BYTE                   16
        BYTE   W05
        BYTE                   15
        BYTE   W05
        BYTE                   14
        BYTE   W06
        BYTE                   13
        BYTE   W02
        BYTE           EOT
        BYTE           VOL     17
        BYTE   W01
        BYTE                   22
        BYTE   W01
// 019   ----------------------------------------
        BYTE           TIE     Ds3
        BYTE           VOL     27
        BYTE   W09
        BYTE                   26
        BYTE   W19
        BYTE                   25
        BYTE   W15
        BYTE                   24
        BYTE   W19
        BYTE                   23
        BYTE   W07
        BYTE                   22
        BYTE   W04
        BYTE                   21
        BYTE   W06
        BYTE                   20
        BYTE   W06
        BYTE                   19
        BYTE   W04
        BYTE                   18
        BYTE   W06
        BYTE                   17
        BYTE   W06
        BYTE                   16
        BYTE   W06
        BYTE                   15
        BYTE   W04
        BYTE                   14
        BYTE   W07
        BYTE           EOT
        BYTE           VOL     19
        BYTE   W01
        BYTE                   22
        BYTE   W01
// 020   ----------------------------------------
        BYTE           TIE     En3
        BYTE           VOL     27
        BYTE   W04
        BYTE                   26
        BYTE   W20
        BYTE                   25
        BYTE   W16
        BYTE                   24
        BYTE   W20
        BYTE                   23
        BYTE   W05
        BYTE                   22
        BYTE   W05
        BYTE                   21
        BYTE   W06
        BYTE                   20
        BYTE   W06
        BYTE                   19
        BYTE   W05
        BYTE                   18
        BYTE   W06
        BYTE                   17
        BYTE   W07
        BYTE                   16
        BYTE   W06
        BYTE                   15
        BYTE   W05
        BYTE                   14
        BYTE   W07
        BYTE           EOT
        BYTE           VOL     17
        BYTE   W01
        BYTE                   22
        BYTE   W01
// 021   ----------------------------------------
        BYTE           TIE     Ds3
        BYTE           VOL     27
        BYTE   W08
        BYTE                   26
        BYTE   W19
        BYTE                   25
        BYTE   W15
        BYTE                   24
        BYTE   W19
        BYTE                   23
        BYTE   W07
        BYTE                   22
        BYTE   W04
        BYTE                   21
        BYTE   W05
        BYTE                   20
        BYTE   W05
        BYTE                   19
        BYTE   W04
        BYTE                   18
        BYTE   W06
        BYTE                   17
        BYTE   W05
        BYTE                   16
        BYTE   W05
        BYTE                   15
        BYTE   W04
        BYTE                   14
        BYTE   W05
        BYTE                   13
        BYTE   W07
        BYTE           EOT
        BYTE           VOL     17
        BYTE   W01
        BYTE                   21
        BYTE   W01
// 022   ----------------------------------------
        BYTE           TIE     En3
        BYTE           VOL     27
        BYTE   W04
        BYTE                   26
        BYTE   W20
        BYTE                   25
        BYTE   W16
        BYTE                   24
        BYTE   W19
        BYTE                   23
        BYTE   W07
        BYTE                   22
        BYTE   W04
        BYTE                   21
        BYTE   W06
        BYTE                   20
        BYTE   W05
        BYTE                   19
        BYTE   W05
        BYTE                   18
        BYTE   W06
        BYTE                   17
        BYTE   W05
        BYTE                   16
        BYTE   W06
        BYTE                   15
        BYTE   W04
        BYTE                   14
        BYTE   W06
        BYTE                   13
        BYTE   W05
        BYTE           EOT
        BYTE           VOL     15
        BYTE   W01
        BYTE                   20
        BYTE   W01
// 023   ----------------------------------------
        BYTE           TIE     Ds3
        BYTE           VOL     27
        BYTE   W09
        BYTE                   26
        BYTE   W19
        BYTE                   25
        BYTE   W16
        BYTE                   24
        BYTE   W20
        BYTE                   23
        BYTE   W08
        BYTE                   22
        BYTE   W03
        BYTE                   21
        BYTE   W06
        BYTE                   20
        BYTE   W05
        BYTE                   19
        BYTE   W05
        BYTE                   18
        BYTE   W06
        BYTE                   17
        BYTE   W05
        BYTE                   16
        BYTE   W06
        BYTE                   15
        BYTE   W04
        BYTE                   14
        BYTE   W06
        BYTE           EOT
        BYTE           VOL     17
        BYTE   W01
        BYTE                   23
        BYTE   W01
// 024   ----------------------------------------
        BYTE                   27
        BYTE   GoTo
         POIN2  shadowsOfIllusion_3_LOOP
        BYTE   W96
        BYTE   W24
// 025   ----------------------------------------
        BYTE   W96
        BYTE   W24
// 026   ----------------------------------------
        BYTE   W96
        BYTE   W24
// 027   ----------------------------------------
        BYTE   W96
        BYTE   W24
// 028   ----------------------------------------
        BYTE   W96
        BYTE   W24
// 029   ----------------------------------------
        BYTE   W96
        BYTE   W24
// 030   ----------------------------------------
        BYTE   W96
        BYTE   W24
// 031   ----------------------------------------
        BYTE   W96
        BYTE   W24
// 032   ----------------------------------------
        BYTE   W96
        BYTE   W24
// 033   ----------------------------------------
        BYTE   W96
        BYTE   W24
// 034   ----------------------------------------
        BYTE   W96
        BYTE   W24
// 035   ----------------------------------------
        BYTE   W96
        BYTE   W24
// 036   ----------------------------------------
        BYTE   W96
        BYTE   W24
// 037   ----------------------------------------
        BYTE   W72
        BYTE           TIE     En3
        BYTE   W08
        BYTE           VOL     26
        BYTE   W20
        BYTE                   25
        BYTE   W16
        BYTE                   24
        BYTE   W04
// 038   ----------------------------------------
        BYTE   W17
        BYTE                   23
        BYTE   W06
        BYTE                   22
        BYTE   W04
        BYTE                   21
        BYTE   W05
        BYTE                   20
        BYTE   W05
        BYTE                   19
        BYTE   W04
        BYTE                   18
        BYTE   W05
        BYTE                   17
        BYTE   W05
        BYTE                   16
        BYTE   W05
        BYTE                   15
        BYTE   W04
        BYTE                   14
        BYTE   W05
        BYTE                   13
        BYTE   W04
        BYTE                   15
        BYTE   W01
        BYTE           EOT
        BYTE           VOL     20
        BYTE   W01
        BYTE                   23
        BYTE   W01
        BYTE           TIE     Ds3
        BYTE           VOL     27
        BYTE   W09
        BYTE                   26
        BYTE   W20
        BYTE                   25
        BYTE   W15
        BYTE                   24
        BYTE   W04
// 039   ----------------------------------------
        BYTE   W17
        BYTE                   23
        BYTE   W09
        BYTE                   22
        BYTE   W04
        BYTE                   21
        BYTE   W05
        BYTE                   20
        BYTE   W06
        BYTE                   19
        BYTE   W04
        BYTE                   18
        BYTE   W05
        BYTE                   17
        BYTE   W05
        BYTE                   16
        BYTE   W05
        BYTE                   15
        BYTE   W04
        BYTE                   14
        BYTE   W06
        BYTE           EOT
        BYTE           VOL     19
        BYTE   W01
        BYTE                   23
        BYTE   W01
        BYTE           TIE     En3
        BYTE           VOL     27
        BYTE   W08
        BYTE                   26
        BYTE   W18
        BYTE                   25
        BYTE   W15
        BYTE                   24
        BYTE   W07
// 040   ----------------------------------------
        BYTE   W12
        BYTE                   23
        BYTE   W08
        BYTE                   22
        BYTE   W04
        BYTE                   21
        BYTE   W06
        BYTE                   20
        BYTE   W06
        BYTE                   19
        BYTE   W04
        BYTE                   18
        BYTE   W06
        BYTE                   17
        BYTE   W06
        BYTE                   16
        BYTE   W05
        BYTE                   15
        BYTE   W05
        BYTE                   14
        BYTE   W06
        BYTE                   13
        BYTE   W02
        BYTE           EOT
        BYTE           VOL     17
        BYTE   W01
        BYTE                   22
        BYTE   W01
        BYTE           TIE     Ds3
        BYTE           VOL     27
        BYTE   W09
        BYTE                   26
        BYTE   W19
        BYTE                   25
        BYTE   W15
        BYTE                   24
        BYTE   W05
// 041   ----------------------------------------
        BYTE   W14
        BYTE                   23
        BYTE   W07
        BYTE                   22
        BYTE   W04
        BYTE                   21
        BYTE   W06
        BYTE                   20
        BYTE   W06
        BYTE                   19
        BYTE   W04
        BYTE                   18
        BYTE   W06
        BYTE                   17
        BYTE   W06
        BYTE                   16
        BYTE   W06
        BYTE                   15
        BYTE   W04
        BYTE                   14
        BYTE   W07
        BYTE           EOT
        BYTE           VOL     19
        BYTE   W01
        BYTE                   22
        BYTE   W01
        BYTE           TIE     En3
        BYTE           VOL     27
        BYTE   W04
        BYTE                   26
        BYTE   W20
        BYTE                   25
        BYTE   W16
        BYTE                   24
        BYTE   W08
// 042   ----------------------------------------
        BYTE   W12
        BYTE                   23
        BYTE   W05
        BYTE                   22
        BYTE   W05
        BYTE                   21
        BYTE   W06
        BYTE                   20
        BYTE   W06
        BYTE                   19
        BYTE   W05
        BYTE                   18
        BYTE   W06
        BYTE                   17
        BYTE   W07
        BYTE                   16
        BYTE   W06
        BYTE                   15
        BYTE   W05
        BYTE                   14
        BYTE   W07
        BYTE           EOT
        BYTE           VOL     17
        BYTE   W01
        BYTE                   22
        BYTE   W01
        BYTE           TIE     Ds3
        BYTE           VOL     27
        BYTE   W08
        BYTE                   26
        BYTE   W19
        BYTE                   25
        BYTE   W15
        BYTE                   24
        BYTE   W06
// 043   ----------------------------------------
        BYTE   W13
        BYTE                   23
        BYTE   W07
        BYTE                   22
        BYTE   W04
        BYTE                   21
        BYTE   W05
        BYTE                   20
        BYTE   W05
        BYTE                   19
        BYTE   W04
        BYTE                   18
        BYTE   W06
        BYTE                   17
        BYTE   W05
        BYTE                   16
        BYTE   W05
        BYTE                   15
        BYTE   W04
        BYTE                   14
        BYTE   W05
        BYTE                   13
        BYTE   W07
        BYTE           EOT
        BYTE           VOL     17
        BYTE   W01
        BYTE                   21
        BYTE   W01
        BYTE           TIE     En3
        BYTE           VOL     27
        BYTE   W04
        BYTE                   26
        BYTE   W20
        BYTE                   25
        BYTE   W16
        BYTE                   24
        BYTE   W08
// 044   ----------------------------------------
        BYTE   W11
        BYTE                   23
        BYTE   W07
        BYTE                   22
        BYTE   W04
        BYTE                   21
        BYTE   W06
        BYTE                   20
        BYTE   W05
        BYTE                   19
        BYTE   W05
        BYTE                   18
        BYTE   W06
        BYTE                   17
        BYTE   W05
        BYTE                   16
        BYTE   W06
        BYTE                   15
        BYTE   W04
        BYTE                   14
        BYTE   W06
        BYTE                   13
        BYTE   W05
        BYTE           EOT
        BYTE           VOL     15
        BYTE   W01
        BYTE                   20
        BYTE   W01
        BYTE           TIE     Ds3
        BYTE           VOL     27
        BYTE   W09
        BYTE                   26
        BYTE   W19
        BYTE                   25
        BYTE   W16
        BYTE                   24
        BYTE   W04
// 045   ----------------------------------------
        BYTE   W16
        BYTE                   23
        BYTE   W08
        BYTE                   22
        BYTE   W03
        BYTE                   21
        BYTE   W06
        BYTE                   20
        BYTE   W05
        BYTE                   19
        BYTE   W05
        BYTE                   18
        BYTE   W06
        BYTE                   17
        BYTE   W05
        BYTE                   16
        BYTE   W06
        BYTE                   15
        BYTE   W04
        BYTE                   14
        BYTE   W06
        BYTE           EOT
        BYTE           VOL     17
        BYTE   W01
        BYTE                   23
        BYTE   W01
        BYTE                   27
        BYTE   W48
// 046   ----------------------------------------
        BYTE   W96
        BYTE   W24
// 047   ----------------------------------------
        BYTE   W96
        BYTE   W24
// 048   ----------------------------------------
        BYTE   W96
        BYTE   W24
// 049   ----------------------------------------
        BYTE   W96
        BYTE   W24
// 050   ----------------------------------------
        BYTE   W96
        BYTE   W24
// 051   ----------------------------------------
        BYTE   W96
        BYTE   W24
// 052   ----------------------------------------
        BYTE   W96
        BYTE   W24
// 053   ----------------------------------------
        BYTE   W96
        BYTE   W24
// 054   ----------------------------------------
        BYTE   W96
        BYTE   W24
// 055   ----------------------------------------
        BYTE   W96
        BYTE   W24
// 056   ----------------------------------------
        BYTE   W96
        BYTE   W24
// 057   ----------------------------------------
        BYTE   W96
        BYTE   W24
// 058   ----------------------------------------
        BYTE   W96
        BYTE   W24
// 059   ----------------------------------------
        BYTE   W24
        BYTE           TIE     En3
        BYTE   W08
        BYTE           VOL     26
        BYTE   W20
        BYTE                   25
        BYTE   W16
        BYTE                   24
        BYTE   W21
        BYTE                   23
        BYTE   W06
        BYTE                   22
        BYTE   W04
        BYTE                   21
        BYTE   W05
        BYTE                   20
        BYTE   W05
        BYTE                   19
        BYTE   W04
        BYTE                   18
        BYTE   W05
        BYTE                   17
        BYTE   W02
// 060   ----------------------------------------
        BYTE   W03
        BYTE                   16
        BYTE   W05
        BYTE                   15
        BYTE   W04
        BYTE                   14
        BYTE   W05
        BYTE                   13
        BYTE   W04
        BYTE                   15
        BYTE   W01
        BYTE           EOT
        BYTE           VOL     20
        BYTE   W01
        BYTE                   23
        BYTE   W01
        BYTE           TIE     Ds3   v092
        BYTE           VOL     27
        BYTE   W09
        BYTE                   26
        BYTE   W20
        BYTE                   25
        BYTE   W15
        BYTE                   24
        BYTE   W21
        BYTE                   23
        BYTE   W09
        BYTE                   22
        BYTE   W04
        BYTE                   21
        BYTE   W05
        BYTE                   20
        BYTE   W06
        BYTE                   19
        BYTE   W04
        BYTE                   18
        BYTE   W03
// 061   ----------------------------------------
        BYTE   W02
        BYTE                   17
        BYTE   W05
        BYTE                   16
        BYTE   W05
        BYTE                   15
        BYTE   W04
        BYTE                   14
        BYTE   W06
        BYTE           EOT
        BYTE           VOL     19
        BYTE   W01
        BYTE                   23
        BYTE   W01
        BYTE           TIE     En3   v083
        BYTE           VOL     27
        BYTE   W08
        BYTE                   26
        BYTE   W18
        BYTE                   25
        BYTE   W15
        BYTE                   24
        BYTE   W19
        BYTE                   23
        BYTE   W08
        BYTE                   22
        BYTE   W04
        BYTE                   21
        BYTE   W06
        BYTE                   20
        BYTE   W06
        BYTE                   19
        BYTE   W04
        BYTE                   18
        BYTE   W06
        BYTE                   17
        BYTE   W02
// 062   ----------------------------------------
        BYTE   W04
        BYTE                   16
        BYTE   W05
        BYTE                   15
        BYTE   W05
        BYTE                   14
        BYTE   W06
        BYTE                   13
        BYTE   W02
        BYTE           EOT
        BYTE           VOL     17
        BYTE   W01
        BYTE                   22
        BYTE   W01
        BYTE           TIE     Ds3   v075
        BYTE           VOL     27
        BYTE   W09
        BYTE                   26
        BYTE   W19
        BYTE                   25
        BYTE   W15
        BYTE                   24
        BYTE   W19
        BYTE                   23
        BYTE   W07
        BYTE                   22
        BYTE   W04
        BYTE                   21
        BYTE   W06
        BYTE                   20
        BYTE   W06
        BYTE                   19
        BYTE   W04
        BYTE                   18
        BYTE   W06
        BYTE                   17
        BYTE   W01
// 063   ----------------------------------------
        BYTE   W05
        BYTE                   16
        BYTE   W06
        BYTE                   15
        BYTE   W04
        BYTE                   14
        BYTE   W07
        BYTE           EOT
        BYTE           VOL     19
        BYTE   W01
        BYTE                   22
        BYTE   W01
        BYTE           TIE     En3   v066
        BYTE           VOL     27
        BYTE   W04
        BYTE                   26
        BYTE   W20
        BYTE                   25
        BYTE   W16
        BYTE                   24
        BYTE   W20
        BYTE                   23
        BYTE   W05
        BYTE                   22
        BYTE   W05
        BYTE                   21
        BYTE   W06
        BYTE                   20
        BYTE   W06
        BYTE                   19
        BYTE   W05
        BYTE                   18
        BYTE   W06
        BYTE                   17
        BYTE   W03
// 064   ----------------------------------------
        BYTE   W04
        BYTE                   16
        BYTE   W06
        BYTE                   15
        BYTE   W05
        BYTE                   14
        BYTE   W07
        BYTE           EOT
        BYTE           VOL     17
        BYTE   W01
        BYTE                   22
        BYTE   W01
        BYTE           TIE     Ds3   v058
        BYTE           VOL     27
        BYTE   W08
        BYTE                   26
        BYTE   W19
        BYTE                   25
        BYTE   W15
        BYTE                   24
        BYTE   W19
        BYTE                   23
        BYTE   W07
        BYTE                   22
        BYTE   W04
        BYTE                   21
        BYTE   W05
        BYTE                   20
        BYTE   W05
        BYTE                   19
        BYTE   W04
        BYTE                   18
        BYTE   W06
        BYTE                   17
        BYTE   W04
// 065   ----------------------------------------
        BYTE   W01
        BYTE                   16
        BYTE   W05
        BYTE                   15
        BYTE   W04
        BYTE                   14
        BYTE   W05
        BYTE                   13
        BYTE   W07
        BYTE           EOT
        BYTE           VOL     17
        BYTE   W01
        BYTE                   21
        BYTE   W01
        BYTE           TIE     En3   v048
        BYTE           VOL     27
        BYTE   W04
        BYTE                   26
        BYTE   W20
        BYTE                   25
        BYTE   W16
        BYTE                   24
        BYTE   W19
        BYTE                   23
        BYTE   W07
        BYTE                   22
        BYTE   W04
        BYTE                   21
        BYTE   W06
        BYTE                   20
        BYTE   W05
        BYTE                   19
        BYTE   W05
        BYTE                   18
        BYTE   W06
        BYTE                   17
        BYTE   W04
// 066   ----------------------------------------
        BYTE   W01
        BYTE                   16
        BYTE   W06
        BYTE                   15
        BYTE   W04
        BYTE                   14
        BYTE   W06
        BYTE                   13
        BYTE   W05
        BYTE           EOT
        BYTE           VOL     15
        BYTE   W01
        BYTE                   20
        BYTE   W01
        BYTE           TIE     Ds3   v032
        BYTE           VOL     27
        BYTE   W09
        BYTE                   26
        BYTE   W19
        BYTE                   25
        BYTE   W16
        BYTE                   24
        BYTE   W20
        BYTE                   23
        BYTE   W08
        BYTE                   22
        BYTE   W03
        BYTE                   21
        BYTE   W06
        BYTE                   20
        BYTE   W05
        BYTE                   19
        BYTE   W05
        BYTE                   18
        BYTE   W05
// 067   ----------------------------------------
        BYTE   W01
        BYTE                   17
        BYTE   W05
        BYTE                   16
        BYTE   W06
        BYTE                   15
        BYTE   W04
        BYTE                   14
        BYTE   W06
        BYTE           EOT
        BYTE           VOL     17
        BYTE   W01
        BYTE                   23
        BYTE   W01
        BYTE                   27
        BYTE   FINE

//****************** Track 4 (Midi-Chn.4) ******************//

shadowsOfIllusion_4:
        BYTE   KEYSH   shadowsOfIllusion_key+0
// 000   ----------------------------------------
shadowsOfIllusion_4_LOOP:
        BYTE           VOICE   19
        BYTE           VOL     36
        BYTE           PAN     c_v-33
        BYTE   W96
        BYTE   W12
// 001   ----------------------------------------
        BYTE   W96
// 002   ----------------------------------------
        BYTE   W96
        BYTE   W12
// 003   ----------------------------------------
        BYTE   W96
// 004   ----------------------------------------
shadowsOfIllusion_4_4:
        BYTE           N04     En3   v100
        BYTE   W06
        BYTE                   An2
        BYTE   W06
        BYTE                   En2
        BYTE   W06
        BYTE                   Dn3
        BYTE   W06
        BYTE                   An2
        BYTE   W06
        BYTE                   Dn2
        BYTE   W06
        BYTE                   En3
        BYTE   W06
        BYTE                   An2
        BYTE   W06
        BYTE                   En2
        BYTE   W06
        BYTE                   Dn3
        BYTE   W06
        BYTE                   An2
        BYTE   W06
        BYTE                   En2
        BYTE   W06
        BYTE                   En3
        BYTE   W06
        BYTE                   An2
        BYTE   W06
        BYTE                   Fn3
        BYTE   W06
        BYTE                   An2
        BYTE   W06
        BYTE                   Gn3
        BYTE   W06
        BYTE                   An2
        BYTE   W06
        BYTE   PEND
// 005   ----------------------------------------
shadowsOfIllusion_4_5:
        BYTE           N04     En3   v100
        BYTE   W06
        BYTE                   An2
        BYTE   W06
        BYTE                   En2
        BYTE   W06
        BYTE                   Dn3
        BYTE   W06
        BYTE                   An2
        BYTE   W06
        BYTE                   Dn2
        BYTE   W06
        BYTE                   En3
        BYTE   W06
        BYTE                   An2
        BYTE   W06
        BYTE                   En2
        BYTE   W06
        BYTE                   Dn3
        BYTE   W06
        BYTE                   An2
        BYTE   W06
        BYTE                   Dn2
        BYTE   W06
        BYTE                   Gn3
        BYTE   W06
        BYTE                   En2
        BYTE   W06
        BYTE                   Bn2
        BYTE   W06
        BYTE                   En2
        BYTE   W06
        BYTE   PEND
// 006   ----------------------------------------
shadowsOfIllusion_4_6:
        BYTE           N04     Dn3   v100
        BYTE   W06
        BYTE                   An2
        BYTE   W06
        BYTE                   Dn2
        BYTE   W06
        BYTE                   Cn3
        BYTE   W06
        BYTE                   An2
        BYTE   W06
        BYTE                   Dn2
        BYTE   W06
        BYTE                   Dn3
        BYTE   W06
        BYTE                   An2
        BYTE   W06
        BYTE                   Dn2
        BYTE   W06
        BYTE                   En3
        BYTE   W06
        BYTE                   An2
        BYTE   W06
        BYTE                   Dn2
        BYTE   W06
        BYTE                   Cn3
        BYTE   W06
        BYTE                   En2
        BYTE   W06
        BYTE                   Bn2
        BYTE   W06
        BYTE                   En2
        BYTE   W06
        BYTE                   Cn3
        BYTE   W06
        BYTE                   Dn3
        BYTE   W06
        BYTE   PEND
// 007   ----------------------------------------
shadowsOfIllusion_4_7:
        BYTE           N04     Cn3   v100
        BYTE   W06
        BYTE                   Fn2
        BYTE   W06
        BYTE                   Cn3
        BYTE   W06
        BYTE                   Bn2
        BYTE   W06
        BYTE                   En2
        BYTE   W06
        BYTE                   Bn2
        BYTE   W06
        BYTE                   Cn3
        BYTE   W06
        BYTE                   Cn2
        BYTE   W06
        BYTE                   Fn2
        BYTE   W06
        BYTE                   Dn3
        BYTE   W06
        BYTE                   Dn2
        BYTE   W06
        BYTE                   Gn2
        BYTE   W06
        BYTE                   En3
        BYTE   W06
        BYTE                   En2
        BYTE   W06
        BYTE                   Bn2
        BYTE   W06
        BYTE                   Fn2
        BYTE   W06
        BYTE   PEND
// 008   ----------------------------------------
        BYTE   PATT
         POIN2  shadowsOfIllusion_4_4
// 009   ----------------------------------------
        BYTE   PATT
         POIN2  shadowsOfIllusion_4_5
// 010   ----------------------------------------
        BYTE   PATT
         POIN2  shadowsOfIllusion_4_6
// 011   ----------------------------------------
        BYTE   PATT
         POIN2  shadowsOfIllusion_4_7
// 012   ----------------------------------------
        BYTE   W96
        BYTE   W12
// 013   ----------------------------------------
        BYTE   W92
        BYTE   W02
        BYTE           PAN     c_v+1
        BYTE   W02
// 014   ----------------------------------------
        BYTE   W96
        BYTE   W12
// 015   ----------------------------------------
        BYTE   W72
        BYTE           N03     En2   v063
        BYTE   W03
        BYTE                   Fn2   v067
        BYTE   W03
        BYTE                   Gn2   v072
        BYTE   W03
        BYTE                   An2   v076
        BYTE   W03
        BYTE                   As2   v081
        BYTE   W03
        BYTE                   Cn3   v086
        BYTE   W03
        BYTE                   Dn3   v090
        BYTE   W03
        BYTE                   Ds3   v095
        BYTE   W03
// 016   ----------------------------------------
        BYTE           N16     Ds3   v099
        BYTE   W18
        BYTE           N40     En3   v100
        BYTE   W42
        BYTE           N04     An2
        BYTE   W06
        BYTE                   En3
        BYTE   W06
        BYTE                   Ds3
        BYTE   W06
        BYTE                   An3
        BYTE   W06
        BYTE                   Ds3
        BYTE   W06
        BYTE                   En3
        BYTE   W06
        BYTE                   Bn2
        BYTE   W06
        BYTE                   Cn3
        BYTE   W06
        BYTE                   Gs2
        BYTE   W06
        BYTE                   An2
        BYTE   W06
// 017   ----------------------------------------
shadowsOfIllusion_4_17:
        BYTE           N16     Dn3   v100
        BYTE   W18
        BYTE           N40     Ds3
        BYTE   W42
        BYTE           N04     Ds2
        BYTE   W06
        BYTE                   As2
        BYTE   W06
        BYTE                   An2
        BYTE   W06
        BYTE                   Ds3
        BYTE   W06
        BYTE                   An3
        BYTE   W06
        BYTE                   As3
        BYTE   W06
        BYTE                   Ds2
        BYTE   W06
        BYTE                   An2
        BYTE   W06
        BYTE                   As2
        BYTE   W06
        BYTE                   Ds3
        BYTE   W06
        BYTE   PEND
// 018   ----------------------------------------
shadowsOfIllusion_4_18:
        BYTE           N16     Ds3   v100
        BYTE   W18
        BYTE           N40     En3
        BYTE   W42
        BYTE           N04     An2
        BYTE   W06
        BYTE                   En3
        BYTE   W06
        BYTE                   Ds3
        BYTE   W06
        BYTE                   An3
        BYTE   W06
        BYTE                   Ds3
        BYTE   W06
        BYTE                   En3
        BYTE   W06
        BYTE                   Bn2
        BYTE   W06
        BYTE                   Cn3
        BYTE   W06
        BYTE                   Gs2
        BYTE   W06
        BYTE                   An2
        BYTE   W06
        BYTE   PEND
// 019   ----------------------------------------
        BYTE   PATT
         POIN2  shadowsOfIllusion_4_17
// 020   ----------------------------------------
        BYTE   PATT
         POIN2  shadowsOfIllusion_4_18
// 021   ----------------------------------------
        BYTE   PATT
         POIN2  shadowsOfIllusion_4_17
// 022   ----------------------------------------
        BYTE   PATT
         POIN2  shadowsOfIllusion_4_18
// 023   ----------------------------------------
        BYTE   PATT
         POIN2  shadowsOfIllusion_4_17
// 024   ----------------------------------------
        BYTE           PAN     c_v-33
        BYTE   GoTo
         POIN2  shadowsOfIllusion_4_LOOP
        BYTE   W96
        BYTE   W24
// 025   ----------------------------------------
        BYTE   W96
        BYTE   W24
// 026   ----------------------------------------
        BYTE   W96
        BYTE   W24
// 027   ----------------------------------------
        BYTE   W48
        BYTE           N04     En3   v100
        BYTE   W06
        BYTE                   An2
        BYTE   W06
        BYTE                   En2
        BYTE   W06
        BYTE                   Dn3
        BYTE   W06
        BYTE                   An2
        BYTE   W06
        BYTE                   Dn2
        BYTE   W06
        BYTE                   En3
        BYTE   W06
        BYTE                   An2
        BYTE   W06
        BYTE                   En2
        BYTE   W06
        BYTE                   Dn3
        BYTE   W06
        BYTE                   An2
        BYTE   W06
        BYTE                   En2
        BYTE   W06
// 028   ----------------------------------------
shadowsOfIllusion_4_28:
        BYTE           N04     En3   v100
        BYTE   W06
        BYTE                   An2
        BYTE   W06
        BYTE                   Fn3
        BYTE   W06
        BYTE                   An2
        BYTE   W06
        BYTE                   Gn3
        BYTE   W06
        BYTE                   An2
        BYTE   W06
        BYTE                   En3
        BYTE   W06
        BYTE                   An2
        BYTE   W06
        BYTE                   En2
        BYTE   W06
        BYTE                   Dn3
        BYTE   W06
        BYTE                   An2
        BYTE   W06
        BYTE                   Dn2
        BYTE   W06
        BYTE                   En3
        BYTE   W06
        BYTE                   An2
        BYTE   W06
        BYTE                   En2
        BYTE   W06
        BYTE                   Dn3
        BYTE   W06
        BYTE                   An2
        BYTE   W06
        BYTE                   Dn2
        BYTE   W06
        BYTE                   Gn3
        BYTE   W06
        BYTE                   En2
        BYTE   W06
        BYTE   PEND
// 029   ----------------------------------------
shadowsOfIllusion_4_29:
        BYTE           N04     Bn2   v100
        BYTE   W06
        BYTE                   En2
        BYTE   W06
        BYTE                   Dn3
        BYTE   W06
        BYTE                   An2
        BYTE   W06
        BYTE                   Dn2
        BYTE   W06
        BYTE                   Cn3
        BYTE   W06
        BYTE                   An2
        BYTE   W06
        BYTE                   Dn2
        BYTE   W06
        BYTE                   Dn3
        BYTE   W06
        BYTE                   An2
        BYTE   W06
        BYTE                   Dn2
        BYTE   W06
        BYTE                   En3
        BYTE   W06
        BYTE                   An2
        BYTE   W06
        BYTE                   Dn2
        BYTE   W06
        BYTE                   Cn3
        BYTE   W06
        BYTE                   En2
        BYTE   W06
        BYTE                   Bn2
        BYTE   W06
        BYTE                   En2
        BYTE   W06
        BYTE                   Cn3
        BYTE   W06
        BYTE                   Dn3
        BYTE   W06
        BYTE   PEND
// 030   ----------------------------------------
        BYTE                   Cn3
        BYTE   W06
        BYTE                   Fn2
        BYTE   W06
        BYTE                   Cn3
        BYTE   W06
        BYTE                   Bn2
        BYTE   W06
        BYTE                   En2
        BYTE   W06
        BYTE                   Bn2
        BYTE   W06
        BYTE                   Cn3
        BYTE   W06
        BYTE                   Cn2
        BYTE   W06
        BYTE                   Fn2
        BYTE   W06
        BYTE                   Dn3
        BYTE   W06
        BYTE                   Dn2
        BYTE   W06
        BYTE                   Gn2
        BYTE   W06
        BYTE                   En3
        BYTE   W06
        BYTE                   En2
        BYTE   W06
        BYTE                   Bn2
        BYTE   W06
        BYTE                   Fn2
        BYTE   W06
        BYTE                   En3
        BYTE   W06
        BYTE                   An2
        BYTE   W06
        BYTE                   En2
        BYTE   W06
        BYTE                   Dn3
        BYTE   W06
// 031   ----------------------------------------
        BYTE                   An2
        BYTE   W06
        BYTE                   Dn2
        BYTE   W06
        BYTE                   En3
        BYTE   W06
        BYTE                   An2
        BYTE   W06
        BYTE                   En2
        BYTE   W06
        BYTE                   Dn3
        BYTE   W06
        BYTE                   An2
        BYTE   W06
        BYTE                   En2
        BYTE   W06
        BYTE                   En3
        BYTE   W06
        BYTE                   An2
        BYTE   W06
        BYTE                   Fn3
        BYTE   W06
        BYTE                   An2
        BYTE   W06
        BYTE                   Gn3
        BYTE   W06
        BYTE                   An2
        BYTE   W06
        BYTE                   En3
        BYTE   W06
        BYTE                   An2
        BYTE   W06
        BYTE                   En2
        BYTE   W06
        BYTE                   Dn3
        BYTE   W06
        BYTE                   An2
        BYTE   W06
        BYTE                   Dn2
        BYTE   W06
// 032   ----------------------------------------
        BYTE                   En3
        BYTE   W06
        BYTE                   An2
        BYTE   W06
        BYTE                   En2
        BYTE   W06
        BYTE                   Dn3
        BYTE   W06
        BYTE                   An2
        BYTE   W06
        BYTE                   Dn2
        BYTE   W06
        BYTE                   Gn3
        BYTE   W06
        BYTE                   En2
        BYTE   W06
        BYTE                   Bn2
        BYTE   W06
        BYTE                   En2
        BYTE   W06
        BYTE                   Dn3
        BYTE   W06
        BYTE                   An2
        BYTE   W06
        BYTE                   Dn2
        BYTE   W06
        BYTE                   Cn3
        BYTE   W06
        BYTE                   An2
        BYTE   W06
        BYTE                   Dn2
        BYTE   W06
        BYTE                   Dn3
        BYTE   W06
        BYTE                   An2
        BYTE   W06
        BYTE                   Dn2
        BYTE   W06
        BYTE                   En3
        BYTE   W06
// 033   ----------------------------------------
        BYTE                   An2
        BYTE   W06
        BYTE                   Dn2
        BYTE   W06
        BYTE                   Cn3
        BYTE   W06
        BYTE                   En2
        BYTE   W06
        BYTE                   Bn2
        BYTE   W06
        BYTE                   En2
        BYTE   W06
        BYTE                   Cn3
        BYTE   W06
        BYTE                   Dn3
        BYTE   W06
        BYTE                   Cn3
        BYTE   W06
        BYTE                   Fn2
        BYTE   W06
        BYTE                   Cn3
        BYTE   W06
        BYTE                   Bn2
        BYTE   W06
        BYTE                   En2
        BYTE   W06
        BYTE                   Bn2
        BYTE   W06
        BYTE                   Cn3
        BYTE   W06
        BYTE                   Cn2
        BYTE   W06
        BYTE                   Fn2
        BYTE   W06
        BYTE                   Dn3
        BYTE   W06
        BYTE                   Dn2
        BYTE   W06
        BYTE                   Gn2
        BYTE   W06
// 034   ----------------------------------------
        BYTE                   En3
        BYTE   W06
        BYTE                   En2
        BYTE   W06
        BYTE                   Bn2
        BYTE   W06
        BYTE                   Fn2
        BYTE   W96
        BYTE   W06
// 035   ----------------------------------------
        BYTE   W96
        BYTE   W10
        BYTE           PAN     c_v+1
        BYTE   W14
// 036   ----------------------------------------
        BYTE   W96
        BYTE   W24
// 037   ----------------------------------------
        BYTE   W48
        BYTE           N03     En2   v063
        BYTE   W03
        BYTE                   Fn2   v067
        BYTE   W03
        BYTE                   Gn2   v072
        BYTE   W03
        BYTE                   An2   v076
        BYTE   W03
        BYTE                   As2   v081
        BYTE   W03
        BYTE                   Cn3   v086
        BYTE   W03
        BYTE                   Dn3   v090
        BYTE   W03
        BYTE                   Ds3   v095
        BYTE   W03
        BYTE           N16     Ds3   v099
        BYTE   W18
        BYTE           N40     En3   v100
        BYTE   W30
// 038   ----------------------------------------
shadowsOfIllusion_4_38:
        BYTE   W12
        BYTE           N04     An2   v100
        BYTE   W06
        BYTE                   En3
        BYTE   W06
        BYTE                   Ds3
        BYTE   W06
        BYTE                   An3
        BYTE   W06
        BYTE                   Ds3
        BYTE   W06
        BYTE                   En3
        BYTE   W06
        BYTE                   Bn2
        BYTE   W06
        BYTE                   Cn3
        BYTE   W06
        BYTE                   Gs2
        BYTE   W06
        BYTE                   An2
        BYTE   W06
        BYTE           N16     Dn3
        BYTE   W18
        BYTE           N40     Ds3
        BYTE   W30
        BYTE   PEND
// 039   ----------------------------------------
shadowsOfIllusion_4_39:
        BYTE   W12
        BYTE           N04     Ds2   v100
        BYTE   W06
        BYTE                   As2
        BYTE   W06
        BYTE                   An2
        BYTE   W06
        BYTE                   Ds3
        BYTE   W06
        BYTE                   An3
        BYTE   W06
        BYTE                   As3
        BYTE   W06
        BYTE                   Ds2
        BYTE   W06
        BYTE                   An2
        BYTE   W06
        BYTE                   As2
        BYTE   W06
        BYTE                   Ds3
        BYTE   W06
        BYTE           N16
        BYTE   W18
        BYTE           N40     En3
        BYTE   W30
        BYTE   PEND
// 040   ----------------------------------------
        BYTE   PATT
         POIN2  shadowsOfIllusion_4_38
// 041   ----------------------------------------
        BYTE   PATT
         POIN2  shadowsOfIllusion_4_39
// 042   ----------------------------------------
        BYTE   PATT
         POIN2  shadowsOfIllusion_4_38
// 043   ----------------------------------------
        BYTE   PATT
         POIN2  shadowsOfIllusion_4_39
// 044   ----------------------------------------
        BYTE   PATT
         POIN2  shadowsOfIllusion_4_38
// 045   ----------------------------------------
        BYTE   W12
        BYTE           N04     Ds2   v100
        BYTE   W06
        BYTE                   As2
        BYTE   W06
        BYTE                   An2
        BYTE   W06
        BYTE                   Ds3
        BYTE   W06
        BYTE                   An3
        BYTE   W06
        BYTE                   As3
        BYTE   W06
        BYTE                   Ds2
        BYTE   W06
        BYTE                   An2
        BYTE   W06
        BYTE                   As2
        BYTE   W06
        BYTE                   Ds3
        BYTE   W06
        BYTE           PAN     c_v-33
        BYTE   W48
// 046   ----------------------------------------
        BYTE   W96
        BYTE   W24
// 047   ----------------------------------------
        BYTE   W96
        BYTE   W24
// 048   ----------------------------------------
        BYTE   W96
        BYTE   W24
// 049   ----------------------------------------
        BYTE           N04     En3
        BYTE   W06
        BYTE                   An2
        BYTE   W06
        BYTE                   En2
        BYTE   W06
        BYTE                   Dn3
        BYTE   W06
        BYTE                   An2
        BYTE   W06
        BYTE                   Dn2
        BYTE   W06
        BYTE                   En3
        BYTE   W06
        BYTE                   An2
        BYTE   W06
        BYTE                   En2
        BYTE   W06
        BYTE                   Dn3
        BYTE   W06
        BYTE                   An2
        BYTE   W06
        BYTE                   En2
        BYTE   W06
        BYTE                   En3
        BYTE   W06
        BYTE                   An2
        BYTE   W06
        BYTE                   Fn3
        BYTE   W06
        BYTE                   An2
        BYTE   W06
        BYTE                   Gn3
        BYTE   W06
        BYTE                   An2
        BYTE   W06
        BYTE                   En3
        BYTE   W06
        BYTE                   An2
        BYTE   W06
// 050   ----------------------------------------
        BYTE                   En2
        BYTE   W06
        BYTE                   Dn3
        BYTE   W06
        BYTE                   An2
        BYTE   W06
        BYTE                   Dn2
        BYTE   W06
        BYTE                   En3
        BYTE   W06
        BYTE                   An2
        BYTE   W06
        BYTE                   En2
        BYTE   W06
        BYTE                   Dn3
        BYTE   W06
        BYTE                   An2
        BYTE   W06
        BYTE                   Dn2
        BYTE   W06
        BYTE                   Gn3
        BYTE   W06
        BYTE                   En2
        BYTE   W06
        BYTE                   Bn2
        BYTE   W06
        BYTE                   En2
        BYTE   W06
        BYTE                   Dn3
        BYTE   W06
        BYTE                   An2
        BYTE   W06
        BYTE                   Dn2
        BYTE   W06
        BYTE                   Cn3
        BYTE   W06
        BYTE                   An2
        BYTE   W06
        BYTE                   Dn2
        BYTE   W06
// 051   ----------------------------------------
        BYTE                   Dn3
        BYTE   W06
        BYTE                   An2
        BYTE   W06
        BYTE                   Dn2
        BYTE   W06
        BYTE                   En3
        BYTE   W06
        BYTE                   An2
        BYTE   W06
        BYTE                   Dn2
        BYTE   W06
        BYTE                   Cn3
        BYTE   W06
        BYTE                   En2
        BYTE   W06
        BYTE                   Bn2
        BYTE   W06
        BYTE                   En2
        BYTE   W06
        BYTE                   Cn3
        BYTE   W06
        BYTE                   Dn3
        BYTE   W06
        BYTE                   Cn3
        BYTE   W06
        BYTE                   Fn2
        BYTE   W06
        BYTE                   Cn3
        BYTE   W06
        BYTE                   Bn2
        BYTE   W06
        BYTE                   En2
        BYTE   W06
        BYTE                   Bn2
        BYTE   W06
        BYTE                   Cn3
        BYTE   W06
        BYTE                   Cn2
        BYTE   W06
// 052   ----------------------------------------
        BYTE                   Fn2
        BYTE   W06
        BYTE                   Dn3
        BYTE   W06
        BYTE                   Dn2
        BYTE   W06
        BYTE                   Gn2
        BYTE   W06
        BYTE                   En3
        BYTE   W06
        BYTE                   En2
        BYTE   W06
        BYTE                   Bn2
        BYTE   W06
        BYTE                   Fn2
        BYTE   W06
        BYTE                   En3
        BYTE   W06
        BYTE                   An2
        BYTE   W06
        BYTE                   En2
        BYTE   W06
        BYTE                   Dn3
        BYTE   W06
        BYTE                   An2
        BYTE   W06
        BYTE                   Dn2
        BYTE   W06
        BYTE                   En3
        BYTE   W06
        BYTE                   An2
        BYTE   W06
        BYTE                   En2
        BYTE   W06
        BYTE                   Dn3
        BYTE   W06
        BYTE                   An2
        BYTE   W06
        BYTE                   En2
        BYTE   W06
// 053   ----------------------------------------
        BYTE   PATT
         POIN2  shadowsOfIllusion_4_28
// 054   ----------------------------------------
        BYTE   PATT
         POIN2  shadowsOfIllusion_4_29
// 055   ----------------------------------------
        BYTE           N04     Cn3   v100
        BYTE   W06
        BYTE                   Fn2
        BYTE   W06
        BYTE                   Cn3
        BYTE   W06
        BYTE                   Bn2
        BYTE   W06
        BYTE                   En2
        BYTE   W06
        BYTE                   Bn2
        BYTE   W06
        BYTE                   Cn3
        BYTE   W06
        BYTE                   Cn2
        BYTE   W06
        BYTE                   Fn2
        BYTE   W06
        BYTE                   Dn3
        BYTE   W06
        BYTE                   Dn2
        BYTE   W06
        BYTE                   Gn2
        BYTE   W06
        BYTE                   En3
        BYTE   W06
        BYTE                   En2
        BYTE   W06
        BYTE                   Bn2
        BYTE   W06
        BYTE                   Fn2
        BYTE   W30
// 056   ----------------------------------------
        BYTE   W96
        BYTE   W24
// 057   ----------------------------------------
        BYTE   W56
        BYTE   W02
        BYTE           PAN     c_v+1
        BYTE   W60
        BYTE   W02
// 058   ----------------------------------------
        BYTE   W96
        BYTE   W24
// 059   ----------------------------------------
        BYTE           N03     En2   v063
        BYTE   W03
        BYTE                   Fn2   v067
        BYTE   W03
        BYTE                   Gn2   v072
        BYTE   W03
        BYTE                   An2   v076
        BYTE   W03
        BYTE                   As2   v081
        BYTE   W03
        BYTE                   Cn3   v086
        BYTE   W03
        BYTE                   Dn3   v090
        BYTE   W03
        BYTE                   Ds3   v095
        BYTE   W03
        BYTE           N16     Ds3   v100
        BYTE   W18
        BYTE           N40     En3   v099
        BYTE   W42
        BYTE           N04     An2   v096
        BYTE   W06
        BYTE                   En3
        BYTE   W06
        BYTE                   Ds3   v095
        BYTE   W06
        BYTE                   An3
        BYTE   W06
        BYTE                   Ds3
        BYTE   W06
        BYTE                   En3   v094
        BYTE   W06
// 060   ----------------------------------------
        BYTE                   Bn2
        BYTE   W06
        BYTE                   Cn3   v093
        BYTE   W06
        BYTE                   Gs2
        BYTE   W06
        BYTE                   An2   v092
        BYTE   W06
        BYTE           N16     Dn3
        BYTE   W18
        BYTE           N40     Ds3   v091
        BYTE   W42
        BYTE           N04     Ds2   v088
        BYTE   W06
        BYTE                   As2   v087
        BYTE   W06
        BYTE                   An2
        BYTE   W06
        BYTE                   Ds3   v086
        BYTE   W06
        BYTE                   An3
        BYTE   W06
        BYTE                   As3
        BYTE   W06
// 061   ----------------------------------------
        BYTE                   Ds2   v085
        BYTE   W06
        BYTE                   An2
        BYTE   W06
        BYTE                   As2   v084
        BYTE   W06
        BYTE                   Ds3
        BYTE   W06
        BYTE           N16     Ds3   v083
        BYTE   W18
        BYTE           N40     En3   v082
        BYTE   W42
        BYTE           N04     An2   v079
        BYTE   W06
        BYTE                   En3
        BYTE   W06
        BYTE                   Ds3   v078
        BYTE   W06
        BYTE                   An3
        BYTE   W06
        BYTE                   Ds3
        BYTE   W06
        BYTE                   En3   v077
        BYTE   W06
// 062   ----------------------------------------
        BYTE                   Bn2
        BYTE   W06
        BYTE                   Cn3   v076
        BYTE   W06
        BYTE                   Gs2
        BYTE   W06
        BYTE                   An2   v075
        BYTE   W06
        BYTE           N16     Dn3
        BYTE   W18
        BYTE           N40     Ds3   v074
        BYTE   W42
        BYTE           N04     Ds2   v071
        BYTE   W06
        BYTE                   As2   v070
        BYTE   W06
        BYTE                   An2
        BYTE   W06
        BYTE                   Ds3   v069
        BYTE   W06
        BYTE                   An3
        BYTE   W06
        BYTE                   As3
        BYTE   W06
// 063   ----------------------------------------
        BYTE                   Ds2   v068
        BYTE   W06
        BYTE                   An2
        BYTE   W06
        BYTE                   As2   v067
        BYTE   W06
        BYTE                   Ds3
        BYTE   W06
        BYTE           N16     Ds3   v066
        BYTE   W18
        BYTE           N40     En3   v065
        BYTE   W42
        BYTE           N04     An2   v062
        BYTE   W06
        BYTE                   En3
        BYTE   W06
        BYTE                   Ds3   v061
        BYTE   W06
        BYTE                   An3
        BYTE   W06
        BYTE                   Ds3
        BYTE   W06
        BYTE                   En3   v060
        BYTE   W06
// 064   ----------------------------------------
        BYTE                   Bn2
        BYTE   W06
        BYTE                   Cn3   v059
        BYTE   W06
        BYTE                   Gs2
        BYTE   W06
        BYTE                   An2   v058
        BYTE   W06
        BYTE           N16     Dn3
        BYTE   W18
        BYTE           N40     Ds3   v057
        BYTE   W42
        BYTE           N04     Ds2   v054
        BYTE   W06
        BYTE                   As2   v053
        BYTE   W06
        BYTE                   An2
        BYTE   W06
        BYTE                   Ds3   v052
        BYTE   W06
        BYTE                   An3
        BYTE   W06
        BYTE                   As3
        BYTE   W06
// 065   ----------------------------------------
        BYTE                   Ds2   v051
        BYTE   W06
        BYTE                   An2
        BYTE   W06
        BYTE                   As2   v050
        BYTE   W06
        BYTE                   Ds3
        BYTE   W06
        BYTE           N16     Ds3   v048
        BYTE   W18
        BYTE           N40     En3   v046
        BYTE   W42
        BYTE           N04     An2   v040
        BYTE   W06
        BYTE                   En3
        BYTE   W06
        BYTE                   Ds3   v039
        BYTE   W06
        BYTE                   An3   v038
        BYTE   W06
        BYTE                   Ds3   v037
        BYTE   W06
        BYTE                   En3   v036
        BYTE   W06
// 066   ----------------------------------------
        BYTE                   Bn2
        BYTE   W06
        BYTE                   Cn3   v035
        BYTE   W06
        BYTE                   Gs2   v034
        BYTE   W06
        BYTE                   An2   v033
        BYTE   W06
        BYTE           N16     Dn3   v032
        BYTE   W18
        BYTE           N40     Ds3   v030
        BYTE   W42
        BYTE           N04     Ds2   v024
        BYTE   W06
        BYTE                   As2
        BYTE   W06
        BYTE                   An2   v023
        BYTE   W06
        BYTE                   Ds3   v022
        BYTE   W06
        BYTE                   An3   v021
        BYTE   W06
        BYTE                   As3   v020
        BYTE   W06
// 067   ----------------------------------------
        BYTE                   Ds2
        BYTE   W06
        BYTE                   An2   v019
        BYTE   W06
        BYTE                   As2   v018
        BYTE   W06
        BYTE                   Ds3   v017
        BYTE   W06
        BYTE   FINE

//****************** Track 5 (Midi-Chn.5) ******************//

shadowsOfIllusion_5:
        BYTE   KEYSH   shadowsOfIllusion_key+0
// 000   ----------------------------------------
shadowsOfIllusion_5_LOOP:
        BYTE           VOICE   39
        BYTE           VOL     34
        BYTE           PAN     c_v+32
        BYTE   W96
        BYTE   W12
// 001   ----------------------------------------
        BYTE   W96
// 002   ----------------------------------------
        BYTE   W96
        BYTE   W12
// 003   ----------------------------------------
        BYTE   W96
// 004   ----------------------------------------
        BYTE   W96
        BYTE   W12
// 005   ----------------------------------------
        BYTE   W96
// 006   ----------------------------------------
        BYTE   W96
        BYTE   W12
// 007   ----------------------------------------
        BYTE   W96
// 008   ----------------------------------------
        BYTE   W96
        BYTE   W12
// 009   ----------------------------------------
        BYTE   W96
// 010   ----------------------------------------
        BYTE   W96
        BYTE   W12
// 011   ----------------------------------------
        BYTE   W92
        BYTE   W03
        BYTE                   c_v+31
        BYTE   W01
// 012   ----------------------------------------
        BYTE           TIE     An0   v100
        BYTE   W96
        BYTE   W12
// 013   ----------------------------------------
        BYTE   W96
// 014   ----------------------------------------
        BYTE   W96
        BYTE   W12
// 015   ----------------------------------------
        BYTE   W92
        BYTE   W02
        BYTE           EOT
        BYTE   W02
// 016   ----------------------------------------
        BYTE   W96
        BYTE   W24
// 017   ----------------------------------------
        BYTE   W96
        BYTE   W24
// 018   ----------------------------------------
        BYTE   W96
        BYTE   W24
// 019   ----------------------------------------
        BYTE   W96
        BYTE   W24
// 020   ----------------------------------------
        BYTE   W96
        BYTE   W24
// 021   ----------------------------------------
        BYTE   W96
        BYTE   W24
// 022   ----------------------------------------
        BYTE   W96
        BYTE   W24
// 023   ----------------------------------------
        BYTE   W96
        BYTE   W23
        BYTE           PAN     c_v-33
        BYTE   W01
// 024   ----------------------------------------
        BYTE           TIE
        BYTE           PAN     c_v+32
        BYTE   GoTo
         POIN2  shadowsOfIllusion_5_LOOP
        BYTE   W96
        BYTE   W24
// 025   ----------------------------------------
        BYTE   W96
        BYTE   W24
// 026   ----------------------------------------
        BYTE   W96
        BYTE   W24
// 027   ----------------------------------------
        BYTE   W44
        BYTE   W02
        BYTE           EOT
        BYTE   W72
        BYTE   W02
// 028   ----------------------------------------
        BYTE   W96
        BYTE   W24
// 029   ----------------------------------------
        BYTE   W96
        BYTE   W24
// 030   ----------------------------------------
        BYTE   W96
        BYTE   W24
// 031   ----------------------------------------
        BYTE   W96
        BYTE   W24
// 032   ----------------------------------------
        BYTE   W96
        BYTE   W24
// 033   ----------------------------------------
        BYTE   W96
        BYTE   W24
// 034   ----------------------------------------
        BYTE   W24
        BYTE           TIE
        BYTE   W96
// 035   ----------------------------------------
        BYTE   W96
        BYTE   W24
// 036   ----------------------------------------
        BYTE   W96
        BYTE   W24
// 037   ----------------------------------------
        BYTE   W68
        BYTE   W02
        BYTE           EOT
        BYTE   W48
        BYTE   W02
// 038   ----------------------------------------
        BYTE   W96
        BYTE   W24
// 039   ----------------------------------------
        BYTE   W96
        BYTE   W24
// 040   ----------------------------------------
        BYTE   W96
        BYTE   W24
// 041   ----------------------------------------
        BYTE   W96
        BYTE   W24
// 042   ----------------------------------------
        BYTE   W96
        BYTE   W24
// 043   ----------------------------------------
        BYTE   W96
        BYTE   W24
// 044   ----------------------------------------
        BYTE   W96
        BYTE   W24
// 045   ----------------------------------------
        BYTE   W72
        BYTE           TIE
        BYTE   W48
// 046   ----------------------------------------
        BYTE   W96
        BYTE   W24
// 047   ----------------------------------------
        BYTE   W96
        BYTE   W24
// 048   ----------------------------------------
        BYTE   W96
        BYTE   W22
        BYTE           EOT
        BYTE   W02
// 049   ----------------------------------------
        BYTE   W96
        BYTE   W24
// 050   ----------------------------------------
        BYTE   W96
        BYTE   W24
// 051   ----------------------------------------
        BYTE   W96
        BYTE   W24
// 052   ----------------------------------------
        BYTE   W96
        BYTE   W24
// 053   ----------------------------------------
        BYTE   W96
        BYTE   W24
// 054   ----------------------------------------
        BYTE   W96
        BYTE   W24
// 055   ----------------------------------------
        BYTE   W96
        BYTE           TIE
        BYTE   W24
// 056   ----------------------------------------
        BYTE   W96
        BYTE   W24
// 057   ----------------------------------------
        BYTE   W96
        BYTE   W24
// 058   ----------------------------------------
        BYTE   W96
        BYTE   W24
// 059   ----------------------------------------
        BYTE   W22
        BYTE           EOT
        BYTE   W96
        BYTE   W02
// 060   ----------------------------------------
        BYTE   W96
        BYTE   W24
// 061   ----------------------------------------
        BYTE   W96
        BYTE   W24
// 062   ----------------------------------------
        BYTE   W96
        BYTE   W24
// 063   ----------------------------------------
        BYTE   W96
        BYTE   W24
// 064   ----------------------------------------
        BYTE   W96
        BYTE   W24
// 065   ----------------------------------------
        BYTE   W96
        BYTE   W24
// 066   ----------------------------------------
        BYTE   W96
        BYTE   W24
// 067   ----------------------------------------
        BYTE   W24
        BYTE   FINE

//****************** Track 6 (Midi-Chn.6) ******************//

shadowsOfIllusion_6:
        BYTE   KEYSH   shadowsOfIllusion_key+0
// 000   ----------------------------------------
shadowsOfIllusion_6_LOOP:
        BYTE           VOICE   85
        BYTE           VOL     30
        BYTE           PAN     c_v-4
        BYTE           MOD     4
        BYTE   W96
        BYTE   W12
// 001   ----------------------------------------
        BYTE   W96
// 002   ----------------------------------------
        BYTE   W96
        BYTE   W12
// 003   ----------------------------------------
        BYTE   W96
// 004   ----------------------------------------
        BYTE   W96
        BYTE   W12
// 005   ----------------------------------------
        BYTE   W96
// 006   ----------------------------------------
        BYTE   W96
        BYTE   W12
// 007   ----------------------------------------
        BYTE   W96
// 008   ----------------------------------------
        BYTE   W96
        BYTE   W12
// 009   ----------------------------------------
        BYTE   W96
// 010   ----------------------------------------
        BYTE   W96
        BYTE   W12
// 011   ----------------------------------------
        BYTE   W96
// 012   ----------------------------------------
        BYTE   W96
        BYTE   W12
// 013   ----------------------------------------
        BYTE   W96
// 014   ----------------------------------------
        BYTE   W96
        BYTE   W12
// 015   ----------------------------------------
        BYTE   W92
        BYTE   W01
        BYTE           VOL     23
        BYTE   W01
        BYTE                   26
        BYTE   W01
        BYTE                   30
        BYTE   W01
// 016   ----------------------------------------
        BYTE           TIE     An2   v100
        BYTE   W08
        BYTE           VOL     29
        BYTE   W16
        BYTE                   28
        BYTE   W16
        BYTE                   27
        BYTE   W16
        BYTE                   26
        BYTE   W13
        BYTE                   25
        BYTE   W04
        BYTE                   24
        BYTE   W04
        BYTE                   23
        BYTE   W04
        BYTE                   22
        BYTE   W04
        BYTE                   21
        BYTE   W05
        BYTE                   20
        BYTE   W04
        BYTE                   19
        BYTE   W03
        BYTE                   18
        BYTE   W05
        BYTE                   17
        BYTE   W05
        BYTE                   16
        BYTE   W03
        BYTE                   15
        BYTE   W07
        BYTE           EOT
        BYTE           VOL     18
        BYTE   W01
        BYTE                   22
        BYTE   W01
        BYTE                   27
        BYTE   W01
// 017   ----------------------------------------
        BYTE           TIE     As2
        BYTE           VOL     30
        BYTE   W08
        BYTE                   29
        BYTE   W16
        BYTE                   28
        BYTE   W16
        BYTE                   27
        BYTE   W16
        BYTE                   26
        BYTE   W16
        BYTE                   25
        BYTE   W04
        BYTE                   24
        BYTE   W04
        BYTE                   23
        BYTE   W04
        BYTE                   22
        BYTE   W04
        BYTE                   21
        BYTE   W05
        BYTE                   20
        BYTE   W04
        BYTE                   19
        BYTE   W05
        BYTE                   18
        BYTE   W04
        BYTE                   17
        BYTE   W05
        BYTE                   16
        BYTE   W04
        BYTE                   15
        BYTE   W02
        BYTE           EOT
        BYTE           VOL     17
        BYTE   W01
        BYTE                   21
        BYTE   W01
        BYTE                   27
        BYTE   W01
// 018   ----------------------------------------
        BYTE           TIE     An2
        BYTE           VOL     30
        BYTE   W07
        BYTE                   29
        BYTE   W16
        BYTE                   28
        BYTE   W15
        BYTE                   27
        BYTE   W15
        BYTE                   26
        BYTE   W12
        BYTE                   25
        BYTE   W05
        BYTE                   24
        BYTE   W05
        BYTE                   23
        BYTE   W04
        BYTE                   22
        BYTE   W05
        BYTE                   21
        BYTE   W05
        BYTE                   20
        BYTE   W05
        BYTE                   19
        BYTE   W04
        BYTE                   18
        BYTE   W05
        BYTE                   17
        BYTE   W06
        BYTE                   16
        BYTE   W04
        BYTE                   15
        BYTE   W04
        BYTE           EOT
        BYTE   W01
        BYTE           VOL     19
        BYTE   W01
        BYTE                   26
        BYTE   W01
// 019   ----------------------------------------
        BYTE           TIE     As2
        BYTE           VOL     30
        BYTE   W08
        BYTE                   29
        BYTE   W16
        BYTE                   28
        BYTE   W15
        BYTE                   27
        BYTE   W16
        BYTE                   26
        BYTE   W11
        BYTE                   25
        BYTE   W05
        BYTE                   24
        BYTE   W04
        BYTE                   23
        BYTE   W05
        BYTE                   22
        BYTE   W05
        BYTE                   21
        BYTE   W05
        BYTE                   20
        BYTE   W05
        BYTE                   19
        BYTE   W05
        BYTE                   18
        BYTE   W04
        BYTE                   17
        BYTE   W06
        BYTE                   16
        BYTE   W05
        BYTE                   15
        BYTE   W02
        BYTE           EOT
        BYTE           VOL     17
        BYTE   W01
        BYTE                   21
        BYTE   W01
        BYTE                   26
        BYTE   W01
// 020   ----------------------------------------
        BYTE           TIE     An2
        BYTE           VOL     30
        BYTE   W04
        BYTE                   29
        BYTE   W16
        BYTE                   28
        BYTE   W16
        BYTE                   27
        BYTE   W16
        BYTE                   26
        BYTE   W13
        BYTE                   25
        BYTE   W02
        BYTE                   24
        BYTE   W05
        BYTE                   23
        BYTE   W05
        BYTE                   22
        BYTE   W05
        BYTE                   21
        BYTE   W06
        BYTE                   20
        BYTE   W05
        BYTE                   19
        BYTE   W05
        BYTE                   18
        BYTE   W05
        BYTE                   17
        BYTE   W07
        BYTE                   16
        BYTE   W05
        BYTE                   15
        BYTE   W02
        BYTE           EOT
        BYTE   W01
        BYTE           VOL     19
        BYTE   W01
        BYTE                   26
        BYTE   W01
// 021   ----------------------------------------
        BYTE           TIE     As2
        BYTE           VOL     30
        BYTE   W08
        BYTE                   29
        BYTE   W15
        BYTE                   28
        BYTE   W16
        BYTE                   27
        BYTE   W14
        BYTE                   26
        BYTE   W12
        BYTE                   25
        BYTE   W05
        BYTE                   24
        BYTE   W04
        BYTE                   23
        BYTE   W04
        BYTE                   22
        BYTE   W04
        BYTE                   21
        BYTE   W05
        BYTE                   20
        BYTE   W04
        BYTE                   19
        BYTE   W05
        BYTE                   18
        BYTE   W04
        BYTE                   17
        BYTE   W05
        BYTE                   16
        BYTE   W04
        BYTE                   15
        BYTE   W04
        BYTE                   14
        BYTE   W04
        BYTE           EOT
        BYTE           VOL     15
        BYTE   W01
        BYTE                   19
        BYTE   W01
        BYTE                   25
        BYTE   W01
// 022   ----------------------------------------
        BYTE           TIE     An2
        BYTE           VOL     30
        BYTE   W04
        BYTE                   29
        BYTE   W16
        BYTE                   28
        BYTE   W16
        BYTE                   27
        BYTE   W16
        BYTE                   26
        BYTE   W13
        BYTE                   25
        BYTE   W03
        BYTE                   24
        BYTE   W04
        BYTE                   23
        BYTE   W05
        BYTE                   22
        BYTE   W04
        BYTE                   21
        BYTE   W06
        BYTE                   20
        BYTE   W04
        BYTE                   19
        BYTE   W05
        BYTE                   18
        BYTE   W04
        BYTE                   17
        BYTE   W06
        BYTE                   16
        BYTE   W04
        BYTE                   15
        BYTE   W07
        BYTE           EOT
        BYTE   W01
        BYTE           VOL     17
        BYTE   W01
        BYTE                   24
        BYTE   W01
// 023   ----------------------------------------
        BYTE           TIE     As2
        BYTE           VOL     30
        BYTE   W08
        BYTE                   29
        BYTE   W16
        BYTE                   28
        BYTE   W16
        BYTE                   27
        BYTE   W16
        BYTE                   26
        BYTE   W16
        BYTE                   25
        BYTE   W01
        BYTE                   24
        BYTE   W04
        BYTE                   23
        BYTE   W05
        BYTE                   22
        BYTE   W04
        BYTE                   21
        BYTE   W06
        BYTE                   20
        BYTE   W04
        BYTE                   19
        BYTE   W05
        BYTE                   18
        BYTE   W04
        BYTE                   17
        BYTE   W06
        BYTE                   16
        BYTE   W04
        BYTE                   15
        BYTE   W02
        BYTE           EOT
        BYTE   W01
        BYTE           VOL     20
        BYTE   W01
        BYTE                   27
        BYTE   W01
// 024   ----------------------------------------
        BYTE                   30
        BYTE   GoTo
         POIN2  shadowsOfIllusion_6_LOOP
        BYTE   W96
        BYTE   W24
// 025   ----------------------------------------
        BYTE   W96
        BYTE   W24
// 026   ----------------------------------------
        BYTE   W96
        BYTE   W24
// 027   ----------------------------------------
        BYTE   W96
        BYTE   W24
// 028   ----------------------------------------
        BYTE   W96
        BYTE   W24
// 029   ----------------------------------------
        BYTE   W96
        BYTE   W24
// 030   ----------------------------------------
        BYTE   W96
        BYTE   W24
// 031   ----------------------------------------
        BYTE   W96
        BYTE   W24
// 032   ----------------------------------------
        BYTE   W96
        BYTE   W24
// 033   ----------------------------------------
        BYTE   W96
        BYTE   W24
// 034   ----------------------------------------
        BYTE   W96
        BYTE   W24
// 035   ----------------------------------------
        BYTE   W96
        BYTE   W24
// 036   ----------------------------------------
        BYTE   W96
        BYTE   W24
// 037   ----------------------------------------
        BYTE   W68
        BYTE   W01
        BYTE                   23
        BYTE   W01
        BYTE                   26
        BYTE   W01
        BYTE                   30
        BYTE   W01
        BYTE           TIE     An2
        BYTE   W08
        BYTE           VOL     29
        BYTE   W16
        BYTE                   28
        BYTE   W16
        BYTE                   27
        BYTE   W08
// 038   ----------------------------------------
        BYTE   W08
        BYTE                   26
        BYTE   W13
        BYTE                   25
        BYTE   W04
        BYTE                   24
        BYTE   W04
        BYTE                   23
        BYTE   W04
        BYTE                   22
        BYTE   W04
        BYTE                   21
        BYTE   W05
        BYTE                   20
        BYTE   W04
        BYTE                   19
        BYTE   W03
        BYTE                   18
        BYTE   W05
        BYTE                   17
        BYTE   W05
        BYTE                   16
        BYTE   W03
        BYTE                   15
        BYTE   W07
        BYTE           EOT
        BYTE           VOL     18
        BYTE   W01
        BYTE                   22
        BYTE   W01
        BYTE                   27
        BYTE   W01
        BYTE           TIE     As2
        BYTE           VOL     30
        BYTE   W08
        BYTE                   29
        BYTE   W16
        BYTE                   28
        BYTE   W16
        BYTE                   27
        BYTE   W08
// 039   ----------------------------------------
        BYTE   W08
        BYTE                   26
        BYTE   W16
        BYTE                   25
        BYTE   W04
        BYTE                   24
        BYTE   W04
        BYTE                   23
        BYTE   W04
        BYTE                   22
        BYTE   W04
        BYTE                   21
        BYTE   W05
        BYTE                   20
        BYTE   W04
        BYTE                   19
        BYTE   W05
        BYTE                   18
        BYTE   W04
        BYTE                   17
        BYTE   W05
        BYTE                   16
        BYTE   W04
        BYTE                   15
        BYTE   W02
        BYTE           EOT
        BYTE           VOL     17
        BYTE   W01
        BYTE                   21
        BYTE   W01
        BYTE                   27
        BYTE   W01
        BYTE           TIE     An2
        BYTE           VOL     30
        BYTE   W07
        BYTE                   29
        BYTE   W16
        BYTE                   28
        BYTE   W15
        BYTE                   27
        BYTE   W10
// 040   ----------------------------------------
        BYTE   W05
        BYTE                   26
        BYTE   W12
        BYTE                   25
        BYTE   W05
        BYTE                   24
        BYTE   W05
        BYTE                   23
        BYTE   W04
        BYTE                   22
        BYTE   W05
        BYTE                   21
        BYTE   W05
        BYTE                   20
        BYTE   W05
        BYTE                   19
        BYTE   W04
        BYTE                   18
        BYTE   W05
        BYTE                   17
        BYTE   W06
        BYTE                   16
        BYTE   W04
        BYTE                   15
        BYTE   W04
        BYTE           EOT
        BYTE   W01
        BYTE           VOL     19
        BYTE   W01
        BYTE                   26
        BYTE   W01
        BYTE           TIE     As2
        BYTE           VOL     30
        BYTE   W08
        BYTE                   29
        BYTE   W16
        BYTE                   28
        BYTE   W15
        BYTE                   27
        BYTE   W09
// 041   ----------------------------------------
        BYTE   W07
        BYTE                   26
        BYTE   W11
        BYTE                   25
        BYTE   W05
        BYTE                   24
        BYTE   W04
        BYTE                   23
        BYTE   W05
        BYTE                   22
        BYTE   W05
        BYTE                   21
        BYTE   W05
        BYTE                   20
        BYTE   W05
        BYTE                   19
        BYTE   W05
        BYTE                   18
        BYTE   W04
        BYTE                   17
        BYTE   W06
        BYTE                   16
        BYTE   W05
        BYTE                   15
        BYTE   W02
        BYTE           EOT
        BYTE           VOL     17
        BYTE   W01
        BYTE                   21
        BYTE   W01
        BYTE                   26
        BYTE   W01
        BYTE           TIE     An2
        BYTE           VOL     30
        BYTE   W04
        BYTE                   29
        BYTE   W16
        BYTE                   28
        BYTE   W16
        BYTE                   27
        BYTE   W12
// 042   ----------------------------------------
        BYTE   W04
        BYTE                   26
        BYTE   W13
        BYTE                   25
        BYTE   W02
        BYTE                   24
        BYTE   W05
        BYTE                   23
        BYTE   W05
        BYTE                   22
        BYTE   W05
        BYTE                   21
        BYTE   W06
        BYTE                   20
        BYTE   W05
        BYTE                   19
        BYTE   W05
        BYTE                   18
        BYTE   W05
        BYTE                   17
        BYTE   W07
        BYTE                   16
        BYTE   W05
        BYTE                   15
        BYTE   W02
        BYTE           EOT
        BYTE   W01
        BYTE           VOL     19
        BYTE   W01
        BYTE                   26
        BYTE   W01
        BYTE           TIE     As2
        BYTE           VOL     30
        BYTE   W08
        BYTE                   29
        BYTE   W15
        BYTE                   28
        BYTE   W16
        BYTE                   27
        BYTE   W09
// 043   ----------------------------------------
        BYTE   W05
        BYTE                   26
        BYTE   W12
        BYTE                   25
        BYTE   W05
        BYTE                   24
        BYTE   W04
        BYTE                   23
        BYTE   W04
        BYTE                   22
        BYTE   W04
        BYTE                   21
        BYTE   W05
        BYTE                   20
        BYTE   W04
        BYTE                   19
        BYTE   W05
        BYTE                   18
        BYTE   W04
        BYTE                   17
        BYTE   W05
        BYTE                   16
        BYTE   W04
        BYTE                   15
        BYTE   W04
        BYTE                   14
        BYTE   W04
        BYTE           EOT
        BYTE           VOL     15
        BYTE   W01
        BYTE                   19
        BYTE   W01
        BYTE                   25
        BYTE   W01
        BYTE           TIE     An2
        BYTE           VOL     30
        BYTE   W04
        BYTE                   29
        BYTE   W16
        BYTE                   28
        BYTE   W16
        BYTE                   27
        BYTE   W12
// 044   ----------------------------------------
        BYTE   W04
        BYTE                   26
        BYTE   W13
        BYTE                   25
        BYTE   W03
        BYTE                   24
        BYTE   W04
        BYTE                   23
        BYTE   W05
        BYTE                   22
        BYTE   W04
        BYTE                   21
        BYTE   W06
        BYTE                   20
        BYTE   W04
        BYTE                   19
        BYTE   W05
        BYTE                   18
        BYTE   W04
        BYTE                   17
        BYTE   W06
        BYTE                   16
        BYTE   W04
        BYTE                   15
        BYTE   W07
        BYTE           EOT
        BYTE   W01
        BYTE           VOL     17
        BYTE   W01
        BYTE                   24
        BYTE   W01
        BYTE           TIE     As2
        BYTE           VOL     30
        BYTE   W08
        BYTE                   29
        BYTE   W16
        BYTE                   28
        BYTE   W16
        BYTE                   27
        BYTE   W08
// 045   ----------------------------------------
        BYTE   W08
        BYTE                   26
        BYTE   W16
        BYTE                   25
        BYTE   W01
        BYTE                   24
        BYTE   W04
        BYTE                   23
        BYTE   W05
        BYTE                   22
        BYTE   W04
        BYTE                   21
        BYTE   W06
        BYTE                   20
        BYTE   W04
        BYTE                   19
        BYTE   W05
        BYTE                   18
        BYTE   W04
        BYTE                   17
        BYTE   W06
        BYTE                   16
        BYTE   W04
        BYTE                   15
        BYTE   W02
        BYTE           EOT
        BYTE   W01
        BYTE           VOL     20
        BYTE   W01
        BYTE                   27
        BYTE   W01
        BYTE                   30
        BYTE   W48
// 046   ----------------------------------------
        BYTE   W96
        BYTE   W24
// 047   ----------------------------------------
        BYTE   W96
        BYTE   W24
// 048   ----------------------------------------
        BYTE   W96
        BYTE   W24
// 049   ----------------------------------------
        BYTE   W96
        BYTE   W24
// 050   ----------------------------------------
        BYTE   W96
        BYTE   W24
// 051   ----------------------------------------
        BYTE   W96
        BYTE   W24
// 052   ----------------------------------------
        BYTE   W96
        BYTE   W24
// 053   ----------------------------------------
        BYTE   W96
        BYTE   W24
// 054   ----------------------------------------
        BYTE   W96
        BYTE   W24
// 055   ----------------------------------------
        BYTE   W96
        BYTE   W24
// 056   ----------------------------------------
        BYTE   W96
        BYTE   W24
// 057   ----------------------------------------
        BYTE   W96
        BYTE   W24
// 058   ----------------------------------------
        BYTE   W96
        BYTE   W24
// 059   ----------------------------------------
        BYTE   W21
        BYTE                   23
        BYTE   W01
        BYTE                   26
        BYTE   W01
        BYTE                   30
        BYTE   W01
        BYTE           TIE     An2
        BYTE   W08
        BYTE           VOL     29
        BYTE   W16
        BYTE                   28
        BYTE   W16
        BYTE                   27
        BYTE   W16
        BYTE                   26
        BYTE   W13
        BYTE                   25
        BYTE   W04
        BYTE                   24
        BYTE   W04
        BYTE                   23
        BYTE   W04
        BYTE                   22
        BYTE   W04
        BYTE                   21
        BYTE   W05
        BYTE                   20
        BYTE   W04
        BYTE                   19
        BYTE   W02
// 060   ----------------------------------------
        BYTE   W01
        BYTE                   18
        BYTE   W05
        BYTE                   17
        BYTE   W05
        BYTE                   16
        BYTE   W03
        BYTE                   15
        BYTE   W07
        BYTE           EOT
        BYTE           VOL     18
        BYTE   W01
        BYTE                   22
        BYTE   W01
        BYTE                   27
        BYTE   W01
        BYTE           TIE     As2   v092
        BYTE           VOL     30
        BYTE   W08
        BYTE                   29
        BYTE   W16
        BYTE                   28
        BYTE   W16
        BYTE                   27
        BYTE   W16
        BYTE                   26
        BYTE   W16
        BYTE                   25
        BYTE   W04
        BYTE                   24
        BYTE   W04
        BYTE                   23
        BYTE   W04
        BYTE                   22
        BYTE   W04
        BYTE                   21
        BYTE   W05
        BYTE                   20
        BYTE   W03
// 061   ----------------------------------------
        BYTE   W01
        BYTE                   19
        BYTE   W05
        BYTE                   18
        BYTE   W04
        BYTE                   17
        BYTE   W05
        BYTE                   16
        BYTE   W04
        BYTE                   15
        BYTE   W02
        BYTE           EOT
        BYTE           VOL     17
        BYTE   W01
        BYTE                   21
        BYTE   W01
        BYTE                   27
        BYTE   W01
        BYTE           TIE     An2   v083
        BYTE           VOL     30
        BYTE   W07
        BYTE                   29
        BYTE   W16
        BYTE                   28
        BYTE   W15
        BYTE                   27
        BYTE   W15
        BYTE                   26
        BYTE   W12
        BYTE                   25
        BYTE   W05
        BYTE                   24
        BYTE   W05
        BYTE                   23
        BYTE   W04
        BYTE                   22
        BYTE   W05
        BYTE                   21
        BYTE   W05
        BYTE                   20
        BYTE   W05
        BYTE                   19
        BYTE   W02
// 062   ----------------------------------------
        BYTE   W02
        BYTE                   18
        BYTE   W05
        BYTE                   17
        BYTE   W06
        BYTE                   16
        BYTE   W04
        BYTE                   15
        BYTE   W04
        BYTE           EOT
        BYTE   W01
        BYTE           VOL     19
        BYTE   W01
        BYTE                   26
        BYTE   W01
        BYTE           TIE     As2   v075
        BYTE           VOL     30
        BYTE   W08
        BYTE                   29
        BYTE   W16
        BYTE                   28
        BYTE   W15
        BYTE                   27
        BYTE   W16
        BYTE                   26
        BYTE   W11
        BYTE                   25
        BYTE   W05
        BYTE                   24
        BYTE   W04
        BYTE                   23
        BYTE   W05
        BYTE                   22
        BYTE   W05
        BYTE                   21
        BYTE   W05
        BYTE                   20
        BYTE   W05
        BYTE                   19
        BYTE   W01
// 063   ----------------------------------------
        BYTE   W04
        BYTE                   18
        BYTE   W04
        BYTE                   17
        BYTE   W06
        BYTE                   16
        BYTE   W05
        BYTE                   15
        BYTE   W02
        BYTE           EOT
        BYTE           VOL     17
        BYTE   W01
        BYTE                   21
        BYTE   W01
        BYTE                   26
        BYTE   W01
        BYTE           TIE     An2   v066
        BYTE           VOL     30
        BYTE   W04
        BYTE                   29
        BYTE   W16
        BYTE                   28
        BYTE   W16
        BYTE                   27
        BYTE   W16
        BYTE                   26
        BYTE   W13
        BYTE                   25
        BYTE   W02
        BYTE                   24
        BYTE   W05
        BYTE                   23
        BYTE   W05
        BYTE                   22
        BYTE   W05
        BYTE                   21
        BYTE   W06
        BYTE                   20
        BYTE   W05
        BYTE                   19
        BYTE   W03
// 064   ----------------------------------------
        BYTE   W02
        BYTE                   18
        BYTE   W05
        BYTE                   17
        BYTE   W07
        BYTE                   16
        BYTE   W05
        BYTE                   15
        BYTE   W02
        BYTE           EOT
        BYTE   W01
        BYTE           VOL     19
        BYTE   W01
        BYTE                   26
        BYTE   W01
        BYTE           TIE     As2   v058
        BYTE           VOL     30
        BYTE   W08
        BYTE                   29
        BYTE   W15
        BYTE                   28
        BYTE   W16
        BYTE                   27
        BYTE   W14
        BYTE                   26
        BYTE   W12
        BYTE                   25
        BYTE   W05
        BYTE                   24
        BYTE   W04
        BYTE                   23
        BYTE   W04
        BYTE                   22
        BYTE   W04
        BYTE                   21
        BYTE   W05
        BYTE                   20
        BYTE   W04
        BYTE                   19
        BYTE   W05
// 065   ----------------------------------------
        BYTE                   18
        BYTE   W04
        BYTE                   17
        BYTE   W05
        BYTE                   16
        BYTE   W04
        BYTE                   15
        BYTE   W04
        BYTE                   14
        BYTE   W04
        BYTE           EOT
        BYTE           VOL     15
        BYTE   W01
        BYTE                   19
        BYTE   W01
        BYTE                   25
        BYTE   W01
        BYTE           TIE     An2   v048
        BYTE           VOL     30
        BYTE   W04
        BYTE                   29
        BYTE   W16
        BYTE                   28
        BYTE   W16
        BYTE                   27
        BYTE   W16
        BYTE                   26
        BYTE   W13
        BYTE                   25
        BYTE   W03
        BYTE                   24
        BYTE   W04
        BYTE                   23
        BYTE   W05
        BYTE                   22
        BYTE   W04
        BYTE                   21
        BYTE   W06
        BYTE                   20
        BYTE   W04
        BYTE                   19
        BYTE   W05
// 066   ----------------------------------------
        BYTE                   18
        BYTE   W04
        BYTE                   17
        BYTE   W06
        BYTE                   16
        BYTE   W04
        BYTE                   15
        BYTE   W07
        BYTE           EOT
        BYTE   W01
        BYTE           VOL     17
        BYTE   W01
        BYTE                   24
        BYTE   W01
        BYTE           TIE     As2   v032
        BYTE           VOL     30
        BYTE   W08
        BYTE                   29
        BYTE   W16
        BYTE                   28
        BYTE   W16
        BYTE                   27
        BYTE   W16
        BYTE                   26
        BYTE   W16
        BYTE                   25
        BYTE   W01
        BYTE                   24
        BYTE   W04
        BYTE                   23
        BYTE   W05
        BYTE                   22
        BYTE   W04
        BYTE                   21
        BYTE   W06
        BYTE                   20
        BYTE   W04
// 067   ----------------------------------------
        BYTE                   19
        BYTE   W05
        BYTE                   18
        BYTE   W04
        BYTE                   17
        BYTE   W06
        BYTE                   16
        BYTE   W04
        BYTE                   15
        BYTE   W02
        BYTE           EOT
        BYTE   W01
        BYTE           VOL     20
        BYTE   W01
        BYTE                   27
        BYTE   W01
        BYTE                   30
        BYTE   FINE

//****************** Track 7 (Midi-Chn.7) ******************//

shadowsOfIllusion_7:
        BYTE   KEYSH   shadowsOfIllusion_key+0
// 000   ----------------------------------------
shadowsOfIllusion_7_LOOP:
        BYTE           VOICE   85
        BYTE           VOL     30
        BYTE           PAN     c_v+4
        BYTE           MOD     4
        BYTE   W96
        BYTE   W12
// 001   ----------------------------------------
        BYTE   W96
// 002   ----------------------------------------
        BYTE   W96
        BYTE   W12
// 003   ----------------------------------------
        BYTE   W96
// 004   ----------------------------------------
        BYTE   W96
        BYTE   W12
// 005   ----------------------------------------
        BYTE   W96
// 006   ----------------------------------------
        BYTE   W96
        BYTE   W12
// 007   ----------------------------------------
        BYTE   W96
// 008   ----------------------------------------
        BYTE   W96
        BYTE   W12
// 009   ----------------------------------------
        BYTE   W96
// 010   ----------------------------------------
        BYTE   W96
        BYTE   W12
// 011   ----------------------------------------
        BYTE   W96
// 012   ----------------------------------------
        BYTE   W96
        BYTE   W12
// 013   ----------------------------------------
        BYTE   W96
// 014   ----------------------------------------
        BYTE   W96
        BYTE   W12
// 015   ----------------------------------------
        BYTE   W96
// 016   ----------------------------------------
        BYTE           TIE     En3   v100
        BYTE   W08
        BYTE           VOL     29
        BYTE   W16
        BYTE                   28
        BYTE   W16
        BYTE                   27
        BYTE   W17
        BYTE                   26
        BYTE   W12
        BYTE                   25
        BYTE   W04
        BYTE                   24
        BYTE   W04
        BYTE                   23
        BYTE   W04
        BYTE                   22
        BYTE   W04
        BYTE                   21
        BYTE   W05
        BYTE                   20
        BYTE   W04
        BYTE                   19
        BYTE   W04
        BYTE                   18
        BYTE   W04
        BYTE                   17
        BYTE   W05
        BYTE                   16
        BYTE   W04
        BYTE                   15
        BYTE   W06
        BYTE                   17
        BYTE   W01
        BYTE           EOT
        BYTE           VOL     22
        BYTE   W01
        BYTE                   26
        BYTE   W01
// 017   ----------------------------------------
        BYTE           TIE     Ds3
        BYTE           VOL     30
        BYTE   W09
        BYTE                   29
        BYTE   W16
        BYTE                   28
        BYTE   W16
        BYTE                   27
        BYTE   W16
        BYTE                   26
        BYTE   W15
        BYTE                   25
        BYTE   W04
        BYTE                   24
        BYTE   W04
        BYTE                   23
        BYTE   W04
        BYTE                   22
        BYTE   W05
        BYTE                   21
        BYTE   W04
        BYTE                   20
        BYTE   W05
        BYTE                   19
        BYTE   W04
        BYTE                   18
        BYTE   W04
        BYTE                   17
        BYTE   W05
        BYTE                   16
        BYTE   W04
        BYTE                   15
        BYTE   W02
        BYTE                   16
        BYTE   W01
        BYTE           EOT
        BYTE           VOL     21
        BYTE   W01
        BYTE                   26
        BYTE   W01
// 018   ----------------------------------------
        BYTE           TIE     En3
        BYTE           VOL     30
        BYTE   W08
        BYTE                   29
        BYTE   W15
        BYTE                   28
        BYTE   W15
        BYTE                   27
        BYTE   W15
        BYTE                   26
        BYTE   W13
        BYTE                   25
        BYTE   W04
        BYTE                   24
        BYTE   W05
        BYTE                   23
        BYTE   W04
        BYTE                   22
        BYTE   W05
        BYTE                   21
        BYTE   W05
        BYTE                   20
        BYTE   W05
        BYTE                   19
        BYTE   W04
        BYTE                   18
        BYTE   W05
        BYTE                   17
        BYTE   W06
        BYTE                   16
        BYTE   W04
        BYTE                   15
        BYTE   W05
        BYTE           EOT
        BYTE           VOL     19
        BYTE   W01
        BYTE                   24
        BYTE   W01
// 019   ----------------------------------------
        BYTE           TIE     Ds3
        BYTE           VOL     30
        BYTE   W09
        BYTE                   29
        BYTE   W15
        BYTE                   28
        BYTE   W16
        BYTE                   27
        BYTE   W15
        BYTE                   26
        BYTE   W11
        BYTE                   25
        BYTE   W05
        BYTE                   24
        BYTE   W05
        BYTE                   23
        BYTE   W04
        BYTE                   22
        BYTE   W05
        BYTE                   21
        BYTE   W05
        BYTE                   20
        BYTE   W05
        BYTE                   19
        BYTE   W05
        BYTE                   18
        BYTE   W05
        BYTE                   17
        BYTE   W05
        BYTE                   16
        BYTE   W05
        BYTE                   15
        BYTE   W02
        BYTE                   16
        BYTE   W01
        BYTE           EOT
        BYTE           VOL     21
        BYTE   W01
        BYTE                   25
        BYTE   W01
// 020   ----------------------------------------
        BYTE           TIE     En3
        BYTE           VOL     30
        BYTE   W04
        BYTE                   29
        BYTE   W16
        BYTE                   28
        BYTE   W16
        BYTE                   27
        BYTE   W16
        BYTE                   26
        BYTE   W13
        BYTE                   25
        BYTE   W03
        BYTE                   24
        BYTE   W05
        BYTE                   23
        BYTE   W04
        BYTE                   22
        BYTE   W05
        BYTE                   21
        BYTE   W07
        BYTE                   20
        BYTE   W04
        BYTE                   19
        BYTE   W05
        BYTE                   18
        BYTE   W05
        BYTE                   17
        BYTE   W07
        BYTE                   16
        BYTE   W05
        BYTE                   15
        BYTE   W03
        BYTE           EOT
        BYTE           VOL     19
        BYTE   W01
        BYTE                   25
        BYTE   W01
// 021   ----------------------------------------
        BYTE           TIE     Ds3
        BYTE           VOL     30
        BYTE   W08
        BYTE                   29
        BYTE   W16
        BYTE                   28
        BYTE   W15
        BYTE                   27
        BYTE   W15
        BYTE                   26
        BYTE   W12
        BYTE                   25
        BYTE   W04
        BYTE                   24
        BYTE   W04
        BYTE                   23
        BYTE   W04
        BYTE                   22
        BYTE   W04
        BYTE                   21
        BYTE   W05
        BYTE                   20
        BYTE   W05
        BYTE                   19
        BYTE   W04
        BYTE                   18
        BYTE   W04
        BYTE                   17
        BYTE   W05
        BYTE                   16
        BYTE   W04
        BYTE                   15
        BYTE   W05
        BYTE                   14
        BYTE   W04
        BYTE           EOT
        BYTE           VOL     19
        BYTE   W01
        BYTE                   24
        BYTE   W01
// 022   ----------------------------------------
        BYTE           TIE     En3
        BYTE           VOL     30
        BYTE   W04
        BYTE                   29
        BYTE   W16
        BYTE                   28
        BYTE   W16
        BYTE                   27
        BYTE   W16
        BYTE                   26
        BYTE   W14
        BYTE                   25
        BYTE   W02
        BYTE                   24
        BYTE   W05
        BYTE                   23
        BYTE   W04
        BYTE                   22
        BYTE   W04
        BYTE                   21
        BYTE   W06
        BYTE                   20
        BYTE   W05
        BYTE                   19
        BYTE   W04
        BYTE                   18
        BYTE   W04
        BYTE                   17
        BYTE   W06
        BYTE                   16
        BYTE   W04
        BYTE                   15
        BYTE   W08
        BYTE           EOT
        BYTE           VOL     17
        BYTE   W01
        BYTE                   22
        BYTE   W01
// 023   ----------------------------------------
        BYTE           TIE     Ds3
        BYTE           VOL     30
        BYTE   W09
        BYTE                   29
        BYTE   W16
        BYTE                   28
        BYTE   W15
        BYTE                   27
        BYTE   W16
        BYTE                   26
        BYTE   W16
        BYTE                   25
        BYTE   W01
        BYTE                   24
        BYTE   W04
        BYTE                   23
        BYTE   W05
        BYTE                   22
        BYTE   W04
        BYTE                   21
        BYTE   W06
        BYTE                   20
        BYTE   W05
        BYTE                   19
        BYTE   W04
        BYTE                   18
        BYTE   W04
        BYTE                   17
        BYTE   W06
        BYTE                   16
        BYTE   W04
        BYTE                   15
        BYTE   W03
        BYTE           EOT
        BYTE           VOL     18
        BYTE   W01
        BYTE                   25
        BYTE   W01
// 024   ----------------------------------------
        BYTE                   30
        BYTE   GoTo
         POIN2  shadowsOfIllusion_7_LOOP
        BYTE   W96
        BYTE   W24
// 025   ----------------------------------------
        BYTE   W96
        BYTE   W24
// 026   ----------------------------------------
        BYTE   W96
        BYTE   W24
// 027   ----------------------------------------
        BYTE   W96
        BYTE   W24
// 028   ----------------------------------------
        BYTE   W96
        BYTE   W24
// 029   ----------------------------------------
        BYTE   W96
        BYTE   W24
// 030   ----------------------------------------
        BYTE   W96
        BYTE   W24
// 031   ----------------------------------------
        BYTE   W96
        BYTE   W24
// 032   ----------------------------------------
        BYTE   W96
        BYTE   W24
// 033   ----------------------------------------
        BYTE   W96
        BYTE   W24
// 034   ----------------------------------------
        BYTE   W96
        BYTE   W24
// 035   ----------------------------------------
        BYTE   W96
        BYTE   W24
// 036   ----------------------------------------
        BYTE   W96
        BYTE   W24
// 037   ----------------------------------------
        BYTE   W72
        BYTE           TIE     En3
        BYTE   W08
        BYTE           VOL     29
        BYTE   W16
        BYTE                   28
        BYTE   W16
        BYTE                   27
        BYTE   W08
// 038   ----------------------------------------
        BYTE   W09
        BYTE                   26
        BYTE   W12
        BYTE                   25
        BYTE   W04
        BYTE                   24
        BYTE   W04
        BYTE                   23
        BYTE   W04
        BYTE                   22
        BYTE   W04
        BYTE                   21
        BYTE   W05
        BYTE                   20
        BYTE   W04
        BYTE                   19
        BYTE   W04
        BYTE                   18
        BYTE   W04
        BYTE                   17
        BYTE   W05
        BYTE                   16
        BYTE   W04
        BYTE                   15
        BYTE   W06
        BYTE                   17
        BYTE   W01
        BYTE           EOT
        BYTE           VOL     22
        BYTE   W01
        BYTE                   26
        BYTE   W01
        BYTE           TIE     Ds3
        BYTE           VOL     30
        BYTE   W09
        BYTE                   29
        BYTE   W16
        BYTE                   28
        BYTE   W16
        BYTE                   27
        BYTE   W07
// 039   ----------------------------------------
        BYTE   W09
        BYTE                   26
        BYTE   W15
        BYTE                   25
        BYTE   W04
        BYTE                   24
        BYTE   W04
        BYTE                   23
        BYTE   W04
        BYTE                   22
        BYTE   W05
        BYTE                   21
        BYTE   W04
        BYTE                   20
        BYTE   W05
        BYTE                   19
        BYTE   W04
        BYTE                   18
        BYTE   W04
        BYTE                   17
        BYTE   W05
        BYTE                   16
        BYTE   W04
        BYTE                   15
        BYTE   W02
        BYTE                   16
        BYTE   W01
        BYTE           EOT
        BYTE           VOL     21
        BYTE   W01
        BYTE                   26
        BYTE   W01
        BYTE           TIE     En3
        BYTE           VOL     30
        BYTE   W08
        BYTE                   29
        BYTE   W15
        BYTE                   28
        BYTE   W15
        BYTE                   27
        BYTE   W10
// 040   ----------------------------------------
        BYTE   W05
        BYTE                   26
        BYTE   W13
        BYTE                   25
        BYTE   W04
        BYTE                   24
        BYTE   W05
        BYTE                   23
        BYTE   W04
        BYTE                   22
        BYTE   W05
        BYTE                   21
        BYTE   W05
        BYTE                   20
        BYTE   W05
        BYTE                   19
        BYTE   W04
        BYTE                   18
        BYTE   W05
        BYTE                   17
        BYTE   W06
        BYTE                   16
        BYTE   W04
        BYTE                   15
        BYTE   W05
        BYTE           EOT
        BYTE           VOL     19
        BYTE   W01
        BYTE                   24
        BYTE   W01
        BYTE           TIE     Ds3
        BYTE           VOL     30
        BYTE   W09
        BYTE                   29
        BYTE   W15
        BYTE                   28
        BYTE   W16
        BYTE                   27
        BYTE   W08
// 041   ----------------------------------------
        BYTE   W07
        BYTE                   26
        BYTE   W11
        BYTE                   25
        BYTE   W05
        BYTE                   24
        BYTE   W05
        BYTE                   23
        BYTE   W04
        BYTE                   22
        BYTE   W05
        BYTE                   21
        BYTE   W05
        BYTE                   20
        BYTE   W05
        BYTE                   19
        BYTE   W05
        BYTE                   18
        BYTE   W05
        BYTE                   17
        BYTE   W05
        BYTE                   16
        BYTE   W05
        BYTE                   15
        BYTE   W02
        BYTE                   16
        BYTE   W01
        BYTE           EOT
        BYTE           VOL     21
        BYTE   W01
        BYTE                   25
        BYTE   W01
        BYTE           TIE     En3
        BYTE           VOL     30
        BYTE   W04
        BYTE                   29
        BYTE   W16
        BYTE                   28
        BYTE   W16
        BYTE                   27
        BYTE   W12
// 042   ----------------------------------------
        BYTE   W04
        BYTE                   26
        BYTE   W13
        BYTE                   25
        BYTE   W03
        BYTE                   24
        BYTE   W05
        BYTE                   23
        BYTE   W04
        BYTE                   22
        BYTE   W05
        BYTE                   21
        BYTE   W07
        BYTE                   20
        BYTE   W04
        BYTE                   19
        BYTE   W05
        BYTE                   18
        BYTE   W05
        BYTE                   17
        BYTE   W07
        BYTE                   16
        BYTE   W05
        BYTE                   15
        BYTE   W03
        BYTE           EOT
        BYTE           VOL     19
        BYTE   W01
        BYTE                   25
        BYTE   W01
        BYTE           TIE     Ds3
        BYTE           VOL     30
        BYTE   W08
        BYTE                   29
        BYTE   W16
        BYTE                   28
        BYTE   W15
        BYTE                   27
        BYTE   W09
// 043   ----------------------------------------
        BYTE   W06
        BYTE                   26
        BYTE   W12
        BYTE                   25
        BYTE   W04
        BYTE                   24
        BYTE   W04
        BYTE                   23
        BYTE   W04
        BYTE                   22
        BYTE   W04
        BYTE                   21
        BYTE   W05
        BYTE                   20
        BYTE   W05
        BYTE                   19
        BYTE   W04
        BYTE                   18
        BYTE   W04
        BYTE                   17
        BYTE   W05
        BYTE                   16
        BYTE   W04
        BYTE                   15
        BYTE   W05
        BYTE                   14
        BYTE   W04
        BYTE           EOT
        BYTE           VOL     19
        BYTE   W01
        BYTE                   24
        BYTE   W01
        BYTE           TIE     En3
        BYTE           VOL     30
        BYTE   W04
        BYTE                   29
        BYTE   W16
        BYTE                   28
        BYTE   W16
        BYTE                   27
        BYTE   W12
// 044   ----------------------------------------
        BYTE   W04
        BYTE                   26
        BYTE   W14
        BYTE                   25
        BYTE   W02
        BYTE                   24
        BYTE   W05
        BYTE                   23
        BYTE   W04
        BYTE                   22
        BYTE   W04
        BYTE                   21
        BYTE   W06
        BYTE                   20
        BYTE   W05
        BYTE                   19
        BYTE   W04
        BYTE                   18
        BYTE   W04
        BYTE                   17
        BYTE   W06
        BYTE                   16
        BYTE   W04
        BYTE                   15
        BYTE   W08
        BYTE           EOT
        BYTE           VOL     17
        BYTE   W01
        BYTE                   22
        BYTE   W01
        BYTE           TIE     Ds3
        BYTE           VOL     30
        BYTE   W09
        BYTE                   29
        BYTE   W16
        BYTE                   28
        BYTE   W15
        BYTE                   27
        BYTE   W08
// 045   ----------------------------------------
        BYTE   W08
        BYTE                   26
        BYTE   W16
        BYTE                   25
        BYTE   W01
        BYTE                   24
        BYTE   W04
        BYTE                   23
        BYTE   W05
        BYTE                   22
        BYTE   W04
        BYTE                   21
        BYTE   W06
        BYTE                   20
        BYTE   W05
        BYTE                   19
        BYTE   W04
        BYTE                   18
        BYTE   W04
        BYTE                   17
        BYTE   W06
        BYTE                   16
        BYTE   W04
        BYTE                   15
        BYTE   W03
        BYTE           EOT
        BYTE           VOL     18
        BYTE   W01
        BYTE                   25
        BYTE   W01
        BYTE                   30
        BYTE   W48
// 046   ----------------------------------------
        BYTE   W96
        BYTE   W24
// 047   ----------------------------------------
        BYTE   W96
        BYTE   W24
// 048   ----------------------------------------
        BYTE   W96
        BYTE   W24
// 049   ----------------------------------------
        BYTE   W96
        BYTE   W24
// 050   ----------------------------------------
        BYTE   W96
        BYTE   W24
// 051   ----------------------------------------
        BYTE   W96
        BYTE   W24
// 052   ----------------------------------------
        BYTE   W96
        BYTE   W24
// 053   ----------------------------------------
        BYTE   W96
        BYTE   W24
// 054   ----------------------------------------
        BYTE   W96
        BYTE   W24
// 055   ----------------------------------------
        BYTE   W96
        BYTE   W24
// 056   ----------------------------------------
        BYTE   W96
        BYTE   W24
// 057   ----------------------------------------
        BYTE   W96
        BYTE   W24
// 058   ----------------------------------------
        BYTE   W96
        BYTE   W24
// 059   ----------------------------------------
        BYTE   W24
        BYTE           TIE     En3
        BYTE   W08
        BYTE           VOL     29
        BYTE   W16
        BYTE                   28
        BYTE   W16
        BYTE                   27
        BYTE   W17
        BYTE                   26
        BYTE   W12
        BYTE                   25
        BYTE   W04
        BYTE                   24
        BYTE   W04
        BYTE                   23
        BYTE   W04
        BYTE                   22
        BYTE   W04
        BYTE                   21
        BYTE   W05
        BYTE                   20
        BYTE   W04
        BYTE                   19
        BYTE   W02
// 060   ----------------------------------------
        BYTE   W02
        BYTE                   18
        BYTE   W04
        BYTE                   17
        BYTE   W05
        BYTE                   16
        BYTE   W04
        BYTE                   15
        BYTE   W06
        BYTE                   17
        BYTE   W01
        BYTE           EOT
        BYTE           VOL     22
        BYTE   W01
        BYTE                   26
        BYTE   W01
        BYTE           TIE     Ds3   v092
        BYTE           VOL     30
        BYTE   W09
        BYTE                   29
        BYTE   W16
        BYTE                   28
        BYTE   W16
        BYTE                   27
        BYTE   W16
        BYTE                   26
        BYTE   W15
        BYTE                   25
        BYTE   W04
        BYTE                   24
        BYTE   W04
        BYTE                   23
        BYTE   W04
        BYTE                   22
        BYTE   W05
        BYTE                   21
        BYTE   W04
        BYTE                   20
        BYTE   W03
// 061   ----------------------------------------
        BYTE   W02
        BYTE                   19
        BYTE   W04
        BYTE                   18
        BYTE   W04
        BYTE                   17
        BYTE   W05
        BYTE                   16
        BYTE   W04
        BYTE                   15
        BYTE   W02
        BYTE                   16
        BYTE   W01
        BYTE           EOT
        BYTE           VOL     21
        BYTE   W01
        BYTE                   26
        BYTE   W01
        BYTE           TIE     En3   v083
        BYTE           VOL     30
        BYTE   W08
        BYTE                   29
        BYTE   W15
        BYTE                   28
        BYTE   W15
        BYTE                   27
        BYTE   W15
        BYTE                   26
        BYTE   W13
        BYTE                   25
        BYTE   W04
        BYTE                   24
        BYTE   W05
        BYTE                   23
        BYTE   W04
        BYTE                   22
        BYTE   W05
        BYTE                   21
        BYTE   W05
        BYTE                   20
        BYTE   W05
        BYTE                   19
        BYTE   W02
// 062   ----------------------------------------
        BYTE   W02
        BYTE                   18
        BYTE   W05
        BYTE                   17
        BYTE   W06
        BYTE                   16
        BYTE   W04
        BYTE                   15
        BYTE   W05
        BYTE           EOT
        BYTE           VOL     19
        BYTE   W01
        BYTE                   24
        BYTE   W01
        BYTE           TIE     Ds3   v075
        BYTE           VOL     30
        BYTE   W09
        BYTE                   29
        BYTE   W15
        BYTE                   28
        BYTE   W16
        BYTE                   27
        BYTE   W15
        BYTE                   26
        BYTE   W11
        BYTE                   25
        BYTE   W05
        BYTE                   24
        BYTE   W05
        BYTE                   23
        BYTE   W04
        BYTE                   22
        BYTE   W05
        BYTE                   21
        BYTE   W05
        BYTE                   20
        BYTE   W05
        BYTE                   19
        BYTE   W01
// 063   ----------------------------------------
        BYTE   W04
        BYTE                   18
        BYTE   W05
        BYTE                   17
        BYTE   W05
        BYTE                   16
        BYTE   W05
        BYTE                   15
        BYTE   W02
        BYTE                   16
        BYTE   W01
        BYTE           EOT
        BYTE           VOL     21
        BYTE   W01
        BYTE                   25
        BYTE   W01
        BYTE           TIE     En3   v066
        BYTE           VOL     30
        BYTE   W04
        BYTE                   29
        BYTE   W16
        BYTE                   28
        BYTE   W16
        BYTE                   27
        BYTE   W16
        BYTE                   26
        BYTE   W13
        BYTE                   25
        BYTE   W03
        BYTE                   24
        BYTE   W05
        BYTE                   23
        BYTE   W04
        BYTE                   22
        BYTE   W05
        BYTE                   21
        BYTE   W07
        BYTE                   20
        BYTE   W04
        BYTE                   19
        BYTE   W03
// 064   ----------------------------------------
        BYTE   W02
        BYTE                   18
        BYTE   W05
        BYTE                   17
        BYTE   W07
        BYTE                   16
        BYTE   W05
        BYTE                   15
        BYTE   W03
        BYTE           EOT
        BYTE           VOL     19
        BYTE   W01
        BYTE                   25
        BYTE   W01
        BYTE           TIE     Ds3   v058
        BYTE           VOL     30
        BYTE   W08
        BYTE                   29
        BYTE   W16
        BYTE                   28
        BYTE   W15
        BYTE                   27
        BYTE   W15
        BYTE                   26
        BYTE   W12
        BYTE                   25
        BYTE   W04
        BYTE                   24
        BYTE   W04
        BYTE                   23
        BYTE   W04
        BYTE                   22
        BYTE   W04
        BYTE                   21
        BYTE   W05
        BYTE                   20
        BYTE   W05
        BYTE                   19
        BYTE   W04
// 065   ----------------------------------------
        BYTE                   18
        BYTE   W04
        BYTE                   17
        BYTE   W05
        BYTE                   16
        BYTE   W04
        BYTE                   15
        BYTE   W05
        BYTE                   14
        BYTE   W04
        BYTE           EOT
        BYTE           VOL     19
        BYTE   W01
        BYTE                   24
        BYTE   W01
        BYTE           TIE     En3   v048
        BYTE           VOL     30
        BYTE   W04
        BYTE                   29
        BYTE   W16
        BYTE                   28
        BYTE   W16
        BYTE                   27
        BYTE   W16
        BYTE                   26
        BYTE   W14
        BYTE                   25
        BYTE   W02
        BYTE                   24
        BYTE   W05
        BYTE                   23
        BYTE   W04
        BYTE                   22
        BYTE   W04
        BYTE                   21
        BYTE   W06
        BYTE                   20
        BYTE   W05
        BYTE                   19
        BYTE   W04
// 066   ----------------------------------------
        BYTE                   18
        BYTE   W04
        BYTE                   17
        BYTE   W06
        BYTE                   16
        BYTE   W04
        BYTE                   15
        BYTE   W08
        BYTE           EOT
        BYTE           VOL     17
        BYTE   W01
        BYTE                   22
        BYTE   W01
        BYTE           TIE     Ds3   v032
        BYTE           VOL     30
        BYTE   W09
        BYTE                   29
        BYTE   W16
        BYTE                   28
        BYTE   W15
        BYTE                   27
        BYTE   W16
        BYTE                   26
        BYTE   W16
        BYTE                   25
        BYTE   W01
        BYTE                   24
        BYTE   W04
        BYTE                   23
        BYTE   W05
        BYTE                   22
        BYTE   W04
        BYTE                   21
        BYTE   W06
        BYTE                   20
        BYTE   W04
// 067   ----------------------------------------
        BYTE   W01
        BYTE                   19
        BYTE   W04
        BYTE                   18
        BYTE   W04
        BYTE                   17
        BYTE   W06
        BYTE                   16
        BYTE   W04
        BYTE                   15
        BYTE   W03
        BYTE           EOT
        BYTE           VOL     18
        BYTE   W01
        BYTE                   25
        BYTE   W01
        BYTE                   30
        BYTE   FINE

//****************** Track 8 (Midi-Chn.8) ******************//

shadowsOfIllusion_8:
        BYTE   KEYSH   shadowsOfIllusion_key+0
// 000   ----------------------------------------
shadowsOfIllusion_8_LOOP:
        BYTE           VOICE   117
        BYTE           VOL     36
        BYTE   W96
        BYTE   W12
// 001   ----------------------------------------
        BYTE   W96
// 002   ----------------------------------------
        BYTE   W96
        BYTE   W12
// 003   ----------------------------------------
        BYTE   W23
        BYTE           PAN     c_v+31
        BYTE   W01
        BYTE           N03     En3   v100
        BYTE   W03
        BYTE                   En3
        BYTE   W01
        BYTE           PAN     c_v+30
        BYTE   W02
        BYTE           N04
        BYTE   W03
        BYTE           PAN     c_v+29
        BYTE   W05
        BYTE                   c_v+28
        BYTE   W02
        BYTE                   c_v+2
        BYTE   W02
        BYTE           N04     Fn2
        BYTE           PAN     c_v+1
        BYTE   W02
        BYTE                   c_v+0
        BYTE   W02
        BYTE                   c_v-1
        BYTE   W02
        BYTE           N04
        BYTE           PAN     c_v-2
        BYTE   W02
        BYTE                   c_v-3
        BYTE   W01
        BYTE                   c_v-4
        BYTE   W02
        BYTE                   c_v-5
        BYTE   W02
        BYTE                   c_v-6
        BYTE   W03
        BYTE                   c_v-21
        BYTE   W02
        BYTE           N04     Cs2
        BYTE           PAN     c_v-22
        BYTE   W02
        BYTE                   c_v-23
        BYTE   W02
        BYTE                   c_v-24
        BYTE   W02
        BYTE           N04
        BYTE   W01
        BYTE           PAN     c_v-25
        BYTE   W02
        BYTE                   c_v-26
        BYTE   W02
        BYTE                   c_v-27
        BYTE   W02
        BYTE                   c_v-28
        BYTE   W23
// 004   ----------------------------------------
        BYTE   W96
        BYTE   W12
// 005   ----------------------------------------
        BYTE   W96
// 006   ----------------------------------------
        BYTE   W96
        BYTE   W12
// 007   ----------------------------------------
        BYTE   W96
// 008   ----------------------------------------
        BYTE   W96
        BYTE   W12
// 009   ----------------------------------------
        BYTE   W96
// 010   ----------------------------------------
        BYTE   W96
        BYTE   W12
// 011   ----------------------------------------
        BYTE   W96
// 012   ----------------------------------------
        BYTE   W96
        BYTE   W12
// 013   ----------------------------------------
        BYTE   W96
// 014   ----------------------------------------
        BYTE   W96
        BYTE   W12
// 015   ----------------------------------------
        BYTE   W76
        BYTE   W01
        BYTE                   c_v+36
        BYTE   W01
        BYTE           N03     Ds3
        BYTE           PAN     c_v+32
        BYTE   W01
        BYTE                   c_v+28
        BYTE   W01
        BYTE                   c_v+25
        BYTE   W01
        BYTE           N03
        BYTE           PAN     c_v+21
        BYTE   W01
        BYTE                   c_v+18
        BYTE   W01
        BYTE                   c_v+14
        BYTE   W01
        BYTE           N04     Bn2
        BYTE           PAN     c_v+9
        BYTE   W01
        BYTE                   c_v+6
        BYTE   W01
        BYTE                   c_v+2
        BYTE   W01
        BYTE                   c_v-2
        BYTE   W01
        BYTE                   c_v-5
        BYTE   W01
        BYTE                   c_v-9
        BYTE   W01
        BYTE           N04     Ds2
        BYTE           PAN     c_v-12
        BYTE   W01
        BYTE                   c_v-17
        BYTE   W01
        BYTE                   c_v-21
        BYTE   W01
        BYTE                   c_v-24
        BYTE   W01
        BYTE                   c_v-28
        BYTE   W01
        BYTE                   c_v-32
        BYTE   W01
// 016   ----------------------------------------
        BYTE                   c_v-35
        BYTE   W01
        BYTE                   c_v-40
        BYTE   W96
        BYTE   W23
// 017   ----------------------------------------
        BYTE   W96
        BYTE   W24
// 018   ----------------------------------------
        BYTE   W96
        BYTE   W24
// 019   ----------------------------------------
        BYTE   W96
        BYTE   W24
// 020   ----------------------------------------
        BYTE   W96
        BYTE   W24
// 021   ----------------------------------------
        BYTE   W96
        BYTE   W24
// 022   ----------------------------------------
        BYTE   W96
        BYTE   W24
// 023   ----------------------------------------
        BYTE   W96
        BYTE   W24
// 024   ----------------------------------------
        BYTE                   c_v+0
        BYTE   GoTo
         POIN2  shadowsOfIllusion_8_LOOP
        BYTE   W96
        BYTE   W24
// 025   ----------------------------------------
        BYTE   W96
        BYTE   W24
// 026   ----------------------------------------
        BYTE   W92
        BYTE   W03
        BYTE                   c_v+31
        BYTE   W01
        BYTE           N03     En3
        BYTE   W03
        BYTE                   En3
        BYTE   W01
        BYTE           PAN     c_v+30
        BYTE   W02
        BYTE           N04
        BYTE   W03
        BYTE           PAN     c_v+29
        BYTE   W05
        BYTE                   c_v+28
        BYTE   W02
        BYTE                   c_v+2
        BYTE   W02
        BYTE           N04     Fn2
        BYTE           PAN     c_v+1
        BYTE   W02
        BYTE                   c_v+0
        BYTE   W02
        BYTE                   c_v-1
        BYTE   W02
// 027   ----------------------------------------
        BYTE           N04
        BYTE           PAN     c_v-2
        BYTE   W02
        BYTE                   c_v-3
        BYTE   W01
        BYTE                   c_v-4
        BYTE   W02
        BYTE                   c_v-5
        BYTE   W02
        BYTE                   c_v-6
        BYTE   W03
        BYTE                   c_v-21
        BYTE   W02
        BYTE           N04     Cs2
        BYTE           PAN     c_v-22
        BYTE   W02
        BYTE                   c_v-23
        BYTE   W02
        BYTE                   c_v-24
        BYTE   W02
        BYTE           N04
        BYTE   W01
        BYTE           PAN     c_v-25
        BYTE   W02
        BYTE                   c_v-26
        BYTE   W02
        BYTE                   c_v-27
        BYTE   W02
        BYTE                   c_v-28
        BYTE   W92
        BYTE   W03
// 028   ----------------------------------------
        BYTE   W96
        BYTE   W24
// 029   ----------------------------------------
        BYTE   W96
        BYTE   W24
// 030   ----------------------------------------
        BYTE   W96
        BYTE   W24
// 031   ----------------------------------------
        BYTE   W96
        BYTE   W24
// 032   ----------------------------------------
        BYTE   W96
        BYTE   W24
// 033   ----------------------------------------
        BYTE   W96
        BYTE   W24
// 034   ----------------------------------------
        BYTE   W96
        BYTE   W24
// 035   ----------------------------------------
        BYTE   W96
        BYTE   W24
// 036   ----------------------------------------
        BYTE   W96
        BYTE   W24
// 037   ----------------------------------------
        BYTE   W52
        BYTE   W01
        BYTE                   c_v+36
        BYTE   W01
        BYTE           N03     Ds3
        BYTE           PAN     c_v+32
        BYTE   W01
        BYTE                   c_v+28
        BYTE   W01
        BYTE                   c_v+25
        BYTE   W01
        BYTE           N03
        BYTE           PAN     c_v+21
        BYTE   W01
        BYTE                   c_v+18
        BYTE   W01
        BYTE                   c_v+14
        BYTE   W01
        BYTE           N04     Bn2
        BYTE           PAN     c_v+9
        BYTE   W01
        BYTE                   c_v+6
        BYTE   W01
        BYTE                   c_v+2
        BYTE   W01
        BYTE                   c_v-2
        BYTE   W01
        BYTE                   c_v-5
        BYTE   W01
        BYTE                   c_v-9
        BYTE   W01
        BYTE           N04     Ds2
        BYTE           PAN     c_v-12
        BYTE   W01
        BYTE                   c_v-17
        BYTE   W01
        BYTE                   c_v-21
        BYTE   W01
        BYTE                   c_v-24
        BYTE   W01
        BYTE                   c_v-28
        BYTE   W01
        BYTE                   c_v-32
        BYTE   W01
        BYTE                   c_v-35
        BYTE   W01
        BYTE                   c_v-40
        BYTE   W44
        BYTE   W03
// 038   ----------------------------------------
        BYTE   W96
        BYTE   W24
// 039   ----------------------------------------
        BYTE   W96
        BYTE   W24
// 040   ----------------------------------------
        BYTE   W96
        BYTE   W24
// 041   ----------------------------------------
        BYTE   W96
        BYTE   W24
// 042   ----------------------------------------
        BYTE   W96
        BYTE   W24
// 043   ----------------------------------------
        BYTE   W96
        BYTE   W24
// 044   ----------------------------------------
        BYTE   W96
        BYTE   W24
// 045   ----------------------------------------
        BYTE   W96
        BYTE   W24
// 046   ----------------------------------------
        BYTE   W96
        BYTE   W24
// 047   ----------------------------------------
        BYTE   W96
        BYTE   W24
// 048   ----------------------------------------
        BYTE   W44
        BYTE   W03
        BYTE                   c_v+31
        BYTE   W01
        BYTE           N03     En3
        BYTE   W03
        BYTE                   En3
        BYTE   W01
        BYTE           PAN     c_v+30
        BYTE   W02
        BYTE           N04
        BYTE   W03
        BYTE           PAN     c_v+29
        BYTE   W05
        BYTE                   c_v+28
        BYTE   W02
        BYTE                   c_v+2
        BYTE   W02
        BYTE           N04     Fn2
        BYTE           PAN     c_v+1
        BYTE   W02
        BYTE                   c_v+0
        BYTE   W02
        BYTE                   c_v-1
        BYTE   W02
        BYTE           N04
        BYTE           PAN     c_v-2
        BYTE   W02
        BYTE                   c_v-3
        BYTE   W01
        BYTE                   c_v-4
        BYTE   W02
        BYTE                   c_v-5
        BYTE   W02
        BYTE                   c_v-6
        BYTE   W03
        BYTE                   c_v-21
        BYTE   W02
        BYTE           N04     Cs2
        BYTE           PAN     c_v-22
        BYTE   W02
        BYTE                   c_v-23
        BYTE   W02
        BYTE                   c_v-24
        BYTE   W02
        BYTE           N04
        BYTE   W01
        BYTE           PAN     c_v-25
        BYTE   W02
        BYTE                   c_v-26
        BYTE   W02
        BYTE                   c_v-27
        BYTE   W02
        BYTE                   c_v-28
        BYTE   W23
// 049   ----------------------------------------
        BYTE   W96
        BYTE   W24
// 050   ----------------------------------------
        BYTE   W96
        BYTE   W24
// 051   ----------------------------------------
        BYTE   W96
        BYTE   W24
// 052   ----------------------------------------
        BYTE   W96
        BYTE   W24
// 053   ----------------------------------------
        BYTE   W96
        BYTE   W24
// 054   ----------------------------------------
        BYTE   W96
        BYTE   W24
// 055   ----------------------------------------
        BYTE   W96
        BYTE   W24
// 056   ----------------------------------------
        BYTE   W96
        BYTE   W24
// 057   ----------------------------------------
        BYTE   W96
        BYTE   W24
// 058   ----------------------------------------
        BYTE   W96
        BYTE   W24
// 059   ----------------------------------------
        BYTE   W05
        BYTE                   c_v+36
        BYTE   W01
        BYTE           N03     Ds3
        BYTE           PAN     c_v+32
        BYTE   W01
        BYTE                   c_v+28
        BYTE   W01
        BYTE                   c_v+25
        BYTE   W01
        BYTE           N03
        BYTE           PAN     c_v+21
        BYTE   W01
        BYTE                   c_v+18
        BYTE   W01
        BYTE                   c_v+14
        BYTE   W01
        BYTE           N04     Bn2
        BYTE           PAN     c_v+9
        BYTE   W01
        BYTE                   c_v+6
        BYTE   W01
        BYTE                   c_v+2
        BYTE   W01
        BYTE                   c_v-2
        BYTE   W01
        BYTE                   c_v-5
        BYTE   W01
        BYTE                   c_v-9
        BYTE   W01
        BYTE           N04     Ds2
        BYTE           PAN     c_v-12
        BYTE   W01
        BYTE                   c_v-17
        BYTE   W01
        BYTE                   c_v-21
        BYTE   W01
        BYTE                   c_v-24
        BYTE   W01
        BYTE                   c_v-28
        BYTE   W01
        BYTE                   c_v-32
        BYTE   W01
        BYTE                   c_v-35
        BYTE   W01
        BYTE                   c_v-40
        BYTE   W92
        BYTE   W03
// 060   ----------------------------------------
        BYTE   W96
        BYTE   W24
// 061   ----------------------------------------
        BYTE   W96
        BYTE   W24
// 062   ----------------------------------------
        BYTE   W96
        BYTE   W24
// 063   ----------------------------------------
        BYTE   W96
        BYTE   W24
// 064   ----------------------------------------
        BYTE   W96
        BYTE   W24
// 065   ----------------------------------------
        BYTE   W96
        BYTE   W24
// 066   ----------------------------------------
        BYTE   W96
        BYTE   W24
// 067   ----------------------------------------
        BYTE   W24
        BYTE   FINE

//***************** Track 9 (Midi-Chn.10) ******************//

shadowsOfIllusion_9:
        BYTE   KEYSH   shadowsOfIllusion_key+0
// 000   ----------------------------------------
shadowsOfIllusion_9_LOOP:
        BYTE           VOICE   52
        BYTE           VOL     34
        BYTE           PAN     c_v+6
        BYTE           MOD     4
        BYTE   W96
        BYTE   W12
// 001   ----------------------------------------
        BYTE   W96
// 002   ----------------------------------------
        BYTE   W96
        BYTE   W12
// 003   ----------------------------------------
shadowsOfIllusion_9_3:
        BYTE   W92
        BYTE   W01
        BYTE           VOL     28
        BYTE   W01
        BYTE                   30
        BYTE   W01
        BYTE                   32
        BYTE   W01
        BYTE   PEND
// 004   ----------------------------------------
shadowsOfIllusion_9_4:
        BYTE           TIE     An2   v100
        BYTE           VOL     33
        BYTE   W14
        BYTE                   32
        BYTE   W14
        BYTE                   31
        BYTE   W14
        BYTE                   30
        BYTE   W10
        BYTE                   29
        BYTE   W14
        BYTE                   28
        BYTE   W14
        BYTE                   27
        BYTE   W13
        BYTE                   26
        BYTE   W11
        BYTE                   25
        BYTE   W01
        BYTE           EOT
        BYTE           VOL     28
        BYTE   W01
        BYTE                   30
        BYTE   W01
        BYTE                   34
        BYTE   W01
        BYTE   PEND
// 005   ----------------------------------------
shadowsOfIllusion_9_5:
        BYTE           N92     Gn2   v100   gtp1
        BYTE           VOL     33
        BYTE   W10
        BYTE                   32
        BYTE   W13
        BYTE                   31
        BYTE   W13
        BYTE                   30
        BYTE   W10
        BYTE                   29
        BYTE   W13
        BYTE                   28
        BYTE   W13
        BYTE                   27
        BYTE   W13
        BYTE                   26
        BYTE   W08
        BYTE                   28
        BYTE   W01
        BYTE                   30
        BYTE   W01
        BYTE                   33
        BYTE   W01
        BYTE   PEND
// 006   ----------------------------------------
shadowsOfIllusion_9_6:
        BYTE           TIE     Fs2   v100
        BYTE           VOL     34
        BYTE   W07
        BYTE                   33
        BYTE   W14
        BYTE                   32
        BYTE   W14
        BYTE                   31
        BYTE   W13
        BYTE                   30
        BYTE   W11
        BYTE                   29
        BYTE   W14
        BYTE                   28
        BYTE   W14
        BYTE                   27
        BYTE   W13
        BYTE                   26
        BYTE   W05
        BYTE           EOT
        BYTE   W01
        BYTE           VOL     29
        BYTE   W01
        BYTE                   34
        BYTE   W01
        BYTE   PEND
// 007   ----------------------------------------
shadowsOfIllusion_9_7:
        BYTE           N68     Fn2   v100   gtp2
        BYTE   W02
        BYTE           VOL     33
        BYTE   W10
        BYTE                   32
        BYTE   W11
        BYTE                   31
        BYTE   W10
        BYTE                   30
        BYTE   W08
        BYTE                   29
        BYTE   W10
        BYTE                   28
        BYTE   W10
        BYTE                   27
        BYTE   W09
        BYTE                   26
        BYTE   W01
        BYTE                   34
        BYTE   W01
        BYTE           N22     Gn2
        BYTE   W02
        BYTE           VOL     33
        BYTE   W06
        BYTE                   32
        BYTE   W05
        BYTE                   31
        BYTE   W06
        BYTE                   30
        BYTE   W03
        BYTE                   31
        BYTE   W01
        BYTE                   33
        BYTE   W01
        BYTE   PEND
// 008   ----------------------------------------
shadowsOfIllusion_9_8:
        BYTE           TIE     An2   v100
        BYTE   W14
        BYTE           VOL     32
        BYTE   W13
        BYTE                   31
        BYTE   W14
        BYTE                   30
        BYTE   W10
        BYTE                   29
        BYTE   W14
        BYTE                   28
        BYTE   W14
        BYTE                   27
        BYTE   W14
        BYTE                   26
        BYTE   W10
        BYTE                   25
        BYTE   W01
        BYTE                   26
        BYTE   W01
        BYTE                   29
        BYTE   W01
        BYTE           EOT
        BYTE           VOL     32
        BYTE   W01
        BYTE                   33
        BYTE   W01
        BYTE   PEND
// 009   ----------------------------------------
shadowsOfIllusion_9_9:
        BYTE           N92     Gn2   v100   gtp2
        BYTE   W09
        BYTE           VOL     32
        BYTE   W14
        BYTE                   31
        BYTE   W13
        BYTE                   30
        BYTE   W09
        BYTE                   29
        BYTE   W13
        BYTE                   28
        BYTE   W13
        BYTE                   27
        BYTE   W14
        BYTE                   26
        BYTE   W08
        BYTE                   29
        BYTE   W01
        BYTE                   32
        BYTE   W01
        BYTE                   34
        BYTE   W01
        BYTE   PEND
// 010   ----------------------------------------
shadowsOfIllusion_9_10:
        BYTE           TIE     Fs2   v100
        BYTE   W07
        BYTE           VOL     33
        BYTE   W13
        BYTE                   32
        BYTE   W14
        BYTE                   31
        BYTE   W14
        BYTE                   30
        BYTE   W10
        BYTE                   29
        BYTE   W14
        BYTE                   28
        BYTE   W14
        BYTE                   27
        BYTE   W14
        BYTE                   26
        BYTE   W06
        BYTE           EOT
        BYTE           VOL     32
        BYTE   W01
        BYTE                   34
        BYTE   W01
        BYTE   PEND
// 011   ----------------------------------------
shadowsOfIllusion_9_11:
        BYTE           N68     Fn2   v100   gtp2
        BYTE   W02
        BYTE           VOL     33
        BYTE   W10
        BYTE                   32
        BYTE   W10
        BYTE                   31
        BYTE   W11
        BYTE                   30
        BYTE   W07
        BYTE                   29
        BYTE   W11
        BYTE                   28
        BYTE   W10
        BYTE                   27
        BYTE   W09
        BYTE                   31
        BYTE   W01
        BYTE                   26
        BYTE   W01
        BYTE           N22     Gn2
        BYTE           VOL     34
        BYTE   W01
        BYTE                   33
        BYTE   W06
        BYTE                   32
        BYTE   W06
        BYTE                   31
        BYTE   W06
        BYTE                   30
        BYTE   W03
        BYTE                   33
        BYTE   W01
        BYTE                   34
        BYTE   W01
        BYTE   PEND
// 012   ----------------------------------------
        BYTE   W96
        BYTE   W12
// 013   ----------------------------------------
        BYTE   W96
// 014   ----------------------------------------
        BYTE   W96
        BYTE   W12
// 015   ----------------------------------------
        BYTE   W96
// 016   ----------------------------------------
        BYTE   W96
        BYTE   W24
// 017   ----------------------------------------
        BYTE   W96
        BYTE   W24
// 018   ----------------------------------------
        BYTE   W96
        BYTE   W24
// 019   ----------------------------------------
        BYTE   W96
        BYTE   W24
// 020   ----------------------------------------
        BYTE   W96
        BYTE   W24
// 021   ----------------------------------------
        BYTE   W96
        BYTE   W24
// 022   ----------------------------------------
        BYTE   W96
        BYTE   W24
// 023   ----------------------------------------
        BYTE   W96
        BYTE   W24
// 024   ----------------------------------------
        BYTE   GoTo
         POIN2  shadowsOfIllusion_9_LOOP
        BYTE   W96
        BYTE   W24
// 025   ----------------------------------------
        BYTE   W96
        BYTE   W24
// 026   ----------------------------------------
        BYTE   W96
        BYTE   W24
// 027   ----------------------------------------
shadowsOfIllusion_9_27:
        BYTE   W44
        BYTE   W01
        BYTE           VOL     28
        BYTE   W01
        BYTE                   30
        BYTE   W01
        BYTE                   32
        BYTE   W01
        BYTE           TIE     An2   v100
        BYTE           VOL     33
        BYTE   W14
        BYTE                   32
        BYTE   W14
        BYTE                   31
        BYTE   W14
        BYTE                   30
        BYTE   W10
        BYTE                   29
        BYTE   W14
        BYTE                   28
        BYTE   W06
        BYTE   PEND
// 028   ----------------------------------------
shadowsOfIllusion_9_28:
        BYTE   W08
        BYTE           VOL     27
        BYTE   W13
        BYTE                   26
        BYTE   W11
        BYTE                   25
        BYTE   W01
        BYTE           EOT     An2
        BYTE           VOL     28
        BYTE   W01
        BYTE                   30
        BYTE   W01
        BYTE                   34
        BYTE   W01
        BYTE           N92     Gn2   v100   gtp1
        BYTE           VOL     33
        BYTE   W10
        BYTE                   32
        BYTE   W13
        BYTE                   31
        BYTE   W13
        BYTE                   30
        BYTE   W10
        BYTE                   29
        BYTE   W13
        BYTE                   28
        BYTE   W13
        BYTE                   27
        BYTE   W12
        BYTE   PEND
// 029   ----------------------------------------
shadowsOfIllusion_9_29:
        BYTE   W01
        BYTE           VOL     26
        BYTE   W08
        BYTE                   28
        BYTE   W01
        BYTE                   30
        BYTE   W01
        BYTE                   33
        BYTE   W01
        BYTE           TIE     Fs2   v100
        BYTE           VOL     34
        BYTE   W07
        BYTE                   33
        BYTE   W14
        BYTE                   32
        BYTE   W14
        BYTE                   31
        BYTE   W13
        BYTE                   30
        BYTE   W11
        BYTE                   29
        BYTE   W14
        BYTE                   28
        BYTE   W14
        BYTE                   27
        BYTE   W13
        BYTE                   26
        BYTE   W05
        BYTE           EOT
        BYTE   W01
        BYTE           VOL     29
        BYTE   W01
        BYTE                   34
        BYTE   W01
        BYTE   PEND
// 030   ----------------------------------------
shadowsOfIllusion_9_30:
        BYTE           N68     Fn2   v100   gtp2
        BYTE   W02
        BYTE           VOL     33
        BYTE   W10
        BYTE                   32
        BYTE   W11
        BYTE                   31
        BYTE   W10
        BYTE                   30
        BYTE   W08
        BYTE                   29
        BYTE   W10
        BYTE                   28
        BYTE   W10
        BYTE                   27
        BYTE   W09
        BYTE                   26
        BYTE   W01
        BYTE                   34
        BYTE   W01
        BYTE           N22     Gn2
        BYTE   W02
        BYTE           VOL     33
        BYTE   W06
        BYTE                   32
        BYTE   W05
        BYTE                   31
        BYTE   W06
        BYTE                   30
        BYTE   W03
        BYTE                   31
        BYTE   W01
        BYTE                   33
        BYTE   W01
        BYTE           TIE     An2
        BYTE   W14
        BYTE           VOL     32
        BYTE   W10
        BYTE   PEND
// 031   ----------------------------------------
shadowsOfIllusion_9_31:
        BYTE   W03
        BYTE           VOL     31
        BYTE   W14
        BYTE                   30
        BYTE   W10
        BYTE                   29
        BYTE   W14
        BYTE                   28
        BYTE   W14
        BYTE                   27
        BYTE   W14
        BYTE                   26
        BYTE   W10
        BYTE                   25
        BYTE   W01
        BYTE                   26
        BYTE   W01
        BYTE                   29
        BYTE   W01
        BYTE           EOT     An2
        BYTE           VOL     32
        BYTE   W01
        BYTE                   33
        BYTE   W01
        BYTE           N92     Gn2   v100   gtp2
        BYTE   W09
        BYTE           VOL     32
        BYTE   W14
        BYTE                   31
        BYTE   W13
        BYTE   PEND
// 032   ----------------------------------------
shadowsOfIllusion_9_32:
        BYTE           VOL     30
        BYTE   W09
        BYTE                   29
        BYTE   W13
        BYTE                   28
        BYTE   W13
        BYTE                   27
        BYTE   W14
        BYTE                   26
        BYTE   W08
        BYTE                   29
        BYTE   W01
        BYTE                   32
        BYTE   W01
        BYTE                   34
        BYTE   W01
        BYTE           TIE     Fs2   v100
        BYTE   W07
        BYTE           VOL     33
        BYTE   W13
        BYTE                   32
        BYTE   W14
        BYTE                   31
        BYTE   W14
        BYTE                   30
        BYTE   W10
        BYTE                   29
        BYTE   W02
        BYTE   PEND
// 033   ----------------------------------------
shadowsOfIllusion_9_33:
        BYTE   W12
        BYTE           VOL     28
        BYTE   W14
        BYTE                   27
        BYTE   W14
        BYTE                   26
        BYTE   W06
        BYTE           EOT     Fs2
        BYTE           VOL     32
        BYTE   W01
        BYTE                   34
        BYTE   W01
        BYTE           N68     Fn2   v100   gtp2
        BYTE   W02
        BYTE           VOL     33
        BYTE   W10
        BYTE                   32
        BYTE   W10
        BYTE                   31
        BYTE   W11
        BYTE                   30
        BYTE   W07
        BYTE                   29
        BYTE   W11
        BYTE                   28
        BYTE   W10
        BYTE                   27
        BYTE   W09
        BYTE                   31
        BYTE   W01
        BYTE                   26
        BYTE   W01
        BYTE   PEND
// 034   ----------------------------------------
shadowsOfIllusion_9_34:
        BYTE           N22     Gn2   v100
        BYTE           VOL     34
        BYTE   W01
        BYTE                   33
        BYTE   W06
        BYTE                   32
        BYTE   W06
        BYTE                   31
        BYTE   W06
        BYTE                   30
        BYTE   W03
        BYTE                   33
        BYTE   W01
        BYTE                   34
        BYTE   W96
        BYTE   W01
        BYTE   PEND
// 035   ----------------------------------------
        BYTE   W96
        BYTE   W24
// 036   ----------------------------------------
        BYTE   W96
        BYTE   W24
// 037   ----------------------------------------
        BYTE   W96
        BYTE   W24
// 038   ----------------------------------------
        BYTE   W96
        BYTE   W24
// 039   ----------------------------------------
        BYTE   W96
        BYTE   W24
// 040   ----------------------------------------
        BYTE   W96
        BYTE   W24
// 041   ----------------------------------------
        BYTE   W96
        BYTE   W24
// 042   ----------------------------------------
        BYTE   W96
        BYTE   W24
// 043   ----------------------------------------
        BYTE   W96
        BYTE   W24
// 044   ----------------------------------------
        BYTE   W96
        BYTE   W24
// 045   ----------------------------------------
        BYTE   W96
        BYTE   W24
// 046   ----------------------------------------
        BYTE   W96
        BYTE   W24
// 047   ----------------------------------------
        BYTE   W96
        BYTE   W24
// 048   ----------------------------------------
shadowsOfIllusion_9_48:
        BYTE   W96
        BYTE   W21
        BYTE           VOL     28
        BYTE   W01
        BYTE                   30
        BYTE   W01
        BYTE                   32
        BYTE   W01
        BYTE   PEND
// 049   ----------------------------------------
shadowsOfIllusion_9_49:
        BYTE           TIE     An2   v100
        BYTE           VOL     33
        BYTE   W14
        BYTE                   32
        BYTE   W14
        BYTE                   31
        BYTE   W14
        BYTE                   30
        BYTE   W10
        BYTE                   29
        BYTE   W14
        BYTE                   28
        BYTE   W14
        BYTE                   27
        BYTE   W13
        BYTE                   26
        BYTE   W11
        BYTE                   25
        BYTE   W01
        BYTE           EOT
        BYTE           VOL     28
        BYTE   W01
        BYTE                   30
        BYTE   W01
        BYTE                   34
        BYTE   W01
        BYTE           N92     Gn2   v100   gtp1
        BYTE           VOL     33
        BYTE   W10
        BYTE                   32
        BYTE   W02
        BYTE   PEND
// 050   ----------------------------------------
shadowsOfIllusion_9_50:
        BYTE   W11
        BYTE           VOL     31
        BYTE   W13
        BYTE                   30
        BYTE   W10
        BYTE                   29
        BYTE   W13
        BYTE                   28
        BYTE   W13
        BYTE                   27
        BYTE   W13
        BYTE                   26
        BYTE   W08
        BYTE                   28
        BYTE   W01
        BYTE                   30
        BYTE   W01
        BYTE                   33
        BYTE   W01
        BYTE           TIE     Fs2   v100
        BYTE           VOL     34
        BYTE   W07
        BYTE                   33
        BYTE   W14
        BYTE                   32
        BYTE   W14
        BYTE                   31
        BYTE   W01
        BYTE   PEND
// 051   ----------------------------------------
shadowsOfIllusion_9_51:
        BYTE   W12
        BYTE           VOL     30
        BYTE   W11
        BYTE                   29
        BYTE   W14
        BYTE                   28
        BYTE   W14
        BYTE                   27
        BYTE   W13
        BYTE                   26
        BYTE   W05
        BYTE           EOT     Fs2
        BYTE   W01
        BYTE           VOL     29
        BYTE   W01
        BYTE                   34
        BYTE   W01
        BYTE           N68     Fn2   v100   gtp2
        BYTE   W02
        BYTE           VOL     33
        BYTE   W10
        BYTE                   32
        BYTE   W11
        BYTE                   31
        BYTE   W10
        BYTE                   30
        BYTE   W08
        BYTE                   29
        BYTE   W07
        BYTE   PEND
// 052   ----------------------------------------
shadowsOfIllusion_9_52:
        BYTE   W03
        BYTE           VOL     28
        BYTE   W10
        BYTE                   27
        BYTE   W09
        BYTE                   26
        BYTE   W01
        BYTE                   34
        BYTE   W01
        BYTE           N22     Gn2   v100
        BYTE   W02
        BYTE           VOL     33
        BYTE   W06
        BYTE                   32
        BYTE   W05
        BYTE                   31
        BYTE   W06
        BYTE                   30
        BYTE   W03
        BYTE                   31
        BYTE   W01
        BYTE                   33
        BYTE   W01
        BYTE           TIE     An2
        BYTE   W14
        BYTE           VOL     32
        BYTE   W13
        BYTE                   31
        BYTE   W14
        BYTE                   30
        BYTE   W10
        BYTE                   29
        BYTE   W14
        BYTE                   28
        BYTE   W07
        BYTE   PEND
// 053   ----------------------------------------
shadowsOfIllusion_9_53:
        BYTE   W07
        BYTE           VOL     27
        BYTE   W14
        BYTE                   26
        BYTE   W10
        BYTE                   25
        BYTE   W01
        BYTE                   26
        BYTE   W01
        BYTE                   29
        BYTE   W01
        BYTE           EOT     An2
        BYTE           VOL     32
        BYTE   W01
        BYTE                   33
        BYTE   W01
        BYTE           N92     Gn2   v100   gtp2
        BYTE   W09
        BYTE           VOL     32
        BYTE   W14
        BYTE                   31
        BYTE   W13
        BYTE                   30
        BYTE   W09
        BYTE                   29
        BYTE   W13
        BYTE                   28
        BYTE   W13
        BYTE                   27
        BYTE   W13
        BYTE   PEND
// 054   ----------------------------------------
shadowsOfIllusion_9_54:
        BYTE   W01
        BYTE           VOL     26
        BYTE   W08
        BYTE                   29
        BYTE   W01
        BYTE                   32
        BYTE   W01
        BYTE                   34
        BYTE   W01
        BYTE           TIE     Fs2   v100
        BYTE   W07
        BYTE           VOL     33
        BYTE   W13
        BYTE                   32
        BYTE   W14
        BYTE                   31
        BYTE   W14
        BYTE                   30
        BYTE   W10
        BYTE                   29
        BYTE   W14
        BYTE                   28
        BYTE   W14
        BYTE                   27
        BYTE   W14
        BYTE                   26
        BYTE   W06
        BYTE           EOT
        BYTE           VOL     32
        BYTE   W01
        BYTE                   34
        BYTE   W01
        BYTE   PEND
// 055   ----------------------------------------
shadowsOfIllusion_9_55:
        BYTE           N68     Fn2   v100   gtp2
        BYTE   W02
        BYTE           VOL     33
        BYTE   W10
        BYTE                   32
        BYTE   W10
        BYTE                   31
        BYTE   W11
        BYTE                   30
        BYTE   W07
        BYTE                   29
        BYTE   W11
        BYTE                   28
        BYTE   W10
        BYTE                   27
        BYTE   W09
        BYTE                   31
        BYTE   W01
        BYTE                   26
        BYTE   W01
        BYTE           N22     Gn2
        BYTE           VOL     34
        BYTE   W01
        BYTE                   33
        BYTE   W06
        BYTE                   32
        BYTE   W06
        BYTE                   31
        BYTE   W06
        BYTE                   30
        BYTE   W03
        BYTE                   33
        BYTE   W01
        BYTE                   34
        BYTE   W24
        BYTE   W01
        BYTE   PEND
// 056   ----------------------------------------
        BYTE   W96
        BYTE   W24
// 057   ----------------------------------------
        BYTE   W96
        BYTE   W24
// 058   ----------------------------------------
        BYTE   W96
        BYTE   W24
// 059   ----------------------------------------
        BYTE   W96
        BYTE   W24
// 060   ----------------------------------------
        BYTE   W96
        BYTE   W24
// 061   ----------------------------------------
        BYTE   W96
        BYTE   W24
// 062   ----------------------------------------
        BYTE   W96
        BYTE   W24
// 063   ----------------------------------------
        BYTE   W96
        BYTE   W24
// 064   ----------------------------------------
        BYTE   W96
        BYTE   W24
// 065   ----------------------------------------
        BYTE   W96
        BYTE   W24
// 066   ----------------------------------------
        BYTE   W96
        BYTE   W24
// 067   ----------------------------------------
        BYTE   W24
        BYTE   FINE

//***************** Track 10 (Midi-Chn.11) *****************//

shadowsOfIllusion_10:
        BYTE   KEYSH   shadowsOfIllusion_key+0
// 000   ----------------------------------------
shadowsOfIllusion_10_LOOP:
        BYTE           VOICE   85
        BYTE           VOL     34
        BYTE           PAN     c_v-6
        BYTE           MOD     4
        BYTE   W96
        BYTE   W12
// 001   ----------------------------------------
        BYTE   W96
// 002   ----------------------------------------
        BYTE   W96
        BYTE   W12
// 003   ----------------------------------------
        BYTE   PATT
         POIN2  shadowsOfIllusion_9_3
// 004   ----------------------------------------
        BYTE   PATT
         POIN2  shadowsOfIllusion_9_4
// 005   ----------------------------------------
        BYTE   PATT
         POIN2  shadowsOfIllusion_9_5
// 006   ----------------------------------------
        BYTE   PATT
         POIN2  shadowsOfIllusion_9_6
// 007   ----------------------------------------
        BYTE   PATT
         POIN2  shadowsOfIllusion_9_7
// 008   ----------------------------------------
        BYTE   PATT
         POIN2  shadowsOfIllusion_9_8
// 009   ----------------------------------------
        BYTE   PATT
         POIN2  shadowsOfIllusion_9_9
// 010   ----------------------------------------
        BYTE   PATT
         POIN2  shadowsOfIllusion_9_10
// 011   ----------------------------------------
        BYTE   PATT
         POIN2  shadowsOfIllusion_9_11
// 012   ----------------------------------------
        BYTE   W96
        BYTE   W12
// 013   ----------------------------------------
        BYTE   W96
// 014   ----------------------------------------
        BYTE   W96
        BYTE   W12
// 015   ----------------------------------------
        BYTE   W96
// 016   ----------------------------------------
        BYTE   W96
        BYTE   W24
// 017   ----------------------------------------
        BYTE   W96
        BYTE   W24
// 018   ----------------------------------------
        BYTE   W96
        BYTE   W24
// 019   ----------------------------------------
        BYTE   W96
        BYTE   W24
// 020   ----------------------------------------
        BYTE   W96
        BYTE   W24
// 021   ----------------------------------------
        BYTE   W96
        BYTE   W24
// 022   ----------------------------------------
        BYTE   W96
        BYTE   W24
// 023   ----------------------------------------
        BYTE   W96
        BYTE   W24
// 024   ----------------------------------------
        BYTE   GoTo
         POIN2  shadowsOfIllusion_10_LOOP
        BYTE   W96
        BYTE   W24
// 025   ----------------------------------------
        BYTE   W96
        BYTE   W24
// 026   ----------------------------------------
        BYTE   W96
        BYTE   W24
// 027   ----------------------------------------
        BYTE   PATT
         POIN2  shadowsOfIllusion_9_27
// 028   ----------------------------------------
        BYTE   PATT
         POIN2  shadowsOfIllusion_9_28
// 029   ----------------------------------------
        BYTE   PATT
         POIN2  shadowsOfIllusion_9_29
// 030   ----------------------------------------
        BYTE   PATT
         POIN2  shadowsOfIllusion_9_30
// 031   ----------------------------------------
        BYTE   PATT
         POIN2  shadowsOfIllusion_9_31
// 032   ----------------------------------------
        BYTE   PATT
         POIN2  shadowsOfIllusion_9_32
// 033   ----------------------------------------
        BYTE   PATT
         POIN2  shadowsOfIllusion_9_33
// 034   ----------------------------------------
        BYTE   PATT
         POIN2  shadowsOfIllusion_9_34
// 035   ----------------------------------------
        BYTE   W96
        BYTE   W24
// 036   ----------------------------------------
        BYTE   W96
        BYTE   W24
// 037   ----------------------------------------
        BYTE   W96
        BYTE   W24
// 038   ----------------------------------------
        BYTE   W96
        BYTE   W24
// 039   ----------------------------------------
        BYTE   W96
        BYTE   W24
// 040   ----------------------------------------
        BYTE   W96
        BYTE   W24
// 041   ----------------------------------------
        BYTE   W96
        BYTE   W24
// 042   ----------------------------------------
        BYTE   W96
        BYTE   W24
// 043   ----------------------------------------
        BYTE   W96
        BYTE   W24
// 044   ----------------------------------------
        BYTE   W96
        BYTE   W24
// 045   ----------------------------------------
        BYTE   W96
        BYTE   W24
// 046   ----------------------------------------
        BYTE   W96
        BYTE   W24
// 047   ----------------------------------------
        BYTE   W96
        BYTE   W24
// 048   ----------------------------------------
        BYTE   PATT
         POIN2  shadowsOfIllusion_9_48
// 049   ----------------------------------------
        BYTE   PATT
         POIN2  shadowsOfIllusion_9_49
// 050   ----------------------------------------
        BYTE   PATT
         POIN2  shadowsOfIllusion_9_50
// 051   ----------------------------------------
        BYTE   PATT
         POIN2  shadowsOfIllusion_9_51
// 052   ----------------------------------------
        BYTE   PATT
         POIN2  shadowsOfIllusion_9_52
// 053   ----------------------------------------
        BYTE   PATT
         POIN2  shadowsOfIllusion_9_53
// 054   ----------------------------------------
        BYTE   PATT
         POIN2  shadowsOfIllusion_9_54
// 055   ----------------------------------------
        BYTE   PATT
         POIN2  shadowsOfIllusion_9_55
// 056   ----------------------------------------
        BYTE   W96
        BYTE   W24
// 057   ----------------------------------------
        BYTE   W96
        BYTE   W24
// 058   ----------------------------------------
        BYTE   W96
        BYTE   W24
// 059   ----------------------------------------
        BYTE   W96
        BYTE   W24
// 060   ----------------------------------------
        BYTE   W96
        BYTE   W24
// 061   ----------------------------------------
        BYTE   W96
        BYTE   W24
// 062   ----------------------------------------
        BYTE   W96
        BYTE   W24
// 063   ----------------------------------------
        BYTE   W96
        BYTE   W24
// 064   ----------------------------------------
        BYTE   W96
        BYTE   W24
// 065   ----------------------------------------
        BYTE   W96
        BYTE   W24
// 066   ----------------------------------------
        BYTE   W96
        BYTE   W24
// 067   ----------------------------------------
        BYTE   W24
        BYTE   FINE

//***************** Track 11 (Midi-Chn.12) *****************//

shadowsOfIllusion_11:
        BYTE   KEYSH   shadowsOfIllusion_key+0
// 000   ----------------------------------------
shadowsOfIllusion_11_LOOP:
        BYTE           VOICE   39
        BYTE           VOL     34
        BYTE           PAN     c_v-32
        BYTE   W96
        BYTE   W12
// 001   ----------------------------------------
        BYTE   W96
// 002   ----------------------------------------
        BYTE   W96
        BYTE   W12
// 003   ----------------------------------------
        BYTE   W96
// 004   ----------------------------------------
        BYTE   W96
        BYTE   W12
// 005   ----------------------------------------
        BYTE   W96
// 006   ----------------------------------------
        BYTE   W96
        BYTE   W12
// 007   ----------------------------------------
        BYTE   W96
// 008   ----------------------------------------
        BYTE   W96
        BYTE   W12
// 009   ----------------------------------------
        BYTE   W96
// 010   ----------------------------------------
        BYTE   W96
        BYTE   W12
// 011   ----------------------------------------
        BYTE   W96
// 012   ----------------------------------------
        BYTE           TIE     An0   v100
        BYTE   W96
        BYTE   W12
// 013   ----------------------------------------
        BYTE   W96
// 014   ----------------------------------------
        BYTE   W96
        BYTE   W12
// 015   ----------------------------------------
        BYTE   W92
        BYTE   W02
        BYTE           EOT
        BYTE   W02
// 016   ----------------------------------------
        BYTE   W96
        BYTE   W24
// 017   ----------------------------------------
        BYTE   W96
        BYTE   W24
// 018   ----------------------------------------
        BYTE   W96
        BYTE   W24
// 019   ----------------------------------------
        BYTE   W96
        BYTE   W24
// 020   ----------------------------------------
        BYTE   W96
        BYTE   W24
// 021   ----------------------------------------
        BYTE   W96
        BYTE   W24
// 022   ----------------------------------------
        BYTE   W96
        BYTE   W24
// 023   ----------------------------------------
        BYTE   W96
        BYTE   W22
        BYTE           PAN     c_v+31
        BYTE   W02
// 024   ----------------------------------------
        BYTE           TIE
        BYTE           PAN     c_v-32
        BYTE   GoTo
         POIN2  shadowsOfIllusion_11_LOOP
        BYTE   W96
        BYTE   W24
// 025   ----------------------------------------
        BYTE   W96
        BYTE   W24
// 026   ----------------------------------------
        BYTE   W96
        BYTE   W24
// 027   ----------------------------------------
        BYTE   W44
        BYTE   W02
        BYTE           EOT
        BYTE   W72
        BYTE   W02
// 028   ----------------------------------------
        BYTE   W96
        BYTE   W24
// 029   ----------------------------------------
        BYTE   W96
        BYTE   W24
// 030   ----------------------------------------
        BYTE   W96
        BYTE   W24
// 031   ----------------------------------------
        BYTE   W96
        BYTE   W24
// 032   ----------------------------------------
        BYTE   W96
        BYTE   W24
// 033   ----------------------------------------
        BYTE   W96
        BYTE   W24
// 034   ----------------------------------------
        BYTE   W24
        BYTE           TIE
        BYTE   W96
// 035   ----------------------------------------
        BYTE   W96
        BYTE   W24
// 036   ----------------------------------------
        BYTE   W96
        BYTE   W24
// 037   ----------------------------------------
        BYTE   W68
        BYTE   W02
        BYTE           EOT
        BYTE   W48
        BYTE   W02
// 038   ----------------------------------------
        BYTE   W96
        BYTE   W24
// 039   ----------------------------------------
        BYTE   W96
        BYTE   W24
// 040   ----------------------------------------
        BYTE   W96
        BYTE   W24
// 041   ----------------------------------------
        BYTE   W96
        BYTE   W24
// 042   ----------------------------------------
        BYTE   W96
        BYTE   W24
// 043   ----------------------------------------
        BYTE   W96
        BYTE   W24
// 044   ----------------------------------------
        BYTE   W96
        BYTE   W24
// 045   ----------------------------------------
        BYTE   W72
        BYTE           TIE
        BYTE   W48
// 046   ----------------------------------------
        BYTE   W96
        BYTE   W24
// 047   ----------------------------------------
        BYTE   W96
        BYTE   W24
// 048   ----------------------------------------
        BYTE   W96
        BYTE   W22
        BYTE           EOT
        BYTE   W02
// 049   ----------------------------------------
        BYTE   W96
        BYTE   W24
// 050   ----------------------------------------
        BYTE   W96
        BYTE   W24
// 051   ----------------------------------------
        BYTE   W96
        BYTE   W24
// 052   ----------------------------------------
        BYTE   W96
        BYTE   W24
// 053   ----------------------------------------
        BYTE   W96
        BYTE   W24
// 054   ----------------------------------------
        BYTE   W96
        BYTE   W24
// 055   ----------------------------------------
        BYTE   W96
        BYTE           TIE
        BYTE   W24
// 056   ----------------------------------------
        BYTE   W96
        BYTE   W24
// 057   ----------------------------------------
        BYTE   W96
        BYTE   W24
// 058   ----------------------------------------
        BYTE   W96
        BYTE   W24
// 059   ----------------------------------------
        BYTE   W22
        BYTE           EOT
        BYTE   W96
        BYTE   W02
// 060   ----------------------------------------
        BYTE   W96
        BYTE   W24
// 061   ----------------------------------------
        BYTE   W96
        BYTE   W24
// 062   ----------------------------------------
        BYTE   W96
        BYTE   W24
// 063   ----------------------------------------
        BYTE   W96
        BYTE   W24
// 064   ----------------------------------------
        BYTE   W96
        BYTE   W24
// 065   ----------------------------------------
        BYTE   W96
        BYTE   W24
// 066   ----------------------------------------
        BYTE   W96
        BYTE   W24
// 067   ----------------------------------------
        BYTE   W24
        BYTE   FINE

//***************** Track 12 (Midi-Chn.13) *****************//

shadowsOfIllusion_12:
        BYTE   KEYSH   shadowsOfIllusion_key+0
// 000   ----------------------------------------
shadowsOfIllusion_12_LOOP:
        BYTE           VOICE   122
        BYTE           VOL     34
        BYTE   W96
        BYTE   W12
// 001   ----------------------------------------
        BYTE   W96
// 002   ----------------------------------------
        BYTE   W96
        BYTE           N10     Cs2   v100
        BYTE   W12
// 003   ----------------------------------------
        BYTE           N16
        BYTE   W18
        BYTE                   Cs2
        BYTE   W18
        BYTE                   Cs2
        BYTE   W18
        BYTE                   Cs2
        BYTE   W42
// 004   ----------------------------------------
        BYTE                   Cs2
        BYTE   W18
        BYTE           N04     As1
        BYTE   W06
        BYTE                   Fs1
        BYTE   W06
        BYTE                   Fs1
        BYTE   W06
        BYTE                   Fs1
        BYTE   W06
        BYTE                   Fs1
        BYTE   W06
        BYTE                   As1
        BYTE   W06
        BYTE                   Fs1
        BYTE   W06
        BYTE                   Fs1
        BYTE   W06
        BYTE                   Fs1
        BYTE   W06
        BYTE                   Fs1
        BYTE   W06
        BYTE                   Fs1
        BYTE   W06
        BYTE                   Fs1
        BYTE   W06
        BYTE                   Fs1
        BYTE   W06
        BYTE           N10     As1
        BYTE   W12
// 005   ----------------------------------------
shadowsOfIllusion_12_5:
        BYTE           N04     Fs1   v100
        BYTE   W06
        BYTE                   Fs1
        BYTE   W06
        BYTE                   Fs1
        BYTE   W06
        BYTE                   As1
        BYTE   W06
        BYTE                   Fs1
        BYTE   W06
        BYTE                   Fs1
        BYTE   W06
        BYTE                   Fs1
        BYTE   W06
        BYTE                   Fs1
        BYTE   W06
        BYTE                   Fs1
        BYTE   W06
        BYTE                   As1
        BYTE   W06
        BYTE                   Fs1
        BYTE   W06
        BYTE                   Fs1
        BYTE   W06
        BYTE                   Fs1
        BYTE   W06
        BYTE                   Fs1
        BYTE   W06
        BYTE           N10     As1
        BYTE   W12
        BYTE   PEND
// 006   ----------------------------------------
shadowsOfIllusion_12_6:
        BYTE           N04     Fs1   v100
        BYTE   W06
        BYTE                   Fs1
        BYTE   W06
        BYTE                   Fs1
        BYTE   W06
        BYTE                   As1
        BYTE   W06
        BYTE                   Fs1
        BYTE   W06
        BYTE                   Fs1
        BYTE   W06
        BYTE                   Fs1
        BYTE   W06
        BYTE                   Fs1
        BYTE   W06
        BYTE                   As1
        BYTE   W06
        BYTE                   Fs1
        BYTE   W06
        BYTE                   Fs1
        BYTE   W06
        BYTE                   Fs1
        BYTE   W06
        BYTE                   Fs1
        BYTE   W06
        BYTE                   Fs1
        BYTE   W06
        BYTE                   Fs1
        BYTE   W06
        BYTE                   Fs1
        BYTE   W06
        BYTE           N10     As1
        BYTE   W12
        BYTE   PEND
// 007   ----------------------------------------
        BYTE   PATT
         POIN2  shadowsOfIllusion_12_5
// 008   ----------------------------------------
        BYTE   PATT
         POIN2  shadowsOfIllusion_12_6
// 009   ----------------------------------------
        BYTE   PATT
         POIN2  shadowsOfIllusion_12_5
// 010   ----------------------------------------
        BYTE   PATT
         POIN2  shadowsOfIllusion_12_6
// 011   ----------------------------------------
        BYTE   PATT
         POIN2  shadowsOfIllusion_12_5
// 012   ----------------------------------------
        BYTE   PATT
         POIN2  shadowsOfIllusion_12_6
// 013   ----------------------------------------
        BYTE   PATT
         POIN2  shadowsOfIllusion_12_5
// 014   ----------------------------------------
        BYTE   PATT
         POIN2  shadowsOfIllusion_12_6
// 015   ----------------------------------------
        BYTE   PATT
         POIN2  shadowsOfIllusion_12_5
// 016   ----------------------------------------
shadowsOfIllusion_12_16:
        BYTE           N16     Cs2   v100
        BYTE   W18
        BYTE           N04     As1
        BYTE   W06
        BYTE                   Fs1
        BYTE   W06
        BYTE                   Fs1
        BYTE   W06
        BYTE                   Fs1
        BYTE   W06
        BYTE                   Fs1
        BYTE   W06
        BYTE                   As1
        BYTE   W06
        BYTE                   Fs1
        BYTE   W06
        BYTE                   Fs1
        BYTE   W06
        BYTE                   Fs1
        BYTE   W06
        BYTE                   Fs1
        BYTE   W06
        BYTE                   As1
        BYTE   W06
        BYTE                   Fs1
        BYTE   W06
        BYTE                   Fs1
        BYTE   W06
        BYTE                   Fs1
        BYTE   W06
        BYTE                   Fs1
        BYTE   W06
        BYTE                   As1
        BYTE   W06
        BYTE                   Fs1
        BYTE   W06
        BYTE   PEND
// 017   ----------------------------------------
shadowsOfIllusion_12_17:
        BYTE           N04     Fs1   v100
        BYTE   W06
        BYTE                   Fs1
        BYTE   W06
        BYTE                   Fs1
        BYTE   W06
        BYTE                   As1
        BYTE   W06
        BYTE                   Fs1
        BYTE   W06
        BYTE                   Fs1
        BYTE   W06
        BYTE                   Fs1
        BYTE   W06
        BYTE                   Fs1
        BYTE   W06
        BYTE                   As1
        BYTE   W06
        BYTE                   Fs1
        BYTE   W06
        BYTE                   Fs1
        BYTE   W06
        BYTE                   Fs1
        BYTE   W06
        BYTE                   Fs1
        BYTE   W06
        BYTE                   As1
        BYTE   W06
        BYTE                   Fs1
        BYTE   W06
        BYTE                   Fs1
        BYTE   W06
        BYTE                   Fs1
        BYTE   W06
        BYTE                   Fs1
        BYTE   W06
        BYTE                   As1
        BYTE   W06
        BYTE                   Fs1
        BYTE   W06
        BYTE   PEND
// 018   ----------------------------------------
        BYTE   PATT
         POIN2  shadowsOfIllusion_12_16
// 019   ----------------------------------------
        BYTE   PATT
         POIN2  shadowsOfIllusion_12_17
// 020   ----------------------------------------
        BYTE   PATT
         POIN2  shadowsOfIllusion_12_16
// 021   ----------------------------------------
        BYTE   PATT
         POIN2  shadowsOfIllusion_12_17
// 022   ----------------------------------------
        BYTE   PATT
         POIN2  shadowsOfIllusion_12_16
// 023   ----------------------------------------
        BYTE   PATT
         POIN2  shadowsOfIllusion_12_17
// 024   ----------------------------------------
        BYTE   GoTo
         POIN2  shadowsOfIllusion_12_LOOP
        BYTE   W96
        BYTE   W24
// 025   ----------------------------------------
        BYTE   W96
        BYTE   W24
// 026   ----------------------------------------
        BYTE   W60
        BYTE           N10     Cs2   v100
        BYTE   W12
        BYTE           N16
        BYTE   W18
        BYTE                   Cs2
        BYTE   W18
        BYTE                   Cs2
        BYTE   W12
// 027   ----------------------------------------
        BYTE   W06
        BYTE                   Cs2
        BYTE   W42
        BYTE                   Cs2
        BYTE   W18
        BYTE           N04     As1
        BYTE   W06
        BYTE                   Fs1
        BYTE   W06
        BYTE                   Fs1
        BYTE   W06
        BYTE                   Fs1
        BYTE   W06
        BYTE                   Fs1
        BYTE   W06
        BYTE                   As1
        BYTE   W06
        BYTE                   Fs1
        BYTE   W06
        BYTE                   Fs1
        BYTE   W06
        BYTE                   Fs1
        BYTE   W06
// 028   ----------------------------------------
shadowsOfIllusion_12_28:
        BYTE           N04     Fs1   v100
        BYTE   W06
        BYTE                   Fs1
        BYTE   W06
        BYTE                   Fs1
        BYTE   W06
        BYTE                   Fs1
        BYTE   W06
        BYTE           N10     As1
        BYTE   W12
        BYTE           N04     Fs1
        BYTE   W06
        BYTE                   Fs1
        BYTE   W06
        BYTE                   Fs1
        BYTE   W06
        BYTE                   As1
        BYTE   W06
        BYTE                   Fs1
        BYTE   W06
        BYTE                   Fs1
        BYTE   W06
        BYTE                   Fs1
        BYTE   W06
        BYTE                   Fs1
        BYTE   W06
        BYTE                   Fs1
        BYTE   W06
        BYTE                   As1
        BYTE   W06
        BYTE                   Fs1
        BYTE   W06
        BYTE                   Fs1
        BYTE   W06
        BYTE                   Fs1
        BYTE   W06
        BYTE                   Fs1
        BYTE   W06
        BYTE   PEND
// 029   ----------------------------------------
shadowsOfIllusion_12_29:
        BYTE           N10     As1   v100
        BYTE   W12
        BYTE           N04     Fs1
        BYTE   W06
        BYTE                   Fs1
        BYTE   W06
        BYTE                   Fs1
        BYTE   W06
        BYTE                   As1
        BYTE   W06
        BYTE                   Fs1
        BYTE   W06
        BYTE                   Fs1
        BYTE   W06
        BYTE                   Fs1
        BYTE   W06
        BYTE                   Fs1
        BYTE   W06
        BYTE                   As1
        BYTE   W06
        BYTE                   Fs1
        BYTE   W06
        BYTE                   Fs1
        BYTE   W06
        BYTE                   Fs1
        BYTE   W06
        BYTE                   Fs1
        BYTE   W06
        BYTE                   Fs1
        BYTE   W06
        BYTE                   Fs1
        BYTE   W06
        BYTE                   Fs1
        BYTE   W06
        BYTE           N10     As1
        BYTE   W12
        BYTE   PEND
// 030   ----------------------------------------
shadowsOfIllusion_12_30:
        BYTE           N04     Fs1   v100
        BYTE   W06
        BYTE                   Fs1
        BYTE   W06
        BYTE                   Fs1
        BYTE   W06
        BYTE                   As1
        BYTE   W06
        BYTE                   Fs1
        BYTE   W06
        BYTE                   Fs1
        BYTE   W06
        BYTE                   Fs1
        BYTE   W06
        BYTE                   Fs1
        BYTE   W06
        BYTE                   Fs1
        BYTE   W06
        BYTE                   As1
        BYTE   W06
        BYTE                   Fs1
        BYTE   W06
        BYTE                   Fs1
        BYTE   W06
        BYTE                   Fs1
        BYTE   W06
        BYTE                   Fs1
        BYTE   W06
        BYTE           N10     As1
        BYTE   W12
        BYTE           N04     Fs1
        BYTE   W06
        BYTE                   Fs1
        BYTE   W06
        BYTE                   Fs1
        BYTE   W06
        BYTE                   As1
        BYTE   W06
        BYTE   PEND
// 031   ----------------------------------------
shadowsOfIllusion_12_31:
        BYTE           N04     Fs1   v100
        BYTE   W06
        BYTE                   Fs1
        BYTE   W06
        BYTE                   Fs1
        BYTE   W06
        BYTE                   Fs1
        BYTE   W06
        BYTE                   As1
        BYTE   W06
        BYTE                   Fs1
        BYTE   W06
        BYTE                   Fs1
        BYTE   W06
        BYTE                   Fs1
        BYTE   W06
        BYTE                   Fs1
        BYTE   W06
        BYTE                   Fs1
        BYTE   W06
        BYTE                   Fs1
        BYTE   W06
        BYTE                   Fs1
        BYTE   W06
        BYTE           N10     As1
        BYTE   W12
        BYTE           N04     Fs1
        BYTE   W06
        BYTE                   Fs1
        BYTE   W06
        BYTE                   Fs1
        BYTE   W06
        BYTE                   As1
        BYTE   W06
        BYTE                   Fs1
        BYTE   W06
        BYTE                   Fs1
        BYTE   W06
        BYTE   PEND
// 032   ----------------------------------------
shadowsOfIllusion_12_32:
        BYTE           N04     Fs1   v100
        BYTE   W06
        BYTE                   Fs1
        BYTE   W06
        BYTE                   Fs1
        BYTE   W06
        BYTE                   As1
        BYTE   W06
        BYTE                   Fs1
        BYTE   W06
        BYTE                   Fs1
        BYTE   W06
        BYTE                   Fs1
        BYTE   W06
        BYTE                   Fs1
        BYTE   W06
        BYTE           N10     As1
        BYTE   W12
        BYTE           N04     Fs1
        BYTE   W06
        BYTE                   Fs1
        BYTE   W06
        BYTE                   Fs1
        BYTE   W06
        BYTE                   As1
        BYTE   W06
        BYTE                   Fs1
        BYTE   W06
        BYTE                   Fs1
        BYTE   W06
        BYTE                   Fs1
        BYTE   W06
        BYTE                   Fs1
        BYTE   W06
        BYTE                   As1
        BYTE   W06
        BYTE                   Fs1
        BYTE   W06
        BYTE   PEND
// 033   ----------------------------------------
shadowsOfIllusion_12_33:
        BYTE           N04     Fs1   v100
        BYTE   W06
        BYTE                   Fs1
        BYTE   W06
        BYTE                   Fs1
        BYTE   W06
        BYTE                   Fs1
        BYTE   W06
        BYTE                   Fs1
        BYTE   W06
        BYTE                   Fs1
        BYTE   W06
        BYTE           N10     As1
        BYTE   W12
        BYTE           N04     Fs1
        BYTE   W06
        BYTE                   Fs1
        BYTE   W06
        BYTE                   Fs1
        BYTE   W06
        BYTE                   As1
        BYTE   W06
        BYTE                   Fs1
        BYTE   W06
        BYTE                   Fs1
        BYTE   W06
        BYTE                   Fs1
        BYTE   W06
        BYTE                   Fs1
        BYTE   W06
        BYTE                   Fs1
        BYTE   W06
        BYTE                   As1
        BYTE   W06
        BYTE                   Fs1
        BYTE   W06
        BYTE                   Fs1
        BYTE   W06
        BYTE   PEND
// 034   ----------------------------------------
        BYTE                   Fs1
        BYTE   W06
        BYTE                   Fs1
        BYTE   W06
        BYTE           N10     As1
        BYTE   W12
        BYTE           N04     Fs1
        BYTE   W06
        BYTE                   Fs1
        BYTE   W06
        BYTE                   Fs1
        BYTE   W06
        BYTE                   As1
        BYTE   W06
        BYTE                   Fs1
        BYTE   W06
        BYTE                   Fs1
        BYTE   W06
        BYTE                   Fs1
        BYTE   W06
        BYTE                   Fs1
        BYTE   W06
        BYTE                   As1
        BYTE   W06
        BYTE                   Fs1
        BYTE   W06
        BYTE                   Fs1
        BYTE   W06
        BYTE                   Fs1
        BYTE   W06
        BYTE                   Fs1
        BYTE   W06
        BYTE                   Fs1
        BYTE   W06
        BYTE                   Fs1
        BYTE   W06
        BYTE                   Fs1
        BYTE   W06
// 035   ----------------------------------------
        BYTE           N10     As1
        BYTE   W12
        BYTE           N04     Fs1
        BYTE   W06
        BYTE                   Fs1
        BYTE   W06
        BYTE                   Fs1
        BYTE   W06
        BYTE                   As1
        BYTE   W06
        BYTE                   Fs1
        BYTE   W06
        BYTE                   Fs1
        BYTE   W06
        BYTE                   Fs1
        BYTE   W06
        BYTE                   Fs1
        BYTE   W06
        BYTE                   Fs1
        BYTE   W06
        BYTE                   As1
        BYTE   W06
        BYTE                   Fs1
        BYTE   W06
        BYTE                   Fs1
        BYTE   W06
        BYTE                   Fs1
        BYTE   W06
        BYTE                   Fs1
        BYTE   W06
        BYTE           N10     As1
        BYTE   W12
        BYTE           N04     Fs1
        BYTE   W06
        BYTE                   Fs1
        BYTE   W06
// 036   ----------------------------------------
        BYTE                   Fs1
        BYTE   W06
        BYTE                   As1
        BYTE   W06
        BYTE                   Fs1
        BYTE   W06
        BYTE                   Fs1
        BYTE   W06
        BYTE                   Fs1
        BYTE   W06
        BYTE                   Fs1
        BYTE   W06
        BYTE                   As1
        BYTE   W06
        BYTE                   Fs1
        BYTE   W06
        BYTE                   Fs1
        BYTE   W06
        BYTE                   Fs1
        BYTE   W06
        BYTE                   Fs1
        BYTE   W06
        BYTE                   Fs1
        BYTE   W06
        BYTE                   Fs1
        BYTE   W06
        BYTE                   Fs1
        BYTE   W06
        BYTE           N10     As1
        BYTE   W12
        BYTE           N04     Fs1
        BYTE   W06
        BYTE                   Fs1
        BYTE   W06
        BYTE                   Fs1
        BYTE   W06
        BYTE                   As1
        BYTE   W06
// 037   ----------------------------------------
        BYTE                   Fs1
        BYTE   W06
        BYTE                   Fs1
        BYTE   W06
        BYTE                   Fs1
        BYTE   W06
        BYTE                   Fs1
        BYTE   W06
        BYTE                   Fs1
        BYTE   W06
        BYTE                   As1
        BYTE   W06
        BYTE                   Fs1
        BYTE   W06
        BYTE                   Fs1
        BYTE   W06
        BYTE                   Fs1
        BYTE   W06
        BYTE                   Fs1
        BYTE   W06
        BYTE           N10     As1
        BYTE   W12
        BYTE           N16     Cs2
        BYTE   W18
        BYTE           N04     As1
        BYTE   W06
        BYTE                   Fs1
        BYTE   W06
        BYTE                   Fs1
        BYTE   W06
        BYTE                   Fs1
        BYTE   W06
        BYTE                   Fs1
        BYTE   W06
// 038   ----------------------------------------
shadowsOfIllusion_12_38:
        BYTE           N04     As1   v100
        BYTE   W06
        BYTE                   Fs1
        BYTE   W06
        BYTE                   Fs1
        BYTE   W06
        BYTE                   Fs1
        BYTE   W06
        BYTE                   Fs1
        BYTE   W06
        BYTE                   As1
        BYTE   W06
        BYTE                   Fs1
        BYTE   W06
        BYTE                   Fs1
        BYTE   W06
        BYTE                   Fs1
        BYTE   W06
        BYTE                   Fs1
        BYTE   W06
        BYTE                   As1
        BYTE   W06
        BYTE                   Fs1
        BYTE   W06
        BYTE                   Fs1
        BYTE   W06
        BYTE                   Fs1
        BYTE   W06
        BYTE                   Fs1
        BYTE   W06
        BYTE                   As1
        BYTE   W06
        BYTE                   Fs1
        BYTE   W06
        BYTE                   Fs1
        BYTE   W06
        BYTE                   Fs1
        BYTE   W06
        BYTE                   Fs1
        BYTE   W06
        BYTE   PEND
// 039   ----------------------------------------
shadowsOfIllusion_12_39:
        BYTE           N04     As1   v100
        BYTE   W06
        BYTE                   Fs1
        BYTE   W06
        BYTE                   Fs1
        BYTE   W06
        BYTE                   Fs1
        BYTE   W06
        BYTE                   Fs1
        BYTE   W06
        BYTE                   As1
        BYTE   W06
        BYTE                   Fs1
        BYTE   W06
        BYTE                   Fs1
        BYTE   W06
        BYTE                   Fs1
        BYTE   W06
        BYTE                   Fs1
        BYTE   W06
        BYTE                   As1
        BYTE   W06
        BYTE                   Fs1
        BYTE   W06
        BYTE           N16     Cs2
        BYTE   W18
        BYTE           N04     As1
        BYTE   W06
        BYTE                   Fs1
        BYTE   W06
        BYTE                   Fs1
        BYTE   W06
        BYTE                   Fs1
        BYTE   W06
        BYTE                   Fs1
        BYTE   W06
        BYTE   PEND
// 040   ----------------------------------------
        BYTE   PATT
         POIN2  shadowsOfIllusion_12_38
// 041   ----------------------------------------
        BYTE   PATT
         POIN2  shadowsOfIllusion_12_39
// 042   ----------------------------------------
        BYTE   PATT
         POIN2  shadowsOfIllusion_12_38
// 043   ----------------------------------------
        BYTE   PATT
         POIN2  shadowsOfIllusion_12_39
// 044   ----------------------------------------
        BYTE   PATT
         POIN2  shadowsOfIllusion_12_38
// 045   ----------------------------------------
        BYTE           N04     As1   v100
        BYTE   W06
        BYTE                   Fs1
        BYTE   W06
        BYTE                   Fs1
        BYTE   W06
        BYTE                   Fs1
        BYTE   W06
        BYTE                   Fs1
        BYTE   W06
        BYTE                   As1
        BYTE   W06
        BYTE                   Fs1
        BYTE   W06
        BYTE                   Fs1
        BYTE   W06
        BYTE                   Fs1
        BYTE   W06
        BYTE                   Fs1
        BYTE   W06
        BYTE                   As1
        BYTE   W06
        BYTE                   Fs1
        BYTE   W54
// 046   ----------------------------------------
        BYTE   W96
        BYTE   W24
// 047   ----------------------------------------
        BYTE   W96
        BYTE   W24
// 048   ----------------------------------------
        BYTE   W12
        BYTE           N10     Cs2
        BYTE   W12
        BYTE           N16
        BYTE   W18
        BYTE                   Cs2
        BYTE   W18
        BYTE                   Cs2
        BYTE   W18
        BYTE                   Cs2
        BYTE   W42
// 049   ----------------------------------------
        BYTE                   Cs2
        BYTE   W18
        BYTE           N04     As1
        BYTE   W06
        BYTE                   Fs1
        BYTE   W06
        BYTE                   Fs1
        BYTE   W06
        BYTE                   Fs1
        BYTE   W06
        BYTE                   Fs1
        BYTE   W06
        BYTE                   As1
        BYTE   W06
        BYTE                   Fs1
        BYTE   W06
        BYTE                   Fs1
        BYTE   W06
        BYTE                   Fs1
        BYTE   W06
        BYTE                   Fs1
        BYTE   W06
        BYTE                   Fs1
        BYTE   W06
        BYTE                   Fs1
        BYTE   W06
        BYTE                   Fs1
        BYTE   W06
        BYTE           N10     As1
        BYTE   W12
        BYTE           N04     Fs1
        BYTE   W06
        BYTE                   Fs1
        BYTE   W06
// 050   ----------------------------------------
        BYTE                   Fs1
        BYTE   W06
        BYTE                   As1
        BYTE   W06
        BYTE                   Fs1
        BYTE   W06
        BYTE                   Fs1
        BYTE   W06
        BYTE                   Fs1
        BYTE   W06
        BYTE                   Fs1
        BYTE   W06
        BYTE                   Fs1
        BYTE   W06
        BYTE                   As1
        BYTE   W06
        BYTE                   Fs1
        BYTE   W06
        BYTE                   Fs1
        BYTE   W06
        BYTE                   Fs1
        BYTE   W06
        BYTE                   Fs1
        BYTE   W06
        BYTE           N10     As1
        BYTE   W12
        BYTE           N04     Fs1
        BYTE   W06
        BYTE                   Fs1
        BYTE   W06
        BYTE                   Fs1
        BYTE   W06
        BYTE                   As1
        BYTE   W06
        BYTE                   Fs1
        BYTE   W06
        BYTE                   Fs1
        BYTE   W06
// 051   ----------------------------------------
        BYTE                   Fs1
        BYTE   W06
        BYTE                   Fs1
        BYTE   W06
        BYTE                   As1
        BYTE   W06
        BYTE                   Fs1
        BYTE   W06
        BYTE                   Fs1
        BYTE   W06
        BYTE                   Fs1
        BYTE   W06
        BYTE                   Fs1
        BYTE   W06
        BYTE                   Fs1
        BYTE   W06
        BYTE                   Fs1
        BYTE   W06
        BYTE                   Fs1
        BYTE   W06
        BYTE           N10     As1
        BYTE   W12
        BYTE           N04     Fs1
        BYTE   W06
        BYTE                   Fs1
        BYTE   W06
        BYTE                   Fs1
        BYTE   W06
        BYTE                   As1
        BYTE   W06
        BYTE                   Fs1
        BYTE   W06
        BYTE                   Fs1
        BYTE   W06
        BYTE                   Fs1
        BYTE   W06
        BYTE                   Fs1
        BYTE   W06
// 052   ----------------------------------------
        BYTE                   Fs1
        BYTE   W06
        BYTE                   As1
        BYTE   W06
        BYTE                   Fs1
        BYTE   W06
        BYTE                   Fs1
        BYTE   W06
        BYTE                   Fs1
        BYTE   W06
        BYTE                   Fs1
        BYTE   W06
        BYTE           N10     As1
        BYTE   W12
        BYTE           N04     Fs1
        BYTE   W06
        BYTE                   Fs1
        BYTE   W06
        BYTE                   Fs1
        BYTE   W06
        BYTE                   As1
        BYTE   W06
        BYTE                   Fs1
        BYTE   W06
        BYTE                   Fs1
        BYTE   W06
        BYTE                   Fs1
        BYTE   W06
        BYTE                   Fs1
        BYTE   W06
        BYTE                   As1
        BYTE   W06
        BYTE                   Fs1
        BYTE   W06
        BYTE                   Fs1
        BYTE   W06
        BYTE                   Fs1
        BYTE   W06
// 053   ----------------------------------------
        BYTE   PATT
         POIN2  shadowsOfIllusion_12_28
// 054   ----------------------------------------
        BYTE   PATT
         POIN2  shadowsOfIllusion_12_29
// 055   ----------------------------------------
        BYTE   PATT
         POIN2  shadowsOfIllusion_12_30
// 056   ----------------------------------------
        BYTE   PATT
         POIN2  shadowsOfIllusion_12_31
// 057   ----------------------------------------
        BYTE   PATT
         POIN2  shadowsOfIllusion_12_32
// 058   ----------------------------------------
        BYTE   PATT
         POIN2  shadowsOfIllusion_12_33
// 059   ----------------------------------------
        BYTE           N04     Fs1   v100
        BYTE   W06
        BYTE                   Fs1
        BYTE   W06
        BYTE           N10     As1
        BYTE   W12
        BYTE           N16     Cs2
        BYTE   W18
        BYTE           N04     As1   v099
        BYTE   W06
        BYTE                   Fs1
        BYTE   W06
        BYTE                   Fs1   v098
        BYTE   W06
        BYTE                   Fs1
        BYTE   W06
        BYTE                   Fs1
        BYTE   W06
        BYTE                   As1   v097
        BYTE   W06
        BYTE                   Fs1
        BYTE   W06
        BYTE                   Fs1   v096
        BYTE   W06
        BYTE                   Fs1
        BYTE   W06
        BYTE                   Fs1   v095
        BYTE   W06
        BYTE                   As1
        BYTE   W06
        BYTE                   Fs1
        BYTE   W06
        BYTE                   Fs1   v094
        BYTE   W06
// 060   ----------------------------------------
        BYTE                   Fs1
        BYTE   W06
        BYTE                   Fs1   v093
        BYTE   W06
        BYTE                   As1
        BYTE   W06
        BYTE                   Fs1   v092
        BYTE   W06
        BYTE                   Fs1
        BYTE   W06
        BYTE                   Fs1
        BYTE   W06
        BYTE                   Fs1   v091
        BYTE   W06
        BYTE                   As1
        BYTE   W06
        BYTE                   Fs1   v090
        BYTE   W06
        BYTE                   Fs1
        BYTE   W06
        BYTE                   Fs1   v089
        BYTE   W06
        BYTE                   Fs1
        BYTE   W06
        BYTE                   As1
        BYTE   W06
        BYTE                   Fs1   v088
        BYTE   W06
        BYTE                   Fs1
        BYTE   W06
        BYTE                   Fs1   v087
        BYTE   W06
        BYTE                   Fs1
        BYTE   W06
        BYTE                   As1   v086
        BYTE   W06
        BYTE                   Fs1
        BYTE   W06
        BYTE                   Fs1
        BYTE   W06
// 061   ----------------------------------------
        BYTE                   Fs1   v085
        BYTE   W06
        BYTE                   Fs1
        BYTE   W06
        BYTE                   As1   v084
        BYTE   W06
        BYTE                   Fs1
        BYTE   W06
        BYTE           N16     Cs2   v083
        BYTE   W18
        BYTE           N04     As1   v082
        BYTE   W06
        BYTE                   Fs1
        BYTE   W06
        BYTE                   Fs1   v081
        BYTE   W06
        BYTE                   Fs1
        BYTE   W06
        BYTE                   Fs1
        BYTE   W06
        BYTE                   As1   v080
        BYTE   W06
        BYTE                   Fs1
        BYTE   W06
        BYTE                   Fs1   v079
        BYTE   W06
        BYTE                   Fs1
        BYTE   W06
        BYTE                   Fs1   v078
        BYTE   W06
        BYTE                   As1
        BYTE   W06
        BYTE                   Fs1
        BYTE   W06
        BYTE                   Fs1   v077
        BYTE   W06
// 062   ----------------------------------------
        BYTE                   Fs1
        BYTE   W06
        BYTE                   Fs1   v076
        BYTE   W06
        BYTE                   As1
        BYTE   W06
        BYTE                   Fs1   v075
        BYTE   W06
        BYTE                   Fs1
        BYTE   W06
        BYTE                   Fs1
        BYTE   W06
        BYTE                   Fs1   v074
        BYTE   W06
        BYTE                   As1
        BYTE   W06
        BYTE                   Fs1   v073
        BYTE   W06
        BYTE                   Fs1
        BYTE   W06
        BYTE                   Fs1   v072
        BYTE   W06
        BYTE                   Fs1
        BYTE   W06
        BYTE                   As1
        BYTE   W06
        BYTE                   Fs1   v071
        BYTE   W06
        BYTE                   Fs1
        BYTE   W06
        BYTE                   Fs1   v070
        BYTE   W06
        BYTE                   Fs1
        BYTE   W06
        BYTE                   As1   v069
        BYTE   W06
        BYTE                   Fs1
        BYTE   W06
        BYTE                   Fs1
        BYTE   W06
// 063   ----------------------------------------
        BYTE                   Fs1   v068
        BYTE   W06
        BYTE                   Fs1
        BYTE   W06
        BYTE                   As1   v067
        BYTE   W06
        BYTE                   Fs1
        BYTE   W06
        BYTE           N16     Cs2   v066
        BYTE   W18
        BYTE           N04     As1   v065
        BYTE   W06
        BYTE                   Fs1
        BYTE   W06
        BYTE                   Fs1   v064
        BYTE   W06
        BYTE                   Fs1
        BYTE   W06
        BYTE                   Fs1
        BYTE   W06
        BYTE                   As1   v063
        BYTE   W06
        BYTE                   Fs1
        BYTE   W06
        BYTE                   Fs1   v062
        BYTE   W06
        BYTE                   Fs1
        BYTE   W06
        BYTE                   Fs1   v061
        BYTE   W06
        BYTE                   As1
        BYTE   W06
        BYTE                   Fs1
        BYTE   W06
        BYTE                   Fs1   v060
        BYTE   W06
// 064   ----------------------------------------
        BYTE                   Fs1
        BYTE   W06
        BYTE                   Fs1   v059
        BYTE   W06
        BYTE                   As1
        BYTE   W06
        BYTE                   Fs1   v058
        BYTE   W06
        BYTE                   Fs1
        BYTE   W06
        BYTE                   Fs1
        BYTE   W06
        BYTE                   Fs1   v057
        BYTE   W06
        BYTE                   As1
        BYTE   W06
        BYTE                   Fs1   v056
        BYTE   W06
        BYTE                   Fs1
        BYTE   W06
        BYTE                   Fs1   v055
        BYTE   W06
        BYTE                   Fs1
        BYTE   W06
        BYTE                   As1
        BYTE   W06
        BYTE                   Fs1   v054
        BYTE   W06
        BYTE                   Fs1
        BYTE   W06
        BYTE                   Fs1   v053
        BYTE   W06
        BYTE                   Fs1
        BYTE   W06
        BYTE                   As1   v052
        BYTE   W06
        BYTE                   Fs1
        BYTE   W06
        BYTE                   Fs1
        BYTE   W06
// 065   ----------------------------------------
        BYTE                   Fs1   v051
        BYTE   W06
        BYTE                   Fs1
        BYTE   W06
        BYTE                   As1   v050
        BYTE   W06
        BYTE                   Fs1
        BYTE   W06
        BYTE           N16     Cs2   v048
        BYTE   W18
        BYTE           N04     As1   v046
        BYTE   W06
        BYTE                   Fs1   v045
        BYTE   W06
        BYTE                   Fs1   v044
        BYTE   W06
        BYTE                   Fs1
        BYTE   W06
        BYTE                   Fs1   v043
        BYTE   W06
        BYTE                   As1   v042
        BYTE   W06
        BYTE                   Fs1   v041
        BYTE   W06
        BYTE                   Fs1   v040
        BYTE   W06
        BYTE                   Fs1
        BYTE   W06
        BYTE                   Fs1   v039
        BYTE   W06
        BYTE                   As1   v038
        BYTE   W06
        BYTE                   Fs1   v037
        BYTE   W06
        BYTE                   Fs1   v036
        BYTE   W06
// 066   ----------------------------------------
        BYTE                   Fs1
        BYTE   W06
        BYTE                   Fs1   v035
        BYTE   W06
        BYTE                   As1   v034
        BYTE   W06
        BYTE                   Fs1   v033
        BYTE   W06
        BYTE                   Fs1   v032
        BYTE   W06
        BYTE                   Fs1
        BYTE   W06
        BYTE                   Fs1   v031
        BYTE   W06
        BYTE                   As1   v030
        BYTE   W06
        BYTE                   Fs1   v029
        BYTE   W06
        BYTE                   Fs1   v028
        BYTE   W06
        BYTE                   Fs1
        BYTE   W06
        BYTE                   Fs1   v027
        BYTE   W06
        BYTE                   As1   v026
        BYTE   W06
        BYTE                   Fs1   v025
        BYTE   W06
        BYTE                   Fs1   v024
        BYTE   W06
        BYTE                   Fs1
        BYTE   W06
        BYTE                   Fs1   v023
        BYTE   W06
        BYTE                   As1   v022
        BYTE   W06
        BYTE                   Fs1   v021
        BYTE   W06
        BYTE                   Fs1   v020
        BYTE   W06
// 067   ----------------------------------------
        BYTE                   Fs1
        BYTE   W06
        BYTE                   Fs1   v019
        BYTE   W06
        BYTE                   As1   v018
        BYTE   W06
        BYTE                   Fs1   v017
        BYTE   W06
        BYTE   FINE

//***************** Track 13 (Midi-Chn.14) *****************//

shadowsOfIllusion_13:
        BYTE   KEYSH   shadowsOfIllusion_key+0
// 000   ----------------------------------------
shadowsOfIllusion_13_LOOP:
        BYTE           VOICE   122
        BYTE           VOL     34
        BYTE           N10     Cn1   v100
        BYTE           BEND    c_v+15
        BYTE   W18
        BYTE           N10
        BYTE   W18
        BYTE                   Cn1
        BYTE   W72
// 001   ----------------------------------------
        BYTE                   Cn1
        BYTE   W18
        BYTE                   Cn1
        BYTE   W18
        BYTE                   Cn1
        BYTE   W18
        BYTE                   Cn1
        BYTE   W42
// 002   ----------------------------------------
        BYTE                   Cn1
        BYTE   W18
        BYTE                   Cn1
        BYTE   W18
        BYTE                   Cn1
        BYTE   W72
// 003   ----------------------------------------
        BYTE   W06
        BYTE                   Dn1
        BYTE   W12
        BYTE           N04     Cn1
        BYTE   W18
        BYTE                   Cn1
        BYTE   W18
        BYTE                   Cn1
        BYTE   W18
        BYTE           N01     Dn1
        BYTE   W03
        BYTE                   Dn1
        BYTE   W03
        BYTE           N04
        BYTE   W06
        BYTE                   Dn1
        BYTE   W06
        BYTE                   Dn1
        BYTE   W06
// 004   ----------------------------------------
shadowsOfIllusion_13_4:
        BYTE           N10     Cn1   v100
        BYTE   W18
        BYTE                   Dn1
        BYTE   W18
        BYTE                   Cn1
        BYTE   W18
        BYTE                   Dn1
        BYTE   W18
        BYTE                   Cn1
        BYTE   W24
        BYTE                   Dn1
        BYTE   W12
        BYTE   PEND
// 005   ----------------------------------------
shadowsOfIllusion_13_5:
        BYTE           N10     Cn1   v100
        BYTE   W18
        BYTE                   Dn1
        BYTE   W18
        BYTE                   Cn1
        BYTE   W18
        BYTE                   Dn1
        BYTE   W18
        BYTE                   Cn1
        BYTE   W12
        BYTE                   Dn1
        BYTE   W12
        BYTE   PEND
// 006   ----------------------------------------
        BYTE   PATT
         POIN2  shadowsOfIllusion_13_4
// 007   ----------------------------------------
        BYTE   PATT
         POIN2  shadowsOfIllusion_13_5
// 008   ----------------------------------------
        BYTE   PATT
         POIN2  shadowsOfIllusion_13_4
// 009   ----------------------------------------
        BYTE   PATT
         POIN2  shadowsOfIllusion_13_5
// 010   ----------------------------------------
        BYTE   PATT
         POIN2  shadowsOfIllusion_13_4
// 011   ----------------------------------------
        BYTE   PATT
         POIN2  shadowsOfIllusion_13_5
// 012   ----------------------------------------
        BYTE   PATT
         POIN2  shadowsOfIllusion_13_4
// 013   ----------------------------------------
        BYTE   PATT
         POIN2  shadowsOfIllusion_13_5
// 014   ----------------------------------------
        BYTE   PATT
         POIN2  shadowsOfIllusion_13_4
// 015   ----------------------------------------
        BYTE           N10     Cn1   v100
        BYTE   W18
        BYTE                   Dn1
        BYTE   W18
        BYTE                   Cn1
        BYTE   W18
        BYTE                   Dn1
        BYTE   W12
        BYTE           N04
        BYTE   W06
        BYTE                   Cn1
        BYTE   W24
// 016   ----------------------------------------
shadowsOfIllusion_13_16:
        BYTE           N10     Cn1   v100
        BYTE   W18
        BYTE                   Dn1
        BYTE   W12
        BYTE           N04     Cn1
        BYTE   W06
        BYTE                   Cn1
        BYTE   W12
        BYTE           N10     Dn1
        BYTE   W12
        BYTE                   Cn1
        BYTE   W18
        BYTE                   Dn1
        BYTE   W12
        BYTE           N04     Cn1
        BYTE   W06
        BYTE                   Cn1
        BYTE   W12
        BYTE           N10     Dn1
        BYTE   W12
        BYTE   PEND
// 017   ----------------------------------------
        BYTE   PATT
         POIN2  shadowsOfIllusion_13_16
// 018   ----------------------------------------
        BYTE   PATT
         POIN2  shadowsOfIllusion_13_16
// 019   ----------------------------------------
        BYTE   PATT
         POIN2  shadowsOfIllusion_13_16
// 020   ----------------------------------------
        BYTE   PATT
         POIN2  shadowsOfIllusion_13_16
// 021   ----------------------------------------
        BYTE   PATT
         POIN2  shadowsOfIllusion_13_16
// 022   ----------------------------------------
        BYTE   PATT
         POIN2  shadowsOfIllusion_13_16
// 023   ----------------------------------------
        BYTE   PATT
         POIN2  shadowsOfIllusion_13_16
// 024   ----------------------------------------
        BYTE           N10     Cn1   v100
        BYTE   GoTo
         POIN2  shadowsOfIllusion_13_LOOP
        BYTE   W18
        BYTE                   Cn1
        BYTE   W18
        BYTE                   Cn1
        BYTE   W72
        BYTE                   Cn1
        BYTE   W12
// 025   ----------------------------------------
        BYTE   W06
        BYTE                   Cn1
        BYTE   W18
        BYTE                   Cn1
        BYTE   W18
        BYTE                   Cn1
        BYTE   W42
        BYTE                   Cn1
        BYTE   W18
        BYTE                   Cn1
        BYTE   W18
// 026   ----------------------------------------
        BYTE                   Cn1
        BYTE   W78
        BYTE                   Dn1
        BYTE   W12
        BYTE           N04     Cn1
        BYTE   W18
        BYTE                   Cn1
        BYTE   W12
// 027   ----------------------------------------
        BYTE   W06
        BYTE                   Cn1
        BYTE   W18
        BYTE           N01     Dn1
        BYTE   W03
        BYTE                   Dn1
        BYTE   W03
        BYTE           N04
        BYTE   W06
        BYTE                   Dn1
        BYTE   W06
        BYTE                   Dn1
        BYTE   W06
        BYTE           N10     Cn1
        BYTE   W18
        BYTE                   Dn1
        BYTE   W18
        BYTE                   Cn1
        BYTE   W18
        BYTE                   Dn1
        BYTE   W18
// 028   ----------------------------------------
shadowsOfIllusion_13_28:
        BYTE           N10     Cn1   v100
        BYTE   W24
        BYTE                   Dn1
        BYTE   W12
        BYTE                   Cn1
        BYTE   W18
        BYTE                   Dn1
        BYTE   W18
        BYTE                   Cn1
        BYTE   W18
        BYTE                   Dn1
        BYTE   W18
        BYTE                   Cn1
        BYTE   W12
        BYTE   PEND
// 029   ----------------------------------------
shadowsOfIllusion_13_29:
        BYTE           N10     Dn1   v100
        BYTE   W12
        BYTE                   Cn1
        BYTE   W18
        BYTE                   Dn1
        BYTE   W18
        BYTE                   Cn1
        BYTE   W18
        BYTE                   Dn1
        BYTE   W18
        BYTE                   Cn1
        BYTE   W24
        BYTE                   Dn1
        BYTE   W12
        BYTE   PEND
// 030   ----------------------------------------
shadowsOfIllusion_13_30:
        BYTE           N10     Cn1   v100
        BYTE   W18
        BYTE                   Dn1
        BYTE   W18
        BYTE                   Cn1
        BYTE   W18
        BYTE                   Dn1
        BYTE   W18
        BYTE                   Cn1
        BYTE   W12
        BYTE                   Dn1
        BYTE   W12
        BYTE                   Cn1
        BYTE   W18
        BYTE                   Dn1
        BYTE   W06
        BYTE   PEND
// 031   ----------------------------------------
shadowsOfIllusion_13_31:
        BYTE   W12
        BYTE           N10     Cn1   v100
        BYTE   W18
        BYTE                   Dn1
        BYTE   W18
        BYTE                   Cn1
        BYTE   W24
        BYTE                   Dn1
        BYTE   W12
        BYTE                   Cn1
        BYTE   W18
        BYTE                   Dn1
        BYTE   W18
        BYTE   PEND
// 032   ----------------------------------------
shadowsOfIllusion_13_32:
        BYTE           N10     Cn1   v100
        BYTE   W18
        BYTE                   Dn1
        BYTE   W18
        BYTE                   Cn1
        BYTE   W12
        BYTE                   Dn1
        BYTE   W12
        BYTE                   Cn1
        BYTE   W18
        BYTE                   Dn1
        BYTE   W18
        BYTE                   Cn1
        BYTE   W18
        BYTE                   Dn1
        BYTE   W06
        BYTE   PEND
// 033   ----------------------------------------
        BYTE   W12
        BYTE                   Cn1
        BYTE   W24
        BYTE                   Dn1
        BYTE   W12
        BYTE                   Cn1
        BYTE   W18
        BYTE                   Dn1
        BYTE   W18
        BYTE                   Cn1
        BYTE   W18
        BYTE                   Dn1
        BYTE   W18
// 034   ----------------------------------------
        BYTE                   Cn1
        BYTE   W12
        BYTE                   Dn1
        BYTE   W12
        BYTE                   Cn1
        BYTE   W18
        BYTE                   Dn1
        BYTE   W18
        BYTE                   Cn1
        BYTE   W18
        BYTE                   Dn1
        BYTE   W18
        BYTE                   Cn1
        BYTE   W24
// 035   ----------------------------------------
        BYTE                   Dn1
        BYTE   W12
        BYTE                   Cn1
        BYTE   W18
        BYTE                   Dn1
        BYTE   W18
        BYTE                   Cn1
        BYTE   W18
        BYTE                   Dn1
        BYTE   W18
        BYTE                   Cn1
        BYTE   W12
        BYTE                   Dn1
        BYTE   W12
        BYTE                   Cn1
        BYTE   W12
// 036   ----------------------------------------
        BYTE   W06
        BYTE                   Dn1
        BYTE   W18
        BYTE                   Cn1
        BYTE   W18
        BYTE                   Dn1
        BYTE   W18
        BYTE                   Cn1
        BYTE   W24
        BYTE                   Dn1
        BYTE   W12
        BYTE                   Cn1
        BYTE   W18
        BYTE                   Dn1
        BYTE   W06
// 037   ----------------------------------------
        BYTE   W12
        BYTE                   Cn1
        BYTE   W18
        BYTE                   Dn1
        BYTE   W12
        BYTE           N04
        BYTE   W06
        BYTE                   Cn1
        BYTE   W24
        BYTE           N10
        BYTE   W18
        BYTE                   Dn1
        BYTE   W12
        BYTE           N04     Cn1
        BYTE   W06
        BYTE                   Cn1
        BYTE   W12
// 038   ----------------------------------------
shadowsOfIllusion_13_38:
        BYTE           N10     Dn1   v100
        BYTE   W12
        BYTE                   Cn1
        BYTE   W18
        BYTE                   Dn1
        BYTE   W12
        BYTE           N04     Cn1
        BYTE   W06
        BYTE                   Cn1
        BYTE   W12
        BYTE           N10     Dn1
        BYTE   W12
        BYTE                   Cn1
        BYTE   W18
        BYTE                   Dn1
        BYTE   W12
        BYTE           N04     Cn1
        BYTE   W06
        BYTE                   Cn1
        BYTE   W12
        BYTE   PEND
// 039   ----------------------------------------
        BYTE   PATT
         POIN2  shadowsOfIllusion_13_38
// 040   ----------------------------------------
        BYTE   PATT
         POIN2  shadowsOfIllusion_13_38
// 041   ----------------------------------------
        BYTE   PATT
         POIN2  shadowsOfIllusion_13_38
// 042   ----------------------------------------
        BYTE   PATT
         POIN2  shadowsOfIllusion_13_38
// 043   ----------------------------------------
        BYTE   PATT
         POIN2  shadowsOfIllusion_13_38
// 044   ----------------------------------------
        BYTE   PATT
         POIN2  shadowsOfIllusion_13_38
// 045   ----------------------------------------
        BYTE           N10     Dn1   v100
        BYTE   W12
        BYTE                   Cn1
        BYTE   W18
        BYTE                   Dn1
        BYTE   W12
        BYTE           N04     Cn1
        BYTE   W06
        BYTE                   Cn1
        BYTE   W12
        BYTE           N10     Dn1
        BYTE   W12
        BYTE                   Cn1
        BYTE   W18
        BYTE                   Cn1
        BYTE   W18
        BYTE                   Cn1
        BYTE   W12
// 046   ----------------------------------------
        BYTE   W60
        BYTE                   Cn1
        BYTE   W18
        BYTE                   Cn1
        BYTE   W18
        BYTE                   Cn1
        BYTE   W18
        BYTE                   Cn1
        BYTE   W06
// 047   ----------------------------------------
        BYTE   W36
        BYTE                   Cn1
        BYTE   W18
        BYTE                   Cn1
        BYTE   W18
        BYTE                   Cn1
        BYTE   W48
// 048   ----------------------------------------
        BYTE   W30
        BYTE                   Dn1
        BYTE   W12
        BYTE           N04     Cn1
        BYTE   W18
        BYTE                   Cn1
        BYTE   W18
        BYTE                   Cn1
        BYTE   W18
        BYTE           N01     Dn1
        BYTE   W03
        BYTE                   Dn1
        BYTE   W03
        BYTE           N04
        BYTE   W06
        BYTE                   Dn1
        BYTE   W06
        BYTE                   Dn1
        BYTE   W06
// 049   ----------------------------------------
        BYTE           N10     Cn1
        BYTE   W18
        BYTE                   Dn1
        BYTE   W18
        BYTE                   Cn1
        BYTE   W18
        BYTE                   Dn1
        BYTE   W18
        BYTE                   Cn1
        BYTE   W24
        BYTE                   Dn1
        BYTE   W12
        BYTE                   Cn1
        BYTE   W12
// 050   ----------------------------------------
        BYTE   W06
        BYTE                   Dn1
        BYTE   W18
        BYTE                   Cn1
        BYTE   W18
        BYTE                   Dn1
        BYTE   W18
        BYTE                   Cn1
        BYTE   W12
        BYTE                   Dn1
        BYTE   W12
        BYTE                   Cn1
        BYTE   W18
        BYTE                   Dn1
        BYTE   W18
// 051   ----------------------------------------
        BYTE                   Cn1
        BYTE   W18
        BYTE                   Dn1
        BYTE   W18
        BYTE                   Cn1
        BYTE   W24
        BYTE                   Dn1
        BYTE   W12
        BYTE                   Cn1
        BYTE   W18
        BYTE                   Dn1
        BYTE   W18
        BYTE                   Cn1
        BYTE   W12
// 052   ----------------------------------------
        BYTE   W06
        BYTE                   Dn1
        BYTE   W18
        BYTE                   Cn1
        BYTE   W12
        BYTE                   Dn1
        BYTE   W12
        BYTE                   Cn1
        BYTE   W18
        BYTE                   Dn1
        BYTE   W18
        BYTE                   Cn1
        BYTE   W18
        BYTE                   Dn1
        BYTE   W18
// 053   ----------------------------------------
        BYTE   PATT
         POIN2  shadowsOfIllusion_13_28
// 054   ----------------------------------------
        BYTE   PATT
         POIN2  shadowsOfIllusion_13_29
// 055   ----------------------------------------
        BYTE   PATT
         POIN2  shadowsOfIllusion_13_30
// 056   ----------------------------------------
        BYTE   PATT
         POIN2  shadowsOfIllusion_13_31
// 057   ----------------------------------------
        BYTE   PATT
         POIN2  shadowsOfIllusion_13_32
// 058   ----------------------------------------
        BYTE   W12
        BYTE           N10     Cn1   v100
        BYTE   W24
        BYTE                   Dn1
        BYTE   W12
        BYTE                   Cn1
        BYTE   W18
        BYTE                   Dn1
        BYTE   W18
        BYTE                   Cn1
        BYTE   W18
        BYTE                   Dn1
        BYTE   W12
        BYTE           N04
        BYTE   W06
// 059   ----------------------------------------
        BYTE                   Cn1
        BYTE   W24
        BYTE           N10
        BYTE   W18
        BYTE                   Dn1   v099
        BYTE   W12
        BYTE           N04     Cn1   v098
        BYTE   W06
        BYTE                   Cn1
        BYTE   W12
        BYTE           N10     Dn1   v097
        BYTE   W12
        BYTE                   Cn1   v096
        BYTE   W18
        BYTE                   Dn1   v095
        BYTE   W12
        BYTE           N04     Cn1   v094
        BYTE   W06
// 060   ----------------------------------------
        BYTE                   Cn1
        BYTE   W12
        BYTE           N10     Dn1   v093
        BYTE   W12
        BYTE                   Cn1   v092
        BYTE   W18
        BYTE                   Dn1   v091
        BYTE   W12
        BYTE           N04     Cn1   v090
        BYTE   W06
        BYTE                   Cn1   v089
        BYTE   W12
        BYTE           N10     Dn1
        BYTE   W12
        BYTE                   Cn1   v088
        BYTE   W18
        BYTE                   Dn1   v086
        BYTE   W12
        BYTE           N04     Cn1
        BYTE   W06
// 061   ----------------------------------------
        BYTE                   Cn1   v085
        BYTE   W12
        BYTE           N10     Dn1   v084
        BYTE   W12
        BYTE                   Cn1   v083
        BYTE   W18
        BYTE                   Dn1   v082
        BYTE   W12
        BYTE           N04     Cn1   v081
        BYTE   W06
        BYTE                   Cn1
        BYTE   W12
        BYTE           N10     Dn1   v080
        BYTE   W12
        BYTE                   Cn1   v079
        BYTE   W18
        BYTE                   Dn1   v078
        BYTE   W12
        BYTE           N04     Cn1   v077
        BYTE   W06
// 062   ----------------------------------------
        BYTE                   Cn1
        BYTE   W12
        BYTE           N10     Dn1   v076
        BYTE   W12
        BYTE                   Cn1   v075
        BYTE   W18
        BYTE                   Dn1   v074
        BYTE   W12
        BYTE           N04     Cn1   v073
        BYTE   W06
        BYTE                   Cn1   v072
        BYTE   W12
        BYTE           N10     Dn1
        BYTE   W12
        BYTE                   Cn1   v071
        BYTE   W18
        BYTE                   Dn1   v069
        BYTE   W12
        BYTE           N04     Cn1
        BYTE   W06
// 063   ----------------------------------------
        BYTE                   Cn1   v068
        BYTE   W12
        BYTE           N10     Dn1   v067
        BYTE   W12
        BYTE                   Cn1   v066
        BYTE   W18
        BYTE                   Dn1   v065
        BYTE   W12
        BYTE           N04     Cn1   v064
        BYTE   W06
        BYTE                   Cn1
        BYTE   W12
        BYTE           N10     Dn1   v063
        BYTE   W12
        BYTE                   Cn1   v062
        BYTE   W18
        BYTE                   Dn1   v061
        BYTE   W12
        BYTE           N04     Cn1   v060
        BYTE   W06
// 064   ----------------------------------------
        BYTE                   Cn1
        BYTE   W12
        BYTE           N10     Dn1   v059
        BYTE   W12
        BYTE                   Cn1   v058
        BYTE   W18
        BYTE                   Dn1   v057
        BYTE   W12
        BYTE           N04     Cn1   v056
        BYTE   W06
        BYTE                   Cn1   v055
        BYTE   W12
        BYTE           N10     Dn1
        BYTE   W12
        BYTE                   Cn1   v054
        BYTE   W18
        BYTE                   Dn1   v052
        BYTE   W12
        BYTE           N04     Cn1
        BYTE   W06
// 065   ----------------------------------------
        BYTE                   Cn1   v051
        BYTE   W12
        BYTE           N10     Dn1   v050
        BYTE   W12
        BYTE                   Cn1   v048
        BYTE   W18
        BYTE                   Dn1   v046
        BYTE   W12
        BYTE           N04     Cn1   v044
        BYTE   W06
        BYTE                   Cn1
        BYTE   W12
        BYTE           N10     Dn1   v042
        BYTE   W12
        BYTE                   Cn1   v040
        BYTE   W18
        BYTE                   Dn1   v038
        BYTE   W12
        BYTE           N04     Cn1   v036
        BYTE   W06
// 066   ----------------------------------------
        BYTE                   Cn1
        BYTE   W12
        BYTE           N10     Dn1   v034
        BYTE   W12
        BYTE                   Cn1   v032
        BYTE   W18
        BYTE                   Dn1   v030
        BYTE   W12
        BYTE           N04     Cn1   v028
        BYTE   W06
        BYTE                   Cn1
        BYTE   W12
        BYTE           N10     Dn1   v026
        BYTE   W12
        BYTE                   Cn1   v024
        BYTE   W18
        BYTE                   Dn1   v022
        BYTE   W12
        BYTE           N04     Cn1   v020
        BYTE   W06
// 067   ----------------------------------------
        BYTE                   Cn1
        BYTE   W12
        BYTE           N10     Dn1   v018
        BYTE   W12
        BYTE   FINE


//********************** End of Song ***********************//

        ALIGN 4
shadowsOfIllusion:
        BYTE   14                      // Num Tracks
        BYTE   0                       // Unknown
        BYTE   shadowsOfIllusion_pri   // Priority
        BYTE   shadowsOfIllusion_rev   // Reverb

        POIN2   shadowsOfIllusion_grp  

        POIN2   shadowsOfIllusion_0
        POIN2   shadowsOfIllusion_1
        POIN2   shadowsOfIllusion_2
        POIN2   shadowsOfIllusion_3
        POIN2   shadowsOfIllusion_4
        POIN2   shadowsOfIllusion_5
        POIN2   shadowsOfIllusion_6
        POIN2   shadowsOfIllusion_7
        POIN2   shadowsOfIllusion_8
        POIN2   shadowsOfIllusion_9
        POIN2   shadowsOfIllusion_10
        POIN2   shadowsOfIllusion_11
        POIN2   shadowsOfIllusion_12
        POIN2   shadowsOfIllusion_13

        
