//Event file generated from Sappy .s format.
        #include "MPlayDef.event"

        #define    ShakingFrontSight_000_grp  voicegroup000
        #define    ShakingFrontSight_000_pri  0
        #define    ShakingFrontSight_000_rev  0
        #define    ShakingFrontSight_000_key  0

        // .rodata
        // ShakingFrontSight_000
        ALIGN 4

//****************** Track 0 (Midi-Chn.0) ******************//

ShakingFrontSight_000_0:
        BYTE   KEYSH   ShakingFrontSight_000_key+0
// 000   ----------------------------------------
        BYTE   TEMPO   250/2
        BYTE           VOL     39
        BYTE           VOICE   68
        BYTE   W01
        BYTE           PAN     c_v-8
        BYTE   W17
        BYTE   TEMPO   96/2
        BYTE   W06
// 001   ----------------------------------------
ShakingFrontSight_000_0_LOOP:
        BYTE   W24
// 002   ----------------------------------------
        BYTE   W24
// 003   ----------------------------------------
ShakingFrontSight_000_0_3:
        BYTE   W12
        BYTE           N04     En4   v080
        BYTE   W06
        BYTE                   Bn3
        BYTE   W06
        BYTE   PEND
// 004   ----------------------------------------
ShakingFrontSight_000_0_4:
        BYTE   W06
        BYTE           N07     Fs3   v075
        BYTE   W18
        BYTE   PEND
// 005   ----------------------------------------
        BYTE   W24
// 006   ----------------------------------------
        BYTE   W24
// 007   ----------------------------------------
        BYTE   W06
        BYTE           N04     Gn4   v080
        BYTE   W06
        BYTE                   Fn4
        BYTE   W06
        BYTE                   Cn4
        BYTE   W06
// 008   ----------------------------------------
ShakingFrontSight_000_0_8:
        BYTE   W06
        BYTE           N07     Gn3   v075
        BYTE   W18
        BYTE   PEND
// 009   ----------------------------------------
        BYTE   W24
// 010   ----------------------------------------
        BYTE   W24
// 011   ----------------------------------------
        BYTE   W06
        BYTE           N04     Fs4   v080
        BYTE   W06
        BYTE                   En4
        BYTE   W06
        BYTE                   Bn3
        BYTE   W06
// 012   ----------------------------------------
        BYTE   PATT
         POIN2  ShakingFrontSight_000_0_4
// 013   ----------------------------------------
        BYTE   W24
// 014   ----------------------------------------
        BYTE   W24
// 015   ----------------------------------------
        BYTE   W06
        BYTE           N04     Gn4   v080
        BYTE   W06
        BYTE                   En4
        BYTE   W06
        BYTE                   Bn3
        BYTE   W06
// 016   ----------------------------------------
        BYTE   PATT
         POIN2  ShakingFrontSight_000_0_8
// 017   ----------------------------------------
        BYTE   W24
// 018   ----------------------------------------
        BYTE   W24
// 019   ----------------------------------------
        BYTE   W06
        BYTE           N04     Fs4   v080
        BYTE   W06
        BYTE                   Dn4
        BYTE   W06
        BYTE                   Bn3
        BYTE   W06
// 020   ----------------------------------------
        BYTE   PATT
         POIN2  ShakingFrontSight_000_0_4
// 021   ----------------------------------------
        BYTE   W24
// 022   ----------------------------------------
        BYTE   W24
// 023   ----------------------------------------
        BYTE   W12
        BYTE           N04     En4   v080
        BYTE   W06
        BYTE                   Cn4
        BYTE   W06
// 024   ----------------------------------------
        BYTE   PATT
         POIN2  ShakingFrontSight_000_0_8
// 025   ----------------------------------------
        BYTE   W24
// 026   ----------------------------------------
        BYTE   W24
// 027   ----------------------------------------
        BYTE   W12
        BYTE           N04     Dn4   v080
        BYTE   W06
        BYTE                   Bn3
        BYTE   W06
// 028   ----------------------------------------
        BYTE   PATT
         POIN2  ShakingFrontSight_000_0_4
// 029   ----------------------------------------
        BYTE   W24
// 030   ----------------------------------------
        BYTE   W24
// 031   ----------------------------------------
        BYTE   PATT
         POIN2  ShakingFrontSight_000_0_3
// 032   ----------------------------------------
        BYTE   PATT
         POIN2  ShakingFrontSight_000_0_8
// 033   ----------------------------------------
        BYTE   W24
// 034   ----------------------------------------
        BYTE   W24
// 035   ----------------------------------------
        BYTE   W24
// 036   ----------------------------------------
        BYTE   W24
// 037   ----------------------------------------
        BYTE   W24
// 038   ----------------------------------------
        BYTE   W24
// 039   ----------------------------------------
        BYTE   W24
// 040   ----------------------------------------
        BYTE   W24
// 041   ----------------------------------------
        BYTE   W24
// 042   ----------------------------------------
        BYTE   W24
// 043   ----------------------------------------
        BYTE   W24
// 044   ----------------------------------------
        BYTE   W24
// 045   ----------------------------------------
        BYTE   W24
// 046   ----------------------------------------
        BYTE   W24
// 047   ----------------------------------------
        BYTE   W24
// 048   ----------------------------------------
        BYTE   W24
// 049   ----------------------------------------
        BYTE   W24
// 050   ----------------------------------------
        BYTE   W24
// 051   ----------------------------------------
        BYTE   W24
// 052   ----------------------------------------
        BYTE   W24
// 053   ----------------------------------------
        BYTE   W24
// 054   ----------------------------------------
        BYTE   W24
// 055   ----------------------------------------
        BYTE   W24
// 056   ----------------------------------------
        BYTE   W24
// 057   ----------------------------------------
        BYTE   W24
// 058   ----------------------------------------
        BYTE           N24     Fs3   v080
        BYTE   W06
        BYTE           BEND    c_v+1
        BYTE   W01
        BYTE                   c_v+0
        BYTE   W02
        BYTE                   c_v-1
        BYTE   W01
        BYTE                   c_v+0
        BYTE   W02
        BYTE                   c_v+1
        BYTE   W01
        BYTE                   c_v+2
        BYTE   W02
        BYTE                   c_v+1
        BYTE   W01
        BYTE                   c_v+0
        BYTE   W02
        BYTE                   c_v-1
        BYTE   W01
        BYTE                   c_v+0
        BYTE   W02
        BYTE                   c_v+2
        BYTE   W01
        BYTE                   c_v+0
        BYTE   W02
// 059   ----------------------------------------
        BYTE           N24     Cs3
        BYTE   W06
        BYTE           BEND    c_v+1
        BYTE   W01
        BYTE                   c_v+0
        BYTE   W02
        BYTE                   c_v-1
        BYTE   W01
        BYTE                   c_v+0
        BYTE   W02
        BYTE                   c_v+1
        BYTE   W01
        BYTE                   c_v+2
        BYTE   W02
        BYTE                   c_v+1
        BYTE   W01
        BYTE                   c_v+0
        BYTE   W02
        BYTE                   c_v-1
        BYTE   W01
        BYTE                   c_v+0
        BYTE   W02
        BYTE                   c_v+2
        BYTE   W01
        BYTE                   c_v+0
        BYTE   W02
// 060   ----------------------------------------
ShakingFrontSight_000_0_60:
        BYTE           N24     Cs4   v080
        BYTE   W06
        BYTE           BEND    c_v+1
        BYTE   W01
        BYTE                   c_v+0
        BYTE   W02
        BYTE                   c_v-1
        BYTE   W01
        BYTE                   c_v+0
        BYTE   W02
        BYTE                   c_v+1
        BYTE   W01
        BYTE                   c_v+2
        BYTE   W02
        BYTE                   c_v+1
        BYTE   W01
        BYTE                   c_v+0
        BYTE   W02
        BYTE                   c_v-1
        BYTE   W01
        BYTE                   c_v+0
        BYTE   W02
        BYTE                   c_v+2
        BYTE   W01
        BYTE                   c_v+0
        BYTE   W02
        BYTE   PEND
// 061   ----------------------------------------
        BYTE           N04     Bn3
        BYTE   W06
        BYTE                   Cs4
        BYTE   W06
        BYTE           N40     Dn4
        BYTE   W06
        BYTE           BEND    c_v+1
        BYTE   W01
        BYTE                   c_v+0
        BYTE   W02
        BYTE                   c_v-1
        BYTE   W01
        BYTE                   c_v+0
        BYTE   W02
// 062   ----------------------------------------
ShakingFrontSight_000_0_62:
        BYTE           BEND    c_v+1
        BYTE   W01
        BYTE                   c_v+2
        BYTE   W02
        BYTE                   c_v+1
        BYTE   W01
        BYTE                   c_v+0
        BYTE   W02
        BYTE                   c_v-1
        BYTE   W01
        BYTE                   c_v+0
        BYTE   W02
        BYTE                   c_v+1
        BYTE   W01
        BYTE                   c_v+2
        BYTE   W02
        BYTE                   c_v+3
        BYTE   W01
        BYTE                   c_v+2
        BYTE   W02
        BYTE                   c_v+1
        BYTE   W01
        BYTE                   c_v+0
        BYTE   W02
        BYTE                   c_v-1
        BYTE   W01
        BYTE                   c_v-2
        BYTE   W02
        BYTE                   c_v-1
        BYTE   W01
        BYTE                   c_v+0
        BYTE   W02
        BYTE   PEND
// 063   ----------------------------------------
        BYTE                   c_v+1
        BYTE   W01
        BYTE                   c_v+0
        BYTE   W11
        BYTE           N12     Dn4   v080
        BYTE   W06
        BYTE           BEND    c_v+1
        BYTE   W01
        BYTE                   c_v+2
        BYTE   W02
        BYTE                   c_v+1
        BYTE   W01
        BYTE                   c_v+0
        BYTE   W02
// 064   ----------------------------------------
        BYTE           N12     Cs4
        BYTE   W06
        BYTE           BEND    c_v+1
        BYTE   W01
        BYTE                   c_v+2
        BYTE   W02
        BYTE                   c_v+1
        BYTE   W01
        BYTE                   c_v+0
        BYTE   W02
        BYTE           N12     Bn3
        BYTE   W06
        BYTE           BEND    c_v+1
        BYTE   W01
        BYTE                   c_v+2
        BYTE   W02
        BYTE                   c_v+1
        BYTE   W01
        BYTE                   c_v+0
        BYTE   W02
// 065   ----------------------------------------
        BYTE           N16     Fs3
        BYTE   W06
        BYTE           BEND    c_v+1
        BYTE   W01
        BYTE                   c_v+2
        BYTE   W02
        BYTE                   c_v+1
        BYTE   W01
        BYTE                   c_v+0
        BYTE   W14
// 066   ----------------------------------------
ShakingFrontSight_000_0_66:
        BYTE           N24     Bn3   v080
        BYTE   W06
        BYTE           BEND    c_v+1
        BYTE   W01
        BYTE                   c_v+0
        BYTE   W02
        BYTE                   c_v-1
        BYTE   W01
        BYTE                   c_v+0
        BYTE   W02
        BYTE                   c_v+1
        BYTE   W01
        BYTE                   c_v+2
        BYTE   W02
        BYTE                   c_v+1
        BYTE   W01
        BYTE                   c_v+0
        BYTE   W02
        BYTE                   c_v-1
        BYTE   W01
        BYTE                   c_v+0
        BYTE   W02
        BYTE                   c_v+2
        BYTE   W01
        BYTE                   c_v+0
        BYTE   W02
        BYTE   PEND
// 067   ----------------------------------------
ShakingFrontSight_000_0_67:
        BYTE           N24     Dn4   v080
        BYTE   W06
        BYTE           BEND    c_v+1
        BYTE   W01
        BYTE                   c_v+0
        BYTE   W02
        BYTE                   c_v-1
        BYTE   W01
        BYTE                   c_v+0
        BYTE   W02
        BYTE                   c_v+1
        BYTE   W01
        BYTE                   c_v+2
        BYTE   W02
        BYTE                   c_v+1
        BYTE   W01
        BYTE                   c_v+0
        BYTE   W02
        BYTE                   c_v-1
        BYTE   W01
        BYTE                   c_v+0
        BYTE   W02
        BYTE                   c_v+2
        BYTE   W01
        BYTE                   c_v+0
        BYTE   W02
        BYTE   PEND
// 068   ----------------------------------------
        BYTE   PATT
         POIN2  ShakingFrontSight_000_0_66
// 069   ----------------------------------------
        BYTE           N06     An3   v080
        BYTE   W06
        BYTE                   Bn3
        BYTE   W06
        BYTE                   An3
        BYTE   W06
        BYTE                   En3
        BYTE   W06
// 070   ----------------------------------------
        BYTE           N76     Fs3
        BYTE   W06
        BYTE           BEND    c_v+1
        BYTE   W01
        BYTE                   c_v+0
        BYTE   W02
        BYTE                   c_v-1
        BYTE   W01
        BYTE                   c_v+0
        BYTE   W02
        BYTE                   c_v+1
        BYTE   W01
        BYTE                   c_v+2
        BYTE   W02
        BYTE                   c_v+1
        BYTE   W01
        BYTE                   c_v+0
        BYTE   W02
        BYTE                   c_v-1
        BYTE   W01
        BYTE                   c_v+0
        BYTE   W02
        BYTE                   c_v+1
        BYTE   W01
        BYTE                   c_v+2
        BYTE   W02
// 071   ----------------------------------------
ShakingFrontSight_000_0_71:
        BYTE           BEND    c_v+3
        BYTE   W01
        BYTE                   c_v+2
        BYTE   W02
        BYTE                   c_v+1
        BYTE   W01
        BYTE                   c_v+0
        BYTE   W02
        BYTE                   c_v-1
        BYTE   W01
        BYTE                   c_v-2
        BYTE   W02
        BYTE                   c_v-1
        BYTE   W01
        BYTE                   c_v+0
        BYTE   W02
        BYTE                   c_v+1
        BYTE   W01
        BYTE                   c_v+2
        BYTE   W02
        BYTE                   c_v+3
        BYTE   W01
        BYTE                   c_v+4
        BYTE   W02
        BYTE                   c_v+3
        BYTE   W01
        BYTE                   c_v+2
        BYTE   W02
        BYTE                   c_v+1
        BYTE   W01
        BYTE                   c_v+0
        BYTE   W02
        BYTE   PEND
// 072   ----------------------------------------
ShakingFrontSight_000_0_72:
        BYTE           BEND    c_v-1
        BYTE   W01
        BYTE                   c_v-2
        BYTE   W02
        BYTE                   c_v-1
        BYTE   W01
        BYTE                   c_v+0
        BYTE   W02
        BYTE                   c_v+1
        BYTE   W01
        BYTE                   c_v+2
        BYTE   W02
        BYTE                   c_v+3
        BYTE   W01
        BYTE                   c_v+4
        BYTE   W02
        BYTE                   c_v+3
        BYTE   W01
        BYTE                   c_v+2
        BYTE   W02
        BYTE                   c_v+1
        BYTE   W01
        BYTE                   c_v+0
        BYTE   W02
        BYTE                   c_v-1
        BYTE   W01
        BYTE                   c_v-2
        BYTE   W02
        BYTE                   c_v-1
        BYTE   W01
        BYTE                   c_v+0
        BYTE   W02
        BYTE   PEND
// 073   ----------------------------------------
        BYTE   W24
// 074   ----------------------------------------
        BYTE   W24
// 075   ----------------------------------------
        BYTE   W24
// 076   ----------------------------------------
        BYTE   W24
// 077   ----------------------------------------
        BYTE   W24
// 078   ----------------------------------------
        BYTE   W24
// 079   ----------------------------------------
        BYTE   W24
// 080   ----------------------------------------
        BYTE   W24
// 081   ----------------------------------------
        BYTE   W24
// 082   ----------------------------------------
        BYTE   W24
// 083   ----------------------------------------
        BYTE   W24
// 084   ----------------------------------------
        BYTE   W24
// 085   ----------------------------------------
        BYTE   W24
// 086   ----------------------------------------
        BYTE   W24
// 087   ----------------------------------------
        BYTE   W24
// 088   ----------------------------------------
        BYTE   W24
// 089   ----------------------------------------
        BYTE   W24
// 090   ----------------------------------------
        BYTE           N24     Gn3   v095
        BYTE   W06
        BYTE           BEND    c_v+1
        BYTE   W01
        BYTE                   c_v+0
        BYTE   W02
        BYTE                   c_v-1
        BYTE   W01
        BYTE                   c_v+0
        BYTE   W02
        BYTE                   c_v+1
        BYTE   W01
        BYTE                   c_v+2
        BYTE   W02
        BYTE                   c_v+1
        BYTE   W01
        BYTE                   c_v+0
        BYTE   W02
        BYTE                   c_v-1
        BYTE   W01
        BYTE                   c_v+0
        BYTE   W02
        BYTE                   c_v+2
        BYTE   W01
        BYTE                   c_v+0
        BYTE   W02
// 091   ----------------------------------------
        BYTE           N24     Dn3
        BYTE   W06
        BYTE           BEND    c_v+1
        BYTE   W01
        BYTE                   c_v+0
        BYTE   W02
        BYTE                   c_v-1
        BYTE   W01
        BYTE                   c_v+0
        BYTE   W02
        BYTE                   c_v+1
        BYTE   W01
        BYTE                   c_v+2
        BYTE   W02
        BYTE                   c_v+1
        BYTE   W01
        BYTE                   c_v+0
        BYTE   W02
        BYTE                   c_v-1
        BYTE   W01
        BYTE                   c_v+0
        BYTE   W02
        BYTE                   c_v+2
        BYTE   W01
        BYTE                   c_v+0
        BYTE   W02
// 092   ----------------------------------------
        BYTE           N24     Dn4
        BYTE   W06
        BYTE           BEND    c_v+1
        BYTE   W01
        BYTE                   c_v+0
        BYTE   W02
        BYTE                   c_v-1
        BYTE   W01
        BYTE                   c_v+0
        BYTE   W02
        BYTE                   c_v+1
        BYTE   W01
        BYTE                   c_v+2
        BYTE   W02
        BYTE                   c_v+1
        BYTE   W01
        BYTE                   c_v+0
        BYTE   W02
        BYTE                   c_v-1
        BYTE   W01
        BYTE                   c_v+0
        BYTE   W02
        BYTE                   c_v+2
        BYTE   W01
        BYTE                   c_v+0
        BYTE   W02
// 093   ----------------------------------------
        BYTE           N04     Cn4
        BYTE   W06
        BYTE                   Dn4
        BYTE   W06
        BYTE           N40     Ds4
        BYTE   W06
        BYTE           BEND    c_v+1
        BYTE   W01
        BYTE                   c_v+0
        BYTE   W02
        BYTE                   c_v-1
        BYTE   W01
        BYTE                   c_v+0
        BYTE   W02
// 094   ----------------------------------------
        BYTE   PATT
         POIN2  ShakingFrontSight_000_0_62
// 095   ----------------------------------------
        BYTE           BEND    c_v+1
        BYTE   W01
        BYTE                   c_v+0
        BYTE   W11
        BYTE           N12     Ds4   v095
        BYTE   W06
        BYTE           BEND    c_v+1
        BYTE   W01
        BYTE                   c_v+2
        BYTE   W02
        BYTE                   c_v+1
        BYTE   W01
        BYTE                   c_v+0
        BYTE   W02
// 096   ----------------------------------------
        BYTE           N12     Dn4
        BYTE   W06
        BYTE           BEND    c_v+1
        BYTE   W01
        BYTE                   c_v+2
        BYTE   W02
        BYTE                   c_v+1
        BYTE   W01
        BYTE                   c_v+0
        BYTE   W02
        BYTE           N12     Cn4
        BYTE   W06
        BYTE           BEND    c_v+1
        BYTE   W01
        BYTE                   c_v+2
        BYTE   W02
        BYTE                   c_v+1
        BYTE   W01
        BYTE                   c_v+0
        BYTE   W02
// 097   ----------------------------------------
        BYTE           N16     Gn3
        BYTE   W06
        BYTE           BEND    c_v+1
        BYTE   W01
        BYTE                   c_v+2
        BYTE   W02
        BYTE                   c_v+1
        BYTE   W01
        BYTE                   c_v+0
        BYTE   W14
// 098   ----------------------------------------
ShakingFrontSight_000_0_98:
        BYTE           N24     Cn4   v095
        BYTE   W06
        BYTE           BEND    c_v+1
        BYTE   W01
        BYTE                   c_v+0
        BYTE   W02
        BYTE                   c_v-1
        BYTE   W01
        BYTE                   c_v+0
        BYTE   W02
        BYTE                   c_v+1
        BYTE   W01
        BYTE                   c_v+2
        BYTE   W02
        BYTE                   c_v+1
        BYTE   W01
        BYTE                   c_v+0
        BYTE   W02
        BYTE                   c_v-1
        BYTE   W01
        BYTE                   c_v+0
        BYTE   W02
        BYTE                   c_v+2
        BYTE   W01
        BYTE                   c_v+0
        BYTE   W02
        BYTE   PEND
// 099   ----------------------------------------
        BYTE           N24     Ds4
        BYTE   W06
        BYTE           BEND    c_v+1
        BYTE   W01
        BYTE                   c_v+0
        BYTE   W02
        BYTE                   c_v-1
        BYTE   W01
        BYTE                   c_v+0
        BYTE   W02
        BYTE                   c_v+1
        BYTE   W01
        BYTE                   c_v+2
        BYTE   W02
        BYTE                   c_v+1
        BYTE   W01
        BYTE                   c_v+0
        BYTE   W02
        BYTE                   c_v-1
        BYTE   W01
        BYTE                   c_v+0
        BYTE   W02
        BYTE                   c_v+2
        BYTE   W01
        BYTE                   c_v+0
        BYTE   W02
// 100   ----------------------------------------
        BYTE   PATT
         POIN2  ShakingFrontSight_000_0_98
// 101   ----------------------------------------
        BYTE           N06     As3   v095
        BYTE   W06
        BYTE                   Cn4
        BYTE   W06
        BYTE                   As3
        BYTE   W06
        BYTE                   Fn3
        BYTE   W06
// 102   ----------------------------------------
        BYTE           N76     Gn3
        BYTE   W06
        BYTE           BEND    c_v+1
        BYTE   W01
        BYTE                   c_v+0
        BYTE   W02
        BYTE                   c_v-1
        BYTE   W01
        BYTE                   c_v+0
        BYTE   W02
        BYTE                   c_v+1
        BYTE   W01
        BYTE                   c_v+2
        BYTE   W02
        BYTE                   c_v+1
        BYTE   W01
        BYTE                   c_v+0
        BYTE   W02
        BYTE                   c_v-1
        BYTE   W01
        BYTE                   c_v+0
        BYTE   W02
        BYTE                   c_v+1
        BYTE   W01
        BYTE                   c_v+2
        BYTE   W02
// 103   ----------------------------------------
        BYTE   PATT
         POIN2  ShakingFrontSight_000_0_71
// 104   ----------------------------------------
        BYTE   PATT
         POIN2  ShakingFrontSight_000_0_72
// 105   ----------------------------------------
        BYTE   W24
// 106   ----------------------------------------
        BYTE   W24
// 107   ----------------------------------------
        BYTE   W24
// 108   ----------------------------------------
        BYTE   W24
// 109   ----------------------------------------
        BYTE   W24
// 110   ----------------------------------------
        BYTE   W24
// 111   ----------------------------------------
        BYTE   W24
// 112   ----------------------------------------
        BYTE   W24
// 113   ----------------------------------------
        BYTE   W24
// 114   ----------------------------------------
        BYTE   W24
// 115   ----------------------------------------
        BYTE   W24
// 116   ----------------------------------------
        BYTE   W24
// 117   ----------------------------------------
        BYTE   W24
// 118   ----------------------------------------
        BYTE   W12
        BYTE           N06     Ds4   v090
        BYTE   W06
        BYTE           N03     Fn4   v085
        BYTE   W06
// 119   ----------------------------------------
        BYTE           N08
        BYTE   W12
        BYTE           N06     Fn4   v090
        BYTE   W06
        BYTE           N03     Gn4   v085
        BYTE   W06
// 120   ----------------------------------------
        BYTE           N08
        BYTE   W12
        BYTE           N06     Gn4   v090
        BYTE   W06
        BYTE           N03     Gs4   v085
        BYTE   W06
// 121   ----------------------------------------
        BYTE           N32     Gs4   v080
        BYTE   W06
        BYTE           BEND    c_v+1
        BYTE   W01
        BYTE                   c_v+2
        BYTE   W02
        BYTE                   c_v+1
        BYTE   W01
        BYTE                   c_v+0
        BYTE   W02
        BYTE                   c_v-1
        BYTE   W01
        BYTE                   c_v+0
        BYTE   W02
        BYTE                   c_v+1
        BYTE   W01
        BYTE                   c_v+2
        BYTE   W02
        BYTE                   c_v+3
        BYTE   W01
        BYTE                   c_v+2
        BYTE   W02
        BYTE                   c_v+1
        BYTE   W01
        BYTE                   c_v+0
        BYTE   W02
// 122   ----------------------------------------
        BYTE                   c_v-1
        BYTE   W01
        BYTE                   c_v-2
        BYTE   W02
        BYTE                   c_v-1
        BYTE   W01
        BYTE                   c_v+0
        BYTE   W08
        BYTE           N06     Gn4   v090
        BYTE   W06
        BYTE                   Fn4   v080
        BYTE   W06
// 123   ----------------------------------------
        BYTE           N44     Cn4
        BYTE   W06
        BYTE           BEND    c_v+1
        BYTE   W01
        BYTE                   c_v+2
        BYTE   W02
        BYTE                   c_v+1
        BYTE   W01
        BYTE                   c_v+0
        BYTE   W02
        BYTE                   c_v-1
        BYTE   W01
        BYTE                   c_v+0
        BYTE   W02
        BYTE                   c_v+1
        BYTE   W01
        BYTE                   c_v+2
        BYTE   W02
        BYTE                   c_v+3
        BYTE   W01
        BYTE                   c_v+2
        BYTE   W02
        BYTE                   c_v+1
        BYTE   W01
        BYTE                   c_v+0
        BYTE   W02
// 124   ----------------------------------------
ShakingFrontSight_000_0_124:
        BYTE           BEND    c_v-1
        BYTE   W01
        BYTE                   c_v-2
        BYTE   W02
        BYTE                   c_v-1
        BYTE   W01
        BYTE                   c_v+0
        BYTE   W02
        BYTE                   c_v+1
        BYTE   W01
        BYTE                   c_v+2
        BYTE   W02
        BYTE                   c_v+3
        BYTE   W01
        BYTE                   c_v+4
        BYTE   W02
        BYTE                   c_v+3
        BYTE   W01
        BYTE                   c_v+2
        BYTE   W02
        BYTE                   c_v+1
        BYTE   W01
        BYTE                   c_v+0
        BYTE   W08
        BYTE   PEND
// 125   ----------------------------------------
        BYTE           N72     As3   v070   gtp2
        BYTE   W06
        BYTE           BEND    c_v+1
        BYTE   W01
        BYTE                   c_v+2
        BYTE   W02
        BYTE                   c_v+1
        BYTE   W01
        BYTE                   c_v+0
        BYTE   W02
        BYTE                   c_v-1
        BYTE   W01
        BYTE                   c_v+0
        BYTE   W02
        BYTE                   c_v+1
        BYTE   W01
        BYTE                   c_v+2
        BYTE   W02
        BYTE                   c_v+3
        BYTE   W01
        BYTE                   c_v+2
        BYTE   W02
        BYTE                   c_v+1
        BYTE   W01
        BYTE                   c_v+0
        BYTE   W02
// 126   ----------------------------------------
        BYTE   PATT
         POIN2  ShakingFrontSight_000_0_72
// 127   ----------------------------------------
ShakingFrontSight_000_0_127:
        BYTE           BEND    c_v+1
        BYTE   W01
        BYTE                   c_v+2
        BYTE   W02
        BYTE                   c_v+3
        BYTE   W01
        BYTE                   c_v+4
        BYTE   W02
        BYTE                   c_v+3
        BYTE   W01
        BYTE                   c_v+2
        BYTE   W02
        BYTE                   c_v+1
        BYTE   W01
        BYTE                   c_v+0
        BYTE   W02
        BYTE                   c_v-1
        BYTE   W01
        BYTE                   c_v-2
        BYTE   W02
        BYTE                   c_v-1
        BYTE   W01
        BYTE                   c_v+0
        BYTE   W02
        BYTE                   c_v+1
        BYTE   W01
        BYTE                   c_v+2
        BYTE   W02
        BYTE                   c_v+1
        BYTE   W01
        BYTE                   c_v+0
        BYTE   W02
        BYTE   PEND
// 128   ----------------------------------------
        BYTE   W24
// 129   ----------------------------------------
        BYTE   W24
// 130   ----------------------------------------
        BYTE   W24
// 131   ----------------------------------------
        BYTE   W24
// 132   ----------------------------------------
        BYTE   W24
// 133   ----------------------------------------
        BYTE   W24
// 134   ----------------------------------------
        BYTE   W24
// 135   ----------------------------------------
        BYTE   W24
// 136   ----------------------------------------
        BYTE   W24
// 137   ----------------------------------------
        BYTE   W24
// 138   ----------------------------------------
        BYTE   W24
// 139   ----------------------------------------
        BYTE   W24
// 140   ----------------------------------------
        BYTE   W24
// 141   ----------------------------------------
        BYTE   W24
// 142   ----------------------------------------
        BYTE   W24
// 143   ----------------------------------------
        BYTE   W24
// 144   ----------------------------------------
        BYTE   W24
// 145   ----------------------------------------
        BYTE   W24
// 146   ----------------------------------------
        BYTE   W24
// 147   ----------------------------------------
        BYTE   W24
// 148   ----------------------------------------
        BYTE   W24
// 149   ----------------------------------------
        BYTE   W24
// 150   ----------------------------------------
        BYTE   W24
// 151   ----------------------------------------
        BYTE   W24
// 152   ----------------------------------------
        BYTE           N04     Fs3   v065
        BYTE   W04
        BYTE                   Gs3
        BYTE   W04
        BYTE                   An3
        BYTE   W04
        BYTE           N03     Bn3
        BYTE   W04
        BYTE                   Cs4
        BYTE   W04
        BYTE                   Ds4
        BYTE   W04
// 153   ----------------------------------------
        BYTE           N48     En4   v080
        BYTE   W06
        BYTE           BEND    c_v+1
        BYTE   W01
        BYTE                   c_v+0
        BYTE   W02
        BYTE                   c_v-1
        BYTE   W01
        BYTE                   c_v+0
        BYTE   W02
        BYTE                   c_v+1
        BYTE   W01
        BYTE                   c_v+2
        BYTE   W02
        BYTE                   c_v+1
        BYTE   W01
        BYTE                   c_v+0
        BYTE   W02
        BYTE                   c_v-1
        BYTE   W01
        BYTE                   c_v+0
        BYTE   W02
        BYTE                   c_v+1
        BYTE   W01
        BYTE                   c_v+2
        BYTE   W02
// 154   ----------------------------------------
        BYTE   PATT
         POIN2  ShakingFrontSight_000_0_71
// 155   ----------------------------------------
ShakingFrontSight_000_0_155:
        BYTE           N24     Fs4   v080
        BYTE   W06
        BYTE           BEND    c_v+1
        BYTE   W01
        BYTE                   c_v+0
        BYTE   W02
        BYTE                   c_v-1
        BYTE   W01
        BYTE                   c_v+0
        BYTE   W02
        BYTE                   c_v+1
        BYTE   W01
        BYTE                   c_v+2
        BYTE   W02
        BYTE                   c_v+1
        BYTE   W01
        BYTE                   c_v+0
        BYTE   W02
        BYTE                   c_v-1
        BYTE   W01
        BYTE                   c_v+0
        BYTE   W02
        BYTE                   c_v+2
        BYTE   W01
        BYTE                   c_v+0
        BYTE   W02
        BYTE   PEND
// 156   ----------------------------------------
        BYTE           N24     Gn4
        BYTE   W06
        BYTE           BEND    c_v+1
        BYTE   W01
        BYTE                   c_v+0
        BYTE   W02
        BYTE                   c_v-1
        BYTE   W01
        BYTE                   c_v+0
        BYTE   W02
        BYTE                   c_v+1
        BYTE   W01
        BYTE                   c_v+2
        BYTE   W02
        BYTE                   c_v+1
        BYTE   W01
        BYTE                   c_v+0
        BYTE   W02
        BYTE                   c_v-1
        BYTE   W01
        BYTE                   c_v+0
        BYTE   W02
        BYTE                   c_v+2
        BYTE   W01
        BYTE                   c_v+0
        BYTE   W02
// 157   ----------------------------------------
        BYTE           N42     Bn3
        BYTE   W06
        BYTE           BEND    c_v+1
        BYTE   W01
        BYTE                   c_v+0
        BYTE   W02
        BYTE                   c_v-1
        BYTE   W01
        BYTE                   c_v+0
        BYTE   W02
        BYTE                   c_v+1
        BYTE   W01
        BYTE                   c_v+2
        BYTE   W02
        BYTE                   c_v+1
        BYTE   W01
        BYTE                   c_v+0
        BYTE   W02
        BYTE                   c_v-1
        BYTE   W01
        BYTE                   c_v+0
        BYTE   W02
        BYTE                   c_v+1
        BYTE   W01
        BYTE                   c_v+2
        BYTE   W02
// 158   ----------------------------------------
ShakingFrontSight_000_0_158:
        BYTE           BEND    c_v+3
        BYTE   W01
        BYTE                   c_v+2
        BYTE   W02
        BYTE                   c_v+1
        BYTE   W01
        BYTE                   c_v+0
        BYTE   W02
        BYTE                   c_v-1
        BYTE   W01
        BYTE                   c_v-2
        BYTE   W02
        BYTE                   c_v-1
        BYTE   W01
        BYTE                   c_v+0
        BYTE   W02
        BYTE                   c_v+1
        BYTE   W01
        BYTE                   c_v+2
        BYTE   W02
        BYTE                   c_v+1
        BYTE   W01
        BYTE                   c_v+0
        BYTE   W08
        BYTE   PEND
// 159   ----------------------------------------
        BYTE           N12     Bn3   v080
        BYTE   W06
        BYTE           BEND    c_v+1
        BYTE   W01
        BYTE                   c_v+2
        BYTE   W02
        BYTE                   c_v+1
        BYTE   W01
        BYTE                   c_v+0
        BYTE   W02
        BYTE           N12     Dn4
        BYTE   W06
        BYTE           BEND    c_v+1
        BYTE   W01
        BYTE                   c_v+2
        BYTE   W02
        BYTE                   c_v+1
        BYTE   W01
        BYTE                   c_v+0
        BYTE   W02
// 160   ----------------------------------------
        BYTE           N12     Gs4
        BYTE   W06
        BYTE           BEND    c_v+1
        BYTE   W01
        BYTE                   c_v+2
        BYTE   W02
        BYTE                   c_v+1
        BYTE   W01
        BYTE                   c_v+0
        BYTE   W02
        BYTE           N12     Bn4
        BYTE   W06
        BYTE           BEND    c_v+1
        BYTE   W01
        BYTE                   c_v+2
        BYTE   W02
        BYTE                   c_v+1
        BYTE   W01
        BYTE                   c_v+0
        BYTE   W02
// 161   ----------------------------------------
        BYTE           N48     Gn4   v070   gtp3
        BYTE   W06
        BYTE           BEND    c_v+1
        BYTE   W01
        BYTE                   c_v+0
        BYTE   W02
        BYTE                   c_v-1
        BYTE   W01
        BYTE                   c_v+0
        BYTE   W02
        BYTE                   c_v+1
        BYTE   W01
        BYTE                   c_v+2
        BYTE   W02
        BYTE                   c_v+1
        BYTE   W01
        BYTE                   c_v+0
        BYTE   W02
        BYTE                   c_v-1
        BYTE   W01
        BYTE                   c_v+0
        BYTE   W02
        BYTE                   c_v+1
        BYTE   W01
        BYTE                   c_v+2
        BYTE   W02
// 162   ----------------------------------------
        BYTE   PATT
         POIN2  ShakingFrontSight_000_0_71
// 163   ----------------------------------------
        BYTE   W24
// 164   ----------------------------------------
        BYTE   W24
// 165   ----------------------------------------
        BYTE   W24
// 166   ----------------------------------------
        BYTE   W24
// 167   ----------------------------------------
        BYTE   W24
// 168   ----------------------------------------
        BYTE   W24
// 169   ----------------------------------------
        BYTE   W24
// 170   ----------------------------------------
        BYTE   W24
// 171   ----------------------------------------
        BYTE   W24
// 172   ----------------------------------------
        BYTE   W24
// 173   ----------------------------------------
        BYTE   W24
// 174   ----------------------------------------
        BYTE   W24
// 175   ----------------------------------------
        BYTE   W24
// 176   ----------------------------------------
        BYTE   W24
// 177   ----------------------------------------
        BYTE   W24
// 178   ----------------------------------------
        BYTE   W24
// 179   ----------------------------------------
        BYTE   W24
// 180   ----------------------------------------
        BYTE   W24
// 181   ----------------------------------------
        BYTE   W24
// 182   ----------------------------------------
        BYTE   W24
// 183   ----------------------------------------
        BYTE   W24
// 184   ----------------------------------------
        BYTE   W24
// 185   ----------------------------------------
        BYTE           N72     Gn3   v080
        BYTE   W06
        BYTE           BEND    c_v+1
        BYTE   W01
        BYTE                   c_v+0
        BYTE   W02
        BYTE                   c_v-1
        BYTE   W01
        BYTE                   c_v+0
        BYTE   W02
        BYTE                   c_v+1
        BYTE   W01
        BYTE                   c_v+2
        BYTE   W02
        BYTE                   c_v+1
        BYTE   W01
        BYTE                   c_v+0
        BYTE   W02
        BYTE                   c_v-1
        BYTE   W01
        BYTE                   c_v+0
        BYTE   W02
        BYTE                   c_v+1
        BYTE   W01
        BYTE                   c_v+2
        BYTE   W02
// 186   ----------------------------------------
        BYTE   PATT
         POIN2  ShakingFrontSight_000_0_71
// 187   ----------------------------------------
        BYTE   PATT
         POIN2  ShakingFrontSight_000_0_72
// 188   ----------------------------------------
        BYTE   PATT
         POIN2  ShakingFrontSight_000_0_67
// 189   ----------------------------------------
        BYTE           N72     An3   v080
        BYTE   W06
        BYTE           BEND    c_v+1
        BYTE   W01
        BYTE                   c_v+0
        BYTE   W02
        BYTE                   c_v-1
        BYTE   W01
        BYTE                   c_v+0
        BYTE   W02
        BYTE                   c_v+1
        BYTE   W01
        BYTE                   c_v+2
        BYTE   W02
        BYTE                   c_v+1
        BYTE   W01
        BYTE                   c_v+0
        BYTE   W02
        BYTE                   c_v-1
        BYTE   W01
        BYTE                   c_v+0
        BYTE   W02
        BYTE                   c_v+1
        BYTE   W01
        BYTE                   c_v+2
        BYTE   W02
// 190   ----------------------------------------
        BYTE   PATT
         POIN2  ShakingFrontSight_000_0_71
// 191   ----------------------------------------
        BYTE   PATT
         POIN2  ShakingFrontSight_000_0_72
// 192   ----------------------------------------
        BYTE           N12     Dn3   v080
        BYTE   W06
        BYTE           BEND    c_v+1
        BYTE   W01
        BYTE                   c_v+2
        BYTE   W02
        BYTE                   c_v+1
        BYTE   W01
        BYTE                   c_v+0
        BYTE   W02
        BYTE           N12     An3
        BYTE   W06
        BYTE           BEND    c_v+1
        BYTE   W01
        BYTE                   c_v+2
        BYTE   W02
        BYTE                   c_v+1
        BYTE   W01
        BYTE                   c_v+0
        BYTE   W02
// 193   ----------------------------------------
        BYTE           N36     As3
        BYTE   W06
        BYTE           BEND    c_v+1
        BYTE   W01
        BYTE                   c_v+0
        BYTE   W02
        BYTE                   c_v-1
        BYTE   W01
        BYTE                   c_v+0
        BYTE   W02
        BYTE                   c_v+1
        BYTE   W01
        BYTE                   c_v+2
        BYTE   W02
        BYTE                   c_v+1
        BYTE   W01
        BYTE                   c_v+0
        BYTE   W02
        BYTE                   c_v-1
        BYTE   W01
        BYTE                   c_v+0
        BYTE   W02
        BYTE                   c_v+1
        BYTE   W01
        BYTE                   c_v+2
        BYTE   W02
// 194   ----------------------------------------
        BYTE                   c_v+3
        BYTE   W01
        BYTE                   c_v+2
        BYTE   W02
        BYTE                   c_v+1
        BYTE   W01
        BYTE                   c_v+0
        BYTE   W02
        BYTE                   c_v-1
        BYTE   W01
        BYTE                   c_v-2
        BYTE   W02
        BYTE                   c_v-1
        BYTE   W01
        BYTE                   c_v+0
        BYTE   W02
        BYTE           N24     Fn3
        BYTE   W06
        BYTE           BEND    c_v+1
        BYTE   W01
        BYTE                   c_v+0
        BYTE   W02
        BYTE                   c_v-1
        BYTE   W01
        BYTE                   c_v+0
        BYTE   W02
// 195   ----------------------------------------
        BYTE                   c_v+1
        BYTE   W01
        BYTE                   c_v+2
        BYTE   W02
        BYTE                   c_v+1
        BYTE   W01
        BYTE                   c_v+0
        BYTE   W02
        BYTE                   c_v-1
        BYTE   W01
        BYTE                   c_v+0
        BYTE   W02
        BYTE                   c_v+2
        BYTE   W01
        BYTE                   c_v+0
        BYTE   W02
        BYTE           N12     Dn3
        BYTE   W06
        BYTE           BEND    c_v+1
        BYTE   W01
        BYTE                   c_v+2
        BYTE   W02
        BYTE                   c_v+1
        BYTE   W01
        BYTE                   c_v+0
        BYTE   W02
// 196   ----------------------------------------
        BYTE           N24     Fn3
        BYTE   W06
        BYTE           BEND    c_v+1
        BYTE   W01
        BYTE                   c_v+0
        BYTE   W02
        BYTE                   c_v-1
        BYTE   W01
        BYTE                   c_v+0
        BYTE   W02
        BYTE                   c_v+1
        BYTE   W01
        BYTE                   c_v+2
        BYTE   W02
        BYTE                   c_v+1
        BYTE   W01
        BYTE                   c_v+0
        BYTE   W02
        BYTE                   c_v-1
        BYTE   W01
        BYTE                   c_v+0
        BYTE   W02
        BYTE                   c_v+2
        BYTE   W01
        BYTE                   c_v+0
        BYTE   W02
// 197   ----------------------------------------
        BYTE           N36     Cn4
        BYTE   W06
        BYTE           BEND    c_v+1
        BYTE   W01
        BYTE                   c_v+0
        BYTE   W02
        BYTE                   c_v-1
        BYTE   W01
        BYTE                   c_v+0
        BYTE   W02
        BYTE                   c_v+1
        BYTE   W01
        BYTE                   c_v+2
        BYTE   W02
        BYTE                   c_v+1
        BYTE   W01
        BYTE                   c_v+0
        BYTE   W02
        BYTE                   c_v-1
        BYTE   W01
        BYTE                   c_v+0
        BYTE   W02
        BYTE                   c_v+1
        BYTE   W01
        BYTE                   c_v+2
        BYTE   W02
// 198   ----------------------------------------
        BYTE                   c_v+3
        BYTE   W01
        BYTE                   c_v+2
        BYTE   W02
        BYTE                   c_v+1
        BYTE   W01
        BYTE                   c_v+0
        BYTE   W02
        BYTE                   c_v-1
        BYTE   W01
        BYTE                   c_v-2
        BYTE   W02
        BYTE                   c_v-1
        BYTE   W01
        BYTE                   c_v+0
        BYTE   W02
        BYTE           N24     Gn3
        BYTE   W06
        BYTE           BEND    c_v+1
        BYTE   W01
        BYTE                   c_v+0
        BYTE   W02
        BYTE                   c_v-1
        BYTE   W01
        BYTE                   c_v+0
        BYTE   W02
// 199   ----------------------------------------
        BYTE                   c_v+1
        BYTE   W01
        BYTE                   c_v+2
        BYTE   W02
        BYTE                   c_v+1
        BYTE   W01
        BYTE                   c_v+0
        BYTE   W02
        BYTE                   c_v-1
        BYTE   W01
        BYTE                   c_v+0
        BYTE   W02
        BYTE                   c_v+2
        BYTE   W01
        BYTE                   c_v+0
        BYTE   W02
        BYTE           N12     En3
        BYTE   W06
        BYTE           BEND    c_v+1
        BYTE   W01
        BYTE                   c_v+2
        BYTE   W02
        BYTE                   c_v+1
        BYTE   W01
        BYTE                   c_v+0
        BYTE   W02
// 200   ----------------------------------------
        BYTE           N24     Gn3
        BYTE   W06
        BYTE           BEND    c_v+1
        BYTE   W01
        BYTE                   c_v+0
        BYTE   W02
        BYTE                   c_v-1
        BYTE   W01
        BYTE                   c_v+0
        BYTE   W02
        BYTE                   c_v+1
        BYTE   W01
        BYTE                   c_v+2
        BYTE   W02
        BYTE                   c_v+1
        BYTE   W01
        BYTE                   c_v+0
        BYTE   W02
        BYTE                   c_v-1
        BYTE   W01
        BYTE                   c_v+0
        BYTE   W02
        BYTE                   c_v+2
        BYTE   W01
        BYTE                   c_v+0
        BYTE   W02
// 201   ----------------------------------------
        BYTE           TIE     Fs3   v075
        BYTE   W06
        BYTE           BEND    c_v+1
        BYTE   W01
        BYTE                   c_v+0
        BYTE   W02
        BYTE                   c_v-1
        BYTE   W01
        BYTE                   c_v+0
        BYTE   W02
        BYTE                   c_v+1
        BYTE   W01
        BYTE                   c_v+2
        BYTE   W02
        BYTE                   c_v+1
        BYTE   W01
        BYTE                   c_v+0
        BYTE   W02
        BYTE                   c_v-1
        BYTE   W01
        BYTE                   c_v+0
        BYTE   W02
        BYTE                   c_v+1
        BYTE   W01
        BYTE                   c_v+2
        BYTE   W02
// 202   ----------------------------------------
ShakingFrontSight_000_0_202:
        BYTE           BEND    c_v+3
        BYTE   W01
        BYTE                   c_v+2
        BYTE   W02
        BYTE                   c_v+1
        BYTE   W01
        BYTE                   c_v+0
        BYTE   W02
        BYTE                   c_v-1
        BYTE   W01
        BYTE                   c_v-2
        BYTE   W02
        BYTE                   c_v-1
        BYTE   W01
        BYTE                   c_v+0
        BYTE   W02
        BYTE                   c_v+1
        BYTE   W01
        BYTE                   c_v+2
        BYTE   W02
        BYTE                   c_v+3
        BYTE   W01
        BYTE                   c_v+2
        BYTE   W02
        BYTE                   c_v+1
        BYTE   W01
        BYTE                   c_v+0
        BYTE   W02
        BYTE                   c_v-1
        BYTE   W01
        BYTE                   c_v-2
        BYTE   W02
        BYTE   PEND
// 203   ----------------------------------------
ShakingFrontSight_000_0_203:
        BYTE           BEND    c_v-1
        BYTE   W01
        BYTE                   c_v+0
        BYTE   W02
        BYTE                   c_v+1
        BYTE   W01
        BYTE                   c_v+2
        BYTE   W02
        BYTE                   c_v+3
        BYTE   W01
        BYTE                   c_v+4
        BYTE   W02
        BYTE                   c_v+3
        BYTE   W01
        BYTE                   c_v+2
        BYTE   W02
        BYTE                   c_v+1
        BYTE   W01
        BYTE                   c_v+0
        BYTE   W02
        BYTE                   c_v-1
        BYTE   W01
        BYTE                   c_v-2
        BYTE   W02
        BYTE                   c_v-1
        BYTE   W01
        BYTE                   c_v+0
        BYTE   W02
        BYTE                   c_v+1
        BYTE   W01
        BYTE                   c_v+2
        BYTE   W02
        BYTE   PEND
// 204   ----------------------------------------
ShakingFrontSight_000_0_204:
        BYTE           BEND    c_v+3
        BYTE   W01
        BYTE                   c_v+4
        BYTE   W02
        BYTE                   c_v+3
        BYTE   W01
        BYTE                   c_v+2
        BYTE   W02
        BYTE                   c_v+1
        BYTE   W01
        BYTE                   c_v+0
        BYTE   W02
        BYTE                   c_v-1
        BYTE   W01
        BYTE                   c_v-2
        BYTE   W02
        BYTE                   c_v-1
        BYTE   W01
        BYTE                   c_v+0
        BYTE   W02
        BYTE                   c_v+1
        BYTE   W01
        BYTE                   c_v+2
        BYTE   W02
        BYTE                   c_v+3
        BYTE   W01
        BYTE                   c_v+4
        BYTE   W02
        BYTE                   c_v+3
        BYTE   W01
        BYTE                   c_v+2
        BYTE   W02
        BYTE   PEND
// 205   ----------------------------------------
ShakingFrontSight_000_0_205:
        BYTE           BEND    c_v+1
        BYTE   W01
        BYTE                   c_v+0
        BYTE   W02
        BYTE                   c_v-1
        BYTE   W01
        BYTE                   c_v-2
        BYTE   W02
        BYTE                   c_v-1
        BYTE   W01
        BYTE                   c_v+0
        BYTE   W02
        BYTE                   c_v+1
        BYTE   W01
        BYTE                   c_v+2
        BYTE   W02
        BYTE                   c_v+3
        BYTE   W01
        BYTE                   c_v+4
        BYTE   W02
        BYTE                   c_v+3
        BYTE   W01
        BYTE                   c_v+2
        BYTE   W02
        BYTE                   c_v+1
        BYTE   W01
        BYTE                   c_v+0
        BYTE   W02
        BYTE                   c_v-1
        BYTE   W01
        BYTE                   c_v-2
        BYTE   W02
        BYTE   PEND
// 206   ----------------------------------------
        BYTE   PATT
         POIN2  ShakingFrontSight_000_0_203
// 207   ----------------------------------------
        BYTE   PATT
         POIN2  ShakingFrontSight_000_0_204
// 208   ----------------------------------------
        BYTE   PATT
         POIN2  ShakingFrontSight_000_0_205
// 209   ----------------------------------------
        BYTE           BEND    c_v-1
        BYTE   W01
        BYTE                   c_v+0
        BYTE   W02
        BYTE                   c_v+1
        BYTE   W01
        BYTE                   c_v+0
        BYTE   W02
        BYTE           EOT     Fs3
        BYTE   W18
// 210   ----------------------------------------
        BYTE   W24
// 211   ----------------------------------------
        BYTE   W24
// 212   ----------------------------------------
        BYTE   W24
// 213   ----------------------------------------
        BYTE   W24
// 214   ----------------------------------------
        BYTE   W24
// 215   ----------------------------------------
        BYTE   W24
// 216   ----------------------------------------
        BYTE   W24
// 217   ----------------------------------------
        BYTE   GoTo
         POIN2  ShakingFrontSight_000_0_LOOP
        BYTE   FINE

//****************** Track 1 (Midi-Chn.1) ******************//

ShakingFrontSight_000_1:
        BYTE   KEYSH   ShakingFrontSight_000_key+0
// 000   ----------------------------------------
        BYTE           VOICE   1
        BYTE           VOL     24
        BYTE   W01
        BYTE           PAN     c_v-32
        BYTE   W23
// 001   ----------------------------------------
ShakingFrontSight_000_1_LOOP:
        BYTE   W12
        BYTE           N10     Bn5   v085
        BYTE   W06
        BYTE                   Fs5
        BYTE   W06
// 002   ----------------------------------------
ShakingFrontSight_000_1_2:
        BYTE           N22     Bn5   v085
        BYTE   W18
        BYTE           N10     Fs5
        BYTE   W06
        BYTE   PEND
// 003   ----------------------------------------
ShakingFrontSight_000_1_3:
        BYTE           N10     En5   v085
        BYTE   W06
        BYTE                   Fs5
        BYTE   W06
        BYTE                   En5
        BYTE   W06
        BYTE                   Bn4
        BYTE   W06
        BYTE   PEND
// 004   ----------------------------------------
ShakingFrontSight_000_1_4:
        BYTE   W06
        BYTE           N22     Fs4   v085
        BYTE   W18
        BYTE   PEND
// 005   ----------------------------------------
ShakingFrontSight_000_1_5:
        BYTE   W12
        BYTE           N10     Cn6   v085
        BYTE   W06
        BYTE                   Gn5
        BYTE   W06
        BYTE   PEND
// 006   ----------------------------------------
ShakingFrontSight_000_1_6:
        BYTE           N22     Cn6   v085
        BYTE   W18
        BYTE           N10     Gn5
        BYTE   W06
        BYTE   PEND
// 007   ----------------------------------------
        BYTE                   Fn5
        BYTE   W06
        BYTE                   Gn5
        BYTE   W06
        BYTE                   Fn5
        BYTE   W06
        BYTE                   Cn5
        BYTE   W06
// 008   ----------------------------------------
ShakingFrontSight_000_1_8:
        BYTE   W06
        BYTE           N22     Gn4   v085
        BYTE   W18
        BYTE   PEND
// 009   ----------------------------------------
ShakingFrontSight_000_1_9:
        BYTE   W12
        BYTE           N10     Bn5   v085
        BYTE   W06
        BYTE                   Fs5
        BYTE   W06
        BYTE   PEND
// 010   ----------------------------------------
        BYTE   PATT
         POIN2  ShakingFrontSight_000_1_2
// 011   ----------------------------------------
        BYTE   PATT
         POIN2  ShakingFrontSight_000_1_3
// 012   ----------------------------------------
        BYTE   PATT
         POIN2  ShakingFrontSight_000_1_4
// 013   ----------------------------------------
ShakingFrontSight_000_1_13:
        BYTE   W12
        BYTE           N10     Bn5   v085
        BYTE   W06
        BYTE                   Gn5
        BYTE   W06
        BYTE   PEND
// 014   ----------------------------------------
ShakingFrontSight_000_1_14:
        BYTE           N22     Bn5   v085
        BYTE   W18
        BYTE           N10     Gn5
        BYTE   W06
        BYTE   PEND
// 015   ----------------------------------------
ShakingFrontSight_000_1_15:
        BYTE           N10     En5   v085
        BYTE   W06
        BYTE                   Gn5
        BYTE   W06
        BYTE                   En5
        BYTE   W06
        BYTE                   Bn4
        BYTE   W06
        BYTE   PEND
// 016   ----------------------------------------
        BYTE   PATT
         POIN2  ShakingFrontSight_000_1_8
// 017   ----------------------------------------
        BYTE   PATT
         POIN2  ShakingFrontSight_000_1_9
// 018   ----------------------------------------
        BYTE   PATT
         POIN2  ShakingFrontSight_000_1_2
// 019   ----------------------------------------
ShakingFrontSight_000_1_19:
        BYTE           N10     Dn5   v085
        BYTE   W06
        BYTE                   Fs5
        BYTE   W06
        BYTE                   Dn5
        BYTE   W06
        BYTE                   Bn4
        BYTE   W06
        BYTE   PEND
// 020   ----------------------------------------
        BYTE   PATT
         POIN2  ShakingFrontSight_000_1_4
// 021   ----------------------------------------
        BYTE   PATT
         POIN2  ShakingFrontSight_000_1_5
// 022   ----------------------------------------
        BYTE   PATT
         POIN2  ShakingFrontSight_000_1_6
// 023   ----------------------------------------
        BYTE           N10     En5   v085
        BYTE   W06
        BYTE                   Gn5
        BYTE   W06
        BYTE                   En5
        BYTE   W06
        BYTE                   Cn5
        BYTE   W06
// 024   ----------------------------------------
        BYTE   PATT
         POIN2  ShakingFrontSight_000_1_8
// 025   ----------------------------------------
        BYTE   PATT
         POIN2  ShakingFrontSight_000_1_9
// 026   ----------------------------------------
        BYTE   PATT
         POIN2  ShakingFrontSight_000_1_2
// 027   ----------------------------------------
        BYTE   PATT
         POIN2  ShakingFrontSight_000_1_19
// 028   ----------------------------------------
        BYTE   PATT
         POIN2  ShakingFrontSight_000_1_4
// 029   ----------------------------------------
        BYTE   PATT
         POIN2  ShakingFrontSight_000_1_13
// 030   ----------------------------------------
        BYTE   PATT
         POIN2  ShakingFrontSight_000_1_14
// 031   ----------------------------------------
        BYTE   PATT
         POIN2  ShakingFrontSight_000_1_15
// 032   ----------------------------------------
        BYTE   PATT
         POIN2  ShakingFrontSight_000_1_8
// 033   ----------------------------------------
        BYTE   W24
// 034   ----------------------------------------
        BYTE   W24
// 035   ----------------------------------------
        BYTE   W24
// 036   ----------------------------------------
        BYTE   W24
// 037   ----------------------------------------
        BYTE   W24
// 038   ----------------------------------------
        BYTE   W24
// 039   ----------------------------------------
        BYTE   W24
// 040   ----------------------------------------
        BYTE   W24
// 041   ----------------------------------------
        BYTE   PATT
         POIN2  ShakingFrontSight_000_1_9
// 042   ----------------------------------------
        BYTE   PATT
         POIN2  ShakingFrontSight_000_1_2
// 043   ----------------------------------------
ShakingFrontSight_000_1_43:
        BYTE           N10     En5   v085
        BYTE   W06
        BYTE                   An5
        BYTE   W06
        BYTE                   En5
        BYTE   W06
        BYTE                   Cs5
        BYTE   W06
        BYTE   PEND
// 044   ----------------------------------------
ShakingFrontSight_000_1_44:
        BYTE   W06
        BYTE           N22     An4   v085
        BYTE   W18
        BYTE   PEND
// 045   ----------------------------------------
        BYTE   PATT
         POIN2  ShakingFrontSight_000_1_9
// 046   ----------------------------------------
        BYTE   PATT
         POIN2  ShakingFrontSight_000_1_2
// 047   ----------------------------------------
        BYTE   PATT
         POIN2  ShakingFrontSight_000_1_15
// 048   ----------------------------------------
        BYTE   PATT
         POIN2  ShakingFrontSight_000_1_8
// 049   ----------------------------------------
        BYTE   PATT
         POIN2  ShakingFrontSight_000_1_9
// 050   ----------------------------------------
        BYTE   PATT
         POIN2  ShakingFrontSight_000_1_2
// 051   ----------------------------------------
ShakingFrontSight_000_1_51:
        BYTE           N10     Dn5   v085
        BYTE   W06
        BYTE                   Gn5
        BYTE   W06
        BYTE                   Dn5
        BYTE   W06
        BYTE                   Bn4
        BYTE   W06
        BYTE   PEND
// 052   ----------------------------------------
        BYTE   PATT
         POIN2  ShakingFrontSight_000_1_8
// 053   ----------------------------------------
ShakingFrontSight_000_1_53:
        BYTE   W12
        BYTE           N10     An5   v085
        BYTE   W06
        BYTE                   En5
        BYTE   W06
        BYTE   PEND
// 054   ----------------------------------------
ShakingFrontSight_000_1_54:
        BYTE           N22     An5   v085
        BYTE   W18
        BYTE           N10     En5
        BYTE   W06
        BYTE   PEND
// 055   ----------------------------------------
ShakingFrontSight_000_1_55:
        BYTE           N10     Cs5   v085
        BYTE   W06
        BYTE                   En5
        BYTE   W06
        BYTE                   Cs5
        BYTE   W06
        BYTE                   An4
        BYTE   W06
        BYTE   PEND
// 056   ----------------------------------------
ShakingFrontSight_000_1_56:
        BYTE   W06
        BYTE           N22     En4   v085
        BYTE   W18
        BYTE   PEND
// 057   ----------------------------------------
        BYTE   PATT
         POIN2  ShakingFrontSight_000_1_9
// 058   ----------------------------------------
        BYTE   PATT
         POIN2  ShakingFrontSight_000_1_2
// 059   ----------------------------------------
        BYTE   PATT
         POIN2  ShakingFrontSight_000_1_43
// 060   ----------------------------------------
        BYTE   PATT
         POIN2  ShakingFrontSight_000_1_44
// 061   ----------------------------------------
        BYTE   PATT
         POIN2  ShakingFrontSight_000_1_9
// 062   ----------------------------------------
        BYTE   PATT
         POIN2  ShakingFrontSight_000_1_2
// 063   ----------------------------------------
        BYTE   PATT
         POIN2  ShakingFrontSight_000_1_15
// 064   ----------------------------------------
        BYTE   PATT
         POIN2  ShakingFrontSight_000_1_8
// 065   ----------------------------------------
        BYTE   PATT
         POIN2  ShakingFrontSight_000_1_9
// 066   ----------------------------------------
        BYTE   PATT
         POIN2  ShakingFrontSight_000_1_2
// 067   ----------------------------------------
        BYTE   PATT
         POIN2  ShakingFrontSight_000_1_51
// 068   ----------------------------------------
        BYTE   PATT
         POIN2  ShakingFrontSight_000_1_8
// 069   ----------------------------------------
        BYTE   PATT
         POIN2  ShakingFrontSight_000_1_53
// 070   ----------------------------------------
        BYTE   PATT
         POIN2  ShakingFrontSight_000_1_54
// 071   ----------------------------------------
        BYTE   PATT
         POIN2  ShakingFrontSight_000_1_55
// 072   ----------------------------------------
        BYTE   PATT
         POIN2  ShakingFrontSight_000_1_56
// 073   ----------------------------------------
        BYTE   PATT
         POIN2  ShakingFrontSight_000_1_5
// 074   ----------------------------------------
        BYTE   PATT
         POIN2  ShakingFrontSight_000_1_6
// 075   ----------------------------------------
ShakingFrontSight_000_1_75:
        BYTE           N10     Fn5   v085
        BYTE   W06
        BYTE                   As5
        BYTE   W06
        BYTE                   Fn5
        BYTE   W06
        BYTE                   Dn5
        BYTE   W06
        BYTE   PEND
// 076   ----------------------------------------
ShakingFrontSight_000_1_76:
        BYTE   W06
        BYTE           N22     As4   v085
        BYTE   W18
        BYTE   PEND
// 077   ----------------------------------------
        BYTE   PATT
         POIN2  ShakingFrontSight_000_1_5
// 078   ----------------------------------------
        BYTE   PATT
         POIN2  ShakingFrontSight_000_1_6
// 079   ----------------------------------------
ShakingFrontSight_000_1_79:
        BYTE           N10     Fn5   v085
        BYTE   W06
        BYTE                   Gs5
        BYTE   W06
        BYTE                   Fn5
        BYTE   W06
        BYTE                   Cn5
        BYTE   W06
        BYTE   PEND
// 080   ----------------------------------------
ShakingFrontSight_000_1_80:
        BYTE   W06
        BYTE           N22     Gs4   v085
        BYTE   W18
        BYTE   PEND
// 081   ----------------------------------------
        BYTE   PATT
         POIN2  ShakingFrontSight_000_1_5
// 082   ----------------------------------------
        BYTE   PATT
         POIN2  ShakingFrontSight_000_1_6
// 083   ----------------------------------------
ShakingFrontSight_000_1_83:
        BYTE           N10     Ds5   v085
        BYTE   W06
        BYTE                   Gs5
        BYTE   W06
        BYTE                   Ds5
        BYTE   W06
        BYTE                   Cn5
        BYTE   W06
        BYTE   PEND
// 084   ----------------------------------------
        BYTE   PATT
         POIN2  ShakingFrontSight_000_1_80
// 085   ----------------------------------------
ShakingFrontSight_000_1_85:
        BYTE   W12
        BYTE           N10     As5   v085
        BYTE   W06
        BYTE                   Fn5
        BYTE   W06
        BYTE   PEND
// 086   ----------------------------------------
ShakingFrontSight_000_1_86:
        BYTE           N22     As5   v085
        BYTE   W18
        BYTE           N10     Fn5
        BYTE   W06
        BYTE   PEND
// 087   ----------------------------------------
ShakingFrontSight_000_1_87:
        BYTE           N10     Dn5   v085
        BYTE   W06
        BYTE                   Fn5
        BYTE   W06
        BYTE                   Dn5
        BYTE   W06
        BYTE                   As4
        BYTE   W06
        BYTE   PEND
// 088   ----------------------------------------
ShakingFrontSight_000_1_88:
        BYTE   W06
        BYTE           N22     Fn4   v085
        BYTE   W18
        BYTE   PEND
// 089   ----------------------------------------
        BYTE   PATT
         POIN2  ShakingFrontSight_000_1_5
// 090   ----------------------------------------
        BYTE   PATT
         POIN2  ShakingFrontSight_000_1_6
// 091   ----------------------------------------
        BYTE   PATT
         POIN2  ShakingFrontSight_000_1_75
// 092   ----------------------------------------
        BYTE   PATT
         POIN2  ShakingFrontSight_000_1_76
// 093   ----------------------------------------
        BYTE   PATT
         POIN2  ShakingFrontSight_000_1_5
// 094   ----------------------------------------
        BYTE   PATT
         POIN2  ShakingFrontSight_000_1_6
// 095   ----------------------------------------
        BYTE   PATT
         POIN2  ShakingFrontSight_000_1_79
// 096   ----------------------------------------
        BYTE   PATT
         POIN2  ShakingFrontSight_000_1_80
// 097   ----------------------------------------
        BYTE   PATT
         POIN2  ShakingFrontSight_000_1_5
// 098   ----------------------------------------
        BYTE   PATT
         POIN2  ShakingFrontSight_000_1_6
// 099   ----------------------------------------
        BYTE   PATT
         POIN2  ShakingFrontSight_000_1_83
// 100   ----------------------------------------
        BYTE   PATT
         POIN2  ShakingFrontSight_000_1_80
// 101   ----------------------------------------
        BYTE   PATT
         POIN2  ShakingFrontSight_000_1_85
// 102   ----------------------------------------
        BYTE   PATT
         POIN2  ShakingFrontSight_000_1_86
// 103   ----------------------------------------
        BYTE   PATT
         POIN2  ShakingFrontSight_000_1_87
// 104   ----------------------------------------
        BYTE   PATT
         POIN2  ShakingFrontSight_000_1_88
// 105   ----------------------------------------
        BYTE   W24
// 106   ----------------------------------------
        BYTE   W12
        BYTE           N10     Cn5   v095
        BYTE   W06
        BYTE                   Dn5
        BYTE   W06
// 107   ----------------------------------------
        BYTE                   Cn5
        BYTE   W06
        BYTE                   As4
        BYTE   W06
        BYTE           N42     Gs4
        BYTE   W12
// 108   ----------------------------------------
        BYTE   W24
// 109   ----------------------------------------
        BYTE   W24
// 110   ----------------------------------------
        BYTE   W12
        BYTE           N10     Fn5
        BYTE   W06
        BYTE                   Gn5
        BYTE   W06
// 111   ----------------------------------------
        BYTE                   Fn5
        BYTE   W06
        BYTE                   Ds5
        BYTE   W06
        BYTE           N42     Dn5
        BYTE   W12
// 112   ----------------------------------------
        BYTE   W24
// 113   ----------------------------------------
        BYTE   W24
// 114   ----------------------------------------
        BYTE   W24
// 115   ----------------------------------------
        BYTE   W24
// 116   ----------------------------------------
        BYTE   W24
// 117   ----------------------------------------
        BYTE   W24
// 118   ----------------------------------------
        BYTE   W24
// 119   ----------------------------------------
        BYTE   W24
// 120   ----------------------------------------
        BYTE   W24
// 121   ----------------------------------------
        BYTE   W24
// 122   ----------------------------------------
        BYTE   W12
        BYTE           N09     Cn6
        BYTE   W06
        BYTE                   Dn6
        BYTE   W06
// 123   ----------------------------------------
        BYTE                   Cn6
        BYTE   W06
        BYTE                   As5
        BYTE   W06
        BYTE           N42     Gs5
        BYTE   W12
// 124   ----------------------------------------
        BYTE   W24
// 125   ----------------------------------------
        BYTE   W24
// 126   ----------------------------------------
        BYTE   W12
        BYTE           N09     As5
        BYTE   W06
        BYTE                   Cn6
        BYTE   W06
// 127   ----------------------------------------
        BYTE                   As5
        BYTE   W06
        BYTE                   Gs5
        BYTE   W06
        BYTE           N42     Gn5
        BYTE   W12
// 128   ----------------------------------------
        BYTE   W24
// 129   ----------------------------------------
        BYTE   W24
// 130   ----------------------------------------
        BYTE   W24
// 131   ----------------------------------------
        BYTE   W24
// 132   ----------------------------------------
        BYTE   W24
// 133   ----------------------------------------
        BYTE   W24
// 134   ----------------------------------------
        BYTE   W24
// 135   ----------------------------------------
        BYTE   W24
// 136   ----------------------------------------
        BYTE   W24
// 137   ----------------------------------------
        BYTE   W24
// 138   ----------------------------------------
        BYTE   W24
// 139   ----------------------------------------
        BYTE   W24
// 140   ----------------------------------------
        BYTE   W24
// 141   ----------------------------------------
        BYTE   W24
// 142   ----------------------------------------
        BYTE   W24
// 143   ----------------------------------------
        BYTE   W24
// 144   ----------------------------------------
        BYTE   W24
// 145   ----------------------------------------
        BYTE   W24
// 146   ----------------------------------------
        BYTE   W24
// 147   ----------------------------------------
        BYTE   W24
// 148   ----------------------------------------
        BYTE   W24
// 149   ----------------------------------------
        BYTE   W24
// 150   ----------------------------------------
        BYTE   W24
// 151   ----------------------------------------
        BYTE   W24
// 152   ----------------------------------------
        BYTE   W24
// 153   ----------------------------------------
        BYTE   W24
// 154   ----------------------------------------
        BYTE   W24
// 155   ----------------------------------------
        BYTE   W24
// 156   ----------------------------------------
        BYTE   W24
// 157   ----------------------------------------
        BYTE   W24
// 158   ----------------------------------------
        BYTE   W24
// 159   ----------------------------------------
        BYTE   W24
// 160   ----------------------------------------
        BYTE   W24
// 161   ----------------------------------------
        BYTE   W24
// 162   ----------------------------------------
        BYTE   W24
// 163   ----------------------------------------
        BYTE   W24
// 164   ----------------------------------------
        BYTE   W24
// 165   ----------------------------------------
        BYTE   W24
// 166   ----------------------------------------
        BYTE   W24
// 167   ----------------------------------------
        BYTE   W24
// 168   ----------------------------------------
        BYTE   W24
// 169   ----------------------------------------
        BYTE           N24     Dn6   v085   gtp3
        BYTE   W24
// 170   ----------------------------------------
        BYTE           N68     Cn6   v085   gtp1
        BYTE   W24
// 171   ----------------------------------------
        BYTE   W24
// 172   ----------------------------------------
        BYTE   W24
// 173   ----------------------------------------
        BYTE           N24     As5   v085   gtp3
        BYTE   W24
// 174   ----------------------------------------
        BYTE           N68     Gs5   v085   gtp1
        BYTE   W24
// 175   ----------------------------------------
        BYTE   W24
// 176   ----------------------------------------
        BYTE   W24
// 177   ----------------------------------------
        BYTE           N24     As5   v085   gtp3
        BYTE   W24
// 178   ----------------------------------------
        BYTE           N68     Gs5   v085   gtp1
        BYTE   W24
// 179   ----------------------------------------
        BYTE   W24
// 180   ----------------------------------------
        BYTE   W24
// 181   ----------------------------------------
        BYTE           N24     As5   v085   gtp3
        BYTE   W24
// 182   ----------------------------------------
        BYTE           N68     Gs5   v085   gtp1
        BYTE   W24
// 183   ----------------------------------------
        BYTE   W24
// 184   ----------------------------------------
        BYTE   W24
// 185   ----------------------------------------
        BYTE           N92     Gn5   v080   gtp1
        BYTE   W24
// 186   ----------------------------------------
        BYTE   W24
// 187   ----------------------------------------
        BYTE   W24
// 188   ----------------------------------------
        BYTE   W24
// 189   ----------------------------------------
        BYTE   W24
// 190   ----------------------------------------
        BYTE   W24
// 191   ----------------------------------------
        BYTE   W24
// 192   ----------------------------------------
        BYTE   W24
// 193   ----------------------------------------
        BYTE   W24
// 194   ----------------------------------------
        BYTE   W24
// 195   ----------------------------------------
        BYTE   W24
// 196   ----------------------------------------
        BYTE   W24
// 197   ----------------------------------------
        BYTE   W24
// 198   ----------------------------------------
        BYTE   W24
// 199   ----------------------------------------
        BYTE   W24
// 200   ----------------------------------------
        BYTE   W24
// 201   ----------------------------------------
ShakingFrontSight_000_1_201:
        BYTE   W12
        BYTE           N10     Bn5   v070
        BYTE   W06
        BYTE                   Fs5
        BYTE   W06
        BYTE   PEND
// 202   ----------------------------------------
ShakingFrontSight_000_1_202:
        BYTE           N22     Bn5   v070
        BYTE   W18
        BYTE           N10     Fs5
        BYTE   W06
        BYTE   PEND
// 203   ----------------------------------------
ShakingFrontSight_000_1_203:
        BYTE           N10     Dn5   v070
        BYTE   W06
        BYTE                   Fs5
        BYTE   W06
        BYTE                   Dn5
        BYTE   W06
        BYTE           N16     Bn4
        BYTE   W06
        BYTE   PEND
// 204   ----------------------------------------
ShakingFrontSight_000_1_204:
        BYTE   W06
        BYTE           N32     Fs4   v070   gtp2
        BYTE   W18
        BYTE   PEND
// 205   ----------------------------------------
        BYTE   PATT
         POIN2  ShakingFrontSight_000_1_201
// 206   ----------------------------------------
        BYTE   PATT
         POIN2  ShakingFrontSight_000_1_202
// 207   ----------------------------------------
        BYTE   PATT
         POIN2  ShakingFrontSight_000_1_203
// 208   ----------------------------------------
        BYTE   PATT
         POIN2  ShakingFrontSight_000_1_204
// 209   ----------------------------------------
        BYTE   PATT
         POIN2  ShakingFrontSight_000_1_201
// 210   ----------------------------------------
        BYTE   PATT
         POIN2  ShakingFrontSight_000_1_202
// 211   ----------------------------------------
        BYTE   PATT
         POIN2  ShakingFrontSight_000_1_203
// 212   ----------------------------------------
        BYTE   PATT
         POIN2  ShakingFrontSight_000_1_204
// 213   ----------------------------------------
        BYTE   PATT
         POIN2  ShakingFrontSight_000_1_201
// 214   ----------------------------------------
        BYTE   PATT
         POIN2  ShakingFrontSight_000_1_202
// 215   ----------------------------------------
        BYTE   PATT
         POIN2  ShakingFrontSight_000_1_203
// 216   ----------------------------------------
        BYTE   W06
        BYTE           N17     Fs4   v070
        BYTE   W18
// 217   ----------------------------------------
        BYTE   GoTo
         POIN2  ShakingFrontSight_000_1_LOOP
        BYTE   FINE

//****************** Track 2 (Midi-Chn.2) ******************//

ShakingFrontSight_000_2:
        BYTE   KEYSH   ShakingFrontSight_000_key+0
// 000   ----------------------------------------
        BYTE           VOICE   101
        BYTE           VOL     42
        BYTE   W01
        BYTE           PAN     c_v+24
        BYTE   W23
// 001   ----------------------------------------
ShakingFrontSight_000_2_LOOP:
        BYTE   W24
// 002   ----------------------------------------
        BYTE   W24
// 003   ----------------------------------------
        BYTE           N18     Bn2   v100
        BYTE   W06
        BYTE           BEND    c_v+1
        BYTE   W01
        BYTE                   c_v+0
        BYTE   W02
        BYTE                   c_v-1
        BYTE   W01
        BYTE                   c_v+0
        BYTE   W02
        BYTE                   c_v+1
        BYTE   W01
        BYTE                   c_v+2
        BYTE   W02
        BYTE                   c_v+1
        BYTE   W01
        BYTE                   c_v+0
        BYTE   W02
        BYTE           N04     Dn3   v070
        BYTE   W03
        BYTE                   Fs3
        BYTE   W03
// 004   ----------------------------------------
        BYTE           N24     Bn3   v100
        BYTE   W06
        BYTE           BEND    c_v+1
        BYTE   W01
        BYTE                   c_v+0
        BYTE   W02
        BYTE                   c_v-1
        BYTE   W01
        BYTE                   c_v+0
        BYTE   W02
        BYTE                   c_v+1
        BYTE   W01
        BYTE                   c_v+2
        BYTE   W02
        BYTE                   c_v+1
        BYTE   W01
        BYTE                   c_v+0
        BYTE   W02
        BYTE                   c_v-1
        BYTE   W01
        BYTE                   c_v-2
        BYTE   W02
        BYTE                   c_v-1
        BYTE   W01
        BYTE                   c_v+0
        BYTE   W02
// 005   ----------------------------------------
        BYTE           N68     Gn3   v100   gtp2
        BYTE   W06
        BYTE           BEND    c_v+1
        BYTE   W01
        BYTE                   c_v+0
        BYTE   W02
        BYTE                   c_v-1
        BYTE   W01
        BYTE                   c_v+0
        BYTE   W02
        BYTE                   c_v+1
        BYTE   W01
        BYTE                   c_v+2
        BYTE   W02
        BYTE                   c_v+1
        BYTE   W01
        BYTE                   c_v+0
        BYTE   W02
        BYTE                   c_v-1
        BYTE   W01
        BYTE                   c_v+0
        BYTE   W02
        BYTE                   c_v+1
        BYTE   W01
        BYTE                   c_v+2
        BYTE   W02
// 006   ----------------------------------------
        BYTE   PATT
         POIN2  ShakingFrontSight_000_0_202
// 007   ----------------------------------------
        BYTE           BEND    c_v-1
        BYTE   W01
        BYTE                   c_v+0
        BYTE   W02
        BYTE                   c_v+1
        BYTE   W01
        BYTE                   c_v+2
        BYTE   W02
        BYTE                   c_v+3
        BYTE   W01
        BYTE                   c_v+2
        BYTE   W02
        BYTE                   c_v+1
        BYTE   W01
        BYTE                   c_v+0
        BYTE   W02
        BYTE                   c_v-1
        BYTE   W01
        BYTE                   c_v-2
        BYTE   W02
        BYTE                   c_v-1
        BYTE   W01
        BYTE                   c_v+0
        BYTE   W08
// 008   ----------------------------------------
        BYTE           N12     Fs3   v100
        BYTE   W06
        BYTE           BEND    c_v+1
        BYTE   W01
        BYTE                   c_v+2
        BYTE   W02
        BYTE                   c_v+1
        BYTE   W01
        BYTE                   c_v+0
        BYTE   W02
        BYTE           N12     En3   v090
        BYTE   W06
        BYTE           BEND    c_v+1
        BYTE   W01
        BYTE                   c_v+2
        BYTE   W02
        BYTE                   c_v+1
        BYTE   W01
        BYTE                   c_v+0
        BYTE   W02
// 009   ----------------------------------------
        BYTE           N32     Fs3   v100   gtp2
        BYTE   W06
        BYTE           BEND    c_v+1
        BYTE   W01
        BYTE                   c_v+0
        BYTE   W02
        BYTE                   c_v-1
        BYTE   W01
        BYTE                   c_v+0
        BYTE   W02
        BYTE                   c_v+1
        BYTE   W01
        BYTE                   c_v+2
        BYTE   W02
        BYTE                   c_v+1
        BYTE   W01
        BYTE                   c_v+0
        BYTE   W02
        BYTE                   c_v-1
        BYTE   W01
        BYTE                   c_v+0
        BYTE   W02
        BYTE                   c_v+1
        BYTE   W01
        BYTE                   c_v+2
        BYTE   W02
// 010   ----------------------------------------
        BYTE                   c_v+3
        BYTE   W01
        BYTE                   c_v+2
        BYTE   W02
        BYTE                   c_v+1
        BYTE   W01
        BYTE                   c_v+0
        BYTE   W08
        BYTE           N12     Bn2   v090
        BYTE   W06
        BYTE           BEND    c_v+1
        BYTE   W01
        BYTE                   c_v+2
        BYTE   W02
        BYTE                   c_v+1
        BYTE   W01
        BYTE                   c_v+0
        BYTE   W02
// 011   ----------------------------------------
        BYTE           N18     Dn3   v100
        BYTE   W06
        BYTE           BEND    c_v+1
        BYTE   W01
        BYTE                   c_v+0
        BYTE   W02
        BYTE                   c_v-1
        BYTE   W01
        BYTE                   c_v+0
        BYTE   W02
        BYTE                   c_v+1
        BYTE   W01
        BYTE                   c_v+2
        BYTE   W02
        BYTE                   c_v+1
        BYTE   W01
        BYTE                   c_v+0
        BYTE   W02
        BYTE           N18     Cs3
        BYTE   W06
// 012   ----------------------------------------
        BYTE           BEND    c_v+1
        BYTE   W01
        BYTE                   c_v+0
        BYTE   W02
        BYTE                   c_v-1
        BYTE   W01
        BYTE                   c_v+0
        BYTE   W02
        BYTE                   c_v+1
        BYTE   W01
        BYTE                   c_v+2
        BYTE   W02
        BYTE                   c_v+1
        BYTE   W01
        BYTE                   c_v+0
        BYTE   W02
        BYTE           N12     Dn3
        BYTE   W06
        BYTE           BEND    c_v+1
        BYTE   W01
        BYTE                   c_v+2
        BYTE   W02
        BYTE                   c_v+1
        BYTE   W01
        BYTE                   c_v+0
        BYTE   W02
// 013   ----------------------------------------
        BYTE           N88     Gn2
        BYTE   W06
        BYTE           BEND    c_v+1
        BYTE   W01
        BYTE                   c_v+0
        BYTE   W02
        BYTE                   c_v-1
        BYTE   W01
        BYTE                   c_v+0
        BYTE   W02
        BYTE                   c_v+1
        BYTE   W01
        BYTE                   c_v+2
        BYTE   W02
        BYTE                   c_v+1
        BYTE   W01
        BYTE                   c_v+0
        BYTE   W02
        BYTE                   c_v-1
        BYTE   W01
        BYTE                   c_v+0
        BYTE   W02
        BYTE                   c_v+1
        BYTE   W01
        BYTE                   c_v+2
        BYTE   W02
// 014   ----------------------------------------
        BYTE   PATT
         POIN2  ShakingFrontSight_000_0_71
// 015   ----------------------------------------
        BYTE   PATT
         POIN2  ShakingFrontSight_000_0_72
// 016   ----------------------------------------
        BYTE           BEND    c_v+1
        BYTE   W01
        BYTE                   c_v+2
        BYTE   W02
        BYTE                   c_v+3
        BYTE   W01
        BYTE                   c_v+2
        BYTE   W02
        BYTE                   c_v+1
        BYTE   W01
        BYTE                   c_v+0
        BYTE   W02
        BYTE                   c_v-1
        BYTE   W01
        BYTE                   c_v+0
        BYTE   W14
// 017   ----------------------------------------
        BYTE   W24
// 018   ----------------------------------------
        BYTE   W24
// 019   ----------------------------------------
        BYTE   W24
// 020   ----------------------------------------
        BYTE   W24
// 021   ----------------------------------------
        BYTE   W24
// 022   ----------------------------------------
        BYTE   W24
// 023   ----------------------------------------
        BYTE   W24
// 024   ----------------------------------------
        BYTE   W24
// 025   ----------------------------------------
        BYTE   W24
// 026   ----------------------------------------
        BYTE   W24
// 027   ----------------------------------------
        BYTE   W24
// 028   ----------------------------------------
        BYTE   W24
// 029   ----------------------------------------
        BYTE   W24
// 030   ----------------------------------------
        BYTE   W24
// 031   ----------------------------------------
        BYTE   W24
// 032   ----------------------------------------
        BYTE           N10     An3   v095
        BYTE   W12
        BYTE                   Gn3   v085
        BYTE   W12
// 033   ----------------------------------------
        BYTE           N16     Fs3   v070
        BYTE   W06
        BYTE           BEND    c_v+1
        BYTE   W01
        BYTE                   c_v+2
        BYTE   W02
        BYTE                   c_v+1
        BYTE   W01
        BYTE                   c_v+0
        BYTE   W14
// 034   ----------------------------------------
        BYTE   W24
// 035   ----------------------------------------
        BYTE   W24
// 036   ----------------------------------------
        BYTE   W24
// 037   ----------------------------------------
        BYTE   W24
// 038   ----------------------------------------
        BYTE   W24
// 039   ----------------------------------------
        BYTE           N18     Fs2   v100
        BYTE   W06
        BYTE           BEND    c_v+1
        BYTE   W01
        BYTE                   c_v+0
        BYTE   W02
        BYTE                   c_v-1
        BYTE   W01
        BYTE                   c_v+0
        BYTE   W02
        BYTE                   c_v+1
        BYTE   W01
        BYTE                   c_v+2
        BYTE   W02
        BYTE                   c_v+1
        BYTE   W01
        BYTE                   c_v+0
        BYTE   W02
        BYTE           N04     An2   v060
        BYTE   W03
        BYTE                   Cs3
        BYTE   W03
// 040   ----------------------------------------
        BYTE           N24     Fs3   v100
        BYTE   W06
        BYTE           BEND    c_v+1
        BYTE   W01
        BYTE                   c_v+0
        BYTE   W02
        BYTE                   c_v-1
        BYTE   W01
        BYTE                   c_v+0
        BYTE   W02
        BYTE                   c_v+1
        BYTE   W01
        BYTE                   c_v+2
        BYTE   W02
        BYTE                   c_v+1
        BYTE   W01
        BYTE                   c_v+0
        BYTE   W02
        BYTE                   c_v-1
        BYTE   W01
        BYTE                   c_v+0
        BYTE   W02
        BYTE                   c_v+1
        BYTE   W01
        BYTE                   c_v+0
        BYTE   W02
// 041   ----------------------------------------
        BYTE           N56     Dn3   v100   gtp1
        BYTE   W06
        BYTE           BEND    c_v+1
        BYTE   W01
        BYTE                   c_v+0
        BYTE   W02
        BYTE                   c_v-1
        BYTE   W01
        BYTE                   c_v+0
        BYTE   W02
        BYTE                   c_v+1
        BYTE   W01
        BYTE                   c_v+2
        BYTE   W02
        BYTE                   c_v+1
        BYTE   W01
        BYTE                   c_v+0
        BYTE   W02
        BYTE                   c_v-1
        BYTE   W01
        BYTE                   c_v+0
        BYTE   W02
        BYTE                   c_v+1
        BYTE   W01
        BYTE                   c_v+2
        BYTE   W02
// 042   ----------------------------------------
        BYTE   PATT
         POIN2  ShakingFrontSight_000_0_71
// 043   ----------------------------------------
        BYTE           BEND    c_v-1
        BYTE   W01
        BYTE                   c_v-2
        BYTE   W02
        BYTE                   c_v-1
        BYTE   W01
        BYTE                   c_v+0
        BYTE   W08
        BYTE           N12     An2   v100
        BYTE   W06
        BYTE           BEND    c_v+1
        BYTE   W01
        BYTE                   c_v+2
        BYTE   W02
        BYTE                   c_v+1
        BYTE   W01
        BYTE                   c_v+0
        BYTE   W02
// 044   ----------------------------------------
        BYTE           N12     Cs3
        BYTE   W06
        BYTE           BEND    c_v+1
        BYTE   W01
        BYTE                   c_v+2
        BYTE   W02
        BYTE                   c_v+1
        BYTE   W01
        BYTE                   c_v+0
        BYTE   W02
        BYTE           N12     En3
        BYTE   W06
        BYTE           BEND    c_v+1
        BYTE   W01
        BYTE                   c_v+2
        BYTE   W02
        BYTE                   c_v+1
        BYTE   W01
        BYTE                   c_v+0
        BYTE   W02
// 045   ----------------------------------------
        BYTE           N06     Dn3
        BYTE   W06
        BYTE                   Cs3
        BYTE   W06
        BYTE           N30     Dn3
        BYTE   W06
        BYTE           BEND    c_v+1
        BYTE   W01
        BYTE                   c_v+0
        BYTE   W02
        BYTE                   c_v-1
        BYTE   W01
        BYTE                   c_v+0
        BYTE   W02
// 046   ----------------------------------------
        BYTE                   c_v+1
        BYTE   W01
        BYTE                   c_v+2
        BYTE   W02
        BYTE                   c_v+1
        BYTE   W01
        BYTE                   c_v+0
        BYTE   W02
        BYTE                   c_v-1
        BYTE   W01
        BYTE                   c_v+0
        BYTE   W02
        BYTE                   c_v+1
        BYTE   W01
        BYTE                   c_v+2
        BYTE   W02
        BYTE                   c_v+3
        BYTE   W01
        BYTE                   c_v+2
        BYTE   W02
        BYTE                   c_v+1
        BYTE   W01
        BYTE                   c_v+0
        BYTE   W08
// 047   ----------------------------------------
        BYTE           N12     Bn2
        BYTE   W06
        BYTE           BEND    c_v+1
        BYTE   W01
        BYTE                   c_v+2
        BYTE   W02
        BYTE                   c_v+1
        BYTE   W01
        BYTE                   c_v+0
        BYTE   W02
        BYTE           N12     Cs3
        BYTE   W06
        BYTE           BEND    c_v+1
        BYTE   W01
        BYTE                   c_v+2
        BYTE   W02
        BYTE                   c_v+1
        BYTE   W01
        BYTE                   c_v+0
        BYTE   W02
// 048   ----------------------------------------
        BYTE           N12     Dn3
        BYTE   W06
        BYTE           BEND    c_v+1
        BYTE   W01
        BYTE                   c_v+2
        BYTE   W02
        BYTE                   c_v+1
        BYTE   W01
        BYTE                   c_v+0
        BYTE   W02
        BYTE           N12     En3
        BYTE   W06
        BYTE           BEND    c_v+1
        BYTE   W01
        BYTE                   c_v+2
        BYTE   W02
        BYTE                   c_v+1
        BYTE   W01
        BYTE                   c_v+0
        BYTE   W02
// 049   ----------------------------------------
        BYTE           N12     Fs3
        BYTE   W06
        BYTE           BEND    c_v+1
        BYTE   W01
        BYTE                   c_v+2
        BYTE   W02
        BYTE                   c_v+1
        BYTE   W01
        BYTE                   c_v+0
        BYTE   W02
        BYTE           N12     Gn3
        BYTE   W06
        BYTE           BEND    c_v+1
        BYTE   W01
        BYTE                   c_v+2
        BYTE   W02
        BYTE                   c_v+1
        BYTE   W01
        BYTE                   c_v+0
        BYTE   W02
// 050   ----------------------------------------
        BYTE           N12     Fs3
        BYTE   W06
        BYTE           BEND    c_v+1
        BYTE   W01
        BYTE                   c_v+2
        BYTE   W02
        BYTE                   c_v+1
        BYTE   W01
        BYTE                   c_v+0
        BYTE   W02
        BYTE           N42     Bn2
        BYTE   W06
        BYTE           BEND    c_v+1
        BYTE   W01
        BYTE                   c_v+0
        BYTE   W02
        BYTE                   c_v-1
        BYTE   W01
        BYTE                   c_v+0
        BYTE   W02
// 051   ----------------------------------------
        BYTE   PATT
         POIN2  ShakingFrontSight_000_0_62
// 052   ----------------------------------------
        BYTE           BEND    c_v+1
        BYTE   W01
        BYTE                   c_v+2
        BYTE   W02
        BYTE                   c_v+1
        BYTE   W01
        BYTE                   c_v+0
        BYTE   W08
        BYTE           N12     Cs3   v100
        BYTE   W06
        BYTE           BEND    c_v+1
        BYTE   W01
        BYTE                   c_v+2
        BYTE   W02
        BYTE                   c_v+1
        BYTE   W01
        BYTE                   c_v+0
        BYTE   W02
// 053   ----------------------------------------
        BYTE           N18     En3
        BYTE   W06
        BYTE           BEND    c_v+1
        BYTE   W01
        BYTE                   c_v+2
        BYTE   W02
        BYTE                   c_v+1
        BYTE   W01
        BYTE                   c_v+0
        BYTE   W02
        BYTE                   c_v-1
        BYTE   W01
        BYTE                   c_v-2
        BYTE   W02
        BYTE                   c_v-1
        BYTE   W01
        BYTE                   c_v+0
        BYTE   W08
// 054   ----------------------------------------
        BYTE           N18     Dn3
        BYTE   W06
        BYTE           BEND    c_v+1
        BYTE   W01
        BYTE                   c_v+2
        BYTE   W02
        BYTE                   c_v+1
        BYTE   W01
        BYTE                   c_v+0
        BYTE   W02
        BYTE                   c_v-1
        BYTE   W01
        BYTE                   c_v-2
        BYTE   W02
        BYTE                   c_v-1
        BYTE   W01
        BYTE                   c_v+0
        BYTE   W08
// 055   ----------------------------------------
        BYTE           N18     Cs3
        BYTE   W06
        BYTE           BEND    c_v+1
        BYTE   W01
        BYTE                   c_v+2
        BYTE   W02
        BYTE                   c_v+1
        BYTE   W01
        BYTE                   c_v+0
        BYTE   W02
        BYTE                   c_v-1
        BYTE   W01
        BYTE                   c_v-2
        BYTE   W02
        BYTE                   c_v-1
        BYTE   W01
        BYTE                   c_v+0
        BYTE   W08
// 056   ----------------------------------------
        BYTE           N18     An2
        BYTE   W06
        BYTE           BEND    c_v+1
        BYTE   W01
        BYTE                   c_v+2
        BYTE   W02
        BYTE                   c_v+1
        BYTE   W01
        BYTE                   c_v+0
        BYTE   W02
        BYTE                   c_v-1
        BYTE   W01
        BYTE                   c_v-2
        BYTE   W02
        BYTE                   c_v-1
        BYTE   W01
        BYTE                   c_v+0
        BYTE   W08
// 057   ----------------------------------------
        BYTE           N54     Fs2   v090
        BYTE   W06
        BYTE           BEND    c_v+1
        BYTE   W01
        BYTE                   c_v+0
        BYTE   W02
        BYTE                   c_v-1
        BYTE   W01
        BYTE                   c_v+0
        BYTE   W02
        BYTE                   c_v+1
        BYTE   W01
        BYTE                   c_v+2
        BYTE   W02
        BYTE                   c_v+1
        BYTE   W01
        BYTE                   c_v+0
        BYTE   W02
        BYTE                   c_v-1
        BYTE   W01
        BYTE                   c_v+0
        BYTE   W02
        BYTE                   c_v+1
        BYTE   W01
        BYTE                   c_v+2
        BYTE   W02
// 058   ----------------------------------------
        BYTE   PATT
         POIN2  ShakingFrontSight_000_0_71
// 059   ----------------------------------------
ShakingFrontSight_000_2_59:
        BYTE           BEND    c_v-1
        BYTE   W01
        BYTE                   c_v-2
        BYTE   W02
        BYTE                   c_v-1
        BYTE   W01
        BYTE                   c_v+0
        BYTE   W20
        BYTE   PEND
// 060   ----------------------------------------
        BYTE   W24
// 061   ----------------------------------------
        BYTE   W24
// 062   ----------------------------------------
        BYTE   W12
        BYTE           N06     En3   v100
        BYTE   W06
        BYTE                   Fs3   v090
        BYTE   W06
// 063   ----------------------------------------
        BYTE           N54     Gn3
        BYTE   W06
        BYTE           BEND    c_v+1
        BYTE   W01
        BYTE                   c_v+0
        BYTE   W02
        BYTE                   c_v-1
        BYTE   W01
        BYTE                   c_v+0
        BYTE   W02
        BYTE                   c_v+1
        BYTE   W01
        BYTE                   c_v+2
        BYTE   W02
        BYTE                   c_v+1
        BYTE   W01
        BYTE                   c_v+0
        BYTE   W02
        BYTE                   c_v-1
        BYTE   W01
        BYTE                   c_v+0
        BYTE   W02
        BYTE                   c_v+1
        BYTE   W01
        BYTE                   c_v+2
        BYTE   W02
// 064   ----------------------------------------
        BYTE   PATT
         POIN2  ShakingFrontSight_000_0_71
// 065   ----------------------------------------
        BYTE           BEND    c_v-1
        BYTE   W01
        BYTE                   c_v-2
        BYTE   W02
        BYTE                   c_v-1
        BYTE   W01
        BYTE                   c_v+0
        BYTE   W08
        BYTE           N12     Fs3   v100
        BYTE   W06
        BYTE           BEND    c_v+1
        BYTE   W01
        BYTE                   c_v+2
        BYTE   W02
        BYTE                   c_v+1
        BYTE   W01
        BYTE                   c_v+0
        BYTE   W02
// 066   ----------------------------------------
        BYTE           N12     Dn3
        BYTE   W06
        BYTE           BEND    c_v+1
        BYTE   W01
        BYTE                   c_v+2
        BYTE   W02
        BYTE                   c_v+1
        BYTE   W01
        BYTE                   c_v+0
        BYTE   W02
        BYTE           N12     Bn2
        BYTE   W06
        BYTE           BEND    c_v+1
        BYTE   W01
        BYTE                   c_v+2
        BYTE   W02
        BYTE                   c_v+1
        BYTE   W01
        BYTE                   c_v+0
        BYTE   W02
// 067   ----------------------------------------
        BYTE           N54     Gn2
        BYTE   W06
        BYTE           BEND    c_v+1
        BYTE   W01
        BYTE                   c_v+0
        BYTE   W02
        BYTE                   c_v-1
        BYTE   W01
        BYTE                   c_v+0
        BYTE   W02
        BYTE                   c_v+1
        BYTE   W01
        BYTE                   c_v+2
        BYTE   W02
        BYTE                   c_v+1
        BYTE   W01
        BYTE                   c_v+0
        BYTE   W02
        BYTE                   c_v-1
        BYTE   W01
        BYTE                   c_v-2
        BYTE   W02
        BYTE                   c_v-1
        BYTE   W01
        BYTE                   c_v+0
        BYTE   W02
// 068   ----------------------------------------
        BYTE                   c_v+1
        BYTE   W01
        BYTE                   c_v+2
        BYTE   W02
        BYTE                   c_v+3
        BYTE   W01
        BYTE                   c_v+2
        BYTE   W02
        BYTE                   c_v+1
        BYTE   W01
        BYTE                   c_v+0
        BYTE   W02
        BYTE                   c_v-1
        BYTE   W01
        BYTE                   c_v-2
        BYTE   W02
        BYTE                   c_v-1
        BYTE   W01
        BYTE                   c_v+0
        BYTE   W02
        BYTE                   c_v+1
        BYTE   W01
        BYTE                   c_v+2
        BYTE   W02
        BYTE                   c_v+3
        BYTE   W01
        BYTE                   c_v+4
        BYTE   W02
        BYTE                   c_v+3
        BYTE   W01
        BYTE                   c_v+2
        BYTE   W02
// 069   ----------------------------------------
        BYTE                   c_v+1
        BYTE   W01
        BYTE                   c_v+0
        BYTE   W02
        BYTE                   c_v-1
        BYTE   W01
        BYTE                   c_v+0
        BYTE   W20
// 070   ----------------------------------------
        BYTE   W12
        BYTE           N06     En2
        BYTE   W06
        BYTE                   An2
        BYTE   W06
// 071   ----------------------------------------
        BYTE           N20     Bn2
        BYTE   W06
        BYTE           BEND    c_v+1
        BYTE   W01
        BYTE                   c_v+0
        BYTE   W02
        BYTE                   c_v-1
        BYTE   W01
        BYTE                   c_v+0
        BYTE   W02
        BYTE                   c_v+1
        BYTE   W01
        BYTE                   c_v+2
        BYTE   W02
        BYTE                   c_v+1
        BYTE   W01
        BYTE                   c_v+0
        BYTE   W08
// 072   ----------------------------------------
        BYTE           N20     Cs3
        BYTE   W06
        BYTE           BEND    c_v+1
        BYTE   W01
        BYTE                   c_v+0
        BYTE   W02
        BYTE                   c_v-1
        BYTE   W01
        BYTE                   c_v+0
        BYTE   W02
        BYTE                   c_v+1
        BYTE   W01
        BYTE                   c_v+2
        BYTE   W02
        BYTE                   c_v+1
        BYTE   W01
        BYTE                   c_v+0
        BYTE   W08
// 073   ----------------------------------------
        BYTE           N28     Cn3   v080
        BYTE   W06
        BYTE           BEND    c_v+1
        BYTE   W01
        BYTE                   c_v+0
        BYTE   W02
        BYTE                   c_v-1
        BYTE   W01
        BYTE                   c_v+0
        BYTE   W02
        BYTE                   c_v+1
        BYTE   W01
        BYTE                   c_v+2
        BYTE   W02
        BYTE                   c_v+1
        BYTE   W01
        BYTE                   c_v+0
        BYTE   W02
        BYTE                   c_v-1
        BYTE   W01
        BYTE                   c_v+0
        BYTE   W02
        BYTE                   c_v+1
        BYTE   W01
        BYTE                   c_v+0
        BYTE   W02
// 074   ----------------------------------------
ShakingFrontSight_000_2_74:
        BYTE   W12
        BYTE           N04     Dn3   v110
        BYTE   W06
        BYTE                   Ds3   v100
        BYTE   W06
        BYTE   PEND
// 075   ----------------------------------------
        BYTE           N54     As2   v090
        BYTE   W06
        BYTE           BEND    c_v+1
        BYTE   W01
        BYTE                   c_v+0
        BYTE   W02
        BYTE                   c_v-1
        BYTE   W01
        BYTE                   c_v+0
        BYTE   W02
        BYTE                   c_v+1
        BYTE   W01
        BYTE                   c_v+2
        BYTE   W02
        BYTE                   c_v+1
        BYTE   W01
        BYTE                   c_v+0
        BYTE   W02
        BYTE                   c_v-1
        BYTE   W01
        BYTE                   c_v+0
        BYTE   W02
        BYTE                   c_v+1
        BYTE   W01
        BYTE                   c_v+2
        BYTE   W02
// 076   ----------------------------------------
        BYTE   PATT
         POIN2  ShakingFrontSight_000_0_71
// 077   ----------------------------------------
        BYTE   PATT
         POIN2  ShakingFrontSight_000_2_59
// 078   ----------------------------------------
        BYTE   PATT
         POIN2  ShakingFrontSight_000_2_74
// 079   ----------------------------------------
ShakingFrontSight_000_2_79:
        BYTE           N54     Gs2   v090
        BYTE   W06
        BYTE           BEND    c_v+1
        BYTE   W01
        BYTE                   c_v+0
        BYTE   W02
        BYTE                   c_v-1
        BYTE   W01
        BYTE                   c_v+0
        BYTE   W02
        BYTE                   c_v+1
        BYTE   W01
        BYTE                   c_v+2
        BYTE   W02
        BYTE                   c_v+1
        BYTE   W01
        BYTE                   c_v+0
        BYTE   W02
        BYTE                   c_v-1
        BYTE   W01
        BYTE                   c_v+0
        BYTE   W02
        BYTE                   c_v+1
        BYTE   W01
        BYTE                   c_v+2
        BYTE   W02
        BYTE   PEND
// 080   ----------------------------------------
        BYTE   PATT
         POIN2  ShakingFrontSight_000_0_71
// 081   ----------------------------------------
        BYTE   PATT
         POIN2  ShakingFrontSight_000_2_59
// 082   ----------------------------------------
        BYTE   PATT
         POIN2  ShakingFrontSight_000_2_74
// 083   ----------------------------------------
        BYTE   PATT
         POIN2  ShakingFrontSight_000_2_79
// 084   ----------------------------------------
        BYTE   PATT
         POIN2  ShakingFrontSight_000_0_71
// 085   ----------------------------------------
        BYTE   PATT
         POIN2  ShakingFrontSight_000_2_59
// 086   ----------------------------------------
        BYTE   W24
// 087   ----------------------------------------
        BYTE   W24
// 088   ----------------------------------------
        BYTE   W24
// 089   ----------------------------------------
        BYTE   W24
// 090   ----------------------------------------
        BYTE           N24     Gn2   v100
        BYTE   W06
        BYTE           BEND    c_v+1
        BYTE   W01
        BYTE                   c_v+0
        BYTE   W02
        BYTE                   c_v-1
        BYTE   W01
        BYTE                   c_v+0
        BYTE   W02
        BYTE                   c_v+1
        BYTE   W01
        BYTE                   c_v+2
        BYTE   W02
        BYTE                   c_v+1
        BYTE   W01
        BYTE                   c_v+0
        BYTE   W02
        BYTE                   c_v-1
        BYTE   W01
        BYTE                   c_v+0
        BYTE   W02
        BYTE                   c_v+2
        BYTE   W01
        BYTE                   c_v+0
        BYTE   W02
// 091   ----------------------------------------
        BYTE           N24     Dn2
        BYTE   W06
        BYTE           BEND    c_v+1
        BYTE   W01
        BYTE                   c_v+0
        BYTE   W02
        BYTE                   c_v-1
        BYTE   W01
        BYTE                   c_v+0
        BYTE   W02
        BYTE                   c_v+1
        BYTE   W01
        BYTE                   c_v+2
        BYTE   W02
        BYTE                   c_v+1
        BYTE   W01
        BYTE                   c_v+0
        BYTE   W02
        BYTE                   c_v-1
        BYTE   W01
        BYTE                   c_v+0
        BYTE   W02
        BYTE                   c_v+2
        BYTE   W01
        BYTE                   c_v+0
        BYTE   W02
// 092   ----------------------------------------
        BYTE           N24     Dn3
        BYTE   W06
        BYTE           BEND    c_v+1
        BYTE   W01
        BYTE                   c_v+0
        BYTE   W02
        BYTE                   c_v-1
        BYTE   W01
        BYTE                   c_v+0
        BYTE   W02
        BYTE                   c_v+1
        BYTE   W01
        BYTE                   c_v+2
        BYTE   W02
        BYTE                   c_v+1
        BYTE   W01
        BYTE                   c_v+0
        BYTE   W02
        BYTE                   c_v-1
        BYTE   W01
        BYTE                   c_v+0
        BYTE   W02
        BYTE                   c_v+2
        BYTE   W01
        BYTE                   c_v+0
        BYTE   W02
// 093   ----------------------------------------
        BYTE           N04     Cn3
        BYTE   W06
        BYTE                   Dn3
        BYTE   W06
        BYTE           N40     Ds3
        BYTE   W06
        BYTE           BEND    c_v+1
        BYTE   W01
        BYTE                   c_v+0
        BYTE   W02
        BYTE                   c_v-1
        BYTE   W01
        BYTE                   c_v+0
        BYTE   W02
// 094   ----------------------------------------
        BYTE   PATT
         POIN2  ShakingFrontSight_000_0_62
// 095   ----------------------------------------
        BYTE           BEND    c_v+1
        BYTE   W01
        BYTE                   c_v+0
        BYTE   W11
        BYTE           N12     Ds3   v100
        BYTE   W06
        BYTE           BEND    c_v+1
        BYTE   W01
        BYTE                   c_v+2
        BYTE   W02
        BYTE                   c_v+1
        BYTE   W01
        BYTE                   c_v+0
        BYTE   W02
// 096   ----------------------------------------
        BYTE           N12     Dn3
        BYTE   W06
        BYTE           BEND    c_v+1
        BYTE   W01
        BYTE                   c_v+2
        BYTE   W02
        BYTE                   c_v+1
        BYTE   W01
        BYTE                   c_v+0
        BYTE   W02
        BYTE           N12     Cn3
        BYTE   W06
        BYTE           BEND    c_v+1
        BYTE   W01
        BYTE                   c_v+2
        BYTE   W02
        BYTE                   c_v+1
        BYTE   W01
        BYTE                   c_v+0
        BYTE   W02
// 097   ----------------------------------------
        BYTE           N16     Gn2
        BYTE   W06
        BYTE           BEND    c_v+1
        BYTE   W01
        BYTE                   c_v+2
        BYTE   W02
        BYTE                   c_v+1
        BYTE   W01
        BYTE                   c_v+0
        BYTE   W14
// 098   ----------------------------------------
ShakingFrontSight_000_2_98:
        BYTE           N24     Cn3   v100
        BYTE   W06
        BYTE           BEND    c_v+1
        BYTE   W01
        BYTE                   c_v+0
        BYTE   W02
        BYTE                   c_v-1
        BYTE   W01
        BYTE                   c_v+0
        BYTE   W02
        BYTE                   c_v+1
        BYTE   W01
        BYTE                   c_v+2
        BYTE   W02
        BYTE                   c_v+1
        BYTE   W01
        BYTE                   c_v+0
        BYTE   W02
        BYTE                   c_v-1
        BYTE   W01
        BYTE                   c_v+0
        BYTE   W02
        BYTE                   c_v+2
        BYTE   W01
        BYTE                   c_v+0
        BYTE   W02
        BYTE   PEND
// 099   ----------------------------------------
        BYTE           N24     Ds3
        BYTE   W06
        BYTE           BEND    c_v+1
        BYTE   W01
        BYTE                   c_v+0
        BYTE   W02
        BYTE                   c_v-1
        BYTE   W01
        BYTE                   c_v+0
        BYTE   W02
        BYTE                   c_v+1
        BYTE   W01
        BYTE                   c_v+2
        BYTE   W02
        BYTE                   c_v+1
        BYTE   W01
        BYTE                   c_v+0
        BYTE   W02
        BYTE                   c_v-1
        BYTE   W01
        BYTE                   c_v+0
        BYTE   W02
        BYTE                   c_v+2
        BYTE   W01
        BYTE                   c_v+0
        BYTE   W02
// 100   ----------------------------------------
        BYTE   PATT
         POIN2  ShakingFrontSight_000_2_98
// 101   ----------------------------------------
        BYTE           N06     As2   v100
        BYTE   W06
        BYTE                   Cn3
        BYTE   W06
        BYTE                   As2
        BYTE   W06
        BYTE                   Fn2
        BYTE   W06
// 102   ----------------------------------------
        BYTE           N76     Gn2
        BYTE   W06
        BYTE           BEND    c_v+1
        BYTE   W01
        BYTE                   c_v+0
        BYTE   W02
        BYTE                   c_v-1
        BYTE   W01
        BYTE                   c_v+0
        BYTE   W02
        BYTE                   c_v+1
        BYTE   W01
        BYTE                   c_v+2
        BYTE   W02
        BYTE                   c_v+1
        BYTE   W01
        BYTE                   c_v+0
        BYTE   W02
        BYTE                   c_v-1
        BYTE   W01
        BYTE                   c_v+0
        BYTE   W02
        BYTE                   c_v+1
        BYTE   W01
        BYTE                   c_v+2
        BYTE   W02
// 103   ----------------------------------------
        BYTE   PATT
         POIN2  ShakingFrontSight_000_0_71
// 104   ----------------------------------------
        BYTE   PATT
         POIN2  ShakingFrontSight_000_0_72
// 105   ----------------------------------------
        BYTE   W24
// 106   ----------------------------------------
        BYTE   W24
// 107   ----------------------------------------
        BYTE   W24
// 108   ----------------------------------------
        BYTE   W24
// 109   ----------------------------------------
        BYTE   W24
// 110   ----------------------------------------
        BYTE   W24
// 111   ----------------------------------------
        BYTE   W24
// 112   ----------------------------------------
        BYTE   W24
// 113   ----------------------------------------
        BYTE   W24
// 114   ----------------------------------------
        BYTE   W24
// 115   ----------------------------------------
        BYTE   W24
// 116   ----------------------------------------
        BYTE           N06     Ds3   v100
        BYTE   W06
        BYTE                   Fn3
        BYTE   W06
        BYTE           N12     Gn3
        BYTE   W06
        BYTE           BEND    c_v+1
        BYTE   W01
        BYTE                   c_v+2
        BYTE   W02
        BYTE                   c_v+1
        BYTE   W01
        BYTE                   c_v+0
        BYTE   W02
// 117   ----------------------------------------
        BYTE           N20     Cn3   v090
        BYTE           N20     Gs3   v100
        BYTE   W06
        BYTE           BEND    c_v+1
        BYTE   W01
        BYTE                   c_v+2
        BYTE   W02
        BYTE                   c_v+1
        BYTE   W01
        BYTE                   c_v+0
        BYTE   W02
        BYTE                   c_v-1
        BYTE   W01
        BYTE                   c_v-2
        BYTE   W02
        BYTE                   c_v-1
        BYTE   W01
        BYTE                   c_v+0
        BYTE   W08
// 118   ----------------------------------------
        BYTE           N20     As2   v090
        BYTE           N20     Gn3   v100
        BYTE   W06
        BYTE           BEND    c_v+1
        BYTE   W01
        BYTE                   c_v+2
        BYTE   W02
        BYTE                   c_v+1
        BYTE   W01
        BYTE                   c_v+0
        BYTE   W02
        BYTE                   c_v-1
        BYTE   W01
        BYTE                   c_v-2
        BYTE   W02
        BYTE                   c_v-1
        BYTE   W01
        BYTE                   c_v+0
        BYTE   W08
// 119   ----------------------------------------
        BYTE           N20     Gs2   v090
        BYTE           N20     Fn3   v100
        BYTE   W06
        BYTE           BEND    c_v+1
        BYTE   W01
        BYTE                   c_v+2
        BYTE   W02
        BYTE                   c_v+1
        BYTE   W01
        BYTE                   c_v+0
        BYTE   W02
        BYTE                   c_v-1
        BYTE   W01
        BYTE                   c_v-2
        BYTE   W02
        BYTE                   c_v-1
        BYTE   W01
        BYTE                   c_v+0
        BYTE   W08
// 120   ----------------------------------------
        BYTE           N20     Dn2   v090
        BYTE           N20     As2   v100
        BYTE   W06
        BYTE           BEND    c_v+1
        BYTE   W01
        BYTE                   c_v+2
        BYTE   W02
        BYTE                   c_v+1
        BYTE   W01
        BYTE                   c_v+0
        BYTE   W02
        BYTE                   c_v-1
        BYTE   W01
        BYTE                   c_v-2
        BYTE   W02
        BYTE                   c_v-1
        BYTE   W01
        BYTE                   c_v+0
        BYTE   W08
// 121   ----------------------------------------
        BYTE           N42     Cn2   v115
        BYTE           N42     Gs2
        BYTE   W06
        BYTE           BEND    c_v+1
        BYTE   W01
        BYTE                   c_v+2
        BYTE   W02
        BYTE                   c_v+1
        BYTE   W01
        BYTE                   c_v+0
        BYTE   W02
        BYTE                   c_v-1
        BYTE   W01
        BYTE                   c_v+0
        BYTE   W02
        BYTE                   c_v+1
        BYTE   W01
        BYTE                   c_v+2
        BYTE   W02
        BYTE                   c_v+3
        BYTE   W01
        BYTE                   c_v+2
        BYTE   W02
        BYTE                   c_v+1
        BYTE   W01
        BYTE                   c_v+0
        BYTE   W02
// 122   ----------------------------------------
        BYTE   PATT
         POIN2  ShakingFrontSight_000_0_124
// 123   ----------------------------------------
        BYTE           N30     Cn3   v100
        BYTE           N30     Gs3
        BYTE   W06
        BYTE           BEND    c_v+1
        BYTE   W01
        BYTE                   c_v+2
        BYTE   W02
        BYTE                   c_v+1
        BYTE   W01
        BYTE                   c_v+0
        BYTE   W02
        BYTE                   c_v-1
        BYTE   W01
        BYTE                   c_v-2
        BYTE   W02
        BYTE                   c_v-1
        BYTE   W01
        BYTE                   c_v+0
        BYTE   W02
        BYTE                   c_v+1
        BYTE   W01
        BYTE                   c_v+2
        BYTE   W02
        BYTE                   c_v+3
        BYTE   W01
        BYTE                   c_v+2
        BYTE   W02
// 124   ----------------------------------------
        BYTE                   c_v+1
        BYTE   W01
        BYTE                   c_v+0
        BYTE   W02
        BYTE                   c_v-1
        BYTE   W01
        BYTE                   c_v+0
        BYTE   W08
        BYTE           N05     Gs2
        BYTE           N05     Ds3
        BYTE   W06
        BYTE                   Cn3
        BYTE           N05     Gs3
        BYTE   W06
// 125   ----------------------------------------
        BYTE           N16     As2   v080
        BYTE           N16     Gn3
        BYTE   W06
        BYTE           BEND    c_v+1
        BYTE   W01
        BYTE                   c_v+2
        BYTE   W02
        BYTE                   c_v+1
        BYTE   W01
        BYTE                   c_v+0
        BYTE   W14
// 126   ----------------------------------------
        BYTE           N68     Gn2
        BYTE           N68     Ds3
        BYTE   W06
        BYTE           BEND    c_v+1
        BYTE   W01
        BYTE                   c_v+2
        BYTE   W02
        BYTE                   c_v+1
        BYTE   W01
        BYTE                   c_v+0
        BYTE   W02
        BYTE                   c_v-1
        BYTE   W01
        BYTE                   c_v+0
        BYTE   W02
        BYTE                   c_v+1
        BYTE   W01
        BYTE                   c_v+2
        BYTE   W02
        BYTE                   c_v+3
        BYTE   W01
        BYTE                   c_v+2
        BYTE   W02
        BYTE                   c_v+1
        BYTE   W01
        BYTE                   c_v+0
        BYTE   W02
// 127   ----------------------------------------
        BYTE   PATT
         POIN2  ShakingFrontSight_000_0_72
// 128   ----------------------------------------
        BYTE           BEND    c_v+1
        BYTE   W01
        BYTE                   c_v+2
        BYTE   W02
        BYTE                   c_v+3
        BYTE   W01
        BYTE                   c_v+4
        BYTE   W02
        BYTE                   c_v+3
        BYTE   W01
        BYTE                   c_v+2
        BYTE   W02
        BYTE                   c_v+1
        BYTE   W01
        BYTE                   c_v+0
        BYTE   W02
        BYTE                   c_v-1
        BYTE   W01
        BYTE                   c_v-2
        BYTE   W02
        BYTE                   c_v-1
        BYTE   W01
        BYTE                   c_v+0
        BYTE   W08
// 129   ----------------------------------------
        BYTE           N56     Fn2   v090
        BYTE   W06
        BYTE           BEND    c_v+1
        BYTE   W01
        BYTE                   c_v+2
        BYTE   W02
        BYTE                   c_v+1
        BYTE   W01
        BYTE                   c_v+0
        BYTE   W02
        BYTE                   c_v-1
        BYTE           N07     Cn3   v100
        BYTE   W01
        BYTE           BEND    c_v+0
        BYTE   W02
        BYTE                   c_v+1
        BYTE   W01
        BYTE                   c_v+2
        BYTE   W02
        BYTE                   c_v+3
        BYTE   W01
        BYTE                   c_v+2
        BYTE   W02
        BYTE                   c_v+1
        BYTE   W01
        BYTE                   c_v+0
        BYTE   W02
// 130   ----------------------------------------
        BYTE                   c_v-1
        BYTE           N07     Gs2
        BYTE   W01
        BYTE           BEND    c_v-2
        BYTE   W02
        BYTE                   c_v-1
        BYTE   W01
        BYTE                   c_v+0
        BYTE   W02
        BYTE                   c_v+1
        BYTE   W01
        BYTE                   c_v+2
        BYTE   W02
        BYTE                   c_v+3
        BYTE   W01
        BYTE                   c_v+4
        BYTE   W02
        BYTE                   c_v+3
        BYTE           N07     Cn3
        BYTE   W01
        BYTE           BEND    c_v+2
        BYTE   W02
        BYTE                   c_v+1
        BYTE   W01
        BYTE                   c_v+0
        BYTE   W02
        BYTE                   c_v-1
        BYTE   W01
        BYTE                   c_v-2
        BYTE   W02
        BYTE                   c_v-1
        BYTE   W01
        BYTE                   c_v+0
        BYTE   W02
// 131   ----------------------------------------
        BYTE                   c_v+1
        BYTE           N44     Fn3
        BYTE   W01
        BYTE           BEND    c_v+2
        BYTE   W02
        BYTE                   c_v+3
        BYTE   W01
        BYTE                   c_v+4
        BYTE   W02
        BYTE                   c_v+3
        BYTE   W01
        BYTE                   c_v+2
        BYTE   W02
        BYTE                   c_v+1
        BYTE   W01
        BYTE                   c_v+0
        BYTE   W02
        BYTE                   c_v-1
        BYTE           N07     Cn3
        BYTE   W01
        BYTE           BEND    c_v-2
        BYTE   W02
        BYTE                   c_v-1
        BYTE   W01
        BYTE                   c_v+0
        BYTE   W02
        BYTE                   c_v+1
        BYTE   W01
        BYTE                   c_v+2
        BYTE   W02
        BYTE                   c_v+3
        BYTE   W01
        BYTE                   c_v+4
        BYTE   W02
// 132   ----------------------------------------
        BYTE                   c_v+3
        BYTE           N07     Gs2
        BYTE   W01
        BYTE           BEND    c_v+2
        BYTE   W02
        BYTE                   c_v+1
        BYTE   W01
        BYTE                   c_v+0
        BYTE   W02
        BYTE                   c_v-1
        BYTE   W01
        BYTE                   c_v-2
        BYTE   W02
        BYTE                   c_v-1
        BYTE   W01
        BYTE                   c_v+0
        BYTE   W02
        BYTE                   c_v+1
        BYTE           N07     Fn2
        BYTE   W01
        BYTE           BEND    c_v+2
        BYTE   W02
        BYTE                   c_v+1
        BYTE   W01
        BYTE                   c_v+0
        BYTE   W08
// 133   ----------------------------------------
        BYTE           N56     En2   v090
        BYTE   W06
        BYTE           BEND    c_v+1
        BYTE   W01
        BYTE                   c_v+2
        BYTE   W02
        BYTE                   c_v+1
        BYTE   W01
        BYTE                   c_v+0
        BYTE   W02
        BYTE                   c_v-1
        BYTE           N07     Bn2   v100
        BYTE   W01
        BYTE           BEND    c_v+0
        BYTE   W02
        BYTE                   c_v+1
        BYTE   W01
        BYTE                   c_v+2
        BYTE   W02
        BYTE                   c_v+3
        BYTE   W01
        BYTE                   c_v+2
        BYTE   W02
        BYTE                   c_v+1
        BYTE   W01
        BYTE                   c_v+0
        BYTE   W02
// 134   ----------------------------------------
        BYTE                   c_v-1
        BYTE           N07     Gs2
        BYTE   W01
        BYTE           BEND    c_v-2
        BYTE   W02
        BYTE                   c_v-1
        BYTE   W01
        BYTE                   c_v+0
        BYTE   W02
        BYTE                   c_v+1
        BYTE   W01
        BYTE                   c_v+2
        BYTE   W02
        BYTE                   c_v+3
        BYTE   W01
        BYTE                   c_v+4
        BYTE   W02
        BYTE                   c_v+3
        BYTE           N07     Bn2
        BYTE   W01
        BYTE           BEND    c_v+2
        BYTE   W02
        BYTE                   c_v+1
        BYTE   W01
        BYTE                   c_v+0
        BYTE   W02
        BYTE                   c_v-1
        BYTE   W01
        BYTE                   c_v-2
        BYTE   W02
        BYTE                   c_v-1
        BYTE   W01
        BYTE                   c_v+0
        BYTE   W02
// 135   ----------------------------------------
        BYTE                   c_v+1
        BYTE           N44     En3
        BYTE   W01
        BYTE           BEND    c_v+2
        BYTE   W02
        BYTE                   c_v+3
        BYTE   W01
        BYTE                   c_v+4
        BYTE   W02
        BYTE                   c_v+3
        BYTE   W01
        BYTE                   c_v+2
        BYTE   W02
        BYTE                   c_v+1
        BYTE   W01
        BYTE                   c_v+0
        BYTE   W02
        BYTE                   c_v-1
        BYTE           N07     Bn2
        BYTE   W01
        BYTE           BEND    c_v-2
        BYTE   W02
        BYTE                   c_v-1
        BYTE   W01
        BYTE                   c_v+0
        BYTE   W02
        BYTE                   c_v+1
        BYTE   W01
        BYTE                   c_v+2
        BYTE   W02
        BYTE                   c_v+3
        BYTE   W01
        BYTE                   c_v+4
        BYTE   W02
// 136   ----------------------------------------
        BYTE                   c_v+3
        BYTE           N07     Gs2
        BYTE   W01
        BYTE           BEND    c_v+2
        BYTE   W02
        BYTE                   c_v+1
        BYTE   W01
        BYTE                   c_v+0
        BYTE   W02
        BYTE                   c_v-1
        BYTE   W01
        BYTE                   c_v-2
        BYTE   W02
        BYTE                   c_v-1
        BYTE   W01
        BYTE                   c_v+0
        BYTE   W02
        BYTE                   c_v+1
        BYTE           N07     En2
        BYTE   W01
        BYTE           BEND    c_v+2
        BYTE   W02
        BYTE                   c_v+1
        BYTE   W01
        BYTE                   c_v+0
        BYTE   W08
// 137   ----------------------------------------
        BYTE           N60     An2   v085
        BYTE   W06
        BYTE           BEND    c_v+1
        BYTE   W01
        BYTE                   c_v+0
        BYTE   W02
        BYTE                   c_v-1
        BYTE   W01
        BYTE                   c_v+0
        BYTE   W02
        BYTE                   c_v+1
        BYTE   W01
        BYTE                   c_v+2
        BYTE   W02
        BYTE                   c_v+1
        BYTE   W01
        BYTE                   c_v+0
        BYTE   W02
        BYTE                   c_v-1
        BYTE   W01
        BYTE                   c_v+0
        BYTE   W02
        BYTE                   c_v+1
        BYTE   W01
        BYTE                   c_v+2
        BYTE   W02
// 138   ----------------------------------------
        BYTE   PATT
         POIN2  ShakingFrontSight_000_0_71
// 139   ----------------------------------------
        BYTE           BEND    c_v-1
        BYTE   W01
        BYTE                   c_v-2
        BYTE   W02
        BYTE                   c_v-1
        BYTE   W01
        BYTE                   c_v+0
        BYTE   W02
        BYTE                   c_v+1
        BYTE   W01
        BYTE                   c_v+2
        BYTE   W02
        BYTE                   c_v+1
        BYTE   W01
        BYTE                   c_v+0
        BYTE   W02
        BYTE           N24     Bn2   v085
        BYTE   W06
        BYTE           BEND    c_v+1
        BYTE   W01
        BYTE                   c_v+2
        BYTE   W02
        BYTE                   c_v+1
        BYTE   W01
        BYTE                   c_v+0
        BYTE   W02
// 140   ----------------------------------------
        BYTE                   c_v-1
        BYTE   W01
        BYTE                   c_v+0
        BYTE   W02
        BYTE                   c_v+1
        BYTE   W01
        BYTE                   c_v+2
        BYTE   W02
        BYTE                   c_v+3
        BYTE   W01
        BYTE                   c_v+2
        BYTE   W02
        BYTE                   c_v+1
        BYTE   W01
        BYTE                   c_v+0
        BYTE   W02
        BYTE           N12     Cn3
        BYTE   W06
        BYTE           BEND    c_v+1
        BYTE   W01
        BYTE                   c_v+2
        BYTE   W02
        BYTE                   c_v+1
        BYTE   W01
        BYTE                   c_v+0
        BYTE   W02
// 141   ----------------------------------------
        BYTE           N44     En2   v085   gtp2
        BYTE   W06
        BYTE           BEND    c_v+1
        BYTE   W01
        BYTE                   c_v+2
        BYTE   W02
        BYTE                   c_v+1
        BYTE   W01
        BYTE                   c_v+0
        BYTE   W02
        BYTE                   c_v-1
        BYTE   W01
        BYTE                   c_v+0
        BYTE   W02
        BYTE                   c_v+1
        BYTE   W01
        BYTE                   c_v+2
        BYTE   W02
        BYTE                   c_v+3
        BYTE   W01
        BYTE                   c_v+2
        BYTE   W02
        BYTE                   c_v+1
        BYTE   W01
        BYTE                   c_v+0
        BYTE   W02
// 142   ----------------------------------------
        BYTE   PATT
         POIN2  ShakingFrontSight_000_0_124
// 143   ----------------------------------------
        BYTE           N12     En2   v085
        BYTE   W06
        BYTE           BEND    c_v+1
        BYTE   W01
        BYTE                   c_v+2
        BYTE   W02
        BYTE                   c_v+1
        BYTE   W01
        BYTE                   c_v+0
        BYTE   W02
        BYTE           N12     Gn2
        BYTE   W06
        BYTE           BEND    c_v+1
        BYTE   W01
        BYTE                   c_v+2
        BYTE   W02
        BYTE                   c_v+1
        BYTE   W01
        BYTE                   c_v+0
        BYTE   W02
// 144   ----------------------------------------
        BYTE           N12     Cn3
        BYTE   W06
        BYTE           BEND    c_v+1
        BYTE   W01
        BYTE                   c_v+2
        BYTE   W02
        BYTE                   c_v+1
        BYTE   W01
        BYTE                   c_v+0
        BYTE   W02
        BYTE           N12     En3
        BYTE   W06
        BYTE           BEND    c_v+1
        BYTE   W01
        BYTE                   c_v+2
        BYTE   W02
        BYTE                   c_v+1
        BYTE   W01
        BYTE                   c_v+0
        BYTE   W02
// 145   ----------------------------------------
        BYTE           N56     Fn3   v085   gtp2
        BYTE   W06
        BYTE           BEND    c_v+1
        BYTE   W01
        BYTE                   c_v+0
        BYTE   W02
        BYTE                   c_v-1
        BYTE   W01
        BYTE                   c_v+0
        BYTE   W02
        BYTE                   c_v+1
        BYTE   W01
        BYTE                   c_v+2
        BYTE   W02
        BYTE                   c_v+1
        BYTE   W01
        BYTE                   c_v+0
        BYTE   W02
        BYTE                   c_v-1
        BYTE   W01
        BYTE                   c_v+0
        BYTE   W02
        BYTE                   c_v+1
        BYTE   W01
        BYTE                   c_v+2
        BYTE   W02
// 146   ----------------------------------------
        BYTE   PATT
         POIN2  ShakingFrontSight_000_0_71
// 147   ----------------------------------------
        BYTE           BEND    c_v-1
        BYTE   W01
        BYTE                   c_v-2
        BYTE   W02
        BYTE                   c_v-1
        BYTE   W01
        BYTE                   c_v+0
        BYTE   W02
        BYTE                   c_v+1
        BYTE   W01
        BYTE                   c_v+2
        BYTE   W02
        BYTE                   c_v+1
        BYTE   W01
        BYTE                   c_v+0
        BYTE   W02
        BYTE           N24     Gn3   v085
        BYTE   W06
        BYTE           BEND    c_v+1
        BYTE   W01
        BYTE                   c_v+2
        BYTE   W02
        BYTE                   c_v+1
        BYTE   W01
        BYTE                   c_v+0
        BYTE   W02
// 148   ----------------------------------------
        BYTE                   c_v-1
        BYTE   W01
        BYTE                   c_v+0
        BYTE   W02
        BYTE                   c_v+1
        BYTE   W01
        BYTE                   c_v+2
        BYTE   W02
        BYTE                   c_v+3
        BYTE   W01
        BYTE                   c_v+2
        BYTE   W02
        BYTE                   c_v+1
        BYTE   W01
        BYTE                   c_v+0
        BYTE   W02
        BYTE           N10     An3
        BYTE   W06
        BYTE           BEND    c_v+1
        BYTE   W01
        BYTE                   c_v+2
        BYTE   W02
        BYTE                   c_v+1
        BYTE   W01
        BYTE                   c_v+0
        BYTE   W02
// 149   ----------------------------------------
        BYTE           N76
        BYTE   W06
        BYTE           BEND    c_v+1
        BYTE   W01
        BYTE                   c_v+2
        BYTE   W02
        BYTE                   c_v+1
        BYTE   W01
        BYTE                   c_v+0
        BYTE   W02
        BYTE                   c_v-1
        BYTE   W01
        BYTE                   c_v+0
        BYTE   W02
        BYTE                   c_v+1
        BYTE   W01
        BYTE                   c_v+2
        BYTE   W02
        BYTE                   c_v+3
        BYTE   W01
        BYTE                   c_v+2
        BYTE   W02
        BYTE                   c_v+1
        BYTE   W01
        BYTE                   c_v+0
        BYTE   W02
// 150   ----------------------------------------
        BYTE   PATT
         POIN2  ShakingFrontSight_000_0_72
// 151   ----------------------------------------
        BYTE   PATT
         POIN2  ShakingFrontSight_000_0_127
// 152   ----------------------------------------
        BYTE   W24
// 153   ----------------------------------------
        BYTE   W24
// 154   ----------------------------------------
        BYTE   W24
// 155   ----------------------------------------
        BYTE   W24
// 156   ----------------------------------------
        BYTE   W24
// 157   ----------------------------------------
        BYTE   W24
// 158   ----------------------------------------
        BYTE   W24
// 159   ----------------------------------------
        BYTE   W24
// 160   ----------------------------------------
        BYTE   W24
// 161   ----------------------------------------
        BYTE   W24
// 162   ----------------------------------------
        BYTE   W24
// 163   ----------------------------------------
        BYTE   W24
// 164   ----------------------------------------
        BYTE   W24
// 165   ----------------------------------------
        BYTE   W24
// 166   ----------------------------------------
        BYTE   W24
// 167   ----------------------------------------
        BYTE   W24
// 168   ----------------------------------------
        BYTE   W24
// 169   ----------------------------------------
        BYTE   W24
// 170   ----------------------------------------
        BYTE   W24
// 171   ----------------------------------------
ShakingFrontSight_000_2_171:
        BYTE   W12
        BYTE           N10     Cn3   v090
        BYTE   W12
        BYTE   PEND
// 172   ----------------------------------------
        BYTE                   Ds3
        BYTE   W12
        BYTE                   Gs3
        BYTE   W12
// 173   ----------------------------------------
ShakingFrontSight_000_2_173:
        BYTE           N40     Fn3   v080
        BYTE   W06
        BYTE           BEND    c_v+1
        BYTE   W01
        BYTE                   c_v+2
        BYTE   W02
        BYTE                   c_v+1
        BYTE   W01
        BYTE                   c_v+0
        BYTE   W02
        BYTE                   c_v-1
        BYTE   W01
        BYTE                   c_v+0
        BYTE   W02
        BYTE                   c_v+1
        BYTE   W01
        BYTE                   c_v+2
        BYTE   W02
        BYTE                   c_v+3
        BYTE   W01
        BYTE                   c_v+2
        BYTE   W02
        BYTE                   c_v+1
        BYTE   W01
        BYTE                   c_v+0
        BYTE   W02
        BYTE   PEND
// 174   ----------------------------------------
ShakingFrontSight_000_2_174:
        BYTE           BEND    c_v-1
        BYTE   W01
        BYTE                   c_v-2
        BYTE   W02
        BYTE                   c_v-1
        BYTE   W01
        BYTE                   c_v+0
        BYTE   W02
        BYTE                   c_v+1
        BYTE   W01
        BYTE                   c_v+2
        BYTE   W02
        BYTE                   c_v+1
        BYTE   W01
        BYTE                   c_v+0
        BYTE   W14
        BYTE   PEND
// 175   ----------------------------------------
        BYTE   PATT
         POIN2  ShakingFrontSight_000_2_171
// 176   ----------------------------------------
ShakingFrontSight_000_2_176:
        BYTE           N10     Fn3   v090
        BYTE   W12
        BYTE                   Gs3
        BYTE   W12
        BYTE   PEND
// 177   ----------------------------------------
        BYTE   PATT
         POIN2  ShakingFrontSight_000_2_173
// 178   ----------------------------------------
        BYTE   PATT
         POIN2  ShakingFrontSight_000_2_174
// 179   ----------------------------------------
        BYTE   W12
        BYTE           N10     Cs3   v090
        BYTE   W12
// 180   ----------------------------------------
        BYTE   PATT
         POIN2  ShakingFrontSight_000_2_176
// 181   ----------------------------------------
        BYTE   PATT
         POIN2  ShakingFrontSight_000_2_173
// 182   ----------------------------------------
        BYTE   PATT
         POIN2  ShakingFrontSight_000_2_174
// 183   ----------------------------------------
        BYTE           N12     Fn3   v090
        BYTE   W06
        BYTE           BEND    c_v+1
        BYTE   W01
        BYTE                   c_v+2
        BYTE   W02
        BYTE                   c_v+1
        BYTE   W01
        BYTE                   c_v+0
        BYTE   W02
        BYTE           N12     Dn3
        BYTE   W06
        BYTE           BEND    c_v+1
        BYTE   W01
        BYTE                   c_v+2
        BYTE   W02
        BYTE                   c_v+1
        BYTE   W01
        BYTE                   c_v+0
        BYTE   W02
// 184   ----------------------------------------
        BYTE           N12     As2
        BYTE   W06
        BYTE           BEND    c_v+1
        BYTE   W01
        BYTE                   c_v+2
        BYTE   W02
        BYTE                   c_v+1
        BYTE   W01
        BYTE                   c_v+0
        BYTE   W02
        BYTE           N12     Gs2
        BYTE   W06
        BYTE           BEND    c_v+1
        BYTE   W01
        BYTE                   c_v+2
        BYTE   W02
        BYTE                   c_v+1
        BYTE   W01
        BYTE                   c_v+0
        BYTE   W02
// 185   ----------------------------------------
        BYTE           N72     Gn2
        BYTE   W06
        BYTE           BEND    c_v+1
        BYTE   W01
        BYTE                   c_v+0
        BYTE   W02
        BYTE                   c_v-1
        BYTE   W01
        BYTE                   c_v+0
        BYTE   W02
        BYTE                   c_v+1
        BYTE   W01
        BYTE                   c_v+2
        BYTE   W02
        BYTE                   c_v+1
        BYTE   W01
        BYTE                   c_v+0
        BYTE   W02
        BYTE                   c_v-1
        BYTE   W01
        BYTE                   c_v+0
        BYTE   W02
        BYTE                   c_v+1
        BYTE   W01
        BYTE                   c_v+2
        BYTE   W02
// 186   ----------------------------------------
        BYTE   PATT
         POIN2  ShakingFrontSight_000_0_71
// 187   ----------------------------------------
        BYTE   PATT
         POIN2  ShakingFrontSight_000_0_72
// 188   ----------------------------------------
        BYTE           N24     Dn3   v070
        BYTE   W06
        BYTE           BEND    c_v+1
        BYTE   W01
        BYTE                   c_v+0
        BYTE   W02
        BYTE                   c_v-1
        BYTE   W01
        BYTE                   c_v+0
        BYTE   W02
        BYTE                   c_v+1
        BYTE   W01
        BYTE                   c_v+2
        BYTE   W02
        BYTE                   c_v+1
        BYTE   W01
        BYTE                   c_v+0
        BYTE   W02
        BYTE                   c_v-1
        BYTE   W01
        BYTE                   c_v+0
        BYTE   W02
        BYTE                   c_v+2
        BYTE   W01
        BYTE                   c_v+0
        BYTE   W02
// 189   ----------------------------------------
        BYTE           N68     An2
        BYTE   W06
        BYTE           BEND    c_v+1
        BYTE   W01
        BYTE                   c_v+0
        BYTE   W02
        BYTE                   c_v-1
        BYTE   W01
        BYTE                   c_v+0
        BYTE   W02
        BYTE                   c_v+1
        BYTE   W01
        BYTE                   c_v+2
        BYTE   W02
        BYTE                   c_v+1
        BYTE   W01
        BYTE                   c_v+0
        BYTE   W02
        BYTE                   c_v-1
        BYTE   W01
        BYTE                   c_v+0
        BYTE   W02
        BYTE                   c_v+1
        BYTE   W01
        BYTE                   c_v+2
        BYTE   W02
// 190   ----------------------------------------
        BYTE   PATT
         POIN2  ShakingFrontSight_000_0_71
// 191   ----------------------------------------
        BYTE   PATT
         POIN2  ShakingFrontSight_000_0_72
// 192   ----------------------------------------
        BYTE           N12     Dn2   v070
        BYTE   W06
        BYTE           BEND    c_v+1
        BYTE   W01
        BYTE                   c_v+2
        BYTE   W02
        BYTE                   c_v+1
        BYTE   W01
        BYTE                   c_v+0
        BYTE   W02
        BYTE           N12     An2
        BYTE   W06
        BYTE           BEND    c_v+1
        BYTE   W01
        BYTE                   c_v+2
        BYTE   W02
        BYTE                   c_v+1
        BYTE   W01
        BYTE                   c_v+0
        BYTE   W02
// 193   ----------------------------------------
        BYTE           N36     As2
        BYTE   W06
        BYTE           BEND    c_v+1
        BYTE   W01
        BYTE                   c_v+0
        BYTE   W02
        BYTE                   c_v-1
        BYTE   W01
        BYTE                   c_v+0
        BYTE   W02
        BYTE                   c_v+1
        BYTE   W01
        BYTE                   c_v+2
        BYTE   W02
        BYTE                   c_v+1
        BYTE   W01
        BYTE                   c_v+0
        BYTE   W02
        BYTE                   c_v-1
        BYTE   W01
        BYTE                   c_v+0
        BYTE   W02
        BYTE                   c_v+1
        BYTE   W01
        BYTE                   c_v+2
        BYTE   W02
// 194   ----------------------------------------
        BYTE                   c_v+3
        BYTE   W01
        BYTE                   c_v+2
        BYTE   W02
        BYTE                   c_v+1
        BYTE   W01
        BYTE                   c_v+0
        BYTE   W02
        BYTE                   c_v-1
        BYTE   W01
        BYTE                   c_v-2
        BYTE   W02
        BYTE                   c_v-1
        BYTE   W01
        BYTE                   c_v+0
        BYTE   W02
        BYTE           N24     Fn2
        BYTE   W06
        BYTE           BEND    c_v+1
        BYTE   W01
        BYTE                   c_v+0
        BYTE   W02
        BYTE                   c_v-1
        BYTE   W01
        BYTE                   c_v+0
        BYTE   W02
// 195   ----------------------------------------
        BYTE                   c_v+1
        BYTE   W01
        BYTE                   c_v+2
        BYTE   W02
        BYTE                   c_v+1
        BYTE   W01
        BYTE                   c_v+0
        BYTE   W02
        BYTE                   c_v-1
        BYTE   W01
        BYTE                   c_v+0
        BYTE   W02
        BYTE                   c_v+2
        BYTE   W01
        BYTE                   c_v+0
        BYTE   W02
        BYTE           N12     Dn2
        BYTE   W06
        BYTE           BEND    c_v+1
        BYTE   W01
        BYTE                   c_v+2
        BYTE   W02
        BYTE                   c_v+1
        BYTE   W01
        BYTE                   c_v+0
        BYTE   W02
// 196   ----------------------------------------
        BYTE           N20     Fn2
        BYTE   W06
        BYTE           BEND    c_v+1
        BYTE   W01
        BYTE                   c_v+0
        BYTE   W02
        BYTE                   c_v-1
        BYTE   W01
        BYTE                   c_v+0
        BYTE   W02
        BYTE                   c_v+1
        BYTE   W01
        BYTE                   c_v+2
        BYTE   W02
        BYTE                   c_v+1
        BYTE   W01
        BYTE                   c_v+0
        BYTE   W02
        BYTE                   c_v-1
        BYTE   W01
        BYTE                   c_v+0
        BYTE   W02
        BYTE                   c_v+2
        BYTE   W01
        BYTE                   c_v+0
        BYTE   W02
// 197   ----------------------------------------
        BYTE           N36     Cn3
        BYTE   W06
        BYTE           BEND    c_v+1
        BYTE   W01
        BYTE                   c_v+0
        BYTE   W02
        BYTE                   c_v-1
        BYTE   W01
        BYTE                   c_v+0
        BYTE   W02
        BYTE                   c_v+1
        BYTE   W01
        BYTE                   c_v+2
        BYTE   W02
        BYTE                   c_v+1
        BYTE   W01
        BYTE                   c_v+0
        BYTE   W02
        BYTE                   c_v-1
        BYTE   W01
        BYTE                   c_v+0
        BYTE   W02
        BYTE                   c_v+1
        BYTE   W01
        BYTE                   c_v+2
        BYTE   W02
// 198   ----------------------------------------
        BYTE                   c_v+3
        BYTE   W01
        BYTE                   c_v+2
        BYTE   W02
        BYTE                   c_v+1
        BYTE   W01
        BYTE                   c_v+0
        BYTE   W02
        BYTE                   c_v-1
        BYTE   W01
        BYTE                   c_v-2
        BYTE   W02
        BYTE                   c_v-1
        BYTE   W01
        BYTE                   c_v+0
        BYTE   W02
        BYTE           N24     Gn2
        BYTE   W06
        BYTE           BEND    c_v+1
        BYTE   W01
        BYTE                   c_v+0
        BYTE   W02
        BYTE                   c_v-1
        BYTE   W01
        BYTE                   c_v+0
        BYTE   W02
// 199   ----------------------------------------
        BYTE                   c_v+1
        BYTE   W01
        BYTE                   c_v+2
        BYTE   W02
        BYTE                   c_v+1
        BYTE   W01
        BYTE                   c_v+0
        BYTE   W02
        BYTE                   c_v-1
        BYTE   W01
        BYTE                   c_v+0
        BYTE   W02
        BYTE                   c_v+2
        BYTE   W01
        BYTE                   c_v+0
        BYTE   W02
        BYTE           N12     En2
        BYTE   W06
        BYTE           BEND    c_v+1
        BYTE   W01
        BYTE                   c_v+2
        BYTE   W02
        BYTE                   c_v+1
        BYTE   W01
        BYTE                   c_v+0
        BYTE   W02
// 200   ----------------------------------------
        BYTE           N24     Gn2   v070   gtp2
        BYTE   W06
        BYTE           BEND    c_v+1
        BYTE   W01
        BYTE                   c_v+0
        BYTE   W02
        BYTE                   c_v-1
        BYTE   W01
        BYTE                   c_v+0
        BYTE   W02
        BYTE                   c_v+1
        BYTE   W01
        BYTE                   c_v+2
        BYTE   W02
        BYTE                   c_v+1
        BYTE   W01
        BYTE                   c_v+0
        BYTE   W02
        BYTE                   c_v-1
        BYTE   W01
        BYTE                   c_v+0
        BYTE   W02
        BYTE                   c_v+2
        BYTE   W01
        BYTE                   c_v+0
        BYTE   W02
// 201   ----------------------------------------
        BYTE   W24
// 202   ----------------------------------------
        BYTE   W24
// 203   ----------------------------------------
        BYTE   W24
// 204   ----------------------------------------
        BYTE   W24
// 205   ----------------------------------------
        BYTE   W24
// 206   ----------------------------------------
        BYTE   W24
// 207   ----------------------------------------
        BYTE   W24
// 208   ----------------------------------------
        BYTE   W24
// 209   ----------------------------------------
        BYTE   W24
// 210   ----------------------------------------
        BYTE   W24
// 211   ----------------------------------------
        BYTE   W24
// 212   ----------------------------------------
        BYTE   W24
// 213   ----------------------------------------
        BYTE   W24
// 214   ----------------------------------------
        BYTE   W24
// 215   ----------------------------------------
        BYTE   W24
// 216   ----------------------------------------
        BYTE   W24
// 217   ----------------------------------------
        BYTE   GoTo
         POIN2  ShakingFrontSight_000_2_LOOP
        BYTE   FINE

//****************** Track 3 (Midi-Chn.3) ******************//

ShakingFrontSight_000_3:
        BYTE   KEYSH   ShakingFrontSight_000_key+0
// 000   ----------------------------------------
        BYTE           VOL     34
        BYTE           VOICE   73
        BYTE   W01
        BYTE           PAN     c_v-32
        BYTE   W23
// 001   ----------------------------------------
ShakingFrontSight_000_3_LOOP:
        BYTE   W12
        BYTE           N04     Bn4   v075
        BYTE   W06
        BYTE                   Fs4
        BYTE   W06
// 002   ----------------------------------------
ShakingFrontSight_000_3_2:
        BYTE           N04     Bn4   v075
        BYTE   W18
        BYTE                   Fs4
        BYTE   W06
        BYTE   PEND
// 003   ----------------------------------------
        BYTE                   En4
        BYTE   W06
        BYTE                   Fs4
        BYTE   W18
// 004   ----------------------------------------
        BYTE   W24
// 005   ----------------------------------------
ShakingFrontSight_000_3_5:
        BYTE   W12
        BYTE           N04     Cn5   v075
        BYTE   W06
        BYTE                   Gn4
        BYTE   W06
        BYTE   PEND
// 006   ----------------------------------------
ShakingFrontSight_000_3_6:
        BYTE           N04     Cn5   v075
        BYTE   W18
        BYTE                   Gn4
        BYTE   W06
        BYTE   PEND
// 007   ----------------------------------------
        BYTE                   Fn4
        BYTE   W24
// 008   ----------------------------------------
        BYTE   W24
// 009   ----------------------------------------
ShakingFrontSight_000_3_9:
        BYTE   W12
        BYTE           N04     Bn4   v075
        BYTE   W06
        BYTE                   Fs4
        BYTE   W06
        BYTE   PEND
// 010   ----------------------------------------
        BYTE   PATT
         POIN2  ShakingFrontSight_000_3_2
// 011   ----------------------------------------
        BYTE           N04     En4   v075
        BYTE   W24
// 012   ----------------------------------------
        BYTE   W24
// 013   ----------------------------------------
ShakingFrontSight_000_3_13:
        BYTE   W12
        BYTE           N04     Bn4   v075
        BYTE   W06
        BYTE                   Gn4
        BYTE   W06
        BYTE   PEND
// 014   ----------------------------------------
ShakingFrontSight_000_3_14:
        BYTE           N04     Bn4   v075
        BYTE   W18
        BYTE                   Gn4
        BYTE   W06
        BYTE   PEND
// 015   ----------------------------------------
        BYTE                   En4
        BYTE   W24
// 016   ----------------------------------------
        BYTE           N07     Fs4
        BYTE   W08
        BYTE                   Gn4
        BYTE   W08
        BYTE                   An4
        BYTE   W08
// 017   ----------------------------------------
        BYTE           N10     Bn4
        BYTE   W12
        BYTE           N04
        BYTE   W06
        BYTE                   Fs4
        BYTE   W06
// 018   ----------------------------------------
        BYTE   PATT
         POIN2  ShakingFrontSight_000_3_2
// 019   ----------------------------------------
        BYTE           N04     Dn4   v075
        BYTE   W24
// 020   ----------------------------------------
        BYTE   W24
// 021   ----------------------------------------
        BYTE   PATT
         POIN2  ShakingFrontSight_000_3_5
// 022   ----------------------------------------
        BYTE   PATT
         POIN2  ShakingFrontSight_000_3_6
// 023   ----------------------------------------
ShakingFrontSight_000_3_23:
        BYTE           N04     En4   v075
        BYTE   W06
        BYTE                   Gn4
        BYTE   W18
        BYTE   PEND
// 024   ----------------------------------------
        BYTE   W24
// 025   ----------------------------------------
        BYTE   PATT
         POIN2  ShakingFrontSight_000_3_9
// 026   ----------------------------------------
        BYTE   PATT
         POIN2  ShakingFrontSight_000_3_2
// 027   ----------------------------------------
        BYTE           N04     Dn4   v075
        BYTE   W06
        BYTE                   Fs4
        BYTE   W18
// 028   ----------------------------------------
        BYTE   W24
// 029   ----------------------------------------
        BYTE   PATT
         POIN2  ShakingFrontSight_000_3_13
// 030   ----------------------------------------
        BYTE   PATT
         POIN2  ShakingFrontSight_000_3_14
// 031   ----------------------------------------
        BYTE   PATT
         POIN2  ShakingFrontSight_000_3_23
// 032   ----------------------------------------
        BYTE   W24
// 033   ----------------------------------------
        BYTE           N08     Fs5   v085
        BYTE   W24
// 034   ----------------------------------------
        BYTE                   Fs5
        BYTE   W24
// 035   ----------------------------------------
        BYTE   W12
        BYTE                   Fs5
        BYTE   W12
// 036   ----------------------------------------
        BYTE   W24
// 037   ----------------------------------------
        BYTE   W12
        BYTE           N07
        BYTE   W12
// 038   ----------------------------------------
        BYTE           N08
        BYTE   W24
// 039   ----------------------------------------
        BYTE   W24
// 040   ----------------------------------------
        BYTE   W24
// 041   ----------------------------------------
        BYTE   W24
// 042   ----------------------------------------
        BYTE   W24
// 043   ----------------------------------------
        BYTE   W24
// 044   ----------------------------------------
        BYTE   W24
// 045   ----------------------------------------
        BYTE   W24
// 046   ----------------------------------------
        BYTE   W24
// 047   ----------------------------------------
        BYTE   W24
// 048   ----------------------------------------
        BYTE   W24
// 049   ----------------------------------------
        BYTE   W24
// 050   ----------------------------------------
        BYTE   W24
// 051   ----------------------------------------
        BYTE   W24
// 052   ----------------------------------------
        BYTE   W24
// 053   ----------------------------------------
        BYTE   W24
// 054   ----------------------------------------
        BYTE   W24
// 055   ----------------------------------------
        BYTE   W24
// 056   ----------------------------------------
        BYTE   W24
// 057   ----------------------------------------
        BYTE   W24
// 058   ----------------------------------------
        BYTE   PATT
         POIN2  ShakingFrontSight_000_0_155
// 059   ----------------------------------------
        BYTE   PATT
         POIN2  ShakingFrontSight_000_0_60
// 060   ----------------------------------------
        BYTE           N24     Cs5   v080
        BYTE   W06
        BYTE           BEND    c_v+1
        BYTE   W01
        BYTE                   c_v+0
        BYTE   W02
        BYTE                   c_v-1
        BYTE   W01
        BYTE                   c_v+0
        BYTE   W02
        BYTE                   c_v+1
        BYTE   W01
        BYTE                   c_v+2
        BYTE   W02
        BYTE                   c_v+1
        BYTE   W01
        BYTE                   c_v+0
        BYTE   W02
        BYTE                   c_v-1
        BYTE   W01
        BYTE                   c_v+0
        BYTE   W02
        BYTE                   c_v+2
        BYTE   W01
        BYTE                   c_v+0
        BYTE   W02
// 061   ----------------------------------------
        BYTE           N06     Bn4
        BYTE   W06
        BYTE                   Cs5
        BYTE   W06
        BYTE           N40     Dn5
        BYTE   W06
        BYTE           BEND    c_v+1
        BYTE   W01
        BYTE                   c_v+0
        BYTE   W02
        BYTE                   c_v-1
        BYTE   W01
        BYTE                   c_v+0
        BYTE   W02
// 062   ----------------------------------------
        BYTE   PATT
         POIN2  ShakingFrontSight_000_0_62
// 063   ----------------------------------------
        BYTE           BEND    c_v+1
        BYTE   W01
        BYTE                   c_v+0
        BYTE   W11
        BYTE           N12     Dn5   v080
        BYTE   W06
        BYTE           BEND    c_v+1
        BYTE   W01
        BYTE                   c_v+2
        BYTE   W02
        BYTE                   c_v+1
        BYTE   W01
        BYTE                   c_v+0
        BYTE   W02
// 064   ----------------------------------------
        BYTE           N12     Cs5
        BYTE   W06
        BYTE           BEND    c_v+1
        BYTE   W01
        BYTE                   c_v+2
        BYTE   W02
        BYTE                   c_v+1
        BYTE   W01
        BYTE                   c_v+0
        BYTE   W02
        BYTE           N12     Bn4
        BYTE   W06
        BYTE           BEND    c_v+1
        BYTE   W01
        BYTE                   c_v+2
        BYTE   W02
        BYTE                   c_v+1
        BYTE   W01
        BYTE                   c_v+0
        BYTE   W02
// 065   ----------------------------------------
        BYTE           N16     Fs4
        BYTE   W06
        BYTE           BEND    c_v+1
        BYTE   W01
        BYTE                   c_v+2
        BYTE   W02
        BYTE                   c_v+1
        BYTE   W01
        BYTE                   c_v+0
        BYTE   W14
// 066   ----------------------------------------
ShakingFrontSight_000_3_66:
        BYTE           N24     Bn4   v080
        BYTE   W06
        BYTE           BEND    c_v+1
        BYTE   W01
        BYTE                   c_v+0
        BYTE   W02
        BYTE                   c_v-1
        BYTE   W01
        BYTE                   c_v+0
        BYTE   W02
        BYTE                   c_v+1
        BYTE   W01
        BYTE                   c_v+2
        BYTE   W02
        BYTE                   c_v+1
        BYTE   W01
        BYTE                   c_v+0
        BYTE   W02
        BYTE                   c_v-1
        BYTE   W01
        BYTE                   c_v+0
        BYTE   W02
        BYTE                   c_v+2
        BYTE   W01
        BYTE                   c_v+0
        BYTE   W02
        BYTE   PEND
// 067   ----------------------------------------
        BYTE           N24     Dn5
        BYTE   W06
        BYTE           BEND    c_v+1
        BYTE   W01
        BYTE                   c_v+0
        BYTE   W02
        BYTE                   c_v-1
        BYTE   W01
        BYTE                   c_v+0
        BYTE   W02
        BYTE                   c_v+1
        BYTE   W01
        BYTE                   c_v+2
        BYTE   W02
        BYTE                   c_v+1
        BYTE   W01
        BYTE                   c_v+0
        BYTE   W02
        BYTE                   c_v-1
        BYTE   W01
        BYTE                   c_v+0
        BYTE   W02
        BYTE                   c_v+2
        BYTE   W01
        BYTE                   c_v+0
        BYTE   W02
// 068   ----------------------------------------
        BYTE   PATT
         POIN2  ShakingFrontSight_000_3_66
// 069   ----------------------------------------
        BYTE           N06     An4   v080
        BYTE   W06
        BYTE                   Bn4
        BYTE   W06
        BYTE                   An4
        BYTE   W06
        BYTE                   En4
        BYTE   W06
// 070   ----------------------------------------
        BYTE           N76     Fs4
        BYTE   W06
        BYTE           BEND    c_v+1
        BYTE   W01
        BYTE                   c_v+0
        BYTE   W02
        BYTE                   c_v-1
        BYTE   W01
        BYTE                   c_v+0
        BYTE   W02
        BYTE                   c_v+1
        BYTE   W01
        BYTE                   c_v+2
        BYTE   W02
        BYTE                   c_v+1
        BYTE   W01
        BYTE                   c_v+0
        BYTE   W02
        BYTE                   c_v-1
        BYTE   W01
        BYTE                   c_v+0
        BYTE   W02
        BYTE                   c_v+1
        BYTE   W01
        BYTE                   c_v+2
        BYTE   W02
// 071   ----------------------------------------
        BYTE   PATT
         POIN2  ShakingFrontSight_000_0_71
// 072   ----------------------------------------
        BYTE   PATT
         POIN2  ShakingFrontSight_000_0_72
// 073   ----------------------------------------
        BYTE   W24
// 074   ----------------------------------------
        BYTE   W24
// 075   ----------------------------------------
        BYTE   W24
// 076   ----------------------------------------
        BYTE   W24
// 077   ----------------------------------------
        BYTE   W24
// 078   ----------------------------------------
        BYTE   W24
// 079   ----------------------------------------
        BYTE   W24
// 080   ----------------------------------------
        BYTE   W24
// 081   ----------------------------------------
        BYTE   W24
// 082   ----------------------------------------
        BYTE   W24
// 083   ----------------------------------------
        BYTE   W24
// 084   ----------------------------------------
        BYTE   W24
// 085   ----------------------------------------
        BYTE   W24
// 086   ----------------------------------------
        BYTE   W24
// 087   ----------------------------------------
        BYTE   W24
// 088   ----------------------------------------
        BYTE   W24
// 089   ----------------------------------------
        BYTE   W24
// 090   ----------------------------------------
        BYTE   W24
// 091   ----------------------------------------
        BYTE   W24
// 092   ----------------------------------------
        BYTE   W24
// 093   ----------------------------------------
        BYTE   W24
// 094   ----------------------------------------
        BYTE   W24
// 095   ----------------------------------------
        BYTE   W24
// 096   ----------------------------------------
        BYTE   W24
// 097   ----------------------------------------
        BYTE   W24
// 098   ----------------------------------------
        BYTE   W24
// 099   ----------------------------------------
        BYTE   W24
// 100   ----------------------------------------
        BYTE   W24
// 101   ----------------------------------------
        BYTE   W24
// 102   ----------------------------------------
        BYTE   W24
// 103   ----------------------------------------
        BYTE   W24
// 104   ----------------------------------------
        BYTE   W24
// 105   ----------------------------------------
        BYTE   W24
// 106   ----------------------------------------
        BYTE   W24
// 107   ----------------------------------------
        BYTE   W24
// 108   ----------------------------------------
        BYTE   W24
// 109   ----------------------------------------
        BYTE   W24
// 110   ----------------------------------------
        BYTE   W24
// 111   ----------------------------------------
        BYTE   W24
// 112   ----------------------------------------
        BYTE   W24
// 113   ----------------------------------------
        BYTE           N04     Cn5   v090
        BYTE   W06
        BYTE                   As4
        BYTE   W06
        BYTE                   Cn5
        BYTE   W06
        BYTE           N15     Ds5   v070
        BYTE   W06
// 114   ----------------------------------------
        BYTE           BEND    c_v+1
        BYTE   W01
        BYTE                   c_v+2
        BYTE   W02
        BYTE                   c_v+1
        BYTE   W01
        BYTE                   c_v+0
        BYTE   W08
        BYTE           N04     Ds5   v090
        BYTE   W06
        BYTE                   Dn5
        BYTE   W06
// 115   ----------------------------------------
        BYTE                   Ds5
        BYTE   W06
        BYTE           N15     Gn5   v070
        BYTE   W06
        BYTE           BEND    c_v+1
        BYTE   W01
        BYTE                   c_v+2
        BYTE   W02
        BYTE                   c_v+1
        BYTE   W01
        BYTE                   c_v+0
        BYTE   W08
// 116   ----------------------------------------
        BYTE           N04     Ds5   v090
        BYTE   W06
        BYTE                   Fn5
        BYTE   W06
        BYTE           N12     Gn5   v070
        BYTE   W06
        BYTE           BEND    c_v+1
        BYTE   W01
        BYTE                   c_v+2
        BYTE   W02
        BYTE                   c_v+1
        BYTE   W01
        BYTE                   c_v+0
        BYTE   W02
// 117   ----------------------------------------
        BYTE           N20     Gs5
        BYTE   W06
        BYTE           BEND    c_v+1
        BYTE   W01
        BYTE                   c_v+0
        BYTE   W02
        BYTE                   c_v-1
        BYTE   W01
        BYTE                   c_v+0
        BYTE   W02
        BYTE                   c_v+1
        BYTE   W01
        BYTE                   c_v+2
        BYTE   W02
        BYTE                   c_v+1
        BYTE   W01
        BYTE                   c_v+0
        BYTE   W08
// 118   ----------------------------------------
        BYTE           N20     Gn5
        BYTE   W06
        BYTE           BEND    c_v+1
        BYTE   W01
        BYTE                   c_v+0
        BYTE   W02
        BYTE                   c_v-1
        BYTE   W01
        BYTE                   c_v+0
        BYTE   W02
        BYTE                   c_v+1
        BYTE   W01
        BYTE                   c_v+2
        BYTE   W02
        BYTE                   c_v+1
        BYTE   W01
        BYTE                   c_v+0
        BYTE   W08
// 119   ----------------------------------------
        BYTE           N20     Fn5
        BYTE   W06
        BYTE           BEND    c_v+1
        BYTE   W01
        BYTE                   c_v+0
        BYTE   W02
        BYTE                   c_v-1
        BYTE   W01
        BYTE                   c_v+0
        BYTE   W02
        BYTE                   c_v+1
        BYTE   W01
        BYTE                   c_v+2
        BYTE   W02
        BYTE                   c_v+1
        BYTE   W01
        BYTE                   c_v+0
        BYTE   W08
// 120   ----------------------------------------
        BYTE           N20     As4
        BYTE   W06
        BYTE           BEND    c_v+1
        BYTE   W01
        BYTE                   c_v+0
        BYTE   W02
        BYTE                   c_v-1
        BYTE   W01
        BYTE                   c_v+0
        BYTE   W02
        BYTE                   c_v+1
        BYTE   W01
        BYTE                   c_v+2
        BYTE   W02
        BYTE                   c_v+1
        BYTE   W01
        BYTE                   c_v+0
        BYTE   W08
// 121   ----------------------------------------
        BYTE           N05     Ds5   v080
        BYTE   W06
        BYTE                   Fn5
        BYTE   W06
        BYTE                   Ds5
        BYTE   W06
        BYTE                   Dn5
        BYTE   W06
// 122   ----------------------------------------
        BYTE           N42     Cn5
        BYTE   W06
        BYTE           BEND    c_v+1
        BYTE   W01
        BYTE                   c_v+0
        BYTE   W02
        BYTE                   c_v-1
        BYTE   W01
        BYTE                   c_v+0
        BYTE   W02
        BYTE                   c_v+1
        BYTE   W01
        BYTE                   c_v+2
        BYTE   W02
        BYTE                   c_v+1
        BYTE   W01
        BYTE                   c_v+0
        BYTE   W02
        BYTE                   c_v-1
        BYTE   W01
        BYTE                   c_v+0
        BYTE   W02
        BYTE                   c_v+1
        BYTE   W01
        BYTE                   c_v+2
        BYTE   W02
// 123   ----------------------------------------
        BYTE   PATT
         POIN2  ShakingFrontSight_000_0_158
// 124   ----------------------------------------
        BYTE           N12     Gs4   v080
        BYTE   W06
        BYTE           BEND    c_v+1
        BYTE   W01
        BYTE                   c_v+2
        BYTE   W02
        BYTE                   c_v+1
        BYTE   W01
        BYTE                   c_v+0
        BYTE   W02
        BYTE           N12     Cn5
        BYTE   W06
        BYTE           BEND    c_v+1
        BYTE   W01
        BYTE                   c_v+2
        BYTE   W02
        BYTE                   c_v+1
        BYTE   W01
        BYTE                   c_v+0
        BYTE   W02
// 125   ----------------------------------------
        BYTE           N05     Gn5
        BYTE   W06
        BYTE                   Gs5
        BYTE   W06
        BYTE                   Gn5
        BYTE   W06
        BYTE                   Fn5
        BYTE   W06
// 126   ----------------------------------------
        BYTE           N42     As4
        BYTE   W06
        BYTE           BEND    c_v+1
        BYTE   W01
        BYTE                   c_v+0
        BYTE   W02
        BYTE                   c_v-1
        BYTE   W01
        BYTE                   c_v+0
        BYTE   W02
        BYTE                   c_v+1
        BYTE   W01
        BYTE                   c_v+2
        BYTE   W02
        BYTE                   c_v+1
        BYTE   W01
        BYTE                   c_v+0
        BYTE   W02
        BYTE                   c_v-1
        BYTE   W01
        BYTE                   c_v+0
        BYTE   W02
        BYTE                   c_v+1
        BYTE   W01
        BYTE                   c_v+2
        BYTE   W02
// 127   ----------------------------------------
        BYTE   PATT
         POIN2  ShakingFrontSight_000_0_158
// 128   ----------------------------------------
        BYTE           N12     Gn4   v080
        BYTE   W06
        BYTE           BEND    c_v+1
        BYTE   W01
        BYTE                   c_v+2
        BYTE   W02
        BYTE                   c_v+1
        BYTE   W01
        BYTE                   c_v+0
        BYTE   W02
        BYTE           N12     As4
        BYTE   W06
        BYTE           BEND    c_v+1
        BYTE   W01
        BYTE                   c_v+2
        BYTE   W02
        BYTE                   c_v+1
        BYTE   W01
        BYTE                   c_v+0
        BYTE   W02
// 129   ----------------------------------------
ShakingFrontSight_000_3_129:
        BYTE           N42     Gs4   v080
        BYTE   W06
        BYTE           BEND    c_v+1
        BYTE   W01
        BYTE                   c_v+0
        BYTE   W02
        BYTE                   c_v-1
        BYTE   W01
        BYTE                   c_v+0
        BYTE   W02
        BYTE                   c_v+1
        BYTE   W01
        BYTE                   c_v+2
        BYTE   W02
        BYTE                   c_v+1
        BYTE   W01
        BYTE                   c_v+0
        BYTE   W02
        BYTE                   c_v-1
        BYTE   W01
        BYTE                   c_v+0
        BYTE   W03
        BYTE                   c_v+1
        BYTE   W02
        BYTE   PEND
// 130   ----------------------------------------
ShakingFrontSight_000_3_130:
        BYTE           BEND    c_v+2
        BYTE   W01
        BYTE                   c_v+3
        BYTE   W02
        BYTE                   c_v+2
        BYTE   W01
        BYTE                   c_v+1
        BYTE   W02
        BYTE                   c_v+0
        BYTE   W01
        BYTE                   c_v-1
        BYTE   W02
        BYTE                   c_v-2
        BYTE   W01
        BYTE                   c_v-1
        BYTE   W02
        BYTE                   c_v+0
        BYTE   W01
        BYTE                   c_v+1
        BYTE   W02
        BYTE                   c_v+0
        BYTE   W09
        BYTE   PEND
// 131   ----------------------------------------
        BYTE           N18     Fn4   v080
        BYTE   W06
        BYTE           BEND    c_v+1
        BYTE   W01
        BYTE                   c_v+0
        BYTE   W02
        BYTE                   c_v-1
        BYTE   W01
        BYTE                   c_v+0
        BYTE   W02
        BYTE                   c_v+1
        BYTE   W01
        BYTE                   c_v+2
        BYTE   W02
        BYTE                   c_v+1
        BYTE   W01
        BYTE                   c_v+0
        BYTE   W08
// 132   ----------------------------------------
ShakingFrontSight_000_3_132:
        BYTE           N18     Gs4   v080
        BYTE   W06
        BYTE           BEND    c_v+1
        BYTE   W01
        BYTE                   c_v+0
        BYTE   W02
        BYTE                   c_v-1
        BYTE   W01
        BYTE                   c_v+0
        BYTE   W02
        BYTE                   c_v+1
        BYTE   W01
        BYTE                   c_v+2
        BYTE   W02
        BYTE                   c_v+1
        BYTE   W01
        BYTE                   c_v+0
        BYTE   W08
        BYTE   PEND
// 133   ----------------------------------------
        BYTE   PATT
         POIN2  ShakingFrontSight_000_3_129
// 134   ----------------------------------------
        BYTE   PATT
         POIN2  ShakingFrontSight_000_3_130
// 135   ----------------------------------------
        BYTE           N18     En4   v080
        BYTE   W06
        BYTE           BEND    c_v+1
        BYTE   W01
        BYTE                   c_v+0
        BYTE   W02
        BYTE                   c_v-1
        BYTE   W01
        BYTE                   c_v+0
        BYTE   W02
        BYTE                   c_v+1
        BYTE   W01
        BYTE                   c_v+2
        BYTE   W02
        BYTE                   c_v+1
        BYTE   W01
        BYTE                   c_v+0
        BYTE   W08
// 136   ----------------------------------------
        BYTE   PATT
         POIN2  ShakingFrontSight_000_3_132
// 137   ----------------------------------------
        BYTE           TIE     An4   v070
        BYTE   W06
        BYTE           BEND    c_v+1
        BYTE   W01
        BYTE                   c_v+0
        BYTE   W02
        BYTE                   c_v-1
        BYTE   W01
        BYTE                   c_v+0
        BYTE   W02
        BYTE                   c_v+1
        BYTE   W01
        BYTE                   c_v+2
        BYTE   W02
        BYTE                   c_v+1
        BYTE   W01
        BYTE                   c_v+0
        BYTE   W02
        BYTE                   c_v-1
        BYTE   W01
        BYTE                   c_v+0
        BYTE   W02
        BYTE                   c_v+1
        BYTE   W01
        BYTE                   c_v+2
        BYTE   W02
// 138   ----------------------------------------
        BYTE   PATT
         POIN2  ShakingFrontSight_000_0_71
// 139   ----------------------------------------
        BYTE   PATT
         POIN2  ShakingFrontSight_000_0_72
// 140   ----------------------------------------
        BYTE   PATT
         POIN2  ShakingFrontSight_000_0_127
// 141   ----------------------------------------
        BYTE   W03
        BYTE           EOT     An4
        BYTE   W21
// 142   ----------------------------------------
        BYTE   W24
// 143   ----------------------------------------
        BYTE   W24
// 144   ----------------------------------------
        BYTE   W24
// 145   ----------------------------------------
        BYTE   W24
// 146   ----------------------------------------
        BYTE   W24
// 147   ----------------------------------------
        BYTE   W24
// 148   ----------------------------------------
        BYTE   W24
// 149   ----------------------------------------
        BYTE   W24
// 150   ----------------------------------------
        BYTE   W24
// 151   ----------------------------------------
        BYTE   W24
// 152   ----------------------------------------
        BYTE   W24
// 153   ----------------------------------------
        BYTE   W24
// 154   ----------------------------------------
        BYTE   W24
// 155   ----------------------------------------
        BYTE   W24
// 156   ----------------------------------------
        BYTE   W24
// 157   ----------------------------------------
        BYTE   W24
// 158   ----------------------------------------
        BYTE   W24
// 159   ----------------------------------------
        BYTE   W24
// 160   ----------------------------------------
        BYTE   W24
// 161   ----------------------------------------
        BYTE           N48     Gn4   v080
        BYTE   W06
        BYTE           BEND    c_v+1
        BYTE   W01
        BYTE                   c_v+0
        BYTE   W02
        BYTE                   c_v-1
        BYTE   W01
        BYTE                   c_v+0
        BYTE   W02
        BYTE                   c_v+1
        BYTE   W01
        BYTE                   c_v+2
        BYTE   W02
        BYTE                   c_v+1
        BYTE   W01
        BYTE                   c_v+0
        BYTE   W02
        BYTE                   c_v-1
        BYTE   W01
        BYTE                   c_v+0
        BYTE   W02
        BYTE                   c_v+1
        BYTE   W01
        BYTE                   c_v+2
        BYTE   W02
// 162   ----------------------------------------
        BYTE   PATT
         POIN2  ShakingFrontSight_000_0_71
// 163   ----------------------------------------
        BYTE           N24     An4   v080
        BYTE   W06
        BYTE           BEND    c_v+1
        BYTE   W01
        BYTE                   c_v+0
        BYTE   W02
        BYTE                   c_v-1
        BYTE   W01
        BYTE                   c_v+0
        BYTE   W02
        BYTE                   c_v+1
        BYTE   W01
        BYTE                   c_v+2
        BYTE   W02
        BYTE                   c_v+1
        BYTE   W01
        BYTE                   c_v+0
        BYTE   W02
        BYTE                   c_v-1
        BYTE   W01
        BYTE                   c_v+0
        BYTE   W02
        BYTE                   c_v+2
        BYTE   W01
        BYTE                   c_v+0
        BYTE   W02
// 164   ----------------------------------------
        BYTE           N24     As4
        BYTE   W06
        BYTE           BEND    c_v+1
        BYTE   W01
        BYTE                   c_v+0
        BYTE   W02
        BYTE                   c_v-1
        BYTE   W01
        BYTE                   c_v+0
        BYTE   W02
        BYTE                   c_v+1
        BYTE   W01
        BYTE                   c_v+2
        BYTE   W02
        BYTE                   c_v+1
        BYTE   W01
        BYTE                   c_v+0
        BYTE   W02
        BYTE                   c_v-1
        BYTE   W01
        BYTE                   c_v+0
        BYTE   W02
        BYTE                   c_v+2
        BYTE   W01
        BYTE                   c_v+0
        BYTE   W02
// 165   ----------------------------------------
        BYTE           N44     Dn4   v080   gtp1
        BYTE   W06
        BYTE           BEND    c_v+1
        BYTE   W01
        BYTE                   c_v+0
        BYTE   W02
        BYTE                   c_v-1
        BYTE   W01
        BYTE                   c_v+0
        BYTE   W02
        BYTE                   c_v+1
        BYTE   W01
        BYTE                   c_v+2
        BYTE   W02
        BYTE                   c_v+1
        BYTE   W01
        BYTE                   c_v+0
        BYTE   W02
        BYTE                   c_v-1
        BYTE   W01
        BYTE                   c_v+0
        BYTE   W02
        BYTE                   c_v+1
        BYTE   W01
        BYTE                   c_v+2
        BYTE   W02
// 166   ----------------------------------------
        BYTE   PATT
         POIN2  ShakingFrontSight_000_0_158
// 167   ----------------------------------------
        BYTE           N12     Dn4   v080
        BYTE   W06
        BYTE           BEND    c_v+1
        BYTE   W01
        BYTE                   c_v+2
        BYTE   W02
        BYTE                   c_v+1
        BYTE   W01
        BYTE                   c_v+0
        BYTE   W02
        BYTE           N12     Fn4
        BYTE   W06
        BYTE           BEND    c_v+1
        BYTE   W01
        BYTE                   c_v+2
        BYTE   W02
        BYTE                   c_v+1
        BYTE   W01
        BYTE                   c_v+0
        BYTE   W02
// 168   ----------------------------------------
        BYTE           N12     Bn4
        BYTE   W06
        BYTE           BEND    c_v+1
        BYTE   W01
        BYTE                   c_v+2
        BYTE   W02
        BYTE                   c_v+1
        BYTE   W01
        BYTE                   c_v+0
        BYTE   W02
        BYTE           N12     Dn5
        BYTE   W06
        BYTE           BEND    c_v+1
        BYTE   W01
        BYTE                   c_v+2
        BYTE   W02
        BYTE                   c_v+1
        BYTE   W01
        BYTE                   c_v+0
        BYTE   W02
// 169   ----------------------------------------
        BYTE   W24
// 170   ----------------------------------------
        BYTE   W24
// 171   ----------------------------------------
        BYTE   W24
// 172   ----------------------------------------
        BYTE   W24
// 173   ----------------------------------------
        BYTE   W24
// 174   ----------------------------------------
        BYTE   W24
// 175   ----------------------------------------
        BYTE   W24
// 176   ----------------------------------------
        BYTE   W24
// 177   ----------------------------------------
        BYTE   W24
// 178   ----------------------------------------
        BYTE   W24
// 179   ----------------------------------------
        BYTE   W24
// 180   ----------------------------------------
        BYTE   W24
// 181   ----------------------------------------
        BYTE   W24
// 182   ----------------------------------------
        BYTE   W24
// 183   ----------------------------------------
        BYTE   W24
// 184   ----------------------------------------
        BYTE   W24
// 185   ----------------------------------------
        BYTE   W24
// 186   ----------------------------------------
        BYTE   W24
// 187   ----------------------------------------
        BYTE   W24
// 188   ----------------------------------------
        BYTE   W24
// 189   ----------------------------------------
        BYTE   W24
// 190   ----------------------------------------
        BYTE   W24
// 191   ----------------------------------------
        BYTE   W24
// 192   ----------------------------------------
        BYTE   W24
// 193   ----------------------------------------
        BYTE   W24
// 194   ----------------------------------------
        BYTE   W24
// 195   ----------------------------------------
        BYTE   W24
// 196   ----------------------------------------
        BYTE   W24
// 197   ----------------------------------------
        BYTE   W24
// 198   ----------------------------------------
        BYTE   W24
// 199   ----------------------------------------
        BYTE   W24
// 200   ----------------------------------------
        BYTE   W24
// 201   ----------------------------------------
        BYTE   W24
// 202   ----------------------------------------
        BYTE   W24
// 203   ----------------------------------------
        BYTE   W24
// 204   ----------------------------------------
        BYTE   W24
// 205   ----------------------------------------
        BYTE   W24
// 206   ----------------------------------------
        BYTE   W24
// 207   ----------------------------------------
        BYTE   W24
// 208   ----------------------------------------
        BYTE   W24
// 209   ----------------------------------------
        BYTE   W24
// 210   ----------------------------------------
        BYTE   W24
// 211   ----------------------------------------
        BYTE   W24
// 212   ----------------------------------------
        BYTE   W24
// 213   ----------------------------------------
        BYTE   W24
// 214   ----------------------------------------
        BYTE   W24
// 215   ----------------------------------------
        BYTE   W24
// 216   ----------------------------------------
        BYTE   W24
// 217   ----------------------------------------
        BYTE   GoTo
         POIN2  ShakingFrontSight_000_3_LOOP
        BYTE   FINE

//****************** Track 4 (Midi-Chn.5) ******************//

ShakingFrontSight_000_4:
        BYTE   KEYSH   ShakingFrontSight_000_key+0
// 000   ----------------------------------------
        BYTE           VOICE   96
        BYTE   W01
        BYTE           VOL     34
        BYTE           PAN     c_v-40
        BYTE   W23
// 001   ----------------------------------------
ShakingFrontSight_000_4_LOOP:
        BYTE           N12     Bn4   v100
        BYTE   W24
// 002   ----------------------------------------
        BYTE   W24
// 003   ----------------------------------------
        BYTE   W24
// 004   ----------------------------------------
        BYTE   W23
        BYTE                   Cn4
        BYTE   W01
// 005   ----------------------------------------
        BYTE   W24
// 006   ----------------------------------------
        BYTE   W24
// 007   ----------------------------------------
        BYTE   W24
// 008   ----------------------------------------
ShakingFrontSight_000_4_8:
        BYTE   W23
        BYTE           N12     Bn3   v100
        BYTE   W01
        BYTE   PEND
// 009   ----------------------------------------
        BYTE   W24
// 010   ----------------------------------------
        BYTE   W24
// 011   ----------------------------------------
        BYTE   W24
// 012   ----------------------------------------
        BYTE   W23
        BYTE                   Gn3
        BYTE   W01
// 013   ----------------------------------------
        BYTE   W24
// 014   ----------------------------------------
        BYTE   W24
// 015   ----------------------------------------
        BYTE   W24
// 016   ----------------------------------------
        BYTE   W23
        BYTE           N72     Bn3
        BYTE   W01
// 017   ----------------------------------------
        BYTE   W24
// 018   ----------------------------------------
        BYTE   W24
// 019   ----------------------------------------
        BYTE   W23
        BYTE           N24     Bn4
        BYTE   W01
// 020   ----------------------------------------
        BYTE   W23
        BYTE           N72     Gn4
        BYTE   W01
// 021   ----------------------------------------
        BYTE   W24
// 022   ----------------------------------------
        BYTE   W24
// 023   ----------------------------------------
        BYTE   W23
        BYTE           N12     Fs4
        BYTE   W01
// 024   ----------------------------------------
        BYTE   W11
        BYTE                   En4
        BYTE   W12
        BYTE           N36     Fs4
        BYTE   W01
// 025   ----------------------------------------
        BYTE   W24
// 026   ----------------------------------------
        BYTE   W11
        BYTE           N12     Bn3
        BYTE   W12
        BYTE           N18     Dn4
        BYTE   W01
// 027   ----------------------------------------
        BYTE   W17
        BYTE                   En4
        BYTE   W07
// 028   ----------------------------------------
        BYTE   W11
        BYTE           N12     Fs4
        BYTE   W12
        BYTE           N92     Gn4   v100   gtp2
        BYTE   W01
// 029   ----------------------------------------
        BYTE   W24
// 030   ----------------------------------------
        BYTE   W24
// 031   ----------------------------------------
        BYTE   W24
// 032   ----------------------------------------
ShakingFrontSight_000_4_32:
        BYTE   W23
        BYTE           N10     Fs4   v100
        BYTE   W01
        BYTE   PEND
// 033   ----------------------------------------
        BYTE   PATT
         POIN2  ShakingFrontSight_000_4_32
// 034   ----------------------------------------
        BYTE   W24
// 035   ----------------------------------------
        BYTE   W11
        BYTE           N10     Fs4   v100
        BYTE   W13
// 036   ----------------------------------------
        BYTE   W24
// 037   ----------------------------------------
        BYTE   W11
        BYTE           N09
        BYTE   W12
        BYTE           N10
        BYTE   W01
// 038   ----------------------------------------
        BYTE   W24
// 039   ----------------------------------------
        BYTE   W23
        BYTE           N04     Cs3   v090
        BYTE   W01
// 040   ----------------------------------------
        BYTE   W03
        BYTE                   Dn3
        BYTE   W04
        BYTE                   En3
        BYTE   W04
        BYTE                   Fs3
        BYTE   W04
        BYTE                   Gs3
        BYTE   W04
        BYTE                   As3
        BYTE   W04
        BYTE           N48     Bn3   v080
        BYTE   W01
// 041   ----------------------------------------
        BYTE   W24
// 042   ----------------------------------------
ShakingFrontSight_000_4_42:
        BYTE   W23
        BYTE           N48     Cs4   v080
        BYTE   W01
        BYTE   PEND
// 043   ----------------------------------------
        BYTE   W24
// 044   ----------------------------------------
        BYTE   W23
        BYTE                   Dn4
        BYTE   W01
// 045   ----------------------------------------
        BYTE   W24
// 046   ----------------------------------------
        BYTE   W23
        BYTE                   En4
        BYTE   W01
// 047   ----------------------------------------
        BYTE   W24
// 048   ----------------------------------------
        BYTE   W23
        BYTE                   Fs4
        BYTE   W01
// 049   ----------------------------------------
        BYTE   W24
// 050   ----------------------------------------
        BYTE   W23
        BYTE                   Gn4
        BYTE   W01
// 051   ----------------------------------------
        BYTE   W24
// 052   ----------------------------------------
        BYTE   W23
        BYTE                   An4
        BYTE   W01
// 053   ----------------------------------------
        BYTE   W24
// 054   ----------------------------------------
        BYTE   W23
        BYTE           N44     An3   v070   gtp2
        BYTE   W01
// 055   ----------------------------------------
        BYTE   W24
// 056   ----------------------------------------
        BYTE   W23
        BYTE           N48     Bn3   v085
        BYTE   W01
// 057   ----------------------------------------
        BYTE   W24
// 058   ----------------------------------------
ShakingFrontSight_000_4_58:
        BYTE   W23
        BYTE           N48     Cs4   v085
        BYTE   W01
        BYTE   PEND
// 059   ----------------------------------------
        BYTE   W24
// 060   ----------------------------------------
        BYTE   W23
        BYTE                   Dn4
        BYTE   W01
// 061   ----------------------------------------
        BYTE   W24
// 062   ----------------------------------------
        BYTE   W23
        BYTE                   En4
        BYTE   W01
// 063   ----------------------------------------
        BYTE   W24
// 064   ----------------------------------------
        BYTE   W23
        BYTE                   Fs4
        BYTE   W01
// 065   ----------------------------------------
        BYTE   W24
// 066   ----------------------------------------
        BYTE   W23
        BYTE                   Gn4
        BYTE   W01
// 067   ----------------------------------------
        BYTE   W24
// 068   ----------------------------------------
        BYTE   W23
        BYTE                   An4
        BYTE   W01
// 069   ----------------------------------------
        BYTE   W24
// 070   ----------------------------------------
        BYTE   W23
        BYTE           N24     Dn5
        BYTE   W01
// 071   ----------------------------------------
        BYTE   W23
        BYTE                   Cs5
        BYTE   W01
// 072   ----------------------------------------
        BYTE   W23
        BYTE           N48     Cn5   v090
        BYTE   W01
// 073   ----------------------------------------
        BYTE   W24
// 074   ----------------------------------------
ShakingFrontSight_000_4_74:
        BYTE   W23
        BYTE           N48     Dn4   v090
        BYTE   W01
        BYTE   PEND
// 075   ----------------------------------------
        BYTE   W24
// 076   ----------------------------------------
ShakingFrontSight_000_4_76:
        BYTE   W23
        BYTE           N48     Ds4   v090
        BYTE   W01
        BYTE   PEND
// 077   ----------------------------------------
        BYTE   W24
// 078   ----------------------------------------
ShakingFrontSight_000_4_78:
        BYTE   W23
        BYTE           N48     Fn4   v090
        BYTE   W01
        BYTE   PEND
// 079   ----------------------------------------
        BYTE   W24
// 080   ----------------------------------------
ShakingFrontSight_000_4_80:
        BYTE   W23
        BYTE           N48     Gn4   v090
        BYTE   W01
        BYTE   PEND
// 081   ----------------------------------------
        BYTE   W24
// 082   ----------------------------------------
ShakingFrontSight_000_4_82:
        BYTE   W23
        BYTE           N48     Gs4   v090
        BYTE   W01
        BYTE   PEND
// 083   ----------------------------------------
        BYTE   W24
// 084   ----------------------------------------
        BYTE   W23
        BYTE                   As4
        BYTE   W01
// 085   ----------------------------------------
        BYTE   W24
// 086   ----------------------------------------
        BYTE   W23
        BYTE           N44     As3   v080   gtp2
        BYTE   W01
// 087   ----------------------------------------
        BYTE   W24
// 088   ----------------------------------------
        BYTE   W23
        BYTE           N48     Cn4   v090
        BYTE   W01
// 089   ----------------------------------------
        BYTE   W24
// 090   ----------------------------------------
        BYTE   PATT
         POIN2  ShakingFrontSight_000_4_74
// 091   ----------------------------------------
        BYTE   W24
// 092   ----------------------------------------
        BYTE   PATT
         POIN2  ShakingFrontSight_000_4_76
// 093   ----------------------------------------
        BYTE   W24
// 094   ----------------------------------------
        BYTE   PATT
         POIN2  ShakingFrontSight_000_4_78
// 095   ----------------------------------------
        BYTE   W24
// 096   ----------------------------------------
        BYTE   PATT
         POIN2  ShakingFrontSight_000_4_80
// 097   ----------------------------------------
        BYTE   W24
// 098   ----------------------------------------
        BYTE   PATT
         POIN2  ShakingFrontSight_000_4_82
// 099   ----------------------------------------
        BYTE   W24
// 100   ----------------------------------------
        BYTE   W23
        BYTE           N24     As4   v090
        BYTE   W01
// 101   ----------------------------------------
ShakingFrontSight_000_4_101:
        BYTE   W23
        BYTE           N24     As3   v090
        BYTE   W01
        BYTE   PEND
// 102   ----------------------------------------
ShakingFrontSight_000_4_102:
        BYTE   W23
        BYTE           N24     Dn4   v090
        BYTE   W01
        BYTE   PEND
// 103   ----------------------------------------
        BYTE   W23
        BYTE                   Fn4
        BYTE   W01
// 104   ----------------------------------------
        BYTE   W24
// 105   ----------------------------------------
        BYTE   W24
// 106   ----------------------------------------
ShakingFrontSight_000_4_106:
        BYTE   W11
        BYTE           N06     Cn5   v095
        BYTE   W06
        BYTE                   Dn5
        BYTE   W06
        BYTE                   Cn5
        BYTE   W01
        BYTE   PEND
// 107   ----------------------------------------
ShakingFrontSight_000_4_107:
        BYTE   W05
        BYTE           N06     As4   v095
        BYTE   W06
        BYTE           N30     Gs4
        BYTE   W13
        BYTE   PEND
// 108   ----------------------------------------
        BYTE   W24
// 109   ----------------------------------------
        BYTE   W24
// 110   ----------------------------------------
        BYTE   W11
        BYTE           N06     Fn5   v085
        BYTE   W06
        BYTE                   Gn5
        BYTE   W06
        BYTE                   Fn5
        BYTE   W01
// 111   ----------------------------------------
        BYTE   W05
        BYTE                   Ds5
        BYTE   W06
        BYTE           N30     Dn5
        BYTE   W13
// 112   ----------------------------------------
        BYTE   W23
        BYTE           N06     Cn4   v110
        BYTE   W01
// 113   ----------------------------------------
        BYTE   W05
        BYTE                   As3
        BYTE   W06
        BYTE                   Cn4
        BYTE   W06
        BYTE           N15     Ds4
        BYTE   W07
// 114   ----------------------------------------
        BYTE   W11
        BYTE           N06
        BYTE   W06
        BYTE                   Dn4
        BYTE   W06
        BYTE                   Ds4
        BYTE   W01
// 115   ----------------------------------------
        BYTE   W05
        BYTE           N15     Gn4
        BYTE   W18
        BYTE           N06     Ds4
        BYTE   W01
// 116   ----------------------------------------
        BYTE   W05
        BYTE                   Fn4
        BYTE   W06
        BYTE           N12     Gn4
        BYTE   W12
        BYTE           N20     Gs4   v105
        BYTE   W01
// 117   ----------------------------------------
        BYTE   W23
        BYTE                   Gn4
        BYTE   W01
// 118   ----------------------------------------
        BYTE   W23
        BYTE                   Fn4
        BYTE   W01
// 119   ----------------------------------------
ShakingFrontSight_000_4_119:
        BYTE   W23
        BYTE           N20     As3   v105
        BYTE   W01
        BYTE   PEND
// 120   ----------------------------------------
        BYTE   W24
// 121   ----------------------------------------
        BYTE   W24
// 122   ----------------------------------------
        BYTE   PATT
         POIN2  ShakingFrontSight_000_4_106
// 123   ----------------------------------------
        BYTE   PATT
         POIN2  ShakingFrontSight_000_4_107
// 124   ----------------------------------------
        BYTE   W24
// 125   ----------------------------------------
        BYTE   W24
// 126   ----------------------------------------
        BYTE   W11
        BYTE           N06     As4   v095
        BYTE   W06
        BYTE                   Cn5
        BYTE   W06
        BYTE                   As4
        BYTE   W01
// 127   ----------------------------------------
        BYTE   W05
        BYTE                   Gs4
        BYTE   W06
        BYTE           N30     Gn4
        BYTE   W13
// 128   ----------------------------------------
        BYTE   W23
        BYTE           N48     Gs3   v110
        BYTE   W01
// 129   ----------------------------------------
        BYTE   W24
// 130   ----------------------------------------
        BYTE   W23
        BYTE           N18     Fn3
        BYTE   W01
// 131   ----------------------------------------
        BYTE   W23
        BYTE                   Gs3
        BYTE   W01
// 132   ----------------------------------------
        BYTE   W23
        BYTE           N48     Gs3   v115
        BYTE   W01
// 133   ----------------------------------------
        BYTE   W24
// 134   ----------------------------------------
        BYTE   W23
        BYTE           N18     En3
        BYTE   W01
// 135   ----------------------------------------
        BYTE   W23
        BYTE                   Gs3
        BYTE   W01
// 136   ----------------------------------------
ShakingFrontSight_000_4_136:
        BYTE   W23
        BYTE           N24     An3   v095
        BYTE   W01
        BYTE   PEND
// 137   ----------------------------------------
        BYTE   W23
        BYTE                   En4   v075
        BYTE   W01
// 138   ----------------------------------------
        BYTE   W23
        BYTE           N15     Bn3
        BYTE   W01
// 139   ----------------------------------------
        BYTE   W11
        BYTE           N06     An3   v070
        BYTE   W06
        BYTE                   Gn3
        BYTE   W06
        BYTE           N24     En3
        BYTE   W01
// 140   ----------------------------------------
        BYTE   W23
        BYTE           N09     Gs3
        BYTE   W01
// 141   ----------------------------------------
        BYTE   W11
        BYTE           N06     Gs3   v080
        BYTE   W06
        BYTE                   Gn3   v075
        BYTE   W06
        BYTE                   Fn4
        BYTE   W01
// 142   ----------------------------------------
        BYTE   W05
        BYTE                   En4
        BYTE   W06
        BYTE                   Dn4
        BYTE   W06
        BYTE                   En4
        BYTE   W06
        BYTE           N11     Fn4   v070
        BYTE   W01
// 143   ----------------------------------------
        BYTE   W11
        BYTE           N06     En4   v080
        BYTE   W06
        BYTE                   Fn4   v075
        BYTE   W06
        BYTE           N12     En4   v070
        BYTE   W01
// 144   ----------------------------------------
        BYTE   W11
        BYTE                   Dn4
        BYTE   W12
        BYTE           N06     Cn4   v080
        BYTE   W01
// 145   ----------------------------------------
        BYTE   W05
        BYTE                   Bn3   v075
        BYTE   W06
        BYTE                   Cn4
        BYTE   W06
        BYTE                   Dn4
        BYTE   W06
        BYTE           N12     An4   v070
        BYTE   W01
// 146   ----------------------------------------
        BYTE   W11
        BYTE           N06     Fn4   v080
        BYTE   W06
        BYTE                   Gn4   v075
        BYTE   W06
        BYTE           N12     Fn4   v070
        BYTE   W01
// 147   ----------------------------------------
        BYTE   W11
        BYTE           N06     Cn4   v080
        BYTE   W06
        BYTE                   Dn4   v075
        BYTE   W06
        BYTE           N21     Cn4   v070
        BYTE   W01
// 148   ----------------------------------------
        BYTE   W23
        BYTE           N06     Cn4   v080
        BYTE   W01
// 149   ----------------------------------------
        BYTE   W05
        BYTE                   Bn3   v075
        BYTE   W06
        BYTE           N15     Cn4   v070
        BYTE   W13
// 150   ----------------------------------------
        BYTE   W05
        BYTE           N06     Bn3   v080
        BYTE   W06
        BYTE           N12     Cn4   v070
        BYTE   W12
        BYTE           N06     Bn3   v075
        BYTE   W01
// 151   ----------------------------------------
        BYTE   W05
        BYTE                   An3   v070
        BYTE   W06
        BYTE                   Gn3
        BYTE   W06
        BYTE                   Bn3
        BYTE   W06
        BYTE           N04     Fs3   v090
        BYTE   W01
// 152   ----------------------------------------
        BYTE   W03
        BYTE                   Gs3
        BYTE   W04
        BYTE                   An3
        BYTE   W04
        BYTE           N03     Bn3   v100
        BYTE   W04
        BYTE                   Cs4
        BYTE   W04
        BYTE                   Ds4
        BYTE   W04
        BYTE           N48     En4
        BYTE   W01
// 153   ----------------------------------------
        BYTE   W24
// 154   ----------------------------------------
        BYTE   W23
        BYTE           N24     Fs4
        BYTE   W01
// 155   ----------------------------------------
        BYTE   W23
        BYTE                   Gn4
        BYTE   W01
// 156   ----------------------------------------
        BYTE   W23
        BYTE           N44     Bn3   v100   gtp3
        BYTE   W01
// 157   ----------------------------------------
        BYTE   W24
// 158   ----------------------------------------
        BYTE   PATT
         POIN2  ShakingFrontSight_000_4_8
// 159   ----------------------------------------
        BYTE   W11
        BYTE           N12     Dn4   v100
        BYTE   W12
        BYTE                   Gs4
        BYTE   W01
// 160   ----------------------------------------
        BYTE   W11
        BYTE                   Bn4
        BYTE   W12
        BYTE           N48     Gn4
        BYTE   W01
// 161   ----------------------------------------
        BYTE   W24
// 162   ----------------------------------------
        BYTE   W23
        BYTE           N24     An4
        BYTE   W01
// 163   ----------------------------------------
        BYTE   W23
        BYTE                   As4
        BYTE   W01
// 164   ----------------------------------------
        BYTE   W23
        BYTE           N44     Dn4   v100   gtp3
        BYTE   W01
// 165   ----------------------------------------
        BYTE   W24
// 166   ----------------------------------------
        BYTE   W23
        BYTE           N12
        BYTE   W01
// 167   ----------------------------------------
        BYTE   W11
        BYTE                   Fn4
        BYTE   W12
        BYTE                   Bn4
        BYTE   W01
// 168   ----------------------------------------
        BYTE   W11
        BYTE           N11     Dn5
        BYTE   W12
        BYTE           N24     Dn5   v110
        BYTE   W01
// 169   ----------------------------------------
        BYTE   W23
        BYTE           N68     Cn5   v090   gtp1
        BYTE   W01
// 170   ----------------------------------------
        BYTE   W24
// 171   ----------------------------------------
        BYTE   W24
// 172   ----------------------------------------
        BYTE   W23
        BYTE           N24     As4   v095
        BYTE   W01
// 173   ----------------------------------------
        BYTE   W23
        BYTE           N68     Gs4   v075   gtp1
        BYTE   W01
// 174   ----------------------------------------
        BYTE   W24
// 175   ----------------------------------------
        BYTE   W24
// 176   ----------------------------------------
        BYTE   W23
        BYTE           N24     As4   v085
        BYTE   W01
// 177   ----------------------------------------
        BYTE   W23
        BYTE           N68     Gs4   v065   gtp1
        BYTE   W01
// 178   ----------------------------------------
        BYTE   W24
// 179   ----------------------------------------
        BYTE   W24
// 180   ----------------------------------------
        BYTE   W23
        BYTE           N24     As4   v075
        BYTE   W01
// 181   ----------------------------------------
        BYTE   W23
        BYTE           N72     Gs4   v055
        BYTE   W01
// 182   ----------------------------------------
        BYTE   W24
// 183   ----------------------------------------
        BYTE   W24
// 184   ----------------------------------------
        BYTE   W23
        BYTE           N48     Gn4   v060
        BYTE   W01
// 185   ----------------------------------------
        BYTE   W24
// 186   ----------------------------------------
        BYTE   W23
        BYTE                   Fs4   v055
        BYTE   W01
// 187   ----------------------------------------
        BYTE   W24
// 188   ----------------------------------------
        BYTE   W23
        BYTE                   Fn4   v060
        BYTE   W01
// 189   ----------------------------------------
        BYTE   W24
// 190   ----------------------------------------
        BYTE   W23
        BYTE                   Dn4   v055
        BYTE   W01
// 191   ----------------------------------------
        BYTE   W24
// 192   ----------------------------------------
ShakingFrontSight_000_4_192:
        BYTE   W23
        BYTE           N96     As3   v060
        BYTE   W01
        BYTE   PEND
// 193   ----------------------------------------
        BYTE   W24
// 194   ----------------------------------------
        BYTE   W24
// 195   ----------------------------------------
        BYTE   W24
// 196   ----------------------------------------
        BYTE   W23
        BYTE                   En3
        BYTE   W01
// 197   ----------------------------------------
        BYTE   W24
// 198   ----------------------------------------
        BYTE   W24
// 199   ----------------------------------------
        BYTE   W24
// 200   ----------------------------------------
ShakingFrontSight_000_4_200:
        BYTE   W23
        BYTE           N66     Dn3   v050
        BYTE   W01
        BYTE   PEND
// 201   ----------------------------------------
        BYTE   W24
// 202   ----------------------------------------
        BYTE   W24
// 203   ----------------------------------------
        BYTE   W24
// 204   ----------------------------------------
        BYTE   PATT
         POIN2  ShakingFrontSight_000_4_200
// 205   ----------------------------------------
        BYTE   W24
// 206   ----------------------------------------
        BYTE   W24
// 207   ----------------------------------------
        BYTE   W24
// 208   ----------------------------------------
        BYTE   W23
        BYTE           TIE     Dn3   v050
        BYTE   W01
// 209   ----------------------------------------
        BYTE   W24
// 210   ----------------------------------------
        BYTE   W24
// 211   ----------------------------------------
        BYTE   W24
// 212   ----------------------------------------
        BYTE   W24
// 213   ----------------------------------------
        BYTE   W05
        BYTE           EOT
        BYTE   W19
// 214   ----------------------------------------
        BYTE   W23
        BYTE           N05     Dn3   v065
        BYTE   W01
// 215   ----------------------------------------
        BYTE   W03
        BYTE                   En3
        BYTE   W04
        BYTE                   Fs3   v070
        BYTE   W04
        BYTE                   Gn3
        BYTE   W04
        BYTE                   An3   v075
        BYTE   W04
        BYTE                   Bn3
        BYTE   W04
        BYTE                   Cs4   v080
        BYTE   W01
// 216   ----------------------------------------
        BYTE   W03
        BYTE                   Dn4
        BYTE   W04
        BYTE                   En4   v090
        BYTE   W04
        BYTE                   Fs4   v095
        BYTE   W04
        BYTE                   Gn4   v100
        BYTE   W04
        BYTE           N04     An4
        BYTE   W05
// 217   ----------------------------------------
        BYTE   GoTo
         POIN2  ShakingFrontSight_000_4_LOOP
        BYTE   FINE

//****************** Track 5 (Midi-Chn.6) ******************//

ShakingFrontSight_000_5:
        BYTE   KEYSH   ShakingFrontSight_000_key+0
// 000   ----------------------------------------
        BYTE           VOICE   43
        BYTE   W01
        BYTE           VOL     32
        BYTE           PAN     c_v+16
        BYTE   W23
// 001   ----------------------------------------
ShakingFrontSight_000_5_LOOP:
        BYTE           N10     En3   v100
        BYTE           N10     Fs3
        BYTE           N10     Bn3
        BYTE   W24
// 002   ----------------------------------------
        BYTE   W24
// 003   ----------------------------------------
        BYTE   W24
// 004   ----------------------------------------
        BYTE   W24
// 005   ----------------------------------------
ShakingFrontSight_000_5_5:
        BYTE           N10     Fn3   v100
        BYTE           N10     Gn3
        BYTE           N10     Cn4
        BYTE   W24
        BYTE   PEND
// 006   ----------------------------------------
        BYTE   W24
// 007   ----------------------------------------
        BYTE   W24
// 008   ----------------------------------------
        BYTE   W24
// 009   ----------------------------------------
ShakingFrontSight_000_5_9:
        BYTE           N10     En3   v100
        BYTE           N10     Fs3
        BYTE           N10     Bn3
        BYTE   W24
        BYTE   PEND
// 010   ----------------------------------------
        BYTE   W24
// 011   ----------------------------------------
        BYTE   W24
// 012   ----------------------------------------
        BYTE   W24
// 013   ----------------------------------------
        BYTE                   Bn2
        BYTE           N10     Dn3
        BYTE           N10     Gn3
        BYTE   W24
// 014   ----------------------------------------
        BYTE   W24
// 015   ----------------------------------------
        BYTE   W24
// 016   ----------------------------------------
        BYTE           N07     Bn2
        BYTE           N07     Fs3
        BYTE   W08
        BYTE                   Dn3
        BYTE           N07     Gn3
        BYTE   W08
        BYTE                   Fs3
        BYTE           N07     An3
        BYTE   W08
// 017   ----------------------------------------
        BYTE   PATT
         POIN2  ShakingFrontSight_000_5_9
// 018   ----------------------------------------
        BYTE   W24
// 019   ----------------------------------------
        BYTE   W24
// 020   ----------------------------------------
        BYTE   W24
// 021   ----------------------------------------
        BYTE   PATT
         POIN2  ShakingFrontSight_000_5_5
// 022   ----------------------------------------
        BYTE   W24
// 023   ----------------------------------------
        BYTE   W24
// 024   ----------------------------------------
        BYTE   W24
// 025   ----------------------------------------
        BYTE   PATT
         POIN2  ShakingFrontSight_000_5_9
// 026   ----------------------------------------
        BYTE   W24
// 027   ----------------------------------------
        BYTE   W24
// 028   ----------------------------------------
        BYTE   W24
// 029   ----------------------------------------
        BYTE           N10     Bn2   v100
        BYTE           N10     Ds3
        BYTE           N10     Gn3
        BYTE   W24
// 030   ----------------------------------------
        BYTE   W24
// 031   ----------------------------------------
        BYTE   W24
// 032   ----------------------------------------
        BYTE   W24
// 033   ----------------------------------------
ShakingFrontSight_000_5_33:
        BYTE           N10     As3   v100
        BYTE           N10     Cs4
        BYTE           N10     Fs4
        BYTE   W24
        BYTE   PEND
// 034   ----------------------------------------
        BYTE   PATT
         POIN2  ShakingFrontSight_000_5_33
// 035   ----------------------------------------
        BYTE   W12
        BYTE           N10     As3   v100
        BYTE           N10     Cs4
        BYTE           N10     Fs4
        BYTE   W12
// 036   ----------------------------------------
        BYTE   W23
        BYTE           N92     Fs1   v090   gtp2
        BYTE   W01
// 037   ----------------------------------------
        BYTE   W12
        BYTE           N07     As3   v100
        BYTE           N07     Cs4
        BYTE           N07     Fs4
        BYTE   W12
// 038   ----------------------------------------
        BYTE   PATT
         POIN2  ShakingFrontSight_000_5_33
// 039   ----------------------------------------
        BYTE   W24
// 040   ----------------------------------------
        BYTE   W24
// 041   ----------------------------------------
        BYTE   W24
// 042   ----------------------------------------
        BYTE   W24
// 043   ----------------------------------------
        BYTE   W24
// 044   ----------------------------------------
        BYTE   W24
// 045   ----------------------------------------
        BYTE   W24
// 046   ----------------------------------------
        BYTE   W24
// 047   ----------------------------------------
        BYTE   W24
// 048   ----------------------------------------
        BYTE   W24
// 049   ----------------------------------------
        BYTE   W24
// 050   ----------------------------------------
        BYTE   W24
// 051   ----------------------------------------
        BYTE   W24
// 052   ----------------------------------------
        BYTE   W24
// 053   ----------------------------------------
        BYTE   W24
// 054   ----------------------------------------
        BYTE   W24
// 055   ----------------------------------------
        BYTE   W24
// 056   ----------------------------------------
        BYTE   W24
// 057   ----------------------------------------
        BYTE   W24
// 058   ----------------------------------------
        BYTE   W24
// 059   ----------------------------------------
        BYTE   W24
// 060   ----------------------------------------
        BYTE   W24
// 061   ----------------------------------------
        BYTE   W24
// 062   ----------------------------------------
        BYTE   W24
// 063   ----------------------------------------
        BYTE   W24
// 064   ----------------------------------------
        BYTE   W24
// 065   ----------------------------------------
        BYTE   W24
// 066   ----------------------------------------
        BYTE   W24
// 067   ----------------------------------------
        BYTE   W24
// 068   ----------------------------------------
        BYTE   W24
// 069   ----------------------------------------
        BYTE   W24
// 070   ----------------------------------------
        BYTE   W24
// 071   ----------------------------------------
        BYTE   W24
// 072   ----------------------------------------
        BYTE   W24
// 073   ----------------------------------------
        BYTE           N54     Ds3   v110
        BYTE           N54     Ds4
        BYTE   W24
// 074   ----------------------------------------
        BYTE   W24
// 075   ----------------------------------------
        BYTE   W12
        BYTE           N12     As2
        BYTE           N12     As3
        BYTE   W12
// 076   ----------------------------------------
        BYTE                   Dn3
        BYTE           N12     Dn4
        BYTE   W12
        BYTE                   Fn3
        BYTE           N12     Fn4
        BYTE   W12
// 077   ----------------------------------------
        BYTE           N06     Ds3
        BYTE           N06     Ds4
        BYTE   W06
        BYTE                   Dn3
        BYTE           N06     Dn4
        BYTE   W06
        BYTE           N30     Ds3
        BYTE           N30     Ds4
        BYTE   W12
// 078   ----------------------------------------
        BYTE   W24
// 079   ----------------------------------------
        BYTE           N12     Cn3
        BYTE           N12     Cn4
        BYTE   W12
        BYTE                   Dn3
        BYTE           N12     Dn4
        BYTE   W12
// 080   ----------------------------------------
        BYTE                   Ds3
        BYTE           N12     Ds4
        BYTE   W12
        BYTE                   Fn3
        BYTE           N12     Fn4
        BYTE   W12
// 081   ----------------------------------------
        BYTE                   Gn3
        BYTE           N12     Gn4
        BYTE   W12
        BYTE                   Gs3
        BYTE           N12     Gs4
        BYTE   W12
// 082   ----------------------------------------
        BYTE                   Gn3
        BYTE           N12     Gn4
        BYTE   W12
        BYTE           N42     Cn3
        BYTE           N42     Cn4
        BYTE   W12
// 083   ----------------------------------------
        BYTE   W24
// 084   ----------------------------------------
        BYTE   W12
        BYTE           N12     Dn3
        BYTE           N12     Dn4
        BYTE   W12
// 085   ----------------------------------------
        BYTE           N18     Fn3
        BYTE           N18     Fn4
        BYTE   W24
// 086   ----------------------------------------
        BYTE                   Ds3
        BYTE           N18     Ds4
        BYTE   W24
// 087   ----------------------------------------
        BYTE                   Dn3
        BYTE           N18     Dn4
        BYTE   W24
// 088   ----------------------------------------
        BYTE                   As2
        BYTE           N18     As3
        BYTE   W24
// 089   ----------------------------------------
        BYTE           N54     Gn2   v100
        BYTE           N54     Gn3
        BYTE   W24
// 090   ----------------------------------------
        BYTE   W24
// 091   ----------------------------------------
        BYTE   W24
// 092   ----------------------------------------
        BYTE   W24
// 093   ----------------------------------------
        BYTE   W24
// 094   ----------------------------------------
        BYTE   W12
        BYTE           N04     Cn3
        BYTE           N04     Cn4
        BYTE   W06
        BYTE                   Ds3
        BYTE           N04     Ds4
        BYTE   W06
// 095   ----------------------------------------
        BYTE           N44     Fn3   v100   gtp2
        BYTE                   Fn4
        BYTE   W24
// 096   ----------------------------------------
        BYTE   W24
// 097   ----------------------------------------
        BYTE   W24
// 098   ----------------------------------------
        BYTE   W24
// 099   ----------------------------------------
        BYTE   W24
// 100   ----------------------------------------
        BYTE   W24
// 101   ----------------------------------------
        BYTE   W24
// 102   ----------------------------------------
        BYTE   W24
// 103   ----------------------------------------
        BYTE   W24
// 104   ----------------------------------------
        BYTE   W24
// 105   ----------------------------------------
        BYTE   W24
// 106   ----------------------------------------
        BYTE   W24
// 107   ----------------------------------------
        BYTE   W24
// 108   ----------------------------------------
        BYTE   W24
// 109   ----------------------------------------
        BYTE   W24
// 110   ----------------------------------------
        BYTE   W24
// 111   ----------------------------------------
        BYTE   W24
// 112   ----------------------------------------
        BYTE   W24
// 113   ----------------------------------------
        BYTE   W24
// 114   ----------------------------------------
        BYTE   W24
// 115   ----------------------------------------
        BYTE   W24
// 116   ----------------------------------------
        BYTE   W24
// 117   ----------------------------------------
        BYTE   W24
// 118   ----------------------------------------
        BYTE   W24
// 119   ----------------------------------------
        BYTE   W24
// 120   ----------------------------------------
        BYTE   W24
// 121   ----------------------------------------
        BYTE   W24
// 122   ----------------------------------------
        BYTE   W24
// 123   ----------------------------------------
        BYTE   W24
// 124   ----------------------------------------
        BYTE   W24
// 125   ----------------------------------------
        BYTE   W24
// 126   ----------------------------------------
        BYTE   W24
// 127   ----------------------------------------
        BYTE   W24
// 128   ----------------------------------------
        BYTE   W24
// 129   ----------------------------------------
        BYTE   W12
        BYTE           N10     Fn2   v110
        BYTE           N10     Fn3   v120
        BYTE   W12
// 130   ----------------------------------------
        BYTE                   Gn2   v110
        BYTE           N10     Gn3   v120
        BYTE   W12
        BYTE                   Gs2   v110
        BYTE           N10     Gs3   v120
        BYTE   W12
// 131   ----------------------------------------
        BYTE           N30     Gs2   v110   gtp1
        BYTE                   Gs3   v120
        BYTE   W24
// 132   ----------------------------------------
        BYTE   W12
        BYTE           N05     Fn2   v110
        BYTE           N05     Fn3   v120
        BYTE   W06
        BYTE                   Gn2   v110
        BYTE           N05     Gn3   v120
        BYTE   W06
// 133   ----------------------------------------
        BYTE                   Gs2   v110
        BYTE           N05     Gs3   v120
        BYTE   W06
        BYTE                   As2   v110
        BYTE           N05     As3   v120
        BYTE   W06
        BYTE           N17     Bn2   v110
        BYTE           N17     Bn3   v120
        BYTE   W12
// 134   ----------------------------------------
        BYTE   W12
        BYTE           N05     Bn2   v110
        BYTE           N05     Bn3   v120
        BYTE   W06
        BYTE                   Cs3   v110
        BYTE           N05     Cs4   v120
        BYTE   W06
// 135   ----------------------------------------
        BYTE           N24     Dn3   v100   gtp3
        BYTE                   Dn4   v110
        BYTE   W24
// 136   ----------------------------------------
        BYTE   W24
// 137   ----------------------------------------
        BYTE   W24
// 138   ----------------------------------------
        BYTE   W24
// 139   ----------------------------------------
        BYTE   W24
// 140   ----------------------------------------
        BYTE   W24
// 141   ----------------------------------------
        BYTE   W24
// 142   ----------------------------------------
        BYTE   W24
// 143   ----------------------------------------
        BYTE   W24
// 144   ----------------------------------------
        BYTE   W24
// 145   ----------------------------------------
        BYTE   W24
// 146   ----------------------------------------
        BYTE   W24
// 147   ----------------------------------------
        BYTE   W24
// 148   ----------------------------------------
        BYTE   W24
// 149   ----------------------------------------
        BYTE   W24
// 150   ----------------------------------------
        BYTE   W24
// 151   ----------------------------------------
        BYTE   W24
// 152   ----------------------------------------
        BYTE   W24
// 153   ----------------------------------------
        BYTE   W24
// 154   ----------------------------------------
        BYTE           N18     Gn2   v100
        BYTE           N18     Gn3
        BYTE   W24
// 155   ----------------------------------------
        BYTE                   An2
        BYTE           N18     An3
        BYTE   W24
// 156   ----------------------------------------
        BYTE                   Bn2
        BYTE           N18     Bn3
        BYTE   W24
// 157   ----------------------------------------
        BYTE           N12     Dn3
        BYTE           N12     Dn4
        BYTE   W18
        BYTE           N06     Bn2
        BYTE           N06     Bn3
        BYTE   W06
// 158   ----------------------------------------
        BYTE           N66     Fn3
        BYTE           N66     Fn4
        BYTE   W24
// 159   ----------------------------------------
        BYTE   W24
// 160   ----------------------------------------
        BYTE   W24
// 161   ----------------------------------------
        BYTE   W24
// 162   ----------------------------------------
        BYTE           N18     As2
        BYTE           N18     As3
        BYTE   W24
// 163   ----------------------------------------
        BYTE                   Cn3
        BYTE           N18     Cn4
        BYTE   W24
// 164   ----------------------------------------
        BYTE                   Dn3
        BYTE           N18     Dn4
        BYTE   W24
// 165   ----------------------------------------
        BYTE           N12     Fn3
        BYTE           N12     Fn4
        BYTE   W18
        BYTE           N06     Bn2
        BYTE           N06     Bn3
        BYTE   W06
// 166   ----------------------------------------
        BYTE           N66     Dn3
        BYTE           N66     Dn4
        BYTE   W24
// 167   ----------------------------------------
        BYTE   W24
// 168   ----------------------------------------
        BYTE   W24
// 169   ----------------------------------------
        BYTE   W24
// 170   ----------------------------------------
        BYTE   W24
// 171   ----------------------------------------
        BYTE   W24
// 172   ----------------------------------------
        BYTE   W24
// 173   ----------------------------------------
        BYTE   W24
// 174   ----------------------------------------
        BYTE   W24
// 175   ----------------------------------------
        BYTE   W24
// 176   ----------------------------------------
        BYTE   W24
// 177   ----------------------------------------
        BYTE   W24
// 178   ----------------------------------------
        BYTE   W24
// 179   ----------------------------------------
        BYTE   W24
// 180   ----------------------------------------
        BYTE   W24
// 181   ----------------------------------------
        BYTE   W24
// 182   ----------------------------------------
        BYTE   W24
// 183   ----------------------------------------
        BYTE   W24
// 184   ----------------------------------------
        BYTE   W24
// 185   ----------------------------------------
        BYTE   W24
// 186   ----------------------------------------
        BYTE   W24
// 187   ----------------------------------------
        BYTE   W24
// 188   ----------------------------------------
        BYTE   W24
// 189   ----------------------------------------
        BYTE   W24
// 190   ----------------------------------------
        BYTE   W24
// 191   ----------------------------------------
        BYTE   W24
// 192   ----------------------------------------
        BYTE   W24
// 193   ----------------------------------------
        BYTE   W24
// 194   ----------------------------------------
        BYTE   W24
// 195   ----------------------------------------
        BYTE   W24
// 196   ----------------------------------------
        BYTE   W24
// 197   ----------------------------------------
        BYTE   W24
// 198   ----------------------------------------
        BYTE   W24
// 199   ----------------------------------------
        BYTE   W24
// 200   ----------------------------------------
        BYTE   W24
// 201   ----------------------------------------
        BYTE   W24
// 202   ----------------------------------------
        BYTE   W24
// 203   ----------------------------------------
        BYTE   W24
// 204   ----------------------------------------
        BYTE   W24
// 205   ----------------------------------------
        BYTE   W24
// 206   ----------------------------------------
        BYTE   W24
// 207   ----------------------------------------
        BYTE   W24
// 208   ----------------------------------------
        BYTE   W24
// 209   ----------------------------------------
        BYTE   W24
// 210   ----------------------------------------
        BYTE   W24
// 211   ----------------------------------------
        BYTE   W24
// 212   ----------------------------------------
        BYTE   W24
// 213   ----------------------------------------
        BYTE           N88     Bn2   v080
        BYTE           N88     Dn3
        BYTE           N88     Fs3
        BYTE   W24
// 214   ----------------------------------------
        BYTE   W24
// 215   ----------------------------------------
        BYTE   W24
// 216   ----------------------------------------
        BYTE   W24
// 217   ----------------------------------------
        BYTE   GoTo
         POIN2  ShakingFrontSight_000_5_LOOP
        BYTE   FINE

//****************** Track 6 (Midi-Chn.7) ******************//

ShakingFrontSight_000_6:
        BYTE   KEYSH   ShakingFrontSight_000_key+0
// 000   ----------------------------------------
        BYTE           VOICE   47
        BYTE   W01
        BYTE           VOL     44
        BYTE           PAN     c_v-16
        BYTE   W23
// 001   ----------------------------------------
ShakingFrontSight_000_6_LOOP:
        BYTE           N18     Bn0   v100
        BYTE   W12
        BYTE           N12     Bn1
        BYTE   W06
        BYTE           N18     Bn2
        BYTE   W06
// 002   ----------------------------------------
ShakingFrontSight_000_6_2:
        BYTE   W06
        BYTE           N12     Bn3   v100
        BYTE   W06
        BYTE           N18     Bn4
        BYTE   W12
        BYTE   PEND
// 003   ----------------------------------------
ShakingFrontSight_000_6_3:
        BYTE           N18     Bn0   v100
        BYTE   W12
        BYTE           N12     Bn1
        BYTE   W06
        BYTE           N18     Bn2
        BYTE   W06
        BYTE   PEND
// 004   ----------------------------------------
        BYTE   PATT
         POIN2  ShakingFrontSight_000_6_2
// 005   ----------------------------------------
        BYTE   PATT
         POIN2  ShakingFrontSight_000_6_3
// 006   ----------------------------------------
        BYTE   PATT
         POIN2  ShakingFrontSight_000_6_2
// 007   ----------------------------------------
        BYTE   PATT
         POIN2  ShakingFrontSight_000_6_3
// 008   ----------------------------------------
        BYTE   PATT
         POIN2  ShakingFrontSight_000_6_2
// 009   ----------------------------------------
        BYTE   PATT
         POIN2  ShakingFrontSight_000_6_3
// 010   ----------------------------------------
        BYTE   PATT
         POIN2  ShakingFrontSight_000_6_2
// 011   ----------------------------------------
        BYTE   PATT
         POIN2  ShakingFrontSight_000_6_3
// 012   ----------------------------------------
        BYTE   PATT
         POIN2  ShakingFrontSight_000_6_2
// 013   ----------------------------------------
        BYTE   PATT
         POIN2  ShakingFrontSight_000_6_3
// 014   ----------------------------------------
        BYTE   PATT
         POIN2  ShakingFrontSight_000_6_2
// 015   ----------------------------------------
        BYTE   PATT
         POIN2  ShakingFrontSight_000_6_3
// 016   ----------------------------------------
        BYTE   PATT
         POIN2  ShakingFrontSight_000_6_2
// 017   ----------------------------------------
        BYTE   PATT
         POIN2  ShakingFrontSight_000_6_3
// 018   ----------------------------------------
        BYTE   PATT
         POIN2  ShakingFrontSight_000_6_2
// 019   ----------------------------------------
        BYTE   PATT
         POIN2  ShakingFrontSight_000_6_3
// 020   ----------------------------------------
        BYTE   PATT
         POIN2  ShakingFrontSight_000_6_2
// 021   ----------------------------------------
        BYTE   PATT
         POIN2  ShakingFrontSight_000_6_3
// 022   ----------------------------------------
        BYTE   PATT
         POIN2  ShakingFrontSight_000_6_2
// 023   ----------------------------------------
        BYTE   PATT
         POIN2  ShakingFrontSight_000_6_3
// 024   ----------------------------------------
        BYTE   PATT
         POIN2  ShakingFrontSight_000_6_2
// 025   ----------------------------------------
        BYTE   PATT
         POIN2  ShakingFrontSight_000_6_3
// 026   ----------------------------------------
        BYTE   PATT
         POIN2  ShakingFrontSight_000_6_2
// 027   ----------------------------------------
        BYTE   PATT
         POIN2  ShakingFrontSight_000_6_3
// 028   ----------------------------------------
        BYTE   PATT
         POIN2  ShakingFrontSight_000_6_2
// 029   ----------------------------------------
        BYTE   PATT
         POIN2  ShakingFrontSight_000_6_3
// 030   ----------------------------------------
        BYTE   PATT
         POIN2  ShakingFrontSight_000_6_2
// 031   ----------------------------------------
        BYTE   PATT
         POIN2  ShakingFrontSight_000_6_3
// 032   ----------------------------------------
        BYTE   PATT
         POIN2  ShakingFrontSight_000_6_2
// 033   ----------------------------------------
        BYTE           N42     Fs0   v100
        BYTE   W24
// 034   ----------------------------------------
        BYTE   W12
        BYTE           N12     Fs1   v125
        BYTE   W06
        BYTE                   Fs2   v100
        BYTE   W06
// 035   ----------------------------------------
        BYTE           N30     Fs3   v125
        BYTE   W24
// 036   ----------------------------------------
        BYTE           N18     Fs0   v100
        BYTE   W06
        BYTE                   Fs1   v125
        BYTE   W12
        BYTE           N06     Fs2   v080
        BYTE   W03
        BYTE                   Fs3   v090
        BYTE   W03
// 037   ----------------------------------------
        BYTE           N42     Fs4   v125
        BYTE   W24
// 038   ----------------------------------------
        BYTE   W12
        BYTE           N12     Fs0
        BYTE   W06
        BYTE                   Fs1   v100
        BYTE   W06
// 039   ----------------------------------------
        BYTE           N30     Fs2   v125
        BYTE   W24
// 040   ----------------------------------------
        BYTE   W24
// 041   ----------------------------------------
        BYTE                   Bn0
        BYTE   W24
// 042   ----------------------------------------
        BYTE   W24
// 043   ----------------------------------------
        BYTE   W24
// 044   ----------------------------------------
        BYTE   W24
// 045   ----------------------------------------
        BYTE   W24
// 046   ----------------------------------------
        BYTE   W24
// 047   ----------------------------------------
        BYTE   W24
// 048   ----------------------------------------
        BYTE   W24
// 049   ----------------------------------------
        BYTE   W24
// 050   ----------------------------------------
        BYTE   W24
// 051   ----------------------------------------
        BYTE   W24
// 052   ----------------------------------------
        BYTE   W24
// 053   ----------------------------------------
        BYTE   W24
// 054   ----------------------------------------
        BYTE   W24
// 055   ----------------------------------------
        BYTE   W24
// 056   ----------------------------------------
        BYTE   W24
// 057   ----------------------------------------
        BYTE   W24
// 058   ----------------------------------------
        BYTE   W24
// 059   ----------------------------------------
        BYTE   W24
// 060   ----------------------------------------
        BYTE   W24
// 061   ----------------------------------------
        BYTE   W24
// 062   ----------------------------------------
        BYTE   W24
// 063   ----------------------------------------
        BYTE   W24
// 064   ----------------------------------------
        BYTE   W24
// 065   ----------------------------------------
        BYTE   W24
// 066   ----------------------------------------
        BYTE   W24
// 067   ----------------------------------------
        BYTE   W24
// 068   ----------------------------------------
        BYTE   W24
// 069   ----------------------------------------
        BYTE   W24
// 070   ----------------------------------------
        BYTE   W24
// 071   ----------------------------------------
        BYTE   W24
// 072   ----------------------------------------
        BYTE   W24
// 073   ----------------------------------------
        BYTE                   Cn1
        BYTE   W24
// 074   ----------------------------------------
        BYTE   W24
// 075   ----------------------------------------
        BYTE   W24
// 076   ----------------------------------------
        BYTE   W24
// 077   ----------------------------------------
        BYTE   W24
// 078   ----------------------------------------
        BYTE   W24
// 079   ----------------------------------------
        BYTE   W24
// 080   ----------------------------------------
        BYTE   W24
// 081   ----------------------------------------
        BYTE   W24
// 082   ----------------------------------------
        BYTE   W24
// 083   ----------------------------------------
        BYTE   W24
// 084   ----------------------------------------
        BYTE   W24
// 085   ----------------------------------------
        BYTE   W24
// 086   ----------------------------------------
        BYTE   W24
// 087   ----------------------------------------
        BYTE   W24
// 088   ----------------------------------------
        BYTE   W24
// 089   ----------------------------------------
        BYTE   W24
// 090   ----------------------------------------
        BYTE   W24
// 091   ----------------------------------------
        BYTE   W24
// 092   ----------------------------------------
        BYTE   W24
// 093   ----------------------------------------
        BYTE   W24
// 094   ----------------------------------------
        BYTE   W24
// 095   ----------------------------------------
        BYTE   W24
// 096   ----------------------------------------
        BYTE   W24
// 097   ----------------------------------------
        BYTE   W24
// 098   ----------------------------------------
        BYTE   W24
// 099   ----------------------------------------
        BYTE   W24
// 100   ----------------------------------------
        BYTE   W24
// 101   ----------------------------------------
        BYTE   W24
// 102   ----------------------------------------
        BYTE   W24
// 103   ----------------------------------------
        BYTE   W24
// 104   ----------------------------------------
        BYTE   W24
// 105   ----------------------------------------
        BYTE           N44     Gs0   v090
        BYTE   W24
// 106   ----------------------------------------
ShakingFrontSight_000_6_106:
        BYTE   W18
        BYTE           N06     Gs1   v060
        BYTE   W02
        BYTE                   Gs2
        BYTE   W02
        BYTE                   Gs3
        BYTE   W02
        BYTE   PEND
// 107   ----------------------------------------
        BYTE           N44     Gs0   v090
        BYTE   W24
// 108   ----------------------------------------
        BYTE   W24
// 109   ----------------------------------------
        BYTE   W24
// 110   ----------------------------------------
        BYTE   W24
// 111   ----------------------------------------
        BYTE   W24
// 112   ----------------------------------------
        BYTE   W24
// 113   ----------------------------------------
        BYTE                   Cn1
        BYTE   W24
// 114   ----------------------------------------
        BYTE   W18
        BYTE           N06     Cn2   v060
        BYTE   W02
        BYTE                   Cn3
        BYTE   W02
        BYTE                   Cn4
        BYTE   W02
// 115   ----------------------------------------
        BYTE           N44     Cn1   v090
        BYTE   W24
// 116   ----------------------------------------
        BYTE   W24
// 117   ----------------------------------------
        BYTE   W24
// 118   ----------------------------------------
        BYTE   W24
// 119   ----------------------------------------
        BYTE   W24
// 120   ----------------------------------------
        BYTE   W24
// 121   ----------------------------------------
        BYTE                   Gs0
        BYTE   W24
// 122   ----------------------------------------
        BYTE   PATT
         POIN2  ShakingFrontSight_000_6_106
// 123   ----------------------------------------
        BYTE           N44     Gs0   v090
        BYTE   W24
// 124   ----------------------------------------
        BYTE   W24
// 125   ----------------------------------------
        BYTE   W24
// 126   ----------------------------------------
        BYTE   W24
// 127   ----------------------------------------
        BYTE   W24
// 128   ----------------------------------------
        BYTE   W24
// 129   ----------------------------------------
        BYTE   W24
// 130   ----------------------------------------
        BYTE   W24
// 131   ----------------------------------------
        BYTE   W24
// 132   ----------------------------------------
        BYTE   W24
// 133   ----------------------------------------
        BYTE   W24
// 134   ----------------------------------------
        BYTE   W24
// 135   ----------------------------------------
        BYTE   W24
// 136   ----------------------------------------
        BYTE   W24
// 137   ----------------------------------------
        BYTE   W24
// 138   ----------------------------------------
        BYTE   W24
// 139   ----------------------------------------
        BYTE   W24
// 140   ----------------------------------------
        BYTE   W24
// 141   ----------------------------------------
        BYTE   W24
// 142   ----------------------------------------
        BYTE   W24
// 143   ----------------------------------------
        BYTE   W24
// 144   ----------------------------------------
        BYTE   W24
// 145   ----------------------------------------
        BYTE   W24
// 146   ----------------------------------------
        BYTE   W24
// 147   ----------------------------------------
        BYTE   W24
// 148   ----------------------------------------
        BYTE   W24
// 149   ----------------------------------------
        BYTE   W24
// 150   ----------------------------------------
        BYTE   W24
// 151   ----------------------------------------
        BYTE   W24
// 152   ----------------------------------------
        BYTE   W24
// 153   ----------------------------------------
        BYTE   W24
// 154   ----------------------------------------
        BYTE   W24
// 155   ----------------------------------------
        BYTE   W24
// 156   ----------------------------------------
        BYTE   W24
// 157   ----------------------------------------
        BYTE   W24
// 158   ----------------------------------------
        BYTE   W24
// 159   ----------------------------------------
        BYTE   W24
// 160   ----------------------------------------
        BYTE   W24
// 161   ----------------------------------------
        BYTE   W24
// 162   ----------------------------------------
        BYTE   W24
// 163   ----------------------------------------
        BYTE   W24
// 164   ----------------------------------------
        BYTE   W24
// 165   ----------------------------------------
        BYTE           N07     Gn0   v067
        BYTE   W03
        BYTE                   Gn1   v063
        BYTE   W03
        BYTE                   Gn2   v060
        BYTE   W03
        BYTE                   Gn3   v056
        BYTE   W03
        BYTE                   Gn4   v052
        BYTE   W03
        BYTE                   Gn0   v048
        BYTE   W03
        BYTE                   Gn1   v052
        BYTE   W03
        BYTE                   Gn2   v048
        BYTE   W03
// 166   ----------------------------------------
        BYTE                   Gn3   v052
        BYTE   W03
        BYTE                   Gn4   v048
        BYTE   W03
        BYTE                   Gn0   v052
        BYTE   W03
        BYTE                   Gn1   v048
        BYTE   W03
        BYTE                   Gn2   v052
        BYTE   W03
        BYTE                   Gn3   v056
        BYTE   W03
        BYTE                   Gn4   v052
        BYTE   W03
        BYTE                   Gn0   v056
        BYTE   W03
// 167   ----------------------------------------
        BYTE                   Gn1   v060
        BYTE   W03
        BYTE                   Gn2   v063
        BYTE   W03
        BYTE                   Gn3   v060
        BYTE   W03
        BYTE                   Gn4   v063
        BYTE   W03
        BYTE                   Gn0   v067
        BYTE   W03
        BYTE                   Gn1   v071
        BYTE   W03
        BYTE                   Gn2   v067
        BYTE   W03
        BYTE                   Gn3   v071
        BYTE   W03
// 168   ----------------------------------------
        BYTE                   Gn4   v075
        BYTE   W03
        BYTE                   Gn0   v078
        BYTE   W03
        BYTE                   Gn1   v075
        BYTE   W03
        BYTE                   Gn2   v078
        BYTE   W03
        BYTE                   Gn3   v082
        BYTE   W03
        BYTE                   Gn4   v086
        BYTE   W03
        BYTE                   Gn0   v082
        BYTE   W03
        BYTE                   Gn1   v086
        BYTE   W03
// 169   ----------------------------------------
        BYTE           N56     Gs0   v093   gtp2
        BYTE   W24
// 170   ----------------------------------------
        BYTE   W24
// 171   ----------------------------------------
        BYTE   W24
// 172   ----------------------------------------
        BYTE   W24
// 173   ----------------------------------------
        BYTE   W24
// 174   ----------------------------------------
        BYTE   W24
// 175   ----------------------------------------
        BYTE   W24
// 176   ----------------------------------------
        BYTE   W24
// 177   ----------------------------------------
        BYTE   W24
// 178   ----------------------------------------
        BYTE   W24
// 179   ----------------------------------------
        BYTE   W24
// 180   ----------------------------------------
        BYTE   W24
// 181   ----------------------------------------
        BYTE   W24
// 182   ----------------------------------------
        BYTE   W24
// 183   ----------------------------------------
        BYTE   W24
// 184   ----------------------------------------
        BYTE   W24
// 185   ----------------------------------------
        BYTE   W24
// 186   ----------------------------------------
        BYTE   W24
// 187   ----------------------------------------
        BYTE   W24
// 188   ----------------------------------------
        BYTE   W24
// 189   ----------------------------------------
        BYTE   W24
// 190   ----------------------------------------
        BYTE   W24
// 191   ----------------------------------------
        BYTE   W24
// 192   ----------------------------------------
        BYTE   W24
// 193   ----------------------------------------
        BYTE   W24
// 194   ----------------------------------------
        BYTE   W24
// 195   ----------------------------------------
        BYTE   W24
// 196   ----------------------------------------
        BYTE   W24
// 197   ----------------------------------------
        BYTE   W24
// 198   ----------------------------------------
        BYTE   W24
// 199   ----------------------------------------
        BYTE   W24
// 200   ----------------------------------------
        BYTE   W24
// 201   ----------------------------------------
        BYTE           N18     Bn0   v070
        BYTE   W12
        BYTE           N12     Bn1
        BYTE   W06
        BYTE           N18     Bn2
        BYTE   W06
// 202   ----------------------------------------
        BYTE   W06
        BYTE           N12     Bn3
        BYTE   W06
        BYTE           N18     Bn4
        BYTE   W12
// 203   ----------------------------------------
        BYTE                   Bn0   v075
        BYTE   W12
        BYTE           N12     Bn1
        BYTE   W06
        BYTE           N18     Bn2
        BYTE   W06
// 204   ----------------------------------------
        BYTE   W06
        BYTE           N12     Bn3
        BYTE   W06
        BYTE           N18     Bn4
        BYTE   W12
// 205   ----------------------------------------
        BYTE                   Bn0   v085
        BYTE   W12
        BYTE           N12     Bn1
        BYTE   W06
        BYTE           N18     Bn2
        BYTE   W06
// 206   ----------------------------------------
        BYTE   W06
        BYTE           N12     Bn3
        BYTE   W06
        BYTE           N18     Bn4
        BYTE   W12
// 207   ----------------------------------------
        BYTE                   Bn0   v090
        BYTE   W12
        BYTE           N12     Bn1
        BYTE   W06
        BYTE           N18     Bn2
        BYTE   W06
// 208   ----------------------------------------
        BYTE   W06
        BYTE           N12     Bn3
        BYTE   W06
        BYTE           N18     Bn4
        BYTE   W12
// 209   ----------------------------------------
        BYTE                   Bn0   v095
        BYTE   W12
        BYTE           N12     Bn1
        BYTE   W06
        BYTE           N18     Bn2
        BYTE   W06
// 210   ----------------------------------------
        BYTE   W06
        BYTE           N12     Bn3
        BYTE   W06
        BYTE           N18     Bn4
        BYTE   W12
// 211   ----------------------------------------
        BYTE   PATT
         POIN2  ShakingFrontSight_000_6_3
// 212   ----------------------------------------
        BYTE   PATT
         POIN2  ShakingFrontSight_000_6_2
// 213   ----------------------------------------
        BYTE           N18     Bn0   v105
        BYTE   W12
        BYTE           N12     Bn1
        BYTE   W06
        BYTE           N18     Bn2
        BYTE   W06
// 214   ----------------------------------------
        BYTE   W06
        BYTE           N12     Bn3
        BYTE   W06
        BYTE           N18     Bn4
        BYTE   W12
// 215   ----------------------------------------
        BYTE                   Bn0   v115
        BYTE   W12
        BYTE           N12     Bn1
        BYTE   W06
        BYTE           N18     Bn2   v120
        BYTE   W06
// 216   ----------------------------------------
        BYTE   W06
        BYTE           N12     Bn3
        BYTE   W06
        BYTE           N11     Bn4
        BYTE   W12
// 217   ----------------------------------------
        BYTE   GoTo
         POIN2  ShakingFrontSight_000_6_LOOP
        BYTE   FINE

//****************** Track 7 (Midi-Chn.8) ******************//

ShakingFrontSight_000_7:
        BYTE   KEYSH   ShakingFrontSight_000_key+0
// 000   ----------------------------------------
        BYTE           VOICE   34
        BYTE   W01
        BYTE           VOL     36
        BYTE   W23
// 001   ----------------------------------------
ShakingFrontSight_000_7_LOOP:
        BYTE           N10     Bn1   v110
        BYTE   W24
// 002   ----------------------------------------
        BYTE   W24
// 003   ----------------------------------------
        BYTE   W24
// 004   ----------------------------------------
        BYTE   W24
// 005   ----------------------------------------
        BYTE                   Bn1
        BYTE   W24
// 006   ----------------------------------------
        BYTE   W24
// 007   ----------------------------------------
        BYTE   W24
// 008   ----------------------------------------
        BYTE   W24
// 009   ----------------------------------------
        BYTE                   Bn1
        BYTE   W24
// 010   ----------------------------------------
        BYTE   W24
// 011   ----------------------------------------
        BYTE   W24
// 012   ----------------------------------------
        BYTE   W24
// 013   ----------------------------------------
        BYTE                   Bn1
        BYTE   W24
// 014   ----------------------------------------
        BYTE   W24
// 015   ----------------------------------------
        BYTE   W24
// 016   ----------------------------------------
        BYTE   W24
// 017   ----------------------------------------
        BYTE           N16
        BYTE   W24
// 018   ----------------------------------------
        BYTE                   Bn1
        BYTE   W24
// 019   ----------------------------------------
        BYTE                   Bn1
        BYTE   W24
// 020   ----------------------------------------
        BYTE                   Bn1
        BYTE   W24
// 021   ----------------------------------------
        BYTE                   Bn1
        BYTE   W24
// 022   ----------------------------------------
        BYTE                   Bn1
        BYTE   W24
// 023   ----------------------------------------
        BYTE                   Bn1
        BYTE   W24
// 024   ----------------------------------------
        BYTE                   Bn1
        BYTE   W24
// 025   ----------------------------------------
        BYTE                   Bn1
        BYTE   W24
// 026   ----------------------------------------
        BYTE                   Bn1
        BYTE   W24
// 027   ----------------------------------------
        BYTE                   Bn1
        BYTE   W24
// 028   ----------------------------------------
        BYTE                   Bn1
        BYTE   W24
// 029   ----------------------------------------
        BYTE                   Bn1
        BYTE   W24
// 030   ----------------------------------------
        BYTE                   Bn1
        BYTE   W24
// 031   ----------------------------------------
        BYTE                   Bn1
        BYTE   W24
// 032   ----------------------------------------
        BYTE                   Bn1
        BYTE   W24
// 033   ----------------------------------------
        BYTE                   Fs1
        BYTE   W24
// 034   ----------------------------------------
        BYTE                   Fs1
        BYTE   W24
// 035   ----------------------------------------
        BYTE   W12
        BYTE                   Fs1
        BYTE   W12
// 036   ----------------------------------------
        BYTE   W24
// 037   ----------------------------------------
        BYTE   W12
        BYTE           N10
        BYTE   W12
// 038   ----------------------------------------
        BYTE           N16
        BYTE   W24
// 039   ----------------------------------------
        BYTE   W24
// 040   ----------------------------------------
        BYTE   W24
// 041   ----------------------------------------
        BYTE                   Bn1
        BYTE   W24
// 042   ----------------------------------------
        BYTE                   Bn1
        BYTE   W24
// 043   ----------------------------------------
        BYTE                   Bn1
        BYTE   W24
// 044   ----------------------------------------
        BYTE                   Bn1
        BYTE   W24
// 045   ----------------------------------------
        BYTE                   Bn1
        BYTE   W24
// 046   ----------------------------------------
        BYTE                   Bn1
        BYTE   W24
// 047   ----------------------------------------
        BYTE                   Bn1
        BYTE   W24
// 048   ----------------------------------------
        BYTE                   Bn1
        BYTE   W24
// 049   ----------------------------------------
        BYTE                   Bn1
        BYTE   W24
// 050   ----------------------------------------
        BYTE                   Bn1
        BYTE   W24
// 051   ----------------------------------------
        BYTE                   Bn1
        BYTE   W24
// 052   ----------------------------------------
        BYTE                   Bn1
        BYTE   W24
// 053   ----------------------------------------
        BYTE                   Bn1
        BYTE   W24
// 054   ----------------------------------------
        BYTE                   Bn1
        BYTE   W24
// 055   ----------------------------------------
        BYTE                   Bn1
        BYTE   W24
// 056   ----------------------------------------
        BYTE                   Bn1
        BYTE   W24
// 057   ----------------------------------------
        BYTE                   Bn1
        BYTE   W24
// 058   ----------------------------------------
        BYTE                   Bn1
        BYTE   W24
// 059   ----------------------------------------
        BYTE                   Bn1
        BYTE   W24
// 060   ----------------------------------------
        BYTE                   Bn1
        BYTE   W24
// 061   ----------------------------------------
        BYTE                   Bn1
        BYTE   W24
// 062   ----------------------------------------
        BYTE                   Bn1
        BYTE   W24
// 063   ----------------------------------------
        BYTE                   Bn1
        BYTE   W24
// 064   ----------------------------------------
        BYTE                   Bn1
        BYTE   W24
// 065   ----------------------------------------
        BYTE                   Bn1
        BYTE   W24
// 066   ----------------------------------------
        BYTE                   Bn1
        BYTE   W24
// 067   ----------------------------------------
        BYTE                   Bn1
        BYTE   W24
// 068   ----------------------------------------
        BYTE                   Bn1
        BYTE   W24
// 069   ----------------------------------------
        BYTE                   Bn1
        BYTE   W24
// 070   ----------------------------------------
        BYTE                   Bn1
        BYTE   W24
// 071   ----------------------------------------
        BYTE                   Bn1
        BYTE   W24
// 072   ----------------------------------------
        BYTE                   Bn1
        BYTE   W24
// 073   ----------------------------------------
        BYTE                   Cn2
        BYTE   W24
// 074   ----------------------------------------
        BYTE                   Cn2
        BYTE   W24
// 075   ----------------------------------------
        BYTE                   Cn2
        BYTE   W24
// 076   ----------------------------------------
        BYTE                   Cn2
        BYTE   W24
// 077   ----------------------------------------
        BYTE                   Cn2
        BYTE   W24
// 078   ----------------------------------------
        BYTE                   Cn2
        BYTE   W24
// 079   ----------------------------------------
        BYTE                   Cn2
        BYTE   W24
// 080   ----------------------------------------
        BYTE                   Cn2
        BYTE   W24
// 081   ----------------------------------------
        BYTE                   Cn2
        BYTE   W24
// 082   ----------------------------------------
        BYTE                   Cn2
        BYTE   W24
// 083   ----------------------------------------
        BYTE                   Cn2
        BYTE   W24
// 084   ----------------------------------------
        BYTE                   Cn2
        BYTE   W24
// 085   ----------------------------------------
        BYTE                   Cn2
        BYTE   W24
// 086   ----------------------------------------
        BYTE                   Cn2
        BYTE   W24
// 087   ----------------------------------------
        BYTE                   Cn2
        BYTE   W24
// 088   ----------------------------------------
        BYTE                   Cn2
        BYTE   W24
// 089   ----------------------------------------
        BYTE                   Cn2
        BYTE   W24
// 090   ----------------------------------------
        BYTE                   Cn2
        BYTE   W24
// 091   ----------------------------------------
        BYTE                   Cn2
        BYTE   W24
// 092   ----------------------------------------
        BYTE                   Cn2
        BYTE   W24
// 093   ----------------------------------------
        BYTE                   Cn2
        BYTE   W24
// 094   ----------------------------------------
        BYTE                   Cn2
        BYTE   W24
// 095   ----------------------------------------
        BYTE                   Cn2
        BYTE   W24
// 096   ----------------------------------------
        BYTE                   Cn2
        BYTE   W24
// 097   ----------------------------------------
        BYTE                   Cn2
        BYTE   W24
// 098   ----------------------------------------
        BYTE                   Cn2
        BYTE   W24
// 099   ----------------------------------------
        BYTE                   Cn2
        BYTE   W24
// 100   ----------------------------------------
        BYTE                   Cn2
        BYTE   W24
// 101   ----------------------------------------
        BYTE                   Cn2
        BYTE   W24
// 102   ----------------------------------------
        BYTE                   Cn2
        BYTE   W24
// 103   ----------------------------------------
        BYTE                   Cn2
        BYTE   W24
// 104   ----------------------------------------
        BYTE                   Cn2
        BYTE   W24
// 105   ----------------------------------------
ShakingFrontSight_000_7_105:
        BYTE           N10     Gs1   v110
        BYTE   W12
        BYTE                   Gs1
        BYTE   W12
        BYTE   PEND
// 106   ----------------------------------------
        BYTE   PATT
         POIN2  ShakingFrontSight_000_7_105
// 107   ----------------------------------------
        BYTE   PATT
         POIN2  ShakingFrontSight_000_7_105
// 108   ----------------------------------------
        BYTE   PATT
         POIN2  ShakingFrontSight_000_7_105
// 109   ----------------------------------------
ShakingFrontSight_000_7_109:
        BYTE           N10     As1   v110
        BYTE   W12
        BYTE                   As1
        BYTE   W12
        BYTE   PEND
// 110   ----------------------------------------
        BYTE   PATT
         POIN2  ShakingFrontSight_000_7_109
// 111   ----------------------------------------
        BYTE   PATT
         POIN2  ShakingFrontSight_000_7_109
// 112   ----------------------------------------
        BYTE   PATT
         POIN2  ShakingFrontSight_000_7_109
// 113   ----------------------------------------
ShakingFrontSight_000_7_113:
        BYTE           N10     Cn2   v110
        BYTE   W12
        BYTE                   Cn2
        BYTE   W12
        BYTE   PEND
// 114   ----------------------------------------
        BYTE   PATT
         POIN2  ShakingFrontSight_000_7_113
// 115   ----------------------------------------
        BYTE   PATT
         POIN2  ShakingFrontSight_000_7_113
// 116   ----------------------------------------
        BYTE   PATT
         POIN2  ShakingFrontSight_000_7_113
// 117   ----------------------------------------
ShakingFrontSight_000_7_117:
        BYTE           N10     Fn1   v110
        BYTE   W12
        BYTE                   Fn1
        BYTE   W12
        BYTE   PEND
// 118   ----------------------------------------
        BYTE   PATT
         POIN2  ShakingFrontSight_000_7_117
// 119   ----------------------------------------
        BYTE   PATT
         POIN2  ShakingFrontSight_000_7_117
// 120   ----------------------------------------
        BYTE           N10     Gn1   v110
        BYTE   W12
        BYTE                   Gn1
        BYTE   W12
// 121   ----------------------------------------
        BYTE   PATT
         POIN2  ShakingFrontSight_000_7_105
// 122   ----------------------------------------
        BYTE   PATT
         POIN2  ShakingFrontSight_000_7_105
// 123   ----------------------------------------
        BYTE   PATT
         POIN2  ShakingFrontSight_000_7_105
// 124   ----------------------------------------
        BYTE   PATT
         POIN2  ShakingFrontSight_000_7_105
// 125   ----------------------------------------
ShakingFrontSight_000_7_125:
        BYTE           N10     Ds2   v110
        BYTE   W12
        BYTE                   Ds2
        BYTE   W12
        BYTE   PEND
// 126   ----------------------------------------
        BYTE   PATT
         POIN2  ShakingFrontSight_000_7_125
// 127   ----------------------------------------
        BYTE   PATT
         POIN2  ShakingFrontSight_000_7_125
// 128   ----------------------------------------
        BYTE   PATT
         POIN2  ShakingFrontSight_000_7_125
// 129   ----------------------------------------
        BYTE   PATT
         POIN2  ShakingFrontSight_000_7_117
// 130   ----------------------------------------
        BYTE   PATT
         POIN2  ShakingFrontSight_000_7_117
// 131   ----------------------------------------
        BYTE   PATT
         POIN2  ShakingFrontSight_000_7_117
// 132   ----------------------------------------
        BYTE   PATT
         POIN2  ShakingFrontSight_000_7_117
// 133   ----------------------------------------
        BYTE           N92     En1   v110   gtp2
        BYTE   W24
// 134   ----------------------------------------
        BYTE   W24
// 135   ----------------------------------------
        BYTE   W24
// 136   ----------------------------------------
        BYTE   W24
// 137   ----------------------------------------
        BYTE                   An1   v100
        BYTE   W24
// 138   ----------------------------------------
        BYTE   W24
// 139   ----------------------------------------
        BYTE   W24
// 140   ----------------------------------------
        BYTE   W24
// 141   ----------------------------------------
        BYTE                   Bn1
        BYTE   W24
// 142   ----------------------------------------
        BYTE   W24
// 143   ----------------------------------------
        BYTE   W24
// 144   ----------------------------------------
        BYTE   W24
// 145   ----------------------------------------
        BYTE                   Cn2
        BYTE   W24
// 146   ----------------------------------------
        BYTE   W24
// 147   ----------------------------------------
        BYTE   W24
// 148   ----------------------------------------
        BYTE   W24
// 149   ----------------------------------------
        BYTE           N44     Dn2   v100   gtp2
        BYTE   W24
// 150   ----------------------------------------
        BYTE   W24
// 151   ----------------------------------------
        BYTE           N16     Gn1
        BYTE   W24
// 152   ----------------------------------------
        BYTE                   Gn2
        BYTE   W24
// 153   ----------------------------------------
        BYTE                   En2   v110
        BYTE   W24
// 154   ----------------------------------------
        BYTE           N68     En1   v110   gtp2
        BYTE   W24
// 155   ----------------------------------------
        BYTE   W24
// 156   ----------------------------------------
        BYTE   W24
// 157   ----------------------------------------
        BYTE           N64     Fn1
        BYTE   W24
// 158   ----------------------------------------
        BYTE   W24
// 159   ----------------------------------------
        BYTE   W24
// 160   ----------------------------------------
        BYTE           N16
        BYTE   W24
// 161   ----------------------------------------
        BYTE                   Gn1
        BYTE   W24
// 162   ----------------------------------------
        BYTE                   Gn1
        BYTE   W24
// 163   ----------------------------------------
        BYTE                   Gn1
        BYTE   W24
// 164   ----------------------------------------
        BYTE                   Gn1
        BYTE   W24
// 165   ----------------------------------------
        BYTE                   Gn1
        BYTE   W24
// 166   ----------------------------------------
        BYTE                   Gn1
        BYTE   W24
// 167   ----------------------------------------
        BYTE                   Gn1
        BYTE   W24
// 168   ----------------------------------------
        BYTE                   Gn1
        BYTE   W24
// 169   ----------------------------------------
        BYTE           N80     Gs1   v110   gtp2
        BYTE   W24
// 170   ----------------------------------------
        BYTE   W24
// 171   ----------------------------------------
        BYTE   W24
// 172   ----------------------------------------
        BYTE   W12
        BYTE           N06     Gn2   v120
        BYTE   W06
        BYTE           N04     Gs2   v080
        BYTE   W06
// 173   ----------------------------------------
        BYTE           N80     Fn1   v110   gtp2
        BYTE   W24
// 174   ----------------------------------------
        BYTE   W24
// 175   ----------------------------------------
        BYTE   W24
// 176   ----------------------------------------
        BYTE   W12
        BYTE           N06     Ds2   v120
        BYTE   W06
        BYTE           N04     Fn2   v080
        BYTE   W06
// 177   ----------------------------------------
        BYTE           N80     Cs2   v110   gtp2
        BYTE   W24
// 178   ----------------------------------------
        BYTE   W24
// 179   ----------------------------------------
        BYTE   W24
// 180   ----------------------------------------
        BYTE   W12
        BYTE           N06     Cn2   v120
        BYTE   W06
        BYTE           N04     Gs1   v080
        BYTE   W06
// 181   ----------------------------------------
        BYTE           N80     As1   v110   gtp2
        BYTE   W24
// 182   ----------------------------------------
        BYTE   W24
// 183   ----------------------------------------
        BYTE   W24
// 184   ----------------------------------------
        BYTE   W24
// 185   ----------------------------------------
        BYTE           TIE     Gn1
        BYTE   W24
// 186   ----------------------------------------
        BYTE   W24
// 187   ----------------------------------------
        BYTE   W24
// 188   ----------------------------------------
        BYTE   W24
// 189   ----------------------------------------
        BYTE   W04
        BYTE           EOT
        BYTE   W20
// 190   ----------------------------------------
        BYTE   W24
// 191   ----------------------------------------
        BYTE   W24
// 192   ----------------------------------------
        BYTE   W24
// 193   ----------------------------------------
        BYTE   W24
// 194   ----------------------------------------
        BYTE   W24
// 195   ----------------------------------------
        BYTE   W24
// 196   ----------------------------------------
        BYTE   W24
// 197   ----------------------------------------
        BYTE   W24
// 198   ----------------------------------------
        BYTE   W24
// 199   ----------------------------------------
        BYTE   W24
// 200   ----------------------------------------
        BYTE   W24
// 201   ----------------------------------------
        BYTE   W24
// 202   ----------------------------------------
        BYTE   W24
// 203   ----------------------------------------
        BYTE   W24
// 204   ----------------------------------------
        BYTE   W24
// 205   ----------------------------------------
        BYTE   W24
// 206   ----------------------------------------
        BYTE   W24
// 207   ----------------------------------------
        BYTE   W24
// 208   ----------------------------------------
        BYTE   W24
// 209   ----------------------------------------
        BYTE   W24
// 210   ----------------------------------------
        BYTE   W24
// 211   ----------------------------------------
        BYTE   W24
// 212   ----------------------------------------
        BYTE   W24
// 213   ----------------------------------------
        BYTE   W24
// 214   ----------------------------------------
        BYTE   W24
// 215   ----------------------------------------
        BYTE   W24
// 216   ----------------------------------------
        BYTE   W24
// 217   ----------------------------------------
        BYTE   GoTo
         POIN2  ShakingFrontSight_000_7_LOOP
        BYTE   FINE

//***************** Track 8 (Midi-Chn.10) ******************//

ShakingFrontSight_000_8:
        BYTE   KEYSH   ShakingFrontSight_000_key+0
// 000   ----------------------------------------
        BYTE           VOICE   122
        BYTE           VOL     50
        BYTE   W24
// 001   ----------------------------------------
ShakingFrontSight_000_8_LOOP:
        BYTE           N12     Cn1   v085
        BYTE           N05     Fs1   v050
        BYTE           N06     An2   v120
        BYTE   W06
        BYTE           N05     Fs1   v030
        BYTE   W06
        BYTE                   Fs1   v060
        BYTE   W06
        BYTE                   Fs1   v030
        BYTE   W06
// 002   ----------------------------------------
ShakingFrontSight_000_8_2:
        BYTE           N12     Cn1   v085
        BYTE           N05     Fs1   v050
        BYTE   W06
        BYTE                   Fs1   v030
        BYTE   W06
        BYTE                   Fs1   v060
        BYTE   W06
        BYTE                   Fs1   v030
        BYTE   W06
        BYTE   PEND
// 003   ----------------------------------------
        BYTE   PATT
         POIN2  ShakingFrontSight_000_8_2
// 004   ----------------------------------------
ShakingFrontSight_000_8_4:
        BYTE           N12     Cn1   v085
        BYTE           N05     Fs1   v050
        BYTE   W06
        BYTE                   Fs1   v030
        BYTE   W06
        BYTE                   Fs1   v060
        BYTE   W06
        BYTE           N06     As1   v048
        BYTE   W06
        BYTE   PEND
// 005   ----------------------------------------
        BYTE   PATT
         POIN2  ShakingFrontSight_000_8_2
// 006   ----------------------------------------
        BYTE   PATT
         POIN2  ShakingFrontSight_000_8_2
// 007   ----------------------------------------
        BYTE   PATT
         POIN2  ShakingFrontSight_000_8_2
// 008   ----------------------------------------
        BYTE   PATT
         POIN2  ShakingFrontSight_000_8_4
// 009   ----------------------------------------
        BYTE   PATT
         POIN2  ShakingFrontSight_000_8_2
// 010   ----------------------------------------
        BYTE   PATT
         POIN2  ShakingFrontSight_000_8_2
// 011   ----------------------------------------
        BYTE   PATT
         POIN2  ShakingFrontSight_000_8_2
// 012   ----------------------------------------
        BYTE   PATT
         POIN2  ShakingFrontSight_000_8_4
// 013   ----------------------------------------
        BYTE   PATT
         POIN2  ShakingFrontSight_000_8_2
// 014   ----------------------------------------
        BYTE   PATT
         POIN2  ShakingFrontSight_000_8_2
// 015   ----------------------------------------
ShakingFrontSight_000_8_15:
        BYTE           N12     Cn1   v085
        BYTE           N05     Fs1   v050
        BYTE   W06
        BYTE                   Fs1   v030
        BYTE   W06
        BYTE                   Fs1   v060
        BYTE   W06
        BYTE                   Fs1   v030
        BYTE   W05
        BYTE           N04     Dn1   v052
        BYTE   W01
        BYTE   PEND
// 016   ----------------------------------------
        BYTE           N12     Cn1   v085
        BYTE           N13     Cs1   v090
        BYTE           N22     Fn1   v075
        BYTE           N12     As1   v048
        BYTE   W12
        BYTE           N03     Fs1   v050
        BYTE   W04
        BYTE                   Fs1   v030
        BYTE   W04
        BYTE                   Fs1   v048
        BYTE   W04
// 017   ----------------------------------------
        BYTE           N12     Cn1   v085
        BYTE           N05     Fs1   v050
        BYTE           N06     Cs2   v120
        BYTE   W06
        BYTE           N05     Fs1   v030
        BYTE   W06
        BYTE           N13     Cs1   v052
        BYTE   W06
        BYTE           N05     Fs1   v030
        BYTE   W06
// 018   ----------------------------------------
ShakingFrontSight_000_8_18:
        BYTE           N12     Cn1   v085
        BYTE           N05     Fs1   v050
        BYTE   W06
        BYTE           N13     Cs1   v052
        BYTE   W06
        BYTE           N05     Fs1   v060
        BYTE   W06
        BYTE                   Fs1   v030
        BYTE   W06
        BYTE   PEND
// 019   ----------------------------------------
        BYTE           N12     Cn1   v085
        BYTE           N13     Cs1   v090
        BYTE   W06
        BYTE           N05     Fs1   v030
        BYTE   W06
        BYTE                   Fs1   v060
        BYTE   W06
        BYTE           N13     Cs1   v052
        BYTE   W06
// 020   ----------------------------------------
        BYTE           N12     Cn1   v085
        BYTE           N05     Fs1   v050
        BYTE   W06
        BYTE           N13     Dn1   v052
        BYTE   W06
        BYTE           N05     Fs1   v060
        BYTE   W06
        BYTE           N06     As1   v048
        BYTE   W06
// 021   ----------------------------------------
        BYTE           N12     Cn1   v085
        BYTE           N05     Fs1   v050
        BYTE   W06
        BYTE           N07     Cs1   v052
        BYTE   W06
        BYTE           N13     Dn1
        BYTE   W06
        BYTE           N05     Fs1   v030
        BYTE   W06
// 022   ----------------------------------------
        BYTE           N12     Cn1   v085
        BYTE           N13     Cs1   v052
        BYTE   W06
        BYTE           N05     Fs1   v030
        BYTE   W06
        BYTE                   Fs1   v060
        BYTE   W06
        BYTE           N13     Cs1   v052
        BYTE   W06
// 023   ----------------------------------------
        BYTE           N12     Cn1   v085
        BYTE           N05     Fs1   v050
        BYTE   W06
        BYTE                   Fs1   v030
        BYTE   W06
        BYTE           N13     Cs1   v052
        BYTE   W06
        BYTE           N05     Fs1   v030
        BYTE   W06
// 024   ----------------------------------------
        BYTE           N12     Cn1   v085
        BYTE           N05     Fs1   v050
        BYTE   W06
        BYTE           N13     Cs1   v090
        BYTE   W06
        BYTE           N05     Fs1   v060
        BYTE   W06
        BYTE           N06     As1   v048
        BYTE   W06
// 025   ----------------------------------------
        BYTE   PATT
         POIN2  ShakingFrontSight_000_8_2
// 026   ----------------------------------------
        BYTE           N12     Cn1   v085
        BYTE           N13     Cs1   v052
        BYTE   W06
        BYTE           N05     Fs1   v030
        BYTE   W06
        BYTE           N13     Dn1   v052
        BYTE   W06
        BYTE           N05     Fs1   v030
        BYTE   W06
// 027   ----------------------------------------
        BYTE   PATT
         POIN2  ShakingFrontSight_000_8_18
// 028   ----------------------------------------
        BYTE           N12     Cn1   v085
        BYTE           N13     Cs1   v090
        BYTE   W06
        BYTE           N05     Fs1   v030
        BYTE   W06
        BYTE                   Fs1   v060
        BYTE   W06
        BYTE           N13     Cs1   v052
        BYTE           N06     As1   v048
        BYTE   W06
// 029   ----------------------------------------
ShakingFrontSight_000_8_29:
        BYTE           N12     Cn1   v085
        BYTE           N05     Fs1   v050
        BYTE   W06
        BYTE           N07     Dn1   v052
        BYTE   W06
        BYTE           N13     Cs1
        BYTE   W06
        BYTE           N05     Fs1   v030
        BYTE   W06
        BYTE   PEND
// 030   ----------------------------------------
        BYTE           N12     Cn1   v085
        BYTE           N05     Fs1   v050
        BYTE   W06
        BYTE           N13     Cs1   v052
        BYTE   W06
        BYTE           N05     Fs1   v060
        BYTE   W06
        BYTE           N07     Dn1   v052
        BYTE   W06
// 031   ----------------------------------------
        BYTE           N12     Cn1   v085
        BYTE           N07     Ds1   v052
        BYTE   W06
        BYTE           N13     Cs1
        BYTE   W06
        BYTE           N05     Fs1   v060
        BYTE   W06
        BYTE                   Fs1   v030
        BYTE   W05
        BYTE           N04     Dn1   v052
        BYTE   W01
// 032   ----------------------------------------
        BYTE           N12     Cn1   v085
        BYTE           N13     Cs1   v090
        BYTE           N22     Fn1   v075
        BYTE           N24     As1   v052
        BYTE   W24
// 033   ----------------------------------------
        BYTE           N12     Cn1   v085
        BYTE           N05     Fs1   v050
        BYTE           N06     An2   v120
        BYTE   W06
        BYTE           N05     Fs1   v030
        BYTE   W06
        BYTE                   Fs1   v060
        BYTE   W06
        BYTE                   Fs1   v030
        BYTE   W06
// 034   ----------------------------------------
        BYTE           N12     Cn1   v085
        BYTE           N05     Fs1   v050
        BYTE           N06     Cs2   v120
        BYTE   W06
        BYTE           N05     Fs1   v030
        BYTE   W06
        BYTE                   Fs1   v060
        BYTE   W06
        BYTE                   Fs1   v030
        BYTE   W06
// 035   ----------------------------------------
        BYTE                   Fs1   v050
        BYTE   W06
        BYTE                   Fs1   v030
        BYTE   W05
        BYTE           N04     Dn1   v052
        BYTE   W01
        BYTE           N13     Cs1   v090
        BYTE   W06
        BYTE           N05     Fs1   v030
        BYTE   W06
// 036   ----------------------------------------
        BYTE           N12     Cn1   v085
        BYTE           N05     Fs1   v050
        BYTE   W06
        BYTE                   Fs1   v030
        BYTE   W06
        BYTE           N12     As1   v048
        BYTE   W11
        BYTE           N04     Ds1   v052
        BYTE   W01
// 037   ----------------------------------------
        BYTE           N13     Dn1   v090
        BYTE           N05     Fs1   v050
        BYTE   W06
        BYTE                   Fs1   v030
        BYTE   W06
        BYTE           N13     Cs1   v090
        BYTE   W06
        BYTE           N06     Cn1   v085
        BYTE           N05     Fs1   v030
        BYTE   W06
// 038   ----------------------------------------
        BYTE           N13     Dn1   v090
        BYTE           N06     An2   v120
        BYTE   W06
        BYTE           N05     Fs1   v030
        BYTE   W06
        BYTE                   Fs1   v060
        BYTE   W06
        BYTE                   Fs1   v030
        BYTE   W06
// 039   ----------------------------------------
        BYTE           N10     Cn1   v085
        BYTE           N05     Fs1   v050
        BYTE   W06
        BYTE                   Fs1   v030
        BYTE   W06
        BYTE           N06     Cn1   v065
        BYTE           N05     Fs1   v060
        BYTE   W04
        BYTE           N06     Bn0   v070
        BYTE   W02
        BYTE           N05     Fs1   v030
        BYTE   W02
        BYTE           N06     Cn1   v065
        BYTE   W03
        BYTE           N04     Dn1   v052
        BYTE   W01
// 040   ----------------------------------------
        BYTE           N13     Cs1   v090
        BYTE           N05     Fs1   v050
        BYTE   W06
        BYTE                   Fs1   v030
        BYTE   W06
        BYTE                   Fs1   v060
        BYTE   W06
        BYTE           N06     As1   v048
        BYTE   W06
// 041   ----------------------------------------
ShakingFrontSight_000_8_41:
        BYTE           N12     Cn1   v085
        BYTE           N05     Fs1   v050
        BYTE           N06     Cs2   v120
        BYTE   W06
        BYTE           N13     Cs1   v052
        BYTE   W06
        BYTE           N05     Fs1   v060
        BYTE   W06
        BYTE                   Fs1   v030
        BYTE   W06
        BYTE   PEND
// 042   ----------------------------------------
ShakingFrontSight_000_8_42:
        BYTE           N13     Cs1   v090
        BYTE   W06
        BYTE           N05     Fs1   v030
        BYTE   W06
        BYTE                   Fs1   v060
        BYTE   W06
        BYTE           N13     Cs1   v052
        BYTE   W06
        BYTE   PEND
// 043   ----------------------------------------
        BYTE           N10     Cn1   v085
        BYTE           N05     Fs1   v050
        BYTE   W06
        BYTE                   Fs1   v030
        BYTE   W06
        BYTE           N12     Cn1   v075
        BYTE           N13     Cs1   v052
        BYTE   W06
        BYTE           N05     Fs1   v030
        BYTE   W06
// 044   ----------------------------------------
ShakingFrontSight_000_8_44:
        BYTE           N13     Dn1   v090
        BYTE   W06
        BYTE           N05     Fs1   v030
        BYTE   W06
        BYTE                   Fs1   v060
        BYTE   W06
        BYTE           N13     Cs1   v052
        BYTE   W06
        BYTE   PEND
// 045   ----------------------------------------
ShakingFrontSight_000_8_45:
        BYTE           N12     Cn1   v085
        BYTE           N05     Fs1   v050
        BYTE   W06
        BYTE           N07     Dn1   v052
        BYTE   W06
        BYTE           N13     Ds1
        BYTE   W06
        BYTE           N05     Fs1   v030
        BYTE   W06
        BYTE   PEND
// 046   ----------------------------------------
        BYTE   PATT
         POIN2  ShakingFrontSight_000_8_42
// 047   ----------------------------------------
ShakingFrontSight_000_8_47:
        BYTE           N10     Cn1   v085
        BYTE           N05     Fs1   v050
        BYTE   W06
        BYTE                   Fs1   v030
        BYTE   W06
        BYTE           N12     Cn1   v075
        BYTE           N05     Fs1   v060
        BYTE   W06
        BYTE                   Fs1   v030
        BYTE   W06
        BYTE   PEND
// 048   ----------------------------------------
        BYTE           N13     Cs1   v090
        BYTE   W06
        BYTE           N05     Fs1   v030
        BYTE   W06
        BYTE           N06     As1   v070
        BYTE   W06
        BYTE           N05     Fs1   v030
        BYTE   W06
// 049   ----------------------------------------
        BYTE   PATT
         POIN2  ShakingFrontSight_000_8_18
// 050   ----------------------------------------
        BYTE   PATT
         POIN2  ShakingFrontSight_000_8_42
// 051   ----------------------------------------
ShakingFrontSight_000_8_51:
        BYTE           N10     Cn1   v085
        BYTE           N05     Fs1   v050
        BYTE   W06
        BYTE                   Fs1   v030
        BYTE   W06
        BYTE           N12     Cn1   v075
        BYTE           N13     Dn1   v052
        BYTE   W06
        BYTE           N05     Fs1   v030
        BYTE   W06
        BYTE   PEND
// 052   ----------------------------------------
        BYTE   PATT
         POIN2  ShakingFrontSight_000_8_42
// 053   ----------------------------------------
        BYTE   PATT
         POIN2  ShakingFrontSight_000_8_29
// 054   ----------------------------------------
        BYTE   PATT
         POIN2  ShakingFrontSight_000_8_44
// 055   ----------------------------------------
ShakingFrontSight_000_8_55:
        BYTE           N10     Cn1   v085
        BYTE           N05     Fs1   v050
        BYTE   W06
        BYTE                   Fs1   v030
        BYTE   W06
        BYTE           N12     Cn1   v075
        BYTE           N05     Fs1   v060
        BYTE   W06
        BYTE                   Fs1   v030
        BYTE   W05
        BYTE           N04     Dn1   v052
        BYTE   W01
        BYTE   PEND
// 056   ----------------------------------------
        BYTE           N13     Cs1   v090
        BYTE           N22     Fn1   v055
        BYTE   W06
        BYTE           N05     Fs1   v030
        BYTE   W06
        BYTE           N12     As1   v073
        BYTE   W12
// 057   ----------------------------------------
ShakingFrontSight_000_8_57:
        BYTE           N12     Cn1   v085
        BYTE           N05     Fs1   v050
        BYTE   W06
        BYTE           N13     Cs1   v090
        BYTE   W06
        BYTE           N22     Fn1   v075
        BYTE   W06
        BYTE           N05     Fs1   v030
        BYTE   W06
        BYTE   PEND
// 058   ----------------------------------------
        BYTE           N13     Cs1   v090
        BYTE           N06     An2   v120
        BYTE   W06
        BYTE           N05     Fs1   v030
        BYTE   W06
        BYTE                   Fs1   v060
        BYTE   W06
        BYTE           N13     Cs1   v052
        BYTE   W06
// 059   ----------------------------------------
        BYTE   PATT
         POIN2  ShakingFrontSight_000_8_51
// 060   ----------------------------------------
        BYTE   PATT
         POIN2  ShakingFrontSight_000_8_42
// 061   ----------------------------------------
        BYTE   PATT
         POIN2  ShakingFrontSight_000_8_45
// 062   ----------------------------------------
        BYTE   PATT
         POIN2  ShakingFrontSight_000_8_42
// 063   ----------------------------------------
        BYTE   PATT
         POIN2  ShakingFrontSight_000_8_47
// 064   ----------------------------------------
ShakingFrontSight_000_8_64:
        BYTE           N13     Cs1   v090
        BYTE   W06
        BYTE           N05     Fs1   v030
        BYTE   W06
        BYTE           N06     As1   v073
        BYTE   W06
        BYTE           N05     Fs1   v030
        BYTE   W06
        BYTE   PEND
// 065   ----------------------------------------
        BYTE   PATT
         POIN2  ShakingFrontSight_000_8_18
// 066   ----------------------------------------
        BYTE   PATT
         POIN2  ShakingFrontSight_000_8_42
// 067   ----------------------------------------
        BYTE   PATT
         POIN2  ShakingFrontSight_000_8_51
// 068   ----------------------------------------
        BYTE   PATT
         POIN2  ShakingFrontSight_000_8_42
// 069   ----------------------------------------
        BYTE   PATT
         POIN2  ShakingFrontSight_000_8_45
// 070   ----------------------------------------
        BYTE   PATT
         POIN2  ShakingFrontSight_000_8_42
// 071   ----------------------------------------
        BYTE   PATT
         POIN2  ShakingFrontSight_000_8_47
// 072   ----------------------------------------
        BYTE           N13     Cs1   v090
        BYTE   W06
        BYTE           N05     Fs1   v030
        BYTE   W06
        BYTE           N06     As1   v073
        BYTE   W06
        BYTE           N13     Dn1   v075
        BYTE           N05     Gs1   v030
        BYTE   W06
// 073   ----------------------------------------
        BYTE   PATT
         POIN2  ShakingFrontSight_000_8_41
// 074   ----------------------------------------
        BYTE   PATT
         POIN2  ShakingFrontSight_000_8_42
// 075   ----------------------------------------
        BYTE   PATT
         POIN2  ShakingFrontSight_000_8_51
// 076   ----------------------------------------
        BYTE   PATT
         POIN2  ShakingFrontSight_000_8_42
// 077   ----------------------------------------
        BYTE   PATT
         POIN2  ShakingFrontSight_000_8_45
// 078   ----------------------------------------
        BYTE   PATT
         POIN2  ShakingFrontSight_000_8_42
// 079   ----------------------------------------
        BYTE   PATT
         POIN2  ShakingFrontSight_000_8_47
// 080   ----------------------------------------
        BYTE   PATT
         POIN2  ShakingFrontSight_000_8_64
// 081   ----------------------------------------
        BYTE   PATT
         POIN2  ShakingFrontSight_000_8_18
// 082   ----------------------------------------
        BYTE   PATT
         POIN2  ShakingFrontSight_000_8_42
// 083   ----------------------------------------
        BYTE   PATT
         POIN2  ShakingFrontSight_000_8_51
// 084   ----------------------------------------
        BYTE   PATT
         POIN2  ShakingFrontSight_000_8_42
// 085   ----------------------------------------
        BYTE   PATT
         POIN2  ShakingFrontSight_000_8_45
// 086   ----------------------------------------
        BYTE   PATT
         POIN2  ShakingFrontSight_000_8_42
// 087   ----------------------------------------
        BYTE   PATT
         POIN2  ShakingFrontSight_000_8_55
// 088   ----------------------------------------
        BYTE           N13     Cs1   v090
        BYTE           N22     Fn1   v055
        BYTE   W06
        BYTE           N05     Fs1   v030
        BYTE   W06
        BYTE           N12     As1   v073
        BYTE   W06
        BYTE           N13     Ds1   v078
        BYTE   W06
// 089   ----------------------------------------
        BYTE   PATT
         POIN2  ShakingFrontSight_000_8_57
// 090   ----------------------------------------
        BYTE           N13     Cs1   v090
        BYTE           N12     An2   v120
        BYTE   W06
        BYTE           N05     Fs1   v030
        BYTE   W06
        BYTE                   Fs1   v060
        BYTE   W06
        BYTE           N13     Cs1   v052
        BYTE   W06
// 091   ----------------------------------------
        BYTE   PATT
         POIN2  ShakingFrontSight_000_8_51
// 092   ----------------------------------------
        BYTE   PATT
         POIN2  ShakingFrontSight_000_8_42
// 093   ----------------------------------------
        BYTE   PATT
         POIN2  ShakingFrontSight_000_8_45
// 094   ----------------------------------------
        BYTE   PATT
         POIN2  ShakingFrontSight_000_8_42
// 095   ----------------------------------------
        BYTE   PATT
         POIN2  ShakingFrontSight_000_8_47
// 096   ----------------------------------------
        BYTE   PATT
         POIN2  ShakingFrontSight_000_8_64
// 097   ----------------------------------------
        BYTE   PATT
         POIN2  ShakingFrontSight_000_8_18
// 098   ----------------------------------------
        BYTE   PATT
         POIN2  ShakingFrontSight_000_8_42
// 099   ----------------------------------------
        BYTE   PATT
         POIN2  ShakingFrontSight_000_8_51
// 100   ----------------------------------------
        BYTE   PATT
         POIN2  ShakingFrontSight_000_8_42
// 101   ----------------------------------------
        BYTE           N12     Cn1   v085
        BYTE           N05     Fs1   v050
        BYTE   W06
        BYTE           N07     Dn1   v052
        BYTE   W05
        BYTE           N05     Gn1   v045
        BYTE   W01
        BYTE           N13     Ds1   v052
        BYTE           N16     An1   v065
        BYTE   W12
// 102   ----------------------------------------
        BYTE           N12     Cn1   v085
        BYTE           N13     Cs1   v090
        BYTE           N16     Gn1   v045
        BYTE           N05     Gs1   v046
        BYTE   W12
        BYTE           N16     An1   v050
        BYTE   W06
        BYTE           N13     Cs1   v052
        BYTE   W06
// 103   ----------------------------------------
        BYTE           N12     Cn1   v085
        BYTE           N16     Gn1   v055
        BYTE           N05     Gs1   v046
        BYTE   W12
        BYTE           N16     An1   v065
        BYTE   W11
        BYTE           N04     Dn1   v052
        BYTE   W01
// 104   ----------------------------------------
        BYTE           N12     Cn1   v085
        BYTE           N13     Cs1   v090
        BYTE           N10     Gn1   v075
        BYTE           N05     Gs1   v046
        BYTE   W06
        BYTE                   Fs1   v030
        BYTE           N10     An1   v070
        BYTE   W06
        BYTE           N22     Gn1   v085
        BYTE           N18     As1   v073
        BYTE   W06
        BYTE           N05     Fs1   v030
        BYTE   W06
// 105   ----------------------------------------
        BYTE           N12     Cn1   v085
        BYTE           N22     Fn1
        BYTE           N06     Cs2   v120
        BYTE   W06
        BYTE           N05     Fs1   v030
        BYTE   W06
        BYTE                   Fs1   v060
        BYTE   W06
        BYTE                   Fs1   v030
        BYTE   W06
// 106   ----------------------------------------
        BYTE   PATT
         POIN2  ShakingFrontSight_000_8_2
// 107   ----------------------------------------
        BYTE   PATT
         POIN2  ShakingFrontSight_000_8_15
// 108   ----------------------------------------
        BYTE           N12     Cn1   v085
        BYTE           N13     Cs1   v090
        BYTE           N22     An1   v075
        BYTE   W06
        BYTE           N05     Fs1   v030
        BYTE   W06
        BYTE                   Fs1   v060
        BYTE   W06
        BYTE           N12     As1   v048
        BYTE   W06
// 109   ----------------------------------------
        BYTE                   Cn1   v085
        BYTE           N22     An1   v080
        BYTE           N06     Cs2   v120
        BYTE   W06
        BYTE           N05     Fs1   v030
        BYTE   W06
        BYTE                   Fs1   v060
        BYTE   W06
        BYTE                   Fs1   v030
        BYTE   W06
// 110   ----------------------------------------
        BYTE           N12     Cn1   v085
        BYTE           N05     Fs1   v050
        BYTE   W06
        BYTE                   Fs1   v030
        BYTE   W06
        BYTE                   Fs1   v060
        BYTE   W06
        BYTE                   An1   v052
        BYTE   W03
        BYTE                   Gn1
        BYTE   W03
// 111   ----------------------------------------
        BYTE           N12     Cn1   v085
        BYTE           N22     An1   v080
        BYTE   W06
        BYTE           N05     Fs1   v030
        BYTE   W06
        BYTE                   Fs1   v060
        BYTE   W06
        BYTE                   Fs1   v030
        BYTE   W05
        BYTE           N04     Dn1   v052
        BYTE   W01
// 112   ----------------------------------------
        BYTE           N12     Cn1   v085
        BYTE           N13     Cs1   v090
        BYTE           N22     Fn1   v075
        BYTE   W06
        BYTE           N05     Fs1   v030
        BYTE   W06
        BYTE           N18     As1   v073
        BYTE   W12
// 113   ----------------------------------------
        BYTE           N12     Cn1   v085
        BYTE           N06     An2   v120
        BYTE   W06
        BYTE           N05     Fs1   v030
        BYTE   W06
        BYTE                   Fs1   v060
        BYTE   W06
        BYTE                   Fs1   v030
        BYTE   W06
// 114   ----------------------------------------
        BYTE   PATT
         POIN2  ShakingFrontSight_000_8_2
// 115   ----------------------------------------
        BYTE   PATT
         POIN2  ShakingFrontSight_000_8_15
// 116   ----------------------------------------
        BYTE           N12     Cn1   v085
        BYTE           N13     Cs1   v090
        BYTE           N22     An1   v075
        BYTE   W06
        BYTE           N05     Fs1   v030
        BYTE   W06
        BYTE                   Fs1   v060
        BYTE   W06
        BYTE           N06     As1   v048
        BYTE   W06
// 117   ----------------------------------------
        BYTE   PATT
         POIN2  ShakingFrontSight_000_8_2
// 118   ----------------------------------------
        BYTE   PATT
         POIN2  ShakingFrontSight_000_8_2
// 119   ----------------------------------------
        BYTE           N12     Cn1   v085
        BYTE           N05     Fs1   v050
        BYTE   W06
        BYTE                   Fs1   v030
        BYTE   W05
        BYTE           N04     Dn1   v052
        BYTE   W01
        BYTE           N13     Cs1   v090
        BYTE   W12
// 120   ----------------------------------------
        BYTE           N12     Cn1   v085
        BYTE           N07     Dn1   v090
        BYTE   W06
        BYTE           N13     Cs1
        BYTE   W06
        BYTE           N22     An1   v080
        BYTE   W06
        BYTE           N12     As1   v048
        BYTE   W06
// 121   ----------------------------------------
        BYTE                   Cn1   v085
        BYTE           N06     An2   v120
        BYTE   W06
        BYTE           N05     Fs1   v030
        BYTE   W06
        BYTE                   Fs1   v060
        BYTE   W06
        BYTE                   Fs1   v030
        BYTE   W05
        BYTE           N04     Dn1   v052
        BYTE   W01
// 122   ----------------------------------------
ShakingFrontSight_000_8_122:
        BYTE           N13     Cs1   v090
        BYTE   W06
        BYTE           N05     Fs1   v030
        BYTE   W06
        BYTE                   Fs1   v060
        BYTE   W06
        BYTE                   Fs1   v030
        BYTE   W06
        BYTE   PEND
// 123   ----------------------------------------
        BYTE   PATT
         POIN2  ShakingFrontSight_000_8_55
// 124   ----------------------------------------
        BYTE           N13     Cs1   v090
        BYTE           N22     An1   v075
        BYTE   W06
        BYTE           N05     Fs1   v030
        BYTE   W06
        BYTE                   Fs1   v060
        BYTE   W06
        BYTE           N12     As1   v048
        BYTE   W06
// 125   ----------------------------------------
ShakingFrontSight_000_8_125:
        BYTE           N12     Cn1   v085
        BYTE           N06     Cs2   v120
        BYTE   W06
        BYTE           N05     Fs1   v030
        BYTE   W06
        BYTE                   Fs1   v060
        BYTE   W06
        BYTE                   Fs1   v030
        BYTE   W05
        BYTE           N04     Dn1   v052
        BYTE   W01
        BYTE   PEND
// 126   ----------------------------------------
        BYTE   PATT
         POIN2  ShakingFrontSight_000_8_122
// 127   ----------------------------------------
        BYTE   PATT
         POIN2  ShakingFrontSight_000_8_55
// 128   ----------------------------------------
        BYTE           N13     Cs1   v090
        BYTE           N22     Fn1   v075
        BYTE   W06
        BYTE           N05     Fs1   v030
        BYTE   W06
        BYTE           N18     As1   v073
        BYTE   W12
// 129   ----------------------------------------
        BYTE   PATT
         POIN2  ShakingFrontSight_000_8_125
// 130   ----------------------------------------
        BYTE   PATT
         POIN2  ShakingFrontSight_000_8_122
// 131   ----------------------------------------
        BYTE   PATT
         POIN2  ShakingFrontSight_000_8_55
// 132   ----------------------------------------
        BYTE           N13     Cs1   v090
        BYTE           N22     An1   v075
        BYTE   W06
        BYTE           N05     Fs1   v030
        BYTE   W06
        BYTE                   Fs1   v060
        BYTE   W06
        BYTE           N06     As1   v048
        BYTE   W06
// 133   ----------------------------------------
        BYTE   PATT
         POIN2  ShakingFrontSight_000_8_15
// 134   ----------------------------------------
        BYTE           N12     Cn1   v085
        BYTE           N13     Cs1   v090
        BYTE           N05     Gs1   v046
        BYTE   W12
        BYTE           N04     Dn1   v052
        BYTE   W02
        BYTE                   Ds1
        BYTE   W02
        BYTE                   Cs1
        BYTE   W02
        BYTE                   Dn1
        BYTE   W02
        BYTE                   Ds1   v056
        BYTE   W02
        BYTE                   Cs1
        BYTE   W02
// 135   ----------------------------------------
        BYTE           N12     Cn1   v085
        BYTE           N13     Dn1   v090
        BYTE           N05     Gs1   v046
        BYTE   W12
        BYTE           N22     Cn2   v075
        BYTE   W12
// 136   ----------------------------------------
        BYTE           N12     Cn1   v085
        BYTE           N13     Cs1   v090
        BYTE           N05     Gs1   v046
        BYTE   W06
        BYTE           N13     Dn1   v090
        BYTE   W06
        BYTE           N16     An1   v075
        BYTE           N12     As1   v048
        BYTE   W12
// 137   ----------------------------------------
        BYTE                   Cn1   v085
        BYTE           N13     Cs1   v044
        BYTE           N22     Fn1   v075
        BYTE           N06     An2   v120
        BYTE   W12
        BYTE           N04     Dn1   v036
        BYTE   W02
        BYTE                   Ds1
        BYTE   W02
        BYTE                   Cs1
        BYTE   W02
        BYTE                   Dn1
        BYTE   W02
        BYTE                   Ds1
        BYTE   W02
        BYTE                   Cs1
        BYTE   W02
// 138   ----------------------------------------
ShakingFrontSight_000_8_138:
        BYTE           N13     Dn1   v044
        BYTE   W12
        BYTE           N04     Ds1   v036
        BYTE   W02
        BYTE                   Cs1
        BYTE   W02
        BYTE                   Dn1
        BYTE   W02
        BYTE                   Ds1
        BYTE   W02
        BYTE                   Cs1
        BYTE   W02
        BYTE                   Dn1
        BYTE   W02
        BYTE   PEND
// 139   ----------------------------------------
ShakingFrontSight_000_8_139:
        BYTE           N13     Ds1   v044
        BYTE   W12
        BYTE           N04     Cs1   v036
        BYTE   W02
        BYTE                   Dn1
        BYTE   W02
        BYTE                   Ds1
        BYTE   W02
        BYTE                   Cs1
        BYTE   W02
        BYTE                   Dn1
        BYTE   W02
        BYTE                   Ds1
        BYTE   W02
        BYTE   PEND
// 140   ----------------------------------------
ShakingFrontSight_000_8_140:
        BYTE           N07     Cs1   v044
        BYTE   W04
        BYTE                   Dn1
        BYTE   W04
        BYTE                   Ds1
        BYTE   W04
        BYTE           N13     Dn1
        BYTE   W12
        BYTE   PEND
// 141   ----------------------------------------
ShakingFrontSight_000_8_141:
        BYTE           N13     Cs1   v044
        BYTE   W12
        BYTE           N04     Dn1   v036
        BYTE   W02
        BYTE                   Ds1
        BYTE   W02
        BYTE                   Cs1
        BYTE   W02
        BYTE                   Dn1
        BYTE   W02
        BYTE                   Ds1
        BYTE   W02
        BYTE                   Cs1
        BYTE   W02
        BYTE   PEND
// 142   ----------------------------------------
        BYTE   PATT
         POIN2  ShakingFrontSight_000_8_138
// 143   ----------------------------------------
        BYTE   PATT
         POIN2  ShakingFrontSight_000_8_139
// 144   ----------------------------------------
        BYTE           N07     Cs1   v044
        BYTE   W04
        BYTE                   Dn1
        BYTE   W04
        BYTE                   Ds1
        BYTE   W04
        BYTE                   Cs1
        BYTE   W04
        BYTE                   Dn1
        BYTE   W04
        BYTE                   Ds1
        BYTE   W04
// 145   ----------------------------------------
        BYTE   PATT
         POIN2  ShakingFrontSight_000_8_141
// 146   ----------------------------------------
        BYTE   PATT
         POIN2  ShakingFrontSight_000_8_138
// 147   ----------------------------------------
        BYTE   PATT
         POIN2  ShakingFrontSight_000_8_139
// 148   ----------------------------------------
        BYTE   PATT
         POIN2  ShakingFrontSight_000_8_140
// 149   ----------------------------------------
        BYTE   PATT
         POIN2  ShakingFrontSight_000_8_141
// 150   ----------------------------------------
        BYTE   PATT
         POIN2  ShakingFrontSight_000_8_138
// 151   ----------------------------------------
        BYTE           N13     Ds1   v044
        BYTE   W23
        BYTE           N04     Dn1   v052
        BYTE   W01
// 152   ----------------------------------------
        BYTE           N12     Cn1   v065
        BYTE           N13     Cs1   v090
        BYTE           N22     Fn1   v075
        BYTE           N30     As1   v053
        BYTE   W24
// 153   ----------------------------------------
        BYTE           N12     Cn1   v085
        BYTE           N06     Cs2   v100
        BYTE   W06
        BYTE           N05     Fs1   v030
        BYTE   W06
        BYTE                   Fs1   v060
        BYTE   W06
        BYTE                   Fs1   v030
        BYTE   W06
// 154   ----------------------------------------
        BYTE   PATT
         POIN2  ShakingFrontSight_000_8_122
// 155   ----------------------------------------
        BYTE   PATT
         POIN2  ShakingFrontSight_000_8_47
// 156   ----------------------------------------
ShakingFrontSight_000_8_156:
        BYTE           N13     Cs1   v090
        BYTE   W06
        BYTE           N05     Fs1   v030
        BYTE   W06
        BYTE                   Fs1   v060
        BYTE   W06
        BYTE           N06     As1   v048
        BYTE   W06
        BYTE   PEND
// 157   ----------------------------------------
        BYTE   PATT
         POIN2  ShakingFrontSight_000_8_2
// 158   ----------------------------------------
        BYTE   PATT
         POIN2  ShakingFrontSight_000_8_122
// 159   ----------------------------------------
        BYTE   PATT
         POIN2  ShakingFrontSight_000_8_47
// 160   ----------------------------------------
        BYTE   PATT
         POIN2  ShakingFrontSight_000_8_156
// 161   ----------------------------------------
        BYTE   PATT
         POIN2  ShakingFrontSight_000_8_2
// 162   ----------------------------------------
        BYTE   PATT
         POIN2  ShakingFrontSight_000_8_122
// 163   ----------------------------------------
        BYTE   PATT
         POIN2  ShakingFrontSight_000_8_47
// 164   ----------------------------------------
        BYTE           N13     Cs1   v090
        BYTE   W06
        BYTE           N05     Fs1   v030
        BYTE   W06
        BYTE                   Fs1   v060
        BYTE   W06
        BYTE           N06     As1   v048
        BYTE   W05
        BYTE           N04     Cn2   v045
        BYTE   W01
// 165   ----------------------------------------
        BYTE           N12     Cn1   v085
        BYTE           N05     Gs1   v046
        BYTE           N22     Bn1   v075
        BYTE   W12
        BYTE           N05     Gs1   v025
        BYTE   W05
        BYTE           N04     An1   v045
        BYTE   W01
        BYTE           N22     Gn1   v075
        BYTE   W06
// 166   ----------------------------------------
        BYTE           N12     Cn1   v085
        BYTE           N05     Gs1   v046
        BYTE   W11
        BYTE           N04     Fn1   v045
        BYTE   W01
        BYTE           N22     En1   v075
        BYTE           N05     Gs1   v025
        BYTE   W12
// 167   ----------------------------------------
        BYTE           N12     Cn1   v085
        BYTE           N05     Gs1   v046
        BYTE   W05
        BYTE           N04     Cn2   v045
        BYTE   W01
        BYTE           N10     Bn1   v075
        BYTE   W06
        BYTE           N05     Gs1   v025
        BYTE           N22     Cn2   v075
        BYTE   W12
// 168   ----------------------------------------
        BYTE           N12     Cn1   v085
        BYTE           N05     Gs1   v046
        BYTE           N22     An1   v075
        BYTE   W12
        BYTE                   Fn1
        BYTE           N05     Gs1   v025
        BYTE   W11
        BYTE           N04     Dn1   v052
        BYTE   W01
// 169   ----------------------------------------
        BYTE           N12     Cn1   v085
        BYTE           N13     Cs1   v090
        BYTE           N12     Cs2   v115
        BYTE           N12     An2
        BYTE   W24
// 170   ----------------------------------------
        BYTE           N05     Gs1   v041
        BYTE   W24
// 171   ----------------------------------------
        BYTE                   Gs1
        BYTE   W24
// 172   ----------------------------------------
ShakingFrontSight_000_8_172:
        BYTE           N05     Gs1   v041
        BYTE   W12
        BYTE           N10     Cn1   v065
        BYTE   W12
        BYTE   PEND
// 173   ----------------------------------------
ShakingFrontSight_000_8_173:
        BYTE           N12     Cn1   v085
        BYTE           N05     Gs1   v041
        BYTE   W24
        BYTE   PEND
// 174   ----------------------------------------
        BYTE                   Gs1
        BYTE   W24
// 175   ----------------------------------------
        BYTE                   Gs1
        BYTE   W24
// 176   ----------------------------------------
        BYTE   PATT
         POIN2  ShakingFrontSight_000_8_172
// 177   ----------------------------------------
        BYTE   PATT
         POIN2  ShakingFrontSight_000_8_173
// 178   ----------------------------------------
        BYTE           N05     Gs1   v041
        BYTE   W24
// 179   ----------------------------------------
        BYTE                   Gs1
        BYTE   W24
// 180   ----------------------------------------
        BYTE   PATT
         POIN2  ShakingFrontSight_000_8_172
// 181   ----------------------------------------
        BYTE   PATT
         POIN2  ShakingFrontSight_000_8_173
// 182   ----------------------------------------
        BYTE           N05     Gs1   v041
        BYTE   W24
// 183   ----------------------------------------
        BYTE                   Gs1
        BYTE   W24
// 184   ----------------------------------------
        BYTE   PATT
         POIN2  ShakingFrontSight_000_8_172
// 185   ----------------------------------------
        BYTE           N12     Cn1   v085
        BYTE           N13     Cs1   v040
        BYTE           N06     Cs2   v110
        BYTE   W12
        BYTE           N04     Dn1   v032
        BYTE   W02
        BYTE                   Ds1
        BYTE   W02
        BYTE                   Cs1
        BYTE   W02
        BYTE                   Dn1
        BYTE   W02
        BYTE                   Ds1
        BYTE   W02
        BYTE                   Cs1
        BYTE   W02
// 186   ----------------------------------------
ShakingFrontSight_000_8_186:
        BYTE           N13     Dn1   v040
        BYTE   W12
        BYTE           N04     Ds1   v032
        BYTE   W02
        BYTE                   Cs1
        BYTE   W02
        BYTE                   Dn1
        BYTE   W02
        BYTE                   Ds1
        BYTE   W02
        BYTE                   Cs1
        BYTE   W02
        BYTE                   Dn1
        BYTE   W02
        BYTE   PEND
// 187   ----------------------------------------
ShakingFrontSight_000_8_187:
        BYTE           N13     Ds1   v040
        BYTE   W12
        BYTE           N04     Cs1   v032
        BYTE   W02
        BYTE                   Dn1
        BYTE   W02
        BYTE                   Ds1
        BYTE   W02
        BYTE                   Cs1
        BYTE   W02
        BYTE                   Dn1
        BYTE   W02
        BYTE                   Ds1
        BYTE   W02
        BYTE   PEND
// 188   ----------------------------------------
ShakingFrontSight_000_8_188:
        BYTE           N07     Cs1   v040
        BYTE   W04
        BYTE                   Dn1
        BYTE   W04
        BYTE                   Ds1
        BYTE   W04
        BYTE           N13     Dn1
        BYTE   W12
        BYTE   PEND
// 189   ----------------------------------------
ShakingFrontSight_000_8_189:
        BYTE           N13     Cs1   v040
        BYTE   W12
        BYTE           N04     Dn1   v032
        BYTE   W02
        BYTE                   Ds1
        BYTE   W02
        BYTE                   Cs1
        BYTE   W02
        BYTE                   Dn1
        BYTE   W02
        BYTE                   Ds1
        BYTE   W02
        BYTE                   Cs1
        BYTE   W02
        BYTE   PEND
// 190   ----------------------------------------
        BYTE   PATT
         POIN2  ShakingFrontSight_000_8_186
// 191   ----------------------------------------
        BYTE           N13     Ds1   v040
        BYTE   W12
        BYTE           N04     Cs1
        BYTE   W02
        BYTE                   Dn1   v032
        BYTE   W02
        BYTE                   Ds1
        BYTE   W02
        BYTE                   Cs1
        BYTE   W02
        BYTE                   Dn1
        BYTE   W02
        BYTE                   Ds1
        BYTE   W02
// 192   ----------------------------------------
        BYTE           N07     Cs1   v040
        BYTE   W04
        BYTE                   Dn1
        BYTE   W04
        BYTE                   Ds1
        BYTE   W04
        BYTE                   Cs1
        BYTE   W04
        BYTE                   Dn1
        BYTE   W04
        BYTE                   Ds1
        BYTE   W04
// 193   ----------------------------------------
        BYTE   PATT
         POIN2  ShakingFrontSight_000_8_189
// 194   ----------------------------------------
        BYTE   PATT
         POIN2  ShakingFrontSight_000_8_186
// 195   ----------------------------------------
        BYTE   PATT
         POIN2  ShakingFrontSight_000_8_187
// 196   ----------------------------------------
        BYTE   PATT
         POIN2  ShakingFrontSight_000_8_188
// 197   ----------------------------------------
        BYTE   PATT
         POIN2  ShakingFrontSight_000_8_189
// 198   ----------------------------------------
        BYTE   PATT
         POIN2  ShakingFrontSight_000_8_186
// 199   ----------------------------------------
        BYTE   PATT
         POIN2  ShakingFrontSight_000_8_187
// 200   ----------------------------------------
        BYTE           N12     Cn1   v055
        BYTE           N07     Cs1   v040
        BYTE   W04
        BYTE                   Dn1
        BYTE   W04
        BYTE                   Ds1
        BYTE   W04
        BYTE                   Cs1
        BYTE   W04
        BYTE                   Dn1
        BYTE   W04
        BYTE                   Ds1
        BYTE   W04
// 201   ----------------------------------------
        BYTE           N12     Cn1   v075
        BYTE           N13     Cs1   v040
        BYTE   W12
        BYTE           N04     Dn1   v032
        BYTE   W02
        BYTE                   Ds1
        BYTE   W02
        BYTE                   Cs1
        BYTE   W02
        BYTE                   Dn1
        BYTE   W02
        BYTE                   Ds1
        BYTE   W02
        BYTE                   Cs1
        BYTE   W02
// 202   ----------------------------------------
        BYTE   PATT
         POIN2  ShakingFrontSight_000_8_186
// 203   ----------------------------------------
        BYTE   PATT
         POIN2  ShakingFrontSight_000_8_187
// 204   ----------------------------------------
        BYTE           N12     Cn1   v055
        BYTE           N07     Cs1   v040
        BYTE   W04
        BYTE                   Dn1
        BYTE   W04
        BYTE                   Ds1
        BYTE   W04
        BYTE           N13     Dn1
        BYTE   W12
// 205   ----------------------------------------
        BYTE           N12     Cn1   v080
        BYTE           N13     Cs1   v040
        BYTE   W12
        BYTE           N04     Dn1   v032
        BYTE   W02
        BYTE                   Ds1
        BYTE   W02
        BYTE                   Cs1
        BYTE   W02
        BYTE                   Dn1
        BYTE   W02
        BYTE                   Ds1
        BYTE   W02
        BYTE                   Cs1
        BYTE   W02
// 206   ----------------------------------------
        BYTE   PATT
         POIN2  ShakingFrontSight_000_8_186
// 207   ----------------------------------------
        BYTE   PATT
         POIN2  ShakingFrontSight_000_8_187
// 208   ----------------------------------------
        BYTE           N12     Cn1   v060
        BYTE           N07     Cs1   v040
        BYTE   W04
        BYTE                   Dn1
        BYTE   W04
        BYTE                   Ds1
        BYTE   W04
        BYTE                   Cs1
        BYTE   W04
        BYTE                   Dn1
        BYTE   W04
        BYTE                   Ds1
        BYTE   W04
// 209   ----------------------------------------
        BYTE           N12     Cn1   v085
        BYTE           N13     Cs1   v040
        BYTE   W12
        BYTE           N04     Dn1   v032
        BYTE   W02
        BYTE                   Ds1
        BYTE   W02
        BYTE                   Cs1
        BYTE   W02
        BYTE                   Dn1
        BYTE   W02
        BYTE                   Ds1
        BYTE   W02
        BYTE                   Cs1
        BYTE   W02
// 210   ----------------------------------------
        BYTE   PATT
         POIN2  ShakingFrontSight_000_8_186
// 211   ----------------------------------------
        BYTE   PATT
         POIN2  ShakingFrontSight_000_8_187
// 212   ----------------------------------------
        BYTE           N12     Cn1   v065
        BYTE           N07     Cs1   v040
        BYTE   W04
        BYTE                   Dn1
        BYTE   W04
        BYTE                   Ds1
        BYTE   W04
        BYTE           N13     Dn1
        BYTE   W12
// 213   ----------------------------------------
        BYTE           N12     Cn1   v085
        BYTE           N13     Cs1   v048
        BYTE   W12
        BYTE           N04     Dn1   v040
        BYTE   W02
        BYTE                   Ds1
        BYTE   W02
        BYTE                   Cs1
        BYTE   W02
        BYTE                   Dn1
        BYTE   W02
        BYTE                   Ds1
        BYTE   W02
        BYTE                   Cs1
        BYTE   W02
// 214   ----------------------------------------
        BYTE           N13     Dn1   v048
        BYTE   W12
        BYTE           N04     Ds1   v040
        BYTE   W02
        BYTE                   Cs1
        BYTE   W02
        BYTE                   Dn1
        BYTE   W02
        BYTE                   Ds1
        BYTE   W02
        BYTE                   Cs1
        BYTE   W02
        BYTE                   Dn1
        BYTE   W02
// 215   ----------------------------------------
        BYTE           N13     Ds1   v048
        BYTE   W12
        BYTE           N04     Cs1   v045
        BYTE   W02
        BYTE                   Dn1
        BYTE   W02
        BYTE                   Ds1   v050
        BYTE   W02
        BYTE                   Cs1
        BYTE   W02
        BYTE                   Dn1   v055
        BYTE   W02
        BYTE                   Ds1
        BYTE   W02
// 216   ----------------------------------------
        BYTE           N12     Cn1   v065
        BYTE           N13     Cs1   v090
        BYTE           N22     Fn1   v075
        BYTE   W12
        BYTE           N05     Fs1   v060
        BYTE   W06
        BYTE                   As1   v052
        BYTE   W06
// 217   ----------------------------------------
        BYTE   GoTo
         POIN2  ShakingFrontSight_000_8_LOOP
        BYTE   FINE

//***************** Track 9 (Midi-Chn.11) ******************//

ShakingFrontSight_000_9:
        BYTE   KEYSH   ShakingFrontSight_000_key+0
// 000   ----------------------------------------
        BYTE           VOICE   105
        BYTE   W01
        BYTE           VOL     32
        BYTE           PAN     c_v+24
        BYTE   W23
// 001   ----------------------------------------
ShakingFrontSight_000_9_LOOP:
        BYTE           N12     Fs3   v100
        BYTE   W24
// 002   ----------------------------------------
        BYTE   W24
// 003   ----------------------------------------
        BYTE   W24
// 004   ----------------------------------------
ShakingFrontSight_000_9_4:
        BYTE   W23
        BYTE           N12     Gn2   v100
        BYTE   W01
        BYTE   PEND
// 005   ----------------------------------------
        BYTE   W24
// 006   ----------------------------------------
        BYTE   W24
// 007   ----------------------------------------
        BYTE   W24
// 008   ----------------------------------------
        BYTE   W23
        BYTE                   Fs2
        BYTE   W01
// 009   ----------------------------------------
        BYTE   W24
// 010   ----------------------------------------
        BYTE   W24
// 011   ----------------------------------------
        BYTE   W24
// 012   ----------------------------------------
        BYTE   PATT
         POIN2  ShakingFrontSight_000_9_4
// 013   ----------------------------------------
        BYTE   W24
// 014   ----------------------------------------
        BYTE   W24
// 015   ----------------------------------------
        BYTE   W24
// 016   ----------------------------------------
        BYTE   W23
        BYTE           N72     Fs2   v100
        BYTE   W01
// 017   ----------------------------------------
        BYTE   W24
// 018   ----------------------------------------
        BYTE   W24
// 019   ----------------------------------------
        BYTE   W23
        BYTE           N24     Fs3
        BYTE   W01
// 020   ----------------------------------------
        BYTE   W23
        BYTE           N48     Fn3
        BYTE   W01
// 021   ----------------------------------------
        BYTE   W24
// 022   ----------------------------------------
        BYTE   W23
        BYTE           N24     En3   v090
        BYTE   W01
// 023   ----------------------------------------
ShakingFrontSight_000_9_23:
        BYTE   W23
        BYTE           N12     Dn3   v100
        BYTE   W01
        BYTE   PEND
// 024   ----------------------------------------
        BYTE   W11
        BYTE                   Cn3
        BYTE   W12
        BYTE           N36     En3
        BYTE   W01
// 025   ----------------------------------------
        BYTE   W24
// 026   ----------------------------------------
        BYTE   W11
        BYTE           N12     Fs2
        BYTE   W12
        BYTE           N18     Bn2
        BYTE   W01
// 027   ----------------------------------------
        BYTE   W17
        BYTE                   Cs3
        BYTE   W07
// 028   ----------------------------------------
        BYTE   W11
        BYTE           N12     Dn3
        BYTE   W12
        BYTE           N48     Ds3
        BYTE   W01
// 029   ----------------------------------------
        BYTE   W24
// 030   ----------------------------------------
        BYTE   W23
        BYTE           N44     En3   v090   gtp2
        BYTE   W01
// 031   ----------------------------------------
        BYTE   W24
// 032   ----------------------------------------
ShakingFrontSight_000_9_32:
        BYTE   W23
        BYTE           N10     Cs3   v100
        BYTE   W01
        BYTE   PEND
// 033   ----------------------------------------
        BYTE   PATT
         POIN2  ShakingFrontSight_000_9_32
// 034   ----------------------------------------
        BYTE   W24
// 035   ----------------------------------------
        BYTE   W11
        BYTE           N10     Cs3   v100
        BYTE   W13
// 036   ----------------------------------------
        BYTE   W24
// 037   ----------------------------------------
        BYTE   W11
        BYTE           N09
        BYTE   W12
        BYTE           N10
        BYTE   W01
// 038   ----------------------------------------
        BYTE   W24
// 039   ----------------------------------------
        BYTE   W24
// 040   ----------------------------------------
        BYTE   W23
        BYTE           N48     Dn3   v080
        BYTE   W01
// 041   ----------------------------------------
        BYTE   W24
// 042   ----------------------------------------
        BYTE   W23
        BYTE                   An2
        BYTE   W01
// 043   ----------------------------------------
        BYTE   W24
// 044   ----------------------------------------
        BYTE   W23
        BYTE           N96     Bn2
        BYTE   W01
// 045   ----------------------------------------
        BYTE   W24
// 046   ----------------------------------------
        BYTE   W24
// 047   ----------------------------------------
        BYTE   W24
// 048   ----------------------------------------
        BYTE   W23
        BYTE                   Dn3
        BYTE   W01
// 049   ----------------------------------------
        BYTE   W24
// 050   ----------------------------------------
        BYTE   W24
// 051   ----------------------------------------
        BYTE   W24
// 052   ----------------------------------------
ShakingFrontSight_000_9_52:
        BYTE   W23
        BYTE           N48     En3   v080
        BYTE   W01
        BYTE   PEND
// 053   ----------------------------------------
        BYTE   W24
// 054   ----------------------------------------
        BYTE   W23
        BYTE           N44     Cs3   v070   gtp2
        BYTE   W01
// 055   ----------------------------------------
        BYTE   W24
// 056   ----------------------------------------
        BYTE   W23
        BYTE           N48     Dn3   v085
        BYTE   W01
// 057   ----------------------------------------
        BYTE   W24
// 058   ----------------------------------------
        BYTE   W23
        BYTE                   An2
        BYTE   W01
// 059   ----------------------------------------
        BYTE   W24
// 060   ----------------------------------------
        BYTE   W23
        BYTE           N96     Bn2
        BYTE   W01
// 061   ----------------------------------------
        BYTE   W24
// 062   ----------------------------------------
        BYTE   W24
// 063   ----------------------------------------
        BYTE   W24
// 064   ----------------------------------------
        BYTE   W23
        BYTE                   Dn3
        BYTE   W01
// 065   ----------------------------------------
        BYTE   W24
// 066   ----------------------------------------
        BYTE   W24
// 067   ----------------------------------------
        BYTE   W24
// 068   ----------------------------------------
ShakingFrontSight_000_9_68:
        BYTE   W23
        BYTE           N48     En3   v085
        BYTE   W01
        BYTE   PEND
// 069   ----------------------------------------
        BYTE   W24
// 070   ----------------------------------------
        BYTE   W23
        BYTE           N24     Bn3
        BYTE   W01
// 071   ----------------------------------------
        BYTE   W23
        BYTE           N22     An3
        BYTE   W01
// 072   ----------------------------------------
ShakingFrontSight_000_9_72:
        BYTE   W23
        BYTE           N48     Gn3   v090
        BYTE   W01
        BYTE   PEND
// 073   ----------------------------------------
        BYTE   W24
// 074   ----------------------------------------
ShakingFrontSight_000_9_74:
        BYTE   W23
        BYTE           N48     As2   v090
        BYTE   W01
        BYTE   PEND
// 075   ----------------------------------------
        BYTE   W24
// 076   ----------------------------------------
ShakingFrontSight_000_9_76:
        BYTE   W23
        BYTE           N96     Cn3   v090
        BYTE   W01
        BYTE   PEND
// 077   ----------------------------------------
        BYTE   W24
// 078   ----------------------------------------
        BYTE   W24
// 079   ----------------------------------------
        BYTE   W24
// 080   ----------------------------------------
ShakingFrontSight_000_9_80:
        BYTE   W23
        BYTE           N96     Ds3   v090
        BYTE   W01
        BYTE   PEND
// 081   ----------------------------------------
        BYTE   W24
// 082   ----------------------------------------
        BYTE   W24
// 083   ----------------------------------------
        BYTE   W24
// 084   ----------------------------------------
ShakingFrontSight_000_9_84:
        BYTE   W23
        BYTE           N48     Fn3   v090
        BYTE   W01
        BYTE   PEND
// 085   ----------------------------------------
        BYTE   W24
// 086   ----------------------------------------
        BYTE   W23
        BYTE           N44     Dn3   v080   gtp2
        BYTE   W01
// 087   ----------------------------------------
        BYTE   W24
// 088   ----------------------------------------
        BYTE   W23
        BYTE           N48     Ds3   v090
        BYTE   W01
// 089   ----------------------------------------
        BYTE   W24
// 090   ----------------------------------------
        BYTE   PATT
         POIN2  ShakingFrontSight_000_9_74
// 091   ----------------------------------------
        BYTE   W24
// 092   ----------------------------------------
        BYTE   PATT
         POIN2  ShakingFrontSight_000_9_76
// 093   ----------------------------------------
        BYTE   W24
// 094   ----------------------------------------
        BYTE   W24
// 095   ----------------------------------------
        BYTE   W24
// 096   ----------------------------------------
        BYTE   PATT
         POIN2  ShakingFrontSight_000_9_80
// 097   ----------------------------------------
        BYTE   W24
// 098   ----------------------------------------
        BYTE   W24
// 099   ----------------------------------------
        BYTE   W24
// 100   ----------------------------------------
ShakingFrontSight_000_9_100:
        BYTE   W23
        BYTE           N24     Fn3   v090
        BYTE   W01
        BYTE   PEND
// 101   ----------------------------------------
ShakingFrontSight_000_9_101:
        BYTE   W23
        BYTE           N24     Dn3   v090
        BYTE   W01
        BYTE   PEND
// 102   ----------------------------------------
        BYTE   W23
        BYTE                   As2
        BYTE   W01
// 103   ----------------------------------------
        BYTE   PATT
         POIN2  ShakingFrontSight_000_9_101
// 104   ----------------------------------------
ShakingFrontSight_000_9_104:
        BYTE   W23
        BYTE           N06     Ds3   v110
        BYTE   W01
        BYTE   PEND
// 105   ----------------------------------------
ShakingFrontSight_000_9_105:
        BYTE   W05
        BYTE           N06     Fn3   v100
        BYTE   W06
        BYTE                   Ds3
        BYTE   W06
        BYTE                   Dn3
        BYTE   W06
        BYTE           N42     Cn3
        BYTE   W01
        BYTE   PEND
// 106   ----------------------------------------
        BYTE   W24
// 107   ----------------------------------------
ShakingFrontSight_000_9_107:
        BYTE   W23
        BYTE           N12     Gs2   v110
        BYTE   W01
        BYTE   PEND
// 108   ----------------------------------------
        BYTE   W11
        BYTE                   Cn3
        BYTE   W12
        BYTE           N06     Dn3
        BYTE   W01
// 109   ----------------------------------------
        BYTE   W05
        BYTE                   Ds3   v100
        BYTE   W06
        BYTE                   Dn3
        BYTE   W06
        BYTE                   Cn3
        BYTE   W06
        BYTE           N30     As2
        BYTE   W01
// 110   ----------------------------------------
        BYTE   W24
// 111   ----------------------------------------
        BYTE   W11
        BYTE           N12     Dn3   v110
        BYTE   W12
        BYTE                   As3
        BYTE   W01
// 112   ----------------------------------------
        BYTE   W11
        BYTE                   Dn3
        BYTE   W12
        BYTE           N06     Gn2
        BYTE   W01
// 113   ----------------------------------------
        BYTE   W05
        BYTE                   Fn2
        BYTE   W06
        BYTE                   Gn2
        BYTE   W06
        BYTE           N15     Cn3
        BYTE   W07
// 114   ----------------------------------------
        BYTE   W11
        BYTE           N06
        BYTE   W06
        BYTE                   As2
        BYTE   W06
        BYTE                   Cn3
        BYTE   W01
// 115   ----------------------------------------
        BYTE   W05
        BYTE           N15     Ds3
        BYTE   W18
        BYTE           N06     Cn3
        BYTE   W01
// 116   ----------------------------------------
        BYTE   W05
        BYTE                   Dn3
        BYTE   W06
        BYTE           N12     Ds3
        BYTE   W12
        BYTE           N20     Fn3   v105
        BYTE   W01
// 117   ----------------------------------------
        BYTE   W23
        BYTE                   Ds3
        BYTE   W01
// 118   ----------------------------------------
        BYTE   W23
        BYTE                   Cn3
        BYTE   W01
// 119   ----------------------------------------
        BYTE   W23
        BYTE                   Gn2
        BYTE   W01
// 120   ----------------------------------------
        BYTE   PATT
         POIN2  ShakingFrontSight_000_9_104
// 121   ----------------------------------------
        BYTE   PATT
         POIN2  ShakingFrontSight_000_9_105
// 122   ----------------------------------------
        BYTE   W24
// 123   ----------------------------------------
        BYTE   PATT
         POIN2  ShakingFrontSight_000_9_107
// 124   ----------------------------------------
        BYTE   W11
        BYTE           N12     Cn3   v110
        BYTE   W12
        BYTE           N06     Gn3
        BYTE   W01
// 125   ----------------------------------------
        BYTE   W05
        BYTE                   Gs3   v100
        BYTE   W06
        BYTE                   Gn3
        BYTE   W06
        BYTE                   Fn3
        BYTE   W06
        BYTE           N42     As2
        BYTE   W01
// 126   ----------------------------------------
        BYTE   W24
// 127   ----------------------------------------
        BYTE   W23
        BYTE           N12     Gn2   v110
        BYTE   W01
// 128   ----------------------------------------
        BYTE   W11
        BYTE                   As2
        BYTE   W12
        BYTE           N48     Fn2   v100
        BYTE   W01
// 129   ----------------------------------------
        BYTE   W24
// 130   ----------------------------------------
        BYTE   W23
        BYTE           N18     Cn2
        BYTE   W01
// 131   ----------------------------------------
        BYTE   W23
        BYTE                   Fn2
        BYTE   W01
// 132   ----------------------------------------
        BYTE   W23
        BYTE           N48     En2   v115
        BYTE   W01
// 133   ----------------------------------------
        BYTE   W24
// 134   ----------------------------------------
ShakingFrontSight_000_9_134:
        BYTE   W23
        BYTE           N18     En2   v115
        BYTE   W01
        BYTE   PEND
// 135   ----------------------------------------
        BYTE   PATT
         POIN2  ShakingFrontSight_000_9_134
// 136   ----------------------------------------
        BYTE   W23
        BYTE           N48     Cn3   v075
        BYTE   W01
// 137   ----------------------------------------
        BYTE   W24
// 138   ----------------------------------------
        BYTE   W23
        BYTE           N24     Gn2
        BYTE   W01
// 139   ----------------------------------------
        BYTE   W23
        BYTE           N06     An2   v090
        BYTE   W01
// 140   ----------------------------------------
        BYTE   W05
        BYTE                   Gn2   v080
        BYTE   W06
        BYTE           N12     An2
        BYTE   W12
        BYTE           N24     Fs2   v075
        BYTE   W01
// 141   ----------------------------------------
        BYTE   W23
        BYTE           N48     Dn3
        BYTE   W01
// 142   ----------------------------------------
        BYTE   W24
// 143   ----------------------------------------
        BYTE   W23
        BYTE           N12     Cn3
        BYTE   W01
// 144   ----------------------------------------
        BYTE   W11
        BYTE                   Bn2
        BYTE   W12
        BYTE           N24     An2
        BYTE   W01
// 145   ----------------------------------------
        BYTE   W23
        BYTE           N06     Fn3   v090
        BYTE   W01
// 146   ----------------------------------------
        BYTE   W05
        BYTE                   En3   v080
        BYTE   W06
        BYTE           N09     Fn3
        BYTE   W12
        BYTE           N06     Cn3   v090
        BYTE   W01
// 147   ----------------------------------------
        BYTE   W05
        BYTE                   Bn2   v080
        BYTE   W06
        BYTE           N09     Cn3
        BYTE   W12
        BYTE           N06     Fn3
        BYTE   W01
// 148   ----------------------------------------
        BYTE   W05
        BYTE                   En3
        BYTE   W06
        BYTE                   Dn3
        BYTE   W06
        BYTE                   En3
        BYTE   W06
        BYTE           N48     An2   v075
        BYTE   W01
// 149   ----------------------------------------
        BYTE   W24
// 150   ----------------------------------------
ShakingFrontSight_000_9_150:
        BYTE   W23
        BYTE           N24     Dn3   v075
        BYTE   W01
        BYTE   PEND
// 151   ----------------------------------------
        BYTE   W23
        BYTE           N22     Ds3
        BYTE   W01
// 152   ----------------------------------------
ShakingFrontSight_000_9_152:
        BYTE   W23
        BYTE           N48     Bn2   v095
        BYTE   W01
        BYTE   PEND
// 153   ----------------------------------------
        BYTE   W24
// 154   ----------------------------------------
        BYTE   W23
        BYTE           N24     Dn3
        BYTE   W01
// 155   ----------------------------------------
        BYTE   W23
        BYTE                   En3
        BYTE   W01
// 156   ----------------------------------------
        BYTE   W23
        BYTE           N48     Gs2
        BYTE   W01
// 157   ----------------------------------------
        BYTE   W24
// 158   ----------------------------------------
        BYTE   W23
        BYTE           N12
        BYTE   W01
// 159   ----------------------------------------
        BYTE   W11
        BYTE                   Bn2
        BYTE   W12
        BYTE                   Dn3
        BYTE   W01
// 160   ----------------------------------------
        BYTE   W11
        BYTE                   Fn3
        BYTE   W12
        BYTE           N48     Dn3
        BYTE   W01
// 161   ----------------------------------------
        BYTE   W24
// 162   ----------------------------------------
        BYTE   W23
        BYTE           N24     Fn3
        BYTE   W01
// 163   ----------------------------------------
        BYTE   W23
        BYTE                   Gn3
        BYTE   W01
// 164   ----------------------------------------
        BYTE   PATT
         POIN2  ShakingFrontSight_000_9_152
// 165   ----------------------------------------
        BYTE   W24
// 166   ----------------------------------------
        BYTE   W23
        BYTE           N12     Bn2   v095
        BYTE   W01
// 167   ----------------------------------------
        BYTE   W11
        BYTE                   Dn3
        BYTE   W12
        BYTE                   Fn3
        BYTE   W01
// 168   ----------------------------------------
        BYTE   W11
        BYTE                   Gs3
        BYTE   W12
        BYTE           N24     Dn3   v100
        BYTE           N92     Gs3   v090   gtp1
        BYTE   W01
// 169   ----------------------------------------
        BYTE   W23
        BYTE           N68     Cn3   v090   gtp1
        BYTE   W01
// 170   ----------------------------------------
        BYTE   W24
// 171   ----------------------------------------
        BYTE   W24
// 172   ----------------------------------------
        BYTE   W23
        BYTE           N24     As2   v085
        BYTE           N92     Fn3   v080   gtp1
        BYTE   W01
// 173   ----------------------------------------
        BYTE   W23
        BYTE           N68     Gs2   v075   gtp1
        BYTE   W01
// 174   ----------------------------------------
        BYTE   W24
// 175   ----------------------------------------
        BYTE   W24
// 176   ----------------------------------------
        BYTE   W23
        BYTE           N24     As2
        BYTE           N92     Fn3   v070   gtp1
        BYTE   W01
// 177   ----------------------------------------
        BYTE   W23
        BYTE           N68     Gs2   v065   gtp1
        BYTE   W01
// 178   ----------------------------------------
        BYTE   W24
// 179   ----------------------------------------
        BYTE   W24
// 180   ----------------------------------------
        BYTE   W23
        BYTE           N24     As2
        BYTE           N96     Fn3   v060
        BYTE   W01
// 181   ----------------------------------------
        BYTE   W23
        BYTE           N72     Gs2   v055
        BYTE   W01
// 182   ----------------------------------------
        BYTE   W24
// 183   ----------------------------------------
        BYTE   W24
// 184   ----------------------------------------
        BYTE   W23
        BYTE           N48     Gn2
        BYTE           TIE     Dn3   v060
        BYTE   W01
// 185   ----------------------------------------
        BYTE   W24
// 186   ----------------------------------------
        BYTE   W23
        BYTE           N48     Fs2   v055
        BYTE   W01
// 187   ----------------------------------------
        BYTE   W24
// 188   ----------------------------------------
        BYTE   W24
// 189   ----------------------------------------
        BYTE   W24
// 190   ----------------------------------------
        BYTE   W23
        BYTE           EOT     Dn3
        BYTE           N48     An2   v050
        BYTE   W01
// 191   ----------------------------------------
        BYTE   W24
// 192   ----------------------------------------
        BYTE   W23
        BYTE           N96     Fn2   v055
        BYTE   W01
// 193   ----------------------------------------
        BYTE   W24
// 194   ----------------------------------------
        BYTE   W24
// 195   ----------------------------------------
        BYTE   W24
// 196   ----------------------------------------
        BYTE   W23
        BYTE                   Gn2
        BYTE   W01
// 197   ----------------------------------------
        BYTE   W24
// 198   ----------------------------------------
        BYTE   W24
// 199   ----------------------------------------
        BYTE   W24
// 200   ----------------------------------------
ShakingFrontSight_000_9_200:
        BYTE   W23
        BYTE           N66     Fs2   v050
        BYTE   W01
        BYTE   PEND
// 201   ----------------------------------------
        BYTE   W24
// 202   ----------------------------------------
        BYTE   W24
// 203   ----------------------------------------
        BYTE   W24
// 204   ----------------------------------------
        BYTE   PATT
         POIN2  ShakingFrontSight_000_9_200
// 205   ----------------------------------------
        BYTE   W24
// 206   ----------------------------------------
        BYTE   W24
// 207   ----------------------------------------
        BYTE   W24
// 208   ----------------------------------------
        BYTE   W23
        BYTE           TIE     Fs2   v050
        BYTE   W01
// 209   ----------------------------------------
        BYTE   W24
// 210   ----------------------------------------
        BYTE   W24
// 211   ----------------------------------------
        BYTE   W24
// 212   ----------------------------------------
        BYTE   W24
// 213   ----------------------------------------
        BYTE   W05
        BYTE           EOT
        BYTE   W19
// 214   ----------------------------------------
        BYTE   W24
// 215   ----------------------------------------
        BYTE   W24
// 216   ----------------------------------------
        BYTE   W24
// 217   ----------------------------------------
        BYTE   GoTo
         POIN2  ShakingFrontSight_000_9_LOOP
        BYTE   FINE

//***************** Track 10 (Midi-Chn.12) *****************//

ShakingFrontSight_000_10:
        BYTE   KEYSH   ShakingFrontSight_000_key+0
// 000   ----------------------------------------
        BYTE           VOICE   106
        BYTE   W01
        BYTE           VOL     30
        BYTE           PAN     c_v+40
        BYTE   W22
        BYTE           BENDR   127
        BYTE   W01
// 001   ----------------------------------------
ShakingFrontSight_000_10_LOOP:
        BYTE           N13     Bn0   v110
        BYTE           N13     Bn1
        BYTE   W24
// 002   ----------------------------------------
        BYTE   W24
// 003   ----------------------------------------
        BYTE   W24
// 004   ----------------------------------------
ShakingFrontSight_000_10_4:
        BYTE   W23
        BYTE           N13     Bn0   v110
        BYTE           N13     Bn1
        BYTE   W01
        BYTE   PEND
// 005   ----------------------------------------
        BYTE   W24
// 006   ----------------------------------------
        BYTE   W24
// 007   ----------------------------------------
        BYTE   W24
// 008   ----------------------------------------
        BYTE   PATT
         POIN2  ShakingFrontSight_000_10_4
// 009   ----------------------------------------
        BYTE   W24
// 010   ----------------------------------------
        BYTE   W24
// 011   ----------------------------------------
        BYTE   W24
// 012   ----------------------------------------
        BYTE   PATT
         POIN2  ShakingFrontSight_000_10_4
// 013   ----------------------------------------
        BYTE   W24
// 014   ----------------------------------------
        BYTE   W24
// 015   ----------------------------------------
        BYTE   W24
// 016   ----------------------------------------
        BYTE   PATT
         POIN2  ShakingFrontSight_000_10_4
// 017   ----------------------------------------
        BYTE   W24
// 018   ----------------------------------------
        BYTE   W24
// 019   ----------------------------------------
        BYTE   W24
// 020   ----------------------------------------
        BYTE   PATT
         POIN2  ShakingFrontSight_000_10_4
// 021   ----------------------------------------
        BYTE   W24
// 022   ----------------------------------------
        BYTE   W24
// 023   ----------------------------------------
        BYTE   W24
// 024   ----------------------------------------
        BYTE   PATT
         POIN2  ShakingFrontSight_000_10_4
// 025   ----------------------------------------
        BYTE   W24
// 026   ----------------------------------------
        BYTE   W24
// 027   ----------------------------------------
        BYTE   W24
// 028   ----------------------------------------
        BYTE   PATT
         POIN2  ShakingFrontSight_000_10_4
// 029   ----------------------------------------
        BYTE   W24
// 030   ----------------------------------------
        BYTE   W24
// 031   ----------------------------------------
        BYTE   W24
// 032   ----------------------------------------
ShakingFrontSight_000_10_32:
        BYTE   W23
        BYTE           N13     Fs0   v110
        BYTE           N13     Fs1
        BYTE   W01
        BYTE   PEND
// 033   ----------------------------------------
        BYTE   PATT
         POIN2  ShakingFrontSight_000_10_32
// 034   ----------------------------------------
        BYTE   W24
// 035   ----------------------------------------
        BYTE   W11
        BYTE           N13     Fs0   v110
        BYTE           N13     Fs1
        BYTE   W13
// 036   ----------------------------------------
        BYTE   W23
        BYTE           N92     Fs0   v110   gtp3
        BYTE           N76     Fs1   v100   gtp1
        BYTE   W01
// 037   ----------------------------------------
        BYTE   W24
// 038   ----------------------------------------
        BYTE   W24
// 039   ----------------------------------------
        BYTE   W24
// 040   ----------------------------------------
        BYTE   W24
// 041   ----------------------------------------
        BYTE   W24
// 042   ----------------------------------------
        BYTE   W24
// 043   ----------------------------------------
        BYTE   W24
// 044   ----------------------------------------
        BYTE   W24
// 045   ----------------------------------------
        BYTE   W24
// 046   ----------------------------------------
        BYTE   W24
// 047   ----------------------------------------
        BYTE   W24
// 048   ----------------------------------------
        BYTE   W24
// 049   ----------------------------------------
        BYTE   W24
// 050   ----------------------------------------
        BYTE   W24
// 051   ----------------------------------------
        BYTE   W24
// 052   ----------------------------------------
        BYTE   W24
// 053   ----------------------------------------
        BYTE   W24
// 054   ----------------------------------------
        BYTE   W24
// 055   ----------------------------------------
        BYTE   W24
// 056   ----------------------------------------
        BYTE   W24
// 057   ----------------------------------------
        BYTE   W24
// 058   ----------------------------------------
        BYTE   W24
// 059   ----------------------------------------
        BYTE   W24
// 060   ----------------------------------------
        BYTE   W24
// 061   ----------------------------------------
        BYTE   W24
// 062   ----------------------------------------
        BYTE   W24
// 063   ----------------------------------------
        BYTE   W24
// 064   ----------------------------------------
        BYTE   W24
// 065   ----------------------------------------
        BYTE   W24
// 066   ----------------------------------------
        BYTE   W24
// 067   ----------------------------------------
        BYTE   W24
// 068   ----------------------------------------
        BYTE   W24
// 069   ----------------------------------------
        BYTE   W24
// 070   ----------------------------------------
        BYTE   W24
// 071   ----------------------------------------
        BYTE   W24
// 072   ----------------------------------------
        BYTE   W24
// 073   ----------------------------------------
        BYTE   W24
// 074   ----------------------------------------
        BYTE   W24
// 075   ----------------------------------------
        BYTE   W24
// 076   ----------------------------------------
        BYTE   W24
// 077   ----------------------------------------
        BYTE   W24
// 078   ----------------------------------------
        BYTE   W24
// 079   ----------------------------------------
        BYTE   W24
// 080   ----------------------------------------
        BYTE   W24
// 081   ----------------------------------------
        BYTE   W24
// 082   ----------------------------------------
        BYTE   W24
// 083   ----------------------------------------
        BYTE   W24
// 084   ----------------------------------------
        BYTE   W24
// 085   ----------------------------------------
        BYTE   W24
// 086   ----------------------------------------
        BYTE   W24
// 087   ----------------------------------------
        BYTE   W24
// 088   ----------------------------------------
        BYTE   W24
// 089   ----------------------------------------
        BYTE   W24
// 090   ----------------------------------------
        BYTE   W24
// 091   ----------------------------------------
        BYTE   W24
// 092   ----------------------------------------
        BYTE   W24
// 093   ----------------------------------------
        BYTE   W24
// 094   ----------------------------------------
        BYTE   W24
// 095   ----------------------------------------
        BYTE   W24
// 096   ----------------------------------------
        BYTE   W24
// 097   ----------------------------------------
        BYTE   W24
// 098   ----------------------------------------
        BYTE   W24
// 099   ----------------------------------------
        BYTE   W24
// 100   ----------------------------------------
        BYTE   W24
// 101   ----------------------------------------
        BYTE   W24
// 102   ----------------------------------------
        BYTE   W24
// 103   ----------------------------------------
        BYTE   W24
// 104   ----------------------------------------
ShakingFrontSight_000_10_104:
        BYTE   W23
        BYTE           N92     Gs0   v100   gtp2
        BYTE                   Gs1
        BYTE   W01
        BYTE   PEND
// 105   ----------------------------------------
        BYTE   W24
// 106   ----------------------------------------
        BYTE   W24
// 107   ----------------------------------------
        BYTE   W24
// 108   ----------------------------------------
        BYTE   W23
        BYTE                   As0
        BYTE           N92     As1   v100   gtp2
        BYTE   W01
// 109   ----------------------------------------
        BYTE   W24
// 110   ----------------------------------------
        BYTE   W24
// 111   ----------------------------------------
        BYTE   W24
// 112   ----------------------------------------
        BYTE   W23
        BYTE                   Cn1
        BYTE           N92     Cn2   v100   gtp2
        BYTE   W01
// 113   ----------------------------------------
        BYTE   W24
// 114   ----------------------------------------
        BYTE   W24
// 115   ----------------------------------------
        BYTE   W24
// 116   ----------------------------------------
        BYTE   W23
        BYTE           N68     Fn0   v100   gtp2
        BYTE                   Fn1
        BYTE   W01
// 117   ----------------------------------------
        BYTE   W24
// 118   ----------------------------------------
        BYTE   W24
// 119   ----------------------------------------
        BYTE   W23
        BYTE           N22     Gn0
        BYTE           N22     Gn1
        BYTE   W01
// 120   ----------------------------------------
        BYTE   PATT
         POIN2  ShakingFrontSight_000_10_104
// 121   ----------------------------------------
        BYTE   W24
// 122   ----------------------------------------
        BYTE   W24
// 123   ----------------------------------------
        BYTE   W24
// 124   ----------------------------------------
        BYTE   W23
        BYTE           N92     Ds1   v100   gtp2
        BYTE                   Ds2
        BYTE   W01
// 125   ----------------------------------------
        BYTE   W24
// 126   ----------------------------------------
        BYTE   W24
// 127   ----------------------------------------
        BYTE   W24
// 128   ----------------------------------------
        BYTE   W23
        BYTE           N44     Fn0   v100   gtp2
        BYTE                   Fn1
        BYTE   W01
// 129   ----------------------------------------
        BYTE   W24
// 130   ----------------------------------------
ShakingFrontSight_000_10_130:
        BYTE   W23
        BYTE           N18     Fn0   v100
        BYTE           N18     Fn1
        BYTE   W01
        BYTE   PEND
// 131   ----------------------------------------
        BYTE   PATT
         POIN2  ShakingFrontSight_000_10_130
// 132   ----------------------------------------
        BYTE   W23
        BYTE           N44     En0   v110   gtp2
        BYTE                   En1
        BYTE   W01
// 133   ----------------------------------------
        BYTE   W24
// 134   ----------------------------------------
ShakingFrontSight_000_10_134:
        BYTE   W23
        BYTE           N18     En0   v110
        BYTE           N18     En1
        BYTE   W01
        BYTE   PEND
// 135   ----------------------------------------
        BYTE   PATT
         POIN2  ShakingFrontSight_000_10_134
// 136   ----------------------------------------
        BYTE   W23
        BYTE           N96     An0   v075
        BYTE           N96     An1
        BYTE   W01
// 137   ----------------------------------------
        BYTE   W24
// 138   ----------------------------------------
        BYTE   W24
// 139   ----------------------------------------
        BYTE   W24
// 140   ----------------------------------------
        BYTE   W23
        BYTE                   Bn0
        BYTE           N96     Bn1
        BYTE   W01
// 141   ----------------------------------------
        BYTE   W24
// 142   ----------------------------------------
        BYTE   W24
// 143   ----------------------------------------
        BYTE   W24
// 144   ----------------------------------------
        BYTE   W23
        BYTE                   Cn1
        BYTE           N96     Cn2
        BYTE   W01
// 145   ----------------------------------------
        BYTE   W24
// 146   ----------------------------------------
        BYTE   W24
// 147   ----------------------------------------
        BYTE   W24
// 148   ----------------------------------------
        BYTE   W23
        BYTE           N48     Dn1
        BYTE           N48     Dn2
        BYTE   W01
// 149   ----------------------------------------
        BYTE   W24
// 150   ----------------------------------------
        BYTE   W23
        BYTE           N24     Gn0   v080
        BYTE           N24     Gn1
        BYTE   W01
// 151   ----------------------------------------
        BYTE   W23
        BYTE           N22     Fs1
        BYTE           N22     Fs2
        BYTE   W01
// 152   ----------------------------------------
        BYTE   W23
        BYTE           N88     En0   v090
        BYTE           N88     En1
        BYTE   W01
// 153   ----------------------------------------
        BYTE   W24
// 154   ----------------------------------------
        BYTE   W24
// 155   ----------------------------------------
        BYTE   W24
// 156   ----------------------------------------
        BYTE   W23
        BYTE                   Fn0
        BYTE           N88     Fn1
        BYTE   W01
// 157   ----------------------------------------
        BYTE   W24
// 158   ----------------------------------------
        BYTE   W24
// 159   ----------------------------------------
        BYTE   W24
// 160   ----------------------------------------
ShakingFrontSight_000_10_160:
        BYTE   W23
        BYTE           N88     Gn0   v090
        BYTE           N88     Gn1
        BYTE   W01
        BYTE   PEND
// 161   ----------------------------------------
        BYTE   W24
// 162   ----------------------------------------
        BYTE   W24
// 163   ----------------------------------------
        BYTE   W24
// 164   ----------------------------------------
        BYTE   PATT
         POIN2  ShakingFrontSight_000_10_160
// 165   ----------------------------------------
        BYTE   W24
// 166   ----------------------------------------
        BYTE   W24
// 167   ----------------------------------------
        BYTE   W24
// 168   ----------------------------------------
        BYTE   W23
        BYTE           N92     Gs0   v090   gtp2
        BYTE                   Gs1
        BYTE   W01
// 169   ----------------------------------------
        BYTE   W24
// 170   ----------------------------------------
        BYTE   W24
// 171   ----------------------------------------
        BYTE   W24
// 172   ----------------------------------------
        BYTE   W23
        BYTE                   Fn0
        BYTE           N92     Fn1   v090   gtp2
        BYTE   W01
// 173   ----------------------------------------
        BYTE   W24
// 174   ----------------------------------------
        BYTE   W24
// 175   ----------------------------------------
        BYTE   W24
// 176   ----------------------------------------
        BYTE   W23
        BYTE                   Cs1
        BYTE           N92     Cs2   v090   gtp2
        BYTE   W01
// 177   ----------------------------------------
        BYTE   W24
// 178   ----------------------------------------
        BYTE   W24
// 179   ----------------------------------------
        BYTE   W24
// 180   ----------------------------------------
        BYTE   W23
        BYTE                   As0
        BYTE           N92     As1   v090   gtp2
        BYTE   W01
// 181   ----------------------------------------
        BYTE   W24
// 182   ----------------------------------------
        BYTE   W24
// 183   ----------------------------------------
        BYTE   W24
// 184   ----------------------------------------
ShakingFrontSight_000_10_184:
        BYTE   W23
        BYTE           N92     Gn0   v070   gtp2
        BYTE                   Gn1
        BYTE   W01
        BYTE   PEND
// 185   ----------------------------------------
        BYTE   W24
// 186   ----------------------------------------
        BYTE   W24
// 187   ----------------------------------------
        BYTE   W24
// 188   ----------------------------------------
        BYTE   W23
        BYTE                   Dn1
        BYTE           N92     Dn2   v070   gtp2
        BYTE   W01
// 189   ----------------------------------------
        BYTE   W24
// 190   ----------------------------------------
        BYTE   W24
// 191   ----------------------------------------
        BYTE   W24
// 192   ----------------------------------------
        BYTE   PATT
         POIN2  ShakingFrontSight_000_10_184
// 193   ----------------------------------------
        BYTE   W24
// 194   ----------------------------------------
        BYTE   W24
// 195   ----------------------------------------
        BYTE   W24
// 196   ----------------------------------------
        BYTE   W23
        BYTE           N92     Cn1   v070   gtp2
        BYTE                   Cn2
        BYTE   W01
// 197   ----------------------------------------
        BYTE   W24
// 198   ----------------------------------------
        BYTE   W24
// 199   ----------------------------------------
        BYTE   W24
// 200   ----------------------------------------
ShakingFrontSight_000_10_200:
        BYTE   W23
        BYTE           N92     Bn0   v070   gtp2
        BYTE                   Bn1
        BYTE   W01
        BYTE   PEND
// 201   ----------------------------------------
        BYTE   W24
// 202   ----------------------------------------
        BYTE   W24
// 203   ----------------------------------------
        BYTE   W24
// 204   ----------------------------------------
        BYTE   PATT
         POIN2  ShakingFrontSight_000_10_200
// 205   ----------------------------------------
        BYTE   W24
// 206   ----------------------------------------
        BYTE   W24
// 207   ----------------------------------------
        BYTE   W24
// 208   ----------------------------------------
        BYTE   W23
        BYTE           TIE     Bn0   v070
        BYTE           TIE     Bn1
        BYTE   W01
// 209   ----------------------------------------
        BYTE   W24
// 210   ----------------------------------------
        BYTE   W24
// 211   ----------------------------------------
        BYTE   W24
// 212   ----------------------------------------
        BYTE   W24
// 213   ----------------------------------------
        BYTE   W24
// 214   ----------------------------------------
        BYTE   W24
// 215   ----------------------------------------
        BYTE   W24
// 216   ----------------------------------------
        BYTE   W15
        BYTE           EOT     Bn0
        BYTE                   Bn1
        BYTE   W09
// 217   ----------------------------------------
        BYTE   GoTo
         POIN2  ShakingFrontSight_000_10_LOOP
        BYTE   FINE

//***************** Track 11 (Midi-Chn.13) *****************//

ShakingFrontSight_000_11:
        BYTE   KEYSH   ShakingFrontSight_000_key+0
// 000   ----------------------------------------
        BYTE           VOICE   97
        BYTE   W01
        BYTE           VOL     32
        BYTE           PAN     c_v-24
        BYTE   W23
// 001   ----------------------------------------
ShakingFrontSight_000_11_LOOP:
        BYTE           N12     En4   v100
        BYTE   W24
// 002   ----------------------------------------
        BYTE   W24
// 003   ----------------------------------------
        BYTE   W24
// 004   ----------------------------------------
        BYTE   W23
        BYTE                   Fn3
        BYTE   W01
// 005   ----------------------------------------
        BYTE   W24
// 006   ----------------------------------------
        BYTE   W24
// 007   ----------------------------------------
        BYTE   W24
// 008   ----------------------------------------
        BYTE   W23
        BYTE                   En3
        BYTE   W01
// 009   ----------------------------------------
        BYTE   W24
// 010   ----------------------------------------
        BYTE   W24
// 011   ----------------------------------------
        BYTE   W24
// 012   ----------------------------------------
        BYTE   PATT
         POIN2  ShakingFrontSight_000_9_23
// 013   ----------------------------------------
        BYTE   W24
// 014   ----------------------------------------
        BYTE   W24
// 015   ----------------------------------------
        BYTE   W24
// 016   ----------------------------------------
        BYTE   W23
        BYTE           N48     En3   v100
        BYTE   W01
// 017   ----------------------------------------
        BYTE   W24
// 018   ----------------------------------------
        BYTE   PATT
         POIN2  ShakingFrontSight_000_9_101
// 019   ----------------------------------------
        BYTE   W23
        BYTE           N24     Dn4   v100
        BYTE   W01
// 020   ----------------------------------------
        BYTE   W23
        BYTE           N72     Cn4
        BYTE   W01
// 021   ----------------------------------------
        BYTE   W24
// 022   ----------------------------------------
        BYTE   W24
// 023   ----------------------------------------
        BYTE   W23
        BYTE           N12     An3
        BYTE   W01
// 024   ----------------------------------------
        BYTE   W11
        BYTE                   Gn3
        BYTE   W12
        BYTE           N36     Bn3
        BYTE   W01
// 025   ----------------------------------------
        BYTE   W24
// 026   ----------------------------------------
        BYTE   W11
        BYTE           N12     En3
        BYTE   W12
        BYTE           N18     Fs3
        BYTE   W01
// 027   ----------------------------------------
        BYTE   W17
        BYTE                   An3
        BYTE   W07
// 028   ----------------------------------------
        BYTE   W11
        BYTE           N12     Bn3
        BYTE   W12
        BYTE           N92     Bn3   v100   gtp2
        BYTE   W01
// 029   ----------------------------------------
        BYTE   W24
// 030   ----------------------------------------
        BYTE   W24
// 031   ----------------------------------------
        BYTE   W24
// 032   ----------------------------------------
ShakingFrontSight_000_11_32:
        BYTE   W23
        BYTE           N10     As3   v100
        BYTE   W01
        BYTE   PEND
// 033   ----------------------------------------
        BYTE   PATT
         POIN2  ShakingFrontSight_000_11_32
// 034   ----------------------------------------
        BYTE   W24
// 035   ----------------------------------------
        BYTE   W11
        BYTE           N10     As3   v100
        BYTE   W13
// 036   ----------------------------------------
        BYTE   W24
// 037   ----------------------------------------
        BYTE   W11
        BYTE           N09
        BYTE   W12
        BYTE           N10
        BYTE   W01
// 038   ----------------------------------------
        BYTE   W24
// 039   ----------------------------------------
        BYTE   W24
// 040   ----------------------------------------
ShakingFrontSight_000_11_40:
        BYTE   W23
        BYTE           N48     Fs3   v080
        BYTE   W01
        BYTE   PEND
// 041   ----------------------------------------
        BYTE   W24
// 042   ----------------------------------------
        BYTE   PATT
         POIN2  ShakingFrontSight_000_9_52
// 043   ----------------------------------------
        BYTE   W24
// 044   ----------------------------------------
        BYTE   PATT
         POIN2  ShakingFrontSight_000_11_40
// 045   ----------------------------------------
        BYTE   W24
// 046   ----------------------------------------
        BYTE   W23
        BYTE           N48     Gn3   v080
        BYTE   W01
// 047   ----------------------------------------
        BYTE   W24
// 048   ----------------------------------------
        BYTE   W23
        BYTE           N96     Bn3
        BYTE   W01
// 049   ----------------------------------------
        BYTE   W24
// 050   ----------------------------------------
        BYTE   W24
// 051   ----------------------------------------
        BYTE   W24
// 052   ----------------------------------------
        BYTE   PATT
         POIN2  ShakingFrontSight_000_4_42
// 053   ----------------------------------------
        BYTE   W24
// 054   ----------------------------------------
        BYTE   W23
        BYTE           N44     En3   v070   gtp2
        BYTE   W01
// 055   ----------------------------------------
        BYTE   W24
// 056   ----------------------------------------
ShakingFrontSight_000_11_56:
        BYTE   W23
        BYTE           N48     Fs3   v085
        BYTE   W01
        BYTE   PEND
// 057   ----------------------------------------
        BYTE   W24
// 058   ----------------------------------------
        BYTE   PATT
         POIN2  ShakingFrontSight_000_9_68
// 059   ----------------------------------------
        BYTE   W24
// 060   ----------------------------------------
        BYTE   PATT
         POIN2  ShakingFrontSight_000_11_56
// 061   ----------------------------------------
        BYTE   W24
// 062   ----------------------------------------
        BYTE   W23
        BYTE           N48     Gn3   v085
        BYTE   W01
// 063   ----------------------------------------
        BYTE   W24
// 064   ----------------------------------------
        BYTE   W23
        BYTE           N96     Bn3
        BYTE   W01
// 065   ----------------------------------------
        BYTE   W24
// 066   ----------------------------------------
        BYTE   W24
// 067   ----------------------------------------
        BYTE   W24
// 068   ----------------------------------------
        BYTE   PATT
         POIN2  ShakingFrontSight_000_4_58
// 069   ----------------------------------------
        BYTE   W24
// 070   ----------------------------------------
        BYTE   W23
        BYTE           N24     Fs4   v085
        BYTE   W01
// 071   ----------------------------------------
        BYTE   W23
        BYTE           N22     En4
        BYTE   W01
// 072   ----------------------------------------
        BYTE   PATT
         POIN2  ShakingFrontSight_000_4_76
// 073   ----------------------------------------
        BYTE   W24
// 074   ----------------------------------------
        BYTE   PATT
         POIN2  ShakingFrontSight_000_9_84
// 075   ----------------------------------------
        BYTE   W24
// 076   ----------------------------------------
        BYTE   PATT
         POIN2  ShakingFrontSight_000_9_72
// 077   ----------------------------------------
        BYTE   W24
// 078   ----------------------------------------
ShakingFrontSight_000_11_78:
        BYTE   W23
        BYTE           N48     Gs3   v090
        BYTE   W01
        BYTE   PEND
// 079   ----------------------------------------
        BYTE   W24
// 080   ----------------------------------------
ShakingFrontSight_000_11_80:
        BYTE   W23
        BYTE           N96     Cn4   v090
        BYTE   W01
        BYTE   PEND
// 081   ----------------------------------------
        BYTE   W24
// 082   ----------------------------------------
        BYTE   W24
// 083   ----------------------------------------
        BYTE   W24
// 084   ----------------------------------------
        BYTE   PATT
         POIN2  ShakingFrontSight_000_4_74
// 085   ----------------------------------------
        BYTE   W24
// 086   ----------------------------------------
        BYTE   W23
        BYTE           N44     Fn3   v080   gtp2
        BYTE   W01
// 087   ----------------------------------------
        BYTE   W24
// 088   ----------------------------------------
        BYTE   PATT
         POIN2  ShakingFrontSight_000_9_72
// 089   ----------------------------------------
        BYTE   W24
// 090   ----------------------------------------
        BYTE   PATT
         POIN2  ShakingFrontSight_000_9_84
// 091   ----------------------------------------
        BYTE   W24
// 092   ----------------------------------------
        BYTE   PATT
         POIN2  ShakingFrontSight_000_9_72
// 093   ----------------------------------------
        BYTE   W24
// 094   ----------------------------------------
        BYTE   PATT
         POIN2  ShakingFrontSight_000_11_78
// 095   ----------------------------------------
        BYTE   W24
// 096   ----------------------------------------
        BYTE   PATT
         POIN2  ShakingFrontSight_000_11_80
// 097   ----------------------------------------
        BYTE   W24
// 098   ----------------------------------------
        BYTE   W24
// 099   ----------------------------------------
        BYTE   W24
// 100   ----------------------------------------
        BYTE   PATT
         POIN2  ShakingFrontSight_000_4_102
// 101   ----------------------------------------
        BYTE   PATT
         POIN2  ShakingFrontSight_000_9_100
// 102   ----------------------------------------
        BYTE   PATT
         POIN2  ShakingFrontSight_000_9_100
// 103   ----------------------------------------
        BYTE   PATT
         POIN2  ShakingFrontSight_000_4_101
// 104   ----------------------------------------
ShakingFrontSight_000_11_104:
        BYTE   W23
        BYTE           N06     Ds4   v110
        BYTE   W01
        BYTE   PEND
// 105   ----------------------------------------
ShakingFrontSight_000_11_105:
        BYTE   W05
        BYTE           N06     Fn4   v100
        BYTE   W06
        BYTE                   Ds4
        BYTE   W06
        BYTE                   Dn4
        BYTE   W06
        BYTE           N42     Cn4
        BYTE   W01
        BYTE   PEND
// 106   ----------------------------------------
        BYTE   W24
// 107   ----------------------------------------
ShakingFrontSight_000_11_107:
        BYTE   W23
        BYTE           N12     Gs3   v110
        BYTE   W01
        BYTE   PEND
// 108   ----------------------------------------
        BYTE   W11
        BYTE                   Cn4
        BYTE   W12
        BYTE           N06     Dn4
        BYTE   W01
// 109   ----------------------------------------
        BYTE   W05
        BYTE                   Ds4   v100
        BYTE   W06
        BYTE                   Dn4
        BYTE   W06
        BYTE                   Cn4
        BYTE   W06
        BYTE           N30     As3
        BYTE   W01
// 110   ----------------------------------------
        BYTE   W24
// 111   ----------------------------------------
        BYTE   W11
        BYTE           N12     Dn4   v110
        BYTE   W12
        BYTE                   As4
        BYTE   W01
// 112   ----------------------------------------
        BYTE   W11
        BYTE                   Dn4
        BYTE   W12
        BYTE           N06     Ds3
        BYTE   W01
// 113   ----------------------------------------
        BYTE   W05
        BYTE                   Dn3
        BYTE   W06
        BYTE                   Ds3
        BYTE   W06
        BYTE           N15     Gn3
        BYTE   W07
// 114   ----------------------------------------
        BYTE   W11
        BYTE           N06
        BYTE   W06
        BYTE                   Fn3
        BYTE   W06
        BYTE                   Gn3
        BYTE   W01
// 115   ----------------------------------------
        BYTE   W05
        BYTE           N15     Cn4
        BYTE   W18
        BYTE           N06     Gn3
        BYTE   W01
// 116   ----------------------------------------
        BYTE   W05
        BYTE                   Gs3
        BYTE   W06
        BYTE           N12     As3
        BYTE   W12
        BYTE           N20     Cn4   v105
        BYTE   W01
// 117   ----------------------------------------
        BYTE   PATT
         POIN2  ShakingFrontSight_000_4_119
// 118   ----------------------------------------
        BYTE   W23
        BYTE           N20     Gs3   v105
        BYTE   W01
// 119   ----------------------------------------
        BYTE   W23
        BYTE                   Dn3
        BYTE   W01
// 120   ----------------------------------------
        BYTE   PATT
         POIN2  ShakingFrontSight_000_11_104
// 121   ----------------------------------------
        BYTE   PATT
         POIN2  ShakingFrontSight_000_11_105
// 122   ----------------------------------------
        BYTE   W24
// 123   ----------------------------------------
        BYTE   PATT
         POIN2  ShakingFrontSight_000_11_107
// 124   ----------------------------------------
        BYTE   W11
        BYTE           N12     Cn4   v110
        BYTE   W12
        BYTE           N06     Gn4
        BYTE   W01
// 125   ----------------------------------------
        BYTE   W05
        BYTE                   Gs4   v100
        BYTE   W06
        BYTE                   Gn4
        BYTE   W06
        BYTE                   Fn4
        BYTE   W06
        BYTE           N42     As3
        BYTE   W01
// 126   ----------------------------------------
        BYTE   W24
// 127   ----------------------------------------
        BYTE   W23
        BYTE           N12     Gn3   v110
        BYTE   W01
// 128   ----------------------------------------
        BYTE   W11
        BYTE                   As3
        BYTE   W12
        BYTE           N48     Cn3   v100
        BYTE   W01
// 129   ----------------------------------------
        BYTE   W24
// 130   ----------------------------------------
        BYTE   W23
        BYTE           N18     Gs2
        BYTE   W01
// 131   ----------------------------------------
        BYTE   W23
        BYTE                   Cn3
        BYTE   W01
// 132   ----------------------------------------
        BYTE   W23
        BYTE           N48     Bn2   v115
        BYTE   W01
// 133   ----------------------------------------
        BYTE   W24
// 134   ----------------------------------------
        BYTE   W23
        BYTE           N18     Gs2
        BYTE   W01
// 135   ----------------------------------------
        BYTE   W23
        BYTE                   Bn2
        BYTE   W01
// 136   ----------------------------------------
        BYTE   W23
        BYTE           N24     En3   v075
        BYTE   W01
// 137   ----------------------------------------
        BYTE   W23
        BYTE                   An3
        BYTE   W01
// 138   ----------------------------------------
        BYTE   PATT
         POIN2  ShakingFrontSight_000_9_150
// 139   ----------------------------------------
        BYTE   W23
        BYTE           N24     Cn3   v075
        BYTE   W01
// 140   ----------------------------------------
        BYTE   W23
        BYTE           N06     Dn3   v090
        BYTE   W01
// 141   ----------------------------------------
        BYTE   W05
        BYTE                   Cn3   v080
        BYTE   W06
        BYTE           N12     Dn3
        BYTE   W12
        BYTE           N48     Gs3   v075
        BYTE   W01
// 142   ----------------------------------------
        BYTE   W24
// 143   ----------------------------------------
        BYTE   W23
        BYTE           N12     Gn3
        BYTE   W01
// 144   ----------------------------------------
        BYTE   W11
        BYTE                   Fn3
        BYTE   W12
        BYTE           N24
        BYTE   W01
// 145   ----------------------------------------
        BYTE   W23
        BYTE                   Cn4
        BYTE   W01
// 146   ----------------------------------------
        BYTE   W23
        BYTE           N48     An3
        BYTE   W01
// 147   ----------------------------------------
        BYTE   W24
// 148   ----------------------------------------
        BYTE   W23
        BYTE           N10     Fn3   v080
        BYTE   W01
// 149   ----------------------------------------
        BYTE   W11
        BYTE           N06     Fn3   v090
        BYTE   W06
        BYTE                   En3   v080
        BYTE   W06
        BYTE           N48     Fn3   v075
        BYTE   W01
// 150   ----------------------------------------
        BYTE   W24
// 151   ----------------------------------------
        BYTE   W23
        BYTE           N24     Fs3
        BYTE   W01
// 152   ----------------------------------------
        BYTE   W23
        BYTE           N48     Gn3   v095
        BYTE   W01
// 153   ----------------------------------------
        BYTE   W24
// 154   ----------------------------------------
        BYTE   PATT
         POIN2  ShakingFrontSight_000_4_136
// 155   ----------------------------------------
        BYTE   W23
        BYTE           N24     Bn3   v095
        BYTE   W01
// 156   ----------------------------------------
        BYTE   W23
        BYTE           N48     Dn3
        BYTE   W01
// 157   ----------------------------------------
        BYTE   W24
// 158   ----------------------------------------
        BYTE   W23
        BYTE           N12
        BYTE   W01
// 159   ----------------------------------------
        BYTE   W11
        BYTE                   Fn3
        BYTE   W12
        BYTE                   Bn3
        BYTE   W01
// 160   ----------------------------------------
        BYTE   W11
        BYTE                   Dn4
        BYTE   W12
        BYTE           N48     As3
        BYTE   W01
// 161   ----------------------------------------
        BYTE   W24
// 162   ----------------------------------------
        BYTE   W23
        BYTE           N24     Cn4
        BYTE   W01
// 163   ----------------------------------------
        BYTE   W23
        BYTE                   Dn4
        BYTE   W01
// 164   ----------------------------------------
        BYTE   W23
        BYTE           N48     Fn3
        BYTE   W01
// 165   ----------------------------------------
        BYTE   W24
// 166   ----------------------------------------
        BYTE   W23
        BYTE           N12
        BYTE   W01
// 167   ----------------------------------------
        BYTE   W11
        BYTE                   Gs3
        BYTE   W12
        BYTE                   Dn4
        BYTE   W01
// 168   ----------------------------------------
        BYTE   W11
        BYTE                   Fn4
        BYTE   W12
        BYTE           N92     Ds4   v090   gtp1
        BYTE   W01
// 169   ----------------------------------------
        BYTE   W24
// 170   ----------------------------------------
        BYTE   W24
// 171   ----------------------------------------
        BYTE   W24
// 172   ----------------------------------------
        BYTE   W23
        BYTE                   Cn4   v080
        BYTE   W01
// 173   ----------------------------------------
        BYTE   W24
// 174   ----------------------------------------
        BYTE   W24
// 175   ----------------------------------------
        BYTE   W24
// 176   ----------------------------------------
        BYTE   W23
        BYTE                   Cs4   v070
        BYTE   W01
// 177   ----------------------------------------
        BYTE   W24
// 178   ----------------------------------------
        BYTE   W24
// 179   ----------------------------------------
        BYTE   W24
// 180   ----------------------------------------
        BYTE   W23
        BYTE           N96     Dn4   v060
        BYTE   W01
// 181   ----------------------------------------
        BYTE   W24
// 182   ----------------------------------------
        BYTE   W24
// 183   ----------------------------------------
        BYTE   W24
// 184   ----------------------------------------
        BYTE   PATT
         POIN2  ShakingFrontSight_000_4_192
// 185   ----------------------------------------
        BYTE   W24
// 186   ----------------------------------------
        BYTE   W24
// 187   ----------------------------------------
        BYTE   W24
// 188   ----------------------------------------
        BYTE   W23
        BYTE           N48     An3   v055
        BYTE   W01
// 189   ----------------------------------------
        BYTE   W24
// 190   ----------------------------------------
        BYTE   W23
        BYTE                   Fs3   v050
        BYTE   W01
// 191   ----------------------------------------
        BYTE   W24
// 192   ----------------------------------------
        BYTE   W23
        BYTE           N96     Dn3   v055
        BYTE   W01
// 193   ----------------------------------------
        BYTE   W24
// 194   ----------------------------------------
        BYTE   W24
// 195   ----------------------------------------
        BYTE   W24
// 196   ----------------------------------------
        BYTE   W23
        BYTE                   As2
        BYTE   W01
// 197   ----------------------------------------
        BYTE   W24
// 198   ----------------------------------------
        BYTE   W24
// 199   ----------------------------------------
        BYTE   W24
// 200   ----------------------------------------
ShakingFrontSight_000_11_200:
        BYTE   W23
        BYTE           N66     Bn2   v050
        BYTE   W01
        BYTE   PEND
// 201   ----------------------------------------
        BYTE   W24
// 202   ----------------------------------------
        BYTE   W24
// 203   ----------------------------------------
        BYTE   W24
// 204   ----------------------------------------
        BYTE   PATT
         POIN2  ShakingFrontSight_000_11_200
// 205   ----------------------------------------
        BYTE   W24
// 206   ----------------------------------------
        BYTE   W24
// 207   ----------------------------------------
        BYTE   W24
// 208   ----------------------------------------
        BYTE   W23
        BYTE           TIE     Bn2   v050
        BYTE   W01
// 209   ----------------------------------------
        BYTE   W24
// 210   ----------------------------------------
        BYTE   W24
// 211   ----------------------------------------
        BYTE   W24
// 212   ----------------------------------------
        BYTE   W24
// 213   ----------------------------------------
        BYTE   W05
        BYTE           EOT
        BYTE   W19
// 214   ----------------------------------------
        BYTE   W24
// 215   ----------------------------------------
        BYTE   W24
// 216   ----------------------------------------
        BYTE   W24
// 217   ----------------------------------------
        BYTE   GoTo
         POIN2  ShakingFrontSight_000_11_LOOP
        BYTE   FINE


//********************** End of Song ***********************//

        ALIGN 4
ShakingFrontSight_000:
        BYTE   12                      // Num Tracks
        BYTE   0                       // Unknown
        BYTE   ShakingFrontSight_000_pri // Priority
        BYTE   ShakingFrontSight_000_rev // Reverb

        POIN2   ShakingFrontSight_000_grp

        POIN2   ShakingFrontSight_000_0
        POIN2   ShakingFrontSight_000_1
        POIN2   ShakingFrontSight_000_2
        POIN2   ShakingFrontSight_000_3
        POIN2   ShakingFrontSight_000_4
        POIN2   ShakingFrontSight_000_5
        POIN2   ShakingFrontSight_000_6
        POIN2   ShakingFrontSight_000_7
        POIN2   ShakingFrontSight_000_8
        POIN2   ShakingFrontSight_000_9
        POIN2   ShakingFrontSight_000_10
        POIN2   ShakingFrontSight_000_11

        
