//Event file generated from Sappy .s format.
        #include "MPlayDef.event"

        #define    shiver000_grp  voicegroup000
        #define    shiver000_pri  0
        #define    shiver000_rev  0
        #define    shiver000_key  0

        // .rodata
        // shiver000
        ALIGN 4

//****************** Track 0 (Midi-Chn.1) ******************//

shiver000_0:
        BYTE   KEYSH   shiver000_key+0
// 000   ----------------------------------------
        BYTE   TEMPO   180/2
shiver000_0_LOOP:
        BYTE           VOICE   122
        BYTE           VOL     30
        BYTE           N05     Cn1   v116
        BYTE           N02     Gs1   v105
        BYTE           N92     Cs2   v110   gtp3
        BYTE   W23
        BYTE           N01     Dn1   v127
        BYTE           N14     Fn1   v114
        BYTE   W01
        BYTE           N02     Gs1   v105
        BYTE   W23
        BYTE                   Gs1   v098
        BYTE           N03     Cn1   v121
        BYTE           N14     Fn1   v118
        BYTE   W12
        BYTE           N03     Cn1   v127
        BYTE   W12
        BYTE                   Gs1   v095
        BYTE           N03     Dn1   v127
        BYTE           N15     Fn1   v114
        BYTE   W12
        BYTE           N03     Cn1   v125
        BYTE   W11
        BYTE           N01     Gs1   v094
        BYTE   W01
        BYTE                   Cn1   v114
        BYTE           N12     Fn1   v117
        BYTE   W01
// 001   ----------------------------------------
shiver000_0_1:
        BYTE   W23
        BYTE           N03     Gs1   v094
        BYTE           N15     Fn1   v116
        BYTE           N01     Dn1   v127
        BYTE   W24
        BYTE           N02     Gs1   v102
        BYTE           N03     Cn1   v127
        BYTE           N15     Fn1   v117
        BYTE   W12
        BYTE           N03     Cn1   v118
        BYTE   W12
        BYTE           N02     Gs1   v090
        BYTE           N03     Dn1   v127
        BYTE           N15     Fn1   v105
        BYTE   W24
        BYTE   W01
        BYTE   PEND
// 002   ----------------------------------------
shiver000_0_2:
        BYTE           N02     Cn1   v116
        BYTE           N14     Fn1   v108
        BYTE           N02     Gs1   v095
        BYTE   W23
        BYTE                   Gs1   v091
        BYTE   W01
        BYTE                   Dn1   v126
        BYTE           N14     Fn1   v121
        BYTE   W24
        BYTE           N01     Cn1   v127
        BYTE           N14     Fn1   v107
        BYTE           N02     Gs1   v099
        BYTE   W12
        BYTE                   Cn1   v117
        BYTE   W11
        BYTE           N03     Gs1   v090
        BYTE   W01
        BYTE           N02     Dn1   v127
        BYTE           N14     Fn1   v118
        BYTE   W06
        BYTE           N01     Cn1   v121
        BYTE   W12
        BYTE                   Cn1   v116
        BYTE   W06
        BYTE   PEND
// 003   ----------------------------------------
shiver000_0_3:
        BYTE           N02     Cn1   v127
        BYTE           N14     Fn1   v112
        BYTE   W23
        BYTE           N02     Gs1   v093
        BYTE   W01
        BYTE                   Dn1   v127
        BYTE           N14     Fn1   v105
        BYTE   W23
        BYTE           N03     Cn1   v127
        BYTE   W01
        BYTE           N14     Fn1   v112
        BYTE           N03     Gs1   v101
        BYTE   W11
        BYTE           N01     Cn1   v117
        BYTE   W12
        BYTE           N02     Gs1   v102
        BYTE           N15     Fn1   v106
        BYTE           N03     Dn1   v127
        BYTE   W24
        BYTE           N01     Cn1
        BYTE           N12     Fn1   v113
        BYTE   W01
        BYTE   PEND
// 004   ----------------------------------------
shiver000_0_4:
        BYTE           N02     Gs1   v105
        BYTE   W23
        BYTE           N01     Dn1   v127
        BYTE           N14     Fn1   v114
        BYTE   W01
        BYTE           N02     Gs1   v105
        BYTE   W23
        BYTE                   Gs1   v098
        BYTE           N03     Cn1   v121
        BYTE           N14     Fn1   v118
        BYTE   W12
        BYTE           N03     Cn1   v127
        BYTE   W12
        BYTE                   Gs1   v095
        BYTE           N03     Dn1   v127
        BYTE           N15     Fn1   v114
        BYTE   W12
        BYTE           N03     Cn1   v125
        BYTE   W11
        BYTE           N01     Gs1   v094
        BYTE   W01
        BYTE                   Cn1   v114
        BYTE           N12     Fn1   v117
        BYTE   W01
        BYTE   PEND
// 005   ----------------------------------------
        BYTE   PATT
         POIN2  shiver000_0_1
// 006   ----------------------------------------
        BYTE   PATT
         POIN2  shiver000_0_2
// 007   ----------------------------------------
        BYTE   PATT
         POIN2  shiver000_0_3
// 008   ----------------------------------------
shiver000_0_8:
        BYTE           N01     Cn1   v125
        BYTE           N22     As1   v090
        BYTE   W24
        BYTE                   As1   v088
        BYTE           N02     Dn1   v127
        BYTE   W24
        BYTE           N01     Cn1   v126
        BYTE           N22     As1   v083
        BYTE   W12
        BYTE           N01     Cn1   v120
        BYTE   W12
        BYTE           N02     Dn1   v127
        BYTE           N22     As1   v091
        BYTE   W05
        BYTE           N01     Cn1   v126
        BYTE   W18
        BYTE                   Cn1   v118
        BYTE           N20     As1   v092
        BYTE   W01
        BYTE   PEND
// 009   ----------------------------------------
shiver000_0_9:
        BYTE   W23
        BYTE           N03     Dn1   v123
        BYTE   W01
        BYTE           N22     As1   v085
        BYTE   W23
        BYTE           N01     Cn1   v119
        BYTE   W01
        BYTE           N22     As1   v087
        BYTE   W12
        BYTE           N01     Cn1   v112
        BYTE   W12
        BYTE           N02     Dn1   v127
        BYTE           N22     As1   v094
        BYTE   W24
        BYTE   PEND
// 010   ----------------------------------------
shiver000_0_10:
        BYTE           N02     Cn1   v127
        BYTE           N22     As1   v080
        BYTE   W24
        BYTE           N02     Dn1   v121
        BYTE           N22     As1   v095
        BYTE   W24
        BYTE           N02     Cn1   v126
        BYTE           N22     As1   v088
        BYTE   W12
        BYTE           N01     Cn1   v121
        BYTE   W11
        BYTE           N03     Dn1   v127
        BYTE   W01
        BYTE           N22     As1   v080
        BYTE   W05
        BYTE           N03     Cn1   v117
        BYTE   W13
        BYTE           N02     Cn1   v114
        BYTE   W05
        BYTE           N01     Cn1   v118
        BYTE           N01     As1   v087
        BYTE   W01
        BYTE   PEND
// 011   ----------------------------------------
shiver000_0_11:
        BYTE           N02     Cn1   v127
        BYTE           N19     As1   v086
        BYTE   W23
        BYTE           N03     Dn1   v121
        BYTE           N23     As1   v084
        BYTE   W24
        BYTE           N01     Cn1   v121
        BYTE           N23     As1   v095
        BYTE   W12
        BYTE           N01     Cn1   v121
        BYTE   W12
        BYTE           N03     Dn1
        BYTE           N23     As1   v084
        BYTE   W24
        BYTE   W01
        BYTE   PEND
// 012   ----------------------------------------
        BYTE   PATT
         POIN2  shiver000_0_8
// 013   ----------------------------------------
        BYTE   PATT
         POIN2  shiver000_0_9
// 014   ----------------------------------------
        BYTE           N02     Cn1   v127
        BYTE           N22     As1   v080
        BYTE   W24
        BYTE           N02     Dn1   v121
        BYTE           N22     As1   v095
        BYTE   W24
        BYTE           N02     Cn1   v126
        BYTE           N22     As1   v088
        BYTE   W12
        BYTE           N01     Cn1   v121
        BYTE   W11
        BYTE           N03     Dn1   v127
        BYTE   W01
        BYTE           N22     As1   v080
        BYTE   W05
        BYTE           N03     Cn1   v117
        BYTE   W13
        BYTE           N02     Cn1   v114
        BYTE   W05
        BYTE           N01     Cn1   v118
        BYTE           N20     As1   v087
        BYTE   W01
// 015   ----------------------------------------
        BYTE           N03     Cn1   v123
        BYTE           N02     Dn1   v126
        BYTE           N02     Gs1   v109
        BYTE   W05
        BYTE           N03     Dn1   v121
        BYTE   W06
        BYTE           N06     Cn2   v111
        BYTE   W06
        BYTE                   Cn2   v109
        BYTE   W06
        BYTE           N03     Gs1   v111
        BYTE           N05     An1   v116
        BYTE   W12
        BYTE           N03     Dn1   v119
        BYTE   W06
        BYTE                   Dn1   v123
        BYTE   W06
        BYTE                   Gs1   v113
        BYTE           N06     Cn2   v112
        BYTE           N03     Cn1   v122
        BYTE   W06
        BYTE           N05     Cn2   v116
        BYTE   W06
        BYTE           N04     An1   v113
        BYTE   W06
        BYTE                   An1   v116
        BYTE   W06
        BYTE                   Fn1   v109
        BYTE           N03     Gs1   v112
        BYTE   W06
        BYTE           N19     Fn1   v113
        BYTE   W19
// 016   ----------------------------------------
shiver000_0_16:
        BYTE           N06     Cn1   v122
        BYTE           N21     As1   v104
        BYTE           TIE     Cs2   v124
        BYTE   W12
        BYTE           N08     Cn1   v127
        BYTE   W12
        BYTE           N22     As1   v094
        BYTE   W12
        BYTE           N06     Cn1   v112
        BYTE   W12
        BYTE           N10     Dn1   v127
        BYTE           N22     As1   v099
        BYTE   W24
        BYTE           N21     As1   v104
        BYTE   W13
        BYTE           N03     Cn1   v127
        BYTE   W05
        BYTE                   Cn1
        BYTE   W06
        BYTE   PEND
// 017   ----------------------------------------
shiver000_0_17:
        BYTE           N06     Cn1   v127
        BYTE           N21     As1   v099
        BYTE   W12
        BYTE           N06     Cn1   v127
        BYTE   W12
        BYTE           N21     As1   v104
        BYTE   W12
        BYTE           N05     Cn1   v127
        BYTE   W12
        BYTE           N08     Dn1
        BYTE           N22     As1   v108
        BYTE   W24
        BYTE           N07     Dn1   v127
        BYTE           N21     As1   v104
        BYTE   W23
        BYTE           EOT     Cs2
        BYTE   W01
        BYTE   PEND
// 018   ----------------------------------------
shiver000_0_18:
        BYTE           N06     Cn1   v122
        BYTE           N22     As1   v099
        BYTE   W12
        BYTE           N08     Cn1   v127
        BYTE   W12
        BYTE           N21     As1   v104
        BYTE   W12
        BYTE           N06     Cn1   v112
        BYTE   W12
        BYTE           N10     Dn1   v127
        BYTE           N22     As1   v111
        BYTE   W24
        BYTE           N21     As1   v099
        BYTE   W13
        BYTE           N03     Cn1   v127
        BYTE   W05
        BYTE                   Cn1
        BYTE   W06
        BYTE   PEND
// 019   ----------------------------------------
shiver000_0_19:
        BYTE           N06     Cn1   v127
        BYTE           N22     As1   v104
        BYTE   W12
        BYTE           N06     Cn1   v127
        BYTE   W12
        BYTE           N21     As1   v104
        BYTE   W12
        BYTE           N05     Cn1   v127
        BYTE   W12
        BYTE           N08     Dn1
        BYTE           N21     As1   v104
        BYTE   W24
        BYTE           N07     Dn1   v127
        BYTE           N21     As1   v111
        BYTE   W24
        BYTE   PEND
// 020   ----------------------------------------
shiver000_0_20:
        BYTE           N06     Cn1   v122
        BYTE           N21     As1   v104
        BYTE   W12
        BYTE           N08     Cn1   v127
        BYTE   W12
        BYTE           N22     As1   v094
        BYTE   W12
        BYTE           N06     Cn1   v112
        BYTE   W12
        BYTE           N10     Dn1   v127
        BYTE           N22     As1   v099
        BYTE   W24
        BYTE           N21     As1   v104
        BYTE   W13
        BYTE           N03     Cn1   v127
        BYTE   W05
        BYTE                   Cn1
        BYTE   W06
        BYTE   PEND
// 021   ----------------------------------------
shiver000_0_21:
        BYTE           N06     Cn1   v127
        BYTE           N21     As1   v099
        BYTE   W12
        BYTE           N06     Cn1   v127
        BYTE   W12
        BYTE           N21     As1   v104
        BYTE   W12
        BYTE           N05     Cn1   v127
        BYTE   W12
        BYTE           N08     Dn1
        BYTE           N22     As1   v108
        BYTE   W24
        BYTE           N07     Dn1   v127
        BYTE           N21     As1   v104
        BYTE   W24
        BYTE   PEND
// 022   ----------------------------------------
        BYTE   PATT
         POIN2  shiver000_0_18
// 023   ----------------------------------------
        BYTE   PATT
         POIN2  shiver000_0_19
// 024   ----------------------------------------
        BYTE   PATT
         POIN2  shiver000_0_16
// 025   ----------------------------------------
        BYTE   PATT
         POIN2  shiver000_0_17
// 026   ----------------------------------------
        BYTE   PATT
         POIN2  shiver000_0_18
// 027   ----------------------------------------
        BYTE   PATT
         POIN2  shiver000_0_19
// 028   ----------------------------------------
        BYTE   PATT
         POIN2  shiver000_0_20
// 029   ----------------------------------------
        BYTE   PATT
         POIN2  shiver000_0_21
// 030   ----------------------------------------
        BYTE   PATT
         POIN2  shiver000_0_18
// 031   ----------------------------------------
        BYTE   W05
        BYTE           N04     Cn2   v116
        BYTE   W12
        BYTE                   Cn1   v127
        BYTE   W07
        BYTE           N03     An1   v114
        BYTE   W05
        BYTE                   An1   v123
        BYTE   W12
        BYTE           N04     Cn1   v127
        BYTE   W07
        BYTE           N05     Fn1   v122
        BYTE   W05
        BYTE           N10     Fn1   v120
        BYTE   W13
        BYTE           N01     Cn1   v127
        BYTE   W05
        BYTE                   Dn1
        BYTE   W01
        BYTE           N04
        BYTE   W24
// 032   ----------------------------------------
        BYTE           N01     Cn1
        BYTE           N14     Fn1   v112
        BYTE           N92     Cs2   v110   gtp3
        BYTE   W23
        BYTE           N02     Gs1   v093
        BYTE   W01
        BYTE                   Dn1   v127
        BYTE           N14     Fn1   v105
        BYTE   W23
        BYTE           N03     Cn1   v127
        BYTE   W01
        BYTE           N14     Fn1   v112
        BYTE           N03     Gs1   v101
        BYTE   W11
        BYTE           N01     Cn1   v117
        BYTE   W12
        BYTE           N02     Gs1   v102
        BYTE           N15     Fn1   v106
        BYTE           N03     Dn1   v127
        BYTE   W24
        BYTE           N01     Cn1
        BYTE           N12     Fn1   v113
        BYTE   W01
// 033   ----------------------------------------
        BYTE   PATT
         POIN2  shiver000_0_4
// 034   ----------------------------------------
        BYTE   PATT
         POIN2  shiver000_0_1
// 035   ----------------------------------------
        BYTE   PATT
         POIN2  shiver000_0_2
// 036   ----------------------------------------
        BYTE   PATT
         POIN2  shiver000_0_3
// 037   ----------------------------------------
        BYTE   PATT
         POIN2  shiver000_0_4
// 038   ----------------------------------------
        BYTE   PATT
         POIN2  shiver000_0_1
// 039   ----------------------------------------
        BYTE           N02     Cn1   v116
        BYTE           N14     Fn1   v108
        BYTE           N02     Gs1   v095
        BYTE   W23
        BYTE                   Gs1   v091
        BYTE   W01
        BYTE                   Dn1   v126
        BYTE           N14     Fn1   v121
        BYTE   W24
        BYTE           N01     Cn1   v127
        BYTE           N12     Fn1   v107
        BYTE           N01     Gs1   v099
        BYTE   W08
        BYTE           N03     Dn1   v037
        BYTE   W04
        BYTE           N02     Dn1   v042
        BYTE   W03
        BYTE                   Dn1   v041
        BYTE   W03
        BYTE                   Dn1   v125
        BYTE   W05
        BYTE           N03     Gs1   v111
        BYTE   W01
        BYTE           N02     Dn1   v122
        BYTE   W12
        BYTE                   Dn1   v119
        BYTE   W06
        BYTE                   Cn1   v120
        BYTE   W06
// 040   ----------------------------------------
        BYTE           N01     Cn1   v127
        BYTE           N92     Cs2   v110   gtp3
        BYTE   W23
        BYTE           N03     Dn1   v121
        BYTE           N23     As1   v084
        BYTE   W24
        BYTE           N01     Cn1   v121
        BYTE           N23     As1   v095
        BYTE   W12
        BYTE           N01     Cn1   v121
        BYTE   W12
        BYTE           N03     Dn1
        BYTE           N23     As1   v084
        BYTE   W24
        BYTE   W01
// 041   ----------------------------------------
        BYTE   PATT
         POIN2  shiver000_0_8
// 042   ----------------------------------------
        BYTE   PATT
         POIN2  shiver000_0_9
// 043   ----------------------------------------
        BYTE   PATT
         POIN2  shiver000_0_10
// 044   ----------------------------------------
        BYTE   PATT
         POIN2  shiver000_0_11
// 045   ----------------------------------------
        BYTE           N01     Cn1   v125
        BYTE           N22     As1   v090
        BYTE   W24
        BYTE                   As1   v088
        BYTE           N02     Dn1   v127
        BYTE   W24
        BYTE           N01     Cn1   v126
        BYTE           N22     As1   v083
        BYTE   W12
        BYTE           N01     Cn1   v120
        BYTE   W12
        BYTE           N02     Dn1   v127
        BYTE           N22     As1   v091
        BYTE   W05
        BYTE           N01     Cn1   v126
        BYTE   W18
        BYTE                   Cn1   v118
        BYTE           N04     As1   v092
        BYTE   W01
// 046   ----------------------------------------
        BYTE           N01     Dn1   v127
        BYTE           N02     Gs1
        BYTE   W01
        BYTE           N03     Dn1   v121
        BYTE   W02
        BYTE           N16     As1   v026
        BYTE   W04
        BYTE           N03     Cn2   v127
        BYTE   W06
        BYTE                   Cn2
        BYTE   W06
        BYTE           N02     An1
        BYTE   W05
        BYTE                   Gs1
        BYTE   W01
        BYTE                   An1
        BYTE   W21
        BYTE           N01     Dn1
        BYTE   W01
        BYTE           N03     Gs1
        BYTE   W01
        BYTE           N02     Dn1
        BYTE           N22     As1   v027
        BYTE   W05
        BYTE           N03     Cn2   v125
        BYTE   W06
        BYTE                   Cn2   v089
        BYTE   W06
        BYTE                   An1   v127
        BYTE   W06
        BYTE                   An1
        BYTE           N03     Gs1
        BYTE   W06
        BYTE           N06     Fn1
        BYTE   W06
        BYTE                   Fn1   v096
        BYTE   W06
        BYTE           N03     Fn1   v127
        BYTE   W07
// 047   ----------------------------------------
        BYTE                   Cn2   v120
        BYTE   W05
        BYTE           N04     Cn2   v116
        BYTE   W12
        BYTE                   Cn1   v127
        BYTE   W07
        BYTE           N03     An1   v114
        BYTE   W05
        BYTE                   An1   v123
        BYTE   W12
        BYTE           N04     Cn1   v127
        BYTE   W07
        BYTE           N05     Fn1   v122
        BYTE   W05
        BYTE           N10     Fn1   v120
        BYTE   W13
        BYTE           N01     Cn1   v127
        BYTE   W05
        BYTE                   Dn1
        BYTE   W01
        BYTE           N04
        BYTE   W24
// 048   ----------------------------------------
        BYTE   PATT
         POIN2  shiver000_0_16
// 049   ----------------------------------------
        BYTE   PATT
         POIN2  shiver000_0_17
// 050   ----------------------------------------
        BYTE   PATT
         POIN2  shiver000_0_18
// 051   ----------------------------------------
        BYTE   PATT
         POIN2  shiver000_0_19
// 052   ----------------------------------------
        BYTE   PATT
         POIN2  shiver000_0_20
// 053   ----------------------------------------
        BYTE   PATT
         POIN2  shiver000_0_21
// 054   ----------------------------------------
        BYTE   PATT
         POIN2  shiver000_0_18
// 055   ----------------------------------------
        BYTE   PATT
         POIN2  shiver000_0_19
// 056   ----------------------------------------
        BYTE   PATT
         POIN2  shiver000_0_16
// 057   ----------------------------------------
        BYTE   PATT
         POIN2  shiver000_0_17
// 058   ----------------------------------------
        BYTE   PATT
         POIN2  shiver000_0_18
// 059   ----------------------------------------
        BYTE   PATT
         POIN2  shiver000_0_19
// 060   ----------------------------------------
        BYTE   PATT
         POIN2  shiver000_0_20
// 061   ----------------------------------------
        BYTE   PATT
         POIN2  shiver000_0_21
// 062   ----------------------------------------
        BYTE   PATT
         POIN2  shiver000_0_18
// 063   ----------------------------------------
        BYTE           N01     Cn1   v121
        BYTE           N01     Cs2   v084
        BYTE           N22     As1   v091
        BYTE   W12
        BYTE           N01     Cn1   v124
        BYTE   W11
        BYTE                   Dn1   v127
        BYTE   W01
        BYTE           N22     As1   v082
        BYTE   W11
        BYTE           N03     Cn1   v125
        BYTE   W12
        BYTE                   Cn1
        BYTE           N23     As1   v088
        BYTE   W24
        BYTE           N03     Dn1   v127
        BYTE           N23     As1   v092
        BYTE   W16
        BYTE           N03     Cn1   v100
        BYTE   W04
        BYTE                   Cn1   v118
        BYTE   W05
// 064   ----------------------------------------
shiver000_0_64:
        BYTE           N05     Cn1   v127
        BYTE           TIE     Cs2   v124
        BYTE   W12
        BYTE           N05     Cn1
        BYTE   W12
        BYTE                   Cn1
        BYTE   W12
        BYTE                   Cn1
        BYTE   W12
        BYTE                   Cn1
        BYTE   W12
        BYTE                   Cn1
        BYTE   W12
        BYTE                   Cn1   v125
        BYTE   W12
        BYTE                   Cn1
        BYTE   W12
        BYTE   PEND
// 065   ----------------------------------------
shiver000_0_65:
        BYTE           N05     Cn1   v125
        BYTE   W12
        BYTE                   Cn1
        BYTE   W12
        BYTE                   Cn1
        BYTE   W12
        BYTE                   Cn1
        BYTE   W12
        BYTE                   Cn1
        BYTE   W12
        BYTE                   Cn1
        BYTE   W12
        BYTE                   Cn1
        BYTE   W12
        BYTE                   Cn1   v126
        BYTE   W11
        BYTE           EOT     Cs2
        BYTE   W01
        BYTE   PEND
// 066   ----------------------------------------
        BYTE           N05     Cn1
        BYTE   W12
        BYTE                   Cn1
        BYTE   W12
        BYTE                   Cn1
        BYTE           N36     Bn1   v102   gtp1
        BYTE   W02
        BYTE           N32     Cn2   v124   gtp2
        BYTE   W10
        BYTE           N05     Cn1   v126
        BYTE   W12
        BYTE                   Cn1
        BYTE   W12
        BYTE                   Cn1
        BYTE           N32     An1   v121   gtp2
        BYTE   W12
        BYTE           N05     Cn1   v126
        BYTE   W12
        BYTE                   Cn1
        BYTE           N36     Bn1
        BYTE   W02
        BYTE           N32     Cn2   v112   gtp3
        BYTE   W10
// 067   ----------------------------------------
        BYTE           N05     Cn1   v124
        BYTE   W12
        BYTE                   Cn1
        BYTE           N32     An1   v124   gtp2
        BYTE   W12
        BYTE           N05     Cn1
        BYTE   W12
        BYTE                   Cn1
        BYTE           N36     Fn1   v127   gtp1
        BYTE   W12
        BYTE           N05     Cn1   v124
        BYTE   W12
        BYTE                   Cn1   v125
        BYTE           N04     Dn1   v104
        BYTE   W12
        BYTE           N05     Cn1   v127
        BYTE           N06     Dn1
        BYTE           N32     An1   v126   gtp3
        BYTE   W12
        BYTE           N05     Cn1   v125
        BYTE   W12
// 068   ----------------------------------------
        BYTE   PATT
         POIN2  shiver000_0_64
// 069   ----------------------------------------
        BYTE   PATT
         POIN2  shiver000_0_65
// 070   ----------------------------------------
        BYTE           N05     Cn1   v126
        BYTE   W12
        BYTE                   Cn1
        BYTE   W12
        BYTE                   Cn1
        BYTE   W12
        BYTE                   Cn1
        BYTE   W12
        BYTE                   Cn1
        BYTE   W12
        BYTE                   Cn1
        BYTE   W12
        BYTE                   Cn1
        BYTE   W12
        BYTE                   Cn1
        BYTE   W12
// 071   ----------------------------------------
        BYTE                   Cn1   v124
        BYTE   W02
        BYTE           N03     Dn1   v127
        BYTE   W06
        BYTE           N02
        BYTE   W04
        BYTE           N05     Cn1   v124
        BYTE   W03
        BYTE           N03     Dn1   v127
        BYTE   W08
        BYTE                   Gs1   v123
        BYTE           N07     Cn2   v113
        BYTE   W01
        BYTE           N05     Cn1   v124
        BYTE   W07
        BYTE           N06     Cn2   v113
        BYTE   W05
        BYTE           N05     Cn1   v124
        BYTE   W03
        BYTE           N06     Cn2   v123
        BYTE   W08
        BYTE           N07     An1   v118
        BYTE   W01
        BYTE           N05     Cn1   v124
        BYTE           N02     Gs1   v123
        BYTE   W07
        BYTE           N06     An1   v116
        BYTE   W05
        BYTE           N05     Cn1   v125
        BYTE   W03
        BYTE           N30     An1   v117
        BYTE   W08
        BYTE           N07     Fn1
        BYTE   W01
        BYTE           N05     Cn1   v125
        BYTE           N02     Gs1   v120
        BYTE   W07
        BYTE           N07     Fn1   v122
        BYTE   W05
        BYTE           N05     Cn1   v125
        BYTE   W03
        BYTE           N15     Fn1   v117
        BYTE   W09
// 072   ----------------------------------------
        BYTE           N01     Cn1   v127
        BYTE           N19     As1   v083
        BYTE           N01     Cs2   v110
        BYTE   W11
        BYTE                   Cn1   v118
        BYTE   W12
        BYTE           N03     Dn1   v127
        BYTE           N23     As1   v091
        BYTE   W12
        BYTE           N03     Cn1   v114
        BYTE   W12
        BYTE           N01     Cn1   v126
        BYTE           N23     As1   v085
        BYTE   W24
        BYTE           N03     Dn1   v127
        BYTE           N23     As1   v083
        BYTE   W24
        BYTE   W01
// 073   ----------------------------------------
shiver000_0_73:
        BYTE           N22     As1   v089
        BYTE           N01     Cn1   v125
        BYTE   W12
        BYTE                   Cn1   v122
        BYTE   W12
        BYTE           N02     Dn1   v127
        BYTE           N22     As1   v088
        BYTE   W11
        BYTE           N03     Cn1   v122
        BYTE   W12
        BYTE                   Cn1   v120
        BYTE           N23     As1   v086
        BYTE   W24
        BYTE   W01
        BYTE           N03     Dn1   v120
        BYTE           N22     As1   v086
        BYTE   W24
        BYTE   PEND
// 074   ----------------------------------------
shiver000_0_74:
        BYTE           N01     Cn1   v115
        BYTE           N22     As1   v088
        BYTE   W12
        BYTE           N01     Cn1   v114
        BYTE   W12
        BYTE           N02     Dn1   v123
        BYTE           N22     As1   v089
        BYTE   W11
        BYTE           N03     Cn1   v126
        BYTE   W13
        BYTE           N22     As1   v092
        BYTE           N01     Cn1   v127
        BYTE   W24
        BYTE           N02     Dn1
        BYTE           N22     As1   v092
        BYTE   W24
        BYTE   PEND
// 075   ----------------------------------------
        BYTE                   As1   v088
        BYTE           N01     Cn1   v119
        BYTE   W12
        BYTE                   Cn1   v118
        BYTE   W12
        BYTE           N02     Dn1   v122
        BYTE           N22     As1   v090
        BYTE   W11
        BYTE           N03     Cn1   v115
        BYTE   W12
        BYTE           N01     Cn1   v121
        BYTE           N23     As1   v088
        BYTE   W24
        BYTE   W01
        BYTE           N02     Dn1   v126
        BYTE           N22     As1   v085
        BYTE   W24
// 076   ----------------------------------------
        BYTE           N01     Cn1   v127
        BYTE           N21     As1   v083
        BYTE   W11
        BYTE           N01     Cn1   v118
        BYTE   W12
        BYTE           N03     Dn1   v127
        BYTE           N23     As1   v091
        BYTE   W12
        BYTE           N03     Cn1   v114
        BYTE   W12
        BYTE           N01     Cn1   v126
        BYTE           N23     As1   v085
        BYTE   W24
        BYTE           N03     Dn1   v127
        BYTE           N23     As1   v083
        BYTE   W24
        BYTE   W01
// 077   ----------------------------------------
        BYTE   PATT
         POIN2  shiver000_0_73
// 078   ----------------------------------------
        BYTE   PATT
         POIN2  shiver000_0_74
// 079   ----------------------------------------
        BYTE           N03     Cn1   v123
        BYTE           N02     Dn1   v126
        BYTE           N02     Gs1   v109
        BYTE   W05
        BYTE           N03     Dn1   v121
        BYTE   W06
        BYTE           N05     Cn2   v111
        BYTE   W06
        BYTE                   Cn2   v109
        BYTE   W06
        BYTE           N03     Gs1   v111
        BYTE           N06     An1   v116
        BYTE   W12
        BYTE           N03     Dn1   v119
        BYTE   W06
        BYTE                   Dn1   v123
        BYTE   W06
        BYTE                   Gs1   v113
        BYTE           N05     Cn2   v112
        BYTE           N03     Cn1   v122
        BYTE   W06
        BYTE           N05     Cn2   v116
        BYTE   W06
        BYTE                   An1   v113
        BYTE   W06
        BYTE                   An1   v116
        BYTE   W06
        BYTE                   Fn1   v109
        BYTE           N03     Gs1   v112
        BYTE   W06
        BYTE           N14     Fn1   v113
        BYTE   W19
// 080   ----------------------------------------
        BYTE           N01     Cs2   v110
        BYTE           N02     Cn1   v114
        BYTE           N22     As1   v092
        BYTE   W23
        BYTE           N03     Dn1   v120
        BYTE   W01
        BYTE           N22     As1   v088
        BYTE   W23
        BYTE           N23     As1   v083
        BYTE   W01
        BYTE           N02     Cn1   v117
        BYTE   W11
        BYTE           N03     Cn1   v121
        BYTE   W12
        BYTE                   Dn1   v120
        BYTE           N23     As1   v082
        BYTE   W24
        BYTE           N01     Cn1   v125
        BYTE           N20     As1   v092
        BYTE   W01
// 081   ----------------------------------------
shiver000_0_81:
        BYTE   W23
        BYTE           N03     Dn1   v127
        BYTE   W01
        BYTE           N22     As1   v086
        BYTE   W23
        BYTE           N03     Cn1   v125
        BYTE   W01
        BYTE           N22     As1   v082
        BYTE   W12
        BYTE           N03     Cn1   v115
        BYTE   W11
        BYTE                   Dn1   v123
        BYTE           N23     As1   v087
        BYTE   W24
        BYTE           N01     Cn1   v120
        BYTE   W01
        BYTE   PEND
// 082   ----------------------------------------
shiver000_0_82:
        BYTE           N22     As1   v090
        BYTE   W24
        BYTE           N02     Dn1   v121
        BYTE           N22     As1   v085
        BYTE   W24
        BYTE           N02     Cn1   v121
        BYTE           N22     As1   v084
        BYTE   W12
        BYTE           N02     Cn1   v127
        BYTE   W12
        BYTE                   Dn1
        BYTE           N22     As1   v088
        BYTE   W24
        BYTE   PEND
// 083   ----------------------------------------
        BYTE           N02     Cn1   v114
        BYTE           N22     As1   v089
        BYTE   W24
        BYTE           N02     Dn1   v127
        BYTE           N22     As1   v091
        BYTE   W24
        BYTE           N02     Cn1   v121
        BYTE           N22     As1   v090
        BYTE   W12
        BYTE           N02     Cn1   v114
        BYTE   W11
        BYTE           N03     Dn1   v126
        BYTE           N23     As1   v086
        BYTE   W24
        BYTE   W01
// 084   ----------------------------------------
        BYTE           N02     Cn1   v114
        BYTE           N22     As1   v092
        BYTE   W23
        BYTE           N03     Dn1   v120
        BYTE   W01
        BYTE           N22     As1   v088
        BYTE   W23
        BYTE           N23     As1   v083
        BYTE   W01
        BYTE           N02     Cn1   v117
        BYTE   W11
        BYTE           N03     Cn1   v121
        BYTE   W12
        BYTE                   Dn1   v120
        BYTE           N23     As1   v082
        BYTE   W24
        BYTE           N01     Cn1   v125
        BYTE           N20     As1   v092
        BYTE   W01
// 085   ----------------------------------------
        BYTE   PATT
         POIN2  shiver000_0_81
// 086   ----------------------------------------
        BYTE   PATT
         POIN2  shiver000_0_82
// 087   ----------------------------------------
        BYTE           N01     Cn1   v114
        BYTE           N20     As1   v089
        BYTE   W05
        BYTE           N03     Dn1   v127
        BYTE   W06
        BYTE                   Cn1
        BYTE   W06
        BYTE                   Cn1
        BYTE   W06
        BYTE           N04     Gs1   v120
        BYTE   W01
        BYTE           N05     Cn2
        BYTE   W05
        BYTE                   Cn2
        BYTE   W06
        BYTE           N03     Cn1   v127
        BYTE   W06
        BYTE                   Cn1
        BYTE   W06
        BYTE           N05     An1   v113
        BYTE   W01
        BYTE           N03     Gs1   v117
        BYTE   W05
        BYTE           N15     An1   v112
        BYTE   W06
        BYTE           N03     Cn1   v127
        BYTE   W06
        BYTE                   Cn1
        BYTE   W06
        BYTE           N05     Fn1   v116
        BYTE   W01
        BYTE           N03     Gs1   v115
        BYTE   W05
        BYTE           N24     Fn1   v113
        BYTE   W06
        BYTE           N03     Cn1   v126
        BYTE   W06
        BYTE                   Cn1   v127
        BYTE   W07
// 088   ----------------------------------------
        BYTE           N10
        BYTE           N10     An1   v125
        BYTE           TIE     Cs2
        BYTE   W12
        BYTE           N11     Cn1   v127
        BYTE           N11     An1   v125
        BYTE   W36
        BYTE           N09     Cn1   v127
        BYTE           N10     Fn1   v125
        BYTE           N11     An1
        BYTE   W12
        BYTE                   Cn1   v127
        BYTE           N23     Fn1   v125
        BYTE           N11     An1
        BYTE   W36
// 089   ----------------------------------------
        BYTE                   Cn1   v127
        BYTE           N10     Fn1   v125
        BYTE           N11     An1
        BYTE   W12
        BYTE                   Cn1   v127
        BYTE           N23     Fn1   v125
        BYTE           N11     An1
        BYTE   W32
        BYTE   W03
        BYTE           EOT     Cs2
        BYTE   W01
        BYTE           N02     Dn1   v111
        BYTE           N11     Cn1   v127
        BYTE           N23     Fn1   v125
        BYTE           N02     Gs1   v127
        BYTE   W23
        BYTE           N03     Dn1   v117
        BYTE   W01
        BYTE           N02     Cs2   v113
        BYTE   W24
// 090   ----------------------------------------
        BYTE           N05     Cn1   v112
        BYTE           N24     As1   v080   gtp1
        BYTE           N92     Cs2   v110   gtp3
        BYTE   W44
        BYTE   W03
        BYTE           N04     Cn1   v120
        BYTE           N23     As1   v085
        BYTE   W48
        BYTE           N01     Cn1   v115
        BYTE           N20     As1   v087
        BYTE   W01
// 091   ----------------------------------------
        BYTE   W44
        BYTE   W03
        BYTE           N04     Cn1   v127
        BYTE   W01
        BYTE           N23     As1   v088
        BYTE   W44
        BYTE   W03
        BYTE           N01     Cn1   v126
        BYTE   W01
// 092   ----------------------------------------
        BYTE           N23     As1   v088
        BYTE   W44
        BYTE   W03
        BYTE                   As1
        BYTE   W01
        BYTE           N03     Cn1   v112
        BYTE   W48
// 093   ----------------------------------------
        BYTE                   Cn1
        BYTE           N23     As1   v082
        BYTE   W48
        BYTE           N03     Cn1   v124
        BYTE           N23     As1   v089
        BYTE   W48
// 094   ----------------------------------------
shiver000_0_94:
        BYTE           N01     Dn1   v127
        BYTE           N02     Gs1
        BYTE   W02
        BYTE           N03     Dn1
        BYTE   W06
        BYTE           N02
        BYTE   W07
        BYTE           N03
        BYTE   W08
        BYTE                   Gs1   v123
        BYTE           N07     Cn2   v113
        BYTE   W08
        BYTE                   Cn2
        BYTE   W08
        BYTE                   Cn2   v123
        BYTE   W08
        BYTE                   An1   v118
        BYTE   W01
        BYTE           N02     Gs1   v123
        BYTE   W07
        BYTE           N07     An1   v116
        BYTE   W08
        BYTE                   An1   v117
        BYTE   W08
        BYTE           N08     Fn1
        BYTE   W01
        BYTE           N02     Gs1   v120
        BYTE   W07
        BYTE           N08     Fn1   v122
        BYTE   W08
        BYTE           N15     Fn1   v117
        BYTE   W09
        BYTE   PEND
// 095   ----------------------------------------
        BYTE   PATT
         POIN2  shiver000_0_94
// 096   ----------------------------------------
        BYTE   PATT
         POIN2  shiver000_0_94
// 097   ----------------------------------------
        BYTE   PATT
         POIN2  shiver000_0_94
// 098   ----------------------------------------
        BYTE           N11     Cn1   v127
        BYTE           TIE     Cs2   v126
        BYTE   W96
// 099   ----------------------------------------
        BYTE   W92
        BYTE   W03
        BYTE           EOT
        BYTE   W01
// 100   ----------------------------------------
        BYTE           N11     Cn1   v127
        BYTE           N21     As1   v104
        BYTE   W48
        BYTE           N11     Cn1   v127
        BYTE           N21     As1   v104
        BYTE   W48
// 101   ----------------------------------------
        BYTE           N11     Cn1   v127
        BYTE           N21     As1   v111
        BYTE   W24
        BYTE                   As1
        BYTE   W24
        BYTE                   As1
        BYTE   W12
        BYTE           N04     Cn1   v127
        BYTE   W11
        BYTE           N06     Dn1
        BYTE   W01
        BYTE           N21     As1   v111
        BYTE   W02
        BYTE           N05     En1   v127
        BYTE   W21
        BYTE   GoTo
         POIN2  shiver000_0_LOOP
        BYTE   FINE

//****************** Track 1 (Midi-Chn.2) ******************//

shiver000_1:
        BYTE   KEYSH   shiver000_key+0
// 000   ----------------------------------------
shiver000_1_LOOP:
        BYTE           VOICE   27
        BYTE           VOL     31
        BYTE           N05     An1   v110
        BYTE   W24
        BYTE           N11     As1
        BYTE   W12
        BYTE           N23     An1
        BYTE   W36
        BYTE           N11     Cn2
        BYTE   W12
        BYTE                   An1
        BYTE   W12
// 001   ----------------------------------------
shiver000_1_1:
        BYTE           N11     An1   v110
        BYTE   W24
        BYTE                   Cs2
        BYTE   W12
        BYTE                   An1
        BYTE   W12
        BYTE                   Dn2
        BYTE   W12
        BYTE                   An1
        BYTE   W12
        BYTE                   Ds2
        BYTE   W12
        BYTE                   An1
        BYTE   W12
        BYTE   PEND
// 002   ----------------------------------------
shiver000_1_2:
        BYTE           N05     An1   v110
        BYTE   W24
        BYTE           N11     As1
        BYTE   W12
        BYTE           N23     An1
        BYTE   W36
        BYTE           N11     Cn2
        BYTE   W12
        BYTE                   An1
        BYTE   W12
        BYTE   PEND
// 003   ----------------------------------------
        BYTE   PATT
         POIN2  shiver000_1_1
// 004   ----------------------------------------
        BYTE   PATT
         POIN2  shiver000_1_2
// 005   ----------------------------------------
        BYTE   PATT
         POIN2  shiver000_1_1
// 006   ----------------------------------------
        BYTE   PATT
         POIN2  shiver000_1_2
// 007   ----------------------------------------
        BYTE   PATT
         POIN2  shiver000_1_1
// 008   ----------------------------------------
        BYTE   PATT
         POIN2  shiver000_1_2
// 009   ----------------------------------------
        BYTE   PATT
         POIN2  shiver000_1_1
// 010   ----------------------------------------
        BYTE   PATT
         POIN2  shiver000_1_2
// 011   ----------------------------------------
        BYTE   PATT
         POIN2  shiver000_1_1
// 012   ----------------------------------------
        BYTE   PATT
         POIN2  shiver000_1_2
// 013   ----------------------------------------
        BYTE   PATT
         POIN2  shiver000_1_1
// 014   ----------------------------------------
        BYTE   PATT
         POIN2  shiver000_1_2
// 015   ----------------------------------------
        BYTE   PATT
         POIN2  shiver000_1_1
// 016   ----------------------------------------
        BYTE           TIE     Bn1   v127
        BYTE   W96
// 017   ----------------------------------------
        BYTE   W92
        BYTE   W03
        BYTE           EOT
        BYTE   W01
// 018   ----------------------------------------
        BYTE           N92     Cn2   v126   gtp3
        BYTE   W96
// 019   ----------------------------------------
        BYTE                   Gs1   v123
        BYTE   W96
// 020   ----------------------------------------
        BYTE           TIE     Bn1   v124
        BYTE   W96
// 021   ----------------------------------------
        BYTE   W92
        BYTE   W03
        BYTE           EOT
        BYTE   W01
// 022   ----------------------------------------
        BYTE           N92     Cn2   v127   gtp3
        BYTE   W96
// 023   ----------------------------------------
        BYTE                   Ds2   v126
        BYTE   W96
// 024   ----------------------------------------
        BYTE           TIE     Bn1   v127
        BYTE   W96
// 025   ----------------------------------------
        BYTE   W92
        BYTE   W03
        BYTE           EOT
        BYTE   W01
// 026   ----------------------------------------
        BYTE           N92     Cn2   v126   gtp3
        BYTE   W96
// 027   ----------------------------------------
        BYTE                   Gs1   v123
        BYTE   W96
// 028   ----------------------------------------
        BYTE           TIE     Bn1   v124
        BYTE   W96
// 029   ----------------------------------------
        BYTE   W92
        BYTE   W03
        BYTE           EOT
        BYTE   W01
// 030   ----------------------------------------
        BYTE           N92     Cn2   v127   gtp3
        BYTE   W96
// 031   ----------------------------------------
        BYTE                   Ds2   v126
        BYTE   W96
// 032   ----------------------------------------
        BYTE   PATT
         POIN2  shiver000_1_2
// 033   ----------------------------------------
        BYTE   PATT
         POIN2  shiver000_1_1
// 034   ----------------------------------------
        BYTE   PATT
         POIN2  shiver000_1_2
// 035   ----------------------------------------
        BYTE   PATT
         POIN2  shiver000_1_1
// 036   ----------------------------------------
        BYTE   PATT
         POIN2  shiver000_1_2
// 037   ----------------------------------------
        BYTE   PATT
         POIN2  shiver000_1_1
// 038   ----------------------------------------
        BYTE   PATT
         POIN2  shiver000_1_2
// 039   ----------------------------------------
        BYTE   PATT
         POIN2  shiver000_1_1
// 040   ----------------------------------------
        BYTE   PATT
         POIN2  shiver000_1_2
// 041   ----------------------------------------
        BYTE   PATT
         POIN2  shiver000_1_1
// 042   ----------------------------------------
        BYTE   PATT
         POIN2  shiver000_1_2
// 043   ----------------------------------------
        BYTE   PATT
         POIN2  shiver000_1_1
// 044   ----------------------------------------
        BYTE   PATT
         POIN2  shiver000_1_2
// 045   ----------------------------------------
        BYTE   PATT
         POIN2  shiver000_1_1
// 046   ----------------------------------------
        BYTE   PATT
         POIN2  shiver000_1_2
// 047   ----------------------------------------
        BYTE   PATT
         POIN2  shiver000_1_1
// 048   ----------------------------------------
        BYTE           TIE     Bn1   v127
        BYTE   W96
// 049   ----------------------------------------
        BYTE   W92
        BYTE   W03
        BYTE           EOT
        BYTE   W01
// 050   ----------------------------------------
        BYTE           N92     Cn2   v126   gtp3
        BYTE   W96
// 051   ----------------------------------------
        BYTE                   Gs1   v123
        BYTE   W96
// 052   ----------------------------------------
        BYTE           TIE     Bn1   v124
        BYTE   W96
// 053   ----------------------------------------
        BYTE   W92
        BYTE   W03
        BYTE           EOT
        BYTE   W01
// 054   ----------------------------------------
        BYTE           N92     Cn2   v127   gtp3
        BYTE   W96
// 055   ----------------------------------------
        BYTE                   Ds2   v126
        BYTE   W96
// 056   ----------------------------------------
        BYTE           TIE     Bn1   v127
        BYTE   W96
// 057   ----------------------------------------
        BYTE   W92
        BYTE   W03
        BYTE           EOT
        BYTE   W01
// 058   ----------------------------------------
        BYTE           N92     Cn2   v126   gtp3
        BYTE   W96
// 059   ----------------------------------------
        BYTE                   Gs1   v123
        BYTE   W96
// 060   ----------------------------------------
        BYTE           TIE     Bn1   v124
        BYTE   W96
// 061   ----------------------------------------
        BYTE   W92
        BYTE   W03
        BYTE           EOT
        BYTE   W01
// 062   ----------------------------------------
        BYTE           N92     Cn2   v127   gtp3
        BYTE   W96
// 063   ----------------------------------------
        BYTE                   Ds2   v126
        BYTE   W96
// 064   ----------------------------------------
shiver000_1_64:
        BYTE           N11     Fs1   v120
        BYTE   W36
        BYTE                   En1   v124
        BYTE   W24
        BYTE                   Fs1   v120
        BYTE   W12
        BYTE                   Gn1   v124
        BYTE   W24
        BYTE   PEND
// 065   ----------------------------------------
shiver000_1_65:
        BYTE   W12
        BYTE           N11     Fs1   v120
        BYTE   W24
        BYTE                   En1   v124
        BYTE   W24
        BYTE           N09     As1   v120
        BYTE   W12
        BYTE                   As1   v113
        BYTE   W12
        BYTE           N11     Gn1   v124
        BYTE   W12
        BYTE   PEND
// 066   ----------------------------------------
shiver000_1_66:
        BYTE           N05     Fs1   v120
        BYTE   W24
        BYTE           N11     En1   v124
        BYTE   W12
        BYTE                   Fs1
        BYTE   W24
        BYTE                   Gn1   v120
        BYTE   W12
        BYTE           N12     Gn1   v124
        BYTE   W12
        BYTE           N11     Fs1
        BYTE   W12
        BYTE   PEND
// 067   ----------------------------------------
        BYTE   W12
        BYTE           N09     En1   v120
        BYTE   W24
        BYTE                   En1   v124
        BYTE   W24
        BYTE           N10     As1   v120
        BYTE   W12
        BYTE           N11     As1   v113
        BYTE   W12
        BYTE                   Gn1   v124
        BYTE   W12
// 068   ----------------------------------------
        BYTE   PATT
         POIN2  shiver000_1_64
// 069   ----------------------------------------
        BYTE   PATT
         POIN2  shiver000_1_65
// 070   ----------------------------------------
        BYTE   PATT
         POIN2  shiver000_1_66
// 071   ----------------------------------------
        BYTE   W12
        BYTE           N09     As1   v120
        BYTE   W24
        BYTE                   Bn1   v124
        BYTE   W24
        BYTE                   Cn2   v120
        BYTE   W12
        BYTE           N11     Cs2   v113
        BYTE   W12
        BYTE                   Gn1   v124
        BYTE   W12
// 072   ----------------------------------------
shiver000_1_72:
        BYTE           N11     Fs1   v120
        BYTE   W36
        BYTE                   En1   v124
        BYTE   W24
        BYTE                   As1   v120
        BYTE   W12
        BYTE                   As1   v124
        BYTE   W12
        BYTE                   Gn1
        BYTE   W12
        BYTE   PEND
// 073   ----------------------------------------
        BYTE   PATT
         POIN2  shiver000_1_72
// 074   ----------------------------------------
        BYTE   PATT
         POIN2  shiver000_1_72
// 075   ----------------------------------------
shiver000_1_75:
        BYTE           N11     Fs1   v120
        BYTE   W12
        BYTE                   En1   v125
        BYTE   W24
        BYTE                   En1   v124
        BYTE   W24
        BYTE                   Gn1   v120
        BYTE   W12
        BYTE                   Gn1   v124
        BYTE   W12
        BYTE                   An1
        BYTE   W12
        BYTE   PEND
// 076   ----------------------------------------
        BYTE   PATT
         POIN2  shiver000_1_72
// 077   ----------------------------------------
shiver000_1_77:
        BYTE           N11     Fs1   v120
        BYTE   W36
        BYTE                   En1   v124
        BYTE   W24
        BYTE                   Cs2   v120
        BYTE   W12
        BYTE                   Cs2   v124
        BYTE   W12
        BYTE                   Gn1
        BYTE   W12
        BYTE   PEND
// 078   ----------------------------------------
        BYTE   PATT
         POIN2  shiver000_1_72
// 079   ----------------------------------------
shiver000_1_79:
        BYTE           N11     Fs1   v120
        BYTE   W12
        BYTE                   As1   v125
        BYTE   W24
        BYTE                   Bn1   v124
        BYTE   W24
        BYTE                   Cn2   v120
        BYTE   W12
        BYTE                   Cs2   v124
        BYTE   W12
        BYTE                   Gn1
        BYTE   W12
        BYTE   PEND
// 080   ----------------------------------------
        BYTE   PATT
         POIN2  shiver000_1_72
// 081   ----------------------------------------
        BYTE   PATT
         POIN2  shiver000_1_72
// 082   ----------------------------------------
        BYTE   PATT
         POIN2  shiver000_1_72
// 083   ----------------------------------------
        BYTE   PATT
         POIN2  shiver000_1_75
// 084   ----------------------------------------
        BYTE   PATT
         POIN2  shiver000_1_72
// 085   ----------------------------------------
        BYTE   PATT
         POIN2  shiver000_1_77
// 086   ----------------------------------------
        BYTE   PATT
         POIN2  shiver000_1_72
// 087   ----------------------------------------
        BYTE   PATT
         POIN2  shiver000_1_79
// 088   ----------------------------------------
        BYTE           N15     Fs1   v127
        BYTE   W96
// 089   ----------------------------------------
        BYTE   W96
// 090   ----------------------------------------
        BYTE           N44     Fs1   v127   gtp3
        BYTE   W48
        BYTE                   Cn2
        BYTE   W48
// 091   ----------------------------------------
        BYTE                   Gs1
        BYTE   W48
        BYTE                   Dn2
        BYTE   W48
// 092   ----------------------------------------
        BYTE                   Cs2
        BYTE   W48
        BYTE                   Gn1
        BYTE   W48
// 093   ----------------------------------------
        BYTE                   Cn2
        BYTE   W48
        BYTE                   Fs1
        BYTE   W48
// 094   ----------------------------------------
        BYTE           N23
        BYTE   W24
        BYTE                   Cn2
        BYTE   W24
        BYTE                   Gs1
        BYTE   W24
        BYTE                   Dn2
        BYTE   W24
// 095   ----------------------------------------
        BYTE                   Cs2
        BYTE   W24
        BYTE                   Gn1
        BYTE   W24
        BYTE                   Cn2
        BYTE   W24
        BYTE                   Fs1
        BYTE   W24
// 096   ----------------------------------------
        BYTE           N07
        BYTE   W24
        BYTE                   Cn2
        BYTE   W24
        BYTE                   Gs1
        BYTE   W24
        BYTE                   Dn2
        BYTE   W24
// 097   ----------------------------------------
        BYTE                   Dn2
        BYTE   W08
        BYTE                   Gs1
        BYTE   W08
        BYTE                   Cs2
        BYTE   W08
        BYTE                   Gn1
        BYTE   W08
        BYTE                   Cn2
        BYTE   W08
        BYTE                   Fs1
        BYTE   W08
        BYTE                   En1
        BYTE   W08
        BYTE                   Fn1
        BYTE   W08
        BYTE                   Fs1
        BYTE   W08
        BYTE                   Fs1
        BYTE   W08
        BYTE                   Gn1
        BYTE   W08
        BYTE                   Gs1
        BYTE   W08
// 098   ----------------------------------------
        BYTE           TIE     An1
        BYTE   W96
// 099   ----------------------------------------
        BYTE   W96
// 100   ----------------------------------------
        BYTE   W96
// 101   ----------------------------------------
        BYTE   W92
        BYTE   W03
        BYTE           EOT
        BYTE   GoTo
         POIN2  shiver000_1_LOOP
        BYTE   FINE

//****************** Track 2 (Midi-Chn.4) ******************//

shiver000_2:
        BYTE   KEYSH   shiver000_key+0
// 000   ----------------------------------------
shiver000_2_LOOP:
        BYTE           VOICE   39
        BYTE           PAN     c_v+17
        BYTE           VOL     30
        BYTE           N06     An2   v112
        BYTE   W12
        BYTE           N10     An2   v102
        BYTE   W12
        BYTE                   As2   v103
        BYTE   W12
        BYTE           N06     An2   v112
        BYTE   W12
        BYTE           N07     An2   v097
        BYTE   W12
        BYTE           N09     An2   v108
        BYTE   W12
        BYTE                   Cn3
        BYTE   W12
        BYTE           N07     An2   v112
        BYTE   W12
// 001   ----------------------------------------
shiver000_2_1:
        BYTE           N07     An2   v102
        BYTE   W12
        BYTE           N09     An2   v103
        BYTE   W12
        BYTE                   Cs3   v114
        BYTE   W12
        BYTE           N07     An2   v112
        BYTE   W12
        BYTE           N09     Dn3   v117
        BYTE   W12
        BYTE                   An2   v112
        BYTE   W12
        BYTE           N10     Ds3   v107
        BYTE   W12
        BYTE           N06     An2   v121
        BYTE   W12
        BYTE   PEND
// 002   ----------------------------------------
shiver000_2_2:
        BYTE           N06     An2   v112
        BYTE   W12
        BYTE           N10     An2   v102
        BYTE   W12
        BYTE                   As2   v103
        BYTE   W12
        BYTE           N06     An2   v112
        BYTE   W12
        BYTE           N07     An2   v097
        BYTE   W12
        BYTE           N09     An2   v108
        BYTE   W12
        BYTE                   Cn3
        BYTE   W12
        BYTE           N07     An2   v112
        BYTE   W12
        BYTE   PEND
// 003   ----------------------------------------
        BYTE   PATT
         POIN2  shiver000_2_1
// 004   ----------------------------------------
        BYTE   PATT
         POIN2  shiver000_2_2
// 005   ----------------------------------------
        BYTE   PATT
         POIN2  shiver000_2_1
// 006   ----------------------------------------
        BYTE   PATT
         POIN2  shiver000_2_2
// 007   ----------------------------------------
        BYTE   PATT
         POIN2  shiver000_2_1
// 008   ----------------------------------------
        BYTE   PATT
         POIN2  shiver000_2_2
// 009   ----------------------------------------
        BYTE   PATT
         POIN2  shiver000_2_1
// 010   ----------------------------------------
        BYTE   PATT
         POIN2  shiver000_2_2
// 011   ----------------------------------------
        BYTE   PATT
         POIN2  shiver000_2_1
// 012   ----------------------------------------
        BYTE   PATT
         POIN2  shiver000_2_2
// 013   ----------------------------------------
        BYTE   PATT
         POIN2  shiver000_2_1
// 014   ----------------------------------------
        BYTE   PATT
         POIN2  shiver000_2_2
// 015   ----------------------------------------
        BYTE   PATT
         POIN2  shiver000_2_1
// 016   ----------------------------------------
        BYTE   W96
// 017   ----------------------------------------
        BYTE   W96
// 018   ----------------------------------------
        BYTE   W96
// 019   ----------------------------------------
        BYTE   W96
// 020   ----------------------------------------
        BYTE   W96
// 021   ----------------------------------------
        BYTE   W96
// 022   ----------------------------------------
        BYTE   W96
// 023   ----------------------------------------
        BYTE   W96
// 024   ----------------------------------------
        BYTE   W96
// 025   ----------------------------------------
        BYTE   W96
// 026   ----------------------------------------
        BYTE   W96
// 027   ----------------------------------------
        BYTE   W96
// 028   ----------------------------------------
        BYTE   W96
// 029   ----------------------------------------
        BYTE   W96
// 030   ----------------------------------------
        BYTE   W96
// 031   ----------------------------------------
        BYTE   W96
// 032   ----------------------------------------
        BYTE   PATT
         POIN2  shiver000_2_2
// 033   ----------------------------------------
        BYTE   PATT
         POIN2  shiver000_2_1
// 034   ----------------------------------------
        BYTE   PATT
         POIN2  shiver000_2_2
// 035   ----------------------------------------
        BYTE   PATT
         POIN2  shiver000_2_1
// 036   ----------------------------------------
        BYTE   PATT
         POIN2  shiver000_2_2
// 037   ----------------------------------------
        BYTE   PATT
         POIN2  shiver000_2_1
// 038   ----------------------------------------
        BYTE   PATT
         POIN2  shiver000_2_2
// 039   ----------------------------------------
        BYTE   PATT
         POIN2  shiver000_2_1
// 040   ----------------------------------------
        BYTE   PATT
         POIN2  shiver000_2_2
// 041   ----------------------------------------
        BYTE   PATT
         POIN2  shiver000_2_1
// 042   ----------------------------------------
        BYTE   PATT
         POIN2  shiver000_2_2
// 043   ----------------------------------------
        BYTE   PATT
         POIN2  shiver000_2_1
// 044   ----------------------------------------
        BYTE   PATT
         POIN2  shiver000_2_2
// 045   ----------------------------------------
        BYTE   PATT
         POIN2  shiver000_2_1
// 046   ----------------------------------------
        BYTE   PATT
         POIN2  shiver000_2_2
// 047   ----------------------------------------
        BYTE   PATT
         POIN2  shiver000_2_1
// 048   ----------------------------------------
        BYTE   W96
// 049   ----------------------------------------
        BYTE   W96
// 050   ----------------------------------------
        BYTE   W96
// 051   ----------------------------------------
        BYTE   W96
// 052   ----------------------------------------
        BYTE   W96
// 053   ----------------------------------------
        BYTE   W96
// 054   ----------------------------------------
        BYTE   W96
// 055   ----------------------------------------
        BYTE   W96
// 056   ----------------------------------------
        BYTE   W96
// 057   ----------------------------------------
        BYTE   W96
// 058   ----------------------------------------
        BYTE   W96
// 059   ----------------------------------------
        BYTE   W96
// 060   ----------------------------------------
        BYTE   W96
// 061   ----------------------------------------
        BYTE   W96
// 062   ----------------------------------------
        BYTE   W96
// 063   ----------------------------------------
        BYTE   W96
// 064   ----------------------------------------
shiver000_2_64:
        BYTE           N05     Fs2   v123
        BYTE   W12
        BYTE                   Fs2   v109
        BYTE   W12
        BYTE           N06     Fs2   v114
        BYTE   W12
        BYTE                   En2   v112
        BYTE   W12
        BYTE           N07     En2   v124
        BYTE   W12
        BYTE           N06     Fs2   v114
        BYTE   W12
        BYTE           N05     Gn2   v117
        BYTE   W12
        BYTE                   Gn2   v112
        BYTE   W12
        BYTE   PEND
// 065   ----------------------------------------
shiver000_2_65:
        BYTE           N06     Gn2   v109
        BYTE   W12
        BYTE           N05     Fs2   v123
        BYTE   W12
        BYTE           N06     Fs2   v114
        BYTE   W12
        BYTE           N07     En2   v124
        BYTE   W12
        BYTE                   En2   v117
        BYTE   W12
        BYTE           N05     As2   v119
        BYTE   W12
        BYTE           N08
        BYTE   W12
        BYTE                   Gn2   v121
        BYTE   W12
        BYTE   PEND
// 066   ----------------------------------------
shiver000_2_66:
        BYTE           N05     Fs2   v123
        BYTE   W12
        BYTE                   Fs2   v109
        BYTE   W12
        BYTE           N06     Fn2   v114
        BYTE   W12
        BYTE                   Fs2   v112
        BYTE   W12
        BYTE           N07     Fs2   v124
        BYTE   W12
        BYTE           N06     Gn2   v114
        BYTE   W12
        BYTE           N05     Gn2   v117
        BYTE   W12
        BYTE                   Fs2   v112
        BYTE   W12
        BYTE   PEND
// 067   ----------------------------------------
        BYTE           N06     Fs2   v109
        BYTE   W12
        BYTE           N05     Fn2   v123
        BYTE   W12
        BYTE           N06     Fn2   v114
        BYTE   W12
        BYTE           N07     Fn2   v124
        BYTE   W12
        BYTE                   Fn2   v117
        BYTE   W12
        BYTE           N05     As2   v119
        BYTE   W12
        BYTE           N08
        BYTE   W12
        BYTE                   Gn2   v121
        BYTE   W12
// 068   ----------------------------------------
        BYTE   PATT
         POIN2  shiver000_2_64
// 069   ----------------------------------------
        BYTE   PATT
         POIN2  shiver000_2_65
// 070   ----------------------------------------
        BYTE   PATT
         POIN2  shiver000_2_66
// 071   ----------------------------------------
        BYTE           N06     Fs2   v109
        BYTE   W12
        BYTE           N05     As2   v123
        BYTE   W12
        BYTE           N06     As2   v114
        BYTE   W12
        BYTE           N07     Bn2   v124
        BYTE   W12
        BYTE                   Bn2   v117
        BYTE   W12
        BYTE           N05     Cn3   v119
        BYTE   W12
        BYTE           N08     Cs3
        BYTE   W12
        BYTE                   Gn2   v121
        BYTE   W12
// 072   ----------------------------------------
shiver000_2_72:
        BYTE           N05     Fs2   v123
        BYTE   W12
        BYTE                   Fs2   v113
        BYTE   W12
        BYTE           N06     Fs2   v114
        BYTE   W12
        BYTE                   En2   v123
        BYTE   W12
        BYTE           N07     En2   v115
        BYTE   W12
        BYTE           N06     As2   v127
        BYTE   W12
        BYTE           N05     As2   v122
        BYTE   W12
        BYTE                   Gn2   v118
        BYTE   W12
        BYTE   PEND
// 073   ----------------------------------------
shiver000_2_73:
        BYTE           N06     Fs2   v121
        BYTE   W12
        BYTE           N05     Fs2   v116
        BYTE   W12
        BYTE           N06     Fs2   v114
        BYTE   W12
        BYTE           N07     En2   v124
        BYTE   W12
        BYTE                   En2   v113
        BYTE   W12
        BYTE           N06     As2   v122
        BYTE   W12
        BYTE           N08     As2   v119
        BYTE   W12
        BYTE                   Gn2   v118
        BYTE   W12
        BYTE   PEND
// 074   ----------------------------------------
shiver000_2_74:
        BYTE           N05     Fs2   v123
        BYTE   W12
        BYTE                   Fs2   v113
        BYTE   W12
        BYTE           N06     Fs2   v114
        BYTE   W12
        BYTE                   Fn2   v122
        BYTE   W12
        BYTE           N07     Fn2   v115
        BYTE   W12
        BYTE           N06     As2   v126
        BYTE   W12
        BYTE           N05     As2   v124
        BYTE   W12
        BYTE                   Gn2   v112
        BYTE   W12
        BYTE   PEND
// 075   ----------------------------------------
shiver000_2_75:
        BYTE           N06     Fs2   v122
        BYTE   W12
        BYTE           N05     Fn2   v123
        BYTE   W12
        BYTE           N06     Fn2   v109
        BYTE   W12
        BYTE           N07     Fn2   v124
        BYTE   W12
        BYTE                   Fn2   v113
        BYTE   W12
        BYTE           N05     Gn2   v126
        BYTE   W12
        BYTE           N08     Gn2   v125
        BYTE   W12
        BYTE                   An2
        BYTE   W12
        BYTE   PEND
// 076   ----------------------------------------
        BYTE   PATT
         POIN2  shiver000_2_72
// 077   ----------------------------------------
shiver000_2_77:
        BYTE           N06     Fs2   v121
        BYTE   W12
        BYTE           N05     Fs2   v116
        BYTE   W12
        BYTE           N06     Fs2   v114
        BYTE   W12
        BYTE           N07     En2   v124
        BYTE   W12
        BYTE                   En2   v113
        BYTE   W12
        BYTE           N06     Cs3   v122
        BYTE   W12
        BYTE           N08     Cs3   v119
        BYTE   W12
        BYTE                   Gn2   v118
        BYTE   W12
        BYTE   PEND
// 078   ----------------------------------------
        BYTE   PATT
         POIN2  shiver000_2_74
// 079   ----------------------------------------
        BYTE           N06     Fs2   v122
        BYTE   W12
        BYTE           N05     As2   v123
        BYTE   W12
        BYTE           N06     As2   v109
        BYTE   W12
        BYTE           N07     Bn2   v124
        BYTE   W12
        BYTE                   Bn2   v113
        BYTE   W12
        BYTE           N05     Cn3   v126
        BYTE   W12
        BYTE           N08     Cs3   v125
        BYTE   W12
        BYTE                   Gn2
        BYTE   W12
// 080   ----------------------------------------
        BYTE   PATT
         POIN2  shiver000_2_72
// 081   ----------------------------------------
        BYTE   PATT
         POIN2  shiver000_2_73
// 082   ----------------------------------------
        BYTE   PATT
         POIN2  shiver000_2_74
// 083   ----------------------------------------
        BYTE   PATT
         POIN2  shiver000_2_75
// 084   ----------------------------------------
        BYTE   PATT
         POIN2  shiver000_2_72
// 085   ----------------------------------------
        BYTE   PATT
         POIN2  shiver000_2_77
// 086   ----------------------------------------
        BYTE   PATT
         POIN2  shiver000_2_74
// 087   ----------------------------------------
        BYTE           N06     Fs2   v122
        BYTE   W12
        BYTE           N05     As2   v123
        BYTE   W12
        BYTE           N06     As2   v109
        BYTE   W12
        BYTE           N07     Bn2   v124
        BYTE   W12
        BYTE                   Bn2   v113
        BYTE   W12
        BYTE           N05     Cs3   v126
        BYTE   W12
        BYTE           N08     Cs3   v125
        BYTE   W12
        BYTE                   Gn2
        BYTE   W12
// 088   ----------------------------------------
shiver000_2_88:
        BYTE           N05     Fs2   v123
        BYTE   W12
        BYTE                   Fs2   v113
        BYTE   W36
        BYTE                   Fs2   v123
        BYTE   W12
        BYTE                   Fs2   v113
        BYTE   W36
        BYTE   PEND
// 089   ----------------------------------------
        BYTE   PATT
         POIN2  shiver000_2_88
// 090   ----------------------------------------
        BYTE           N44     Fs2   v126   gtp3
        BYTE   W48
        BYTE                   Cn3   v120
        BYTE   W48
// 091   ----------------------------------------
        BYTE                   Gs2   v118
        BYTE   W48
        BYTE                   Dn3
        BYTE   W48
// 092   ----------------------------------------
        BYTE                   Cs3
        BYTE   W48
        BYTE                   Gn3   v120
        BYTE   W48
// 093   ----------------------------------------
        BYTE                   Cn4   v121
        BYTE   W48
        BYTE                   Fs3   v123
        BYTE   W48
// 094   ----------------------------------------
        BYTE           N23     Fs2   v121
        BYTE   W24
        BYTE                   Cn3
        BYTE   W24
        BYTE                   Gs2
        BYTE   W24
        BYTE                   Dn3
        BYTE   W24
// 095   ----------------------------------------
        BYTE                   Cs3
        BYTE   W24
        BYTE                   Gs2
        BYTE   W24
        BYTE                   Cn3
        BYTE   W24
        BYTE                   Fs2
        BYTE   W24
// 096   ----------------------------------------
        BYTE           N07
        BYTE   W08
        BYTE                   Fs2
        BYTE   W08
        BYTE                   Fs2
        BYTE   W08
        BYTE                   Cn3
        BYTE   W08
        BYTE                   Cn3
        BYTE   W08
        BYTE                   Cn3
        BYTE   W08
        BYTE                   Gs2
        BYTE   W08
        BYTE                   Gs2
        BYTE   W08
        BYTE                   Gs2
        BYTE   W08
        BYTE                   Dn3
        BYTE   W08
        BYTE                   Dn3
        BYTE   W08
        BYTE                   Dn3
        BYTE   W08
// 097   ----------------------------------------
        BYTE                   Dn3   v127
        BYTE   W08
        BYTE                   Gs2
        BYTE   W08
        BYTE                   Cs3
        BYTE   W08
        BYTE                   Gn2
        BYTE   W08
        BYTE                   Cn3
        BYTE   W08
        BYTE                   Fs2
        BYTE   W08
        BYTE                   En2
        BYTE   W08
        BYTE                   Fn2
        BYTE   W08
        BYTE                   Fs2
        BYTE   W08
        BYTE                   Fs2
        BYTE   W08
        BYTE                   Gn2
        BYTE   W08
        BYTE                   Gs2
        BYTE   W08
// 098   ----------------------------------------
        BYTE           TIE     An2
        BYTE   W96
// 099   ----------------------------------------
        BYTE   W96
// 100   ----------------------------------------
        BYTE   W96
// 101   ----------------------------------------
        BYTE   W78
        BYTE   W01
        BYTE           EOT
        BYTE   W16
        BYTE   GoTo
         POIN2  shiver000_2_LOOP
        BYTE   FINE

//****************** Track 3 (Midi-Chn.5) ******************//

shiver000_3:
        BYTE   KEYSH   shiver000_key+0
// 000   ----------------------------------------
shiver000_3_LOOP:
        BYTE           VOICE   83
        BYTE           VOL     26
        BYTE   W96
// 001   ----------------------------------------
        BYTE   W96
// 002   ----------------------------------------
        BYTE   W96
// 003   ----------------------------------------
        BYTE   W96
// 004   ----------------------------------------
shiver000_3_4:
        BYTE           N06     An3   v117
        BYTE   W12
        BYTE           N07     An3   v112
        BYTE   W12
        BYTE           N11     As3   v123
        BYTE   W12
        BYTE           N17     An3   v117
        BYTE   W24
        BYTE           N06
        BYTE   W12
        BYTE           N11     Cn4   v102
        BYTE   W12
        BYTE           N16     An3   v117
        BYTE   W12
        BYTE   PEND
// 005   ----------------------------------------
shiver000_3_5:
        BYTE   W12
        BYTE           N06     An3   v102
        BYTE   W12
        BYTE           N07     Cs4   v119
        BYTE   W12
        BYTE           N09     An3   v117
        BYTE   W12
        BYTE           N11     Dn4   v099
        BYTE   W12
        BYTE           N07     An3   v112
        BYTE   W12
        BYTE           N10     Ds4   v119
        BYTE   W12
        BYTE           N06     An3   v102
        BYTE   W12
        BYTE   PEND
// 006   ----------------------------------------
shiver000_3_6:
        BYTE           N05     An3   v097
        BYTE   W12
        BYTE                   An3   v102
        BYTE   W12
        BYTE           N12     As3   v123
        BYTE   W12
        BYTE           N16     An3   v108
        BYTE   W24
        BYTE           N06     An3   v124
        BYTE   W12
        BYTE           N11     Cn4   v097
        BYTE   W12
        BYTE           N17     An3   v121
        BYTE   W12
        BYTE   PEND
// 007   ----------------------------------------
shiver000_3_7:
        BYTE   W12
        BYTE           N06     An3   v112
        BYTE   W12
        BYTE           N10     Cs4   v119
        BYTE   W12
        BYTE           N08     An3   v097
        BYTE   W12
        BYTE                   Dn4   v102
        BYTE   W12
        BYTE           N06     An3   v117
        BYTE   W12
        BYTE           N10     Ds4   v114
        BYTE   W12
        BYTE           N05     An3   v112
        BYTE   W12
        BYTE   PEND
// 008   ----------------------------------------
shiver000_3_8:
        BYTE           N05     An3   v117
        BYTE           N03     An4   v100
        BYTE   W06
        BYTE                   An4
        BYTE   W06
        BYTE           N05     An3
        BYTE           N03     An4   v102
        BYTE   W12
        BYTE           N10     As3   v119
        BYTE           N09     As4   v126
        BYTE   W12
        BYTE           N16     An3   v121
        BYTE           N16     An4   v117
        BYTE   W24
        BYTE           N06     An3   v112
        BYTE           N06     An4
        BYTE   W12
        BYTE           N11     Cn4   v108
        BYTE           N12     Cn5
        BYTE   W12
        BYTE           N17     An3   v124
        BYTE           N17     An4   v112
        BYTE   W12
        BYTE   PEND
// 009   ----------------------------------------
shiver000_3_9:
        BYTE   W12
        BYTE           N05     An3   v112
        BYTE           N06     An4
        BYTE   W12
        BYTE                   Cs4   v123
        BYTE           N05     Cs5   v119
        BYTE   W12
        BYTE           N09     An3   v112
        BYTE           N11     An4   v121
        BYTE   W12
        BYTE           N08     Dn4   v117
        BYTE           N09     Dn5   v100
        BYTE   W12
        BYTE           N08     An3   v117
        BYTE           N08     An4   v121
        BYTE   W12
        BYTE           N09     Ds4   v126
        BYTE           N09     Ds5   v123
        BYTE   W12
        BYTE           N06     An3   v108
        BYTE           N05     An4   v121
        BYTE   W12
        BYTE   PEND
// 010   ----------------------------------------
shiver000_3_10:
        BYTE           N05     An3   v100
        BYTE           N03     An4
        BYTE   W06
        BYTE                   An4
        BYTE   W06
        BYTE           N07     An3   v102
        BYTE           N03     An4
        BYTE   W12
        BYTE           N09     As3   v126
        BYTE           N12     As4   v103
        BYTE   W12
        BYTE           N16     An3   v117
        BYTE           N17     An4   v126
        BYTE   W24
        BYTE           N06     An3   v112
        BYTE           N06     An4   v117
        BYTE   W12
        BYTE           N12     Cn4   v108
        BYTE           N12     Cn5
        BYTE   W12
        BYTE           N17     An3   v112
        BYTE           N17     An4   v124
        BYTE   W12
        BYTE   PEND
// 011   ----------------------------------------
shiver000_3_11:
        BYTE   W12
        BYTE           N06     An3   v112
        BYTE           N06     An4
        BYTE   W12
        BYTE           N05     Cs4   v119
        BYTE           N06     Cs5
        BYTE   W12
        BYTE           N11     An3   v121
        BYTE           N08     An4   v112
        BYTE   W12
        BYTE           N09     Dn4   v100
        BYTE           N10     Dn5   v102
        BYTE   W12
        BYTE           N08     An3   v121
        BYTE           N10     An4   v112
        BYTE   W12
        BYTE           N09     Ds4   v123
        BYTE           N10     Ds5   v126
        BYTE   W12
        BYTE           N05     An3   v121
        BYTE           N05     An4   v117
        BYTE   W12
        BYTE   PEND
// 012   ----------------------------------------
shiver000_3_12:
        BYTE           N05     An3   v121
        BYTE           N03     An4   v100
        BYTE   W06
        BYTE                   An4
        BYTE   W06
        BYTE           N05     An3
        BYTE           N03     An4   v102
        BYTE   W12
        BYTE           N12     As3   v103
        BYTE           N11     As4   v123
        BYTE   W12
        BYTE           N17     An3   v126
        BYTE           N17     An4   v117
        BYTE   W24
        BYTE           N06     An3
        BYTE           N06     An4
        BYTE   W12
        BYTE           N12     Cn4   v108
        BYTE           N11     Cn5   v102
        BYTE   W12
        BYTE           N17     An3   v124
        BYTE           N16     An4   v117
        BYTE   W12
        BYTE   PEND
// 013   ----------------------------------------
shiver000_3_13:
        BYTE   W12
        BYTE           N06     An3   v112
        BYTE           N06     An4   v102
        BYTE   W12
        BYTE                   Cs4   v119
        BYTE           N07     Cs5
        BYTE   W12
        BYTE           N08     An3   v112
        BYTE           N09     An4   v117
        BYTE   W12
        BYTE           N10     Dn4   v102
        BYTE           N11     Dn5   v099
        BYTE   W12
        BYTE           N10     An3   v112
        BYTE           N07     An4
        BYTE   W12
        BYTE           N10     Ds4   v126
        BYTE           N10     Ds5   v119
        BYTE   W12
        BYTE           N05     An3   v117
        BYTE           N06     An4   v102
        BYTE   W12
        BYTE   PEND
// 014   ----------------------------------------
shiver000_3_14:
        BYTE           N06     An3   v117
        BYTE           N03     An4   v100
        BYTE   W06
        BYTE                   An4
        BYTE   W06
        BYTE           N07     An3   v112
        BYTE           N03     An4   v102
        BYTE   W12
        BYTE           N11     As3   v123
        BYTE           N10     As4   v119
        BYTE   W12
        BYTE           N17     An3   v117
        BYTE           N16     An4   v121
        BYTE   W24
        BYTE           N06     An3   v117
        BYTE           N06     An4   v112
        BYTE   W12
        BYTE           N11     Cn4   v102
        BYTE           N11     Cn5   v108
        BYTE   W12
        BYTE           N16     An3   v117
        BYTE           N17     An4   v124
        BYTE   W12
        BYTE   PEND
// 015   ----------------------------------------
shiver000_3_15:
        BYTE   W12
        BYTE           N06     An3   v102
        BYTE           N05     An4   v112
        BYTE   W12
        BYTE           N07     Cs4   v119
        BYTE           N06     Cs5   v123
        BYTE   W12
        BYTE           N09     An3   v117
        BYTE           N09     An4   v112
        BYTE   W12
        BYTE           N11     Dn4   v099
        BYTE           N08     Dn5   v117
        BYTE   W12
        BYTE           N07     An3   v112
        BYTE           N08     An4   v117
        BYTE   W12
        BYTE           N10     Ds4   v119
        BYTE           N09     Ds5   v126
        BYTE   W12
        BYTE           N06     An3   v102
        BYTE           N06     An4   v108
        BYTE   W12
        BYTE   PEND
// 016   ----------------------------------------
shiver000_3_16:
        BYTE           N11     Ds3   v126
        BYTE   W12
        BYTE           N07     Fs3   v123
        BYTE   W12
        BYTE           N05     Ds4
        BYTE   W12
        BYTE           N07     Fs4   v127
        BYTE   W12
        BYTE           N08     Ds3   v122
        BYTE   W12
        BYTE           N06     Fs3   v126
        BYTE   W12
        BYTE           N05     Ds4   v127
        BYTE   W12
        BYTE           N06     Fs4
        BYTE   W12
        BYTE   PEND
// 017   ----------------------------------------
shiver000_3_17:
        BYTE           N07     Ds3   v122
        BYTE   W12
        BYTE                   Fs3   v123
        BYTE   W12
        BYTE           N05     Ds4   v126
        BYTE   W12
        BYTE                   Fs4   v127
        BYTE   W12
        BYTE           N08     Ds3   v126
        BYTE   W12
        BYTE           N06     Fs3   v123
        BYTE   W12
        BYTE                   Ds4   v127
        BYTE   W12
        BYTE                   Fs4
        BYTE   W12
        BYTE   PEND
// 018   ----------------------------------------
shiver000_3_18:
        BYTE           N09     En3   v126
        BYTE   W12
        BYTE           N07     Gn3   v121
        BYTE   W12
        BYTE           N06     En4   v126
        BYTE   W12
        BYTE                   Gn4   v117
        BYTE   W12
        BYTE           N11     En3   v127
        BYTE   W12
        BYTE           N05     Gn3   v121
        BYTE   W12
        BYTE                   En4   v126
        BYTE   W12
        BYTE           N07     Gn4   v117
        BYTE   W12
        BYTE   PEND
// 019   ----------------------------------------
shiver000_3_19:
        BYTE           N07     Ds3   v127
        BYTE   W12
        BYTE           N06     Gs3   v123
        BYTE   W12
        BYTE                   Ds4   v127
        BYTE   W12
        BYTE           N08     Gs4
        BYTE   W12
        BYTE           N09     Ds3   v126
        BYTE   W12
        BYTE                   Gs3   v123
        BYTE   W12
        BYTE           N08     Ds4   v127
        BYTE   W12
        BYTE           N06     Gs4
        BYTE   W12
        BYTE   PEND
// 020   ----------------------------------------
shiver000_3_20:
        BYTE           N11     Ds3   v119
        BYTE   W12
        BYTE           N08     Fs3   v126
        BYTE   W12
        BYTE           N07     Ds4   v127
        BYTE   W12
        BYTE           N06     Fs4
        BYTE   W12
        BYTE           N11     Ds3
        BYTE   W12
        BYTE           N09     Fs3
        BYTE   W12
        BYTE           N07     Ds4
        BYTE   W12
        BYTE                   Fs4
        BYTE   W12
        BYTE   PEND
// 021   ----------------------------------------
shiver000_3_21:
        BYTE           N09     Ds3   v126
        BYTE   W12
        BYTE                   Fs3   v127
        BYTE   W12
        BYTE           N06     Ds4
        BYTE   W12
        BYTE                   Fs4
        BYTE   W12
        BYTE           N12     Ds3   v123
        BYTE   W12
        BYTE           N11     Fs3   v127
        BYTE   W12
        BYTE           N07     Ds4
        BYTE   W12
        BYTE           N08     Fs4   v126
        BYTE   W12
        BYTE   PEND
// 022   ----------------------------------------
shiver000_3_22:
        BYTE           N14     En3   v124
        BYTE   W12
        BYTE           N08     Gn3
        BYTE   W12
        BYTE           N07     En4   v126
        BYTE   W12
        BYTE                   Gn4
        BYTE   W12
        BYTE           N15     En3   v127
        BYTE   W12
        BYTE           N12     Gn3   v126
        BYTE   W12
        BYTE                   En4   v124
        BYTE   W12
        BYTE           N08     Gn4   v123
        BYTE   W12
        BYTE   PEND
// 023   ----------------------------------------
shiver000_3_23:
        BYTE           N13     Gn3   v123
        BYTE   W12
        BYTE           N09     As3   v127
        BYTE   W12
        BYTE           N08     Gn4   v124
        BYTE   W12
        BYTE                   As4   v123
        BYTE   W12
        BYTE           N15     Gn3   v124
        BYTE   W12
        BYTE           N08     As3   v127
        BYTE   W12
        BYTE           N07     Gn4   v124
        BYTE   W12
        BYTE           N06     As4   v126
        BYTE   W12
        BYTE   PEND
// 024   ----------------------------------------
        BYTE   PATT
         POIN2  shiver000_3_16
// 025   ----------------------------------------
        BYTE   PATT
         POIN2  shiver000_3_17
// 026   ----------------------------------------
        BYTE   PATT
         POIN2  shiver000_3_18
// 027   ----------------------------------------
        BYTE   PATT
         POIN2  shiver000_3_19
// 028   ----------------------------------------
        BYTE   PATT
         POIN2  shiver000_3_20
// 029   ----------------------------------------
        BYTE   PATT
         POIN2  shiver000_3_21
// 030   ----------------------------------------
        BYTE   PATT
         POIN2  shiver000_3_22
// 031   ----------------------------------------
        BYTE   PATT
         POIN2  shiver000_3_23
// 032   ----------------------------------------
        BYTE   W96
// 033   ----------------------------------------
        BYTE   W96
// 034   ----------------------------------------
        BYTE   W96
// 035   ----------------------------------------
        BYTE   W96
// 036   ----------------------------------------
        BYTE   PATT
         POIN2  shiver000_3_4
// 037   ----------------------------------------
        BYTE   PATT
         POIN2  shiver000_3_5
// 038   ----------------------------------------
        BYTE   PATT
         POIN2  shiver000_3_6
// 039   ----------------------------------------
        BYTE   PATT
         POIN2  shiver000_3_7
// 040   ----------------------------------------
        BYTE   PATT
         POIN2  shiver000_3_8
// 041   ----------------------------------------
        BYTE   PATT
         POIN2  shiver000_3_9
// 042   ----------------------------------------
        BYTE   PATT
         POIN2  shiver000_3_10
// 043   ----------------------------------------
        BYTE   PATT
         POIN2  shiver000_3_11
// 044   ----------------------------------------
        BYTE   PATT
         POIN2  shiver000_3_12
// 045   ----------------------------------------
        BYTE   PATT
         POIN2  shiver000_3_13
// 046   ----------------------------------------
        BYTE   PATT
         POIN2  shiver000_3_14
// 047   ----------------------------------------
        BYTE   PATT
         POIN2  shiver000_3_15
// 048   ----------------------------------------
        BYTE   PATT
         POIN2  shiver000_3_16
// 049   ----------------------------------------
        BYTE   PATT
         POIN2  shiver000_3_17
// 050   ----------------------------------------
        BYTE   PATT
         POIN2  shiver000_3_18
// 051   ----------------------------------------
        BYTE   PATT
         POIN2  shiver000_3_19
// 052   ----------------------------------------
        BYTE   PATT
         POIN2  shiver000_3_20
// 053   ----------------------------------------
        BYTE   PATT
         POIN2  shiver000_3_21
// 054   ----------------------------------------
        BYTE   PATT
         POIN2  shiver000_3_22
// 055   ----------------------------------------
        BYTE   PATT
         POIN2  shiver000_3_23
// 056   ----------------------------------------
        BYTE   PATT
         POIN2  shiver000_3_16
// 057   ----------------------------------------
        BYTE   PATT
         POIN2  shiver000_3_17
// 058   ----------------------------------------
        BYTE   PATT
         POIN2  shiver000_3_18
// 059   ----------------------------------------
        BYTE   PATT
         POIN2  shiver000_3_19
// 060   ----------------------------------------
        BYTE   PATT
         POIN2  shiver000_3_20
// 061   ----------------------------------------
        BYTE   PATT
         POIN2  shiver000_3_21
// 062   ----------------------------------------
        BYTE   PATT
         POIN2  shiver000_3_22
// 063   ----------------------------------------
        BYTE   PATT
         POIN2  shiver000_3_23
// 064   ----------------------------------------
        BYTE   W96
// 065   ----------------------------------------
        BYTE   W96
// 066   ----------------------------------------
        BYTE   W96
// 067   ----------------------------------------
        BYTE   W96
// 068   ----------------------------------------
        BYTE           N07     Fs3   v109
        BYTE   W08
        BYTE                   Cn4
        BYTE   W08
        BYTE                   Fn4   v114
        BYTE   W07
        BYTE           VOL     15
        BYTE   W01
        BYTE           TIE     Cn4   v117
        BYTE           TIE     Fs4
        BYTE   W36
        BYTE           VOL     16
        BYTE   W22
        BYTE                   17
        BYTE   W08
        BYTE           MOD     1
        BYTE   W06
// 069   ----------------------------------------
shiver000_3_69:
        BYTE   W03
        BYTE           VOL     18
        BYTE   W15
        BYTE                   19
        BYTE   W13
        BYTE                   20
        BYTE   W05
        BYTE           MOD     2
        BYTE   W08
        BYTE           VOL     21
        BYTE   W11
        BYTE                   22
        BYTE   W08
        BYTE                   23
        BYTE   W03
        BYTE           MOD     3
        BYTE   W07
        BYTE           VOL     24
        BYTE   W09
        BYTE                   25
        BYTE   W08
        BYTE                   26
        BYTE   W01
        BYTE           MOD     4
        BYTE   W05
        BYTE   PEND
// 070   ----------------------------------------
shiver000_3_70:
        BYTE   W22
        BYTE           MOD     5
        BYTE   W22
        BYTE                   6
        BYTE   W23
        BYTE                   7
        BYTE   W21
        BYTE                   8
        BYTE   W08
        BYTE   PEND
// 071   ----------------------------------------
        BYTE   W10
        BYTE                   9
        BYTE   W09
        BYTE           EOT     Cn4
        BYTE                   Fs4
        BYTE   W05
        BYTE           N09     Gn4   v110
        BYTE   W05
        BYTE           MOD     10
        BYTE   W03
        BYTE           N06     Fs4
        BYTE   W04
        BYTE           N05     Dn4
        BYTE   W06
        BYTE                   Cs4   v111
        BYTE   W06
        BYTE           N07     Dn4
        BYTE   W06
        BYTE           N10     Cs4
        BYTE   W06
        BYTE           N07     Gn3
        BYTE   W06
        BYTE                   Fs3   v108
        BYTE   W06
        BYTE           N03     Gn3   v103
        BYTE   W06
        BYTE           N06     Fs3   v106
        BYTE   W06
        BYTE           N07     Dn3   v100
        BYTE   W06
        BYTE           N04     Cs3   v087
        BYTE   W05
        BYTE           MOD     8
        BYTE   W01
// 072   ----------------------------------------
shiver000_3_72:
        BYTE           MOD     4
        BYTE   W01
        BYTE                   1
        BYTE   W02
        BYTE                   0
        BYTE   W92
        BYTE   W01
        BYTE   PEND
// 073   ----------------------------------------
        BYTE   W96
// 074   ----------------------------------------
        BYTE   W96
// 075   ----------------------------------------
        BYTE   W96
// 076   ----------------------------------------
        BYTE   W96
// 077   ----------------------------------------
        BYTE   W96
// 078   ----------------------------------------
        BYTE   W96
// 079   ----------------------------------------
        BYTE   W96
// 080   ----------------------------------------
        BYTE           N07     Fs3   v099
        BYTE   W08
        BYTE                   Cn4   v119
        BYTE   W08
        BYTE                   Fn4   v124
        BYTE   W07
        BYTE           VOL     15
        BYTE   W01
        BYTE           TIE     Cn4   v112
        BYTE           TIE     Fs4
        BYTE   W36
        BYTE           VOL     16
        BYTE   W22
        BYTE                   17
        BYTE   W08
        BYTE           MOD     1
        BYTE   W06
// 081   ----------------------------------------
        BYTE   PATT
         POIN2  shiver000_3_69
// 082   ----------------------------------------
        BYTE   PATT
         POIN2  shiver000_3_70
// 083   ----------------------------------------
        BYTE   W10
        BYTE           MOD     9
        BYTE   W09
        BYTE           EOT     Cn4
        BYTE                   Fs4
        BYTE   W05
        BYTE           N09     Gn4   v120
        BYTE   W05
        BYTE           MOD     10
        BYTE   W03
        BYTE           N06     Fs4
        BYTE   W04
        BYTE           N05     Dn4
        BYTE   W06
        BYTE                   Cs4   v121
        BYTE   W06
        BYTE           N07     Dn4
        BYTE   W06
        BYTE           N10     Cs4
        BYTE   W06
        BYTE           N07     Gn3
        BYTE   W06
        BYTE                   Fs3   v118
        BYTE   W06
        BYTE           N03     Gn3   v113
        BYTE   W06
        BYTE           N06     Fs3   v116
        BYTE   W06
        BYTE           N07     Dn3   v110
        BYTE   W06
        BYTE           N04     Cs3   v097
        BYTE   W05
        BYTE           MOD     8
        BYTE   W01
// 084   ----------------------------------------
        BYTE   PATT
         POIN2  shiver000_3_72
// 085   ----------------------------------------
        BYTE   W96
// 086   ----------------------------------------
        BYTE   W96
// 087   ----------------------------------------
        BYTE   W96
// 088   ----------------------------------------
        BYTE   W96
// 089   ----------------------------------------
        BYTE   W96
// 090   ----------------------------------------
        BYTE   W96
// 091   ----------------------------------------
        BYTE   W96
// 092   ----------------------------------------
        BYTE   W96
// 093   ----------------------------------------
        BYTE   W96
// 094   ----------------------------------------
        BYTE   W96
// 095   ----------------------------------------
        BYTE   W96
// 096   ----------------------------------------
        BYTE   W96
// 097   ----------------------------------------
        BYTE   W96
// 098   ----------------------------------------
        BYTE   W96
// 099   ----------------------------------------
        BYTE   W96
// 100   ----------------------------------------
        BYTE   W96
// 101   ----------------------------------------
        BYTE   W92
        BYTE   W03
        BYTE   GoTo
         POIN2  shiver000_3_LOOP
        BYTE   FINE

//****************** Track 4 (Midi-Chn.7) ******************//

shiver000_4:
        BYTE   KEYSH   shiver000_key+0
// 000   ----------------------------------------
shiver000_4_LOOP:
        BYTE           VOICE   30
        BYTE           VOL     34
        BYTE           PAN     c_v-22
        BYTE           N04     An1   v077
        BYTE   W06
        BYTE                   An1   v071
        BYTE   W05
        BYTE           N11     An1   v076
        BYTE   W13
        BYTE           N10     As1   v075
        BYTE   W12
        BYTE           N20     An1
        BYTE   W24
        BYTE           N08     An1   v076
        BYTE   W12
        BYTE           N11     Cn2   v072
        BYTE   W12
        BYTE                   An1   v075
        BYTE   W12
// 001   ----------------------------------------
shiver000_4_1:
        BYTE           N08     An1   v075
        BYTE   W12
        BYTE                   An1
        BYTE   W12
        BYTE           N10     Cs2
        BYTE   W12
        BYTE           N08     An1
        BYTE   W12
        BYTE           N11     Dn2   v072
        BYTE   W12
        BYTE           N12     An1
        BYTE   W12
        BYTE           N09     Ds2   v075
        BYTE   W12
        BYTE           N06     An1   v076
        BYTE   W12
        BYTE   PEND
// 002   ----------------------------------------
        BYTE           N04     An1   v077
        BYTE   W06
        BYTE                   An1   v071
        BYTE   W05
        BYTE           N11     An1   v076
        BYTE   W13
        BYTE           N10     As1   v075
        BYTE   W12
        BYTE           N20     An1
        BYTE   W24
        BYTE           N08     An1   v076
        BYTE   W12
        BYTE           N11     Cn2   v072
        BYTE   W12
        BYTE                   An1   v075
        BYTE   W12
// 003   ----------------------------------------
        BYTE   PATT
         POIN2  shiver000_4_1
// 004   ----------------------------------------
shiver000_4_4:
        BYTE           N18     An1   v071
        BYTE   W24
        BYTE           N10     As1   v075
        BYTE   W12
        BYTE           N20     An1
        BYTE   W24
        BYTE           N08     An1   v076
        BYTE   W12
        BYTE           N11     Cn2   v072
        BYTE   W12
        BYTE           N21     An1   v075
        BYTE   W12
        BYTE   PEND
// 005   ----------------------------------------
shiver000_4_5:
        BYTE   W12
        BYTE           N08     An1   v075
        BYTE   W12
        BYTE           N10     Cs2
        BYTE   W12
        BYTE           N08     An1
        BYTE   W12
        BYTE           N11     Dn2   v072
        BYTE   W12
        BYTE           N12     An1
        BYTE   W12
        BYTE           N09     Ds2   v075
        BYTE   W12
        BYTE           N06     An1   v076
        BYTE   W12
        BYTE   PEND
// 006   ----------------------------------------
        BYTE   PATT
         POIN2  shiver000_4_4
// 007   ----------------------------------------
        BYTE   PATT
         POIN2  shiver000_4_5
// 008   ----------------------------------------
        BYTE   PATT
         POIN2  shiver000_4_4
// 009   ----------------------------------------
        BYTE   PATT
         POIN2  shiver000_4_5
// 010   ----------------------------------------
        BYTE   PATT
         POIN2  shiver000_4_4
// 011   ----------------------------------------
        BYTE   PATT
         POIN2  shiver000_4_5
// 012   ----------------------------------------
        BYTE   PATT
         POIN2  shiver000_4_4
// 013   ----------------------------------------
        BYTE   PATT
         POIN2  shiver000_4_5
// 014   ----------------------------------------
        BYTE   PATT
         POIN2  shiver000_4_4
// 015   ----------------------------------------
        BYTE   PATT
         POIN2  shiver000_4_5
// 016   ----------------------------------------
shiver000_4_16:
        BYTE           TIE     Bn2   v081
        BYTE   W48
        BYTE                   Bn1   v091
        BYTE   W48
        BYTE   PEND
// 017   ----------------------------------------
shiver000_4_17:
        BYTE   W92
        BYTE   W03
        BYTE           EOT     Bn2
        BYTE                   Bn1
        BYTE   W01
        BYTE   PEND
// 018   ----------------------------------------
shiver000_4_18:
        BYTE           N92     Cn3   v087   gtp3
        BYTE   W48
        BYTE           N44     Cn2   v087   gtp3
        BYTE   W48
        BYTE   PEND
// 019   ----------------------------------------
shiver000_4_19:
        BYTE           N92     Gs2   v090   gtp3
        BYTE   W48
        BYTE           N44     Gs1   v090   gtp3
        BYTE   W48
        BYTE   PEND
// 020   ----------------------------------------
        BYTE   PATT
         POIN2  shiver000_4_16
// 021   ----------------------------------------
        BYTE   PATT
         POIN2  shiver000_4_17
// 022   ----------------------------------------
        BYTE   PATT
         POIN2  shiver000_4_18
// 023   ----------------------------------------
shiver000_4_23:
        BYTE           N92     Ds3   v090   gtp3
        BYTE   W48
        BYTE           N44     Ds2   v090   gtp3
        BYTE   W48
        BYTE   PEND
// 024   ----------------------------------------
        BYTE   PATT
         POIN2  shiver000_4_16
// 025   ----------------------------------------
        BYTE   W92
        BYTE   W03
        BYTE           EOT     Bn1
        BYTE   W01
// 026   ----------------------------------------
shiver000_4_26:
        BYTE           N92     Cn3   v087   gtp3
        BYTE   W01
        BYTE           EOT     Bn2
        BYTE   W44
        BYTE   W03
        BYTE           N44     Cn2   v087   gtp3
        BYTE   W48
        BYTE   PEND
// 027   ----------------------------------------
        BYTE   PATT
         POIN2  shiver000_4_19
// 028   ----------------------------------------
        BYTE   PATT
         POIN2  shiver000_4_16
// 029   ----------------------------------------
        BYTE   PATT
         POIN2  shiver000_4_17
// 030   ----------------------------------------
        BYTE   PATT
         POIN2  shiver000_4_18
// 031   ----------------------------------------
shiver000_4_31:
        BYTE           N92     Ds3   v090   gtp3
        BYTE   W48
        BYTE           N44     Ds2   v090   gtp2
        BYTE   W48
        BYTE   PEND
// 032   ----------------------------------------
        BYTE   PATT
         POIN2  shiver000_4_4
// 033   ----------------------------------------
        BYTE   PATT
         POIN2  shiver000_4_5
// 034   ----------------------------------------
        BYTE   PATT
         POIN2  shiver000_4_4
// 035   ----------------------------------------
        BYTE   PATT
         POIN2  shiver000_4_5
// 036   ----------------------------------------
        BYTE   PATT
         POIN2  shiver000_4_4
// 037   ----------------------------------------
        BYTE   PATT
         POIN2  shiver000_4_5
// 038   ----------------------------------------
        BYTE   PATT
         POIN2  shiver000_4_4
// 039   ----------------------------------------
        BYTE   PATT
         POIN2  shiver000_4_5
// 040   ----------------------------------------
        BYTE   PATT
         POIN2  shiver000_4_4
// 041   ----------------------------------------
        BYTE   PATT
         POIN2  shiver000_4_5
// 042   ----------------------------------------
        BYTE   PATT
         POIN2  shiver000_4_4
// 043   ----------------------------------------
        BYTE   PATT
         POIN2  shiver000_4_5
// 044   ----------------------------------------
        BYTE   PATT
         POIN2  shiver000_4_4
// 045   ----------------------------------------
        BYTE   PATT
         POIN2  shiver000_4_5
// 046   ----------------------------------------
        BYTE   PATT
         POIN2  shiver000_4_4
// 047   ----------------------------------------
        BYTE   PATT
         POIN2  shiver000_4_5
// 048   ----------------------------------------
        BYTE   PATT
         POIN2  shiver000_4_16
// 049   ----------------------------------------
        BYTE   PATT
         POIN2  shiver000_4_17
// 050   ----------------------------------------
        BYTE   PATT
         POIN2  shiver000_4_18
// 051   ----------------------------------------
        BYTE   PATT
         POIN2  shiver000_4_19
// 052   ----------------------------------------
        BYTE   PATT
         POIN2  shiver000_4_16
// 053   ----------------------------------------
        BYTE   PATT
         POIN2  shiver000_4_17
// 054   ----------------------------------------
        BYTE   PATT
         POIN2  shiver000_4_18
// 055   ----------------------------------------
        BYTE   PATT
         POIN2  shiver000_4_23
// 056   ----------------------------------------
        BYTE   PATT
         POIN2  shiver000_4_16
// 057   ----------------------------------------
        BYTE   W92
        BYTE   W03
        BYTE           EOT     Bn1
        BYTE   W01
// 058   ----------------------------------------
        BYTE   PATT
         POIN2  shiver000_4_26
// 059   ----------------------------------------
        BYTE   PATT
         POIN2  shiver000_4_19
// 060   ----------------------------------------
        BYTE   PATT
         POIN2  shiver000_4_16
// 061   ----------------------------------------
        BYTE   PATT
         POIN2  shiver000_4_17
// 062   ----------------------------------------
        BYTE   PATT
         POIN2  shiver000_4_18
// 063   ----------------------------------------
        BYTE   PATT
         POIN2  shiver000_4_31
// 064   ----------------------------------------
shiver000_4_64:
        BYTE           N09     Fs2   v084
        BYTE   W12
        BYTE                   Fs1   v064
        BYTE   W12
        BYTE                   Fs1
        BYTE   W12
        BYTE                   En2   v084
        BYTE   W12
        BYTE                   En1   v064
        BYTE   W12
        BYTE           N12     Fs2   v084
        BYTE   W12
        BYTE           N09     Gn2
        BYTE   W12
        BYTE                   Gn1   v064
        BYTE   W12
        BYTE   PEND
// 065   ----------------------------------------
shiver000_4_65:
        BYTE           N09     Fs1   v064
        BYTE   W12
        BYTE                   Fs2   v084
        BYTE   W12
        BYTE                   En1   v064
        BYTE   W12
        BYTE                   En2   v084
        BYTE   W12
        BYTE                   En1   v064
        BYTE   W12
        BYTE           N11     As2   v084
        BYTE   W12
        BYTE                   As2
        BYTE   W12
        BYTE           N09     Gn2
        BYTE   W12
        BYTE   PEND
// 066   ----------------------------------------
shiver000_4_66:
        BYTE           N09     Fs2   v084
        BYTE   W12
        BYTE                   Fs1   v064
        BYTE   W12
        BYTE                   En2   v084
        BYTE   W12
        BYTE                   Fs2
        BYTE   W12
        BYTE                   Fs1   v064
        BYTE   W12
        BYTE           N11     Gn2   v084
        BYTE   W12
        BYTE                   Gn2
        BYTE   W12
        BYTE           N09     Fs2   v085
        BYTE   W12
        BYTE   PEND
// 067   ----------------------------------------
        BYTE                   Fs1   v065
        BYTE   W12
        BYTE           N10     En2   v085
        BYTE   W12
        BYTE           N09     En1   v065
        BYTE   W12
        BYTE           N10     En2   v085
        BYTE   W12
        BYTE           N09     En1   v065
        BYTE   W12
        BYTE           N11     As2   v085
        BYTE   W12
        BYTE                   As2
        BYTE   W12
        BYTE           N09     Gn2
        BYTE   W12
// 068   ----------------------------------------
        BYTE   PATT
         POIN2  shiver000_4_64
// 069   ----------------------------------------
        BYTE   PATT
         POIN2  shiver000_4_65
// 070   ----------------------------------------
        BYTE   PATT
         POIN2  shiver000_4_66
// 071   ----------------------------------------
        BYTE           N09     Fs1   v065
        BYTE   W12
        BYTE           N10     As2   v085
        BYTE   W12
        BYTE           N09     Fs1   v065
        BYTE   W12
        BYTE           N10     Bn2   v085
        BYTE   W12
        BYTE           N09     Fs1   v065
        BYTE   W12
        BYTE           N11     Cn3   v085
        BYTE   W12
        BYTE                   Cs3
        BYTE   W12
        BYTE           N09     Gn2
        BYTE   W12
// 072   ----------------------------------------
shiver000_4_72:
        BYTE           N09     Fs2   v084
        BYTE   W12
        BYTE                   Fs1   v064
        BYTE   W12
        BYTE                   Fs1
        BYTE   W12
        BYTE                   En2   v084
        BYTE   W12
        BYTE                   En1   v064
        BYTE   W12
        BYTE           N11     As2   v084
        BYTE   W12
        BYTE                   As2
        BYTE   W12
        BYTE                   Gn2
        BYTE   W12
        BYTE   PEND
// 073   ----------------------------------------
        BYTE   PATT
         POIN2  shiver000_4_72
// 074   ----------------------------------------
        BYTE   PATT
         POIN2  shiver000_4_72
// 075   ----------------------------------------
shiver000_4_75:
        BYTE           N11     Fs2   v084
        BYTE   W12
        BYTE           N10     En2   v085
        BYTE   W12
        BYTE           N09     En1   v065
        BYTE   W12
        BYTE           N10     En2   v085
        BYTE   W12
        BYTE           N09     En1   v065
        BYTE   W12
        BYTE           N11     Gn2   v085
        BYTE   W12
        BYTE                   Gn2
        BYTE   W12
        BYTE           N09     An2
        BYTE   W12
        BYTE   PEND
// 076   ----------------------------------------
        BYTE   PATT
         POIN2  shiver000_4_72
// 077   ----------------------------------------
shiver000_4_77:
        BYTE           N09     Fs2   v084
        BYTE   W12
        BYTE                   Fs1   v064
        BYTE   W12
        BYTE                   Fs1
        BYTE   W12
        BYTE                   En2   v084
        BYTE   W12
        BYTE                   En1   v064
        BYTE   W12
        BYTE           N11     Cs3   v084
        BYTE   W12
        BYTE                   Cs3
        BYTE   W12
        BYTE                   Gn2
        BYTE   W12
        BYTE   PEND
// 078   ----------------------------------------
        BYTE   PATT
         POIN2  shiver000_4_72
// 079   ----------------------------------------
        BYTE           N11     Fs2   v084
        BYTE   W12
        BYTE           N10     As2   v085
        BYTE   W12
        BYTE           N09     As1   v065
        BYTE   W12
        BYTE           N10     Bn2   v085
        BYTE   W12
        BYTE           N09     Bn1   v065
        BYTE   W12
        BYTE           N11     Cn3   v085
        BYTE   W12
        BYTE                   Cs3
        BYTE   W12
        BYTE                   Gn2
        BYTE   W12
// 080   ----------------------------------------
        BYTE   PATT
         POIN2  shiver000_4_72
// 081   ----------------------------------------
        BYTE   PATT
         POIN2  shiver000_4_72
// 082   ----------------------------------------
        BYTE   PATT
         POIN2  shiver000_4_72
// 083   ----------------------------------------
        BYTE   PATT
         POIN2  shiver000_4_75
// 084   ----------------------------------------
        BYTE   PATT
         POIN2  shiver000_4_72
// 085   ----------------------------------------
        BYTE   PATT
         POIN2  shiver000_4_77
// 086   ----------------------------------------
        BYTE   PATT
         POIN2  shiver000_4_72
// 087   ----------------------------------------
        BYTE           N11     Fs2   v084
        BYTE   W12
        BYTE           N10     As2   v085
        BYTE   W12
        BYTE           N09     Fs1   v065
        BYTE   W12
        BYTE           N10     Bn2   v085
        BYTE   W12
        BYTE           N09     Fs1   v065
        BYTE   W12
        BYTE           N11     Cn3   v085
        BYTE   W12
        BYTE                   Cs3
        BYTE   W12
        BYTE                   Gn2
        BYTE   W12
// 088   ----------------------------------------
        BYTE           N09     Fs1   v084
        BYTE   W12
        BYTE                   Fs1   v054
        BYTE   W36
        BYTE                   Fs1   v084
        BYTE   W12
        BYTE                   Fs1   v055
        BYTE   W36
// 089   ----------------------------------------
        BYTE                   Fs1   v084
        BYTE   W12
        BYTE                   Fs1   v055
        BYTE   W36
        BYTE                   Fs1   v084
        BYTE   W12
        BYTE                   Fs1   v054
        BYTE   W36
// 090   ----------------------------------------
        BYTE           N44     Fs1   v084   gtp3
        BYTE   W48
        BYTE                   Cn2
        BYTE   W48
// 091   ----------------------------------------
        BYTE                   Gs1
        BYTE   W48
        BYTE                   Dn2
        BYTE   W48
// 092   ----------------------------------------
        BYTE                   Cs2
        BYTE   W48
        BYTE                   Gn1
        BYTE   W48
// 093   ----------------------------------------
        BYTE                   Cn2
        BYTE   W48
        BYTE                   Fs1
        BYTE   W48
// 094   ----------------------------------------
        BYTE   W96
// 095   ----------------------------------------
        BYTE   W96
// 096   ----------------------------------------
        BYTE   W96
// 097   ----------------------------------------
        BYTE   W96
// 098   ----------------------------------------
        BYTE   W96
// 099   ----------------------------------------
        BYTE   W96
// 100   ----------------------------------------
        BYTE   W96
// 101   ----------------------------------------
        BYTE   W92
        BYTE   W03
        BYTE   GoTo
         POIN2  shiver000_4_LOOP
        BYTE   FINE

//****************** Track 5 (Midi-Chn.8) ******************//

shiver000_5:
        BYTE   KEYSH   shiver000_key+0
// 000   ----------------------------------------
shiver000_5_LOOP:
        BYTE           VOICE   83
        BYTE           PAN     c_v+17
        BYTE           VOL     20
        BYTE   W96
// 001   ----------------------------------------
        BYTE   W96
// 002   ----------------------------------------
        BYTE   W96
// 003   ----------------------------------------
        BYTE   W96
// 004   ----------------------------------------
shiver000_5_4:
        BYTE   W06
        BYTE           N06     An3   v117
        BYTE   W12
        BYTE           N07     An3   v112
        BYTE   W12
        BYTE           N11     As3   v123
        BYTE   W12
        BYTE           N17     An3   v117
        BYTE   W24
        BYTE           N06
        BYTE   W12
        BYTE           N11     Cn4   v102
        BYTE   W12
        BYTE           N16     An3   v117
        BYTE   W06
        BYTE   PEND
// 005   ----------------------------------------
shiver000_5_5:
        BYTE   W18
        BYTE           N06     An3   v102
        BYTE   W12
        BYTE           N07     Cs4   v119
        BYTE   W12
        BYTE           N09     An3   v117
        BYTE   W12
        BYTE           N11     Dn4   v099
        BYTE   W12
        BYTE           N07     An3   v112
        BYTE   W12
        BYTE           N10     Ds4   v119
        BYTE   W12
        BYTE           N06     An3   v102
        BYTE   W06
        BYTE   PEND
// 006   ----------------------------------------
shiver000_5_6:
        BYTE   W06
        BYTE           N05     An3   v097
        BYTE   W12
        BYTE                   An3   v102
        BYTE   W12
        BYTE           N12     As3   v123
        BYTE   W12
        BYTE           N16     An3   v108
        BYTE   W24
        BYTE           N06     An3   v124
        BYTE   W12
        BYTE           N11     Cn4   v097
        BYTE   W12
        BYTE           N17     An3   v121
        BYTE   W06
        BYTE   PEND
// 007   ----------------------------------------
shiver000_5_7:
        BYTE   W18
        BYTE           N06     An3   v112
        BYTE   W12
        BYTE           N10     Cs4   v119
        BYTE   W12
        BYTE           N08     An3   v097
        BYTE   W12
        BYTE                   Dn4   v102
        BYTE   W12
        BYTE           N06     An3   v117
        BYTE   W12
        BYTE           N10     Ds4   v114
        BYTE   W12
        BYTE           N05     An3   v112
        BYTE   W06
        BYTE   PEND
// 008   ----------------------------------------
shiver000_5_8:
        BYTE   W06
        BYTE           N03     An4   v100
        BYTE   W06
        BYTE                   An4
        BYTE   W06
        BYTE                   An4   v102
        BYTE   W12
        BYTE           N09     As4   v126
        BYTE   W12
        BYTE           N16     An4   v117
        BYTE   W24
        BYTE           N06     An4   v112
        BYTE   W12
        BYTE           N12     Cn5   v108
        BYTE   W12
        BYTE           N17     An4   v112
        BYTE   W06
        BYTE   PEND
// 009   ----------------------------------------
shiver000_5_9:
        BYTE   W18
        BYTE           N06     An4   v112
        BYTE   W12
        BYTE           N05     Cs5   v119
        BYTE   W12
        BYTE           N11     An4   v121
        BYTE   W12
        BYTE           N09     Dn5   v100
        BYTE   W12
        BYTE           N08     An4   v121
        BYTE   W12
        BYTE           N09     Ds5   v123
        BYTE   W12
        BYTE           N05     An4   v121
        BYTE   W06
        BYTE   PEND
// 010   ----------------------------------------
shiver000_5_10:
        BYTE   W06
        BYTE           N03     An4   v100
        BYTE   W06
        BYTE                   An4
        BYTE   W06
        BYTE                   An4   v102
        BYTE   W12
        BYTE           N12     As4   v103
        BYTE   W12
        BYTE           N17     An4   v126
        BYTE   W24
        BYTE           N06     An4   v117
        BYTE   W12
        BYTE           N12     Cn5   v108
        BYTE   W12
        BYTE           N17     An4   v124
        BYTE   W06
        BYTE   PEND
// 011   ----------------------------------------
shiver000_5_11:
        BYTE   W18
        BYTE           N06     An4   v112
        BYTE   W12
        BYTE                   Cs5   v119
        BYTE   W12
        BYTE           N08     An4   v112
        BYTE   W12
        BYTE           N10     Dn5   v102
        BYTE   W12
        BYTE                   An4   v112
        BYTE   W12
        BYTE                   Ds5   v126
        BYTE   W12
        BYTE           N05     An4   v117
        BYTE   W06
        BYTE   PEND
// 012   ----------------------------------------
shiver000_5_12:
        BYTE   W06
        BYTE           N03     An4   v100
        BYTE   W06
        BYTE                   An4
        BYTE   W06
        BYTE                   An4   v102
        BYTE   W12
        BYTE           N11     As4   v123
        BYTE   W12
        BYTE           N17     An4   v117
        BYTE   W24
        BYTE           N06
        BYTE   W12
        BYTE           N11     Cn5   v102
        BYTE   W12
        BYTE           N16     An4   v117
        BYTE   W06
        BYTE   PEND
// 013   ----------------------------------------
shiver000_5_13:
        BYTE   W18
        BYTE           N06     An4   v102
        BYTE   W12
        BYTE           N07     Cs5   v119
        BYTE   W12
        BYTE           N09     An4   v117
        BYTE   W12
        BYTE           N11     Dn5   v099
        BYTE   W12
        BYTE           N07     An4   v112
        BYTE   W12
        BYTE           N10     Ds5   v119
        BYTE   W12
        BYTE           N06     An4   v102
        BYTE   W06
        BYTE   PEND
// 014   ----------------------------------------
shiver000_5_14:
        BYTE   W06
        BYTE           N03     An4   v100
        BYTE   W06
        BYTE                   An4
        BYTE   W06
        BYTE                   An4   v102
        BYTE   W12
        BYTE           N10     As4   v119
        BYTE   W12
        BYTE           N16     An4   v121
        BYTE   W24
        BYTE           N06     An4   v112
        BYTE   W12
        BYTE           N11     Cn5   v108
        BYTE   W12
        BYTE           N17     An4   v124
        BYTE   W06
        BYTE   PEND
// 015   ----------------------------------------
shiver000_5_15:
        BYTE   W18
        BYTE           N05     An4   v112
        BYTE   W12
        BYTE           N06     Cs5   v123
        BYTE   W12
        BYTE           N09     An4   v112
        BYTE   W12
        BYTE           N08     Dn5   v117
        BYTE   W12
        BYTE                   An4
        BYTE   W12
        BYTE           N09     Ds5   v126
        BYTE   W12
        BYTE           N06     An4   v108
        BYTE   W06
        BYTE   PEND
// 016   ----------------------------------------
shiver000_5_16:
        BYTE   W06
        BYTE           N11     Ds3   v126
        BYTE   W12
        BYTE           N07     Fs3   v123
        BYTE   W12
        BYTE           N05     Ds4
        BYTE   W12
        BYTE           N07     Fs4   v127
        BYTE   W12
        BYTE           N08     Ds3   v122
        BYTE   W12
        BYTE           N06     Fs3   v126
        BYTE   W12
        BYTE           N05     Ds4   v127
        BYTE   W12
        BYTE           N06     Fs4
        BYTE   W06
        BYTE   PEND
// 017   ----------------------------------------
shiver000_5_17:
        BYTE   W06
        BYTE           N07     Ds3   v122
        BYTE   W12
        BYTE                   Fs3   v123
        BYTE   W12
        BYTE           N05     Ds4   v126
        BYTE   W12
        BYTE                   Fs4   v127
        BYTE   W12
        BYTE           N08     Ds3   v126
        BYTE   W12
        BYTE           N06     Fs3   v123
        BYTE   W12
        BYTE                   Ds4   v127
        BYTE   W12
        BYTE                   Fs4
        BYTE   W06
        BYTE   PEND
// 018   ----------------------------------------
shiver000_5_18:
        BYTE   W06
        BYTE           N09     En3   v126
        BYTE   W12
        BYTE           N07     Gn3   v121
        BYTE   W12
        BYTE           N06     En4   v126
        BYTE   W12
        BYTE                   Gn4   v117
        BYTE   W12
        BYTE           N11     En3   v127
        BYTE   W12
        BYTE           N05     Gn3   v121
        BYTE   W12
        BYTE                   En4   v126
        BYTE   W12
        BYTE           N07     Gn4   v117
        BYTE   W06
        BYTE   PEND
// 019   ----------------------------------------
shiver000_5_19:
        BYTE   W06
        BYTE           N07     Ds3   v127
        BYTE   W12
        BYTE           N06     Gs3   v123
        BYTE   W12
        BYTE                   Ds4   v127
        BYTE   W12
        BYTE           N08     Gs4
        BYTE   W12
        BYTE           N09     Ds3   v126
        BYTE   W12
        BYTE                   Gs3   v123
        BYTE   W12
        BYTE           N08     Ds4   v127
        BYTE   W12
        BYTE           N06     Gs4
        BYTE   W06
        BYTE   PEND
// 020   ----------------------------------------
shiver000_5_20:
        BYTE   W06
        BYTE           N11     Ds3   v119
        BYTE   W12
        BYTE           N08     Fs3   v126
        BYTE   W12
        BYTE           N07     Ds4   v127
        BYTE   W12
        BYTE           N06     Fs4
        BYTE   W12
        BYTE           N11     Ds3
        BYTE   W12
        BYTE           N09     Fs3
        BYTE   W12
        BYTE           N07     Ds4
        BYTE   W12
        BYTE                   Fs4
        BYTE   W06
        BYTE   PEND
// 021   ----------------------------------------
shiver000_5_21:
        BYTE   W06
        BYTE           N09     Ds3   v126
        BYTE   W12
        BYTE                   Fs3   v127
        BYTE   W12
        BYTE           N06     Ds4
        BYTE   W12
        BYTE                   Fs4
        BYTE   W12
        BYTE           N12     Ds3   v123
        BYTE   W12
        BYTE           N11     Fs3   v127
        BYTE   W12
        BYTE           N07     Ds4
        BYTE   W12
        BYTE           N08     Fs4   v126
        BYTE   W06
        BYTE   PEND
// 022   ----------------------------------------
shiver000_5_22:
        BYTE   W06
        BYTE           N14     En3   v124
        BYTE   W12
        BYTE           N08     Gn3
        BYTE   W12
        BYTE           N07     En4   v126
        BYTE   W12
        BYTE                   Gn4
        BYTE   W12
        BYTE           N15     En3   v127
        BYTE   W12
        BYTE           N12     Gn3   v126
        BYTE   W12
        BYTE                   En4   v124
        BYTE   W12
        BYTE           N08     Gn4   v123
        BYTE   W06
        BYTE   PEND
// 023   ----------------------------------------
shiver000_5_23:
        BYTE   W06
        BYTE           N13     Gn3   v123
        BYTE   W12
        BYTE           N09     As3   v127
        BYTE   W12
        BYTE           N08     Gn4   v124
        BYTE   W12
        BYTE                   As4   v123
        BYTE   W12
        BYTE           N15     Gn3   v124
        BYTE   W12
        BYTE           N08     As3   v127
        BYTE   W12
        BYTE           N07     Gn4   v124
        BYTE   W12
        BYTE           N06     As4   v126
        BYTE   W06
        BYTE   PEND
// 024   ----------------------------------------
        BYTE   PATT
         POIN2  shiver000_5_16
// 025   ----------------------------------------
        BYTE   PATT
         POIN2  shiver000_5_17
// 026   ----------------------------------------
        BYTE   PATT
         POIN2  shiver000_5_18
// 027   ----------------------------------------
        BYTE   PATT
         POIN2  shiver000_5_19
// 028   ----------------------------------------
        BYTE   PATT
         POIN2  shiver000_5_20
// 029   ----------------------------------------
        BYTE   PATT
         POIN2  shiver000_5_21
// 030   ----------------------------------------
        BYTE   PATT
         POIN2  shiver000_5_22
// 031   ----------------------------------------
        BYTE   PATT
         POIN2  shiver000_5_23
// 032   ----------------------------------------
        BYTE   W96
// 033   ----------------------------------------
        BYTE   W96
// 034   ----------------------------------------
        BYTE   W96
// 035   ----------------------------------------
        BYTE   W96
// 036   ----------------------------------------
        BYTE   PATT
         POIN2  shiver000_5_4
// 037   ----------------------------------------
        BYTE   PATT
         POIN2  shiver000_5_5
// 038   ----------------------------------------
        BYTE   PATT
         POIN2  shiver000_5_6
// 039   ----------------------------------------
        BYTE   PATT
         POIN2  shiver000_5_7
// 040   ----------------------------------------
        BYTE   PATT
         POIN2  shiver000_5_8
// 041   ----------------------------------------
        BYTE   PATT
         POIN2  shiver000_5_9
// 042   ----------------------------------------
        BYTE   PATT
         POIN2  shiver000_5_10
// 043   ----------------------------------------
        BYTE   PATT
         POIN2  shiver000_5_11
// 044   ----------------------------------------
        BYTE   PATT
         POIN2  shiver000_5_12
// 045   ----------------------------------------
        BYTE   PATT
         POIN2  shiver000_5_13
// 046   ----------------------------------------
        BYTE   PATT
         POIN2  shiver000_5_14
// 047   ----------------------------------------
        BYTE   PATT
         POIN2  shiver000_5_15
// 048   ----------------------------------------
        BYTE   PATT
         POIN2  shiver000_5_16
// 049   ----------------------------------------
        BYTE   PATT
         POIN2  shiver000_5_17
// 050   ----------------------------------------
        BYTE   PATT
         POIN2  shiver000_5_18
// 051   ----------------------------------------
        BYTE   PATT
         POIN2  shiver000_5_19
// 052   ----------------------------------------
        BYTE   PATT
         POIN2  shiver000_5_20
// 053   ----------------------------------------
        BYTE   PATT
         POIN2  shiver000_5_21
// 054   ----------------------------------------
        BYTE   PATT
         POIN2  shiver000_5_22
// 055   ----------------------------------------
        BYTE   PATT
         POIN2  shiver000_5_23
// 056   ----------------------------------------
        BYTE   PATT
         POIN2  shiver000_5_16
// 057   ----------------------------------------
        BYTE   PATT
         POIN2  shiver000_5_17
// 058   ----------------------------------------
        BYTE   PATT
         POIN2  shiver000_5_18
// 059   ----------------------------------------
        BYTE   PATT
         POIN2  shiver000_5_19
// 060   ----------------------------------------
        BYTE   PATT
         POIN2  shiver000_5_20
// 061   ----------------------------------------
        BYTE   PATT
         POIN2  shiver000_5_21
// 062   ----------------------------------------
        BYTE   PATT
         POIN2  shiver000_5_22
// 063   ----------------------------------------
        BYTE   PATT
         POIN2  shiver000_5_23
// 064   ----------------------------------------
        BYTE   W96
// 065   ----------------------------------------
        BYTE   W96
// 066   ----------------------------------------
        BYTE   W96
// 067   ----------------------------------------
        BYTE   W96
// 068   ----------------------------------------
        BYTE   W07
        BYTE           VOL     11
        BYTE   W01
        BYTE           N07     Fs3   v089
        BYTE           VOL     8
        BYTE   W08
        BYTE           N07     Cn4   v109
        BYTE   W08
        BYTE                   Fn4   v114
        BYTE   W08
        BYTE           TIE     Cn4   v117
        BYTE           TIE     Fs4
        BYTE   W24
        BYTE   W01
        BYTE           VOL     9
        BYTE   W32
        BYTE   W03
        BYTE                   10
        BYTE   W04
// 069   ----------------------------------------
shiver000_5_69:
        BYTE   W02
        BYTE           MOD     1
        BYTE   W18
        BYTE           VOL     11
        BYTE   W20
        BYTE                   12
        BYTE   W04
        BYTE           MOD     2
        BYTE   W13
        BYTE           VOL     13
        BYTE   W14
        BYTE                   14
        BYTE   W03
        BYTE           MOD     3
        BYTE   W12
        BYTE           VOL     15
        BYTE   W10
        BYTE   PEND
// 070   ----------------------------------------
shiver000_5_70:
        BYTE   W02
        BYTE           VOL     16
        BYTE   W01
        BYTE           MOD     4
        BYTE   W24
        BYTE   W03
        BYTE                   5
        BYTE   W22
        BYTE                   6
        BYTE   W23
        BYTE                   7
        BYTE   W21
        BYTE   PEND
// 071   ----------------------------------------
        BYTE                   8
        BYTE   W18
        BYTE                   9
        BYTE   W09
        BYTE           EOT     Cn4
        BYTE                   Fs4
        BYTE   W05
        BYTE           N09     Gn4   v110
        BYTE   W05
        BYTE           MOD     10
        BYTE   W03
        BYTE           N06     Fs4
        BYTE   W04
        BYTE           N05     Dn4
        BYTE   W06
        BYTE                   Cs4   v111
        BYTE   W06
        BYTE           N07     Dn4
        BYTE   W06
        BYTE           N10     Cs4
        BYTE   W06
        BYTE           N07     Gn3
        BYTE   W06
        BYTE                   Fs3   v108
        BYTE   W06
        BYTE           N03     Gn3   v103
        BYTE   W06
        BYTE           N06     Fs3   v106
        BYTE   W06
        BYTE           N07     Dn3   v100
        BYTE   W04
// 072   ----------------------------------------
        BYTE   W02
        BYTE           N04     Cs3   v087
        BYTE   W05
        BYTE           MOD     8
        BYTE   W01
        BYTE                   4
        BYTE   W01
        BYTE                   1
        BYTE   W02
        BYTE                   0
        BYTE   W84
        BYTE   W01
// 073   ----------------------------------------
        BYTE   W96
// 074   ----------------------------------------
        BYTE   W96
// 075   ----------------------------------------
        BYTE   W96
// 076   ----------------------------------------
        BYTE   W96
// 077   ----------------------------------------
        BYTE   W96
// 078   ----------------------------------------
        BYTE   W96
// 079   ----------------------------------------
        BYTE   W96
// 080   ----------------------------------------
        BYTE   W07
        BYTE           VOL     11
        BYTE   W01
        BYTE           N07     Fs3   v099
        BYTE           VOL     8
        BYTE   W08
        BYTE           N07     Cn4   v119
        BYTE   W08
        BYTE                   Fn4   v124
        BYTE   W08
        BYTE           TIE     Cn4   v112
        BYTE           TIE     Fs4
        BYTE   W24
        BYTE   W01
        BYTE           VOL     9
        BYTE   W32
        BYTE   W03
        BYTE                   10
        BYTE   W04
// 081   ----------------------------------------
        BYTE   PATT
         POIN2  shiver000_5_69
// 082   ----------------------------------------
        BYTE   PATT
         POIN2  shiver000_5_70
// 083   ----------------------------------------
        BYTE           MOD     8
        BYTE   W18
        BYTE                   9
        BYTE   W09
        BYTE           EOT     Cn4
        BYTE                   Fs4
        BYTE   W05
        BYTE           N09     Gn4   v120
        BYTE   W05
        BYTE           MOD     10
        BYTE   W03
        BYTE           N06     Fs4
        BYTE   W04
        BYTE           N05     Dn4
        BYTE   W06
        BYTE                   Cs4   v121
        BYTE   W06
        BYTE           N07     Dn4
        BYTE   W06
        BYTE           N10     Cs4
        BYTE   W06
        BYTE           N07     Gn3
        BYTE   W06
        BYTE                   Fs3   v118
        BYTE   W06
        BYTE           N03     Gn3   v113
        BYTE   W06
        BYTE           N06     Fs3   v116
        BYTE   W06
        BYTE           N07     Dn3   v110
        BYTE   W04
// 084   ----------------------------------------
        BYTE   W02
        BYTE           N04     Cs3   v097
        BYTE   W05
        BYTE           MOD     8
        BYTE   W01
        BYTE                   4
        BYTE   W01
        BYTE                   1
        BYTE   W02
        BYTE                   0
        BYTE   W84
        BYTE   W01
// 085   ----------------------------------------
        BYTE   W96
// 086   ----------------------------------------
        BYTE   W96
// 087   ----------------------------------------
        BYTE   W96
// 088   ----------------------------------------
        BYTE   W96
// 089   ----------------------------------------
        BYTE   W96
// 090   ----------------------------------------
        BYTE           N44     Cn3   v124   gtp3
        BYTE                   Fs3
        BYTE   W48
        BYTE                   Fs3
        BYTE           N44     Cn4   v124   gtp3
        BYTE   W48
// 091   ----------------------------------------
        BYTE                   Dn3
        BYTE           N44     Gs3   v124   gtp3
        BYTE   W48
        BYTE                   Gs3
        BYTE           N44     Dn4   v124   gtp3
        BYTE   W48
// 092   ----------------------------------------
        BYTE                   Gn3
        BYTE           N44     Cs4   v124   gtp3
        BYTE   W48
        BYTE                   Cs3
        BYTE           N44     Gn3   v124   gtp3
        BYTE   W48
// 093   ----------------------------------------
        BYTE                   Fs3
        BYTE           N44     Cn4   v124   gtp3
        BYTE   W48
        BYTE                   Cn3
        BYTE           N44     Fs3   v124   gtp3
        BYTE   W48
// 094   ----------------------------------------
shiver000_5_94:
        BYTE           N23     Fs3   v124
        BYTE           N23     Cn4
        BYTE           N23     Fs4
        BYTE   W24
        BYTE                   Cn4
        BYTE           N23     Fs4
        BYTE           N23     Cn5
        BYTE   W24
        BYTE                   Gs3
        BYTE           N23     Dn4
        BYTE           N23     Gs4
        BYTE   W24
        BYTE                   Dn4
        BYTE           N23     Gs4
        BYTE           N23     Dn5
        BYTE   W24
        BYTE   PEND
// 095   ----------------------------------------
        BYTE                   Cs4
        BYTE           N23     Gn4
        BYTE           N23     Cs5
        BYTE   W24
        BYTE                   Gn3
        BYTE           N23     Cs4
        BYTE           N23     Gn4
        BYTE   W24
        BYTE                   Cn4
        BYTE           N23     Fs4
        BYTE           N23     Cn5
        BYTE   W24
        BYTE                   Fs3
        BYTE           N23     Cn4
        BYTE           N23     Fs4
        BYTE   W24
// 096   ----------------------------------------
        BYTE   PATT
         POIN2  shiver000_5_94
// 097   ----------------------------------------
        BYTE           N07     Dn4   v124
        BYTE           N07     Gs4
        BYTE           N07     Dn5
        BYTE   W08
        BYTE                   Gs3
        BYTE           N07     Dn4
        BYTE           N07     Gs4
        BYTE   W08
        BYTE                   Cs4
        BYTE           N07     Gn4
        BYTE           N07     Cs5
        BYTE   W08
        BYTE                   Gn3
        BYTE           N07     Cs4
        BYTE           N07     Gn4
        BYTE   W08
        BYTE                   Cn4
        BYTE           N07     Fs4
        BYTE           N07     Cn5
        BYTE   W08
        BYTE                   Fs3
        BYTE           N07     Cn4
        BYTE           N07     Fs4
        BYTE   W08
        BYTE                   En3
        BYTE           N07     As3
        BYTE           N07     En4
        BYTE   W08
        BYTE                   Fn3
        BYTE           N07     Bn3
        BYTE           N07     Fn4
        BYTE   W08
        BYTE                   Fs3
        BYTE           N07     Cn4
        BYTE           N07     Fs4
        BYTE   W08
        BYTE                   Fs3
        BYTE           N07     Cn4
        BYTE           N07     Fs4
        BYTE   W08
        BYTE                   Gn3
        BYTE           N07     Cs4
        BYTE           N07     Gn4
        BYTE   W08
        BYTE                   Gs3
        BYTE           N07     Dn4
        BYTE           N07     Gs4
        BYTE   W08
// 098   ----------------------------------------
        BYTE           TIE     An3
        BYTE           TIE     Ds4   v119
        BYTE           TIE     An4   v124
        BYTE           TIE     Dn5   v087
        BYTE           TIE     Ds5   v075
        BYTE   W48
        BYTE                   Gs5   v102
        BYTE   W42
        BYTE   W01
        BYTE           MOD     1
        BYTE   W05
// 099   ----------------------------------------
        BYTE   W10
        BYTE                   2
        BYTE   W36
        BYTE   W02
        BYTE                   3
        BYTE   W48
// 100   ----------------------------------------
        BYTE   W96
// 101   ----------------------------------------
        BYTE   W92
        BYTE           EOT     Dn5
        BYTE                   Ds5
        BYTE           MOD     0
        BYTE   W03
        BYTE           EOT     An3
        BYTE                   Ds4
        BYTE                   An4
        BYTE                   Gs5
        BYTE           VOL     20
        BYTE   GoTo
         POIN2  shiver000_5_LOOP
        BYTE   FINE

//***************** Track 6 (Midi-Chn.10) ******************//

shiver000_6:
        BYTE   KEYSH   shiver000_key+0
// 000   ----------------------------------------
shiver000_6_LOOP:
        BYTE           VOICE   36
        BYTE           VOL     32
        BYTE   W96
// 001   ----------------------------------------
        BYTE   W96
// 002   ----------------------------------------
        BYTE   W96
// 003   ----------------------------------------
        BYTE   W96
// 004   ----------------------------------------
        BYTE   W96
// 005   ----------------------------------------
        BYTE   W96
// 006   ----------------------------------------
        BYTE   W96
// 007   ----------------------------------------
        BYTE   W96
// 008   ----------------------------------------
        BYTE   W96
// 009   ----------------------------------------
        BYTE   W96
// 010   ----------------------------------------
        BYTE   W96
// 011   ----------------------------------------
        BYTE   W96
// 012   ----------------------------------------
        BYTE   W96
// 013   ----------------------------------------
        BYTE   W96
// 014   ----------------------------------------
        BYTE   W96
// 015   ----------------------------------------
        BYTE   W96
// 016   ----------------------------------------
shiver000_6_16:
        BYTE           N07     Bn1   v120
        BYTE   W12
        BYTE           N13     Bn1   v117
        BYTE   W24
        BYTE           N06     Bn1   v092
        BYTE   W12
        BYTE           N05     Bn1   v090
        BYTE   W12
        BYTE           N06     Bn1   v097
        BYTE   W12
        BYTE           N04     Bn1   v090
        BYTE   W12
        BYTE           N06     Bn1   v112
        BYTE   W12
        BYTE   PEND
// 017   ----------------------------------------
shiver000_6_17:
        BYTE           N07     Bn1   v112
        BYTE   W12
        BYTE           N14     Bn1   v108
        BYTE   W24
        BYTE           N06     Bn1   v090
        BYTE   W12
        BYTE                   Bn1
        BYTE   W12
        BYTE           N05     Bn1   v108
        BYTE   W12
        BYTE                   Bn1   v090
        BYTE   W12
        BYTE           N07
        BYTE   W12
        BYTE   PEND
// 018   ----------------------------------------
shiver000_6_18:
        BYTE           N08     Cn2   v121
        BYTE   W12
        BYTE           N17     Cn2   v097
        BYTE   W24
        BYTE           N07     Cn2   v117
        BYTE   W12
        BYTE           N06     Cn2   v112
        BYTE   W12
        BYTE                   Cn2   v097
        BYTE   W12
        BYTE           N12     Cn2   v117
        BYTE   W24
        BYTE   PEND
// 019   ----------------------------------------
shiver000_6_19:
        BYTE           N06     Gs1   v109
        BYTE   W12
        BYTE           N16     Gs1   v103
        BYTE   W24
        BYTE           N06     Gs1   v123
        BYTE   W12
        BYTE           N07     Gs1   v109
        BYTE   W12
        BYTE           N05     Gs1   v114
        BYTE   W12
        BYTE           N17
        BYTE   W24
        BYTE   PEND
// 020   ----------------------------------------
shiver000_6_20:
        BYTE           N06     Bn1   v112
        BYTE   W12
        BYTE           N14
        BYTE   W24
        BYTE           N06     Bn1   v102
        BYTE   W12
        BYTE           N05     Bn1   v090
        BYTE   W12
        BYTE           N06     Bn1   v097
        BYTE   W12
        BYTE           N04     Bn1   v090
        BYTE   W12
        BYTE           N06     Bn1   v112
        BYTE   W12
        BYTE   PEND
// 021   ----------------------------------------
shiver000_6_21:
        BYTE           N05     Bn1   v108
        BYTE   W12
        BYTE           N17     Bn1   v090
        BYTE   W24
        BYTE           N06     Bn1   v108
        BYTE   W12
        BYTE                   Bn1   v092
        BYTE   W12
        BYTE                   Bn1   v102
        BYTE   W12
        BYTE           N15
        BYTE   W24
        BYTE   PEND
// 022   ----------------------------------------
shiver000_6_22:
        BYTE           N07     Cn2   v117
        BYTE   W12
        BYTE           N12
        BYTE   W24
        BYTE           N07     Cn2   v121
        BYTE   W12
        BYTE                   Cn2
        BYTE   W12
        BYTE           N04     Cn2   v097
        BYTE   W12
        BYTE           N13     Cn2   v114
        BYTE   W24
        BYTE   PEND
// 023   ----------------------------------------
shiver000_6_23:
        BYTE           N07     Ds2   v109
        BYTE   W12
        BYTE           N10     Ds2   v119
        BYTE   W24
        BYTE           N06     Ds2   v109
        BYTE   W12
        BYTE                   Ds2   v103
        BYTE   W12
        BYTE           N07     Ds2   v114
        BYTE   W12
        BYTE           N16     Ds2   v119
        BYTE   W24
        BYTE   PEND
// 024   ----------------------------------------
        BYTE   PATT
         POIN2  shiver000_6_16
// 025   ----------------------------------------
        BYTE   PATT
         POIN2  shiver000_6_17
// 026   ----------------------------------------
        BYTE   PATT
         POIN2  shiver000_6_18
// 027   ----------------------------------------
        BYTE   PATT
         POIN2  shiver000_6_19
// 028   ----------------------------------------
        BYTE   PATT
         POIN2  shiver000_6_20
// 029   ----------------------------------------
        BYTE   PATT
         POIN2  shiver000_6_21
// 030   ----------------------------------------
        BYTE   PATT
         POIN2  shiver000_6_22
// 031   ----------------------------------------
        BYTE   PATT
         POIN2  shiver000_6_23
// 032   ----------------------------------------
        BYTE   W96
// 033   ----------------------------------------
        BYTE   W96
// 034   ----------------------------------------
        BYTE   W96
// 035   ----------------------------------------
        BYTE   W96
// 036   ----------------------------------------
        BYTE   W96
// 037   ----------------------------------------
        BYTE   W96
// 038   ----------------------------------------
        BYTE   W96
// 039   ----------------------------------------
        BYTE   W96
// 040   ----------------------------------------
        BYTE   W96
// 041   ----------------------------------------
        BYTE   W96
// 042   ----------------------------------------
        BYTE   W96
// 043   ----------------------------------------
        BYTE   W96
// 044   ----------------------------------------
        BYTE   W96
// 045   ----------------------------------------
        BYTE   W96
// 046   ----------------------------------------
        BYTE   W96
// 047   ----------------------------------------
        BYTE   W96
// 048   ----------------------------------------
        BYTE   PATT
         POIN2  shiver000_6_16
// 049   ----------------------------------------
        BYTE   PATT
         POIN2  shiver000_6_17
// 050   ----------------------------------------
        BYTE   PATT
         POIN2  shiver000_6_18
// 051   ----------------------------------------
        BYTE   PATT
         POIN2  shiver000_6_19
// 052   ----------------------------------------
        BYTE   PATT
         POIN2  shiver000_6_20
// 053   ----------------------------------------
        BYTE   PATT
         POIN2  shiver000_6_21
// 054   ----------------------------------------
        BYTE   PATT
         POIN2  shiver000_6_22
// 055   ----------------------------------------
        BYTE   PATT
         POIN2  shiver000_6_23
// 056   ----------------------------------------
        BYTE   PATT
         POIN2  shiver000_6_16
// 057   ----------------------------------------
        BYTE   PATT
         POIN2  shiver000_6_17
// 058   ----------------------------------------
        BYTE   PATT
         POIN2  shiver000_6_18
// 059   ----------------------------------------
        BYTE   PATT
         POIN2  shiver000_6_19
// 060   ----------------------------------------
        BYTE   PATT
         POIN2  shiver000_6_20
// 061   ----------------------------------------
        BYTE   PATT
         POIN2  shiver000_6_21
// 062   ----------------------------------------
        BYTE   PATT
         POIN2  shiver000_6_22
// 063   ----------------------------------------
        BYTE   PATT
         POIN2  shiver000_6_23
// 064   ----------------------------------------
        BYTE   W96
// 065   ----------------------------------------
        BYTE   W96
// 066   ----------------------------------------
        BYTE   W96
// 067   ----------------------------------------
        BYTE   W96
// 068   ----------------------------------------
        BYTE   W96
// 069   ----------------------------------------
        BYTE   W96
// 070   ----------------------------------------
        BYTE   W96
// 071   ----------------------------------------
        BYTE   W96
// 072   ----------------------------------------
        BYTE   W96
// 073   ----------------------------------------
        BYTE   W96
// 074   ----------------------------------------
        BYTE   W96
// 075   ----------------------------------------
        BYTE   W96
// 076   ----------------------------------------
        BYTE   W96
// 077   ----------------------------------------
        BYTE   W96
// 078   ----------------------------------------
        BYTE   W96
// 079   ----------------------------------------
        BYTE   W96
// 080   ----------------------------------------
        BYTE   W96
// 081   ----------------------------------------
        BYTE   W96
// 082   ----------------------------------------
        BYTE   W96
// 083   ----------------------------------------
        BYTE   W96
// 084   ----------------------------------------
        BYTE   W96
// 085   ----------------------------------------
        BYTE   W96
// 086   ----------------------------------------
        BYTE   W96
// 087   ----------------------------------------
        BYTE   W96
// 088   ----------------------------------------
        BYTE   W96
// 089   ----------------------------------------
        BYTE   W96
// 090   ----------------------------------------
        BYTE   W96
// 091   ----------------------------------------
        BYTE   W96
// 092   ----------------------------------------
        BYTE   W96
// 093   ----------------------------------------
        BYTE   W96
// 094   ----------------------------------------
        BYTE   W96
// 095   ----------------------------------------
        BYTE   W96
// 096   ----------------------------------------
        BYTE   W96
// 097   ----------------------------------------
        BYTE   W96
// 098   ----------------------------------------
        BYTE   W96
// 099   ----------------------------------------
        BYTE   W96
// 100   ----------------------------------------
        BYTE   W96
// 101   ----------------------------------------
        BYTE   W92
        BYTE   W03
        BYTE   GoTo
         POIN2  shiver000_6_LOOP
        BYTE   FINE

//***************** Track 7 (Midi-Chn.11) ******************//

shiver000_7:
        BYTE   KEYSH   shiver000_key+0
// 000   ----------------------------------------
shiver000_7_LOOP:
        BYTE           VOICE   55
        BYTE           VOL     30
        BYTE   W96
// 001   ----------------------------------------
        BYTE   W96
// 002   ----------------------------------------
        BYTE   W96
// 003   ----------------------------------------
        BYTE   W96
// 004   ----------------------------------------
        BYTE   W96
// 005   ----------------------------------------
        BYTE   W96
// 006   ----------------------------------------
        BYTE   W96
// 007   ----------------------------------------
        BYTE   W96
// 008   ----------------------------------------
        BYTE   W96
// 009   ----------------------------------------
        BYTE   W96
// 010   ----------------------------------------
        BYTE   W96
// 011   ----------------------------------------
        BYTE   W96
// 012   ----------------------------------------
        BYTE   W96
// 013   ----------------------------------------
        BYTE   W96
// 014   ----------------------------------------
        BYTE   W96
// 015   ----------------------------------------
        BYTE   W96
// 016   ----------------------------------------
shiver000_7_16:
        BYTE   W48
        BYTE           N54     Bn2   v127   gtp1
        BYTE   W48
        BYTE   PEND
// 017   ----------------------------------------
shiver000_7_17:
        BYTE   W48
        BYTE           N23     Bn2   v127
        BYTE   W24
        BYTE           N30     Bn2   v127   gtp1
        BYTE   W24
        BYTE   PEND
// 018   ----------------------------------------
shiver000_7_18:
        BYTE   W48
        BYTE           N44     Cn3   v127   gtp3
        BYTE   W48
        BYTE   PEND
// 019   ----------------------------------------
shiver000_7_19:
        BYTE   W48
        BYTE           N23     Gs2   v127
        BYTE   W24
        BYTE           N30     Gs2   v127   gtp1
        BYTE   W24
        BYTE   PEND
// 020   ----------------------------------------
        BYTE   PATT
         POIN2  shiver000_7_16
// 021   ----------------------------------------
        BYTE   PATT
         POIN2  shiver000_7_17
// 022   ----------------------------------------
        BYTE   PATT
         POIN2  shiver000_7_18
// 023   ----------------------------------------
shiver000_7_23:
        BYTE   W48
        BYTE           N23     Ds3   v127
        BYTE   W24
        BYTE                   Ds3
        BYTE   W24
        BYTE   PEND
// 024   ----------------------------------------
        BYTE   PATT
         POIN2  shiver000_7_16
// 025   ----------------------------------------
        BYTE   PATT
         POIN2  shiver000_7_17
// 026   ----------------------------------------
        BYTE   PATT
         POIN2  shiver000_7_18
// 027   ----------------------------------------
        BYTE   PATT
         POIN2  shiver000_7_19
// 028   ----------------------------------------
        BYTE   PATT
         POIN2  shiver000_7_16
// 029   ----------------------------------------
        BYTE   PATT
         POIN2  shiver000_7_17
// 030   ----------------------------------------
        BYTE   PATT
         POIN2  shiver000_7_18
// 031   ----------------------------------------
        BYTE   PATT
         POIN2  shiver000_7_23
// 032   ----------------------------------------
        BYTE   W96
// 033   ----------------------------------------
        BYTE   W96
// 034   ----------------------------------------
        BYTE   W96
// 035   ----------------------------------------
        BYTE   W96
// 036   ----------------------------------------
        BYTE   W96
// 037   ----------------------------------------
        BYTE   W96
// 038   ----------------------------------------
        BYTE   W96
// 039   ----------------------------------------
        BYTE   W96
// 040   ----------------------------------------
        BYTE   W96
// 041   ----------------------------------------
        BYTE   W96
// 042   ----------------------------------------
        BYTE   W96
// 043   ----------------------------------------
        BYTE   W96
// 044   ----------------------------------------
        BYTE   W96
// 045   ----------------------------------------
        BYTE   W96
// 046   ----------------------------------------
        BYTE   W96
// 047   ----------------------------------------
        BYTE   W96
// 048   ----------------------------------------
        BYTE   PATT
         POIN2  shiver000_7_16
// 049   ----------------------------------------
        BYTE   PATT
         POIN2  shiver000_7_17
// 050   ----------------------------------------
        BYTE   PATT
         POIN2  shiver000_7_18
// 051   ----------------------------------------
        BYTE   PATT
         POIN2  shiver000_7_19
// 052   ----------------------------------------
        BYTE   PATT
         POIN2  shiver000_7_16
// 053   ----------------------------------------
        BYTE   PATT
         POIN2  shiver000_7_17
// 054   ----------------------------------------
        BYTE   PATT
         POIN2  shiver000_7_18
// 055   ----------------------------------------
        BYTE   PATT
         POIN2  shiver000_7_23
// 056   ----------------------------------------
        BYTE   PATT
         POIN2  shiver000_7_16
// 057   ----------------------------------------
        BYTE   PATT
         POIN2  shiver000_7_17
// 058   ----------------------------------------
        BYTE   PATT
         POIN2  shiver000_7_18
// 059   ----------------------------------------
        BYTE   PATT
         POIN2  shiver000_7_19
// 060   ----------------------------------------
        BYTE   PATT
         POIN2  shiver000_7_16
// 061   ----------------------------------------
        BYTE   PATT
         POIN2  shiver000_7_17
// 062   ----------------------------------------
        BYTE   PATT
         POIN2  shiver000_7_18
// 063   ----------------------------------------
        BYTE   PATT
         POIN2  shiver000_7_23
// 064   ----------------------------------------
        BYTE   W96
// 065   ----------------------------------------
        BYTE   W96
// 066   ----------------------------------------
        BYTE   W96
// 067   ----------------------------------------
        BYTE   W96
// 068   ----------------------------------------
        BYTE   W96
// 069   ----------------------------------------
        BYTE   W96
// 070   ----------------------------------------
        BYTE   W96
// 071   ----------------------------------------
shiver000_7_71:
        BYTE           N11     Fs2   v127
        BYTE   W12
        BYTE           N23     As2   v125
        BYTE   W24
        BYTE                   Bn2   v127
        BYTE   W24
        BYTE           N11     Cn3
        BYTE   W12
        BYTE                   Cs3
        BYTE   W12
        BYTE                   Gn2
        BYTE   W12
        BYTE   PEND
// 072   ----------------------------------------
        BYTE           N92     Fs2   v124   gtp3
        BYTE   W96
// 073   ----------------------------------------
        BYTE   W96
// 074   ----------------------------------------
        BYTE   W96
// 075   ----------------------------------------
shiver000_7_75:
        BYTE   W60
        BYTE           N11     Fs3   v127
        BYTE   W12
        BYTE                   Fs2
        BYTE   W12
        BYTE           N68     Fs3   v127   gtp3
        BYTE   W12
        BYTE   PEND
// 076   ----------------------------------------
        BYTE   W96
// 077   ----------------------------------------
        BYTE   W96
// 078   ----------------------------------------
        BYTE   W96
// 079   ----------------------------------------
        BYTE   PATT
         POIN2  shiver000_7_71
// 080   ----------------------------------------
        BYTE           N92     Fs2   v124   gtp3
        BYTE   W96
// 081   ----------------------------------------
        BYTE   W96
// 082   ----------------------------------------
        BYTE   W96
// 083   ----------------------------------------
        BYTE   PATT
         POIN2  shiver000_7_75
// 084   ----------------------------------------
        BYTE   W96
// 085   ----------------------------------------
        BYTE   W96
// 086   ----------------------------------------
        BYTE   W96
// 087   ----------------------------------------
        BYTE   PATT
         POIN2  shiver000_7_71
// 088   ----------------------------------------
        BYTE           N44     Fs2   v127   gtp3
        BYTE   W96
// 089   ----------------------------------------
        BYTE   W96
// 090   ----------------------------------------
        BYTE   W96
// 091   ----------------------------------------
        BYTE   W96
// 092   ----------------------------------------
        BYTE   W96
// 093   ----------------------------------------
        BYTE   W96
// 094   ----------------------------------------
        BYTE           N23     Fs2   v119
        BYTE   W24
        BYTE                   Cn3   v117
        BYTE   W24
        BYTE                   Gs2   v123
        BYTE   W24
        BYTE                   Dn3   v124
        BYTE   W24
// 095   ----------------------------------------
        BYTE                   Cs3   v127
        BYTE   W24
        BYTE                   Gn2   v124
        BYTE   W24
        BYTE                   Cn3   v121
        BYTE   W24
        BYTE                   Fs2   v127
        BYTE   W24
// 096   ----------------------------------------
        BYTE           N07     Fs2   v119
        BYTE   W08
        BYTE                   Fs2   v103
        BYTE   W08
        BYTE                   Fs2
        BYTE   W08
        BYTE                   Cn3   v119
        BYTE   W08
        BYTE                   Cn3   v104
        BYTE   W08
        BYTE                   Cn3
        BYTE   W08
        BYTE                   Gs2   v119
        BYTE   W08
        BYTE                   Gs2
        BYTE   W08
        BYTE                   Gs2
        BYTE   W08
        BYTE                   Dn3
        BYTE   W08
        BYTE                   Dn3
        BYTE   W08
        BYTE                   Dn3
        BYTE   W08
// 097   ----------------------------------------
        BYTE                   Dn3
        BYTE   W08
        BYTE                   Gs2
        BYTE   W08
        BYTE                   Cs3
        BYTE   W08
        BYTE                   Gn2
        BYTE   W08
        BYTE                   Cn3
        BYTE   W08
        BYTE                   Fs2
        BYTE   W08
        BYTE                   En2
        BYTE   W08
        BYTE                   Fn2
        BYTE   W08
        BYTE                   Fs2
        BYTE   W08
        BYTE                   Fs2
        BYTE   W08
        BYTE                   Gn2
        BYTE   W08
        BYTE                   Gs2
        BYTE   W08
// 098   ----------------------------------------
        BYTE           N68     An2   v119   gtp3
        BYTE   W96
// 099   ----------------------------------------
        BYTE   W96
// 100   ----------------------------------------
        BYTE   W96
// 101   ----------------------------------------
        BYTE   W92
        BYTE   W03
        BYTE   GoTo
         POIN2  shiver000_7_LOOP
        BYTE   FINE


//********************** End of Song ***********************//

        ALIGN 4
shiver000:
        BYTE   8                       // Num Tracks
        BYTE   0                       // Unknown
        BYTE   shiver000_pri           // Priority
        BYTE   shiver000_rev           // Reverb

        POIN2   shiver000_grp          

        POIN2   shiver000_0
        POIN2   shiver000_1
        POIN2   shiver000_2
        POIN2   shiver000_3
        POIN2   shiver000_4
        POIN2   shiver000_5
        POIN2   shiver000_6
        POIN2   shiver000_7

        
