//Event file generated from Sappy .s format.
        #include "MPlayDef.event"

        #define    theflameandthearrow0_grp  voicegroup000
        #define    theflameandthearrow0_pri  0
        #define    theflameandthearrow0_rev  0
        #define    theflameandthearrow0_key  0

        // .rodata
        // theflameandthearrow0
        ALIGN 4

//****************** Track 0 (Midi-Chn.0) ******************//

theflameandthearrow0_0:
        BYTE   KEYSH   theflameandthearrow0_key+0
// 000   ----------------------------------------
        BYTE   TEMPO   130/2
        BYTE           VOICE   96
        BYTE           VOL     39
        BYTE   W12
        BYTE           N12     Cn3   v110
        BYTE   W12
        BYTE                   Fn3
        BYTE   W12
        BYTE                   Gn3
        BYTE   W12
        BYTE           N48     Gs3
        BYTE   W48
// 001   ----------------------------------------
theflameandthearrow0_0_1:
        BYTE           N24     Gn3   v110
        BYTE   W24
        BYTE                   Ds3
        BYTE   W24
        BYTE                   Fn3
        BYTE   W24
        BYTE           N72     Cn3
        BYTE   W24
        BYTE   PEND
// 002   ----------------------------------------
theflameandthearrow0_0_2:
        BYTE   W48
        BYTE           N24     Cs3   v110
        BYTE   W24
        BYTE           N12     Ds3
        BYTE   W12
        BYTE                   Fn3
        BYTE   W12
        BYTE   PEND
// 003   ----------------------------------------
theflameandthearrow0_0_3:
        BYTE           N24     Ds3   v110
        BYTE   W24
        BYTE                   Gn3
        BYTE   W24
        BYTE                   Gs3
        BYTE   W24
        BYTE                   As3
        BYTE   W24
        BYTE   PEND
// 004   ----------------------------------------
theflameandthearrow0_0_4:
        BYTE           N48     Gn3   v110
        BYTE   W48
        BYTE           N24     Gs3
        BYTE   W24
        BYTE           N12     Gn3
        BYTE   W12
        BYTE                   Fn3
        BYTE   W12
        BYTE   PEND
// 005   ----------------------------------------
theflameandthearrow0_0_5:
        BYTE           N24     Ds3   v110
        BYTE   W24
        BYTE                   Cn3
        BYTE   W24
        BYTE                   Cs3
        BYTE   W24
        BYTE           N12     Ds3
        BYTE   W12
        BYTE                   Fn3
        BYTE   W12
        BYTE   PEND
// 006   ----------------------------------------
theflameandthearrow0_0_6:
        BYTE           N48     Ds3   v110
        BYTE   W48
        BYTE           N24     Gs3
        BYTE   W24
        BYTE                   As3
        BYTE   W24
        BYTE   PEND
// 007   ----------------------------------------
theflameandthearrow0_0_7:
        BYTE           N24     Gn3   v110
        BYTE   W24
        BYTE           N12     Fn3
        BYTE   W12
        BYTE                   Ds3
        BYTE   W12
        BYTE           N72     Fn3
        BYTE   W48
        BYTE   PEND
// 008   ----------------------------------------
        BYTE   W24
theflameandthearrow0_0_LOOP:
        BYTE   W24
        BYTE           VOL     34
        BYTE           N24     Gs3   v110
        BYTE   W24
        BYTE                   Fn3
        BYTE   W24
// 009   ----------------------------------------
theflameandthearrow0_0_9:
        BYTE           N12     Cn3   v110
        BYTE   W12
        BYTE                   Fn3
        BYTE   W12
        BYTE                   Gs3
        BYTE   W12
        BYTE                   As3
        BYTE   W12
        BYTE           N48     Gn3
        BYTE   W48
        BYTE   PEND
// 010   ----------------------------------------
theflameandthearrow0_0_10:
        BYTE           N24     Fn3   v110
        BYTE   W24
        BYTE                   Ds3
        BYTE   W24
        BYTE           N18     Cn3
        BYTE   W18
        BYTE                   Fn3
        BYTE   W18
        BYTE           N12     Gs3
        BYTE   W12
        BYTE   PEND
// 011   ----------------------------------------
theflameandthearrow0_0_11:
        BYTE           N18     Cn3   v110
        BYTE   W18
        BYTE                   Fn3
        BYTE   W18
        BYTE           N12     Gs3
        BYTE   W12
        BYTE           N48     Gn3
        BYTE   W48
        BYTE   PEND
// 012   ----------------------------------------
theflameandthearrow0_0_12:
        BYTE           N24     Fn3   v110
        BYTE   W24
        BYTE                   Ds3
        BYTE   W24
        BYTE           N48     Cs3
        BYTE   W48
        BYTE   PEND
// 013   ----------------------------------------
theflameandthearrow0_0_13:
        BYTE           N48     Cs4   v110
        BYTE   W48
        BYTE           N12     As3
        BYTE   W12
        BYTE                   Gs3
        BYTE   W12
        BYTE                   Gn3
        BYTE   W12
        BYTE                   Ds3
        BYTE   W12
        BYTE   PEND
// 014   ----------------------------------------
theflameandthearrow0_0_14:
        BYTE           N12     As2   v110
        BYTE   W12
        BYTE                   Cn3
        BYTE   W12
        BYTE                   Cs3
        BYTE   W12
        BYTE                   Ds3
        BYTE   W12
        BYTE                   Fn3
        BYTE   W12
        BYTE                   Ds3
        BYTE   W12
        BYTE                   Cs3
        BYTE   W12
        BYTE                   Cn3
        BYTE   W12
        BYTE   PEND
// 015   ----------------------------------------
theflameandthearrow0_0_15:
        BYTE           N12     As2   v110
        BYTE   W12
        BYTE                   Cs3
        BYTE   W12
        BYTE                   Ds3
        BYTE   W12
        BYTE                   Fn3
        BYTE   W12
        BYTE           N84     Gn3
        BYTE   W48
        BYTE   PEND
// 016   ----------------------------------------
theflameandthearrow0_0_16:
        BYTE           VOL     39
        BYTE   W12
        BYTE           N12     Cn3   v110
        BYTE   W12
        BYTE                   Fn3
        BYTE   W12
        BYTE                   Gn3
        BYTE   W12
        BYTE           N48     Gs3
        BYTE   W48
        BYTE   PEND
// 017   ----------------------------------------
        BYTE   PATT
         POIN2  theflameandthearrow0_0_1
// 018   ----------------------------------------
        BYTE   PATT
         POIN2  theflameandthearrow0_0_2
// 019   ----------------------------------------
        BYTE   PATT
         POIN2  theflameandthearrow0_0_3
// 020   ----------------------------------------
        BYTE   PATT
         POIN2  theflameandthearrow0_0_4
// 021   ----------------------------------------
        BYTE   PATT
         POIN2  theflameandthearrow0_0_5
// 022   ----------------------------------------
        BYTE   PATT
         POIN2  theflameandthearrow0_0_6
// 023   ----------------------------------------
        BYTE   PATT
         POIN2  theflameandthearrow0_0_7
// 024   ----------------------------------------
        BYTE   W24
        BYTE   GoTo
         POIN2  theflameandthearrow0_0_LOOP
        BYTE   W24
        BYTE           VOL     34
        BYTE           N24     Gs3   v110
        BYTE   W24
        BYTE                   Fn3
        BYTE   W24
// 025   ----------------------------------------
        BYTE   PATT
         POIN2  theflameandthearrow0_0_9
// 026   ----------------------------------------
        BYTE   PATT
         POIN2  theflameandthearrow0_0_10
// 027   ----------------------------------------
        BYTE   PATT
         POIN2  theflameandthearrow0_0_11
// 028   ----------------------------------------
        BYTE   PATT
         POIN2  theflameandthearrow0_0_12
// 029   ----------------------------------------
        BYTE   PATT
         POIN2  theflameandthearrow0_0_13
// 030   ----------------------------------------
        BYTE   PATT
         POIN2  theflameandthearrow0_0_14
// 031   ----------------------------------------
        BYTE           N12     As2   v110
        BYTE   W12
        BYTE                   Cs3
        BYTE   W12
        BYTE                   Ds3
        BYTE   W12
        BYTE                   Fn3
        BYTE   W12
        BYTE           N96     Gn3
        BYTE   W48
// 032   ----------------------------------------
        BYTE   W48
        BYTE           N48     Gs3
        BYTE   W06
        BYTE           VOL     33
        BYTE   W12
        BYTE                   32
        BYTE   W06
        BYTE                   31
        BYTE   W06
        BYTE                   30
        BYTE   W12
        BYTE                   29
        BYTE   W06
// 033   ----------------------------------------
theflameandthearrow0_0_33:
        BYTE           VOL     28
        BYTE           N24     Gn3   v110
        BYTE   W12
        BYTE           VOL     27
        BYTE   W06
        BYTE                   26
        BYTE   W06
        BYTE           N24     Ds3
        BYTE   W06
        BYTE           VOL     25
        BYTE   W06
        BYTE                   24
        BYTE   W12
        BYTE                   23
        BYTE           N24     Fn3
        BYTE   W06
        BYTE           VOL     22
        BYTE   W12
        BYTE                   21
        BYTE   W06
        BYTE                   20
        BYTE           N72     Cn3
        BYTE   W06
        BYTE           VOL     19
        BYTE   W12
        BYTE                   18
        BYTE   W06
        BYTE   PEND
// 034   ----------------------------------------
theflameandthearrow0_0_34:
        BYTE           VOL     17
        BYTE   W12
        BYTE                   16
        BYTE   W06
        BYTE                   15
        BYTE   W12
        BYTE                   14
        BYTE   W06
        BYTE                   13
        BYTE   W12
        BYTE                   12
        BYTE           N24     Cs3   v110
        BYTE   W06
        BYTE           VOL     11
        BYTE   W12
        BYTE                   10
        BYTE   W06
        BYTE                   9
        BYTE           N12     Ds3
        BYTE   W06
        BYTE           VOL     8
        BYTE   W06
        BYTE           N12     Fn3
        BYTE   W06
        BYTE           VOL     7
        BYTE   W06
        BYTE   PEND
// 035   ----------------------------------------
theflameandthearrow0_0_35:
        BYTE           VOL     6
        BYTE           N24     Ds3   v110
        BYTE   W12
        BYTE           VOL     5
        BYTE   W06
        BYTE                   4
        BYTE   W06
        BYTE           N24     Gn3
        BYTE   W06
        BYTE           VOL     3
        BYTE   W06
        BYTE                   2
        BYTE   W12
        BYTE                   1
        BYTE           N24     Gs3
        BYTE   W06
        BYTE           VOL     0
        BYTE   W18
        BYTE           N24     As3
        BYTE   W24
        BYTE   PEND
// 036   ----------------------------------------
        BYTE   W44
        BYTE   W03
        BYTE   FINE

//****************** Track 1 (Midi-Chn.1) ******************//

theflameandthearrow0_1:
        BYTE   KEYSH   theflameandthearrow0_key+0
// 000   ----------------------------------------
        BYTE           VOICE   97
        BYTE           VOL     39
        BYTE   W12
        BYTE           N12     Cn3   v110
        BYTE   W12
        BYTE                   Fn3
        BYTE   W12
        BYTE                   Gn3
        BYTE   W12
        BYTE           N48     Gs3
        BYTE   W48
// 001   ----------------------------------------
        BYTE   PATT
         POIN2  theflameandthearrow0_0_1
// 002   ----------------------------------------
        BYTE   PATT
         POIN2  theflameandthearrow0_0_2
// 003   ----------------------------------------
        BYTE   PATT
         POIN2  theflameandthearrow0_0_3
// 004   ----------------------------------------
        BYTE   PATT
         POIN2  theflameandthearrow0_0_4
// 005   ----------------------------------------
        BYTE   PATT
         POIN2  theflameandthearrow0_0_5
// 006   ----------------------------------------
        BYTE   PATT
         POIN2  theflameandthearrow0_0_6
// 007   ----------------------------------------
        BYTE   PATT
         POIN2  theflameandthearrow0_0_7
// 008   ----------------------------------------
        BYTE   W24
theflameandthearrow0_1_LOOP:
        BYTE   W24
        BYTE           VOL     34
        BYTE           N24     Gs3   v110
        BYTE   W24
        BYTE                   Fn3
        BYTE   W24
// 009   ----------------------------------------
        BYTE   PATT
         POIN2  theflameandthearrow0_0_9
// 010   ----------------------------------------
        BYTE   PATT
         POIN2  theflameandthearrow0_0_10
// 011   ----------------------------------------
        BYTE   PATT
         POIN2  theflameandthearrow0_0_11
// 012   ----------------------------------------
        BYTE   PATT
         POIN2  theflameandthearrow0_0_12
// 013   ----------------------------------------
        BYTE   PATT
         POIN2  theflameandthearrow0_0_13
// 014   ----------------------------------------
        BYTE   PATT
         POIN2  theflameandthearrow0_0_14
// 015   ----------------------------------------
        BYTE   PATT
         POIN2  theflameandthearrow0_0_15
// 016   ----------------------------------------
        BYTE   PATT
         POIN2  theflameandthearrow0_0_16
// 017   ----------------------------------------
        BYTE   PATT
         POIN2  theflameandthearrow0_0_1
// 018   ----------------------------------------
        BYTE   PATT
         POIN2  theflameandthearrow0_0_2
// 019   ----------------------------------------
        BYTE   PATT
         POIN2  theflameandthearrow0_0_3
// 020   ----------------------------------------
        BYTE   PATT
         POIN2  theflameandthearrow0_0_4
// 021   ----------------------------------------
        BYTE   PATT
         POIN2  theflameandthearrow0_0_5
// 022   ----------------------------------------
        BYTE   PATT
         POIN2  theflameandthearrow0_0_6
// 023   ----------------------------------------
        BYTE   PATT
         POIN2  theflameandthearrow0_0_7
// 024   ----------------------------------------
        BYTE   W24
        BYTE   GoTo
         POIN2  theflameandthearrow0_1_LOOP
        BYTE   W24
        BYTE           VOL     34
        BYTE           N24     Gs3   v110
        BYTE   W24
        BYTE                   Fn3
        BYTE   W24
// 025   ----------------------------------------
        BYTE   PATT
         POIN2  theflameandthearrow0_0_9
// 026   ----------------------------------------
        BYTE   PATT
         POIN2  theflameandthearrow0_0_10
// 027   ----------------------------------------
        BYTE   PATT
         POIN2  theflameandthearrow0_0_11
// 028   ----------------------------------------
        BYTE   PATT
         POIN2  theflameandthearrow0_0_12
// 029   ----------------------------------------
        BYTE   PATT
         POIN2  theflameandthearrow0_0_13
// 030   ----------------------------------------
        BYTE   PATT
         POIN2  theflameandthearrow0_0_14
// 031   ----------------------------------------
        BYTE           N12     As2   v110
        BYTE   W12
        BYTE                   Cs3
        BYTE   W12
        BYTE                   Ds3
        BYTE   W12
        BYTE                   Fn3
        BYTE   W60
// 032   ----------------------------------------
        BYTE   W12
        BYTE                   Cn3
        BYTE   W12
        BYTE                   Fn3
        BYTE   W12
        BYTE                   Gn3
        BYTE   W12
        BYTE           N48     Gs3
        BYTE   W06
        BYTE           VOL     33
        BYTE   W12
        BYTE                   32
        BYTE   W06
        BYTE                   31
        BYTE   W06
        BYTE                   30
        BYTE   W12
        BYTE                   29
        BYTE   W06
// 033   ----------------------------------------
        BYTE   PATT
         POIN2  theflameandthearrow0_0_33
// 034   ----------------------------------------
        BYTE   PATT
         POIN2  theflameandthearrow0_0_34
// 035   ----------------------------------------
        BYTE   PATT
         POIN2  theflameandthearrow0_0_35
// 036   ----------------------------------------
        BYTE   W44
        BYTE   W03
        BYTE   FINE

//****************** Track 2 (Midi-Chn.2) ******************//

theflameandthearrow0_2:
        BYTE   KEYSH   theflameandthearrow0_key+0
// 000   ----------------------------------------
        BYTE           VOICE   85
        BYTE           VOL     34
        BYTE   W96
// 001   ----------------------------------------
        BYTE   W96
// 002   ----------------------------------------
        BYTE   W96
// 003   ----------------------------------------
        BYTE   W96
// 004   ----------------------------------------
        BYTE   W96
// 005   ----------------------------------------
        BYTE   W96
// 006   ----------------------------------------
        BYTE   W96
// 007   ----------------------------------------
        BYTE   W48
        BYTE                   41
        BYTE   W48
// 008   ----------------------------------------
        BYTE   W24
theflameandthearrow0_2_LOOP:
        BYTE           N12     Gs3   v110
        BYTE   W12
        BYTE                   As3
        BYTE   W12
        BYTE           N48     Cn4
        BYTE   W48
// 009   ----------------------------------------
theflameandthearrow0_2_9:
        BYTE           N18     Cn4   v110
        BYTE   W18
        BYTE                   Cs4
        BYTE   W18
        BYTE           N12     Ds4
        BYTE   W12
        BYTE           N84     As3
        BYTE   W48
        BYTE   PEND
// 010   ----------------------------------------
theflameandthearrow0_2_10:
        BYTE   W36
        BYTE           N06     Gs3   v110
        BYTE   W06
        BYTE                   Gn3
        BYTE   W06
        BYTE           N48     Gs3
        BYTE   W48
        BYTE   PEND
// 011   ----------------------------------------
theflameandthearrow0_2_11:
        BYTE           N18     Gs3   v110
        BYTE   W18
        BYTE                   As3
        BYTE   W18
        BYTE           N12     Cn4
        BYTE   W12
        BYTE           N84
        BYTE   W48
        BYTE   PEND
// 012   ----------------------------------------
theflameandthearrow0_2_12:
        BYTE   W36
        BYTE           N06     Gs3   v110
        BYTE   W06
        BYTE                   Gn3
        BYTE   W06
        BYTE           N48     Fn3
        BYTE   W48
        BYTE   PEND
// 013   ----------------------------------------
theflameandthearrow0_2_13:
        BYTE           N48     Fn4   v110
        BYTE   W48
        BYTE                   Ds4
        BYTE   W48
        BYTE   PEND
// 014   ----------------------------------------
theflameandthearrow0_2_14:
        BYTE           N18     Ds4   v110
        BYTE   W18
        BYTE                   Cs4
        BYTE   W18
        BYTE           N12     Cn4
        BYTE   W12
        BYTE           N48     As3
        BYTE   W48
        BYTE   PEND
// 015   ----------------------------------------
theflameandthearrow0_2_15:
        BYTE           N18     As3   v110
        BYTE   W18
        BYTE                   Gs3
        BYTE   W18
        BYTE           N12     As3
        BYTE   W12
        BYTE           N60     Cn4
        BYTE   W48
        BYTE   PEND
// 016   ----------------------------------------
        BYTE   W96
// 017   ----------------------------------------
        BYTE   W96
// 018   ----------------------------------------
        BYTE   W96
// 019   ----------------------------------------
        BYTE   W96
// 020   ----------------------------------------
        BYTE   W96
// 021   ----------------------------------------
        BYTE   W96
// 022   ----------------------------------------
        BYTE   W96
// 023   ----------------------------------------
        BYTE   W96
// 024   ----------------------------------------
        BYTE   W24
        BYTE           N12     Gs3
        BYTE   GoTo
         POIN2  theflameandthearrow0_2_LOOP
        BYTE   W12
        BYTE                   As3
        BYTE   W12
        BYTE           N48     Cn4
        BYTE   W48
// 025   ----------------------------------------
        BYTE   PATT
         POIN2  theflameandthearrow0_2_9
// 026   ----------------------------------------
        BYTE   PATT
         POIN2  theflameandthearrow0_2_10
// 027   ----------------------------------------
        BYTE   PATT
         POIN2  theflameandthearrow0_2_11
// 028   ----------------------------------------
        BYTE   PATT
         POIN2  theflameandthearrow0_2_12
// 029   ----------------------------------------
        BYTE   PATT
         POIN2  theflameandthearrow0_2_13
// 030   ----------------------------------------
        BYTE   PATT
         POIN2  theflameandthearrow0_2_14
// 031   ----------------------------------------
        BYTE   PATT
         POIN2  theflameandthearrow0_2_15
// 032   ----------------------------------------
        BYTE   W96
// 033   ----------------------------------------
        BYTE   W96
// 034   ----------------------------------------
        BYTE   W96
// 035   ----------------------------------------
        BYTE   W96
// 036   ----------------------------------------
        BYTE   W44
        BYTE   W03
        BYTE   FINE

//****************** Track 3 (Midi-Chn.3) ******************//

theflameandthearrow0_3:
        BYTE   KEYSH   theflameandthearrow0_key+0
// 000   ----------------------------------------
        BYTE           VOICE   85
        BYTE           VOL     34
        BYTE   W96
// 001   ----------------------------------------
        BYTE   W96
// 002   ----------------------------------------
        BYTE   W96
// 003   ----------------------------------------
        BYTE   W96
// 004   ----------------------------------------
        BYTE   W96
// 005   ----------------------------------------
        BYTE   W96
// 006   ----------------------------------------
        BYTE   W96
// 007   ----------------------------------------
        BYTE   W48
        BYTE                   41
        BYTE   W48
// 008   ----------------------------------------
        BYTE   W24
theflameandthearrow0_3_LOOP:
        BYTE           N12     Gs3   v110
        BYTE   W12
        BYTE                   As3
        BYTE   W12
        BYTE           N48     Cn4
        BYTE   W48
// 009   ----------------------------------------
        BYTE   PATT
         POIN2  theflameandthearrow0_2_9
// 010   ----------------------------------------
        BYTE   PATT
         POIN2  theflameandthearrow0_2_10
// 011   ----------------------------------------
        BYTE   PATT
         POIN2  theflameandthearrow0_2_11
// 012   ----------------------------------------
        BYTE   PATT
         POIN2  theflameandthearrow0_2_12
// 013   ----------------------------------------
        BYTE   PATT
         POIN2  theflameandthearrow0_2_13
// 014   ----------------------------------------
        BYTE   PATT
         POIN2  theflameandthearrow0_2_14
// 015   ----------------------------------------
        BYTE   PATT
         POIN2  theflameandthearrow0_2_15
// 016   ----------------------------------------
        BYTE   W96
// 017   ----------------------------------------
        BYTE   W96
// 018   ----------------------------------------
        BYTE   W96
// 019   ----------------------------------------
        BYTE   W96
// 020   ----------------------------------------
        BYTE   W96
// 021   ----------------------------------------
        BYTE   W96
// 022   ----------------------------------------
        BYTE   W96
// 023   ----------------------------------------
        BYTE   W96
// 024   ----------------------------------------
        BYTE   W24
        BYTE           N12     Gs3   v110
        BYTE   GoTo
         POIN2  theflameandthearrow0_3_LOOP
        BYTE   W12
        BYTE                   As3
        BYTE   W12
        BYTE           N48     Cn4
        BYTE   W48
// 025   ----------------------------------------
        BYTE   PATT
         POIN2  theflameandthearrow0_2_9
// 026   ----------------------------------------
        BYTE   PATT
         POIN2  theflameandthearrow0_2_10
// 027   ----------------------------------------
        BYTE   PATT
         POIN2  theflameandthearrow0_2_11
// 028   ----------------------------------------
        BYTE   PATT
         POIN2  theflameandthearrow0_2_12
// 029   ----------------------------------------
        BYTE   PATT
         POIN2  theflameandthearrow0_2_13
// 030   ----------------------------------------
        BYTE   PATT
         POIN2  theflameandthearrow0_2_14
// 031   ----------------------------------------
        BYTE   PATT
         POIN2  theflameandthearrow0_2_15
// 032   ----------------------------------------
        BYTE   W96
// 033   ----------------------------------------
        BYTE   W96
// 034   ----------------------------------------
        BYTE   W96
// 035   ----------------------------------------
        BYTE   W96
// 036   ----------------------------------------
        BYTE   W44
        BYTE   W03
        BYTE   FINE

//****************** Track 4 (Midi-Chn.4) ******************//

theflameandthearrow0_4:
        BYTE   KEYSH   theflameandthearrow0_key+0
// 000   ----------------------------------------
        BYTE           VOICE   26
        BYTE           VOL     20
        BYTE   W48
        BYTE                   26
        BYTE           PAN     c_v-43
        BYTE           N12     Gs2   v120
        BYTE   W48
// 001   ----------------------------------------
theflameandthearrow0_4_1:
        BYTE           N12     As2   v120
        BYTE   W48
        BYTE                   Fn2
        BYTE   W48
        BYTE   PEND
// 002   ----------------------------------------
theflameandthearrow0_4_2:
        BYTE           N06     Cn3   v120
        BYTE   W06
        BYTE                   As2
        BYTE   W06
        BYTE                   Gs2
        BYTE   W06
        BYTE                   Gn2
        BYTE   W06
        BYTE                   Fn2
        BYTE   W06
        BYTE           N18     Cn2
        BYTE   W18
        BYTE           N12     Gs2
        BYTE   W48
        BYTE   PEND
// 003   ----------------------------------------
theflameandthearrow0_4_3:
        BYTE           N12     As2   v120
        BYTE   W48
        BYTE           N06     Cn3
        BYTE   W06
        BYTE                   Cs3
        BYTE   W06
        BYTE                   Cn3
        BYTE   W06
        BYTE                   As2
        BYTE   W06
        BYTE                   Cn3
        BYTE   W06
        BYTE                   As2
        BYTE   W06
        BYTE                   Gs2
        BYTE   W06
        BYTE                   As2
        BYTE   W06
        BYTE   PEND
// 004   ----------------------------------------
theflameandthearrow0_4_4:
        BYTE           N12     Gn2   v120
        BYTE   W30
        BYTE           N18
        BYTE   W18
        BYTE           N12     Cn3
        BYTE   W48
        BYTE   PEND
// 005   ----------------------------------------
        BYTE   PATT
         POIN2  theflameandthearrow0_4_1
// 006   ----------------------------------------
theflameandthearrow0_4_6:
        BYTE           N06     As2   v120
        BYTE   W06
        BYTE                   Gs2
        BYTE   W06
        BYTE                   Gn2
        BYTE   W06
        BYTE                   Ds2
        BYTE   W06
        BYTE                   As1
        BYTE   W06
        BYTE           N18     As2
        BYTE   W18
        BYTE           N12     Cn3
        BYTE   W48
        BYTE   PEND
// 007   ----------------------------------------
theflameandthearrow0_4_7:
        BYTE           N12     As2   v120
        BYTE   W48
        BYTE           N06     Fn2
        BYTE   W06
        BYTE                   Gs2
        BYTE   W06
        BYTE                   Gn2
        BYTE   W06
        BYTE                   Fn2
        BYTE   W06
        BYTE                   Cn3
        BYTE   W06
        BYTE                   As2
        BYTE   W06
        BYTE                   Gs2
        BYTE   W06
        BYTE                   Gn2
        BYTE   W06
        BYTE   PEND
// 008   ----------------------------------------
        BYTE                   Fn2
        BYTE   W06
        BYTE                   Ds2
        BYTE   W06
        BYTE                   Fn2
        BYTE   W06
        BYTE                   Gn2
        BYTE   W06
theflameandthearrow0_4_LOOP:
        BYTE           N06     Gs2   v120
        BYTE   W06
        BYTE                   Gn2
        BYTE   W06
        BYTE                   Gs2
        BYTE   W06
        BYTE                   As2
        BYTE   W06
        BYTE           BEND    c_v+2
        BYTE           N96     Gs2   v127
        BYTE   W48
// 009   ----------------------------------------
theflameandthearrow0_4_9:
        BYTE   W48
        BYTE           N96     As2   v127
        BYTE   W48
        BYTE   PEND
// 010   ----------------------------------------
theflameandthearrow0_4_10:
        BYTE   W48
        BYTE           N96     Cn3   v127
        BYTE   W48
        BYTE   PEND
// 011   ----------------------------------------
theflameandthearrow0_4_11:
        BYTE   W48
        BYTE           N96     Gn2   v127
        BYTE   W48
        BYTE   PEND
// 012   ----------------------------------------
theflameandthearrow0_4_12:
        BYTE   W48
        BYTE           BEND    c_v+0
        BYTE           N12     Gs2   v120
        BYTE   W48
        BYTE   PEND
// 013   ----------------------------------------
theflameandthearrow0_4_13:
        BYTE   W48
        BYTE           N12     As2   v120
        BYTE   W48
        BYTE   PEND
// 014   ----------------------------------------
theflameandthearrow0_4_14:
        BYTE   W48
        BYTE           N12     Fn2   v120
        BYTE   W48
        BYTE   PEND
// 015   ----------------------------------------
theflameandthearrow0_4_15:
        BYTE   W48
        BYTE           VOL     22
        BYTE           N48     Fn3   v120
        BYTE   W48
        BYTE   PEND
// 016   ----------------------------------------
        BYTE                   En3
        BYTE   W48
        BYTE           VOL     26
        BYTE           N12     Gs2
        BYTE   W48
// 017   ----------------------------------------
        BYTE   PATT
         POIN2  theflameandthearrow0_4_1
// 018   ----------------------------------------
        BYTE   PATT
         POIN2  theflameandthearrow0_4_2
// 019   ----------------------------------------
        BYTE   PATT
         POIN2  theflameandthearrow0_4_3
// 020   ----------------------------------------
        BYTE   PATT
         POIN2  theflameandthearrow0_4_4
// 021   ----------------------------------------
        BYTE   PATT
         POIN2  theflameandthearrow0_4_1
// 022   ----------------------------------------
        BYTE   PATT
         POIN2  theflameandthearrow0_4_6
// 023   ----------------------------------------
        BYTE   PATT
         POIN2  theflameandthearrow0_4_7
// 024   ----------------------------------------
        BYTE           N06     Fn2   v120
        BYTE   W06
        BYTE                   Ds2
        BYTE   W06
        BYTE                   Fn2
        BYTE   W06
        BYTE                   Gn2
        BYTE   W06
        BYTE                   Gs2
        BYTE   GoTo
         POIN2  theflameandthearrow0_4_LOOP
        BYTE   W06
        BYTE                   Gn2
        BYTE   W06
        BYTE                   Gs2
        BYTE   W06
        BYTE                   As2
        BYTE   W06
        BYTE           BEND    c_v+2
        BYTE           N96     Gs2   v127
        BYTE   W48
// 025   ----------------------------------------
        BYTE   PATT
         POIN2  theflameandthearrow0_4_9
// 026   ----------------------------------------
        BYTE   PATT
         POIN2  theflameandthearrow0_4_10
// 027   ----------------------------------------
        BYTE   PATT
         POIN2  theflameandthearrow0_4_11
// 028   ----------------------------------------
        BYTE   PATT
         POIN2  theflameandthearrow0_4_12
// 029   ----------------------------------------
        BYTE   PATT
         POIN2  theflameandthearrow0_4_13
// 030   ----------------------------------------
        BYTE   PATT
         POIN2  theflameandthearrow0_4_14
// 031   ----------------------------------------
        BYTE   PATT
         POIN2  theflameandthearrow0_4_15
// 032   ----------------------------------------
        BYTE           N48     En3   v120
        BYTE   W48
        BYTE           VOL     20
        BYTE           N12     Gs2
        BYTE   W06
        BYTE           VOL     19
        BYTE   W18
        BYTE                   18
        BYTE   W12
        BYTE                   17
        BYTE   W12
// 033   ----------------------------------------
        BYTE           N12     As2
        BYTE   W06
        BYTE           VOL     16
        BYTE   W18
        BYTE                   15
        BYTE   W12
        BYTE                   14
        BYTE   W12
        BYTE           N12     Fn2
        BYTE   W06
        BYTE           VOL     13
        BYTE   W12
        BYTE                   12
        BYTE   W12
        BYTE                   11
        BYTE   W18
// 034   ----------------------------------------
        BYTE                   10
        BYTE           N06     Cn3
        BYTE   W06
        BYTE                   As2
        BYTE   W06
        BYTE           VOL     9
        BYTE           N06     Gs2
        BYTE   W06
        BYTE                   Gn2
        BYTE   W06
        BYTE           VOL     8
        BYTE           N06     Fn2
        BYTE   W06
        BYTE           N18     Cn2
        BYTE   W06
        BYTE           VOL     7
        BYTE   W12
        BYTE           N12     Gs2
        BYTE   W06
        BYTE           VOL     6
        BYTE   W12
        BYTE                   5
        BYTE   W18
        BYTE                   4
        BYTE   W12
// 035   ----------------------------------------
        BYTE                   3
        BYTE           N12     As2
        BYTE   W18
        BYTE           VOL     2
        BYTE   W12
        BYTE                   1
        BYTE   W18
        BYTE                   0
        BYTE           N06     Cn3
        BYTE   W06
        BYTE                   Cs3
        BYTE   W06
        BYTE                   Cn3
        BYTE   W06
        BYTE                   As2
        BYTE   W06
        BYTE                   Cn3
        BYTE   W06
        BYTE                   As2
        BYTE   W06
        BYTE                   Gs2
        BYTE   W06
        BYTE                   As2
        BYTE   W06
// 036   ----------------------------------------
        BYTE           N12     Gn2
        BYTE   W44
        BYTE   W03
        BYTE   FINE

//****************** Track 5 (Midi-Chn.5) ******************//

theflameandthearrow0_5:
        BYTE   KEYSH   theflameandthearrow0_key+0
// 000   ----------------------------------------
        BYTE           VOICE   26
        BYTE           VOL     20
        BYTE   W48
        BYTE                   26
        BYTE           PAN     c_v-43
        BYTE           N12     Fn2   v120
        BYTE   W48
// 001   ----------------------------------------
theflameandthearrow0_5_1:
        BYTE           N12     Gn2   v120
        BYTE   W48
        BYTE                   Cn2
        BYTE   W48
        BYTE   PEND
// 002   ----------------------------------------
theflameandthearrow0_5_2:
        BYTE   W24
        BYTE           N06     Cn2   v120
        BYTE   W06
        BYTE           N18     Cn1
        BYTE   W18
        BYTE           N12     Fn2
        BYTE   W48
        BYTE   PEND
// 003   ----------------------------------------
        BYTE                   Gn2
        BYTE   W96
// 004   ----------------------------------------
theflameandthearrow0_5_4:
        BYTE           N12     Ds2   v120
        BYTE   W30
        BYTE           N18
        BYTE   W18
        BYTE           N12     Gs2
        BYTE   W48
        BYTE   PEND
// 005   ----------------------------------------
theflameandthearrow0_5_5:
        BYTE           N12     Gn2   v120
        BYTE   W48
        BYTE                   Cs2
        BYTE   W48
        BYTE   PEND
// 006   ----------------------------------------
theflameandthearrow0_5_6:
        BYTE   W30
        BYTE           N18     Gn2   v120
        BYTE   W18
        BYTE           N12     Gs2
        BYTE   W48
        BYTE   PEND
// 007   ----------------------------------------
        BYTE                   Gn2
        BYTE   W96
// 008   ----------------------------------------
        BYTE   W24
theflameandthearrow0_5_LOOP:
        BYTE   W72
// 009   ----------------------------------------
        BYTE   W96
// 010   ----------------------------------------
        BYTE   W96
// 011   ----------------------------------------
        BYTE   W96
// 012   ----------------------------------------
        BYTE   PATT
         POIN2  theflameandthearrow0_4_14
// 013   ----------------------------------------
theflameandthearrow0_5_13:
        BYTE   W48
        BYTE           N12     Gn2   v120
        BYTE   W48
        BYTE   PEND
// 014   ----------------------------------------
theflameandthearrow0_5_14:
        BYTE   W48
        BYTE           N12     Cs2   v120
        BYTE   W48
        BYTE   PEND
// 015   ----------------------------------------
theflameandthearrow0_5_15:
        BYTE   W48
        BYTE           N48     Gn2   v120
        BYTE   W48
        BYTE   PEND
// 016   ----------------------------------------
        BYTE                   Gn2
        BYTE   W48
        BYTE           N12     Fn2
        BYTE   W48
// 017   ----------------------------------------
        BYTE   PATT
         POIN2  theflameandthearrow0_5_1
// 018   ----------------------------------------
        BYTE   PATT
         POIN2  theflameandthearrow0_5_2
// 019   ----------------------------------------
        BYTE           N12     Gn2   v120
        BYTE   W96
// 020   ----------------------------------------
        BYTE   PATT
         POIN2  theflameandthearrow0_5_4
// 021   ----------------------------------------
        BYTE   PATT
         POIN2  theflameandthearrow0_5_5
// 022   ----------------------------------------
        BYTE   PATT
         POIN2  theflameandthearrow0_5_6
// 023   ----------------------------------------
        BYTE           N12     Gn2   v120
        BYTE   W96
// 024   ----------------------------------------
        BYTE   W24
        BYTE   GoTo
         POIN2  theflameandthearrow0_5_LOOP
        BYTE   W72
// 025   ----------------------------------------
        BYTE   W96
// 026   ----------------------------------------
        BYTE   W96
// 027   ----------------------------------------
        BYTE   W96
// 028   ----------------------------------------
        BYTE   PATT
         POIN2  theflameandthearrow0_4_14
// 029   ----------------------------------------
        BYTE   PATT
         POIN2  theflameandthearrow0_5_13
// 030   ----------------------------------------
        BYTE   PATT
         POIN2  theflameandthearrow0_5_14
// 031   ----------------------------------------
        BYTE   PATT
         POIN2  theflameandthearrow0_5_15
// 032   ----------------------------------------
        BYTE           N48     Gn2   v120
        BYTE   W48
        BYTE           VOL     20
        BYTE           N12     Fn2
        BYTE   W06
        BYTE           VOL     19
        BYTE   W18
        BYTE                   18
        BYTE   W12
        BYTE                   17
        BYTE   W12
// 033   ----------------------------------------
        BYTE           N12     Gn2
        BYTE   W06
        BYTE           VOL     16
        BYTE   W18
        BYTE                   15
        BYTE   W12
        BYTE                   14
        BYTE   W12
        BYTE           N12     Cn2
        BYTE   W06
        BYTE           VOL     13
        BYTE   W12
        BYTE                   12
        BYTE   W12
        BYTE                   11
        BYTE   W18
// 034   ----------------------------------------
        BYTE                   10
        BYTE   W12
        BYTE                   9
        BYTE   W12
        BYTE                   8
        BYTE           N06
        BYTE   W06
        BYTE           N18     Cn1
        BYTE   W06
        BYTE           VOL     7
        BYTE   W12
        BYTE           N12     Fn2
        BYTE   W06
        BYTE           VOL     6
        BYTE   W12
        BYTE                   5
        BYTE   W18
        BYTE                   4
        BYTE   W12
// 035   ----------------------------------------
        BYTE                   3
        BYTE           N12     Gn2
        BYTE   W18
        BYTE           VOL     2
        BYTE   W12
        BYTE                   1
        BYTE   W18
        BYTE                   0
        BYTE   W48
// 036   ----------------------------------------
        BYTE           N12     Ds2
        BYTE   W44
        BYTE   W03
        BYTE   FINE

//****************** Track 6 (Midi-Chn.6) ******************//

theflameandthearrow0_6:
        BYTE   KEYSH   theflameandthearrow0_key+0
// 000   ----------------------------------------
        BYTE           VOICE   27
        BYTE           VOL     20
        BYTE   W48
        BYTE                   26
        BYTE           PAN     c_v+41
        BYTE           N12     Gs2   v100
        BYTE   W48
// 001   ----------------------------------------
theflameandthearrow0_6_1:
        BYTE           N12     Gn2   v100
        BYTE   W48
        BYTE                   Cn3
        BYTE   W48
        BYTE   PEND
// 002   ----------------------------------------
theflameandthearrow0_6_2:
        BYTE           N06     Gs2   v100
        BYTE   W06
        BYTE                   Gn2
        BYTE   W06
        BYTE                   Fn2
        BYTE   W06
        BYTE                   Ds2
        BYTE   W06
        BYTE                   Cs2
        BYTE   W06
        BYTE           N18     Cn2
        BYTE   W18
        BYTE           N12     Fn2
        BYTE   W48
        BYTE   PEND
// 003   ----------------------------------------
theflameandthearrow0_6_3:
        BYTE           N12     Gn2   v100
        BYTE   W48
        BYTE           N06     Gs2
        BYTE   W06
        BYTE                   As2
        BYTE   W06
        BYTE                   Gs2
        BYTE   W06
        BYTE                   Gn2
        BYTE   W06
        BYTE                   Gs2
        BYTE   W06
        BYTE                   Gn2
        BYTE   W06
        BYTE                   Fn2
        BYTE   W06
        BYTE                   Gn2
        BYTE   W06
        BYTE   PEND
// 004   ----------------------------------------
theflameandthearrow0_6_4:
        BYTE           N12     Gn2   v100
        BYTE   W30
        BYTE           N18
        BYTE   W18
        BYTE           N12     Cn3
        BYTE   W48
        BYTE   PEND
// 005   ----------------------------------------
theflameandthearrow0_6_5:
        BYTE           N12     As2   v100
        BYTE   W48
        BYTE                   Fn2
        BYTE   W48
        BYTE   PEND
// 006   ----------------------------------------
theflameandthearrow0_6_6:
        BYTE           N06     As2   v100
        BYTE   W06
        BYTE                   Gs2
        BYTE   W06
        BYTE                   Gn2
        BYTE   W06
        BYTE                   Ds2
        BYTE   W06
        BYTE                   As1
        BYTE   W06
        BYTE           N18     Gn2
        BYTE   W18
        BYTE           N12     Cn3
        BYTE   W48
        BYTE   PEND
// 007   ----------------------------------------
theflameandthearrow0_6_7:
        BYTE           N12     As2   v100
        BYTE   W48
        BYTE           N06     Fn2
        BYTE   W06
        BYTE                   Gs2
        BYTE   W06
        BYTE                   Gn2
        BYTE   W06
        BYTE                   Fn2
        BYTE   W06
        BYTE                   Cn3
        BYTE   W06
        BYTE                   As2
        BYTE   W06
        BYTE                   Gs2
        BYTE   W06
        BYTE                   Gn2
        BYTE   W06
        BYTE   PEND
// 008   ----------------------------------------
        BYTE                   Fn2
        BYTE   W06
        BYTE                   Ds2
        BYTE   W06
        BYTE                   Fn2
        BYTE   W06
        BYTE                   Gn2
        BYTE   W06
theflameandthearrow0_6_LOOP:
        BYTE           N06     Gs2   v100
        BYTE   W06
        BYTE                   Gn2
        BYTE   W06
        BYTE                   Gs2
        BYTE   W06
        BYTE                   As2
        BYTE   W06
        BYTE           BEND    c_v-2
        BYTE           N96     Gs2
        BYTE   W48
// 009   ----------------------------------------
theflameandthearrow0_6_9:
        BYTE   W48
        BYTE           N96     As2   v100
        BYTE   W48
        BYTE   PEND
// 010   ----------------------------------------
theflameandthearrow0_6_10:
        BYTE   W48
        BYTE           N96     Cn3   v100
        BYTE   W48
        BYTE   PEND
// 011   ----------------------------------------
theflameandthearrow0_6_11:
        BYTE   W48
        BYTE           N96     Gn2   v100
        BYTE   W48
        BYTE   PEND
// 012   ----------------------------------------
theflameandthearrow0_6_12:
        BYTE   W48
        BYTE           BEND    c_v+0
        BYTE           N12     Fn2   v100
        BYTE   W48
        BYTE   PEND
// 013   ----------------------------------------
theflameandthearrow0_6_13:
        BYTE   W48
        BYTE           N12     Gn2   v100
        BYTE   W48
        BYTE   PEND
// 014   ----------------------------------------
theflameandthearrow0_6_14:
        BYTE   W48
        BYTE           N12     Cs2   v100
        BYTE   W48
        BYTE   PEND
// 015   ----------------------------------------
theflameandthearrow0_6_15:
        BYTE   W48
        BYTE           N48     Gn2   v100
        BYTE   W48
        BYTE   PEND
// 016   ----------------------------------------
        BYTE                   Gn2
        BYTE   W48
        BYTE           N12     Gs2
        BYTE   W48
// 017   ----------------------------------------
        BYTE   PATT
         POIN2  theflameandthearrow0_6_1
// 018   ----------------------------------------
        BYTE   PATT
         POIN2  theflameandthearrow0_6_2
// 019   ----------------------------------------
        BYTE   PATT
         POIN2  theflameandthearrow0_6_3
// 020   ----------------------------------------
        BYTE   PATT
         POIN2  theflameandthearrow0_6_4
// 021   ----------------------------------------
        BYTE   PATT
         POIN2  theflameandthearrow0_6_5
// 022   ----------------------------------------
        BYTE   PATT
         POIN2  theflameandthearrow0_6_6
// 023   ----------------------------------------
        BYTE   PATT
         POIN2  theflameandthearrow0_6_7
// 024   ----------------------------------------
        BYTE           N06     Fn2   v100
        BYTE   W06
        BYTE                   Ds2
        BYTE   W06
        BYTE                   Fn2
        BYTE   W06
        BYTE                   Gn2
        BYTE   W06
        BYTE                   Gs2
        BYTE   GoTo
         POIN2  theflameandthearrow0_6_LOOP
        BYTE   W06
        BYTE                   Gn2
        BYTE   W06
        BYTE                   Gs2
        BYTE   W06
        BYTE                   As2
        BYTE   W06
        BYTE           BEND    c_v-2
        BYTE           N96     Gs2
        BYTE   W48
// 025   ----------------------------------------
        BYTE   PATT
         POIN2  theflameandthearrow0_6_9
// 026   ----------------------------------------
        BYTE   PATT
         POIN2  theflameandthearrow0_6_10
// 027   ----------------------------------------
        BYTE   PATT
         POIN2  theflameandthearrow0_6_11
// 028   ----------------------------------------
        BYTE   PATT
         POIN2  theflameandthearrow0_6_12
// 029   ----------------------------------------
        BYTE   PATT
         POIN2  theflameandthearrow0_6_13
// 030   ----------------------------------------
        BYTE   PATT
         POIN2  theflameandthearrow0_6_14
// 031   ----------------------------------------
        BYTE   PATT
         POIN2  theflameandthearrow0_6_15
// 032   ----------------------------------------
        BYTE           N48     Gn2   v100
        BYTE   W48
        BYTE           VOL     20
        BYTE           N12     Gs2
        BYTE   W06
        BYTE           VOL     19
        BYTE   W18
        BYTE                   18
        BYTE   W12
        BYTE                   17
        BYTE   W12
// 033   ----------------------------------------
        BYTE           N12     Gn2
        BYTE   W06
        BYTE           VOL     16
        BYTE   W18
        BYTE                   15
        BYTE   W12
        BYTE                   14
        BYTE   W12
        BYTE           N12     Cn3
        BYTE   W06
        BYTE           VOL     13
        BYTE   W12
        BYTE                   12
        BYTE   W12
        BYTE                   11
        BYTE   W18
// 034   ----------------------------------------
        BYTE                   10
        BYTE           N06     Gs2
        BYTE   W06
        BYTE                   Gn2
        BYTE   W06
        BYTE           VOL     9
        BYTE           N06     Fn2
        BYTE   W06
        BYTE                   Ds2
        BYTE   W06
        BYTE           VOL     8
        BYTE           N06     Cs2
        BYTE   W06
        BYTE           N18     Cn2
        BYTE   W06
        BYTE           VOL     7
        BYTE   W12
        BYTE           N12     Fn2
        BYTE   W06
        BYTE           VOL     6
        BYTE   W12
        BYTE                   5
        BYTE   W18
        BYTE                   4
        BYTE   W12
// 035   ----------------------------------------
        BYTE                   3
        BYTE           N12     Gn2
        BYTE   W18
        BYTE           VOL     2
        BYTE   W12
        BYTE                   1
        BYTE   W18
        BYTE                   0
        BYTE           N06     Gs2
        BYTE   W06
        BYTE                   As2
        BYTE   W06
        BYTE                   Gs2
        BYTE   W06
        BYTE                   Gn2
        BYTE   W06
        BYTE                   Gs2
        BYTE   W06
        BYTE                   Gn2
        BYTE   W06
        BYTE                   Fn2
        BYTE   W06
        BYTE                   Gn2
        BYTE   W06
// 036   ----------------------------------------
        BYTE           N12
        BYTE   W44
        BYTE   W03
        BYTE   FINE

//****************** Track 7 (Midi-Chn.7) ******************//

theflameandthearrow0_7:
        BYTE   KEYSH   theflameandthearrow0_key+0
// 000   ----------------------------------------
        BYTE           VOICE   27
        BYTE           VOL     20
        BYTE   W48
        BYTE                   26
        BYTE           PAN     c_v+41
        BYTE           N12     Fn2   v100
        BYTE   W48
// 001   ----------------------------------------
theflameandthearrow0_7_1:
        BYTE           N12     Ds2   v100
        BYTE   W48
        BYTE                   Gs2
        BYTE   W48
        BYTE   PEND
// 002   ----------------------------------------
        BYTE   PATT
         POIN2  theflameandthearrow0_6_14
// 003   ----------------------------------------
        BYTE           N12     Ds2   v100
        BYTE   W96
// 004   ----------------------------------------
theflameandthearrow0_7_4:
        BYTE           N12     Ds2   v100
        BYTE   W30
        BYTE           N18
        BYTE   W18
        BYTE           N12     Gs2
        BYTE   W48
        BYTE   PEND
// 005   ----------------------------------------
theflameandthearrow0_7_5:
        BYTE           N12     Gn2   v100
        BYTE   W48
        BYTE                   Cs2
        BYTE   W48
        BYTE   PEND
// 006   ----------------------------------------
theflameandthearrow0_7_6:
        BYTE   W30
        BYTE           N18     Ds2   v100
        BYTE   W18
        BYTE           N12     Gs2
        BYTE   W48
        BYTE   PEND
// 007   ----------------------------------------
        BYTE                   Gn2
        BYTE   W96
// 008   ----------------------------------------
        BYTE   W24
theflameandthearrow0_7_LOOP:
        BYTE   W72
// 009   ----------------------------------------
        BYTE   W96
// 010   ----------------------------------------
        BYTE   W96
// 011   ----------------------------------------
        BYTE   W96
// 012   ----------------------------------------
        BYTE   PATT
         POIN2  theflameandthearrow0_6_14
// 013   ----------------------------------------
theflameandthearrow0_7_13:
        BYTE   W48
        BYTE           N12     Ds2   v100
        BYTE   W48
        BYTE   PEND
// 014   ----------------------------------------
theflameandthearrow0_7_14:
        BYTE   W48
        BYTE           N12     As1   v100
        BYTE   W48
        BYTE   PEND
// 015   ----------------------------------------
        BYTE   W96
// 016   ----------------------------------------
        BYTE   W48
        BYTE                   Fn2
        BYTE   W48
// 017   ----------------------------------------
        BYTE   PATT
         POIN2  theflameandthearrow0_7_1
// 018   ----------------------------------------
        BYTE   PATT
         POIN2  theflameandthearrow0_6_14
// 019   ----------------------------------------
        BYTE           N12     Ds2   v100
        BYTE   W96
// 020   ----------------------------------------
        BYTE   PATT
         POIN2  theflameandthearrow0_7_4
// 021   ----------------------------------------
        BYTE   PATT
         POIN2  theflameandthearrow0_7_5
// 022   ----------------------------------------
        BYTE   PATT
         POIN2  theflameandthearrow0_7_6
// 023   ----------------------------------------
        BYTE           N12     Gn2   v100
        BYTE   W96
// 024   ----------------------------------------
        BYTE   W24
        BYTE   GoTo
         POIN2  theflameandthearrow0_7_LOOP
        BYTE   W72
// 025   ----------------------------------------
        BYTE   W96
// 026   ----------------------------------------
        BYTE   W96
// 027   ----------------------------------------
        BYTE   W96
// 028   ----------------------------------------
        BYTE   PATT
         POIN2  theflameandthearrow0_6_14
// 029   ----------------------------------------
        BYTE   PATT
         POIN2  theflameandthearrow0_7_13
// 030   ----------------------------------------
        BYTE   PATT
         POIN2  theflameandthearrow0_7_14
// 031   ----------------------------------------
        BYTE   W96
// 032   ----------------------------------------
        BYTE   W48
        BYTE           VOL     20
        BYTE           N12     Fn2   v100
        BYTE   W06
        BYTE           VOL     19
        BYTE   W18
        BYTE                   18
        BYTE   W12
        BYTE                   17
        BYTE   W12
// 033   ----------------------------------------
        BYTE           N12     Ds2
        BYTE   W06
        BYTE           VOL     16
        BYTE   W18
        BYTE                   15
        BYTE   W12
        BYTE                   14
        BYTE   W12
        BYTE           N12     Gs2
        BYTE   W06
        BYTE           VOL     13
        BYTE   W12
        BYTE                   12
        BYTE   W12
        BYTE                   11
        BYTE   W18
// 034   ----------------------------------------
        BYTE                   10
        BYTE   W12
        BYTE                   9
        BYTE   W12
        BYTE                   8
        BYTE   W12
        BYTE                   7
        BYTE   W12
        BYTE           N12     Cs2
        BYTE   W06
        BYTE           VOL     6
        BYTE   W12
        BYTE                   5
        BYTE   W18
        BYTE                   4
        BYTE   W12
// 035   ----------------------------------------
        BYTE                   3
        BYTE           N12     Ds2
        BYTE   W18
        BYTE           VOL     2
        BYTE   W12
        BYTE                   1
        BYTE   W18
        BYTE                   0
        BYTE   W48
// 036   ----------------------------------------
        BYTE           N12
        BYTE   W44
        BYTE   W03
        BYTE   FINE

//****************** Track 8 (Midi-Chn.8) ******************//

theflameandthearrow0_8:
        BYTE   KEYSH   theflameandthearrow0_key+0
// 000   ----------------------------------------
        BYTE           VOICE   33
        BYTE           VOL     20
        BYTE   W48
        BYTE                   26
        BYTE           N11     Fn1   v120
        BYTE   W12
        BYTE                   Fn2
        BYTE   W12
        BYTE                   Cn2
        BYTE   W12
        BYTE                   Fn1
        BYTE   W12
// 001   ----------------------------------------
theflameandthearrow0_8_1:
        BYTE           N11     Gn1   v120
        BYTE   W12
        BYTE                   Cn2
        BYTE   W12
        BYTE           N05     As1
        BYTE   W06
        BYTE                   Gs1
        BYTE   W06
        BYTE           N11     Gn1
        BYTE   W12
        BYTE           N22     Fn1
        BYTE   W24
        BYTE                   Gn1
        BYTE   W24
        BYTE   PEND
// 002   ----------------------------------------
theflameandthearrow0_8_2:
        BYTE           N22     Gs1   v120
        BYTE   W24
        BYTE           N05     As1
        BYTE   W06
        BYTE           N17     Cn2
        BYTE   W18
        BYTE           N11     Cs2
        BYTE   W12
        BYTE                   Gs1
        BYTE   W12
        BYTE                   Fn1
        BYTE   W12
        BYTE                   Cs2
        BYTE   W12
        BYTE   PEND
// 003   ----------------------------------------
theflameandthearrow0_8_3:
        BYTE           N11     Ds2   v120
        BYTE   W12
        BYTE                   As1
        BYTE   W12
        BYTE                   Gn1
        BYTE   W12
        BYTE                   Ds2
        BYTE   W12
        BYTE           N17     Gs1
        BYTE   W18
        BYTE                   Ds2
        BYTE   W18
        BYTE           N11     Gs2
        BYTE   W12
        BYTE   PEND
// 004   ----------------------------------------
theflameandthearrow0_8_4:
        BYTE           N05     Gn2   v120
        BYTE   W06
        BYTE                   Ds2
        BYTE   W06
        BYTE                   As1
        BYTE   W06
        BYTE                   Gn1
        BYTE   W06
        BYTE                   Ds1
        BYTE   W06
        BYTE           N17     Ds2
        BYTE   W18
        BYTE           N11     Fn1
        BYTE   W12
        BYTE                   Fn2
        BYTE   W12
        BYTE                   Cn2
        BYTE   W12
        BYTE                   Fn1
        BYTE   W12
        BYTE   PEND
// 005   ----------------------------------------
theflameandthearrow0_8_5:
        BYTE           N17     Gn1   v120
        BYTE   W18
        BYTE                   Ds2
        BYTE   W18
        BYTE           N11     Cn2
        BYTE   W12
        BYTE                   Cs2
        BYTE   W12
        BYTE                   Gs1
        BYTE   W12
        BYTE                   Fn1
        BYTE   W12
        BYTE                   Cs2
        BYTE   W12
        BYTE   PEND
// 006   ----------------------------------------
theflameandthearrow0_8_6:
        BYTE           N11     Ds2   v120
        BYTE   W12
        BYTE                   As1
        BYTE   W12
        BYTE           N05     Gn1
        BYTE   W06
        BYTE           N17     Ds2
        BYTE   W18
        BYTE           N11     Fn1
        BYTE   W12
        BYTE                   Cn2
        BYTE   W12
        BYTE           N05     Fn2
        BYTE   W06
        BYTE                   Cn2
        BYTE   W06
        BYTE                   Gs1
        BYTE   W06
        BYTE                   Fn1
        BYTE   W06
        BYTE   PEND
// 007   ----------------------------------------
theflameandthearrow0_8_7:
        BYTE           N05     Gn1   v120
        BYTE   W06
        BYTE                   As1
        BYTE   W06
        BYTE                   Gn1
        BYTE   W06
        BYTE           N11     Ds2
        BYTE   W12
        BYTE           N05     Gn2
        BYTE   W06
        BYTE                   Gs2
        BYTE   W06
        BYTE                   As2
        BYTE   W06
        BYTE                   Fn1
        BYTE   W06
        BYTE                   Gs1
        BYTE   W06
        BYTE                   Gn1
        BYTE   W06
        BYTE                   Fn1
        BYTE   W06
        BYTE                   Cn2
        BYTE   W06
        BYTE                   As1
        BYTE   W06
        BYTE                   Gs1
        BYTE   W06
        BYTE                   Gn1
        BYTE   W06
        BYTE   PEND
// 008   ----------------------------------------
        BYTE                   Fn1
        BYTE   W06
        BYTE                   Ds1
        BYTE   W06
        BYTE                   Fn1
        BYTE   W06
        BYTE                   Gn1
        BYTE   W06
theflameandthearrow0_8_LOOP:
        BYTE           N05     Fn1   v120
        BYTE   W06
        BYTE                   Gn1
        BYTE   W06
        BYTE                   Gs1
        BYTE   W06
        BYTE                   As1
        BYTE   W06
        BYTE                   Gs1
        BYTE   W06
        BYTE                   Gs1
        BYTE   W06
        BYTE                   Gs1
        BYTE   W06
        BYTE                   Gs1
        BYTE   W06
        BYTE                   Gs1
        BYTE   W06
        BYTE                   Gs1
        BYTE   W06
        BYTE                   Gs1
        BYTE   W06
        BYTE                   Gs1
        BYTE   W06
// 009   ----------------------------------------
theflameandthearrow0_8_9:
        BYTE           N05     Gs1   v120
        BYTE   W06
        BYTE                   Gs1
        BYTE   W06
        BYTE                   Gs1
        BYTE   W06
        BYTE           N17     Cn2
        BYTE   W18
        BYTE           N11     Cs2
        BYTE   W12
        BYTE           N05     Ds2
        BYTE   W06
        BYTE                   Ds2
        BYTE   W06
        BYTE                   Ds2
        BYTE   W06
        BYTE                   Ds2
        BYTE   W06
        BYTE                   Ds2
        BYTE   W06
        BYTE                   Ds2
        BYTE   W06
        BYTE                   Ds2
        BYTE   W06
        BYTE                   Ds2
        BYTE   W06
        BYTE   PEND
// 010   ----------------------------------------
theflameandthearrow0_8_10:
        BYTE           N05     Ds2   v120
        BYTE   W06
        BYTE                   Ds2
        BYTE   W06
        BYTE                   Ds2
        BYTE   W06
        BYTE           N17     Fn2
        BYTE   W18
        BYTE           N11     Gn2
        BYTE   W12
        BYTE           N05     Fn1
        BYTE   W06
        BYTE                   Fn1
        BYTE   W06
        BYTE                   Fn1
        BYTE   W06
        BYTE                   Fn1
        BYTE   W06
        BYTE                   Fn1
        BYTE   W06
        BYTE                   Fn1
        BYTE   W06
        BYTE                   Fn1
        BYTE   W06
        BYTE                   Fn1
        BYTE   W06
        BYTE   PEND
// 011   ----------------------------------------
theflameandthearrow0_8_11:
        BYTE           N05     Fn1   v120
        BYTE   W06
        BYTE                   Fn1
        BYTE   W06
        BYTE                   Fn1
        BYTE   W06
        BYTE           N17     As1
        BYTE   W18
        BYTE           N11     Bn1
        BYTE   W12
        BYTE           N05     Cn2
        BYTE   W06
        BYTE                   Cn2
        BYTE   W06
        BYTE                   Cn2
        BYTE   W06
        BYTE                   Cn2
        BYTE   W06
        BYTE                   Cn2
        BYTE   W06
        BYTE                   Cn2
        BYTE   W06
        BYTE                   Cn2
        BYTE   W06
        BYTE                   Cn2
        BYTE   W06
        BYTE   PEND
// 012   ----------------------------------------
theflameandthearrow0_8_12:
        BYTE           N05     Cn2   v120
        BYTE   W06
        BYTE                   Cn2
        BYTE   W06
        BYTE                   Cn2
        BYTE   W06
        BYTE                   Cn2
        BYTE   W06
        BYTE                   Cn2
        BYTE   W06
        BYTE                   Cn2
        BYTE   W06
        BYTE                   Cs2
        BYTE   W06
        BYTE                   Ds2
        BYTE   W06
        BYTE                   Cs2
        BYTE   W06
        BYTE                   Cs2
        BYTE   W06
        BYTE                   Cs2
        BYTE   W06
        BYTE                   Cs2
        BYTE   W06
        BYTE                   Cs2
        BYTE   W06
        BYTE                   Cs2
        BYTE   W06
        BYTE                   Gs1
        BYTE   W06
        BYTE                   Cs2
        BYTE   W06
        BYTE   PEND
// 013   ----------------------------------------
theflameandthearrow0_8_13:
        BYTE           N05     Fn1   v120
        BYTE   W06
        BYTE                   Fn1
        BYTE   W06
        BYTE                   Fn1
        BYTE   W06
        BYTE                   Gs1
        BYTE   W06
        BYTE                   Gs1
        BYTE   W06
        BYTE                   Gs1
        BYTE   W06
        BYTE                   Cs2
        BYTE   W06
        BYTE                   Cs2
        BYTE   W06
        BYTE                   Ds2
        BYTE   W06
        BYTE                   Ds2
        BYTE   W06
        BYTE                   Ds2
        BYTE   W06
        BYTE                   Ds2
        BYTE   W06
        BYTE                   Ds2
        BYTE   W06
        BYTE                   Ds2
        BYTE   W06
        BYTE                   Ds2
        BYTE   W06
        BYTE                   Ds2
        BYTE   W06
        BYTE   PEND
// 014   ----------------------------------------
theflameandthearrow0_8_14:
        BYTE           N05     Ds2   v120
        BYTE   W06
        BYTE                   Ds2
        BYTE   W06
        BYTE                   Ds2
        BYTE   W06
        BYTE           N11     Gn1
        BYTE   W12
        BYTE           N05
        BYTE   W06
        BYTE                   Gs1
        BYTE   W06
        BYTE                   As1
        BYTE   W06
        BYTE                   As1
        BYTE   W06
        BYTE                   As1
        BYTE   W06
        BYTE                   As1
        BYTE   W06
        BYTE                   As1
        BYTE   W06
        BYTE                   As1
        BYTE   W06
        BYTE                   As1
        BYTE   W06
        BYTE                   As1
        BYTE   W06
        BYTE                   As1
        BYTE   W06
        BYTE   PEND
// 015   ----------------------------------------
theflameandthearrow0_8_15:
        BYTE           N05     As1   v120
        BYTE   W06
        BYTE                   As1
        BYTE   W06
        BYTE                   As1
        BYTE   W06
        BYTE                   Fn1
        BYTE   W06
        BYTE                   Fn1
        BYTE   W06
        BYTE                   Fn1
        BYTE   W06
        BYTE                   As1
        BYTE   W06
        BYTE                   As1
        BYTE   W06
        BYTE                   Cn2
        BYTE   W06
        BYTE                   Cn2
        BYTE   W06
        BYTE                   Cn2
        BYTE   W06
        BYTE                   Cn2
        BYTE   W06
        BYTE                   Cn2
        BYTE   W06
        BYTE                   Cn2
        BYTE   W06
        BYTE                   Cn2
        BYTE   W06
        BYTE                   Cn2
        BYTE   W06
        BYTE   PEND
// 016   ----------------------------------------
theflameandthearrow0_8_16:
        BYTE           N05     Cn2   v120
        BYTE   W06
        BYTE                   Cn2
        BYTE   W06
        BYTE                   Cn2
        BYTE   W06
        BYTE                   Cn2
        BYTE   W06
        BYTE                   Cn2
        BYTE   W06
        BYTE                   Cn2
        BYTE   W06
        BYTE                   Cn2
        BYTE   W06
        BYTE                   Cn2
        BYTE   W06
        BYTE           N11     Fn1
        BYTE   W12
        BYTE                   Fn2
        BYTE   W12
        BYTE                   Cn2
        BYTE   W12
        BYTE                   Fn1
        BYTE   W12
        BYTE   PEND
// 017   ----------------------------------------
        BYTE   PATT
         POIN2  theflameandthearrow0_8_1
// 018   ----------------------------------------
        BYTE   PATT
         POIN2  theflameandthearrow0_8_2
// 019   ----------------------------------------
        BYTE   PATT
         POIN2  theflameandthearrow0_8_3
// 020   ----------------------------------------
        BYTE   PATT
         POIN2  theflameandthearrow0_8_4
// 021   ----------------------------------------
        BYTE   PATT
         POIN2  theflameandthearrow0_8_5
// 022   ----------------------------------------
        BYTE   PATT
         POIN2  theflameandthearrow0_8_6
// 023   ----------------------------------------
        BYTE   PATT
         POIN2  theflameandthearrow0_8_7
// 024   ----------------------------------------
        BYTE           N05     Fn1   v120
        BYTE   W06
        BYTE                   Ds1
        BYTE   W06
        BYTE                   Fn1
        BYTE   W06
        BYTE                   Gn1
        BYTE   W06
        BYTE                   Fn1
        BYTE   GoTo
         POIN2  theflameandthearrow0_8_LOOP
        BYTE   W06
        BYTE                   Gn1
        BYTE   W06
        BYTE                   Gs1
        BYTE   W06
        BYTE                   As1
        BYTE   W06
        BYTE                   Gs1
        BYTE   W06
        BYTE                   Gs1
        BYTE   W06
        BYTE                   Gs1
        BYTE   W06
        BYTE                   Gs1
        BYTE   W06
        BYTE                   Gs1
        BYTE   W06
        BYTE                   Gs1
        BYTE   W06
        BYTE                   Gs1
        BYTE   W06
        BYTE                   Gs1
        BYTE   W06
// 025   ----------------------------------------
        BYTE   PATT
         POIN2  theflameandthearrow0_8_9
// 026   ----------------------------------------
        BYTE   PATT
         POIN2  theflameandthearrow0_8_10
// 027   ----------------------------------------
        BYTE   PATT
         POIN2  theflameandthearrow0_8_11
// 028   ----------------------------------------
        BYTE   PATT
         POIN2  theflameandthearrow0_8_12
// 029   ----------------------------------------
        BYTE   PATT
         POIN2  theflameandthearrow0_8_13
// 030   ----------------------------------------
        BYTE   PATT
         POIN2  theflameandthearrow0_8_14
// 031   ----------------------------------------
        BYTE   PATT
         POIN2  theflameandthearrow0_8_15
// 032   ----------------------------------------
        BYTE           N05     Cn2   v120
        BYTE   W06
        BYTE                   Cn2
        BYTE   W06
        BYTE                   Cn2
        BYTE   W06
        BYTE                   Cn2
        BYTE   W06
        BYTE                   Cn2
        BYTE   W06
        BYTE                   Cn2
        BYTE   W06
        BYTE                   Cn2
        BYTE   W06
        BYTE                   Cn2
        BYTE   W06
        BYTE           VOL     20
        BYTE           N11     Fn1
        BYTE   W06
        BYTE           VOL     19
        BYTE   W06
        BYTE           N11     Fn2
        BYTE   W12
        BYTE           VOL     18
        BYTE           N11     Cn2
        BYTE   W12
        BYTE           VOL     17
        BYTE           N11     Fn1
        BYTE   W12
// 033   ----------------------------------------
        BYTE                   Gn1
        BYTE   W06
        BYTE           VOL     16
        BYTE   W06
        BYTE           N11     Cn2
        BYTE   W12
        BYTE           VOL     15
        BYTE           N05     As1
        BYTE   W06
        BYTE                   Gs1
        BYTE   W06
        BYTE           VOL     14
        BYTE           N11     Gn1
        BYTE   W12
        BYTE           N22     Fn1
        BYTE   W06
        BYTE           VOL     13
        BYTE   W12
        BYTE                   12
        BYTE   W06
        BYTE           N22     Gn1
        BYTE   W06
        BYTE           VOL     11
        BYTE   W18
// 034   ----------------------------------------
        BYTE                   10
        BYTE           N22     Gs1
        BYTE   W12
        BYTE           VOL     9
        BYTE   W12
        BYTE                   8
        BYTE           N05     As1
        BYTE   W06
        BYTE           N17     Cn2
        BYTE   W06
        BYTE           VOL     7
        BYTE   W12
        BYTE           N11     Cs2
        BYTE   W06
        BYTE           VOL     6
        BYTE   W06
        BYTE           N11     Gs1
        BYTE   W06
        BYTE           VOL     5
        BYTE   W06
        BYTE           N11     Fn1
        BYTE   W12
        BYTE           VOL     4
        BYTE           N11     Cs2
        BYTE   W12
// 035   ----------------------------------------
        BYTE           VOL     3
        BYTE           N11     Ds2
        BYTE   W12
        BYTE                   As1
        BYTE   W06
        BYTE           VOL     2
        BYTE   W06
        BYTE           N11     Gn1
        BYTE   W06
        BYTE           VOL     1
        BYTE   W06
        BYTE           N11     Ds2
        BYTE   W12
        BYTE           VOL     0
        BYTE           N17     Gs1
        BYTE   W18
        BYTE                   Ds2
        BYTE   W18
        BYTE           N11     Gs2
        BYTE   W12
// 036   ----------------------------------------
theflameandthearrow0_8_36:
        BYTE           N05     Gn2   v120
        BYTE   W06
        BYTE                   Ds2
        BYTE   W06
        BYTE                   As1
        BYTE   W06
        BYTE                   Gn1
        BYTE   W06
        BYTE                   Ds1
        BYTE   W06
        BYTE           N17     Ds2
        BYTE   W17
        BYTE   PEND
        BYTE   FINE

//***************** Track 9 (Midi-Chn.10) ******************//

theflameandthearrow0_9:
        BYTE   KEYSH   theflameandthearrow0_key+0
// 000   ----------------------------------------
        BYTE           VOICE   122
        BYTE           VOL     34
        BYTE           N04     En1   v110
        BYTE   W06
        BYTE                   En1
        BYTE   W06
        BYTE                   En1
        BYTE   W06
        BYTE                   En1
        BYTE   W06
        BYTE                   En1
        BYTE   W06
        BYTE                   En1
        BYTE   W06
        BYTE                   En1
        BYTE   W06
        BYTE                   En1
        BYTE   W06
        BYTE           N09     Cn1
        BYTE   W12
        BYTE                   En1
        BYTE   W12
        BYTE                   Cn1
        BYTE   W12
        BYTE                   En1
        BYTE   W12
// 001   ----------------------------------------
theflameandthearrow0_9_1:
        BYTE           N09     Cn1   v110
        BYTE   W12
        BYTE           N04     En1
        BYTE   W06
        BYTE           N09     Cn1
        BYTE   W12
        BYTE           N04
        BYTE   W06
        BYTE           N09     En1
        BYTE   W12
        BYTE                   Cn1
        BYTE   W12
        BYTE                   En1
        BYTE   W12
        BYTE                   Cn1
        BYTE   W12
        BYTE                   En1
        BYTE   W12
        BYTE   PEND
// 002   ----------------------------------------
theflameandthearrow0_9_2:
        BYTE           N09     Cn1   v110
        BYTE   W12
        BYTE                   En1
        BYTE   W12
        BYTE           N04
        BYTE   W06
        BYTE           N14     Cn1
        BYTE   W18
        BYTE           N09
        BYTE   W12
        BYTE                   En1
        BYTE   W12
        BYTE                   Cn1
        BYTE   W12
        BYTE                   En1
        BYTE   W12
        BYTE   PEND
// 003   ----------------------------------------
theflameandthearrow0_9_3:
        BYTE           N09     Cn1   v110
        BYTE   W12
        BYTE           N04     En1
        BYTE   W06
        BYTE           N09     Cn1
        BYTE   W12
        BYTE           N04
        BYTE   W06
        BYTE           N09     En1
        BYTE   W12
        BYTE                   Cn1
        BYTE   W12
        BYTE                   En1
        BYTE   W12
        BYTE           N04     Cn1
        BYTE   W06
        BYTE                   Cn1
        BYTE   W06
        BYTE           N09     En1
        BYTE   W12
        BYTE   PEND
// 004   ----------------------------------------
        BYTE   PATT
         POIN2  theflameandthearrow0_9_2
// 005   ----------------------------------------
        BYTE   PATT
         POIN2  theflameandthearrow0_9_1
// 006   ----------------------------------------
        BYTE   PATT
         POIN2  theflameandthearrow0_9_2
// 007   ----------------------------------------
        BYTE   PATT
         POIN2  theflameandthearrow0_9_3
// 008   ----------------------------------------
        BYTE           N03     Cn2   v110
        BYTE   W04
        BYTE                   Cn2
        BYTE   W04
        BYTE                   Cn2
        BYTE   W04
        BYTE           N04     Bn1
        BYTE   W06
        BYTE                   Bn1
        BYTE   W06
theflameandthearrow0_9_LOOP:
        BYTE           N04     An1   v110
        BYTE   W06
        BYTE                   An1
        BYTE   W06
        BYTE                   Gn1
        BYTE   W06
        BYTE                   Gn1
        BYTE   W06
        BYTE           N09     Cn1
        BYTE   W12
        BYTE                   En1
        BYTE   W12
        BYTE           N04     Cn1
        BYTE   W06
        BYTE                   Cn1
        BYTE   W06
        BYTE           N09     En1
        BYTE   W12
// 009   ----------------------------------------
theflameandthearrow0_9_9:
        BYTE           N09     Cn1   v110
        BYTE   W12
        BYTE                   En1
        BYTE   W12
        BYTE           N04     Cn1
        BYTE   W06
        BYTE                   Cn1
        BYTE   W06
        BYTE           N09     En1
        BYTE   W12
        BYTE                   Cn1
        BYTE   W12
        BYTE                   En1
        BYTE   W12
        BYTE           N04     Cn1
        BYTE   W06
        BYTE                   Cn1
        BYTE   W06
        BYTE           N09     En1
        BYTE   W12
        BYTE   PEND
// 010   ----------------------------------------
        BYTE   PATT
         POIN2  theflameandthearrow0_9_9
// 011   ----------------------------------------
        BYTE   PATT
         POIN2  theflameandthearrow0_9_9
// 012   ----------------------------------------
theflameandthearrow0_9_12:
        BYTE           N09     Cn1   v110
        BYTE   W12
        BYTE                   En1
        BYTE   W12
        BYTE           N04     Cn1
        BYTE   W06
        BYTE                   En1
        BYTE   W06
        BYTE                   En1
        BYTE   W06
        BYTE                   En1
        BYTE   W06
        BYTE           N09     Cn1
        BYTE   W12
        BYTE                   En1
        BYTE   W12
        BYTE           N04     Cn1
        BYTE   W06
        BYTE                   Cn1
        BYTE   W06
        BYTE           N09     En1
        BYTE   W12
        BYTE   PEND
// 013   ----------------------------------------
theflameandthearrow0_9_13:
        BYTE           N04     Cn1   v110
        BYTE   W06
        BYTE                   Cn1
        BYTE   W06
        BYTE           N09     En1
        BYTE   W12
        BYTE           N04     Cn1
        BYTE   W06
        BYTE                   Cn1
        BYTE   W06
        BYTE           N09     En1
        BYTE   W12
        BYTE           N04     Cn1
        BYTE   W06
        BYTE                   Cn1
        BYTE   W06
        BYTE           N09     En1
        BYTE   W12
        BYTE           N04     Cn1
        BYTE   W06
        BYTE                   Cn1
        BYTE   W06
        BYTE           N09     En1
        BYTE   W12
        BYTE   PEND
// 014   ----------------------------------------
theflameandthearrow0_9_14:
        BYTE           N04     Cn1   v110
        BYTE   W06
        BYTE                   Cn1
        BYTE   W06
        BYTE                   En1
        BYTE   W06
        BYTE           N09     Cn1
        BYTE   W12
        BYTE           N04
        BYTE   W06
        BYTE           N09     En1
        BYTE   W12
        BYTE                   Cn1
        BYTE   W12
        BYTE                   En1
        BYTE   W12
        BYTE           N04     Cn1
        BYTE   W06
        BYTE                   Cn1
        BYTE   W06
        BYTE           N09     En1
        BYTE   W12
        BYTE   PEND
// 015   ----------------------------------------
theflameandthearrow0_9_15:
        BYTE           N04     Cn1   v110
        BYTE   W06
        BYTE                   Cn1
        BYTE   W06
        BYTE           N09     En1
        BYTE   W12
        BYTE           N04     Cn1
        BYTE   W06
        BYTE                   En1
        BYTE   W06
        BYTE           N09
        BYTE   W12
        BYTE                   Cn1
        BYTE   W12
        BYTE                   En1
        BYTE   W12
        BYTE           N04     Cn1
        BYTE   W06
        BYTE                   Cn1
        BYTE   W06
        BYTE           N09     En1
        BYTE   W12
        BYTE   PEND
// 016   ----------------------------------------
        BYTE           N04     Cn1
        BYTE   W06
        BYTE           N09
        BYTE   W12
        BYTE           N12     Cn2
        BYTE   W12
        BYTE           N06     Bn1
        BYTE   W06
        BYTE                   An1
        BYTE   W06
        BYTE           N05     Gn1
        BYTE   W06
        BYTE           N09     Cn1
        BYTE   W12
        BYTE                   En1
        BYTE   W12
        BYTE                   Cn1
        BYTE   W12
        BYTE                   En1
        BYTE   W12
// 017   ----------------------------------------
        BYTE   PATT
         POIN2  theflameandthearrow0_9_1
// 018   ----------------------------------------
        BYTE   PATT
         POIN2  theflameandthearrow0_9_2
// 019   ----------------------------------------
        BYTE   PATT
         POIN2  theflameandthearrow0_9_3
// 020   ----------------------------------------
        BYTE   PATT
         POIN2  theflameandthearrow0_9_2
// 021   ----------------------------------------
        BYTE   PATT
         POIN2  theflameandthearrow0_9_1
// 022   ----------------------------------------
        BYTE   PATT
         POIN2  theflameandthearrow0_9_2
// 023   ----------------------------------------
        BYTE   PATT
         POIN2  theflameandthearrow0_9_3
// 024   ----------------------------------------
        BYTE           N03     Cn2   v110
        BYTE   W04
        BYTE                   Cn2
        BYTE   W04
        BYTE                   Cn2
        BYTE   W04
        BYTE           N04     Bn1
        BYTE   W06
        BYTE                   Bn1
        BYTE   W06
        BYTE                   An1
        BYTE   GoTo
         POIN2  theflameandthearrow0_9_LOOP
        BYTE   W06
        BYTE                   An1
        BYTE   W06
        BYTE                   Gn1
        BYTE   W06
        BYTE                   Gn1
        BYTE   W06
        BYTE           N09     Cn1
        BYTE   W12
        BYTE                   En1
        BYTE   W12
        BYTE           N04     Cn1
        BYTE   W06
        BYTE                   Cn1
        BYTE   W06
        BYTE           N09     En1
        BYTE   W12
// 025   ----------------------------------------
        BYTE   PATT
         POIN2  theflameandthearrow0_9_9
// 026   ----------------------------------------
        BYTE   PATT
         POIN2  theflameandthearrow0_9_9
// 027   ----------------------------------------
        BYTE   PATT
         POIN2  theflameandthearrow0_9_9
// 028   ----------------------------------------
        BYTE   PATT
         POIN2  theflameandthearrow0_9_12
// 029   ----------------------------------------
        BYTE   PATT
         POIN2  theflameandthearrow0_9_13
// 030   ----------------------------------------
        BYTE   PATT
         POIN2  theflameandthearrow0_9_14
// 031   ----------------------------------------
        BYTE   PATT
         POIN2  theflameandthearrow0_9_15
// 032   ----------------------------------------
        BYTE           N04     Cn1   v110
        BYTE   W06
        BYTE           N09
        BYTE   W12
        BYTE           N12     Cn2
        BYTE   W12
        BYTE           N06     Bn1
        BYTE   W06
        BYTE                   An1
        BYTE   W06
        BYTE           N05     Gn1
        BYTE   W06
        BYTE           N09     Cn1
        BYTE   W06
        BYTE           VOL     33
        BYTE   W06
        BYTE           N09     En1
        BYTE   W06
        BYTE           VOL     32
        BYTE   W06
        BYTE                   31
        BYTE           N09     Cn1
        BYTE   W06
        BYTE           VOL     30
        BYTE   W06
        BYTE           N09     En1
        BYTE   W06
        BYTE           VOL     29
        BYTE   W06
// 033   ----------------------------------------
        BYTE                   28
        BYTE           N09     Cn1
        BYTE   W12
        BYTE           VOL     27
        BYTE           N04     En1
        BYTE   W06
        BYTE           VOL     26
        BYTE           N09     Cn1
        BYTE   W12
        BYTE           VOL     25
        BYTE           N04
        BYTE   W06
        BYTE           VOL     24
        BYTE           N09     En1
        BYTE   W12
        BYTE           VOL     23
        BYTE           N09     Cn1
        BYTE   W06
        BYTE           VOL     22
        BYTE   W06
        BYTE           N09     En1
        BYTE   W06
        BYTE           VOL     21
        BYTE   W06
        BYTE                   20
        BYTE           N09     Cn1
        BYTE   W06
        BYTE           VOL     19
        BYTE   W06
        BYTE           N09     En1
        BYTE   W06
        BYTE           VOL     18
        BYTE   W06
// 034   ----------------------------------------
        BYTE                   17
        BYTE           N09     Cn1
        BYTE   W12
        BYTE           VOL     16
        BYTE           N09     En1
        BYTE   W06
        BYTE           VOL     15
        BYTE   W06
        BYTE           N04
        BYTE   W06
        BYTE           VOL     14
        BYTE           N14     Cn1
        BYTE   W06
        BYTE           VOL     13
        BYTE   W12
        BYTE                   12
        BYTE           N09
        BYTE   W06
        BYTE           VOL     11
        BYTE   W06
        BYTE           N09     En1
        BYTE   W06
        BYTE           VOL     10
        BYTE   W06
        BYTE                   9
        BYTE           N09     Cn1
        BYTE   W06
        BYTE           VOL     8
        BYTE   W06
        BYTE           N09     En1
        BYTE   W06
        BYTE           VOL     7
        BYTE   W06
// 035   ----------------------------------------
        BYTE                   6
        BYTE           N09     Cn1
        BYTE   W12
        BYTE           VOL     5
        BYTE           N04     En1
        BYTE   W06
        BYTE           VOL     4
        BYTE           N09     Cn1
        BYTE   W12
        BYTE           VOL     3
        BYTE           N04
        BYTE   W06
        BYTE           VOL     2
        BYTE           N09     En1
        BYTE   W12
        BYTE           VOL     1
        BYTE           N09     Cn1
        BYTE   W06
        BYTE           VOL     0
        BYTE   W06
        BYTE           N09     En1
        BYTE   W12
        BYTE           N04     Cn1
        BYTE   W06
        BYTE                   Cn1
        BYTE   W06
        BYTE           N09     En1
        BYTE   W12
// 036   ----------------------------------------
        BYTE                   Cn1
        BYTE   W12
        BYTE                   En1
        BYTE   W12
        BYTE           N04
        BYTE   W06
        BYTE           N14     Cn1
        BYTE   W17
        BYTE   FINE

//***************** Track 10 (Midi-Chn.11) *****************//

theflameandthearrow0_10:
        BYTE   KEYSH   theflameandthearrow0_key+0
// 000   ----------------------------------------
        BYTE           VOICE   36
        BYTE           VOL     34
        BYTE   W48
        BYTE                   43
        BYTE           N11     Fn1   v120
        BYTE   W12
        BYTE                   Fn2
        BYTE   W12
        BYTE                   Cn2
        BYTE   W12
        BYTE                   Fn1
        BYTE   W12
// 001   ----------------------------------------
        BYTE   PATT
         POIN2  theflameandthearrow0_8_1
// 002   ----------------------------------------
        BYTE   PATT
         POIN2  theflameandthearrow0_8_2
// 003   ----------------------------------------
        BYTE   PATT
         POIN2  theflameandthearrow0_8_3
// 004   ----------------------------------------
        BYTE   PATT
         POIN2  theflameandthearrow0_8_4
// 005   ----------------------------------------
        BYTE   PATT
         POIN2  theflameandthearrow0_8_5
// 006   ----------------------------------------
        BYTE   PATT
         POIN2  theflameandthearrow0_8_6
// 007   ----------------------------------------
        BYTE   PATT
         POIN2  theflameandthearrow0_8_7
// 008   ----------------------------------------
        BYTE           N05     Fn1   v120
        BYTE   W06
        BYTE                   Ds1
        BYTE   W06
        BYTE                   Fn1
        BYTE   W06
        BYTE                   Gn1
        BYTE   W06
theflameandthearrow0_10_LOOP:
        BYTE           N05     Fn1   v120
        BYTE   W06
        BYTE                   Gn1
        BYTE   W06
        BYTE                   Gs1
        BYTE   W06
        BYTE                   As1
        BYTE   W06
        BYTE                   Gs1
        BYTE   W06
        BYTE                   Gs1
        BYTE   W06
        BYTE                   Gs1
        BYTE   W06
        BYTE                   Gs1
        BYTE   W06
        BYTE                   Gs1
        BYTE   W06
        BYTE                   Gs1
        BYTE   W06
        BYTE                   Gs1
        BYTE   W06
        BYTE                   Gs1
        BYTE   W06
// 009   ----------------------------------------
        BYTE   PATT
         POIN2  theflameandthearrow0_8_9
// 010   ----------------------------------------
        BYTE   PATT
         POIN2  theflameandthearrow0_8_10
// 011   ----------------------------------------
        BYTE   PATT
         POIN2  theflameandthearrow0_8_11
// 012   ----------------------------------------
        BYTE   PATT
         POIN2  theflameandthearrow0_8_12
// 013   ----------------------------------------
        BYTE   PATT
         POIN2  theflameandthearrow0_8_13
// 014   ----------------------------------------
        BYTE   PATT
         POIN2  theflameandthearrow0_8_14
// 015   ----------------------------------------
        BYTE   PATT
         POIN2  theflameandthearrow0_8_15
// 016   ----------------------------------------
        BYTE   PATT
         POIN2  theflameandthearrow0_8_16
// 017   ----------------------------------------
        BYTE   PATT
         POIN2  theflameandthearrow0_8_1
// 018   ----------------------------------------
        BYTE   PATT
         POIN2  theflameandthearrow0_8_2
// 019   ----------------------------------------
        BYTE   PATT
         POIN2  theflameandthearrow0_8_3
// 020   ----------------------------------------
        BYTE   PATT
         POIN2  theflameandthearrow0_8_4
// 021   ----------------------------------------
        BYTE   PATT
         POIN2  theflameandthearrow0_8_5
// 022   ----------------------------------------
        BYTE   PATT
         POIN2  theflameandthearrow0_8_6
// 023   ----------------------------------------
        BYTE   PATT
         POIN2  theflameandthearrow0_8_7
// 024   ----------------------------------------
        BYTE           N05     Fn1   v120
        BYTE   W06
        BYTE                   Ds1
        BYTE   W06
        BYTE                   Fn1
        BYTE   W06
        BYTE                   Gn1
        BYTE   W06
        BYTE                   Fn1
        BYTE   GoTo
         POIN2  theflameandthearrow0_10_LOOP
        BYTE   W06
        BYTE                   Gn1
        BYTE   W06
        BYTE                   Gs1
        BYTE   W06
        BYTE                   As1
        BYTE   W06
        BYTE                   Gs1
        BYTE   W06
        BYTE                   Gs1
        BYTE   W06
        BYTE                   Gs1
        BYTE   W06
        BYTE                   Gs1
        BYTE   W06
        BYTE                   Gs1
        BYTE   W06
        BYTE                   Gs1
        BYTE   W06
        BYTE                   Gs1
        BYTE   W06
        BYTE                   Gs1
        BYTE   W06
// 025   ----------------------------------------
        BYTE   PATT
         POIN2  theflameandthearrow0_8_9
// 026   ----------------------------------------
        BYTE   PATT
         POIN2  theflameandthearrow0_8_10
// 027   ----------------------------------------
        BYTE   PATT
         POIN2  theflameandthearrow0_8_11
// 028   ----------------------------------------
        BYTE   PATT
         POIN2  theflameandthearrow0_8_12
// 029   ----------------------------------------
        BYTE   PATT
         POIN2  theflameandthearrow0_8_13
// 030   ----------------------------------------
        BYTE   PATT
         POIN2  theflameandthearrow0_8_14
// 031   ----------------------------------------
        BYTE   PATT
         POIN2  theflameandthearrow0_8_15
// 032   ----------------------------------------
        BYTE           N05     Cn2   v120
        BYTE   W06
        BYTE                   Cn2
        BYTE   W06
        BYTE                   Cn2
        BYTE   W06
        BYTE                   Cn2
        BYTE   W06
        BYTE                   Cn2
        BYTE   W06
        BYTE                   Cn2
        BYTE   W06
        BYTE                   Cn2
        BYTE   W06
        BYTE                   Cn2
        BYTE   W06
        BYTE           VOL     34
        BYTE           N11     Fn1
        BYTE   W06
        BYTE           VOL     33
        BYTE   W06
        BYTE           N11     Fn2
        BYTE   W06
        BYTE           VOL     32
        BYTE   W06
        BYTE                   31
        BYTE           N11     Cn2
        BYTE   W06
        BYTE           VOL     30
        BYTE   W06
        BYTE           N11     Fn1
        BYTE   W06
        BYTE           VOL     29
        BYTE   W06
// 033   ----------------------------------------
        BYTE                   28
        BYTE           N11     Gn1
        BYTE   W12
        BYTE           VOL     27
        BYTE           N11     Cn2
        BYTE   W06
        BYTE           VOL     26
        BYTE   W06
        BYTE           N05     As1
        BYTE   W06
        BYTE           VOL     25
        BYTE           N05     Gs1
        BYTE   W06
        BYTE           VOL     24
        BYTE           N11     Gn1
        BYTE   W12
        BYTE           VOL     23
        BYTE           N22     Fn1
        BYTE   W06
        BYTE           VOL     22
        BYTE   W12
        BYTE                   21
        BYTE   W06
        BYTE                   20
        BYTE           N22     Gn1
        BYTE   W06
        BYTE           VOL     19
        BYTE   W12
        BYTE                   18
        BYTE   W06
// 034   ----------------------------------------
        BYTE                   17
        BYTE           N22     Gs1
        BYTE   W12
        BYTE           VOL     16
        BYTE   W06
        BYTE                   15
        BYTE   W06
        BYTE           N05     As1
        BYTE   W06
        BYTE           VOL     14
        BYTE           N17     Cn2
        BYTE   W06
        BYTE           VOL     13
        BYTE   W12
        BYTE                   12
        BYTE           N11     Cs2
        BYTE   W06
        BYTE           VOL     11
        BYTE   W06
        BYTE           N11     Gs1
        BYTE   W06
        BYTE           VOL     10
        BYTE   W06
        BYTE                   9
        BYTE           N11     Fn1
        BYTE   W06
        BYTE           VOL     8
        BYTE   W06
        BYTE           N11     Cs2
        BYTE   W06
        BYTE           VOL     7
        BYTE   W06
// 035   ----------------------------------------
        BYTE                   6
        BYTE           N11     Ds2
        BYTE   W12
        BYTE           VOL     5
        BYTE           N11     As1
        BYTE   W06
        BYTE           VOL     4
        BYTE   W06
        BYTE           N11     Gn1
        BYTE   W06
        BYTE           VOL     3
        BYTE   W06
        BYTE                   2
        BYTE           N11     Ds2
        BYTE   W12
        BYTE           VOL     1
        BYTE           N17     Gs1
        BYTE   W06
        BYTE           VOL     0
        BYTE   W12
        BYTE           N17     Ds2
        BYTE   W18
        BYTE           N11     Gs2
        BYTE   W12
// 036   ----------------------------------------
        BYTE   PATT
         POIN2  theflameandthearrow0_8_36
        BYTE   FINE

//***************** Track 11 (Midi-Chn.12) *****************//

theflameandthearrow0_11:
        BYTE   KEYSH   theflameandthearrow0_key+0
// 000   ----------------------------------------
        BYTE           VOICE   30
        BYTE           VOL     34
        BYTE   W48
        BYTE                   37
        BYTE           N09     Fn1   v100
        BYTE   W12
        BYTE           N04
        BYTE   W06
        BYTE                   Fn1
        BYTE   W06
        BYTE                   Fn1
        BYTE   W06
        BYTE                   Fn1
        BYTE   W06
        BYTE                   Fn1
        BYTE   W06
        BYTE                   Fn1
        BYTE   W06
// 001   ----------------------------------------
theflameandthearrow0_11_1:
        BYTE           N09     Gn1   v100
        BYTE   W12
        BYTE           N04
        BYTE   W06
        BYTE                   Gn1
        BYTE   W06
        BYTE                   Gn1
        BYTE   W06
        BYTE                   Gn1
        BYTE   W06
        BYTE                   Gn1
        BYTE   W06
        BYTE                   Gn1
        BYTE   W06
        BYTE           N09     Fn1
        BYTE   W12
        BYTE           N04
        BYTE   W06
        BYTE                   Fn1
        BYTE   W06
        BYTE                   Fn1
        BYTE   W06
        BYTE                   Fn1
        BYTE   W06
        BYTE                   Fn1
        BYTE   W06
        BYTE                   Fn1
        BYTE   W06
        BYTE   PEND
// 002   ----------------------------------------
theflameandthearrow0_11_2:
        BYTE           N04     Fn1   v100
        BYTE   W06
        BYTE                   Fn1
        BYTE   W06
        BYTE                   Fn1
        BYTE   W06
        BYTE                   Fn1
        BYTE   W06
        BYTE                   Fn1
        BYTE   W06
        BYTE           N14
        BYTE   W18
        BYTE           N09     Cs2
        BYTE   W12
        BYTE           N04
        BYTE   W06
        BYTE                   Cs2
        BYTE   W06
        BYTE                   Cs2
        BYTE   W06
        BYTE                   Cs2
        BYTE   W06
        BYTE                   Cs2
        BYTE   W06
        BYTE                   Cs2
        BYTE   W06
        BYTE   PEND
// 003   ----------------------------------------
theflameandthearrow0_11_3:
        BYTE           N09     Ds2   v100
        BYTE   W12
        BYTE           N04
        BYTE   W06
        BYTE                   Ds2
        BYTE   W06
        BYTE                   Ds2
        BYTE   W06
        BYTE                   Ds2
        BYTE   W06
        BYTE                   Ds2
        BYTE   W06
        BYTE                   Ds2
        BYTE   W06
        BYTE           N09     Gs1
        BYTE   W12
        BYTE           N04
        BYTE   W06
        BYTE                   Gs1
        BYTE   W06
        BYTE                   Gs1
        BYTE   W06
        BYTE                   Gs1
        BYTE   W06
        BYTE                   Gs1
        BYTE   W06
        BYTE                   Gs1
        BYTE   W06
        BYTE   PEND
// 004   ----------------------------------------
theflameandthearrow0_11_4:
        BYTE           N09     Ds2   v100
        BYTE   W12
        BYTE           N04
        BYTE   W06
        BYTE                   Ds2
        BYTE   W06
        BYTE                   Ds2
        BYTE   W06
        BYTE           N14
        BYTE   W18
        BYTE           N09     Fn1
        BYTE   W12
        BYTE           N04
        BYTE   W06
        BYTE                   Fn1
        BYTE   W06
        BYTE                   Fn1
        BYTE   W06
        BYTE                   Fn1
        BYTE   W06
        BYTE                   Fn1
        BYTE   W06
        BYTE                   Fn1
        BYTE   W06
        BYTE   PEND
// 005   ----------------------------------------
theflameandthearrow0_11_5:
        BYTE           N09     Gn1   v100
        BYTE   W12
        BYTE           N04
        BYTE   W06
        BYTE                   Gn1
        BYTE   W06
        BYTE                   Gn1
        BYTE   W06
        BYTE                   Gn1
        BYTE   W06
        BYTE                   Gn1
        BYTE   W06
        BYTE                   Gn1
        BYTE   W06
        BYTE           N09     Cs1
        BYTE   W12
        BYTE           N04
        BYTE   W06
        BYTE                   Cs1
        BYTE   W06
        BYTE                   Cs1
        BYTE   W06
        BYTE                   Cs1
        BYTE   W06
        BYTE                   Cs1
        BYTE   W06
        BYTE                   Cs1
        BYTE   W06
        BYTE   PEND
// 006   ----------------------------------------
theflameandthearrow0_11_6:
        BYTE           N09     Ds1   v100
        BYTE   W12
        BYTE           N04
        BYTE   W06
        BYTE                   Ds1
        BYTE   W06
        BYTE                   Ds1
        BYTE   W06
        BYTE           N14
        BYTE   W18
        BYTE           N09     Fn1
        BYTE   W12
        BYTE           N04
        BYTE   W06
        BYTE                   Fn1
        BYTE   W06
        BYTE                   Fn1
        BYTE   W06
        BYTE                   Fn1
        BYTE   W06
        BYTE                   Fn1
        BYTE   W06
        BYTE                   Fn1
        BYTE   W06
        BYTE   PEND
// 007   ----------------------------------------
theflameandthearrow0_11_7:
        BYTE           N09     Ds2   v100
        BYTE   W12
        BYTE           N04
        BYTE   W06
        BYTE                   Ds2
        BYTE   W06
        BYTE                   Ds2
        BYTE   W06
        BYTE                   Ds2
        BYTE   W06
        BYTE                   Ds2
        BYTE   W06
        BYTE                   Ds2
        BYTE   W06
        BYTE           N09     Fn1
        BYTE   W12
        BYTE           N04
        BYTE   W06
        BYTE                   Fn1
        BYTE   W06
        BYTE                   Fn1
        BYTE   W06
        BYTE                   Fn1
        BYTE   W06
        BYTE                   Fn1
        BYTE   W06
        BYTE                   Fn1
        BYTE   W06
        BYTE   PEND
// 008   ----------------------------------------
        BYTE                   Fn1
        BYTE   W06
        BYTE                   Fn1
        BYTE   W06
        BYTE                   Fn1
        BYTE   W06
        BYTE                   Fn1
        BYTE   W06
theflameandthearrow0_11_LOOP:
        BYTE           N04     Fn1   v100
        BYTE   W06
        BYTE                   Fn1
        BYTE   W06
        BYTE                   Fn1
        BYTE   W06
        BYTE                   Fn1
        BYTE   W06
        BYTE           N09     Gs0
        BYTE   W12
        BYTE           N04
        BYTE   W06
        BYTE                   Gs0
        BYTE   W06
        BYTE                   Gs0
        BYTE   W06
        BYTE                   Gs0
        BYTE   W06
        BYTE                   Gs0
        BYTE   W06
        BYTE                   Gs0
        BYTE   W06
// 009   ----------------------------------------
theflameandthearrow0_11_9:
        BYTE           N04     Gs0   v100
        BYTE   W06
        BYTE                   Gs0
        BYTE   W06
        BYTE                   Gs0
        BYTE   W06
        BYTE                   Gs0
        BYTE   W06
        BYTE                   Gs0
        BYTE   W06
        BYTE                   Gs0
        BYTE   W06
        BYTE                   Gs0
        BYTE   W06
        BYTE                   Gs0
        BYTE   W06
        BYTE           N09     Ds1
        BYTE   W12
        BYTE           N04
        BYTE   W06
        BYTE                   Ds1
        BYTE   W06
        BYTE                   Ds1
        BYTE   W06
        BYTE                   Ds1
        BYTE   W06
        BYTE                   Ds1
        BYTE   W06
        BYTE                   Ds1
        BYTE   W06
        BYTE   PEND
// 010   ----------------------------------------
theflameandthearrow0_11_10:
        BYTE           N04     Ds1   v100
        BYTE   W06
        BYTE                   Ds1
        BYTE   W06
        BYTE                   Ds1
        BYTE   W06
        BYTE                   Ds1
        BYTE   W06
        BYTE                   Ds1
        BYTE   W06
        BYTE                   Ds1
        BYTE   W06
        BYTE                   Ds1
        BYTE   W06
        BYTE                   Ds1
        BYTE   W06
        BYTE           N09     Fn1
        BYTE   W12
        BYTE           N04
        BYTE   W06
        BYTE                   Fn1
        BYTE   W06
        BYTE                   Fn1
        BYTE   W06
        BYTE                   Fn1
        BYTE   W06
        BYTE                   Fn1
        BYTE   W06
        BYTE                   Fn1
        BYTE   W06
        BYTE   PEND
// 011   ----------------------------------------
theflameandthearrow0_11_11:
        BYTE           N04     Fn1   v100
        BYTE   W06
        BYTE                   Fn1
        BYTE   W06
        BYTE                   Fn1
        BYTE   W06
        BYTE                   Fn1
        BYTE   W06
        BYTE                   Fn1
        BYTE   W06
        BYTE                   Fn1
        BYTE   W06
        BYTE                   Fn1
        BYTE   W06
        BYTE                   Fn1
        BYTE   W06
        BYTE           N09     Cn1
        BYTE   W12
        BYTE           N04
        BYTE   W06
        BYTE                   Cn1
        BYTE   W06
        BYTE                   Cn1
        BYTE   W06
        BYTE                   Cn1
        BYTE   W06
        BYTE                   Cn1
        BYTE   W06
        BYTE                   Cn1
        BYTE   W06
        BYTE   PEND
// 012   ----------------------------------------
theflameandthearrow0_11_12:
        BYTE           N04     Cn1   v100
        BYTE   W06
        BYTE                   Cn1
        BYTE   W06
        BYTE                   Cn1
        BYTE   W06
        BYTE                   Cn1
        BYTE   W06
        BYTE                   Cn1
        BYTE   W06
        BYTE                   Cn1
        BYTE   W06
        BYTE                   Cn1
        BYTE   W06
        BYTE                   Cn1
        BYTE   W06
        BYTE           N09     Cs2
        BYTE   W12
        BYTE           N04
        BYTE   W06
        BYTE                   Cs2
        BYTE   W06
        BYTE                   Cs2
        BYTE   W06
        BYTE                   Cs2
        BYTE   W06
        BYTE                   Cs2
        BYTE   W06
        BYTE                   Cs2
        BYTE   W06
        BYTE   PEND
// 013   ----------------------------------------
theflameandthearrow0_11_13:
        BYTE           N04     Cs2   v100
        BYTE   W06
        BYTE                   Cs2
        BYTE   W06
        BYTE                   Cs2
        BYTE   W06
        BYTE                   Cs2
        BYTE   W06
        BYTE                   Cs2
        BYTE   W06
        BYTE                   Cs2
        BYTE   W06
        BYTE                   Cs2
        BYTE   W06
        BYTE                   Cs2
        BYTE   W06
        BYTE           N09     Ds2
        BYTE   W12
        BYTE           N04
        BYTE   W06
        BYTE                   Ds2
        BYTE   W06
        BYTE                   Ds2
        BYTE   W06
        BYTE                   Ds2
        BYTE   W06
        BYTE                   Ds2
        BYTE   W06
        BYTE                   Ds2
        BYTE   W06
        BYTE   PEND
// 014   ----------------------------------------
theflameandthearrow0_11_14:
        BYTE           N04     Ds2   v100
        BYTE   W06
        BYTE                   Ds2
        BYTE   W06
        BYTE                   Ds2
        BYTE   W06
        BYTE                   Ds2
        BYTE   W06
        BYTE                   Ds2
        BYTE   W06
        BYTE                   Ds2
        BYTE   W06
        BYTE                   Ds2
        BYTE   W06
        BYTE                   Ds2
        BYTE   W06
        BYTE           N09     As1
        BYTE   W12
        BYTE           N04
        BYTE   W06
        BYTE                   As1
        BYTE   W06
        BYTE                   As1
        BYTE   W06
        BYTE                   As1
        BYTE   W06
        BYTE                   As1
        BYTE   W06
        BYTE                   As1
        BYTE   W06
        BYTE   PEND
// 015   ----------------------------------------
theflameandthearrow0_11_15:
        BYTE           N04     As1   v100
        BYTE   W06
        BYTE                   As1
        BYTE   W06
        BYTE                   As1
        BYTE   W06
        BYTE                   As1
        BYTE   W06
        BYTE                   As1
        BYTE   W06
        BYTE                   As1
        BYTE   W06
        BYTE                   As1
        BYTE   W06
        BYTE                   As1
        BYTE   W06
        BYTE           N96     Cn2
        BYTE   W48
        BYTE   PEND
// 016   ----------------------------------------
        BYTE   W48
        BYTE           VOL     43
        BYTE           N09     Fn1
        BYTE   W12
        BYTE           N04
        BYTE   W06
        BYTE                   Fn1
        BYTE   W06
        BYTE                   Fn1
        BYTE   W06
        BYTE                   Fn1
        BYTE   W06
        BYTE                   Fn1
        BYTE   W06
        BYTE                   Fn1
        BYTE   W06
// 017   ----------------------------------------
        BYTE   PATT
         POIN2  theflameandthearrow0_11_1
// 018   ----------------------------------------
        BYTE   PATT
         POIN2  theflameandthearrow0_11_2
// 019   ----------------------------------------
        BYTE   PATT
         POIN2  theflameandthearrow0_11_3
// 020   ----------------------------------------
        BYTE   PATT
         POIN2  theflameandthearrow0_11_4
// 021   ----------------------------------------
        BYTE   PATT
         POIN2  theflameandthearrow0_11_5
// 022   ----------------------------------------
        BYTE   PATT
         POIN2  theflameandthearrow0_11_6
// 023   ----------------------------------------
        BYTE   PATT
         POIN2  theflameandthearrow0_11_7
// 024   ----------------------------------------
        BYTE           N04     Fn1   v100
        BYTE   W06
        BYTE                   Fn1
        BYTE   W06
        BYTE                   Fn1
        BYTE   W06
        BYTE                   Fn1
        BYTE   W06
        BYTE                   Fn1
        BYTE           VOL     37
        BYTE   GoTo
         POIN2  theflameandthearrow0_11_LOOP
        BYTE   W06
        BYTE           N04
        BYTE   W06
        BYTE                   Fn1
        BYTE   W06
        BYTE                   Fn1
        BYTE   W06
        BYTE           N09     Gs0
        BYTE   W12
        BYTE           N04
        BYTE   W06
        BYTE                   Gs0
        BYTE   W06
        BYTE                   Gs0
        BYTE   W06
        BYTE                   Gs0
        BYTE   W06
        BYTE                   Gs0
        BYTE   W06
        BYTE                   Gs0
        BYTE   W06
// 025   ----------------------------------------
        BYTE   PATT
         POIN2  theflameandthearrow0_11_9
// 026   ----------------------------------------
        BYTE   PATT
         POIN2  theflameandthearrow0_11_10
// 027   ----------------------------------------
        BYTE   PATT
         POIN2  theflameandthearrow0_11_11
// 028   ----------------------------------------
        BYTE   PATT
         POIN2  theflameandthearrow0_11_12
// 029   ----------------------------------------
        BYTE   PATT
         POIN2  theflameandthearrow0_11_13
// 030   ----------------------------------------
        BYTE   PATT
         POIN2  theflameandthearrow0_11_14
// 031   ----------------------------------------
        BYTE   PATT
         POIN2  theflameandthearrow0_11_15
// 032   ----------------------------------------
        BYTE   W48
        BYTE           VOL     34
        BYTE           N09     Fn1   v100
        BYTE   W06
        BYTE           VOL     33
        BYTE   W06
        BYTE           N04
        BYTE   W06
        BYTE           VOL     32
        BYTE           N04
        BYTE   W06
        BYTE           VOL     31
        BYTE           N04
        BYTE   W06
        BYTE           VOL     30
        BYTE           N04
        BYTE   W06
        BYTE                   Fn1
        BYTE   W06
        BYTE           VOL     29
        BYTE           N04
        BYTE   W06
// 033   ----------------------------------------
        BYTE           VOL     28
        BYTE           N09     Gn1
        BYTE   W12
        BYTE           VOL     27
        BYTE           N04
        BYTE   W06
        BYTE           VOL     26
        BYTE           N04
        BYTE   W06
        BYTE                   Gn1
        BYTE   W06
        BYTE           VOL     25
        BYTE           N04
        BYTE   W06
        BYTE           VOL     24
        BYTE           N04
        BYTE   W06
        BYTE                   Gn1
        BYTE   W06
        BYTE           VOL     23
        BYTE           N09     Fn1
        BYTE   W06
        BYTE           VOL     22
        BYTE   W06
        BYTE           N04
        BYTE   W06
        BYTE           VOL     21
        BYTE           N04
        BYTE   W06
        BYTE           VOL     20
        BYTE           N04
        BYTE   W06
        BYTE           VOL     19
        BYTE           N04
        BYTE   W06
        BYTE                   Fn1
        BYTE   W06
        BYTE           VOL     18
        BYTE           N04
        BYTE   W06
// 034   ----------------------------------------
        BYTE           VOL     17
        BYTE           N04
        BYTE   W06
        BYTE                   Fn1
        BYTE   W06
        BYTE           VOL     16
        BYTE           N04
        BYTE   W06
        BYTE           VOL     15
        BYTE           N04
        BYTE   W06
        BYTE                   Fn1
        BYTE   W06
        BYTE           VOL     14
        BYTE           N14
        BYTE   W06
        BYTE           VOL     13
        BYTE   W12
        BYTE                   12
        BYTE           N09     Cs2
        BYTE   W06
        BYTE           VOL     11
        BYTE   W06
        BYTE           N04
        BYTE   W06
        BYTE           VOL     10
        BYTE           N04
        BYTE   W06
        BYTE           VOL     9
        BYTE           N04
        BYTE   W06
        BYTE           VOL     8
        BYTE           N04
        BYTE   W06
        BYTE                   Cs2
        BYTE   W06
        BYTE           VOL     7
        BYTE           N04
        BYTE   W06
// 035   ----------------------------------------
        BYTE           VOL     6
        BYTE           N09     Ds2
        BYTE   W12
        BYTE           VOL     5
        BYTE           N04
        BYTE   W06
        BYTE           VOL     4
        BYTE           N04
        BYTE   W06
        BYTE                   Ds2
        BYTE   W06
        BYTE           VOL     3
        BYTE           N04
        BYTE   W06
        BYTE           VOL     2
        BYTE           N04
        BYTE   W06
        BYTE                   Ds2
        BYTE   W06
        BYTE           VOL     1
        BYTE           N09     Gs1
        BYTE   W06
        BYTE           VOL     0
        BYTE   W06
        BYTE           N04
        BYTE   W06
        BYTE                   Gs1
        BYTE   W06
        BYTE                   Gs1
        BYTE   W06
        BYTE                   Gs1
        BYTE   W06
        BYTE                   Gs1
        BYTE   W06
        BYTE                   Gs1
        BYTE   W06
// 036   ----------------------------------------
        BYTE           N09     Ds2
        BYTE   W12
        BYTE           N04
        BYTE   W06
        BYTE                   Ds2
        BYTE   W06
        BYTE                   Ds2
        BYTE   W06
        BYTE           N14
        BYTE   W17
        BYTE   FINE

//***************** Track 12 (Midi-Chn.13) *****************//

theflameandthearrow0_12:
        BYTE   KEYSH   theflameandthearrow0_key+0
// 000   ----------------------------------------
        BYTE           VOICE   122
        BYTE           VOL     34
        BYTE   W48
        BYTE           N19     Cs2   v120
        BYTE   W24
        BYTE           N09     Fs1
        BYTE   W12
        BYTE                   Fs1
        BYTE   W12
// 001   ----------------------------------------
theflameandthearrow0_12_1:
        BYTE           N09     Fs1   v120
        BYTE   W12
        BYTE                   Fs1
        BYTE   W12
        BYTE                   Fs1
        BYTE   W12
        BYTE                   Fs1
        BYTE   W12
        BYTE                   Fs1
        BYTE   W12
        BYTE                   Fs1
        BYTE   W12
        BYTE                   Fs1
        BYTE   W12
        BYTE                   Fs1
        BYTE   W12
        BYTE   PEND
// 002   ----------------------------------------
theflameandthearrow0_12_2:
        BYTE           N09     Fs1   v120
        BYTE   W12
        BYTE                   Fs1
        BYTE   W12
        BYTE           N04
        BYTE   W06
        BYTE           N14     An2
        BYTE   W18
        BYTE           N19     Cs2
        BYTE   W24
        BYTE           N09     Fs1
        BYTE   W12
        BYTE                   Fs1
        BYTE   W12
        BYTE   PEND
// 003   ----------------------------------------
        BYTE   PATT
         POIN2  theflameandthearrow0_12_1
// 004   ----------------------------------------
        BYTE   PATT
         POIN2  theflameandthearrow0_12_2
// 005   ----------------------------------------
        BYTE   PATT
         POIN2  theflameandthearrow0_12_1
// 006   ----------------------------------------
        BYTE   PATT
         POIN2  theflameandthearrow0_12_2
// 007   ----------------------------------------
        BYTE   PATT
         POIN2  theflameandthearrow0_12_1
// 008   ----------------------------------------
        BYTE   W24
theflameandthearrow0_12_LOOP:
        BYTE   W24
        BYTE           N19     Cs2   v120
        BYTE   W24
        BYTE           N09     As1
        BYTE   W12
        BYTE                   As1
        BYTE   W12
// 009   ----------------------------------------
theflameandthearrow0_12_9:
        BYTE           N09     As1   v120
        BYTE   W12
        BYTE                   As1
        BYTE   W12
        BYTE                   As1
        BYTE   W12
        BYTE                   As1
        BYTE   W12
        BYTE                   As1
        BYTE   W12
        BYTE                   As1
        BYTE   W12
        BYTE                   As1
        BYTE   W12
        BYTE                   As1
        BYTE   W12
        BYTE   PEND
// 010   ----------------------------------------
        BYTE   PATT
         POIN2  theflameandthearrow0_12_9
// 011   ----------------------------------------
        BYTE   PATT
         POIN2  theflameandthearrow0_12_9
// 012   ----------------------------------------
theflameandthearrow0_12_12:
        BYTE           N09     As1   v120
        BYTE   W12
        BYTE                   As1
        BYTE   W12
        BYTE                   As1
        BYTE   W12
        BYTE                   As1
        BYTE   W12
        BYTE           N19     An2
        BYTE   W24
        BYTE           N09     As1
        BYTE   W12
        BYTE                   As1
        BYTE   W12
        BYTE   PEND
// 013   ----------------------------------------
        BYTE   PATT
         POIN2  theflameandthearrow0_12_9
// 014   ----------------------------------------
        BYTE   PATT
         POIN2  theflameandthearrow0_12_9
// 015   ----------------------------------------
theflameandthearrow0_12_15:
        BYTE           N09     As1   v120
        BYTE   W12
        BYTE                   As1
        BYTE   W12
        BYTE                   As1
        BYTE   W12
        BYTE                   As1
        BYTE   W12
        BYTE           N19     Cs2
        BYTE   W24
        BYTE           N09     As1
        BYTE   W12
        BYTE                   As1
        BYTE   W12
        BYTE   PEND
// 016   ----------------------------------------
        BYTE                   As1
        BYTE   W12
        BYTE                   As1
        BYTE   W12
        BYTE                   As1
        BYTE   W12
        BYTE                   As1
        BYTE   W12
        BYTE           N19     Cs2
        BYTE   W24
        BYTE           N09     Fs1
        BYTE   W12
        BYTE                   Fs1
        BYTE   W12
// 017   ----------------------------------------
        BYTE   PATT
         POIN2  theflameandthearrow0_12_1
// 018   ----------------------------------------
        BYTE   PATT
         POIN2  theflameandthearrow0_12_2
// 019   ----------------------------------------
        BYTE   PATT
         POIN2  theflameandthearrow0_12_1
// 020   ----------------------------------------
        BYTE   PATT
         POIN2  theflameandthearrow0_12_2
// 021   ----------------------------------------
        BYTE   PATT
         POIN2  theflameandthearrow0_12_1
// 022   ----------------------------------------
        BYTE   PATT
         POIN2  theflameandthearrow0_12_2
// 023   ----------------------------------------
        BYTE   PATT
         POIN2  theflameandthearrow0_12_1
// 024   ----------------------------------------
        BYTE   W24
        BYTE   GoTo
         POIN2  theflameandthearrow0_12_LOOP
        BYTE   W24
        BYTE           N19     Cs2   v120
        BYTE   W24
        BYTE           N09     As1
        BYTE   W12
        BYTE                   As1
        BYTE   W12
// 025   ----------------------------------------
        BYTE   PATT
         POIN2  theflameandthearrow0_12_9
// 026   ----------------------------------------
        BYTE   PATT
         POIN2  theflameandthearrow0_12_9
// 027   ----------------------------------------
        BYTE   PATT
         POIN2  theflameandthearrow0_12_9
// 028   ----------------------------------------
        BYTE   PATT
         POIN2  theflameandthearrow0_12_12
// 029   ----------------------------------------
        BYTE   PATT
         POIN2  theflameandthearrow0_12_9
// 030   ----------------------------------------
        BYTE   PATT
         POIN2  theflameandthearrow0_12_9
// 031   ----------------------------------------
        BYTE   PATT
         POIN2  theflameandthearrow0_12_15
// 032   ----------------------------------------
        BYTE           N09     As1   v120
        BYTE   W12
        BYTE                   As1
        BYTE   W12
        BYTE                   As1
        BYTE   W12
        BYTE                   As1
        BYTE   W12
        BYTE           N19     Cs2
        BYTE   W06
        BYTE           VOL     33
        BYTE   W12
        BYTE                   32
        BYTE   W06
        BYTE                   31
        BYTE           N09     Fs1
        BYTE   W06
        BYTE           VOL     30
        BYTE   W06
        BYTE           N09
        BYTE   W06
        BYTE           VOL     29
        BYTE   W06
// 033   ----------------------------------------
        BYTE                   28
        BYTE           N09
        BYTE   W12
        BYTE           VOL     27
        BYTE           N09
        BYTE   W06
        BYTE           VOL     26
        BYTE   W06
        BYTE           N09
        BYTE   W06
        BYTE           VOL     25
        BYTE   W06
        BYTE                   24
        BYTE           N09
        BYTE   W12
        BYTE           VOL     23
        BYTE           N09
        BYTE   W06
        BYTE           VOL     22
        BYTE   W06
        BYTE           N09
        BYTE   W06
        BYTE           VOL     21
        BYTE   W06
        BYTE                   20
        BYTE           N09
        BYTE   W06
        BYTE           VOL     19
        BYTE   W06
        BYTE           N09
        BYTE   W06
        BYTE           VOL     18
        BYTE   W06
// 034   ----------------------------------------
        BYTE                   17
        BYTE           N09
        BYTE   W12
        BYTE           VOL     16
        BYTE           N09
        BYTE   W06
        BYTE           VOL     15
        BYTE   W06
        BYTE           N04
        BYTE   W06
        BYTE           VOL     14
        BYTE           N14     An2
        BYTE   W06
        BYTE           VOL     13
        BYTE   W12
        BYTE                   12
        BYTE           N19     Cs2
        BYTE   W06
        BYTE           VOL     11
        BYTE   W12
        BYTE                   10
        BYTE   W06
        BYTE                   9
        BYTE           N09     Fs1
        BYTE   W06
        BYTE           VOL     8
        BYTE   W06
        BYTE           N09
        BYTE   W06
        BYTE           VOL     7
        BYTE   W06
// 035   ----------------------------------------
        BYTE                   6
        BYTE           N09
        BYTE   W12
        BYTE           VOL     5
        BYTE           N09
        BYTE   W06
        BYTE           VOL     4
        BYTE   W06
        BYTE           N09
        BYTE   W06
        BYTE           VOL     3
        BYTE   W06
        BYTE                   2
        BYTE           N09
        BYTE   W12
        BYTE           VOL     1
        BYTE           N09
        BYTE   W06
        BYTE           VOL     0
        BYTE   W06
        BYTE           N09
        BYTE   W12
        BYTE                   Fs1
        BYTE   W12
        BYTE                   Fs1
        BYTE   W12
// 036   ----------------------------------------
        BYTE                   Fs1
        BYTE   W12
        BYTE                   Fs1
        BYTE   W12
        BYTE           N04
        BYTE   W06
        BYTE           N14     An2
        BYTE   W17
        BYTE   FINE


//********************** End of Song ***********************//

        ALIGN 4
theflameandthearrow0:
        BYTE   13                      // Num Tracks
        BYTE   0                       // Unknown
        BYTE   theflameandthearrow0_pri // Priority
        BYTE   theflameandthearrow0_rev // Reverb

        POIN2   theflameandthearrow0_grp

        POIN2   theflameandthearrow0_0
        POIN2   theflameandthearrow0_1
        POIN2   theflameandthearrow0_2
        POIN2   theflameandthearrow0_3
        POIN2   theflameandthearrow0_4
        POIN2   theflameandthearrow0_5
        POIN2   theflameandthearrow0_6
        POIN2   theflameandthearrow0_7
        POIN2   theflameandthearrow0_8
        POIN2   theflameandthearrow0_9
        POIN2   theflameandthearrow0_10
        POIN2   theflameandthearrow0_11
        POIN2   theflameandthearrow0_12

        
