//Event file generated from Sappy .s format.
        #include "MPlayDef.event"

        #define    uno_tension_000_grp  voicegroup000
        #define    uno_tension_000_pri  0
        #define    uno_tension_000_rev  0
        #define    uno_tension_000_key  0

        // .rodata
        // uno_tension_000
        ALIGN 4

//****************** Track 0 (Midi-Chn.0) ******************//

uno_tension_000_0:
        BYTE   KEYSH   uno_tension_000_key+0
// 000   ----------------------------------------
        BYTE   TEMPO   130/2
uno_tension_000_0_LOOP:
        BYTE           VOICE   0
        BYTE           VOL     43
        BYTE   W48
        BYTE           TIE     Dn0   v127
        BYTE   W48
// 001   ----------------------------------------
        BYTE   W96
// 002   ----------------------------------------
        BYTE   W30
        BYTE   W01
        BYTE           EOT
        BYTE   W17
        BYTE           TIE
        BYTE   W48
// 003   ----------------------------------------
        BYTE   W96
// 004   ----------------------------------------
        BYTE   W24
        BYTE   W02
        BYTE           EOT
        BYTE   W68
        BYTE   W02
// 005   ----------------------------------------
        BYTE   W96
// 006   ----------------------------------------
        BYTE   W96
// 007   ----------------------------------------
        BYTE   W96
// 008   ----------------------------------------
        BYTE   W96
// 009   ----------------------------------------
        BYTE   W96
// 010   ----------------------------------------
        BYTE   W96
// 011   ----------------------------------------
        BYTE   W96
// 012   ----------------------------------------
        BYTE   W96
// 013   ----------------------------------------
        BYTE   W96
// 014   ----------------------------------------
        BYTE   W96
// 015   ----------------------------------------
        BYTE   W96
// 016   ----------------------------------------
        BYTE   W96
// 017   ----------------------------------------
        BYTE   W96
// 018   ----------------------------------------
        BYTE   W96
// 019   ----------------------------------------
        BYTE   W96
// 020   ----------------------------------------
        BYTE   W96
// 021   ----------------------------------------
        BYTE   W96
// 022   ----------------------------------------
        BYTE   W96
// 023   ----------------------------------------
        BYTE   W96
// 024   ----------------------------------------
        BYTE   W96
// 025   ----------------------------------------
        BYTE   W96
// 026   ----------------------------------------
        BYTE   W96
// 027   ----------------------------------------
        BYTE   W96
// 028   ----------------------------------------
        BYTE   W96
// 029   ----------------------------------------
        BYTE   W96
// 030   ----------------------------------------
        BYTE   W96
// 031   ----------------------------------------
        BYTE   W96
// 032   ----------------------------------------
        BYTE   W96
// 033   ----------------------------------------
        BYTE   W96
// 034   ----------------------------------------
        BYTE   W96
// 035   ----------------------------------------
        BYTE   W96
// 036   ----------------------------------------
        BYTE   W96
// 037   ----------------------------------------
        BYTE   W96
// 038   ----------------------------------------
        BYTE   W96
// 039   ----------------------------------------
        BYTE   W96
// 040   ----------------------------------------
        BYTE   W96
// 041   ----------------------------------------
        BYTE   W96
// 042   ----------------------------------------
        BYTE   W96
// 043   ----------------------------------------
        BYTE   W96
// 044   ----------------------------------------
        BYTE   W96
// 045   ----------------------------------------
        BYTE   W96
// 046   ----------------------------------------
        BYTE   W96
// 047   ----------------------------------------
        BYTE   W96
// 048   ----------------------------------------
        BYTE   GoTo
         POIN2  uno_tension_000_0_LOOP
        BYTE   FINE

//****************** Track 1 (Midi-Chn.1) ******************//

uno_tension_000_1:
        BYTE   KEYSH   uno_tension_000_key+0
// 000   ----------------------------------------
uno_tension_000_1_LOOP:
        BYTE           VOICE   68
        BYTE           VOL     35
        BYTE           PAN     c_v-17
        BYTE   W96
// 001   ----------------------------------------
        BYTE   W96
// 002   ----------------------------------------
        BYTE   W96
// 003   ----------------------------------------
        BYTE   W96
// 004   ----------------------------------------
        BYTE   W96
// 005   ----------------------------------------
        BYTE   W96
// 006   ----------------------------------------
        BYTE   W96
// 007   ----------------------------------------
        BYTE   W96
// 008   ----------------------------------------
        BYTE           N06     Dn4   v053
        BYTE           N06     Fn4
        BYTE   W12
        BYTE                   Fn4
        BYTE           N06     Dn4
        BYTE   W24
        BYTE                   Dn4   v054
        BYTE           N06     Fn4
        BYTE   W12
        BYTE                   Dn4
        BYTE           N06     Fn4
        BYTE   W48
// 009   ----------------------------------------
        BYTE                   Fn4   v053
        BYTE           N06     Cn4
        BYTE   W12
        BYTE                   Cn4   v054
        BYTE           N06     Fn4
        BYTE   W24
        BYTE                   Cn4
        BYTE           N06     Fn4
        BYTE   W12
        BYTE                   Cn4   v053
        BYTE           N06     Fn4
        BYTE   W48
// 010   ----------------------------------------
        BYTE                   Cn4   v050
        BYTE           N06     En4
        BYTE   W12
        BYTE                   En4
        BYTE           N06     Cn4
        BYTE   W24
        BYTE                   Cn4
        BYTE           N06     En4
        BYTE   W12
        BYTE                   En4
        BYTE           N06     Cn4
        BYTE   W48
// 011   ----------------------------------------
        BYTE                   Dn4   v051
        BYTE           N06     Fn4
        BYTE   W12
        BYTE                   Dn4
        BYTE           N06     Fn4
        BYTE   W24
        BYTE                   Dn4   v050
        BYTE           N06     Fn4
        BYTE   W12
        BYTE                   Dn4   v048
        BYTE           N06     Fn4
        BYTE   W48
// 012   ----------------------------------------
        BYTE   W96
// 013   ----------------------------------------
        BYTE   W96
// 014   ----------------------------------------
        BYTE   W96
// 015   ----------------------------------------
        BYTE   W96
// 016   ----------------------------------------
        BYTE                   Dn4   v107
        BYTE   W12
        BYTE                   Dn4   v081
        BYTE   W12
        BYTE                   Dn4
        BYTE   W12
        BYTE                   Dn4
        BYTE   W12
        BYTE                   Dn4
        BYTE   W12
        BYTE                   Dn4
        BYTE   W12
        BYTE                   En4   v108
        BYTE   W06
        BYTE                   Fn4   v109
        BYTE   W06
        BYTE                   Dn4
        BYTE   W12
// 017   ----------------------------------------
        BYTE                   Dn4
        BYTE   W12
        BYTE                   Dn4   v084
        BYTE   W12
        BYTE                   Dn4   v083
        BYTE   W12
        BYTE                   Dn4
        BYTE   W12
        BYTE                   Dn4
        BYTE   W12
        BYTE                   Dn4
        BYTE   W12
        BYTE                   En4   v106
        BYTE   W06
        BYTE                   Fn4
        BYTE   W06
        BYTE                   Dn4
        BYTE   W12
// 018   ----------------------------------------
        BYTE                   Dn4
        BYTE   W12
        BYTE                   Dn4   v084
        BYTE   W12
        BYTE                   Dn4
        BYTE   W12
        BYTE                   Dn4
        BYTE   W12
        BYTE                   En4   v086
        BYTE   W12
        BYTE                   En4   v087
        BYTE   W12
        BYTE                   En4   v090
        BYTE   W12
        BYTE                   En4   v091
        BYTE   W12
// 019   ----------------------------------------
        BYTE                   Fn4   v096
        BYTE   W12
        BYTE                   Fn4   v098
        BYTE   W12
        BYTE                   Fn4   v099
        BYTE   W12
        BYTE                   Fn4
        BYTE   W12
        BYTE                   Gn4
        BYTE   W12
        BYTE                   Gn4   v100
        BYTE   W12
        BYTE                   Gn4   v104
        BYTE   W12
        BYTE                   Gn4   v108
        BYTE   W12
// 020   ----------------------------------------
        BYTE   W96
// 021   ----------------------------------------
        BYTE   W96
// 022   ----------------------------------------
        BYTE   W96
// 023   ----------------------------------------
        BYTE   W96
// 024   ----------------------------------------
        BYTE   W96
// 025   ----------------------------------------
        BYTE   W96
// 026   ----------------------------------------
        BYTE   W96
// 027   ----------------------------------------
        BYTE   W96
// 028   ----------------------------------------
        BYTE           N12     An3   v076
        BYTE           N12     An2
        BYTE   W36
        BYTE                   As3
        BYTE           N12     As2
        BYTE   W12
        BYTE                   An3
        BYTE           N12     An2
        BYTE   W36
        BYTE                   An3
        BYTE           N12     An2
        BYTE   W12
// 029   ----------------------------------------
        BYTE                   As3
        BYTE           N12     As2
        BYTE   W36
        BYTE                   Cn4
        BYTE           N12     Cn3
        BYTE   W12
        BYTE                   As3
        BYTE           N12     As2
        BYTE   W24
        BYTE                   Dn4
        BYTE           N12     Dn3
        BYTE   W12
        BYTE                   Fn4
        BYTE           N12     Fn3
        BYTE   W12
// 030   ----------------------------------------
        BYTE                   En4
        BYTE           N12     En3
        BYTE   W36
        BYTE                   Fn4
        BYTE           N12     Fn3
        BYTE   W12
        BYTE                   En4
        BYTE           N12     En3
        BYTE   W36
        BYTE                   Fn4
        BYTE           N12     Fn3
        BYTE   W12
// 031   ----------------------------------------
        BYTE                   Dn4
        BYTE           N12     Dn3
        BYTE   W36
        BYTE                   En4
        BYTE           N12     En3
        BYTE   W12
        BYTE                   Fn4
        BYTE           N12     Fn3
        BYTE   W12
        BYTE                   En4
        BYTE           N12     En3
        BYTE   W12
        BYTE                   Dn4
        BYTE           N12     Dn3
        BYTE   W12
        BYTE                   Cn4
        BYTE           N12     Cn3
        BYTE   W12
// 032   ----------------------------------------
        BYTE           N06     Dn4   v091
        BYTE           N06     Dn3
        BYTE   W12
        BYTE                   Dn4   v065
        BYTE           N06     Dn3
        BYTE   W12
        BYTE                   Dn4
        BYTE           N06     Dn3
        BYTE   W12
        BYTE                   Dn4
        BYTE           N06     Dn3
        BYTE   W12
        BYTE                   Dn4
        BYTE           N06     Dn3
        BYTE   W12
        BYTE                   Dn4
        BYTE           N06     Dn3
        BYTE   W12
        BYTE                   En4   v092
        BYTE           N06     En3
        BYTE   W06
        BYTE                   Fn4   v093
        BYTE           N06     Fn3
        BYTE   W06
        BYTE                   Dn4
        BYTE           N06     Dn3
        BYTE   W12
// 033   ----------------------------------------
        BYTE                   Dn4
        BYTE           N06     Dn3
        BYTE   W12
        BYTE                   Dn4   v068
        BYTE           N06     Dn3
        BYTE   W12
        BYTE                   Dn4   v067
        BYTE           N06     Dn3
        BYTE   W12
        BYTE                   Dn4
        BYTE           N06     Dn3
        BYTE   W12
        BYTE                   Dn4
        BYTE           N06     Dn3
        BYTE   W12
        BYTE                   Dn4
        BYTE           N06     Dn3
        BYTE   W12
        BYTE                   En4   v090
        BYTE           N06     En3
        BYTE   W06
        BYTE                   Fn4
        BYTE           N06     Fn3
        BYTE   W06
        BYTE                   Dn4
        BYTE           N06     Dn3
        BYTE   W12
// 034   ----------------------------------------
        BYTE                   Dn5   v091
        BYTE           N06     Dn4
        BYTE   W12
        BYTE                   Dn5   v065
        BYTE           N06     Dn4
        BYTE   W12
        BYTE                   Dn5
        BYTE           N06     Dn4
        BYTE   W12
        BYTE                   Dn5
        BYTE           N06     Dn4
        BYTE   W12
        BYTE                   Dn5
        BYTE           N06     Dn4
        BYTE   W12
        BYTE                   Dn5
        BYTE           N06     Dn4
        BYTE   W12
        BYTE                   En5   v092
        BYTE           N06     En4
        BYTE   W06
        BYTE                   Fn5   v093
        BYTE           N06     Fn4
        BYTE   W06
        BYTE                   Dn5
        BYTE           N06     Dn4
        BYTE   W12
// 035   ----------------------------------------
        BYTE                   Dn5
        BYTE           N06     Dn4
        BYTE   W12
        BYTE                   Dn5   v068
        BYTE           N06     Dn4
        BYTE   W12
        BYTE                   Dn5   v067
        BYTE           N06     Dn4
        BYTE   W12
        BYTE                   Dn5
        BYTE           N06     Dn4
        BYTE   W12
        BYTE                   Dn5
        BYTE           N06     Dn4
        BYTE   W12
        BYTE                   Dn5
        BYTE           N06     Dn4
        BYTE   W12
        BYTE                   En5   v090
        BYTE           N06     En4
        BYTE   W06
        BYTE                   Fn5
        BYTE           N06     Fn4
        BYTE   W06
        BYTE                   Dn5
        BYTE           N06     Dn4
        BYTE   W12
// 036   ----------------------------------------
uno_tension_000_1_36:
        BYTE           N12     Dn4   v081
        BYTE   W12
        BYTE                   En4
        BYTE   W12
        BYTE           N24     Fn4
        BYTE   W36
        BYTE           N12     En4
        BYTE   W12
        BYTE                   Dn4
        BYTE   W12
        BYTE           N60     An4
        BYTE   W12
        BYTE   PEND
// 037   ----------------------------------------
        BYTE   W72
        BYTE           N12     Gn4
        BYTE   W12
        BYTE                   Fn4
        BYTE   W12
// 038   ----------------------------------------
        BYTE                   En4
        BYTE   W12
        BYTE                   Fn4
        BYTE   W12
        BYTE           N48     Gn4
        BYTE   W48
        BYTE           N12     Fn4
        BYTE   W12
        BYTE                   En4
        BYTE   W12
// 039   ----------------------------------------
        BYTE                   Dn4
        BYTE   W12
        BYTE                   En4
        BYTE   W12
        BYTE           N66     Fn4
        BYTE   W72
// 040   ----------------------------------------
        BYTE   PATT
         POIN2  uno_tension_000_1_36
// 041   ----------------------------------------
        BYTE   W72
        BYTE           N12     An4   v081
        BYTE   W12
        BYTE                   Cn5
        BYTE   W12
// 042   ----------------------------------------
        BYTE                   Gn4
        BYTE   W12
        BYTE                   Fn4
        BYTE   W12
        BYTE           N24     En4
        BYTE   W48
        BYTE           N12     Fn4
        BYTE   W12
        BYTE                   En4
        BYTE   W12
// 043   ----------------------------------------
        BYTE                   Dn4
        BYTE   W12
        BYTE                   En4
        BYTE   W12
        BYTE           N40     Fn4
        BYTE   W72
// 044   ----------------------------------------
        BYTE   W96
// 045   ----------------------------------------
        BYTE   W96
// 046   ----------------------------------------
        BYTE           N12     Dn3   v063
        BYTE   W12
        BYTE                   En3
        BYTE   W12
        BYTE           N36     Fn3
        BYTE   W60
        BYTE           N12     Cn3
        BYTE   W12
// 047   ----------------------------------------
        BYTE                   Dn3   v065
        BYTE   W12
        BYTE                   En3
        BYTE   W12
        BYTE                   Fn3   v064
        BYTE   W12
        BYTE           N36     Dn3
        BYTE   W60
// 048   ----------------------------------------
        BYTE   GoTo
         POIN2  uno_tension_000_1_LOOP
        BYTE   FINE

//****************** Track 2 (Midi-Chn.2) ******************//

uno_tension_000_2:
        BYTE   KEYSH   uno_tension_000_key+0
// 000   ----------------------------------------
uno_tension_000_2_LOOP:
        BYTE           VOICE   96
        BYTE           VOL     43
        BYTE           PAN     c_v+28
        BYTE   W96
// 001   ----------------------------------------
        BYTE   W96
// 002   ----------------------------------------
        BYTE   W96
// 003   ----------------------------------------
        BYTE   W96
// 004   ----------------------------------------
        BYTE   W96
// 005   ----------------------------------------
        BYTE   W96
// 006   ----------------------------------------
        BYTE   W96
// 007   ----------------------------------------
        BYTE   W96
// 008   ----------------------------------------
        BYTE   W96
// 009   ----------------------------------------
        BYTE   W96
// 010   ----------------------------------------
        BYTE   W96
// 011   ----------------------------------------
        BYTE   W96
// 012   ----------------------------------------
        BYTE   W96
// 013   ----------------------------------------
        BYTE   W96
// 014   ----------------------------------------
        BYTE   W96
// 015   ----------------------------------------
        BYTE   W96
// 016   ----------------------------------------
        BYTE   W96
// 017   ----------------------------------------
        BYTE   W96
// 018   ----------------------------------------
        BYTE   W96
// 019   ----------------------------------------
        BYTE   W96
// 020   ----------------------------------------
        BYTE   W96
// 021   ----------------------------------------
        BYTE   W96
// 022   ----------------------------------------
        BYTE   W96
// 023   ----------------------------------------
        BYTE   W96
// 024   ----------------------------------------
        BYTE   W96
// 025   ----------------------------------------
        BYTE   W96
// 026   ----------------------------------------
        BYTE   W96
// 027   ----------------------------------------
        BYTE   W96
// 028   ----------------------------------------
        BYTE   W96
// 029   ----------------------------------------
        BYTE   W96
// 030   ----------------------------------------
        BYTE   W96
// 031   ----------------------------------------
        BYTE   W96
// 032   ----------------------------------------
        BYTE   W96
// 033   ----------------------------------------
        BYTE   W96
// 034   ----------------------------------------
        BYTE   W96
// 035   ----------------------------------------
        BYTE   W96
// 036   ----------------------------------------
        BYTE           N13     Dn3   v101
        BYTE   W12
        BYTE                   En3   v088
        BYTE   W12
        BYTE           N32     Fn3   v079   gtp2
        BYTE   W36
        BYTE           N13     En3   v078
        BYTE   W12
        BYTE                   Dn3   v082
        BYTE   W12
        BYTE           N76     An3   v090   gtp1
        BYTE   W12
// 037   ----------------------------------------
        BYTE   W72
        BYTE           N14     Gn3   v094
        BYTE   W12
        BYTE           N13     Fn3   v088
        BYTE   W12
// 038   ----------------------------------------
        BYTE           N15     En3   v090
        BYTE   W12
        BYTE           N12     Fn3   v098
        BYTE   W12
        BYTE           N42     Gn3   v078   gtp1
        BYTE   W48
        BYTE           N10     Fn3   v094
        BYTE   W12
        BYTE           N12     En3   v073
        BYTE   W12
// 039   ----------------------------------------
        BYTE           N15     Dn3   v077
        BYTE   W12
        BYTE           N12     En3
        BYTE   W12
        BYTE           N64     Fn3   v088
        BYTE   W72
// 040   ----------------------------------------
        BYTE           N10     Dn3   v095
        BYTE   W12
        BYTE           N13     En3   v071
        BYTE   W12
        BYTE           N36     Fn3   v070
        BYTE   W36
        BYTE           N12     En3   v071
        BYTE   W12
        BYTE           N11     Dn3   v077
        BYTE   W12
        BYTE           N78     An3   v078
        BYTE   W12
// 041   ----------------------------------------
        BYTE   W72
        BYTE           N14     An3   v088
        BYTE   W12
        BYTE           N11     Cn4   v066
        BYTE   W12
// 042   ----------------------------------------
        BYTE           N15     Gn3   v077
        BYTE   W12
        BYTE           N12     Fn3   v081
        BYTE   W12
        BYTE           N42     En3   v080
        BYTE   W48
        BYTE           N11     Fn3   v094
        BYTE   W12
        BYTE           N14     En3   v073
        BYTE   W12
// 043   ----------------------------------------
        BYTE                   Dn3   v071
        BYTE   W12
        BYTE           N11     En3
        BYTE   W12
        BYTE           N32     Fn3   v085   gtp1
        BYTE   W36
        BYTE           N11     En3   v077
        BYTE   W12
        BYTE           N22     Dn3   v071
        BYTE   W24
// 044   ----------------------------------------
        BYTE           N04     Dn4   v080
        BYTE           N04     Dn3   v082
        BYTE   W24
        BYTE           N05     Dn3   v090
        BYTE           N04     Dn4   v078
        BYTE   W24
        BYTE                   Dn4   v082
        BYTE           N04     Dn3   v094
        BYTE   W24
        BYTE                   Dn3
        BYTE           N04     Dn4   v084
        BYTE   W24
// 045   ----------------------------------------
        BYTE                   Dn3   v090
        BYTE           N04     Dn4   v082
        BYTE   W24
        BYTE                   Dn3   v095
        BYTE           N04     Dn4   v082
        BYTE   W24
        BYTE           N05     Dn3   v090
        BYTE           N04     Dn4   v084
        BYTE   W24
        BYTE                   Dn3   v094
        BYTE           N04     Dn4   v084
        BYTE   W24
// 046   ----------------------------------------
        BYTE                   Dn3   v094
        BYTE           N04     Dn4   v088
        BYTE   W24
        BYTE           N05     Dn3   v090
        BYTE           N04     Dn4   v084
        BYTE   W24
        BYTE                   Dn3   v088
        BYTE           N04     Dn4   v086
        BYTE   W24
        BYTE                   Dn3
        BYTE           N04     Dn4
        BYTE   W24
// 047   ----------------------------------------
        BYTE                   Dn3   v092
        BYTE           N04     Dn4   v086
        BYTE   W24
        BYTE                   Dn3   v088
        BYTE           N04     Dn4   v086
        BYTE   W24
        BYTE                   Dn3   v092
        BYTE           N04     Dn4   v084
        BYTE   W24
        BYTE                   Dn4   v086
        BYTE           N04     Dn3   v092
        BYTE   W24
// 048   ----------------------------------------
        BYTE   GoTo
         POIN2  uno_tension_000_2_LOOP
        BYTE   FINE

//****************** Track 3 (Midi-Chn.3) ******************//

uno_tension_000_3:
        BYTE   KEYSH   uno_tension_000_key+0
// 000   ----------------------------------------
uno_tension_000_3_LOOP:
        BYTE           VOICE   56
        BYTE           VOL     53
        BYTE           PAN     c_v+11
        BYTE   W96
// 001   ----------------------------------------
        BYTE   W96
// 002   ----------------------------------------
        BYTE   W96
// 003   ----------------------------------------
        BYTE   W96
// 004   ----------------------------------------
uno_tension_000_3_4:
        BYTE           N12     Dn3   v127
        BYTE   W12
        BYTE                   En3
        BYTE   W12
        BYTE           N24     Fn3
        BYTE   W36
        BYTE           N12     En3
        BYTE   W12
        BYTE                   Dn3
        BYTE   W12
        BYTE           N60     An3
        BYTE   W12
        BYTE   PEND
// 005   ----------------------------------------
        BYTE   W72
        BYTE           N12     Gn3
        BYTE   W12
        BYTE                   Fn3
        BYTE   W12
// 006   ----------------------------------------
        BYTE                   En3
        BYTE   W12
        BYTE                   Fn3
        BYTE   W12
        BYTE           N24     Gn3
        BYTE   W48
        BYTE           N12     Fn3
        BYTE   W12
        BYTE                   En3
        BYTE   W12
// 007   ----------------------------------------
        BYTE                   Dn3
        BYTE   W12
        BYTE                   En3
        BYTE   W12
        BYTE           N24     Fn3
        BYTE   W72
// 008   ----------------------------------------
        BYTE   PATT
         POIN2  uno_tension_000_3_4
// 009   ----------------------------------------
        BYTE   W72
        BYTE           N12     An3   v127
        BYTE   W12
        BYTE                   Cn4
        BYTE   W12
// 010   ----------------------------------------
        BYTE                   Gn3
        BYTE   W12
        BYTE                   Fn3
        BYTE   W12
        BYTE           N24     En3
        BYTE   W48
        BYTE           N12     Fn3
        BYTE   W12
        BYTE                   En3
        BYTE   W12
// 011   ----------------------------------------
        BYTE                   Dn3
        BYTE   W12
        BYTE                   En3
        BYTE   W12
        BYTE           N24     Fn3
        BYTE   W48
        BYTE           N12     Cn3
        BYTE   W12
        BYTE                   As2
        BYTE   W12
// 012   ----------------------------------------
        BYTE                   An2
        BYTE   W36
        BYTE                   As2
        BYTE   W12
        BYTE                   An2
        BYTE   W36
        BYTE                   An2
        BYTE   W12
// 013   ----------------------------------------
        BYTE                   As2
        BYTE   W36
        BYTE                   Cn3
        BYTE   W12
        BYTE                   As2
        BYTE   W24
        BYTE                   Dn3
        BYTE   W12
        BYTE                   Fn3
        BYTE   W12
// 014   ----------------------------------------
        BYTE                   En3
        BYTE   W36
        BYTE                   Fn3
        BYTE   W12
        BYTE                   En3
        BYTE   W36
        BYTE                   Fn3
        BYTE   W12
// 015   ----------------------------------------
        BYTE                   Dn3
        BYTE   W36
        BYTE                   En3
        BYTE   W12
        BYTE                   Fn3
        BYTE   W12
        BYTE                   En3
        BYTE   W12
        BYTE                   Dn3
        BYTE   W12
        BYTE                   Cn3
        BYTE   W12
// 016   ----------------------------------------
        BYTE                   Dn3
        BYTE   W96
// 017   ----------------------------------------
        BYTE   W96
// 018   ----------------------------------------
        BYTE   W96
// 019   ----------------------------------------
        BYTE   W96
// 020   ----------------------------------------
        BYTE   W96
// 021   ----------------------------------------
        BYTE   W96
// 022   ----------------------------------------
        BYTE   W96
// 023   ----------------------------------------
        BYTE   W96
// 024   ----------------------------------------
        BYTE   W96
// 025   ----------------------------------------
        BYTE   W96
// 026   ----------------------------------------
        BYTE   W96
// 027   ----------------------------------------
        BYTE   W96
// 028   ----------------------------------------
        BYTE                   An1   v097
        BYTE           N12     An3   v094
        BYTE           N12     An2
        BYTE   W36
        BYTE                   As3
        BYTE           N12     As2
        BYTE   W12
        BYTE                   An3
        BYTE           N12     An2
        BYTE   W36
        BYTE                   An3
        BYTE           N12     An2
        BYTE   W12
// 029   ----------------------------------------
        BYTE                   As3
        BYTE           N12     As2
        BYTE   W36
        BYTE                   Cn4
        BYTE           N12     Cn3
        BYTE   W12
        BYTE                   As3
        BYTE           N12     As2
        BYTE   W24
        BYTE                   Dn4
        BYTE           N12     Dn3
        BYTE   W12
        BYTE                   Fn4
        BYTE           N12     Fn3
        BYTE   W12
// 030   ----------------------------------------
        BYTE                   En4
        BYTE           N12     En3
        BYTE   W36
        BYTE                   Fn4
        BYTE           N12     Fn3
        BYTE   W12
        BYTE                   En4
        BYTE           N12     En3
        BYTE   W36
        BYTE                   Fn4
        BYTE           N12     Fn3
        BYTE   W12
// 031   ----------------------------------------
        BYTE                   Dn4
        BYTE           N12     Dn3
        BYTE   W36
        BYTE                   En4
        BYTE           N12     En3
        BYTE   W12
        BYTE                   Fn4
        BYTE           N12     Fn3
        BYTE   W12
        BYTE                   En4
        BYTE           N12     En3
        BYTE   W12
        BYTE                   Dn4
        BYTE           N12     Dn3
        BYTE   W12
        BYTE                   Cn4
        BYTE           N12     Cn3
        BYTE   W12
// 032   ----------------------------------------
        BYTE   W96
// 033   ----------------------------------------
        BYTE   W96
// 034   ----------------------------------------
        BYTE   W96
// 035   ----------------------------------------
        BYTE   W96
// 036   ----------------------------------------
        BYTE   W96
// 037   ----------------------------------------
        BYTE   W96
// 038   ----------------------------------------
        BYTE   W96
// 039   ----------------------------------------
        BYTE   W96
// 040   ----------------------------------------
        BYTE   W96
// 041   ----------------------------------------
        BYTE   W96
// 042   ----------------------------------------
        BYTE   W96
// 043   ----------------------------------------
        BYTE   W96
// 044   ----------------------------------------
        BYTE                   Dn3   v127
        BYTE   W12
        BYTE                   En3
        BYTE   W12
        BYTE           N48     Fn3
        BYTE   W60
        BYTE           N12     Cn3
        BYTE   W12
// 045   ----------------------------------------
        BYTE                   Dn3
        BYTE   W12
        BYTE                   En3
        BYTE   W12
        BYTE                   Fn3
        BYTE   W12
        BYTE           N36     An3
        BYTE   W60
// 046   ----------------------------------------
        BYTE   W96
// 047   ----------------------------------------
        BYTE   W96
// 048   ----------------------------------------
        BYTE   GoTo
         POIN2  uno_tension_000_3_LOOP
        BYTE   FINE

//****************** Track 4 (Midi-Chn.4) ******************//

uno_tension_000_4:
        BYTE   KEYSH   uno_tension_000_key+0
// 000   ----------------------------------------
uno_tension_000_4_LOOP:
        BYTE           VOICE   83
        BYTE           VOL     36
        BYTE           N03     Dn2   v096
        BYTE           N03     Dn1
        BYTE   W06
        BYTE           N06     Dn2
        BYTE           N06     Dn1
        BYTE   W12
        BYTE                   Dn2
        BYTE           N06     Dn1
        BYTE   W06
        BYTE           N12     Fn1
        BYTE           N12     Fn2
        BYTE   W12
        BYTE           N03     Cn1
        BYTE           N03     Cn2
        BYTE   W06
        BYTE           N12     Dn1
        BYTE           N12     Dn2
        BYTE   W18
        BYTE                   Cn1
        BYTE           N12     Cn2
        BYTE   W12
        BYTE           N03     Dn1
        BYTE           N03     Dn2
        BYTE   W06
        BYTE           N12     Fn1
        BYTE           N12     Fn2
        BYTE   W12
        BYTE           N03     Cn1
        BYTE           N03     Cn2
        BYTE   W06
// 001   ----------------------------------------
uno_tension_000_4_1:
        BYTE           N03     Dn2   v096
        BYTE           N03     Dn1
        BYTE   W06
        BYTE           N06     Dn2
        BYTE           N06     Dn1
        BYTE   W12
        BYTE                   Dn2
        BYTE           N06     Dn1
        BYTE   W06
        BYTE           N12     Fn1
        BYTE           N12     Fn2
        BYTE   W12
        BYTE           N03     Gn1
        BYTE           N03     Gn2
        BYTE   W06
        BYTE           N12     Fn1
        BYTE           N12     Fn2
        BYTE   W18
        BYTE                   Cn1
        BYTE           N12     Cn2
        BYTE   W12
        BYTE           N03     Dn1
        BYTE           N03     Dn2
        BYTE   W06
        BYTE           N12     Fn1
        BYTE           N12     Fn2
        BYTE   W18
        BYTE   PEND
// 002   ----------------------------------------
uno_tension_000_4_2:
        BYTE           N03     Dn2   v096
        BYTE           N03     Dn1
        BYTE   W06
        BYTE           N06     Dn2
        BYTE           N06     Dn1
        BYTE   W12
        BYTE                   Dn2
        BYTE           N06     Dn1
        BYTE   W06
        BYTE           N12     Fn1
        BYTE           N12     Fn2
        BYTE   W12
        BYTE           N03     Cn1
        BYTE           N03     Cn2
        BYTE   W06
        BYTE           N12     Dn1
        BYTE           N12     Dn2
        BYTE   W18
        BYTE                   Cn1
        BYTE           N12     Cn2
        BYTE   W12
        BYTE           N03     Dn1
        BYTE           N03     Dn2
        BYTE   W06
        BYTE           N12     Fn1
        BYTE           N12     Fn2
        BYTE   W12
        BYTE           N03     Cn1
        BYTE           N03     Cn2
        BYTE   W06
        BYTE   PEND
// 003   ----------------------------------------
        BYTE   PATT
         POIN2  uno_tension_000_4_1
// 004   ----------------------------------------
        BYTE   PATT
         POIN2  uno_tension_000_4_2
// 005   ----------------------------------------
uno_tension_000_4_5:
        BYTE           N03     Fn2   v096
        BYTE           N03     Fn1
        BYTE   W06
        BYTE           N06     Fn2
        BYTE           N06     Fn1
        BYTE   W12
        BYTE                   Fn2
        BYTE           N06     Fn1
        BYTE   W06
        BYTE           N12     Gn1
        BYTE           N12     Gn2
        BYTE   W12
        BYTE           N03     Fn1
        BYTE           N03     Fn2
        BYTE   W06
        BYTE           N12     Fn1
        BYTE           N12     Fn2
        BYTE   W18
        BYTE                   Dn1
        BYTE           N12     Dn2
        BYTE   W12
        BYTE           N03     Fn1
        BYTE           N03     Fn2
        BYTE   W06
        BYTE           N12     Gn1
        BYTE           N12     Gn2
        BYTE   W18
        BYTE   PEND
// 006   ----------------------------------------
uno_tension_000_4_6:
        BYTE           N03     Cn2   v096
        BYTE           N03     Cn1
        BYTE   W06
        BYTE           N06     Cn2
        BYTE           N06     Cn1
        BYTE   W12
        BYTE                   Cn2
        BYTE           N06     Cn1
        BYTE   W06
        BYTE           N12     Dn1
        BYTE           N12     Dn2
        BYTE   W12
        BYTE           N03     Cn1
        BYTE           N03     Cn2
        BYTE   W06
        BYTE           N12     Cn1
        BYTE           N12     Cn2
        BYTE   W18
        BYTE                   Cn1
        BYTE           N12     Cn2
        BYTE   W12
        BYTE           N03     Cn1
        BYTE           N03     Cn2
        BYTE   W06
        BYTE           N12     Cn1
        BYTE           N12     Cn2
        BYTE   W12
        BYTE           N03     Dn1
        BYTE           N03     Dn2
        BYTE   W06
        BYTE   PEND
// 007   ----------------------------------------
        BYTE   PATT
         POIN2  uno_tension_000_4_1
// 008   ----------------------------------------
        BYTE   PATT
         POIN2  uno_tension_000_4_2
// 009   ----------------------------------------
        BYTE   PATT
         POIN2  uno_tension_000_4_5
// 010   ----------------------------------------
        BYTE   PATT
         POIN2  uno_tension_000_4_6
// 011   ----------------------------------------
        BYTE   PATT
         POIN2  uno_tension_000_4_1
// 012   ----------------------------------------
        BYTE           N03     An1   v096
        BYTE           N03     An0
        BYTE   W06
        BYTE           N06     An1
        BYTE           N06     An0
        BYTE   W12
        BYTE                   As1
        BYTE           N06     As0
        BYTE   W06
        BYTE           N12     An0
        BYTE           N12     An1
        BYTE   W12
        BYTE           N03     As0
        BYTE           N03     As1
        BYTE   W06
        BYTE           N12     An0
        BYTE           N12     An1
        BYTE   W18
        BYTE                   Cn1
        BYTE           N12     Cn2
        BYTE   W12
        BYTE           N03     An0
        BYTE           N03     An1
        BYTE   W06
        BYTE           N12     As0
        BYTE           N12     As1
        BYTE   W12
        BYTE           N03     An0
        BYTE           N03     An1
        BYTE   W06
// 013   ----------------------------------------
        BYTE   PATT
         POIN2  uno_tension_000_4_5
// 014   ----------------------------------------
        BYTE   PATT
         POIN2  uno_tension_000_4_6
// 015   ----------------------------------------
        BYTE   PATT
         POIN2  uno_tension_000_4_1
// 016   ----------------------------------------
        BYTE   PATT
         POIN2  uno_tension_000_4_2
// 017   ----------------------------------------
        BYTE   PATT
         POIN2  uno_tension_000_4_1
// 018   ----------------------------------------
        BYTE           N03     An3   v104
        BYTE           N03     Dn2   v096
        BYTE           N03     Dn1
        BYTE   W06
        BYTE                   Dn3   v104
        BYTE           N06     Dn2   v096
        BYTE           N06     Dn1
        BYTE   W06
        BYTE           N03     Fn3   v104
        BYTE   W06
        BYTE                   Dn3
        BYTE           N06     Dn2   v096
        BYTE           N06     Dn1
        BYTE   W06
        BYTE           N03     An3   v104
        BYTE           N12     Fn1   v096
        BYTE           N12     Fn2
        BYTE   W06
        BYTE           N03     Dn3   v104
        BYTE   W06
        BYTE                   Fn3
        BYTE           N03     Cn1   v096
        BYTE           N03     Cn2
        BYTE   W06
        BYTE                   Dn3   v104
        BYTE           N12     Dn1   v096
        BYTE           N12     Dn2
        BYTE   W06
        BYTE           N03     An3   v104
        BYTE   W06
        BYTE                   Dn3
        BYTE   W06
        BYTE                   Fn3
        BYTE           N12     Cn1   v096
        BYTE           N12     Cn2
        BYTE   W06
        BYTE           N03     Dn3   v104
        BYTE   W06
        BYTE                   An3
        BYTE           N03     Dn1   v096
        BYTE           N03     Dn2
        BYTE   W06
        BYTE                   Dn3   v104
        BYTE           N12     Fn1   v096
        BYTE           N12     Fn2
        BYTE   W06
        BYTE           N03     Fn3   v104
        BYTE   W06
        BYTE                   Dn3
        BYTE           N03     Cn1   v096
        BYTE           N03     Cn2
        BYTE   W06
// 019   ----------------------------------------
        BYTE                   An3   v104
        BYTE           N03     Dn2   v096
        BYTE           N03     Dn1
        BYTE   W06
        BYTE                   Dn3   v104
        BYTE           N06     Dn2   v096
        BYTE           N06     Dn1
        BYTE   W06
        BYTE           N03     Fn3   v104
        BYTE   W06
        BYTE                   Dn3
        BYTE           N06     Dn2   v096
        BYTE           N06     Dn1
        BYTE   W06
        BYTE           N03     An3   v104
        BYTE           N12     Fn1   v096
        BYTE           N12     Fn2
        BYTE   W06
        BYTE           N03     Dn3   v104
        BYTE   W06
        BYTE                   Fn3
        BYTE           N03     Gn1   v096
        BYTE           N03     Gn2
        BYTE   W06
        BYTE           N02     Dn3   v104
        BYTE           N12     Fn1   v096
        BYTE           N12     Fn2
        BYTE   W06
        BYTE           N03     An3   v104
        BYTE   W06
        BYTE                   Dn3
        BYTE   W06
        BYTE                   Fn3
        BYTE           N12     Cn1   v096
        BYTE           N12     Cn2
        BYTE   W03
        BYTE           N03     Dn3   v104
        BYTE   W09
        BYTE                   An3
        BYTE           N03     Dn1   v096
        BYTE           N03     Dn2
        BYTE   W06
        BYTE                   Dn3   v104
        BYTE           N12     Fn1   v096
        BYTE           N12     Fn2
        BYTE   W06
        BYTE           N03     Fn3   v104
        BYTE   W06
        BYTE           N02     Dn3
        BYTE   W06
// 020   ----------------------------------------
        BYTE   PATT
         POIN2  uno_tension_000_4_2
// 021   ----------------------------------------
        BYTE   PATT
         POIN2  uno_tension_000_4_5
// 022   ----------------------------------------
        BYTE   PATT
         POIN2  uno_tension_000_4_6
// 023   ----------------------------------------
        BYTE   PATT
         POIN2  uno_tension_000_4_1
// 024   ----------------------------------------
        BYTE   PATT
         POIN2  uno_tension_000_4_2
// 025   ----------------------------------------
        BYTE   PATT
         POIN2  uno_tension_000_4_5
// 026   ----------------------------------------
        BYTE   PATT
         POIN2  uno_tension_000_4_6
// 027   ----------------------------------------
        BYTE   PATT
         POIN2  uno_tension_000_4_1
// 028   ----------------------------------------
        BYTE           N03     En4   v096
        BYTE           N03     An1
        BYTE           N03     An0
        BYTE   W06
        BYTE                   An3
        BYTE           N06     An1
        BYTE           N06     An0
        BYTE   W06
        BYTE           N03     Cn4
        BYTE   W06
        BYTE                   An3
        BYTE           N06     As1
        BYTE           N06     As0
        BYTE   W06
        BYTE           N03     En4
        BYTE           N12     An0
        BYTE           N12     An1
        BYTE   W06
        BYTE           N03     An3
        BYTE   W06
        BYTE                   Cn4
        BYTE           N03     As0
        BYTE           N03     As1
        BYTE   W06
        BYTE                   An3
        BYTE           N12     An0
        BYTE           N12     An1
        BYTE   W06
        BYTE           N03     En4
        BYTE   W06
        BYTE                   An3
        BYTE   W06
        BYTE                   Cn4
        BYTE           N12     Cn1
        BYTE           N12     Cn2
        BYTE   W06
        BYTE           N03     An3
        BYTE   W06
        BYTE                   En4
        BYTE           N03     An0
        BYTE           N03     An1
        BYTE   W06
        BYTE                   An3
        BYTE           N12     As0
        BYTE           N12     As1
        BYTE   W06
        BYTE           N03     Cn4
        BYTE   W06
        BYTE                   An3
        BYTE           N03     An0
        BYTE           N03     An1
        BYTE   W06
// 029   ----------------------------------------
        BYTE                   Fn4
        BYTE           N03     Fn2
        BYTE           N03     Fn1
        BYTE   W06
        BYTE                   As3
        BYTE           N06     Fn2
        BYTE           N06     Fn1
        BYTE   W06
        BYTE           N03     Dn4
        BYTE   W06
        BYTE                   As3
        BYTE           N06     Fn2
        BYTE           N06     Fn1
        BYTE   W06
        BYTE           N03     Fn4
        BYTE           N12     Gn1
        BYTE           N12     Gn2
        BYTE   W06
        BYTE           N03     As3
        BYTE   W06
        BYTE                   Dn4
        BYTE           N03     Fn1
        BYTE           N03     Fn2
        BYTE   W06
        BYTE                   As3
        BYTE           N12     Fn1
        BYTE           N12     Fn2
        BYTE   W06
        BYTE           N03     Fn4
        BYTE   W06
        BYTE                   As3
        BYTE   W06
        BYTE                   Dn4
        BYTE           N12     Dn1
        BYTE           N12     Dn2
        BYTE   W06
        BYTE           N03     As3
        BYTE   W06
        BYTE                   Fn4
        BYTE           N03     Fn1
        BYTE           N03     Fn2
        BYTE   W06
        BYTE                   As3
        BYTE           N12     Gn1
        BYTE           N12     Gn2
        BYTE   W06
        BYTE           N03     Dn4
        BYTE   W06
        BYTE                   As3
        BYTE   W06
// 030   ----------------------------------------
        BYTE                   Gn4
        BYTE           N03     Cn2
        BYTE           N03     Cn1
        BYTE   W06
        BYTE                   Cn4
        BYTE           N06     Cn2
        BYTE           N06     Cn1
        BYTE   W06
        BYTE           N03     En4
        BYTE   W06
        BYTE                   Cn4
        BYTE           N06     Cn2
        BYTE           N06     Cn1
        BYTE   W06
        BYTE           N03     Gn4
        BYTE           N12     Dn1
        BYTE           N12     Dn2
        BYTE   W06
        BYTE           N03     Cn4
        BYTE   W06
        BYTE                   En4
        BYTE           N03     Cn1
        BYTE           N03     Cn2
        BYTE   W06
        BYTE                   Cn4
        BYTE           N12     Cn1
        BYTE           N12     Cn2
        BYTE   W06
        BYTE           N03     Gn4
        BYTE   W06
        BYTE                   Cn4
        BYTE   W06
        BYTE                   En4
        BYTE           N12     Cn1
        BYTE           N12     Cn2
        BYTE   W06
        BYTE           N03     Cn4
        BYTE   W06
        BYTE                   Gn4
        BYTE           N03     Cn1
        BYTE           N03     Cn2
        BYTE   W06
        BYTE                   Cn4
        BYTE           N12     Cn1
        BYTE           N12     Cn2
        BYTE   W06
        BYTE           N03     En4
        BYTE   W06
        BYTE                   Cn4
        BYTE           N03     Dn1
        BYTE           N03     Dn2
        BYTE   W06
// 031   ----------------------------------------
        BYTE                   Fn4
        BYTE           N03     Dn2
        BYTE           N03     Dn1
        BYTE   W06
        BYTE                   As3
        BYTE           N06     Dn2
        BYTE           N06     Dn1
        BYTE   W06
        BYTE           N03     Dn4
        BYTE   W06
        BYTE                   As3
        BYTE           N06     Dn2
        BYTE           N06     Dn1
        BYTE   W06
        BYTE           N03     Fn4
        BYTE           N12     Fn1
        BYTE           N12     Fn2
        BYTE   W06
        BYTE           N03     As3
        BYTE   W06
        BYTE                   Dn4
        BYTE           N03     Gn1
        BYTE           N03     Gn2
        BYTE   W06
        BYTE                   As3
        BYTE           N12     Fn1
        BYTE           N12     Fn2
        BYTE   W06
        BYTE           N03     Gn4
        BYTE   W06
        BYTE                   Cn4
        BYTE   W06
        BYTE                   En4
        BYTE           N12     Cn1
        BYTE           N12     Cn2
        BYTE   W06
        BYTE           N03     Cn4
        BYTE   W06
        BYTE                   Gn4
        BYTE           N03     Dn1
        BYTE           N03     Dn2
        BYTE   W06
        BYTE                   Cn4
        BYTE           N12     Fn1
        BYTE           N12     Fn2
        BYTE   W06
        BYTE           N03     En4
        BYTE   W06
        BYTE                   Cn4
        BYTE   W06
// 032   ----------------------------------------
        BYTE   PATT
         POIN2  uno_tension_000_4_2
// 033   ----------------------------------------
        BYTE   PATT
         POIN2  uno_tension_000_4_1
// 034   ----------------------------------------
        BYTE           N03     An3   v110
        BYTE           N03     Dn2   v096
        BYTE           N03     Dn1
        BYTE   W06
        BYTE                   Dn3   v110
        BYTE           N06     Dn2   v096
        BYTE           N06     Dn1
        BYTE   W06
        BYTE           N03     Fn3   v110
        BYTE   W06
        BYTE                   Dn3
        BYTE           N06     Dn2   v096
        BYTE           N06     Dn1
        BYTE   W06
        BYTE           N03     An3   v110
        BYTE           N12     Fn1   v096
        BYTE           N12     Fn2
        BYTE   W06
        BYTE           N03     Dn3   v110
        BYTE   W06
        BYTE                   Fn3
        BYTE           N03     Cn1   v096
        BYTE           N03     Cn2
        BYTE   W06
        BYTE                   Dn3   v110
        BYTE           N12     Dn1   v096
        BYTE           N12     Dn2
        BYTE   W06
        BYTE           N03     An3   v110
        BYTE   W06
        BYTE                   Dn3
        BYTE   W06
        BYTE                   Fn3
        BYTE           N12     Cn1   v096
        BYTE           N12     Cn2
        BYTE   W06
        BYTE           N03     Dn3   v110
        BYTE   W06
        BYTE                   An3
        BYTE           N03     Dn1   v096
        BYTE           N03     Dn2
        BYTE   W06
        BYTE                   Dn3   v110
        BYTE           N12     Fn1   v096
        BYTE           N12     Fn2
        BYTE   W06
        BYTE           N03     Fn3   v110
        BYTE   W06
        BYTE                   Dn3
        BYTE           N03     Cn1   v096
        BYTE           N03     Cn2
        BYTE   W06
// 035   ----------------------------------------
        BYTE                   An3   v110
        BYTE           N03     Dn2   v096
        BYTE           N03     Dn1
        BYTE   W06
        BYTE                   Dn3   v110
        BYTE           N06     Dn2   v096
        BYTE           N06     Dn1
        BYTE   W06
        BYTE           N03     Fn3   v110
        BYTE   W06
        BYTE                   Dn3
        BYTE           N06     Dn2   v096
        BYTE           N06     Dn1
        BYTE   W06
        BYTE           N03     An3   v110
        BYTE           N12     Fn1   v096
        BYTE           N12     Fn2
        BYTE   W06
        BYTE           N03     Dn3   v110
        BYTE   W06
        BYTE                   Fn3
        BYTE           N03     Gn1   v096
        BYTE           N03     Gn2
        BYTE   W06
        BYTE           N02     Dn3   v110
        BYTE           N12     Fn1   v096
        BYTE           N12     Fn2
        BYTE   W06
        BYTE           N03     An3   v110
        BYTE   W06
        BYTE                   Dn3
        BYTE   W06
        BYTE                   Fn3
        BYTE           N12     Cn1   v096
        BYTE           N12     Cn2
        BYTE   W03
        BYTE           N03     Dn3   v110
        BYTE   W09
        BYTE                   An3
        BYTE           N03     Dn1   v096
        BYTE           N03     Dn2
        BYTE   W06
        BYTE                   Dn3   v110
        BYTE           N12     Fn1   v096
        BYTE           N12     Fn2
        BYTE   W06
        BYTE           N03     Fn3   v110
        BYTE   W06
        BYTE           N02     Dn3
        BYTE   W06
// 036   ----------------------------------------
uno_tension_000_4_36:
        BYTE           N03     An3   v096
        BYTE           N03     Dn2
        BYTE           N03     Dn1
        BYTE   W06
        BYTE                   Dn3
        BYTE           N06     Dn2
        BYTE           N06     Dn1
        BYTE   W06
        BYTE           N03     Fn3
        BYTE   W06
        BYTE                   Dn3
        BYTE           N06     Dn2
        BYTE           N06     Dn1
        BYTE   W06
        BYTE           N03     An3
        BYTE           N12     Fn1
        BYTE           N12     Fn2
        BYTE   W06
        BYTE           N03     Dn3
        BYTE   W06
        BYTE                   Fn3
        BYTE           N03     Cn1
        BYTE           N03     Cn2
        BYTE   W06
        BYTE                   Dn3
        BYTE           N12     Dn1
        BYTE           N12     Dn2
        BYTE   W06
        BYTE           N03     An3
        BYTE   W06
        BYTE                   Dn3
        BYTE   W06
        BYTE                   Fn3
        BYTE           N12     Cn1
        BYTE           N12     Cn2
        BYTE   W06
        BYTE           N03     Dn3
        BYTE   W06
        BYTE                   An3
        BYTE           N03     Dn1
        BYTE           N03     Dn2
        BYTE   W06
        BYTE                   Dn3
        BYTE           N12     Fn1
        BYTE           N12     Fn2
        BYTE   W06
        BYTE           N03     Fn3
        BYTE   W06
        BYTE                   Dn3
        BYTE           N03     Cn1
        BYTE           N03     Cn2
        BYTE   W06
        BYTE   PEND
// 037   ----------------------------------------
uno_tension_000_4_37:
        BYTE           N03     As3   v096
        BYTE           N03     As1
        BYTE           N03     As0
        BYTE   W06
        BYTE                   Dn3
        BYTE           N06     As1
        BYTE           N06     As0
        BYTE   W06
        BYTE           N03     Fn3
        BYTE   W06
        BYTE                   Dn3
        BYTE           N06     Cn2
        BYTE           N06     Cn1
        BYTE   W06
        BYTE           N03     As3
        BYTE           N12     As0
        BYTE           N12     As1
        BYTE   W06
        BYTE           N03     Dn3
        BYTE   W06
        BYTE                   Fn3
        BYTE           N03     Cn1
        BYTE           N03     Cn2
        BYTE   W06
        BYTE           N02     Dn3
        BYTE           N12     As0
        BYTE           N12     As1
        BYTE   W06
        BYTE           N03     As3
        BYTE   W06
        BYTE                   Dn3
        BYTE   W06
        BYTE                   Fn3
        BYTE           N12     Cn1
        BYTE           N12     Cn2
        BYTE   W03
        BYTE           N03     Dn3
        BYTE   W09
        BYTE                   As3
        BYTE           N03     Cn1
        BYTE           N03     Cn2
        BYTE   W06
        BYTE                   Dn3
        BYTE           N12     As0
        BYTE           N12     As1
        BYTE   W06
        BYTE           N03     Fn3
        BYTE   W06
        BYTE           N02     Dn3
        BYTE   W06
        BYTE   PEND
// 038   ----------------------------------------
        BYTE   PATT
         POIN2  uno_tension_000_4_36
// 039   ----------------------------------------
        BYTE   PATT
         POIN2  uno_tension_000_4_37
// 040   ----------------------------------------
uno_tension_000_4_40:
        BYTE           N03     Gn3   v096
        BYTE           N03     Cn2
        BYTE           N03     Cn1
        BYTE   W06
        BYTE                   Cn3
        BYTE           N06     Cn2
        BYTE           N06     Cn1
        BYTE   W06
        BYTE           N03     En3
        BYTE   W06
        BYTE                   Cn3
        BYTE           N06     Dn2
        BYTE           N06     Dn1
        BYTE   W06
        BYTE           N03     Gn3
        BYTE           N12     Cn1
        BYTE           N12     Cn2
        BYTE   W06
        BYTE           N03     Cn3
        BYTE   W06
        BYTE                   En3
        BYTE           N03     Cn1
        BYTE           N03     Cn2
        BYTE   W06
        BYTE                   Cn3
        BYTE           N12     Cn1
        BYTE           N12     Cn2
        BYTE   W06
        BYTE           N03     Gn3
        BYTE   W06
        BYTE                   Cn3
        BYTE   W06
        BYTE                   En3
        BYTE           N12     Dn1
        BYTE           N12     Dn2
        BYTE   W06
        BYTE           N03     Cn3
        BYTE   W06
        BYTE                   Gn3
        BYTE           N03     Cn1
        BYTE           N03     Cn2
        BYTE   W06
        BYTE                   Cn3
        BYTE           N12     Cn1
        BYTE           N12     Cn2
        BYTE   W06
        BYTE           N03     En3
        BYTE   W06
        BYTE                   Cn3
        BYTE           N03     Cn1
        BYTE           N03     Cn2
        BYTE   W06
        BYTE   PEND
// 041   ----------------------------------------
uno_tension_000_4_41:
        BYTE           N03     Fn3   v096
        BYTE           N03     As1
        BYTE           N03     As0
        BYTE   W06
        BYTE                   As2
        BYTE           N06     As1
        BYTE           N06     As0
        BYTE   W06
        BYTE           N03     Dn3
        BYTE   W06
        BYTE                   As2
        BYTE           N06     Cn2
        BYTE           N06     Cn1
        BYTE   W06
        BYTE           N03     Fn3
        BYTE           N12     As0
        BYTE           N12     As1
        BYTE   W06
        BYTE           N03     As2
        BYTE   W06
        BYTE                   Dn3
        BYTE           N03     Cn1
        BYTE           N03     Cn2
        BYTE   W06
        BYTE           N02     As2
        BYTE           N12     As0
        BYTE           N12     As1
        BYTE   W06
        BYTE           N03     An3
        BYTE   W06
        BYTE                   As2
        BYTE   W06
        BYTE                   Dn3
        BYTE           N12     Cn1
        BYTE           N12     Cn2
        BYTE   W06
        BYTE           N03     As2
        BYTE   W06
        BYTE                   Fn3
        BYTE           N03     Cn1
        BYTE           N03     Cn2
        BYTE   W06
        BYTE                   As2
        BYTE           N12     As0
        BYTE           N12     As1
        BYTE   W06
        BYTE           N03     Dn3
        BYTE   W06
        BYTE           N02     As2
        BYTE   W06
        BYTE   PEND
// 042   ----------------------------------------
        BYTE   PATT
         POIN2  uno_tension_000_4_40
// 043   ----------------------------------------
        BYTE   PATT
         POIN2  uno_tension_000_4_41
// 044   ----------------------------------------
        BYTE   PATT
         POIN2  uno_tension_000_4_2
// 045   ----------------------------------------
        BYTE   PATT
         POIN2  uno_tension_000_4_1
// 046   ----------------------------------------
        BYTE   PATT
         POIN2  uno_tension_000_4_2
// 047   ----------------------------------------
        BYTE   PATT
         POIN2  uno_tension_000_4_1
// 048   ----------------------------------------
        BYTE   GoTo
         POIN2  uno_tension_000_4_LOOP
        BYTE   FINE

//****************** Track 5 (Midi-Chn.5) ******************//

uno_tension_000_5:
        BYTE   KEYSH   uno_tension_000_key+0
// 000   ----------------------------------------
uno_tension_000_5_LOOP:
        BYTE           VOICE   56
        BYTE           VOL     51
        BYTE           PAN     c_v+19
        BYTE   W96
// 001   ----------------------------------------
        BYTE   W96
// 002   ----------------------------------------
        BYTE   W96
// 003   ----------------------------------------
        BYTE   W96
// 004   ----------------------------------------
        BYTE   W96
// 005   ----------------------------------------
        BYTE   W96
// 006   ----------------------------------------
        BYTE   W96
// 007   ----------------------------------------
        BYTE   W96
// 008   ----------------------------------------
        BYTE   W96
// 009   ----------------------------------------
        BYTE   W96
// 010   ----------------------------------------
        BYTE   W96
// 011   ----------------------------------------
        BYTE   W96
// 012   ----------------------------------------
        BYTE   W96
// 013   ----------------------------------------
        BYTE   W96
// 014   ----------------------------------------
        BYTE   W96
// 015   ----------------------------------------
        BYTE   W96
// 016   ----------------------------------------
        BYTE   W96
// 017   ----------------------------------------
        BYTE   W96
// 018   ----------------------------------------
        BYTE   W96
// 019   ----------------------------------------
        BYTE   W96
// 020   ----------------------------------------
uno_tension_000_5_20:
        BYTE           N12     Dn3   v081
        BYTE   W12
        BYTE                   En3
        BYTE   W12
        BYTE           N24     Fn3
        BYTE   W36
        BYTE           N12     En3
        BYTE   W12
        BYTE                   Dn3
        BYTE   W12
        BYTE           N60     An3
        BYTE   W12
        BYTE   PEND
// 021   ----------------------------------------
        BYTE   W72
        BYTE           N12     Gn3
        BYTE   W12
        BYTE                   Fn3
        BYTE   W12
// 022   ----------------------------------------
        BYTE                   En3
        BYTE   W12
        BYTE                   Fn3
        BYTE   W12
        BYTE           N24     Gn3
        BYTE   W48
        BYTE           N12     Fn3
        BYTE   W12
        BYTE                   En3
        BYTE   W12
// 023   ----------------------------------------
        BYTE                   Dn3
        BYTE   W12
        BYTE                   En3
        BYTE   W12
        BYTE           N24     Fn3
        BYTE   W72
// 024   ----------------------------------------
        BYTE   PATT
         POIN2  uno_tension_000_5_20
// 025   ----------------------------------------
        BYTE   W72
        BYTE           N12     An3   v081
        BYTE   W12
        BYTE                   Cn4
        BYTE   W12
// 026   ----------------------------------------
        BYTE                   Gn3
        BYTE   W12
        BYTE                   Fn3
        BYTE   W12
        BYTE           N24     En3
        BYTE   W48
        BYTE           N12     Fn3
        BYTE   W12
        BYTE                   En3
        BYTE   W12
// 027   ----------------------------------------
        BYTE                   Dn3
        BYTE   W12
        BYTE                   En3
        BYTE   W12
        BYTE           N24     Fn3
        BYTE   W48
        BYTE           N12     Cn3
        BYTE   W12
        BYTE                   As2
        BYTE   W12
// 028   ----------------------------------------
        BYTE   W96
// 029   ----------------------------------------
        BYTE   W96
// 030   ----------------------------------------
        BYTE   W96
// 031   ----------------------------------------
        BYTE   W96
// 032   ----------------------------------------
        BYTE   W96
// 033   ----------------------------------------
        BYTE   W96
// 034   ----------------------------------------
        BYTE   W96
// 035   ----------------------------------------
        BYTE   W96
// 036   ----------------------------------------
        BYTE   W96
// 037   ----------------------------------------
        BYTE   W96
// 038   ----------------------------------------
        BYTE   W96
// 039   ----------------------------------------
        BYTE   W96
// 040   ----------------------------------------
        BYTE   W96
// 041   ----------------------------------------
        BYTE   W96
// 042   ----------------------------------------
        BYTE   W96
// 043   ----------------------------------------
        BYTE   W96
// 044   ----------------------------------------
        BYTE   W96
// 045   ----------------------------------------
        BYTE   W96
// 046   ----------------------------------------
        BYTE                   Dn3   v127
        BYTE   W12
        BYTE                   En3
        BYTE   W12
        BYTE           N36     Fn3
        BYTE   W60
        BYTE           N12     Cn3
        BYTE   W12
// 047   ----------------------------------------
        BYTE                   Dn3
        BYTE   W12
        BYTE                   En3
        BYTE   W12
        BYTE                   Fn3
        BYTE   W12
        BYTE           N36     Dn3
        BYTE   W60
// 048   ----------------------------------------
        BYTE   GoTo
         POIN2  uno_tension_000_5_LOOP
        BYTE   FINE

//****************** Track 6 (Midi-Chn.6) ******************//

uno_tension_000_6:
        BYTE   KEYSH   uno_tension_000_key+0
// 000   ----------------------------------------
uno_tension_000_6_LOOP:
        BYTE           VOICE   81
        BYTE           VOL     29
        BYTE           N12     Dn3   v127
        BYTE   W24
        BYTE                   Dn3
        BYTE   W12
        BYTE                   Dn3
        BYTE   W24
        BYTE                   Dn3
        BYTE   W24
        BYTE                   Cn3
        BYTE   W12
// 001   ----------------------------------------
uno_tension_000_6_1:
        BYTE           N12     Dn3   v127
        BYTE   W24
        BYTE                   Dn3
        BYTE   W12
        BYTE                   Dn3
        BYTE   W24
        BYTE                   Dn3
        BYTE   W24
        BYTE                   Cn3
        BYTE   W12
        BYTE   PEND
// 002   ----------------------------------------
        BYTE   PATT
         POIN2  uno_tension_000_6_1
// 003   ----------------------------------------
        BYTE   PATT
         POIN2  uno_tension_000_6_1
// 004   ----------------------------------------
        BYTE   PATT
         POIN2  uno_tension_000_6_1
// 005   ----------------------------------------
uno_tension_000_6_5:
        BYTE           N12     Fn3   v127
        BYTE   W24
        BYTE                   Fn3
        BYTE   W12
        BYTE                   Fn3
        BYTE   W24
        BYTE                   Fn3
        BYTE   W24
        BYTE                   Fn3
        BYTE   W12
        BYTE   PEND
// 006   ----------------------------------------
uno_tension_000_6_6:
        BYTE           N12     Cn3   v127
        BYTE   W24
        BYTE                   Cn3
        BYTE   W12
        BYTE                   Cn3
        BYTE   W24
        BYTE                   Cn3
        BYTE   W24
        BYTE                   Cn3
        BYTE   W12
        BYTE   PEND
// 007   ----------------------------------------
uno_tension_000_6_7:
        BYTE           N12     As2   v127
        BYTE   W24
        BYTE                   As2
        BYTE   W12
        BYTE                   As2
        BYTE   W24
        BYTE                   Cn3
        BYTE   W24
        BYTE                   Cn3
        BYTE   W12
        BYTE   PEND
// 008   ----------------------------------------
        BYTE   PATT
         POIN2  uno_tension_000_6_1
// 009   ----------------------------------------
        BYTE   PATT
         POIN2  uno_tension_000_6_5
// 010   ----------------------------------------
        BYTE   PATT
         POIN2  uno_tension_000_6_6
// 011   ----------------------------------------
        BYTE   PATT
         POIN2  uno_tension_000_6_7
// 012   ----------------------------------------
uno_tension_000_6_12:
        BYTE           N12     An2   v127
        BYTE   W24
        BYTE                   An2
        BYTE   W12
        BYTE                   An2
        BYTE   W24
        BYTE                   An2
        BYTE   W24
        BYTE                   An2
        BYTE   W12
        BYTE   PEND
// 013   ----------------------------------------
uno_tension_000_6_13:
        BYTE           N12     As2   v127
        BYTE   W24
        BYTE                   As2
        BYTE   W12
        BYTE                   As2
        BYTE   W24
        BYTE                   As2
        BYTE   W24
        BYTE                   As2
        BYTE   W12
        BYTE   PEND
// 014   ----------------------------------------
        BYTE   PATT
         POIN2  uno_tension_000_6_6
// 015   ----------------------------------------
        BYTE   PATT
         POIN2  uno_tension_000_6_7
// 016   ----------------------------------------
        BYTE   PATT
         POIN2  uno_tension_000_6_1
// 017   ----------------------------------------
        BYTE   PATT
         POIN2  uno_tension_000_6_1
// 018   ----------------------------------------
        BYTE   PATT
         POIN2  uno_tension_000_6_1
// 019   ----------------------------------------
        BYTE   PATT
         POIN2  uno_tension_000_6_1
// 020   ----------------------------------------
        BYTE   PATT
         POIN2  uno_tension_000_6_1
// 021   ----------------------------------------
        BYTE   PATT
         POIN2  uno_tension_000_6_5
// 022   ----------------------------------------
        BYTE   PATT
         POIN2  uno_tension_000_6_6
// 023   ----------------------------------------
        BYTE   PATT
         POIN2  uno_tension_000_6_7
// 024   ----------------------------------------
        BYTE   PATT
         POIN2  uno_tension_000_6_1
// 025   ----------------------------------------
        BYTE   PATT
         POIN2  uno_tension_000_6_5
// 026   ----------------------------------------
        BYTE   PATT
         POIN2  uno_tension_000_6_6
// 027   ----------------------------------------
        BYTE   PATT
         POIN2  uno_tension_000_6_7
// 028   ----------------------------------------
        BYTE   PATT
         POIN2  uno_tension_000_6_12
// 029   ----------------------------------------
        BYTE   PATT
         POIN2  uno_tension_000_6_13
// 030   ----------------------------------------
        BYTE   PATT
         POIN2  uno_tension_000_6_6
// 031   ----------------------------------------
        BYTE   PATT
         POIN2  uno_tension_000_6_7
// 032   ----------------------------------------
        BYTE   PATT
         POIN2  uno_tension_000_6_1
// 033   ----------------------------------------
        BYTE   PATT
         POIN2  uno_tension_000_6_1
// 034   ----------------------------------------
        BYTE   PATT
         POIN2  uno_tension_000_6_1
// 035   ----------------------------------------
        BYTE   PATT
         POIN2  uno_tension_000_6_1
// 036   ----------------------------------------
        BYTE   PATT
         POIN2  uno_tension_000_6_1
// 037   ----------------------------------------
        BYTE   PATT
         POIN2  uno_tension_000_6_13
// 038   ----------------------------------------
        BYTE   PATT
         POIN2  uno_tension_000_6_1
// 039   ----------------------------------------
        BYTE   PATT
         POIN2  uno_tension_000_6_13
// 040   ----------------------------------------
        BYTE   PATT
         POIN2  uno_tension_000_6_6
// 041   ----------------------------------------
        BYTE   PATT
         POIN2  uno_tension_000_6_13
// 042   ----------------------------------------
        BYTE   PATT
         POIN2  uno_tension_000_6_6
// 043   ----------------------------------------
        BYTE   PATT
         POIN2  uno_tension_000_6_13
// 044   ----------------------------------------
        BYTE   PATT
         POIN2  uno_tension_000_6_1
// 045   ----------------------------------------
        BYTE   PATT
         POIN2  uno_tension_000_6_1
// 046   ----------------------------------------
        BYTE   PATT
         POIN2  uno_tension_000_6_1
// 047   ----------------------------------------
        BYTE   PATT
         POIN2  uno_tension_000_6_1
// 048   ----------------------------------------
        BYTE   GoTo
         POIN2  uno_tension_000_6_LOOP
        BYTE   FINE

//****************** Track 7 (Midi-Chn.7) ******************//

uno_tension_000_7:
        BYTE   KEYSH   uno_tension_000_key+0
// 000   ----------------------------------------
uno_tension_000_7_LOOP:
        BYTE           VOICE   122
        BYTE           VOL     43
        BYTE           N06     Gs1   v076
        BYTE           N06     Cn1   v127
        BYTE   W06
        BYTE                   Cn1
        BYTE           N06     Gs1   v068
        BYTE   W06
        BYTE                   Gs1
        BYTE   W06
        BYTE                   Cn1   v127
        BYTE           N06     Gs1   v068
        BYTE   W06
        BYTE                   Fn1   v127
        BYTE           N06     Gs1   v068
        BYTE   W06
        BYTE                   Gs1
        BYTE   W06
        BYTE                   Gs1   v076
        BYTE   W06
        BYTE                   Cn1   v127
        BYTE           N06     Gs1   v068
        BYTE   W06
        BYTE                   Gs1
        BYTE   W06
        BYTE                   Gs1
        BYTE   W06
        BYTE                   Cn1   v127
        BYTE           N06     Gs1   v068
        BYTE   W06
        BYTE                   Gs1
        BYTE   W06
        BYTE                   Fn1   v127
        BYTE           N06     Gs1   v076
        BYTE   W06
        BYTE                   Cn1   v127
        BYTE           N06     Gs1   v068
        BYTE   W06
        BYTE                   Gs1
        BYTE   W06
        BYTE                   Gs1
        BYTE   W06
// 001   ----------------------------------------
        BYTE                   Gs1   v076
        BYTE   W06
        BYTE                   Cn1   v127
        BYTE           N06     Gs1   v068
        BYTE   W06
        BYTE                   Gs1
        BYTE   W06
        BYTE                   Cn1   v127
        BYTE           N06     Gs1   v068
        BYTE   W06
        BYTE                   Fn1   v127
        BYTE           N06     Gs1   v068
        BYTE   W06
        BYTE                   Gs1
        BYTE   W06
        BYTE                   Gs1   v076
        BYTE   W06
        BYTE                   Gs1   v068
        BYTE   W06
        BYTE                   Gs1
        BYTE   W06
        BYTE                   Fn1   v127
        BYTE           N06     Gs1   v068
        BYTE   W06
        BYTE                   Cn1   v127
        BYTE           N06     Gs1   v068
        BYTE   W06
        BYTE                   Gs1
        BYTE   W06
        BYTE                   Fn1   v127
        BYTE           N06     Gs1   v076
        BYTE   W06
        BYTE                   Gs1   v068
        BYTE           N06     Cn1   v127
        BYTE   W06
        BYTE                   Gs1   v068
        BYTE   W06
        BYTE                   Gs1
        BYTE   W06
// 002   ----------------------------------------
        BYTE                   Gs1   v076
        BYTE           N06     Cn1   v127
        BYTE   W06
        BYTE                   Gs1   v068
        BYTE           N06     Cn1   v127
        BYTE   W06
        BYTE                   Gs1   v068
        BYTE   W06
        BYTE                   Cn1   v127
        BYTE           N06     Gs1   v068
        BYTE   W06
        BYTE                   Fn1   v127
        BYTE           N06     Gs1   v068
        BYTE   W06
        BYTE                   Gs1
        BYTE   W06
        BYTE                   Gs1   v076
        BYTE   W06
        BYTE                   Gs1   v068
        BYTE           N06     Cn1   v127
        BYTE   W06
        BYTE                   Gs1   v068
        BYTE   W06
        BYTE                   Gs1
        BYTE   W06
        BYTE                   Cn1   v127
        BYTE           N06     Gs1   v068
        BYTE   W06
        BYTE                   Gs1
        BYTE   W06
        BYTE                   Fn1   v127
        BYTE           N06     Gs1   v076
        BYTE   W06
        BYTE                   Gs1   v068
        BYTE           N06     Cn1   v127
        BYTE   W06
        BYTE                   Gs1   v068
        BYTE   W06
        BYTE                   Gs1
        BYTE   W06
// 003   ----------------------------------------
uno_tension_000_7_3:
        BYTE           N06     Gs1   v076
        BYTE   W06
        BYTE                   Gs1   v068
        BYTE           N06     Cn1   v127
        BYTE   W06
        BYTE                   Gs1   v068
        BYTE   W06
        BYTE                   Gs1
        BYTE           N06     Cn1   v127
        BYTE   W06
        BYTE                   Fn1
        BYTE           N06     Gs1   v068
        BYTE   W06
        BYTE                   Gs1
        BYTE   W06
        BYTE                   Gs1   v076
        BYTE   W06
        BYTE                   Gs1   v068
        BYTE   W06
        BYTE                   Gs1
        BYTE   W06
        BYTE                   Fn1   v127
        BYTE           N06     Gs1   v068
        BYTE   W06
        BYTE                   Gs1
        BYTE           N06     Cn1   v127
        BYTE   W06
        BYTE                   Gs1   v068
        BYTE   W06
        BYTE                   Fn1   v127
        BYTE           N06     Gs1   v076
        BYTE   W06
        BYTE                   Gs1   v068
        BYTE           N06     Cn1   v127
        BYTE   W06
        BYTE                   Gs1   v068
        BYTE   W06
        BYTE                   Gs1
        BYTE   W06
        BYTE   PEND
// 004   ----------------------------------------
        BYTE                   Gs1   v076
        BYTE           N06     Cn1   v127
        BYTE   W06
        BYTE                   Gs1   v068
        BYTE           N06     Cn1   v127
        BYTE   W06
        BYTE                   Gs1   v068
        BYTE   W06
        BYTE                   Gs1
        BYTE           N06     Cn1   v127
        BYTE   W06
        BYTE                   Fn1
        BYTE           N06     Gs1   v068
        BYTE   W06
        BYTE                   Gs1
        BYTE   W06
        BYTE                   Gs1   v076
        BYTE   W06
        BYTE                   Gs1   v068
        BYTE           N06     Cn1   v127
        BYTE   W06
        BYTE                   Gs1   v068
        BYTE   W06
        BYTE                   Gs1
        BYTE   W06
        BYTE                   Cn1   v127
        BYTE           N06     Gs1   v068
        BYTE   W06
        BYTE                   Gs1
        BYTE   W06
        BYTE                   Fn1   v127
        BYTE           N06     Gs1   v076
        BYTE   W06
        BYTE                   Gs1   v068
        BYTE           N06     Cn1   v127
        BYTE   W06
        BYTE                   Gs1   v068
        BYTE   W06
        BYTE                   Gs1
        BYTE   W06
// 005   ----------------------------------------
        BYTE   PATT
         POIN2  uno_tension_000_7_3
// 006   ----------------------------------------
        BYTE           N06     Cn1   v127
        BYTE           N06     Gs1   v076
        BYTE   W06
        BYTE                   Gs1   v068
        BYTE           N06     Cn1   v127
        BYTE   W06
        BYTE                   Gs1   v068
        BYTE   W06
        BYTE                   Gs1
        BYTE           N06     Cn1   v127
        BYTE   W06
        BYTE                   Fn1
        BYTE           N06     Gs1   v068
        BYTE   W06
        BYTE                   Gs1
        BYTE   W06
        BYTE                   Gs1   v076
        BYTE   W06
        BYTE                   Cn1   v127
        BYTE           N06     Gs1   v068
        BYTE   W06
        BYTE                   Gs1
        BYTE   W06
        BYTE                   Gs1
        BYTE   W06
        BYTE                   Cn1   v127
        BYTE           N06     Gs1   v068
        BYTE   W06
        BYTE                   Gs1
        BYTE   W06
        BYTE                   Fn1   v127
        BYTE           N06     Gs1   v076
        BYTE   W06
        BYTE                   Gs1   v068
        BYTE           N06     Cn1   v127
        BYTE   W06
        BYTE                   Gs1   v068
        BYTE   W06
        BYTE                   Gs1
        BYTE   W06
// 007   ----------------------------------------
uno_tension_000_7_7:
        BYTE           N06     Gs1   v076
        BYTE   W06
        BYTE                   Gs1   v068
        BYTE           N06     Cn1   v127
        BYTE   W06
        BYTE                   Gs1   v068
        BYTE   W06
        BYTE                   Cn1   v127
        BYTE           N06     Gs1   v068
        BYTE   W06
        BYTE                   Fn1   v127
        BYTE           N06     Gs1   v068
        BYTE   W06
        BYTE                   Gs1
        BYTE   W06
        BYTE                   Gs1   v076
        BYTE   W06
        BYTE                   Gs1   v068
        BYTE   W06
        BYTE                   Gs1
        BYTE   W06
        BYTE                   Fn1   v127
        BYTE           N06     Gs1   v068
        BYTE   W06
        BYTE                   Cn1   v127
        BYTE           N06     Gs1   v068
        BYTE   W06
        BYTE                   Gs1
        BYTE   W06
        BYTE                   Fn1   v127
        BYTE           N06     Gs1   v076
        BYTE   W06
        BYTE                   Gs1   v068
        BYTE           N06     Cn1   v127
        BYTE   W06
        BYTE                   Gs1   v068
        BYTE   W06
        BYTE                   Gs1
        BYTE   W06
        BYTE   PEND
// 008   ----------------------------------------
uno_tension_000_7_8:
        BYTE           N06     Cn1   v127
        BYTE           N06     Gs1   v076
        BYTE   W06
        BYTE                   Gs1   v068
        BYTE           N06     Cn1   v127
        BYTE   W06
        BYTE                   Gs1   v068
        BYTE   W06
        BYTE                   Cn1   v127
        BYTE           N06     Gs1   v068
        BYTE   W06
        BYTE                   Fn1   v127
        BYTE           N06     Gs1   v068
        BYTE   W06
        BYTE                   Gs1
        BYTE   W06
        BYTE                   Gs1   v076
        BYTE   W06
        BYTE                   Cn1   v127
        BYTE           N06     Gs1   v068
        BYTE   W06
        BYTE                   Gs1
        BYTE   W06
        BYTE                   Gs1
        BYTE   W06
        BYTE                   Gs1
        BYTE           N06     Cn1   v127
        BYTE   W06
        BYTE                   Gs1   v068
        BYTE   W06
        BYTE                   Fn1   v127
        BYTE           N06     Gs1   v076
        BYTE   W06
        BYTE                   Cn1   v127
        BYTE           N06     Gs1   v068
        BYTE   W06
        BYTE                   Gs1
        BYTE   W06
        BYTE                   Gs1
        BYTE   W06
        BYTE   PEND
// 009   ----------------------------------------
        BYTE   PATT
         POIN2  uno_tension_000_7_3
// 010   ----------------------------------------
        BYTE           N06     Gs1   v076
        BYTE           N06     Cn1   v127
        BYTE   W06
        BYTE                   Gs1   v068
        BYTE           N06     Cn1   v127
        BYTE   W06
        BYTE                   Gs1   v068
        BYTE   W06
        BYTE                   Gs1
        BYTE           N06     Cn1   v127
        BYTE   W06
        BYTE                   Fn1
        BYTE           N06     Gs1   v068
        BYTE   W06
        BYTE                   Gs1
        BYTE   W06
        BYTE                   Gs1   v076
        BYTE   W06
        BYTE                   Cn1   v127
        BYTE           N06     Gs1   v068
        BYTE   W06
        BYTE                   Gs1
        BYTE   W06
        BYTE                   Gs1
        BYTE   W06
        BYTE                   Cn1   v127
        BYTE           N06     Gs1   v068
        BYTE   W06
        BYTE                   Gs1
        BYTE   W06
        BYTE                   Fn1   v127
        BYTE           N06     Gs1   v076
        BYTE   W06
        BYTE                   Cn1   v127
        BYTE           N06     Gs1   v068
        BYTE   W06
        BYTE                   Gs1
        BYTE   W06
        BYTE                   Gs1
        BYTE   W06
// 011   ----------------------------------------
        BYTE                   Gs1   v076
        BYTE   W06
        BYTE                   Cn1   v127
        BYTE           N06     Gs1   v068
        BYTE   W06
        BYTE                   Gs1
        BYTE   W06
        BYTE                   Gs1
        BYTE           N06     Cn1   v127
        BYTE   W06
        BYTE                   Fn1
        BYTE           N06     Gs1   v068
        BYTE   W06
        BYTE                   Gs1
        BYTE   W06
        BYTE                   Gs1   v076
        BYTE   W06
        BYTE                   Gs1   v068
        BYTE   W06
        BYTE                   Gs1
        BYTE   W06
        BYTE                   Fn1   v127
        BYTE           N06     Gs1   v068
        BYTE   W06
        BYTE                   Cn1   v127
        BYTE           N06     Gs1   v068
        BYTE   W06
        BYTE                   Gs1
        BYTE   W06
        BYTE                   Fn1   v127
        BYTE           N06     Gs1   v076
        BYTE   W06
        BYTE                   Gs1   v068
        BYTE           N06     Cn1   v127
        BYTE   W06
        BYTE                   Gs1   v068
        BYTE   W06
        BYTE                   Gs1
        BYTE   W06
// 012   ----------------------------------------
        BYTE                   Gs1   v076
        BYTE           N06     Cn1   v127
        BYTE   W06
        BYTE                   Cn1
        BYTE           N06     Gs1   v068
        BYTE   W06
        BYTE                   Gs1
        BYTE   W06
        BYTE                   Cn1   v127
        BYTE           N06     Gs1   v068
        BYTE   W06
        BYTE                   Fn1   v127
        BYTE           N06     Gs1   v068
        BYTE   W06
        BYTE                   Gs1
        BYTE   W06
        BYTE                   Gs1   v076
        BYTE   W06
        BYTE                   Cn1   v127
        BYTE           N06     Gs1   v068
        BYTE   W06
        BYTE                   Gs1
        BYTE   W06
        BYTE                   Gs1
        BYTE   W06
        BYTE                   Gs1
        BYTE           N06     Cn1   v127
        BYTE   W06
        BYTE                   Gs1   v068
        BYTE   W06
        BYTE                   Fn1   v127
        BYTE           N06     Gs1   v076
        BYTE   W06
        BYTE                   Gs1   v068
        BYTE           N06     Cn1   v127
        BYTE   W06
        BYTE                   Gs1   v068
        BYTE   W06
        BYTE                   Gs1
        BYTE   W06
// 013   ----------------------------------------
uno_tension_000_7_13:
        BYTE           N06     Gs1   v076
        BYTE   W06
        BYTE                   Cn1   v127
        BYTE           N06     Gs1   v068
        BYTE   W06
        BYTE                   Gs1
        BYTE   W06
        BYTE                   Gs1
        BYTE           N06     Cn1   v127
        BYTE   W06
        BYTE                   Fn1
        BYTE           N06     Gs1   v068
        BYTE   W06
        BYTE                   Gs1
        BYTE   W06
        BYTE                   Gs1   v076
        BYTE   W06
        BYTE                   Gs1   v068
        BYTE   W06
        BYTE                   Gs1
        BYTE   W06
        BYTE                   Fn1   v127
        BYTE           N06     Gs1   v068
        BYTE   W06
        BYTE                   Cn1   v127
        BYTE           N06     Gs1   v068
        BYTE   W06
        BYTE                   Gs1
        BYTE   W06
        BYTE                   Fn1   v127
        BYTE           N06     Gs1   v076
        BYTE   W06
        BYTE                   Cn1   v127
        BYTE           N06     Gs1   v068
        BYTE   W06
        BYTE                   Gs1
        BYTE   W06
        BYTE                   Gs1
        BYTE   W06
        BYTE   PEND
// 014   ----------------------------------------
        BYTE                   Gs1   v076
        BYTE           N06     Cn1   v127
        BYTE   W06
        BYTE                   Cn1
        BYTE           N06     Gs1   v068
        BYTE   W06
        BYTE                   Gs1
        BYTE   W06
        BYTE                   Gs1
        BYTE           N06     Cn1   v127
        BYTE   W06
        BYTE                   Fn1
        BYTE           N06     Gs1   v068
        BYTE   W06
        BYTE                   Gs1
        BYTE   W06
        BYTE                   Gs1   v076
        BYTE   W06
        BYTE                   Gs1   v068
        BYTE           N06     Cn1   v127
        BYTE   W06
        BYTE                   Gs1   v068
        BYTE   W06
        BYTE                   Gs1
        BYTE   W06
        BYTE                   Gs1
        BYTE           N06     Cn1   v127
        BYTE   W06
        BYTE                   Gs1   v068
        BYTE   W06
        BYTE                   Fn1   v127
        BYTE           N06     Gs1   v076
        BYTE   W06
        BYTE                   Gs1   v068
        BYTE           N06     Cn1   v127
        BYTE   W06
        BYTE                   Gs1   v068
        BYTE   W06
        BYTE                   Gs1
        BYTE   W06
// 015   ----------------------------------------
uno_tension_000_7_15:
        BYTE           N06     Gs1   v076
        BYTE   W06
        BYTE                   Cn1   v127
        BYTE           N06     Gs1   v068
        BYTE   W06
        BYTE                   Gs1
        BYTE   W06
        BYTE                   Gs1
        BYTE           N06     Cn1   v127
        BYTE   W06
        BYTE                   Fn1
        BYTE           N06     Gs1   v068
        BYTE   W06
        BYTE                   Gs1
        BYTE   W06
        BYTE                   Gs1   v076
        BYTE   W06
        BYTE                   Gs1   v068
        BYTE   W06
        BYTE                   Gs1
        BYTE   W06
        BYTE                   Fn1   v127
        BYTE           N06     Gs1   v068
        BYTE   W06
        BYTE                   Gs1
        BYTE           N06     Cn1   v127
        BYTE   W06
        BYTE                   Gs1   v068
        BYTE   W06
        BYTE                   Fn1   v127
        BYTE           N06     Gs1   v076
        BYTE   W06
        BYTE                   Cn1   v127
        BYTE           N06     Gs1   v068
        BYTE   W06
        BYTE                   Gs1
        BYTE   W06
        BYTE                   Gs1
        BYTE   W06
        BYTE   PEND
// 016   ----------------------------------------
uno_tension_000_7_16:
        BYTE           N06     Gs1   v076
        BYTE           N06     Cn1   v127
        BYTE   W06
        BYTE                   Cn1
        BYTE           N06     Gs1   v068
        BYTE   W06
        BYTE                   Gs1
        BYTE   W06
        BYTE                   Cn1   v127
        BYTE           N06     Gs1   v068
        BYTE   W06
        BYTE                   Fn1   v127
        BYTE           N06     Gs1   v068
        BYTE   W06
        BYTE                   Gs1
        BYTE   W06
        BYTE                   Gs1   v076
        BYTE   W06
        BYTE                   Gs1   v068
        BYTE           N06     Cn1   v127
        BYTE   W06
        BYTE                   Gs1   v068
        BYTE   W06
        BYTE                   Gs1
        BYTE   W06
        BYTE                   Cn1   v127
        BYTE           N06     Gs1   v068
        BYTE   W06
        BYTE                   Gs1
        BYTE   W06
        BYTE                   Fn1   v127
        BYTE           N06     Gs1   v076
        BYTE   W06
        BYTE                   Cn1   v127
        BYTE           N06     Gs1   v068
        BYTE   W06
        BYTE                   Gs1
        BYTE   W06
        BYTE                   Gs1
        BYTE   W06
        BYTE   PEND
// 017   ----------------------------------------
uno_tension_000_7_17:
        BYTE           N06     Gs1   v076
        BYTE   W06
        BYTE                   Cn1   v127
        BYTE           N06     Gs1   v068
        BYTE   W06
        BYTE                   Gs1
        BYTE   W06
        BYTE                   Gs1
        BYTE           N06     Cn1   v127
        BYTE   W06
        BYTE                   Fn1
        BYTE           N06     Gs1   v068
        BYTE   W06
        BYTE                   Gs1
        BYTE   W06
        BYTE                   Gs1   v076
        BYTE   W06
        BYTE                   Gs1   v068
        BYTE   W06
        BYTE                   Gs1
        BYTE   W06
        BYTE                   Fn1   v127
        BYTE           N06     Gs1   v068
        BYTE   W06
        BYTE                   Gs1
        BYTE           N06     Cn1   v127
        BYTE   W06
        BYTE                   Gs1   v068
        BYTE   W06
        BYTE                   Fn1   v127
        BYTE           N06     Gs1   v076
        BYTE   W06
        BYTE                   Gs1   v068
        BYTE           N06     Cn1   v127
        BYTE   W06
        BYTE                   Gs1   v068
        BYTE   W06
        BYTE                   Gs1
        BYTE   W06
        BYTE   PEND
// 018   ----------------------------------------
uno_tension_000_7_18:
        BYTE           N06     Cn1   v127
        BYTE           N06     Gs1   v076
        BYTE   W06
        BYTE                   Gs1   v068
        BYTE           N06     Cn1   v127
        BYTE   W06
        BYTE                   Gs1   v068
        BYTE   W06
        BYTE                   Gs1
        BYTE           N06     Cn1   v127
        BYTE   W06
        BYTE                   Fn1
        BYTE           N06     Gs1   v068
        BYTE   W06
        BYTE                   Gs1
        BYTE   W06
        BYTE                   Gs1   v076
        BYTE   W06
        BYTE                   Gs1   v068
        BYTE           N06     Cn1   v127
        BYTE   W06
        BYTE                   Gs1   v068
        BYTE   W06
        BYTE                   Gs1
        BYTE   W06
        BYTE                   Gs1
        BYTE           N06     Cn1   v127
        BYTE   W06
        BYTE                   Gs1   v068
        BYTE   W06
        BYTE                   Fn1   v127
        BYTE           N06     Gs1   v076
        BYTE   W06
        BYTE                   Cn1   v127
        BYTE           N06     Gs1   v068
        BYTE   W06
        BYTE                   Gs1
        BYTE   W06
        BYTE                   Gs1
        BYTE   W06
        BYTE   PEND
// 019   ----------------------------------------
uno_tension_000_7_19:
        BYTE           N06     Gs1   v076
        BYTE   W06
        BYTE                   Gs1   v068
        BYTE           N06     Cn1   v127
        BYTE   W06
        BYTE                   Gs1   v068
        BYTE   W06
        BYTE                   Gs1
        BYTE           N06     Cn1   v127
        BYTE   W06
        BYTE                   Fn1
        BYTE           N06     Gs1   v068
        BYTE   W06
        BYTE                   Gs1
        BYTE   W06
        BYTE                   Gs1   v076
        BYTE   W06
        BYTE                   Gs1   v068
        BYTE   W06
        BYTE                   Gs1
        BYTE   W06
        BYTE                   Fn1   v127
        BYTE           N06     Gs1   v068
        BYTE   W06
        BYTE                   Gs1
        BYTE           N06     Cn1   v127
        BYTE   W06
        BYTE                   Gs1   v068
        BYTE   W06
        BYTE                   Fn1   v127
        BYTE           N06     Gs1   v076
        BYTE   W06
        BYTE                   Cn1   v127
        BYTE           N06     Gs1   v068
        BYTE   W06
        BYTE                   Gs1
        BYTE   W06
        BYTE                   Gs1
        BYTE   W06
        BYTE   PEND
// 020   ----------------------------------------
        BYTE                   Gs1   v076
        BYTE           N06     Cn1   v127
        BYTE   W06
        BYTE                   Gs1   v068
        BYTE           N06     Cn1   v127
        BYTE   W06
        BYTE                   Gs1   v068
        BYTE   W06
        BYTE                   Cn1   v127
        BYTE           N06     Gs1   v068
        BYTE   W06
        BYTE                   Fn1   v127
        BYTE           N06     Gs1   v068
        BYTE   W06
        BYTE                   Gs1
        BYTE   W06
        BYTE                   Gs1   v076
        BYTE   W06
        BYTE                   Cn1   v127
        BYTE           N06     Gs1   v068
        BYTE   W06
        BYTE                   Gs1
        BYTE   W06
        BYTE                   Gs1
        BYTE   W06
        BYTE                   Gs1
        BYTE           N06     Cn1   v127
        BYTE   W06
        BYTE                   Gs1   v068
        BYTE   W06
        BYTE                   Fn1   v127
        BYTE           N06     Gs1   v076
        BYTE   W06
        BYTE                   Cn1   v127
        BYTE           N06     Gs1   v068
        BYTE   W06
        BYTE                   Gs1
        BYTE   W06
        BYTE                   Gs1
        BYTE   W06
// 021   ----------------------------------------
        BYTE                   Gs1   v076
        BYTE   W06
        BYTE                   Gs1   v068
        BYTE           N06     Cn1   v127
        BYTE   W06
        BYTE                   Gs1   v068
        BYTE   W06
        BYTE                   Gs1
        BYTE           N06     Cn1   v127
        BYTE   W06
        BYTE                   Fn1
        BYTE           N06     Gs1   v068
        BYTE   W06
        BYTE                   Gs1
        BYTE   W06
        BYTE                   Gs1   v076
        BYTE   W06
        BYTE                   Gs1   v068
        BYTE   W06
        BYTE                   Gs1
        BYTE   W06
        BYTE                   Fn1   v127
        BYTE           N06     Gs1   v068
        BYTE   W06
        BYTE                   Cn1   v127
        BYTE           N06     Gs1   v068
        BYTE   W06
        BYTE                   Gs1
        BYTE   W06
        BYTE                   Fn1   v127
        BYTE           N06     Gs1   v076
        BYTE   W06
        BYTE                   Cn1   v127
        BYTE           N06     Gs1   v068
        BYTE   W06
        BYTE                   Gs1
        BYTE   W06
        BYTE                   Gs1
        BYTE   W06
// 022   ----------------------------------------
        BYTE                   Gs1   v076
        BYTE           N06     Cn1   v127
        BYTE   W06
        BYTE                   Cn1
        BYTE           N06     Gs1   v068
        BYTE   W06
        BYTE                   Gs1
        BYTE   W06
        BYTE                   Gs1
        BYTE           N06     Cn1   v127
        BYTE   W06
        BYTE                   Fn1
        BYTE           N06     Gs1   v068
        BYTE   W06
        BYTE                   Gs1
        BYTE   W06
        BYTE                   Gs1   v076
        BYTE   W06
        BYTE                   Gs1   v068
        BYTE           N06     Cn1   v127
        BYTE   W06
        BYTE                   Gs1   v068
        BYTE   W06
        BYTE                   Gs1
        BYTE   W06
        BYTE                   Cn1   v127
        BYTE           N06     Gs1   v068
        BYTE   W06
        BYTE                   Gs1
        BYTE   W06
        BYTE                   Fn1   v127
        BYTE           N06     Gs1   v076
        BYTE   W06
        BYTE                   Gs1   v068
        BYTE           N06     Cn1   v127
        BYTE   W06
        BYTE                   Gs1   v068
        BYTE   W06
        BYTE                   Gs1
        BYTE   W06
// 023   ----------------------------------------
        BYTE   PATT
         POIN2  uno_tension_000_7_7
// 024   ----------------------------------------
        BYTE   PATT
         POIN2  uno_tension_000_7_18
// 025   ----------------------------------------
uno_tension_000_7_25:
        BYTE           N06     Gs1   v076
        BYTE   W06
        BYTE                   Gs1   v068
        BYTE           N06     Cn1   v127
        BYTE   W06
        BYTE                   Gs1   v068
        BYTE   W06
        BYTE                   Gs1
        BYTE           N06     Cn1   v127
        BYTE   W06
        BYTE                   Fn1
        BYTE           N06     Gs1   v068
        BYTE   W06
        BYTE                   Gs1
        BYTE   W06
        BYTE                   Gs1   v076
        BYTE   W06
        BYTE                   Gs1   v068
        BYTE   W06
        BYTE                   Gs1
        BYTE   W06
        BYTE                   Fn1   v127
        BYTE           N06     Gs1   v068
        BYTE   W06
        BYTE                   Cn1   v127
        BYTE           N06     Gs1   v068
        BYTE   W06
        BYTE                   Gs1
        BYTE   W06
        BYTE                   Fn1   v127
        BYTE           N06     Gs1   v076
        BYTE   W06
        BYTE                   Gs1   v068
        BYTE           N06     Cn1   v127
        BYTE   W06
        BYTE                   Gs1   v068
        BYTE   W06
        BYTE                   Gs1
        BYTE   W06
        BYTE   PEND
// 026   ----------------------------------------
        BYTE                   Cn1   v127
        BYTE           N06     Gs1   v076
        BYTE   W06
        BYTE                   Gs1   v068
        BYTE           N06     Cn1   v127
        BYTE   W06
        BYTE                   Gs1   v068
        BYTE   W06
        BYTE                   Cn1   v127
        BYTE           N06     Gs1   v068
        BYTE   W06
        BYTE                   Fn1   v127
        BYTE           N06     Gs1   v068
        BYTE   W06
        BYTE                   Gs1
        BYTE   W06
        BYTE                   Gs1   v076
        BYTE   W06
        BYTE                   Gs1   v068
        BYTE           N06     Cn1   v127
        BYTE   W06
        BYTE                   Gs1   v068
        BYTE   W06
        BYTE                   Gs1
        BYTE   W06
        BYTE                   Cn1   v127
        BYTE           N06     Gs1   v068
        BYTE   W06
        BYTE                   Gs1
        BYTE   W06
        BYTE                   Fn1   v127
        BYTE           N06     Gs1   v076
        BYTE   W06
        BYTE                   Gs1   v068
        BYTE           N06     Cn1   v127
        BYTE   W06
        BYTE                   Gs1   v068
        BYTE   W06
        BYTE                   Gs1
        BYTE   W06
// 027   ----------------------------------------
        BYTE   PATT
         POIN2  uno_tension_000_7_3
// 028   ----------------------------------------
        BYTE           N06     Cn1   v127
        BYTE           N06     Gs1   v076
        BYTE   W06
        BYTE                   Gs1   v068
        BYTE           N06     Cn1   v127
        BYTE   W06
        BYTE                   Gs1   v068
        BYTE   W06
        BYTE                   Cn1   v127
        BYTE           N06     Gs1   v068
        BYTE   W06
        BYTE                   Fn1   v127
        BYTE           N06     Gs1   v068
        BYTE   W06
        BYTE                   Gs1
        BYTE   W06
        BYTE                   Gs1   v076
        BYTE   W06
        BYTE                   Gs1   v068
        BYTE           N06     Cn1   v127
        BYTE   W06
        BYTE                   Gs1   v068
        BYTE   W06
        BYTE                   Gs1
        BYTE   W06
        BYTE                   Cn1   v127
        BYTE           N06     Gs1   v068
        BYTE   W06
        BYTE                   Gs1
        BYTE   W06
        BYTE                   Fn1   v127
        BYTE           N06     Gs1   v076
        BYTE   W06
        BYTE                   Cn1   v127
        BYTE           N06     Gs1   v068
        BYTE   W06
        BYTE                   Gs1
        BYTE   W06
        BYTE                   Gs1
        BYTE   W06
// 029   ----------------------------------------
        BYTE                   Gs1   v076
        BYTE   W06
        BYTE                   Cn1   v127
        BYTE           N06     Gs1   v068
        BYTE   W06
        BYTE                   Gs1
        BYTE   W06
        BYTE                   Cn1   v127
        BYTE           N06     Gs1   v068
        BYTE   W06
        BYTE                   Fn1   v127
        BYTE           N06     Gs1   v068
        BYTE   W06
        BYTE                   Gs1
        BYTE   W06
        BYTE                   Gs1   v076
        BYTE   W06
        BYTE                   Gs1   v068
        BYTE   W06
        BYTE                   Gs1
        BYTE   W06
        BYTE                   Fn1   v127
        BYTE           N06     Gs1   v068
        BYTE   W06
        BYTE                   Gs1
        BYTE           N06     Cn1   v127
        BYTE   W06
        BYTE                   Gs1   v068
        BYTE   W06
        BYTE                   Fn1   v127
        BYTE           N06     Gs1   v076
        BYTE   W06
        BYTE                   Gs1   v068
        BYTE           N06     Cn1   v127
        BYTE   W06
        BYTE                   Gs1   v068
        BYTE   W06
        BYTE                   Gs1
        BYTE   W06
// 030   ----------------------------------------
        BYTE                   Gs1   v076
        BYTE           N06     Cn1   v127
        BYTE   W06
        BYTE                   Cn1
        BYTE           N06     Gs1   v068
        BYTE   W06
        BYTE                   Gs1
        BYTE   W06
        BYTE                   Cn1   v127
        BYTE           N06     Gs1   v068
        BYTE   W06
        BYTE                   Fn1   v127
        BYTE           N06     Gs1   v068
        BYTE   W06
        BYTE                   Gs1
        BYTE   W06
        BYTE                   Gs1   v076
        BYTE   W06
        BYTE                   Cn1   v127
        BYTE           N06     Gs1   v068
        BYTE   W06
        BYTE                   Gs1
        BYTE   W06
        BYTE                   Gs1
        BYTE   W06
        BYTE                   Cn1   v127
        BYTE           N06     Gs1   v068
        BYTE   W06
        BYTE                   Gs1
        BYTE   W06
        BYTE                   Fn1   v127
        BYTE           N06     Gs1   v076
        BYTE   W06
        BYTE                   Gs1   v068
        BYTE           N06     Cn1   v127
        BYTE   W06
        BYTE                   Gs1   v068
        BYTE   W06
        BYTE                   Gs1
        BYTE   W06
// 031   ----------------------------------------
        BYTE   PATT
         POIN2  uno_tension_000_7_19
// 032   ----------------------------------------
        BYTE           N06     Gs1   v076
        BYTE           N06     Cn1   v127
        BYTE   W06
        BYTE                   Cn1
        BYTE           N06     Gs1   v068
        BYTE   W06
        BYTE                   Gs1
        BYTE   W06
        BYTE                   Gs1
        BYTE           N06     Cn1   v127
        BYTE   W06
        BYTE                   Fn1
        BYTE           N06     Gs1   v068
        BYTE   W06
        BYTE                   Gs1
        BYTE   W06
        BYTE                   Gs1   v076
        BYTE   W06
        BYTE                   Cn1   v127
        BYTE           N06     Gs1   v068
        BYTE   W06
        BYTE                   Gs1
        BYTE   W06
        BYTE                   Gs1
        BYTE   W06
        BYTE                   Gs1
        BYTE           N06     Cn1   v127
        BYTE   W06
        BYTE                   Gs1   v068
        BYTE   W06
        BYTE                   Fn1   v127
        BYTE           N06     Gs1   v076
        BYTE   W06
        BYTE                   Gs1   v068
        BYTE           N06     Cn1   v127
        BYTE   W06
        BYTE                   Gs1   v068
        BYTE   W06
        BYTE                   Gs1
        BYTE   W06
// 033   ----------------------------------------
        BYTE   PATT
         POIN2  uno_tension_000_7_17
// 034   ----------------------------------------
        BYTE   PATT
         POIN2  uno_tension_000_7_8
// 035   ----------------------------------------
        BYTE   PATT
         POIN2  uno_tension_000_7_19
// 036   ----------------------------------------
        BYTE           N06     Gs1   v076
        BYTE           N06     Cn1   v127
        BYTE   W06
        BYTE                   Cn1
        BYTE           N06     Gs1   v068
        BYTE   W06
        BYTE                   Gs1
        BYTE   W06
        BYTE                   Gs1
        BYTE           N06     Cn1   v127
        BYTE   W06
        BYTE                   Fn1
        BYTE           N06     Gs1   v068
        BYTE   W06
        BYTE                   Gs1
        BYTE   W06
        BYTE                   Gs1   v076
        BYTE   W06
        BYTE                   Cn1   v127
        BYTE           N06     Gs1   v068
        BYTE   W06
        BYTE                   Gs1
        BYTE   W06
        BYTE                   Gs1
        BYTE   W06
        BYTE                   Cn1   v127
        BYTE           N06     Gs1   v068
        BYTE   W06
        BYTE                   Gs1
        BYTE   W06
        BYTE                   Fn1   v127
        BYTE           N06     Gs1   v076
        BYTE   W06
        BYTE                   Gs1   v068
        BYTE           N06     Cn1   v127
        BYTE   W06
        BYTE                   Gs1   v068
        BYTE   W06
        BYTE                   Gs1
        BYTE   W06
// 037   ----------------------------------------
        BYTE   PATT
         POIN2  uno_tension_000_7_13
// 038   ----------------------------------------
        BYTE           N06     Gs1   v076
        BYTE           N06     Cn1   v127
        BYTE   W06
        BYTE                   Cn1
        BYTE           N06     Gs1   v068
        BYTE   W06
        BYTE                   Gs1
        BYTE   W06
        BYTE                   Cn1   v127
        BYTE           N06     Gs1   v068
        BYTE   W06
        BYTE                   Fn1   v127
        BYTE           N06     Gs1   v068
        BYTE   W06
        BYTE                   Gs1
        BYTE   W06
        BYTE                   Gs1   v076
        BYTE   W06
        BYTE                   Gs1   v068
        BYTE           N06     Cn1   v127
        BYTE   W06
        BYTE                   Gs1   v068
        BYTE   W06
        BYTE                   Gs1
        BYTE   W06
        BYTE                   Gs1
        BYTE           N06     Cn1   v127
        BYTE   W06
        BYTE                   Gs1   v068
        BYTE   W06
        BYTE                   Fn1   v127
        BYTE           N06     Gs1   v076
        BYTE   W06
        BYTE                   Gs1   v068
        BYTE           N06     Cn1   v127
        BYTE   W06
        BYTE                   Gs1   v068
        BYTE   W06
        BYTE                   Gs1
        BYTE   W06
// 039   ----------------------------------------
        BYTE                   Gs1   v076
        BYTE   W06
        BYTE                   Cn1   v127
        BYTE           N06     Gs1   v068
        BYTE   W06
        BYTE                   Gs1
        BYTE   W06
        BYTE                   Cn1   v127
        BYTE           N06     Gs1   v068
        BYTE   W06
        BYTE                   Fn1   v127
        BYTE           N06     Gs1   v068
        BYTE   W06
        BYTE                   Gs1
        BYTE   W06
        BYTE                   Gs1   v076
        BYTE   W06
        BYTE                   Gs1   v068
        BYTE   W06
        BYTE                   Gs1
        BYTE   W06
        BYTE                   Fn1   v127
        BYTE           N06     Gs1   v068
        BYTE   W06
        BYTE                   Cn1   v127
        BYTE           N06     Gs1   v068
        BYTE   W06
        BYTE                   Gs1
        BYTE   W06
        BYTE                   Fn1   v127
        BYTE           N06     Gs1   v076
        BYTE   W06
        BYTE                   Cn1   v127
        BYTE           N06     Gs1   v068
        BYTE   W06
        BYTE                   Gs1
        BYTE   W06
        BYTE                   Gs1
        BYTE   W06
// 040   ----------------------------------------
        BYTE                   Gs1   v076
        BYTE           N06     Cn1   v127
        BYTE   W06
        BYTE                   Cn1
        BYTE           N06     Gs1   v068
        BYTE   W06
        BYTE                   Gs1
        BYTE   W06
        BYTE                   Cn1   v127
        BYTE           N06     Gs1   v068
        BYTE   W06
        BYTE                   Fn1   v127
        BYTE           N06     Gs1   v068
        BYTE   W06
        BYTE                   Gs1
        BYTE   W06
        BYTE                   Gs1   v076
        BYTE   W06
        BYTE                   Cn1   v127
        BYTE           N06     Gs1   v068
        BYTE   W06
        BYTE                   Gs1
        BYTE   W06
        BYTE                   Gs1
        BYTE   W06
        BYTE                   Gs1
        BYTE           N06     Cn1   v127
        BYTE   W06
        BYTE                   Gs1   v068
        BYTE   W06
        BYTE                   Fn1   v127
        BYTE           N06     Gs1   v076
        BYTE   W06
        BYTE                   Cn1   v127
        BYTE           N06     Gs1   v068
        BYTE   W06
        BYTE                   Gs1
        BYTE   W06
        BYTE                   Gs1
        BYTE   W06
// 041   ----------------------------------------
        BYTE   PATT
         POIN2  uno_tension_000_7_15
// 042   ----------------------------------------
        BYTE           N06     Cn1   v127
        BYTE           N06     Gs1   v076
        BYTE   W06
        BYTE                   Gs1   v068
        BYTE           N06     Cn1   v127
        BYTE   W06
        BYTE                   Gs1   v068
        BYTE   W06
        BYTE                   Gs1
        BYTE           N06     Cn1   v127
        BYTE   W06
        BYTE                   Fn1
        BYTE           N06     Gs1   v068
        BYTE   W06
        BYTE                   Gs1
        BYTE   W06
        BYTE                   Gs1   v076
        BYTE   W06
        BYTE                   Gs1   v068
        BYTE           N06     Cn1   v127
        BYTE   W06
        BYTE                   Gs1   v068
        BYTE   W06
        BYTE                   Gs1
        BYTE   W06
        BYTE                   Cn1   v127
        BYTE           N06     Gs1   v068
        BYTE   W06
        BYTE                   Gs1
        BYTE   W06
        BYTE                   Fn1   v127
        BYTE           N06     Gs1   v076
        BYTE   W06
        BYTE                   Gs1   v068
        BYTE           N06     Cn1   v127
        BYTE   W06
        BYTE                   Gs1   v068
        BYTE   W06
        BYTE                   Gs1
        BYTE   W06
// 043   ----------------------------------------
        BYTE   PATT
         POIN2  uno_tension_000_7_25
// 044   ----------------------------------------
        BYTE   PATT
         POIN2  uno_tension_000_7_16
// 045   ----------------------------------------
        BYTE   PATT
         POIN2  uno_tension_000_7_17
// 046   ----------------------------------------
        BYTE           N06     Cn1   v127
        BYTE           N06     Gs1   v076
        BYTE   W06
        BYTE                   Cn1   v127
        BYTE           N06     Gs1   v068
        BYTE   W06
        BYTE                   Gs1
        BYTE   W06
        BYTE                   Gs1
        BYTE           N06     Cn1   v127
        BYTE   W06
        BYTE                   Fn1
        BYTE           N06     Gs1   v068
        BYTE   W06
        BYTE                   Gs1
        BYTE   W06
        BYTE                   Gs1   v076
        BYTE   W06
        BYTE                   Gs1   v068
        BYTE           N06     Cn1   v127
        BYTE   W06
        BYTE                   Gs1   v068
        BYTE   W06
        BYTE                   Gs1
        BYTE   W06
        BYTE                   Gs1
        BYTE           N06     Cn1   v127
        BYTE   W06
        BYTE                   Gs1   v068
        BYTE   W06
        BYTE                   Fn1   v127
        BYTE           N06     Gs1   v076
        BYTE   W06
        BYTE                   Cn1   v127
        BYTE           N06     Gs1   v068
        BYTE   W06
        BYTE                   Gs1
        BYTE   W06
        BYTE                   Gs1
        BYTE   W06
// 047   ----------------------------------------
        BYTE                   Gs1   v076
        BYTE   W06
        BYTE                   Cn1   v127
        BYTE           N06     Gs1   v068
        BYTE   W06
        BYTE                   Gs1
        BYTE   W06
        BYTE                   Cn1   v127
        BYTE           N06     Gs1   v068
        BYTE   W06
        BYTE                   Fn1   v127
        BYTE           N06     Gs1   v068
        BYTE   W06
        BYTE                   Gs1
        BYTE   W06
        BYTE                   Gs1   v076
        BYTE   W06
        BYTE                   Gs1   v068
        BYTE   W06
        BYTE                   Gs1
        BYTE   W06
        BYTE                   Fn1   v127
        BYTE           N06     Gs1   v068
        BYTE   W06
        BYTE                   Gs1
        BYTE           N06     Cn1   v127
        BYTE   W06
        BYTE                   Gs1   v068
        BYTE   W06
        BYTE                   Fn1   v127
        BYTE           N06     Gs1   v076
        BYTE   W06
        BYTE                   Cn1   v127
        BYTE           N06     Gs1   v068
        BYTE   W06
        BYTE                   Gs1
        BYTE   W06
        BYTE                   Gs1
        BYTE   W06
// 048   ----------------------------------------
        BYTE   GoTo
         POIN2  uno_tension_000_7_LOOP
        BYTE   FINE

//****************** Track 8 (Midi-Chn.8) ******************//

uno_tension_000_8:
        BYTE   KEYSH   uno_tension_000_key+0
// 000   ----------------------------------------
uno_tension_000_8_LOOP:
        BYTE           VOICE   101
        BYTE           PAN     c_v-20
        BYTE           VOL     43
        BYTE           TIE     Dn3   v031
        BYTE           TIE     Dn4
        BYTE   W96
// 001   ----------------------------------------
        BYTE   W96
// 002   ----------------------------------------
        BYTE   W96
// 003   ----------------------------------------
uno_tension_000_8_3:
        BYTE   W88
        BYTE   W01
        BYTE           EOT     Dn3
        BYTE                   Dn4
        BYTE   W07
        BYTE   PEND
// 004   ----------------------------------------
        BYTE   W96
// 005   ----------------------------------------
        BYTE   W96
// 006   ----------------------------------------
        BYTE   W96
// 007   ----------------------------------------
        BYTE   W96
// 008   ----------------------------------------
        BYTE           N12     Dn3   v091
        BYTE           N12     Dn2
        BYTE   W12
        BYTE                   En3
        BYTE           N12     En2
        BYTE   W12
        BYTE           N24     Fn3
        BYTE           N24     Fn2
        BYTE   W36
        BYTE           N12     En3
        BYTE           N12     En2
        BYTE   W12
        BYTE                   Dn3
        BYTE           N12     Dn2
        BYTE   W12
        BYTE           N60     An3
        BYTE           N60     An2
        BYTE   W12
// 009   ----------------------------------------
        BYTE   W72
        BYTE           N12     An3
        BYTE           N12     An2
        BYTE   W12
        BYTE                   Cn4
        BYTE           N12     Cn3
        BYTE   W12
// 010   ----------------------------------------
        BYTE                   Gn3
        BYTE           N12     Gn2
        BYTE   W12
        BYTE                   Fn3
        BYTE           N12     Fn2
        BYTE   W12
        BYTE           N24     En3
        BYTE           N24     En2
        BYTE   W48
        BYTE           N12     Fn3
        BYTE           N12     Fn2
        BYTE   W12
        BYTE                   En3
        BYTE           N12     En2
        BYTE   W12
// 011   ----------------------------------------
        BYTE                   Dn3
        BYTE           N12     Dn2
        BYTE   W12
        BYTE                   En3
        BYTE           N12     En2
        BYTE   W12
        BYTE           N24     Fn3
        BYTE           N24     Fn2
        BYTE   W48
        BYTE           N12     Cn3
        BYTE           N12     Cn2
        BYTE   W12
        BYTE                   As2
        BYTE           N12     As1
        BYTE   W12
// 012   ----------------------------------------
        BYTE                   An2
        BYTE           N12     An1
        BYTE   W36
        BYTE                   As2
        BYTE           N12     As1
        BYTE   W12
        BYTE                   An2
        BYTE           N12     An1
        BYTE   W36
        BYTE                   An2
        BYTE           N12     An1
        BYTE   W12
// 013   ----------------------------------------
        BYTE                   As2
        BYTE           N12     As1
        BYTE   W36
        BYTE                   Cn3
        BYTE           N12     Cn2
        BYTE   W12
        BYTE                   As2
        BYTE           N12     As1
        BYTE   W24
        BYTE                   Dn3
        BYTE           N12     Dn2
        BYTE   W12
        BYTE                   Fn3
        BYTE           N12     Fn2
        BYTE   W12
// 014   ----------------------------------------
        BYTE                   En3
        BYTE           N12     En2
        BYTE   W36
        BYTE                   Fn3
        BYTE           N12     Fn2
        BYTE   W12
        BYTE                   En3
        BYTE           N12     En2
        BYTE   W36
        BYTE                   Fn3
        BYTE           N12     Fn2
        BYTE   W12
// 015   ----------------------------------------
        BYTE                   Dn3
        BYTE           N12     Dn2
        BYTE   W36
        BYTE                   En3
        BYTE           N12     En2
        BYTE   W12
        BYTE                   Fn3
        BYTE           N12     Fn2
        BYTE   W12
        BYTE                   En3
        BYTE           N12     En2
        BYTE   W12
        BYTE                   Dn3
        BYTE           N12     Dn2
        BYTE   W12
        BYTE                   Cn3
        BYTE           N12     Cn2
        BYTE   W12
// 016   ----------------------------------------
        BYTE           N06     Dn2   v106
        BYTE           N12     Dn3
        BYTE   W12
        BYTE           N06     Dn2
        BYTE   W12
        BYTE                   Dn2
        BYTE   W12
        BYTE                   Dn2
        BYTE   W12
        BYTE                   Dn2
        BYTE   W12
        BYTE                   Dn2   v105
        BYTE   W12
        BYTE                   En2   v107
        BYTE   W06
        BYTE                   Fn2   v108
        BYTE   W06
        BYTE                   Dn2
        BYTE   W12
// 017   ----------------------------------------
        BYTE                   Dn2
        BYTE   W12
        BYTE                   Dn2
        BYTE   W12
        BYTE                   Dn2
        BYTE   W12
        BYTE                   Dn2   v106
        BYTE   W12
        BYTE                   Dn2   v105
        BYTE   W12
        BYTE                   Dn2
        BYTE   W12
        BYTE                   En2
        BYTE   W06
        BYTE                   Fn2
        BYTE   W06
        BYTE                   Dn2
        BYTE   W12
// 018   ----------------------------------------
        BYTE                   Dn2
        BYTE   W12
        BYTE                   Dn2   v107
        BYTE   W12
        BYTE                   Dn2
        BYTE   W12
        BYTE                   Dn2   v108
        BYTE   W12
        BYTE                   En2   v110
        BYTE           N06     Dn2
        BYTE   W12
        BYTE                   En2
        BYTE           N06     Dn2
        BYTE   W12
        BYTE                   En2
        BYTE           N06     Dn2
        BYTE   W12
        BYTE                   En2   v111
        BYTE           N06     Dn2
        BYTE   W12
// 019   ----------------------------------------
        BYTE                   Fn2   v113
        BYTE           N06     En2
        BYTE           N06     Dn2
        BYTE   W12
        BYTE                   Fn2
        BYTE           N06     En2
        BYTE           N06     Dn2
        BYTE   W12
        BYTE                   Fn2   v118
        BYTE           N06     En2
        BYTE           N06     Dn2
        BYTE   W12
        BYTE                   Fn2   v121
        BYTE           N06     En2
        BYTE           N06     Dn2
        BYTE   W12
        BYTE                   Fn2   v127
        BYTE           N06     En2
        BYTE           N06     Dn2
        BYTE   W12
        BYTE                   Fn2
        BYTE           N06     En2
        BYTE           N06     Dn2
        BYTE   W12
        BYTE                   Fn2
        BYTE           N06     En2
        BYTE           N06     Dn2
        BYTE   W12
        BYTE                   Fn2
        BYTE           N06     En2
        BYTE           N06     Dn2
        BYTE   W12
// 020   ----------------------------------------
uno_tension_000_8_20:
        BYTE           N12     Dn3   v107
        BYTE           N12     Dn2
        BYTE   W12
        BYTE                   En3
        BYTE           N12     En2
        BYTE   W12
        BYTE           N24     Fn3
        BYTE           N24     Fn2
        BYTE   W36
        BYTE           N12     En3
        BYTE           N12     En2
        BYTE   W12
        BYTE                   Dn3
        BYTE           N12     Dn2
        BYTE   W12
        BYTE           N60     An3
        BYTE           N60     An2
        BYTE   W12
        BYTE   PEND
// 021   ----------------------------------------
        BYTE   W72
        BYTE           N12     Gn3
        BYTE           N12     Gn2
        BYTE   W12
        BYTE                   Fn3
        BYTE           N12     Fn2
        BYTE   W12
// 022   ----------------------------------------
        BYTE                   En3
        BYTE           N12     En2
        BYTE   W12
        BYTE                   Fn3
        BYTE           N12     Fn2
        BYTE   W12
        BYTE           N24     Gn3
        BYTE           N24     Gn2
        BYTE   W48
        BYTE           N12     Fn3
        BYTE           N12     Fn2
        BYTE   W12
        BYTE                   En3
        BYTE           N12     En2
        BYTE   W12
// 023   ----------------------------------------
        BYTE                   Dn3
        BYTE           N12     Dn2
        BYTE   W12
        BYTE                   En3
        BYTE           N12     En2
        BYTE   W12
        BYTE           N24     Fn3
        BYTE           N24     Fn2
        BYTE   W72
// 024   ----------------------------------------
        BYTE   PATT
         POIN2  uno_tension_000_8_20
// 025   ----------------------------------------
        BYTE   W72
        BYTE           N12     An3   v107
        BYTE           N12     An2
        BYTE   W12
        BYTE                   Cn4
        BYTE           N12     Cn3
        BYTE   W12
// 026   ----------------------------------------
        BYTE                   Gn3
        BYTE           N12     Gn2
        BYTE   W12
        BYTE                   Fn3
        BYTE           N12     Fn2
        BYTE   W12
        BYTE           N24     En3
        BYTE           N24     En2
        BYTE   W48
        BYTE           N12     Fn3
        BYTE           N12     Fn2
        BYTE   W12
        BYTE                   En3
        BYTE           N12     En2
        BYTE   W12
// 027   ----------------------------------------
        BYTE                   Dn3
        BYTE           N12     Dn2
        BYTE   W12
        BYTE                   En3
        BYTE           N12     En2
        BYTE   W12
        BYTE           N24     Fn3
        BYTE           N24     Fn2
        BYTE   W48
        BYTE           N12     Cn3
        BYTE           N12     Cn2
        BYTE   W12
        BYTE                   As2
        BYTE           N12     As1
        BYTE   W12
// 028   ----------------------------------------
        BYTE   W24
        BYTE                   An3   v119
        BYTE           N12     An2
        BYTE   W36
        BYTE                   As3
        BYTE           N12     As2
        BYTE   W12
        BYTE                   An3
        BYTE           N12     An2
        BYTE   W24
// 029   ----------------------------------------
        BYTE   W12
        BYTE                   An3
        BYTE           N12     An2
        BYTE   W12
        BYTE                   As3
        BYTE           N12     As2
        BYTE   W36
        BYTE                   Cn4
        BYTE           N12     Cn3
        BYTE   W12
        BYTE                   As3
        BYTE           N12     As2
        BYTE   W24
// 030   ----------------------------------------
        BYTE                   Cn4
        BYTE           N12     Cn3
        BYTE   W24
        BYTE                   En4
        BYTE           N12     En3
        BYTE   W36
        BYTE                   Fn4
        BYTE           N12     Fn3
        BYTE   W12
        BYTE                   En4
        BYTE           N12     En3
        BYTE   W24
// 031   ----------------------------------------
        BYTE   W12
        BYTE                   Fn4
        BYTE           N12     Fn3
        BYTE   W12
        BYTE                   Dn4
        BYTE           N12     Dn3
        BYTE   W36
        BYTE                   En4
        BYTE           N12     En3
        BYTE   W12
        BYTE                   Fn4
        BYTE           N12     Fn3
        BYTE   W12
        BYTE                   En4
        BYTE           N12     En3
        BYTE   W12
// 032   ----------------------------------------
        BYTE           TIE     Dn3   v098
        BYTE           TIE     Dn4
        BYTE   W96
// 033   ----------------------------------------
        BYTE   W96
// 034   ----------------------------------------
        BYTE   W96
// 035   ----------------------------------------
        BYTE   PATT
         POIN2  uno_tension_000_8_3
// 036   ----------------------------------------
        BYTE           N72     Dn2   v091
        BYTE           N24     Fn2
        BYTE   W24
        BYTE                   Gn2   v093
        BYTE   W24
        BYTE                   An2   v095
        BYTE   W24
        BYTE                   Cn2
        BYTE           N24     As2
        BYTE   W24
// 037   ----------------------------------------
        BYTE           N96     As1   v096
        BYTE           N96     Cn3
        BYTE   W96
// 038   ----------------------------------------
        BYTE           N24     Fn3   v091
        BYTE           N72     Dn2
        BYTE           N24     Fn2
        BYTE   W24
        BYTE                   Gn3   v093
        BYTE           N24     Gn2
        BYTE   W24
        BYTE                   An3   v095
        BYTE           N24     An2
        BYTE   W24
        BYTE                   As3
        BYTE           N24     Cn2
        BYTE           N24     As2
        BYTE   W24
// 039   ----------------------------------------
        BYTE           N96     As1
        BYTE           N06     Cn4
        BYTE           N06     Cn3
        BYTE   W06
        BYTE                   Dn4
        BYTE           N06     Dn3
        BYTE   W06
        BYTE           N84     Cn4
        BYTE           N84     Cn3
        BYTE   W84
// 040   ----------------------------------------
        BYTE           N24     Dn3   v091
        BYTE           N24     Dn4
        BYTE   W24
        BYTE                   Fn3   v088
        BYTE           N24     Fn4
        BYTE   W24
        BYTE                   En3   v093
        BYTE           N24     En4
        BYTE   W24
        BYTE           N12     Dn3   v086
        BYTE           N12     Dn4
        BYTE   W12
        BYTE                   Cn3
        BYTE           N12     Cn4
        BYTE   W12
// 041   ----------------------------------------
        BYTE           N16     En3
        BYTE           N16     En4
        BYTE   W16
        BYTE                   Dn3
        BYTE           N16     Dn4
        BYTE   W16
        BYTE                   Cn3   v088
        BYTE           N16     Cn4
        BYTE   W16
        BYTE                   Dn3   v090
        BYTE           N16     Dn4
        BYTE   W16
        BYTE                   Cn3   v091
        BYTE           N16     Cn4
        BYTE   W16
        BYTE                   As2
        BYTE           N16     As3
        BYTE   W16
// 042   ----------------------------------------
        BYTE           N24     Dn3   v092
        BYTE           N24     Dn4
        BYTE   W24
        BYTE                   Fn3   v093
        BYTE           N24     Fn4
        BYTE   W24
        BYTE                   En3   v096
        BYTE           N24     En4
        BYTE   W24
        BYTE           N12     Dn3
        BYTE           N12     Dn4
        BYTE   W12
        BYTE                   Cn3
        BYTE           N12     Cn4
        BYTE   W12
// 043   ----------------------------------------
        BYTE           N16     En4
        BYTE           N16     Gn3
        BYTE   W16
        BYTE                   Dn4
        BYTE           N16     Fn3
        BYTE   W16
        BYTE                   Cn4   v095
        BYTE           N16     En3
        BYTE   W16
        BYTE                   Dn4   v093
        BYTE           N16     Fn3
        BYTE   W16
        BYTE                   En4
        BYTE           N16     Gn3
        BYTE   W16
        BYTE                   Gn4   v091
        BYTE           N16     As3
        BYTE   W16
// 044   ----------------------------------------
        BYTE           N80     An3   v079
        BYTE           N80     An4
        BYTE   W84
        BYTE           N06     Fn3
        BYTE           N06     Fn4
        BYTE   W06
        BYTE                   En3
        BYTE           N06     En4
        BYTE   W06
// 045   ----------------------------------------
        BYTE           N84     Fn3
        BYTE           N84     Fn4
        BYTE   W84
        BYTE           N06     Dn3   v078
        BYTE           N06     Dn4
        BYTE   W06
        BYTE                   Cn3
        BYTE           N06     Cn4
        BYTE   W06
// 046   ----------------------------------------
        BYTE           N84     Dn3   v079
        BYTE           N84     Dn4
        BYTE   W84
        BYTE           N06     An2   v083
        BYTE           N06     An3
        BYTE   W06
        BYTE                   Gn2
        BYTE           N06     Gn3
        BYTE   W06
// 047   ----------------------------------------
        BYTE           N96     An2
        BYTE           N96     An3
        BYTE   W96
// 048   ----------------------------------------
        BYTE   GoTo
         POIN2  uno_tension_000_8_LOOP
        BYTE   FINE

//***************** Track 9 (Midi-Chn.10) ******************//

uno_tension_000_9:
        BYTE   KEYSH   uno_tension_000_key+0
// 000   ----------------------------------------
uno_tension_000_9_LOOP:
        BYTE           VOICE   46
        BYTE           VOL     35
        BYTE           PAN     c_v-5
        BYTE           TIE     Dn1   v093
        BYTE           TIE     Dn0
        BYTE   W48
        BYTE           N48     Dn2   v061
        BYTE           N48     Dn3
        BYTE   W48
// 001   ----------------------------------------
uno_tension_000_9_1:
        BYTE           N48     Dn3   v061
        BYTE           N48     Dn4
        BYTE   W48
        BYTE                   Dn2
        BYTE           N48     Dn3
        BYTE   W48
        BYTE   PEND
// 002   ----------------------------------------
        BYTE           EOT     Dn1
        BYTE                   Dn0
        BYTE           TIE     Dn1   v093
        BYTE           TIE     Dn0
        BYTE   W48
        BYTE           N48     Dn2   v061
        BYTE           N48     Dn3
        BYTE   W48
// 003   ----------------------------------------
        BYTE   PATT
         POIN2  uno_tension_000_9_1
// 004   ----------------------------------------
        BYTE           EOT     Dn1
        BYTE                   Dn0
        BYTE           N12     Dn1   v073
        BYTE   W12
        BYTE                   Fn2
        BYTE   W12
        BYTE                   An2
        BYTE   W12
        BYTE                   Dn3
        BYTE   W12
        BYTE                   Fn3
        BYTE   W12
        BYTE                   Dn3
        BYTE   W12
        BYTE                   An2
        BYTE   W12
        BYTE                   Fn2
        BYTE   W12
// 005   ----------------------------------------
uno_tension_000_9_5:
        BYTE           N12     Fn1   v073
        BYTE   W12
        BYTE                   Cn2
        BYTE   W12
        BYTE                   An2
        BYTE   W12
        BYTE                   Cn3
        BYTE   W12
        BYTE                   An3
        BYTE   W12
        BYTE                   Cn3
        BYTE   W12
        BYTE                   An2
        BYTE   W12
        BYTE                   Fn2
        BYTE   W12
        BYTE   PEND
// 006   ----------------------------------------
uno_tension_000_9_6:
        BYTE           N12     Cn2   v073
        BYTE   W12
        BYTE                   Gn2
        BYTE   W12
        BYTE                   Cn3
        BYTE   W12
        BYTE                   En3
        BYTE   W12
        BYTE                   Cn4
        BYTE   W12
        BYTE                   Gn3
        BYTE   W12
        BYTE                   En3
        BYTE   W12
        BYTE                   Cn3
        BYTE   W12
        BYTE   PEND
// 007   ----------------------------------------
uno_tension_000_9_7:
        BYTE           N12     As1   v073
        BYTE   W12
        BYTE                   Fn2
        BYTE   W12
        BYTE                   As2
        BYTE   W12
        BYTE                   Dn3
        BYTE   W12
        BYTE                   Gn3
        BYTE   W12
        BYTE                   En3
        BYTE   W12
        BYTE                   Cn3
        BYTE   W12
        BYTE                   Gn2
        BYTE   W12
        BYTE   PEND
// 008   ----------------------------------------
        BYTE                   Dn1
        BYTE   W12
        BYTE                   Fn2
        BYTE   W12
        BYTE                   An2
        BYTE   W12
        BYTE                   Dn3
        BYTE   W12
        BYTE                   Fn3
        BYTE   W12
        BYTE                   Dn3
        BYTE   W12
        BYTE                   An2
        BYTE   W12
        BYTE                   Fn2
        BYTE   W12
// 009   ----------------------------------------
        BYTE   PATT
         POIN2  uno_tension_000_9_5
// 010   ----------------------------------------
        BYTE   PATT
         POIN2  uno_tension_000_9_6
// 011   ----------------------------------------
        BYTE   PATT
         POIN2  uno_tension_000_9_7
// 012   ----------------------------------------
        BYTE           N12     An1   v084
        BYTE   W12
        BYTE                   En2
        BYTE   W12
        BYTE                   Cn3
        BYTE   W12
        BYTE                   En3
        BYTE   W12
        BYTE                   An1
        BYTE   W12
        BYTE                   En2
        BYTE   W12
        BYTE                   Cn3
        BYTE   W12
        BYTE                   En3
        BYTE   W12
// 013   ----------------------------------------
        BYTE                   As1
        BYTE   W12
        BYTE                   Fn2
        BYTE   W12
        BYTE                   Dn3
        BYTE   W12
        BYTE                   Fn3
        BYTE   W12
        BYTE                   As1
        BYTE   W12
        BYTE                   Fn2
        BYTE   W12
        BYTE                   Dn3
        BYTE   W12
        BYTE                   Fn3
        BYTE   W12
// 014   ----------------------------------------
        BYTE                   Cn2
        BYTE   W12
        BYTE                   Gn2
        BYTE   W12
        BYTE                   En3
        BYTE   W12
        BYTE                   Gn3
        BYTE   W12
        BYTE                   Cn2
        BYTE   W12
        BYTE                   Gn2
        BYTE   W12
        BYTE                   En3
        BYTE   W12
        BYTE                   Gn3
        BYTE   W12
// 015   ----------------------------------------
        BYTE                   As1
        BYTE   W12
        BYTE                   Fn2
        BYTE   W12
        BYTE                   Dn3
        BYTE   W12
        BYTE                   Fn3
        BYTE   W12
        BYTE                   Cn2
        BYTE   W12
        BYTE                   Gn2
        BYTE   W12
        BYTE                   En3
        BYTE   W12
        BYTE                   Gn3
        BYTE   W12
// 016   ----------------------------------------
        BYTE   W96
// 017   ----------------------------------------
        BYTE   W96
// 018   ----------------------------------------
        BYTE   W96
// 019   ----------------------------------------
        BYTE   W96
// 020   ----------------------------------------
        BYTE   W96
// 021   ----------------------------------------
        BYTE   W96
// 022   ----------------------------------------
        BYTE   W96
// 023   ----------------------------------------
        BYTE   W96
// 024   ----------------------------------------
        BYTE   W96
// 025   ----------------------------------------
        BYTE   W96
// 026   ----------------------------------------
        BYTE   W96
// 027   ----------------------------------------
        BYTE   W96
// 028   ----------------------------------------
        BYTE   W96
// 029   ----------------------------------------
        BYTE   W96
// 030   ----------------------------------------
        BYTE   W96
// 031   ----------------------------------------
        BYTE   W96
// 032   ----------------------------------------
        BYTE           TIE     Dn1   v125
        BYTE           TIE     Dn0
        BYTE   W48
        BYTE           N48     Dn2   v082
        BYTE           N48     Dn3
        BYTE   W48
// 033   ----------------------------------------
uno_tension_000_9_33:
        BYTE           N48     Dn3   v082
        BYTE           N48     Dn4
        BYTE   W48
        BYTE                   Dn2
        BYTE           N48     Dn3
        BYTE   W48
        BYTE   PEND
// 034   ----------------------------------------
        BYTE           EOT     Dn1
        BYTE                   Dn0
        BYTE           TIE     Dn1   v125
        BYTE           TIE     Dn0
        BYTE   W48
        BYTE           N48     Dn2   v082
        BYTE           N48     Dn3
        BYTE   W48
// 035   ----------------------------------------
        BYTE   PATT
         POIN2  uno_tension_000_9_33
// 036   ----------------------------------------
        BYTE           EOT     Dn1
        BYTE                   Dn0
        BYTE   W96
// 037   ----------------------------------------
        BYTE   W96
// 038   ----------------------------------------
        BYTE   W96
// 039   ----------------------------------------
        BYTE   W96
// 040   ----------------------------------------
        BYTE   W96
// 041   ----------------------------------------
        BYTE   W96
// 042   ----------------------------------------
        BYTE   W96
// 043   ----------------------------------------
        BYTE   W96
// 044   ----------------------------------------
uno_tension_000_9_44:
        BYTE           N12     Dn1   v098
        BYTE   W12
        BYTE                   Fn2
        BYTE   W12
        BYTE                   An2
        BYTE   W12
        BYTE                   Dn3
        BYTE   W12
        BYTE                   Fn3
        BYTE   W12
        BYTE                   Dn3
        BYTE   W12
        BYTE                   An2
        BYTE   W12
        BYTE                   Fn2
        BYTE   W12
        BYTE   PEND
// 045   ----------------------------------------
        BYTE   PATT
         POIN2  uno_tension_000_9_44
// 046   ----------------------------------------
        BYTE   PATT
         POIN2  uno_tension_000_9_44
// 047   ----------------------------------------
        BYTE   PATT
         POIN2  uno_tension_000_9_44
// 048   ----------------------------------------
        BYTE   GoTo
         POIN2  uno_tension_000_9_LOOP
        BYTE   FINE

//***************** Track 10 (Midi-Chn.11) *****************//

uno_tension_000_10:
        BYTE   KEYSH   uno_tension_000_key+0
// 000   ----------------------------------------
uno_tension_000_10_LOOP:
        BYTE           VOICE   115
        BYTE           VOL     43
        BYTE           PAN     c_v-15
        BYTE   W96
// 001   ----------------------------------------
        BYTE   W96
// 002   ----------------------------------------
        BYTE   W96
// 003   ----------------------------------------
        BYTE   W96
// 004   ----------------------------------------
        BYTE   W96
// 005   ----------------------------------------
        BYTE   W96
// 006   ----------------------------------------
        BYTE   W96
// 007   ----------------------------------------
        BYTE   W96
// 008   ----------------------------------------
        BYTE   W96
// 009   ----------------------------------------
        BYTE   W96
// 010   ----------------------------------------
        BYTE   W96
// 011   ----------------------------------------
        BYTE   W96
// 012   ----------------------------------------
        BYTE   W96
// 013   ----------------------------------------
        BYTE   W96
// 014   ----------------------------------------
        BYTE   W96
// 015   ----------------------------------------
        BYTE   W96
// 016   ----------------------------------------
        BYTE   W96
// 017   ----------------------------------------
        BYTE   W96
// 018   ----------------------------------------
        BYTE   W96
// 019   ----------------------------------------
        BYTE   W92
        BYTE   W03
        BYTE           N05     Dn2   v096
        BYTE   W01
// 020   ----------------------------------------
uno_tension_000_10_20:
        BYTE   W05
        BYTE           N05     Dn3   v096
        BYTE   W06
        BYTE                   An2
        BYTE   W06
        BYTE                   Fn3
        BYTE   W06
        BYTE                   Dn3
        BYTE   W06
        BYTE                   An3
        BYTE   W06
        BYTE                   Fn3
        BYTE   W06
        BYTE                   Dn4
        BYTE   W06
        BYTE                   An3
        BYTE   W06
        BYTE                   Fn4
        BYTE   W06
        BYTE                   Dn4
        BYTE   W06
        BYTE                   An4
        BYTE   W06
        BYTE                   An4
        BYTE   W06
        BYTE                   Dn4
        BYTE   W06
        BYTE                   Fn4
        BYTE   W06
        BYTE                   An3
        BYTE   W06
        BYTE                   Fn2
        BYTE   W01
        BYTE   PEND
// 021   ----------------------------------------
uno_tension_000_10_21:
        BYTE   W05
        BYTE           N05     Cn3   v096
        BYTE   W06
        BYTE                   An2
        BYTE   W06
        BYTE                   Fn3
        BYTE   W06
        BYTE                   Cn3
        BYTE   W06
        BYTE                   An3
        BYTE   W06
        BYTE                   Fn3
        BYTE   W06
        BYTE                   Cn4
        BYTE   W06
        BYTE                   An3
        BYTE   W06
        BYTE                   Fn4
        BYTE   W06
        BYTE                   Cn4
        BYTE   W06
        BYTE                   An4
        BYTE   W06
        BYTE                   An4
        BYTE   W06
        BYTE                   Cn4
        BYTE   W06
        BYTE                   Fn4
        BYTE   W06
        BYTE                   An3
        BYTE   W06
        BYTE                   Gn2
        BYTE   W01
        BYTE   PEND
// 022   ----------------------------------------
uno_tension_000_10_22:
        BYTE   W05
        BYTE           N05     En3   v096
        BYTE   W06
        BYTE                   Cn3
        BYTE   W06
        BYTE                   Cn4
        BYTE   W06
        BYTE                   En3
        BYTE   W06
        BYTE                   En4
        BYTE   W06
        BYTE                   Cn4
        BYTE   W06
        BYTE                   Cn5
        BYTE   W06
        BYTE                   Cn5
        BYTE   W06
        BYTE                   Cn4
        BYTE   W06
        BYTE                   En4
        BYTE   W06
        BYTE                   En3
        BYTE   W06
        BYTE                   Cn4
        BYTE   W06
        BYTE                   Cn3
        BYTE   W06
        BYTE                   En3
        BYTE   W06
        BYTE                   Gn2
        BYTE   W06
        BYTE                   As2
        BYTE   W01
        BYTE   PEND
// 023   ----------------------------------------
        BYTE   W05
        BYTE                   As3
        BYTE   W06
        BYTE                   Fn3
        BYTE   W06
        BYTE                   Dn4
        BYTE   W06
        BYTE                   As3
        BYTE   W06
        BYTE                   Fn4
        BYTE   W06
        BYTE                   Dn4
        BYTE   W06
        BYTE                   As4
        BYTE   W06
        BYTE                   Fn4
        BYTE   W06
        BYTE                   Dn5
        BYTE   W06
        BYTE                   Dn5
        BYTE   W06
        BYTE                   Fn4
        BYTE   W06
        BYTE                   As4
        BYTE   W06
        BYTE                   Dn4
        BYTE   W06
        BYTE                   Fn4
        BYTE   W06
        BYTE                   As3
        BYTE   W06
        BYTE                   Dn2
        BYTE   W01
// 024   ----------------------------------------
        BYTE   PATT
         POIN2  uno_tension_000_10_20
// 025   ----------------------------------------
        BYTE   PATT
         POIN2  uno_tension_000_10_21
// 026   ----------------------------------------
        BYTE   PATT
         POIN2  uno_tension_000_10_22
// 027   ----------------------------------------
        BYTE   W05
        BYTE           N05     As3   v096
        BYTE   W06
        BYTE                   Fn3
        BYTE   W06
        BYTE                   Dn4
        BYTE   W06
        BYTE                   As3
        BYTE   W06
        BYTE                   Fn4
        BYTE   W06
        BYTE                   Dn4
        BYTE   W06
        BYTE                   As4
        BYTE   W06
        BYTE                   Fn4
        BYTE   W06
        BYTE                   Dn5
        BYTE   W06
        BYTE                   Dn5
        BYTE   W06
        BYTE                   Fn4
        BYTE   W06
        BYTE                   As4
        BYTE   W06
        BYTE                   Dn4
        BYTE   W06
        BYTE                   Fn4
        BYTE   W06
        BYTE                   As3
        BYTE   W07
// 028   ----------------------------------------
        BYTE   W96
// 029   ----------------------------------------
        BYTE   W96
// 030   ----------------------------------------
        BYTE   W96
// 031   ----------------------------------------
        BYTE   W96
// 032   ----------------------------------------
        BYTE   W06
        BYTE           N04     Dn2   v104
        BYTE   W06
        BYTE                   Dn3
        BYTE   W06
        BYTE                   An2
        BYTE   W06
        BYTE                   Fn3
        BYTE   W06
        BYTE                   Dn3
        BYTE   W06
        BYTE                   An3
        BYTE   W06
        BYTE                   Fn3
        BYTE   W06
        BYTE                   Dn4
        BYTE   W06
        BYTE                   An3
        BYTE   W06
        BYTE                   Fn4
        BYTE   W06
        BYTE                   Dn4
        BYTE   W06
        BYTE                   An4
        BYTE   W06
        BYTE                   An4
        BYTE   W06
        BYTE                   Dn4
        BYTE   W06
        BYTE                   Fn4
        BYTE   W06
// 033   ----------------------------------------
uno_tension_000_10_33:
        BYTE           N04     An3   v104
        BYTE   W06
        BYTE                   Dn4
        BYTE   W06
        BYTE                   Fn3
        BYTE   W06
        BYTE                   An3
        BYTE   W06
        BYTE                   Dn3
        BYTE   W06
        BYTE                   Fn3
        BYTE   W06
        BYTE                   An2
        BYTE   W06
        BYTE                   Dn3
        BYTE   W06
        BYTE                   Dn2
        BYTE   W06
        BYTE                   Dn2
        BYTE   W06
        BYTE                   Dn3
        BYTE   W06
        BYTE                   An2
        BYTE   W06
        BYTE                   Fn3
        BYTE   W06
        BYTE                   Dn3
        BYTE   W06
        BYTE                   An3
        BYTE   W06
        BYTE                   Fn3
        BYTE   W06
        BYTE   PEND
// 034   ----------------------------------------
        BYTE                   Dn4
        BYTE   W06
        BYTE                   Dn2
        BYTE   W06
        BYTE                   Dn3
        BYTE   W06
        BYTE                   An2
        BYTE   W06
        BYTE                   Fn3
        BYTE   W06
        BYTE                   Dn3
        BYTE   W06
        BYTE                   An3
        BYTE   W06
        BYTE                   Fn3
        BYTE   W06
        BYTE                   Dn4
        BYTE   W06
        BYTE                   An3
        BYTE   W06
        BYTE                   Fn4
        BYTE   W06
        BYTE                   Dn4
        BYTE   W06
        BYTE                   An4
        BYTE   W06
        BYTE                   An4
        BYTE   W06
        BYTE                   Dn4
        BYTE   W06
        BYTE                   Fn4
        BYTE   W06
// 035   ----------------------------------------
        BYTE   PATT
         POIN2  uno_tension_000_10_33
// 036   ----------------------------------------
        BYTE           N04     Dn4   v104
        BYTE   W06
        BYTE                   Dn3   v095
        BYTE   W06
        BYTE                   An3
        BYTE   W06
        BYTE                   Fn3
        BYTE   W06
        BYTE                   Dn4
        BYTE   W06
        BYTE                   An3
        BYTE   W06
        BYTE                   Fn4
        BYTE   W06
        BYTE                   Dn4
        BYTE   W06
        BYTE                   An4
        BYTE   W06
        BYTE                   An4
        BYTE   W06
        BYTE                   Dn4
        BYTE   W06
        BYTE                   Fn4
        BYTE   W06
        BYTE                   An3
        BYTE   W06
        BYTE                   Dn4
        BYTE   W06
        BYTE                   Fn3
        BYTE   W06
        BYTE                   An3
        BYTE   W06
// 037   ----------------------------------------
uno_tension_000_10_37:
        BYTE           N04     Dn3   v095
        BYTE   W06
        BYTE                   As2
        BYTE   W06
        BYTE                   An3
        BYTE   W06
        BYTE                   Fn3
        BYTE   W06
        BYTE                   Dn4
        BYTE   W06
        BYTE                   An3
        BYTE   W06
        BYTE                   Fn4
        BYTE   W06
        BYTE                   Dn4
        BYTE   W06
        BYTE                   An4
        BYTE   W06
        BYTE                   An4
        BYTE   W06
        BYTE                   Dn4
        BYTE   W06
        BYTE                   Fn4
        BYTE   W06
        BYTE                   An3
        BYTE   W06
        BYTE                   Dn4
        BYTE   W06
        BYTE                   Fn3
        BYTE   W06
        BYTE                   An3
        BYTE   W06
        BYTE   PEND
// 038   ----------------------------------------
        BYTE                   As2
        BYTE   W06
        BYTE                   Dn3
        BYTE   W06
        BYTE                   An3
        BYTE   W06
        BYTE                   Fn3
        BYTE   W06
        BYTE                   Dn4
        BYTE   W06
        BYTE                   An3
        BYTE   W06
        BYTE                   Fn4
        BYTE   W06
        BYTE                   Dn4
        BYTE   W06
        BYTE                   An4
        BYTE   W06
        BYTE                   An4
        BYTE   W06
        BYTE                   Dn4
        BYTE   W06
        BYTE                   Fn4
        BYTE   W06
        BYTE                   An3
        BYTE   W06
        BYTE                   Dn4
        BYTE   W06
        BYTE                   Fn3
        BYTE   W06
        BYTE                   An3
        BYTE   W06
// 039   ----------------------------------------
        BYTE   PATT
         POIN2  uno_tension_000_10_37
// 040   ----------------------------------------
uno_tension_000_10_40:
        BYTE           N04     As2   v095
        BYTE   W06
        BYTE                   Cn3
        BYTE   W06
        BYTE                   Gn3
        BYTE   W06
        BYTE                   En3
        BYTE   W06
        BYTE                   Cn4
        BYTE   W06
        BYTE                   Gn3
        BYTE   W06
        BYTE                   Gn4
        BYTE   W06
        BYTE                   Cn4
        BYTE   W06
        BYTE                   Cn5
        BYTE   W06
        BYTE                   Cn5
        BYTE   W06
        BYTE                   Cn4
        BYTE   W06
        BYTE                   Gn4
        BYTE   W06
        BYTE                   Gn3
        BYTE   W06
        BYTE                   Cn4
        BYTE   W06
        BYTE                   En3
        BYTE   W06
        BYTE                   Gn3
        BYTE   W06
        BYTE   PEND
// 041   ----------------------------------------
uno_tension_000_10_41:
        BYTE           N04     Cn3   v095
        BYTE   W06
        BYTE                   As2
        BYTE   W06
        BYTE                   An3
        BYTE   W06
        BYTE                   Fn3
        BYTE   W06
        BYTE                   Dn4
        BYTE   W06
        BYTE                   An3
        BYTE   W06
        BYTE                   Fn4
        BYTE   W06
        BYTE                   Dn4
        BYTE   W06
        BYTE                   An4
        BYTE   W06
        BYTE                   An4
        BYTE   W06
        BYTE                   Dn4
        BYTE   W06
        BYTE                   Fn4
        BYTE   W06
        BYTE                   An3
        BYTE   W06
        BYTE                   Dn4
        BYTE   W06
        BYTE                   Fn3
        BYTE   W06
        BYTE                   An3
        BYTE   W06
        BYTE   PEND
// 042   ----------------------------------------
        BYTE   PATT
         POIN2  uno_tension_000_10_40
// 043   ----------------------------------------
        BYTE   PATT
         POIN2  uno_tension_000_10_41
// 044   ----------------------------------------
        BYTE           N04     As2   v095
        BYTE   W06
        BYTE                   Dn2   v096
        BYTE   W06
        BYTE                   Dn3
        BYTE   W06
        BYTE                   An2
        BYTE   W06
        BYTE                   Fn3
        BYTE   W06
        BYTE                   Dn3
        BYTE   W06
        BYTE                   An3
        BYTE   W06
        BYTE                   Fn3
        BYTE   W06
        BYTE                   Dn4
        BYTE   W06
        BYTE                   An3
        BYTE   W06
        BYTE                   Fn4
        BYTE   W06
        BYTE                   Dn4
        BYTE   W06
        BYTE                   An4
        BYTE   W06
        BYTE                   An4
        BYTE   W06
        BYTE                   Dn4
        BYTE   W06
        BYTE                   Fn4
        BYTE   W06
// 045   ----------------------------------------
        BYTE                   An3
        BYTE   W06
        BYTE                   Dn2
        BYTE   W06
        BYTE                   Dn3
        BYTE   W06
        BYTE                   An2
        BYTE   W06
        BYTE                   Fn3
        BYTE   W06
        BYTE                   Dn3
        BYTE   W06
        BYTE                   An3
        BYTE   W06
        BYTE                   Fn3
        BYTE   W06
        BYTE                   Dn4
        BYTE   W06
        BYTE                   An3
        BYTE   W06
        BYTE                   Fn4
        BYTE   W06
        BYTE                   Dn4
        BYTE   W06
        BYTE                   An4
        BYTE   W06
        BYTE                   An4
        BYTE   W06
        BYTE                   Dn4
        BYTE   W06
        BYTE                   Fn4
        BYTE   W06
// 046   ----------------------------------------
        BYTE                   An3
        BYTE   W96
// 047   ----------------------------------------
        BYTE   W96
// 048   ----------------------------------------
        BYTE   GoTo
         POIN2  uno_tension_000_10_LOOP
        BYTE   FINE


//********************** End of Song ***********************//

        ALIGN 4
uno_tension_000:
        BYTE   11                      // Num Tracks
        BYTE   0                       // Unknown
        BYTE   uno_tension_000_pri     // Priority
        BYTE   uno_tension_000_rev     // Reverb

        POIN2   uno_tension_000_grp    

        POIN2   uno_tension_000_0
        POIN2   uno_tension_000_1
        POIN2   uno_tension_000_2
        POIN2   uno_tension_000_3
        POIN2   uno_tension_000_4
        POIN2   uno_tension_000_5
        POIN2   uno_tension_000_6
        POIN2   uno_tension_000_7
        POIN2   uno_tension_000_8
        POIN2   uno_tension_000_9
        POIN2   uno_tension_000_10

        
