//Event file generated from Sappy .s format.
        #include "MPlayDef.event"

        #define    VengefulGodInDarkOceanAbyss000000_grp  voicegroup000
        #define    VengefulGodInDarkOceanAbyss000000_pri  0
        #define    VengefulGodInDarkOceanAbyss000000_rev  0
        #define    VengefulGodInDarkOceanAbyss000000_key  0

        // .rodata
        // VengefulGodInDarkOceanAbyss000000
        ALIGN 4

//****************** Track 0 (Midi-Chn.0) ******************//

VengefulGodInDarkOceanAbyss000000_0:
        BYTE   KEYSH   VengefulGodInDarkOceanAbyss000000_key+0
// 000   ----------------------------------------
        BYTE   TEMPO   116/2
VengefulGodInDarkOceanAbyss000000_0_LOOP:
        BYTE           VOICE   4
        BYTE           VOL     11
        BYTE           PAN     c_v-17
        BYTE           N32     Fs4   v120   gtp3
        BYTE   W12
        BYTE           N28     Gn4   v105   gtp1
        BYTE   W12
        BYTE                   Bn4   v115
        BYTE   W12
        BYTE           N32     En4   v115   gtp3
        BYTE   W12
        BYTE           N28     Gn4   v105   gtp1
        BYTE   W12
        BYTE           N23     Bn4   v117
        BYTE   W12
        BYTE           N17     Fs4   v120
        BYTE   W12
        BYTE           N05     Gn4   v105
        BYTE   W12
// 001   ----------------------------------------
VengefulGodInDarkOceanAbyss000000_0_1:
        BYTE           N32     Fs4   v126   gtp3
        BYTE   W12
        BYTE           N28     Gn4   v110   gtp1
        BYTE   W12
        BYTE                   Bn4   v116
        BYTE   W12
        BYTE           N32     En4   v118   gtp3
        BYTE   W12
        BYTE           N28     Gn4   v110   gtp1
        BYTE   W12
        BYTE           N23     Bn4   v107
        BYTE   W12
        BYTE           N17     Fs4   v120
        BYTE   W12
        BYTE           N05     Gn4   v106
        BYTE   W12
        BYTE   PEND
// 002   ----------------------------------------
VengefulGodInDarkOceanAbyss000000_0_2:
        BYTE           N32     Fs4   v120   gtp3
        BYTE   W12
        BYTE           N28     Gn4   v105   gtp1
        BYTE   W12
        BYTE                   Bn4   v115
        BYTE   W12
        BYTE           N32     En4   v115   gtp3
        BYTE   W12
        BYTE           N28     Gn4   v105   gtp1
        BYTE   W12
        BYTE           N23     Bn4   v117
        BYTE   W12
        BYTE           N17     Fs4   v120
        BYTE   W12
        BYTE           N05     Gn4   v105
        BYTE   W12
        BYTE   PEND
// 003   ----------------------------------------
        BYTE   PATT
         POIN2  VengefulGodInDarkOceanAbyss000000_0_1
// 004   ----------------------------------------
        BYTE   PATT
         POIN2  VengefulGodInDarkOceanAbyss000000_0_2
// 005   ----------------------------------------
        BYTE   PATT
         POIN2  VengefulGodInDarkOceanAbyss000000_0_1
// 006   ----------------------------------------
        BYTE   PATT
         POIN2  VengefulGodInDarkOceanAbyss000000_0_2
// 007   ----------------------------------------
        BYTE   PATT
         POIN2  VengefulGodInDarkOceanAbyss000000_0_1
// 008   ----------------------------------------
        BYTE   PATT
         POIN2  VengefulGodInDarkOceanAbyss000000_0_2
// 009   ----------------------------------------
        BYTE   PATT
         POIN2  VengefulGodInDarkOceanAbyss000000_0_1
// 010   ----------------------------------------
        BYTE   PATT
         POIN2  VengefulGodInDarkOceanAbyss000000_0_2
// 011   ----------------------------------------
        BYTE   PATT
         POIN2  VengefulGodInDarkOceanAbyss000000_0_1
// 012   ----------------------------------------
        BYTE   PATT
         POIN2  VengefulGodInDarkOceanAbyss000000_0_2
// 013   ----------------------------------------
        BYTE   PATT
         POIN2  VengefulGodInDarkOceanAbyss000000_0_1
// 014   ----------------------------------------
        BYTE   PATT
         POIN2  VengefulGodInDarkOceanAbyss000000_0_2
// 015   ----------------------------------------
        BYTE   PATT
         POIN2  VengefulGodInDarkOceanAbyss000000_0_1
// 016   ----------------------------------------
        BYTE   PATT
         POIN2  VengefulGodInDarkOceanAbyss000000_0_2
// 017   ----------------------------------------
        BYTE   PATT
         POIN2  VengefulGodInDarkOceanAbyss000000_0_1
// 018   ----------------------------------------
        BYTE   PATT
         POIN2  VengefulGodInDarkOceanAbyss000000_0_2
// 019   ----------------------------------------
        BYTE   PATT
         POIN2  VengefulGodInDarkOceanAbyss000000_0_1
// 020   ----------------------------------------
        BYTE   PATT
         POIN2  VengefulGodInDarkOceanAbyss000000_0_2
// 021   ----------------------------------------
        BYTE   PATT
         POIN2  VengefulGodInDarkOceanAbyss000000_0_1
// 022   ----------------------------------------
        BYTE   PATT
         POIN2  VengefulGodInDarkOceanAbyss000000_0_2
// 023   ----------------------------------------
        BYTE   PATT
         POIN2  VengefulGodInDarkOceanAbyss000000_0_1
// 024   ----------------------------------------
        BYTE   PATT
         POIN2  VengefulGodInDarkOceanAbyss000000_0_2
// 025   ----------------------------------------
        BYTE   PATT
         POIN2  VengefulGodInDarkOceanAbyss000000_0_1
// 026   ----------------------------------------
        BYTE   PATT
         POIN2  VengefulGodInDarkOceanAbyss000000_0_2
// 027   ----------------------------------------
        BYTE   PATT
         POIN2  VengefulGodInDarkOceanAbyss000000_0_1
// 028   ----------------------------------------
        BYTE   PATT
         POIN2  VengefulGodInDarkOceanAbyss000000_0_2
// 029   ----------------------------------------
        BYTE   PATT
         POIN2  VengefulGodInDarkOceanAbyss000000_0_1
// 030   ----------------------------------------
        BYTE   PATT
         POIN2  VengefulGodInDarkOceanAbyss000000_0_2
// 031   ----------------------------------------
        BYTE   PATT
         POIN2  VengefulGodInDarkOceanAbyss000000_0_1
// 032   ----------------------------------------
        BYTE   PATT
         POIN2  VengefulGodInDarkOceanAbyss000000_0_2
// 033   ----------------------------------------
        BYTE   PATT
         POIN2  VengefulGodInDarkOceanAbyss000000_0_1
// 034   ----------------------------------------
        BYTE   PATT
         POIN2  VengefulGodInDarkOceanAbyss000000_0_2
// 035   ----------------------------------------
        BYTE   PATT
         POIN2  VengefulGodInDarkOceanAbyss000000_0_1
// 036   ----------------------------------------
        BYTE   PATT
         POIN2  VengefulGodInDarkOceanAbyss000000_0_2
// 037   ----------------------------------------
        BYTE   PATT
         POIN2  VengefulGodInDarkOceanAbyss000000_0_1
// 038   ----------------------------------------
        BYTE   PATT
         POIN2  VengefulGodInDarkOceanAbyss000000_0_2
// 039   ----------------------------------------
        BYTE           N32     Fs4   v115   gtp3
        BYTE   W12
        BYTE           N28     Gn4   v099   gtp1
        BYTE   W12
        BYTE                   Bn4   v105
        BYTE   W12
        BYTE           N32     En4   v107   gtp3
        BYTE   W12
        BYTE           N28     Gn4   v099   gtp1
        BYTE   W12
        BYTE           N23     Bn4   v096
        BYTE   W12
        BYTE           N17     Fs4   v109
        BYTE   W12
        BYTE           N05     Gn4   v095
        BYTE   W12
// 040   ----------------------------------------
        BYTE   PATT
         POIN2  VengefulGodInDarkOceanAbyss000000_0_2
// 041   ----------------------------------------
        BYTE   PATT
         POIN2  VengefulGodInDarkOceanAbyss000000_0_1
// 042   ----------------------------------------
        BYTE   PATT
         POIN2  VengefulGodInDarkOceanAbyss000000_0_2
// 043   ----------------------------------------
        BYTE   PATT
         POIN2  VengefulGodInDarkOceanAbyss000000_0_1
// 044   ----------------------------------------
        BYTE   PATT
         POIN2  VengefulGodInDarkOceanAbyss000000_0_2
// 045   ----------------------------------------
        BYTE   PATT
         POIN2  VengefulGodInDarkOceanAbyss000000_0_1
// 046   ----------------------------------------
        BYTE   PATT
         POIN2  VengefulGodInDarkOceanAbyss000000_0_2
// 047   ----------------------------------------
        BYTE   PATT
         POIN2  VengefulGodInDarkOceanAbyss000000_0_1
// 048   ----------------------------------------
        BYTE   PATT
         POIN2  VengefulGodInDarkOceanAbyss000000_0_2
// 049   ----------------------------------------
        BYTE   PATT
         POIN2  VengefulGodInDarkOceanAbyss000000_0_1
// 050   ----------------------------------------
        BYTE   PATT
         POIN2  VengefulGodInDarkOceanAbyss000000_0_2
// 051   ----------------------------------------
        BYTE   PATT
         POIN2  VengefulGodInDarkOceanAbyss000000_0_1
// 052   ----------------------------------------
        BYTE   PATT
         POIN2  VengefulGodInDarkOceanAbyss000000_0_2
// 053   ----------------------------------------
        BYTE   PATT
         POIN2  VengefulGodInDarkOceanAbyss000000_0_1
// 054   ----------------------------------------
        BYTE   PATT
         POIN2  VengefulGodInDarkOceanAbyss000000_0_2
// 055   ----------------------------------------
        BYTE   PATT
         POIN2  VengefulGodInDarkOceanAbyss000000_0_1
// 056   ----------------------------------------
        BYTE   PATT
         POIN2  VengefulGodInDarkOceanAbyss000000_0_2
// 057   ----------------------------------------
        BYTE   PATT
         POIN2  VengefulGodInDarkOceanAbyss000000_0_1
// 058   ----------------------------------------
        BYTE   PATT
         POIN2  VengefulGodInDarkOceanAbyss000000_0_2
// 059   ----------------------------------------
        BYTE   PATT
         POIN2  VengefulGodInDarkOceanAbyss000000_0_1
// 060   ----------------------------------------
        BYTE   PATT
         POIN2  VengefulGodInDarkOceanAbyss000000_0_2
// 061   ----------------------------------------
        BYTE   PATT
         POIN2  VengefulGodInDarkOceanAbyss000000_0_1
// 062   ----------------------------------------
        BYTE   PATT
         POIN2  VengefulGodInDarkOceanAbyss000000_0_2
// 063   ----------------------------------------
        BYTE   PATT
         POIN2  VengefulGodInDarkOceanAbyss000000_0_1
// 064   ----------------------------------------
        BYTE   PATT
         POIN2  VengefulGodInDarkOceanAbyss000000_0_2
// 065   ----------------------------------------
        BYTE   PATT
         POIN2  VengefulGodInDarkOceanAbyss000000_0_1
// 066   ----------------------------------------
        BYTE   PATT
         POIN2  VengefulGodInDarkOceanAbyss000000_0_2
// 067   ----------------------------------------
        BYTE   PATT
         POIN2  VengefulGodInDarkOceanAbyss000000_0_1
// 068   ----------------------------------------
        BYTE   PATT
         POIN2  VengefulGodInDarkOceanAbyss000000_0_2
// 069   ----------------------------------------
        BYTE   PATT
         POIN2  VengefulGodInDarkOceanAbyss000000_0_1
// 070   ----------------------------------------
        BYTE   PATT
         POIN2  VengefulGodInDarkOceanAbyss000000_0_2
// 071   ----------------------------------------
        BYTE   PATT
         POIN2  VengefulGodInDarkOceanAbyss000000_0_1
// 072   ----------------------------------------
        BYTE   PATT
         POIN2  VengefulGodInDarkOceanAbyss000000_0_2
// 073   ----------------------------------------
        BYTE   PATT
         POIN2  VengefulGodInDarkOceanAbyss000000_0_1
// 074   ----------------------------------------
        BYTE   PATT
         POIN2  VengefulGodInDarkOceanAbyss000000_0_2
// 075   ----------------------------------------
        BYTE   PATT
         POIN2  VengefulGodInDarkOceanAbyss000000_0_1
// 076   ----------------------------------------
        BYTE   PATT
         POIN2  VengefulGodInDarkOceanAbyss000000_0_2
// 077   ----------------------------------------
        BYTE   PATT
         POIN2  VengefulGodInDarkOceanAbyss000000_0_1
// 078   ----------------------------------------
        BYTE   PATT
         POIN2  VengefulGodInDarkOceanAbyss000000_0_2
// 079   ----------------------------------------
        BYTE           N32     Fs4   v126   gtp3
        BYTE   W12
        BYTE           N28     Gn4   v110   gtp1
        BYTE   W12
        BYTE                   Bn4   v116
        BYTE   W12
        BYTE           N32     En4   v118   gtp3
        BYTE   W12
        BYTE           N28     Gn4   v110   gtp1
        BYTE   W12
        BYTE           N23     Bn4   v107
        BYTE   W12
        BYTE           N17     Fs4   v120
        BYTE   W12
        BYTE           N05     Gn4   v106
        BYTE   W09
        BYTE   GoTo
         POIN2  VengefulGodInDarkOceanAbyss000000_0_LOOP
        BYTE   W02
        BYTE   FINE

//****************** Track 1 (Midi-Chn.1) ******************//

VengefulGodInDarkOceanAbyss000000_1:
        BYTE   KEYSH   VengefulGodInDarkOceanAbyss000000_key+0
// 000   ----------------------------------------
VengefulGodInDarkOceanAbyss000000_1_LOOP:
        BYTE           VOICE   19
        BYTE           VOL     29
        BYTE           PAN     c_v-1
        BYTE           TIE     En2   v074
        BYTE           TIE     Bn2   v072
        BYTE           TIE     En0   v075
        BYTE   W96
// 001   ----------------------------------------
VengefulGodInDarkOceanAbyss000000_1_1:
        BYTE   W88
        BYTE   W01
        BYTE           EOT     En0
        BYTE   W05
        BYTE                   En2
        BYTE   W01
        BYTE           TIE     Gn2   v078
        BYTE           TIE     Dn3   v076
        BYTE   W01
        BYTE   PEND
// 002   ----------------------------------------
VengefulGodInDarkOceanAbyss000000_1_2:
        BYTE   W01
        BYTE           TIE     Gn0   v075
        BYTE   W01
        BYTE           EOT     Bn2
        BYTE   W92
        BYTE   W02
        BYTE   PEND
// 003   ----------------------------------------
VengefulGodInDarkOceanAbyss000000_1_3:
        BYTE   W88
        BYTE           EOT     Gn0
        BYTE   W07
        BYTE                   Gn2
        BYTE   W01
        BYTE   PEND
// 004   ----------------------------------------
VengefulGodInDarkOceanAbyss000000_1_4:
        BYTE           EOT     Dn3
        BYTE           TIE     Fs2   v080
        BYTE           TIE     Cs3
        BYTE           TIE     Fs0   v075
        BYTE   W96
        BYTE   PEND
// 005   ----------------------------------------
VengefulGodInDarkOceanAbyss000000_1_5:
        BYTE   W90
        BYTE           EOT     Fs0
        BYTE   W05
        BYTE                   Cs3
        BYTE   W01
        BYTE   PEND
// 006   ----------------------------------------
VengefulGodInDarkOceanAbyss000000_1_6:
        BYTE           EOT     Fs2
        BYTE           TIE     Cn2   v075
        BYTE           TIE     Gn2   v070
        BYTE   W01
        BYTE                   Cn0   v075
        BYTE   W92
        BYTE   W03
        BYTE   PEND
// 007   ----------------------------------------
VengefulGodInDarkOceanAbyss000000_1_7:
        BYTE   W92
        BYTE   W01
        BYTE           EOT     Gn2
        BYTE                   Cn0
        BYTE                   Cn2
        BYTE   W03
        BYTE   PEND
// 008   ----------------------------------------
VengefulGodInDarkOceanAbyss000000_1_8:
        BYTE           TIE     En2   v074
        BYTE           TIE     Bn2   v072
        BYTE           TIE     En0   v075
        BYTE   W96
        BYTE   PEND
// 009   ----------------------------------------
        BYTE   PATT
         POIN2  VengefulGodInDarkOceanAbyss000000_1_1
// 010   ----------------------------------------
        BYTE   PATT
         POIN2  VengefulGodInDarkOceanAbyss000000_1_2
// 011   ----------------------------------------
        BYTE   PATT
         POIN2  VengefulGodInDarkOceanAbyss000000_1_3
// 012   ----------------------------------------
        BYTE   PATT
         POIN2  VengefulGodInDarkOceanAbyss000000_1_4
// 013   ----------------------------------------
        BYTE   PATT
         POIN2  VengefulGodInDarkOceanAbyss000000_1_5
// 014   ----------------------------------------
        BYTE   PATT
         POIN2  VengefulGodInDarkOceanAbyss000000_1_6
// 015   ----------------------------------------
        BYTE   PATT
         POIN2  VengefulGodInDarkOceanAbyss000000_1_7
// 016   ----------------------------------------
        BYTE   PATT
         POIN2  VengefulGodInDarkOceanAbyss000000_1_8
// 017   ----------------------------------------
        BYTE   PATT
         POIN2  VengefulGodInDarkOceanAbyss000000_1_1
// 018   ----------------------------------------
        BYTE   PATT
         POIN2  VengefulGodInDarkOceanAbyss000000_1_2
// 019   ----------------------------------------
        BYTE   PATT
         POIN2  VengefulGodInDarkOceanAbyss000000_1_3
// 020   ----------------------------------------
        BYTE   PATT
         POIN2  VengefulGodInDarkOceanAbyss000000_1_4
// 021   ----------------------------------------
        BYTE   PATT
         POIN2  VengefulGodInDarkOceanAbyss000000_1_5
// 022   ----------------------------------------
        BYTE   PATT
         POIN2  VengefulGodInDarkOceanAbyss000000_1_6
// 023   ----------------------------------------
        BYTE   PATT
         POIN2  VengefulGodInDarkOceanAbyss000000_1_7
// 024   ----------------------------------------
        BYTE   PATT
         POIN2  VengefulGodInDarkOceanAbyss000000_1_8
// 025   ----------------------------------------
        BYTE   PATT
         POIN2  VengefulGodInDarkOceanAbyss000000_1_1
// 026   ----------------------------------------
        BYTE   PATT
         POIN2  VengefulGodInDarkOceanAbyss000000_1_2
// 027   ----------------------------------------
        BYTE   PATT
         POIN2  VengefulGodInDarkOceanAbyss000000_1_3
// 028   ----------------------------------------
        BYTE   PATT
         POIN2  VengefulGodInDarkOceanAbyss000000_1_4
// 029   ----------------------------------------
        BYTE   PATT
         POIN2  VengefulGodInDarkOceanAbyss000000_1_5
// 030   ----------------------------------------
        BYTE   PATT
         POIN2  VengefulGodInDarkOceanAbyss000000_1_6
// 031   ----------------------------------------
        BYTE   PATT
         POIN2  VengefulGodInDarkOceanAbyss000000_1_7
// 032   ----------------------------------------
        BYTE   PATT
         POIN2  VengefulGodInDarkOceanAbyss000000_1_8
// 033   ----------------------------------------
        BYTE   PATT
         POIN2  VengefulGodInDarkOceanAbyss000000_1_1
// 034   ----------------------------------------
        BYTE   PATT
         POIN2  VengefulGodInDarkOceanAbyss000000_1_2
// 035   ----------------------------------------
        BYTE   PATT
         POIN2  VengefulGodInDarkOceanAbyss000000_1_3
// 036   ----------------------------------------
        BYTE   PATT
         POIN2  VengefulGodInDarkOceanAbyss000000_1_4
// 037   ----------------------------------------
        BYTE   PATT
         POIN2  VengefulGodInDarkOceanAbyss000000_1_5
// 038   ----------------------------------------
        BYTE           EOT     Fs2
        BYTE           N92     Cn2   v075   gtp3
        BYTE                   Gn2   v070
        BYTE   W01
        BYTE           N92     Cn0   v075   gtp2
        BYTE   W92
        BYTE   W03
// 039   ----------------------------------------
        BYTE   W96
// 040   ----------------------------------------
        BYTE   PATT
         POIN2  VengefulGodInDarkOceanAbyss000000_1_8
// 041   ----------------------------------------
        BYTE   PATT
         POIN2  VengefulGodInDarkOceanAbyss000000_1_1
// 042   ----------------------------------------
        BYTE   PATT
         POIN2  VengefulGodInDarkOceanAbyss000000_1_2
// 043   ----------------------------------------
        BYTE   PATT
         POIN2  VengefulGodInDarkOceanAbyss000000_1_3
// 044   ----------------------------------------
        BYTE   PATT
         POIN2  VengefulGodInDarkOceanAbyss000000_1_4
// 045   ----------------------------------------
        BYTE   PATT
         POIN2  VengefulGodInDarkOceanAbyss000000_1_5
// 046   ----------------------------------------
        BYTE   PATT
         POIN2  VengefulGodInDarkOceanAbyss000000_1_6
// 047   ----------------------------------------
        BYTE   PATT
         POIN2  VengefulGodInDarkOceanAbyss000000_1_7
// 048   ----------------------------------------
        BYTE   PATT
         POIN2  VengefulGodInDarkOceanAbyss000000_1_8
// 049   ----------------------------------------
        BYTE   PATT
         POIN2  VengefulGodInDarkOceanAbyss000000_1_1
// 050   ----------------------------------------
        BYTE   PATT
         POIN2  VengefulGodInDarkOceanAbyss000000_1_2
// 051   ----------------------------------------
        BYTE   PATT
         POIN2  VengefulGodInDarkOceanAbyss000000_1_3
// 052   ----------------------------------------
        BYTE   PATT
         POIN2  VengefulGodInDarkOceanAbyss000000_1_4
// 053   ----------------------------------------
        BYTE   PATT
         POIN2  VengefulGodInDarkOceanAbyss000000_1_5
// 054   ----------------------------------------
        BYTE   PATT
         POIN2  VengefulGodInDarkOceanAbyss000000_1_6
// 055   ----------------------------------------
        BYTE   PATT
         POIN2  VengefulGodInDarkOceanAbyss000000_1_7
// 056   ----------------------------------------
        BYTE   PATT
         POIN2  VengefulGodInDarkOceanAbyss000000_1_8
// 057   ----------------------------------------
        BYTE   PATT
         POIN2  VengefulGodInDarkOceanAbyss000000_1_1
// 058   ----------------------------------------
        BYTE   PATT
         POIN2  VengefulGodInDarkOceanAbyss000000_1_2
// 059   ----------------------------------------
        BYTE   PATT
         POIN2  VengefulGodInDarkOceanAbyss000000_1_3
// 060   ----------------------------------------
        BYTE   PATT
         POIN2  VengefulGodInDarkOceanAbyss000000_1_4
// 061   ----------------------------------------
        BYTE   PATT
         POIN2  VengefulGodInDarkOceanAbyss000000_1_5
// 062   ----------------------------------------
        BYTE   PATT
         POIN2  VengefulGodInDarkOceanAbyss000000_1_6
// 063   ----------------------------------------
        BYTE   PATT
         POIN2  VengefulGodInDarkOceanAbyss000000_1_7
// 064   ----------------------------------------
        BYTE   PATT
         POIN2  VengefulGodInDarkOceanAbyss000000_1_8
// 065   ----------------------------------------
        BYTE   PATT
         POIN2  VengefulGodInDarkOceanAbyss000000_1_1
// 066   ----------------------------------------
        BYTE   PATT
         POIN2  VengefulGodInDarkOceanAbyss000000_1_2
// 067   ----------------------------------------
        BYTE   PATT
         POIN2  VengefulGodInDarkOceanAbyss000000_1_3
// 068   ----------------------------------------
        BYTE   PATT
         POIN2  VengefulGodInDarkOceanAbyss000000_1_4
// 069   ----------------------------------------
        BYTE   PATT
         POIN2  VengefulGodInDarkOceanAbyss000000_1_5
// 070   ----------------------------------------
        BYTE   PATT
         POIN2  VengefulGodInDarkOceanAbyss000000_1_6
// 071   ----------------------------------------
        BYTE   PATT
         POIN2  VengefulGodInDarkOceanAbyss000000_1_7
// 072   ----------------------------------------
        BYTE   PATT
         POIN2  VengefulGodInDarkOceanAbyss000000_1_8
// 073   ----------------------------------------
        BYTE   PATT
         POIN2  VengefulGodInDarkOceanAbyss000000_1_1
// 074   ----------------------------------------
        BYTE   PATT
         POIN2  VengefulGodInDarkOceanAbyss000000_1_2
// 075   ----------------------------------------
        BYTE   PATT
         POIN2  VengefulGodInDarkOceanAbyss000000_1_3
// 076   ----------------------------------------
        BYTE   PATT
         POIN2  VengefulGodInDarkOceanAbyss000000_1_4
// 077   ----------------------------------------
        BYTE   PATT
         POIN2  VengefulGodInDarkOceanAbyss000000_1_5
// 078   ----------------------------------------
        BYTE   PATT
         POIN2  VengefulGodInDarkOceanAbyss000000_1_6
// 079   ----------------------------------------
        BYTE   W92
        BYTE   W01
        BYTE           EOT     Gn2
        BYTE                   Cn0
        BYTE                   Cn2
        BYTE   GoTo
         POIN2  VengefulGodInDarkOceanAbyss000000_1_LOOP
        BYTE   W02
        BYTE   FINE

//****************** Track 2 (Midi-Chn.2) ******************//

VengefulGodInDarkOceanAbyss000000_2:
        BYTE   KEYSH   VengefulGodInDarkOceanAbyss000000_key+0
// 000   ----------------------------------------
VengefulGodInDarkOceanAbyss000000_2_LOOP:
        BYTE           VOICE   39
        BYTE           PAN     c_v+15
        BYTE           VOL     44
        BYTE   W96
// 001   ----------------------------------------
        BYTE   W96
// 002   ----------------------------------------
        BYTE   W96
// 003   ----------------------------------------
        BYTE   W96
// 004   ----------------------------------------
        BYTE   W96
// 005   ----------------------------------------
        BYTE   W96
// 006   ----------------------------------------
        BYTE   W96
// 007   ----------------------------------------
        BYTE   W96
// 008   ----------------------------------------
VengefulGodInDarkOceanAbyss000000_2_8:
        BYTE           N10     En1   v076
        BYTE   W18
        BYTE           N06     En1   v078
        BYTE   W18
        BYTE           N08     En2   v080
        BYTE   W24
        BYTE           N05     En1   v076
        BYTE   W12
        BYTE           N07     En1   v073
        BYTE   W06
        BYTE           N05     Bn1
        BYTE   W06
        BYTE           N07     En1   v070
        BYTE   W05
        BYTE                   En2   v078
        BYTE   W07
        BYTE   PEND
// 009   ----------------------------------------
        BYTE   PATT
         POIN2  VengefulGodInDarkOceanAbyss000000_2_8
// 010   ----------------------------------------
        BYTE   PATT
         POIN2  VengefulGodInDarkOceanAbyss000000_2_8
// 011   ----------------------------------------
        BYTE   PATT
         POIN2  VengefulGodInDarkOceanAbyss000000_2_8
// 012   ----------------------------------------
        BYTE   PATT
         POIN2  VengefulGodInDarkOceanAbyss000000_2_8
// 013   ----------------------------------------
        BYTE   PATT
         POIN2  VengefulGodInDarkOceanAbyss000000_2_8
// 014   ----------------------------------------
        BYTE   PATT
         POIN2  VengefulGodInDarkOceanAbyss000000_2_8
// 015   ----------------------------------------
        BYTE           N10     En1   v076
        BYTE   W18
        BYTE           N06     En1   v078
        BYTE   W18
        BYTE           N08     En2   v080
        BYTE   W12
        BYTE           N05     Cn1   v078
        BYTE   W06
        BYTE                   Cn2   v073
        BYTE   W06
        BYTE                   Cn1
        BYTE   W06
        BYTE                   Cn2
        BYTE   W12
        BYTE                   Dn2
        BYTE   W06
        BYTE                   Dn1
        BYTE   W06
        BYTE                   Dn2
        BYTE   W06
// 016   ----------------------------------------
        BYTE   PATT
         POIN2  VengefulGodInDarkOceanAbyss000000_2_8
// 017   ----------------------------------------
        BYTE   PATT
         POIN2  VengefulGodInDarkOceanAbyss000000_2_8
// 018   ----------------------------------------
        BYTE   PATT
         POIN2  VengefulGodInDarkOceanAbyss000000_2_8
// 019   ----------------------------------------
        BYTE   PATT
         POIN2  VengefulGodInDarkOceanAbyss000000_2_8
// 020   ----------------------------------------
        BYTE   PATT
         POIN2  VengefulGodInDarkOceanAbyss000000_2_8
// 021   ----------------------------------------
        BYTE   PATT
         POIN2  VengefulGodInDarkOceanAbyss000000_2_8
// 022   ----------------------------------------
        BYTE   PATT
         POIN2  VengefulGodInDarkOceanAbyss000000_2_8
// 023   ----------------------------------------
        BYTE   PATT
         POIN2  VengefulGodInDarkOceanAbyss000000_2_8
// 024   ----------------------------------------
        BYTE   PATT
         POIN2  VengefulGodInDarkOceanAbyss000000_2_8
// 025   ----------------------------------------
        BYTE   PATT
         POIN2  VengefulGodInDarkOceanAbyss000000_2_8
// 026   ----------------------------------------
        BYTE   PATT
         POIN2  VengefulGodInDarkOceanAbyss000000_2_8
// 027   ----------------------------------------
        BYTE   PATT
         POIN2  VengefulGodInDarkOceanAbyss000000_2_8
// 028   ----------------------------------------
        BYTE   PATT
         POIN2  VengefulGodInDarkOceanAbyss000000_2_8
// 029   ----------------------------------------
        BYTE   PATT
         POIN2  VengefulGodInDarkOceanAbyss000000_2_8
// 030   ----------------------------------------
        BYTE   PATT
         POIN2  VengefulGodInDarkOceanAbyss000000_2_8
// 031   ----------------------------------------
        BYTE   PATT
         POIN2  VengefulGodInDarkOceanAbyss000000_2_8
// 032   ----------------------------------------
        BYTE   PATT
         POIN2  VengefulGodInDarkOceanAbyss000000_2_8
// 033   ----------------------------------------
        BYTE   PATT
         POIN2  VengefulGodInDarkOceanAbyss000000_2_8
// 034   ----------------------------------------
        BYTE   PATT
         POIN2  VengefulGodInDarkOceanAbyss000000_2_8
// 035   ----------------------------------------
        BYTE   PATT
         POIN2  VengefulGodInDarkOceanAbyss000000_2_8
// 036   ----------------------------------------
        BYTE   PATT
         POIN2  VengefulGodInDarkOceanAbyss000000_2_8
// 037   ----------------------------------------
        BYTE   PATT
         POIN2  VengefulGodInDarkOceanAbyss000000_2_8
// 038   ----------------------------------------
        BYTE   PATT
         POIN2  VengefulGodInDarkOceanAbyss000000_2_8
// 039   ----------------------------------------
        BYTE   W96
// 040   ----------------------------------------
        BYTE   W96
// 041   ----------------------------------------
        BYTE   W96
// 042   ----------------------------------------
        BYTE   W96
// 043   ----------------------------------------
        BYTE   W96
// 044   ----------------------------------------
        BYTE   W96
// 045   ----------------------------------------
        BYTE   W96
// 046   ----------------------------------------
        BYTE   W96
// 047   ----------------------------------------
        BYTE   W96
// 048   ----------------------------------------
        BYTE   W96
// 049   ----------------------------------------
        BYTE   W96
// 050   ----------------------------------------
        BYTE   W96
// 051   ----------------------------------------
        BYTE   W96
// 052   ----------------------------------------
        BYTE   W96
// 053   ----------------------------------------
        BYTE   W96
// 054   ----------------------------------------
        BYTE   W96
// 055   ----------------------------------------
        BYTE   W96
// 056   ----------------------------------------
        BYTE   W96
// 057   ----------------------------------------
        BYTE   W96
// 058   ----------------------------------------
        BYTE   W96
// 059   ----------------------------------------
        BYTE   W96
// 060   ----------------------------------------
        BYTE   W96
// 061   ----------------------------------------
        BYTE   W96
// 062   ----------------------------------------
        BYTE   W96
// 063   ----------------------------------------
        BYTE   W96
// 064   ----------------------------------------
        BYTE   W96
// 065   ----------------------------------------
        BYTE   W96
// 066   ----------------------------------------
        BYTE   W96
// 067   ----------------------------------------
        BYTE   W96
// 068   ----------------------------------------
        BYTE   W96
// 069   ----------------------------------------
        BYTE   W96
// 070   ----------------------------------------
        BYTE   W96
// 071   ----------------------------------------
        BYTE   W96
// 072   ----------------------------------------
        BYTE   W96
// 073   ----------------------------------------
        BYTE   W96
// 074   ----------------------------------------
        BYTE   W96
// 075   ----------------------------------------
        BYTE   W96
// 076   ----------------------------------------
        BYTE   W96
// 077   ----------------------------------------
        BYTE   W96
// 078   ----------------------------------------
        BYTE   W96
// 079   ----------------------------------------
        BYTE   W92
        BYTE   W01
        BYTE   GoTo
         POIN2  VengefulGodInDarkOceanAbyss000000_2_LOOP
        BYTE   W02
        BYTE   FINE

//****************** Track 3 (Midi-Chn.3) ******************//

VengefulGodInDarkOceanAbyss000000_3:
        BYTE   KEYSH   VengefulGodInDarkOceanAbyss000000_key+0
// 000   ----------------------------------------
VengefulGodInDarkOceanAbyss000000_3_LOOP:
        BYTE           VOICE   68
        BYTE           PAN     c_v-1
        BYTE           VOL     25
        BYTE   W96
// 001   ----------------------------------------
        BYTE   W96
// 002   ----------------------------------------
        BYTE   W96
// 003   ----------------------------------------
        BYTE   W96
// 004   ----------------------------------------
        BYTE   W96
// 005   ----------------------------------------
        BYTE   W96
// 006   ----------------------------------------
        BYTE   W96
// 007   ----------------------------------------
        BYTE   W96
// 008   ----------------------------------------
        BYTE   W01
        BYTE           N68     En3   v123   gtp1
        BYTE   W68
        BYTE   W03
        BYTE           N03     Bn2   v116
        BYTE   W03
        BYTE                   En3
        BYTE   W03
        BYTE                   Fs3   v118
        BYTE   W03
        BYTE                   Gn3   v116
        BYTE   W03
        BYTE           N07     Bn3   v115
        BYTE   W03
        BYTE           N05     En4   v117
        BYTE   W03
        BYTE           N02     Fs4   v108
        BYTE   W03
        BYTE           N05     Bn4   v125
        BYTE   W03
// 009   ----------------------------------------
        BYTE   W02
        BYTE           N72     Fs4   v121   gtp3
        BYTE   W80
        BYTE   W02
        BYTE           N13     En4   v123
        BYTE   W12
// 010   ----------------------------------------
        BYTE   W01
        BYTE           N80     Fs4   v121   gtp2
        BYTE   W80
        BYTE   W03
        BYTE           N05     An4   v120
        BYTE   W05
        BYTE           N08     Gn4   v122
        BYTE   W07
// 011   ----------------------------------------
        BYTE   W01
        BYTE           N68     Fs4   v120   gtp3
        BYTE   W76
        BYTE   W01
        BYTE           N03     Bn2   v111
        BYTE   W03
        BYTE                   En3
        BYTE   W03
        BYTE                   Fs3   v113
        BYTE   W03
        BYTE                   Gn3   v111
        BYTE   W03
        BYTE           N07     Bn3   v110
        BYTE   W03
        BYTE           N04     En4   v114
        BYTE   W03
// 012   ----------------------------------------
        BYTE           N80     Fs4   v124   gtp1
        BYTE   W84
        BYTE   W01
        BYTE           N09     En4   v120
        BYTE   W09
        BYTE           N05     An3   v109
        BYTE   W02
// 013   ----------------------------------------
        BYTE   W02
        BYTE           N76     Bn3   v119   gtp1
        BYTE   W80
        BYTE   W03
        BYTE           N06     Bn3   v123
        BYTE   W06
        BYTE           N07     An3   v116
        BYTE   W05
// 014   ----------------------------------------
        BYTE           N78     Bn3   v122
        BYTE   W80
        BYTE   W03
        BYTE           N06     Cn4   v118
        BYTE   W06
        BYTE                   Dn4   v122
        BYTE   W06
        BYTE           N15     Bn3   v126
        BYTE   W01
// 015   ----------------------------------------
        BYTE   W16
        BYTE           N03     An3   v122
        BYTE   W02
        BYTE           N17     Bn3   v121
        BYTE   W16
        BYTE           N14     An3
        BYTE   W14
        BYTE           N17     Gn3
        BYTE   W17
        BYTE           N18     An3   v118
        BYTE   W17
        BYTE           N10     Bn3   v119
        BYTE   W11
        BYTE           N04     En3   v116
        BYTE   W03
// 016   ----------------------------------------
        BYTE           N76     Fs3   v120
        BYTE   W84
        BYTE   W01
        BYTE           N05     Gn3
        BYTE   W05
        BYTE           N07     En3   v117
        BYTE   W05
        BYTE           N24     Fs3   v121   gtp2
        BYTE   W01
// 017   ----------------------------------------
        BYTE   W23
        BYTE           N24     En3   v121   gtp3
        BYTE   W24
        BYTE   W01
        BYTE           N24     Fs3   v120   gtp2
        BYTE   W24
        BYTE   W01
        BYTE           N21     Gn3   v122
        BYTE   W21
        BYTE           N02     An3   v112
        BYTE   W02
// 018   ----------------------------------------
        BYTE   W01
        BYTE           N80     Bn3   v122   gtp3
        BYTE   W80
        BYTE   W03
        BYTE           N07     Cn4
        BYTE   W05
        BYTE           N08     Dn4   v123
        BYTE   W07
// 019   ----------------------------------------
        BYTE           N76     Bn3   v126
        BYTE   W84
        BYTE   W01
        BYTE           N05
        BYTE   W05
        BYTE           N06     An3   v124
        BYTE   W06
// 020   ----------------------------------------
        BYTE           N78     Bn3   v126
        BYTE   W84
        BYTE           N06
        BYTE   W06
        BYTE           N07     An3   v114
        BYTE   W06
// 021   ----------------------------------------
        BYTE           N14     Bn3   v123
        BYTE   W15
        BYTE           N03     An3   v114
        BYTE   W03
        BYTE           N17     Bn3   v123
        BYTE   W16
        BYTE           N12     An3   v125
        BYTE   W14
        BYTE           N18     Bn3   v123
        BYTE   W18
        BYTE                   Dn4   v117
        BYTE   W17
        BYTE           N10     Bn3   v127
        BYTE   W11
        BYTE           N03     Dn4
        BYTE   W02
// 022   ----------------------------------------
        BYTE           N68     En4   v127   gtp1
        BYTE   W72
        BYTE   W03
        BYTE           N02     En2   v088
        BYTE   W03
        BYTE                   Bn2   v111
        BYTE   W03
        BYTE                   En3   v121
        BYTE   W03
        BYTE                   Fs3   v122
        BYTE   W03
        BYTE                   Gn3   v126
        BYTE   W03
        BYTE           N05     Bn3
        BYTE   W03
        BYTE           N02     Dn4
        BYTE   W02
        BYTE           N17     En4
        BYTE   W01
// 023   ----------------------------------------
        BYTE   W17
        BYTE           N02     Dn4   v122
        BYTE   W01
        BYTE           N18     En4   v127
        BYTE   W17
        BYTE           N11     Fs4   v126
        BYTE   W12
        BYTE           N03     Gn4
        BYTE   W02
        BYTE           N15     An4   v127
        BYTE   W18
        BYTE           N18     An4   v126
        BYTE   W16
        BYTE           N11     Gn4   v122
        BYTE   W12
        BYTE           N05     An4   v127
        BYTE   W01
// 024   ----------------------------------------
        BYTE   W02
        BYTE           TIE     Bn4   v124
        BYTE   W92
        BYTE   W02
// 025   ----------------------------------------
        BYTE   W28
        BYTE   W01
        BYTE           EOT
        BYTE   W09
        BYTE           N04     Fs4   v117
        BYTE   W03
        BYTE           N08     Gn4   v126
        BYTE   W06
        BYTE           N21     An4   v127
        BYTE   W19
        BYTE           N16     Bn4   v124
        BYTE   W15
        BYTE           N14     Gn4   v127
        BYTE   W14
        BYTE           N05     An4
        BYTE   W01
// 026   ----------------------------------------
        BYTE   W02
        BYTE           N11     Bn4
        BYTE   W15
        BYTE           N03     An4   v122
        BYTE   W02
        BYTE           N64     Bn4   v123   gtp1
        BYTE   W66
        BYTE   W01
        BYTE           N06     Fs4   v118
        BYTE   W04
        BYTE           N07     Gn4   v125
        BYTE   W06
// 027   ----------------------------------------
        BYTE   W01
        BYTE           N18     An4   v127
        BYTE   W17
        BYTE           N17     Bn4
        BYTE   W16
        BYTE           N15     Gn4   v125
        BYTE   W15
        BYTE           N17     Bn4   v127
        BYTE   W17
        BYTE           N18     Fs4   v126
        BYTE   W17
        BYTE           N14     Gn4   v125
        BYTE   W13
// 028   ----------------------------------------
        BYTE           N05     An4   v124
        BYTE   W03
        BYTE           N12     Bn4   v127
        BYTE   W16
        BYTE           N16     Bn4   v123
        BYTE   W16
        BYTE           N03     Gn4   v127
        BYTE   W03
        BYTE           N84     An4   v122
        BYTE   W56
        BYTE   W02
// 029   ----------------------------------------
        BYTE   W36
        BYTE           N11     En4   v124
        BYTE   W12
        BYTE           N02     En4   v120
        BYTE   W03
        BYTE           N12     Fs4   v127
        BYTE   W16
        BYTE           N18     En4
        BYTE   W17
        BYTE           N13     Fs4   v124
        BYTE   W11
        BYTE           N05     Gn4   v120
        BYTE   W01
// 030   ----------------------------------------
        BYTE   W02
        BYTE           N13     An4   v127
        BYTE   W17
        BYTE           N12
        BYTE   W18
        BYTE           N76     Gn4   v123   gtp1
        BYTE   W56
        BYTE   W03
// 031   ----------------------------------------
        BYTE   W24
        BYTE           N02     En2   v088
        BYTE   W03
        BYTE                   Bn2   v111
        BYTE   W03
        BYTE                   En3   v121
        BYTE   W03
        BYTE                   Fs3   v122
        BYTE   W03
        BYTE                   Gn3   v126
        BYTE   W03
        BYTE                   Bn3
        BYTE   W03
        BYTE                   En4
        BYTE   W03
        BYTE                   Gn4   v127
        BYTE   W02
        BYTE           N19     Fs4   v122
        BYTE   W19
        BYTE                   En4   v127
        BYTE   W18
        BYTE           N11     Fs4   v122
        BYTE   W11
        BYTE           N05     En4   v127
        BYTE   W01
// 032   ----------------------------------------
        BYTE   W03
        BYTE           N14     Fs4   v116
        BYTE   W16
        BYTE           N18     Fs4   v122
        BYTE   W18
        BYTE           TIE     Gn4
        BYTE   W56
        BYTE   W03
// 033   ----------------------------------------
        BYTE   W48
        BYTE           EOT
        BYTE   W12
        BYTE           N12     Bn3   v120
        BYTE   W12
        BYTE           N13     En4   v121
        BYTE   W12
        BYTE           N11     Gn4
        BYTE   W12
// 034   ----------------------------------------
        BYTE           N19     Fs4
        BYTE   W17
        BYTE                   Gn4   v119
        BYTE   W19
        BYTE           N02     Cs4   v111
        BYTE   W02
        BYTE           TIE     Dn4   v126
        BYTE   W56
        BYTE   W02
// 035   ----------------------------------------
        BYTE   W44
        BYTE   W02
        BYTE           EOT
        BYTE   W10
        BYTE           N08     Bn2   v102
        BYTE   W07
        BYTE           N10     Fs3   v116
        BYTE   W05
        BYTE           N05     Bn3   v125
        BYTE   W04
        BYTE           N11     Dn4   v123
        BYTE   W07
        BYTE           N08     En4   v114
        BYTE   W05
        BYTE           N09     Fs4   v123
        BYTE   W06
        BYTE           N04     Gn4   v114
        BYTE   W06
// 036   ----------------------------------------
        BYTE   W01
        BYTE           N17     Fs4   v120
        BYTE   W19
        BYTE           N12     Gn4   v115
        BYTE   W18
        BYTE           N03     An4
        BYTE   W02
        BYTE           N92     Bn4   v127   gtp2
        BYTE   W56
// 037   ----------------------------------------
        BYTE   W44
        BYTE   W03
        BYTE           N05     An4
        BYTE   W04
        BYTE           N16     Bn4   v118
        BYTE   W15
        BYTE           N18     An4   v127
        BYTE   W19
        BYTE           N07     Gn4
        BYTE   W11
// 038   ----------------------------------------
        BYTE   W02
        BYTE           N16     Fs4   v126
        BYTE   W16
        BYTE           N14     Gn4   v127
        BYTE   W17
        BYTE           N02     Cn5   v118
        BYTE   W02
        BYTE           TIE     Dn5   v125
        BYTE   W56
        BYTE   W03
// 039   ----------------------------------------
        BYTE   W42
        BYTE   W01
        BYTE           EOT
        BYTE   W05
        BYTE           N40     Dn5   v083   gtp1
        BYTE   W48
// 040   ----------------------------------------
        BYTE   W96
// 041   ----------------------------------------
        BYTE   W96
// 042   ----------------------------------------
        BYTE   W96
// 043   ----------------------------------------
        BYTE   W96
// 044   ----------------------------------------
        BYTE   W96
// 045   ----------------------------------------
        BYTE   W96
// 046   ----------------------------------------
        BYTE   W96
// 047   ----------------------------------------
        BYTE   W96
// 048   ----------------------------------------
        BYTE   W96
// 049   ----------------------------------------
        BYTE   W96
// 050   ----------------------------------------
        BYTE   W96
// 051   ----------------------------------------
        BYTE   W96
// 052   ----------------------------------------
        BYTE   W96
// 053   ----------------------------------------
        BYTE   W96
// 054   ----------------------------------------
        BYTE   W96
// 055   ----------------------------------------
        BYTE   W96
// 056   ----------------------------------------
        BYTE   W96
// 057   ----------------------------------------
        BYTE   W96
// 058   ----------------------------------------
        BYTE   W96
// 059   ----------------------------------------
        BYTE   W96
// 060   ----------------------------------------
        BYTE   W96
// 061   ----------------------------------------
        BYTE   W96
// 062   ----------------------------------------
        BYTE   W96
// 063   ----------------------------------------
        BYTE   W96
// 064   ----------------------------------------
        BYTE   W96
// 065   ----------------------------------------
        BYTE   W96
// 066   ----------------------------------------
        BYTE   W96
// 067   ----------------------------------------
        BYTE   W96
// 068   ----------------------------------------
        BYTE   W96
// 069   ----------------------------------------
        BYTE   W96
// 070   ----------------------------------------
        BYTE   W96
// 071   ----------------------------------------
        BYTE   W96
// 072   ----------------------------------------
        BYTE   W96
// 073   ----------------------------------------
        BYTE   W96
// 074   ----------------------------------------
        BYTE   W96
// 075   ----------------------------------------
        BYTE   W96
// 076   ----------------------------------------
        BYTE   W96
// 077   ----------------------------------------
        BYTE   W96
// 078   ----------------------------------------
        BYTE   W96
// 079   ----------------------------------------
        BYTE   W92
        BYTE   W01
        BYTE   GoTo
         POIN2  VengefulGodInDarkOceanAbyss000000_3_LOOP
        BYTE   W02
        BYTE   FINE

//****************** Track 4 (Midi-Chn.4) ******************//

VengefulGodInDarkOceanAbyss000000_4:
        BYTE   KEYSH   VengefulGodInDarkOceanAbyss000000_key+0
// 000   ----------------------------------------
VengefulGodInDarkOceanAbyss000000_4_LOOP:
        BYTE           VOICE   73
        BYTE           VOL     9
        BYTE           PAN     c_v-14
        BYTE   W96
// 001   ----------------------------------------
        BYTE   W96
// 002   ----------------------------------------
        BYTE   W96
// 003   ----------------------------------------
        BYTE   W96
// 004   ----------------------------------------
        BYTE   W96
// 005   ----------------------------------------
        BYTE   W96
// 006   ----------------------------------------
        BYTE   W96
// 007   ----------------------------------------
        BYTE   W96
// 008   ----------------------------------------
        BYTE   W12
        BYTE           BEND    c_v+2
        BYTE   W11
        BYTE           N05     Bn2   v110
        BYTE   W01
        BYTE           N68     En3   v123   gtp1
        BYTE   W68
        BYTE   W03
        BYTE           N03     Bn2   v116
        BYTE   W01
// 009   ----------------------------------------
        BYTE   W02
        BYTE                   En3
        BYTE   W03
        BYTE                   Fs3   v118
        BYTE   W03
        BYTE                   Gn3   v116
        BYTE   W03
        BYTE           N07     Bn3   v115
        BYTE   W03
        BYTE           N05     En4   v117
        BYTE   W03
        BYTE           N02     Fs4   v108
        BYTE   W03
        BYTE           N04     Bn4   v125
        BYTE   W05
        BYTE           N72     Fs4   v121   gtp3
        BYTE   W68
        BYTE   W03
// 010   ----------------------------------------
        BYTE   W12
        BYTE           N13     En4   v123
        BYTE   W12
        BYTE           N80     Fs4   v121   gtp2
        BYTE   W72
// 011   ----------------------------------------
        BYTE   W11
        BYTE           N05     An4   v120
        BYTE   W05
        BYTE           N08     Gn4   v122
        BYTE   W08
        BYTE           N68     Fs4   v120   gtp3
        BYTE   W72
// 012   ----------------------------------------
        BYTE   W05
        BYTE           N03     Bn2   v111
        BYTE   W03
        BYTE                   En3
        BYTE   W03
        BYTE                   Fs3   v113
        BYTE   W03
        BYTE                   Gn3   v111
        BYTE   W03
        BYTE           N07     Bn3   v110
        BYTE   W03
        BYTE           N04     En4   v114
        BYTE   W03
        BYTE           N80     Fs4   v124   gtp1
        BYTE   W72
        BYTE   W01
// 013   ----------------------------------------
        BYTE   W12
        BYTE           N09     En4   v120
        BYTE   W10
        BYTE           N04     An3   v109
        BYTE   W03
        BYTE           N76     Bn3   v119   gtp1
        BYTE   W68
        BYTE   W03
// 014   ----------------------------------------
        BYTE   W12
        BYTE           N06     Bn3   v123
        BYTE   W06
        BYTE           N08     An3   v116
        BYTE   W05
        BYTE           N78     Bn3   v122
        BYTE   W72
        BYTE   W01
// 015   ----------------------------------------
        BYTE   W10
        BYTE           N06     Cn4   v118
        BYTE   W06
        BYTE                   Dn4   v122
        BYTE   W06
        BYTE           N15     Bn3   v126
        BYTE   W17
        BYTE           N03     An3   v122
        BYTE   W02
        BYTE           N17     Bn3   v121
        BYTE   W17
        BYTE           N13     An3
        BYTE   W13
        BYTE           N17     Gn3
        BYTE   W17
        BYTE           N18     An3   v118
        BYTE   W08
// 016   ----------------------------------------
        BYTE   W10
        BYTE           N10     Bn3   v119
        BYTE   W10
        BYTE           N04     En3   v116
        BYTE   W03
        BYTE           N76     Fs3   v120
        BYTE   W72
        BYTE   W01
// 017   ----------------------------------------
        BYTE   W12
        BYTE           N05     Gn3
        BYTE   W06
        BYTE           N07     En3   v117
        BYTE   W04
        BYTE           N24     Fs3   v121   gtp2
        BYTE   W24
        BYTE   W01
        BYTE                   En3
        BYTE   W24
        BYTE                   Fs3   v120
        BYTE   W24
        BYTE   W01
// 018   ----------------------------------------
        BYTE           N21     Gn3   v122
        BYTE   W22
        BYTE           N01     An3   v112
        BYTE   W02
        BYTE           N80     Bn3   v122   gtp3
        BYTE   W72
// 019   ----------------------------------------
        BYTE   W11
        BYTE           N07     Cn4
        BYTE   W05
        BYTE           N08     Dn4   v123
        BYTE   W07
        BYTE           N76     Bn3   v126
        BYTE   W72
        BYTE   W01
// 020   ----------------------------------------
        BYTE   W12
        BYTE           N05
        BYTE   W05
        BYTE           N07     An3   v124
        BYTE   W06
        BYTE           N78     Bn3   v126
        BYTE   W72
        BYTE   W01
// 021   ----------------------------------------
        BYTE   W12
        BYTE           N05
        BYTE   W06
        BYTE           N07     An3   v114
        BYTE   W06
        BYTE           N14     Bn3   v123
        BYTE   W15
        BYTE           N03     An3   v114
        BYTE   W02
        BYTE           N17     Bn3   v123
        BYTE   W17
        BYTE           N11     An3   v125
        BYTE   W13
        BYTE           N18     Bn3   v123
        BYTE   W18
        BYTE           N19     Dn4   v117
        BYTE   W07
// 022   ----------------------------------------
        BYTE   W11
        BYTE           N09     Bn3   v127
        BYTE   W10
        BYTE           N03     Dn4
        BYTE   W02
        BYTE           N68     En4   v127   gtp1
        BYTE   W72
        BYTE   W01
// 023   ----------------------------------------
        BYTE   W02
        BYTE           N02     En2   v088
        BYTE   W03
        BYTE                   Bn2   v111
        BYTE   W03
        BYTE                   En3   v121
        BYTE   W03
        BYTE                   Fs3   v122
        BYTE   W03
        BYTE                   Gn3   v126
        BYTE   W03
        BYTE           N05     Bn3
        BYTE   W03
        BYTE           N02     Dn4
        BYTE   W03
        BYTE           N17     En4
        BYTE   W17
        BYTE           N02     Dn4   v122
        BYTE   W01
        BYTE           N18     En4   v127
        BYTE   W17
        BYTE           N11     Fs4   v126
        BYTE   W12
        BYTE           N03     Gn4
        BYTE   W02
        BYTE           N15     An4   v127
        BYTE   W18
        BYTE           N18     An4   v126
        BYTE   W06
// 024   ----------------------------------------
        BYTE   W10
        BYTE           N11     Gn4   v122
        BYTE   W12
        BYTE           N05     An4   v127
        BYTE   W03
        BYTE           TIE     Bn4   v124
        BYTE   W68
        BYTE   W03
// 025   ----------------------------------------
        BYTE   W52
        BYTE           EOT
        BYTE   W09
        BYTE           N04     Fs4   v117
        BYTE   W03
        BYTE           N08     Gn4   v126
        BYTE   W06
        BYTE           N21     An4   v127
        BYTE   W19
        BYTE           N16     Bn4   v124
        BYTE   W07
// 026   ----------------------------------------
        BYTE   W08
        BYTE           N14     Gn4   v127
        BYTE   W14
        BYTE           N05     An4
        BYTE   W03
        BYTE           N11     Bn4
        BYTE   W15
        BYTE           N03     An4   v122
        BYTE   W02
        BYTE           N64     Bn4   v123   gtp1
        BYTE   W54
// 027   ----------------------------------------
        BYTE   W13
        BYTE           N06     Fs4   v118
        BYTE   W04
        BYTE           N07     Gn4   v125
        BYTE   W07
        BYTE           N18     An4   v127
        BYTE   W17
        BYTE           N17     Bn4
        BYTE   W17
        BYTE           N15     Gn4   v125
        BYTE   W14
        BYTE           N18     Bn4   v127
        BYTE   W17
        BYTE                   Fs4   v126
        BYTE   W07
// 028   ----------------------------------------
        BYTE   W10
        BYTE           N14     Gn4   v125
        BYTE   W13
        BYTE           N05     An4   v124
        BYTE   W03
        BYTE           N12     Bn4   v127
        BYTE   W16
        BYTE           N16     Bn4   v123
        BYTE   W16
        BYTE           N04     Gn4   v127
        BYTE   W03
        BYTE           N84     An4   v122
        BYTE   W32
        BYTE   W03
// 029   ----------------------------------------
        BYTE   W60
        BYTE           N11     En4   v124
        BYTE   W11
        BYTE           N03     En4   v120
        BYTE   W03
        BYTE           N12     Fs4   v127
        BYTE   W16
        BYTE           N19     En4
        BYTE   W06
// 030   ----------------------------------------
        BYTE   W11
        BYTE           N14     Fs4   v124
        BYTE   W11
        BYTE           N05     Gn4   v120
        BYTE   W03
        BYTE           N13     An4   v127
        BYTE   W17
        BYTE           N12
        BYTE   W18
        BYTE           N76     Gn4   v123   gtp1
        BYTE   W36
// 031   ----------------------------------------
        BYTE   W44
        BYTE   W03
        BYTE           N02     En2   v088
        BYTE   W03
        BYTE                   Bn2   v111
        BYTE   W03
        BYTE                   En3   v121
        BYTE   W03
        BYTE                   Fs3   v122
        BYTE   W03
        BYTE                   Gn3   v126
        BYTE   W03
        BYTE                   Bn3
        BYTE   W03
        BYTE                   En4
        BYTE   W03
        BYTE                   Gn4   v127
        BYTE   W02
        BYTE           N19     Fs4   v122
        BYTE   W19
        BYTE                   En4   v127
        BYTE   W07
// 032   ----------------------------------------
        BYTE   W11
        BYTE           N11     Fs4   v122
        BYTE   W12
        BYTE           N05     En4   v127
        BYTE   W03
        BYTE           N14     Fs4   v116
        BYTE   W16
        BYTE           N18     Fs4   v122
        BYTE   W18
        BYTE           TIE     Gn4
        BYTE   W36
// 033   ----------------------------------------
        BYTE   W72
        BYTE           EOT
        BYTE   W12
        BYTE           N11     Bn3   v120
        BYTE   W12
// 034   ----------------------------------------
        BYTE           N12     En4   v121
        BYTE   W11
        BYTE                   Gn4
        BYTE   W12
        BYTE           N19     Fs4
        BYTE   W18
        BYTE           N18     Gn4   v119
        BYTE   W18
        BYTE           N02     Cs4   v111
        BYTE   W02
        BYTE           TIE     Dn4   v126
        BYTE   W32
        BYTE   W03
// 035   ----------------------------------------
        BYTE   W68
        BYTE   W01
        BYTE           EOT
        BYTE   W10
        BYTE           N08     Bn2   v102
        BYTE   W07
        BYTE           N10     Fs3   v116
        BYTE   W05
        BYTE           N05     Bn3   v125
        BYTE   W04
        BYTE           N11     Dn4   v123
        BYTE   W01
// 036   ----------------------------------------
        BYTE   W06
        BYTE           N08     En4   v114
        BYTE   W05
        BYTE           N09     Fs4   v123
        BYTE   W06
        BYTE           N05     Gn4   v114
        BYTE   W07
        BYTE           N17     Fs4   v120
        BYTE   W19
        BYTE           N12     Gn4   v115
        BYTE   W19
        BYTE           N03     An4
        BYTE   W01
        BYTE           N92     Bn4   v127   gtp2
        BYTE   W32
        BYTE   W01
// 037   ----------------------------------------
        BYTE   W68
        BYTE   W03
        BYTE           N04     An4
        BYTE   W03
        BYTE           N17     Bn4   v118
        BYTE   W16
        BYTE                   An4   v127
        BYTE   W06
// 038   ----------------------------------------
        BYTE   W12
        BYTE           N08     Gn4
        BYTE   W13
        BYTE           N16     Fs4   v126
        BYTE   W16
        BYTE           N14     Gn4   v127
        BYTE   W17
        BYTE           N02     Cn5   v118
        BYTE   W02
        BYTE           TIE     Dn5   v125
        BYTE   W36
// 039   ----------------------------------------
        BYTE   W66
        BYTE           EOT
        BYTE   W05
        BYTE           N40     Dn5   v083   gtp1
        BYTE   W24
        BYTE   W01
// 040   ----------------------------------------
        BYTE   W96
// 041   ----------------------------------------
        BYTE   W96
// 042   ----------------------------------------
        BYTE   W96
// 043   ----------------------------------------
        BYTE   W96
// 044   ----------------------------------------
        BYTE   W96
// 045   ----------------------------------------
        BYTE   W96
// 046   ----------------------------------------
        BYTE   W96
// 047   ----------------------------------------
        BYTE   W96
// 048   ----------------------------------------
        BYTE   W96
// 049   ----------------------------------------
        BYTE   W96
// 050   ----------------------------------------
        BYTE   W96
// 051   ----------------------------------------
        BYTE   W96
// 052   ----------------------------------------
        BYTE   W96
// 053   ----------------------------------------
        BYTE   W96
// 054   ----------------------------------------
        BYTE   W96
// 055   ----------------------------------------
        BYTE   W96
// 056   ----------------------------------------
        BYTE   W96
// 057   ----------------------------------------
        BYTE   W96
// 058   ----------------------------------------
        BYTE   W96
// 059   ----------------------------------------
        BYTE   W96
// 060   ----------------------------------------
        BYTE   W96
// 061   ----------------------------------------
        BYTE   W96
// 062   ----------------------------------------
        BYTE   W96
// 063   ----------------------------------------
        BYTE   W96
// 064   ----------------------------------------
        BYTE   W96
// 065   ----------------------------------------
        BYTE   W96
// 066   ----------------------------------------
        BYTE   W96
// 067   ----------------------------------------
        BYTE   W96
// 068   ----------------------------------------
        BYTE   W96
// 069   ----------------------------------------
        BYTE   W96
// 070   ----------------------------------------
        BYTE   W96
// 071   ----------------------------------------
        BYTE   W96
// 072   ----------------------------------------
        BYTE   W96
// 073   ----------------------------------------
        BYTE   W96
// 074   ----------------------------------------
        BYTE   W96
// 075   ----------------------------------------
        BYTE   W96
// 076   ----------------------------------------
        BYTE   W96
// 077   ----------------------------------------
        BYTE   W96
// 078   ----------------------------------------
        BYTE   W96
// 079   ----------------------------------------
        BYTE   W92
        BYTE   W01
        BYTE           BEND    c_v+0
        BYTE   GoTo
         POIN2  VengefulGodInDarkOceanAbyss000000_4_LOOP
        BYTE   W02
        BYTE   FINE

//****************** Track 5 (Midi-Chn.5) ******************//

VengefulGodInDarkOceanAbyss000000_5:
        BYTE   KEYSH   VengefulGodInDarkOceanAbyss000000_key+0
// 000   ----------------------------------------
VengefulGodInDarkOceanAbyss000000_5_LOOP:
        BYTE           VOICE   102
        BYTE           VOL     27
        BYTE           PAN     c_v-14
        BYTE   W96
// 001   ----------------------------------------
        BYTE   W96
// 002   ----------------------------------------
        BYTE   W96
// 003   ----------------------------------------
        BYTE   W96
// 004   ----------------------------------------
        BYTE   W96
// 005   ----------------------------------------
        BYTE   W96
// 006   ----------------------------------------
        BYTE   W96
// 007   ----------------------------------------
        BYTE   W96
// 008   ----------------------------------------
        BYTE   W96
// 009   ----------------------------------------
        BYTE   W96
// 010   ----------------------------------------
        BYTE   W96
// 011   ----------------------------------------
        BYTE   W96
// 012   ----------------------------------------
        BYTE   W96
// 013   ----------------------------------------
        BYTE   W96
// 014   ----------------------------------------
        BYTE   W96
// 015   ----------------------------------------
        BYTE   W96
// 016   ----------------------------------------
        BYTE   W96
// 017   ----------------------------------------
        BYTE   W96
// 018   ----------------------------------------
        BYTE   W96
// 019   ----------------------------------------
        BYTE   W96
// 020   ----------------------------------------
        BYTE   W96
// 021   ----------------------------------------
        BYTE   W96
// 022   ----------------------------------------
        BYTE   W96
// 023   ----------------------------------------
        BYTE   W96
// 024   ----------------------------------------
        BYTE   W96
// 025   ----------------------------------------
        BYTE   W96
// 026   ----------------------------------------
        BYTE   W96
// 027   ----------------------------------------
        BYTE   W96
// 028   ----------------------------------------
        BYTE   W96
// 029   ----------------------------------------
        BYTE   W96
// 030   ----------------------------------------
        BYTE   W96
// 031   ----------------------------------------
        BYTE   W96
// 032   ----------------------------------------
        BYTE   W96
// 033   ----------------------------------------
        BYTE   W96
// 034   ----------------------------------------
        BYTE   W96
// 035   ----------------------------------------
        BYTE   W96
// 036   ----------------------------------------
        BYTE   W96
// 037   ----------------------------------------
        BYTE   W96
// 038   ----------------------------------------
        BYTE   W96
// 039   ----------------------------------------
        BYTE   W96
// 040   ----------------------------------------
VengefulGodInDarkOceanAbyss000000_5_40:
        BYTE           N80     En1   v127   gtp3
        BYTE   W92
        BYTE   W03
        BYTE           N04     Ds1
        BYTE   W01
        BYTE   PEND
// 041   ----------------------------------------
VengefulGodInDarkOceanAbyss000000_5_41:
        BYTE   W01
        BYTE           N36     En1   v127   gtp1
        BYTE   W32
        BYTE   W03
        BYTE           N32     Fs1   v127   gtp3
        BYTE   W36
        BYTE           N23     En1
        BYTE   W24
        BYTE   PEND
// 042   ----------------------------------------
        BYTE           N80     Gn1
        BYTE   W96
// 043   ----------------------------------------
VengefulGodInDarkOceanAbyss000000_5_43:
        BYTE           N05     Fs1   v127
        BYTE   W04
        BYTE           N30     Gn1   v127   gtp1
        BYTE   W32
        BYTE           N32     An1   v127   gtp3
        BYTE   W36
        BYTE           N23     Gn1
        BYTE   W24
        BYTE   PEND
// 044   ----------------------------------------
        BYTE           N80     Fs1   v127   gtp3
        BYTE   W96
// 045   ----------------------------------------
VengefulGodInDarkOceanAbyss000000_5_45:
        BYTE           N32     Fs1   v127   gtp2
        BYTE   W36
        BYTE           N32     En1   v127   gtp3
        BYTE   W36
        BYTE           N23     Fs1
        BYTE   W24
        BYTE   PEND
// 046   ----------------------------------------
        BYTE           N80     Cn1   v127   gtp3
        BYTE   W96
// 047   ----------------------------------------
VengefulGodInDarkOceanAbyss000000_5_47:
        BYTE           N36     Cn1   v127
        BYTE   W36
        BYTE           N32     Dn1   v127   gtp3
        BYTE   W36
        BYTE           N24     Gn1   v127   gtp1
        BYTE   W24
        BYTE   PEND
// 048   ----------------------------------------
        BYTE   PATT
         POIN2  VengefulGodInDarkOceanAbyss000000_5_40
// 049   ----------------------------------------
        BYTE   PATT
         POIN2  VengefulGodInDarkOceanAbyss000000_5_41
// 050   ----------------------------------------
        BYTE           N80     Gn1   v127
        BYTE   W96
// 051   ----------------------------------------
        BYTE   PATT
         POIN2  VengefulGodInDarkOceanAbyss000000_5_43
// 052   ----------------------------------------
        BYTE           N80     Fs1   v127   gtp3
        BYTE   W96
// 053   ----------------------------------------
        BYTE   PATT
         POIN2  VengefulGodInDarkOceanAbyss000000_5_45
// 054   ----------------------------------------
        BYTE           N80     Cn1   v127   gtp3
        BYTE   W96
// 055   ----------------------------------------
        BYTE   PATT
         POIN2  VengefulGodInDarkOceanAbyss000000_5_47
// 056   ----------------------------------------
        BYTE   PATT
         POIN2  VengefulGodInDarkOceanAbyss000000_5_40
// 057   ----------------------------------------
        BYTE   PATT
         POIN2  VengefulGodInDarkOceanAbyss000000_5_41
// 058   ----------------------------------------
        BYTE           N80     Gn1   v127
        BYTE   W96
// 059   ----------------------------------------
        BYTE   PATT
         POIN2  VengefulGodInDarkOceanAbyss000000_5_43
// 060   ----------------------------------------
        BYTE           N80     Fs1   v127   gtp3
        BYTE   W96
// 061   ----------------------------------------
        BYTE   PATT
         POIN2  VengefulGodInDarkOceanAbyss000000_5_45
// 062   ----------------------------------------
        BYTE           N80     Cn1   v127   gtp3
        BYTE   W96
// 063   ----------------------------------------
        BYTE   PATT
         POIN2  VengefulGodInDarkOceanAbyss000000_5_47
// 064   ----------------------------------------
        BYTE   PATT
         POIN2  VengefulGodInDarkOceanAbyss000000_5_40
// 065   ----------------------------------------
        BYTE   PATT
         POIN2  VengefulGodInDarkOceanAbyss000000_5_41
// 066   ----------------------------------------
        BYTE           N80     Gn1   v127
        BYTE   W96
// 067   ----------------------------------------
        BYTE   PATT
         POIN2  VengefulGodInDarkOceanAbyss000000_5_43
// 068   ----------------------------------------
        BYTE           N80     Fs1   v127   gtp3
        BYTE   W96
// 069   ----------------------------------------
        BYTE   PATT
         POIN2  VengefulGodInDarkOceanAbyss000000_5_45
// 070   ----------------------------------------
        BYTE           N80     Cn1   v127   gtp3
        BYTE   W96
// 071   ----------------------------------------
        BYTE   PATT
         POIN2  VengefulGodInDarkOceanAbyss000000_5_47
// 072   ----------------------------------------
        BYTE           TIE     En1   v127
        BYTE   W96
// 073   ----------------------------------------
        BYTE   W84
        BYTE           EOT
        BYTE   W12
// 074   ----------------------------------------
        BYTE           TIE     En1   v088
        BYTE   W96
// 075   ----------------------------------------
        BYTE   W78
        BYTE           EOT
        BYTE   W18
// 076   ----------------------------------------
        BYTE           TIE     En1   v074
        BYTE   W96
// 077   ----------------------------------------
        BYTE   W80
        BYTE   W02
        BYTE           EOT
        BYTE   W14
// 078   ----------------------------------------
        BYTE   W96
// 079   ----------------------------------------
        BYTE   W92
        BYTE   W01
        BYTE   GoTo
         POIN2  VengefulGodInDarkOceanAbyss000000_5_LOOP
        BYTE   W02
        BYTE   FINE

//****************** Track 6 (Midi-Chn.6) ******************//

VengefulGodInDarkOceanAbyss000000_6:
        BYTE   KEYSH   VengefulGodInDarkOceanAbyss000000_key+0
// 000   ----------------------------------------
VengefulGodInDarkOceanAbyss000000_6_LOOP:
        BYTE           VOICE   65
        BYTE           VOL     9
        BYTE           PAN     c_v-14
        BYTE   W96
// 001   ----------------------------------------
        BYTE   W96
// 002   ----------------------------------------
        BYTE   W96
// 003   ----------------------------------------
        BYTE   W96
// 004   ----------------------------------------
        BYTE   W96
// 005   ----------------------------------------
        BYTE   W96
// 006   ----------------------------------------
        BYTE   W96
// 007   ----------------------------------------
        BYTE   W96
// 008   ----------------------------------------
        BYTE   W96
// 009   ----------------------------------------
        BYTE   W96
// 010   ----------------------------------------
        BYTE   W96
// 011   ----------------------------------------
        BYTE   W96
// 012   ----------------------------------------
        BYTE   W96
// 013   ----------------------------------------
        BYTE   W96
// 014   ----------------------------------------
        BYTE   W96
// 015   ----------------------------------------
        BYTE   W96
// 016   ----------------------------------------
        BYTE   W96
// 017   ----------------------------------------
        BYTE   W96
// 018   ----------------------------------------
        BYTE   W96
// 019   ----------------------------------------
        BYTE   W96
// 020   ----------------------------------------
        BYTE   W96
// 021   ----------------------------------------
        BYTE   W96
// 022   ----------------------------------------
        BYTE   W96
// 023   ----------------------------------------
        BYTE   W96
// 024   ----------------------------------------
        BYTE   W96
// 025   ----------------------------------------
        BYTE   W96
// 026   ----------------------------------------
        BYTE   W96
// 027   ----------------------------------------
        BYTE   W96
// 028   ----------------------------------------
        BYTE   W96
// 029   ----------------------------------------
        BYTE   W96
// 030   ----------------------------------------
        BYTE   W96
// 031   ----------------------------------------
        BYTE   W96
// 032   ----------------------------------------
        BYTE   W96
// 033   ----------------------------------------
        BYTE   W96
// 034   ----------------------------------------
        BYTE   W96
// 035   ----------------------------------------
        BYTE   W96
// 036   ----------------------------------------
        BYTE   W96
// 037   ----------------------------------------
        BYTE   W96
// 038   ----------------------------------------
        BYTE   W96
// 039   ----------------------------------------
        BYTE   W96
// 040   ----------------------------------------
        BYTE   W24
        BYTE           N80     En1   v127   gtp3
        BYTE   W72
// 041   ----------------------------------------
VengefulGodInDarkOceanAbyss000000_6_41:
        BYTE   W23
        BYTE           N04     Ds1   v127
        BYTE   W02
        BYTE           N36     En1   v127   gtp1
        BYTE   W32
        BYTE   W03
        BYTE           N32     Fs1   v127   gtp3
        BYTE   W36
        BYTE   PEND
// 042   ----------------------------------------
VengefulGodInDarkOceanAbyss000000_6_42:
        BYTE           N23     En1   v127
        BYTE   W24
        BYTE           N80     Gn1
        BYTE   W72
        BYTE   PEND
// 043   ----------------------------------------
VengefulGodInDarkOceanAbyss000000_6_43:
        BYTE   W24
        BYTE           N05     Fs1   v127
        BYTE   W04
        BYTE           N30     Gn1   v127   gtp1
        BYTE   W32
        BYTE           N32     An1   v127   gtp3
        BYTE   W36
        BYTE   PEND
// 044   ----------------------------------------
VengefulGodInDarkOceanAbyss000000_6_44:
        BYTE           N23     Gn1   v127
        BYTE   W24
        BYTE           N80     Fs1   v127   gtp3
        BYTE   W72
        BYTE   PEND
// 045   ----------------------------------------
VengefulGodInDarkOceanAbyss000000_6_45:
        BYTE   W24
        BYTE           N32     Fs1   v127   gtp2
        BYTE   W36
        BYTE           N32     En1   v127   gtp3
        BYTE   W36
        BYTE   PEND
// 046   ----------------------------------------
VengefulGodInDarkOceanAbyss000000_6_46:
        BYTE           N23     Fs1   v127
        BYTE   W24
        BYTE           N80     Cn1   v127   gtp3
        BYTE   W72
        BYTE   PEND
// 047   ----------------------------------------
VengefulGodInDarkOceanAbyss000000_6_47:
        BYTE   W24
        BYTE           N36     Cn1   v127
        BYTE   W36
        BYTE           N32     Dn1   v127   gtp3
        BYTE   W36
        BYTE   PEND
// 048   ----------------------------------------
        BYTE           N24     Gn1   v127   gtp1
        BYTE   W24
        BYTE           N80     En1   v127   gtp3
        BYTE   W72
// 049   ----------------------------------------
        BYTE   PATT
         POIN2  VengefulGodInDarkOceanAbyss000000_6_41
// 050   ----------------------------------------
        BYTE   PATT
         POIN2  VengefulGodInDarkOceanAbyss000000_6_42
// 051   ----------------------------------------
        BYTE   PATT
         POIN2  VengefulGodInDarkOceanAbyss000000_6_43
// 052   ----------------------------------------
        BYTE   PATT
         POIN2  VengefulGodInDarkOceanAbyss000000_6_44
// 053   ----------------------------------------
        BYTE   PATT
         POIN2  VengefulGodInDarkOceanAbyss000000_6_45
// 054   ----------------------------------------
        BYTE   PATT
         POIN2  VengefulGodInDarkOceanAbyss000000_6_46
// 055   ----------------------------------------
        BYTE   PATT
         POIN2  VengefulGodInDarkOceanAbyss000000_6_47
// 056   ----------------------------------------
        BYTE           N24     Gn1   v127   gtp1
        BYTE   W96
// 057   ----------------------------------------
        BYTE   W96
// 058   ----------------------------------------
        BYTE   W96
// 059   ----------------------------------------
        BYTE   W96
// 060   ----------------------------------------
        BYTE   W96
// 061   ----------------------------------------
        BYTE   W96
// 062   ----------------------------------------
        BYTE   W96
// 063   ----------------------------------------
        BYTE   W96
// 064   ----------------------------------------
        BYTE   W96
// 065   ----------------------------------------
        BYTE   W96
// 066   ----------------------------------------
        BYTE   W96
// 067   ----------------------------------------
        BYTE   W96
// 068   ----------------------------------------
        BYTE   W96
// 069   ----------------------------------------
        BYTE   W96
// 070   ----------------------------------------
        BYTE   W96
// 071   ----------------------------------------
        BYTE   W96
// 072   ----------------------------------------
        BYTE   W96
// 073   ----------------------------------------
        BYTE   W96
// 074   ----------------------------------------
        BYTE   W96
// 075   ----------------------------------------
        BYTE   W96
// 076   ----------------------------------------
        BYTE   W96
// 077   ----------------------------------------
        BYTE   W96
// 078   ----------------------------------------
        BYTE   W96
// 079   ----------------------------------------
        BYTE   W92
        BYTE   W01
        BYTE   GoTo
         POIN2  VengefulGodInDarkOceanAbyss000000_6_LOOP
        BYTE   W02
        BYTE   FINE

//****************** Track 7 (Midi-Chn.8) ******************//

VengefulGodInDarkOceanAbyss000000_7:
        BYTE   KEYSH   VengefulGodInDarkOceanAbyss000000_key+0
// 000   ----------------------------------------
VengefulGodInDarkOceanAbyss000000_7_LOOP:
        BYTE           VOICE   3
        BYTE           VOL     22
        BYTE   W96
// 001   ----------------------------------------
        BYTE   W96
// 002   ----------------------------------------
        BYTE   W96
// 003   ----------------------------------------
        BYTE   W96
// 004   ----------------------------------------
        BYTE   W96
// 005   ----------------------------------------
        BYTE   W96
// 006   ----------------------------------------
        BYTE   W96
// 007   ----------------------------------------
        BYTE   W96
// 008   ----------------------------------------
        BYTE   W96
// 009   ----------------------------------------
        BYTE   W96
// 010   ----------------------------------------
        BYTE   W96
// 011   ----------------------------------------
        BYTE   W96
// 012   ----------------------------------------
        BYTE   W96
// 013   ----------------------------------------
        BYTE   W96
// 014   ----------------------------------------
        BYTE   W96
// 015   ----------------------------------------
        BYTE   W96
// 016   ----------------------------------------
        BYTE   W96
// 017   ----------------------------------------
        BYTE   W96
// 018   ----------------------------------------
        BYTE   W96
// 019   ----------------------------------------
        BYTE   W96
// 020   ----------------------------------------
        BYTE   W96
// 021   ----------------------------------------
        BYTE   W96
// 022   ----------------------------------------
        BYTE   W96
// 023   ----------------------------------------
        BYTE   W96
// 024   ----------------------------------------
        BYTE   W96
// 025   ----------------------------------------
        BYTE   W96
// 026   ----------------------------------------
        BYTE   W96
// 027   ----------------------------------------
        BYTE   W96
// 028   ----------------------------------------
        BYTE   W96
// 029   ----------------------------------------
        BYTE   W96
// 030   ----------------------------------------
        BYTE   W96
// 031   ----------------------------------------
        BYTE   W96
// 032   ----------------------------------------
        BYTE   W96
// 033   ----------------------------------------
        BYTE   W96
// 034   ----------------------------------------
        BYTE   W96
// 035   ----------------------------------------
        BYTE   W96
// 036   ----------------------------------------
        BYTE   W96
// 037   ----------------------------------------
        BYTE   W96
// 038   ----------------------------------------
        BYTE   W96
// 039   ----------------------------------------
        BYTE   W96
// 040   ----------------------------------------
VengefulGodInDarkOceanAbyss000000_7_40:
        BYTE           N03     En4   v077
        BYTE           N03     Gn4
        BYTE   W12
        BYTE           N02     En4   v043
        BYTE           N02     Gn4
        BYTE   W12
        BYTE           N01     En4   v067
        BYTE           N01     Gn4
        BYTE   W12
        BYTE           N03     En4   v077
        BYTE           N03     Gn4
        BYTE   W12
        BYTE           N02     En4   v062
        BYTE           N02     Gn4
        BYTE   W12
        BYTE                   En4   v066
        BYTE           N02     Gn4
        BYTE   W12
        BYTE                   En4   v070
        BYTE           N02     Gn4
        BYTE   W12
        BYTE           N01     En4   v069
        BYTE           N01     Gn4
        BYTE   W12
        BYTE   PEND
// 041   ----------------------------------------
VengefulGodInDarkOceanAbyss000000_7_41:
        BYTE           N03     En4   v076
        BYTE           N03     Gn4
        BYTE   W12
        BYTE           N01     En4   v066
        BYTE           N01     Gn4
        BYTE   W12
        BYTE                   En4   v059
        BYTE           N01     Gn4
        BYTE   W12
        BYTE           N03     En4   v074
        BYTE           N03     Gn4
        BYTE   W12
        BYTE           N01     En4   v065
        BYTE           N01     Gn4
        BYTE   W12
        BYTE                   En4
        BYTE           N01     Gn4
        BYTE   W12
        BYTE           N02     En4   v070
        BYTE           N02     Gn4
        BYTE   W12
        BYTE                   En4
        BYTE           N02     Gn4
        BYTE   W12
        BYTE   PEND
// 042   ----------------------------------------
VengefulGodInDarkOceanAbyss000000_7_42:
        BYTE           N03     Dn4   v079
        BYTE           N03     Gn4   v077
        BYTE   W12
        BYTE           N02     Dn4   v067
        BYTE           N02     Gn4   v043
        BYTE   W12
        BYTE           N01     Dn4   v062
        BYTE           N01     Gn4   v067
        BYTE   W12
        BYTE           N03     Dn4   v077
        BYTE           N03     Gn4
        BYTE   W12
        BYTE           N01     Dn4   v058
        BYTE           N02     Gn4   v062
        BYTE   W12
        BYTE           N01     Dn4   v066
        BYTE           N02     Gn4
        BYTE   W12
        BYTE                   Dn4   v070
        BYTE           N02     Gn4
        BYTE   W12
        BYTE                   Dn4   v061
        BYTE           N01     Gn4   v069
        BYTE   W12
        BYTE   PEND
// 043   ----------------------------------------
VengefulGodInDarkOceanAbyss000000_7_43:
        BYTE           N04     Dn4   v076
        BYTE           N03     Gn4
        BYTE   W12
        BYTE           N02     Dn4   v057
        BYTE           N01     Gn4   v066
        BYTE   W12
        BYTE           N02     Dn4   v058
        BYTE           N01     Gn4   v059
        BYTE   W12
        BYTE           N03     Dn4   v077
        BYTE           N03     Gn4   v074
        BYTE   W12
        BYTE           N02     Dn4   v061
        BYTE           N01     Gn4   v065
        BYTE   W12
        BYTE                   Dn4   v064
        BYTE           N01     Gn4   v065
        BYTE   W12
        BYTE           N02     Dn4   v070
        BYTE           N02     Gn4
        BYTE   W12
        BYTE                   Dn4   v060
        BYTE           N02     Gn4   v070
        BYTE   W12
        BYTE   PEND
// 044   ----------------------------------------
VengefulGodInDarkOceanAbyss000000_7_44:
        BYTE           N04     Cs4   v070
        BYTE           N03     Gn4   v077
        BYTE   W12
        BYTE           N01     Cs4   v055
        BYTE           N02     Gn4   v043
        BYTE   W12
        BYTE           N03     Cs4   v066
        BYTE           N01     Gn4   v067
        BYTE   W12
        BYTE           N03     Cs4   v070
        BYTE           N03     Gn4   v077
        BYTE   W12
        BYTE           N02     Cs4   v058
        BYTE           N02     Gn4   v062
        BYTE   W12
        BYTE                   Cs4   v064
        BYTE           N02     Gn4   v066
        BYTE   W12
        BYTE                   Cs4   v060
        BYTE           N02     Gn4   v070
        BYTE   W12
        BYTE                   Cs4   v055
        BYTE           N01     Gn4   v069
        BYTE   W12
        BYTE   PEND
// 045   ----------------------------------------
VengefulGodInDarkOceanAbyss000000_7_45:
        BYTE           N02     Cs4   v073
        BYTE           N03     Gn4   v076
        BYTE   W12
        BYTE           N01     Cs4   v055
        BYTE           N01     Gn4   v066
        BYTE   W12
        BYTE           N02     Cs4   v061
        BYTE           N01     Gn4   v059
        BYTE   W12
        BYTE           N02     Cs4   v067
        BYTE           N03     Gn4   v074
        BYTE   W12
        BYTE           N01     Cs4   v056
        BYTE           N01     Gn4   v065
        BYTE   W12
        BYTE           N03     Cs4   v055
        BYTE           N01     Gn4   v065
        BYTE   W12
        BYTE           N03     Cs4   v064
        BYTE           N02     Gn4   v070
        BYTE   W12
        BYTE           N01     Cs4   v062
        BYTE           N02     Gn4   v070
        BYTE   W12
        BYTE   PEND
// 046   ----------------------------------------
VengefulGodInDarkOceanAbyss000000_7_46:
        BYTE           N03     Cn4   v077
        BYTE           N03     Gn4
        BYTE   W12
        BYTE           N02     Cn4   v052
        BYTE           N02     Gn4   v043
        BYTE   W12
        BYTE                   Cn4   v059
        BYTE           N01     Gn4   v067
        BYTE   W12
        BYTE           N03     Cn4   v070
        BYTE           N03     Gn4   v077
        BYTE   W12
        BYTE           N02     Cn4   v058
        BYTE           N02     Gn4   v062
        BYTE   W12
        BYTE                   Cn4   v055
        BYTE           N02     Gn4   v066
        BYTE   W12
        BYTE           N03     Cn4   v064
        BYTE           N02     Gn4   v070
        BYTE   W12
        BYTE                   Cn4   v060
        BYTE           N01     Gn4   v069
        BYTE   W12
        BYTE   PEND
// 047   ----------------------------------------
VengefulGodInDarkOceanAbyss000000_7_47:
        BYTE           N02     Cn4   v075
        BYTE           N03     Gn4   v076
        BYTE   W12
        BYTE           N02     Cn4   v057
        BYTE           N01     Gn4   v066
        BYTE   W12
        BYTE           N02     Cn4   v051
        BYTE           N01     Gn4   v059
        BYTE   W12
        BYTE           N04     Cn4   v075
        BYTE           N03     Gn4   v074
        BYTE   W12
        BYTE           N02     Cn4   v056
        BYTE           N01     Gn4   v065
        BYTE   W12
        BYTE           N04     Cn4   v060
        BYTE           N01     Gn4   v065
        BYTE   W12
        BYTE           N03     Cn4   v062
        BYTE           N02     Gn4   v070
        BYTE   W12
        BYTE           N04     Cn4   v061
        BYTE           N02     Gn4   v070
        BYTE   W12
        BYTE   PEND
// 048   ----------------------------------------
        BYTE   PATT
         POIN2  VengefulGodInDarkOceanAbyss000000_7_40
// 049   ----------------------------------------
        BYTE   PATT
         POIN2  VengefulGodInDarkOceanAbyss000000_7_41
// 050   ----------------------------------------
        BYTE   PATT
         POIN2  VengefulGodInDarkOceanAbyss000000_7_42
// 051   ----------------------------------------
        BYTE   PATT
         POIN2  VengefulGodInDarkOceanAbyss000000_7_43
// 052   ----------------------------------------
        BYTE   PATT
         POIN2  VengefulGodInDarkOceanAbyss000000_7_44
// 053   ----------------------------------------
        BYTE   PATT
         POIN2  VengefulGodInDarkOceanAbyss000000_7_45
// 054   ----------------------------------------
        BYTE   PATT
         POIN2  VengefulGodInDarkOceanAbyss000000_7_46
// 055   ----------------------------------------
        BYTE   PATT
         POIN2  VengefulGodInDarkOceanAbyss000000_7_47
// 056   ----------------------------------------
        BYTE   PATT
         POIN2  VengefulGodInDarkOceanAbyss000000_7_40
// 057   ----------------------------------------
        BYTE   PATT
         POIN2  VengefulGodInDarkOceanAbyss000000_7_41
// 058   ----------------------------------------
        BYTE   PATT
         POIN2  VengefulGodInDarkOceanAbyss000000_7_42
// 059   ----------------------------------------
        BYTE   PATT
         POIN2  VengefulGodInDarkOceanAbyss000000_7_43
// 060   ----------------------------------------
        BYTE   PATT
         POIN2  VengefulGodInDarkOceanAbyss000000_7_44
// 061   ----------------------------------------
        BYTE   PATT
         POIN2  VengefulGodInDarkOceanAbyss000000_7_45
// 062   ----------------------------------------
        BYTE   PATT
         POIN2  VengefulGodInDarkOceanAbyss000000_7_46
// 063   ----------------------------------------
        BYTE   PATT
         POIN2  VengefulGodInDarkOceanAbyss000000_7_47
// 064   ----------------------------------------
        BYTE   PATT
         POIN2  VengefulGodInDarkOceanAbyss000000_7_40
// 065   ----------------------------------------
        BYTE   PATT
         POIN2  VengefulGodInDarkOceanAbyss000000_7_41
// 066   ----------------------------------------
        BYTE   PATT
         POIN2  VengefulGodInDarkOceanAbyss000000_7_42
// 067   ----------------------------------------
        BYTE   PATT
         POIN2  VengefulGodInDarkOceanAbyss000000_7_43
// 068   ----------------------------------------
        BYTE   PATT
         POIN2  VengefulGodInDarkOceanAbyss000000_7_44
// 069   ----------------------------------------
        BYTE   PATT
         POIN2  VengefulGodInDarkOceanAbyss000000_7_45
// 070   ----------------------------------------
        BYTE   PATT
         POIN2  VengefulGodInDarkOceanAbyss000000_7_46
// 071   ----------------------------------------
        BYTE   PATT
         POIN2  VengefulGodInDarkOceanAbyss000000_7_47
// 072   ----------------------------------------
        BYTE   PATT
         POIN2  VengefulGodInDarkOceanAbyss000000_7_40
// 073   ----------------------------------------
        BYTE   PATT
         POIN2  VengefulGodInDarkOceanAbyss000000_7_41
// 074   ----------------------------------------
        BYTE           N03     En4   v053
        BYTE           N03     Gn4
        BYTE   W12
        BYTE           N02     En4   v019
        BYTE           N02     Gn4
        BYTE   W12
        BYTE           N01     En4   v043
        BYTE           N01     Gn4
        BYTE   W12
        BYTE           N03     En4   v053
        BYTE           N03     Gn4
        BYTE   W12
        BYTE           N02     En4   v038
        BYTE           N02     Gn4
        BYTE   W12
        BYTE                   En4   v042
        BYTE           N02     Gn4
        BYTE   W12
        BYTE                   En4   v046
        BYTE           N02     Gn4
        BYTE   W12
        BYTE           N01     En4   v045
        BYTE           N01     Gn4
        BYTE   W12
// 075   ----------------------------------------
        BYTE           N03     En4   v033
        BYTE           N03     Gn4
        BYTE   W12
        BYTE           N01     En4   v023
        BYTE           N01     Gn4
        BYTE   W12
        BYTE                   En4   v016
        BYTE           N01     Gn4
        BYTE   W12
        BYTE           N03     En4   v031
        BYTE           N03     Gn4
        BYTE   W12
        BYTE           N01     En4   v022
        BYTE           N01     Gn4
        BYTE   W12
        BYTE                   En4
        BYTE           N01     Gn4
        BYTE   W12
        BYTE           N02     En4   v027
        BYTE           N02     Gn4
        BYTE   W12
        BYTE                   En4
        BYTE           N02     Gn4
        BYTE   W12
// 076   ----------------------------------------
        BYTE   W96
// 077   ----------------------------------------
        BYTE   W96
// 078   ----------------------------------------
        BYTE   W96
// 079   ----------------------------------------
        BYTE   W92
        BYTE   W01
        BYTE   GoTo
         POIN2  VengefulGodInDarkOceanAbyss000000_7_LOOP
        BYTE   W02
        BYTE   FINE

//***************** Track 8 (Midi-Chn.10) ******************//

VengefulGodInDarkOceanAbyss000000_8:
        BYTE   KEYSH   VengefulGodInDarkOceanAbyss000000_key+0
// 000   ----------------------------------------
VengefulGodInDarkOceanAbyss000000_8_LOOP:
        BYTE           VOICE   68
        BYTE           VOL     32
        BYTE           PAN     c_v-20
        BYTE   W96
// 001   ----------------------------------------
        BYTE   W96
// 002   ----------------------------------------
        BYTE   W96
// 003   ----------------------------------------
        BYTE   W96
// 004   ----------------------------------------
        BYTE   W96
// 005   ----------------------------------------
        BYTE   W96
// 006   ----------------------------------------
        BYTE   W96
// 007   ----------------------------------------
        BYTE   W96
// 008   ----------------------------------------
        BYTE   W96
// 009   ----------------------------------------
        BYTE   W96
// 010   ----------------------------------------
        BYTE   W96
// 011   ----------------------------------------
        BYTE   W96
// 012   ----------------------------------------
        BYTE   W96
// 013   ----------------------------------------
        BYTE   W96
// 014   ----------------------------------------
        BYTE   W96
// 015   ----------------------------------------
        BYTE   W96
// 016   ----------------------------------------
        BYTE   W96
// 017   ----------------------------------------
        BYTE   W96
// 018   ----------------------------------------
        BYTE   W96
// 019   ----------------------------------------
        BYTE   W96
// 020   ----------------------------------------
        BYTE   W96
// 021   ----------------------------------------
        BYTE   W96
// 022   ----------------------------------------
        BYTE   W96
// 023   ----------------------------------------
        BYTE   W96
// 024   ----------------------------------------
        BYTE   W96
// 025   ----------------------------------------
        BYTE   W96
// 026   ----------------------------------------
        BYTE   W96
// 027   ----------------------------------------
        BYTE   W96
// 028   ----------------------------------------
        BYTE   W96
// 029   ----------------------------------------
        BYTE   W96
// 030   ----------------------------------------
        BYTE   W96
// 031   ----------------------------------------
        BYTE   W96
// 032   ----------------------------------------
        BYTE   W96
// 033   ----------------------------------------
        BYTE   W96
// 034   ----------------------------------------
        BYTE   W96
// 035   ----------------------------------------
        BYTE   W96
// 036   ----------------------------------------
        BYTE   W96
// 037   ----------------------------------------
        BYTE   W96
// 038   ----------------------------------------
        BYTE   W96
// 039   ----------------------------------------
        BYTE   W96
// 040   ----------------------------------------
        BYTE   W96
// 041   ----------------------------------------
        BYTE   W96
// 042   ----------------------------------------
        BYTE   W96
// 043   ----------------------------------------
        BYTE   W96
// 044   ----------------------------------------
        BYTE   W96
// 045   ----------------------------------------
        BYTE   W96
// 046   ----------------------------------------
        BYTE   W96
// 047   ----------------------------------------
        BYTE   W96
// 048   ----------------------------------------
        BYTE   W96
// 049   ----------------------------------------
        BYTE   W96
// 050   ----------------------------------------
        BYTE   W96
// 051   ----------------------------------------
        BYTE   W96
// 052   ----------------------------------------
        BYTE   W96
// 053   ----------------------------------------
        BYTE   W96
// 054   ----------------------------------------
        BYTE   W96
// 055   ----------------------------------------
        BYTE   W96
// 056   ----------------------------------------
VengefulGodInDarkOceanAbyss000000_8_56:
        BYTE           N80     Bn3   v082   gtp3
        BYTE   W84
        BYTE           N11     Bn3   v055
        BYTE   W12
        BYTE   PEND
// 057   ----------------------------------------
VengefulGodInDarkOceanAbyss000000_8_57:
        BYTE           N32     Bn3   v089   gtp3
        BYTE   W32
        BYTE   W02
        BYTE           N36     En4   v095   gtp2
        BYTE   W32
        BYTE   W03
        BYTE           N24     Bn3   v094   gtp2
        BYTE   W24
        BYTE   W01
        BYTE           N80     Dn4   v096   gtp3
        BYTE   W02
        BYTE   PEND
// 058   ----------------------------------------
VengefulGodInDarkOceanAbyss000000_8_58:
        BYTE   W84
        BYTE           N11     Dn4   v055
        BYTE   W12
        BYTE   PEND
// 059   ----------------------------------------
VengefulGodInDarkOceanAbyss000000_8_59:
        BYTE           N32     Bn3   v092   gtp3
        BYTE   W36
        BYTE                   Dn4   v098
        BYTE   W36
        BYTE           N23     Gn4   v096
        BYTE   W22
        BYTE           N80     Fs4   v096   gtp1
        BYTE   W02
        BYTE   PEND
// 060   ----------------------------------------
VengefulGodInDarkOceanAbyss000000_8_60:
        BYTE   W84
        BYTE           N11     Fs4   v055
        BYTE   W12
        BYTE   PEND
// 061   ----------------------------------------
VengefulGodInDarkOceanAbyss000000_8_61:
        BYTE           N36     Fs4   v096
        BYTE   W36
        BYTE           N32     Cs4   v093   gtp1
        BYTE   W36
        BYTE           N23     Fs4   v096
        BYTE   W24
        BYTE   PEND
// 062   ----------------------------------------
VengefulGodInDarkOceanAbyss000000_8_62:
        BYTE   W01
        BYTE           N78     En4   v086   gtp1
        BYTE   W80
        BYTE   W03
        BYTE           N11     En4   v055
        BYTE   W12
        BYTE   PEND
// 063   ----------------------------------------
VengefulGodInDarkOceanAbyss000000_8_63:
        BYTE           N32     En4   v089   gtp3
        BYTE   W36
        BYTE                   Cn4   v096
        BYTE   W36
        BYTE           N23     Gn3   v088
        BYTE   W24
        BYTE   PEND
// 064   ----------------------------------------
        BYTE   PATT
         POIN2  VengefulGodInDarkOceanAbyss000000_8_56
// 065   ----------------------------------------
        BYTE   PATT
         POIN2  VengefulGodInDarkOceanAbyss000000_8_57
// 066   ----------------------------------------
        BYTE   PATT
         POIN2  VengefulGodInDarkOceanAbyss000000_8_58
// 067   ----------------------------------------
        BYTE   PATT
         POIN2  VengefulGodInDarkOceanAbyss000000_8_59
// 068   ----------------------------------------
        BYTE   PATT
         POIN2  VengefulGodInDarkOceanAbyss000000_8_60
// 069   ----------------------------------------
        BYTE   PATT
         POIN2  VengefulGodInDarkOceanAbyss000000_8_61
// 070   ----------------------------------------
        BYTE   PATT
         POIN2  VengefulGodInDarkOceanAbyss000000_8_62
// 071   ----------------------------------------
        BYTE   PATT
         POIN2  VengefulGodInDarkOceanAbyss000000_8_63
// 072   ----------------------------------------
        BYTE           N88     Bn3   v082   gtp1
        BYTE   W96
// 073   ----------------------------------------
        BYTE                   Bn3   v065
        BYTE   W96
// 074   ----------------------------------------
        BYTE                   Bn3   v049
        BYTE   W96
// 075   ----------------------------------------
        BYTE                   Bn3   v033
        BYTE   W96
// 076   ----------------------------------------
        BYTE   W96
// 077   ----------------------------------------
        BYTE   W96
// 078   ----------------------------------------
        BYTE   W96
// 079   ----------------------------------------
        BYTE   W92
        BYTE   W01
        BYTE   GoTo
         POIN2  VengefulGodInDarkOceanAbyss000000_8_LOOP
        BYTE   W02
        BYTE   FINE

//***************** Track 9 (Midi-Chn.11) ******************//

VengefulGodInDarkOceanAbyss000000_9:
        BYTE   KEYSH   VengefulGodInDarkOceanAbyss000000_key+0
// 000   ----------------------------------------
VengefulGodInDarkOceanAbyss000000_9_LOOP:
        BYTE           VOICE   73
        BYTE           VOL     10
        BYTE           PAN     c_v+18
        BYTE   W96
// 001   ----------------------------------------
        BYTE   W96
// 002   ----------------------------------------
        BYTE   W96
// 003   ----------------------------------------
        BYTE   W96
// 004   ----------------------------------------
        BYTE   W96
// 005   ----------------------------------------
        BYTE   W96
// 006   ----------------------------------------
        BYTE   W96
// 007   ----------------------------------------
        BYTE   W96
// 008   ----------------------------------------
        BYTE   W96
// 009   ----------------------------------------
        BYTE   W96
// 010   ----------------------------------------
        BYTE   W96
// 011   ----------------------------------------
        BYTE   W96
// 012   ----------------------------------------
        BYTE   W96
// 013   ----------------------------------------
        BYTE   W96
// 014   ----------------------------------------
        BYTE   W96
// 015   ----------------------------------------
        BYTE   W96
// 016   ----------------------------------------
        BYTE   W96
// 017   ----------------------------------------
        BYTE   W96
// 018   ----------------------------------------
        BYTE   W96
// 019   ----------------------------------------
        BYTE   W96
// 020   ----------------------------------------
        BYTE   W96
// 021   ----------------------------------------
        BYTE   W96
// 022   ----------------------------------------
        BYTE   W96
// 023   ----------------------------------------
        BYTE   W96
// 024   ----------------------------------------
        BYTE   W96
// 025   ----------------------------------------
        BYTE   W96
// 026   ----------------------------------------
        BYTE   W96
// 027   ----------------------------------------
        BYTE   W96
// 028   ----------------------------------------
        BYTE   W96
// 029   ----------------------------------------
        BYTE   W96
// 030   ----------------------------------------
        BYTE   W96
// 031   ----------------------------------------
        BYTE   W96
// 032   ----------------------------------------
        BYTE   W96
// 033   ----------------------------------------
        BYTE   W96
// 034   ----------------------------------------
        BYTE   W96
// 035   ----------------------------------------
        BYTE   W96
// 036   ----------------------------------------
        BYTE   W96
// 037   ----------------------------------------
        BYTE   W96
// 038   ----------------------------------------
        BYTE   W96
// 039   ----------------------------------------
        BYTE   W96
// 040   ----------------------------------------
        BYTE   W96
// 041   ----------------------------------------
        BYTE   W96
// 042   ----------------------------------------
        BYTE   W96
// 043   ----------------------------------------
        BYTE   W96
// 044   ----------------------------------------
        BYTE   W96
// 045   ----------------------------------------
        BYTE   W96
// 046   ----------------------------------------
        BYTE   W96
// 047   ----------------------------------------
        BYTE   W96
// 048   ----------------------------------------
        BYTE   W96
// 049   ----------------------------------------
        BYTE   W96
// 050   ----------------------------------------
        BYTE   W96
// 051   ----------------------------------------
        BYTE   W96
// 052   ----------------------------------------
        BYTE   W96
// 053   ----------------------------------------
        BYTE   W96
// 054   ----------------------------------------
        BYTE   W96
// 055   ----------------------------------------
        BYTE   W96
// 056   ----------------------------------------
VengefulGodInDarkOceanAbyss000000_9_56:
        BYTE           N80     En3   v055   gtp3
        BYTE   W84
        BYTE           N11     En3   v035
        BYTE   W12
        BYTE   PEND
// 057   ----------------------------------------
VengefulGodInDarkOceanAbyss000000_9_57:
        BYTE           N36     En3   v056   gtp2
        BYTE   W36
        BYTE           N28     Bn3   v069
        BYTE   W32
        BYTE   W01
        BYTE                   En3   v060
        BYTE   W24
        BYTE   W02
        BYTE           N80     Gn3   v067   gtp2
        BYTE   W01
        BYTE   PEND
// 058   ----------------------------------------
VengefulGodInDarkOceanAbyss000000_9_58:
        BYTE   W84
        BYTE           N11     Gn3   v035
        BYTE   W12
        BYTE   PEND
// 059   ----------------------------------------
VengefulGodInDarkOceanAbyss000000_9_59:
        BYTE           N32     Gn3   v064   gtp3
        BYTE   W36
        BYTE                   Bn3   v070
        BYTE   W36
        BYTE           N23     Dn4   v079
        BYTE   W22
        BYTE           N80     Cs4   v071   gtp3
        BYTE   W02
        BYTE   PEND
// 060   ----------------------------------------
VengefulGodInDarkOceanAbyss000000_9_60:
        BYTE   W84
        BYTE           N11     Cs4   v035
        BYTE   W12
        BYTE   PEND
// 061   ----------------------------------------
VengefulGodInDarkOceanAbyss000000_9_61:
        BYTE           N28     Cs4   v070
        BYTE   W32
        BYTE   W03
        BYTE           N36     Fs3   v064
        BYTE   W36
        BYTE   W01
        BYTE           N24     Cs4   v070   gtp2
        BYTE   W24
        BYTE   PEND
// 062   ----------------------------------------
VengefulGodInDarkOceanAbyss000000_9_62:
        BYTE           N78     Cn4   v073   gtp1
        BYTE   W84
        BYTE           N11     Cn4   v035
        BYTE   W12
        BYTE   PEND
// 063   ----------------------------------------
VengefulGodInDarkOceanAbyss000000_9_63:
        BYTE           N28     Cn4   v066
        BYTE   W36
        BYTE           N24     Gn3   v067
        BYTE   W32
        BYTE   W03
        BYTE                   En3   v059
        BYTE   W24
        BYTE   W01
        BYTE   PEND
// 064   ----------------------------------------
        BYTE   PATT
         POIN2  VengefulGodInDarkOceanAbyss000000_9_56
// 065   ----------------------------------------
        BYTE   PATT
         POIN2  VengefulGodInDarkOceanAbyss000000_9_57
// 066   ----------------------------------------
        BYTE   PATT
         POIN2  VengefulGodInDarkOceanAbyss000000_9_58
// 067   ----------------------------------------
        BYTE   PATT
         POIN2  VengefulGodInDarkOceanAbyss000000_9_59
// 068   ----------------------------------------
        BYTE   PATT
         POIN2  VengefulGodInDarkOceanAbyss000000_9_60
// 069   ----------------------------------------
        BYTE   PATT
         POIN2  VengefulGodInDarkOceanAbyss000000_9_61
// 070   ----------------------------------------
        BYTE   PATT
         POIN2  VengefulGodInDarkOceanAbyss000000_9_62
// 071   ----------------------------------------
        BYTE   PATT
         POIN2  VengefulGodInDarkOceanAbyss000000_9_63
// 072   ----------------------------------------
        BYTE           N88     En3   v055   gtp1
        BYTE   W96
// 073   ----------------------------------------
        BYTE                   En3   v045
        BYTE   W96
// 074   ----------------------------------------
        BYTE                   En3   v029
        BYTE   W96
// 075   ----------------------------------------
        BYTE                   En3   v013
        BYTE   W96
// 076   ----------------------------------------
        BYTE   W96
// 077   ----------------------------------------
        BYTE   W96
// 078   ----------------------------------------
        BYTE   W96
// 079   ----------------------------------------
        BYTE   W92
        BYTE   W01
        BYTE   GoTo
         POIN2  VengefulGodInDarkOceanAbyss000000_9_LOOP
        BYTE   W02
        BYTE   FINE

//***************** Track 10 (Midi-Chn.12) *****************//

VengefulGodInDarkOceanAbyss000000_10:
        BYTE   KEYSH   VengefulGodInDarkOceanAbyss000000_key+0
// 000   ----------------------------------------
VengefulGodInDarkOceanAbyss000000_10_LOOP:
        BYTE           VOICE   14
        BYTE           VOL     36
        BYTE           PAN     c_v+17
        BYTE           N44     Bn3   v076   gtp2
        BYTE   W18
        BYTE           N40     En3   v061   gtp1
        BYTE   W19
        BYTE           N44     En4   v062   gtp1
        BYTE   W11
        BYTE           N44     Bn3   v043   gtp2
        BYTE   W17
        BYTE           N64     En3   v038
        BYTE   W19
        BYTE           N44     En4   v032   gtp1
        BYTE   W12
// 001   ----------------------------------------
        BYTE   W96
// 002   ----------------------------------------
        BYTE   W96
// 003   ----------------------------------------
        BYTE   W96
// 004   ----------------------------------------
VengefulGodInDarkOceanAbyss000000_10_4:
        BYTE           N44     Bn3   v076   gtp2
        BYTE   W18
        BYTE           N40     En3   v061   gtp1
        BYTE   W19
        BYTE           N44     En4   v062   gtp1
        BYTE   W11
        BYTE           N44     Bn3   v043   gtp2
        BYTE   W17
        BYTE           N64     En3   v038
        BYTE   W19
        BYTE           N44     En4   v032   gtp1
        BYTE   W12
        BYTE   PEND
// 005   ----------------------------------------
        BYTE   W96
// 006   ----------------------------------------
        BYTE   W96
// 007   ----------------------------------------
        BYTE   W96
// 008   ----------------------------------------
        BYTE   W96
// 009   ----------------------------------------
        BYTE   W96
// 010   ----------------------------------------
        BYTE   W96
// 011   ----------------------------------------
        BYTE   W96
// 012   ----------------------------------------
        BYTE   W96
// 013   ----------------------------------------
        BYTE   W96
// 014   ----------------------------------------
        BYTE   W96
// 015   ----------------------------------------
        BYTE   W96
// 016   ----------------------------------------
        BYTE   W96
// 017   ----------------------------------------
        BYTE   W96
// 018   ----------------------------------------
        BYTE   W96
// 019   ----------------------------------------
        BYTE   W96
// 020   ----------------------------------------
        BYTE   W96
// 021   ----------------------------------------
        BYTE   W96
// 022   ----------------------------------------
        BYTE   W96
// 023   ----------------------------------------
        BYTE   W96
// 024   ----------------------------------------
        BYTE   W96
// 025   ----------------------------------------
        BYTE   W96
// 026   ----------------------------------------
        BYTE   W96
// 027   ----------------------------------------
        BYTE   W96
// 028   ----------------------------------------
        BYTE   W96
// 029   ----------------------------------------
        BYTE   W96
// 030   ----------------------------------------
        BYTE   W96
// 031   ----------------------------------------
        BYTE   W96
// 032   ----------------------------------------
        BYTE   W96
// 033   ----------------------------------------
        BYTE   W96
// 034   ----------------------------------------
        BYTE   W96
// 035   ----------------------------------------
        BYTE   W96
// 036   ----------------------------------------
        BYTE   W96
// 037   ----------------------------------------
        BYTE   W96
// 038   ----------------------------------------
        BYTE   W96
// 039   ----------------------------------------
        BYTE   W96
// 040   ----------------------------------------
        BYTE   PATT
         POIN2  VengefulGodInDarkOceanAbyss000000_10_4
// 041   ----------------------------------------
        BYTE   W96
// 042   ----------------------------------------
        BYTE   W96
// 043   ----------------------------------------
        BYTE   W96
// 044   ----------------------------------------
        BYTE   PATT
         POIN2  VengefulGodInDarkOceanAbyss000000_10_4
// 045   ----------------------------------------
        BYTE   W96
// 046   ----------------------------------------
        BYTE   W96
// 047   ----------------------------------------
        BYTE   W96
// 048   ----------------------------------------
        BYTE   PATT
         POIN2  VengefulGodInDarkOceanAbyss000000_10_4
// 049   ----------------------------------------
        BYTE   W96
// 050   ----------------------------------------
        BYTE   W96
// 051   ----------------------------------------
        BYTE   W96
// 052   ----------------------------------------
        BYTE   PATT
         POIN2  VengefulGodInDarkOceanAbyss000000_10_4
// 053   ----------------------------------------
        BYTE   W96
// 054   ----------------------------------------
        BYTE   W96
// 055   ----------------------------------------
        BYTE   W96
// 056   ----------------------------------------
        BYTE   PATT
         POIN2  VengefulGodInDarkOceanAbyss000000_10_4
// 057   ----------------------------------------
        BYTE   W96
// 058   ----------------------------------------
        BYTE   W96
// 059   ----------------------------------------
        BYTE   W96
// 060   ----------------------------------------
        BYTE   PATT
         POIN2  VengefulGodInDarkOceanAbyss000000_10_4
// 061   ----------------------------------------
        BYTE   W96
// 062   ----------------------------------------
        BYTE   W96
// 063   ----------------------------------------
        BYTE   W96
// 064   ----------------------------------------
        BYTE   PATT
         POIN2  VengefulGodInDarkOceanAbyss000000_10_4
// 065   ----------------------------------------
        BYTE   W96
// 066   ----------------------------------------
        BYTE   W96
// 067   ----------------------------------------
        BYTE   W96
// 068   ----------------------------------------
        BYTE   PATT
         POIN2  VengefulGodInDarkOceanAbyss000000_10_4
// 069   ----------------------------------------
        BYTE   W96
// 070   ----------------------------------------
        BYTE   W96
// 071   ----------------------------------------
        BYTE   W96
// 072   ----------------------------------------
        BYTE   PATT
         POIN2  VengefulGodInDarkOceanAbyss000000_10_4
// 073   ----------------------------------------
        BYTE   W96
// 074   ----------------------------------------
        BYTE   W96
// 075   ----------------------------------------
        BYTE   W96
// 076   ----------------------------------------
        BYTE   PATT
         POIN2  VengefulGodInDarkOceanAbyss000000_10_4
// 077   ----------------------------------------
        BYTE   W96
// 078   ----------------------------------------
        BYTE   W96
// 079   ----------------------------------------
        BYTE   W92
        BYTE   W01
        BYTE   GoTo
         POIN2  VengefulGodInDarkOceanAbyss000000_10_LOOP
        BYTE   W02
        BYTE   FINE

//***************** Track 11 (Midi-Chn.13) *****************//

VengefulGodInDarkOceanAbyss000000_11:
        BYTE   KEYSH   VengefulGodInDarkOceanAbyss000000_key+0
// 000   ----------------------------------------
VengefulGodInDarkOceanAbyss000000_11_LOOP:
        BYTE           VOICE   122
        BYTE           VOL     29
        BYTE           TIE     Fn1   v116
        BYTE   W96
// 001   ----------------------------------------
        BYTE   W72
        BYTE           EOT
        BYTE   W24
// 002   ----------------------------------------
        BYTE   W96
// 003   ----------------------------------------
        BYTE   W96
// 004   ----------------------------------------
        BYTE           TIE
        BYTE   W96
// 005   ----------------------------------------
        BYTE   W72
        BYTE           EOT
        BYTE   W24
// 006   ----------------------------------------
        BYTE   W96
// 007   ----------------------------------------
VengefulGodInDarkOceanAbyss000000_11_7:
        BYTE   W48
        BYTE           N44     An2   v119   gtp2
        BYTE   W48
        BYTE   PEND
// 008   ----------------------------------------
        BYTE           TIE     Fn1   v116
        BYTE   W96
// 009   ----------------------------------------
        BYTE   W72
        BYTE           EOT
        BYTE   W24
// 010   ----------------------------------------
        BYTE   W96
// 011   ----------------------------------------
        BYTE   W96
// 012   ----------------------------------------
        BYTE           TIE
        BYTE   W96
// 013   ----------------------------------------
        BYTE   W72
        BYTE           EOT
        BYTE   W24
// 014   ----------------------------------------
        BYTE   W96
// 015   ----------------------------------------
        BYTE   PATT
         POIN2  VengefulGodInDarkOceanAbyss000000_11_7
// 016   ----------------------------------------
        BYTE           TIE     Fn1   v116
        BYTE   W96
// 017   ----------------------------------------
        BYTE   W72
        BYTE           EOT
        BYTE   W24
// 018   ----------------------------------------
        BYTE   W96
// 019   ----------------------------------------
        BYTE   W96
// 020   ----------------------------------------
        BYTE           TIE
        BYTE   W96
// 021   ----------------------------------------
        BYTE   W72
        BYTE           EOT
        BYTE   W24
// 022   ----------------------------------------
        BYTE   W96
// 023   ----------------------------------------
        BYTE   PATT
         POIN2  VengefulGodInDarkOceanAbyss000000_11_7
// 024   ----------------------------------------
        BYTE           TIE     Fn1   v116
        BYTE   W96
// 025   ----------------------------------------
        BYTE   W72
        BYTE           EOT
        BYTE   W24
// 026   ----------------------------------------
        BYTE   W96
// 027   ----------------------------------------
        BYTE   W96
// 028   ----------------------------------------
        BYTE           TIE
        BYTE   W96
// 029   ----------------------------------------
        BYTE   W72
        BYTE           EOT
        BYTE   W24
// 030   ----------------------------------------
        BYTE   W96
// 031   ----------------------------------------
        BYTE   PATT
         POIN2  VengefulGodInDarkOceanAbyss000000_11_7
// 032   ----------------------------------------
        BYTE           TIE     Fn1   v116
        BYTE   W96
// 033   ----------------------------------------
        BYTE   W72
        BYTE           EOT
        BYTE   W24
// 034   ----------------------------------------
        BYTE   W96
// 035   ----------------------------------------
        BYTE   W96
// 036   ----------------------------------------
        BYTE           TIE
        BYTE   W96
// 037   ----------------------------------------
        BYTE   W72
        BYTE           EOT
        BYTE   W24
// 038   ----------------------------------------
        BYTE   W96
// 039   ----------------------------------------
        BYTE   W72
        BYTE           N23     As2   v125
        BYTE   W24
// 040   ----------------------------------------
        BYTE           TIE     Fn1   v116
        BYTE   W96
// 041   ----------------------------------------
        BYTE   W72
        BYTE           EOT
        BYTE   W24
// 042   ----------------------------------------
        BYTE   W96
// 043   ----------------------------------------
        BYTE   W96
// 044   ----------------------------------------
        BYTE           TIE
        BYTE   W96
// 045   ----------------------------------------
        BYTE   W72
        BYTE           EOT
        BYTE   W24
// 046   ----------------------------------------
        BYTE   W96
// 047   ----------------------------------------
        BYTE   PATT
         POIN2  VengefulGodInDarkOceanAbyss000000_11_7
// 048   ----------------------------------------
        BYTE           TIE     Fn1   v116
        BYTE   W96
// 049   ----------------------------------------
        BYTE   W72
        BYTE           EOT
        BYTE   W24
// 050   ----------------------------------------
        BYTE   W96
// 051   ----------------------------------------
        BYTE   W96
// 052   ----------------------------------------
        BYTE           TIE
        BYTE   W96
// 053   ----------------------------------------
        BYTE   W72
        BYTE           EOT
        BYTE   W24
// 054   ----------------------------------------
        BYTE   W96
// 055   ----------------------------------------
        BYTE   PATT
         POIN2  VengefulGodInDarkOceanAbyss000000_11_7
// 056   ----------------------------------------
        BYTE           TIE     Fn1   v116
        BYTE   W96
// 057   ----------------------------------------
        BYTE   W72
        BYTE           EOT
        BYTE   W24
// 058   ----------------------------------------
        BYTE   W96
// 059   ----------------------------------------
        BYTE   W96
// 060   ----------------------------------------
        BYTE           TIE
        BYTE   W96
// 061   ----------------------------------------
        BYTE   W72
        BYTE           EOT
        BYTE   W24
// 062   ----------------------------------------
        BYTE   W96
// 063   ----------------------------------------
        BYTE   PATT
         POIN2  VengefulGodInDarkOceanAbyss000000_11_7
// 064   ----------------------------------------
        BYTE           TIE     Fn1   v116
        BYTE   W96
// 065   ----------------------------------------
        BYTE   W72
        BYTE           EOT
        BYTE   W24
// 066   ----------------------------------------
        BYTE   W96
// 067   ----------------------------------------
        BYTE   W96
// 068   ----------------------------------------
        BYTE           TIE
        BYTE   W96
// 069   ----------------------------------------
        BYTE   W72
        BYTE           EOT
        BYTE   W24
// 070   ----------------------------------------
        BYTE   W96
// 071   ----------------------------------------
        BYTE   PATT
         POIN2  VengefulGodInDarkOceanAbyss000000_11_7
// 072   ----------------------------------------
        BYTE           TIE     Fn1   v116
        BYTE   W96
// 073   ----------------------------------------
        BYTE   W72
        BYTE           EOT
        BYTE   W24
// 074   ----------------------------------------
        BYTE   W96
// 075   ----------------------------------------
        BYTE   W96
// 076   ----------------------------------------
        BYTE           TIE
        BYTE   W96
// 077   ----------------------------------------
        BYTE   W72
        BYTE           EOT
        BYTE   W24
// 078   ----------------------------------------
        BYTE   W96
// 079   ----------------------------------------
        BYTE   W48
        BYTE           N44     An2   v119   gtp2
        BYTE   W44
        BYTE   W01
        BYTE   GoTo
         POIN2  VengefulGodInDarkOceanAbyss000000_11_LOOP
        BYTE   W02
        BYTE   FINE

//***************** Track 12 (Midi-Chn.14) *****************//

VengefulGodInDarkOceanAbyss000000_12:
        BYTE   KEYSH   VengefulGodInDarkOceanAbyss000000_key+0
// 000   ----------------------------------------
VengefulGodInDarkOceanAbyss000000_12_LOOP:
        BYTE           VOICE   122
        BYTE           VOL     27
        BYTE           N32     As5   v090   gtp3
        BYTE   W36
        BYTE                   Cn1   v110
        BYTE   W36
        BYTE           N23     As1   v090
        BYTE   W24
// 001   ----------------------------------------
VengefulGodInDarkOceanAbyss000000_12_1:
        BYTE           N32     Cn1   v110   gtp3
        BYTE   W36
        BYTE                   Cn1
        BYTE   W36
        BYTE           N23     As1   v090
        BYTE   W24
        BYTE   PEND
// 002   ----------------------------------------
        BYTE   PATT
         POIN2  VengefulGodInDarkOceanAbyss000000_12_1
// 003   ----------------------------------------
        BYTE   PATT
         POIN2  VengefulGodInDarkOceanAbyss000000_12_1
// 004   ----------------------------------------
        BYTE   PATT
         POIN2  VengefulGodInDarkOceanAbyss000000_12_1
// 005   ----------------------------------------
        BYTE   PATT
         POIN2  VengefulGodInDarkOceanAbyss000000_12_1
// 006   ----------------------------------------
        BYTE   PATT
         POIN2  VengefulGodInDarkOceanAbyss000000_12_1
// 007   ----------------------------------------
        BYTE   PATT
         POIN2  VengefulGodInDarkOceanAbyss000000_12_1
// 008   ----------------------------------------
        BYTE   PATT
         POIN2  VengefulGodInDarkOceanAbyss000000_12_1
// 009   ----------------------------------------
        BYTE   PATT
         POIN2  VengefulGodInDarkOceanAbyss000000_12_1
// 010   ----------------------------------------
        BYTE   PATT
         POIN2  VengefulGodInDarkOceanAbyss000000_12_1
// 011   ----------------------------------------
        BYTE   PATT
         POIN2  VengefulGodInDarkOceanAbyss000000_12_1
// 012   ----------------------------------------
        BYTE   PATT
         POIN2  VengefulGodInDarkOceanAbyss000000_12_1
// 013   ----------------------------------------
        BYTE   PATT
         POIN2  VengefulGodInDarkOceanAbyss000000_12_1
// 014   ----------------------------------------
        BYTE   PATT
         POIN2  VengefulGodInDarkOceanAbyss000000_12_1
// 015   ----------------------------------------
        BYTE   PATT
         POIN2  VengefulGodInDarkOceanAbyss000000_12_1
// 016   ----------------------------------------
        BYTE   PATT
         POIN2  VengefulGodInDarkOceanAbyss000000_12_1
// 017   ----------------------------------------
        BYTE   PATT
         POIN2  VengefulGodInDarkOceanAbyss000000_12_1
// 018   ----------------------------------------
        BYTE   PATT
         POIN2  VengefulGodInDarkOceanAbyss000000_12_1
// 019   ----------------------------------------
        BYTE   PATT
         POIN2  VengefulGodInDarkOceanAbyss000000_12_1
// 020   ----------------------------------------
        BYTE   PATT
         POIN2  VengefulGodInDarkOceanAbyss000000_12_1
// 021   ----------------------------------------
        BYTE   PATT
         POIN2  VengefulGodInDarkOceanAbyss000000_12_1
// 022   ----------------------------------------
        BYTE   PATT
         POIN2  VengefulGodInDarkOceanAbyss000000_12_1
// 023   ----------------------------------------
        BYTE   PATT
         POIN2  VengefulGodInDarkOceanAbyss000000_12_1
// 024   ----------------------------------------
        BYTE   PATT
         POIN2  VengefulGodInDarkOceanAbyss000000_12_1
// 025   ----------------------------------------
        BYTE   PATT
         POIN2  VengefulGodInDarkOceanAbyss000000_12_1
// 026   ----------------------------------------
        BYTE   PATT
         POIN2  VengefulGodInDarkOceanAbyss000000_12_1
// 027   ----------------------------------------
        BYTE   PATT
         POIN2  VengefulGodInDarkOceanAbyss000000_12_1
// 028   ----------------------------------------
        BYTE   PATT
         POIN2  VengefulGodInDarkOceanAbyss000000_12_1
// 029   ----------------------------------------
        BYTE   PATT
         POIN2  VengefulGodInDarkOceanAbyss000000_12_1
// 030   ----------------------------------------
        BYTE   PATT
         POIN2  VengefulGodInDarkOceanAbyss000000_12_1
// 031   ----------------------------------------
        BYTE   PATT
         POIN2  VengefulGodInDarkOceanAbyss000000_12_1
// 032   ----------------------------------------
        BYTE   PATT
         POIN2  VengefulGodInDarkOceanAbyss000000_12_1
// 033   ----------------------------------------
        BYTE   PATT
         POIN2  VengefulGodInDarkOceanAbyss000000_12_1
// 034   ----------------------------------------
        BYTE   PATT
         POIN2  VengefulGodInDarkOceanAbyss000000_12_1
// 035   ----------------------------------------
        BYTE   PATT
         POIN2  VengefulGodInDarkOceanAbyss000000_12_1
// 036   ----------------------------------------
        BYTE   PATT
         POIN2  VengefulGodInDarkOceanAbyss000000_12_1
// 037   ----------------------------------------
        BYTE   PATT
         POIN2  VengefulGodInDarkOceanAbyss000000_12_1
// 038   ----------------------------------------
        BYTE   PATT
         POIN2  VengefulGodInDarkOceanAbyss000000_12_1
// 039   ----------------------------------------
        BYTE   PATT
         POIN2  VengefulGodInDarkOceanAbyss000000_12_1
// 040   ----------------------------------------
        BYTE   PATT
         POIN2  VengefulGodInDarkOceanAbyss000000_12_1
// 041   ----------------------------------------
        BYTE   PATT
         POIN2  VengefulGodInDarkOceanAbyss000000_12_1
// 042   ----------------------------------------
        BYTE   PATT
         POIN2  VengefulGodInDarkOceanAbyss000000_12_1
// 043   ----------------------------------------
        BYTE   PATT
         POIN2  VengefulGodInDarkOceanAbyss000000_12_1
// 044   ----------------------------------------
        BYTE   PATT
         POIN2  VengefulGodInDarkOceanAbyss000000_12_1
// 045   ----------------------------------------
        BYTE   PATT
         POIN2  VengefulGodInDarkOceanAbyss000000_12_1
// 046   ----------------------------------------
        BYTE   PATT
         POIN2  VengefulGodInDarkOceanAbyss000000_12_1
// 047   ----------------------------------------
        BYTE   PATT
         POIN2  VengefulGodInDarkOceanAbyss000000_12_1
// 048   ----------------------------------------
        BYTE   PATT
         POIN2  VengefulGodInDarkOceanAbyss000000_12_1
// 049   ----------------------------------------
        BYTE   PATT
         POIN2  VengefulGodInDarkOceanAbyss000000_12_1
// 050   ----------------------------------------
        BYTE   PATT
         POIN2  VengefulGodInDarkOceanAbyss000000_12_1
// 051   ----------------------------------------
        BYTE   PATT
         POIN2  VengefulGodInDarkOceanAbyss000000_12_1
// 052   ----------------------------------------
        BYTE   PATT
         POIN2  VengefulGodInDarkOceanAbyss000000_12_1
// 053   ----------------------------------------
        BYTE   PATT
         POIN2  VengefulGodInDarkOceanAbyss000000_12_1
// 054   ----------------------------------------
        BYTE   PATT
         POIN2  VengefulGodInDarkOceanAbyss000000_12_1
// 055   ----------------------------------------
        BYTE   PATT
         POIN2  VengefulGodInDarkOceanAbyss000000_12_1
// 056   ----------------------------------------
        BYTE   PATT
         POIN2  VengefulGodInDarkOceanAbyss000000_12_1
// 057   ----------------------------------------
        BYTE   PATT
         POIN2  VengefulGodInDarkOceanAbyss000000_12_1
// 058   ----------------------------------------
        BYTE   PATT
         POIN2  VengefulGodInDarkOceanAbyss000000_12_1
// 059   ----------------------------------------
        BYTE   PATT
         POIN2  VengefulGodInDarkOceanAbyss000000_12_1
// 060   ----------------------------------------
        BYTE   PATT
         POIN2  VengefulGodInDarkOceanAbyss000000_12_1
// 061   ----------------------------------------
        BYTE   PATT
         POIN2  VengefulGodInDarkOceanAbyss000000_12_1
// 062   ----------------------------------------
        BYTE   PATT
         POIN2  VengefulGodInDarkOceanAbyss000000_12_1
// 063   ----------------------------------------
        BYTE   PATT
         POIN2  VengefulGodInDarkOceanAbyss000000_12_1
// 064   ----------------------------------------
        BYTE   PATT
         POIN2  VengefulGodInDarkOceanAbyss000000_12_1
// 065   ----------------------------------------
        BYTE   PATT
         POIN2  VengefulGodInDarkOceanAbyss000000_12_1
// 066   ----------------------------------------
        BYTE   PATT
         POIN2  VengefulGodInDarkOceanAbyss000000_12_1
// 067   ----------------------------------------
        BYTE   PATT
         POIN2  VengefulGodInDarkOceanAbyss000000_12_1
// 068   ----------------------------------------
        BYTE   PATT
         POIN2  VengefulGodInDarkOceanAbyss000000_12_1
// 069   ----------------------------------------
        BYTE   PATT
         POIN2  VengefulGodInDarkOceanAbyss000000_12_1
// 070   ----------------------------------------
        BYTE   PATT
         POIN2  VengefulGodInDarkOceanAbyss000000_12_1
// 071   ----------------------------------------
        BYTE   PATT
         POIN2  VengefulGodInDarkOceanAbyss000000_12_1
// 072   ----------------------------------------
        BYTE   PATT
         POIN2  VengefulGodInDarkOceanAbyss000000_12_1
// 073   ----------------------------------------
        BYTE   PATT
         POIN2  VengefulGodInDarkOceanAbyss000000_12_1
// 074   ----------------------------------------
        BYTE   PATT
         POIN2  VengefulGodInDarkOceanAbyss000000_12_1
// 075   ----------------------------------------
        BYTE   PATT
         POIN2  VengefulGodInDarkOceanAbyss000000_12_1
// 076   ----------------------------------------
        BYTE   PATT
         POIN2  VengefulGodInDarkOceanAbyss000000_12_1
// 077   ----------------------------------------
        BYTE   PATT
         POIN2  VengefulGodInDarkOceanAbyss000000_12_1
// 078   ----------------------------------------
        BYTE   PATT
         POIN2  VengefulGodInDarkOceanAbyss000000_12_1
// 079   ----------------------------------------
        BYTE           N32     Cn1   v110   gtp3
        BYTE   W36
        BYTE                   Cn1
        BYTE   W36
        BYTE           N23     As1   v090
        BYTE   W21
        BYTE   GoTo
         POIN2  VengefulGodInDarkOceanAbyss000000_12_LOOP
        BYTE   W02
        BYTE   FINE

//***************** Track 13 (Midi-Chn.15) *****************//

VengefulGodInDarkOceanAbyss000000_13:
        BYTE   KEYSH   VengefulGodInDarkOceanAbyss000000_key+0
// 000   ----------------------------------------
VengefulGodInDarkOceanAbyss000000_13_LOOP:
        BYTE           VOICE   122
        BYTE           VOL     42
        BYTE           PAN     c_v+2
        BYTE   W96
// 001   ----------------------------------------
        BYTE   W96
// 002   ----------------------------------------
        BYTE   W96
// 003   ----------------------------------------
        BYTE   W96
// 004   ----------------------------------------
        BYTE   W96
// 005   ----------------------------------------
        BYTE   W96
// 006   ----------------------------------------
        BYTE   W96
// 007   ----------------------------------------
VengefulGodInDarkOceanAbyss000000_13_7:
        BYTE   W48
        BYTE           N44     Fn1   v120   gtp3
        BYTE   W48
        BYTE   PEND
// 008   ----------------------------------------
VengefulGodInDarkOceanAbyss000000_13_8:
        BYTE           N44     Fn1   v094   gtp3
        BYTE   W48
        BYTE                   Fn1   v067
        BYTE   W48
        BYTE   PEND
// 009   ----------------------------------------
        BYTE                   Fn1   v045
        BYTE   W96
// 010   ----------------------------------------
        BYTE   W96
// 011   ----------------------------------------
        BYTE   W96
// 012   ----------------------------------------
        BYTE   W96
// 013   ----------------------------------------
        BYTE   W96
// 014   ----------------------------------------
        BYTE   W96
// 015   ----------------------------------------
        BYTE   PATT
         POIN2  VengefulGodInDarkOceanAbyss000000_13_7
// 016   ----------------------------------------
        BYTE   PATT
         POIN2  VengefulGodInDarkOceanAbyss000000_13_8
// 017   ----------------------------------------
        BYTE           N44     Fn1   v045   gtp3
        BYTE   W96
// 018   ----------------------------------------
        BYTE   W96
// 019   ----------------------------------------
        BYTE   W96
// 020   ----------------------------------------
        BYTE   W96
// 021   ----------------------------------------
        BYTE   W96
// 022   ----------------------------------------
        BYTE   W96
// 023   ----------------------------------------
        BYTE   PATT
         POIN2  VengefulGodInDarkOceanAbyss000000_13_7
// 024   ----------------------------------------
        BYTE   PATT
         POIN2  VengefulGodInDarkOceanAbyss000000_13_8
// 025   ----------------------------------------
        BYTE           N44     Fn1   v045   gtp3
        BYTE   W96
// 026   ----------------------------------------
        BYTE   W96
// 027   ----------------------------------------
        BYTE   W96
// 028   ----------------------------------------
        BYTE   W96
// 029   ----------------------------------------
        BYTE   W96
// 030   ----------------------------------------
        BYTE   W96
// 031   ----------------------------------------
        BYTE   PATT
         POIN2  VengefulGodInDarkOceanAbyss000000_13_7
// 032   ----------------------------------------
        BYTE   PATT
         POIN2  VengefulGodInDarkOceanAbyss000000_13_8
// 033   ----------------------------------------
        BYTE           N44     Fn1   v045   gtp3
        BYTE   W96
// 034   ----------------------------------------
        BYTE   W96
// 035   ----------------------------------------
        BYTE   W96
// 036   ----------------------------------------
        BYTE   W96
// 037   ----------------------------------------
        BYTE   W96
// 038   ----------------------------------------
        BYTE   W96
// 039   ----------------------------------------
        BYTE   W96
// 040   ----------------------------------------
        BYTE   W96
// 041   ----------------------------------------
        BYTE   W96
// 042   ----------------------------------------
        BYTE   W96
// 043   ----------------------------------------
        BYTE   W96
// 044   ----------------------------------------
        BYTE   W96
// 045   ----------------------------------------
        BYTE   W96
// 046   ----------------------------------------
        BYTE   W96
// 047   ----------------------------------------
        BYTE   PATT
         POIN2  VengefulGodInDarkOceanAbyss000000_13_7
// 048   ----------------------------------------
        BYTE   PATT
         POIN2  VengefulGodInDarkOceanAbyss000000_13_8
// 049   ----------------------------------------
        BYTE           N44     Fn1   v045   gtp3
        BYTE   W96
// 050   ----------------------------------------
        BYTE   W96
// 051   ----------------------------------------
        BYTE   W96
// 052   ----------------------------------------
        BYTE   W96
// 053   ----------------------------------------
        BYTE   W96
// 054   ----------------------------------------
        BYTE   W96
// 055   ----------------------------------------
        BYTE   PATT
         POIN2  VengefulGodInDarkOceanAbyss000000_13_7
// 056   ----------------------------------------
        BYTE   PATT
         POIN2  VengefulGodInDarkOceanAbyss000000_13_8
// 057   ----------------------------------------
        BYTE           N44     Fn1   v045   gtp3
        BYTE   W96
// 058   ----------------------------------------
        BYTE   W96
// 059   ----------------------------------------
        BYTE   W96
// 060   ----------------------------------------
        BYTE   W96
// 061   ----------------------------------------
        BYTE   W96
// 062   ----------------------------------------
        BYTE   W96
// 063   ----------------------------------------
        BYTE   PATT
         POIN2  VengefulGodInDarkOceanAbyss000000_13_7
// 064   ----------------------------------------
        BYTE   PATT
         POIN2  VengefulGodInDarkOceanAbyss000000_13_8
// 065   ----------------------------------------
        BYTE           N44     Fn1   v045   gtp3
        BYTE   W96
// 066   ----------------------------------------
        BYTE   W96
// 067   ----------------------------------------
        BYTE   W96
// 068   ----------------------------------------
        BYTE   W96
// 069   ----------------------------------------
        BYTE   W96
// 070   ----------------------------------------
        BYTE   W96
// 071   ----------------------------------------
        BYTE   PATT
         POIN2  VengefulGodInDarkOceanAbyss000000_13_7
// 072   ----------------------------------------
        BYTE   PATT
         POIN2  VengefulGodInDarkOceanAbyss000000_13_8
// 073   ----------------------------------------
        BYTE           N44     Fn1   v045   gtp3
        BYTE   W96
// 074   ----------------------------------------
        BYTE   W96
// 075   ----------------------------------------
        BYTE   W96
// 076   ----------------------------------------
        BYTE   W96
// 077   ----------------------------------------
        BYTE   W96
// 078   ----------------------------------------
        BYTE   W96
// 079   ----------------------------------------
        BYTE   W48
        BYTE                   Fn1   v120
        BYTE   W44
        BYTE   W01
        BYTE   GoTo
         POIN2  VengefulGodInDarkOceanAbyss000000_13_LOOP
        BYTE   W02
        BYTE   FINE


//********************** End of Song ***********************//

        ALIGN 4
VengefulGodInDarkOceanAbyss000000:
        BYTE   14                      // Num Tracks
        BYTE   0                       // Unknown
        BYTE   VengefulGodInDarkOceanAbyss000000_pri // Priority
        BYTE   VengefulGodInDarkOceanAbyss000000_rev // Reverb

        POIN2   VengefulGodInDarkOceanAbyss000000_grp

        POIN2   VengefulGodInDarkOceanAbyss000000_0
        POIN2   VengefulGodInDarkOceanAbyss000000_1
        POIN2   VengefulGodInDarkOceanAbyss000000_2
        POIN2   VengefulGodInDarkOceanAbyss000000_3
        POIN2   VengefulGodInDarkOceanAbyss000000_4
        POIN2   VengefulGodInDarkOceanAbyss000000_5
        POIN2   VengefulGodInDarkOceanAbyss000000_6
        POIN2   VengefulGodInDarkOceanAbyss000000_7
        POIN2   VengefulGodInDarkOceanAbyss000000_8
        POIN2   VengefulGodInDarkOceanAbyss000000_9
        POIN2   VengefulGodInDarkOceanAbyss000000_10
        POIN2   VengefulGodInDarkOceanAbyss000000_11
        POIN2   VengefulGodInDarkOceanAbyss000000_12
        POIN2   VengefulGodInDarkOceanAbyss000000_13

        
